<svg width="18" height="20" viewBox="0 0 18 20" fill="none" xmlns="http://www.w3.org/2000/svg">
<path d="M1.6751 17.6991C2.75476 19.0001 4.76419 19.0001 8.78302 19.0001H9.4321C13.451 19.0001 15.4605 19.0001 16.5401 17.6991M1.6751 17.6991C0.595441 16.3983 0.965755 14.4232 1.70638 10.4732C2.23308 7.66416 2.49644 6.25963 3.49624 5.42986M16.5401 17.6991C17.6198 16.3983 17.2494 14.4232 16.5088 10.4732C15.9821 7.66416 15.7188 6.25963 14.719 5.42986M14.719 5.42986C13.7192 4.6001 12.2901 4.6001 9.4321 4.6001H8.78302C5.92505 4.6001 4.49605 4.6001 3.49624 5.42986" stroke="#0A0D11" stroke-width="1.5"/>
<path d="M11.8071 9.1001L12.7071 14.5001" stroke="#0A0D11" stroke-width="1.5" stroke-linecap="round"/>
<path d="M6.40781 9.1001L5.50781 14.5001" stroke="#0A0D11" stroke-width="1.5" stroke-linecap="round"/>
<path d="M6.40771 4.6V3.7C6.40771 2.20883 7.6165 1 9.10771 1C10.5989 1 11.8077 2.20883 11.8077 3.7V4.6" stroke="#0A0D11" stroke-width="1.5" stroke-linecap="round"/>
</svg>
