<svg width="10" height="11" viewBox="0 0 10 11" fill="none" xmlns="http://www.w3.org/2000/svg">
<path d="M9.09774 4.6011C9.09218 3.62262 9.04914 3.09264 8.7029 2.7469C8.30756 2.35157 7.67127 2.35156 6.39869 2.35156H5.04867C3.77609 2.35156 3.1398 2.35157 2.74446 2.7469C2.34912 3.14224 2.34912 3.77853 2.34912 5.05111V7.30065C2.34912 8.57322 2.34912 9.20951 2.74446 9.60485C3.1398 10.0002 3.77609 10.0002 5.04867 10.0002H6.39869C7.67127 10.0002 8.30756 10.0002 8.7029 9.60485C9.09824 9.20951 9.09824 8.57322 9.09824 7.30065V6.85063" stroke="#0A0D11" stroke-linecap="round"/>
<path d="M1 4.59956V7.29911C1 8.04473 1.60439 8.64913 2.35002 8.64913M7.74912 2.35002C7.74912 1.60439 7.14469 1 6.39907 1H4.59905C2.90228 1 2.05389 1 1.52643 1.52695C1.23233 1.82105 1.10225 2.21487 1.04505 2.79952" stroke="#0A0D11" stroke-linecap="round"/>
</svg>
