<svg width="16" height="16" viewBox="0 0 16 16" fill="none" xmlns="http://www.w3.org/2000/svg">
<path id="Vector" fill-rule="evenodd" clip-rule="evenodd" d="M14.24 6.544C13.992 4 12.488 0 7.84004 0C3.19204 0 1.68804 4 1.44004 6.544C0.570047 6.87418 -0.00381163 7.70947 1.90614e-05 8.64V9.76C1.90614e-05 10.9971 1.00292 12 2.24004 12C3.47716 12 4.48004 10.9971 4.48004 9.76V8.64C4.47602 7.72955 3.92323 6.91144 3.08004 6.568C3.24004 5.096 4.02404 1.6 7.84004 1.6C11.656 1.6 12.432 5.096 12.592 6.568C11.7505 6.91218 11.2006 7.73084 11.2 8.64V9.76C11.2035 10.62 11.6973 11.4026 12.472 11.776C12.136 12.408 11.28 13.264 9.17604 13.52C8.75546 12.8814 7.94176 12.6296 7.23399 12.9191C6.52623 13.2086 6.12227 13.9585 6.26986 14.7088C6.41746 15.4591 7.07535 16 7.84004 16C8.44431 15.9967 8.99514 15.6532 9.26404 15.112C12.696 14.72 13.792 12.952 14.136 11.912C15.0667 11.6105 15.6926 10.7382 15.68 9.76V8.64C15.6839 7.70947 15.11 6.87418 14.24 6.544ZM2.88004 9.76C2.88004 10.1135 2.5935 10.4 2.24004 10.4C1.88658 10.4 1.60004 10.1135 1.60004 9.76V8.64C1.60004 8.41135 1.72202 8.20007 1.92004 8.08574C2.11806 7.97142 2.36202 7.97142 2.56004 8.08574C2.75805 8.20007 2.88004 8.41135 2.88004 8.64V9.76ZM12.8 8.64C12.8 8.28654 13.0866 8 13.44 8C13.7935 8 14.08 8.28654 14.08 8.64V9.76C14.08 10.1135 13.7935 10.4 13.44 10.4C13.0866 10.4 12.8 10.1135 12.8 9.76V8.64Z" fill="#0A0D11"/>
</svg>
