<svg width="18" height="17" viewBox="0 0 18 17" fill="none" xmlns="http://www.w3.org/2000/svg">
<path id="Vector" d="M17.3828 1.52446C17.4809 1.50542 17.5834 1.52446 17.6684 1.57573C17.8134 1.63579 17.916 1.77789 17.916 1.94489L17.9995 13.6026C18.0068 13.7462 17.9365 13.8883 17.8046 13.9659L13.0437 16.8064C12.9763 16.8577 12.8928 16.887 12.802 16.887C12.78 16.887 12.758 16.8855 12.7375 16.8811L0.382496 15.507C0.170084 15.4982 0.000154862 15.3224 0.000154862 15.1071V3.25159C-0.00423986 3.09338 0.0851195 2.93956 0.2404 2.87218L6.43843 0.147447C6.50288 0.118149 6.57613 0.10643 6.6523 0.116684L17.3828 1.52446ZM13.2048 5.07393V15.7766L17.1982 13.3946L17.1205 2.60556L13.2048 5.07393ZM12.4006 16.0358V5.18673L7.13133 4.51434L6.95847 9.54923L5.10829 8.28941L3.25811 9.33535L3.64045 4.06901L0.804389 3.70717V14.7482L12.4006 16.0358ZM11.5671 1.56987L7.68067 3.77602L12.7361 4.42058L16.2797 2.18806L11.5671 1.56987ZM4.13559 3.32337L7.90333 1.08938L6.66109 0.926778L1.86645 3.03478L4.13559 3.32337Z" fill="black"/>
</svg>
