<svg width="17" height="16" viewBox="0 0 17 16" fill="none" xmlns="http://www.w3.org/2000/svg">
<path id="Vector" d="M2.45832 0C1.67805 0.778089 1.0592 1.70267 0.637329 2.72064C0.215455 3.73861 -0.00113385 4.82991 4.46369e-06 5.93183C4.46369e-06 8.24751 0.9397 10.345 2.45832 11.8637L3.64133 10.6806C3.01597 10.0585 2.5204 9.31836 2.18337 8.50316C1.84634 7.68796 1.67458 6.81394 1.67803 5.93183C1.67803 4.07761 2.42476 2.39119 3.64133 1.18301L2.45832 0ZM14.322 0L13.139 1.18301C13.7636 1.80571 14.2587 2.54597 14.5956 3.36104C14.9326 4.17611 15.1048 5.04985 15.1023 5.93183C15.1023 7.79444 14.3555 9.47247 13.139 10.6806L14.322 11.8637C15.1022 11.0856 15.7211 10.161 16.143 9.14302C16.5648 8.12505 16.7814 7.03375 16.7803 5.93183C16.7803 3.61615 15.8406 1.51862 14.322 0ZM4.83273 2.37441C4.36439 2.84087 3.99284 3.39528 3.73942 4.00577C3.48601 4.61627 3.35573 5.27083 3.35606 5.93183C3.35606 7.3162 3.9182 8.57472 4.83273 9.48925L6.01574 8.30624C5.70418 7.99434 5.45713 7.6241 5.28869 7.2167C5.12026 6.80929 5.03374 6.37268 5.03409 5.93183C5.03409 5.00052 5.41165 4.16151 6.01574 3.55742L4.83273 2.37441ZM11.9476 2.37441L10.7646 3.55742C11.0761 3.86932 11.3232 4.23956 11.4916 4.64696C11.66 5.05437 11.7465 5.49098 11.7462 5.93183C11.7462 6.86314 11.3686 7.70215 10.7646 8.30624L11.9476 9.48925C12.4159 9.02279 12.7875 8.46838 13.0409 7.85789C13.2943 7.24739 13.4246 6.59283 13.4242 5.93183C13.4242 4.54746 12.8621 3.28894 11.9476 2.37441ZM8.39015 4.2538C7.94511 4.2538 7.51829 4.43059 7.2036 4.74529C6.88891 5.05998 6.71212 5.48679 6.71212 5.93183C6.71212 6.37687 6.88891 6.80368 7.2036 7.11837C7.51829 7.43307 7.94511 7.60986 8.39015 7.60986C8.83519 7.60986 9.262 7.43307 9.57669 7.11837C9.89138 6.80368 10.0682 6.37687 10.0682 5.93183C10.0682 5.48679 9.89138 5.05998 9.57669 4.74529C9.262 4.43059 8.83519 4.2538 8.39015 4.2538ZM7.55113 9.28789V12.6439H6.71212C6.4896 12.6439 6.27619 12.7323 6.11885 12.8897C5.9615 13.047 5.8731 13.2604 5.8731 13.483H4.46369e-06V15.161H5.8731C5.8731 15.3835 5.9615 15.5969 6.11885 15.7543C6.27619 15.9116 6.4896 16 6.71212 16H10.0682C10.2907 16 10.5041 15.9116 10.6614 15.7543C10.8188 15.5969 10.9072 15.3835 10.9072 15.161H16.7803V13.483H10.9072C10.9072 13.2604 10.8188 13.047 10.6614 12.8897C10.5041 12.7323 10.2907 12.6439 10.0682 12.6439H9.22916V9.28789H7.55113Z" fill="#0A0D11"/>
</svg>
