<svg width="19" height="19" viewBox="0 0 19 19" fill="none" xmlns="http://www.w3.org/2000/svg">
<path id="Vector" d="M2.13715 12.3333C1.41392 12.8889 1 13.5341 1 14.2222C1 16.3086 4.80558 18 9.5 18C14.1945 18 18 16.3086 18 14.2222C18 13.5341 17.586 12.8889 16.8629 12.3333M9.5 4.30556V9.02778M7.13889 6.66667H11.8611M15.1667 6.87654C15.1667 10.1221 12.6296 12.753 9.5 14.2222C6.37038 12.753 3.83333 10.1221 3.83333 6.87654C3.83333 3.63101 6.37038 1 9.5 1C12.6296 1 15.1667 3.63101 15.1667 6.87654Z" stroke="#0A0D11" stroke-width="1.5" stroke-linecap="round" stroke-linejoin="round"/>
</svg>
