<svg width="19" height="19" viewBox="0 0 19 19" fill="none" xmlns="http://www.w3.org/2000/svg">
<g id="32 promo">
<path id="Vector" d="M18.8601 13.3187C18.772 13.0733 18.7405 12.982 18.7248 12.9443C18.6364 12.7075 18.4744 12.5052 18.2627 12.367C18.051 12.2289 17.8006 12.1622 17.5482 12.1767C17.501 12.1767 17.4538 12.1798 17.4034 12.183C17.0133 12.2144 16.6295 12.2805 16.2583 12.3403C15.9405 12.3937 15.6102 12.4472 15.2893 12.4818C14.5552 12.5655 13.8163 12.5992 13.0776 12.5825C12.4554 12.5638 11.8346 12.5103 11.2183 12.4221C11.2455 12.2036 11.2094 11.982 11.1145 11.7834C11.0363 11.6232 10.9244 11.4819 10.7864 11.3689C10.6485 11.256 10.4879 11.1742 10.3154 11.129L7.33297 10.3174C6.86202 10.1916 6.36762 10.1819 5.89209 10.289L4.60851 10.5753V9.50567C4.60851 9.3388 4.54221 9.17876 4.42422 9.06076C4.30622 8.94276 4.14617 8.87646 3.9793 8.87646H1.62921C1.46233 8.87646 1.30229 8.94276 1.18429 9.06076C1.06629 9.17876 1 9.3388 1 9.50567V17.3708C1.0005 17.5375 1.06695 17.6973 1.18484 17.8151C1.30273 17.933 1.46248 17.9995 1.62921 18H3.9793C4.14602 17.9995 4.30577 17.933 4.42367 17.8151C4.54156 17.6973 4.60801 17.5375 4.60851 17.3708V16.5465L9.80891 17.4903C10.0477 17.5333 10.2899 17.5543 10.5325 17.5532C11.0386 17.5535 11.5402 17.4585 12.0111 17.2733L18.1522 14.8414C18.4466 14.7315 18.686 14.5102 18.8185 14.2252C18.9509 13.9402 18.9659 13.6146 18.8601 13.3187ZM3.9793 17.3708H1.62921V9.50567H3.9793V17.3708ZM17.9194 14.2562L11.7815 16.6881C11.1908 16.9211 10.5468 16.9843 9.92216 16.8706L4.60851 15.9079V11.2203L6.03051 10.9025C6.40642 10.8185 6.797 10.8261 7.16938 10.9245L10.1487 11.7362C10.2346 11.7574 10.3149 11.7971 10.3839 11.8525C10.4529 11.908 10.509 11.9778 10.5482 12.0571C10.5823 12.1275 10.6009 12.2044 10.6025 12.2826C10.6041 12.3608 10.5888 12.4384 10.5577 12.5101C10.5028 12.6297 10.4122 12.7292 10.2984 12.7952C10.1846 12.8611 10.0531 12.8901 9.92216 12.8782L7.33612 12.3434C7.2548 12.3266 7.17014 12.3427 7.10059 12.388C7.03105 12.4334 6.98227 12.5045 6.96489 12.5856C6.94803 12.6674 6.96399 12.7524 7.00931 12.8225C7.05464 12.8925 7.12569 12.9419 7.20713 12.96L9.81205 13.498C9.82233 13.5006 9.83293 13.5017 9.84351 13.5011C9.88525 13.5063 9.92731 13.5084 9.96935 13.5074C10.1628 13.5076 10.3538 13.4641 10.5281 13.3802C10.7024 13.2963 10.8555 13.1742 10.9761 13.0229C11.6658 13.1282 12.3613 13.1913 13.0588 13.2117C13.8258 13.229 14.5931 13.1943 15.3554 13.1079C15.6951 13.0701 16.0349 13.0167 16.3621 12.96C16.7208 12.9003 17.092 12.8405 17.4569 12.809C17.5925 12.7824 17.7331 12.8025 17.8559 12.8659C17.9787 12.9293 18.0765 13.0323 18.1333 13.1582V13.1614L18.2686 13.5326C18.3175 13.6749 18.3083 13.8308 18.2429 13.9663C18.1775 14.1018 18.0612 14.206 17.9194 14.2562Z" fill="#0A0D11" stroke="#0A0D11" stroke-width="0.1"/>
<g id="Group 1171283484">
<path id="Vector_2" d="M17.3339 5.46978L16.6607 4.61091L16.8149 3.53182C16.8239 3.46206 16.8097 3.39127 16.7744 3.33041C16.7392 3.26955 16.6848 3.22202 16.6198 3.19519L15.6099 2.7925L15.2041 1.77947C15.1776 1.71422 15.1301 1.65964 15.0692 1.62433C15.0082 1.58902 14.9373 1.57497 14.8675 1.58442L13.7884 1.73857L12.9326 1.06846C12.8773 1.02415 12.8085 1 12.7376 1C12.6667 1 12.5979 1.02415 12.5425 1.06846L11.6868 1.73857L10.6077 1.58442C10.5379 1.57497 10.467 1.58902 10.406 1.62433C10.3451 1.65964 10.2976 1.71422 10.2711 1.77947L9.86525 2.7925L8.85537 3.19519C8.79035 3.22202 8.736 3.26955 8.70073 3.33041C8.66547 3.39127 8.65126 3.46206 8.66032 3.53182L8.81448 4.61091L8.14122 5.46978C8.09842 5.52519 8.0752 5.59324 8.0752 5.66326C8.0752 5.73328 8.09842 5.80133 8.14122 5.85674L8.81448 6.71561L8.66032 7.79156C8.64979 7.86147 8.66337 7.93289 8.69882 7.99407C8.73427 8.05525 8.78948 8.10255 8.85537 8.12818L9.86525 8.53402L10.2711 9.5439C10.2972 9.60945 10.3446 9.66433 10.4056 9.6997C10.4667 9.73508 10.5379 9.7489 10.6077 9.73896L11.6868 9.5848L12.5425 10.2581C12.5984 10.3011 12.667 10.3244 12.7376 10.3241C12.8081 10.3239 12.8765 10.3007 12.9326 10.2581L13.7884 9.5848L14.8675 9.73896C14.9369 9.74912 15.0078 9.73575 15.0688 9.70098C15.1298 9.6662 15.1774 9.61202 15.2041 9.54705L15.6099 8.53402L16.6198 8.12818C16.6853 8.10207 16.7402 8.05469 16.7756 7.99364C16.811 7.93258 16.8248 7.86141 16.8149 7.79156L16.6607 6.71561L17.3339 5.85674C17.3768 5.80133 17.4 5.73328 17.4 5.66326C17.4 5.59324 17.3768 5.52519 17.3339 5.46978ZM16.0818 6.43247C16.0555 6.46586 16.0363 6.50432 16.0255 6.54546C16.0146 6.5866 16.0124 6.62953 16.0189 6.67157L16.1573 7.6374L15.2481 7.9992C15.2087 8.01502 15.1729 8.03884 15.1432 8.06916C15.1134 8.09949 15.0902 8.13565 15.0751 8.17537L14.7102 9.08143L13.7443 8.94301C13.7021 8.93724 13.6591 8.94012 13.618 8.95148C13.5769 8.96284 13.5385 8.98243 13.5052 9.00908L12.7376 9.60997L11.97 9.00908C11.9144 8.96509 11.8458 8.94076 11.7749 8.93986C11.7592 8.93986 11.7434 8.94301 11.7309 8.94301L10.7619 9.08143L10.4001 8.17537C10.3843 8.13556 10.3605 8.0994 10.3302 8.0691C10.2999 8.03881 10.2637 8.01502 10.2239 7.9992L9.31784 7.6374L9.45627 6.67157C9.46201 6.62953 9.4594 6.58678 9.44861 6.54575C9.43781 6.50473 9.41903 6.46623 9.39335 6.43247L8.78931 5.66169L9.39335 4.89405C9.41903 4.86029 9.43781 4.82179 9.44861 4.78077C9.4594 4.73974 9.46201 4.69699 9.45627 4.65495L9.31784 3.68912L10.2239 3.32418C10.2636 3.30907 10.2998 3.28589 10.3301 3.25611C10.3604 3.22633 10.3843 3.19059 10.4001 3.15114L10.7619 2.24508L11.7309 2.38036C11.7729 2.38668 11.8158 2.38435 11.8569 2.37354C11.898 2.36272 11.9365 2.34363 11.97 2.31744L12.7376 1.7134L13.5052 2.31744C13.5387 2.34363 13.5772 2.36272 13.6183 2.37354C13.6594 2.38435 13.7023 2.38668 13.7443 2.38036L14.7102 2.24508L15.0751 3.15114C15.0908 3.19017 15.1142 3.22563 15.1439 3.25537C15.1736 3.2851 15.2091 3.30851 15.2481 3.32418L16.1573 3.68912L16.0189 4.65495C16.0124 4.69699 16.0146 4.73992 16.0255 4.78106C16.0363 4.82219 16.0555 4.86066 16.0818 4.89405L16.6859 5.66169L16.0818 6.43247Z" fill="#0A0D11" stroke="black" stroke-width="0.1"/>
<path id="Vector_3" d="M11.1645 3.6167C10.9778 3.6167 10.7954 3.67205 10.6402 3.77576C10.485 3.87947 10.364 4.02687 10.2925 4.19933C10.2211 4.37179 10.2024 4.56156 10.2388 4.74464C10.2753 4.92772 10.3651 5.09589 10.4971 5.22789C10.6291 5.35988 10.7973 5.44977 10.9804 5.48619C11.1635 5.52261 11.3532 5.50392 11.5257 5.43248C11.6982 5.36105 11.8456 5.24008 11.9493 5.08487C12.053 4.92966 12.1083 4.74718 12.1083 4.56051C12.1083 4.3102 12.0089 4.07013 11.8319 3.89314C11.6549 3.71614 11.4148 3.6167 11.1645 3.6167ZM11.1645 4.87512C11.1023 4.87512 11.0415 4.85666 10.9897 4.8221C10.938 4.78753 10.8977 4.73839 10.8739 4.68091C10.85 4.62342 10.8438 4.56016 10.856 4.49914C10.8681 4.43811 10.8981 4.38205 10.9421 4.33805C10.9861 4.29405 11.0421 4.26409 11.1031 4.25195C11.1642 4.23981 11.2274 4.24604 11.2849 4.26986C11.3424 4.29367 11.3915 4.33399 11.4261 4.38573C11.4607 4.43746 11.4791 4.49829 11.4791 4.56051C11.4791 4.64395 11.446 4.72397 11.387 4.78297C11.328 4.84197 11.248 4.87512 11.1645 4.87512Z" fill="#0A0D11" stroke="black" stroke-width="0.1"/>
<path id="Vector_4" d="M14.311 5.81909C14.1243 5.81909 13.9419 5.87445 13.7866 5.97815C13.6314 6.08186 13.5105 6.22926 13.439 6.40172C13.3676 6.57418 13.3489 6.76395 13.3853 6.94703C13.4217 7.13012 13.5116 7.29829 13.6436 7.43028C13.7756 7.56228 13.9438 7.65216 14.1269 7.68858C14.31 7.725 14.4997 7.70631 14.6722 7.63487C14.8446 7.56344 14.992 7.44247 15.0957 7.28726C15.1995 7.13205 15.2548 6.94957 15.2548 6.7629C15.2548 6.51259 15.1554 6.27253 14.9784 6.09553C14.8014 5.91853 14.5613 5.81909 14.311 5.81909ZM14.311 7.07751C14.2488 7.07751 14.188 7.05906 14.1362 7.02449C14.0845 6.98992 14.0442 6.94079 14.0203 6.8833C13.9965 6.82581 13.9903 6.76256 14.0024 6.70153C14.0146 6.6405 14.0445 6.58444 14.0885 6.54045C14.1325 6.49645 14.1886 6.46648 14.2496 6.45435C14.3107 6.44221 14.3739 6.44844 14.4314 6.47225C14.4889 6.49606 14.538 6.53638 14.5726 6.58812C14.6072 6.63986 14.6256 6.70068 14.6256 6.7629C14.6256 6.84634 14.5925 6.92636 14.5335 6.98536C14.4745 7.04436 14.3944 7.07751 14.311 7.07751Z" fill="#0A0D11" stroke="black" stroke-width="0.1"/>
<path id="Vector_5" d="M10.9302 7.28878C10.9579 7.31954 10.9913 7.34455 11.0286 7.36239C11.0659 7.38022 11.1063 7.39053 11.1476 7.39272C11.1889 7.39491 11.2302 7.38894 11.2692 7.37516C11.3082 7.36137 11.344 7.34004 11.3748 7.31238L14.5208 4.48094C14.5828 4.42512 14.6202 4.34694 14.6246 4.26361C14.629 4.18027 14.6001 4.0986 14.5442 4.03656C14.4884 3.97453 14.4102 3.93721 14.3269 3.93281C14.2436 3.92841 14.1619 3.9573 14.0999 4.01312L10.9538 6.84456C10.8918 6.90035 10.8545 6.97848 10.8501 7.06179C10.8456 7.14509 10.8745 7.22674 10.9302 7.28878Z" fill="#0A0D11" stroke="black" stroke-width="0.1"/>
</g>
</g>
</svg>
