<svg width="18" height="16" viewBox="0 0 18 16" fill="none" xmlns="http://www.w3.org/2000/svg">
<g id="Group 1171279649">
<path id="Vector" d="M3.1855 15.9321C3.88966 15.9295 4.57311 15.6936 5.12899 15.2613C5.68488 14.829 6.08187 14.2248 6.25791 13.543H11.2623C11.4147 14.1678 11.7507 14.7327 12.227 15.1649C12.7034 15.5971 13.2983 15.8766 13.935 15.9676C14.5717 16.0586 15.221 15.9568 15.7993 15.6754C16.3777 15.3939 16.8584 14.9457 17.1797 14.3886C17.501 13.8314 17.648 13.1907 17.6019 12.5492C17.5557 11.9077 17.3185 11.2947 16.9208 10.7893C16.5231 10.2838 15.9831 9.90905 15.3704 9.71328C14.7578 9.51752 14.1005 9.50973 13.4834 9.69091L11.0027 5.44863C11.4512 5.00434 11.7576 4.43679 11.883 3.81805C12.0083 3.1993 11.947 2.55726 11.7068 1.97343C11.4666 1.3896 11.0583 0.890312 10.5338 0.53895C10.0093 0.187588 9.39223 0 8.76091 0C8.12959 0 7.51251 0.187588 6.98801 0.53895C6.4635 0.890312 6.05523 1.3896 5.81502 1.97343C5.5748 2.55726 5.51349 3.1993 5.63885 3.81805C5.76421 4.43679 6.0706 5.00434 6.51912 5.44863L4.04399 9.6933C3.76529 9.60986 3.47639 9.56537 3.1855 9.5611C2.34065 9.5611 1.53041 9.89671 0.93301 10.4941C0.335614 11.0915 0 11.9018 0 12.7466C0 13.5914 0.335614 14.4017 0.93301 14.9991C1.53041 15.5965 2.34065 15.9321 3.1855 15.9321ZM14.3347 11.1538C14.6497 11.1538 14.9577 11.2473 15.2196 11.4223C15.4815 11.5973 15.6857 11.846 15.8062 12.1371C15.9268 12.4281 15.9583 12.7484 15.8969 13.0573C15.8354 13.3663 15.6837 13.6501 15.461 13.8728C15.2382 14.0956 14.9544 14.2473 14.6455 14.3087C14.3365 14.3702 14.0162 14.3387 13.7252 14.2181C13.4342 14.0976 13.1854 13.8934 13.0104 13.6315C12.8354 13.3696 12.742 13.0616 12.742 12.7466C12.742 12.3242 12.9098 11.9191 13.2085 11.6204C13.5072 11.3217 13.9123 11.1538 14.3347 11.1538ZM8.76011 1.59736C9.07513 1.59736 9.38307 1.69077 9.645 1.86579C9.90692 2.0408 10.1111 2.28955 10.2316 2.58059C10.3522 2.87163 10.3837 3.19187 10.3223 3.50084C10.2608 3.8098 10.1091 4.0936 9.88636 4.31635C9.66361 4.5391 9.37981 4.6908 9.07084 4.75225C8.76188 4.81371 8.44163 4.78217 8.1506 4.66162C7.85956 4.54106 7.61081 4.33692 7.43579 4.07499C7.26078 3.81307 7.16737 3.50512 7.16737 3.19011C7.16737 2.76768 7.33517 2.36256 7.63387 2.06386C7.93257 1.76517 8.33769 1.59736 8.76011 1.59736ZM7.90162 6.24341C8.18032 6.32685 8.46922 6.37134 8.76011 6.3756C9.05219 6.37166 9.34226 6.32662 9.62179 6.24181L12.1001 10.4809C11.6935 10.8862 11.4041 11.3939 11.2623 11.9502H6.25791C6.11725 11.3965 5.83006 10.8909 5.42649 10.4865L7.90162 6.24341ZM3.1855 11.1538C3.50051 11.1538 3.80845 11.2473 4.07038 11.4223C4.3323 11.5973 4.53645 11.846 4.657 12.1371C4.77755 12.4281 4.8091 12.7484 4.74764 13.0573C4.68618 13.3663 4.53449 13.6501 4.31174 13.8728C4.08899 14.0956 3.80519 14.2473 3.49623 14.3087C3.18726 14.3702 2.86701 14.3387 2.57598 14.2181C2.28494 14.0976 2.03619 13.8934 1.86117 13.6315C1.68616 13.3696 1.59275 13.0616 1.59275 12.7466C1.59275 12.3242 1.76055 11.9191 2.05925 11.6204C2.35795 11.3217 2.76307 11.1538 3.1855 11.1538Z" fill="#0A0D11"/>
</g>
</svg>
