<svg width="19" height="19" viewBox="0 0 19 19" fill="none" xmlns="http://www.w3.org/2000/svg">
<g id="Setting_line">
<path id="Subtract" d="M11.1908 2.66106L11.9388 2.60666L11.9374 2.58729L11.935 2.56803L11.1908 2.66106ZM11.1908 2.66104L10.4445 2.73566L10.4454 2.74487L10.4466 2.75406L11.1908 2.66104ZM11.1908 2.6611L10.4428 2.7155L10.4435 2.72563L10.4445 2.73573L11.1908 2.6611ZM11.2706 3.23374L11.9844 3.00352L11.9844 3.00351L11.2706 3.23374ZM12.6783 3.8168L13.0202 4.48432L13.0202 4.48432L12.6783 3.8168ZM13.1396 3.46832L12.6741 2.88021L12.6647 2.88785L13.1396 3.46832ZM13.1397 3.46831L13.6052 4.05642L13.6146 4.04878L13.1397 3.46831ZM13.3959 3.27219L13.7821 3.91513L13.7821 3.91513L13.3959 3.27219ZM14.5085 3.32768L14.9567 2.72637L14.9567 2.72637L14.5085 3.32768ZM14.7439 3.5483L15.2922 3.03657L15.2834 3.02711L15.2742 3.01797L14.7439 3.5483ZM14.7439 3.54833L14.1956 4.06006L14.2044 4.06952L14.2136 4.07866L14.7439 3.54833ZM15.4512 4.25565L15.9816 3.72533L15.9816 3.72532L15.4512 4.25565ZM15.6719 4.49112L16.2732 4.04288L16.2732 4.04288L15.6719 4.49112ZM15.7274 5.60367L16.3703 5.98985L16.3703 5.98985L15.7274 5.60367ZM15.5312 5.85992L14.9507 5.38496L14.9456 5.39139L15.5312 5.85992ZM15.5312 5.85992L16.1117 6.33488L16.1169 6.32844L15.5312 5.85992ZM15.1827 6.32134L14.5152 5.97941L14.5152 5.97941L15.1827 6.32134ZM15.7658 7.72896L15.996 7.01517L15.996 7.01517L15.7658 7.72896ZM16.3385 7.8088L16.2639 8.55508L16.3385 7.8088ZM16.3385 7.8088L16.2639 8.55508L16.2639 8.55508L16.3385 7.8088ZM16.6584 7.85132L16.4769 8.57901H16.4769L16.6584 7.85132ZM17.4059 8.67724L18.148 8.56898V8.56898L17.4059 8.67724ZM17.4059 10.3225L18.148 10.4307L18.148 10.4307L17.4059 10.3225ZM16.6583 11.1485L16.4768 10.4208H16.4768L16.6583 11.1485ZM16.3386 11.191L16.264 10.4447L16.2395 10.4472L16.2153 10.4512L16.3386 11.191ZM16.3386 11.191L16.4132 11.9373L16.4376 11.9349L16.4619 11.9308L16.3386 11.191ZM15.7662 11.2708L15.5361 10.557L15.5361 10.557L15.7662 11.2708ZM15.1831 12.6786L14.5156 13.0206L14.5156 13.0206L15.1831 12.6786ZM15.5314 13.1397L14.9509 13.6146L14.9509 13.6146L15.5314 13.1397ZM15.7274 13.3957L16.3702 13.0095L15.7274 13.3957ZM15.6719 14.5085L16.2731 14.9568L16.2731 14.9568L15.6719 14.5085ZM15.4514 14.7437L15.9817 15.2741L15.9817 15.2741L15.4514 14.7437ZM14.5085 15.6718L14.9567 16.2731L14.9567 16.2731L14.5085 15.6718ZM13.3959 15.7273L13.0097 16.3702L13.0097 16.3702L13.3959 15.7273ZM13.1397 15.5312L12.6648 16.1116L12.6648 16.1116L13.1397 15.5312ZM12.6783 15.1827L12.3364 15.8502L12.3364 15.8502L12.6783 15.1827ZM11.2707 15.7657L10.5569 15.5355L10.5569 15.5355L11.2707 15.7657ZM11.1908 16.3386L11.9333 16.4446L11.9355 16.429L11.9371 16.4132L11.1908 16.3386ZM11.1908 16.3386L10.4483 16.2325L10.447 16.2417L10.4459 16.251L11.1908 16.3386ZM11.1908 16.3386L10.4458 16.251L10.4445 16.264L11.1908 16.3386ZM11.1483 16.6587L11.8759 16.8404L11.8759 16.8404L11.1483 16.6587ZM10.3224 17.4061L10.2141 16.664L10.2141 16.664L10.3224 17.4061ZM8.67699 17.4061L8.78525 16.664H8.78525L8.67699 17.4061ZM7.85107 16.6587L7.12338 16.8402V16.8402L7.85107 16.6587ZM7.80856 16.3388L8.55488 16.2642L8.55398 16.256L7.80856 16.3388ZM7.80856 16.3388L7.06224 16.4134L7.06315 16.4216L7.80856 16.3388ZM7.72871 15.766L8.4425 15.5358L8.4425 15.5358L7.72871 15.766ZM6.3211 15.183L6.66302 15.8505L6.66302 15.8505L6.3211 15.183ZM5.85965 15.5315L5.38472 14.951L5.38472 14.951L5.85965 15.5315ZM5.60338 15.7277L5.21721 15.0847L5.21721 15.0847L5.60338 15.7277ZM4.49085 15.6722L4.04262 16.2735L4.04262 16.2735L4.49085 15.6722ZM4.25538 15.4515L3.72505 15.9818L3.72505 15.9818L4.25538 15.4515ZM4.25536 15.4515L3.72503 15.9818L4.25536 15.4515ZM3.54806 14.7442L4.07839 14.2139L4.0628 14.1983L4.04633 14.1836L3.54806 14.7442ZM3.54805 14.7442L3.01771 15.2745L3.0333 15.2901L3.04977 15.3047L3.54805 14.7442ZM3.3274 14.5087L3.92872 14.0605L3.92872 14.0605L3.3274 14.5087ZM3.27191 13.3962L2.62897 13.01L2.62897 13.01L3.27191 13.3962ZM3.46805 13.1399L4.04852 13.6148H4.04852L3.46805 13.1399ZM3.81656 12.6785L3.14904 12.3366L3.14903 12.3366L3.81656 12.6785ZM3.2335 11.2709L3.00327 11.9847L3.00327 11.9847L3.2335 11.2709ZM2.66081 11.191L2.73544 10.4448H2.73543L2.66081 11.191ZM2.34094 11.1485L2.15939 11.8762L2.15939 11.8762L2.34094 11.1485ZM1.59348 10.3226L2.33563 10.2143L2.33562 10.2143L1.59348 10.3226ZM1.59349 8.67717L2.33563 8.78547L2.33563 8.78547L1.59349 8.67717ZM2.34086 7.85133L2.15925 7.12365H2.15925L2.34086 7.85133ZM2.66091 7.80879L2.73553 8.55507H2.73553L2.66091 7.80879ZM3.23391 7.7289L3.0036 7.01514L3.0036 7.01514L3.23391 7.7289ZM3.81691 6.32141L4.48447 5.97956L4.48447 5.97956L3.81691 6.32141ZM3.46819 5.85969L4.04865 5.38476L4.04865 5.38476L3.46819 5.85969ZM3.27189 5.60321L3.91487 5.21711L3.91487 5.21711L3.27189 5.60321ZM3.32737 4.49085L3.92874 4.93902H3.92874L3.32737 4.49085ZM3.54819 4.2552L4.07852 4.78553L4.07852 4.78553L3.54819 4.2552ZM4.2554 3.54799L4.78573 4.07832L4.78573 4.07832L4.2554 3.54799ZM4.49088 3.32731L4.04265 2.72599L4.04265 2.72599L4.49088 3.32731ZM5.60341 3.27182L5.98958 2.62888L5.98958 2.62888L5.60341 3.27182ZM5.85974 3.46802L6.36146 2.91055L6.34834 2.89873L6.33467 2.88755L5.85974 3.46802ZM5.85975 3.46802L5.35802 4.02549L5.37115 4.03731L5.38482 4.04849L5.85975 3.46802ZM6.32102 3.81644L6.66303 3.14896L6.66303 3.14896L6.32102 3.81644ZM7.72879 3.23332L8.44261 3.46346V3.46346L7.72879 3.23332ZM7.80857 2.66095L7.06229 2.58632V2.58633L7.80857 2.66095ZM7.85105 2.34126L7.12334 2.15977L7.12334 2.15977L7.85105 2.34126ZM8.67709 1.59371L8.78527 2.33587L8.78527 2.33587L8.67709 1.59371ZM10.3223 1.59372L10.2141 2.33587L10.2141 2.33587L10.3223 1.59372ZM11.1483 2.34118L10.4206 2.52273L10.4206 2.52274L11.1483 2.34118ZM11.935 2.56803L11.935 2.56801L10.4466 2.75406L10.4466 2.75408L11.935 2.56803ZM11.9388 2.6067L11.9388 2.60666L10.4428 2.71546L10.4428 2.7155L11.9388 2.6067ZM11.9844 3.00351C11.9897 3.01993 11.9844 3.0105 11.9739 2.92983C11.9638 2.85266 11.9533 2.74833 11.9371 2.58646L10.4445 2.73573C10.471 3.00026 10.4928 3.26534 10.5568 3.46397L11.9844 3.00351ZM12.3363 3.14928C12.1992 3.21954 12.0317 3.15018 11.9844 3.00352L10.5568 3.46396C10.888 4.49062 12.0601 4.97613 13.0202 4.48432L12.3363 3.14928ZM12.6647 2.88785C12.5388 2.99087 12.4576 3.05721 12.3959 3.10463C12.3314 3.1542 12.321 3.15715 12.3363 3.14928L13.0202 4.48432C13.206 4.38917 13.4088 4.21715 13.6146 4.04879L12.6647 2.88785ZM12.6741 2.88028L12.6741 2.88029L13.6052 4.05635L13.6052 4.05635L12.6741 2.88028ZM13.0097 2.62926C12.8893 2.70159 12.7743 2.79818 12.6647 2.88785L13.6146 4.04878C13.6822 3.99346 13.7221 3.96092 13.7528 3.93708C13.7815 3.91479 13.7869 3.9122 13.7821 3.91513L13.0097 2.62926ZM14.9567 2.72637C14.3875 2.30206 13.6183 2.26369 13.0097 2.62926L13.7821 3.91513C13.869 3.8629 13.9789 3.86838 14.0602 3.929L14.9567 2.72637ZM15.2742 3.01797C15.1741 2.91786 15.0693 2.81032 14.9567 2.72637L14.0602 3.929C14.0557 3.9256 14.0608 3.92871 14.0872 3.95376C14.1154 3.98053 14.1518 4.01687 14.2136 4.07864L15.2742 3.01797ZM15.2922 3.03659L15.2922 3.03657L14.1956 4.06004L14.1956 4.06006L15.2922 3.03659ZM15.9816 3.72532L15.2742 3.018L14.2136 4.07866L14.9209 4.78598L15.9816 3.72532ZM16.2732 4.04288C16.1892 3.93025 16.0817 3.82546 15.9816 3.72533L14.9209 4.78598C14.9827 4.84777 15.019 4.88419 15.0458 4.91238C15.0708 4.93876 15.074 4.94391 15.0706 4.93935L16.2732 4.04288ZM16.3703 5.98985C16.7359 5.38124 16.6975 4.61209 16.2732 4.04288L15.0706 4.93935C15.1312 5.02067 15.1367 5.13055 15.0844 5.21749L16.3703 5.98985ZM16.1117 6.33485C16.2014 6.22524 16.298 6.11028 16.3703 5.98985L15.0844 5.21749C15.0874 5.21261 15.0848 5.21805 15.0625 5.24679C15.0386 5.2775 15.0061 5.31736 14.9508 5.38499L16.1117 6.33485ZM16.1169 6.32844L16.1169 6.32844L14.9456 5.39139L14.9456 5.3914L16.1169 6.32844ZM15.8503 6.66327C15.8424 6.67862 15.8453 6.66821 15.8949 6.60369C15.9423 6.54198 16.0087 6.46076 16.1117 6.33485L14.9508 5.38499C14.7824 5.59078 14.6104 5.79364 14.5152 5.97941L15.8503 6.66327ZM15.996 7.01517C15.8494 6.96786 15.78 6.80042 15.8503 6.66326L14.5152 5.97941C14.0234 6.9395 14.5089 8.11161 15.5356 8.44275L15.996 7.01517ZM16.4131 7.06252C16.2513 7.04634 16.1469 7.03582 16.0697 7.02571C15.989 7.01515 15.9796 7.00987 15.996 7.01517L15.5356 8.44275C15.7342 8.50682 15.9993 8.52862 16.2639 8.55508L16.4131 7.06252ZM16.4132 7.06253L16.4131 7.06252L16.2639 8.55508L16.2639 8.55508L16.4132 7.06253ZM16.84 7.12363C16.7037 7.08961 16.5541 7.07662 16.4132 7.06253L16.2639 8.55508C16.3508 8.56378 16.402 8.56895 16.4406 8.57382C16.4767 8.57837 16.4824 8.58039 16.4769 8.57901L16.84 7.12363ZM18.148 8.56898C18.0455 7.86648 17.5288 7.29549 16.84 7.12363L16.4769 8.57901C16.5753 8.60356 16.6491 8.68513 16.6637 8.78549L18.148 8.56898ZM18.1663 8.99978C18.1663 8.85816 18.1683 8.708 18.148 8.56898L16.6637 8.78549C16.6629 8.77986 16.6643 8.78571 16.6653 8.82207C16.6663 8.86094 16.6663 8.9124 16.6663 8.99978H18.1663ZM18.1663 10.0002V8.99978H16.6663V10.0002H18.1663ZM18.148 10.4307C18.1683 10.2918 18.1663 10.1417 18.1663 10.0002H16.6663C16.6663 10.0875 16.6663 10.1389 16.6653 10.1778C16.6643 10.2141 16.6629 10.22 16.6637 10.2143L18.148 10.4307ZM16.8398 11.8762C17.5288 11.7044 18.0456 11.1333 18.148 10.4307L16.6637 10.2143C16.6491 10.3147 16.5753 10.3963 16.4768 10.4208L16.8398 11.8762ZM16.4132 11.9373C16.5541 11.9232 16.7036 11.9102 16.8399 11.8762L16.4768 10.4208C16.4824 10.4195 16.4767 10.4215 16.4406 10.426C16.4021 10.4309 16.3509 10.4361 16.264 10.4447L16.4132 11.9373ZM16.4619 11.9308L16.4619 11.9308L16.2153 10.4512L16.2153 10.4512L16.4619 11.9308ZM15.9964 11.9846C15.9799 11.9899 15.9894 11.9846 16.07 11.9741C16.1471 11.964 16.2514 11.9535 16.4132 11.9373L16.2639 10.4448C15.9995 10.4712 15.7346 10.493 15.5361 10.557L15.9964 11.9846ZM15.8506 12.3366C15.7803 12.1994 15.8497 12.0319 15.9964 11.9846L15.5361 10.557C14.5092 10.888 14.0236 12.0604 14.5156 13.0206L15.8506 12.3366ZM16.1118 12.6647C16.0089 12.5389 15.9426 12.4578 15.8952 12.3961C15.8457 12.3316 15.8427 12.3212 15.8506 12.3366L14.5156 13.0206C14.6108 13.2063 14.7827 13.409 14.9509 13.6146L16.1118 12.6647ZM16.3702 13.0095C16.298 12.8891 16.2014 12.7743 16.1118 12.6647L14.9509 13.6146C15.0062 13.6822 15.0387 13.722 15.0625 13.7527C15.0848 13.7814 15.0874 13.7868 15.0845 13.782L16.3702 13.0095ZM16.2731 14.9568C16.6976 14.3875 16.7359 13.6182 16.3702 13.0095L15.0845 13.782C15.1367 13.8689 15.1312 13.9788 15.0706 14.0602L16.2731 14.9568ZM15.9817 15.2741C16.0818 15.174 16.1892 15.0693 16.2731 14.9568L15.0706 14.0602C15.074 14.0556 15.0709 14.0608 15.0458 14.0871C15.0191 14.1153 14.9828 14.1517 14.921 14.2134L15.9817 15.2741ZM15.9817 15.2741L15.9817 15.2741L14.921 14.2134L14.921 14.2134L15.9817 15.2741ZM15.2743 15.9815L15.9817 15.2741L14.921 14.2134L14.2136 14.9208L15.2743 15.9815ZM14.9567 16.2731C15.0694 16.1892 15.1741 16.0816 15.2743 15.9815L14.2136 14.9208C14.1518 14.9826 14.1154 15.019 14.0872 15.0457C14.0608 15.0708 14.0557 15.0739 14.0602 15.0705L14.9567 16.2731ZM13.0097 16.3702C13.6184 16.7358 14.3875 16.6974 14.9567 16.2731L14.0603 15.0705C13.9789 15.1311 13.8691 15.1366 13.7821 15.0844L13.0097 16.3702ZM12.6648 16.1116C12.7744 16.2013 12.8893 16.2979 13.0097 16.3702L13.7821 15.0844C13.787 15.0873 13.7815 15.0847 13.7528 15.0624C13.7221 15.0386 13.6822 15.006 13.6146 14.9507L12.6648 16.1116ZM12.3364 15.8502C12.321 15.8423 12.3314 15.8453 12.3959 15.8949C12.4576 15.9423 12.5389 16.0086 12.6648 16.1116L13.6146 14.9507C13.4088 14.7823 13.206 14.6103 13.0202 14.5152L12.3364 15.8502ZM11.9845 15.996C12.0318 15.8493 12.1992 15.7799 12.3364 15.8502L13.0202 14.5152C12.0601 14.0234 10.888 14.5089 10.5569 15.5355L11.9845 15.996ZM11.9371 16.4132C11.9533 16.2513 11.9638 16.1469 11.9739 16.0697C11.9845 15.989 11.9898 15.9795 11.9845 15.996L10.5569 15.5355C10.4928 15.7342 10.471 15.9993 10.4445 16.2639L11.9371 16.4132ZM11.9333 16.4447L11.9333 16.4446L10.4483 16.2325L10.4483 16.2325L11.9333 16.4447ZM11.9357 16.4263L11.9357 16.4262L10.4459 16.251L10.4459 16.251L11.9357 16.4263ZM11.8759 16.8404C11.91 16.704 11.923 16.5543 11.9371 16.4133L10.4445 16.264C10.4358 16.351 10.4306 16.4023 10.4258 16.4409C10.4212 16.477 10.4192 16.4827 10.4206 16.4771L11.8759 16.8404ZM10.4307 18.1482C11.1331 18.0457 11.704 17.5291 11.8759 16.8404L10.4206 16.4771C10.396 16.5755 10.3145 16.6493 10.2141 16.664L10.4307 18.1482ZM9.99971 18.1666C10.1414 18.1666 10.2917 18.1685 10.4308 18.1482L10.2141 16.664C10.2198 16.6631 10.2139 16.6646 10.1775 16.6655C10.1386 16.6665 10.0871 16.6666 9.99971 16.6666V18.1666ZM8.99953 18.1666H9.99971V16.6666H8.99953V18.1666ZM8.56874 18.1483C8.70776 18.1685 8.85792 18.1666 8.99953 18.1666V16.6666C8.91215 16.6666 8.86069 16.6665 8.82183 16.6655C8.78547 16.6646 8.77962 16.6631 8.78525 16.664L8.56874 18.1483ZM7.12338 16.8402C7.29524 17.5291 7.86623 18.0458 8.56874 18.1483L8.78525 16.664C8.68489 16.6493 8.60332 16.5755 8.57876 16.4771L7.12338 16.8402ZM7.06228 16.4134C7.07637 16.5543 7.08937 16.7039 7.12338 16.8402L8.57876 16.4771C8.58014 16.4826 8.57813 16.477 8.57358 16.4409C8.56871 16.4023 8.56353 16.3511 8.55484 16.2642L7.06228 16.4134ZM7.06315 16.4216L7.06315 16.4216L8.55398 16.256L8.55397 16.2559L7.06315 16.4216ZM7.01493 15.9963C7.00963 15.9799 7.0149 15.9893 7.02547 16.07C7.03557 16.1472 7.04609 16.2515 7.06228 16.4134L8.55484 16.2641C8.52838 15.9996 8.50658 15.7345 8.4425 15.5358L7.01493 15.9963ZM6.66302 15.8505C6.80018 15.7803 6.96762 15.8496 7.01493 15.9963L8.4425 15.5358C8.11135 14.5092 6.93927 14.0237 5.97919 14.5155L6.66302 15.8505ZM6.33458 16.112C6.4605 16.009 6.54173 15.9426 6.60345 15.8952C6.66797 15.8456 6.67838 15.8426 6.66302 15.8505L5.97919 14.5155C5.7934 14.6106 5.59053 14.7827 5.38472 14.951L6.33458 16.112ZM5.98955 16.3706C6.10999 16.2983 6.22497 16.2017 6.33458 16.112L5.38472 14.951C5.31709 15.0064 5.27722 15.0389 5.24651 15.0628C5.21777 15.0851 5.21233 15.0876 5.21721 15.0847L5.98955 16.3706ZM4.04262 16.2735C4.61182 16.6978 5.38095 16.7361 5.98955 16.3706L5.21721 15.0847C5.13026 15.1369 5.02039 15.1315 4.93907 15.0708L4.04262 16.2735ZM3.72505 15.9818C3.82518 16.082 3.92998 16.1895 4.04262 16.2735L4.93908 15.0708C4.94364 15.0742 4.93848 15.0711 4.91211 15.0461C4.88392 15.0193 4.84749 14.983 4.78571 14.9212L3.72505 15.9818ZM3.72503 15.9818L3.72505 15.9818L4.78571 14.9212L4.78569 14.9212L3.72503 15.9818ZM3.01773 15.2745L3.72503 15.9818L4.78569 14.9212L4.07839 14.2139L3.01773 15.2745ZM3.04977 15.3047L3.04979 15.3048L4.04633 14.1836L4.04632 14.1836L3.04977 15.3047ZM2.72607 14.957C2.81003 15.0696 2.91759 15.1744 3.01771 15.2745L4.07838 14.2139C4.0166 14.1521 3.98025 14.1156 3.95348 14.0875C3.92844 14.0611 3.92532 14.0559 3.92872 14.0605L2.72607 14.957ZM2.62897 13.01C2.26342 13.6186 2.30178 14.3878 2.72608 14.957L3.92872 14.0605C3.8681 13.9792 3.86262 13.8693 3.91485 13.7824L2.62897 13.01ZM2.88758 12.665C2.79791 12.7746 2.70131 12.8896 2.62897 13.01L3.91485 13.7824C3.91192 13.7872 3.9145 13.7818 3.9368 13.7531C3.96064 13.7223 3.99318 13.6825 4.04852 13.6148L2.88758 12.665ZM3.14903 12.3366C3.1569 12.3212 3.15395 12.3316 3.10437 12.3961C3.05695 12.4579 2.9906 12.5391 2.88758 12.665L4.04852 13.6148C4.21689 13.4091 4.38892 13.2062 4.48408 13.0204L3.14903 12.3366ZM3.00327 11.9847C3.14993 12.032 3.21929 12.1994 3.14904 12.3366L4.48408 13.0204C4.97588 12.0603 4.49037 10.8882 3.46372 10.5571L3.00327 11.9847ZM2.58618 11.9373C2.74806 11.9535 2.8524 11.964 2.92957 11.9741C3.01025 11.9847 3.01969 11.99 3.00327 11.9847L3.46373 10.5571C3.26508 10.493 3 10.4712 2.73544 10.4448L2.58618 11.9373ZM2.15939 11.8762C2.29569 11.9102 2.44528 11.9232 2.58618 11.9373L2.73543 10.4448C2.6485 10.4361 2.5973 10.4309 2.55873 10.426C2.52265 10.4215 2.51697 10.4195 2.52249 10.4208L2.15939 11.8762ZM0.851329 10.4308C0.953793 11.1334 1.47054 11.7044 2.15939 11.8762L2.52249 10.4208C2.42408 10.3963 2.35026 10.3147 2.33563 10.2143L0.851329 10.4308ZM0.833008 10.0001C0.833008 10.1417 0.831055 10.2918 0.851329 10.4308L2.33562 10.2143C2.33645 10.22 2.335 10.2141 2.33407 10.1778C2.33307 10.1389 2.33301 10.0874 2.33301 10.0001H0.833008ZM0.833008 8.99986V10.0001H2.33301V8.99986H0.833008ZM0.851349 8.56887C0.831053 8.70795 0.833008 8.85818 0.833008 8.99986H2.33301C2.33301 8.91244 2.33307 8.86095 2.33407 8.82207C2.33501 8.78569 2.33645 8.77984 2.33563 8.78547L0.851349 8.56887ZM2.15925 7.12365C1.47052 7.29554 0.953854 7.86645 0.851349 8.56887L2.33563 8.78547C2.35027 8.68513 2.42408 8.60357 2.52247 8.57901L2.15925 7.12365ZM2.58628 7.06252C2.4453 7.07661 2.29563 7.08962 2.15925 7.12365L2.52247 8.57901C2.51695 8.58039 2.52263 8.57837 2.55873 8.57382C2.59732 8.56895 2.64855 8.56377 2.73553 8.55507L2.58628 7.06252ZM3.0036 7.01514C3.02002 7.00984 3.01058 7.01512 2.92985 7.02569C2.85264 7.0358 2.74824 7.04632 2.58628 7.06252L2.73553 8.55507C3.00024 8.5286 3.26547 8.50679 3.46422 8.44266L3.0036 7.01514ZM3.14935 6.66326C3.21958 6.80041 3.15023 6.96782 3.0036 7.01514L3.46421 8.44266C4.49067 8.11146 4.97608 6.93957 4.48447 5.97956L3.14935 6.66326ZM2.88772 6.33462C2.99081 6.46062 3.0572 6.54189 3.10465 6.60365C3.15427 6.66822 3.15722 6.67863 3.14935 6.66327L4.48447 5.97956C4.38928 5.79368 4.21714 5.59069 4.04865 5.38476L2.88772 6.33462ZM2.62891 5.98931C2.70129 6.10985 2.79797 6.22492 2.88772 6.33462L4.04865 5.38476C3.99327 5.31708 3.9607 5.27717 3.93685 5.24643C3.91452 5.21767 3.91194 5.21222 3.91487 5.21711L2.62891 5.98931ZM2.726 4.04268C2.30185 4.61182 2.26349 5.38079 2.62891 5.98932L3.91487 5.21711C3.86267 5.13017 3.86814 5.02032 3.92874 4.93902L2.726 4.04268ZM3.01786 3.72487C2.91765 3.82508 2.81001 3.92995 2.726 4.04268L3.92874 4.93902C3.92534 4.94358 3.92845 4.93842 3.95352 4.91203C3.98031 4.88382 4.01669 4.84736 4.07852 4.78553L3.01786 3.72487ZM3.72507 3.01766L3.01786 3.72487L4.07852 4.78553L4.78573 4.07832L3.72507 3.01766ZM4.04265 2.72599C3.93001 2.80995 3.82521 2.91752 3.72507 3.01766L4.78573 4.07832C4.84752 4.01653 4.88395 3.98018 4.91214 3.9534C4.93852 3.92835 4.94367 3.92524 4.93911 3.92864L4.04265 2.72599ZM5.98958 2.62888C5.38099 2.26334 4.61186 2.3017 4.04265 2.72599L4.93911 3.92864C5.02042 3.86803 5.1303 3.86255 5.21724 3.91477L5.98958 2.62888ZM6.33467 2.88755C6.22503 2.79784 6.11002 2.70122 5.98958 2.62888L5.21724 3.91476C5.21236 3.91183 5.2178 3.91442 5.24655 3.93673C5.27728 3.96058 5.31717 3.99314 5.38481 4.04849L6.33467 2.88755ZM6.36147 2.91055L6.36146 2.91055L5.35802 4.02549L5.35802 4.02549L6.36147 2.91055ZM6.66303 3.14896C6.67838 3.15683 6.66798 3.15388 6.60347 3.1043C6.54176 3.05688 6.46056 2.99055 6.33468 2.88755L5.38482 4.04849C5.59056 4.21682 5.79336 4.38879 5.97901 4.48392L6.66303 3.14896ZM7.01497 3.00318C6.96768 3.14987 6.8002 3.21924 6.66303 3.14896L5.97901 4.48392C6.9392 4.97591 8.11154 4.49031 8.44261 3.46346L7.01497 3.00318ZM7.06229 2.58633C7.04611 2.74811 7.0356 2.85239 7.02551 2.92952C7.01495 3.01015 7.00968 3.01959 7.01497 3.00318L8.44261 3.46346C8.50662 3.26493 8.52841 2.99999 8.55485 2.73558L7.06229 2.58633ZM7.12334 2.15977C7.08937 2.296 7.07638 2.4455 7.06229 2.58632L8.55485 2.73558C8.56354 2.64869 8.56871 2.59752 8.57357 2.55898C8.57812 2.52291 8.58013 2.51724 8.57876 2.52275L7.12334 2.15977ZM8.5689 0.851553C7.86627 0.953974 7.29517 1.47081 7.12334 2.15977L8.57876 2.52275C8.60331 2.42433 8.68489 2.3505 8.78527 2.33587L8.5689 0.851553ZM8.99942 0.833252C8.85789 0.833252 8.70784 0.831301 8.5689 0.851553L8.78527 2.33587C8.77964 2.33669 8.78549 2.33525 8.82183 2.33431C8.86067 2.33331 8.91209 2.33325 8.99942 2.33325V0.833252ZM9.99983 0.833252H8.99942V2.33325H9.99983V0.833252ZM10.4306 0.851574C10.2916 0.831299 10.1414 0.833252 9.99983 0.833252V2.33325C10.0872 2.33325 10.1387 2.33331 10.1775 2.33431C10.2139 2.33525 10.2197 2.33669 10.2141 2.33587L10.4306 0.851574ZM11.876 2.15963C11.7041 1.47079 11.1331 0.954038 10.4306 0.851574L10.2141 2.33587C10.3145 2.35051 10.396 2.42433 10.4206 2.52273L11.876 2.15963ZM11.9371 2.58641C11.923 2.44551 11.91 2.29593 11.876 2.15962L10.4206 2.52274C10.4192 2.51722 10.4212 2.52289 10.4258 2.55897C10.4306 2.59754 10.4358 2.64873 10.4445 2.73566L11.9371 2.58641ZM11.9163 9.49992C11.9163 10.8346 10.8344 11.9166 9.49967 11.9166V13.4166C11.6628 13.4166 13.4163 11.663 13.4163 9.49992H11.9163ZM9.49967 7.08325C10.8344 7.08325 11.9163 8.16523 11.9163 9.49992H13.4163C13.4163 7.3368 11.6628 5.58325 9.49967 5.58325V7.08325ZM7.08301 9.49992C7.08301 8.16523 8.16499 7.08325 9.49967 7.08325V5.58325C7.33656 5.58325 5.58301 7.3368 5.58301 9.49992H7.08301ZM9.49967 11.9166C8.16499 11.9166 7.08301 10.8346 7.08301 9.49992H5.58301C5.58301 11.663 7.33656 13.4166 9.49967 13.4166V11.9166Z" fill="#0A0D11"/>
</g>
</svg>
