<svg width="17" height="15" viewBox="0 0 17 15" fill="none" xmlns="http://www.w3.org/2000/svg">
<g id="Group">
<path id="Vector" d="M5.91504 13.129C6.90316 13.6996 8.02406 14 9.16508 14C10.3061 14 11.427 13.6997 12.4152 13.1292C13.4033 12.5588 14.2239 11.7382 14.7944 10.7501C15.365 9.76193 15.6653 8.64102 15.6653 7.5C15.6653 6.35898 15.365 5.23807 14.7944 4.24993C14.2239 3.26179 13.4033 2.44124 12.4152 1.87075C11.427 1.30027 10.3061 0.999957 9.16508 1C8.02406 1.00004 6.90316 1.30044 5.91504 1.871" stroke="black" stroke-width="2"/>
<path id="Vector_2" d="M1.69031 8.8125H2.48969L4.22121 10.9769L3.73409 11.3672L1.69031 8.8125ZM1.69031 6.1875L3.73409 3.63277L4.22121 4.02309L2.48969 6.1875H1.69031ZM2.97031 7.8125L2.72031 7.5L2.97031 7.1875H7.8525V7.8125H2.97031Z" stroke="black"/>
</g>
</svg>
