<svg width="24" height="24" viewBox="0 0 24 24" fill="none" xmlns="http://www.w3.org/2000/svg">
<path fill-rule="evenodd" clip-rule="evenodd" d="M11.5 11.125C10.6025 11.125 9.875 10.3975 9.875 9.5C9.875 8.60246 10.6025 7.875 11.5 7.875C12.3975 7.875 13.125 8.60246 13.125 9.5C13.125 10.3975 12.3975 11.125 11.5 11.125ZM11.5 6.79167C10.0045 6.79167 8.79167 8.00392 8.79167 9.5C8.79167 10.9961 10.0045 12.2083 11.5 12.2083C12.9955 12.2083 14.2083 10.9961 14.2083 9.5C14.2083 8.00392 12.9955 6.79167 11.5 6.79167ZM11.5 18.7083C10.5992 18.7132 6.08333 11.7647 6.08333 9.5C6.08333 6.50892 8.50838 4.08333 11.5 4.08333C14.4916 4.08333 16.9167 6.50892 16.9167 9.5C16.9167 11.7344 12.3867 18.7132 11.5 18.7083ZM11.5 3C7.91038 3 5 5.91038 5 9.5C5 12.2181 10.4194 20.3393 11.5 20.3333C12.5638 20.3393 18 12.1813 18 9.5C18 5.91038 15.0896 3 11.5 3Z" fill="black"/>
</svg>
