<svg width="28" height="24" viewBox="0 0 28 24" fill="none" xmlns="http://www.w3.org/2000/svg">
<path fill-rule="evenodd" clip-rule="evenodd" d="M14.0006 0C13.359 0.000189362 12.7281 0.161684 12.1683 0.469034C11.6086 0.776385 11.1387 1.21931 10.8037 1.75543L0.514467 18.5006C0.265822 18.9141 0.103051 19.3718 0.035507 19.8471C-0.0320366 20.3225 -0.00302112 20.8063 0.120886 21.2707C0.244793 21.735 0.46115 22.1708 0.757521 22.553C1.05389 22.9352 1.42444 23.2563 1.84786 23.4977C2.41132 23.82 3.05002 23.9931 3.70271 24H24.2986C24.9508 23.993 25.5898 23.8195 26.1526 23.4966C26.7154 23.1738 27.1825 22.7127 27.5078 22.1589C27.8321 21.6043 28.0018 20.976 28 20.3369C27.9981 19.6978 27.8248 19.0704 27.4973 18.5177L17.2011 1.76229C16.8659 1.22507 16.3956 0.781015 15.8353 0.472498C15.275 0.163982 14.6434 0.00130639 14.0006 0ZM12.2508 17.1429C12.2508 16.6882 12.4351 16.2522 12.7633 15.9307C13.0915 15.6092 13.5366 15.4286 14.0006 15.4286H14.0129C14.477 15.4286 14.9221 15.6092 15.2502 15.9307C15.5784 16.2522 15.7628 16.6882 15.7628 17.1429C15.7628 17.5975 15.5784 18.0335 15.2502 18.355C14.9221 18.6765 14.477 18.8571 14.0129 18.8571H14.0006C13.5366 18.8571 13.0915 18.6765 12.7633 18.355C12.4351 18.0335 12.2508 17.5975 12.2508 17.1429ZM15.313 8.14286C15.313 7.80186 15.1748 7.47484 14.9287 7.23372C14.6825 6.9926 14.3487 6.85714 14.0006 6.85714C13.6526 6.85714 13.3188 6.9926 13.0726 7.23372C12.8265 7.47484 12.6883 7.80186 12.6883 8.14286V12.4286C12.6883 12.7696 12.8265 13.0966 13.0726 13.3377C13.3188 13.5788 13.6526 13.7143 14.0006 13.7143C14.3487 13.7143 14.6825 13.5788 14.9287 13.3377C15.1748 13.0966 15.313 12.7696 15.313 12.4286V8.14286Z" fill="url(#paint0_linear_6125_2858)"/>
<defs>
<linearGradient id="paint0_linear_6125_2858" x1="0" y1="24" x2="32.3868" y2="13.3882" gradientUnits="userSpaceOnUse">
<stop stop-color="#85FFC4"/>
<stop offset="0.458333" stop-color="#5CC6FF"/>
<stop offset="0.807292" stop-color="#BC85FF"/>
</linearGradient>
</defs>
</svg>
