<svg width="17" height="17" viewBox="0 0 17 17" fill="none" xmlns="http://www.w3.org/2000/svg">
<path d="M14.2785 0H2.72323C1.2184 0 -0.000244141 1.2189 -0.000244141 2.72346V14.277C-0.000244141 15.7806 1.2184 17 2.72323 17H14.2785C15.783 17 17.001 15.7806 17.001 14.277V2.72346C17.001 1.2189 15.783 0 14.2785 0Z" fill="#1677FF"/>
<path d="M4.59367 13.0727C1.94872 13.0727 1.16676 10.9895 2.47389 9.84975C2.91008 9.46458 3.70715 9.27653 4.1321 9.23433C5.70327 9.07908 7.15767 9.67842 8.87402 10.5161C7.66758 12.0898 6.13095 13.0727 4.59367 13.0727ZM13.9975 10.6741C13.3172 10.4462 12.4044 10.0978 11.3876 9.73001C11.9982 8.66859 12.4859 7.45987 12.8065 6.14623H9.45524V4.93927H13.5605V4.26557H9.45524V2.25354H7.77984C7.48594 2.25354 7.48594 2.54366 7.48594 2.54366V4.26557H3.33391V4.93927H7.48594V6.14623H4.0579V6.81977H10.7065C10.4632 7.65796 10.1365 8.44487 9.74882 9.15981C7.59146 8.44805 5.2894 7.87116 3.84318 8.22625C2.91828 8.4541 2.3226 8.86078 1.97265 9.28688C0.366479 11.2409 1.51847 14.209 4.91054 14.209C6.91613 14.209 8.84816 13.0909 10.3456 11.2483C12.5791 12.3218 17.0011 14.165 17.0011 14.165V11.5381C17.0011 11.5381 16.4457 11.4938 13.9975 10.6741Z" fill="white"/>
</svg>
