<svg width="50" height="50" viewBox="0 0 50 50" fill="none" xmlns="http://www.w3.org/2000/svg">
<rect x="0.5" y="0.5" width="49" height="49" rx="24.5" stroke="#00C9FF"/>
<path d="M19.5079 34.8919C19.5566 34.9406 19.5651 35.0162 19.5321 35.0729L19.4936 35.1165C19.4452 35.1538 19.3784 35.158 19.327 35.128L19.2686 35.0764L12.2967 28.1046C12.2618 28.0696 12.2549 28.0457 12.2522 28.0324C12.2484 28.0131 12.2486 27.9841 12.2608 27.95C12.2732 27.9155 12.293 27.8901 12.3109 27.8752C12.3222 27.8659 12.336 27.8575 12.3586 27.8528L12.4356 27.8487H32.0007C32.0835 27.8487 32.1506 27.9158 32.1506 27.9986C32.1506 28.0685 32.1018 28.1285 32.037 28.1443L31.9647 28.1485H15.7833H12.7661L14.8993 30.2822L19.5078 34.8918L19.5079 34.8919ZM30.4921 15.5058C30.4434 15.4571 30.4349 15.3816 30.4679 15.3249L30.5064 15.2813C30.5548 15.244 30.6216 15.2398 30.673 15.2698L30.7314 15.3213L37.7033 22.2932C37.7382 22.3281 37.7451 22.352 37.7478 22.3654C37.7516 22.3846 37.7514 22.4137 37.7392 22.4477C37.7268 22.4822 37.707 22.5077 37.6891 22.5225C37.6778 22.5318 37.664 22.5402 37.6414 22.545L37.5644 22.549H17.9993C17.9165 22.549 17.8494 22.4819 17.8494 22.3992C17.8494 22.3293 17.8982 22.2693 17.963 22.2535L18.0353 22.2493H34.2167H37.2339L35.1007 20.1155L30.4922 15.5059L30.4921 15.5058Z" fill="#0484FF" stroke="#00C9FF" stroke-width="2.5"/>
</svg>
