<svg width="56" height="60" viewBox="0 0 56 60" fill="none" xmlns="http://www.w3.org/2000/svg">
<path fill-rule="evenodd" clip-rule="evenodd" d="M27.4811 59.8494C19.5928 59.7963 12.5892 57.1974 6.33008 52.4625C4.09597 50.7721 2.06616 48.8594 0.214119 46.7581C0.148325 46.683 0.0352056 46.6115 0.0277027 46.5307C-0.00115431 46.241 0.00634855 45.9483 0 45.6569C0.250479 45.6973 0.545398 45.6655 0.744512 45.7891C2.4188 46.8319 4.0296 47.9839 5.74544 48.9506C10.7181 51.7515 16.037 53.5666 21.6895 54.43C24.6393 54.8802 27.6023 55.0285 30.5642 54.8565C36.2237 54.5287 41.6326 53.1205 46.7802 50.734C47.5934 50.3571 48.3904 49.9451 49.1892 49.5382C49.5758 49.3408 49.9573 49.26 50.2857 49.6063C50.6326 49.9716 50.6176 50.4125 50.3758 50.82C50.2372 51.0543 50.0266 51.2552 49.82 51.4393C45.2173 55.5231 39.8337 58.0308 33.8291 59.1972C31.7503 59.6012 29.62 59.7397 27.5129 60C27.5025 59.9498 27.4915 59.8996 27.4811 59.8494ZM49.7051 47.1137C48.5658 47.2227 47.3019 47.3468 46.0374 47.4622C45.7604 47.4876 45.4787 47.5038 45.2017 47.4871C44.8831 47.468 44.8323 47.2718 45.0066 47.0398C45.1105 46.9013 45.2663 46.7951 45.4135 46.6958C46.7513 45.7978 48.2657 45.4047 49.835 45.197C51.3246 44.9996 52.8124 45.0458 54.2686 45.4359C55.2514 45.6991 55.4656 45.8174 55.3923 46.9613C55.1983 49.9757 54.2276 52.7165 52.042 54.9183C51.93 55.0315 51.8244 55.1769 51.6859 55.2317C51.5012 55.3044 51.2871 55.3033 51.0856 55.3339C51.0903 55.1503 51.0522 54.9524 51.107 54.7856C51.6282 53.2002 52.1724 51.6223 52.6907 50.0363C52.7946 49.7183 52.8338 49.376 52.8736 49.0413C53.0006 47.9719 52.5729 47.434 51.4377 47.2677C50.9079 47.1904 50.37 47.1708 49.7051 47.1137ZM32.4914 23.5503C30.3444 23.5381 28.2915 23.6311 26.3275 24.2896C25.3573 24.6151 24.3739 25.0277 23.5388 25.6066C21.2319 27.2047 20.6317 29.5837 20.8216 32.2339C20.922 33.6375 21.3439 34.9367 22.3793 35.9547C23.8504 37.4011 26.3269 37.5909 28.3152 36.4159C30.0483 35.3915 31.0814 33.8107 31.7521 31.9684C32.7401 29.2553 32.429 26.4285 32.4914 23.5503ZM34.0727 39.4314C33.3011 40.1338 32.5883 40.7958 31.8617 41.4422C29.0678 43.9268 25.7665 45.0366 22.0607 45.1111C20.0488 45.1515 18.0732 44.9997 16.19 44.2558C12.8357 42.9301 10.6968 40.479 9.82935 37.0005C8.7524 32.6806 9.116 28.5212 11.6722 24.7449C13.5617 21.9539 16.2945 20.2946 19.4497 19.2788C22.1571 18.4073 24.9597 18.0253 27.7732 17.7102C29.3171 17.537 30.8627 17.3829 32.4821 17.2127C32.4337 15.2792 32.7084 13.3395 32.0291 11.4701C31.4271 9.8143 30.1557 8.96301 28.4941 8.5821C25.9783 8.00554 23.1267 8.94397 21.7744 10.9276C21.3156 11.6011 21.0351 12.4212 20.7887 13.2102C20.4412 14.3218 19.9299 14.6836 18.7756 14.5463C16.5196 14.2791 14.2583 14.0574 12.0023 13.7937C10.8832 13.6621 10.4394 13.0249 10.6575 11.9376C11.6496 6.98919 14.5157 3.53096 19.1802 1.71066C24.6855 -0.437462 30.3132 -0.604256 35.8925 1.44748C40.5159 3.14774 43.0554 6.53613 43.3936 11.4811C43.5073 13.1502 43.5234 14.8279 43.5303 16.5022C43.5482 20.8325 43.569 25.1628 43.5234 29.4925C43.498 31.9038 44.1669 34.0438 45.6329 35.9478C45.9849 36.4061 46.3416 36.8655 46.64 37.3584C47.1346 38.1756 47.0024 38.7954 46.2873 39.4124C44.4451 41.0018 42.6063 42.5959 40.7687 44.1911C39.757 45.069 39.0558 45.0568 38.0383 44.1998C36.6976 43.0703 35.5964 41.7412 34.6458 40.2775C34.4727 40.0109 34.2897 39.7506 34.0727 39.4314Z" fill="#FF9900"/>
</svg>
