<svg width="23" height="24" viewBox="0 0 23 24" fill="none" xmlns="http://www.w3.org/2000/svg">
<path d="M15.5844 18.4146C15.7057 18.481 15.8442 18.5091 15.9818 18.4951C16.1193 18.4812 16.2494 18.4259 16.3549 18.3366L16.3585 18.3474C17.1825 17.6154 18.0145 16.8946 18.8545 16.1849C19.121 15.9641 19.0742 15.6197 18.8689 15.3197L18.6757 15.0569C18.1441 14.3405 17.6413 13.6613 17.6413 12.3004V7.22424L17.6425 6.70822C17.6545 4.76056 17.6641 2.9821 16.2061 1.62125C14.958 0.421214 12.8867 0 11.3015 0C8.20539 0 4.74208 1.15444 4.01005 4.99217C3.93325 5.39178 4.23086 5.60659 4.49607 5.66659L7.66177 6.0206C7.95938 6.0074 8.17419 5.72539 8.22939 5.42538C8.4994 4.10534 9.60344 3.46932 10.8455 3.46932C11.5175 3.46932 12.2783 3.71652 12.6719 4.31654C13.0836 4.91656 13.0776 5.71579 13.0716 6.43341L13.0704 6.67582V7.08744C12.7625 7.12107 12.4545 7.15307 12.1463 7.18344C10.4291 7.35625 8.4382 7.55545 6.94655 8.21307C4.90288 9.0927 3.47363 10.8928 3.47363 13.5353C3.47363 16.9206 5.6037 18.6114 8.347 18.6114C10.6607 18.6114 11.9291 18.0654 13.716 16.2437C13.8032 16.3693 13.8832 16.4874 13.956 16.5978C14.3844 17.2338 14.664 17.6502 15.5844 18.4146ZM13.0704 10.5724C13.0704 11.7652 13.0728 12.778 12.4607 13.8521C11.9363 14.7677 11.1107 15.3317 10.2071 15.3317C8.95662 15.3317 8.22339 14.3801 8.22339 12.9736C8.22339 10.1979 10.7111 9.69392 13.0716 9.69392L13.0692 10.3983L13.0704 10.5724Z" fill="black"/>
<path d="M18.6408 19.916C19.4496 19.8212 21.2005 19.616 21.5125 20.0168H21.5233C21.8413 20.4225 21.1705 22.0989 20.8705 22.8453C20.7709 23.0733 20.9665 23.1634 21.1705 22.9929C22.5025 21.8793 22.8445 19.5452 22.5733 19.2092C22.3009 18.8732 19.9812 18.5876 18.5556 19.5848C18.3372 19.7372 18.3732 19.9484 18.618 19.9196L18.6408 19.916Z" fill="#F79C34"/>
<path d="M20.4805 21.196C17.9988 23.0261 14.4023 24.0005 11.3062 24.0005C6.95603 24.0005 3.0547 22.3961 0.0965993 19.7236C-0.127808 19.5136 0.0725986 19.2268 0.352208 19.39C3.54311 21.2488 7.49605 22.3649 11.5654 22.3649C14.5044 22.351 17.4117 21.7568 20.1205 20.6164C20.5405 20.4376 20.8933 20.8912 20.4805 21.196Z" fill="#F79C34"/>
</svg>
