<?xml version="1.0" encoding="utf-8"?>
<!-- Generator: Adobe Illustrator 17.0.0, SVG Export Plug-In . SVG Version: 6.00 Build 0)  -->
<!DOCTYPE svg PUBLIC "-//W3C//DTD SVG 1.1//EN" "http://www.w3.org/Graphics/SVG/1.1/DTD/svg11.dtd">
<svg version="1.1" id="Layer_1" xmlns="http://www.w3.org/2000/svg" xmlns:xlink="http://www.w3.org/1999/xlink" x="0px" y="0px"
	 width="50px" height="50px" viewBox="0 0 50 50" enable-background="new 0 0 50 50" xml:space="preserve">
<path fill="none" stroke="#33FFCC" d="M25,0.5L25,0.5c13.531,0,24.5,10.969,24.5,24.5l0,0c0,13.531-10.969,24.5-24.5,24.5l0,0
	C11.469,49.5,0.5,38.531,0.5,25l0,0C0.5,11.469,11.469,0.5,25,0.5z"/>
<path fill="none" stroke="#33FFCC" stroke-width="2" stroke-linecap="round" stroke-linejoin="round" d="M23.296,15.26H17.8
	c-1.273,0-2.494,0.506-3.394,1.406c-0.9,0.9-1.406,2.121-1.406,3.394v12c0,1.273,0.506,2.494,1.406,3.394s2.121,1.406,3.394,1.406
	h14.4c1.273,0,2.494-0.506,3.394-1.406c0.9-0.9,1.406-2.121,1.406-3.394v-4.884"/>
<path fill="none" stroke="#33FFCC" stroke-width="2" stroke-linecap="round" stroke-linejoin="round" d="M23.296,22.46H13"/>
<path fill="none" stroke="#33FFCC" stroke-width="2" stroke-linecap="round" stroke-linejoin="round" d="M16.602,33.2h7.2"/>
<path fill="none" stroke="#33FFCC" stroke-width="2" stroke-linecap="round" stroke-linejoin="round" d="M32.195,23.6V14"/>
<path fill="none" stroke="#33FFCC" stroke-width="2" stroke-linecap="round" stroke-linejoin="round" d="M27.398,18.8h9.6"/>
</svg>
