<svg width="21" height="24" viewBox="0 0 21 24" fill="none" xmlns="http://www.w3.org/2000/svg">
<path d="M15.2743 5.61719C13.1145 5.61719 12.2018 6.6478 10.6976 6.6478C9.15545 6.6478 7.97914 5.62469 6.10754 5.62469C4.27558 5.62469 2.32203 6.74315 1.08144 8.64849C-0.660528 11.3354 -0.364843 16.3957 2.45648 20.7067C3.46566 22.25 4.81339 23.9807 6.58107 23.9994H6.61321C8.14948 23.9994 8.60586 22.9935 10.7201 22.9817H10.7523C12.8349 22.9817 13.2527 23.9936 14.7826 23.9936H14.8147C16.5824 23.9748 18.0024 22.0571 19.0116 20.5198C19.738 19.4142 20.0079 18.8593 20.565 17.6085C16.4838 16.0594 15.8282 10.2737 19.8644 8.05551C18.6324 6.51281 16.9011 5.61933 15.2689 5.61933L15.2743 5.61719Z" fill="black"/>
<path d="M14.7983 0C13.5127 0.0873127 12.0129 0.905802 11.1344 1.97444C10.3373 2.94292 9.68166 4.37956 9.93877 5.77281H10.0416C11.4108 5.77281 12.8121 4.94843 13.6305 3.89211C14.419 2.88667 15.0168 1.46182 14.7983 0Z" fill="black"/>
</svg>
