<svg width="200" height="62" viewBox="0 0 200 62" fill="none" xmlns="http://www.w3.org/2000/svg">
<g clip-path="url(#clip0_2129_2120)">
<path d="M34.28 16.9133H45.2507V60.727H34.28V56.097C32.1404 58.1388 29.9906 59.6082 27.8365 60.5078C25.6824 61.4073 23.346 61.8581 20.8306 61.8581C15.1847 61.8581 10.2998 59.6615 6.17816 55.2732C2.06102 50.8834 0 45.4262 0 38.9035C0 32.1382 1.99309 26.5942 5.98265 22.2726C9.96882 17.9509 14.8137 15.79 20.514 15.79C23.137 15.79 25.5989 16.2877 27.8998 17.2808C30.2006 18.2739 32.3292 19.7644 34.2834 21.7495V16.9135L34.28 16.9133ZM22.7473 25.9353C19.3556 25.9353 16.5392 27.1365 14.2962 29.5401C12.053 31.9437 10.9321 35.0229 10.9321 38.7812C10.9321 42.5652 12.072 45.6826 14.3573 48.1238C16.6391 50.5675 19.4509 51.7888 22.7895 51.7888C26.2357 51.7888 29.091 50.5877 31.3618 48.1841C33.6305 45.7828 34.7658 42.6334 34.7658 38.7414C34.7658 34.9284 33.6305 31.8425 31.3618 29.479C29.0886 27.1174 26.2178 25.9353 22.7473 25.9353Z" fill="#9C2A49"/>
<path d="M83.9926 0.0654297H94.9632V16.9159H101.474V26.3797H94.9632V60.7296H83.9926V26.3763H78.3666V16.9125H83.9926V0.0654297Z" fill="#9C2A49"/>
<path d="M107.383 0H118.275V21.3447C120.417 19.4922 122.576 18.1017 124.746 17.1765C126.917 16.2513 129.112 15.7861 131.336 15.7861C135.677 15.7861 139.333 17.2901 142.307 20.2969C144.853 22.902 146.125 26.7262 146.125 31.7747V60.7285H135.316V41.5192C135.316 36.4448 135.076 33.0083 134.592 31.2103C134.11 29.4114 133.287 28.0688 132.122 27.1827C130.956 26.2976 129.515 25.8535 127.802 25.8535C125.578 25.8535 123.668 26.5915 122.074 28.0677C120.48 29.5439 119.374 31.5578 118.759 34.1096C118.437 35.4242 118.277 38.4335 118.277 43.1292V60.7278H107.385V0H107.383Z" fill="#9C2A49"/>
<path d="M189.002 18.6255L199.974 28.047V60.727H189.002V56.097C186.861 58.1388 184.713 59.6082 182.56 60.5079C180.405 61.4075 178.069 61.8582 175.553 61.8582C169.907 61.8582 165.022 59.6615 160.902 55.2732C156.779 50.8834 154.721 45.4262 154.721 38.9036C154.721 32.1384 156.715 26.5942 160.704 22.2726C164.69 17.951 169.534 15.79 175.234 15.79C177.858 15.79 180.32 16.2877 182.62 17.2808C184.922 18.2739 187.05 19.7644 189.004 21.7495V18.6256L189.002 18.6255ZM177.469 25.9351C174.079 25.9351 171.262 27.1363 169.019 29.5399C166.776 31.9435 165.655 35.0227 165.655 38.781C165.655 42.565 166.795 45.6824 169.08 48.1237C171.363 50.5674 174.173 51.7886 177.51 51.7886C180.956 51.7886 183.811 50.5875 186.082 48.184C188.351 45.7827 189.486 42.6333 189.486 38.7412C189.486 34.9282 188.351 31.8423 186.082 29.4789C183.811 27.1173 180.942 25.9351 177.469 25.9351Z" fill="#9C2A49"/>
<path d="M189.003 16.9736L199.974 26.3397V16.9738L189.003 16.9736Z" fill="#DE834C"/>
<path d="M177.57 48.3809C182.388 48.3809 186.294 44.1331 186.294 38.8936C186.294 33.6539 182.388 29.4062 177.57 29.4062C172.752 29.4062 168.846 33.6539 168.846 38.8936C168.846 44.1334 172.752 48.3809 177.57 48.3809Z" fill="#DE834C"/>
<path d="M74.0615 25.7267C74.8569 26.0417 75.3502 26.3858 75.3502 26.3858V22.1543L74.0615 25.7267Z" fill="#9C2A49"/>
<path d="M75.3477 16.9613H75.3497C70.4471 16.055 67.4462 17.2784 65.651 18.7948C64.6795 19.7774 63.8524 20.9845 63.176 22.4274V16.9133H53.7715V60.727H64.6634V43.0071L64.6233 40.8718C64.6233 34.7511 65.2064 30.6419 66.3719 28.5488C66.8699 27.6531 67.4171 26.952 68.0122 26.4379C68.5017 26.0172 69.0238 25.7281 69.5758 25.5641C71.3122 24.9196 72.9676 25.2938 74.0584 25.7233L75.3472 22.1509V16.9613H75.3477ZM63.176 22.4319V22.4306L64.0445 23.1522L63.176 22.4319Z" fill="#9C2A49"/>
</g>
<defs>
<clipPath id="clip0_2129_2120">
<rect width="200" height="62" fill="white"/>
</clipPath>
</defs>
</svg>
