<svg width="66" height="74" viewBox="0 0 66 74" fill="none" xmlns="http://www.w3.org/2000/svg">
<path d="M42.0961 58.115C52.108 52.2009 56.386 43.0581 57.754 39.6767C58.456 37.942 58.854 36.5807 59.276 35.1374C59.832 33.2401 60.264 31.4198 60.606 29.6908V24.3312C60.606 16.6476 58.264 10.6748 53.589 6.403C48.9036 2.1411 41.886 0 32.5355 0C26.0399 0 20.4817 1.1865 15.8506 3.5467C19.5504 2.5429 27.0072 0.9261 34.993 3.902C37.5315 4.8478 41.3257 6.2618 44.0357 10.0245C45.8509 12.5444 46.4521 15.1083 47.0248 17.5507C47.4696 19.4473 47.7001 21.2158 47.8022 22.8014C47.8184 22.8875 47.8341 22.9732 47.8473 23.0505C48.0311 26.0401 48.1584 29.1325 48.2155 32.3216C48.3234 38.3043 48.1746 43.9763 47.8473 49.302C46.7775 51.3437 44.7555 54.5093 41.1929 57.2C39.9938 58.105 38.7028 58.887 37.3207 59.547C34.1643 61.06 31.1683 62.031 28.3301 62.472C29.8027 62.42 31.27 62.238 32.7081 61.913C36.9738 60.952 39.9388 59.389 42.0961 58.115Z" fill="url(#paint0_linear_3106_10224)"/>
<path d="M43.783 9.78661C41.0685 5.97781 37.2686 4.54671 34.7263 3.58931C26.7278 0.577109 19.2598 2.21381 15.554 3.22951C14.1133 3.97161 12.7595 4.82491 11.4985 5.79651C7.9266 8.54981 6.0642 11.5507 5.5867 12.3238C2.394 17.4943 1.8627 22.7553 1.8662 25.7676C1.8678 27.0749 1.9703 28.1584 2.0634 28.9032C2.6184 28.3336 3.4644 27.5454 4.607 26.7694C6.6481 25.3826 8.5611 24.7652 10.4078 24.2804C15.7585 22.8763 21.6145 22.3097 23.651 22.1331C24.4764 22.0009 25.4634 21.7569 26.5223 21.3011C29.069 20.205 30.6657 18.4726 31.4917 17.4109C28.4862 18.8311 24.9639 19.0351 21.8038 18.0178C20.9809 17.7528 20.0674 17.2633 19.9477 16.3966C19.8631 15.7849 20.217 15.2048 20.5886 14.7155C20.6439 14.6429 20.7044 14.5751 20.7613 14.5036C20.8679 14.4091 20.9729 14.3132 21.0827 14.2222C24.5795 11.324 29.28 11.1992 32.2646 11.306C35.4365 11.4188 39.9928 11.5815 43.6322 15.1198C46.3799 17.7914 47.2498 21.0674 47.5544 22.7198C47.4522 21.1149 47.2213 19.3248 46.7757 17.4049C46.2031 14.933 45.6007 12.3376 43.783 9.78661Z" fill="url(#paint1_linear_3106_10224)"/>
<path d="M5.78881 54.8466C7.06651 50.3119 10.7674 46.7618 14.9855 44.6937C17.4894 43.4661 20.1716 42.6984 22.9135 42.1672C25.0737 41.5972 27.3538 41.2918 29.3472 40.8594C36.6936 39.265 39.8726 38.2009 42.7038 35.9832C43.8993 35.0468 44.984 33.9437 45.7316 32.3594C46.9501 29.776 46.6344 27.2652 46.4085 26.1094C45.3064 26.8649 43.7493 27.5328 41.7263 28.1129C37.2826 29.3878 32.0947 30.4531 26.173 31.2994C17.2853 32.5743 10.719 35.1235 6.49331 38.9476C0.40841 44.4539 -1.76359 54.208 1.54251 61.771C3.09961 65.333 5.62551 68.007 8.67451 69.933C7.51641 68.063 6.61531 66.032 6.02101 63.912C5.19531 60.965 4.95871 57.792 5.78881 54.8466Z" fill="url(#paint2_linear_3106_10224)"/>
<path d="M61.386 67.9849C60.977 66.9469 60.822 65.5539 60.529 62.8119C60.367 61.3049 60.272 60.0539 60.215 59.1919V29.8438C59.877 31.5438 59.448 33.3327 58.898 35.1976C58.48 36.6165 58.086 37.9548 57.391 39.6597C56.036 42.9835 51.799 51.9705 41.8836 57.7839C39.7475 59.0369 36.811 60.5729 32.586 61.5179C31.1621 61.8369 29.7084 62.0169 28.2499 62.0659C27.0841 62.2459 25.9444 62.3379 24.8329 62.3379C19.8823 62.3379 15.1481 60.1759 13.7392 55.0533C12.7001 51.2749 14.2218 46.7594 17.3666 44.3834C18.7496 43.3386 20.4445 42.6955 22.2209 42.2305C19.4919 42.7553 16.8225 43.5133 14.3305 44.7259C10.1323 46.7683 6.449 50.2739 5.1775 54.7522C4.3517 57.6609 4.587 60.7939 5.4089 63.7039C6.0002 65.7979 6.8967 67.8029 8.0497 69.6499C12.5557 72.4739 18.2101 73.6669 23.5697 73.6669C28.1997 73.6669 32.6226 72.8309 36.8381 71.1499C41.0436 69.4779 44.6272 66.9599 47.5789 63.5969C47.9051 64.9729 48.8262 67.9489 51.536 70.2939C57.138 75.1419 64.894 72.5409 65.27 72.4079C62.745 70.7839 61.79 69.0099 61.386 67.9849Z" fill="url(#paint3_linear_3106_10224)"/>
<defs>
<linearGradient id="paint0_linear_3106_10224" x1="15.8506" y1="31.236" x2="82.9837" y2="31.236" gradientUnits="userSpaceOnUse">
<stop stop-color="#11998E"/>
<stop offset="1" stop-color="#38EF7D"/>
</linearGradient>
<linearGradient id="paint1_linear_3106_10224" x1="1.86618" y1="15.3832" x2="70.3985" y2="15.3832" gradientUnits="userSpaceOnUse">
<stop stop-color="#11998E"/>
<stop offset="1" stop-color="#38EF7D"/>
</linearGradient>
<linearGradient id="paint2_linear_3106_10224" x1="0" y1="48.0212" x2="69.9309" y2="48.0212" gradientUnits="userSpaceOnUse">
<stop stop-color="#11998E"/>
<stop offset="1" stop-color="#38EF7D"/>
</linearGradient>
<linearGradient id="paint3_linear_3106_10224" x1="4.66309" y1="51.7553" x2="95.5734" y2="51.7553" gradientUnits="userSpaceOnUse">
<stop stop-color="#11998E"/>
<stop offset="1" stop-color="#38EF7D"/>
</linearGradient>
</defs>
</svg>
