<svg width="146" height="164" viewBox="0 0 146 164" fill="none" xmlns="http://www.w3.org/2000/svg">
<path d="M92.8828 128.357C115.1 115.295 124.594 95.1015 127.63 87.6329C129.188 83.8015 130.071 80.795 131.008 77.6071C132.24 73.4166 133.2 69.3962 133.959 65.5775V53.7399C133.959 36.769 128.761 23.5773 118.386 14.1422C107.99 4.72889 92.4164 0 71.6665 0C57.252 0 44.9175 2.62058 34.6406 7.83347C42.8509 5.61651 59.3984 2.04552 77.12 8.61809C82.7534 10.7073 91.1732 13.8303 97.1869 22.1407C101.215 27.7064 102.549 33.3695 103.82 38.7637C104.807 42.9528 105.319 46.859 105.545 50.3608C105.581 50.5513 105.616 50.7404 105.646 50.9112C106.053 57.5141 106.336 64.3442 106.463 71.3881C106.702 84.6017 106.372 97.1294 105.646 108.892C103.271 113.402 98.7844 120.393 90.8783 126.335C88.2175 128.335 85.3528 130.063 82.2856 131.52C75.2812 134.862 68.6324 137.007 62.3343 137.98C65.6019 137.867 68.8582 137.463 72.0496 136.747C81.5158 134.623 88.0954 131.172 92.8828 128.357Z" fill="url(#paint0_linear_8_7575)"/>
<path d="M97.61 22.0525C91.5906 13.6962 83.1637 10.5563 77.5261 8.45576C59.789 1.8472 43.2281 5.43796 35.0101 7.66621C31.8151 9.29471 28.8129 11.1666 26.0166 13.2982C18.0957 19.3388 13.9658 25.9226 12.9067 27.6189C5.82686 38.9626 4.64853 50.5054 4.65629 57.114C4.65982 59.9822 4.88702 62.3593 5.09375 63.9935C6.3243 62.7439 8.20047 61.0145 10.7342 59.3119C15.2606 56.2694 19.5026 54.9146 23.5978 53.8513C35.4638 50.7707 48.4494 49.5275 52.9659 49.1401C54.7962 48.8501 56.9849 48.3145 59.3331 47.3147C64.9807 44.9101 68.5213 41.109 70.3531 38.7799C63.6881 41.8958 55.8772 42.3431 48.8693 40.1114C47.0446 39.53 45.0189 38.456 44.7536 36.5545C44.5659 35.2124 45.3505 33.9396 46.1746 32.8664C46.2974 32.7069 46.4314 32.558 46.5577 32.4014C46.7941 32.1939 47.027 31.9837 47.2704 31.784C55.0248 25.4252 65.4485 25.1514 72.0669 25.3857C79.101 25.6334 89.205 25.9904 97.2755 33.7533C103.369 39.6146 105.298 46.8018 105.973 50.4271C105.747 46.9062 105.235 42.9789 104.247 38.7665C102.977 33.3433 101.641 27.6492 97.61 22.0525Z" fill="url(#paint1_linear_8_7575)"/>
<path d="M12.9116 121.807C15.7615 111.737 24.0162 103.853 33.4245 99.2604C39.0093 96.534 44.992 94.8293 51.1073 93.6496C55.9258 92.3837 61.0117 91.7057 65.4576 90.7453C81.8435 87.2047 88.934 84.8417 95.249 79.9167C97.9155 77.8373 100.335 75.3875 102.002 71.8694C104.72 66.1323 104.016 60.5567 103.512 57.9897C101.054 59.6676 97.581 61.1508 93.0688 62.4392C83.1573 65.27 71.5857 67.6359 58.3777 69.5155C38.5542 72.3464 23.9083 78.0073 14.483 86.4998C0.910959 98.7277 -3.93362 120.389 3.4405 137.183C6.91341 145.093 12.5475 151.032 19.348 155.309C16.7649 151.157 14.7553 146.646 13.4295 141.938C11.5879 135.393 11.0602 128.348 12.9116 121.807Z" fill="url(#paint2_linear_8_7575)"/>
<path d="M136.619 150.618C135.706 148.297 135.36 145.183 134.704 139.051C134.344 135.681 134.132 132.884 134.005 130.957V65.3379C133.249 69.1389 132.291 73.1389 131.064 77.3089C130.131 80.4813 129.25 83.4737 127.699 87.2853C124.674 94.7173 115.214 114.811 93.0766 127.81C88.3076 130.611 81.7512 134.045 72.3182 136.158C69.1395 136.871 65.8938 137.273 62.6375 137.384C60.0346 137.786 57.4902 137.992 55.0087 137.992C43.9556 137.992 33.3859 133.159 30.2403 121.704C27.9204 113.256 31.3178 103.16 38.3391 97.8472C41.4268 95.511 45.2108 94.0731 49.177 93.0337C43.0842 94.2071 37.1241 95.9019 31.5605 98.6128C22.1874 103.179 13.9638 111.018 11.1252 121.031C9.28149 127.535 9.80645 134.539 11.6417 141.046C12.9618 145.727 14.9636 150.211 17.5376 154.34C27.5979 160.655 40.2223 163.322 52.1884 163.322C62.5253 163.322 72.4 161.453 81.8119 157.693C91.2012 153.956 99.2019 148.327 105.792 140.806C106.52 143.883 108.577 150.536 114.627 155.78C127.135 166.619 144.45 160.805 145.29 160.508C139.653 156.876 137.521 152.909 136.619 150.618Z" fill="url(#paint3_linear_8_7575)"/>
<defs>
<linearGradient id="paint0_linear_8_7575" x1="84.3001" y1="162.416" x2="84.3001" y2="-25.6271" gradientUnits="userSpaceOnUse">
<stop stop-color="#4B0082"/>
<stop offset="0.276" stop-color="#9400D3"/>
<stop offset="0.531" stop-color="#C05EEA"/>
<stop offset="0.761" stop-color="#9400D3"/>
<stop offset="0.951" stop-color="#4B0082"/>
</linearGradient>
<linearGradient id="paint1_linear_8_7575" x1="55.3154" y1="74.5004" x2="55.3154" y2="-6.34935" gradientUnits="userSpaceOnUse">
<stop stop-color="#4B0082"/>
<stop offset="0.276" stop-color="#9400D3"/>
<stop offset="0.531" stop-color="#C05EEA"/>
<stop offset="0.761" stop-color="#9400D3"/>
<stop offset="0.951" stop-color="#4B0082"/>
</linearGradient>
<linearGradient id="paint2_linear_8_7575" x1="51.9924" y1="172.542" x2="51.9924" y2="39.9132" gradientUnits="userSpaceOnUse">
<stop stop-color="#4B0082"/>
<stop offset="0.276" stop-color="#9400D3"/>
<stop offset="0.531" stop-color="#C05EEA"/>
<stop offset="0.761" stop-color="#9400D3"/>
<stop offset="0.951" stop-color="#4B0082"/>
</linearGradient>
<linearGradient id="paint3_linear_8_7575" x1="77.6335" y1="180.675" x2="77.6335" y2="47.1379" gradientUnits="userSpaceOnUse">
<stop stop-color="#4B0082"/>
<stop offset="0.276" stop-color="#9400D3"/>
<stop offset="0.531" stop-color="#C05EEA"/>
<stop offset="0.761" stop-color="#9400D3"/>
<stop offset="0.951" stop-color="#4B0082"/>
</linearGradient>
</defs>
</svg>
