<?xml version="1.0" encoding="utf-8"?>
<!-- Generator: Adobe Illustrator 17.0.0, SVG Export Plug-In . SVG Version: 6.00 Build 0)  -->
<!DOCTYPE svg PUBLIC "-//W3C//DTD SVG 1.1//EN" "http://www.w3.org/Graphics/SVG/1.1/DTD/svg11.dtd">
<svg version="1.1" id="Layer_1" xmlns="http://www.w3.org/2000/svg" xmlns:xlink="http://www.w3.org/1999/xlink" x="0px" y="0px"
	 width="50px" height="50px" viewBox="0 0 50 50" enable-background="new 0 0 50 50" xml:space="preserve">
<path fill="none" stroke="#33FFCC" d="M25,0.5L25,0.5c13.531,0,24.5,10.969,24.5,24.5l0,0c0,13.531-10.969,24.5-24.5,24.5l0,0
	C11.469,49.5,0.5,38.531,0.5,25l0,0C0.5,11.469,11.469,0.5,25,0.5z"/>
<path fill="#33FFCC" d="M35.22,14.78c1.14,1.143,1.78,2.691,1.78,4.306c0,1.614-0.64,3.163-1.78,4.306l-2.16,2.146
	c-1.581,1.581-3.812,2.075-5.844,1.539l3.699-3.684l1.073-1.087l1.073-1.073c1.186-1.186,1.186-3.106,0-4.292
	c-0.28-0.285-0.614-0.512-0.982-0.666c-0.368-0.155-0.764-0.234-1.163-0.234c-0.4,0-0.795,0.08-1.163,0.234
	c-0.368,0.155-0.702,0.381-0.982,0.666l-1.087,1.073l-4.771,4.771c-0.522-2.033-0.028-4.263,1.553-5.844l2.146-2.16
	c1.143-1.14,2.691-1.78,4.306-1.78C32.529,13,34.077,13.64,35.22,14.78z M22.304,29.842l7.538-7.538
	c0.593-0.593,0.593-1.553,0-2.146c-0.621-0.607-1.595-0.551-2.16,0l-7.524,7.538c-0.593,0.593-0.593,1.553,0,2.146
	C20.779,30.449,21.753,30.393,22.304,29.842z M21.231,33.075l5.844-5.858c0.537,2.033,0.042,4.263-1.539,5.844l-2.146,2.16
	C22.248,36.36,20.699,37,19.085,37s-3.162-0.64-4.306-1.78C13.64,34.077,13,32.529,13,30.915c0-1.614,0.64-3.163,1.78-4.306
	l2.16-2.146c1.581-1.581,3.812-2.075,5.844-1.553l-5.844,5.858c-1.2,1.186-1.2,3.106,0,4.306
	C18.125,34.261,20.045,34.261,21.231,33.075z"/>
</svg>
