<svg width="16" height="16" viewBox="0 0 16 16" fill="none" xmlns="http://www.w3.org/2000/svg">
<circle cx="8" cy="8" r="8" fill="#CB5C71"/>
<path d="M7.83247 8.63878L5.72158 10.8745C5.6426 10.9582 5.54208 11 5.42002 11C5.29797 11 5.19745 10.9582 5.11847 10.8745C5.03949 10.7909 5 10.6844 5 10.5551C5 10.4259 5.03949 10.3194 5.11847 10.2357L7.22936 8L5.11847 5.76426C5.03949 5.68061 5 5.57414 5 5.44487C5 5.31559 5.03949 5.20913 5.11847 5.12548C5.19745 5.04182 5.29797 5 5.42002 5C5.54208 5 5.6426 5.04182 5.72158 5.12548L7.83247 7.36122L9.94335 5.12548C10.0223 5.04182 10.1229 5 10.2449 5C10.367 5 10.4675 5.04182 10.5465 5.12548C10.6254 5.20913 10.6649 5.31559 10.6649 5.44487C10.6649 5.57414 10.6254 5.68061 10.5465 5.76426L8.43558 8L10.5465 10.2357C10.6254 10.3194 10.6649 10.4259 10.6649 10.5551C10.6649 10.6844 10.6254 10.7909 10.5465 10.8745C10.4675 10.9582 10.367 11 10.2449 11C10.1229 11 10.0223 10.9582 9.94335 10.8745L7.83247 8.63878Z" fill="white"/>
</svg>
