<svg width="72" height="48" viewBox="0 0 72 48" fill="none" xmlns="http://www.w3.org/2000/svg">
<rect x="15" width="57" height="35" rx="3" fill="black"/>
<rect x="5.10938" y="5" width="57" height="35" rx="5" transform="rotate(8.39491 5.10938 5)" fill="url(#paint0_linear_1937_5611)"/>
<path d="M17.461 16.1151C17.5126 16.1237 17.5532 16.1186 17.5828 16.0998C17.6135 16.0826 17.6508 16.0345 17.6946 15.9554L17.4489 14.8965L17.636 14.9277L17.8078 15.8029L18.238 15.028L18.417 15.0578L17.8275 16.0612C17.7746 16.1527 17.7206 16.2134 17.6655 16.2432C17.6101 16.2744 17.5438 16.2836 17.4665 16.2707C17.4435 16.2668 17.4193 16.2614 17.394 16.2544C17.37 16.2476 17.3462 16.2402 17.3224 16.232L17.3468 16.0856C17.3611 16.0921 17.3769 16.0976 17.3943 16.1019C17.413 16.1064 17.4353 16.1108 17.461 16.1151Z" fill="white"/>
<path d="M16.6414 15.8119C16.5384 15.7947 16.4665 15.7576 16.4258 15.7007C16.3867 15.6426 16.3761 15.56 16.394 15.4529C16.412 15.3444 16.454 15.2727 16.5197 15.2377C16.5857 15.2013 16.6885 15.1947 16.8282 15.218C16.8743 15.2257 16.9194 15.2353 16.9634 15.2468C17.0075 15.2583 17.0485 15.2714 17.0865 15.2861L17.1028 15.1885C17.1152 15.1139 17.1051 15.0572 17.0726 15.0183C17.0401 14.9794 16.9818 14.953 16.8977 14.939C16.8353 14.9286 16.78 14.9222 16.7316 14.9197C16.6835 14.9158 16.6348 14.9154 16.5855 14.9183L16.6096 14.7739C16.6661 14.7694 16.7226 14.7691 16.7791 14.7729C16.8369 14.777 16.9018 14.785 16.9736 14.797C17.0943 14.8171 17.179 14.8605 17.2279 14.9271C17.2769 14.9924 17.2916 15.0841 17.2719 15.202L17.1587 15.8814L17.0062 15.8559L17.0136 15.761L17.0096 15.7603C16.9635 15.7861 16.9062 15.8037 16.8377 15.8132C16.7706 15.8229 16.7052 15.8225 16.6414 15.8119ZM16.8238 15.3573C16.7316 15.3419 16.6653 15.3427 16.6248 15.3597C16.5859 15.3755 16.5618 15.4119 16.5523 15.4688C16.5423 15.5285 16.55 15.5744 16.5753 15.6065C16.6009 15.6372 16.6475 15.6582 16.7153 15.6695C16.7682 15.6783 16.8238 15.6792 16.8821 15.6722C16.9404 15.6652 16.9892 15.6524 17.0285 15.6339L17.0645 15.4183C17.0209 15.4041 16.9796 15.3923 16.9407 15.3831C16.9035 15.3727 16.8645 15.3641 16.8238 15.3573Z" fill="white"/>
<path d="M15.4312 15.9108L15.2645 15.883L15.4834 14.5692L15.6278 14.5932L15.6231 14.6844L15.6292 14.6854C15.6771 14.6572 15.7318 14.6384 15.7933 14.6292C15.8547 14.6199 15.9187 14.6208 15.9851 14.6319C16.1221 14.6547 16.2129 14.7116 16.2577 14.8027C16.3038 14.894 16.3114 15.0319 16.2807 15.2163C16.25 15.4007 16.1919 15.5276 16.1065 15.5969C16.0211 15.6663 15.8943 15.687 15.7262 15.659C15.676 15.6506 15.6305 15.6395 15.5895 15.6257C15.55 15.6122 15.5158 15.596 15.4868 15.5773L15.4312 15.9108ZM16.1139 15.1885C16.137 15.0501 16.1334 14.9506 16.1031 14.8898C16.0741 14.8293 16.0068 14.7902 15.901 14.7725C15.8509 14.7642 15.8015 14.7636 15.7529 14.7709C15.7059 14.7769 15.6598 14.7902 15.6146 14.8105L15.5126 15.4227C15.5442 15.4419 15.5771 15.4578 15.6112 15.4705C15.6467 15.4834 15.6868 15.4935 15.7315 15.501C15.8577 15.522 15.9467 15.5104 15.9987 15.4661C16.0522 15.4207 16.0907 15.3281 16.1139 15.1885Z" fill="white"/>
<path d="M9.60398 12.6608C9.95161 12.5274 10.1349 12.2622 10.1959 12.163C10.2271 12.1121 10.2469 12.0713 10.2678 12.0281C10.2953 11.9713 10.3185 11.9163 10.3384 11.8637L10.3665 11.695C10.4068 11.4532 10.3641 11.2529 10.2387 11.0938C10.1129 10.9349 9.90217 10.8306 9.60648 10.7813C9.40107 10.7471 9.21908 10.7551 9.06025 10.805C9.18252 10.7929 9.4268 10.7813 9.66373 10.9171C9.73904 10.9602 9.85161 11.0247 9.91757 11.1574C9.96175 11.2463 9.96732 11.3301 9.97262 11.41C9.97673 11.4721 9.97475 11.5289 9.96966 11.5794C9.96972 11.5822 9.96976 11.585 9.96978 11.5875C9.95991 11.6825 9.94771 11.7805 9.93279 11.8812C9.90482 12.0701 9.87036 12.2478 9.83208 12.4137C9.78754 12.4723 9.707 12.5613 9.58022 12.6272C9.53756 12.6494 9.49263 12.6672 9.44546 12.6807C9.33771 12.7116 9.23787 12.7264 9.14581 12.7253C9.19265 12.7315 9.24001 12.7335 9.28718 12.7308C9.42712 12.723 9.52908 12.6895 9.60398 12.6608Z" fill="url(#paint1_linear_1937_5611)"/>
<path d="M9.92382 11.156C9.85789 11.0226 9.74526 10.9578 9.66991 10.9145C9.43285 10.7782 9.18833 10.7901 9.06593 10.8023C9.01654 10.8179 8.96931 10.8375 8.9244 10.8612C8.79718 10.9285 8.72269 11.0125 8.70357 11.0341C8.57574 11.179 8.53154 11.3406 8.51595 11.4348C8.50919 11.4757 8.50679 11.5101 8.50585 11.5339C8.52635 11.519 8.5572 11.4988 8.59735 11.4806C8.66907 11.448 8.73274 11.4388 8.79362 11.4333C8.97003 11.4176 9.15803 11.4307 9.22331 11.4359C9.25008 11.4362 9.28254 11.4337 9.31838 11.425C9.40457 11.4042 9.46405 11.3584 9.49568 11.3296C9.39331 11.3582 9.28094 11.346 9.18637 11.2976C9.16175 11.2849 9.13544 11.2648 9.13617 11.2371C9.13668 11.2175 9.15089 11.2012 9.16518 11.1879C9.16731 11.1859 9.16957 11.1841 9.17174 11.1822C9.17561 11.1798 9.17942 11.1774 9.18337 11.1751C9.30897 11.1029 9.45816 11.1237 9.55191 11.1428C9.65156 11.163 9.7947 11.1921 9.89127 11.3219C9.96418 11.4199 9.9746 11.5269 9.97562 11.5802C9.98075 11.5295 9.98278 11.4723 9.9787 11.4099C9.97348 11.3296 9.96797 11.2453 9.92382 11.156Z" fill="url(#paint2_linear_1937_5611)"/>
<path d="M8.4797 12.3775C8.54423 12.2408 8.68058 12.1481 8.82556 12.105C8.91162 12.0794 9.00092 12.0693 9.09087 12.067C9.16254 12.0604 9.23662 12.0628 9.30226 12.0597C9.54417 12.0482 9.65082 12.0313 9.7525 11.9762C9.79544 11.9529 9.83573 11.9237 9.86785 11.8775C9.9202 11.8022 9.92341 11.7211 9.92233 11.6833C9.88331 11.7014 9.8303 11.7143 9.76294 11.7219C9.61498 11.7387 9.44446 11.745 9.25178 11.7404C8.96257 11.7336 8.74042 11.7795 8.58594 11.8782C8.3635 12.0202 8.24302 12.3173 8.30822 12.5742C8.33892 12.6951 8.40511 12.7931 8.49186 12.8702C8.46491 12.8049 8.44699 12.7359 8.43927 12.6656C8.42857 12.568 8.43778 12.4664 8.4797 12.3775Z" fill="url(#paint3_linear_1937_5611)"/>
<path d="M10.1744 13.0824C10.1669 13.0472 10.1694 13.002 10.1746 12.913C10.1775 12.8641 10.1811 12.8238 10.1839 12.796L10.3397 11.861C10.3199 11.9133 10.2967 11.9681 10.2694 12.0246C10.2485 12.0676 10.2289 12.1081 10.1977 12.1587C10.1369 12.2575 9.95442 12.5213 9.60809 12.654C9.53348 12.6826 9.43189 12.7159 9.29246 12.7236C9.24547 12.7262 9.19826 12.7243 9.15159 12.7181C9.11354 12.7177 9.0768 12.7146 9.04144 12.7087C8.88393 12.6824 8.74479 12.5884 8.72717 12.4177C8.71417 12.2918 8.78656 12.156 8.89923 12.097C8.94878 12.0711 9.00612 12.0596 9.0651 12.0542C8.97549 12.0564 8.88654 12.0664 8.80082 12.0918C8.6564 12.1346 8.5206 12.2268 8.45637 12.3628C8.41465 12.4511 8.4055 12.5521 8.4162 12.6492C8.42389 12.719 8.44177 12.7877 8.46864 12.8526C8.59701 12.9665 8.77057 13.0345 8.94109 13.0629C9.08839 13.0875 9.23355 13.0843 9.3766 13.0531C9.51927 13.0221 9.64665 12.9609 9.75842 12.8694C9.76149 12.9149 9.775 13.0146 9.84876 13.1037C10.0013 13.2879 10.2618 13.2462 10.2745 13.2439C10.2028 13.1788 10.1818 13.1172 10.1744 13.0824Z" fill="url(#paint4_linear_1937_5611)"/>
<path d="M17.2796 14.4562C17.039 14.4161 16.8712 14.3295 16.7762 14.1965C16.6849 14.0609 16.6601 13.868 16.7018 13.6179C16.744 13.3646 16.8419 13.1971 16.9954 13.1153C17.1495 13.0303 17.3896 13.015 17.7157 13.0694C17.8234 13.0873 17.9287 13.1097 18.0315 13.1367C18.1344 13.1636 18.2237 13.1931 18.3124 13.2274L18.3504 12.9994C18.3794 12.8253 18.3624 12.6939 18.2864 12.6032C18.2104 12.5124 18.0743 12.4507 17.878 12.418C17.7323 12.3937 17.6031 12.3786 17.4901 12.3728C17.3777 12.3639 17.264 12.3628 17.149 12.3697L17.2052 12.0325C17.3371 12.0219 17.469 12.0211 17.6009 12.0301C17.736 12.0396 17.8875 12.0583 18.0553 12.0863C18.3371 12.1333 18.535 12.2346 18.6489 12.3902C18.7635 12.5428 18.8008 12.7572 18.7549 13.0327L18.4905 14.6189L18.0916 14.5524L18.128 14.334L18.1392 14.3358C18.0315 14.396 17.8978 14.4372 17.7379 14.4593C17.5812 14.482 17.4284 14.481 17.2796 14.4562ZM17.7054 13.3947C17.4901 13.3588 17.3352 13.3607 17.2408 13.4003C17.15 13.4372 17.0936 13.5221 17.0714 13.6551C17.0482 13.7944 17.0661 13.9016 17.1252 13.9765C17.1849 14.0483 17.2938 14.0973 17.4521 14.1237C17.5756 14.1443 17.7054 14.1464 17.8416 14.13C17.9777 14.1137 18.0852 14.0828 18.177 14.0395L18.2609 13.5361C18.1591 13.5029 18.0693 13.4765 17.9785 13.4549C17.8914 13.4306 17.8004 13.4105 17.7054 13.3947Z" fill="#9400D3"/>
<path d="M14.5294 13.9594L14.1287 13.8926L14.655 10.7344L15.0445 10.7993L14.8775 11.8014C15.0331 11.746 15.1838 11.7109 15.3295 11.6961C15.4788 11.6787 15.6231 11.6816 15.7624 11.7048C16.0221 11.7481 16.206 11.8454 16.3142 11.9969C16.4255 12.1488 16.4666 12.3526 16.4244 12.6059L16.1537 14.2301L15.7577 14.1641L16.0205 12.5874C16.0474 12.4259 16.0242 12.3016 15.9508 12.2145C15.8812 12.1248 15.7577 12.0652 15.5804 12.0356C15.4632 12.0161 15.3387 12.0116 15.2068 12.0222C15.078 12.0333 14.9631 12.0597 14.8396 12.0977L14.5294 13.9594Z" fill="#9400D3"/>
<path d="M13.8046 13.4616L13.75 13.7893C13.6957 13.803 13.6231 13.8089 13.5324 13.8067C13.4442 13.8083 13.3606 13.8025 13.2814 13.7893C12.9965 13.7418 12.8028 13.6445 12.7004 13.4973C12.6012 13.3506 12.5702 13.1208 12.6219 12.8106L12.8302 11.6055L12.4788 11.5469L12.5342 11.2144L12.8904 11.2738L13.0471 10.7142L13.3701 10.768L13.2751 11.3379L14.111 11.4772L14.0555 11.8097L13.2197 11.6704L13.021 12.8624C12.9888 13.0556 13.0017 13.1928 13.0598 13.274C13.121 13.3558 13.2419 13.4118 13.4223 13.4418C13.4793 13.4513 13.545 13.4574 13.6194 13.46C13.697 13.4632 13.7587 13.4637 13.8046 13.4616Z" fill="#9400D3"/>
<path d="M11.0815 13.3831L10.692 13.3182L11.083 10.9721L11.4392 11.0315L11.425 11.2341L11.444 11.2373C11.5796 11.185 11.712 11.1518 11.8413 11.1375C11.9711 11.1201 12.0962 11.1215 12.2165 11.1415C12.2672 11.1499 12.3004 11.1555 12.3162 11.1581C12.3352 11.1613 12.3492 11.1652 12.3582 11.17L12.2957 11.5452C12.2746 11.5352 12.2466 11.5272 12.2118 11.5214C12.1806 11.513 12.1302 11.503 12.0606 11.4914C11.9466 11.4724 11.8318 11.4679 11.7163 11.4779C11.6044 11.4853 11.5044 11.5093 11.3973 11.5468L11.0815 13.3831Z" fill="#9400D3"/>
<path fill-rule="evenodd" clip-rule="evenodd" d="M18.4599 14.8394L8.16673 13.1239L8.17175 13.0938L18.4649 14.8092L18.4599 14.8394Z" fill="white"/>
<defs>
<linearGradient id="paint0_linear_1937_5611" x1="33.6094" y1="5" x2="35.3138" y2="46.0299" gradientUnits="userSpaceOnUse">
<stop stop-color="#77DDFF"/>
<stop offset="1" stop-color="#A374C6"/>
</linearGradient>
<linearGradient id="paint1_linear_1937_5611" x1="9.4008" y1="13.1257" x2="9.84737" y2="10.4461" gradientUnits="userSpaceOnUse">
<stop stop-color="#4B0082"/>
<stop offset="0.276" stop-color="#9400D3"/>
<stop offset="0.531" stop-color="#C05EEA"/>
<stop offset="0.761" stop-color="#9400D3"/>
<stop offset="0.951" stop-color="#4B0082"/>
</linearGradient>
<linearGradient id="paint2_linear_1937_5611" x1="9.19656" y1="11.8029" x2="9.38857" y2="10.6508" gradientUnits="userSpaceOnUse">
<stop stop-color="#4B0082"/>
<stop offset="0.276" stop-color="#9400D3"/>
<stop offset="0.531" stop-color="#C05EEA"/>
<stop offset="0.761" stop-color="#9400D3"/>
<stop offset="0.951" stop-color="#4B0082"/>
</linearGradient>
<linearGradient id="paint3_linear_1937_5611" x1="8.91612" y1="13.1933" x2="9.23109" y2="11.3034" gradientUnits="userSpaceOnUse">
<stop stop-color="#4B0082"/>
<stop offset="0.276" stop-color="#9400D3"/>
<stop offset="0.531" stop-color="#C05EEA"/>
<stop offset="0.761" stop-color="#9400D3"/>
<stop offset="0.951" stop-color="#4B0082"/>
</linearGradient>
<linearGradient id="paint4_linear_1937_5611" x1="9.26248" y1="13.3706" x2="9.57961" y2="11.4677" gradientUnits="userSpaceOnUse">
<stop stop-color="#4B0082"/>
<stop offset="0.276" stop-color="#9400D3"/>
<stop offset="0.531" stop-color="#C05EEA"/>
<stop offset="0.761" stop-color="#9400D3"/>
<stop offset="0.951" stop-color="#4B0082"/>
</linearGradient>
</defs>
</svg>
