<svg width="17" height="17" viewBox="0 0 17 17" fill="none" xmlns="http://www.w3.org/2000/svg">
<path d="M7.4575 0.689225V6.75999C7.4575 6.94279 7.38512 7.11809 7.25628 7.24735C7.12744 7.3766 6.9527 7.44922 6.77049 7.44922H0.68701C0.596834 7.4493 0.50754 7.43141 0.424308 7.3966C0.341076 7.36178 0.265562 7.31074 0.202148 7.24642L0.188964 7.23319M7.4575 0.689225C7.45673 0.50667 7.3841 0.331812 7.25543 0.202724C7.12675 0.0736365 6.95246 0.000773551 6.77049 0M7.4575 0.689225L7.0575 0.690915C7.0575 0.69068 7.0575 0.690446 7.0575 0.690211M7.4575 0.689225H7.0575V0.690211M6.77049 0H0.68701M6.77049 0V0.4H6.76946M6.77049 0L6.76879 0.399996C6.76901 0.399997 6.76923 0.399999 6.76946 0.4M0.68701 0C0.505041 0.000773551 0.330745 0.0736365 0.202072 0.202724C0.0734001 0.331812 0.000771063 0.50667 0 0.689225M0.68701 0L0.68871 0.399996C0.688488 0.399997 0.688266 0.399999 0.688044 0.4M0.68701 0V0.4H0.688044M0 0.689225V6.75999M0 0.689225H0.4V0.690247M0 0.689225L0.399996 0.690915C0.399997 0.690692 0.399999 0.69047 0.4 0.690247M0 6.75999C9.40238e-05 6.93622 0.0677546 7.10565 0.188964 7.23319M0 6.75999L0.4 6.75978M0 6.75999H0.4L0.4 6.75978M0.188964 7.23319L0.478915 6.95764C0.478056 6.95674 0.477204 6.95583 0.476358 6.95491M0.188964 7.23319L0.472267 6.95081L0.476358 6.95491M0.476358 6.95491C0.427471 6.9021 0.400039 6.83243 0.4 6.75978M0.476358 6.95491L0.48545 6.96404L0.486992 6.96558L0.486988 6.96559C0.513221 6.9922 0.544391 7.01324 0.578656 7.02758C0.612915 7.0419 0.649624 7.04925 0.686665 7.04922H0.68701H6.77049C6.84619 7.04922 6.91906 7.01906 6.97298 6.96496C7.02695 6.91082 7.0575 6.83711 7.0575 6.75999V0.690211M0.4 6.75978L0.4 0.690247M7.0575 0.690211C7.05699 0.612999 7.02618 0.539337 6.97213 0.485111C6.91812 0.430923 6.84527 0.400498 6.76946 0.4M6.76946 0.4H0.688044M0.688044 0.4C0.612226 0.400498 0.539384 0.430923 0.48537 0.485111C0.431311 0.539345 0.400501 0.613022 0.4 0.690247M7.4575 9.97834V16.0535C7.45769 16.1441 7.44005 16.2338 7.4056 16.3175C7.37114 16.4012 7.32054 16.4773 7.25671 16.5413C7.19288 16.6053 7.11706 16.6561 7.03363 16.6907C6.95019 16.7252 6.86076 16.7429 6.77049 16.7427H0.68701C0.504804 16.7427 0.33006 16.6701 0.201221 16.5409C0.0723815 16.4116 0 16.2363 0 16.0535V9.97834M7.4575 9.97834C7.45711 9.79553 7.38465 9.62029 7.25594 9.49089C7.12723 9.36148 6.95271 9.28842 6.77049 9.28764M7.4575 9.97834H7.0575V9.97883M7.4575 9.97834L7.0575 9.97918C7.0575 9.97906 7.0575 9.97894 7.0575 9.97883M6.77049 9.28764H0.68701M6.77049 9.28764L6.76879 9.68764C6.76897 9.68764 6.76915 9.68764 6.76933 9.68764M6.77049 9.28764V9.68764H6.76933M0.68701 9.28764C0.504788 9.28842 0.330272 9.36148 0.201558 9.49089C0.0728439 9.62029 0.000385244 9.79553 0 9.97834M0.68701 9.28764V9.68764H0.688165M0.68701 9.28764L0.688714 9.68764C0.688531 9.68764 0.688348 9.68764 0.688165 9.68764M0 9.97834L0.399999 9.97918C0.399999 9.97907 0.4 9.97896 0.4 9.97885M0 9.97834H0.4V9.97885M0.4 9.97885C0.400251 9.90139 0.431001 9.82742 0.485156 9.77297C0.539216 9.71862 0.612198 9.68811 0.688165 9.68764M0.4 9.97885V16.0535C0.4 16.1306 0.43055 16.2043 0.484519 16.2585C0.538443 16.3126 0.611307 16.3427 0.68701 16.3427H6.77049H6.77135C6.80877 16.3428 6.84587 16.3355 6.88052 16.3211C6.91519 16.3068 6.94677 16.2856 6.97341 16.2589C7.00006 16.2322 7.02125 16.2004 7.03571 16.1652C7.05016 16.1301 7.05758 16.0924 7.0575 16.0544L7.0575 16.0535L7.0575 9.97883M0.688165 9.68764H6.76933M6.76933 9.68764C6.8453 9.68811 6.91828 9.71862 6.97234 9.77297C7.02649 9.82741 7.05724 9.90138 7.0575 9.97883M9.87155 0.486463L9.87166 0.486585L9.87997 0.478637C9.93285 0.428062 10.0028 0.400039 10.0754 0.4L16.1576 0.4C16.2334 0.400498 16.3063 0.430923 16.3603 0.48511C16.4143 0.539339 16.4451 0.613003 16.4457 0.690211V6.75901C16.4451 6.83622 16.4143 6.90988 16.3603 6.96411C16.3063 7.01829 16.2335 7.04871 16.1576 7.04922H10.0762C10.0004 7.04871 9.92754 7.01829 9.87353 6.96411C9.81944 6.90985 9.78863 6.83612 9.78816 6.75886V0.689451C9.7882 0.615343 9.81645 0.544398 9.86658 0.490948L9.87155 0.486463Z" stroke="#33FFCC" stroke-width="0.8"/>
<path d="M16.8877 16.3256L15.4046 14.8533C15.9803 14.135 16.259 13.2232 16.1836 12.3054C16.1082 11.3877 15.6843 10.5337 14.999 9.91917C14.3137 9.30461 13.4193 8.97616 12.4994 9.00135C11.5796 9.02654 10.7044 9.40345 10.0538 10.0546C9.40315 10.7057 9.02652 11.5816 9.00135 12.5021C8.97618 13.4226 9.30438 14.3178 9.91847 15.0036C10.5326 15.6893 11.3859 16.1136 12.3029 16.1891C13.22 16.2646 14.1311 15.9856 14.8489 15.4094L16.32 16.8817C16.3572 16.9192 16.4014 16.9489 16.4501 16.9692C16.4988 16.9895 16.5511 17 16.6038 17C16.6566 17 16.7089 16.9895 16.7576 16.9692C16.8063 16.9489 16.8505 16.9192 16.8877 16.8817C16.9597 16.8071 17 16.7074 17 16.6036C17 16.4999 16.9597 16.4002 16.8877 16.3256ZM12.6062 15.4094C12.0528 15.4094 11.5117 15.2452 11.0515 14.9375C10.5914 14.6297 10.2327 14.1924 10.0209 13.6806C9.80909 13.1689 9.75367 12.6058 9.86165 12.0626C9.96962 11.5194 10.2361 11.0204 10.6275 10.6287C11.0188 10.2371 11.5175 9.97036 12.0603 9.8623C12.6031 9.75425 13.1658 9.80971 13.6771 10.0217C14.1884 10.2336 14.6255 10.5926 14.9329 11.0531C15.2404 11.5136 15.4046 12.0551 15.4046 12.609C15.4046 13.3517 15.1097 14.064 14.5849 14.5892C14.0601 15.1144 13.3484 15.4094 12.6062 15.4094Z" fill="#33FFCC"/>
</svg>
