<?xml version="1.0" encoding="utf-8"?>
<!-- Generator: Adobe Illustrator 17.0.0, SVG Export Plug-In . SVG Version: 6.00 Build 0)  -->
<!DOCTYPE svg PUBLIC "-//W3C//DTD SVG 1.1//EN" "http://www.w3.org/Graphics/SVG/1.1/DTD/svg11.dtd">
<svg version="1.1" id="Layer_1" xmlns="http://www.w3.org/2000/svg" xmlns:xlink="http://www.w3.org/1999/xlink" x="0px" y="0px"
	 width="50px" height="50px" viewBox="0 0 50 50" enable-background="new 0 0 50 50" xml:space="preserve">
<g>
	<path fill="none" stroke="#000000" stroke-width="1.5" d="M25.636,29.427c1.473,0,2.667-1.194,2.667-2.667
		c0-1.473-1.194-2.667-2.667-2.667c-1.473,0-2.667,1.194-2.667,2.667C22.969,28.233,24.163,29.427,25.636,29.427z"/>
	<path fill="none" stroke="#000000" stroke-width="1.5" d="M23.664,33.875h3.951c2.774,0,4.161,0,5.158-0.654
		c0.431-0.283,0.802-0.647,1.09-1.07c0.666-0.978,0.666-2.34,0.666-5.064c0-2.724,0-4.086-0.666-5.064
		c-0.288-0.424-0.659-0.787-1.09-1.07c-0.64-0.42-1.442-0.57-2.669-0.624c-0.586,0-1.09-0.436-1.205-1
		c-0.172-0.846-0.929-1.455-1.807-1.455h-2.904c-0.878,0-1.635,0.609-1.807,1.455c-0.115,0.564-0.619,1-1.205,1
		c-1.227,0.054-2.029,0.204-2.669,0.624c-0.431,0.283-0.802,0.647-1.09,1.07c-0.666,0.978-0.666,2.34-0.666,5.064
		c0,2.724,0,4.086,0.666,5.064c0.288,0.423,0.659,0.787,1.09,1.07C19.502,33.875,20.89,33.875,23.664,33.875z"/>
	<path fill="none" stroke="#000000" stroke-width="1.5" stroke-linecap="round" d="M31.858,24.094h-0.889"/>
</g>
</svg>
