<svg width="221" height="264" viewBox="0 0 221 264" fill="none" xmlns="http://www.w3.org/2000/svg">
<path d="M217.324 120.58C210.363 153.541 192.813 183.321 173.572 203.146C153.975 223.141 132.688 233.181 110.017 230.602C87.3465 228.022 66.0589 214.041 46.4621 195.199C27.2215 176.186 9.67174 152.313 2.71084 126.01C-4.25005 99.7075 2.22124 75.2262 21.8181 55.2307C41.0581 35.4057 73.4242 20.0671 110.017 15.988C146.61 11.9089 178.976 20.5919 198.216 39.6047C217.813 58.4466 224.285 87.619 217.324 120.58Z" fill="#1B1B20"/>
<g opacity="0.3">
<path d="M75.0817 58.3654C75.1884 58.7397 74.9972 59.1419 74.6281 59.2901C73.8211 59.6145 72.9878 59.9086 72.1519 60.1643C71.7451 60.2887 71.3145 60.0599 71.1901 59.6533C71.1887 59.6484 71.1874 59.6436 71.186 59.6388C71.0713 59.2365 71.2994 58.8145 71.7013 58.6916C72.4957 58.4487 73.2871 58.1693 74.0538 57.8612C74.4483 57.7026 74.897 57.8939 75.0555 58.2886C75.0658 58.3139 75.0743 58.3396 75.0817 58.3654ZM68.6169 60.157C68.6252 60.186 68.6318 60.2159 68.6368 60.2463C68.7046 60.6662 68.4191 61.0616 67.9994 61.1293C67.1369 61.2684 66.2601 61.372 65.3932 61.4372C64.9691 61.4691 64.6008 61.1526 64.5673 60.727C64.5356 60.3029 64.8537 59.9334 65.2775 59.9015C66.1015 59.8395 66.9345 59.741 67.7541 59.6087C68.1434 59.5459 68.5115 59.7869 68.6169 60.157ZM61.9185 60.4807C61.942 60.5631 61.952 60.651 61.9462 60.7414C61.9186 61.1658 61.5525 61.4877 61.1281 61.4603C60.2582 61.4043 59.3799 61.3096 58.5175 61.1789C58.097 61.1148 57.8084 60.7222 57.8716 60.3021C57.9353 59.8817 58.3279 59.5925 58.7483 59.6562C59.5672 59.7804 60.4011 59.8702 61.2273 59.9235C61.5612 59.945 61.8317 60.1763 61.9185 60.4807ZM55.3145 59.298C55.3533 59.4343 55.355 59.5828 55.3115 59.7286C55.19 60.1362 54.7609 60.3679 54.3535 60.2464C53.5175 59.9968 52.6824 59.7082 51.8712 59.3885C51.4761 59.2323 51.2817 58.7854 51.4372 58.3896C51.5931 57.9941 52.0404 57.7998 52.4361 57.9557C53.2064 58.2593 53.9996 58.5336 54.7941 58.7705C55.0556 58.8487 55.2448 59.0535 55.3145 59.298ZM49.1401 56.6725C49.1946 56.8636 49.1755 57.0755 49.0702 57.2621C48.8612 57.6326 48.3915 57.7634 48.0212 57.5543C47.2634 57.1267 46.5131 56.6605 45.7917 56.1686C45.4401 55.9294 45.3492 55.4503 45.5889 55.0987C45.8284 54.7474 46.3074 54.6566 46.659 54.8961C47.3447 55.3637 48.0578 55.8067 48.778 56.2131C48.9617 56.3168 49.0865 56.4845 49.1401 56.6725ZM43.7007 52.7469C43.7712 52.9944 43.7163 53.2715 43.5308 53.4761C43.2449 53.7911 42.7581 53.8148 42.443 53.5292C41.7975 52.9436 41.1689 52.3229 40.5752 51.6844C40.2856 51.3728 40.3034 50.8857 40.6149 50.596C40.9261 50.3065 41.4135 50.3242 41.7031 50.6356C42.2674 51.2423 42.8643 51.832 43.4777 52.3884C43.5882 52.4885 43.6626 52.6133 43.7007 52.7469ZM34.2007 26.114C34.2299 26.2166 34.2381 26.3266 34.2214 26.4389C34.0987 27.2571 34.0101 28.0916 33.9583 28.9193C33.9317 29.3437 33.5661 29.6662 33.1419 29.6395C32.7174 29.6131 32.3948 29.2475 32.4215 28.823C32.476 27.9513 32.5691 27.0723 32.6982 26.2107C32.7613 25.79 33.1534 25.5002 33.5739 25.5633C33.8823 25.6095 34.1204 25.8326 34.2007 26.114ZM39.2694 47.7165C39.357 48.0237 39.2462 48.3658 38.9697 48.5589C38.621 48.8025 38.141 48.7173 37.8974 48.3688C37.3981 47.6543 36.924 46.9093 36.4879 46.1546C36.2769 45.7854 36.4009 45.3153 36.7693 45.1025C37.1375 44.8898 37.6085 45.0159 37.8215 45.3842C38.2354 46.101 38.6857 46.8083 39.1598 47.4869C39.21 47.559 39.2466 47.6366 39.2694 47.7165ZM33.9608 32.8177C33.9747 32.8666 33.9843 32.9176 33.9883 32.9702C34.052 33.7957 34.1523 34.6292 34.286 35.4478C34.3544 35.8677 34.0697 36.2634 33.6501 36.332C33.2304 36.4003 32.8326 36.1165 32.766 35.6961C32.6255 34.8347 32.5199 33.9576 32.4527 33.0891C32.42 32.665 32.7373 32.2946 33.1612 32.262C33.5323 32.2332 33.8625 32.4729 33.9608 32.8177ZM36.0728 41.8226C36.1794 42.1963 35.9889 42.5979 35.6207 42.7468C35.2263 42.9062 34.7776 42.7156 34.618 42.3214C34.2918 41.5141 33.996 40.6818 33.7394 39.8476C33.7376 39.8425 33.7361 39.8372 33.7346 39.8319C33.62 39.4302 33.8474 39.0088 34.2485 38.8852C34.6551 38.76 35.086 38.988 35.2111 39.3945C35.4551 40.1868 35.7361 40.9773 36.0462 41.7444C36.0563 41.7702 36.0653 41.7964 36.0728 41.8226Z" fill="#8A939A"/>
<path d="M35.4819 20.8645C35.5235 21.0103 35.5227 21.1699 35.4698 21.3243C35.341 21.6999 35.2183 22.0845 35.1041 22.4673C34.9829 22.8749 34.5539 23.1071 34.1465 22.9858C33.7388 22.8646 33.5061 22.4357 33.6282 22.028C33.7479 21.6252 33.8772 21.2209 34.0126 20.8256C34.1503 20.4233 34.5883 20.2086 34.9904 20.3464C35.2386 20.4313 35.4151 20.6302 35.4819 20.8645Z" fill="#8A939A"/>
</g>
<g opacity="0.3">
<path d="M51.1574 3.3842C51.2593 3.74161 51.0898 4.1301 50.7423 4.29233C50.3826 4.46011 50.0203 4.63833 49.6657 4.82204C49.288 5.0176 48.8232 4.87001 48.6277 4.49242C48.4314 4.11314 48.5799 3.64998 48.9574 3.45442C49.3308 3.26117 49.7123 3.0734 50.0911 2.8966C50.4764 2.71683 50.9346 2.88345 51.1145 3.26878C51.1322 3.30663 51.1463 3.34525 51.1574 3.3842Z" fill="#8A939A"/>
<path d="M92.6937 22.2993C92.7909 22.64 92.8826 22.9838 92.9689 23.3303C93.0716 23.743 92.8204 24.1609 92.4078 24.2636C91.9951 24.3664 91.5752 24.1137 91.4743 23.7026C91.2751 22.9029 91.0439 22.113 90.784 21.3462C90.6481 20.9429 90.8632 20.5063 91.2659 20.3698C91.6689 20.2331 92.1061 20.4491 92.2426 20.8519C92.4035 21.3262 92.5551 21.8132 92.6937 22.2993ZM93.6796 27.3331C93.6914 27.3745 93.6999 27.4176 93.7047 27.4619C93.7978 28.316 93.8555 29.1836 93.8766 30.0404C93.887 30.4655 93.5508 30.8186 93.1259 30.8291C92.7006 30.8394 92.3463 30.5027 92.3372 30.0781C92.3172 29.2643 92.2621 28.4401 92.1739 27.6285C92.1278 27.2057 92.4333 26.8258 92.8559 26.7797C93.2344 26.7385 93.5785 26.979 93.6796 27.3331ZM90.6787 17.1135C90.7783 17.4627 90.619 17.8442 90.2826 18.0125C89.902 18.2028 89.4396 18.0486 89.2492 17.6683C88.8854 16.9407 88.4853 16.2189 88.0597 15.5226C87.8385 15.1593 87.9525 14.6857 88.3152 14.464C88.6783 14.2422 89.1522 14.3567 89.374 14.7197C89.822 15.4529 90.2433 16.2132 90.6266 16.9793C90.6486 17.0231 90.6658 17.0681 90.6787 17.1135ZM93.6671 33.9362C93.6939 34.0302 93.7029 34.1309 93.6912 34.2339C93.5945 35.0868 93.46 35.9459 93.2917 36.7871C93.2082 37.204 92.8027 37.4743 92.3857 37.3909C91.9684 37.3074 91.698 36.9021 91.7817 36.4848C91.9415 35.6861 92.0692 34.8703 92.1611 34.0603C92.2089 33.6377 92.5905 33.334 93.013 33.382C93.3324 33.4182 93.5841 33.6451 93.6671 33.9362ZM87.0919 11.5763C87.1736 11.8627 87.0842 12.1831 86.8389 12.3838C86.5097 12.6531 86.0245 12.6046 85.7552 12.2754C85.2404 11.646 84.6913 11.0298 84.1233 10.4438C83.8272 10.1385 83.8347 9.65095 84.1403 9.35485C84.4457 9.05902 84.9329 9.06656 85.2289 9.37194C85.827 9.98882 86.4051 10.6376 86.9473 11.3003C87.0158 11.3841 87.0639 11.4782 87.0919 11.5763ZM82.3768 6.96007C82.442 7.18904 82.4006 7.44496 82.2426 7.64672C81.9802 7.98143 81.4962 8.04018 81.1614 7.77781C80.5194 7.2748 79.8488 6.79287 79.1682 6.34558C78.8124 6.11248 78.7136 5.6352 78.9474 5.27927C79.181 4.9238 79.6584 4.82508 80.0139 5.05856C80.7301 5.52933 81.4359 6.03633 82.1114 6.56584C82.2443 6.66991 82.3337 6.80912 82.3768 6.96007ZM76.7674 3.48164C76.8171 3.6558 76.8058 3.84788 76.7216 4.02424C76.5386 4.40796 76.0789 4.57064 75.6951 4.38745C74.9584 4.03578 74.199 3.71138 73.4375 3.42328C73.0399 3.27285 72.8392 2.82878 72.99 2.43055C73.1406 2.0329 73.5848 1.83243 73.9828 1.98293C74.7839 2.28618 75.5834 2.62754 76.3586 2.99752C76.566 3.09663 76.7089 3.27653 76.7674 3.48164ZM70.5334 1.30944C70.5678 1.43008 70.5731 1.56072 70.5432 1.69167C70.4484 2.10622 70.0356 2.3653 69.621 2.27051C68.8257 2.08849 68.0137 1.93857 67.2075 1.8247C66.7864 1.76518 66.4932 1.37514 66.5525 0.954735C66.6119 0.533552 67.0016 0.240362 67.4226 0.299876C68.2719 0.419745 69.127 0.57772 69.9643 0.769225C70.2481 0.834285 70.4589 1.0481 70.5334 1.30944ZM63.9721 0.558569C63.9914 0.626402 64.0015 0.698105 64.0013 0.772128C64.0003 1.19731 63.6546 1.54124 63.2295 1.54002C62.4157 1.53796 61.591 1.57052 60.7781 1.63719C60.3541 1.67188 59.9826 1.35509 59.9478 0.932617C59.913 0.508726 60.2286 0.136936 60.6525 0.102245C61.5083 0.0321557 62.3765 -0.00221109 63.2332 0.000110182C63.5844 0.0010129 63.8804 0.236879 63.9721 0.558569ZM57.4105 1.26695C57.4148 1.28216 57.4186 1.29764 57.4221 1.31318C57.5136 1.72843 57.251 2.13936 56.8358 2.23073C56.2495 2.35988 55.6604 2.50863 55.0842 2.67293C54.8756 2.73238 54.6681 2.79422 54.4619 2.85786C54.0554 2.98327 53.6243 2.75559 53.499 2.34924C53.364 1.94031 53.6012 1.51184 54.0073 1.38636C54.2244 1.3193 54.4424 1.2545 54.6619 1.19189C55.2679 1.01908 55.8879 0.862593 56.5045 0.726863C56.9042 0.638719 57.2998 0.878647 57.4105 1.26695Z" fill="#8A939A"/>
<path d="M92.1954 40.3917C92.2373 40.5389 92.2361 40.6999 92.1821 40.8553C92.0451 41.249 91.8971 41.6473 91.7424 42.0391C91.5862 42.4347 91.1389 42.6287 90.7434 42.4725C90.3479 42.3161 90.1535 41.8694 90.31 41.4735C90.4569 41.1013 90.5974 40.723 90.7275 40.3492C90.8671 39.9477 91.306 39.7353 91.7077 39.875C91.9539 39.9607 92.1289 40.1588 92.1954 40.3917Z" fill="#8A939A"/>
</g>
<path d="M83.3216 41.8402C83.4093 41.7142 83.4076 41.5464 83.3171 41.4223L80.7359 37.8833C81.4919 35.9825 81.9502 33.9474 82.0623 31.8453L85.8852 29.7127C86.0193 29.6379 86.0911 29.4862 86.0642 29.3351L85.1401 24.1628C85.113 24.0116 84.9931 23.8943 84.8415 23.8705L80.5166 23.1936C79.6834 21.2603 78.5488 19.5099 77.1814 17.9885L78.3774 13.7746C78.4193 13.6269 78.3629 13.4689 78.237 13.3811L73.9262 10.3771C73.8002 10.2893 73.6324 10.2911 73.5084 10.3816L69.9693 12.9628C68.0685 12.2068 66.0334 11.7486 63.9313 11.6364L61.7986 7.81347C61.7238 7.67942 61.5722 7.60752 61.4211 7.63454L56.2488 8.55867C56.0976 8.58562 55.9803 8.70561 55.9566 8.85727L55.2796 13.1821C53.3463 14.0153 51.5959 15.1498 50.0745 16.5173L45.8605 15.3213C45.7129 15.2795 45.5548 15.3358 45.467 15.4618L42.4632 19.7726C42.3753 19.8986 42.3772 20.0663 42.4676 20.1904L45.0488 23.7294C44.2928 25.6302 43.8345 27.6653 43.7224 29.7675L39.8994 31.9001C39.7654 31.9749 39.6935 32.1265 39.7205 32.2777L40.6446 37.45C40.6716 37.6011 40.7915 37.7185 40.9432 37.7422L45.2681 38.4191C46.1012 40.3525 47.2358 42.1029 48.6033 43.6243L47.4074 47.8382C47.3654 47.9859 47.4219 48.144 47.5478 48.2317L51.8586 51.2356C51.9845 51.3234 52.1524 51.3216 52.2764 51.2312L55.8155 48.65C57.7163 49.4061 59.7514 49.8642 61.8535 49.9764L63.9862 53.7993C64.0609 53.9334 64.2126 54.0053 64.3638 53.9782L69.536 53.0541C69.6871 53.0271 69.8045 52.9072 69.8283 52.7555L70.5052 48.4307C72.4385 47.5975 74.1889 46.4629 75.7104 45.0955L79.9243 46.2914C80.072 46.3334 80.23 46.277 80.3178 46.151L83.3216 41.8402Z" fill="#3A3F4D"/>
<path d="M67.9721 29.3636C68.678 31.8393 67.4798 34.5317 65.0651 35.6219C62.4106 36.8202 59.2767 35.6357 58.0783 32.9816C57.4974 31.6958 57.4527 30.2609 57.9513 28.9416C58.4499 27.6219 59.4327 26.5754 60.7185 25.995C63.3729 24.7967 66.5069 25.9812 67.7053 28.6353C67.8133 28.8746 67.9021 29.1182 67.9721 29.3636ZM58.9947 31.9107C59.0492 32.1019 59.1179 32.2902 59.2012 32.4747C60.1198 34.5097 62.5232 35.4177 64.558 34.4991C66.593 33.5803 67.5022 31.1775 66.5825 29.1422C65.6639 27.1072 63.2606 26.1992 61.2257 27.1178C60.2397 27.563 59.4864 28.3652 59.1039 29.3771C58.7933 30.1994 58.7579 31.0804 58.9947 31.9107Z" fill="black"/>
<path d="M75.2793 27.1672C75.4006 27.5924 75.5011 28.0262 75.58 28.4674C75.6049 28.6062 75.6274 28.7455 75.6478 28.8851C75.7481 29.5736 75.7934 30.2689 75.7832 30.9604C75.7831 30.9698 75.7829 30.9793 75.7828 30.9887C75.7823 31.0154 75.7818 31.0421 75.781 31.0689C75.7799 31.121 75.7782 31.1731 75.7764 31.2251C75.7716 31.3618 75.6783 31.4746 75.5534 31.5104C75.5231 31.519 75.4908 31.5231 75.4576 31.5219C75.2876 31.5159 75.1551 31.3729 75.1609 31.2032C75.192 30.3284 75.129 29.4444 74.9735 28.5758C74.2032 24.2606 71.2687 20.8662 67.488 19.3092C65.3853 18.4429 63.0206 18.1452 60.6207 18.5742C60.1998 18.6493 59.7858 18.7451 59.3803 18.8609C56.6509 19.6394 54.2919 21.319 52.6475 23.6791C50.7583 26.39 50.038 29.6744 50.6191 32.9269C51.82 39.6442 58.2577 44.1282 64.972 42.9285C65.386 42.8546 65.7947 42.7599 66.1964 42.6452C67.9375 42.1485 69.5504 41.2764 70.9166 40.0857C70.9519 40.0549 70.9921 40.0337 71.0344 40.0217C71.1455 39.9901 71.2701 40.0226 71.351 40.1155C71.4625 40.2442 71.4499 40.4383 71.3211 40.5502C69.8869 41.8002 68.1934 42.7161 66.3656 43.2375C65.9439 43.3579 65.5149 43.4572 65.0805 43.535C58.0311 44.7945 51.2717 40.0821 50.0126 33.0353C49.4024 29.6206 50.1587 26.1729 52.1419 23.3269C53.8683 20.8492 56.3448 19.086 59.2101 18.2686C59.6359 18.1472 60.0705 18.0466 60.5121 17.9676C63.927 17.3576 67.3748 18.1137 70.2208 20.0968C72.6989 21.8238 74.4622 24.3011 75.2793 27.1672Z" fill="black"/>
<g opacity="0.3">
<path d="M44.6694 100.914C44.4746 101.045 44.2099 101.038 44.0205 100.88C43.6667 100.586 43.3171 100.277 42.9814 99.9611C42.7632 99.7561 42.7526 99.4132 42.9576 99.1947C43.1621 98.9753 43.5058 98.966 43.724 99.1709C44.0439 99.4715 44.3771 99.7663 44.7146 100.047C44.9446 100.239 44.9756 100.581 44.7843 100.811C44.7503 100.852 44.7114 100.886 44.6694 100.914Z" fill="#8A939A"/>
<path d="M41.7233 97.9627C41.4951 98.1158 41.1835 98.0742 41.0045 97.8583C40.4984 97.2483 40.018 96.6053 39.5768 95.9475C39.4838 95.809 39.3922 95.6689 39.3015 95.5277C39.1401 95.2751 39.2331 94.9404 39.4655 94.7782C39.7176 94.6167 40.0529 94.6902 40.2145 94.9421C40.3011 95.0772 40.3886 95.2111 40.4773 95.3434C40.8983 95.971 41.3565 96.5842 41.8388 97.166C42.0302 97.3966 41.9982 97.7382 41.768 97.9296C41.7533 97.9413 41.7384 97.9526 41.7233 97.9627ZM38.6868 93.2221C38.6655 93.2364 38.6428 93.2497 38.6192 93.261C38.3491 93.3905 38.0251 93.2769 37.8954 93.007C37.4791 92.1411 37.1129 91.2416 36.8073 90.334C36.7115 90.0501 36.8658 89.7426 37.148 89.6471C37.432 89.5515 37.7391 89.7039 37.8349 89.9877C38.1266 90.8537 38.476 91.7115 38.8728 92.5375C38.991 92.7835 38.9071 93.0743 38.6868 93.2221ZM36.8906 87.8866C36.8335 87.9249 36.7681 87.9528 36.6966 87.9677C36.4032 88.0274 36.117 87.8374 36.0574 87.544C35.8667 86.6039 35.7324 85.6414 35.6594 84.6837C35.6364 84.3847 35.8594 84.1249 36.1589 84.1019C36.4572 84.079 36.7178 84.3027 36.7407 84.601C36.8105 85.5144 36.9381 86.4318 37.1203 87.3284C37.1651 87.5501 37.0676 87.7678 36.8906 87.8866ZM36.4611 82.2726C36.3678 82.3351 36.2546 82.3691 36.134 82.3638C35.8349 82.3496 35.6036 82.0955 35.6178 81.7964C35.6633 80.8363 35.7689 79.871 35.9317 78.9265C35.9828 78.6315 36.2638 78.434 36.5582 78.4847C36.8533 78.5353 37.0512 78.8157 37.0005 79.1112C36.8451 80.0112 36.7444 80.9324 36.7011 81.8477C36.6926 82.0261 36.5989 82.1801 36.4611 82.2726ZM37.4157 76.7241C37.2855 76.8114 37.1185 76.8418 36.9566 76.793C36.6701 76.7066 36.508 76.404 36.5942 76.1173C36.8718 75.1984 37.2085 74.2879 37.5953 73.4113C37.7159 73.1366 38.0362 73.0129 38.3102 73.1339C38.5843 73.2548 38.7085 73.575 38.5876 73.8487C38.2185 74.6854 37.8972 75.5538 37.6327 76.4306C37.5949 76.5555 37.5162 76.6567 37.4157 76.7241ZM39.6878 71.5761C39.5192 71.6892 39.2933 71.7023 39.1072 71.5913C38.8503 71.4378 38.7667 71.105 38.92 70.8479C39.4125 70.0241 39.9611 69.2231 40.5506 68.4681C40.7362 68.232 41.0758 68.1904 41.3118 68.3745C41.5478 68.5586 41.5897 68.8996 41.4055 69.1353C40.8433 69.8555 40.3205 70.6187 39.851 71.4041C39.8086 71.4753 39.7522 71.5329 39.6878 71.5761ZM43.1486 67.1411C42.9376 67.2827 42.6492 67.26 42.4632 67.0736C42.2518 66.8615 42.2523 66.5182 42.4642 66.3066C43.1415 65.631 43.8701 64.9893 44.6299 64.3986C44.87 64.2185 45.2076 64.2579 45.391 64.4944C45.5748 64.7308 45.5319 65.0714 45.2957 65.2553C44.5705 65.8182 43.8756 66.4304 43.2299 67.0745C43.2045 67.0998 43.1772 67.1219 43.1486 67.1411ZM50.1014 62.3945C50.0754 62.4119 50.0473 62.4275 50.0175 62.4406C49.2941 62.7594 48.5755 63.1234 47.8815 63.5227C47.776 63.5826 47.6732 63.6426 47.5714 63.7039C47.3141 63.8573 46.9814 63.7738 46.8277 63.5167C46.6733 63.2594 46.7543 62.9182 47.0145 62.773C47.1234 62.7082 47.2325 62.644 47.343 62.5813C48.0682 62.1643 48.8216 61.7827 49.5802 61.4485C49.8543 61.3278 50.1741 61.4519 50.2949 61.726C50.4026 61.97 50.3158 62.2507 50.1014 62.3945Z" fill="#8A939A"/>
</g>
<g opacity="0.3">
<path d="M72.3216 102.153C72.0758 102.318 71.7421 102.255 71.5733 102.01C71.4034 101.764 71.4652 101.426 71.7118 101.256C72.4539 100.744 73.1711 100.183 73.8433 99.5874C74.0679 99.3922 74.4102 99.4093 74.6089 99.6337C74.8075 99.8581 74.7864 100.201 74.5626 100.399C73.8572 101.023 73.1056 101.612 72.3277 102.149C72.3258 102.15 72.3236 102.152 72.3216 102.153ZM69.9477 103.588C69.9313 103.599 69.9147 103.609 69.897 103.618C69.0616 104.057 68.1908 104.45 67.3091 104.786C67.0291 104.892 66.7161 104.752 66.6097 104.472C66.5027 104.192 66.6453 103.879 66.9231 103.772C67.7645 103.452 68.5953 103.077 69.3927 102.658C69.6576 102.519 69.9855 102.621 70.1247 102.886C70.255 103.134 70.1746 103.436 69.9477 103.588ZM76.465 98.4811C76.2653 98.6151 75.9932 98.6038 75.8043 98.4372C75.5801 98.2394 75.5585 97.8968 75.7566 97.6722C76.353 96.9954 76.9134 96.2771 77.4219 95.5363C77.5929 95.2897 77.929 95.2268 78.1759 95.3965C78.4226 95.5657 78.4854 95.9036 78.316 96.1505C77.7829 96.927 77.1953 97.6801 76.5698 98.3891C76.538 98.4252 76.5028 98.4557 76.465 98.4811ZM64.7694 105.555C64.7182 105.59 64.6602 105.616 64.5968 105.632C63.6796 105.857 62.7391 106.028 61.8019 106.14C61.5045 106.176 61.2347 105.963 61.1991 105.666C61.1641 105.369 61.3763 105.099 61.6733 105.063C62.567 104.957 63.4634 104.793 64.338 104.579C64.6287 104.507 64.9226 104.685 64.9939 104.976C65.0497 105.203 64.9532 105.432 64.7694 105.555ZM79.5975 93.9169C79.4381 94.0238 79.2266 94.0427 79.0448 93.9479C78.7788 93.8094 78.6758 93.4819 78.814 93.2165C79.2297 92.4186 79.6008 91.5869 79.9168 90.7438C80.0219 90.4629 80.3347 90.3213 80.6151 90.4266C80.8954 90.5318 81.0376 90.8444 80.9324 91.1248C80.6006 92.0085 80.2118 92.8807 79.7762 93.7175C79.7326 93.8008 79.6703 93.8681 79.5975 93.9169ZM81.5439 88.7343C81.4218 88.8161 81.2674 88.8483 81.1137 88.8111C80.8227 88.7404 80.6439 88.4472 80.7146 88.1562C80.9274 87.2796 81.089 86.3826 81.1947 85.4904C81.23 85.1927 81.5 84.9803 81.7969 85.0157C82.0943 85.0508 82.3066 85.3203 82.2714 85.6174C82.1606 86.5531 81.9915 87.4934 81.7686 88.4119C81.7352 88.5491 81.6524 88.6614 81.5439 88.7343ZM82.1926 83.2341C82.1068 83.2917 82.004 83.3256 81.8928 83.3256C81.5933 83.3269 81.3496 83.0849 81.3485 82.7853C81.3459 81.8836 81.2874 80.9741 81.1748 80.0824C81.1378 79.7859 81.348 79.5142 81.645 79.477C81.9422 79.4396 82.2133 79.6498 82.2509 79.9472C82.3685 80.8821 82.4301 81.836 82.4334 82.7819C82.4339 82.9703 82.3381 83.1365 82.1926 83.2341Z" fill="#8A939A"/>
<path d="M59.2445 106.21C59.1576 106.268 59.0531 106.302 58.9406 106.302C58.4765 106.3 58.0105 106.284 57.5551 106.255C57.2564 106.236 57.0291 105.979 57.048 105.68C57.0676 105.382 57.3246 105.155 57.6234 105.173C58.0577 105.2 58.5024 105.215 58.9452 105.217C59.2447 105.218 59.4865 105.462 59.4851 105.762C59.4841 105.948 59.389 106.113 59.2445 106.21Z" fill="#8A939A"/>
</g>
<path d="M55.7176 100.14C55.8296 100.174 55.951 100.134 56.0198 100.039L57.9819 97.334C59.539 97.4361 61.1237 97.2906 62.6758 96.878L65.1219 99.1515C65.2076 99.2312 65.3346 99.2477 65.438 99.1927L68.9747 97.3068C69.0781 97.2516 69.1351 97.137 69.1167 97.0213L68.5919 93.7234C69.7992 92.6644 70.8031 91.4297 71.586 90.0797L74.9254 89.9577C75.0424 89.9534 75.1439 89.8753 75.178 89.7632L76.3453 85.9288C76.3794 85.8166 76.3387 85.6953 76.2439 85.6266L73.539 83.6645C73.6411 82.1073 73.4956 80.5226 73.083 78.9706L75.3565 76.5245C75.4363 76.4387 75.4528 76.3118 75.3977 76.2084L73.5117 72.6716C73.4566 72.5682 73.342 72.5112 73.2264 72.5297L69.9284 73.0545C68.8695 71.8471 67.6347 70.8432 66.2848 70.0604L66.1627 66.7209C66.1584 66.6039 66.0804 66.5025 65.9684 66.4683L62.1339 65.301C62.0219 65.2668 61.9005 65.3076 61.8317 65.4024L59.8696 68.1074C58.3124 68.0052 56.7277 68.1508 55.1757 68.5634L52.7295 66.2898C52.6438 66.2101 52.5169 66.1935 52.4135 66.2486L48.8766 68.1346C48.7732 68.1896 48.7163 68.3043 48.7347 68.42L49.2596 71.7179C48.0521 72.7768 47.0483 74.0116 46.2653 75.3615L42.926 75.4836C42.8089 75.4879 42.7074 75.566 42.6734 75.678L41.506 79.5124C41.472 79.6245 41.5126 79.7459 41.6075 79.8147L44.3123 81.7768C44.2102 83.334 44.3558 84.9186 44.7683 86.4707L42.4948 88.9168C42.4151 89.0025 42.3985 89.1295 42.4537 89.2329L44.3396 92.7696C44.3948 92.873 44.5093 92.93 44.625 92.9116L47.9229 92.3868C48.9819 93.5941 50.2166 94.598 51.5665 95.3809L51.6886 98.7203C51.6928 98.8373 51.7709 98.9388 51.883 98.9729L55.7176 100.14Z" fill="#3A3F4D"/>
<path d="M61.2034 86.1314C60.477 86.6186 59.6171 86.8595 58.7276 86.8166C57.6335 86.7637 56.6253 86.2879 55.889 85.4766C54.3691 83.8029 54.4944 81.2043 56.1684 79.6836C57.8477 78.1644 60.4421 78.2891 61.9621 79.9633C62.6987 80.7744 63.0751 81.8238 63.0221 82.9177C62.9694 84.0121 62.4937 85.0204 61.6821 85.7567C61.5305 85.8942 61.3703 86.0194 61.2034 86.1314ZM57.2463 80.2135C57.1252 80.2947 57.0087 80.3857 56.8974 80.4865C55.666 81.605 55.5739 83.5164 56.6921 84.7481C57.2336 85.3444 57.9753 85.6949 58.7799 85.7335C59.5851 85.7723 60.3563 85.4948 60.9536 84.9538C61.5501 84.4121 61.9003 83.6704 61.9392 82.8658C61.978 82.0606 61.701 81.2888 61.1592 80.692C60.142 79.5717 58.4676 79.3942 57.2463 80.2135Z" fill="black"/>
<path d="M64.64 91.1188C64.355 91.3099 64.0581 91.488 63.7493 91.6531C63.1358 91.9804 62.4885 92.2457 61.8234 92.4419C61.7935 92.4505 61.7635 92.4591 61.7336 92.4677C61.5019 92.5338 61.2625 92.4388 61.1348 92.249C61.1039 92.2028 61.0796 92.1509 61.0636 92.0947C60.9814 91.8068 61.1494 91.5079 61.4365 91.425C62.0592 91.2478 62.6654 91.0024 63.2386 90.6964L63.2389 90.6963C63.2704 90.6796 63.3018 90.6623 63.3328 90.6453C64.6829 89.9087 65.7983 88.8635 66.6105 87.6045C67.0514 86.9211 67.4028 86.1741 67.6529 85.3783C67.655 85.3719 67.657 85.3654 67.659 85.3589C67.665 85.3388 67.6714 85.3193 67.6772 85.2995C68.3872 82.9666 68.1466 80.4967 66.9992 78.345C66.8509 78.0664 66.6895 77.7978 66.5161 77.5393C65.349 75.7999 63.6333 74.5253 61.6022 73.9067C59.2692 73.1967 56.7997 73.4378 54.6482 74.5851C52.4983 75.7326 50.9203 77.6492 50.2097 79.9819C49.4997 82.3147 49.7403 84.7846 50.8878 86.9363C51.0336 87.2102 51.1931 87.4756 51.3648 87.7315C52.1095 88.8413 53.0883 89.7755 54.2348 90.4639C54.3054 90.5065 54.363 90.5622 54.4058 90.6266C54.5191 90.7955 54.5323 91.0218 54.4205 91.2078C54.2656 91.4641 53.9335 91.5479 53.6762 91.3933C52.3934 90.6229 51.2978 89.5776 50.4648 88.3365C50.2725 88.0498 50.0941 87.7531 49.9308 87.4469C48.647 85.0391 48.3777 82.2761 49.1724 79.6658C49.9671 77.0561 51.7281 74.9108 54.1376 73.6282C56.545 72.3443 59.3079 72.0748 61.9181 72.8698C64.1903 73.5613 66.1097 74.9873 67.4154 76.9334C67.6091 77.2223 67.7899 77.5232 67.956 77.8345C70.4412 82.4954 68.9357 88.2374 64.64 91.1188Z" fill="black"/>
<path d="M56.9118 145L39.2365 195.435L20 227.5L86 264L97.1929 242.335L109.853 217.365L137.408 200.241L154 153.922L56.9118 145Z" fill="#3B404E"/>
<path d="M100.805 230.726L106.786 214.567L136.386 195.871H111.412L101.687 212.143L79.6992 230.726H100.805Z" fill="#3B404E"/>
<path d="M174.975 94.0589L116.062 128.072L106.43 111.387L165.342 77.3741C169.95 74.7142 175.841 76.2928 178.501 80.9001C181.161 85.5074 179.582 91.3985 174.975 94.0589Z" fill="#3B404E"/>
<path d="M178.501 80.9023C178.357 80.6534 178.202 80.4148 178.04 80.1836C178.6 83.9773 176.851 87.9007 173.328 89.9351L114.415 123.948L106.981 111.071L106.43 111.39L116.062 128.074L174.975 94.0606C179.582 91.4007 181.161 85.5096 178.501 80.9023Z" fill="#3B404E"/>
<path d="M135.733 195.883H81.9084C74.4074 195.883 68.3262 189.802 68.3262 182.301V44.0705C68.3262 36.5695 74.4069 30.4883 81.9084 30.4883H135.733C143.234 30.4883 149.315 36.569 149.315 44.0705V182.301C149.315 189.802 143.235 195.883 135.733 195.883Z" fill="#343740"/>
<path d="M149.37 42.8945H68.2715V176.347H149.37V42.8945Z" fill="#4F5566"/>
<path d="M126.464 37.9638H91.1772C90.5131 37.9638 89.9746 37.4253 89.9746 36.7612C89.9746 36.0971 90.5131 35.5586 91.1772 35.5586H126.464C127.128 35.5586 127.666 36.0971 127.666 36.7612C127.666 37.4253 127.128 37.9638 126.464 37.9638Z" fill="#282B34"/>
<path d="M136.139 187.201C136.139 187.473 135.916 187.697 135.643 187.697H132.008C131.735 187.697 131.512 187.474 131.512 187.201V183.566C131.512 183.293 131.735 183.07 132.008 183.07H135.643C135.915 183.07 136.139 183.293 136.139 183.566V187.201Z" stroke="#8A939A" stroke-width="0.9519" stroke-miterlimit="10"/>
<path d="M85.7267 187.499C85.7267 187.771 85.5366 187.877 85.3048 187.734L81.9262 185.651C81.6939 185.508 81.6939 185.274 81.9262 185.131L85.3048 183.048C85.5371 182.905 85.7267 183.011 85.7267 183.284V187.499Z" stroke="#8A939A" stroke-width="0.9519" stroke-miterlimit="10"/>
<path d="M111.411 185.383C111.411 186.661 110.376 187.697 109.098 187.697C107.821 187.697 106.785 186.661 106.785 185.383C106.785 184.106 107.821 183.07 109.098 183.07C110.376 183.07 111.411 184.106 111.411 185.383Z" stroke="#8A939A" stroke-width="0.9519" stroke-miterlimit="10"/>
<path d="M102.316 152.795L69.1921 136.34C63.966 133.743 57.6463 135.004 53.815 139.405L46.8635 147.394C43.0828 151.738 41 157.304 41 163.063V204.732L57.352 181.991L60.7614 171.329L63.1999 173.451L71.5426 163.864L91.6013 173.823C97.3601 176.683 104.469 174.584 107.486 168.906C110.615 163.015 108.251 155.742 102.316 152.795Z" fill="#3B404E"/>
<path d="M96.805 164.39L84.3483 157.974L87.2777 152.286L101.901 159.818C102.873 160.319 103.255 161.513 102.755 162.486C101.638 164.654 98.9737 165.507 96.805 164.39Z" fill="#5A6072"/>
<path d="M165.693 125.891L154.221 132.515C148.722 135.689 141.691 133.805 138.517 128.307C135.342 122.809 137.226 115.778 142.724 112.603L154.197 105.98C159.695 102.805 166.726 104.689 169.901 110.187C173.075 115.686 171.192 122.716 165.693 125.891Z" fill="#3B404E"/>
<path d="M151.305 129.267C147.608 131.439 142.85 130.202 140.678 126.505C138.506 122.808 139.743 118.05 143.44 115.878C147.138 113.706 155.003 127.095 151.305 129.267Z" fill="#5A6072"/>
<path d="M169.903 110.174C169.549 109.561 169.144 108.995 168.701 108.473C170.534 113.602 168.506 119.465 163.621 122.285L152.148 128.908C147.264 131.729 141.172 130.554 137.646 126.402C137.877 127.046 138.165 127.679 138.519 128.293C141.693 133.792 148.725 135.676 154.223 132.501L165.695 125.878C171.194 122.703 173.078 115.673 169.903 110.174Z" fill="#3B404E"/>
<path d="M144.454 136.592L154.958 130.528C160.456 127.353 167.253 128.832 170.14 133.832C173.026 138.831 170.908 145.457 165.41 148.632L154.906 154.696C149.408 157.87 142.611 156.391 139.724 151.392C136.838 146.392 138.956 139.766 144.454 136.592Z" fill="#3B404E"/>
<path d="M152.271 151.49C148.573 153.662 143.923 152.609 141.884 149.137C139.845 145.666 141.188 141.091 144.886 138.919C148.583 136.747 155.968 149.318 152.271 151.49Z" fill="#5A6072"/>
<path d="M170.141 133.83C169.914 133.436 169.654 133.072 169.381 132.723C170.736 137.348 168.512 142.677 163.755 145.423L153.252 151.487C148.187 154.412 142.027 153.378 138.83 149.29C139.042 150.011 139.336 150.716 139.726 151.39C142.612 156.389 149.409 157.868 154.908 154.694L165.412 148.629C170.91 145.455 173.027 138.829 170.141 133.83Z" fill="#3B404E"/>
<path d="M146.199 156.672L153.431 152.497C157.216 150.312 162.03 151.563 164.182 155.291C166.335 159.019 165.011 163.813 161.225 165.998L153.994 170.173C150.209 172.359 145.395 171.108 143.243 167.38C141.091 163.652 142.414 158.858 146.199 156.672Z" fill="#3B404E"/>
<path d="M153.045 168.253C150.123 169.969 146.447 169.137 144.835 166.393C143.223 163.649 144.285 160.032 147.208 158.316C150.13 156.599 155.967 166.536 153.045 168.253Z" fill="#5A6072"/>
<path d="M164.182 155.295C163.862 154.74 163.477 154.247 163.05 153.805C164.741 157.432 163.368 161.839 159.784 163.908L152.553 168.083C149.331 169.943 145.371 169.307 142.934 166.78C143.028 166.984 143.128 167.186 143.242 167.385C145.395 171.113 150.209 172.363 153.994 170.178L161.225 166.003C165.011 163.818 166.335 159.024 164.182 155.295Z" fill="#3B404E"/>
<path d="M154 43.1733C154 43.1733 154.778 53.7085 161.728 53.9013C168.678 54.0941 175.733 52.3517 178 55C178 55 173.022 35.0982 155.18 39.687L154 43.1733Z" fill="url(#paint0_linear_6403_3437)"/>
<path d="M139.848 44.0898C139.848 44.0898 138.098 51.0325 139.667 52.7332C141.16 54.351 155.067 59.2907 156.421 59.7688C156.482 59.7903 156.545 59.7551 156.569 59.6889C156.767 59.141 156.72 58.522 156.441 58.02C155.096 55.5952 151.023 48.3937 149.168 46.6583C146.927 44.5626 139.848 44.0898 139.848 44.0898Z" fill="url(#paint1_linear_6403_3437)"/>
<path opacity="0.68" d="M151.758 57.0932C151.723 57.1144 151.681 57.1201 151.64 57.1047C151.564 57.076 143.989 54.2233 140.771 52.8529C140.198 52.6091 139.807 52.0097 139.775 51.3264C139.713 50.0094 139.699 48.0324 139.983 46.0921C139.996 46.0018 140.072 45.9403 140.153 45.9554C140.234 45.9703 140.289 46.0557 140.276 46.146C139.981 48.1578 140.021 50.2442 140.071 51.3087C140.097 51.8612 140.413 52.3458 140.877 52.5429C144.089 53.911 151.659 56.7619 151.735 56.7904C151.812 56.8194 151.854 56.9134 151.828 57.0005C151.815 57.0417 151.79 57.0739 151.758 57.0932Z" fill="#8A939A"/>
<path d="M145.457 28.5488C145.457 28.5488 148.507 22.1943 150.692 22.1914C152.769 22.1887 165.838 29.4511 167.108 30.1599C167.166 30.1917 167.189 30.2664 167.165 30.3326C166.968 30.8805 166.55 31.2891 166.038 31.4336C163.565 32.1313 156.166 34.1438 153.754 33.9492C150.842 33.714 145.457 28.5488 145.457 28.5488Z" fill="url(#paint2_linear_6403_3437)"/>
<path opacity="0.68" d="M162.021 28.6618C161.98 28.6864 161.931 28.6898 161.886 28.6662C161.813 28.6274 154.6 24.7915 151.44 23.2771C150.985 23.0583 150.456 23.1607 150.095 23.538C149.398 24.2647 148.074 25.7343 147.037 27.4106C146.992 27.4869 146.899 27.5045 146.831 27.4526C146.764 27.4006 146.747 27.2973 146.794 27.222C147.846 25.52 149.187 24.0313 149.893 23.2952C150.341 22.8291 150.994 22.7022 151.557 22.972C154.722 24.489 161.941 28.328 162.013 28.3664C162.087 28.4057 162.119 28.5046 162.083 28.5872C162.069 28.6203 162.047 28.6457 162.021 28.6618Z" fill="#8A939A"/>
<path d="M119.811 34.9264C122.208 37.1843 125.148 39.3244 128.704 40.9461C139.742 45.981 148.634 47.5445 151.173 47.9134C151.632 47.9802 152.083 47.7552 152.356 47.3361C154.504 44.0339 155.856 40.367 156.416 36.3377C156.521 35.5798 156.234 34.8188 155.68 34.3663C153.279 32.403 146.078 26.8965 135.49 22.1474C131.953 20.5609 128.536 19.813 125.429 19.5664C121.684 25.0053 120.371 31.3083 119.811 34.9264Z" fill="#686E81"/>
<path d="M125.428 19.5653C118.564 19.0207 113.218 20.9249 111.459 21.6561C111.115 21.799 110.956 22.2395 111.114 22.6097C111.923 24.4974 114.572 29.993 119.81 34.9254C120.37 31.3073 121.683 25.0042 125.428 19.5653Z" fill="url(#paint3_linear_6403_3437)"/>
<path d="M133.612 25.0066C136.475 26.3015 137.789 30.1392 136.547 33.5784C135.306 37.0175 131.979 38.7559 129.116 37.4609C126.253 36.1661 124.939 32.3284 126.181 28.8892C127.422 25.4501 130.749 23.7119 133.612 25.0066Z" fill="url(#paint4_linear_6403_3437)"/>
<path d="M133.074 26.0329C135.355 27.0646 136.402 30.1226 135.412 32.8629C134.423 35.6032 131.772 36.9883 129.491 35.9565C127.21 34.9248 126.163 31.8668 127.152 29.1265C128.141 26.3862 130.793 25.0012 133.074 26.0329Z" fill="#1F2025"/>
<path d="M129.261 34.1221C129.21 34.1532 129.145 34.149 129.096 34.1054C127.867 32.99 127.44 31.0153 128.058 29.3037C128.214 28.8721 128.427 28.4754 128.691 28.1253C128.744 28.0554 128.837 28.0463 128.9 28.1055C128.963 28.1644 128.97 28.2691 128.918 28.339C128.674 28.6627 128.477 29.0288 128.333 29.4282C127.763 31.0059 128.154 32.8234 129.283 33.8477C129.347 33.9056 129.356 34.0098 129.305 34.0808C129.292 34.0984 129.277 34.112 129.261 34.1221Z" fill="#8A939A"/>
<path d="M143.267 31.83C145.159 32.6854 146.027 35.2208 145.207 37.4928C144.386 39.7648 142.188 40.9132 140.297 40.0577C138.406 39.2023 137.538 36.667 138.358 34.3949C139.178 32.1229 141.376 30.9746 143.267 31.83Z" fill="url(#paint5_linear_6403_3437)"/>
<path d="M142.91 32.5107C144.417 33.1923 145.109 35.2125 144.455 37.0229C143.802 38.8333 142.05 39.7482 140.543 39.0666C139.037 38.3851 138.345 36.3649 138.998 34.5545C139.652 32.7441 141.403 31.8292 142.91 32.5107Z" fill="#1F2025"/>
<path d="M140.416 37.9029C140.365 37.9342 140.3 37.9298 140.251 37.8862C139.422 37.1341 139.134 35.803 139.55 34.6492C139.655 34.3586 139.799 34.0918 139.977 33.8557C140.029 33.7858 140.123 33.7769 140.186 33.8361C140.248 33.895 140.256 33.9997 140.203 34.0697C140.045 34.2788 139.918 34.5158 139.825 34.7737C139.457 35.7931 139.709 36.9673 140.438 37.6286C140.502 37.6863 140.511 37.7907 140.46 37.8616C140.447 37.8791 140.432 37.8928 140.416 37.9029Z" fill="#8A939A"/>
<path d="M108.857 114.694C124.19 114.694 136.62 102.264 136.62 86.931C136.62 71.5979 124.19 59.168 108.857 59.168C93.5237 59.168 81.0938 71.5979 81.0938 86.931C81.0938 102.264 93.5237 114.694 108.857 114.694Z" fill="#31374A"/>
<path d="M108.856 113.092C123.301 113.092 135.012 101.382 135.012 86.9365C135.012 72.4913 123.301 60.7812 108.856 60.7812C94.4113 60.7812 82.7012 72.4913 82.7012 86.9365C82.7012 101.382 94.4113 113.092 108.856 113.092Z" fill="url(#paint6_linear_6403_3437)"/>
<path opacity="0.5" d="M110.708 85.6567L132.852 85.0538C131.488 71.8655 123.338 63.6236 110.484 62.3008L110.708 85.6567Z" fill="#3A3F4D"/>
<path d="M106.576 109.505C105.134 109.381 103.692 109.109 102.267 108.684C90.6884 105.227 84.2144 92.7893 87.9673 81.0514C89.8227 75.2487 93.8356 70.5742 99.243 67.8926C99.904 67.5647 100.704 67.8381 101.03 68.5029C101.356 69.1673 101.085 69.972 100.425 70.3006C95.6836 72.6606 92.1672 76.7655 90.5423 81.8563C87.2569 92.1499 92.9258 103.063 103.078 106.111C110.443 108.323 118.372 105.849 123.307 99.8537C123.772 99.289 124.59 99.2077 125.134 99.6719C125.678 100.136 125.742 100.969 125.279 101.534C120.623 107.2 113.62 110.112 106.576 109.505Z" fill="#3A3F4D"/>
<path d="M96.6486 75.372L99.1141 69.4136L93.1758 66.9336L96.7489 65.4609L102.659 67.9418L100.207 73.8843L96.6486 75.372Z" fill="#3A3F4D"/>
<path d="M110.099 86.6287C110.099 87.5138 109.415 88.2458 108.57 88.2637C107.724 88.2816 107.037 87.577 107.037 86.69C107.037 85.8029 107.724 85.0709 108.57 85.055C109.415 85.039 110.099 85.7436 110.099 86.6287Z" fill="#8A939A"/>
<path d="M108.547 75.047C108.218 75.0521 107.973 75.2262 107.973 75.7354L107.951 85.8132C107.951 86.3224 108.218 86.7273 108.547 86.7176C108.876 86.7078 109.143 86.2878 109.143 85.7792L109.122 75.7189C109.122 75.2103 108.876 75.0418 108.547 75.047Z" fill="#8A939A"/>
<path d="M108.486 86.8774C108.309 86.6711 108.007 86.6596 107.81 86.8519L96.6683 97.9478C96.4674 98.1438 96.4505 98.4704 96.6306 98.677C96.8106 98.8836 97.1192 98.892 97.3199 98.6959L108.449 87.5989C108.646 87.4067 108.662 87.0837 108.486 86.8774Z" fill="#8A939A"/>
<defs>
<linearGradient id="paint0_linear_6403_3437" x1="154.155" y1="39.8811" x2="157.064" y2="53.8489" gradientUnits="userSpaceOnUse">
<stop stop-color="#3A3F4D"/>
<stop offset="0.3575" stop-color="#4F525B"/>
<stop offset="1" stop-color="#3A3F4D"/>
</linearGradient>
<linearGradient id="paint1_linear_6403_3437" x1="139.128" y1="44.9537" x2="142.806" y2="58.221" gradientUnits="userSpaceOnUse">
<stop stop-color="#3A3F4D"/>
<stop offset="0.3575" stop-color="#4F525B"/>
<stop offset="1" stop-color="#3A3F4D"/>
</linearGradient>
<linearGradient id="paint2_linear_6403_3437" x1="145.597" y1="22.8397" x2="147.362" y2="33.2624" gradientUnits="userSpaceOnUse">
<stop stop-color="#3A3F4D"/>
<stop offset="0.3575" stop-color="#4F525B"/>
<stop offset="1" stop-color="#3A3F4D"/>
</linearGradient>
<linearGradient id="paint3_linear_6403_3437" x1="111.145" y1="20.32" x2="115.395" y2="32.9711" gradientUnits="userSpaceOnUse">
<stop stop-color="#3A3F4D"/>
<stop offset="0.3575" stop-color="#4F525B"/>
<stop offset="1" stop-color="#3A3F4D"/>
</linearGradient>
<linearGradient id="paint4_linear_6403_3437" x1="125.786" y1="25.3112" x2="129.715" y2="35.9903" gradientUnits="userSpaceOnUse">
<stop stop-color="#3A3F4D"/>
<stop offset="0.3575" stop-color="#4F525B"/>
<stop offset="1" stop-color="#3A3F4D"/>
</linearGradient>
<linearGradient id="paint5_linear_6403_3437" x1="138.097" y1="32.0312" x2="140.693" y2="39.0861" gradientUnits="userSpaceOnUse">
<stop stop-color="#3A3F4D"/>
<stop offset="0.3575" stop-color="#4F525B"/>
<stop offset="1" stop-color="#3A3F4D"/>
</linearGradient>
<linearGradient id="paint6_linear_6403_3437" x1="83.0387" y1="63.6621" x2="96.6004" y2="107.072" gradientUnits="userSpaceOnUse">
<stop stop-color="#3A3F4D"/>
<stop offset="0.3575" stop-color="#6C7386"/>
<stop offset="1" stop-color="#494B51"/>
</linearGradient>
</defs>
</svg>
