<svg width="221" height="264" viewBox="0 0 221 264" fill="none" xmlns="http://www.w3.org/2000/svg">
<path d="M217.324 120.58C210.363 153.541 192.813 183.321 173.572 203.146C153.975 223.141 132.688 233.181 110.017 230.602C87.3465 228.022 66.0589 214.041 46.4621 195.199C27.2215 176.186 9.67174 152.313 2.71084 126.01C-4.25006 99.7075 2.22124 75.2262 21.8181 55.2307C41.0581 35.4057 73.4242 20.0671 110.017 15.988C146.61 11.9089 178.976 20.5919 198.216 39.6047C217.813 58.4466 224.285 87.619 217.324 120.58Z" fill="url(#paint0_radial_611_1297)" fill-opacity="0.5"/>
<g opacity="0.3">
<path d="M75.0827 58.3655C75.1894 58.7398 74.9982 59.142 74.6291 59.2902C73.8221 59.6146 72.9888 59.9087 72.1528 60.1645C71.746 60.2888 71.3155 60.0601 71.1911 59.6534C71.1897 59.6485 71.1883 59.6437 71.187 59.6389C71.0723 59.2366 71.3004 58.8146 71.7023 58.6917C72.4966 58.4488 73.2881 58.1694 74.0547 57.8614C74.4493 57.7027 74.8979 57.894 75.0564 58.2887C75.0668 58.3141 75.0753 58.3397 75.0827 58.3655ZM68.6179 60.1572C68.6262 60.1861 68.6328 60.216 68.6378 60.2465C68.7055 60.6663 68.4201 61.0617 68.0003 61.1295C67.1379 61.2685 66.261 61.3722 65.3942 61.4373C64.97 61.4692 64.6018 61.1527 64.5683 60.7272C64.5365 60.303 64.8547 59.9335 65.2784 59.9016C66.1025 59.8396 66.9354 59.7411 67.7551 59.6088C68.1444 59.546 68.5124 59.7871 68.6179 60.1572ZM61.9195 60.4808C61.943 60.5632 61.953 60.6511 61.9472 60.7415C61.9196 61.1659 61.5535 61.4878 61.1291 61.4604C60.2592 61.4044 59.3808 61.3097 58.5185 61.179C58.098 61.115 57.8093 60.7223 57.8725 60.3022C57.9363 59.8818 58.3289 59.5926 58.7493 59.6563C59.5682 59.7805 60.4021 59.8704 61.2283 59.9236C61.5621 59.9451 61.8327 60.1765 61.9195 60.4808ZM55.3155 59.2982C55.3543 59.4344 55.3559 59.583 55.3125 59.7288C55.1909 60.1363 54.7619 60.368 54.3544 60.2465C53.5185 59.9969 52.6834 59.7083 51.8722 59.3886C51.4771 59.2325 51.2827 58.7855 51.4382 58.3898C51.5941 57.9942 52.0414 57.7999 52.4371 57.9558C53.2074 58.2595 54.0006 58.5338 54.795 58.7706C55.0566 58.8489 55.2457 59.0536 55.3155 59.2982ZM49.1411 56.6727C49.1956 56.8637 49.1765 57.0756 49.0712 57.2622C48.8622 57.6327 48.3924 57.7635 48.0222 57.5544C47.2644 57.1268 46.5141 56.6606 45.7927 56.1688C45.4411 55.9295 45.3501 55.4505 45.5899 55.0988C45.8294 54.7475 46.3084 54.6568 46.66 54.8962C47.3457 55.3638 48.0588 55.8068 48.7789 56.2133C48.9627 56.3169 49.0875 56.4846 49.1411 56.6727ZM43.7017 52.747C43.7722 52.9945 43.7173 53.2716 43.5317 53.4762C43.2459 53.7912 42.7591 53.8149 42.444 53.5293C41.7985 52.9437 41.1698 52.323 40.5762 51.6845C40.2865 51.3729 40.3043 50.8858 40.6159 50.5961C40.9271 50.3066 41.4145 50.3244 41.7041 50.6357C42.2683 51.2424 42.8653 51.8321 43.4787 52.3885C43.5892 52.4886 43.6636 52.6135 43.7017 52.747ZM34.2016 26.1142C34.2308 26.2167 34.2391 26.3267 34.2223 26.439C34.0997 27.2572 34.0111 28.0918 33.9593 28.9194C33.9327 29.3438 33.5671 29.6664 33.1429 29.6397C32.7184 29.6132 32.3958 29.2476 32.4224 28.8231C32.477 27.9514 32.5701 27.0724 32.6992 26.2108C32.7622 25.7901 33.1544 25.5004 33.5749 25.5634C33.8832 25.6096 34.1214 25.8327 34.2016 26.1142ZM39.2704 47.7167C39.358 48.0238 39.2472 48.3659 38.9707 48.559C38.622 48.8026 38.1419 48.7175 37.8984 48.3689C37.3991 47.6544 36.9249 46.9094 36.4889 46.1547C36.2779 45.7856 36.4019 45.3154 36.7703 45.1027C37.1385 44.8899 37.6095 45.016 37.8224 45.3843C38.2364 46.1011 38.6867 46.8085 39.1608 47.487C39.211 47.5591 39.2476 47.6367 39.2704 47.7167ZM33.9618 32.8179C33.9757 32.8667 33.9852 32.9177 33.9893 32.9704C34.0529 33.7958 34.1533 34.6293 34.2869 35.4479C34.3554 35.8678 34.0707 36.2636 33.651 36.3321C33.2314 36.4004 32.8336 36.1166 32.767 35.6962C32.6265 34.8349 32.5209 33.9577 32.4537 33.0892C32.421 32.6651 32.7383 32.2947 33.1622 32.2621C33.5333 32.2333 33.8634 32.473 33.9618 32.8179ZM36.0738 41.8227C36.1804 42.1964 35.9899 42.5981 35.6217 42.7469C35.2273 42.9063 34.7786 42.7157 34.6189 42.3215C34.2927 41.5142 33.997 40.6819 33.7403 39.8477C33.7385 39.8426 33.7371 39.8373 33.7356 39.8321C33.621 39.4303 33.8483 39.0089 34.2495 38.8853C34.6561 38.7601 35.087 38.9881 35.212 39.3946C35.4561 40.187 35.7371 40.9774 36.0472 41.7445C36.0573 41.7703 36.0663 41.7965 36.0738 41.8227Z" fill="url(#paint1_linear_611_1297)"/>
<path d="M35.4836 20.8638C35.5252 21.0096 35.5244 21.1692 35.4715 21.3236C35.3427 21.6992 35.22 22.0837 35.1058 22.4666C34.9846 22.8741 34.5557 23.1064 34.1482 22.985C33.7405 22.8639 33.5078 22.435 33.6299 22.0273C33.7497 21.6245 33.8789 21.2202 34.0143 20.8248C34.152 20.4226 34.59 20.2079 34.9921 20.3457C35.2403 20.4305 35.4168 20.6295 35.4836 20.8638Z" fill="url(#paint2_linear_611_1297)"/>
</g>
<g opacity="0.3">
<path d="M51.1584 3.38579C51.2603 3.7432 51.0908 4.13169 50.7433 4.29392C50.3835 4.4617 50.0212 4.63992 49.6667 4.82362C49.2889 5.01919 48.8242 4.8716 48.6287 4.494C48.4324 4.11473 48.5809 3.65157 48.9583 3.456C49.3317 3.26276 49.7133 3.07499 50.092 2.89819C50.4774 2.71842 50.9356 2.88504 51.1155 3.27037C51.1332 3.30822 51.1473 3.34684 51.1584 3.38579Z" fill="url(#paint3_linear_611_1297)"/>
<path d="M92.6952 22.2993C92.7924 22.64 92.8841 22.9838 92.9704 23.3303C93.0731 23.743 92.8219 24.1609 92.4092 24.2636C91.9966 24.3664 91.5767 24.1137 91.4758 23.7026C91.2765 22.9029 91.0454 22.113 90.7854 21.3462C90.6495 20.9429 90.8647 20.5063 91.2674 20.3698C91.6704 20.2331 92.1076 20.4491 92.244 20.8519C92.4049 21.3262 92.5566 21.8132 92.6952 22.2993ZM93.681 27.3331C93.6928 27.3745 93.7014 27.4176 93.7061 27.4619C93.7992 28.316 93.857 29.1836 93.878 30.0404C93.8885 30.4655 93.5523 30.8186 93.1274 30.8291C92.7021 30.8394 92.3478 30.5027 92.3386 30.0781C92.3186 29.2643 92.2635 28.4401 92.1754 27.6285C92.1293 27.2057 92.4348 26.8258 92.8573 26.7797C93.2359 26.7385 93.58 26.979 93.681 27.3331ZM90.6802 17.1135C90.7798 17.4627 90.6205 17.8442 90.284 18.0125C89.9035 18.2028 89.441 18.0486 89.2507 17.6683C88.8869 16.9407 88.4868 16.2189 88.0612 15.5226C87.84 15.1593 87.9539 14.6857 88.3167 14.464C88.6798 14.2422 89.1537 14.3567 89.3755 14.7197C89.8235 15.4529 90.2448 16.2132 90.6281 16.9793C90.65 17.0231 90.6673 17.0681 90.6802 17.1135ZM93.6685 33.9362C93.6954 34.0302 93.7043 34.1309 93.6927 34.2339C93.5959 35.0868 93.4614 35.9459 93.2931 36.7871C93.2096 37.204 92.8041 37.4743 92.3871 37.3909C91.9699 37.3074 91.6994 36.9021 91.7831 36.4848C91.9429 35.6861 92.0707 34.8703 92.1625 34.0603C92.2103 33.6377 92.592 33.334 93.0145 33.382C93.3338 33.4182 93.5855 33.6451 93.6685 33.9362ZM87.0934 11.5763C87.175 11.8627 87.0856 12.1831 86.8404 12.3838C86.5112 12.6531 86.026 12.6046 85.7567 12.2754C85.2419 11.646 84.6927 11.0298 84.1247 10.4438C83.8287 10.1385 83.8361 9.65095 84.1418 9.35485C84.4471 9.05902 84.9344 9.06656 85.2304 9.37194C85.8285 9.98882 86.4066 10.6376 86.9488 11.3003C87.0173 11.3841 87.0654 11.4782 87.0934 11.5763ZM82.3782 6.96007C82.4435 7.18904 82.402 7.44496 82.244 7.64672C81.9817 7.98143 81.4976 8.04018 81.1629 7.77781C80.5209 7.2748 79.8502 6.79287 79.1697 6.34558C78.8139 6.11248 78.7151 5.6352 78.9489 5.27927C79.1825 4.9238 79.6598 4.82508 80.0154 5.05856C80.7316 5.52933 81.4373 6.03633 82.1128 6.56584C82.2458 6.66991 82.3352 6.80913 82.3782 6.96007ZM76.7689 3.48164C76.8185 3.6558 76.8073 3.84788 76.7231 4.02424C76.54 4.40796 76.0803 4.57064 75.6966 4.38745C74.9598 4.03578 74.2004 3.71138 73.439 3.42328C73.0414 3.27285 72.8407 2.82878 72.9914 2.43055C73.1421 2.0329 73.5863 1.83243 73.9842 1.98293C74.7854 2.28618 75.5849 2.62754 76.3601 2.99752C76.5674 3.09663 76.7104 3.27653 76.7689 3.48164ZM70.5349 1.30944C70.5692 1.43008 70.5746 1.56072 70.5447 1.69167C70.4499 2.10622 70.037 2.3653 69.6225 2.27051C68.8271 2.08849 68.0152 1.93857 67.2089 1.8247C66.7879 1.76518 66.4946 1.37514 66.554 0.954735C66.6134 0.533552 67.0031 0.240362 67.4241 0.299876C68.2734 0.419745 69.1285 0.57772 69.9657 0.769225C70.2496 0.834285 70.4603 1.0481 70.5349 1.30944ZM63.9735 0.558569C63.9929 0.626402 64.003 0.698105 64.0028 0.772128C64.0018 1.19731 63.656 1.54124 63.2309 1.54002C62.4171 1.53796 61.5925 1.57052 60.7795 1.63719C60.3556 1.67188 59.984 1.35509 59.9493 0.932617C59.9145 0.508726 60.2301 0.136936 60.654 0.102245C61.5098 0.0321557 62.3779 -0.00221109 63.2347 0.000110182C63.5859 0.0010129 63.8818 0.236879 63.9735 0.558569ZM57.4119 1.26695C57.4162 1.28216 57.4201 1.29764 57.4235 1.31318C57.515 1.72843 57.2525 2.13936 56.8372 2.23073C56.251 2.35988 55.6619 2.50863 55.0856 2.67293C54.8771 2.73238 54.6695 2.79422 54.4634 2.85786C54.0569 2.98327 53.6257 2.75559 53.5004 2.34924C53.3654 1.94031 53.6026 1.51184 54.0088 1.38636C54.2258 1.3193 54.4439 1.2545 54.6633 1.19189C55.2693 1.01908 55.8894 0.862593 56.5059 0.726863C56.9057 0.638719 57.3012 0.878647 57.4119 1.26695Z" fill="url(#paint4_linear_611_1297)"/>
<path d="M92.1958 40.393C92.2378 40.5403 92.2365 40.7012 92.1826 40.8566C92.0456 41.2503 91.8976 41.6486 91.7429 42.0404C91.5867 42.4361 91.1393 42.6301 90.7439 42.4738C90.3484 42.3175 90.154 41.8707 90.3105 41.4749C90.4574 41.1027 90.5978 40.7243 90.728 40.3505C90.8676 39.949 91.3065 39.7366 91.7082 39.8763C91.9544 39.962 92.1294 40.1602 92.1958 40.393Z" fill="url(#paint5_linear_611_1297)"/>
</g>
<path d="M83.3221 41.8407C83.4098 41.7147 83.4081 41.5469 83.3176 41.4228L80.7364 37.8838C81.4924 35.983 81.9507 33.9479 82.0628 31.8458L85.8857 29.7131C86.0198 29.6383 86.0916 29.4867 86.0647 29.3355L85.1406 24.1633C85.1135 24.0121 84.9936 23.8948 84.842 23.871L80.5171 23.1941C79.6839 21.2608 78.5493 19.5104 77.1819 17.989L78.3779 13.7751C78.4198 13.6274 78.3634 13.4694 78.2374 13.3815L73.9267 10.3776C73.8006 10.2898 73.6329 10.2916 73.5089 10.3821L69.9698 12.9633C68.069 12.2073 66.0339 11.749 63.9318 11.6369L61.7991 7.81396C61.7243 7.67991 61.5727 7.60801 61.4216 7.63503L56.2493 8.55915C56.0981 8.58611 55.9808 8.7061 55.957 8.85776L55.2801 13.1826C53.3468 14.0158 51.5964 15.1503 50.075 16.5178L45.861 15.3218C45.7134 15.28 45.5553 15.3363 45.4675 15.4622L42.4637 19.773C42.3758 19.899 42.3776 20.0668 42.4681 20.1909L45.0493 23.7299C44.2933 25.6307 43.835 27.6658 43.7229 29.768L39.8999 31.9006C39.7659 31.9754 39.694 32.127 39.7209 32.2782L40.6451 37.4505C40.6721 37.6016 40.792 37.719 40.9437 37.7427L45.2686 38.4196C46.1017 40.353 47.2363 42.1033 48.6038 43.6248L47.4078 47.8386C47.3659 47.9864 47.4224 48.1445 47.5483 48.2322L51.8591 51.2361C51.985 51.3238 52.1529 51.322 52.2769 51.2316L55.816 48.6505C57.7168 49.4065 59.7519 49.8647 61.854 49.9769L63.9867 53.7998C64.0614 53.9339 64.2131 54.0058 64.3643 53.9787L69.5365 53.0546C69.6876 53.0276 69.805 52.9077 69.8288 52.756L70.5057 48.4312C72.439 47.598 74.1894 46.4634 75.7109 45.096L79.9248 46.2919C80.0725 46.3339 80.2305 46.2775 80.3183 46.1515L83.3221 41.8407Z" fill="url(#paint6_linear_611_1297)"/>
<path d="M67.9736 29.3609C68.6795 31.8367 67.4813 34.529 65.0666 35.6192C62.4121 36.8175 59.2781 35.633 58.0798 32.9789C57.4989 31.6931 57.4541 30.2582 57.9528 28.9389C58.4514 27.6192 59.4342 26.5727 60.72 25.9923C63.3744 24.794 66.5084 25.9785 67.7068 28.6327C67.8148 28.8719 67.9036 29.1155 67.9736 29.3609ZM58.9962 31.908C59.0507 32.0992 59.1194 32.2875 59.2026 32.472C60.1213 34.507 62.5246 35.415 64.5594 34.4965C66.5945 33.5776 67.5036 31.1748 66.584 29.1395C65.6653 27.1045 63.262 26.1965 61.2272 27.1151C60.2412 27.5603 59.4878 28.3625 59.1054 29.3744C58.7947 30.1967 58.7594 31.0777 58.9962 31.908Z" fill="white"/>
<path d="M75.2798 27.1684C75.401 27.5936 75.5016 28.0274 75.5805 28.4686C75.6054 28.6074 75.6279 28.7468 75.6483 28.8864C75.7486 29.5748 75.7939 30.2702 75.7837 30.9616C75.7835 30.9711 75.7834 30.9805 75.7833 30.9899C75.7828 31.0166 75.7823 31.0433 75.7815 31.0702C75.7804 31.1223 75.7786 31.1743 75.7769 31.2263C75.7721 31.363 75.6788 31.4758 75.5539 31.5116C75.5236 31.5202 75.4913 31.5243 75.458 31.5231C75.2881 31.5171 75.1556 31.3741 75.1614 31.2044C75.1925 30.3296 75.1295 29.4457 74.974 28.5771C74.2037 24.2618 71.2692 20.8674 67.4885 19.3104C65.3858 18.4441 63.0211 18.1465 60.6212 18.5754C60.2003 18.6505 59.7863 18.7463 59.3808 18.8621C56.6514 19.6406 54.2924 21.3202 52.648 23.6803C50.7588 26.3912 50.0385 29.6756 50.6196 32.9281C51.8205 39.6454 58.2582 44.1294 64.9725 42.9298C65.3865 42.8558 65.7951 42.7611 66.1969 42.6464C67.9379 42.1498 69.5509 41.2776 70.917 40.0869C70.9524 40.0562 70.9926 40.0349 71.0349 40.0229C71.146 39.9913 71.2706 40.0238 71.3515 40.1168C71.4629 40.2454 71.4504 40.4395 71.3216 40.5514C69.8874 41.8014 68.1939 42.7173 66.3661 43.2388C65.9444 43.3591 65.5154 43.4584 65.081 43.5362C58.0316 44.7958 51.2722 40.0834 50.013 33.0365C49.4029 29.6218 50.1592 26.1741 52.1424 23.3281C53.8688 20.8504 56.3453 19.0872 59.2106 18.2698C59.6364 18.1484 60.0709 18.0478 60.5126 17.9688C63.9275 17.3588 67.3753 18.1149 70.2212 20.098C72.6994 21.825 74.4627 24.3024 75.2798 27.1684Z" fill="white"/>
<g opacity="0.3">
<path d="M44.6704 100.912C44.4756 101.043 44.2109 101.036 44.0214 100.878C43.6677 100.584 43.318 100.275 42.9824 99.959C42.7642 99.754 42.7536 99.4111 42.9586 99.1926C43.1631 98.9732 43.5068 98.9639 43.725 99.1688C44.0449 99.4694 44.3781 99.7642 44.7156 100.045C44.9456 100.237 44.9766 100.579 44.7853 100.809C44.7512 100.85 44.7124 100.884 44.6704 100.912Z" fill="url(#paint7_linear_611_1297)"/>
<path d="M41.7238 97.9598C41.4956 98.1129 41.1839 98.0713 41.005 97.8554C40.4989 97.2454 40.0185 96.6024 39.5772 95.9446C39.4843 95.8061 39.3927 95.666 39.302 95.5247C39.1406 95.2722 39.2336 94.9375 39.4659 94.7753C39.7181 94.6138 40.0534 94.6873 40.215 94.9391C40.3015 95.0743 40.389 95.2081 40.4778 95.3405C40.8988 95.968 41.357 96.5813 41.8393 97.1631C42.0307 97.3937 41.9987 97.7352 41.7685 97.9267C41.7538 97.9384 41.7389 97.9497 41.7238 97.9598ZM38.6873 93.2191C38.666 93.2334 38.6433 93.2467 38.6197 93.2581C38.3495 93.3876 38.0256 93.274 37.8959 93.004C37.4796 92.1381 37.1134 91.2386 36.8078 90.3311C36.712 90.0472 36.8663 89.7397 37.1485 89.6442C37.4325 89.5486 37.7396 89.701 37.8354 89.9848C38.1271 90.8508 38.4764 91.7086 38.8733 92.5345C38.9914 92.7805 38.9076 93.0713 38.6873 93.2191ZM36.8911 87.8837C36.834 87.922 36.7686 87.9499 36.6971 87.9647C36.4037 88.0244 36.1175 87.8345 36.0579 87.5411C35.8672 86.601 35.7329 85.6385 35.6599 84.6808C35.6369 84.3818 35.8599 84.122 36.1594 84.099C36.4577 84.0761 36.7183 84.2997 36.7412 84.5981C36.811 85.5115 36.9386 86.4289 37.1208 87.3255C37.1656 87.5471 37.0681 87.7649 36.8911 87.8837ZM36.4616 82.2697C36.3683 82.3322 36.255 82.3662 36.1345 82.3609C35.8354 82.3466 35.6041 82.0925 35.6183 81.7935C35.6638 80.8334 35.7694 79.868 35.9322 78.9236C35.9833 78.6285 36.2643 78.4311 36.5587 78.4817C36.8537 78.5324 37.0517 78.8128 37.0009 79.1083C36.8455 80.0082 36.7449 80.9294 36.7016 81.8447C36.6931 82.0232 36.5994 82.1772 36.4616 82.2697ZM37.4162 76.7212C37.286 76.8085 37.119 76.8389 36.9571 76.79C36.6706 76.7036 36.5085 76.4011 36.5947 76.1143C36.8723 75.1955 37.209 74.285 37.5958 73.4083C37.7163 73.1336 38.0367 73.01 38.3107 73.1309C38.5848 73.2519 38.709 73.5721 38.5881 73.8457C38.219 74.6824 37.8977 75.5509 37.6332 76.4277C37.5954 76.5525 37.5167 76.6538 37.4162 76.7212ZM39.6883 71.5732C39.5197 71.6863 39.2938 71.6994 39.1077 71.5884C38.8508 71.4349 38.7672 71.1021 38.9205 70.8449C39.4129 70.0211 39.9615 69.2202 40.5511 68.4652C40.7367 68.2291 41.0763 68.1874 41.3123 68.3715C41.5483 68.5556 41.5902 68.8967 41.406 69.1324C40.8438 69.8526 40.321 70.6158 39.8515 71.4012C39.809 71.4724 39.7527 71.53 39.6883 71.5732ZM43.1491 67.1382C42.9381 67.2798 42.6496 67.2571 42.4637 67.0706C42.2523 66.8586 42.2528 66.5153 42.4647 66.3037C43.1419 65.6281 43.8706 64.9863 44.6304 64.3957C44.8705 64.2155 45.2081 64.255 45.3915 64.4915C45.5753 64.7279 45.5324 65.0684 45.2962 65.2524C44.571 65.8153 43.8761 66.4275 43.2304 67.0716C43.205 67.0969 43.1777 67.119 43.1491 67.1382ZM50.1018 62.3916C50.0759 62.409 50.0478 62.4246 50.018 62.4376C49.2946 62.7564 48.576 63.1205 47.882 63.5197C47.7765 63.5796 47.6737 63.6397 47.5719 63.7009C47.3146 63.8544 46.9819 63.7709 46.8282 63.5138C46.6738 63.2565 46.7548 62.9152 47.015 62.77C47.1239 62.7052 47.2329 62.6411 47.3435 62.5783C48.0687 62.1614 48.822 61.7798 49.5807 61.4456C49.8548 61.3248 50.1746 61.449 50.2953 61.7231C50.4031 61.9671 50.3162 62.2478 50.1018 62.3916Z" fill="url(#paint8_linear_611_1297)"/>
</g>
<g opacity="0.3">
<path d="M72.3233 102.148C72.0775 102.313 71.7438 102.25 71.575 102.006C71.4051 101.759 71.4669 101.421 71.7135 101.252C72.4556 100.74 73.1728 100.178 73.8451 99.5828C74.0696 99.3875 74.4119 99.4046 74.6106 99.6291C74.8092 99.8535 74.7881 100.196 74.5643 100.395C73.8589 101.019 73.1073 101.608 72.3294 102.144C72.3275 102.146 72.3253 102.147 72.3233 102.148ZM69.9494 103.583C69.9331 103.594 69.9164 103.604 69.8988 103.613C69.0633 104.053 68.1925 104.445 67.3109 104.781C67.0308 104.887 66.7178 104.747 66.6114 104.467C66.5044 104.187 66.647 103.874 66.9248 103.767C67.7662 103.447 68.597 103.072 69.3945 102.653C69.6593 102.514 69.9872 102.616 70.1264 102.881C70.2568 103.129 70.1763 103.431 69.9494 103.583ZM76.4667 98.4765C76.267 98.6104 75.9949 98.5991 75.806 98.4325C75.5818 98.2348 75.5602 97.8922 75.7583 97.6675C76.3547 96.9907 76.9151 96.2725 77.4236 95.5316C77.5946 95.2851 77.9307 95.2221 78.1776 95.3919C78.4244 95.5611 78.4872 95.899 78.3177 96.1459C77.7846 96.9223 77.197 97.6755 76.5715 98.3845C76.5397 98.4205 76.5045 98.4511 76.4667 98.4765ZM64.7711 105.551C64.7199 105.585 64.662 105.611 64.5985 105.627C63.6813 105.853 62.7408 106.024 61.8036 106.135C61.5062 106.171 61.2364 105.959 61.2008 105.661C61.1658 105.365 61.3781 105.095 61.675 105.059C62.5687 104.952 63.4651 104.789 64.3397 104.574C64.6304 104.503 64.9243 104.68 64.9956 104.971C65.0514 105.198 64.9549 105.427 64.7711 105.551ZM79.5992 93.9123C79.4398 94.0192 79.2284 94.0381 79.0465 93.9432C78.7805 93.8048 78.6775 93.4773 78.8157 93.2118C79.2314 92.414 79.6025 91.5823 79.9185 90.7392C80.0236 90.4582 80.3364 90.3166 80.6168 90.4219C80.8972 90.5271 81.0393 90.8398 80.9341 91.1202C80.6024 92.0039 80.2135 92.8761 79.7779 93.7128C79.7343 93.7962 79.672 93.8635 79.5992 93.9123ZM81.5456 88.7296C81.4235 88.8115 81.2691 88.8436 81.1154 88.8064C80.8244 88.7358 80.6456 88.4426 80.7164 88.1516C80.9291 87.275 81.0907 86.3779 81.1964 85.4858C81.2317 85.188 81.5017 84.9756 81.7987 85.011C82.096 85.0462 82.3083 85.3156 82.2731 85.6128C82.1623 86.5484 81.9933 87.4888 81.7703 88.4073C81.7369 88.5445 81.6542 88.6568 81.5456 88.7296ZM82.1943 83.2295C82.1085 83.287 82.0057 83.3209 81.8945 83.321C81.595 83.3223 81.3514 83.0802 81.3503 82.7807C81.3476 81.879 81.2891 80.9695 81.1765 80.0778C81.1395 79.7812 81.3497 79.5095 81.6467 79.4723C81.9439 79.4349 82.215 79.6452 82.2526 79.9426C82.3702 80.8775 82.4318 81.8314 82.4351 82.7772C82.4356 82.9657 82.3398 83.1319 82.1943 83.2295Z" fill="url(#paint9_linear_611_1297)"/>
<path d="M59.2457 106.207C59.1588 106.266 59.0543 106.299 58.9418 106.299C58.4777 106.297 58.0117 106.282 57.5563 106.253C57.2576 106.234 57.0304 105.976 57.0492 105.678C57.0689 105.379 57.3258 105.152 57.6247 105.17C58.0589 105.198 58.5036 105.213 58.9464 105.215C59.246 105.216 59.4877 105.46 59.4863 105.759C59.4854 105.946 59.3902 106.111 59.2457 106.207Z" fill="url(#paint10_linear_611_1297)"/>
</g>
<path d="M55.7183 100.139C55.8303 100.173 55.9518 100.133 56.0205 100.038L57.9826 97.3331C59.5397 97.4351 61.1245 97.2896 62.6766 96.8771L65.1226 99.1505C65.2084 99.2303 65.3353 99.2468 65.4387 99.1917L68.9755 97.3058C69.0788 97.2506 69.1358 97.136 69.1175 97.0203L68.5926 93.7224C69.8 92.6634 70.8039 91.4287 71.5868 90.0788L74.9261 89.9567C75.0432 89.9524 75.1447 89.8743 75.1788 89.7622L76.346 85.9278C76.3802 85.8157 76.3394 85.6943 76.2446 85.6256L73.5397 83.6635C73.6418 82.1063 73.4963 80.5216 73.0837 78.9696L75.3572 76.5235C75.437 76.4377 75.4535 76.3108 75.3984 76.2075L73.5125 72.6706C73.4573 72.5672 73.3427 72.5102 73.2271 72.5287L69.9291 73.0535C68.8702 71.8461 67.6355 70.8423 66.2856 70.0594L66.1634 66.7199C66.1591 66.603 66.0811 66.5015 65.9691 66.4674L62.1346 65.3C62.0226 65.2659 61.9013 65.3067 61.8325 65.4015L59.8703 68.1064C58.3131 68.0043 56.7285 68.1499 55.1764 68.5624L52.7303 66.2888C52.6445 66.2091 52.5176 66.1925 52.4142 66.2476L48.8773 68.1336C48.774 68.1887 48.717 68.3033 48.7354 68.419L49.2603 71.7169C48.0528 72.7758 47.049 74.0106 46.266 75.3606L42.9267 75.4826C42.8096 75.4869 42.7082 75.565 42.6741 75.677L41.5068 79.5115C41.4727 79.6235 41.5133 79.7449 41.6082 79.8137L44.313 81.7758C44.2109 83.333 44.3565 84.9177 44.7691 86.4698L42.4955 88.9158C42.4158 89.0015 42.3992 89.1285 42.4544 89.2319L44.3403 92.7687C44.3955 92.872 44.51 92.929 44.6257 92.9107L47.9237 92.3858C48.9826 93.5931 50.2173 94.597 51.5672 95.3799L51.6893 98.7193C51.6936 98.8364 51.7716 98.9378 51.8837 98.972L55.7183 100.139Z" fill="url(#paint11_linear_611_1297)"/>
<path d="M61.2036 86.1331C60.4772 86.6204 59.6173 86.8612 58.7279 86.8183C57.6337 86.7654 56.6256 86.2896 55.8892 85.4783C54.3693 83.8046 54.4946 81.206 56.1687 79.6853C57.848 78.1661 60.4424 78.2908 61.9623 79.9651C62.6989 80.7761 63.0754 81.8256 63.0224 82.9195C62.9697 84.0138 62.4939 85.0221 61.6823 85.7584C61.5307 85.8959 61.3706 86.0211 61.2036 86.1331ZM57.2466 80.2152C57.1254 80.2964 57.0089 80.3874 56.8976 80.4882C55.6663 81.6067 55.5742 83.5182 56.6923 84.7498C57.2338 85.3461 57.9755 85.6966 58.7802 85.7352C59.5853 85.774 60.3565 85.4965 60.9538 84.9555C61.5503 84.4138 61.9005 83.6721 61.9394 82.8675C61.9782 82.0623 61.7012 81.2905 61.1594 80.6937C60.1423 79.5734 58.4679 79.3959 57.2466 80.2152Z" fill="white"/>
<path d="M64.6402 91.1159C64.3553 91.307 64.0583 91.4851 63.7496 91.6502C63.1361 91.9775 62.4887 92.2427 61.8237 92.439C61.7937 92.4475 61.7638 92.4562 61.7338 92.4648C61.5021 92.5309 61.2628 92.4359 61.1351 92.246C61.1041 92.1999 61.0798 92.148 61.0638 92.0918C60.9817 91.8039 61.1497 91.505 61.4368 91.4221C62.0594 91.2449 62.6656 90.9995 63.2389 90.6935L63.2391 90.6934C63.2707 90.6767 63.3021 90.6594 63.3331 90.6424C64.6832 89.9058 65.7985 88.8605 66.6108 87.6016C67.0516 86.9182 67.403 86.1712 67.6532 85.3754C67.6552 85.3689 67.6572 85.3625 67.6593 85.356C67.6653 85.3359 67.6717 85.3164 67.6775 85.2966C68.3875 82.9637 68.1469 80.4938 66.9994 78.3421C66.8511 78.0635 66.6898 77.7949 66.5163 77.5364C65.3492 75.797 63.6336 74.5224 61.6024 73.9038C59.2695 73.1938 56.7999 73.4349 54.6484 74.5822C52.4986 75.7296 50.9206 77.6463 50.21 79.9789C49.4999 82.3118 49.7406 84.7817 50.8881 86.9334C51.0339 87.2073 51.1934 87.4727 51.365 87.7286C52.1098 88.8383 53.0886 89.7725 54.2351 90.461C54.3057 90.5035 54.3632 90.5592 54.4061 90.6237C54.5194 90.7925 54.5325 91.0189 54.4207 91.2049C54.2658 91.4611 53.9337 91.545 53.6764 91.3904C52.3936 90.62 51.2981 89.5746 50.465 88.3336C50.2727 88.0469 50.0944 87.7502 49.9311 87.444C48.6473 85.0362 48.3779 82.2731 49.1726 79.6629C49.9674 77.0532 51.7284 74.9079 54.1379 73.6253C56.5452 72.3414 59.3081 72.0719 61.9183 72.8669C64.1906 73.5583 66.1099 74.9844 67.4156 76.9305C67.6094 77.2194 67.7902 77.5202 67.9562 77.8316C70.4414 82.4925 68.9359 88.2345 64.6402 91.1159Z" fill="white"/>
<path d="M56.9118 144.998L39.2365 195.433L20 227.498L86 263.998L97.1929 242.333L109.853 217.364L137.408 200.24L154 153.92L56.9118 144.998Z" fill="url(#paint12_linear_611_1297)"/>
<path d="M174.975 94.058L116.062 128.071L106.429 111.387L165.342 77.3732C169.949 74.7133 175.841 76.292 178.5 80.8992C181.161 85.5065 179.582 91.3976 174.975 94.058Z" fill="url(#paint13_linear_611_1297)"/>
<path d="M178.501 80.8962C178.357 80.6473 178.202 80.4087 178.04 80.1775C178.6 83.9712 176.851 87.8946 173.327 89.929L114.415 123.942L106.98 111.065L106.429 111.384L116.062 128.068L174.975 94.0545C179.582 91.3946 181.161 85.5035 178.501 80.8962Z" fill="url(#paint14_linear_611_1297)"/>
<path d="M135.734 195.877H81.9094C74.4084 195.877 68.3271 189.797 68.3271 182.295V44.065C68.3271 36.564 74.4078 30.4828 81.9094 30.4828H135.734C143.235 30.4828 149.316 36.5635 149.316 44.065V182.295C149.316 189.796 143.236 195.877 135.734 195.877Z" fill="#C0C0DD"/>
<path d="M149.37 42.8888H68.2715V176.341H149.37V42.8888Z" fill="#F8FAFC"/>
<path d="M126.464 37.9574H91.1774C90.5134 37.9574 89.9749 37.4189 89.9749 36.7548C89.9749 36.0908 90.5134 35.5522 91.1774 35.5522H126.464C127.128 35.5522 127.666 36.0908 127.666 36.7548C127.666 37.4189 127.128 37.9574 126.464 37.9574Z" fill="#F8FAFC"/>
<path d="M136.14 187.2C136.14 187.473 135.917 187.696 135.644 187.696H132.008C131.735 187.696 131.512 187.473 131.512 187.2V183.565C131.512 183.292 131.735 183.07 132.008 183.07H135.644C135.916 183.07 136.14 183.292 136.14 183.565V187.2Z" stroke="white" stroke-width="0.9519" stroke-miterlimit="10"/>
<path d="M85.7269 187.494C85.7269 187.767 85.5368 187.873 85.305 187.73L81.9264 185.647C81.6941 185.504 81.6941 185.27 81.9264 185.127L85.305 183.044C85.5373 182.901 85.7269 183.007 85.7269 183.279V187.494Z" stroke="white" stroke-width="0.9519" stroke-miterlimit="10"/>
<path d="M111.412 185.381C111.412 186.658 110.377 187.694 109.099 187.694C107.822 187.694 106.786 186.658 106.786 185.381C106.786 184.104 107.822 183.068 109.099 183.068C110.377 183.068 111.412 184.104 111.412 185.381Z" stroke="white" stroke-width="0.9519" stroke-miterlimit="10"/>
<path d="M102.316 152.793L69.1921 136.337C63.966 133.741 57.6463 135.001 53.815 139.403L46.8635 147.391C43.0828 151.736 41 157.301 41 163.061V204.73L57.352 181.989L60.7614 171.327L63.1999 173.449L71.5426 163.862L91.6013 173.821C97.3601 176.68 104.469 174.582 107.486 168.904C110.615 163.013 108.251 155.74 102.316 152.793Z" fill="url(#paint15_linear_611_1297)"/>
<path d="M96.4999 167.499L90.5 164.494L84.9998 161.501L90.5 153.495L96 156.494L100.5 158.994C101.472 159.495 103.255 161.512 102.754 162.484C103.5 165.999 98.6686 168.616 96.4999 167.499Z" fill="white"/>
<path d="M165.694 125.89L154.222 132.514C148.723 135.688 141.692 133.804 138.518 128.306C135.343 122.807 137.227 115.777 142.725 112.602L154.198 105.978C159.696 102.804 166.727 104.688 169.902 110.186C173.076 115.685 171.193 122.715 165.694 125.89Z" fill="url(#paint16_linear_611_1297)"/>
<path d="M151.306 129.263C147.609 131.435 142.851 130.199 140.679 126.501C138.507 122.804 139.744 118.046 143.441 115.874C147.139 113.703 155.004 127.092 151.306 129.263Z" fill="white"/>
<path d="M169.904 110.171C169.549 109.557 169.145 108.991 168.702 108.469C170.535 113.599 168.506 119.462 163.621 122.282L152.149 128.905C147.264 131.726 141.172 130.551 137.647 126.399C137.877 127.043 138.165 127.676 138.519 128.29C141.694 133.789 148.725 135.672 154.223 132.498L165.696 125.875C171.194 122.7 173.079 115.669 169.904 110.171Z" fill="url(#paint17_linear_611_1297)"/>
<path d="M144.455 136.59L154.958 130.526C160.457 127.351 167.254 128.83 170.141 133.83C173.027 138.829 170.909 145.455 165.411 148.63L154.907 154.694C149.409 157.868 142.612 156.389 139.725 151.39C136.839 146.39 138.956 139.764 144.455 136.59Z" fill="url(#paint18_linear_611_1297)"/>
<path d="M152.271 151.49C148.574 153.662 143.924 152.608 141.884 149.137C139.845 145.666 141.189 141.091 144.886 138.919C148.583 136.747 155.968 149.318 152.271 151.49Z" fill="white"/>
<path d="M170.142 133.828C169.915 133.434 169.655 133.07 169.382 132.72C170.737 137.345 168.513 142.675 163.756 145.421L153.253 151.485C148.188 154.409 142.028 153.376 138.831 149.288C139.043 150.009 139.337 150.714 139.727 151.388C142.613 156.387 149.41 157.866 154.909 154.692L165.413 148.627C170.911 145.453 173.028 138.827 170.142 133.828Z" fill="url(#paint19_linear_611_1297)"/>
<path d="M146.2 156.67L153.431 152.495C157.216 150.309 162.03 151.56 164.182 155.288C166.335 159.016 165.011 163.81 161.226 165.996L153.994 170.171C150.209 172.356 145.395 171.106 143.243 167.377C141.091 163.649 142.414 158.855 146.2 156.67Z" fill="url(#paint20_linear_611_1297)"/>
<path d="M153.046 168.25C150.123 169.967 146.447 169.134 144.835 166.391C143.223 163.646 144.286 160.03 147.208 158.314C150.13 156.596 155.968 166.533 153.046 168.25Z" fill="white"/>
<path d="M164.182 155.294C163.861 154.739 163.476 154.245 163.05 153.803C164.74 157.431 163.368 161.837 159.784 163.906L152.552 168.081C149.33 169.941 145.37 169.305 142.933 166.779C143.028 166.982 143.127 167.185 143.242 167.383C145.395 171.111 150.208 172.362 153.993 170.177L161.225 166.002C165.011 163.816 166.335 159.022 164.182 155.294Z" fill="url(#paint21_linear_611_1297)"/>
<path d="M162.768 48.0132C162.768 48.0132 163.705 60.6994 172.074 60.9316C180.443 61.1637 188.938 59.0656 191.668 62.2546C191.668 62.2546 185.674 38.2893 164.189 43.8151L162.768 48.0132Z" fill="url(#paint22_linear_611_1297)"/>
<path d="M145.726 49.1122C145.726 49.1122 143.619 57.4723 145.508 59.5204C147.306 61.4684 164.053 67.4166 165.683 67.9924C165.756 68.0183 165.832 67.9759 165.861 67.8961C166.099 67.2364 166.043 66.491 165.707 65.8866C164.087 62.9667 159.183 54.2947 156.949 52.205C154.251 49.6814 145.726 49.1122 145.726 49.1122Z" fill="url(#paint23_linear_611_1297)"/>
<path opacity="0.68" d="M160.069 64.7751C160.027 64.8007 159.976 64.8076 159.927 64.789C159.835 64.7545 150.714 61.3193 146.839 59.6691C146.149 59.3755 145.678 58.6538 145.639 57.831C145.565 56.245 145.548 53.8644 145.89 51.528C145.906 51.4192 145.998 51.3452 146.095 51.3633C146.192 51.3813 146.258 51.4841 146.242 51.5928C145.887 54.0154 145.935 56.5278 145.996 57.8097C146.027 58.475 146.408 59.0585 146.966 59.2958C150.835 60.9432 159.949 64.3762 160.041 64.4105C160.134 64.4455 160.184 64.5587 160.153 64.6635C160.138 64.7132 160.107 64.7519 160.069 64.7751Z" fill="white"/>
<path d="M152.48 30.398C152.48 30.398 156.153 22.746 158.783 22.7426C161.285 22.7393 177.022 31.4845 178.552 32.338C178.621 32.3763 178.649 32.4662 178.621 32.546C178.382 33.2057 177.879 33.6977 177.263 33.8717C174.285 34.7119 165.375 37.1354 162.471 36.9009C158.964 36.6178 152.48 30.398 152.48 30.398Z" fill="url(#paint24_linear_611_1297)"/>
<path opacity="0.68" d="M172.425 30.5341C172.377 30.5637 172.317 30.5678 172.263 30.5394C172.176 30.4927 163.49 25.8736 159.685 24.0499C159.136 23.7865 158.5 23.9098 158.065 24.3642C157.225 25.2392 155.632 27.0089 154.383 29.0275C154.328 29.1193 154.216 29.1405 154.135 29.078C154.054 29.0155 154.034 28.891 154.09 28.8004C155.357 26.7508 156.972 24.9582 157.821 24.0718C158.361 23.5105 159.147 23.3577 159.825 23.6826C163.637 25.5093 172.329 30.1322 172.417 30.1783C172.506 30.2257 172.543 30.3448 172.501 30.4443C172.484 30.4841 172.457 30.5147 172.425 30.5341Z" fill="white"/>
<path d="M121.597 38.0872C124.484 40.8061 128.024 43.3832 132.306 45.3359C145.598 51.3989 156.305 53.2816 159.363 53.7258C159.916 53.8063 160.459 53.5354 160.787 53.0307C163.374 49.0542 165.001 44.6387 165.676 39.7866C165.803 38.8739 165.457 37.9576 164.791 37.4127C161.898 35.0486 153.227 28.4178 140.478 22.699C136.219 20.7886 132.104 19.888 128.362 19.5911C123.853 26.1404 122.272 33.7303 121.597 38.0872Z" fill="#99A9E5"/>
<path d="M128.362 19.585C120.098 18.9293 113.66 21.2222 111.541 22.1028C111.127 22.2748 110.935 22.8053 111.127 23.2511C112.101 25.5241 115.29 32.1418 121.597 38.0812C122.272 33.7244 123.853 26.1344 128.362 19.585Z" fill="url(#paint25_linear_611_1297)"/>
<path d="M138.218 26.1337C141.665 27.6929 143.248 32.3142 141.753 36.4555C140.258 40.5969 136.251 42.6902 132.804 41.1309C129.357 39.5716 127.774 34.9503 129.27 30.809C130.765 26.6677 134.771 24.5745 138.218 26.1337Z" fill="url(#paint26_linear_611_1297)"/>
<path d="M137.57 27.3648C140.317 28.6072 141.578 32.2895 140.386 35.5893C139.195 38.8892 136.003 40.5571 133.256 39.3146C130.509 38.0722 129.248 34.3899 130.44 31.0901C131.631 27.7902 134.823 26.1224 137.57 27.3648Z" fill="white"/>
<path d="M132.978 37.1056C132.917 37.1431 132.838 37.138 132.78 37.0855C131.3 35.7424 130.786 33.3645 131.53 31.3034C131.718 30.7836 131.974 30.306 132.292 29.8843C132.356 29.8003 132.468 29.7893 132.544 29.8606C132.619 29.9315 132.629 30.0576 132.565 30.1418C132.271 30.5316 132.034 30.9724 131.861 31.4533C131.175 33.3532 131.646 35.5418 133.005 36.7752C133.082 36.8448 133.093 36.9704 133.031 37.0558C133.016 37.0771 132.998 37.0934 132.978 37.1056Z" fill="#3354CC"/>
<path d="M149.844 34.3512C152.121 35.3812 153.166 38.4343 152.179 41.1702C151.191 43.9061 148.544 45.2889 146.267 44.2588C143.99 43.2288 142.944 40.1757 143.932 37.4398C144.92 34.7039 147.566 33.3211 149.844 34.3512Z" fill="url(#paint27_linear_611_1297)"/>
<path d="M149.414 35.1661C151.228 35.9869 152.061 38.4196 151.275 40.5995C150.488 42.7796 148.379 43.8814 146.564 43.0606C144.749 42.2399 143.916 39.8072 144.703 37.6272C145.49 35.4472 147.599 34.3455 149.414 35.1661Z" fill="white"/>
<path d="M146.41 41.664C146.348 41.7016 146.27 41.6964 146.212 41.6439C145.214 40.7382 144.866 39.1354 145.368 37.746C145.494 37.3961 145.667 37.0747 145.882 36.7905C145.944 36.7062 146.058 36.6955 146.133 36.7668C146.208 36.8377 146.218 36.9638 146.154 37.0481C145.964 37.3 145.811 37.5854 145.699 37.8958C145.255 39.1235 145.559 40.5374 146.437 41.3336C146.513 41.4032 146.525 41.5289 146.463 41.6143C146.448 41.6353 146.43 41.6518 146.41 41.664Z" fill="#3354CC"/>
<path d="M108.857 114.696C124.19 114.696 136.62 102.266 136.62 86.9327C136.62 71.5996 124.19 59.1697 108.857 59.1697C93.5237 59.1697 81.0938 71.5996 81.0938 86.9327C81.0938 102.266 93.5237 114.696 108.857 114.696Z" fill="url(#paint28_linear_611_1297)"/>
<path d="M108.856 113.092C123.301 113.092 135.011 101.382 135.011 86.9367C135.011 72.4916 123.301 60.7815 108.856 60.7815C94.4105 60.7815 82.7004 72.4916 82.7004 86.9367C82.7004 101.382 94.4105 113.092 108.856 113.092Z" fill="#99A9E5"/>
<path opacity="0.5" d="M110.707 85.6606L132.851 85.0577C131.487 71.8694 123.337 63.6275 110.483 62.3047L110.707 85.6606Z" fill="url(#paint29_linear_611_1297)"/>
<path d="M106.576 109.504C105.134 109.38 103.692 109.109 102.267 108.683C90.6884 105.226 84.2144 92.7888 87.9673 81.0509C89.8227 75.2482 93.8356 70.5737 99.243 67.8921C99.904 67.5642 100.704 67.8376 101.03 68.5024C101.356 69.1668 101.085 69.9715 100.425 70.3001C95.6836 72.6601 92.1672 76.765 90.5423 81.8559C87.2569 92.1494 92.9258 103.062 103.078 106.111C110.443 108.322 118.372 105.848 123.307 99.8533C123.772 99.2885 124.59 99.2072 125.134 99.6714C125.678 100.135 125.742 100.969 125.279 101.533C120.623 107.2 113.62 110.111 106.576 109.504Z" fill="url(#paint30_linear_611_1297)"/>
<path d="M96.6478 75.374L99.1134 69.4155L93.175 66.9355L96.7482 65.4629L102.659 67.9438L100.206 73.8862L96.6478 75.374Z" fill="url(#paint31_linear_611_1297)"/>
<path d="M110.098 86.6277C110.098 87.5128 109.414 88.2448 108.569 88.2627C107.723 88.2806 107.036 87.5761 107.036 86.689C107.036 85.8019 107.723 85.0699 108.569 85.054C109.414 85.038 110.098 85.7427 110.098 86.6277Z" fill="white"/>
<path d="M108.547 75.0436C108.217 75.0487 107.972 75.2227 107.972 75.732L107.95 85.8098C107.95 86.319 108.217 86.7239 108.547 86.7142C108.875 86.7044 109.142 86.2843 109.142 85.7758L109.121 75.7155C109.121 75.2069 108.875 75.0384 108.547 75.0436Z" fill="white"/>
<path d="M108.485 86.875C108.309 86.6686 108.006 86.6572 107.809 86.8494L96.6678 97.9453C96.467 98.1414 96.45 98.468 96.6301 98.6746C96.8101 98.8812 97.1187 98.8895 97.3194 98.6934L108.448 87.5965C108.645 87.4042 108.662 87.0812 108.485 86.875Z" fill="white"/>
<defs>
<radialGradient id="paint0_radial_611_1297" cx="0" cy="0" r="1" gradientUnits="userSpaceOnUse" gradientTransform="translate(110.017 123) scale(109.013 109.013)">
<stop stop-color="#3354CC"/>
<stop offset="1" stop-color="#3354CC"/>
</radialGradient>
<linearGradient id="paint1_linear_611_1297" x1="32.4207" y1="43.5085" x2="75.1124" y2="43.5085" gradientUnits="userSpaceOnUse">
<stop stop-color="#3354CC"/>
<stop offset="1" stop-color="#3354CC"/>
</linearGradient>
<linearGradient id="paint2_linear_611_1297" x1="33.5974" y1="21.6606" x2="35.5132" y2="21.6606" gradientUnits="userSpaceOnUse">
<stop stop-color="#3354CC"/>
<stop offset="1" stop-color="#3354CC"/>
</linearGradient>
<linearGradient id="paint3_linear_611_1297" x1="48.542" y1="3.86793" x2="51.1878" y2="3.86793" gradientUnits="userSpaceOnUse">
<stop stop-color="#3354CC"/>
<stop offset="1" stop-color="#3354CC"/>
</linearGradient>
<linearGradient id="paint4_linear_611_1297" x1="53.4622" y1="18.7031" x2="93.8786" y2="18.7031" gradientUnits="userSpaceOnUse">
<stop stop-color="#3354CC"/>
<stop offset="1" stop-color="#3354CC"/>
</linearGradient>
<linearGradient id="paint5_linear_611_1297" x1="90.2563" y1="41.1806" x2="92.2254" y2="41.1806" gradientUnits="userSpaceOnUse">
<stop stop-color="#3354CC"/>
<stop offset="1" stop-color="#3354CC"/>
</linearGradient>
<linearGradient id="paint6_linear_611_1297" x1="39.7151" y1="30.807" x2="86.0707" y2="30.807" gradientUnits="userSpaceOnUse">
<stop stop-color="#3354CC"/>
<stop offset="1" stop-color="#3354CC"/>
</linearGradient>
<linearGradient id="paint7_linear_611_1297" x1="42.8115" y1="100.013" x2="44.9107" y2="100.013" gradientUnits="userSpaceOnUse">
<stop stop-color="#11998E"/>
<stop offset="1" stop-color="#6EBCB6"/>
</linearGradient>
<linearGradient id="paint8_linear_611_1297" x1="35.6176" y1="79.7255" x2="50.3418" y2="79.7255" gradientUnits="userSpaceOnUse">
<stop stop-color="#3354CC"/>
<stop offset="1" stop-color="#3354CC"/>
</linearGradient>
<linearGradient id="paint9_linear_611_1297" x1="61.1969" y1="92.8037" x2="82.4353" y2="92.8037" gradientUnits="userSpaceOnUse">
<stop stop-color="#3354CC"/>
<stop offset="1" stop-color="#3354CC"/>
</linearGradient>
<linearGradient id="paint10_linear_611_1297" x1="57.0481" y1="105.734" x2="59.4864" y2="105.734" gradientUnits="userSpaceOnUse">
<stop stop-color="#3354CC"/>
<stop offset="1" stop-color="#3354CC"/>
</linearGradient>
<linearGradient id="paint11_linear_611_1297" x1="41.4947" y1="82.7198" x2="76.3583" y2="82.7198" gradientUnits="userSpaceOnUse">
<stop stop-color="#3354CC"/>
<stop offset="1" stop-color="#3354CC"/>
</linearGradient>
<linearGradient id="paint12_linear_611_1297" x1="20.0002" y1="204.498" x2="154" y2="204.498" gradientUnits="userSpaceOnUse">
<stop stop-color="#F4D0C6"/>
<stop offset="1" stop-color="#F8E9E5"/>
</linearGradient>
<linearGradient id="paint13_linear_611_1297" x1="106.43" y1="102.076" x2="179.793" y2="102.076" gradientUnits="userSpaceOnUse">
<stop stop-color="#F4D0C6"/>
<stop offset="1" stop-color="#F8E9E5"/>
</linearGradient>
<linearGradient id="paint14_linear_611_1297" x1="106.429" y1="104.123" x2="179.793" y2="104.123" gradientUnits="userSpaceOnUse">
<stop stop-color="#F4D0C6"/>
<stop offset="1" stop-color="#F8E9E5"/>
</linearGradient>
<linearGradient id="paint15_linear_611_1297" x1="41.0001" y1="169.864" x2="108.871" y2="169.864" gradientUnits="userSpaceOnUse">
<stop stop-color="#F4D0C6"/>
<stop offset="1" stop-color="#F8E9E5"/>
</linearGradient>
<linearGradient id="paint16_linear_611_1297" x1="136.976" y1="119.246" x2="171.444" y2="119.246" gradientUnits="userSpaceOnUse">
<stop stop-color="#F4D0C6"/>
<stop offset="1" stop-color="#F8E9E5"/>
</linearGradient>
<linearGradient id="paint17_linear_611_1297" x1="137.647" y1="121.255" x2="171.446" y2="121.255" gradientUnits="userSpaceOnUse">
<stop stop-color="#F4D0C6"/>
<stop offset="1" stop-color="#F8E9E5"/>
</linearGradient>
<linearGradient id="paint18_linear_611_1297" x1="138.435" y1="142.61" x2="171.431" y2="142.61" gradientUnits="userSpaceOnUse">
<stop stop-color="#F4D0C6"/>
<stop offset="1" stop-color="#F8E9E5"/>
</linearGradient>
<linearGradient id="paint19_linear_611_1297" x1="138.831" y1="144.542" x2="171.433" y2="144.542" gradientUnits="userSpaceOnUse">
<stop stop-color="#F4D0C6"/>
<stop offset="1" stop-color="#F8E9E5"/>
</linearGradient>
<linearGradient id="paint20_linear_611_1297" x1="142.211" y1="161.333" x2="165.214" y2="161.333" gradientUnits="userSpaceOnUse">
<stop stop-color="#F4D0C6"/>
<stop offset="1" stop-color="#F8E9E5"/>
</linearGradient>
<linearGradient id="paint21_linear_611_1297" x1="142.933" y1="162.528" x2="165.214" y2="162.528" gradientUnits="userSpaceOnUse">
<stop stop-color="#F4D0C6"/>
<stop offset="1" stop-color="#F8E9E5"/>
</linearGradient>
<linearGradient id="paint22_linear_611_1297" x1="162.768" y1="52.6212" x2="191.669" y2="52.6212" gradientUnits="userSpaceOnUse">
<stop stop-color="#3354CC"/>
<stop offset="1" stop-color="#3354CC"/>
</linearGradient>
<linearGradient id="paint23_linear_611_1297" x1="144.721" y1="58.5562" x2="166.007" y2="58.5562" gradientUnits="userSpaceOnUse">
<stop stop-color="#3354CC"/>
<stop offset="1" stop-color="#3354CC"/>
</linearGradient>
<linearGradient id="paint24_linear_611_1297" x1="152.48" y1="29.8297" x2="178.632" y2="29.8297" gradientUnits="userSpaceOnUse">
<stop stop-color="#3354CC"/>
<stop offset="1" stop-color="#3354CC"/>
</linearGradient>
<linearGradient id="paint25_linear_611_1297" x1="111.052" y1="28.775" x2="128.362" y2="28.775" gradientUnits="userSpaceOnUse">
<stop stop-color="#3354CC"/>
<stop offset="1" stop-color="#3354CC"/>
</linearGradient>
<linearGradient id="paint26_linear_611_1297" x1="128.706" y1="33.6324" x2="142.316" y2="33.6324" gradientUnits="userSpaceOnUse">
<stop stop-color="#3354CC"/>
<stop offset="1" stop-color="#3354CC"/>
</linearGradient>
<linearGradient id="paint27_linear_611_1297" x1="143.56" y1="39.305" x2="152.551" y2="39.305" gradientUnits="userSpaceOnUse">
<stop stop-color="#3354CC"/>
<stop offset="1" stop-color="#3354CC"/>
</linearGradient>
<linearGradient id="paint28_linear_611_1297" x1="81.0935" y1="86.9329" x2="136.62" y2="86.9329" gradientUnits="userSpaceOnUse">
<stop stop-color="#3354CC"/>
<stop offset="1" stop-color="#3354CC"/>
</linearGradient>
<linearGradient id="paint29_linear_611_1297" x1="110.483" y1="73.9827" x2="132.851" y2="73.9827" gradientUnits="userSpaceOnUse">
<stop stop-color="#3354CC"/>
<stop offset="1" stop-color="#3354CC"/>
</linearGradient>
<linearGradient id="paint30_linear_611_1297" x1="86.9002" y1="88.6685" x2="125.589" y2="88.6685" gradientUnits="userSpaceOnUse">
<stop stop-color="#3354CC"/>
<stop offset="1" stop-color="#3354CC"/>
</linearGradient>
<linearGradient id="paint31_linear_611_1297" x1="93.175" y1="70.4185" x2="102.659" y2="70.4185" gradientUnits="userSpaceOnUse">
<stop stop-color="#3354CC"/>
<stop offset="1" stop-color="#3354CC"/>
</linearGradient>
</defs>
</svg>
