<svg width="221" height="264" viewBox="0 0 221 264" fill="none" xmlns="http://www.w3.org/2000/svg">
<path d="M217.324 120.58C210.363 153.541 192.813 183.321 173.572 203.146C153.975 223.141 132.688 233.181 110.017 230.602C87.3465 228.022 66.0589 214.041 46.4621 195.199C27.2215 176.186 9.67174 152.313 2.71084 126.01C-4.25006 99.7075 2.22124 75.2262 21.8181 55.2307C41.0581 35.4057 73.4242 20.0671 110.017 15.988C146.61 11.9089 178.976 20.5919 198.216 39.6047C217.813 58.4466 224.285 87.619 217.324 120.58Z" fill="#151E30"/>
<g opacity="0.3">
<path d="M75.0823 58.3654C75.189 58.7397 74.9978 59.1419 74.6288 59.2901C73.8217 59.6145 72.9885 59.9086 72.1525 60.1643C71.7457 60.2887 71.3151 60.0599 71.1908 59.6533C71.1893 59.6484 71.188 59.6436 71.1866 59.6388C71.0719 59.2365 71.3 58.8145 71.7019 58.6916C72.4963 58.4487 73.2877 58.1693 74.0544 57.8612C74.4489 57.7026 74.8976 57.8939 75.0561 58.2886C75.0664 58.3139 75.075 58.3396 75.0823 58.3654ZM68.6176 60.157C68.6258 60.186 68.6324 60.2159 68.6374 60.2464C68.7052 60.6662 68.4197 61.0616 68 61.1293C67.1375 61.2684 66.2607 61.372 65.3938 61.4372C64.9697 61.4691 64.6014 61.1526 64.568 60.727C64.5362 60.3029 64.8543 59.9334 65.2781 59.9015C66.1021 59.8395 66.9351 59.741 67.7547 59.6087C68.144 59.5459 68.5121 59.7869 68.6176 60.157ZM61.9191 60.4807C61.9427 60.5631 61.9526 60.651 61.9468 60.7414C61.9192 61.1658 61.5531 61.4877 61.1287 61.4603C60.2588 61.4043 59.3805 61.3096 58.5181 61.1789C58.0976 61.1148 57.809 60.7222 57.8722 60.3021C57.9359 59.8817 58.3286 59.5925 58.7489 59.6562C59.5678 59.7804 60.4017 59.8702 61.2279 59.9235C61.5618 59.945 61.8323 60.1763 61.9191 60.4807ZM55.3151 59.298C55.3539 59.4343 55.3556 59.5828 55.3121 59.7286C55.1906 60.1362 54.7615 60.3679 54.3541 60.2464C53.5182 59.9968 52.683 59.7082 51.8719 59.3885C51.4767 59.2323 51.2823 58.7854 51.4378 58.3896C51.5938 57.9941 52.041 57.7998 52.4367 57.9557C53.207 58.2593 54.0002 58.5336 54.7947 58.7705C55.0562 58.8487 55.2454 59.0535 55.3151 59.298ZM49.1407 56.6725C49.1952 56.8636 49.1761 57.0755 49.0708 57.2621C48.8618 57.6326 48.3921 57.7634 48.0218 57.5543C47.2641 57.1267 46.5137 56.6605 45.7923 56.1686C45.4407 55.9294 45.3498 55.4503 45.5895 55.0987C45.8291 54.7474 46.308 54.6566 46.6596 54.8961C47.3453 55.3637 48.0585 55.8067 48.7786 56.2131C48.9623 56.3168 49.0871 56.4845 49.1407 56.6725ZM43.7013 52.7469C43.7718 52.9944 43.717 53.2715 43.5314 53.4761C43.2455 53.7911 42.7587 53.8148 42.4436 53.5292C41.7981 52.9436 41.1695 52.3229 40.5758 51.6844C40.2862 51.3728 40.304 50.8857 40.6155 50.596C40.9267 50.3065 41.4141 50.3242 41.7037 50.6356C42.268 51.2423 42.8649 51.832 43.4783 52.3884C43.5888 52.4885 43.6632 52.6133 43.7013 52.7469ZM34.2013 26.114C34.2305 26.2166 34.2387 26.3266 34.222 26.4389C34.0993 27.2571 34.0107 28.0916 33.9589 28.9193C33.9323 29.3437 33.5667 29.6662 33.1425 29.6395C32.718 29.6131 32.3954 29.2475 32.4221 28.823C32.4766 27.9513 32.5697 27.0723 32.6988 26.2107C32.7619 25.79 33.154 25.5002 33.5745 25.5633C33.8829 25.6095 34.1211 25.8326 34.2013 26.114ZM39.27 47.7165C39.3576 48.0237 39.2468 48.3658 38.9703 48.5589C38.6216 48.8025 38.1416 48.7173 37.898 48.3688C37.3988 47.6543 36.9246 46.9093 36.4885 46.1546C36.2775 45.7854 36.4015 45.3153 36.7699 45.1025C37.1381 44.8898 37.6092 45.0159 37.8221 45.3842C38.236 46.101 38.6864 46.8083 39.1604 47.4869C39.2106 47.559 39.2472 47.6366 39.27 47.7165ZM33.9614 32.8177C33.9753 32.8666 33.9849 32.9176 33.9889 32.9702C34.0526 33.7957 34.1529 34.6292 34.2866 35.4478C34.355 35.8677 34.0703 36.2634 33.6507 36.332C33.231 36.4003 32.8333 36.1165 32.7666 35.6961C32.6261 34.8347 32.5205 33.9576 32.4533 33.0891C32.4207 32.665 32.7379 32.2946 33.1618 32.262C33.5329 32.2332 33.8631 32.4729 33.9614 32.8177ZM36.0734 41.8226C36.18 42.1963 35.9896 42.5979 35.6213 42.7468C35.2269 42.9062 34.7782 42.7156 34.6186 42.3214C34.2924 41.5141 33.9966 40.6818 33.74 39.8476C33.7382 39.8425 33.7367 39.8372 33.7352 39.8319C33.6206 39.4302 33.848 39.0088 34.2491 38.8852C34.6557 38.76 35.0866 38.988 35.2117 39.3945C35.4557 40.1868 35.7367 40.9773 36.0468 41.7444C36.0569 41.7702 36.066 41.7964 36.0734 41.8226Z" fill="#94A3BB" fill-opacity="0.5"/>
<path d="M35.4835 20.8635C35.5251 21.0093 35.5243 21.1689 35.4713 21.3233C35.3426 21.6989 35.2199 22.0835 35.1057 22.4664C34.9845 22.8739 34.5555 23.1061 34.1481 22.9848C33.7404 22.8636 33.5077 22.4347 33.6298 22.027C33.7495 21.6243 33.8788 21.2199 34.0142 20.8246C34.1519 20.4224 34.5899 20.2076 34.992 20.3454C35.2402 20.4303 35.4167 20.6292 35.4835 20.8635Z" fill="#94A3BB" fill-opacity="0.5"/>
</g>
<g opacity="0.3">
<path d="M51.1583 3.38566C51.2602 3.74308 51.0907 4.13157 50.7432 4.2938C50.3834 4.46157 50.0211 4.6398 49.6665 4.8235C49.2888 5.01907 48.8241 4.87147 48.6286 4.49388C48.4323 4.11461 48.5808 3.65145 48.9582 3.45588C49.3316 3.26263 49.7131 3.07487 50.0919 2.89807C50.4773 2.7183 50.9355 2.88491 51.1154 3.27025C51.1331 3.3081 51.1472 3.34672 51.1583 3.38566Z" fill="#94A3BB" fill-opacity="0.5"/>
<path d="M92.695 22.2993C92.7921 22.64 92.8838 22.9838 92.9702 23.3303C93.0728 23.743 92.8217 24.1609 92.409 24.2636C91.9963 24.3664 91.5764 24.1137 91.4755 23.7026C91.2763 22.9029 91.0451 22.113 90.7852 21.3462C90.6493 20.9429 90.8644 20.5063 91.2671 20.3698C91.6701 20.2331 92.1074 20.4491 92.2438 20.8519C92.4047 21.3262 92.5563 21.8132 92.695 22.2993ZM93.6808 27.3331C93.6926 27.3745 93.7011 27.4176 93.7059 27.4619C93.799 28.316 93.8568 29.1836 93.8778 30.0404C93.8882 30.4655 93.552 30.8186 93.1271 30.8291C92.7019 30.8394 92.3475 30.5027 92.3384 30.0781C92.3184 29.2643 92.2633 28.4401 92.1751 27.6285C92.129 27.2057 92.4345 26.8258 92.8571 26.7797C93.2356 26.7385 93.5798 26.979 93.6808 27.3331ZM90.68 17.1135C90.7795 17.4627 90.6203 17.8442 90.2838 18.0125C89.9032 18.2028 89.4408 18.0486 89.2504 17.6683C88.8866 16.9407 88.4866 16.2189 88.0609 15.5226C87.8398 15.1593 87.9537 14.6857 88.3165 14.464C88.6795 14.2422 89.1535 14.3567 89.3752 14.7197C89.8232 15.4529 90.2445 16.2132 90.6279 16.9793C90.6498 17.0231 90.667 17.0681 90.68 17.1135ZM93.6683 33.9362C93.6951 34.0302 93.7041 34.1309 93.6925 34.2339C93.5957 35.0868 93.4612 35.9459 93.2929 36.7871C93.2094 37.204 92.8039 37.4743 92.3869 37.3909C91.9696 37.3074 91.6992 36.9021 91.7829 36.4848C91.9427 35.6861 92.0704 34.8703 92.1623 34.0603C92.2101 33.6377 92.5917 33.334 93.0142 33.382C93.3336 33.4182 93.5853 33.6451 93.6683 33.9362ZM87.0931 11.5763C87.1748 11.8627 87.0854 12.1831 86.8401 12.3838C86.511 12.6531 86.0257 12.6046 85.7564 12.2754C85.2417 11.646 84.6925 11.0298 84.1245 10.4438C83.8285 10.1385 83.8359 9.65095 84.1415 9.35485C84.4469 9.05902 84.9342 9.06656 85.2301 9.37194C85.8282 9.98882 86.4064 10.6376 86.9485 11.3003C87.0171 11.3841 87.0652 11.4782 87.0931 11.5763ZM82.378 6.96007C82.4432 7.18904 82.4018 7.44496 82.2438 7.64672C81.9814 7.98143 81.4974 8.04018 81.1627 7.77781C80.5206 7.2748 79.85 6.79287 79.1695 6.34558C78.8137 6.11248 78.7148 5.6352 78.9486 5.27927C79.1822 4.9238 79.6596 4.82508 80.0151 5.05856C80.7314 5.52933 81.4371 6.03633 82.1126 6.56584C82.2455 6.66991 82.3349 6.80913 82.378 6.96007ZM76.7686 3.48164C76.8183 3.6558 76.807 3.84788 76.7228 4.02424C76.5398 4.40796 76.0801 4.57064 75.6963 4.38745C74.9596 4.03578 74.2002 3.71138 73.4387 3.42328C73.0412 3.27285 72.8404 2.82878 72.9912 2.43055C73.1418 2.0329 73.586 1.83243 73.984 1.98293C74.7852 2.28618 75.5846 2.62754 76.3598 2.99752C76.5672 3.09663 76.7101 3.27653 76.7686 3.48164ZM70.5346 1.30944C70.569 1.43008 70.5744 1.56072 70.5444 1.69167C70.4497 2.10622 70.0368 2.3653 69.6222 2.27051C68.8269 2.08849 68.015 1.93857 67.2087 1.8247C66.7876 1.76518 66.4944 1.37514 66.5537 0.954735C66.6132 0.533552 67.0028 0.240362 67.4239 0.299876C68.2731 0.419745 69.1283 0.57772 69.9655 0.769225C70.2493 0.834285 70.4601 1.0481 70.5346 1.30944ZM63.9733 0.558569C63.9926 0.626402 64.0028 0.698105 64.0026 0.772128C64.0015 1.19731 63.6558 1.54124 63.2307 1.54002C62.4169 1.53796 61.5922 1.57052 60.7793 1.63719C60.3553 1.67188 59.9838 1.35509 59.949 0.932617C59.9142 0.508726 60.2298 0.136936 60.6537 0.102245C61.5095 0.0321557 62.3777 -0.00221109 63.2344 0.000110182C63.5856 0.0010129 63.8816 0.236879 63.9733 0.558569ZM57.4117 1.26695C57.416 1.28216 57.4198 1.29764 57.4233 1.31318C57.5148 1.72843 57.2522 2.13936 56.837 2.23073C56.2507 2.35988 55.6616 2.50863 55.0854 2.67293C54.8768 2.73238 54.6693 2.79422 54.4631 2.85786C54.0567 2.98327 53.6255 2.75559 53.5002 2.34924C53.3652 1.94031 53.6024 1.51184 54.0086 1.38636C54.2256 1.3193 54.4436 1.2545 54.6631 1.19189C55.2691 1.01908 55.8891 0.862593 56.5057 0.726863C56.9055 0.638719 57.301 0.878647 57.4117 1.26695Z" fill="#94A3BB" fill-opacity="0.5"/>
<path d="M92.1957 40.3931C92.2377 40.5404 92.2364 40.7013 92.1824 40.8567C92.0454 41.2505 91.8975 41.6487 91.7428 42.0405C91.5866 42.4362 91.1392 42.6302 90.7438 42.474C90.3483 42.3176 90.1539 41.8708 90.3103 41.475C90.4573 41.1028 90.5977 40.7244 90.7279 40.3506C90.8674 39.9491 91.3064 39.7367 91.7081 39.8765C91.9543 39.9621 92.1293 40.1603 92.1957 40.3931Z" fill="#94A3BB" fill-opacity="0.5"/>
</g>
<path d="M83.3217 41.8402C83.4095 41.7142 83.4077 41.5464 83.3172 41.4223L80.7361 37.8833C81.492 35.9825 81.9503 33.9474 82.0625 31.8453L85.8853 29.7127C86.0194 29.6379 86.0912 29.4862 86.0643 29.3351L85.1402 24.1628C85.1131 24.0116 84.9932 23.8943 84.8416 23.8705L80.5168 23.1936C79.6836 21.2603 78.549 19.5099 77.1815 17.9885L78.3775 13.7746C78.4194 13.6269 78.363 13.4689 78.2371 13.3811L73.9263 10.3771C73.8003 10.2893 73.6325 10.2911 73.5085 10.3816L69.9695 12.9628C68.0687 12.2068 66.0335 11.7486 63.9314 11.6364L61.7988 7.81347C61.724 7.67942 61.5724 7.60752 61.4212 7.63454L56.2489 8.55867C56.0978 8.58562 55.9804 8.70561 55.9567 8.85727L55.2798 13.1821C53.3465 14.0153 51.596 15.1498 50.0746 16.5173L45.8606 15.3213C45.713 15.2795 45.5549 15.3358 45.4672 15.4618L42.4633 19.7726C42.3754 19.8986 42.3773 20.0663 42.4677 20.1904L45.0489 23.7294C44.2929 25.6302 43.8347 27.6653 43.7225 29.7675L39.8996 31.9001C39.7655 31.9749 39.6936 32.1265 39.7206 32.2777L40.6448 37.45C40.6717 37.6011 40.7916 37.7185 40.9434 37.7422L45.2682 38.4191C46.1013 40.3525 47.236 42.1029 48.6035 43.6243L47.4075 47.8382C47.3655 47.9859 47.422 48.144 47.5479 48.2317L51.8587 51.2356C51.9847 51.3234 52.1525 51.3216 52.2766 51.2312L55.8156 48.65C57.7164 49.406 59.7515 49.8642 61.8536 49.9764L63.9863 53.7993C64.061 53.9334 64.2127 54.0053 64.3639 53.9782L69.5361 53.0541C69.6872 53.0271 69.8046 52.9072 69.8284 52.7555L70.5054 48.4307C72.4386 47.5975 74.189 46.4629 75.7105 45.0955L79.9244 46.2914C80.0721 46.3334 80.2301 46.277 80.318 46.151L83.3217 41.8402Z" fill="#1E2B3B"/>
<path d="M67.9733 29.3606C68.6793 31.8364 67.481 34.5288 65.0663 35.619C62.4119 36.8173 59.2779 35.6328 58.0795 32.9787C57.4986 31.6929 57.4539 30.2579 57.9526 28.9386C58.4511 27.619 59.4339 26.5725 60.7197 25.9921C63.3742 24.7937 66.5081 25.9783 67.7065 28.6324C67.8145 28.8717 67.9034 29.1152 67.9733 29.3606ZM58.9959 31.9078C59.0505 32.099 59.1191 32.2873 59.2024 32.4718C60.121 34.5068 62.5244 35.4148 64.5592 34.4962C66.5942 33.5774 67.5034 31.1745 66.5837 29.1393C65.6651 27.1043 63.2618 26.1962 61.2269 27.1149C60.241 27.56 59.4876 28.3622 59.1051 29.3741C58.7945 30.1964 58.7591 31.0775 58.9959 31.9078Z" fill="white" fill-opacity="0.1"/>
<path d="M75.2796 27.1682C75.4008 27.5934 75.5014 28.0272 75.5802 28.4684C75.6051 28.6072 75.6276 28.7465 75.6481 28.8861C75.7483 29.5746 75.7937 30.2699 75.7834 30.9614C75.7833 30.9708 75.7832 30.9802 75.783 30.9896C75.7825 31.0164 75.782 31.0431 75.7812 31.0699C75.7801 31.122 75.7784 31.1741 75.7767 31.226C75.7719 31.3628 75.6786 31.4756 75.5537 31.5114C75.5233 31.52 75.491 31.5241 75.4578 31.5229C75.2878 31.5169 75.1554 31.3739 75.1611 31.2042C75.1923 30.3294 75.1292 29.4454 74.9737 28.5768C74.2035 24.2616 71.2689 20.8672 67.4883 19.3101C65.3855 18.4439 63.0208 18.1462 60.6209 18.5751C60.2 18.6503 59.786 18.7461 59.3805 18.8619C56.6511 19.6404 54.2921 21.32 52.6477 23.6801C50.7586 26.3909 50.0382 29.6754 50.6194 32.9278C51.8202 39.6452 58.258 44.1292 64.9722 42.9295C65.3862 42.8556 65.7949 42.7609 66.1967 42.6462C67.9377 42.1495 69.5507 41.2774 70.9168 40.0867C70.9521 40.0559 70.9924 40.0346 71.0346 40.0227C71.1457 39.991 71.2703 40.0235 71.3513 40.1165C71.4627 40.2452 71.4502 40.4392 71.3214 40.5512C69.8871 41.8012 68.1937 42.7171 66.3659 43.2385C65.9442 43.3589 65.5152 43.4582 65.0807 43.536C58.0313 44.7955 51.272 40.0831 50.0128 33.0363C49.4026 29.6216 50.159 26.1738 52.1422 23.3279C53.8685 20.8502 56.3451 19.087 59.2103 18.2696C59.6362 18.1481 60.0707 18.0476 60.5123 17.9686C63.9272 17.3585 67.3751 18.1147 70.221 20.0978C72.6992 21.8247 74.4624 24.3021 75.2796 27.1682Z" fill="white" fill-opacity="0.1"/>
<g opacity="0.3">
<path d="M44.6705 100.912C44.4757 101.043 44.211 101.036 44.0216 100.878C43.6678 100.584 43.3182 100.275 42.9825 99.9591C42.7643 99.7542 42.7537 99.4113 42.9587 99.1927C43.1632 98.9734 43.5069 98.964 43.7251 99.1689C44.045 99.4695 44.3782 99.7643 44.7157 100.046C44.9457 100.237 44.9767 100.579 44.7854 100.809C44.7514 100.85 44.7125 100.884 44.6705 100.912Z" fill="#94A3BB" fill-opacity="0.5"/>
<path d="M41.7238 97.9598C41.4956 98.1129 41.1839 98.0713 41.005 97.8554C40.4989 97.2454 40.0185 96.6024 39.5772 95.9446C39.4843 95.8061 39.3927 95.666 39.302 95.5247C39.1406 95.2722 39.2336 94.9375 39.4659 94.7753C39.7181 94.6138 40.0534 94.6873 40.215 94.9391C40.3015 95.0743 40.389 95.2081 40.4778 95.3405C40.8988 95.968 41.357 96.5813 41.8393 97.1631C42.0307 97.3937 41.9987 97.7352 41.7685 97.9267C41.7538 97.9384 41.7389 97.9497 41.7238 97.9598ZM38.6873 93.2191C38.666 93.2334 38.6433 93.2467 38.6197 93.2581C38.3495 93.3876 38.0256 93.274 37.8959 93.004C37.4796 92.1381 37.1134 91.2386 36.8078 90.3311C36.712 90.0472 36.8663 89.7397 37.1485 89.6442C37.4325 89.5486 37.7396 89.701 37.8354 89.9848C38.1271 90.8508 38.4764 91.7086 38.8733 92.5345C38.9914 92.7805 38.9076 93.0713 38.6873 93.2191ZM36.8911 87.8837C36.834 87.922 36.7686 87.9499 36.6971 87.9647C36.4037 88.0244 36.1175 87.8345 36.0579 87.5411C35.8672 86.601 35.7329 85.6385 35.6599 84.6808C35.6369 84.3818 35.8599 84.122 36.1594 84.099C36.4577 84.0761 36.7183 84.2997 36.7412 84.5981C36.811 85.5115 36.9386 86.4289 37.1208 87.3255C37.1656 87.5471 37.0681 87.7649 36.8911 87.8837ZM36.4616 82.2697C36.3683 82.3322 36.255 82.3662 36.1345 82.3609C35.8354 82.3466 35.6041 82.0925 35.6183 81.7935C35.6638 80.8334 35.7694 79.868 35.9322 78.9236C35.9833 78.6285 36.2643 78.4311 36.5587 78.4817C36.8537 78.5324 37.0517 78.8128 37.0009 79.1083C36.8455 80.0082 36.7449 80.9294 36.7016 81.8447C36.6931 82.0232 36.5994 82.1772 36.4616 82.2697ZM37.4162 76.7212C37.286 76.8085 37.119 76.8389 36.9571 76.79C36.6706 76.7036 36.5085 76.4011 36.5947 76.1143C36.8723 75.1955 37.209 74.285 37.5958 73.4083C37.7163 73.1336 38.0367 73.01 38.3107 73.1309C38.5848 73.2519 38.709 73.5721 38.5881 73.8457C38.219 74.6824 37.8977 75.5509 37.6332 76.4277C37.5954 76.5525 37.5167 76.6538 37.4162 76.7212ZM39.6883 71.5732C39.5197 71.6863 39.2938 71.6994 39.1077 71.5884C38.8508 71.4349 38.7672 71.1021 38.9205 70.8449C39.4129 70.0211 39.9615 69.2202 40.5511 68.4652C40.7367 68.2291 41.0763 68.1874 41.3123 68.3715C41.5483 68.5556 41.5902 68.8967 41.406 69.1324C40.8438 69.8526 40.321 70.6158 39.8515 71.4012C39.809 71.4724 39.7527 71.53 39.6883 71.5732ZM43.1491 67.1382C42.9381 67.2798 42.6496 67.2571 42.4637 67.0706C42.2523 66.8586 42.2528 66.5153 42.4647 66.3037C43.1419 65.6281 43.8706 64.9863 44.6304 64.3957C44.8705 64.2155 45.2081 64.255 45.3915 64.4915C45.5753 64.7279 45.5324 65.0684 45.2962 65.2524C44.571 65.8153 43.8761 66.4275 43.2304 67.0716C43.205 67.0969 43.1777 67.119 43.1491 67.1382ZM50.1018 62.3916C50.0759 62.409 50.0478 62.4246 50.018 62.4376C49.2946 62.7564 48.576 63.1205 47.882 63.5197C47.7765 63.5796 47.6737 63.6397 47.5719 63.7009C47.3146 63.8544 46.9819 63.7709 46.8282 63.5138C46.6738 63.2565 46.7548 62.9152 47.015 62.77C47.1239 62.7052 47.2329 62.6411 47.3435 62.5783C48.0687 62.1614 48.822 61.7798 49.5807 61.4456C49.8548 61.3248 50.1746 61.449 50.2953 61.7231C50.4031 61.9671 50.3162 62.2478 50.1018 62.3916Z" fill="#94A3BB" fill-opacity="0.5"/>
</g>
<g opacity="0.3">
<path d="M72.3233 102.148C72.0775 102.313 71.7438 102.25 71.575 102.005C71.4051 101.759 71.4669 101.421 71.7135 101.251C72.4556 100.74 73.1728 100.178 73.8451 99.5825C74.0696 99.3873 74.4119 99.4044 74.6106 99.6288C74.8092 99.8532 74.7881 100.196 74.5643 100.394C73.8589 101.019 73.1073 101.608 72.3294 102.144C72.3275 102.145 72.3253 102.147 72.3233 102.148ZM69.9494 103.583C69.9331 103.594 69.9164 103.604 69.8988 103.613C69.0633 104.052 68.1925 104.445 67.3109 104.781C67.0308 104.887 66.7178 104.747 66.6114 104.467C66.5044 104.187 66.647 103.874 66.9248 103.767C67.7662 103.447 68.597 103.072 69.3945 102.653C69.6593 102.514 69.9872 102.616 70.1264 102.881C70.2568 103.129 70.1763 103.431 69.9494 103.583ZM76.4667 98.4763C76.267 98.6102 75.9949 98.5989 75.806 98.4323C75.5818 98.2345 75.5602 97.8919 75.7583 97.6673C76.3547 96.9905 76.9151 96.2723 77.4236 95.5314C77.5946 95.2848 77.9307 95.2219 78.1776 95.3917C78.4244 95.5609 78.4872 95.8987 78.3177 96.1456C77.7846 96.9221 77.197 97.6752 76.5715 98.3842C76.5397 98.4203 76.5045 98.4508 76.4667 98.4763ZM64.7711 105.55C64.7199 105.585 64.662 105.611 64.5985 105.627C63.6813 105.852 62.7408 106.024 61.8036 106.135C61.5062 106.171 61.2364 105.958 61.2008 105.661C61.1658 105.364 61.3781 105.094 61.675 105.058C62.5687 104.952 63.4651 104.789 64.3397 104.574C64.6304 104.502 64.9243 104.68 64.9956 104.971C65.0514 105.198 64.9549 105.427 64.7711 105.55ZM79.5992 93.912C79.4398 94.0189 79.2284 94.0378 79.0465 93.943C78.7805 93.8045 78.6775 93.4771 78.8157 93.2116C79.2314 92.4137 79.6025 91.5821 79.9185 90.7389C80.0236 90.458 80.3364 90.3164 80.6168 90.4217C80.8972 90.5269 81.0393 90.8396 80.9341 91.1199C80.6024 92.0036 80.2135 92.8758 79.7779 93.7126C79.7343 93.7959 79.672 93.8632 79.5992 93.912ZM81.5456 88.7294C81.4235 88.8112 81.2691 88.8434 81.1154 88.8062C80.8244 88.7355 80.6456 88.4423 80.7164 88.1513C80.9291 87.2747 81.0907 86.3777 81.1964 85.4855C81.2317 85.1878 81.5017 84.9754 81.7987 85.0108C82.096 85.0459 82.3083 85.3154 82.2731 85.6126C82.1623 86.5482 81.9933 87.4885 81.7703 88.4071C81.7369 88.5442 81.6542 88.6565 81.5456 88.7294ZM82.1943 83.2293C82.1085 83.2868 82.0057 83.3207 81.8945 83.3208C81.595 83.322 81.3514 83.08 81.3503 82.7804C81.3476 81.8787 81.2891 80.9692 81.1765 80.0775C81.1395 79.781 81.3497 79.5093 81.6467 79.4721C81.9439 79.4347 82.215 79.6449 82.2526 79.9423C82.3702 80.8772 82.4318 81.8311 82.4351 82.777C82.4356 82.9654 82.3398 83.1316 82.1943 83.2293Z" fill="#505050"/>
<path d="M59.2459 106.207C59.1591 106.266 59.0546 106.299 58.942 106.299C58.478 106.297 58.0119 106.282 57.5566 106.253C57.2578 106.234 57.0306 105.976 57.0494 105.678C57.0691 105.379 57.326 105.152 57.6249 105.17C58.0591 105.198 58.5038 105.213 58.9467 105.215C59.2462 105.216 59.4879 105.46 59.4866 105.759C59.4856 105.946 59.3904 106.111 59.2459 106.207Z" fill="#505050"/>
</g>
<path d="M55.7181 100.139C55.8301 100.173 55.9515 100.133 56.0202 100.038L57.9824 97.3331C59.5395 97.4351 61.1242 97.2896 62.6763 96.8771L65.1224 99.1505C65.2081 99.2303 65.3351 99.2468 65.4384 99.1917L68.9752 97.3058C69.0786 97.2506 69.1356 97.136 69.1172 97.0203L68.5923 93.7224C69.7997 92.6634 70.8036 91.4287 71.5865 90.0788L74.9259 89.9567C75.0429 89.9524 75.1444 89.8743 75.1785 89.7622L76.3458 85.9278C76.3799 85.8157 76.3392 85.6943 76.2444 85.6256L73.5395 83.6635C73.6416 82.1063 73.496 80.5216 73.0835 78.9696L75.357 76.5235C75.4368 76.4377 75.4533 76.3108 75.3982 76.2075L73.5122 72.6706C73.4571 72.5672 73.3425 72.5102 73.2268 72.5287L69.9289 73.0535C68.87 71.8461 67.6352 70.8423 66.2853 70.0594L66.1632 66.7199C66.1589 66.603 66.0809 66.5015 65.9689 66.4674L62.1344 65.3C62.0224 65.2659 61.901 65.3067 61.8322 65.4015L59.8701 68.1064C58.3129 68.0043 56.7282 68.1499 55.1761 68.5624L52.73 66.2888C52.6443 66.2091 52.5174 66.1925 52.4139 66.2476L48.8771 68.1336C48.7737 68.1887 48.7168 68.3033 48.7352 68.419L49.26 71.7169C48.0526 72.7758 47.0488 74.0106 46.2658 75.3606L42.9265 75.4826C42.8094 75.4869 42.7079 75.565 42.6739 75.677L41.5065 79.5115C41.4725 79.6235 41.5131 79.7449 41.608 79.8137L44.3128 81.7758C44.2107 83.333 44.3563 84.9177 44.7688 86.4698L42.4953 88.9158C42.4156 89.0015 42.399 89.1285 42.4542 89.2319L44.3401 92.7687C44.3953 92.872 44.5098 92.929 44.6255 92.9107L47.9234 92.3858C48.9824 93.5931 50.2171 94.597 51.5669 95.3799L51.6891 98.7193C51.6933 98.8364 51.7714 98.9378 51.8835 98.972L55.7181 100.139Z" fill="#1E2B3B"/>
<path d="M61.2035 86.1334C60.4771 86.6206 59.6172 86.8614 58.7277 86.8185C57.6336 86.7657 56.6254 86.2898 55.8891 85.4786C54.3692 83.8049 54.4945 81.2062 56.1685 79.6855C57.8479 78.1663 60.4423 78.291 61.9622 79.9653C62.6988 80.7764 63.0752 81.8258 63.0222 82.9197C62.9696 84.0141 62.4938 85.0224 61.6822 85.7587C61.5306 85.8962 61.3705 86.0214 61.2035 86.1334ZM57.2464 80.2154C57.1253 80.2967 57.0088 80.3876 56.8975 80.4884C55.6662 81.607 55.574 83.5184 56.6922 84.75C57.2337 85.3463 57.9754 85.6968 58.78 85.7354C59.5852 85.7742 60.3564 85.4967 60.9537 84.9558C61.5502 84.4141 61.9004 83.6723 61.9393 82.8677C61.9781 82.0626 61.7011 81.2907 61.1593 80.6939C60.1422 79.5736 58.4678 79.3961 57.2464 80.2154Z" fill="white" fill-opacity="0.1"/>
<path d="M64.6401 91.1159C64.3552 91.307 64.0582 91.4851 63.7494 91.6502C63.136 91.9775 62.4886 92.2427 61.8235 92.439C61.7936 92.4475 61.7636 92.4562 61.7337 92.4648C61.502 92.5309 61.2626 92.4359 61.135 92.246C61.104 92.1999 61.0797 92.148 61.0637 92.0918C60.9816 91.8039 61.1495 91.505 61.4367 91.4221C62.0593 91.2449 62.6655 90.9995 63.2387 90.6935L63.239 90.6934C63.2705 90.6767 63.3019 90.6594 63.333 90.6424C64.683 89.9058 65.7984 88.8605 66.6107 87.6016C67.0515 86.9182 67.4029 86.1712 67.653 85.3754C67.6551 85.3689 67.6571 85.3625 67.6592 85.356C67.6652 85.3359 67.6716 85.3164 67.6774 85.2966C68.3873 82.9637 68.1468 80.4938 66.9993 78.3421C66.851 78.0635 66.6896 77.7949 66.5162 77.5364C65.3491 75.797 63.6334 74.5224 61.6023 73.9038C59.2694 73.1938 56.7998 73.4349 54.6483 74.5822C52.4985 75.7296 50.9204 77.6463 50.2099 79.9789C49.4998 82.3118 49.7405 84.7817 50.8879 86.9334C51.0337 87.2073 51.1933 87.4727 51.3649 87.7286C52.1096 88.8383 53.0884 89.7725 54.235 90.461C54.3056 90.5035 54.3631 90.5592 54.406 90.6237C54.5193 90.7925 54.5324 91.0189 54.4206 91.2049C54.2657 91.4611 53.9336 91.545 53.6763 91.3904C52.3935 90.62 51.298 89.5746 50.4649 88.3336C50.2726 88.0469 50.0943 87.7502 49.9309 87.444C48.6471 85.0362 48.3778 82.2731 49.1725 79.6629C49.9672 77.0532 51.7282 74.9079 54.1377 73.6253C56.5451 72.3414 59.308 72.0719 61.9182 72.8669C64.1905 73.5583 66.1098 74.9844 67.4155 76.9305C67.6093 77.2194 67.7901 77.5202 67.9561 77.8316C70.4413 82.4925 68.9358 88.2345 64.6401 91.1159Z" fill="white" fill-opacity="0.1"/>
<path d="M56.9118 144.998L39.2365 195.433L20 227.498L86 263.998L97.1929 242.333L109.853 217.363L137.408 200.239L154 153.92L56.9118 144.998Z" fill="#1E2B3B"/>
<path d="M100.804 230.723L106.785 214.564L136.385 195.868H111.411L101.686 212.14L79.6982 230.723H100.804Z" fill="#1E2B3B"/>
<path d="M174.975 94.0579L116.062 128.071L106.429 111.386L165.342 77.3731C169.949 74.7132 175.841 76.2919 178.5 80.8991C181.161 85.5064 179.582 91.3975 174.975 94.0579Z" fill="#1E2B3B"/>
<path d="M178.501 80.8965C178.357 80.6475 178.202 80.409 178.04 80.1777C178.6 83.9715 176.851 87.8949 173.327 89.9293L114.415 123.942L106.98 111.066L106.429 111.384L116.062 128.068L174.975 94.0548C179.582 91.3949 181.161 85.5038 178.501 80.8965Z" fill="#1E2B3B"/>
<path d="M135.734 195.877H81.9093C74.4082 195.877 68.327 189.797 68.327 182.295V44.0651C68.327 36.5641 74.4077 30.4829 81.9093 30.4829H135.734C143.235 30.4829 149.316 36.5636 149.316 44.0651V182.295C149.316 189.796 143.236 195.877 135.734 195.877Z" fill="#25272B" fill-opacity="0.85"/>
<path d="M149.37 42.8887H68.2715V176.341H149.37V42.8887Z" fill="#475569"/>
<path d="M126.464 37.9574H91.1773C90.5133 37.9574 89.9747 37.4189 89.9747 36.7548C89.9747 36.0908 90.5133 35.5522 91.1773 35.5522H126.464C127.128 35.5522 127.666 36.0908 127.666 36.7548C127.666 37.4189 127.128 37.9574 126.464 37.9574Z" fill="white" fill-opacity="0.1"/>
<path d="M136.139 187.201C136.139 187.473 135.916 187.696 135.643 187.696H132.008C131.735 187.696 131.512 187.473 131.512 187.201V183.566C131.512 183.293 131.735 183.07 132.008 183.07H135.643C135.916 183.07 136.139 183.293 136.139 183.566V187.201Z" stroke="white" stroke-opacity="0.31" stroke-width="0.9519" stroke-miterlimit="10"/>
<path d="M85.7266 187.494C85.7266 187.767 85.5364 187.873 85.3047 187.73L81.926 185.647C81.6938 185.504 81.6938 185.27 81.926 185.127L85.3047 183.044C85.537 182.901 85.7266 183.007 85.7266 183.279V187.494Z" stroke="white" stroke-opacity="0.31" stroke-width="0.9519" stroke-miterlimit="10"/>
<path d="M111.412 185.381C111.412 186.658 110.377 187.694 109.099 187.694C107.821 187.694 106.786 186.658 106.786 185.381C106.786 184.104 107.822 183.068 109.099 183.068C110.377 183.068 111.412 184.104 111.412 185.381Z" stroke="white" stroke-opacity="0.31" stroke-width="0.9519" stroke-miterlimit="10"/>
<path d="M102.316 152.793L69.1921 136.337C63.966 133.741 57.6463 135.001 53.815 139.403L46.8635 147.391C43.0828 151.736 41 157.301 41 163.061V204.729L57.352 181.988L60.7614 171.327L63.1999 173.448L71.5426 163.861L91.6013 173.821C97.3601 176.68 104.469 174.582 107.486 168.904C110.615 163.012 108.251 155.74 102.316 152.793Z" fill="#1E2B3B"/>
<path d="M96.8046 164.388L84.3479 157.972L87.2773 152.285L101.9 159.817C102.873 160.318 103.255 161.512 102.754 162.484C101.637 164.653 98.9733 165.505 96.8046 164.388Z" fill="#94A3BB" fill-opacity="0.5"/>
<path d="M165.694 125.89L154.222 132.513C148.723 135.688 141.692 133.804 138.518 128.306C135.343 122.807 137.227 115.776 142.725 112.602L154.198 105.978C159.696 102.804 166.727 104.687 169.902 110.186C173.076 115.684 171.193 122.715 165.694 125.89Z" fill="#1E2B3B"/>
<path d="M151.306 129.263C147.609 131.435 142.851 130.199 140.679 126.501C138.507 122.804 139.744 118.046 143.441 115.874C147.139 113.702 155.004 127.091 151.306 129.263Z" fill="#94A3BB" fill-opacity="0.5"/>
<path d="M169.903 110.171C169.549 109.558 169.145 108.992 168.701 108.47C170.535 113.599 168.506 119.462 163.621 122.282L152.149 128.906C147.264 131.726 141.172 130.551 137.647 126.399C137.877 127.043 138.165 127.676 138.519 128.29C141.694 133.789 148.725 135.673 154.223 132.498L165.696 125.875C171.194 122.7 173.078 115.67 169.903 110.171Z" fill="#1E2B3B"/>
<path d="M144.455 136.589L154.958 130.525C160.457 127.351 167.254 128.83 170.141 133.829C173.027 138.829 170.909 145.455 165.411 148.629L154.907 154.693C149.409 157.868 142.612 156.389 139.725 151.389C136.839 146.39 138.956 139.764 144.455 136.589Z" fill="#1E2B3B"/>
<path d="M152.271 151.49C148.574 153.662 143.924 152.608 141.884 149.137C139.845 145.665 141.189 141.09 144.886 138.919C148.583 136.747 155.968 149.318 152.271 151.49Z" fill="#94A3BB" fill-opacity="0.5"/>
<path d="M170.143 133.828C169.915 133.434 169.656 133.07 169.382 132.721C170.737 137.346 168.513 142.675 163.757 145.421L153.253 151.485C148.188 154.41 142.028 153.376 138.831 149.288C139.043 150.009 139.338 150.714 139.727 151.388C142.614 156.387 149.41 157.866 154.909 154.692L165.413 148.627C170.911 145.453 173.029 138.827 170.143 133.828Z" fill="#1E2B3B"/>
<path d="M146.2 156.67L153.431 152.495C157.216 150.309 162.03 151.56 164.182 155.288C166.335 159.016 165.011 163.81 161.226 165.996L153.994 170.17C150.209 172.356 145.395 171.105 143.243 167.377C141.091 163.649 142.414 158.855 146.2 156.67Z" fill="#1E2B3B"/>
<path d="M153.046 168.25C150.123 169.967 146.447 169.134 144.835 166.39C143.223 163.646 144.286 160.03 147.208 158.313C150.13 156.596 155.968 166.533 153.046 168.25Z" fill="#94A3BB" fill-opacity="0.5"/>
<path d="M164.182 155.293C163.861 154.738 163.476 154.245 163.05 153.803C164.74 157.43 163.368 161.837 159.784 163.906L152.552 168.081C149.33 169.941 145.37 169.305 142.933 166.778C143.028 166.982 143.127 167.184 143.242 167.383C145.395 171.111 150.208 172.362 153.993 170.176L161.225 166.001C165.011 163.816 166.335 159.022 164.182 155.293Z" fill="#1E2B3B"/>
<path d="M153.999 43.1752C153.999 43.1752 154.778 53.7105 161.727 53.9033C168.677 54.096 175.732 52.3537 177.999 55.002C177.999 55.002 173.021 35.1002 155.179 39.6889L153.999 43.1752Z" fill="#1E2B3B"/>
<path d="M139.847 44.0918C139.847 44.0918 138.097 51.0344 139.666 52.7352C141.159 54.3529 155.066 59.2926 156.42 59.7708C156.481 59.7923 156.544 59.757 156.568 59.6908C156.766 59.1429 156.719 58.524 156.44 58.022C155.095 55.5972 151.022 48.3956 149.167 46.6602C146.926 44.5645 139.847 44.0918 139.847 44.0918Z" fill="#1E2B3B"/>
<path opacity="0.68" d="M151.758 57.0951C151.723 57.1164 151.681 57.1221 151.64 57.1066C151.564 57.078 143.989 54.2253 140.771 52.8549C140.198 52.611 139.807 52.0117 139.775 51.3284C139.713 50.0113 139.699 48.0344 139.983 46.0941C139.996 46.0038 140.072 45.9423 140.153 45.9574C140.234 45.9723 140.289 46.0576 140.276 46.1479C139.981 48.1598 140.021 50.2462 140.071 51.3107C140.097 51.8632 140.413 52.3478 140.877 52.5448C144.089 53.9129 151.659 56.7638 151.735 56.7923C151.812 56.8213 151.854 56.9154 151.828 57.0024C151.815 57.0436 151.79 57.0758 151.758 57.0951Z" fill="white" fill-opacity="0.1"/>
<path d="M145.456 28.5503C145.456 28.5503 148.506 22.1958 150.69 22.1929C152.768 22.1901 165.837 29.4526 167.107 30.1613C167.164 30.1931 167.188 30.2678 167.164 30.334C166.966 30.8819 166.548 31.2905 166.036 31.435C163.564 32.1328 156.164 34.1453 153.753 33.9506C150.841 33.7155 145.456 28.5503 145.456 28.5503Z" fill="#1E2B3B"/>
<path opacity="0.68" d="M162.019 28.6633C161.979 28.6879 161.929 28.6913 161.885 28.6676C161.812 28.6289 154.599 24.793 151.439 23.2785C150.983 23.0598 150.455 23.1621 150.093 23.5395C149.396 24.2662 148.073 25.7357 147.036 27.4121C146.99 27.4884 146.897 27.506 146.83 27.4541C146.763 27.4021 146.746 27.2988 146.793 27.2235C147.845 25.5215 149.186 24.0328 149.891 23.2967C150.339 22.8306 150.993 22.7037 151.556 22.9734C154.721 24.4905 161.939 28.3295 162.012 28.3678C162.086 28.4072 162.117 28.5061 162.082 28.5887C162.068 28.6217 162.046 28.6472 162.019 28.6633Z" fill="white" fill-opacity="0.1"/>
<path d="M119.809 34.9293C122.207 37.1873 125.147 39.3274 128.702 40.949C139.741 45.9839 148.633 47.5475 151.171 47.9163C151.631 47.9831 152.082 47.7582 152.355 47.3391C154.503 44.0368 155.854 40.37 156.414 36.3406C156.52 35.5827 156.232 34.8217 155.679 34.3692C153.277 32.406 146.077 26.8994 135.489 22.1503C131.952 20.5638 128.534 19.8159 125.427 19.5693C121.683 25.0082 120.37 31.3112 119.809 34.9293Z" fill="#475569"/>
<path d="M125.427 19.5692C118.564 19.0246 113.218 20.9288 111.458 21.6601C111.114 21.8029 110.955 22.2434 111.114 22.6136C111.923 24.5013 114.571 29.9969 119.809 34.9293C120.37 31.3112 121.683 25.0081 125.427 19.5692Z" fill="#1E2B3B"/>
<path d="M133.612 25.0086C136.474 26.3035 137.789 30.1412 136.547 33.5803C135.306 37.0195 131.978 38.7579 129.116 37.4629C126.253 36.168 124.939 32.3303 126.181 28.8912C127.422 25.452 130.749 23.7138 133.612 25.0086Z" fill="url(#paint0_linear_519_2961)"/>
<path d="M133.074 26.0333C135.355 27.0651 136.402 30.123 135.413 32.8633C134.423 35.6037 131.772 36.9888 129.491 35.957C127.21 34.9253 126.163 31.8673 127.152 29.127C128.142 26.3867 130.793 25.0017 133.074 26.0333Z" fill="#1F2025"/>
<path d="M129.26 34.1226C129.209 34.1537 129.144 34.1495 129.096 34.1059C127.867 32.9905 127.44 31.0158 128.058 29.3042C128.214 28.8726 128.427 28.4759 128.691 28.1257C128.744 28.0559 128.837 28.0468 128.9 28.106C128.962 28.1649 128.97 28.2696 128.917 28.3395C128.673 28.6632 128.477 29.0293 128.333 29.4286C127.763 31.0064 128.154 32.8239 129.283 33.8482C129.346 33.906 129.356 34.0103 129.304 34.0812C129.292 34.0989 129.277 34.1125 129.26 34.1226Z" fill="#8A939A"/>
<path d="M143.266 31.8305C145.158 32.6859 146.026 35.2213 145.206 37.4933C144.385 39.7653 142.187 40.9137 140.296 40.0582C138.405 39.2028 137.537 36.6674 138.357 34.3954C139.177 32.1234 141.375 30.975 143.266 31.8305Z" fill="url(#paint1_linear_519_2961)"/>
<path d="M142.909 32.5097C144.416 33.1914 145.108 35.2115 144.455 37.0219C143.801 38.8323 142.05 39.7472 140.543 39.0656C139.036 38.3841 138.344 36.3639 138.998 34.5535C139.651 32.7431 141.403 31.8282 142.909 32.5097Z" fill="#1F2025"/>
<path d="M140.415 37.9029C140.364 37.9342 140.299 37.9298 140.251 37.8862C139.422 37.1341 139.133 35.803 139.55 34.6492C139.655 34.3586 139.798 34.0918 139.976 33.8557C140.028 33.7858 140.122 33.7769 140.185 33.8361C140.247 33.895 140.255 33.9997 140.202 34.0697C140.045 34.2788 139.918 34.5158 139.824 34.7737C139.456 35.7931 139.708 36.9673 140.437 37.6286C140.501 37.6863 140.511 37.7907 140.459 37.8616C140.446 37.8791 140.431 37.8928 140.415 37.9029Z" fill="#8A939A"/>
<path d="M108.857 114.696C124.19 114.696 136.62 102.266 136.62 86.933C136.62 71.5999 124.19 59.1699 108.857 59.1699C93.5237 59.1699 81.0938 71.5999 81.0938 86.933C81.0938 102.266 93.5237 114.696 108.857 114.696Z" fill="#475569"/>
<path d="M109.155 113.31C123.6 113.31 135.31 101.6 135.31 87.1552C135.31 72.7101 123.6 61 109.155 61C94.7101 61 83 72.7101 83 87.1552C83 101.6 94.7101 113.31 109.155 113.31Z" fill="url(#paint2_linear_519_2961)"/>
<path d="M109.155 61.5C123.324 61.5 134.811 72.9863 134.811 87.1553C134.811 101.324 123.324 112.811 109.155 112.811C94.9863 112.811 83.5 101.324 83.5 87.1553C83.5 72.9863 94.9863 61.5 109.155 61.5Z" stroke="#475569" stroke-opacity="0.5"/>
<path opacity="0.5" d="M110.707 85.6606L132.851 85.0577C131.487 71.8694 123.337 63.6275 110.483 62.3047L110.707 85.6606Z" fill="#1E2B3B"/>
<path d="M107.576 110.504C106.134 110.38 104.692 110.109 103.267 109.683C91.6884 106.226 85.2144 93.7888 88.9673 82.0509C90.8227 76.2482 94.8356 71.5737 100.243 68.8921C100.904 68.5642 101.704 68.8376 102.03 69.5024C102.356 70.1668 102.085 70.9715 101.425 71.3001C96.6836 73.6601 93.1672 77.765 91.5423 82.8559C88.2569 93.1494 93.9258 104.062 104.078 107.111C111.443 109.322 119.372 106.848 124.307 100.853C124.772 100.289 125.59 100.207 126.134 100.671C126.678 101.135 126.742 101.969 126.279 102.533C121.623 108.2 114.62 111.111 107.576 110.504Z" fill="#1E2B3B"/>
<path d="M97.648 76.374L100.113 70.4155L94.1752 67.9355L97.7483 66.4629L103.659 68.9438L101.206 74.8862L97.648 76.374Z" fill="#1E2B3B"/>
<path d="M110.098 86.6277C110.098 87.5128 109.414 88.2448 108.569 88.2627C107.723 88.2806 107.036 87.5761 107.036 86.689C107.036 85.8019 107.723 85.0699 108.569 85.054C109.414 85.038 110.098 85.7427 110.098 86.6277Z" fill="#94A3BB"/>
<path d="M108.547 75.0431C108.217 75.0482 107.972 75.2223 107.972 75.7315L107.95 85.8093C107.95 86.3185 108.217 86.7234 108.547 86.7137C108.875 86.7039 109.142 86.2838 109.142 85.7753L109.121 75.715C109.121 75.2064 108.875 75.0379 108.547 75.0431Z" fill="#94A3BB"/>
<path d="M108.485 86.8745C108.309 86.6681 108.006 86.6567 107.809 86.8489L96.6676 97.9449C96.4667 98.1409 96.4498 98.4675 96.6299 98.6741C96.8099 98.8807 97.1185 98.8891 97.3191 98.6929L108.448 87.596C108.645 87.4037 108.661 87.0808 108.485 86.8745Z" fill="#94A3BB"/>
<defs>
<linearGradient id="paint0_linear_519_2961" x1="125.786" y1="25.3132" x2="129.715" y2="35.9922" gradientUnits="userSpaceOnUse">
<stop stop-color="#3A3F4D"/>
<stop offset="0.3575" stop-color="#4F525B"/>
<stop offset="1" stop-color="#3A3F4D"/>
</linearGradient>
<linearGradient id="paint1_linear_519_2961" x1="138.096" y1="32.0317" x2="140.692" y2="39.0866" gradientUnits="userSpaceOnUse">
<stop stop-color="#3A3F4D"/>
<stop offset="0.3575" stop-color="#4F525B"/>
<stop offset="1" stop-color="#3A3F4D"/>
</linearGradient>
<linearGradient id="paint2_linear_519_2961" x1="83.3375" y1="63.8808" x2="96.8992" y2="107.291" gradientUnits="userSpaceOnUse">
<stop offset="0.0769231" stop-color="#6C7386"/>
<stop offset="1" stop-color="#1E2B3B" stop-opacity="0.38"/>
</linearGradient>
</defs>
</svg>
