<svg width="24" height="24" viewBox="0 0 24 24" fill="none" xmlns="http://www.w3.org/2000/svg">
<path d="M23.2438 15.3242C22.8249 15.3242 22.4775 15.6716 22.4775 16.0905C22.4775 19.1147 20.3729 21.6483 17.5428 22.3124L17.8187 21.8528C18.0332 21.485 17.9208 21.0149 17.553 20.8003C17.1954 20.5858 16.7152 20.6982 16.5007 21.066L15.4279 22.8539C15.2849 23.0889 15.2849 23.3852 15.4177 23.6202C15.5505 23.8654 15.8059 24.0084 16.0818 24.0084C20.4444 24.0084 23.9999 20.453 23.9999 16.0905C24.0101 15.6716 23.6627 15.3242 23.2438 15.3242Z" fill="url(#paint0_linear_6125_2851)"/>
<path d="M7.91805 0C3.55546 0 0 3.55546 0 7.91805C0 8.33694 0.347372 8.68431 0.766263 8.68431C1.18515 8.68431 1.53253 8.33694 1.53253 7.91805C1.53253 4.89386 3.63719 2.36009 6.46726 1.69599L6.1914 2.15575C5.97685 2.52356 6.08923 2.99353 6.45704 3.20809C6.81463 3.42264 7.29482 3.31025 7.50937 2.94245L8.58214 1.1545C8.71496 0.919515 8.72518 0.633444 8.58214 0.38824C8.44932 0.153253 8.1939 0 7.91805 0Z" fill="url(#paint1_linear_6125_2851)"/>
<path d="M21.7109 8.63582C21.7109 11.7826 19.4223 14.3777 16.4288 14.8579C16.4288 14.8477 16.4288 14.8477 16.4288 14.8374C16.1325 11.0266 13.047 7.92064 9.18506 7.61414C9.66525 4.6206 12.2603 2.33203 15.4071 2.33203C18.891 2.33203 21.7109 5.15188 21.7109 8.63582Z" fill="url(#paint2_linear_6125_2851)"/>
<path d="M9.76635 14.2867C9.76635 14.1334 9.59266 13.8984 9.37811 13.8984H7.27344V14.6647H9.37811C9.59266 14.6749 9.76635 14.5012 9.76635 14.2867Z" fill="url(#paint3_linear_6125_2851)"/>
<path d="M9.78678 16.2031H9.37811H7.27344V16.9694H9.797C10.1239 16.9694 10.3487 16.765 10.3487 16.5811C10.3487 16.3972 10.1137 16.2031 9.78678 16.2031Z" fill="url(#paint4_linear_6125_2851)"/>
<path d="M14.8962 14.9486C14.6612 11.8529 12.1887 9.38042 9.09302 9.14543C8.92955 9.13522 8.7763 9.125 8.60261 9.125C5.11867 9.125 2.29883 11.9448 2.29883 15.439C2.29883 18.9229 5.11867 21.7428 8.60261 21.7428C12.0866 21.7428 14.9166 18.9229 14.9166 15.439C14.9166 15.2653 14.9064 15.112 14.8962 14.9486ZM9.78777 18.504H9.11346V18.8923C9.11346 19.3111 8.76608 19.6585 8.34719 19.6585C7.9283 19.6585 7.58093 19.3111 7.58093 18.8923V18.504H6.50816C6.08927 18.504 5.7419 18.1566 5.7419 17.7378V15.439V13.1402C5.7419 12.7213 6.08927 12.3739 6.50816 12.3739H7.58093V11.9857C7.58093 11.5668 7.9283 11.2194 8.34719 11.2194C8.76608 11.2194 9.11346 11.5668 9.11346 11.9857V12.3739H9.37909C10.4008 12.3739 11.2999 13.273 11.2999 14.2947C11.2999 14.591 11.2283 14.8668 11.1057 15.1222C11.5757 15.4696 11.872 16.0009 11.872 16.5935C11.872 17.6458 10.9423 18.504 9.78777 18.504Z" fill="url(#paint5_linear_6125_2851)"/>
<defs>
<linearGradient id="paint0_linear_6125_2851" x1="15.3193" y1="24.0084" x2="25.6258" y2="21.115" gradientUnits="userSpaceOnUse">
<stop stop-color="#85FFC4"/>
<stop offset="0.458333" stop-color="#5CC6FF"/>
<stop offset="0.807292" stop-color="#BC85FF"/>
</linearGradient>
<linearGradient id="paint1_linear_6125_2851" x1="0" y1="8.68431" x2="10.3114" y2="5.7879" gradientUnits="userSpaceOnUse">
<stop stop-color="#85FFC4"/>
<stop offset="0.458333" stop-color="#5CC6FF"/>
<stop offset="0.807292" stop-color="#BC85FF"/>
</linearGradient>
<linearGradient id="paint2_linear_6125_2851" x1="9.18506" y1="14.8579" x2="24.0558" y2="10.6814" gradientUnits="userSpaceOnUse">
<stop stop-color="#85FFC4"/>
<stop offset="0.458333" stop-color="#5CC6FF"/>
<stop offset="0.807292" stop-color="#BC85FF"/>
</linearGradient>
<linearGradient id="paint3_linear_6125_2851" x1="7.27344" y1="14.6651" x2="9.01454" y2="13.0752" gradientUnits="userSpaceOnUse">
<stop stop-color="#85FFC4"/>
<stop offset="0.458333" stop-color="#5CC6FF"/>
<stop offset="0.807292" stop-color="#BC85FF"/>
</linearGradient>
<linearGradient id="paint4_linear_6125_2851" x1="7.27344" y1="16.9694" x2="9.00831" y2="15.014" gradientUnits="userSpaceOnUse">
<stop stop-color="#85FFC4"/>
<stop offset="0.458333" stop-color="#5CC6FF"/>
<stop offset="0.807292" stop-color="#BC85FF"/>
</linearGradient>
<linearGradient id="paint5_linear_6125_2851" x1="2.29883" y1="21.7428" x2="17.2788" y2="17.5356" gradientUnits="userSpaceOnUse">
<stop stop-color="#85FFC4"/>
<stop offset="0.458333" stop-color="#5CC6FF"/>
<stop offset="0.807292" stop-color="#BC85FF"/>
</linearGradient>
</defs>
</svg>
