<svg width="14" height="15" viewBox="0 0 14 15" fill="none" xmlns="http://www.w3.org/2000/svg">
<path d="M12.9994 6.01975C12.9911 4.65528 12.9273 3.91623 12.4144 3.43411C11.8286 2.88282 10.8859 2.88281 9.00049 2.88281H7.00033C5.1149 2.88281 4.17219 2.88282 3.58646 3.43411C3.00074 3.9854 3.00073 4.8727 3.00073 6.64729V9.78422C3.00073 11.5588 3.00074 12.4461 3.58646 12.9974C4.17219 13.5487 5.1149 13.5487 7.00033 13.5487H9.00049C10.8859 13.5487 11.8286 13.5487 12.4144 12.9974C13.0001 12.4461 13.0001 11.5588 13.0001 9.78422V9.15669" stroke="black" stroke-linecap="round"/>
<path d="M3.00016 11.6666C1.89546 11.6666 1 10.8238 1 9.78399V6.01952L1.06674 3.5094C1.15149 2.69411 1.34422 2.14494 1.77995 1.73482C2.56142 1 3.81838 1 6.33228 1H8.99915C10.1039 1 10.9994 1.84282 10.9994 2.88258" stroke="black" stroke-linecap="round"/>
</svg>
