<?xml version="1.0" encoding="utf-8"?>
<!-- Generator: Adobe Illustrator 17.0.0, SVG Export Plug-In . SVG Version: 6.00 Build 0)  -->
<!DOCTYPE svg PUBLIC "-//W3C//DTD SVG 1.1//EN" "http://www.w3.org/Graphics/SVG/1.1/DTD/svg11.dtd">
<svg version="1.1" id="Layer_1" xmlns="http://www.w3.org/2000/svg" xmlns:xlink="http://www.w3.org/1999/xlink" x="0px" y="0px"
	 width="46px" height="46px" viewBox="0 0 46 46" enable-background="new 0 0 46 46" xml:space="preserve">
<path fill="none" stroke="#33FFCC" d="M23,0.5L23,0.5c12.426,0,22.5,10.074,22.5,22.5l0,0c0,12.426-10.074,22.5-22.5,22.5l0,0
	C10.574,45.5,0.5,35.426,0.5,23l0,0C0.5,10.574,10.574,0.5,23,0.5z"/>
<path fill="none" stroke="#33FFCC" stroke-width="0.5" stroke-linecap="round" d="M16.281,27.443h5.454"/>
<path fill="none" stroke="#33FFCC" stroke-width="0.5" stroke-linecap="round" d="M16.281,29.685h5.454"/>
<path fill="none" stroke="#33FFCC" stroke-width="0.5" d="M22.903,19.802c-0.158-0.369-0.423-0.682-0.761-0.899
	c-0.337-0.217-0.732-0.329-1.133-0.32c-1.707,0-1.772,1.219-1.772,1.219s-0.258,1.507,1.833,1.668
	c2.174,0.169,1.833,1.668,1.833,1.668s-0.222,1.306-1.833,1.388c-1.611,0.083-2.113-1.611-2.113-1.611"/>
<path fill="none" stroke="#33FFCC" stroke-width="0.5" d="M21.008,17.498v8.282"/>
<path fill="#33FFCC" d="M24.792,16.183l0.554-0.787l0.439,0.748l0.03,0.051l0.041,0.042c0.05,0.052,0.109,0.093,0.175,0.121
	s0.137,0.043,0.209,0.043s0.143-0.014,0.209-0.043c0.048-0.02,0.092-0.047,0.132-0.08l1.019-0.787v6.564
	c0.288-0.042,0.582-0.064,0.881-0.064c0.04,0,0.079,0,0.119,0.001V14.55v-0.004h-0.5l0.5,0.017v-0.014
	c0.001-0.091-0.022-0.181-0.065-0.261c-0.046-0.084-0.113-0.154-0.195-0.203c-0.082-0.049-0.176-0.076-0.271-0.076
	c-0.096-0.001-0.19,0.024-0.273,0.072l-0.029,0.017l-0.027,0.021l-1.365,1.055l-0.534-0.912l-0.007-0.012l-0.008-0.012
	c-0.049-0.073-0.115-0.133-0.192-0.175C25.556,14.022,25.47,14,25.382,14s-0.174,0.022-0.252,0.063
	c-0.074,0.04-0.138,0.096-0.186,0.165l-0.596,0.847l-0.636-0.859l-0.024-0.032l-0.028-0.028c-0.1-0.098-0.235-0.153-0.375-0.153
	s-0.275,0.055-0.375,0.153l-0.027,0.026l-0.023,0.03l-0.652,0.865l-0.594-0.851l-0.022-0.032l-0.027-0.028
	c-0.05-0.052-0.109-0.093-0.176-0.121c-0.066-0.028-0.137-0.043-0.209-0.043s-0.143,0.014-0.209,0.043
	c-0.066,0.028-0.126,0.069-0.175,0.121l-0.011,0.012l-0.01,0.012l-0.788,0.936l-0.673-0.91l-0.019-0.026l-0.022-0.023
	c-0.05-0.052-0.109-0.093-0.175-0.121s-0.137-0.043-0.209-0.043s-0.143,0.014-0.209,0.043c-0.066,0.028-0.126,0.069-0.175,0.121
	l-0.011,0.011l-0.01,0.012l-0.843,0.997l-0.975-1.02l-0.014-0.014l-0.015-0.013c-0.098-0.087-0.224-0.136-0.355-0.136
	c-0.131,0-0.257,0.048-0.355,0.136l-0.025,0.022l-0.022,0.025l-0.864,1.009l-1.119-1.048l-0.049-0.046l-0.059-0.031
	c-0.076-0.04-0.16-0.061-0.246-0.062s-0.171,0.019-0.247,0.057c-0.077,0.038-0.143,0.094-0.194,0.164
	c-0.051,0.069-0.084,0.149-0.098,0.234L13,14.504v0.04v17.935v0.5h0.5h11.668c-0.426-0.283-0.814-0.62-1.155-1H14V15.614l0.69,0.646
	l0.022,0.021l0.024,0.018c0.092,0.068,0.204,0.104,0.319,0.104s0.226-0.037,0.319-0.104l0.047-0.034l0.038-0.044l0.845-0.986
	l0.975,1.02l0.03,0.032l0.036,0.026c0.092,0.068,0.204,0.104,0.319,0.104s0.226-0.037,0.319-0.104l0.048-0.035l0.038-0.045
	l0.797-0.942l0.672,0.909l0.024,0.032l0.028,0.028c0.1,0.098,0.235,0.153,0.375,0.153s0.275-0.055,0.375-0.153l0.017-0.017
	l0.015-0.018l0.775-0.921l0.613,0.878l0.027,0.038l0.033,0.033c0.1,0.098,0.235,0.153,0.375,0.153s0.275-0.055,0.375-0.153
	l0.027-0.026l0.023-0.03l0.663-0.88l0.649,0.876l0.024,0.032l0.028,0.028c0.1,0.098,0.235,0.153,0.375,0.153
	s0.275-0.055,0.375-0.153l0.033-0.032L24.792,16.183z M24.945,14.229l0.002-0.002l0.409,0.288l-0.417-0.276L24.945,14.229z
	 M14.699,15.57l0.319-0.372l0.356,0.333l-0.316,0.337l0.021,0.028l-0.023-0.02l-0.003-0.002l-0.021,0.022l0.018-0.024L14.699,15.57z
	 M17.304,15.587l0.337-0.398L18,15.565l-0.334,0.319l0.019,0.026l-0.023-0.02l-0.001-0.001l-0.022,0.021l0.018-0.024L17.304,15.587z
	 M19.607,15.58l0.381-0.453l0.353,0.478l-0.373,0.276l0.021,0.022l-0.023-0.02l-0.002,0.001l-0.025,0.019l0.023-0.023L19.607,15.58z
	 M21.821,15.595l0.389-0.516l0.37,0.53l-0.38,0.266l0.02,0.021l-0.024-0.018l-0.001,0.001l-0.025,0.017l0.021-0.022L21.821,15.595z
	 M23.974,15.608l0.374-0.532l0.386,0.522l-0.373,0.276l0.021,0.021l-0.025-0.018h-0.001l-0.024,0.018l0.021-0.021L23.974,15.608z
	 M24.683,15.538l-0.325,0.331l-0.325-0.331c0.087-0.085,0.203-0.133,0.325-0.133S24.596,15.453,24.683,15.538z M22.52,15.538
	l-0.325,0.331l-0.325-0.331c0.087-0.085,0.203-0.133,0.325-0.133C22.316,15.406,22.433,15.453,22.52,15.538z M20.289,15.545
	l-0.325,0.332l-0.325-0.332c0.087-0.085,0.203-0.133,0.325-0.133C20.085,15.413,20.202,15.46,20.289,15.545z M17.935,15.506
	l-0.272,0.372l-0.272-0.372c0.079-0.058,0.174-0.089,0.272-0.089S17.856,15.449,17.935,15.506z M15.327,15.492l-0.272,0.372
	l-0.272-0.372c0.079-0.058,0.174-0.089,0.272-0.089S15.248,15.434,15.327,15.492z"/>
<path fill="#33FFCC" d="M29.063,26.055h-1.156v1.348h-1.348v1.156h1.348v1.348h1.156v-1.348h1.348v-1.156h-1.348V26.055z"/>
<path fill="#33FFCC" d="M32.977,27.983c0,2.482-2.012,4.494-4.494,4.494s-4.494-2.012-4.494-4.494s2.012-4.494,4.494-4.494
	S32.977,25.5,32.977,27.983z M24.531,27.983c0,2.183,1.769,3.952,3.952,3.952s3.952-1.769,3.952-3.952s-1.769-3.952-3.952-3.952
	S24.531,25.8,24.531,27.983z"/>
</svg>
