<?xml version="1.0" encoding="utf-8"?>
<!-- Generator: Adobe Illustrator 17.0.0, SVG Export Plug-In . SVG Version: 6.00 Build 0)  -->
<!DOCTYPE svg PUBLIC "-//W3C//DTD SVG 1.1//EN" "http://www.w3.org/Graphics/SVG/1.1/DTD/svg11.dtd">
<svg version="1.1" id="Layer_1" xmlns="http://www.w3.org/2000/svg" xmlns:xlink="http://www.w3.org/1999/xlink" x="0px" y="0px"
	 width="46px" height="46px" viewBox="0 0 46 46" enable-background="new 0 0 46 46" xml:space="preserve">
<path fill="none" stroke="#33FFCC" d="M23,0.5L23,0.5c12.426,0,22.5,10.074,22.5,22.5l0,0c0,12.426-10.074,22.5-22.5,22.5l0,0
	C10.574,45.5,0.5,35.426,0.5,23l0,0C0.5,10.574,10.574,0.5,23,0.5z"/>
<path fill="none" stroke="#33FFCC" stroke-linecap="round" d="M31.241,33H15V13.048c0.001-0.007,0.004-0.013,0.008-0.019
	c0.004-0.006,0.01-0.01,0.016-0.013c0.006-0.003,0.013-0.005,0.02-0.005c0.007,0,0.014,0.002,0.02,0.005l1.64,1.536
	c0.007,0.006,0.017,0.008,0.026,0.008c0.009,0,0.019-0.003,0.026-0.008l1.317-1.536c0.007-0.006,0.015-0.009,0.024-0.009
	s0.017,0.003,0.024,0.009l1.484,1.552c0.007,0.005,0.017,0.009,0.026,0.009c0.009,0,0.018-0.003,0.026-0.009l1.313-1.552
	c0.003-0.003,0.007-0.006,0.012-0.008c0.004-0.002,0.009-0.003,0.014-0.003s0.01,0.001,0.014,0.003s0.008,0.005,0.012,0.008
	l1.141,1.544c0.007,0.007,0.017,0.012,0.028,0.012c0.01,0,0.021-0.004,0.028-0.012l1.301-1.544c0.003-0.003,0.007-0.006,0.012-0.008
	c0.005-0.002,0.009-0.003,0.014-0.003s0.01,0.001,0.014,0.003s0.009,0.005,0.012,0.008l1.073,1.536
	c0.007,0.007,0.017,0.011,0.028,0.011c0.01,0,0.02-0.004,0.028-0.011l1.157-1.536c0.007-0.007,0.017-0.011,0.028-0.011
	c0.01,0,0.021,0.004,0.028,0.011l1.137,1.536c0.007,0.007,0.017,0.011,0.028,0.011c0.01,0,0.021-0.004,0.028-0.011l1.081-1.536
	c0.003-0.005,0.008-0.009,0.013-0.012C28.206,13.002,28.212,13,28.218,13s0.012,0.002,0.017,0.004
	c0.005,0.003,0.01,0.007,0.013,0.012l0.898,1.532c0.003,0.003,0.007,0.006,0.012,0.008c0.004,0.002,0.009,0.003,0.014,0.003
	s0.01-0.001,0.014-0.003s0.008-0.005,0.012-0.008l1.983-1.532c0.006-0.004,0.013-0.005,0.02-0.005s0.014,0.002,0.02,0.006
	s0.011,0.009,0.014,0.015c0.003,0.006,0.005,0.013,0.005,0.021L31.241,33L31.241,33z"/>
<path fill="none" stroke="#33FFCC" stroke-linecap="round" d="M18.102,27.396h10.614"/>
<path fill="none" stroke="#33FFCC" stroke-linecap="round" d="M18.102,29.893h10.614"/>
<path fill="none" stroke="#33FFCC" d="M25.464,18.9c-0.176-0.41-0.471-0.758-0.846-1s-0.814-0.366-1.261-0.357
	c-1.899,0-1.971,1.357-1.971,1.357s-0.287,1.676,2.039,1.855c2.418,0.188,2.039,1.856,2.039,1.856s-0.247,1.453-2.039,1.544
	c-1.792,0.092-2.35-1.792-2.35-1.792"/>
<path fill="none" stroke="#33FFCC" d="M23.359,16.334v9.214"/>
</svg>
