<svg width="34" height="22" viewBox="0 0 34 22" fill="none" xmlns="http://www.w3.org/2000/svg">
<path d="M15.4111 6.59311H0V4.65227C0.00233246 4.00042 0.261413 3.37595 0.720741 2.91503C1.18007 2.4541 1.80238 2.19412 2.45197 2.19178H17.1217C16.2284 3.51085 15.6436 5.01543 15.4111 6.59311ZM31.101 17.3833V19.5395C31.0987 20.1914 30.8396 20.8158 30.3803 21.2768C29.9209 21.7377 29.2986 21.9977 28.6491 22H2.45197C1.80238 21.9977 1.18007 21.7377 0.720741 21.2768C0.261413 20.8158 0.00233246 20.1914 0 19.5395V9.0536H15.3359C15.4783 10.7229 16.0124 12.3347 16.8944 13.7572C17.7764 15.1797 18.9814 16.3727 20.4107 17.2385C21.8401 18.1044 23.4533 18.6185 25.1186 18.739C26.7839 18.8595 28.454 18.5829 29.9923 17.9318C30.3722 17.7707 30.7424 17.5876 31.101 17.3833ZM15.7165 15.1004H5.55897V17.5631H15.7165V15.1004ZM34 8.15201C34.0004 9.76486 33.5242 11.3416 32.6316 12.6829C31.739 14.0241 30.47 15.0696 28.9852 15.6871C27.5004 16.3046 25.8665 16.4664 24.29 16.1521C22.7136 15.8377 21.2655 15.0612 20.1288 13.9209C18.9922 12.7806 18.218 11.3277 17.9043 9.74586C17.5906 8.16403 17.7514 6.52438 18.3663 5.03426C18.9813 3.54414 20.0228 2.27049 21.3592 1.37439C22.6956 0.478293 24.2667 5.98079e-08 25.874 0C28.0288 -8.01809e-08 30.0953 0.858799 31.6192 2.38753C33.143 3.91627 33.9994 5.98976 34 8.15201ZM29.0983 9.95518C29.0977 9.37936 28.8894 8.82323 28.5118 8.38962C28.2631 8.10493 27.9656 7.86726 27.6333 7.6879C27.3466 7.53873 27.0415 7.42822 26.726 7.35924C26.4532 7.30101 26.175 7.27198 25.8961 7.27263C25.7361 7.27426 25.5762 7.26237 25.4181 7.2371C25.2483 7.20765 25.0836 7.1538 24.9291 7.07722C24.7893 7.00649 24.6657 6.90744 24.5661 6.78631C24.4678 6.66957 24.4103 6.52371 24.4024 6.37105C24.4119 6.2455 24.4542 6.12466 24.5248 6.02061C24.5955 5.91657 24.6922 5.83296 24.8051 5.77814C25.1411 5.58251 25.5231 5.48054 25.9116 5.48279C26.0423 5.49426 26.1718 5.51654 26.2989 5.54941L26.3476 5.55829C26.5106 5.59767 26.6693 5.65347 26.8211 5.72484C26.9592 5.78809 27.0851 5.8753 27.1929 5.98244C27.274 6.06545 27.3707 6.13151 27.4773 6.1768C27.584 6.22209 27.6986 6.24571 27.8144 6.2463C27.9302 6.24689 28.045 6.22443 28.1521 6.18022C28.2592 6.13601 28.3566 6.07094 28.4385 5.98875C28.5204 5.90656 28.5852 5.8089 28.6293 5.70141C28.6733 5.59391 28.6957 5.47872 28.6951 5.36249C28.6945 5.24627 28.671 5.13131 28.6259 5.02427C28.5807 4.91722 28.5149 4.82022 28.4322 4.73887C28.1741 4.48117 27.8721 4.27208 27.5404 4.12153C27.2901 4.00589 27.0292 3.91515 26.7614 3.85061V3.31321C26.7674 3.19416 26.7491 3.07514 26.7079 2.96337C26.6666 2.8516 26.6031 2.74942 26.5212 2.66304C26.4393 2.57666 26.3408 2.50788 26.2317 2.46089C26.1225 2.41389 26.005 2.38966 25.8862 2.38966C25.7674 2.38966 25.6498 2.41389 25.5407 2.46089C25.4315 2.50788 25.333 2.57666 25.2511 2.66304C25.1693 2.74942 25.1058 2.8516 25.0645 2.96337C25.0232 3.07514 25.005 3.19416 25.0109 3.31321V3.8284C24.6071 3.91787 24.2211 4.07475 23.869 4.29252C23.5054 4.50491 23.2023 4.80773 22.9891 5.17178C22.7759 5.53584 22.6598 5.94887 22.6519 6.37105C22.657 6.92743 22.8523 7.46519 23.2052 7.89442C23.4616 8.21035 23.7822 8.46775 24.1457 8.64944C24.4562 8.80514 24.7881 8.91366 25.1304 8.97143C25.3835 9.01299 25.6397 9.03305 25.8961 9.03139C26.05 9.0307 26.2036 9.04633 26.3542 9.07802C26.5156 9.11331 26.6718 9.16928 26.8189 9.24457C26.9597 9.32333 27.0861 9.42545 27.1929 9.54658C27.2913 9.66 27.3462 9.80484 27.3478 9.95518C27.3478 10.0529 27.3478 10.255 26.9805 10.4926C26.6396 10.6977 26.2493 10.8052 25.8519 10.8035C25.6854 10.7952 25.5198 10.7751 25.3562 10.7435C25.1982 10.7104 25.044 10.6613 24.8959 10.597C24.7629 10.5364 24.6461 10.445 24.5551 10.3305C24.4012 10.1602 24.1869 10.0571 23.9582 10.0434C23.7295 10.0297 23.5046 10.1064 23.3315 10.2571C23.1585 10.4078 23.0512 10.6205 23.0325 10.8496C23.0138 11.0788 23.0854 11.3061 23.2317 11.483C23.5053 11.8103 23.8538 12.0663 24.2475 12.2291C24.4936 12.3333 24.7493 12.4129 25.0109 12.4667V12.993C25.0222 13.2183 25.1194 13.4306 25.2823 13.5861C25.4452 13.7415 25.6614 13.8282 25.8862 13.8282C26.111 13.8282 26.3272 13.7415 26.4901 13.5861C26.653 13.4306 26.7501 13.2183 26.7614 12.993V12.4556C27.1773 12.3614 27.5741 12.1961 27.9343 11.9671C28.287 11.7635 28.5802 11.4705 28.7845 11.1174C28.9888 10.7643 29.097 10.3635 29.0983 9.95518Z" fill="url(#paint0_linear_6125_2840)"/>
<defs>
<linearGradient id="paint0_linear_6125_2840" x1="0" y1="22" x2="36.6452" y2="6.09441" gradientUnits="userSpaceOnUse">
<stop stop-color="#85FFC4"/>
<stop offset="0.458333" stop-color="#5CC6FF"/>
<stop offset="0.807292" stop-color="#BC85FF"/>
</linearGradient>
</defs>
</svg>
