<?xml version="1.0" encoding="utf-8"?>
<!-- Generator: Adobe Illustrator 17.0.0, SVG Export Plug-In . SVG Version: 6.00 Build 0)  -->
<!DOCTYPE svg PUBLIC "-//W3C//DTD SVG 1.1//EN" "http://www.w3.org/Graphics/SVG/1.1/DTD/svg11.dtd">
<svg version="1.1" id="Layer_1" xmlns="http://www.w3.org/2000/svg" xmlns:xlink="http://www.w3.org/1999/xlink" x="0px" y="0px"
	 width="50px" height="50px" viewBox="0 0 50 50" enable-background="new 0 0 50 50" xml:space="preserve">
<path fill="none" stroke="#33FFCC" d="M25,0.5L25,0.5c13.531,0,24.5,10.969,24.5,24.5l0,0c0,13.531-10.969,24.5-24.5,24.5l0,0
	C11.469,49.5,0.5,38.531,0.5,25l0,0C0.5,11.469,11.469,0.5,25,0.5z"/>
<path fill="#33FFCC" d="M33.984,26.683h-7.302v7.302c0,0.387-0.154,0.759-0.428,1.033c-0.274,0.274-0.645,0.428-1.033,0.428
	s-0.759-0.154-1.033-0.428c-0.274-0.274-0.428-0.645-0.428-1.033v-7.302h-7.3c-0.387,0-0.759-0.154-1.033-0.428
	C15.154,25.981,15,25.61,15,25.222s0.154-0.759,0.428-1.033s0.645-0.428,1.033-0.428h7.302V16.46c0-0.387,0.154-0.759,0.428-1.033
	C24.463,15.154,24.835,15,25.222,15s0.759,0.154,1.033,0.428s0.428,0.645,0.428,1.033v7.302h7.302c0.387,0,0.759,0.154,1.033,0.428
	c0.274,0.274,0.428,0.645,0.428,1.033s-0.154,0.759-0.428,1.033C34.743,26.529,34.371,26.683,33.984,26.683z"/>
</svg>
