<svg width="119" height="89" viewBox="0 0 119 89" fill="none" xmlns="http://www.w3.org/2000/svg">
<path d="M79.7925 19.9978C71.4225 19.9978 62.9226 19.6578 54.9726 17.4478C47.0226 15.2378 40.0326 11.0478 33.6026 6.17785C29.4226 3.01785 25.6026 0.49785 20.1826 0.87785C14.8698 1.15812 9.78869 3.14286 5.69255 6.53785C-1.21745 12.5879 -0.17745 23.7678 2.58255 31.6378C6.74255 43.4878 19.3526 51.7278 30.1226 57.0878C42.5326 63.2878 56.1226 66.8878 69.8326 68.9578C81.8326 70.7778 97.2025 72.0978 107.583 64.2778C117.123 57.0878 119.733 40.6778 117.403 29.5978C116.835 26.3213 115.089 23.3656 112.493 21.2878C105.793 16.3878 95.8025 19.6578 88.2825 19.8178C85.4825 19.8878 82.6425 19.9978 79.7925 19.9978Z" fill="#272933"/>
<path d="M59.65 88.3798C79.8912 88.3798 96.3 87.359 96.3 86.0998C96.3 84.8406 79.8912 83.8198 59.65 83.8198C39.4088 83.8198 23 84.8406 23 86.0998C23 87.359 39.4088 88.3798 59.65 88.3798Z" fill="#272933"/>
<path d="M25.75 28.9165C25.7498 31.8276 26.3231 34.7102 27.437 37.3997C28.5509 40.0892 30.1836 42.533 32.242 44.5915C34.3004 46.65 36.7441 48.2829 39.4336 49.397C42.123 50.511 45.0056 51.0844 47.9167 51.0844C50.8277 51.0844 53.7103 50.511 56.3998 49.397C59.0892 48.2829 61.5329 46.65 63.5913 44.5915C65.6497 42.533 67.2825 40.0892 68.3964 37.3997C69.5103 34.7102 70.0835 31.8276 70.0833 28.9165C70.0835 26.0054 69.5103 23.1228 68.3964 20.4333C67.2825 17.7437 65.6497 15.3 63.5913 13.2415C61.5329 11.183 59.0892 9.55005 56.3998 8.43599C53.7103 7.32194 50.8277 6.74854 47.9167 6.74854C45.0056 6.74854 42.123 7.32194 39.4336 8.43599C36.7441 9.55005 34.3004 11.183 32.242 13.2415C30.1836 15.3 28.5509 17.7437 27.437 20.4333C26.3231 23.1228 25.7498 26.0054 25.75 28.9165Z" fill="#2D333E" stroke="#4A5059" stroke-miterlimit="10"/>
<path opacity="0.9" d="M46.334 14.6665H49.5007V28.9165H46.334V14.6665Z" fill="#4A5059"/>
<path opacity="0.9" d="M56.8699 35.177L54.183 37.8639L46.5703 30.2528L49.2572 27.5659L56.8699 35.177Z" fill="#4A5059"/>
<path opacity="0.9" d="M44.75 28.9167C44.7499 29.3326 44.8318 29.7444 44.9909 30.1286C45.15 30.5129 45.3833 30.862 45.6773 31.1561C45.9714 31.4503 46.3205 31.6835 46.7047 31.8427C47.089 32.0019 47.5008 32.0838 47.9167 32.0838C48.3326 32.0838 48.7444 32.0019 49.1286 31.8427C49.5128 31.6835 49.862 31.4503 50.156 31.1561C50.4501 30.862 50.6833 30.5129 50.8424 30.1286C51.0015 29.7444 51.0834 29.3326 51.0833 28.9167C51.0834 28.5008 51.0015 28.0889 50.8424 27.7047C50.6833 27.3204 50.4501 26.9713 50.156 26.6772C49.862 26.3831 49.5128 26.1498 49.1286 25.9906C48.7444 25.8314 48.3326 25.7495 47.9167 25.7495C47.5008 25.7495 47.089 25.8314 46.7047 25.9906C46.3205 26.1498 45.9714 26.3831 45.6773 26.6772C45.3833 26.9713 45.15 27.3204 44.9909 27.7047C44.8318 28.0889 44.7499 28.5008 44.75 28.9167Z" fill="#4A5059"/>
<path d="M46.334 28.9168C46.334 29.3368 46.5008 29.7395 46.7977 30.0364C47.0947 30.3333 47.4974 30.5002 47.9173 30.5002C48.3372 30.5002 48.74 30.3333 49.0369 30.0364C49.3338 29.7395 49.5007 29.3368 49.5007 28.9168C49.5007 28.4969 49.3338 28.0942 49.0369 27.7972C48.74 27.5003 48.3372 27.3335 47.9173 27.3335C47.4974 27.3335 47.0947 27.5003 46.7977 27.7972C46.5008 28.0942 46.334 28.4969 46.334 28.9168Z" fill="#2D333E"/>
<path d="M39.8426 68.4999L62.6426 30.3416C63.9093 28.2833 66.9176 28.2833 68.0259 30.3416L90.8259 68.4999C92.0926 70.5583 90.5093 73.2499 88.1343 73.2499H42.5343C40.1593 73.2499 38.5759 70.5583 39.8426 68.4999Z" fill="#4A5059" stroke="#4A5059" stroke-miterlimit="10"/>
<path d="M62.8008 65.175C62.8008 64.8583 62.8008 64.5417 62.9591 64.225C63.1174 63.9083 63.2758 63.75 63.4341 63.4333C63.5924 63.1167 63.9091 63.1167 64.2258 62.9583C64.5424 62.8 64.8591 62.8 65.1758 62.8C65.4924 62.8 65.9674 62.8 66.2841 62.9583C66.6008 63.1167 66.9174 63.275 67.0758 63.4333C67.2341 63.5917 67.3924 63.9083 67.5508 64.225C67.7091 64.5417 67.7091 64.8583 67.7091 65.175C67.7091 65.4917 67.7091 65.8083 67.5508 66.125C67.3924 66.4417 67.2341 66.6 67.0758 66.9167C66.9174 67.2333 66.6008 67.2333 66.2841 67.3917C65.9674 67.55 65.6508 67.55 65.1758 67.55C64.7008 67.55 64.3841 67.55 64.2258 67.3917C64.0674 67.2333 63.5924 67.075 63.4341 66.9167C63.2758 66.7583 63.1174 66.4417 62.9591 66.125C62.8008 65.8083 62.8008 65.4917 62.8008 65.175ZM67.2341 60.2667H63.5924L62.9591 44.75H67.7091L67.2341 60.2667Z" fill="#2D333E"/>
</svg>
