<svg width="119" height="97" viewBox="0 0 119 97" fill="none" xmlns="http://www.w3.org/2000/svg">
<path d="M114.689 53.1602V57.4501" stroke="#4A5059" stroke-linecap="round" stroke-linejoin="round"/>
<path d="M112.539 55.2998H116.839" stroke="#4A5059" stroke-linecap="round" stroke-linejoin="round"/>
<path d="M79.7886 27.9998C71.4186 27.9998 62.9186 27.6598 54.9686 25.4498C47.0186 23.2398 40.0286 19.0498 33.5986 14.1798C29.4186 11.0198 25.5986 8.4998 20.1786 8.8798C14.8659 9.16007 9.78478 11.1448 5.68864 14.5398C-1.22136 20.5898 -0.181357 31.7698 2.57864 39.6398C6.73864 51.4898 19.3486 59.7298 30.1186 65.0898C42.5286 71.2898 56.1186 74.8898 69.8286 76.9598C81.8286 78.7798 97.1986 80.0998 107.579 72.2798C117.119 65.0898 119.729 48.6798 117.399 37.5998C116.831 34.3233 115.085 31.3675 112.489 29.2898C105.789 24.3898 95.7986 27.6598 88.2786 27.8198C85.4786 27.8898 82.6386 27.9998 79.7886 27.9998Z" fill="#272933"/>
<path d="M106.049 52.6401V56.9301" stroke="#4A5059" stroke-linecap="round" stroke-linejoin="round"/>
<path d="M103.91 54.7798H108.2" stroke="#4A5059" stroke-linecap="round" stroke-linejoin="round"/>
<path d="M30.8301 28.23V32.53" stroke="#4A5059" stroke-linecap="round" stroke-linejoin="round"/>
<path d="M28.6797 30.3799H32.9697" stroke="#4A5059" stroke-linecap="round" stroke-linejoin="round"/>
<path d="M57.4292 9.98002C57.9705 9.98002 58.4092 9.54126 58.4092 9.00002C58.4092 8.45878 57.9705 8.02002 57.4292 8.02002C56.888 8.02002 56.4492 8.45878 56.4492 9.00002C56.4492 9.54126 56.888 9.98002 57.4292 9.98002Z" fill="#4A5059"/>
<path d="M20.8804 5.87992C21.4216 5.87992 21.8604 5.44116 21.8604 4.89993C21.8604 4.35869 21.4216 3.91992 20.8804 3.91992C20.3392 3.91992 19.9004 4.35869 19.9004 4.89993C19.9004 5.44116 20.3392 5.87992 20.8804 5.87992Z" fill="#4A5059"/>
<path d="M63.5191 96.3798C83.7604 96.3798 100.169 95.359 100.169 94.0998C100.169 92.8406 83.7604 91.8198 63.5191 91.8198C43.2779 91.8198 26.8691 92.8406 26.8691 94.0998C26.8691 95.359 43.2779 96.3798 63.5191 96.3798Z" fill="#272933"/>
<path d="M48.4389 30.73H44.6289V57.07H48.4389V30.73Z" fill="#2D333E" stroke="#4A5059" stroke-miterlimit="10"/>
<path d="M44.5541 32.6452L46.3691 35.9951L68.3939 24.0615L66.5789 20.7116L44.5541 32.6452Z" fill="#2D333E" stroke="#4A5059" stroke-miterlimit="10"/>
<path d="M43.4092 54.7998H49.2392C52.2106 54.7998 55.0604 55.9795 57.1624 58.0796C59.2643 60.1797 60.4466 63.0285 60.4492 65.9998V66.8198H32.1992V65.9998C32.2019 63.0285 33.3841 60.1797 35.4861 58.0796C37.5881 55.9795 40.4379 54.7998 43.4092 54.7998Z" fill="#2D333E" stroke="#4A5059" stroke-miterlimit="10"/>
<path d="M64.2996 66.9502H28.3496" stroke="#4A5059" stroke-miterlimit="10"/>
<path d="M46.7604 40.43C50.411 40.43 53.3704 37.4706 53.3704 33.82C53.3704 30.1694 50.411 27.21 46.7604 27.21C43.1098 27.21 40.1504 30.1694 40.1504 33.82C40.1504 37.4706 43.1098 40.43 46.7604 40.43Z" fill="#2D333E" stroke="#4A5059" stroke-miterlimit="10"/>
<path d="M83.5299 58.9999C83.3699 58.9499 82.0899 59.0599 81.9199 58.9999C80.7699 58.5699 80.3699 59.9999 79.2999 59.4199C72.2429 55.7953 66.8384 49.6101 64.1932 42.1307C61.548 34.6512 61.8621 26.4435 65.0712 19.1881C68.2803 11.9328 74.1417 6.17867 81.4551 3.10406C88.7685 0.0294569 96.9806 -0.133029 104.41 2.64987C104.63 2.73987 104.07 3.96987 104.29 4.05987L83.5299 58.9999Z" fill="#4A5059" stroke="#4A5059" stroke-miterlimit="10"/>
<path d="M103.419 35.3801C98.6088 48.2401 91.4888 58.0601 85.7188 60.5901C84.9429 60.9452 84.1098 61.1585 83.2588 61.2201C82.6096 61.2593 81.9593 61.164 81.3488 60.9401C80.8768 60.7595 80.4376 60.5028 80.0488 60.1801C79.8308 59.9955 79.6269 59.795 79.4388 59.5801C75.4388 55.0201 76.0988 41.5801 81.4388 27.1801C86.7388 13.0001 94.8488 2.51007 100.869 1.43007C101.241 1.3608 101.62 1.33063 101.999 1.34007C102.507 1.34858 103.01 1.43978 103.489 1.61007C104.199 1.85372 104.838 2.26941 105.349 2.82006C105.878 3.38721 106.307 4.03974 106.619 4.75007C109.349 10.4301 108.229 22.5201 103.419 35.3801Z" fill="#2D333E" stroke="#4A5059" stroke-miterlimit="10"/>
<path d="M82.0293 26.5698L113.279 37.9798" stroke="#4A5059" stroke-miterlimit="10"/>
<path d="M111.35 41.5901C113.758 41.5901 115.71 39.6381 115.71 37.2301C115.71 34.8222 113.758 32.8701 111.35 32.8701C108.942 32.8701 106.99 34.8222 106.99 37.2301C106.99 39.6381 108.942 41.5901 111.35 41.5901Z" fill="#4A5059" stroke="#4A5059" stroke-miterlimit="10"/>
<path d="M38.4502 13.8799C38.4476 14.9894 38.005 16.0526 37.2195 16.8362C36.434 17.6198 35.3698 18.0599 34.2602 18.0599H23.9902C23.1946 18.0599 22.4315 17.7438 21.8689 17.1812C21.3063 16.6186 20.9902 15.8556 20.9902 15.0599C20.9902 14.2643 21.3063 13.5012 21.8689 12.9386C22.4315 12.376 23.1946 12.0599 23.9902 12.0599C24.3807 12.0603 24.7676 12.135 25.1302 12.2799C25.0937 12.0888 25.077 11.8944 25.0802 11.6999C25.0762 10.9156 25.3569 10.1564 25.8701 9.56326C26.3834 8.97014 27.0944 8.58333 27.8712 8.47463C28.648 8.36593 29.4378 8.54271 30.0942 8.97216C30.7505 9.40161 31.2288 10.0546 31.4402 10.8099C32.2061 10.0978 33.2145 9.70447 34.2602 9.7099C35.3672 9.71251 36.4284 10.1521 37.2131 10.9329C37.9977 11.7138 38.4423 12.7729 38.4502 13.8799Z" fill="#4A5059" stroke="#4A5059" stroke-miterlimit="10"/>
</svg>
