<svg width="119" height="104" viewBox="0 0 119 104" fill="none" xmlns="http://www.w3.org/2000/svg">
<path d="M16.8491 75.9302C17.3904 75.9302 17.8291 75.4914 17.8291 74.9502C17.8291 74.409 17.3904 73.9702 16.8491 73.9702C16.3079 73.9702 15.8691 74.409 15.8691 74.9502C15.8691 75.4914 16.3079 75.9302 16.8491 75.9302Z" fill="#4A5059"/>
<path d="M80.3998 34.9999C72.0298 34.9999 63.5098 34.6599 55.5398 32.4399C47.5698 30.2199 40.5398 26.0599 34.1398 21.1899C29.9498 18.0199 26.1398 15.4899 20.6898 15.8699C15.3713 16.16 10.2859 18.1472 6.17982 21.5399C-0.750184 27.5999 0.299815 38.8099 3.06981 46.6899C7.22981 58.5599 19.8898 66.8099 30.6498 72.1799C43.0798 78.3899 56.7298 81.9999 70.4298 84.0699C82.4298 85.8999 97.8498 87.2199 108.25 79.3799C117.8 72.1799 120.42 55.7399 118.08 44.6399C117.512 41.3608 115.766 38.402 113.17 36.3199C106.46 31.4099 96.4498 34.6899 88.9098 34.8499C86.1098 34.8899 83.2598 34.9999 80.3998 34.9999Z" fill="#272933"/>
<path d="M62.9697 85.29C69.205 85.29 74.2597 80.2353 74.2597 74C74.2597 67.7647 69.205 62.71 62.9697 62.71C56.7344 62.71 51.6797 67.7647 51.6797 74C51.6797 80.2353 56.7344 85.29 62.9697 85.29Z" fill="#4A5059"/>
<path d="M51.2884 3.52167C52.5491 3.24058 53.8698 3.47179 54.9599 4.16443C56.0501 4.85708 56.8205 5.95443 57.1016 7.21508L58.9057 15.3064L49.3992 17.4261L47.595 9.33481C47.3139 8.07417 47.5451 6.75349 48.2378 5.66331C48.9304 4.57314 50.0278 3.80277 51.2884 3.52167Z" fill="#2D333E" stroke="#4A5059" stroke-miterlimit="10"/>
<path d="M95.8096 66.9999L37.9196 79.8999C37.56 79.9806 37.1856 79.9662 36.8333 79.858C36.481 79.7499 36.163 79.5518 35.9106 79.2833C35.6582 79.0147 35.4802 78.685 35.3941 78.3267C35.308 77.9684 35.3168 77.5938 35.4196 77.2399L35.6596 76.4099C37.6596 69.3199 39.3996 61.5099 37.7996 54.3099L34.3796 38.9399C31.4996 25.9999 39.2396 12.8799 52.0796 9.69994C55.2112 8.92564 58.4659 8.78499 61.6526 9.28626C64.8393 9.78753 67.8937 10.9206 70.6363 12.6189C73.379 14.3172 75.7546 16.5465 77.6235 19.1758C79.4925 21.8052 80.8171 24.7815 81.5196 27.9299L85.0496 43.7599C86.6596 50.9599 91.5196 57.3199 96.3796 62.8599L96.9496 63.5099C97.195 63.788 97.3636 64.1253 97.4387 64.4886C97.5137 64.8518 97.4926 65.2283 97.3774 65.5809C97.2623 65.9334 97.0571 66.2498 96.7821 66.4987C96.5071 66.7476 96.1719 66.9204 95.8096 66.9999Z" fill="#2D333E" stroke="#4A5059" stroke-miterlimit="10"/>
<path d="M53.0002 57.0899C52.9844 54.7542 53.7692 52.4836 55.2238 50.6561C56.6784 48.8286 58.7151 47.5545 60.9948 47.046C63.2746 46.5374 65.6597 46.8251 67.7531 47.8611C69.8465 48.8971 71.5219 50.619 72.5002 52.7399" stroke="#4A5059" stroke-linecap="round" stroke-linejoin="round"/>
<path d="M70.8497 40.86C71.6339 40.86 72.2697 40.2243 72.2697 39.44C72.2697 38.6558 71.6339 38.02 70.8497 38.02C70.0654 38.02 69.4297 38.6558 69.4297 39.44C69.4297 40.2243 70.0654 40.86 70.8497 40.86Z" fill="#4A5059"/>
<path d="M48.8302 45.7702C49.6144 45.7702 50.2502 45.1344 50.2502 44.3502C50.2502 43.5659 49.6144 42.9302 48.8302 42.9302C48.0459 42.9302 47.4102 43.5659 47.4102 44.3502C47.4102 45.1344 48.0459 45.7702 48.8302 45.7702Z" fill="#4A5059"/>
<path d="M75.3101 2.00981C75.8513 2.00981 76.2901 1.57105 76.2901 1.02981C76.2901 0.488567 75.8513 0.0498047 75.3101 0.0498047C74.7688 0.0498047 74.3301 0.488567 74.3301 1.02981C74.3301 1.57105 74.7688 2.00981 75.3101 2.00981Z" fill="#4A5059"/>
<path d="M16.8491 75.9302C17.3904 75.9302 17.8291 75.4914 17.8291 74.9502C17.8291 74.409 17.3904 73.9702 16.8491 73.9702C16.3079 73.9702 15.8691 74.409 15.8691 74.9502C15.8691 75.4914 16.3079 75.9302 16.8491 75.9302Z" fill="#4A5059"/>
<path d="M102.391 24.7002V29.0002" stroke="#4A5059" stroke-linecap="round" stroke-linejoin="round"/>
<path d="M100.23 26.8501H104.54" stroke="#4A5059" stroke-linecap="round" stroke-linejoin="round"/>
<path d="M104.35 89.4399V93.7399" stroke="#4A5059" stroke-linecap="round" stroke-linejoin="round"/>
<path d="M102.199 91.5898H106.499" stroke="#4A5059" stroke-linecap="round" stroke-linejoin="round"/>
<path d="M29.1699 8.3999V12.6999" stroke="#4A5059" stroke-linecap="round" stroke-linejoin="round"/>
<path d="M27.0195 10.5498H31.3195" stroke="#4A5059" stroke-linecap="round" stroke-linejoin="round"/>
<path d="M60.3194 103.51C80.5938 103.51 97.0294 102.485 97.0294 101.22C97.0294 99.9554 80.5938 98.9302 60.3194 98.9302C40.045 98.9302 23.6094 99.9554 23.6094 101.22C23.6094 102.485 40.045 103.51 60.3194 103.51Z" fill="#272933"/>
<path d="M95.3903 22.2598C95.3876 25.301 94.1783 28.2169 92.0279 30.3674C89.8774 32.5179 86.9615 33.7272 83.9203 33.7298C83.5461 33.73 83.1723 33.71 82.8003 33.6698L79.4003 39.2198L78.3403 32.2698C76.5658 31.2933 75.0815 29.8642 74.0384 28.1281C72.9953 26.3919 72.4306 24.4104 72.4016 22.3852C72.3726 20.3599 72.8804 18.3631 73.8734 16.5978C74.8663 14.8325 76.3091 13.3615 78.0549 12.3346C79.8007 11.3077 81.7873 10.7613 83.8127 10.7511C85.8381 10.7409 87.8301 11.2673 89.5862 12.2766C91.3422 13.2859 92.7997 14.7423 93.8104 16.4975C94.821 18.2528 95.3489 20.2444 95.3403 22.2698L95.3903 22.2598Z" fill="#2D333E" stroke="#4A5059" stroke-miterlimit="10"/>
<path d="M79.0194 23.4201C79.66 23.4201 80.1794 22.9007 80.1794 22.2601C80.1794 21.6194 79.66 21.1001 79.0194 21.1001C78.3787 21.1001 77.8594 21.6194 77.8594 22.2601C77.8594 22.9007 78.3787 23.4201 79.0194 23.4201Z" fill="#4A5059"/>
<path d="M83.9198 23.4201C84.5604 23.4201 85.0798 22.9007 85.0798 22.2601C85.0798 21.6194 84.5604 21.1001 83.9198 21.1001C83.2791 21.1001 82.7598 21.6194 82.7598 22.2601C82.7598 22.9007 83.2791 23.4201 83.9198 23.4201Z" fill="#4A5059"/>
<path d="M88.8202 23.4201C89.4608 23.4201 89.9802 22.9007 89.9802 22.2601C89.9802 21.6194 89.4608 21.1001 88.8202 21.1001C88.1795 21.1001 87.6602 21.6194 87.6602 22.2601C87.6602 22.9007 88.1795 23.4201 88.8202 23.4201Z" fill="#4A5059"/>
</svg>
