<svg width="118" height="38" viewBox="0 0 118 38" fill="none" xmlns="http://www.w3.org/2000/svg">
<path d="M117 1L109.983 1.87628C109.777 1.90198 109.584 1.99103 109.432 2.1311L101.906 9.02297C101.75 9.16541 101.554 9.25502 101.344 9.27901L93.9535 10.1251C93.7661 10.1465 93.5765 10.1145 93.4065 10.0328L87.7326 7.30487C87.3058 7.09967 86.7936 7.22198 86.5056 7.59788L80.6821 15.1975C80.4661 15.4794 80.1168 15.6256 79.7644 15.5816L73.292 14.7733C73.1014 14.7495 72.9079 14.7811 72.7348 14.8644L66.7563 17.7388C66.4883 17.8676 66.177 17.8705 65.9066 17.7467L62.8607 16.352C62.5346 16.2027 62.1534 16.2395 61.8619 16.4484L55.0321 21.3433C54.7997 21.5099 54.6497 21.7681 54.6201 22.0525L53.5091 32.7135C53.4156 33.6113 52.2742 33.9354 51.7228 33.2207L47.048 27.1622C47.016 27.1208 46.9809 27.082 46.9429 27.0461L41.9298 22.3116C41.7598 22.1511 41.5389 22.0552 41.3055 22.0406L34.7554 21.6316C34.4856 21.6148 34.2341 21.4894 34.0582 21.284L28.2222 14.4697C27.9022 14.0961 27.3581 14.0107 26.9391 14.2682L15 21.6053L10.2212 24.7064C10.0762 24.8005 9.9093 24.8554 9.73675 24.8658L2.96587 25.272C2.67058 25.2898 2.39828 25.4373 2.2222 25.675L0.5 28" stroke="#33CCAB"/>
<path opacity="0.42" d="M34.3333 22.6053L27.6667 14.8211L10.5 24.95H3.5L0.5 29L15 38H91.5H117V2L109.667 2.91579L101.667 10.2421L93.6667 11.1579L87 7.95263L80.3333 16.6526L73 15.7368L66.3333 18.9421L62.3333 17.1105L54.6667 22.6053L53.25 36.2L47 28.1L41.6667 23.0632L34.3333 22.6053Z" fill="url(#paint0_linear_12_12321)"/>
<defs>
<linearGradient id="paint0_linear_12_12321" x1="33" y1="10.55" x2="33.951" y2="38.8849" gradientUnits="userSpaceOnUse">
<stop stop-color="#33CCAB"/>
<stop offset="1" stop-color="white" stop-opacity="0.01"/>
</linearGradient>
</defs>
</svg>
