<?xml version="1.0" encoding="utf-8"?>
<!-- Generator: Adobe Illustrator 17.0.0, SVG Export Plug-In . SVG Version: 6.00 Build 0)  -->
<!DOCTYPE svg PUBLIC "-//W3C//DTD SVG 1.1//EN" "http://www.w3.org/Graphics/SVG/1.1/DTD/svg11.dtd">
<svg version="1.1" id="Layer_1" xmlns="http://www.w3.org/2000/svg" xmlns:xlink="http://www.w3.org/1999/xlink" x="0px" y="0px"
	 width="50px" height="50px" viewBox="0 0 50 50" enable-background="new 0 0 50 50" xml:space="preserve">
<path fill="none" stroke="#33FFCC" d="M25,0.5L25,0.5c13.531,0,24.5,10.969,24.5,24.5l0,0c0,13.531-10.969,24.5-24.5,24.5l0,0
	C11.469,49.5,0.5,38.531,0.5,25l0,0C0.5,11.469,11.469,0.5,25,0.5z"/>
<path fill="#33FFCC" d="M25,15c5.523,0,10,4.477,10,10s-4.477,10-10,10s-10-4.477-10-10S19.477,15,25,15z M24.293,21.464
	l-2.829,2.829c-0.188,0.188-0.293,0.442-0.293,0.707s0.105,0.52,0.293,0.707l2.829,2.829c0.188,0.188,0.442,0.293,0.707,0.293
	s0.52-0.105,0.707-0.293l2.829-2.829c0.188-0.188,0.293-0.442,0.293-0.707s-0.105-0.52-0.293-0.707l-2.829-2.829
	c-0.188-0.188-0.442-0.293-0.707-0.293S24.48,21.277,24.293,21.464z"/>
</svg>
