<?xml version="1.0" encoding="utf-8"?>
<!-- Generator: Adobe Illustrator 17.0.0, SVG Export Plug-In . SVG Version: 6.00 Build 0)  -->
<!DOCTYPE svg PUBLIC "-//W3C//DTD SVG 1.1//EN" "http://www.w3.org/Graphics/SVG/1.1/DTD/svg11.dtd">
<svg version="1.1" id="Layer_1" xmlns="http://www.w3.org/2000/svg" xmlns:xlink="http://www.w3.org/1999/xlink" x="0px" y="0px"
	 width="50px" height="50px" viewBox="0 0 50 50" enable-background="new 0 0 50 50" xml:space="preserve">
<path fill="none" stroke="#33FFCC" d="M25,0.5L25,0.5c13.531,0,24.5,10.969,24.5,24.5l0,0c0,13.531-10.969,24.5-24.5,24.5l0,0
	C11.469,49.5,0.5,38.531,0.5,25l0,0C0.5,11.469,11.469,0.5,25,0.5z"/>
<path fill="#33FFCC" d="M34.199,26.07c0.189-0.244,0.282-0.558,0.198-0.878l-2.488-9.431c-0.144-0.545-0.705-0.872-1.249-0.727
	l-15.898,4.192c-0.542,0.143-0.87,0.706-0.727,1.25l2.488,9.43c0.143,0.544,0.706,0.871,1.25,0.728l5.618-1.482v3.158
	c0,1.766,2.927,2.69,5.82,2.69c2.891,0,5.822-0.924,5.822-2.69v-4.788C35.031,26.947,34.716,26.463,34.199,26.07z M32.398,22.82
	l0.26,0.982l-3.16,0.835l-0.258-0.984L32.398,22.82z M30.564,16.607l0.494,1.87l-4.937,1.303l-0.494-1.87L30.564,16.607z
	 M28.349,23.887l0.253,0.96c-1.169,0.052-2.306,0.256-3.219,0.605l-0.193-0.729L28.349,23.887z M17.346,27.84l-0.258-0.98
	l3.159-0.836l0.26,0.985L17.346,27.84z M21.138,25.791l3.158-0.835l0.239,0.9c-0.077,0.047-0.149,0.096-0.219,0.145l-2.919,0.771
	L21.138,25.791z M33.977,32.232c0,1.03-2.133,1.864-4.768,1.864c-2.632,0-4.767-0.835-4.767-1.864v-1.16
	c0-0.039,0.022-0.074,0.029-0.111c0.151,0.976,2.203,1.751,4.738,1.751c2.536,0,4.589-0.774,4.739-1.751
	c0.006,0.037,0.029,0.072,0.029,0.111V32.232z M33.977,29.951c0,1.029-2.133,1.863-4.768,1.863c-2.632,0-4.767-0.834-4.767-1.863
	v-1.16c0-0.038,0.022-0.074,0.029-0.111c0.151,0.976,2.203,1.752,4.738,1.752c2.536,0,4.589-0.776,4.739-1.752
	c0.006,0.037,0.029,0.073,0.029,0.111V29.951z M29.209,29.383c-2.632,0-4.767-0.834-4.767-1.862c0-1.028,2.135-1.862,4.767-1.862
	c2.634,0,4.768,0.834,4.768,1.862C33.977,28.549,31.843,29.383,29.209,29.383z"/>
</svg>
