<?xml version="1.0" encoding="utf-8"?>
<!-- Generator: Adobe Illustrator 17.0.0, SVG Export Plug-In . SVG Version: 6.00 Build 0)  -->
<!DOCTYPE svg PUBLIC "-//W3C//DTD SVG 1.1//EN" "http://www.w3.org/Graphics/SVG/1.1/DTD/svg11.dtd">
<svg version="1.1" id="Layer_1" xmlns="http://www.w3.org/2000/svg" xmlns:xlink="http://www.w3.org/1999/xlink" x="0px" y="0px"
	 width="50px" height="50px" viewBox="0 0 50 50" enable-background="new 0 0 50 50" xml:space="preserve">
<path fill="none" stroke="#33FFCC" d="M25,0.5L25,0.5c13.531,0,24.5,10.969,24.5,24.5l0,0c0,13.531-10.969,24.5-24.5,24.5l0,0
	C11.469,49.5,0.5,38.531,0.5,25l0,0C0.5,11.469,11.469,0.5,25,0.5z"/>
<path fill="#33FFCC" d="M36.226,19.145v7.767c0,3-0.7,3.967-3.333,4.122v-7.945c0-3.311-0.844-4.145-4.2-4.145H18.203
	c-0.311,0-0.6,0.011-0.867,0.022c0.033-3.167,0.9-3.967,4.2-3.967h10.489C35.381,15,36.226,15.833,36.226,19.145z"/>
<path opacity="0.8" fill="#33FFCC" enable-background="new    " d="M32.89,24.849V23.09c0-3.311-0.845-4.145-4.2-4.145H18.2
	c-0.311,0-0.6,0.011-0.867,0.022C14.7,19.123,14,20.09,14,23.09v1.759H32.89z M32.89,26.516H14v4.341c0,3.311,0.844,4.145,4.2,4.145
	H28.69c3.3,0,4.167-0.8,4.2-3.967V26.516z M17.599,32.289h1.911c0.467,0,0.833-0.378,0.833-0.833c0-0.456-0.378-0.833-0.833-0.833
	h-1.911c-0.456,0-0.833,0.378-0.833,0.833C16.766,31.912,17.144,32.289,17.599,32.289z M25.719,32.289h-3.822
	c-0.456,0-0.833-0.378-0.833-0.833c0-0.456,0.378-0.833,0.833-0.833h3.822c0.456,0,0.833,0.378,0.833,0.833
	C26.553,31.912,26.186,32.289,25.719,32.289z"/>
</svg>
