<svg width="12" height="14" viewBox="0 0 12 14" fill="none" xmlns="http://www.w3.org/2000/svg">
<path d="M10.3158 11.7895C10.3158 12.3757 10.0829 12.938 9.66834 13.3526C9.25379 13.7671 8.69153 14 8.10526 14H2.94737C2.3611 14 1.79884 13.7671 1.38429 13.3526C0.969736 12.938 0.736842 12.3757 0.736842 11.7895V2.94737H0V0.736842H3.31579L4.05263 0H7L7.73684 0.736842H11.0526V2.94737H10.3158V11.7895ZM1.47368 2.94737V11.7895C1.47368 12.1803 1.62895 12.5552 1.90532 12.8315C2.18169 13.1079 2.55652 13.2632 2.94737 13.2632H8.10526C8.49611 13.2632 8.87095 13.1079 9.14732 12.8315C9.42368 12.5552 9.57895 12.1803 9.57895 11.7895V2.94737H1.47368ZM10.3158 2.21053V1.47368H7.36842L6.63158 0.736842H4.42105L3.68421 1.47368H0.736842V2.21053H10.3158ZM2.94737 4.42105H3.68421V11.7895H2.94737V4.42105ZM7.36842 4.42105H8.10526V11.7895H7.36842V4.42105Z" fill="black"/>
</svg>
