<?xml version="1.0" encoding="utf-8"?>
<!-- Generator: Adobe Illustrator 17.0.0, SVG Export Plug-In . SVG Version: 6.00 Build 0)  -->
<!DOCTYPE svg PUBLIC "-//W3C//DTD SVG 1.1//EN" "http://www.w3.org/Graphics/SVG/1.1/DTD/svg11.dtd">
<svg version="1.1" id="Layer_1" xmlns="http://www.w3.org/2000/svg" xmlns:xlink="http://www.w3.org/1999/xlink" x="0px" y="0px"
	 width="12px" height="14px" viewBox="0 0 12 14" enable-background="new 0 0 12 14" xml:space="preserve">
<path d="M10.316,11.79c0,0.586-0.233,1.148-0.647,1.563C9.254,13.767,8.692,14,8.105,14H2.947c-0.586,0-1.149-0.233-1.563-0.647
	c-0.415-0.415-0.647-0.977-0.647-1.563V2.947H0v-2.21h3.316L4.053,0H7l0.737,0.737h3.316v2.211h-0.737V11.79z M1.474,2.947v8.842
	c0,0.391,0.155,0.766,0.432,1.042c0.276,0.276,0.651,0.432,1.042,0.432h5.158c0.391,0,0.766-0.155,1.042-0.432
	c0.276-0.276,0.432-0.651,0.432-1.042V2.947H1.474z M10.316,2.211V1.474H7.368L6.632,0.737H4.421L3.684,1.474H0.737v0.737H10.316z
	 M2.947,4.421h0.737v7.368H2.947V4.421z M7.368,4.421h0.737v7.368H7.368V4.421z"/>
</svg>
