<svg width="22" height="24" viewBox="0 0 22 24" fill="none" xmlns="http://www.w3.org/2000/svg">
<path d="M10.6961 0C10.453 0 10.2099 0.12 10.0884 0.24L8.38674 1.8L6.44199 1.44C5.83425 1.32 5.46961 1.68 5.34807 2.16L4.98343 4.32L2.91713 5.28C2.43094 5.52 2.30939 6 2.55249 6.48L3.52486 8.4L2.55249 10.32C2.30939 10.8 2.55249 11.28 2.91713 11.52L4.98343 12.48L5.34807 14.64C5.46961 15.12 5.9558 15.48 6.44199 15.36L8.75138 15L10.453 16.56C10.8177 16.92 11.4254 16.92 11.7901 16.56L13.4917 15L15.8011 15.36C16.2873 15.48 16.7735 15.12 16.895 14.64L17.2597 12.48L19.326 11.52C19.8122 11.28 19.9337 10.8 19.6906 10.32L18.3536 8.4L19.326 6.48C19.5691 6 19.4475 5.52 18.9613 5.28L16.895 4.32L16.5304 2.16C16.4088 1.68 15.9227 1.32 15.4365 1.44L13.1271 1.8L11.4254 0.24C11.3039 5.36442e-08 10.9392 0 10.6961 0ZM3.76796 13.32L0 20.76L4.37569 20.16L6.56354 24L9.72376 17.64L9.48066 17.4L8.26519 16.32L6.56354 16.56C5.46961 16.68 4.37569 15.96 4.1326 14.88L3.76796 13.32ZM18.1105 13.32L17.7459 14.88C17.5028 15.84 16.6519 16.56 15.6796 16.56H15.4365L13.7348 16.32L12.5193 17.4L12.2762 17.64L15.4365 24L17.6243 20.28L22 20.88L18.1105 13.32Z" fill="url(#paint0_linear_6125_2844)"/>
<defs>
<linearGradient id="paint0_linear_6125_2844" x1="0" y1="24" x2="26.4272" y2="17.1964" gradientUnits="userSpaceOnUse">
<stop stop-color="#85FFC4"/>
<stop offset="0.458333" stop-color="#5CC6FF"/>
<stop offset="0.807292" stop-color="#BC85FF"/>
</linearGradient>
</defs>
</svg>
