<svg width="50" height="50" viewBox="0 0 50 50" fill="none" xmlns="http://www.w3.org/2000/svg">
<rect x="0.5" y="0.5" width="49" height="49" rx="24.5" stroke="#00C9FF"/>
<path d="M25 13C18.3844 13 13 18.3844 13 25C13 31.6156 18.3844 37 25 37C31.6156 37 37 31.6156 37 25C37 18.3844 31.6156 13 25 13ZM25 15C27.4064 15 29.6091 15.8448 31.332 17.2539L17.2539 31.332C15.8448 29.6091 15 27.4064 15 25C15 19.4653 19.4653 15 25 15ZM32.7461 18.668C34.1552 20.3909 35 22.5936 35 25C35 30.5347 30.5347 35 25 35C22.5936 35 20.3909 34.1552 18.668 32.7461L32.7461 18.668Z" fill="#00C9FF"/>
</svg>
