<svg width="24" height="24" viewBox="0 0 24 24" fill="none" xmlns="http://www.w3.org/2000/svg">
<path fill-rule="evenodd" clip-rule="evenodd" d="M12.0257 0C9.01471 0 6.27089 0.99446 4.64798 1.80736C4.5017 1.8806 4.3646 1.95238 4.23716 2.02182C3.98505 2.15923 3.77097 2.2875 3.59985 2.39996L5.44644 5.11834L6.31559 5.46435C9.71309 7.17858 14.2692 7.17858 17.6667 5.46435L18.6536 4.95232L20.3996 2.39996C20.1437 2.22938 19.7899 2.02243 19.3545 1.80239C19.3279 1.78897 19.3011 1.77551 19.2739 1.76201C17.658 0.957962 14.9809 0 12.0257 0ZM7.73091 3.07739C7.06636 2.95478 6.41339 2.78567 5.79702 2.59165C7.31787 1.91633 9.58434 1.19998 12.0257 1.19998C13.7172 1.19998 15.3166 1.54392 16.6394 1.97943C15.0892 2.19827 13.4348 2.56769 11.859 3.02358C10.619 3.38231 9.1695 3.34283 7.73091 3.07739Z" fill="url(#paint0_linear_6153_2537)"/>
<path fill-rule="evenodd" clip-rule="evenodd" d="M18.3708 6.45312L18.2074 6.53556C14.4698 8.42133 9.5126 8.42133 5.77514 6.53556L5.61975 6.4572C0.00544615 12.6179 -5.88445 24.1707 12.0258 23.9976C29.9237 23.8246 23.9416 12.4053 18.3708 6.45312ZM13.0266 10.7997H10.973V11.7597C10.3057 11.7581 9.6641 11.9996 9.18393 12.433C8.70388 12.8662 8.42314 13.4573 8.40124 14.0809C8.37934 14.7044 8.61802 15.3114 9.06663 15.7733C9.5153 16.2351 10.1387 16.5154 10.8047 16.5548L10.973 16.5596H13.0266L13.119 16.5673C13.2373 16.5873 13.3444 16.6456 13.4215 16.7319C13.4986 16.8182 13.5409 16.9272 13.5409 17.0396C13.5409 17.152 13.4986 17.261 13.4215 17.3473C13.3444 17.4336 13.2373 17.4919 13.119 17.5119L13.0266 17.5196H8.91951V19.4396H10.973V20.3995H13.0266V19.4396C13.6939 19.4411 14.3355 19.1996 14.8157 18.7662C15.2957 18.333 15.5765 17.7419 15.5984 17.1184C15.6203 16.4948 15.3816 15.8878 14.933 15.426C14.4843 14.9642 13.8609 14.6839 13.1949 14.6444L13.0266 14.6396H10.973L10.8806 14.632C10.7623 14.6119 10.6552 14.5537 10.5781 14.4673C10.501 14.381 10.4587 14.2721 10.4587 14.1596C10.4587 14.0472 10.501 13.9382 10.5781 13.852C10.6552 13.7656 10.7623 13.7074 10.8806 13.6873L10.973 13.6796H15.0801V11.7597H13.0266V10.7997Z" fill="url(#paint1_linear_6153_2537)"/>
<defs>
<linearGradient id="paint0_linear_6153_2537" x1="3.59985" y1="6.75002" x2="18.0551" y2="-3.35409" gradientUnits="userSpaceOnUse">
<stop stop-color="#85FFC4"/>
<stop offset="0.458333" stop-color="#5CC6FF"/>
<stop offset="0.807292" stop-color="#BC85FF"/>
</linearGradient>
<linearGradient id="paint1_linear_6153_2537" x1="0" y1="23.9995" x2="26.787" y2="13.7094" gradientUnits="userSpaceOnUse">
<stop stop-color="#85FFC4"/>
<stop offset="0.458333" stop-color="#5CC6FF"/>
<stop offset="0.807292" stop-color="#BC85FF"/>
</linearGradient>
</defs>
</svg>
