<svg width="18" height="18" viewBox="0 0 18 18" fill="none" xmlns="http://www.w3.org/2000/svg">
<g clip-path="url(#clip0_7440_3208)">
<mask id="mask0_7440_3208" style="mask-type:luminance" maskUnits="userSpaceOnUse" x="0" y="0" width="18" height="18">
<path d="M18 0H0V18H18V0Z" fill="white"/>
</mask>
<g mask="url(#mask0_7440_3208)">
<path d="M9.94497 2.70041L3.78745 9.21788C3.55495 9.46538 3.32995 9.95288 3.28495 10.2904L3.00745 12.7204C2.90995 13.5979 3.53995 14.1979 4.40995 14.0479L6.82495 13.6354C7.16245 13.5754 7.63497 13.3279 7.86747 13.0729L14.025 6.55541C15.09 5.43041 15.57 4.14791 13.9125 2.58041C12.2625 1.02791 11.01 1.57541 9.94497 2.70041Z" stroke="#45C18F" stroke-miterlimit="10" stroke-linecap="round" stroke-linejoin="round"/>
<path d="M8.91748 3.78906C9.23998 5.85906 10.92 7.44156 13.005 7.65158" stroke="#45C18F" stroke-miterlimit="10" stroke-linecap="round" stroke-linejoin="round"/>
<path d="M2.25 16.5H15.75" stroke="#45C18F" stroke-miterlimit="10" stroke-linecap="round" stroke-linejoin="round"/>
</g>
</g>
<defs>
<clipPath id="clip0_7440_3208">
<rect width="18" height="18" fill="white"/>
</clipPath>
</defs>
</svg>
