<svg width="18" height="18" viewBox="0 0 18 18" fill="none" xmlns="http://www.w3.org/2000/svg">
<mask id="mask0_229_642" style="mask-type:luminance" maskUnits="userSpaceOnUse" x="0" y="0" width="18" height="18">
<path d="M17.5 0.5V17.5H0.5V0.5H17.5Z" fill="white" stroke="white"/>
</mask>
<g mask="url(#mask0_229_642)">
<path d="M9.94455 2.70041L3.78702 9.21788C3.55452 9.46538 3.32952 9.95288 3.28452 10.2904L3.00702 12.7204C2.90952 13.5979 3.53952 14.1979 4.40952 14.0479L6.82452 13.6354C7.16202 13.5754 7.63454 13.3279 7.86704 13.0729L14.0245 6.55541C15.0895 5.43041 15.5695 4.14791 13.912 2.58041C12.262 1.02791 11.0095 1.57541 9.94455 2.70041Z" stroke="#4768E0" stroke-miterlimit="10" stroke-linecap="round" stroke-linejoin="round"/>
<path d="M8.91797 3.78906C9.24047 5.85906 10.9205 7.44156 13.0055 7.65158" stroke="#4768E0" stroke-miterlimit="10" stroke-linecap="round" stroke-linejoin="round"/>
<path d="M2.25 16.5H15.75" stroke="#4768E0" stroke-miterlimit="10" stroke-linecap="round" stroke-linejoin="round"/>
</g>
</svg>
