<?xml version="1.0" encoding="utf-8"?>
<!-- Generator: Adobe Illustrator 17.0.0, SVG Export Plug-In . SVG Version: 6.00 Build 0)  -->
<!DOCTYPE svg PUBLIC "-//W3C//DTD SVG 1.1//EN" "http://www.w3.org/Graphics/SVG/1.1/DTD/svg11.dtd">
<svg version="1.1" id="Layer_1" xmlns="http://www.w3.org/2000/svg" xmlns:xlink="http://www.w3.org/1999/xlink" x="0px" y="0px"
	 width="50px" height="50px" viewBox="0 0 50 50" enable-background="new 0 0 50 50" xml:space="preserve">
<path fill="none" stroke="#33FFCC" d="M25,0.5L25,0.5c13.531,0,24.5,10.969,24.5,24.5l0,0c0,13.531-10.969,24.5-24.5,24.5l0,0
	C11.469,49.5,0.5,38.531,0.5,25l0,0C0.5,11.469,11.469,0.5,25,0.5z"/>
<defs>
	<filter id="Adobe_OpacityMaskFilter" filterUnits="userSpaceOnUse" x="13" y="13" width="24" height="24">
		<feColorMatrix  type="matrix" values="1 0 0 0 0  0 1 0 0 0  0 0 1 0 0  0 0 0 1 0"/>
	</filter>
</defs>
<mask maskUnits="userSpaceOnUse" x="13" y="13" width="24" height="24" id="path-2-inside-1_886_2549">
	<path fill="#FFFFFF" filter="url(#Adobe_OpacityMaskFilter)" d="M27.497,15.814c0.401,0,0.727,0.325,0.727,0.724
		c0,0.4-0.326,0.725-0.727,0.725h-7.043c-2.43,0-4.001,1.665-4.001,4.245v7.808c0,2.613,1.533,4.236,4.001,4.236h8.338
		c2.43,0,4.001-1.663,4.001-4.236v-6.8c0-0.4,0.325-0.725,0.727-0.725c0.401,0,0.727,0.325,0.727,0.725v6.8
		c0,3.4-2.192,5.685-5.455,5.685h-8.338C17.192,35,15,32.715,15,29.315v-7.808c0-3.405,2.192-5.694,5.455-5.694H27.497z
		 M29.547,22.411c0.318,0.245,0.376,0.7,0.13,1.016l-2.839,3.652c-0.118,0.153-0.293,0.252-0.485,0.275
		c-0.194,0.026-0.386-0.03-0.539-0.149l-2.731-2.139l-2.453,3.177c-0.143,0.185-0.359,0.283-0.577,0.283
		c-0.155,0-0.311-0.049-0.443-0.15c-0.318-0.244-0.378-0.699-0.133-1.016l2.9-3.758c0.118-0.154,0.294-0.253,0.486-0.277
		c0.196-0.025,0.388,0.029,0.54,0.15l2.733,2.14l2.391-3.075C28.774,22.223,29.229,22.164,29.547,22.411z M32.411,15
		C33.839,15,35,16.157,35,17.581c0,1.424-1.161,2.582-2.589,2.582c-1.427,0-2.589-1.158-2.589-2.582
		C29.822,16.157,30.983,15,32.411,15z M32.411,16.449c-0.626,0-1.136,0.507-1.136,1.132c0,0.624,0.51,1.133,1.136,1.133
		c0.626,0,1.136-0.509,1.136-1.133C33.547,16.956,33.037,16.449,32.411,16.449z"/>
</mask>
<path mask="url(#path-2-inside-1_886_2549)" fill="#33FFCC" d="M29.547,22.411l-1.228,1.578l0.006,0.005L29.547,22.411z
	 M29.677,23.428L28.1,22.198L28.098,22.2L29.677,23.428z M26.838,27.079l-1.579-1.228l-0.002,0.003L26.838,27.079z M26.353,27.355
	l-0.24-1.986L26.1,25.371l-0.013,0.002L26.353,27.355z M25.815,27.206l-1.233,1.575l0.007,0.006L25.815,27.206z M23.084,25.067
	l1.233-1.574l-1.586-1.242l-1.231,1.594L23.084,25.067z M20.631,28.244l1.582,1.223l0.001-0.001L20.631,28.244z M19.612,28.378
	l-1.219,1.586l0.007,0.005L19.612,28.378z M19.479,27.361l1.582,1.224l0.001-0.002L19.479,27.361z M22.379,23.603l1.583,1.222
	l0.002-0.002L22.379,23.603z M22.865,23.326l0.25,1.984l0.005-0.001L22.865,23.326z M23.405,23.476l-1.243,1.567l0.01,0.008
	L23.405,23.476z M26.137,25.616l-1.233,1.575l1.58,1.237l1.232-1.584L26.137,25.616z M28.528,22.541l1.579,1.228l0.002-0.003
	L28.528,22.541z M27.497,17.813c-0.698,0-1.273-0.565-1.273-1.275h4c0-1.51-1.227-2.724-2.727-2.724V17.813z M26.224,16.538
	c0-0.71,0.576-1.275,1.273-1.275v4c1.5,0,2.727-1.214,2.727-2.725H26.224z M27.497,15.263h-7.043v4h7.043V15.263z M20.455,15.263
	c-1.69,0-3.243,0.591-4.367,1.783c-1.112,1.18-1.634,2.767-1.634,4.462h4c0-0.885,0.264-1.42,0.544-1.718
	c0.269-0.286,0.716-0.527,1.457-0.527V15.263z M14.453,21.507v7.808h4v-7.808H14.453z M14.453,29.315
	c0,1.693,0.502,3.286,1.621,4.471c1.132,1.198,2.693,1.765,4.38,1.765v-4c-0.781,0-1.22-0.245-1.472-0.511
	c-0.264-0.28-0.529-0.805-0.529-1.725H14.453z M20.455,35.551h8.338v-4h-8.338V35.551z M28.792,35.551
	c1.689,0,3.242-0.59,4.366-1.78c1.113-1.178,1.635-2.764,1.635-4.456h-4c0,0.881-0.263,1.413-0.543,1.71
	c-0.269,0.285-0.716,0.526-1.458,0.526V35.551z M34.793,29.315v-6.8h-4v6.8H34.793z M34.793,22.515c0,0.71-0.576,1.275-1.273,1.275
	v-4c-1.5,0-2.727,1.214-2.727,2.725H34.793z M33.52,23.79c-0.698,0-1.273-0.565-1.273-1.275h4c0-1.51-1.227-2.725-2.727-2.725V23.79
	z M32.247,22.515v6.8h4v-6.8H32.247z M32.247,29.315c0,1.266-0.402,2.165-0.947,2.733C30.761,32.609,29.939,33,28.792,33v4
	c2.115,0,4.021-0.752,5.394-2.183c1.366-1.424,2.061-3.368,2.061-5.502H32.247z M28.792,33h-8.338v4h8.338V33z M20.455,33
	c-1.147,0-1.969-0.391-2.508-0.952C17.402,31.479,17,30.581,17,29.315h-4c0,2.134,0.694,4.078,2.061,5.502
	C16.434,36.248,18.339,37,20.455,37V33z M17,29.315v-7.808h-4v7.808H17z M17,21.507c0-1.269,0.402-2.17,0.948-2.74
	c0.539-0.563,1.36-0.953,2.507-0.953v-4c-2.116,0-4.022,0.753-5.395,2.186C13.694,17.426,13,19.372,13,21.507H17z M20.455,17.813
	h7.043v-4h-7.043V17.813z M28.325,23.994c-0.555-0.429-0.664-1.234-0.226-1.796l3.155,2.458c0.93-1.194,0.706-2.909-0.485-3.829
	L28.325,23.994z M28.098,22.2l-2.839,3.652l3.158,2.455l2.839-3.652L28.098,22.2z M25.257,25.855
	c0.207-0.267,0.514-0.444,0.857-0.486l0.48,3.971c0.726-0.088,1.382-0.463,1.826-1.036L25.257,25.855z M26.087,25.372
	c0.366-0.049,0.707,0.062,0.954,0.253l-2.452,3.16c0.553,0.429,1.278,0.652,2.032,0.551L26.087,25.372z M27.048,25.631l-2.731-2.139
	l-2.466,3.149l2.731,2.139L27.048,25.631z M21.501,23.845l-2.453,3.177l3.166,2.444l2.453-3.177L21.501,23.845z M19.049,27.021
	c0.25-0.323,0.629-0.494,1.006-0.494v4c0.813,0,1.622-0.365,2.159-1.06L19.049,27.021z M20.055,26.527
	c0.269,0,0.542,0.086,0.77,0.26l-2.425,3.181c0.491,0.374,1.076,0.559,1.655,0.559V26.527z M20.831,26.792
	c0.554,0.426,0.667,1.229,0.23,1.793l-3.164-2.448c-0.927,1.198-0.694,2.911,0.495,3.826L20.831,26.792z M21.063,28.583l2.9-3.758
	l-3.167-2.444l-2.9,3.758L21.063,28.583z M23.964,24.823c-0.21,0.273-0.518,0.446-0.85,0.487l-0.5-3.969
	c-0.716,0.09-1.374,0.461-1.821,1.042L23.964,24.823z M23.119,25.31c-0.34,0.044-0.688-0.053-0.958-0.267l2.487-3.133
	c-0.575-0.456-1.307-0.661-2.038-0.567L23.119,25.31z M22.172,25.051l2.733,2.14l2.466-3.149l-2.733-2.14L22.172,25.051z
	 M27.716,26.843l2.391-3.075l-3.158-2.455l-2.391,3.075L27.716,26.843z M30.109,23.765c-0.427,0.552-1.23,0.66-1.79,0.224
	l2.456-3.157c-1.196-0.931-2.909-0.704-3.829,0.483L30.109,23.765z M32.411,17C32.74,17,33,17.268,33,17.581h4
	C37,15.047,34.938,13,32.411,13V17z M33,17.581c0,0.314-0.261,0.582-0.589,0.582v4c2.528,0,4.589-2.049,4.589-4.582H33z
	 M32.411,18.163c-0.328,0-0.589-0.268-0.589-0.582h-4c0,2.534,2.063,4.582,4.589,4.582V18.163z M31.822,17.581
	c0-0.313,0.26-0.581,0.589-0.581v-4c-2.526,0-4.589,2.047-4.589,4.581H31.822z M32.411,14.449c-1.724,0-3.136,1.396-3.136,3.132h4
	c0,0.486-0.393,0.868-0.864,0.868V14.449z M29.275,17.581c0,1.732,1.409,3.133,3.136,3.133v-4c0.475,0,0.864,0.383,0.864,0.867
	H29.275z M32.411,20.714c1.727,0,3.136-1.401,3.136-3.133h-4c0-0.484,0.389-0.867,0.864-0.867V20.714z M35.547,17.581
	c0-1.737-1.412-3.132-3.136-3.132v4c-0.472,0-0.864-0.381-0.864-0.868H35.547z"/>
</svg>
