<?xml version="1.0" encoding="utf-8"?>
<!-- Generator: Adobe Illustrator 17.0.0, SVG Export Plug-In . SVG Version: 6.00 Build 0)  -->
<!DOCTYPE svg PUBLIC "-//W3C//DTD SVG 1.1//EN" "http://www.w3.org/Graphics/SVG/1.1/DTD/svg11.dtd">
<svg version="1.1" id="Layer_1" xmlns="http://www.w3.org/2000/svg" xmlns:xlink="http://www.w3.org/1999/xlink" x="0px" y="0px"
	 width="50px" height="50px" viewBox="0 0 50 50" enable-background="new 0 0 50 50" xml:space="preserve">
<path fill="none" stroke="#33FFCC" d="M25,0.5L25,0.5c13.531,0,24.5,10.969,24.5,24.5l0,0c0,13.531-10.969,24.5-24.5,24.5l0,0
	C11.469,49.5,0.5,38.531,0.5,25l0,0C0.5,11.469,11.469,0.5,25,0.5z"/>
<defs>
	<filter id="Adobe_OpacityMaskFilter" filterUnits="userSpaceOnUse" x="13" y="13" width="24" height="24">
		<feColorMatrix  type="matrix" values="1 0 0 0 0  0 1 0 0 0  0 0 1 0 0  0 0 0 1 0"/>
	</filter>
</defs>
<mask maskUnits="userSpaceOnUse" x="13" y="13" width="24" height="24" id="path-2-inside-1_886_2548">
	<path fill="#FFFFFF" filter="url(#Adobe_OpacityMaskFilter)" d="M20.154,32.35c0.714,0,1.295,0.594,1.295,1.324
		c0,0.731-0.581,1.325-1.295,1.325c-0.714,0-1.294-0.595-1.294-1.325C18.86,32.944,19.44,32.35,20.154,32.35z M31.434,32.35
		c0.715,0,1.296,0.594,1.296,1.324c0,0.731-0.581,1.325-1.296,1.325c-0.714,0-1.294-0.595-1.294-1.325
		C30.14,32.944,30.72,32.35,31.434,32.35z M15.878,15.01l2.08,0.368c0.335,0.06,0.59,0.345,0.619,0.693l0.235,2.867l0.874,0
		c0.143,0,0.284,0,0.423,0l1.604,0.001c0.128,0,0.254,0,0.379,0l1.771,0.001c0.111,0,0.221,0,0.33,0l1.241,0.001
		c0.098,0,0.195,0,0.291,0l1.092,0.001c0.086,0,0.171,0,0.255,0l0.952,0.001c0.075,0,0.149,0,0.221,0l0.626,0.001
		c0.066,0,0.132,0,0.196,0l0.725,0.001c0.057,0,0.112,0,0.167,0l0.612,0.001c0.047,0,0.094,0,0.14,0l0.389,0.001
		c0.041,0,0.081,0,0.12,0l0.433,0.001c0.033,0,0.066,0,0.097,0l0.267,0.001c0.028,0,0.055,0,0.081,0l0.286,0.001
		c0.021,0,0.042,0,0.063,0l0.168,0.001c0.017,0,0.034,0,0.05,0l0.17,0.001c0.012,0,0.024,0,0.036,0l0.092,0.001
		c0.009,0,0.018,0,0.026,0l0.067,0.001c0.006,0,0.013,0,0.018,0l0.045,0.001c0.004,0,0.008,0,0.012,0l0.029,0.001
		c0.003,0,0.005,0,0.007,0l0.021,0.001l0.003,0c0.01,0.001,0.013,0.001,0.013,0.001c0.557,0.083,1.047,0.381,1.381,0.839
		c0.334,0.458,0.474,1.022,0.394,1.587l-0.949,6.712c-0.179,1.277-1.263,2.241-2.523,2.241H20.585c-1.317,0-2.432-1.052-2.539-2.398
		L17.13,16.79l-1.507-0.266c-0.409-0.074-0.682-0.47-0.612-0.888C15.083,15.217,15.478,14.944,15.878,15.01z M19.485,20.473
		l-0.547,0l0.603,7.34c0.044,0.565,0.495,0.989,1.046,0.989h10.917c0.521,0,0.966-0.397,1.04-0.924l0.95-6.713
		c0.022-0.16-0.017-0.319-0.112-0.448c-0.094-0.13-0.232-0.214-0.388-0.236c-0.007,0-0.024,0-0.051,0.001l-0.109,0.001
		c-0.023,0-0.048,0-0.075,0l-0.566,0.001c-0.048,0-0.098,0-0.149,0h-1.332c-0.074,0-0.15,0-0.227,0l-1.52-0.001
		c-0.091,0-0.183,0-0.276,0l-0.86-0.001c-0.098,0-0.197,0-0.296,0l-0.911-0.001c-0.103,0-0.206,0-0.31,0l-0.628-0.001
		c-0.105,0-0.211,0-0.317,0l-0.958-0.001c-0.107,0-0.214,0-0.32,0l-0.641-0.001c-0.107,0-0.213,0-0.319,0l-0.635,0
		c-0.105,0-0.21,0-0.315,0l-0.931-0.001c-0.102,0-0.203,0-0.304,0l-1.176-0.001C19.672,20.474,19.578,20.473,19.485,20.473z
		 M29.898,22.721c0.414,0,0.75,0.344,0.75,0.768c0,0.424-0.336,0.768-0.75,0.768h-2.772c-0.415,0-0.75-0.344-0.75-0.768
		c0-0.424,0.335-0.768,0.75-0.768H29.898z"/>
</mask>
<path mask="url(#path-2-inside-1_886_2548)" fill="none" stroke="#33FFCC" stroke-width="4" d="M20.154,32.35
	c0.714,0,1.295,0.594,1.295,1.324c0,0.731-0.581,1.325-1.295,1.325c-0.714,0-1.294-0.595-1.294-1.325
	C18.86,32.944,19.44,32.35,20.154,32.35z M31.434,32.35c0.715,0,1.296,0.594,1.296,1.324c0,0.731-0.581,1.325-1.296,1.325
	c-0.714,0-1.294-0.595-1.294-1.325C30.14,32.944,30.72,32.35,31.434,32.35z M15.878,15.01l2.08,0.368
	c0.335,0.06,0.59,0.345,0.619,0.693l0.235,2.867l0.874,0c0.143,0,0.284,0,0.423,0l1.604,0.001c0.128,0,0.254,0,0.379,0l1.771,0.001
	c0.111,0,0.221,0,0.33,0l1.241,0.001c0.098,0,0.195,0,0.291,0l1.092,0.001c0.086,0,0.171,0,0.255,0l0.952,0.001
	c0.075,0,0.149,0,0.221,0l0.626,0.001c0.066,0,0.132,0,0.196,0l0.725,0.001c0.057,0,0.112,0,0.167,0l0.612,0.001
	c0.047,0,0.094,0,0.14,0l0.389,0.001c0.041,0,0.081,0,0.12,0l0.433,0.001c0.033,0,0.066,0,0.097,0l0.267,0.001
	c0.028,0,0.055,0,0.081,0l0.286,0.001c0.021,0,0.042,0,0.063,0l0.168,0.001c0.017,0,0.034,0,0.05,0l0.17,0.001
	c0.012,0,0.024,0,0.036,0l0.092,0.001c0.009,0,0.018,0,0.026,0l0.067,0.001c0.006,0,0.013,0,0.018,0l0.045,0.001
	c0.004,0,0.008,0,0.012,0l0.029,0.001c0.003,0,0.005,0,0.007,0l0.021,0.001l0.003,0c0.01,0.001,0.013,0.001,0.013,0.001
	c0.557,0.083,1.047,0.381,1.381,0.839c0.334,0.458,0.474,1.022,0.394,1.587l-0.949,6.712c-0.179,1.277-1.263,2.241-2.523,2.241
	H20.585c-1.317,0-2.432-1.052-2.539-2.398L17.13,16.79l-1.507-0.266c-0.409-0.074-0.682-0.47-0.612-0.888
	C15.083,15.217,15.478,14.944,15.878,15.01z M19.485,20.473l-0.547,0l0.603,7.34c0.044,0.565,0.495,0.989,1.046,0.989h10.917
	c0.521,0,0.966-0.397,1.04-0.924l0.95-6.713c0.022-0.16-0.017-0.319-0.112-0.448c-0.094-0.13-0.232-0.214-0.388-0.236
	c-0.007,0-0.024,0-0.051,0.001l-0.109,0.001c-0.023,0-0.048,0-0.075,0l-0.566,0.001c-0.048,0-0.098,0-0.149,0h-1.332
	c-0.074,0-0.15,0-0.227,0l-1.52-0.001c-0.091,0-0.183,0-0.276,0l-0.86-0.001c-0.098,0-0.197,0-0.296,0l-0.911-0.001
	c-0.103,0-0.206,0-0.31,0l-0.628-0.001c-0.105,0-0.211,0-0.317,0l-0.958-0.001c-0.107,0-0.214,0-0.32,0l-0.641-0.001
	c-0.107,0-0.213,0-0.319,0l-0.635,0c-0.105,0-0.21,0-0.315,0l-0.931-0.001c-0.102,0-0.203,0-0.304,0l-1.176-0.001
	C19.672,20.474,19.578,20.473,19.485,20.473z M29.898,22.721c0.414,0,0.75,0.344,0.75,0.768c0,0.424-0.336,0.768-0.75,0.768h-2.772
	c-0.415,0-0.75-0.344-0.75-0.768c0-0.424,0.335-0.768,0.75-0.768H29.898z"/>
</svg>
