<?xml version="1.0" encoding="utf-8"?>
<!-- Generator: Adobe Illustrator 17.0.0, SVG Export Plug-In . SVG Version: 6.00 Build 0)  -->
<!DOCTYPE svg PUBLIC "-//W3C//DTD SVG 1.1//EN" "http://www.w3.org/Graphics/SVG/1.1/DTD/svg11.dtd">
<svg version="1.1" id="Layer_1" xmlns="http://www.w3.org/2000/svg" xmlns:xlink="http://www.w3.org/1999/xlink" x="0px" y="0px"
	 width="50px" height="50px" viewBox="0 0 50 50" enable-background="new 0 0 50 50" xml:space="preserve">
<path fill="none" stroke="#33FFCC" d="M25,0.5L25,0.5c13.531,0,24.5,10.969,24.5,24.5l0,0c0,13.531-10.969,24.5-24.5,24.5l0,0
	C11.469,49.5,0.5,38.531,0.5,25l0,0C0.5,11.469,11.469,0.5,25,0.5z"/>
<path fill="none" stroke="#33FFCC" stroke-width="2" stroke-linecap="round" stroke-linejoin="round" d="M17.667,33.111L14,29.444
	 M14,29.444l3.667-3.667 M14,29.444h9.778c2.025,0,3.667-1.642,3.667-3.667v-1.222 M22.556,24.556v-1.222
	c0-2.025,1.642-3.667,3.667-3.667H36 M36,19.667l-3.667,3.667 M36,19.667L32.333,16"/>
</svg>
