<?xml version="1.0" encoding="utf-8"?>
<!-- Generator: Adobe Illustrator 17.0.0, SVG Export Plug-In . SVG Version: 6.00 Build 0)  -->
<!DOCTYPE svg PUBLIC "-//W3C//DTD SVG 1.1//EN" "http://www.w3.org/Graphics/SVG/1.1/DTD/svg11.dtd">
<svg version="1.1" id="Layer_1" xmlns="http://www.w3.org/2000/svg" xmlns:xlink="http://www.w3.org/1999/xlink" x="0px" y="0px"
	 width="14px" height="14px" viewBox="0 0 14 14" enable-background="new 0 0 14 14" xml:space="preserve">
<path fill="#33FFCC" d="M8.552,0v1.557h2.79L3.708,9.199l1.093,1.093l7.643-7.643v2.79H14V0H8.552z M12.443,12.435H1.557V1.557
	h5.439V0H1.557C0.7,0,0,0.7,0,1.557v10.878c0,0.411,0.166,0.804,0.455,1.102c0.289,0.289,0.691,0.455,1.102,0.455h10.878
	c0.411,0,0.804-0.166,1.102-0.455c0.297-0.288,0.455-0.691,0.455-1.102V6.996h-1.557C12.443,6.996,12.443,12.435,12.443,12.435z"/>
</svg>
