<svg width="263" height="288" viewBox="0 0 263 288" fill="none" xmlns="http://www.w3.org/2000/svg">
<path d="M134.456 22.8271H110.931V43.3792H134.456V22.8271Z" fill="#BAC8FC"/>
<path d="M138.376 34.5096H107.01V13.3202C117.025 10.421 128.361 10.421 138.376 13.3202V34.5096Z" fill="#3354CC"/>
<path d="M108.989 14.6066C110.098 14.9072 111.218 15.1435 112.347 15.3222C113.472 15.5179 114.603 15.6759 115.739 15.7749C118.01 15.9876 120.287 16.0843 122.566 16.0592C123.704 16.0149 124.844 16.0171 125.98 15.9122L127.686 15.7941C128.253 15.7276 128.82 15.6708 129.389 15.6176C131.662 15.3857 133.914 14.984 136.183 14.6074C135.082 14.933 133.973 15.2454 132.856 15.5245C131.728 15.7424 130.607 16.0274 129.465 16.181C127.192 16.5828 124.882 16.7238 122.575 16.7976C120.266 16.805 117.953 16.6869 115.669 16.3368C113.391 15.9853 111.117 15.492 108.989 14.6066Z" fill="#BAC8FC"/>
<path d="M108.997 18.4082C109.174 20.7764 109.206 23.1248 109.29 25.4694C109.317 26.642 109.368 27.8125 109.431 28.9808C109.51 30.1475 109.564 31.318 109.771 32.487C109.288 31.3963 109.035 30.214 108.859 29.0406C108.677 27.8635 108.593 26.6775 108.553 25.493C108.493 23.1233 108.595 20.7513 108.997 18.4082Z" fill="#BAC8FC"/>
<path d="M113.224 19.2065C113.492 21.4315 113.562 23.6491 113.626 25.8645L113.678 29.1854L113.71 30.8432C113.734 31.3926 113.723 31.9524 113.882 32.4863C113.353 31.4776 113.247 30.3196 113.104 29.2216C112.976 28.1094 112.921 26.9951 112.889 25.8815C112.849 23.6543 112.912 21.4264 113.224 19.2065Z" fill="#BAC8FC"/>
<path d="M117.994 19.9684C118.187 21.9556 118.229 23.9214 118.315 25.8843C118.344 26.8657 118.393 27.8441 118.45 28.8219C118.522 29.7981 118.57 30.7766 118.744 31.7587C118.295 30.8615 118.048 29.872 117.879 28.8891C117.703 27.9032 117.622 26.9063 117.58 25.9123C117.516 23.9229 117.609 21.9305 117.994 19.9684Z" fill="#BAC8FC"/>
<path d="M135.81 18.4082C136.212 20.7513 136.314 23.1233 136.254 25.493C136.213 26.6775 136.13 27.8642 135.948 29.0406C135.773 30.214 135.519 31.3963 135.037 32.487C135.243 31.318 135.297 30.1483 135.376 28.9808C135.44 27.8125 135.49 26.642 135.518 25.4694C135.602 23.124 135.633 20.7764 135.81 18.4082Z" fill="#BAC8FC"/>
<path d="M131.583 19.2065C131.895 21.4264 131.958 23.6543 131.917 25.8822C131.886 26.9958 131.83 28.1109 131.702 29.2223C131.559 30.3196 131.453 31.4783 130.924 32.487C131.083 31.9531 131.072 31.3934 131.097 30.844L131.128 29.1861L131.181 25.8652C131.246 23.6484 131.316 21.4308 131.583 19.2065Z" fill="#BAC8FC"/>
<path d="M126.814 19.9684C127.2 21.9305 127.293 23.9229 127.229 25.9123C127.187 26.9063 127.106 27.9025 126.93 28.8891C126.761 29.872 126.515 30.8608 126.065 31.7587C126.24 30.7766 126.288 29.7981 126.359 28.8219C126.417 27.8449 126.464 26.8657 126.494 25.8843C126.579 23.9222 126.621 21.9564 126.814 19.9684Z" fill="#BAC8FC"/>
<path d="M122.472 19.9684C122.779 21.9328 122.852 23.9015 122.85 25.8702C122.837 26.8546 122.81 27.8397 122.726 28.8241C122.643 29.8047 122.542 30.8009 122.253 31.758C122.257 30.7692 122.165 29.7915 122.151 28.8093C122.118 27.8279 122.114 26.8465 122.114 25.8651C122.139 23.9015 122.2 21.9372 122.472 19.9684Z" fill="#BAC8FC"/>
<path d="M124.511 241.12C176.678 241.12 218.968 198.728 218.968 146.436C218.968 94.1433 176.678 51.7518 124.511 51.7518C72.3433 51.7518 30.0532 94.1433 30.0532 146.436C30.0532 198.728 72.3433 241.12 124.511 241.12Z" fill="#F3F8FA"/>
<path d="M40.8105 203.789C40.8105 203.789 24.1074 252.032 29.181 253.413C34.2546 254.794 70.4971 224.249 70.4971 224.249L40.8105 203.789Z" fill="#3354CC"/>
<path d="M207.604 203.789C207.604 203.789 224.307 252.032 219.234 253.413C214.16 254.794 177.917 224.249 177.917 224.249L207.604 203.789Z" fill="#3354CC"/>
<path d="M124.511 40.376C66.076 40.376 18.7051 87.8605 18.7051 146.436C18.7051 205.011 66.076 252.496 124.511 252.496C182.947 252.496 230.318 205.012 230.318 146.436C230.318 87.8605 182.947 40.376 124.511 40.376ZM124.511 241.12C72.3438 241.12 30.0539 198.729 30.0539 146.436C30.0539 94.1434 72.3438 51.752 124.511 51.752C176.679 51.752 218.969 94.1434 218.969 146.436C218.969 198.729 176.679 241.12 124.511 241.12Z" fill="#3354CC"/>
<path opacity="0.23" d="M120.832 150.897H127.102L123.967 95.1173L120.832 150.897Z" fill="#BAC8FC"/>
<path d="M119.903 149.618H126.173L123.037 93.8384L119.903 149.618Z" fill="#BAC8FC"/>
<path opacity="0.23" d="M121.022 149.284L125.766 153.393L171.563 95.4617L121.022 149.284Z" fill="#BAC8FC"/>
<path d="M120.094 148.005L124.838 152.114L170.635 94.1825L120.094 148.005Z" fill="#BAC8FC"/>
<path opacity="0.23" d="M123.038 155.791C127.367 155.791 130.876 152.273 130.876 147.934C130.876 143.595 127.367 140.078 123.038 140.078C118.71 140.078 115.201 143.595 115.201 147.934C115.201 152.273 118.71 155.791 123.038 155.791Z" fill="#BAC8FC"/>
<path opacity="0.23" d="M123.038 158.774C127.367 158.774 130.876 155.257 130.876 150.918C130.876 146.579 127.367 143.061 123.038 143.061C118.71 143.061 115.201 146.579 115.201 150.918C115.201 155.257 118.71 158.774 123.038 158.774Z" fill="#BAC8FC"/>
<path d="M123.038 157.475C127.367 157.475 130.876 153.957 130.876 149.618C130.876 145.279 127.367 141.762 123.038 141.762C118.71 141.762 115.201 145.279 115.201 149.618C115.201 153.957 118.71 157.475 123.038 157.475Z" fill="#BAC8FC"/>
<path opacity="0.23" d="M119.543 152.006C120.153 154.023 122.354 155.016 124.052 154.532C126.393 153.864 127.48 150.472 126.041 148.55C125.118 147.317 123.241 146.805 121.665 147.487C119.973 148.219 118.988 150.17 119.543 152.006Z" fill="#BAC8FC"/>
<path d="M124.511 56.6775C124.969 57.4315 125.206 58.1862 125.377 58.9401C125.539 59.6941 125.614 60.4488 125.616 61.2028C125.617 61.9567 125.542 62.7114 125.38 63.4654C125.209 64.2194 124.971 64.9741 124.511 65.7281C124.05 64.9741 123.812 64.2194 123.642 63.4654C123.48 62.7114 123.405 61.9567 123.406 61.2028C123.408 60.4488 123.483 59.6941 123.645 58.9401C123.817 58.1862 124.055 57.4322 124.511 56.6775Z" fill="#BAC8FC"/>
<path d="M79.7398 68.7034C80.5118 69.1273 81.0938 69.662 81.6183 70.2291C82.1347 70.8007 82.5768 71.4165 82.9539 72.0686C83.3319 72.7207 83.6428 73.4119 83.8785 74.1466C84.1069 74.8851 84.277 75.6575 84.2542 76.5415C83.4792 76.1191 82.8972 75.5852 82.3734 75.0173C81.857 74.445 81.415 73.8298 81.0407 73.1763C80.6658 72.5228 80.3549 71.8316 80.1191 71.0968C79.8908 70.3576 79.7206 69.5852 79.7398 68.7034Z" fill="#BAC8FC"/>
<path d="M46.9641 101.557C47.8445 101.537 48.6143 101.708 49.3517 101.936C50.084 102.173 50.7736 102.484 51.4255 102.86C52.0782 103.236 52.6919 103.678 53.2621 104.196C53.8286 104.721 54.3613 105.305 54.7826 106.081C53.9008 106.104 53.1302 105.934 52.3935 105.704C51.6613 105.468 50.9717 105.156 50.3212 104.777C49.67 104.399 49.0563 103.957 48.4861 103.438C47.9196 102.914 47.387 102.331 46.9641 101.557Z" fill="#BAC8FC"/>
<path d="M34.9683 146.436C35.7204 145.977 36.4733 145.74 37.2255 145.568C37.9777 145.406 38.7306 145.331 39.4827 145.329C40.2349 145.328 40.9878 145.403 41.74 145.565C42.4921 145.737 43.245 145.975 43.9972 146.437C43.245 146.898 42.4921 147.137 41.74 147.307C40.9878 147.47 40.2349 147.546 39.4827 147.544C38.7306 147.542 37.9777 147.467 37.2255 147.304C36.4726 147.132 35.7204 146.895 34.9683 146.436Z" fill="#BAC8FC"/>
<path d="M46.9641 191.315C47.387 190.541 47.9196 189.958 48.4861 189.432C49.0563 188.915 49.6707 188.471 50.3212 188.093C50.9717 187.715 51.6613 187.403 52.3935 187.167C53.1302 186.938 53.9008 186.767 54.7826 186.789C54.3613 187.566 53.8286 188.15 53.2621 188.675C52.6912 189.192 52.0775 189.635 51.4255 190.01C50.7736 190.386 50.084 190.698 49.3517 190.934C48.615 191.164 47.8445 191.335 46.9641 191.315Z" fill="#BAC8FC"/>
<path d="M79.7399 224.169C79.72 223.286 79.8909 222.515 80.1185 221.775C80.3543 221.041 80.6651 220.35 81.0401 219.696C81.4151 219.042 81.8564 218.426 82.3728 217.855C82.8966 217.287 83.4793 216.753 84.2536 216.331C84.2757 217.215 84.1062 217.987 83.8779 218.726C83.6421 219.46 83.3312 220.151 82.9533 220.804C82.5761 221.456 82.1348 222.071 81.6177 222.643C81.0939 223.211 80.5126 223.745 79.7399 224.169Z" fill="#BAC8FC"/>
<path d="M124.512 236.194C124.055 235.44 123.817 234.685 123.646 233.931C123.484 233.177 123.409 232.422 123.408 231.668C123.406 230.914 123.481 230.16 123.643 229.406C123.814 228.652 124.052 227.897 124.512 227.143C124.972 227.897 125.21 228.652 125.381 229.406C125.543 230.16 125.619 230.914 125.617 231.668C125.616 232.422 125.54 233.177 125.378 233.931C125.207 234.686 124.97 235.44 124.512 236.194Z" fill="#BAC8FC"/>
<path d="M169.283 224.169C168.511 223.745 167.929 223.21 167.404 222.643C166.888 222.071 166.446 221.456 166.068 220.804C165.69 220.151 165.38 219.46 165.144 218.726C164.916 217.987 164.745 217.215 164.768 216.331C165.543 216.753 166.125 217.287 166.649 217.855C167.165 218.427 167.607 219.042 167.982 219.696C168.357 220.349 168.667 221.041 168.903 221.775C169.132 222.515 169.303 223.286 169.283 224.169Z" fill="#BAC8FC"/>
<path d="M202.058 191.315C201.178 191.335 200.407 191.164 199.671 190.936C198.938 190.699 198.249 190.388 197.597 190.012C196.944 189.636 196.33 189.194 195.76 188.676C195.194 188.151 194.661 187.567 194.24 186.791C195.122 186.769 195.892 186.938 196.629 187.168C197.361 187.404 198.051 187.716 198.701 188.095C199.352 188.473 199.966 188.915 200.536 189.434C201.102 189.958 201.635 190.541 202.058 191.315Z" fill="#BAC8FC"/>
<path d="M214.056 146.436C213.304 146.895 212.551 147.132 211.799 147.304C211.046 147.466 210.293 147.541 209.541 147.543C208.789 147.544 208.036 147.469 207.284 147.307C206.532 147.136 205.779 146.897 205.027 146.436C205.779 145.974 206.532 145.736 207.284 145.565C208.036 145.402 208.789 145.327 209.541 145.328C210.293 145.33 211.046 145.405 211.799 145.568C212.551 145.74 213.304 145.977 214.056 146.436Z" fill="#BAC8FC"/>
<path d="M202.058 101.557C201.635 102.331 201.103 102.914 200.536 103.44C199.965 103.958 199.352 104.401 198.701 104.779C198.051 105.158 197.361 105.468 196.629 105.706C195.892 105.934 195.122 106.105 194.24 106.083C194.661 105.306 195.194 104.723 195.76 104.198C196.331 103.68 196.945 103.237 197.597 102.862C198.249 102.486 198.938 102.174 199.671 101.938C200.407 101.708 201.178 101.537 202.058 101.557Z" fill="#BAC8FC"/>
<path d="M169.283 68.7033C169.303 69.5858 169.132 70.3575 168.905 71.0967C168.669 71.8307 168.358 72.5219 167.983 73.1762C167.608 73.8305 167.167 74.4456 166.65 75.0172C166.126 75.585 165.544 76.1189 164.77 76.5413C164.747 75.6574 164.917 74.885 165.145 74.1465C165.381 73.4125 165.692 72.7213 166.07 72.0685C166.447 71.4157 166.888 70.8005 167.405 70.229C167.929 69.6611 168.511 69.1272 169.283 68.7033Z" fill="#BAC8FC"/>
<path opacity="0.23" d="M124.511 56.6663C175.826 56.6663 217.583 97.6849 218.933 148.797C218.954 148.012 218.968 147.225 218.968 146.436C218.968 94.1432 176.678 51.7518 124.511 51.7518C72.3432 51.7518 30.0532 94.1432 30.0532 146.436C30.0532 147.225 30.0672 148.012 30.0886 148.797C31.4389 97.6849 73.1955 56.6663 124.511 56.6663Z" fill="#BAC8FC"/>
<path d="M119.543 150.743C120.153 152.759 122.354 153.753 124.052 153.268C126.393 152.601 127.48 149.208 126.041 147.287C125.118 146.053 123.241 145.542 121.665 146.223C119.973 146.955 118.988 148.907 119.543 150.743Z" fill="#3354CC"/>
<path d="M145.365 45.278C152.369 46.4514 159.172 48.7 165.702 51.5055C172.24 54.319 178.442 57.8976 184.252 62.0182C187.133 64.1154 189.885 66.3847 192.533 68.7685C195.146 71.1906 197.658 73.725 199.972 76.4359C204.605 81.8496 208.565 87.8296 211.753 94.1834C209.981 91.1032 208.192 88.0335 206.108 85.1609C204.112 82.2299 201.868 79.4791 199.545 76.8103C197.179 74.177 194.7 71.6477 192.082 69.2677C189.439 66.9172 186.692 64.684 183.821 62.6178C178.087 58.4773 171.926 54.9319 165.473 52.0239C162.252 50.558 158.956 49.2524 155.6 48.1255C152.251 46.9772 148.84 45.9899 145.365 45.278Z" fill="#BAC8FC"/>
<path d="M122.902 245.502C115.802 245.62 108.705 244.646 101.776 243.073C94.8377 241.494 88.0918 239.1 81.6325 236.104C78.4198 234.565 75.3028 232.833 72.2684 230.969C69.2612 229.062 66.3321 227.026 63.5658 224.78C58.031 220.298 53.0554 215.136 48.7715 209.467C51.0707 212.174 53.3854 214.868 55.9535 217.315C58.4458 219.835 61.1502 222.133 63.9172 224.335C66.7203 226.495 69.6148 228.532 72.6198 230.397C75.6446 232.228 78.7498 233.925 81.9463 235.436C88.3342 238.467 95.0344 240.834 101.906 242.522C105.338 243.378 108.815 244.064 112.32 244.562C115.823 245.082 119.356 245.433 122.902 245.502Z" fill="#BAC8FC"/>
<path d="M156.092 112.579C156.366 112.846 156.46 112.807 156.638 113.072C157.207 113.92 159.071 114.591 160.132 114.992C161.965 116.46 164.889 119.405 165.541 116.524C166.117 113.973 166.593 112.697 166.139 111.2C166.111 111.049 165.025 110.359 164.934 110.19C164.054 108.56 163.198 106.871 162.172 105.429C160.664 103.306 158.683 104.5 159.004 105.131C159.103 105.327 162.633 106.858 161.959 106.434C161.154 105.214 161.209 105.423 160.319 104.761C158.512 103.417 156.534 104.867 158.066 105.847C158.302 105.997 159.237 105.978 159.666 106.102C159.747 106.126 159.807 106.157 159.836 106.201C159.869 106.252 159.096 105.714 158.673 105.45C156.773 104.26 155.493 106.102 156.032 106.826C156.231 107.093 157.653 106.67 157.884 106.899C158.087 107.1 156.378 105.847 155.834 106.244C154.447 107.256 154.881 109.879 155.275 110.528L156.684 109.201C156.618 109.098 157.235 110.093 157.464 110.599C157.707 111.303 157.675 111.222 157.367 110.966" fill="#EDBDA3"/>
<path d="M156.092 106.165C156.402 106.086 156.731 106.114 157.046 106.199C157.363 106.284 157.659 106.456 157.904 106.683C158.151 106.918 158.314 107.208 158.453 107.476C158.599 107.75 158.739 108.027 158.845 108.328C158.611 108.112 158.412 107.874 158.217 107.632C158.013 107.388 157.86 107.137 157.65 106.951C157.241 106.557 156.703 106.311 156.092 106.165Z" fill="#CC8972"/>
<path d="M157.589 105.064C157.901 105.091 158.206 105.158 158.509 105.232C158.822 105.321 159.095 105.356 159.423 105.541C159.703 105.761 159.883 106.013 160.05 106.282C160.213 106.55 160.357 106.827 160.455 107.129C160.228 106.909 160.028 106.677 159.824 106.453C159.617 106.236 159.419 105.994 159.209 105.841C159.136 105.772 158.957 105.733 158.826 105.674C158.686 105.615 158.544 105.564 158.409 105.496C158.133 105.369 157.858 105.236 157.589 105.064Z" fill="#CC8972"/>
<path d="M159.344 104.286C159.614 104.341 159.861 104.436 160.109 104.529C160.354 104.626 160.592 104.74 160.82 104.847L160.897 104.88L160.935 104.894C160.968 104.907 161.008 104.925 161.031 104.942C161.111 105.003 161.156 105.065 161.198 105.124C161.284 105.24 161.349 105.36 161.406 105.483C161.525 105.725 161.622 105.976 161.684 106.242C161.501 106.041 161.341 105.83 161.181 105.625L160.938 105.336C160.899 105.29 160.853 105.255 160.829 105.235C160.826 105.234 160.834 105.241 160.838 105.238C160.838 105.238 160.799 105.226 160.782 105.22L160.675 105.18C160.421 105.072 160.193 104.94 159.97 104.793C159.752 104.641 159.535 104.485 159.344 104.286Z" fill="#CC8972"/>
<path d="M229.649 195.847C229.503 197.162 229.079 199.059 228.773 200.571C228.376 202.53 227.38 202.474 227.453 201.672C227.479 201.376 228.06 196.773 228.128 196.491C228.189 196.244 227.895 196.276 227.787 197.264C227.784 197.268 227.511 198.441 227.312 199.486C226.829 202.031 225.918 201.467 225.914 200.79C225.913 200.54 226.247 196.477 226.253 196.231C226.255 196.122 226.149 194.373 226.087 193.882C225.903 193.055 225.756 192.945 225.641 193.377C225.397 195.402 224.96 196.688 224.375 196.312C223.894 196.003 224.248 193.87 224.308 192.393C224.345 191.483 225.044 189.519 225.663 188.719C226.369 186.748 227.618 183.731 229.453 185.612C231.078 187.276 232.168 189.627 232.521 190.974C232.57 191.101 232.624 191.485 232.633 191.656C232.724 193.303 232.652 194.293 232.545 195.866C232.389 198.181 231.591 198.767 231.54 198.138C231.524 197.942 231.747 194.3 231.434 194.937C231.391 196.239 230.925 197.802 230.751 199.311C230.52 201.306 229.567 201.147 229.572 200.341C229.574 200.044 229.925 196.4 229.932 196.108C229.934 196.053 229.949 195.686 229.787 195.664C229.714 195.654 229.661 195.754 229.649 195.847Z" fill="#EDBDA3"/>
<path d="M165.177 111.191L184.214 127.136L181.89 125.871L199.891 130.188L197.898 144.519L179.519 135.804L178.034 135.448L177.194 134.539L160.343 116.289L165.177 111.191Z" fill="#FCC858"/>
<path d="M219.589 178.932C219.589 178.932 225.944 205.283 227.444 227.665C227.444 227.665 221.676 232.513 216.263 233.286C216.263 233.286 206.898 212.421 199.705 192.419L219.589 178.932Z" fill="#1E293B"/>
<path d="M213.692 184.606C213.692 184.606 207.77 210.736 198.186 232.962C198.186 232.962 191.607 234.026 186.414 232.293C186.414 232.293 188.375 200.099 191.732 177.559L213.692 184.606Z" fill="#1E293B"/>
<path d="M201.829 128.223C203.3 127.256 202.719 123.881 202.59 122.068L211.317 115.355C211.351 115.583 211.356 122.596 211.392 122.83C211.892 126.063 217.497 129.608 218.065 129.926C221.48 131.843 216.526 149.249 199.216 139.696C199.142 139.658 199.07 139.616 198.998 139.57C195.53 137.604 198.861 130.172 201.829 128.223Z" fill="#EDBDA3"/>
<path d="M190.128 145.495C190.206 144.007 190.777 134.926 196.147 131.173C198.136 129.784 201.83 128.223 201.83 128.223C202.181 129.275 202.489 131.173 205.661 131.224C212.366 131.332 214.134 126.926 214.134 126.926C218.524 130.385 219.881 129.93 221.188 131.071C225.335 134.695 228.227 136.4 222.879 150.168L219.5 166.257L221.189 180.653C206.119 187.824 196.502 187.527 191.225 180.814C191.225 180.814 189.283 161.584 190.128 145.495Z" fill="#FCC858"/>
<path d="M209.545 131.941L204.492 137.483L201.326 132.027L209.545 131.941Z" fill="white"/>
<path d="M206.981 132.258C206.981 132.258 205.169 135.18 202.499 131.897L204.979 131.179L206.981 132.258Z" fill="#233561"/>
<path d="M231.844 189.062C231.867 188.95 231.895 188.81 231.925 188.658C231.89 188.83 231.864 188.961 231.844 189.062Z" fill="#FCC858"/>
<path d="M231.797 189.298C231.795 189.31 231.795 189.311 231.797 189.298V189.298Z" fill="#FCC858"/>
<path d="M231.797 189.298C231.8 189.282 231.806 189.248 231.817 189.197C231.806 189.251 231.8 189.283 231.797 189.298Z" fill="#FCC858"/>
<path d="M231.925 188.658C231.94 188.582 231.957 188.5 231.974 188.41C231.957 188.494 231.941 188.577 231.925 188.658Z" fill="#FCC858"/>
<path d="M231.817 189.197C231.825 189.161 231.833 189.115 231.844 189.061C231.833 189.113 231.825 189.16 231.817 189.197Z" fill="#FCC858"/>
<path d="M231.974 188.409C231.984 188.356 231.995 188.303 232.006 188.251C231.995 188.305 231.984 188.361 231.974 188.409Z" fill="#FCC858"/>
<path d="M235.646 161.014C233.764 156.265 230.861 145.616 227.148 137.47C223.719 129.948 213.825 124.998 217.381 141.37C218.491 146.482 222.505 157.105 225.994 163.583L225.382 187.562C227.042 187.697 232.171 187.427 232.171 187.427C233.015 183.193 235.646 161.014 235.646 161.014Z" fill="#FCC858"/>
<path d="M232.15 187.529C232.141 187.571 232.131 187.626 232.118 187.689C232.128 187.637 232.139 187.584 232.15 187.529Z" fill="#FCC858"/>
<path d="M232.006 188.251C232.033 188.114 232.062 187.968 232.095 187.8C232.069 187.933 232.038 188.089 232.006 188.251Z" fill="#FCC858"/>
<path d="M232.169 187.427C232.162 187.463 232.156 187.494 232.149 187.528C232.162 187.464 232.169 187.427 232.169 187.427Z" fill="#FCC858"/>
<path d="M225.071 187.587C225.071 187.587 230.32 187.198 232.436 186.738C232.436 186.738 232.896 188.881 232.068 189.651C231.241 190.421 226.125 190.738 225.495 190.061C224.926 189.448 225.071 187.587 225.071 187.587Z" fill="#F2F2F2"/>
<path d="M225.92 189.036C226.087 189.107 226.28 189.028 226.35 188.861C226.421 188.693 226.343 188.5 226.176 188.429C226.009 188.359 225.816 188.437 225.746 188.604C225.675 188.772 225.753 188.965 225.92 189.036Z" fill="#FCC858"/>
<path d="M167.352 111.92C167.352 111.92 163.099 116.502 161.629 118.612C161.629 118.612 159.504 117.12 159.604 115.782C159.704 114.443 163.899 110.032 164.992 110.112C165.981 110.184 167.352 111.92 167.352 111.92Z" fill="#F2F2F2"/>
<path d="M161.239 115.79C161.037 115.863 160.932 116.087 161.006 116.29C161.079 116.492 161.302 116.597 161.505 116.524C161.706 116.45 161.811 116.226 161.738 116.024C161.664 115.821 161.44 115.716 161.239 115.79Z" fill="#FCC858"/>
<path d="M207.106 211.178C206.721 210.609 206.374 210.022 206.016 209.44C205.667 208.854 205.335 208.259 205.003 207.664C204.355 206.466 203.721 205.261 203.132 204.033L203.285 204.19C201.47 203.202 199.682 202.161 197.972 200.973C199.916 201.718 201.782 202.609 203.62 203.554L203.718 203.604L203.774 203.711C204.403 204.919 204.986 206.15 205.556 207.386C205.832 208.01 206.108 208.632 206.369 209.264C206.62 209.898 206.882 210.529 207.106 211.178Z" fill="#0D1017"/>
<path d="M236.424 260.778L216.122 233.009L224.067 222.732C224.067 222.732 231.159 228.605 233.711 234.484C238.826 246.265 241.865 252.656 243.651 256.122C241.574 257.953 238.975 259.878 236.424 260.778Z" fill="#1E293B"/>
<path d="M239.935 265.581L236.424 260.778C238.975 259.877 241.575 257.953 243.651 256.121C245.677 260.053 246.09 260.22 246.09 260.22C246.09 260.22 244.769 263.957 239.935 265.581Z" fill="#EDBDA3"/>
<path d="M182.938 267.848L186.712 230.581L198.496 229.095C198.496 229.095 199.104 244.44 197.099 250.528C194.187 259.371 192.513 265.105 191.555 268.821C188.933 268.779 185.63 268.558 182.938 267.848Z" fill="#1E293B"/>
<path d="M190.415 274.076C190.415 274.076 186.801 276.916 182.254 274.604L182.939 267.847C185.631 268.558 188.934 268.779 191.556 268.821C190.378 273.855 190.415 274.076 190.415 274.076Z" fill="#EDBDA3"/>
<path d="M202.359 103.303C202.359 103.303 199.019 105.308 199.116 109.008C199.141 109.946 197.989 114.686 197.989 114.686C197.41 120.557 201.006 124.465 202.394 124.516C205.739 124.637 208.466 122.966 210.122 121.384C213.164 118.476 214.99 108.588 212.609 105.338C209.41 100.97 203.981 101.346 202.359 103.303Z" fill="#EDBDA3"/>
<path d="M197.958 116.82C197.958 116.82 198.86 117.358 200.749 116.76C201.949 116.378 203.737 115.113 204.121 115.915C205.864 119.552 205.797 123.98 202.675 124.521C199.552 125.061 197.522 118.139 197.958 116.82Z" fill="#233561"/>
<path d="M211.051 114.71C210.95 113.96 210.529 109.742 210.786 108.885C210.654 108.795 210.41 108.748 210.111 108.729C208.64 108.636 207.485 107.42 207.428 105.943C207.428 105.943 204.583 106.008 201.701 105.439C197.98 104.705 198.956 100.467 199.029 100.448C200.016 100.197 207.986 98.9397 212.528 101.908C216.986 104.821 214.836 111.95 214.437 113.143C214.402 113.249 214.306 113.316 214.194 113.32L211.327 114.943C211.189 114.947 211.069 114.848 211.051 114.71Z" fill="#233561"/>
<path d="M214.284 103.737C214.284 103.737 217.812 105.711 215.03 112.551C215.03 112.551 212.737 110.293 214.284 103.737Z" fill="#233561"/>
<path d="M199.666 109.631C199.666 109.631 198.266 112.456 196.261 114.298C195.587 114.917 197.619 116.94 198.508 117.029C200.479 117.227 199.666 109.631 199.666 109.631Z" fill="#EDBDA3"/>
<path d="M214.701 115.717C213.788 117.317 212.133 118.015 211.003 117.276C209.873 116.536 209.697 114.64 210.61 113.04C211.523 111.44 213.179 110.742 214.308 111.481C215.438 112.22 215.615 114.117 214.701 115.717Z" fill="#EDBDA3"/>
<path d="M210.25 119.63C210.079 120.352 209.724 121.027 209.277 121.628C208.829 122.229 208.277 122.762 207.64 123.166C206.999 123.556 206.313 123.896 205.577 124.047C205.219 124.157 204.842 124.174 204.477 124.237C204.106 124.26 203.735 124.259 203.368 124.255C204.096 124.128 204.815 124.012 205.499 123.773C206.19 123.565 206.833 123.233 207.438 122.856C208.048 122.48 208.576 121.985 209.057 121.45C209.532 120.908 209.937 120.298 210.25 119.63Z" fill="#CC8972"/>
<path d="M202.673 117.358C202.456 117.915 202.003 118.368 201.458 118.641C200.912 118.916 200.238 118.953 199.696 118.711C199.993 118.673 200.271 118.663 200.536 118.586C200.801 118.516 201.057 118.434 201.297 118.309C201.787 118.076 202.225 117.742 202.673 117.358Z" fill="#EDBDA3"/>
<path d="M200.832 112.004C200.813 112.319 200.968 112.585 201.178 112.598C201.388 112.61 201.573 112.364 201.591 112.049C201.61 111.734 201.455 111.468 201.245 111.455C201.035 111.443 200.85 111.689 200.832 112.004Z" fill="#233561"/>
<path d="M213.72 112.407C213.298 112.384 212.874 112.466 212.558 112.685C212.401 112.795 212.275 112.94 212.183 113.106C212.082 113.266 212.032 113.456 211.978 113.643L211.87 113.435C212.066 113.515 212.243 113.607 212.416 113.741C212.567 113.869 212.79 114.077 212.734 114.399C212.707 114.548 212.614 114.649 212.536 114.729L212.319 114.925C212.246 114.991 212.167 115.051 212.085 115.11C211.985 115.17 211.961 115.221 211.766 115.279L211.879 115.166C211.842 115.543 211.884 115.982 212.177 116.296C211.99 116.191 211.85 116.004 211.76 115.802C211.668 115.595 211.636 115.378 211.632 115.144L211.746 115.031C211.732 115.023 211.855 114.943 211.904 114.887L212.102 114.692C212.231 114.556 212.393 114.413 212.385 114.331C212.411 114.255 212.32 114.129 212.188 114.029C212.058 113.927 211.895 113.834 211.739 113.767L211.728 113.762C211.649 113.728 211.608 113.64 211.631 113.558C211.693 113.34 211.776 113.123 211.912 112.931C212.035 112.731 212.229 112.578 212.431 112.471C212.843 112.253 213.322 112.266 213.72 112.407Z" fill="#CC8972"/>
<path d="M202.947 110.582C203.119 110.364 203.028 109.664 202.105 109.235C201.59 108.995 201.123 109.136 201.058 109.176C200.918 109.262 200.848 109.466 200.91 109.628C201.021 109.916 201.451 109.811 201.997 110.186C202.389 110.455 202.233 110.52 202.623 110.644C202.661 110.656 202.845 110.712 202.947 110.582Z" fill="#233561"/>
<path d="M212.001 124.422C212.001 124.422 208.899 129.711 204.978 131.178C204.978 131.178 207.495 132.452 209.319 133.69C209.319 133.69 214.685 128.582 215.03 127.61C215.03 127.61 214.643 125.199 212.001 124.422Z" fill="white"/>
<path d="M202.613 127.018L202.064 128.949L204.979 131.179C204.979 131.179 202.634 132.22 201.56 132.878C201.56 132.878 200.309 131.482 200.287 129.142C200.287 129.142 200.772 127.524 202.613 127.018Z" fill="white"/>
<path d="M212.415 103.118C212.415 103.118 210.558 100.177 201.26 98.5129C201.26 98.5129 199.717 102.924 212.415 103.118Z" fill="#233561"/>
<path d="M213.656 102.876C213.656 102.876 211.903 100.478 206.326 98.8828C206.326 98.8828 205.91 101.969 213.656 102.876Z" fill="#233561"/>
<path d="M212.856 103.504C212.856 103.504 212.847 102.211 214.656 100.815C214.656 100.815 215.622 102.405 212.856 103.504Z" fill="#233561"/>
<path d="M212.824 103.317C212.824 103.317 213.745 102.413 216.004 102.746C216.004 102.746 215.535 104.545 212.824 103.317Z" fill="#233561"/>
<path d="M199.775 112.007C199.775 113.186 200.494 114.142 201.381 114.142C202.268 114.142 202.987 113.186 202.987 112.007C202.987 110.827 202.268 109.871 201.381 109.871C200.494 109.871 199.775 110.827 199.775 112.007Z" stroke="#F2F2F2" stroke-width="0.366" stroke-miterlimit="10"/>
<path d="M199.822 111.455C199.822 111.455 199.585 110.806 198.788 110.935" stroke="#F2F2F2" stroke-width="0.366" stroke-miterlimit="10"/>
<path d="M204.257 116.318C204.257 116.318 205.819 118.135 205.714 119.772C205.714 119.772 204.046 118.03 204.257 116.318Z" fill="#233561"/>
<path d="M198.788 117.153C198.788 117.153 200.879 114.859 202.458 115.78C202.458 115.78 200.419 118.316 198.788 117.153Z" fill="#233561"/>
<path d="M204.647 117.458C204.647 117.458 206.082 119.658 205.358 121.194C205.358 121.194 203.754 119.035 204.647 117.458Z" fill="#233561"/>
<path d="M204.76 132.878L206.982 134.754L204.494 137.483L202.633 134.277L204.76 132.878Z" fill="#233561"/>
<path d="M180.534 274.755C180.537 274.753 180.537 274.752 180.539 274.751C181.975 274.082 181.445 271.886 183.197 273.124C184.321 273.919 184.914 275.349 186.083 275.506C188.671 275.443 190.416 274.077 190.416 274.077L190.702 274.058C190.702 274.058 191.958 276.277 191.598 280.626C191.578 280.869 191.378 281.064 191.135 281.078L186.597 281.337C182.296 279.873 183.292 282.594 171.141 281.103C170.926 281.076 170.743 280.914 170.71 280.699C170.518 279.454 170.668 275.394 180.534 274.755Z" fill="#4768E0"/>
<path d="M237.873 266.152C237.874 266.149 237.873 266.147 237.875 266.145C238.603 264.735 236.843 263.323 238.985 263.229C240.36 263.168 241.7 263.936 242.722 263.343C244.73 261.707 245.278 259.557 245.278 259.557L245.492 259.367C245.492 259.367 247.839 260.352 250.207 264.013C250.339 264.218 250.3 264.495 250.116 264.655L246.684 267.642C242.388 269.12 244.836 270.662 234.311 276.931C234.125 277.043 233.881 277.026 233.724 276.876C232.816 276.009 230.456 272.705 237.873 266.152Z" fill="#4768E0"/>
<path d="M202.91 112.027L210.935 112.55" stroke="#F2F2F2" stroke-width="0.366" stroke-miterlimit="10"/>
<path d="M221.71 154.28C221.065 152.962 220.581 151.593 220.136 150.211C219.706 148.824 219.317 147.426 219.087 145.975C219.733 147.293 220.217 148.663 220.662 150.044C221.09 151.431 221.48 152.83 221.71 154.28Z" fill="#B58C40"/>
<path d="M192.139 136.395C191.93 137.216 191.71 137.984 191.483 138.764C191.249 139.54 191.029 140.318 190.689 141.1C190.596 140.251 190.725 139.413 190.953 138.606C191.201 137.811 191.543 137.016 192.139 136.395Z" fill="#B58C40"/>
<path d="M211.752 142.542C211.191 144.542 210.513 146.506 209.789 148.453C209.063 150.399 208.243 152.311 207.379 154.203C206.469 156.072 205.516 157.93 204.352 159.666C203.767 160.53 203.131 161.366 202.396 162.115C201.662 162.833 200.762 163.554 199.696 163.584C200.737 163.425 201.537 162.694 202.198 161.929C202.875 161.162 203.462 160.313 203.995 159.435C205.068 157.678 206.015 155.842 206.88 153.966C207.78 152.107 208.587 150.202 209.396 148.296C210.2 146.388 210.976 144.467 211.752 142.542Z" fill="#B58C40"/>
<path d="M194.239 152.114C194.566 154.33 194.897 156.542 195.267 158.745C195.639 160.948 196.015 163.15 196.499 165.328C196.943 167.514 197.481 169.68 198.163 171.796C198.505 172.854 198.891 173.898 199.381 174.893C199.861 175.887 200.451 176.853 201.327 177.557C200.372 176.953 199.707 175.985 199.142 175.019C198.594 174.032 198.156 172.989 197.761 171.935C196.987 169.819 196.448 167.631 195.959 165.442C195.517 163.241 195.132 161.03 194.849 158.806C194.565 156.585 194.338 154.354 194.239 152.114Z" fill="#B58C40"/>
<path d="M217.412 165.888C216.93 166.012 216.46 166.155 215.983 166.256C215.508 166.369 215.03 166.46 214.556 166.557L213.138 166.829C212.912 166.88 212.663 166.934 212.5 167.021C212.473 167.046 212.459 167.029 212.453 167.031C212.453 167.052 212.491 167.094 212.537 167.126C212.631 167.19 212.743 167.247 212.854 167.306C212.728 167.304 212.602 167.298 212.473 167.259C212.41 167.238 212.338 167.216 212.271 167.134C212.185 167.021 212.264 166.88 212.315 166.821C212.541 166.605 212.774 166.516 213.01 166.416C213.482 166.228 213.966 166.112 214.451 166.013C215.424 165.844 216.414 165.728 217.412 165.888Z" fill="#B58C40"/>
<path d="M216.823 166.597C216.415 167.129 215.945 167.541 215.497 167.96C215.273 168.164 215.049 168.373 214.876 168.582C214.796 168.688 214.726 168.791 214.731 168.876C214.714 168.984 214.851 169.091 214.984 169.189C214.823 169.201 214.619 169.182 214.481 168.98C214.359 168.76 214.433 168.532 214.501 168.369C214.651 168.027 214.886 167.783 215.123 167.553C215.617 167.115 216.172 166.769 216.823 166.597Z" fill="#B58C40"/>
<path opacity="0.23" d="M169.069 62.933C170.999 63.9698 172.887 65.0731 174.734 66.2377C177.392 65.2533 181.765 63.1339 186.305 60.3411C177.781 54.183 168.309 49.2641 158.146 45.851C162.093 52.277 166.254 58.89 169.069 62.933Z" fill="#4C649E"/>
</svg>
