<?xml version="1.0" encoding="utf-8"?>
<!-- Generator: Adobe Illustrator 17.0.0, SVG Export Plug-In . SVG Version: 6.00 Build 0)  -->
<!DOCTYPE svg PUBLIC "-//W3C//DTD SVG 1.1//EN" "http://www.w3.org/Graphics/SVG/1.1/DTD/svg11.dtd">
<svg version="1.1" id="Layer_1" xmlns="http://www.w3.org/2000/svg" xmlns:xlink="http://www.w3.org/1999/xlink" x="0px" y="0px"
	 width="22px" height="20px" viewBox="0 0 22 20" enable-background="new 0 0 22 20" xml:space="preserve">
<path fill="none" stroke="#000000" stroke-width="1.5" stroke-linecap="round" stroke-linejoin="round" d="M21,3.222h-2.222
	 M21,9.889h-5.556 M21,16.556h-5.556 M5.444,18.778v-7.154c0-0.231,0-0.347-0.023-0.457c-0.02-0.098-0.053-0.193-0.099-0.282
	c-0.051-0.1-0.124-0.191-0.268-0.371L1.39,5.931c-0.145-0.18-0.217-0.27-0.268-0.371C1.076,5.471,1.043,5.376,1.023,5.278
	C1,5.168,1,5.052,1,4.821V2.778c0-0.622,0-0.933,0.121-1.171c0.107-0.209,0.277-0.379,0.486-0.486C1.844,1,2.155,1,2.778,1h9.778
	c0.622,0,0.933,0,1.171,0.121c0.209,0.107,0.379,0.277,0.486,0.486c0.121,0.238,0.121,0.549,0.121,1.171v2.043
	c0,0.231,0,0.347-0.023,0.457c-0.02,0.098-0.054,0.193-0.099,0.282c-0.051,0.1-0.124,0.191-0.268,0.371l-3.665,4.582
	c-0.144,0.181-0.217,0.271-0.268,0.371c-0.046,0.089-0.079,0.184-0.099,0.282c-0.023,0.111-0.023,0.226-0.023,0.457v3.821
	L5.444,18.778z"/>
</svg>
