<?xml version="1.0" encoding="utf-8"?>
<!-- Generator: Adobe Illustrator 17.0.0, SVG Export Plug-In . SVG Version: 6.00 Build 0)  -->
<!DOCTYPE svg PUBLIC "-//W3C//DTD SVG 1.1//EN" "http://www.w3.org/Graphics/SVG/1.1/DTD/svg11.dtd">
<svg version="1.1" id="Layer_1" xmlns="http://www.w3.org/2000/svg" xmlns:xlink="http://www.w3.org/1999/xlink" x="0px" y="0px"
	 width="36px" height="36px" viewBox="0 0 36 36" enable-background="new 0 0 36 36" xml:space="preserve">
<path fill="none" stroke="#33FFCC" d="M18,0.5L18,0.5c9.665,0,17.5,7.835,17.5,17.5l0,0c0,9.665-7.835,17.5-17.5,17.5l0,0
	C8.335,35.5,0.5,27.665,0.5,18l0,0C0.5,8.335,8.335,0.5,18,0.5z"/>
<path fill="#33FFCC" d="M24.853,19.627l0.688-0.38l-0.76-1.377l-0.688,0.38c-0.527,0.292-0.994,0.681-1.376,1.147l-3.145-1.818
	l3.145-1.818c0.382,0.466,0.849,0.856,1.376,1.148l0.688,0.38l0.76-1.377l-0.688-0.38c-0.276-0.153-0.528-0.345-0.748-0.572
	L26,13.864l-0.786-1.36l-1.893,1.093c-0.087-0.304-0.128-0.619-0.122-0.935l0.015-0.786l-1.571-0.029l-0.015,0.786
	c-0.011,0.603,0.092,1.202,0.303,1.766l-3.145,1.819v-3.636c0.594-0.098,1.165-0.309,1.681-0.62l0.673-0.406l-0.811-1.347
	l-0.673,0.406c-0.271,0.163-0.564,0.285-0.87,0.361V9h-1.571v1.976c-0.306-0.077-0.599-0.199-0.87-0.361l-0.673-0.406l-0.811,1.347
	l0.673,0.406c0.516,0.311,1.086,0.521,1.681,0.62v3.636l-3.145-1.819c0.212-0.564,0.316-1.164,0.305-1.767l-0.015-0.786
	l-1.571,0.029l0.015,0.786c0.006,0.316-0.035,0.631-0.122,0.935l-1.894-1.092L10,13.865l1.895,1.095
	c-0.219,0.227-0.471,0.419-0.747,0.572l-0.688,0.38l0.76,1.377l0.688-0.38c0.527-0.292,0.994-0.681,1.377-1.148l3.145,1.818
	l-3.145,1.818c-0.382-0.466-0.849-0.856-1.376-1.147l-0.687-0.38l-0.76,1.377l0.688,0.38c0.276,0.153,0.528,0.345,0.747,0.572
	L10,21.298l0.786,1.362l1.895-1.095c0.087,0.304,0.128,0.619,0.122,0.935l-0.015,0.786l1.571,0.029l0.015-0.786
	c0.011-0.603-0.093-1.203-0.305-1.767l3.145-1.819v3.636c-0.594,0.098-1.165,0.309-1.681,0.619l-0.673,0.406l0.811,1.347
	l0.673-0.406c0.271-0.163,0.564-0.285,0.87-0.361v1.976h1.571v-1.976c0.306,0.077,0.599,0.199,0.87,0.361l0.673,0.406l0.811-1.347
	l-0.673-0.406c-0.516-0.311-1.086-0.521-1.681-0.619v-3.636l3.145,1.819c-0.212,0.564-0.316,1.164-0.305,1.767l0.015,0.786
	l1.571-0.029l-0.015-0.787c-0.006-0.316,0.036-0.632,0.123-0.936l1.893,1.095L26,21.298l-1.893-1.097
	C24.326,19.973,24.577,19.78,24.853,19.627z"/>
</svg>
