<svg width="85" height="85" viewBox="0 0 85 85" fill="none" xmlns="http://www.w3.org/2000/svg">
<g clip-path="url(#clip0_3045_10665)">
<mask id="mask0_3045_10665" style="mask-type:luminance" maskUnits="userSpaceOnUse" x="0" y="0" width="85" height="85">
<path d="M85 0H0V85H85V0Z" fill="white"/>
</mask>
<g mask="url(#mask0_3045_10665)">
<path d="M37.9226 75.4224H9.31689C8.41866 75.4106 7.56159 75.0438 6.9329 74.4022C6.3042 73.7606 5.95498 72.8962 5.96152 71.9979V32.1542C5.95885 31.2568 6.30924 30.3943 6.93702 29.753C7.5648 29.1117 8.41961 28.743 9.31689 28.7266H38.1988" fill="#F78B41"/>
<path d="M37.9224 28.7266H70.0555C70.9538 28.7383 71.8108 29.1051 72.4395 29.7467C73.0682 30.3884 73.4175 31.2527 73.4109 32.151V71.9948C73.4128 72.8916 73.062 73.7533 72.4343 74.3939C71.8066 75.0345 70.9523 75.4027 70.0555 75.4192H37.9224" fill="#EA7923"/>
<path d="M73.411 35.748H5.96143V41.663H73.411V35.748Z" fill="#003056"/>
<path d="M30.6579 47.2656H12.6719V49.4448H30.6579V47.2656Z" fill="white"/>
<path d="M67.254 51.7969H12.6724V53.9761H67.254V51.7969Z" fill="white"/>
<path d="M67.2536 56.3633H12.6719V58.5425H67.2536V56.3633Z" fill="white"/>
<path d="M64.9526 79.5547C73.7347 79.5547 80.854 72.4354 80.854 63.6533C80.854 54.8712 73.7347 47.752 64.9526 47.752C56.1706 47.752 49.0513 54.8712 49.0513 63.6533C49.0513 72.4354 56.1706 79.5547 64.9526 79.5547Z" fill="#3B93D0"/>
<path d="M80.854 63.6533C80.8523 67.8701 79.1765 71.9137 76.1947 74.8954C73.213 77.8772 69.1694 79.553 64.9526 79.5547V47.752C67.0413 47.7501 69.1099 48.1602 71.04 48.9587C72.97 49.7572 74.7237 50.9284 76.2007 52.4053C77.6776 53.8823 78.8488 55.6359 79.6473 57.566C80.4458 59.4961 80.8558 61.5646 80.854 63.6533Z" fill="#257ABE"/>
<path d="M40.3813 9.30539V10.625C40.3809 10.6614 40.3878 10.6975 40.4015 10.7312C40.4152 10.7649 40.4356 10.7956 40.4613 10.8213C40.487 10.847 40.5177 10.8674 40.5514 10.8811C40.5851 10.8948 40.6212 10.9017 40.6576 10.9013C40.7292 10.8963 40.7966 10.8656 40.8474 10.8148C40.8982 10.7641 40.9289 10.6966 40.9338 10.625V9.30539L41.7297 8.50958C41.7793 8.45177 41.8066 8.37808 41.8066 8.30186C41.8066 8.22565 41.7793 8.15195 41.7297 8.09414C41.6718 8.04448 41.5981 8.01717 41.5219 8.01717C41.4457 8.01717 41.372 8.04448 41.3142 8.09414L40.9338 8.47452V7.71377C40.9343 7.67737 40.9274 7.64126 40.9137 7.60755C40.9 7.57384 40.8796 7.54322 40.8539 7.51748C40.8281 7.49174 40.7975 7.47141 40.7638 7.45768C40.7301 7.44394 40.694 7.43709 40.6576 7.43752C40.586 7.44248 40.5185 7.47317 40.4678 7.52394C40.417 7.57472 40.3863 7.64214 40.3813 7.71377V8.47558L39.9978 8.09521C39.94 8.04554 39.8663 8.01823 39.7901 8.01823C39.7138 8.01823 39.6401 8.04554 39.5823 8.09521C39.5327 8.15302 39.5054 8.22671 39.5054 8.30293C39.5054 8.37914 39.5327 8.45283 39.5823 8.51064L40.3813 9.30539Z" fill="#7AB4E2"/>
<path d="M37.2293 9.85994L37.887 10.2403L37.3685 10.3784C37.2969 10.4004 37.2359 10.4477 37.1967 10.5114C37.1576 10.5752 37.1431 10.6511 37.156 10.7248C37.1682 10.7878 37.2031 10.8441 37.2539 10.8833C37.3048 10.9224 37.3682 10.9416 37.4322 10.9373H37.5013L38.5733 10.6611L39.7145 11.3188C39.7551 11.346 39.8039 11.3584 39.8526 11.3538C39.9025 11.3602 39.9531 11.3502 39.9968 11.3253C40.0405 11.3004 40.0749 11.2619 40.0948 11.2157C40.113 11.1838 40.1246 11.1486 40.129 11.1121C40.1335 11.0757 40.1307 11.0387 40.1208 11.0034C40.111 10.968 40.0942 10.935 40.0715 10.9061C40.0488 10.8773 40.0206 10.8532 39.9886 10.8353L38.8549 10.1691L38.5787 9.09706C38.5696 9.06072 38.5534 9.02651 38.5312 8.9964C38.5089 8.96629 38.4809 8.94087 38.4488 8.92158C38.4166 8.90229 38.381 8.88952 38.344 8.88399C38.3069 8.87845 38.2692 8.88028 38.2328 8.88935C38.1965 8.89841 38.1623 8.91455 38.1321 8.93684C38.102 8.95913 38.0766 8.98713 38.0573 9.01925C38.038 9.05136 38.0253 9.08696 38.0197 9.12401C38.0142 9.16106 38.016 9.19884 38.0251 9.23519L38.1632 9.75369L37.5055 9.37331C37.4736 9.3552 37.4384 9.34357 37.402 9.33911C37.3655 9.33464 37.3286 9.33743 37.2932 9.3473C37.2579 9.35718 37.2248 9.37395 37.196 9.39665C37.1671 9.41935 37.1431 9.44753 37.1252 9.47956C37.0906 9.54426 37.0821 9.61974 37.1015 9.69048C37.1209 9.76123 37.1666 9.82187 37.2293 9.85994Z" fill="#7AB4E2"/>
<path d="M41.1728 10.7925C41.1408 10.8104 41.1126 10.8345 41.0899 10.8633C41.0672 10.8921 41.0504 10.9252 41.0405 10.9606C41.0307 10.9959 41.0279 11.0329 41.0323 11.0693C41.0368 11.1057 41.0484 11.1409 41.0665 11.1728C41.0898 11.2164 41.1248 11.2525 41.1677 11.2769C41.2106 11.3014 41.2595 11.3132 41.3088 11.311C41.3575 11.3155 41.4063 11.3031 41.4469 11.2759L42.588 10.6182L43.6601 10.8945H43.7292C43.7932 10.8988 43.8566 10.8795 43.9074 10.8404C43.9583 10.8013 43.9931 10.745 44.0054 10.682C44.0157 10.6452 44.0182 10.6068 44.0129 10.569C44.0076 10.5312 43.9946 10.495 43.9747 10.4625C43.9547 10.43 43.9283 10.4019 43.897 10.3801C43.8658 10.3583 43.8303 10.3431 43.7929 10.3356L43.3084 10.2293L43.9661 9.84897C44.0304 9.81234 44.0774 9.75168 44.0969 9.68035C44.1165 9.60901 44.1069 9.53284 44.0702 9.4686C44.0336 9.40435 43.9729 9.35728 43.9016 9.33775C43.8303 9.31823 43.7541 9.32784 43.6899 9.36447L43.0407 9.7576L43.1788 9.2391C43.1879 9.20275 43.1897 9.16497 43.1842 9.12792C43.1786 9.09087 43.1659 9.05527 43.1466 9.02315C43.1273 8.99104 43.1018 8.96304 43.0717 8.94075C43.0416 8.91846 43.0074 8.90232 42.9711 8.89325C42.9347 8.88418 42.897 8.88236 42.8599 8.88789C42.8229 8.89342 42.7873 8.9062 42.7551 8.92548C42.723 8.94477 42.695 8.9702 42.6727 9.00031C42.6504 9.03042 42.6343 9.06462 42.6252 9.10097L42.349 10.173L41.1728 10.7925Z" fill="#7AB4E2"/>
<path d="M40.9314 13.666V12.3485C40.9319 12.3121 40.925 12.276 40.9113 12.2423C40.8975 12.2086 40.8772 12.178 40.8515 12.1522C40.8257 12.1265 40.7951 12.1062 40.7614 12.0924C40.7277 12.0787 40.6916 12.0719 40.6552 12.0723C40.5835 12.0772 40.5161 12.1079 40.4654 12.1587C40.4146 12.2095 40.3839 12.2769 40.3789 12.3485V13.666L39.5831 14.4618C39.5558 14.4891 39.5342 14.5215 39.5194 14.5571C39.5047 14.5928 39.4971 14.631 39.4971 14.6696C39.4971 14.7081 39.5047 14.7463 39.5194 14.782C39.5342 14.8176 39.5558 14.85 39.5831 14.8773C39.6104 14.9046 39.6428 14.9262 39.6784 14.941C39.7141 14.9557 39.7523 14.9633 39.7908 14.9633C39.8294 14.9633 39.8676 14.9557 39.9032 14.941C39.9389 14.9262 39.9713 14.9046 39.9986 14.8773L40.3789 14.4969V15.2598C40.3785 15.2962 40.3854 15.3323 40.3991 15.366C40.4128 15.3997 40.4331 15.4303 40.4589 15.4561C40.4846 15.4818 40.5152 15.5021 40.549 15.5159C40.5827 15.5296 40.6188 15.5365 40.6552 15.536C40.7268 15.5311 40.7942 15.5004 40.845 15.4496C40.8958 15.3988 40.9265 15.3314 40.9314 15.2598V14.499L41.3118 14.8794C41.3396 14.9064 41.3732 14.9266 41.41 14.9386C41.4469 14.9505 41.486 14.9539 41.5243 14.9485C41.5995 14.9421 41.6722 14.9184 41.7368 14.8794C41.7865 14.8216 41.8138 14.7479 41.8138 14.6717C41.8138 14.5955 41.7865 14.5218 41.7368 14.464L40.9314 13.666Z" fill="#7AB4E2"/>
<path d="M40.0317 12.0367C40.0959 12.0001 40.143 11.9394 40.1625 11.8681C40.182 11.7968 40.1724 11.7206 40.1358 11.6564C40.0991 11.5921 40.0385 11.545 39.9672 11.5255C39.8958 11.506 39.8197 11.5156 39.7554 11.5522L38.6143 12.2099L37.5422 11.9337C37.4688 11.9154 37.3911 11.927 37.3263 11.9659C37.2614 12.0049 37.2147 12.068 37.1964 12.1414C37.1781 12.2148 37.1897 12.2925 37.2286 12.3573C37.2676 12.4222 37.3307 12.4689 37.4041 12.4872L37.9226 12.6254L37.2309 12.9717C37.1989 12.9897 37.1707 13.0137 37.148 13.0426C37.1253 13.0714 37.1085 13.1045 37.0986 13.1398C37.0888 13.1752 37.086 13.2121 37.0904 13.2486C37.0949 13.285 37.1065 13.3202 37.1247 13.3521C37.1479 13.3957 37.1829 13.4317 37.2258 13.4562C37.2687 13.4806 37.3176 13.4924 37.3669 13.4902C37.4156 13.4948 37.4644 13.4824 37.505 13.4552L38.1627 13.0748L38.0246 13.5933C38.0143 13.63 38.0118 13.6685 38.0171 13.7063C38.0224 13.744 38.0354 13.7803 38.0553 13.8128C38.0753 13.8453 38.1017 13.8734 38.133 13.8952C38.1643 13.917 38.1997 13.9322 38.2371 13.9397H38.3062C38.3702 13.944 38.4336 13.9247 38.4844 13.8856C38.5353 13.8465 38.5701 13.7902 38.5824 13.7272L38.8587 12.6551L40.0317 12.0367Z" fill="#7AB4E2"/>
<path d="M43.9758 12.9725L43.3182 12.5922L43.8367 12.454C43.873 12.445 43.9072 12.4288 43.9373 12.4065C43.9674 12.3842 43.9929 12.3562 44.0121 12.3241C44.0314 12.292 44.0442 12.2564 44.0497 12.2194C44.0553 12.1823 44.0534 12.1445 44.0444 12.1082C44.0353 12.0718 44.0192 12.0376 43.9969 12.0075C43.9746 11.9774 43.9466 11.952 43.9145 11.9327C43.8824 11.9134 43.8468 11.9006 43.8097 11.8951C43.7727 11.8896 43.7349 11.8914 43.6985 11.9005L42.6265 12.1767L41.4853 11.519C41.4535 11.5009 41.4185 11.4892 41.3821 11.4846C41.3458 11.48 41.3089 11.4826 41.2736 11.4923C41.2383 11.502 41.2052 11.5185 41.1763 11.541C41.1473 11.5634 41.1231 11.5913 41.105 11.6232C41.0868 11.655 41.0751 11.69 41.0706 11.7264C41.066 11.7627 41.0686 11.7996 41.0783 11.8349C41.0879 11.8702 41.1044 11.9033 41.1269 11.9322C41.1493 11.9612 41.1773 11.9854 41.2091 12.0035L42.3502 12.6612L42.6265 13.7333C42.6387 13.7963 42.6736 13.8526 42.7244 13.8917C42.7753 13.9309 42.8387 13.9501 42.9027 13.9458H42.9718C43.0433 13.9239 43.1044 13.8766 43.1435 13.8128C43.1826 13.749 43.1971 13.6731 43.1843 13.5994L43.0462 13.0809L43.7038 13.4613C43.7445 13.4885 43.7933 13.5009 43.842 13.4963C43.8919 13.5028 43.9425 13.4927 43.9862 13.4678C44.0299 13.4429 44.0643 13.4044 44.0842 13.3582C44.1031 13.3259 44.1153 13.2902 44.12 13.2531C44.1248 13.216 44.122 13.1784 44.1119 13.1424C44.1018 13.1064 44.0845 13.0728 44.0612 13.0436C44.0378 13.0144 44.0088 12.9903 43.9758 12.9725Z" fill="#7AB4E2"/>
<path d="M15.2649 12.2918V15.0033C15.2649 15.1619 15.3279 15.3141 15.4401 15.4263C15.5523 15.5385 15.7044 15.6015 15.8631 15.6015C16.0217 15.6015 16.1739 15.5385 16.2861 15.4263C16.3982 15.3141 16.4613 15.1619 16.4613 15.0033V12.2918L18.055 10.698C18.166 10.587 18.2284 10.4364 18.2284 10.2794C18.2284 10.1224 18.166 9.97182 18.055 9.8608C17.944 9.74977 17.7934 9.6874 17.6364 9.6874C17.4794 9.6874 17.3288 9.74977 17.2178 9.8608L16.4602 10.6184V9.06499C16.4602 8.98643 16.4447 8.90864 16.4147 8.83607C16.3846 8.76349 16.3405 8.69755 16.285 8.642C16.2294 8.58646 16.1635 8.54239 16.0909 8.51233C16.0183 8.48227 15.9406 8.4668 15.862 8.4668C15.7834 8.4668 15.7057 8.48227 15.6331 8.51233C15.5605 8.54239 15.4946 8.58646 15.439 8.642C15.3835 8.69755 15.3394 8.76349 15.3094 8.83607C15.2793 8.90864 15.2638 8.98643 15.2638 9.06499V10.5801L14.5063 9.82255C14.4513 9.76757 14.386 9.72396 14.3142 9.69421C14.2424 9.66446 14.1654 9.64915 14.0876 9.64915C14.0099 9.64915 13.9329 9.66446 13.8611 9.69421C13.7892 9.72396 13.724 9.76757 13.669 9.82255C13.614 9.87752 13.5704 9.94279 13.5407 10.0146C13.5109 10.0864 13.4956 10.1634 13.4956 10.2412C13.4956 10.3189 13.5109 10.3959 13.5407 10.4677C13.5704 10.5396 13.614 10.6048 13.669 10.6598L15.2649 12.2918Z" fill="#7AB4E2"/>
<path d="M8.88547 13.4508L10.2008 14.2084L9.16385 14.4878C9.08771 14.5038 9.0159 14.536 8.95329 14.5822C8.89067 14.6284 8.83871 14.6875 8.80093 14.7555C8.76315 14.8235 8.74042 14.8988 8.73429 14.9764C8.72816 15.0539 8.73877 15.1319 8.76541 15.205C8.79767 15.329 8.86967 15.4391 8.97041 15.5184C9.07114 15.5976 9.19507 15.6417 9.32322 15.6438C9.37944 15.6495 9.43588 15.6352 9.4826 15.6034L11.6756 15.0053L14.028 16.3631C14.115 16.4078 14.2099 16.4349 14.3074 16.4428C14.4092 16.438 14.5087 16.4104 14.5984 16.362C14.6882 16.3137 14.7659 16.2458 14.8259 16.1634C14.8652 16.098 14.8912 16.0254 14.9025 15.95C14.9137 15.8745 14.9099 15.7975 14.8914 15.7235C14.8728 15.6495 14.8399 15.5798 14.7943 15.5186C14.7488 15.4573 14.6917 15.4056 14.6262 15.3665L12.2738 14.0108L11.6756 11.8178C11.6333 11.6697 11.534 11.5444 11.3994 11.4696C11.2648 11.3948 11.106 11.3765 10.9579 11.4188C10.8098 11.4611 10.6846 11.5604 10.6097 11.695C10.5349 11.8296 10.5166 11.9884 10.5589 12.1365L10.8383 13.1735L9.52297 12.4159C9.45756 12.3766 9.38503 12.3506 9.30955 12.3394C9.23407 12.3281 9.15711 12.3319 9.08309 12.3505C9.00906 12.369 8.93942 12.402 8.87817 12.4475C8.81691 12.493 8.76523 12.5502 8.7261 12.6157C8.67484 12.6785 8.63796 12.7517 8.61806 12.8303C8.59815 12.9089 8.59571 12.9908 8.61091 13.0704C8.6261 13.1501 8.65856 13.2254 8.70599 13.2911C8.75343 13.3568 8.81469 13.4113 8.88547 13.4508Z" fill="#7AB4E2"/>
<path d="M16.9385 15.3632C16.8696 15.3991 16.8092 15.4492 16.7611 15.5101C16.713 15.5711 16.6784 15.6415 16.6596 15.7168C16.6407 15.7921 16.638 15.8705 16.6516 15.9469C16.6653 16.0234 16.695 16.096 16.7387 16.1601C16.8193 16.2907 16.9477 16.3847 17.0966 16.422C17.2454 16.4593 17.403 16.437 17.5356 16.3599L19.888 15.0041L22.081 15.6023C22.1214 15.6023 22.201 15.6427 22.2404 15.6427C22.3711 15.6512 22.5003 15.6111 22.6033 15.5301C22.7063 15.4491 22.7757 15.3329 22.7982 15.2039C22.8346 15.0561 22.8138 14.9 22.7399 14.767C22.666 14.6339 22.5445 14.5338 22.3997 14.4867L21.3627 14.2072L22.6781 13.4497C22.8095 13.37 22.9041 13.2415 22.941 13.0923C22.9779 12.9431 22.9542 12.7854 22.8751 12.6536C22.796 12.5218 22.668 12.4267 22.5189 12.3891C22.3699 12.3515 22.2121 12.3745 22.0799 12.4531L20.7645 13.2106L21.044 12.1736C21.0863 12.0255 21.068 11.8667 20.9931 11.7321C20.9183 11.5975 20.7931 11.4982 20.645 11.4559C20.4969 11.4136 20.3381 11.4319 20.2035 11.5067C20.0689 11.5816 19.9696 11.7068 19.9273 11.8549L19.3291 14.0479L16.9385 15.3632Z" fill="#7AB4E2"/>
<path d="M16.4601 21.2637V18.5533C16.4601 18.3946 16.3971 18.2425 16.2849 18.1303C16.1727 18.0181 16.0206 17.9551 15.8619 17.9551C15.7033 17.9551 15.5511 18.0181 15.4389 18.1303C15.3268 18.2425 15.2637 18.3946 15.2637 18.5533V21.2648L13.67 22.8585C13.559 22.9695 13.4966 23.1201 13.4966 23.2771C13.4966 23.4342 13.559 23.5847 13.67 23.6958C13.781 23.8068 13.9316 23.8692 14.0886 23.8692C14.2456 23.8692 14.3962 23.8068 14.5072 23.6958L15.2648 22.9382V24.4533C15.2648 24.612 15.3278 24.7641 15.44 24.8763C15.5522 24.9885 15.7043 25.0515 15.863 25.0515C16.0216 25.0515 16.1738 24.9885 16.286 24.8763C16.3981 24.7641 16.4612 24.612 16.4612 24.4533V22.9382L17.2187 23.6958C17.3258 23.7986 17.4687 23.8558 17.6172 23.8551C17.6915 23.8628 17.7666 23.8523 17.836 23.8245C17.9054 23.7967 17.967 23.7526 18.0156 23.6958C18.0723 23.6418 18.1175 23.5768 18.1483 23.5049C18.1792 23.4329 18.1951 23.3554 18.1951 23.2771C18.1951 23.1988 18.1792 23.1214 18.1483 23.0494C18.1175 22.9774 18.0723 22.9125 18.0156 22.8585L16.4601 21.2637Z" fill="#7AB4E2"/>
<path d="M14.5869 17.8751C14.7184 17.7954 14.8129 17.6669 14.8498 17.5177C14.8868 17.3685 14.8631 17.2108 14.784 17.079C14.7049 16.9472 14.5768 16.8521 14.4278 16.8145C14.2787 16.7769 14.1209 16.7999 13.9888 16.8784L11.6364 18.2342L9.4487 17.636C9.37537 17.6151 9.29865 17.6088 9.2229 17.6175C9.14714 17.6262 9.07385 17.6498 9.00721 17.6868C8.94056 17.7239 8.88186 17.7737 8.83447 17.8334C8.78707 17.8932 8.75191 17.9616 8.73098 18.035C8.71005 18.1083 8.70377 18.185 8.71249 18.2608C8.72121 18.3365 8.74477 18.4098 8.78182 18.4765C8.81886 18.5431 8.86868 18.6018 8.92841 18.6492C8.98814 18.6966 9.05662 18.7318 9.12995 18.7527L10.1669 19.0321L8.85157 19.7897C8.78274 19.8256 8.72229 19.8756 8.67421 19.9366C8.62613 19.9975 8.59151 20.068 8.57264 20.1432C8.55376 20.2185 8.55106 20.297 8.56471 20.3734C8.57836 20.4498 8.60805 20.5225 8.65182 20.5866C8.7324 20.7172 8.8608 20.8111 9.00965 20.8484C9.1585 20.8858 9.31604 20.8635 9.4487 20.7863L10.7641 20.0288L10.525 21.1051C10.4885 21.2528 10.5094 21.4089 10.5833 21.542C10.6572 21.675 10.7787 21.7751 10.9234 21.8223C10.9638 21.8223 11.0435 21.8626 11.0828 21.8626C11.2135 21.8711 11.3428 21.831 11.4458 21.75C11.5487 21.669 11.6181 21.5529 11.6406 21.4238L12.2388 19.2308L14.5869 17.8751Z" fill="#7AB4E2"/>
<path d="M22.6802 19.7893L21.3649 19.0328L22.4019 18.7534C22.4752 18.7324 22.5437 18.6973 22.6034 18.6499C22.6631 18.6025 22.7129 18.5438 22.75 18.4771C22.787 18.4105 22.8106 18.3372 22.8193 18.2614C22.828 18.1857 22.8218 18.109 22.8008 18.0356C22.7799 17.9623 22.7447 17.8938 22.6973 17.8341C22.6499 17.7744 22.5912 17.7246 22.5246 17.6875C22.458 17.6505 22.3847 17.6269 22.3089 17.6182C22.2332 17.6095 22.1564 17.6157 22.0831 17.6367L19.8901 18.2349L17.5377 16.8791C17.4723 16.8394 17.3996 16.8131 17.324 16.8015C17.2483 16.79 17.1711 16.7936 17.0968 16.8119C17.0225 16.8303 16.9526 16.8632 16.891 16.9087C16.8295 16.9542 16.7775 17.0114 16.7381 17.077C16.6988 17.1426 16.6727 17.2154 16.6615 17.2911C16.6503 17.3668 16.6542 17.444 16.6729 17.5182C16.6916 17.5924 16.7248 17.6622 16.7706 17.7236C16.8163 17.7849 16.8738 17.8366 16.9396 17.8757L19.2919 19.2315L19.8901 21.4245C19.9224 21.5485 19.9944 21.6586 20.0951 21.7378C20.1958 21.8171 20.3198 21.8612 20.4479 21.8633C20.5041 21.869 20.5606 21.8547 20.6073 21.8229C20.6834 21.8069 20.7552 21.7747 20.8179 21.7286C20.8805 21.6824 20.9324 21.6233 20.9702 21.5553C21.008 21.4873 21.0307 21.4119 21.0369 21.3344C21.043 21.2568 21.0324 21.1788 21.0057 21.1057L20.7263 20.0687L22.0417 20.8263C22.1287 20.871 22.2236 20.8981 22.3211 20.906C22.4229 20.9012 22.5224 20.8736 22.6121 20.8252C22.7019 20.7769 22.7796 20.709 22.8396 20.6265C22.8857 20.5616 22.9182 20.4881 22.9352 20.4103C22.9522 20.3326 22.9532 20.2522 22.9383 20.174C22.9235 20.0958 22.8929 20.0214 22.8486 19.9553C22.8042 19.8892 22.747 19.8327 22.6802 19.7893Z" fill="#7AB4E2"/>
<path d="M64.3173 57.8336V61.3611C64.3173 61.5635 64.3978 61.7577 64.5409 61.9009C64.6841 62.0441 64.8783 62.1245 65.0807 62.1245C65.2832 62.1245 65.4774 62.0441 65.6205 61.9009C65.7637 61.7577 65.8441 61.5635 65.8441 61.3611V57.8655L67.9118 55.7978C68.0502 55.6534 68.1265 55.4604 68.1243 55.2604C68.1222 55.0604 68.0418 54.8691 67.9003 54.7277C67.7589 54.5862 67.5676 54.5058 67.3676 54.5037C67.1675 54.5015 66.9746 54.5778 66.8301 54.7162L65.8441 55.7022V53.7302C65.8441 53.5277 65.7637 53.3336 65.6205 53.1904C65.4774 53.0472 65.2832 52.9668 65.0807 52.9668C64.8783 52.9668 64.6841 53.0472 64.5409 53.1904C64.3978 53.3336 64.3173 53.5277 64.3173 53.7302V55.7022L63.3313 54.7162C63.1869 54.5778 62.994 54.5015 62.7939 54.5037C62.5939 54.5058 62.4026 54.5862 62.2612 54.7277C62.1197 54.8691 62.0393 55.0604 62.0372 55.2604C62.035 55.4604 62.1113 55.6534 62.2497 55.7978L64.3173 57.8336Z" fill="white"/>
<path d="M56.016 59.3284L57.733 60.3144L56.3656 60.6639C56.1724 60.7159 56.0074 60.8417 55.9062 61.0143C55.805 61.1868 55.7758 61.3923 55.8248 61.5862C55.8682 61.7479 55.9629 61.8912 56.0948 61.9944C56.2266 62.0977 56.3883 62.1554 56.5558 62.1589C56.6211 62.1639 56.6868 62.153 56.747 62.127L59.5775 61.3641L62.6311 63.113C62.7491 63.1743 62.8797 63.207 63.0126 63.2086C63.1474 63.2079 63.2797 63.1723 63.3967 63.1055C63.5138 63.0387 63.6117 62.9429 63.6809 62.8272C63.7346 62.7404 63.7699 62.6436 63.7846 62.5426C63.7993 62.4416 63.793 62.3386 63.7662 62.2402C63.7394 62.1417 63.6926 62.0498 63.6288 61.9702C63.5649 61.8906 63.4854 61.825 63.3951 61.7775L60.3425 60.0286L59.5796 57.1981C59.5546 57.102 59.5109 57.0118 59.451 56.9326C59.3911 56.8535 59.3162 56.7869 59.2305 56.7367C59.1449 56.6864 59.0502 56.6536 58.9518 56.64C58.8535 56.6263 58.7534 56.6322 58.6574 56.6573C58.5613 56.6823 58.4711 56.726 58.3919 56.7859C58.3128 56.8458 58.2462 56.9207 58.196 57.0064C58.1458 57.092 58.1129 57.1867 58.0993 57.285C58.0856 57.3834 58.0915 57.4834 58.1166 57.5795L58.4661 58.9151L56.7491 57.9291C56.6624 57.8753 56.5655 57.84 56.4645 57.8253C56.3635 57.8107 56.2606 57.8169 56.1621 57.8437C56.0637 57.8705 55.9718 57.9173 55.8921 57.9812C55.8125 58.045 55.7469 58.1246 55.6994 58.2149C55.6155 58.4085 55.6011 58.6252 55.6589 58.8282C55.7166 59.0312 55.8428 59.2079 56.016 59.3284Z" fill="white"/>
<path d="M66.4793 61.8407C66.3035 61.9431 66.1749 62.1106 66.1215 62.307C66.068 62.5034 66.0939 62.7129 66.1935 62.8904C66.2595 63.0089 66.3567 63.107 66.4745 63.1743C66.5923 63.2415 66.7262 63.2752 66.8618 63.2718C66.9947 63.2702 67.1253 63.2375 67.2432 63.1762L70.2969 61.4273L73.1274 62.1902C73.1876 62.2163 73.2532 62.2272 73.3186 62.2221C73.5023 62.2202 73.6791 62.1519 73.8163 62.0298C73.9536 61.9077 74.042 61.7401 74.0653 61.5579C74.0887 61.3757 74.0453 61.1912 73.9432 61.0385C73.8411 60.8858 73.6872 60.7752 73.5099 60.7272L72.1743 60.3776L73.8913 59.3916C74.0671 59.2891 74.1957 59.1216 74.2491 58.9252C74.3026 58.7289 74.2767 58.5193 74.1771 58.3418C74.0696 58.1716 73.9021 58.0478 73.7078 57.9949C73.5135 57.942 73.3064 57.9638 73.1274 58.056L71.4104 59.042L71.7599 57.7065C71.785 57.6104 71.7909 57.5104 71.7772 57.412C71.7636 57.3137 71.7307 57.219 71.6805 57.1333C71.6303 57.0477 71.5637 56.9728 71.4845 56.9129C71.4054 56.853 71.3152 56.8093 71.2191 56.7842C71.1231 56.7592 71.023 56.7533 70.9247 56.7669C70.8263 56.7805 70.7316 56.8134 70.646 56.8636C70.5604 56.9138 70.4854 56.9804 70.4255 57.0596C70.3656 57.1388 70.3219 57.229 70.2969 57.325L69.534 60.1555L66.4793 61.8407Z" fill="white"/>
<path d="M65.8427 69.4419V65.9431C65.8427 65.7406 65.7623 65.5465 65.6191 65.4033C65.4759 65.2601 65.2818 65.1797 65.0793 65.1797C64.8768 65.1797 64.6826 65.2601 64.5395 65.4033C64.3963 65.5465 64.3159 65.7406 64.3159 65.9431V69.4419L62.2483 71.5095C62.1099 71.654 62.0335 71.8469 62.0357 72.047C62.0378 72.247 62.1183 72.4382 62.2597 72.5797C62.4012 72.7212 62.5924 72.8016 62.7925 72.8037C62.9925 72.8059 63.1854 72.7296 63.3299 72.5912L64.3159 71.6052V73.574C64.3159 73.7765 64.3963 73.9706 64.5395 74.1138C64.6826 74.257 64.8768 74.3374 65.0793 74.3374C65.2818 74.3374 65.4759 74.257 65.6191 74.1138C65.7623 73.9706 65.8427 73.7765 65.8427 73.574V71.602L66.8287 72.588C66.9726 72.7306 67.1669 72.8106 67.3695 72.8106C67.5721 72.8106 67.7664 72.7306 67.9103 72.588C68.0482 72.4417 68.1251 72.2482 68.1251 72.0472C68.1251 71.8461 68.0482 71.6527 67.9103 71.5064L65.8427 69.4419Z" fill="white"/>
<path d="M63.4259 65.0519C63.6017 64.9495 63.7303 64.782 63.7837 64.5856C63.8372 64.3892 63.8113 64.1797 63.7117 64.0022C63.6041 63.8319 63.4367 63.7082 63.2424 63.6552C63.0481 63.6023 62.841 63.6241 62.6619 63.7164L59.6083 65.4653L56.7778 64.7024C56.5838 64.6518 56.3777 64.6804 56.2047 64.7818C56.0317 64.8832 55.9062 65.0492 55.8556 65.2432C55.805 65.4372 55.8336 65.6434 55.935 65.8163C56.0364 65.9893 56.2024 66.1149 56.3964 66.1655L57.7319 66.515L56.015 67.501C55.8391 67.6035 55.7106 67.771 55.6571 67.9674C55.6037 68.1638 55.6295 68.3733 55.7291 68.5508C55.7952 68.6692 55.8923 68.7674 56.0101 68.8346C56.1279 68.9019 56.2619 68.9356 56.3975 68.9322C56.5303 68.9306 56.661 68.8978 56.7789 68.8366L58.4959 67.8506L58.1463 69.1861C58.1196 69.2822 58.1124 69.3827 58.1253 69.4816C58.1381 69.5805 58.1708 69.6759 58.2212 69.7619C58.2717 69.8479 58.3389 69.923 58.419 69.9825C58.499 70.042 58.5902 70.0848 58.6871 70.1084C58.7474 70.1344 58.813 70.1453 58.8784 70.1403C59.0471 70.1419 59.2114 70.0861 59.3442 69.982C59.4771 69.8779 59.5706 69.7318 59.6094 69.5676L60.3723 66.7371L63.4259 65.0519Z" fill="white"/>
<path d="M73.8874 67.5649L72.1704 66.5789L73.506 66.2293C73.6935 66.173 73.8518 66.0461 73.9478 65.8754C74.0437 65.7047 74.0697 65.5035 74.0203 65.314C73.9709 65.1245 73.8499 64.9616 73.6829 64.8594C73.5158 64.7573 73.3157 64.7239 73.1245 64.7663L70.294 65.5291L67.2404 63.7803C67.1526 63.7274 67.0551 63.6925 66.9536 63.6779C66.8522 63.6632 66.7488 63.6689 66.6496 63.6948C66.5504 63.7206 66.4573 63.766 66.3759 63.8283C66.2945 63.8907 66.2263 63.9686 66.1755 64.0576C66.1246 64.1467 66.0921 64.2449 66.0798 64.3467C66.0675 64.4485 66.0756 64.5517 66.1038 64.6503C66.1319 64.7489 66.1795 64.8409 66.2437 64.9208C66.3078 65.0008 66.3874 65.067 66.4775 65.1158L69.5312 66.8647L70.294 69.6952C70.3375 69.8569 70.4322 70.0002 70.564 70.1034C70.6958 70.2067 70.8576 70.2644 71.025 70.2679C71.0904 70.273 71.1561 70.262 71.2163 70.236C71.4095 70.1841 71.5745 70.0582 71.6756 69.8857C71.7768 69.7131 71.8061 69.5077 71.7571 69.3138L71.4075 67.9782L73.1245 68.9642C73.2425 69.0255 73.3731 69.0582 73.506 69.0598C73.6408 69.059 73.7731 69.0235 73.8901 68.9567C74.0072 68.8899 74.1051 68.794 74.1743 68.6784C74.2708 68.4898 74.2949 68.2724 74.242 68.0672C74.1892 67.8621 74.063 67.6834 73.8874 67.5649Z" fill="white"/>
<path d="M19.2444 69.4029C19.248 69.7191 19.1264 70.024 18.906 70.2507C18.6856 70.4775 18.3844 70.6078 18.0682 70.6131H13.0872C12.928 70.6141 12.7702 70.5835 12.6229 70.523C12.4756 70.4626 12.3418 70.3734 12.2292 70.2609C12.1167 70.1483 12.0276 70.0145 11.9671 69.8672C11.9066 69.72 11.876 69.5621 11.877 69.4029V65.9094C11.876 65.7502 11.9066 65.5924 11.9671 65.4451C12.0276 65.2979 12.1167 65.1641 12.2292 65.0515C12.3418 64.9389 12.4756 64.8498 12.6229 64.7894C12.7702 64.7289 12.928 64.6983 13.0872 64.6992H18.0682C18.2256 64.6989 18.3815 64.7302 18.5266 64.7913C18.6717 64.8524 18.803 64.9421 18.9128 65.055C19.0225 65.1679 19.1084 65.3018 19.1654 65.4485C19.2223 65.5953 19.2492 65.7521 19.2444 65.9094V69.4029Z" fill="#DDE4E8"/>
<g opacity="0.27">
<path d="M17.7213 69.3008H13.3979V65.9805H17.7213V69.3008ZM13.8814 68.8513H17.2708V66.4299H13.8814V68.8513Z" fill="#B4C8D2"/>
<path d="M14.6433 64.6992H14.1938V66.2207H14.6433V64.6992Z" fill="#B4C8D2"/>
<path d="M16.8225 64.6992H16.373V66.2207H16.8225V64.6992Z" fill="#B4C8D2"/>
<path d="M14.6433 69.0566H14.1938V70.5781H14.6433V69.0566Z" fill="#B4C8D2"/>
<path d="M16.8225 69.0566H16.373V70.5781H16.8225V69.0566Z" fill="#B4C8D2"/>
<path d="M19.2438 69.3326C19.0604 69.3324 18.8847 69.2594 18.755 69.1297C18.6253 69.0001 18.5524 68.8243 18.5521 68.6409C18.5528 68.6089 18.5471 68.5771 18.5351 68.5474C18.5232 68.5177 18.5054 68.4907 18.4828 68.468C18.4601 68.4454 18.4331 68.4276 18.4034 68.4157C18.3737 68.4037 18.3419 68.398 18.3099 68.3987H17.6182V67.9514H18.3099C18.4059 67.9491 18.5015 67.9662 18.5907 68.0019C18.6799 68.0376 18.761 68.0911 18.8289 68.159C18.8969 68.227 18.9503 68.308 18.986 68.3973C19.0217 68.4865 19.0389 68.582 19.0366 68.6781C19.0356 68.7102 19.0411 68.7422 19.0529 68.772C19.0647 68.8019 19.0825 68.829 19.1053 68.8517C19.128 68.8744 19.1551 68.8922 19.1849 68.904C19.2148 68.9158 19.2468 68.9214 19.2789 68.9204V69.3358L19.2438 69.3326Z" fill="#B4C8D2"/>
<path d="M18.3099 67.3266H17.6182V66.8771H18.3099C18.3419 66.878 18.3738 66.8723 18.4036 66.8605C18.4334 66.8486 18.4604 66.8308 18.4831 66.8081C18.5058 66.7855 18.5236 66.7584 18.5354 66.7286C18.5473 66.6988 18.553 66.6669 18.5521 66.6349C18.5529 66.4519 18.6262 66.2767 18.7557 66.1475C18.8853 66.0183 19.0608 65.9456 19.2438 65.9453V66.4298C19.2117 66.4288 19.1797 66.4343 19.1499 66.4461C19.12 66.458 19.0929 66.4758 19.0702 66.4985C19.0475 66.5212 19.0297 66.5483 19.0179 66.5781C19.0061 66.608 19.0005 66.64 19.0015 66.6721C19.0031 66.7616 18.986 66.8506 18.9513 66.9332C18.9166 67.0157 18.865 67.0902 18.8 67.1518C18.7349 67.2134 18.6577 67.2607 18.5733 67.2908C18.4889 67.3209 18.3992 67.3331 18.3099 67.3266Z" fill="#B4C8D2"/>
<path d="M11.877 69.3326V68.8481C11.909 68.8492 11.941 68.8436 11.9709 68.8318C12.0007 68.82 12.0278 68.8022 12.0506 68.7795C12.0733 68.7568 12.0911 68.7296 12.1029 68.6998C12.1147 68.6699 12.1202 68.638 12.1192 68.6059C12.1169 68.5098 12.1341 68.4142 12.1698 68.325C12.2055 68.2358 12.2589 68.1547 12.3269 68.0868C12.3948 68.0188 12.4759 67.9654 12.5651 67.9297C12.6543 67.894 12.7499 67.8768 12.846 67.8791H13.5376V68.3286H12.846C12.8139 68.3278 12.7821 68.3336 12.7524 68.3455C12.7227 68.3574 12.6957 68.3753 12.673 68.3979C12.6504 68.4205 12.6326 68.4475 12.6207 68.4772C12.6087 68.507 12.603 68.5388 12.6037 68.5708C12.6071 68.6688 12.5909 68.7665 12.556 68.8582C12.5211 68.9499 12.4683 69.0336 12.4006 69.1046C12.3329 69.1756 12.2517 69.2323 12.1618 69.2715C12.0719 69.3106 11.975 69.3314 11.877 69.3326Z" fill="#B4C8D2"/>
<path d="M13.502 67.3274H12.8103C12.7142 67.3298 12.6187 67.3126 12.5295 67.2769C12.4402 67.2412 12.3592 67.1877 12.2912 67.1198C12.2233 67.0518 12.1698 66.9708 12.1341 66.8815C12.0984 66.7923 12.0812 66.6968 12.0836 66.6007C12.0846 66.5686 12.079 66.5366 12.0672 66.5068C12.0554 66.4769 12.0376 66.4498 12.0149 66.4271C11.9922 66.4044 11.9651 66.3866 11.9352 66.3748C11.9054 66.363 11.8734 66.3574 11.8413 66.3584V65.875C12.0247 65.8753 12.2004 65.9482 12.3301 66.0779C12.4598 66.2076 12.5327 66.3833 12.533 66.5667C12.5323 66.5987 12.538 66.6305 12.55 66.6602C12.5619 66.69 12.5797 66.717 12.6023 66.7396C12.625 66.7622 12.652 66.7801 12.6817 66.792C12.7114 66.8039 12.7432 66.8097 12.7752 66.8089H13.4669V67.3274H13.502Z" fill="#B4C8D2"/>
</g>
<path d="M69.1909 10.8514V12.8234C69.1909 12.9426 69.2382 13.057 69.3225 13.1412C69.4068 13.2255 69.5211 13.2729 69.6403 13.2729C69.7595 13.2729 69.8738 13.2255 69.9581 13.1412C70.0424 13.057 70.0898 12.9426 70.0898 12.8234V10.8514L71.2659 9.67525C71.3068 9.63437 71.3393 9.58583 71.3614 9.53242C71.3835 9.479 71.3949 9.42175 71.3949 9.36394C71.3949 9.30612 71.3835 9.24887 71.3614 9.19546C71.3393 9.14204 71.3068 9.09351 71.2659 9.05262C71.2251 9.01174 71.1765 8.97931 71.1231 8.95719C71.0697 8.93506 71.0124 8.92367 70.9546 8.92367C70.8968 8.92367 70.8396 8.93506 70.7862 8.95719C70.7327 8.97931 70.6842 9.01174 70.6433 9.05262L70.0898 9.60619V8.46506C70.0898 8.34586 70.0424 8.23155 69.9581 8.14726C69.8738 8.06298 69.7595 8.01562 69.6403 8.01562C69.5211 8.01562 69.4068 8.06298 69.3225 8.14726C69.2382 8.23155 69.1909 8.34586 69.1909 8.46506V9.57219L68.6373 9.01862C68.5548 8.93606 68.4428 8.88967 68.326 8.88967C68.2092 8.88967 68.0973 8.93606 68.0147 9.01862C67.9321 9.10119 67.8857 9.21317 67.8857 9.32994C67.8857 9.4467 67.9321 9.55868 68.0147 9.64125L69.1909 10.8514Z" fill="#7AB4E2"/>
<path d="M64.4873 11.6832L65.4563 12.2367L64.6955 12.4492C64.6408 12.4625 64.5894 12.4865 64.544 12.5198C64.4987 12.5532 64.4605 12.5952 64.4315 12.6434C64.4026 12.6917 64.3835 12.7452 64.3753 12.8008C64.3672 12.8565 64.3702 12.9132 64.3842 12.9677C64.4107 13.0574 64.4655 13.1361 64.5403 13.1922C64.6152 13.2483 64.7061 13.2788 64.7996 13.279H64.9059L66.4996 12.8636L68.2294 13.8666C68.294 13.9056 68.3667 13.9292 68.4419 13.9357C68.5184 13.937 68.5939 13.918 68.6607 13.8807C68.7275 13.8433 68.7833 13.789 68.8223 13.7232C68.8746 13.6218 68.8858 13.5041 68.8536 13.3946C68.8213 13.2852 68.748 13.1924 68.6491 13.1356L66.9193 12.1326L66.5039 10.5388C66.4899 10.4844 66.4654 10.4332 66.4316 10.3882C66.3979 10.3432 66.3556 10.3052 66.3072 10.2766C66.2588 10.2479 66.2053 10.2291 66.1496 10.2211C66.0939 10.2131 66.0372 10.2162 65.9827 10.2302C65.9282 10.2441 65.877 10.2687 65.832 10.3024C65.787 10.3362 65.7491 10.3784 65.7205 10.4268C65.6918 10.4752 65.673 10.5288 65.665 10.5845C65.657 10.6402 65.6601 10.6969 65.6741 10.7513L65.8866 11.5121L64.9176 10.9585C64.8162 10.9062 64.6985 10.895 64.589 10.9272C64.4796 10.9595 64.3868 11.0327 64.33 11.1317C64.2795 11.2261 64.2677 11.3363 64.2971 11.4393C64.3264 11.5422 64.3946 11.6296 64.4873 11.6832Z" fill="#7AB4E2"/>
<path d="M70.4023 13.0987C70.3033 13.1555 70.23 13.2483 70.1978 13.3578C70.1655 13.4672 70.1767 13.5849 70.2291 13.6863C70.2681 13.7522 70.3238 13.8065 70.3906 13.8438C70.4574 13.8811 70.5329 13.9001 70.6094 13.8988C70.6846 13.8924 70.7573 13.8688 70.8219 13.8297L72.5517 12.8267L74.1454 13.2422H74.2517C74.346 13.2452 74.4385 13.216 74.514 13.1594C74.5895 13.1028 74.6435 13.0222 74.6671 12.9309C74.6856 12.8764 74.692 12.8185 74.6859 12.7613C74.6798 12.704 74.6613 12.6488 74.6316 12.5995C74.602 12.5501 74.562 12.5078 74.5143 12.4755C74.4667 12.4432 74.4126 12.4217 74.3558 12.4124L73.5951 12.1999L74.5641 11.6463C74.6623 11.5898 74.7346 11.4971 74.7653 11.388C74.796 11.279 74.7828 11.1622 74.7285 11.0627C74.6742 10.9633 74.5831 10.889 74.4747 10.8559C74.3663 10.8228 74.2493 10.8334 74.1486 10.8856L73.1796 11.4391L73.4219 10.7474C73.4358 10.693 73.4389 10.6362 73.431 10.5806C73.423 10.5249 73.4041 10.4713 73.3755 10.4229C73.3468 10.3745 73.3089 10.3323 73.2639 10.2985C73.2189 10.2648 73.1677 10.2402 73.1132 10.2263C73.0587 10.2123 73.002 10.2092 72.9464 10.2172C72.8907 10.2252 72.8371 10.244 72.7887 10.2727C72.7403 10.3013 72.6981 10.3392 72.6643 10.3842C72.6306 10.4292 72.606 10.4804 72.5921 10.5349L72.1766 12.1287L70.4023 13.0987Z" fill="#7AB4E2"/>
<path d="M70.0556 17.4222V15.4162C70.0556 15.297 70.0082 15.1827 69.9239 15.0984C69.8397 15.0141 69.7253 14.9668 69.6061 14.9668C69.4869 14.9668 69.3726 15.0141 69.2883 15.0984C69.2041 15.1827 69.1567 15.297 69.1567 15.4162V17.4222L67.9805 18.5984C67.898 18.681 67.8516 18.793 67.8516 18.9097C67.8516 19.0265 67.898 19.1385 67.9805 19.221C68.0631 19.3036 68.1751 19.35 68.2918 19.35C68.4086 19.35 68.5206 19.3036 68.6031 19.221L69.1567 18.6675V19.7746C69.1567 19.8938 69.2041 20.0081 69.2883 20.0924C69.3726 20.1767 69.4869 20.224 69.6061 20.224C69.7253 20.224 69.8397 20.1767 69.9239 20.0924C70.0082 20.0081 70.0556 19.8938 70.0556 19.7746V18.6675L70.6091 19.221C70.6943 19.301 70.804 19.3497 70.9205 19.3592C70.9791 19.3589 71.037 19.3464 71.0906 19.3227C71.1441 19.2989 71.1922 19.2643 71.2318 19.221C71.2728 19.1803 71.3054 19.1318 71.3276 19.0783C71.3499 19.0249 71.3613 18.9676 71.3613 18.9097C71.3613 18.8519 71.3499 18.7946 71.3276 18.7411C71.3054 18.6877 71.2728 18.6392 71.2318 18.5984L70.0556 17.4222Z" fill="#7AB4E2"/>
<path d="M68.6713 14.9337C68.7226 14.9071 68.768 14.8706 68.805 14.8262C68.8419 14.7819 68.8696 14.7306 68.8865 14.6754C68.9034 14.6202 68.909 14.5622 68.9032 14.5047C68.8973 14.4473 68.8801 14.3916 68.8524 14.341C68.8247 14.2903 68.7872 14.2457 68.7421 14.2097C68.6969 14.1737 68.645 14.1471 68.5895 14.1315C68.5339 14.1158 68.4758 14.1114 68.4185 14.1185C68.3612 14.1257 68.3059 14.1441 68.2559 14.1729L66.5261 15.1759L64.9324 14.7605C64.8779 14.7465 64.8212 14.7434 64.7655 14.7514C64.7098 14.7594 64.6563 14.7782 64.6079 14.8069C64.5595 14.8355 64.5172 14.8734 64.4835 14.9184C64.4497 14.9634 64.4252 15.0146 64.4112 15.0691C64.3973 15.1236 64.3942 15.1803 64.4021 15.236C64.4101 15.2917 64.4289 15.3452 64.4576 15.3936C64.4863 15.442 64.5242 15.4843 64.5692 15.518C64.6142 15.5518 64.6654 15.5763 64.7199 15.5903L65.4806 15.8028L64.5116 16.3563C64.4126 16.4131 64.3394 16.5059 64.3071 16.6154C64.2749 16.7248 64.2861 16.8425 64.3384 16.9439C64.3774 17.0098 64.4332 17.0641 64.5 17.1014C64.5668 17.1387 64.6423 17.1577 64.7188 17.1564C64.794 17.15 64.8667 17.1264 64.9313 17.0873L65.9003 16.5338L65.6878 17.2945C65.6693 17.349 65.6629 17.4069 65.669 17.4641C65.6752 17.5214 65.6937 17.5766 65.7233 17.6259C65.7529 17.6753 65.793 17.7176 65.8406 17.7499C65.8882 17.7822 65.9423 17.8037 65.9991 17.813H66.1054C66.1997 17.816 66.2922 17.7868 66.3677 17.7303C66.4432 17.6737 66.4972 17.5931 66.5208 17.5017L66.9363 15.908L68.6713 14.9337Z" fill="#7AB4E2"/>
<path d="M74.6213 16.3512L73.6523 15.7976L74.413 15.5851C74.5231 15.5569 74.6174 15.4862 74.6753 15.3884C74.7332 15.2907 74.7499 15.174 74.7217 15.0639C74.6935 14.9539 74.6228 14.8596 74.525 14.8017C74.4273 14.7438 74.3106 14.7271 74.2005 14.7553L72.6068 15.1707L70.877 14.1677C70.7764 14.1156 70.6594 14.1049 70.551 14.1381C70.4426 14.1712 70.3515 14.2454 70.2972 14.3449C70.2429 14.4443 70.2297 14.5611 70.2604 14.6702C70.2911 14.7793 70.3633 14.872 70.4616 14.9285L72.1913 15.9315L72.6068 17.5252C72.6289 17.6174 72.6826 17.6989 72.7584 17.7557C72.8343 17.8126 72.9275 17.8411 73.0222 17.8365H73.1285C73.1831 17.8232 73.2346 17.7992 73.2799 17.7659C73.3253 17.7326 73.3635 17.6906 73.3925 17.6423C73.4214 17.5941 73.4405 17.5406 73.4486 17.4849C73.4568 17.4293 73.4537 17.3725 73.4398 17.318L73.2273 16.5573L74.1963 17.1108C74.2609 17.1499 74.3336 17.1735 74.4088 17.1799C74.4853 17.1812 74.5608 17.1622 74.6276 17.1249C74.6944 17.0876 74.7502 17.0332 74.7892 16.9674C74.8382 16.8614 74.8483 16.7414 74.8176 16.6287C74.7869 16.5159 74.7173 16.4177 74.6213 16.3512Z" fill="#7AB4E2"/>
<path d="M50.6854 18.6618V20.1493C50.6854 20.2319 50.7182 20.311 50.7765 20.3694C50.8349 20.4278 50.9141 20.4606 50.9967 20.4606C51.0792 20.4606 51.1584 20.4278 51.2168 20.3694C51.2752 20.311 51.308 20.2319 51.308 20.1493V18.6618L52.2069 17.7629C52.2591 17.7019 52.2864 17.6235 52.2833 17.5433C52.2802 17.4631 52.2469 17.387 52.1901 17.3302C52.1334 17.2734 52.0573 17.2402 51.9771 17.2371C51.8968 17.234 51.8184 17.2613 51.7574 17.3135L51.342 17.7289V16.864C51.342 16.7815 51.3092 16.7023 51.2508 16.6439C51.1924 16.5855 51.1132 16.5527 51.0307 16.5527C50.9481 16.5527 50.8689 16.5855 50.8105 16.6439C50.7522 16.7023 50.7194 16.7815 50.7194 16.864V17.6939L50.3039 17.2784C50.2429 17.2262 50.1645 17.1989 50.0843 17.202C50.0041 17.2051 49.928 17.2384 49.8712 17.2951C49.8144 17.3519 49.7812 17.428 49.7781 17.5082C49.775 17.5884 49.8023 17.6669 49.8545 17.7279L50.6854 18.6618Z" fill="#7AB4E2"/>
<path d="M47.1227 19.3192L47.8494 19.7347L47.2619 19.8728C47.1769 19.8992 47.1048 19.9565 47.06 20.0334C47.0151 20.1103 47.0007 20.2012 47.0196 20.2882C47.0389 20.3566 47.0795 20.4169 47.1355 20.4605C47.1915 20.5041 47.26 20.5286 47.3309 20.5305H47.4L48.6102 20.2192L49.9245 20.9799C49.9763 21.0115 50.0376 21.0239 50.0977 21.015C50.1543 21.0105 50.2089 20.9924 50.257 20.9622C50.3051 20.9321 50.3452 20.8908 50.3739 20.8418C50.4187 20.7679 50.4326 20.6794 50.4128 20.5953C50.3929 20.5113 50.3408 20.4384 50.2677 20.3924L48.9534 19.6316L48.6421 18.4214C48.6307 18.3782 48.6109 18.3377 48.5839 18.3022C48.5569 18.2666 48.5231 18.2368 48.4845 18.2143C48.4459 18.1918 48.4033 18.1771 48.3591 18.1711C48.3148 18.1651 48.2698 18.1678 48.2266 18.1792C48.1834 18.1906 48.1429 18.2103 48.1074 18.2373C48.0718 18.2644 48.042 18.2981 48.0195 18.3367C47.997 18.3753 47.9823 18.4179 47.9763 18.4622C47.9702 18.5064 47.973 18.5514 47.9844 18.5946L48.1225 19.1822L47.3957 18.7667C47.3219 18.722 47.2334 18.708 47.1493 18.7279C47.0652 18.7478 46.9923 18.7999 46.9463 18.873C46.9337 18.9563 46.9433 19.0415 46.9743 19.1199C47.0053 19.1983 47.0565 19.2671 47.1227 19.3192Z" fill="#7AB4E2"/>
<path d="M51.6194 20.3563C51.5803 20.3763 51.5459 20.4045 51.5188 20.4391C51.4916 20.4736 51.4723 20.5137 51.4622 20.5564C51.4521 20.5992 51.4514 20.6437 51.4602 20.6867C51.469 20.7298 51.4871 20.7704 51.5131 20.8058C51.5419 20.8547 51.582 20.896 51.6301 20.9262C51.6781 20.9563 51.7328 20.9744 51.7894 20.9789C51.8493 20.9842 51.9095 20.9721 51.9626 20.9439L53.2769 20.1831L54.4871 20.4944H54.5561C54.6271 20.4926 54.6956 20.468 54.7516 20.4245C54.8076 20.3809 54.8482 20.3205 54.8675 20.2522C54.8819 20.1656 54.8656 20.0766 54.8214 20.0007C54.7771 19.9248 54.7077 19.8668 54.6252 19.8368L54.0377 19.6986L54.7644 19.2832C54.8378 19.2373 54.89 19.1641 54.9094 19.0797C54.9288 18.9953 54.9139 18.9066 54.868 18.8332C54.8221 18.7598 54.7488 18.7077 54.6645 18.6882C54.5801 18.6688 54.4914 18.6837 54.418 18.7296L53.6913 19.1451L53.8294 18.5575C53.8408 18.5143 53.8435 18.4693 53.8375 18.4251C53.8315 18.3808 53.8168 18.3382 53.7943 18.2996C53.7718 18.261 53.7419 18.2273 53.7064 18.2002C53.6709 18.1732 53.6303 18.1534 53.5871 18.1421C53.544 18.1307 53.499 18.1279 53.4547 18.134C53.4105 18.14 53.3678 18.1547 53.3293 18.1772C53.2907 18.1997 53.2569 18.2295 53.2299 18.2651C53.2029 18.3006 53.1831 18.3411 53.1717 18.3843L52.8604 19.5945L51.6194 20.3563Z" fill="#7AB4E2"/>
<path d="M51.3428 23.6426V22.1551C51.3428 22.0725 51.31 21.9933 51.2516 21.9349C51.1932 21.8766 51.114 21.8438 51.0315 21.8438C50.9489 21.8438 50.8697 21.8766 50.8113 21.9349C50.7529 21.9933 50.7202 22.0725 50.7202 22.1551V23.6426L49.8213 24.5414C49.7691 24.6024 49.7418 24.6808 49.7449 24.7611C49.748 24.8413 49.7812 24.9174 49.838 24.9742C49.8948 25.0309 49.9709 25.0642 50.0511 25.0673C50.1313 25.0704 50.2097 25.0431 50.2707 24.9909L50.6862 24.5754V25.4052C50.6862 25.4878 50.719 25.567 50.7773 25.6254C50.8357 25.6838 50.9149 25.7166 50.9975 25.7166C51.08 25.7166 51.1592 25.6838 51.2176 25.6254C51.276 25.567 51.3088 25.4878 51.3088 25.4052V24.5754L51.7242 24.9909C51.7546 25.0249 51.792 25.052 51.8338 25.0703C51.8756 25.0886 51.9208 25.0978 51.9665 25.0971C52.0575 25.0924 52.1436 25.0546 52.2087 24.9909C52.2412 24.9631 52.2673 24.9287 52.2852 24.8899C52.3031 24.8511 52.3124 24.8089 52.3124 24.7662C52.3124 24.7234 52.3031 24.6812 52.2852 24.6424C52.2673 24.6036 52.2412 24.5692 52.2087 24.5414L51.3428 23.6426Z" fill="#7AB4E2"/>
<path d="M50.3051 21.74C50.3785 21.6941 50.4307 21.6209 50.4501 21.5365C50.4695 21.4521 50.4546 21.3634 50.4087 21.29C50.3628 21.2166 50.2895 21.1645 50.2052 21.145C50.1208 21.1256 50.0321 21.1405 49.9587 21.1864L48.6444 21.9472L47.4342 21.6359C47.391 21.6245 47.346 21.6217 47.3018 21.6278C47.2575 21.6338 47.2149 21.6485 47.1763 21.671C47.1378 21.6935 47.104 21.7233 47.0769 21.7589C47.0499 21.7944 47.0301 21.8349 47.0188 21.8781C47.0074 21.9213 47.0047 21.9663 47.0107 22.0106C47.0167 22.0548 47.0314 22.0974 47.0539 22.136C47.0764 22.1746 47.1062 22.2084 47.1418 22.2354C47.1773 22.2624 47.2178 22.2822 47.261 22.2936L47.8486 22.4317L47.1218 22.8471C47.0827 22.8671 47.0484 22.8953 47.0212 22.9299C46.9941 22.9644 46.9748 23.0045 46.9647 23.0472C46.9546 23.09 46.9539 23.1345 46.9627 23.1775C46.9715 23.2206 46.9895 23.2612 47.0156 23.2966C47.0443 23.3455 47.0844 23.3868 47.1325 23.417C47.1806 23.4471 47.2353 23.4652 47.2918 23.4697C47.3517 23.475 47.4119 23.4629 47.465 23.4347L48.1918 23.0192L48.0537 23.6068C48.0392 23.6934 48.0555 23.7824 48.0997 23.8583C48.144 23.9342 48.2134 23.9922 48.2959 24.0222H48.365C48.4359 24.0204 48.5044 23.9959 48.5604 23.9523C48.6164 23.9087 48.657 23.8483 48.6763 23.78L48.9876 22.5698L50.3051 21.74Z" fill="#7AB4E2"/>
<path d="M54.7711 22.812L54.0444 22.3965L54.6319 22.2584C54.6751 22.247 54.7156 22.2273 54.7512 22.2002C54.7867 22.1732 54.8166 22.1394 54.8391 22.1009C54.8616 22.0623 54.8763 22.0197 54.8823 21.9754C54.8883 21.9312 54.8856 21.8862 54.8742 21.843C54.8628 21.7998 54.8431 21.7593 54.816 21.7237C54.789 21.6882 54.7552 21.6583 54.7166 21.6358C54.6781 21.6133 54.6354 21.5986 54.5912 21.5926C54.5469 21.5866 54.5019 21.5893 54.4588 21.6007L53.2486 21.912L51.9342 21.1513C51.8979 21.1285 51.8574 21.1132 51.8151 21.1061C51.7729 21.099 51.7296 21.1003 51.6878 21.1099C51.6034 21.1293 51.5302 21.1815 51.4843 21.2549C51.4384 21.3283 51.4235 21.4169 51.4429 21.5013C51.4623 21.5857 51.5145 21.6589 51.5879 21.7048L52.9022 22.4656L53.2135 23.6758C53.2328 23.7441 53.2733 23.8045 53.3294 23.848C53.3854 23.8916 53.4539 23.9162 53.5248 23.918H53.5939C53.6789 23.8916 53.7509 23.8343 53.7958 23.7574C53.8406 23.6805 53.855 23.5896 53.8361 23.5026L53.698 22.915L54.4248 23.3305C54.4766 23.3621 54.5379 23.3745 54.5979 23.3655C54.6545 23.361 54.7092 23.3429 54.7573 23.3128C54.8054 23.2826 54.8455 23.2413 54.8742 23.1923C54.9741 23.1233 54.939 22.9161 54.7711 22.812Z" fill="#7AB4E2"/>
</g>
</g>
<defs>
<clipPath id="clip0_3045_10665">
<rect width="85" height="85" fill="white"/>
</clipPath>
</defs>
</svg>
