<?xml version="1.0" encoding="utf-8"?>
<!-- Generator: Adobe Illustrator 17.0.0, SVG Export Plug-In . SVG Version: 6.00 Build 0)  -->
<!DOCTYPE svg PUBLIC "-//W3C//DTD SVG 1.1//EN" "http://www.w3.org/Graphics/SVG/1.1/DTD/svg11.dtd">
<svg version="1.1" id="Layer_1" xmlns="http://www.w3.org/2000/svg" xmlns:xlink="http://www.w3.org/1999/xlink" x="0px" y="0px"
	 width="50px" height="50px" viewBox="0 0 50 50" enable-background="new 0 0 50 50" xml:space="preserve">
<g>
	<path fill="none" stroke="#000000" stroke-width="1.2" stroke-linecap="round" d="M29.843,26.179c0,3.771,0,5.657-1.172,6.828
		c-1.171,1.172-3.057,1.172-6.828,1.172s-5.657,0-6.828-1.172c-1.172-1.171-1.172-3.057-1.172-6.828s0-5.657,1.172-6.828
		c1.171-1.172,3.057-1.172,6.828-1.172"/>
	<path opacity="0.5" fill="none" stroke="#000000" stroke-width="1.5" stroke-linecap="round" enable-background="new    " d="
		M13.843,26.579l1.401-1.226c0.729-0.638,1.828-0.601,2.513,0.084l3.432,3.432c0.55,0.55,1.415,0.625,2.051,0.178l0.239-0.168
		c0.915-0.643,2.154-0.569,2.986,0.18l2.579,2.321"/>
	<path fill="none" stroke="#000000" stroke-width="1.5" stroke-linecap="round" d="M24.241,20.979h2.8 M27.041,20.979h2.8
		 M27.041,20.979v2.8 M27.041,20.979v-2.8"/>
</g>
</svg>
