<svg width="32" height="32" viewBox="0 0 32 32" fill="none" xmlns="http://www.w3.org/2000/svg">
<path d="M16 32C24.8366 32 32 24.8366 32 16C32 7.16344 24.8366 0 16 0C7.16344 0 0 7.16344 0 16C0 24.8366 7.16344 32 16 32Z" fill="#F5F0E5"/>
<path d="M18.574 13.926C18.322 13.4407 17.972 13.0767 17.524 12.834C17.076 12.582 16.558 12.456 15.97 12.456C15.326 12.456 14.752 12.6007 14.248 12.89C13.744 13.1793 13.3473 13.59 13.058 14.122C12.778 14.654 12.638 15.27 12.638 15.97C12.638 16.67 12.778 17.2907 13.058 17.832C13.3473 18.364 13.744 18.7747 14.248 19.064C14.752 19.3533 15.326 19.498 15.97 19.498C16.838 19.498 17.5427 19.2553 18.084 18.77C18.6253 18.2847 18.9567 17.6267 19.078 16.796H15.424V15.522H20.786V16.768C20.6833 17.524 20.4127 18.2193 19.974 18.854C19.5447 19.4887 18.98 19.9973 18.28 20.38C17.5893 20.7533 16.8193 20.94 15.97 20.94C15.0553 20.94 14.22 20.73 13.464 20.31C12.708 19.8807 12.106 19.288 11.658 18.532C11.2193 17.776 11 16.922 11 15.97C11 15.018 11.2193 14.164 11.658 13.408C12.106 12.652 12.708 12.064 13.464 11.644C14.2293 11.2147 15.0647 11 15.97 11C17.006 11 17.9253 11.2567 18.728 11.77C19.54 12.274 20.128 12.9927 20.492 13.926H18.574Z" fill="black"/>
</svg>
