<svg width="542" height="481" viewBox="0 0 542 481" fill="none" xmlns="http://www.w3.org/2000/svg">
<path d="M342.69 126.903C397.244 161.636 438.481 205.794 461.076 249.064C483.685 292.362 487.543 334.569 467.765 365.634C447.986 396.699 408.112 411.063 359.314 408.898C310.548 406.734 253.089 388.055 198.534 353.321C143.98 318.588 102.743 274.43 80.1479 231.159C57.5388 187.862 53.6812 145.655 73.4594 114.59C93.2377 83.5251 133.112 69.1613 181.91 71.3263C230.676 73.4899 288.135 92.1693 342.69 126.903Z" stroke="#175EC9" stroke-width="2"/>
<path d="M110.19 326.113H114.07L115.916 311.148L110.189 311.148L110.19 326.113Z" fill="#FFB6B6"/>
<path d="M109.201 324.847L116.842 324.846C118.133 324.846 119.372 325.359 120.285 326.272C121.199 327.186 121.712 328.424 121.712 329.715V329.874L109.201 329.874L109.201 324.847Z" fill="#3763FD"/>
<path d="M425.387 305.038C423.469 301.989 422.77 298.328 423.43 294.787C423.496 294.436 422.948 294.352 422.882 294.703C422.202 298.39 422.937 302.197 424.941 305.366C425.132 305.668 425.577 305.338 425.387 305.038Z" fill="white"/>
<path d="M153.332 259.15C152.933 258.911 152.592 258.586 152.332 258.2C152.073 257.814 151.901 257.376 151.829 256.916C151.757 256.457 151.787 255.987 151.916 255.54C152.045 255.093 152.271 254.68 152.577 254.33L146.973 244.507L152.837 244.886L157.26 254.155C157.814 254.709 158.146 255.446 158.193 256.228C158.24 257.01 157.999 257.782 157.515 258.398C157.03 259.013 156.337 259.43 155.566 259.569C154.795 259.708 154 259.559 153.332 259.15Z" fill="#FFB6B6"/>
<path d="M136.772 326.113H140.652L142.498 311.148L136.771 311.148L136.772 326.113Z" fill="#FFB6B6"/>
<path d="M135.783 324.847L143.424 324.846C144.715 324.846 145.954 325.359 146.867 326.272C147.781 327.186 148.294 328.424 148.294 329.715V329.874L135.783 329.874L135.783 324.847Z" fill="#3763FD"/>
<path d="M146.752 244.929C146.752 244.929 147.819 260.126 145.717 267.78C143.615 275.434 143.24 321.719 143.24 321.719H136.195L130.089 258.715L116.011 321.942L109.301 321.48L112.981 246.976L146.752 244.929Z" fill="#1F2228"/>
<path d="M115.891 193.7L121.277 189.77L130.302 191.735L132.745 197.54L136.955 199.627C138.339 200.313 139.535 201.325 140.442 202.576C141.349 203.827 141.938 205.279 142.159 206.808L148.173 248.337L112.98 246.977L108.72 198.069C108.675 197.558 108.733 197.043 108.891 196.555C109.049 196.067 109.303 195.616 109.639 195.228C109.974 194.84 110.384 194.523 110.844 194.297C111.304 194.07 111.805 193.938 112.317 193.908L115.891 193.7Z" fill="#3763FD"/>
<path d="M139.18 202.871L142.43 207.253L156.588 250.433L149.951 253.09L139.325 232.969L139.18 202.871Z" fill="#3F3D56"/>
<path d="M127.4 187.717C131.741 187.717 135.26 184.198 135.26 179.857C135.26 175.516 131.741 171.997 127.4 171.997C123.058 171.997 119.539 175.516 119.539 179.857C119.539 184.198 123.058 187.717 127.4 187.717Z" fill="#FFB9B9"/>
<path opacity="0.1" d="M110.264 212.197L123.091 230.038L137.429 239.388L110.264 212.197Z" fill="black"/>
<path d="M123.236 185.54C122.689 184.448 122.126 183.26 122.335 182.057C122.544 180.854 123.925 179.806 124.99 180.403C125.432 178.805 127.389 178.106 129.036 178.291C130.683 178.475 132.2 179.269 133.822 179.611C135.444 179.952 137.414 179.681 138.29 178.274L136.193 178.238L138.377 175.705L135.845 175.515C136.722 174.569 136.489 172.961 135.64 171.989C134.791 171.017 133.503 170.558 132.246 170.267C129.736 169.688 127.135 169.629 124.601 170.091C123.407 170.275 122.256 170.676 121.205 171.273C120.215 171.877 119.398 172.725 118.83 173.735C118.219 174.876 117.888 176.146 117.866 177.44C117.828 179.173 118.227 180.888 119.024 182.428C119.821 183.967 120.992 185.282 122.43 186.251" fill="#1E004C"/>
<path d="M415.902 330.076H171.966C169.453 330.073 167.045 329.074 165.269 327.298C163.492 325.522 162.493 323.113 162.49 320.601V137.475C162.493 134.963 163.492 132.555 165.269 130.778C167.045 129.002 169.453 128.003 171.966 128H415.902C418.414 128.003 420.822 129.002 422.598 130.778C424.375 132.555 425.374 134.963 425.377 137.475V320.601C425.374 323.113 424.375 325.521 422.598 327.298C420.822 329.074 418.414 330.073 415.902 330.076Z" fill="#9ACDFF"/>
<path d="M354.506 212.081H316.851C314.99 212.081 313.205 211.342 311.889 210.026C310.573 208.71 309.834 206.926 309.834 205.065C309.834 203.204 310.573 201.419 311.889 200.103C313.205 198.788 314.99 198.048 316.851 198.048H354.506C356.367 198.048 358.152 198.788 359.467 200.103C360.783 201.419 361.523 203.204 361.523 205.065C361.523 206.926 360.783 208.71 359.467 210.026C358.152 211.342 356.367 212.081 354.506 212.081Z" fill="#2A4DC8"/>
<path d="M321.531 231.26H312.643C311.961 231.26 311.306 230.989 310.824 230.506C310.341 230.024 310.07 229.369 310.07 228.687C310.07 228.005 310.341 227.35 310.824 226.868C311.306 226.385 311.961 226.114 312.643 226.114H321.531C322.213 226.114 322.867 226.385 323.35 226.868C323.832 227.35 324.103 228.005 324.103 228.687C324.103 229.369 323.832 230.024 323.35 230.506C322.867 230.989 322.213 231.26 321.531 231.26Z" fill="#B7DAF9"/>
<path d="M358.482 231.26H349.594C348.912 231.26 348.257 230.989 347.775 230.506C347.293 230.024 347.021 229.369 347.021 228.687C347.021 228.005 347.293 227.35 347.775 226.868C348.257 226.385 348.912 226.114 349.594 226.114H358.482C359.164 226.114 359.819 226.385 360.301 226.868C360.783 227.35 361.055 228.005 361.055 228.687C361.055 229.369 360.783 230.024 360.301 230.506C359.819 230.989 359.164 231.26 358.482 231.26Z" fill="#B7DAF9"/>
<path d="M339.771 231.26H330.883C330.201 231.26 329.547 230.989 329.064 230.506C328.582 230.024 328.311 229.369 328.311 228.687C328.311 228.005 328.582 227.35 329.064 226.868C329.547 226.385 330.201 226.114 330.883 226.114H339.771C340.453 226.114 341.108 226.385 341.59 226.868C342.073 227.35 342.344 228.005 342.344 228.687C342.344 229.369 342.073 230.024 341.59 230.506C341.108 230.989 340.453 231.26 339.771 231.26Z" fill="#B7DAF9"/>
<path d="M321.531 241.083H312.643C311.961 241.083 311.306 240.812 310.824 240.33C310.341 239.847 310.07 239.193 310.07 238.511C310.07 237.828 310.341 237.174 310.824 236.692C311.306 236.209 311.961 235.938 312.643 235.938H321.531C322.213 235.938 322.867 236.209 323.35 236.692C323.832 237.174 324.103 237.828 324.103 238.511C324.103 239.193 323.832 239.847 323.35 240.33C322.867 240.812 322.213 241.083 321.531 241.083Z" fill="#B7DAF9"/>
<path d="M358.482 241.083H349.594C348.912 241.083 348.257 240.812 347.775 240.33C347.293 239.847 347.021 239.193 347.021 238.511C347.021 237.828 347.293 237.174 347.775 236.692C348.257 236.209 348.912 235.938 349.594 235.938H358.482C359.164 235.938 359.819 236.209 360.301 236.692C360.783 237.174 361.055 237.828 361.055 238.511C361.055 239.193 360.783 239.847 360.301 240.33C359.819 240.812 359.164 241.083 358.482 241.083Z" fill="#B7DAF9"/>
<path d="M339.771 241.083H330.883C330.201 241.083 329.547 240.812 329.064 240.33C328.582 239.847 328.311 239.193 328.311 238.511C328.311 237.828 328.582 237.174 329.064 236.692C329.547 236.209 330.201 235.938 330.883 235.938H339.771C340.453 235.938 341.108 236.209 341.59 236.692C342.073 237.174 342.344 237.828 342.344 238.511C342.344 239.193 342.073 239.847 341.59 240.33C341.108 240.812 340.453 241.083 339.771 241.083Z" fill="#B7DAF9"/>
<path d="M321.531 250.906H312.643C311.961 250.906 311.306 250.635 310.824 250.153C310.341 249.67 310.07 249.016 310.07 248.333C310.07 247.651 310.341 246.997 310.824 246.514C311.306 246.032 311.961 245.761 312.643 245.761H321.531C322.213 245.761 322.867 246.032 323.35 246.514C323.832 246.997 324.103 247.651 324.103 248.333C324.103 249.016 323.832 249.67 323.35 250.153C322.867 250.635 322.213 250.906 321.531 250.906Z" fill="#B7DAF9"/>
<path d="M358.482 250.906H349.594C348.912 250.906 348.257 250.635 347.775 250.153C347.293 249.67 347.021 249.016 347.021 248.333C347.021 247.651 347.293 246.997 347.775 246.514C348.257 246.032 348.912 245.761 349.594 245.761H358.482C359.164 245.761 359.819 246.032 360.301 246.514C360.783 246.997 361.055 247.651 361.055 248.333C361.055 249.016 360.783 249.67 360.301 250.153C359.819 250.635 359.164 250.906 358.482 250.906Z" fill="#B7DAF9"/>
<path d="M339.771 250.906H330.883C330.201 250.906 329.547 250.635 329.064 250.153C328.582 249.67 328.311 249.016 328.311 248.333C328.311 247.651 328.582 246.997 329.064 246.514C329.547 246.032 330.201 245.761 330.883 245.761H339.771C340.453 245.761 341.108 246.032 341.59 246.514C342.073 246.997 342.344 247.651 342.344 248.333C342.344 249.016 342.073 249.67 341.59 250.153C341.108 250.635 340.453 250.906 339.771 250.906Z" fill="#B7DAF9"/>
<path d="M321.531 260.729H312.643C311.961 260.729 311.306 260.458 310.824 259.975C310.341 259.493 310.07 258.839 310.07 258.156C310.07 257.474 310.341 256.82 310.824 256.337C311.306 255.855 311.961 255.583 312.643 255.583H321.531C322.213 255.583 322.867 255.855 323.35 256.337C323.832 256.82 324.103 257.474 324.103 258.156C324.103 258.839 323.832 259.493 323.35 259.975C322.867 260.458 322.213 260.729 321.531 260.729Z" fill="#B7DAF9"/>
<path d="M358.482 260.729H349.594C348.912 260.729 348.257 260.458 347.775 259.975C347.293 259.493 347.021 258.839 347.021 258.156C347.021 257.474 347.293 256.82 347.775 256.337C348.257 255.855 348.912 255.583 349.594 255.583H358.482C359.164 255.583 359.819 255.855 360.301 256.337C360.783 256.82 361.055 257.474 361.055 258.156C361.055 258.839 360.783 259.493 360.301 259.975C359.819 260.458 359.164 260.729 358.482 260.729Z" fill="#B7DAF9"/>
<path d="M339.771 260.729H330.883C330.201 260.729 329.547 260.458 329.064 259.975C328.582 259.493 328.311 258.839 328.311 258.156C328.311 257.474 328.582 256.82 329.064 256.337C329.547 255.855 330.201 255.583 330.883 255.583H339.771C340.453 255.583 341.108 255.855 341.59 256.337C342.073 256.82 342.344 257.474 342.344 258.156C342.344 258.839 342.073 259.493 341.59 259.975C341.108 260.458 340.453 260.729 339.771 260.729Z" fill="#B7DAF9"/>
<path d="M261.421 250.438C274.596 250.438 285.277 239.758 285.277 226.582C285.277 213.407 274.596 202.726 261.421 202.726C248.245 202.726 237.564 213.407 237.564 226.582C237.564 239.758 248.245 250.438 261.421 250.438Z" fill="#B7DAF9"/>
<path d="M261.419 255.818C259.559 255.816 257.775 255.076 256.46 253.761C255.144 252.445 254.404 250.662 254.402 248.802V204.364C254.402 203.442 254.583 202.529 254.935 201.677C255.287 200.825 255.804 200.051 256.455 199.398C257.107 198.746 257.881 198.229 258.732 197.876C259.584 197.523 260.497 197.341 261.419 197.341C262.341 197.341 263.254 197.523 264.105 197.876C264.957 198.229 265.731 198.746 266.382 199.398C267.034 200.051 267.551 200.825 267.903 201.677C268.255 202.529 268.436 203.442 268.435 204.364V248.802C268.433 250.662 267.693 252.445 266.378 253.761C265.063 255.076 263.279 255.816 261.419 255.818Z" fill="#335FFD"/>
<path d="M323.746 209.069H317.197C316.949 209.069 316.711 208.97 316.536 208.795C316.36 208.619 316.262 208.381 316.262 208.133C316.262 207.885 316.36 207.647 316.536 207.472C316.711 207.296 316.949 207.198 317.197 207.198H323.746C323.994 207.198 324.232 207.296 324.408 207.472C324.583 207.647 324.682 207.885 324.682 208.133C324.682 208.381 324.583 208.619 324.408 208.795C324.232 208.97 323.994 209.069 323.746 209.069Z" fill="#B7DAF9"/>
<path d="M334.037 209.303H327.488C327.24 209.303 327.002 209.204 326.827 209.029C326.651 208.853 326.553 208.615 326.553 208.367C326.553 208.119 326.651 207.881 326.827 207.706C327.002 207.53 327.24 207.432 327.488 207.432H334.037C334.285 207.432 334.523 207.53 334.699 207.706C334.874 207.881 334.973 208.119 334.973 208.367C334.973 208.615 334.874 208.853 334.699 209.029C334.523 209.204 334.285 209.303 334.037 209.303Z" fill="#B7DAF9"/>
<path d="M344.326 209.536H337.777C337.529 209.536 337.291 209.438 337.116 209.262C336.94 209.087 336.842 208.849 336.842 208.601C336.842 208.352 336.94 208.114 337.116 207.939C337.291 207.764 337.529 207.665 337.777 207.665H344.326C344.574 207.665 344.812 207.764 344.988 207.939C345.163 208.114 345.262 208.352 345.262 208.601C345.262 208.849 345.163 209.087 344.988 209.262C344.812 209.438 344.574 209.536 344.326 209.536Z" fill="#B7DAF9"/>
<path d="M354.617 209.77H348.068C347.82 209.77 347.582 209.672 347.407 209.496C347.231 209.321 347.133 209.083 347.133 208.835C347.133 208.587 347.231 208.349 347.407 208.173C347.582 207.998 347.82 207.899 348.068 207.899H354.617C354.865 207.899 355.103 207.998 355.279 208.173C355.454 208.349 355.553 208.587 355.553 208.835C355.553 209.083 355.454 209.321 355.279 209.496C355.103 209.672 354.865 209.77 354.617 209.77Z" fill="#B7DAF9"/>
<path d="M193.595 301.191C193.595 302.349 193.824 303.496 194.271 304.565C194.717 305.634 195.372 306.603 196.196 307.417H192.332C191.192 307.417 190.063 307.192 189.01 306.756C187.956 306.32 186.999 305.68 186.193 304.874C185.387 304.068 184.747 303.111 184.311 302.058C183.875 301.005 183.65 299.876 183.65 298.736V157.992C183.65 156.852 183.875 155.723 184.311 154.67C184.747 153.617 185.387 152.66 186.193 151.854C186.999 151.048 187.956 150.408 189.01 149.972C190.063 149.536 191.192 149.311 192.332 149.311H197.955C196.629 150.082 195.528 151.188 194.763 152.518C193.998 153.848 193.595 155.355 193.595 156.889L193.595 301.191Z" fill="#65ABFE"/>
<path d="M452.924 331H104.443C104.326 331 104.214 330.94 104.131 330.834C104.048 330.729 104.002 330.586 104.002 330.437C104.002 330.287 104.048 330.144 104.131 330.039C104.214 329.933 104.326 329.873 104.443 329.873H452.924C453.041 329.873 453.153 329.932 453.236 330.038C453.319 330.144 453.366 330.287 453.366 330.437C453.366 330.586 453.319 330.729 453.236 330.835C453.153 330.941 453.041 331 452.924 331Z" fill="#4A4A4A"/>
<path d="M192.659 190.438C189.702 189.61 186.735 188.843 183.757 188.136C173.573 185.705 163.248 183.906 152.842 182.748C151.078 182.283 149.203 182.534 147.623 183.446C146.043 184.358 144.888 185.857 144.408 187.617L139.211 206.796C138.734 208.563 138.978 210.448 139.889 212.037C140.801 213.625 142.305 214.787 144.072 215.267L144.142 215.281C151.018 216.062 157.96 217.147 164.864 218.532C165.481 218.654 166.094 218.78 166.712 218.911C168.924 219.369 171.13 219.859 173.331 220.38C174.294 220.604 175.253 220.838 176.217 221.077C178.808 221.722 181.401 222.41 183.996 223.139C186.882 223.953 189.769 224.822 192.659 225.745C192.972 225.838 193.286 225.937 193.594 226.04V190.704C193.286 190.611 192.972 190.522 192.659 190.438Z" fill="white"/>
<path d="M192.659 190.438C189.702 189.61 186.735 188.843 183.757 188.136C173.573 185.705 163.248 183.906 152.842 182.748C151.078 182.283 149.203 182.534 147.623 183.446C146.043 184.358 144.888 185.857 144.408 187.617L139.211 206.796C138.734 208.563 138.978 210.448 139.889 212.037C140.801 213.625 142.305 214.787 144.072 215.267L144.142 215.281C151.018 216.062 157.96 217.147 164.864 218.532C165.481 218.654 166.094 218.78 166.712 218.911C168.924 219.369 171.13 219.859 173.331 220.38C174.294 220.604 175.253 220.838 176.217 221.077C178.808 221.722 181.401 222.41 183.996 223.139C186.882 223.953 189.769 224.822 192.659 225.745C192.972 225.838 193.286 225.937 193.594 226.04V225.053C193.281 224.954 192.967 224.856 192.659 224.758C190.002 223.911 187.348 223.114 184.697 222.368C183.706 222.082 182.714 221.806 181.722 221.54C179.935 221.058 178.153 220.596 176.376 220.155C175.431 219.916 174.488 219.687 173.546 219.467C173.476 219.449 173.401 219.435 173.33 219.416C171.726 219.037 170.118 218.675 168.508 218.331C167.89 218.2 167.273 218.069 166.655 217.942C159.209 216.399 151.705 215.197 144.282 214.355C142.764 213.932 141.474 212.926 140.693 211.557C139.913 210.188 139.705 208.565 140.114 207.043L145.311 187.86C145.727 186.334 146.731 185.035 148.104 184.248C149.476 183.462 151.105 183.252 152.632 183.664L152.702 183.674C162.976 184.815 173.17 186.583 183.229 188.969C183.331 188.997 183.434 189.02 183.537 189.044C186.587 189.773 189.628 190.562 192.659 191.411C192.967 191.495 193.281 191.584 193.594 191.677V190.704C193.286 190.611 192.972 190.522 192.659 190.438Z" fill="#3354CC"/>
<path d="M193.595 191.19V225.543C193.281 225.44 192.973 225.342 192.659 225.244C189.895 224.36 187.121 223.527 184.338 222.746C181.667 221.988 178.986 221.276 176.297 220.608C175.343 220.374 174.393 220.145 173.439 219.921C173.401 219.752 173.364 219.584 173.331 219.415C173.158 218.611 173.022 217.797 172.919 216.978C172.873 216.665 172.84 216.351 172.807 216.033C172.315 211.022 173.001 205.965 174.81 201.266C176.62 196.566 179.503 192.355 183.229 188.968C183.365 188.837 183.505 188.711 183.645 188.589C186.667 189.31 189.672 190.089 192.659 190.928C192.973 191.008 193.286 191.097 193.595 191.19Z" fill="#3354CC"/>
<path d="M162.529 205.256L149.52 203.721C149.063 203.667 148.599 203.704 148.155 203.829C147.712 203.954 147.297 204.166 146.936 204.451C146.574 204.737 146.272 205.09 146.047 205.493C145.822 205.895 145.678 206.337 145.624 206.795C145.57 207.252 145.606 207.716 145.732 208.16C145.857 208.603 146.068 209.018 146.353 209.38C146.639 209.741 146.993 210.043 147.395 210.268C147.797 210.494 148.239 210.637 148.697 210.691L161.706 212.226C162.629 212.332 163.556 212.069 164.285 211.492C165.014 210.916 165.485 210.074 165.594 209.151C165.703 208.229 165.441 207.3 164.867 206.57C164.292 205.84 163.451 205.367 162.529 205.256ZM164.671 209.045C164.59 209.722 164.243 210.339 163.707 210.761C163.172 211.182 162.49 211.374 161.813 211.295L148.804 209.76C148.129 209.678 147.514 209.332 147.093 208.796C146.673 208.261 146.481 207.582 146.561 206.906C146.641 206.23 146.985 205.613 147.519 205.191C148.053 204.769 148.732 204.575 149.408 204.652L162.417 206.187C163.094 206.269 163.711 206.615 164.133 207.151C164.556 207.686 164.749 208.367 164.671 209.045Z" fill="#3354CC"/>
<path d="M193.595 199.236V215.529C193.294 215.709 192.982 215.868 192.659 216.006C190.98 216.755 189.119 216.998 187.304 216.704C185.489 216.41 183.799 215.591 182.443 214.35C182.312 214.233 182.181 214.107 182.055 213.976C181.929 213.849 181.807 213.714 181.69 213.578C180.278 211.956 179.462 209.901 179.377 207.752C179.291 205.603 179.942 203.49 181.221 201.761C182.5 200.032 184.331 198.792 186.411 198.245C188.491 197.699 190.695 197.878 192.659 198.754C192.979 198.898 193.292 199.059 193.595 199.236Z" fill="white"/>
<path d="M192.659 211.029C188.978 211.796 185.322 212.646 181.69 213.578C180.334 213.924 178.982 214.283 177.635 214.654C176.026 215.098 174.416 215.558 172.807 216.034C170.754 216.642 168.703 217.278 166.656 217.942C166.062 218.139 165.463 218.335 164.864 218.532C159.172 220.431 153.516 222.536 147.955 224.833C146.185 225.275 144.661 226.399 143.716 227.959C142.771 229.519 142.48 231.39 142.907 233.163L147.599 252.473C148.033 254.251 149.155 255.785 150.719 256.737C152.282 257.69 154.16 257.983 155.939 257.553L156.005 257.53C165.151 253.778 174.512 250.573 184.038 247.931C186.882 247.14 189.756 246.395 192.659 245.695C192.973 245.62 193.281 245.545 193.595 245.475V210.837C193.281 210.893 192.973 210.958 192.659 211.029Z" fill="white"/>
<path d="M192.659 211.029C188.978 211.796 185.322 212.646 181.69 213.578C180.334 213.924 178.982 214.283 177.635 214.654C176.026 215.098 174.416 215.558 172.807 216.034C170.754 216.642 168.703 217.278 166.656 217.942C166.062 218.139 165.463 218.335 164.864 218.532C159.172 220.431 153.516 222.536 147.955 224.833C146.185 225.275 144.661 226.399 143.716 227.959C142.771 229.519 142.48 231.39 142.907 233.163L147.599 252.473C148.033 254.251 149.155 255.785 150.719 256.737C152.282 257.69 154.16 257.983 155.939 257.553L156.005 257.53C165.151 253.778 174.512 250.573 184.038 247.931C186.882 247.14 189.756 246.395 192.659 245.695C192.973 245.62 193.281 245.545 193.595 245.475V244.512C193.281 244.586 192.973 244.661 192.659 244.736C192.425 244.792 192.187 244.848 191.953 244.905C189.203 245.573 186.482 246.281 183.79 247.028C183.72 247.047 183.646 247.07 183.575 247.089C174.097 249.725 164.783 252.919 155.682 256.655C154.147 257.015 152.533 256.754 151.189 255.93C149.845 255.106 148.881 253.784 148.507 252.253L143.82 232.944C143.448 231.406 143.701 229.784 144.523 228.432C145.346 227.081 146.671 226.111 148.207 225.735L148.277 225.712C154.335 223.205 160.5 220.931 166.712 218.911C167.311 218.714 167.91 218.522 168.508 218.331C169.977 217.867 171.448 217.417 172.919 216.979C174.472 216.516 176.024 216.07 177.574 215.641C177.677 215.613 177.78 215.585 177.882 215.557C179.398 215.14 180.918 214.738 182.443 214.35C185.825 213.489 189.23 212.699 192.659 211.978C192.968 211.913 193.281 211.847 193.595 211.786V210.837C193.281 210.893 192.973 210.958 192.659 211.029Z" fill="#3354CC"/>
<path d="M193.595 211.309V244.993C193.286 245.063 192.973 245.133 192.659 245.208C189.731 245.919 186.815 246.677 183.912 247.482C183.795 247.351 183.683 247.22 183.575 247.089C180.544 243.541 178.317 239.379 177.047 234.888C175.777 230.398 175.494 225.686 176.217 221.076C176.241 220.922 176.269 220.763 176.297 220.608C176.32 220.459 176.348 220.304 176.376 220.155C176.665 218.623 177.065 217.114 177.573 215.641C177.634 215.463 177.695 215.285 177.761 215.107C179.187 214.714 180.619 214.337 182.055 213.975C185.568 213.068 189.103 212.243 192.659 211.501C192.968 211.431 193.281 211.37 193.595 211.309Z" fill="#3354CC"/>
<path d="M171.858 241.822C171.507 240.96 170.829 240.273 169.972 239.911C169.116 239.549 168.15 239.541 167.288 239.89L155.149 244.811C154.288 245.162 153.602 245.84 153.241 246.696C152.879 247.553 152.873 248.518 153.222 249.379C153.572 250.24 154.249 250.928 155.105 251.29C155.961 251.653 156.926 251.661 157.787 251.313L169.926 246.392C170.787 246.04 171.473 245.362 171.835 244.506C172.197 243.649 172.206 242.684 171.858 241.822ZM169.575 245.522L157.437 250.448C156.804 250.703 156.096 250.697 155.468 250.431C154.84 250.165 154.343 249.661 154.086 249.029C153.829 248.397 153.834 247.689 154.099 247.06C154.364 246.431 154.868 245.934 155.5 245.676L167.639 240.755C168.271 240.499 168.979 240.503 169.607 240.769C170.236 241.034 170.733 241.538 170.99 242.17C171.247 242.802 171.242 243.511 170.977 244.139C170.712 244.768 170.207 245.265 169.575 245.522Z" fill="#3354CC"/>
<path d="M193.595 219.911V238.252C193.287 238.331 192.975 238.393 192.66 238.439C190.782 238.703 188.868 238.395 187.167 237.556C185.467 236.717 184.058 235.386 183.123 233.736C182.189 232.086 181.773 230.193 181.928 228.303C182.084 226.413 182.805 224.613 183.997 223.139C184.105 223.003 184.217 222.872 184.338 222.746C184.451 222.615 184.572 222.488 184.699 222.367C185.733 221.344 186.989 220.573 188.37 220.116C189.751 219.658 191.219 219.526 192.66 219.729C192.975 219.771 193.287 219.832 193.595 219.911Z" fill="white"/>
<path d="M192.658 188V234.688C192.972 234.585 193.285 234.487 193.594 234.393V188.426C193.28 188.281 192.972 188.14 192.658 188ZM192.658 188V234.688C192.972 234.585 193.285 234.487 193.594 234.393V188.426C193.28 188.281 192.972 188.14 192.658 188ZM192.658 188V234.688C192.972 234.585 193.285 234.487 193.594 234.393V188.426C193.28 188.281 192.972 188.14 192.658 188ZM192.658 191.41V245.208C192.972 245.133 193.285 245.063 193.594 244.993V191.677C193.28 191.583 192.967 191.494 192.658 191.41ZM192.658 191.41V245.208C192.972 245.133 193.285 245.063 193.594 244.993V191.677C193.28 191.583 192.967 191.494 192.658 191.41ZM192.658 191.41V245.208C192.972 245.133 193.285 245.063 193.594 244.993V191.677C193.28 191.583 192.967 191.494 192.658 191.41ZM192.658 191.41V245.208C192.972 245.133 193.285 245.063 193.594 244.993V191.677C193.28 191.583 192.967 191.494 192.658 191.41ZM192.658 191.41V245.695C192.972 245.62 193.28 245.545 193.594 245.475V191.677C193.28 191.583 192.967 191.494 192.658 191.41ZM396.722 147.178H202.369C199.795 147.182 197.327 148.206 195.507 150.027C193.687 151.847 192.663 154.314 192.658 156.889V301.191C192.663 303.764 193.687 306.231 195.508 308.051C197.328 309.87 199.795 310.894 202.369 310.897H396.722C399.296 310.894 401.763 309.87 403.582 308.05C405.402 306.231 406.425 303.764 406.429 301.191V156.889C406.426 154.315 405.403 151.847 403.584 150.026C401.764 148.205 399.296 147.181 396.722 147.178ZM405.493 301.191C405.491 303.516 404.566 305.745 402.921 307.39C401.277 309.034 399.048 309.959 396.722 309.961H202.369C200.043 309.959 197.813 309.035 196.168 307.39C194.523 305.746 193.597 303.517 193.594 301.191V156.889C193.597 154.562 194.523 152.332 196.168 150.687C197.813 149.042 200.043 148.117 202.369 148.113H396.722C399.048 148.116 401.278 149.042 402.923 150.687C404.567 152.332 405.492 154.563 405.493 156.889V301.191ZM192.658 191.41V244.736C192.972 244.661 193.28 244.586 193.594 244.511V191.677C193.28 191.583 192.967 191.494 192.658 191.41ZM192.658 191.41V245.208C192.972 245.133 193.285 245.063 193.594 244.993V191.677C193.28 191.583 192.967 191.494 192.658 191.41ZM192.658 191.41V245.208C192.972 245.133 193.285 245.063 193.594 244.993V191.677C193.28 191.583 192.967 191.494 192.658 191.41ZM192.658 191.41V245.208C192.972 245.133 193.285 245.063 193.594 244.993V191.677C193.28 191.583 192.967 191.494 192.658 191.41ZM192.658 188V234.688C192.972 234.585 193.285 234.487 193.594 234.393V188.426C193.28 188.281 192.972 188.14 192.658 188ZM192.658 188V234.688C192.972 234.585 193.285 234.487 193.594 234.393V188.426C193.28 188.281 192.972 188.14 192.658 188Z" fill="#2F2E41"/>
<path d="M150.992 237.399C150.809 236.972 150.534 236.589 150.187 236.28C149.84 235.97 149.429 235.74 148.984 235.606C148.538 235.472 148.068 235.437 147.608 235.504C147.148 235.571 146.708 235.739 146.319 235.994L137.351 229.104L136.928 234.965L145.508 240.61C145.981 241.235 146.666 241.664 147.435 241.817C148.203 241.97 149 241.836 149.676 241.44C150.352 241.045 150.86 240.415 151.102 239.67C151.345 238.925 151.305 238.117 150.992 237.399Z" fill="#FFB6B6"/>
<path d="M114.856 195.816L111.905 194.421C111.905 194.421 107.152 195.759 109.461 202.045L123.438 228.082L140.501 238.073L145.821 233.359L128.745 219.848L114.856 195.816Z" fill="#5469FF"/>
<path d="M427.132 329.01C426.096 329.006 425.064 328.873 424.061 328.613L423.862 328.558L423.679 328.466C417.047 325.141 411.451 320.749 407.048 315.411C403.404 310.967 400.562 305.922 398.651 300.501C396.367 294.011 395.267 287.164 395.406 280.285C395.409 280.141 395.411 280.029 395.411 279.952C395.411 276.608 397.268 273.674 400.14 272.477C402.339 271.561 422.299 263.363 423.742 262.77C426.458 261.409 429.355 262.545 429.819 262.744C430.859 263.169 449.312 270.716 453.299 272.615C457.409 274.572 458.505 278.088 458.505 279.856C458.505 287.864 457.118 295.348 454.383 302.1C452.174 307.565 449.044 312.611 445.127 317.017C437.572 325.52 430.013 328.534 429.941 328.561C429.037 328.871 428.087 329.023 427.132 329.009L427.132 329.01ZM425.355 324.607C426.01 324.754 427.519 324.974 428.502 324.616C429.751 324.16 436.077 320.88 441.988 314.228C450.156 305.035 454.299 293.482 454.306 279.886C454.292 279.61 454.096 277.646 451.494 276.407C447.584 274.545 428.404 266.702 428.211 266.623L428.158 266.601C427.756 266.432 426.477 266.078 425.595 266.54L425.418 266.622C425.205 266.71 404.016 275.412 401.756 276.354C400.175 277.013 399.612 278.644 399.612 279.952C399.612 280.047 399.61 280.186 399.606 280.366C399.425 289.669 401.578 312.561 425.355 324.607V324.607Z" fill="#3F3D56"/>
<path d="M424.567 264.622C424.567 264.622 403.186 273.403 400.895 274.358C398.604 275.313 397.459 277.603 397.459 279.894C397.459 282.185 395.741 312.078 424.567 326.531C424.567 326.531 427.184 327.255 429.169 326.531C431.153 325.807 456.353 313.588 456.353 279.799C456.353 279.799 456.353 276.362 452.344 274.453C448.335 272.544 428.952 264.622 428.952 264.622C428.952 264.622 426.572 263.571 424.567 264.622Z" fill="#3354CC"/>
<path opacity="0.1" d="M426.912 271.551V318.397C426.912 318.397 405.34 308.013 405.531 280.714L426.912 271.551Z" fill="black"/>
<path d="M424.129 306.814C423.461 306.815 422.811 306.599 422.277 306.199L422.243 306.174L415.268 300.834C414.934 300.59 414.653 300.282 414.44 299.928C414.227 299.574 414.087 299.181 414.028 298.773C413.969 298.364 413.992 297.947 414.097 297.547C414.201 297.148 414.384 296.773 414.635 296.445C414.886 296.117 415.201 295.843 415.559 295.638C415.918 295.433 416.314 295.302 416.724 295.253C417.135 295.203 417.55 295.236 417.948 295.35C418.345 295.463 418.715 295.655 419.037 295.914L423.555 299.378L434.232 285.454C434.733 284.802 435.471 284.375 436.286 284.268C437.101 284.16 437.925 284.381 438.577 284.881L438.511 284.971L438.579 284.882C439.23 285.383 439.656 286.121 439.764 286.936C439.871 287.75 439.652 288.574 439.152 289.227L426.594 305.605C426.303 305.982 425.93 306.288 425.502 306.498C425.075 306.707 424.605 306.816 424.129 306.814L424.129 306.814Z" fill="white"/>
<path d="M418.119 88C418.119 91.0769 422.708 98 425.002 98C422.865 98 419.071 102.003 418.56 106.902C418.582 107.283 418.565 107.651 418.502 108C418.502 107.63 418.522 107.264 418.56 106.902C418.331 103.087 414.088 98 412.002 98C413.531 98 418.119 94.4615 418.119 88Z" fill="#175EC9"/>
<path d="M146.766 362C146.766 364 149.59 368.5 151.002 368.5C149.687 368.5 147.352 371.102 147.037 374.286C147.051 374.534 147.041 374.773 147.002 375C147.002 374.759 147.014 374.521 147.037 374.286C146.897 371.807 144.286 368.5 143.002 368.5C143.943 368.5 146.766 366.2 146.766 362Z" fill="#175EC9"/>
<path d="M413.884 368C413.884 369.077 415.296 371.5 416.002 371.5C415.345 371.5 414.177 372.901 414.02 374.616C414.027 374.749 414.021 374.878 414.002 375C414.002 374.87 414.008 374.742 414.02 374.616C413.949 373.281 412.644 371.5 412.002 371.5C412.473 371.5 413.884 370.262 413.884 368Z" fill="#175EC9"/>
<path d="M112.884 140C112.884 141.077 114.296 143.5 115.002 143.5C114.345 143.5 113.177 144.901 113.02 146.616C113.027 146.749 113.021 146.878 113.002 147C113.002 146.87 113.008 146.742 113.02 146.616C112.949 145.281 111.644 143.5 111.002 143.5C111.473 143.5 112.884 142.262 112.884 140Z" fill="#175EC9"/>
</svg>
