<svg width="28" height="28" viewBox="0 0 28 28" fill="none" xmlns="http://www.w3.org/2000/svg">
<path d="M25.5652 6.42975H20.6957C21.8788 6.42815 22.8628 5.462 22.8644 4.27885C22.866 3.09569 21.9082 2.13784 20.725 2.13943C20.7268 0.808977 19.5152 -0.23661 18.1344 0.0467382C17.129 0.25301 16.4348 1.18622 16.4348 2.21263V2.64381C16.111 2.35179 15.6868 2.16888 15.2174 2.16888H12.7826C12.3132 2.16888 11.889 2.35179 11.5652 2.64381V2.21263C11.5652 1.18614 10.871 0.25301 9.86551 0.0466622C8.48468 -0.236686 7.27315 0.808901 7.2749 2.13936C6.09183 2.13776 5.13397 3.09562 5.13549 4.27877C5.13716 5.462 6.1212 6.42815 7.30435 6.42975H2.43478C1.0901 6.42975 0 7.51985 0 8.86453V9.47323C0 10.8179 1.0901 11.908 2.43478 11.908H9.73913V13.1254H1.82609V25.3967C1.82609 26.6876 2.87259 27.7341 4.16348 27.7341H9.73913C10.4115 27.7341 10.9565 27.1891 10.9565 26.5167V7.03844H17.0435V26.5167C17.0435 27.1891 17.5885 27.7341 18.2609 27.7341H23.8365C25.1274 27.7341 26.1739 26.6876 26.1739 25.3967V13.1254H18.2609V11.908H25.5652C26.9099 11.908 28 10.8179 28 9.47323V8.86453C28 7.51985 26.9099 6.42975 25.5652 6.42975ZM12.1739 5.82105V3.99497C12.1739 3.65942 12.4468 3.38627 12.7826 3.38627H15.2174C15.5532 3.38627 15.8261 3.65942 15.8261 3.99497V5.82105H12.1739Z" fill="url(#paint0_linear_6125_2843)"/>
<defs>
<linearGradient id="paint0_linear_6125_2843" x1="0" y1="27.7341" x2="33.195" y2="18.3218" gradientUnits="userSpaceOnUse">
<stop stop-color="#85FFC4"/>
<stop offset="0.458333" stop-color="#5CC6FF"/>
<stop offset="0.807292" stop-color="#BC85FF"/>
</linearGradient>
</defs>
</svg>
