<svg width="397" height="133" viewBox="0 0 397 133" fill="none" xmlns="http://www.w3.org/2000/svg">
<path d="M65.955 128V121.785L64.6 122.605V121.61L65.955 120.8H66.86V128H65.955ZM68.7625 128V120.8H70.9825C71.0558 120.8 71.1842 120.802 71.3675 120.805C71.5508 120.808 71.7258 120.822 71.8925 120.845C72.4492 120.918 72.9142 121.122 73.2875 121.455C73.6642 121.785 73.9475 122.205 74.1375 122.715C74.3275 123.225 74.4225 123.787 74.4225 124.4C74.4225 125.013 74.3275 125.575 74.1375 126.085C73.9475 126.595 73.6642 127.017 73.2875 127.35C72.9142 127.68 72.4492 127.882 71.8925 127.955C71.7258 127.975 71.5492 127.988 71.3625 127.995C71.1792 127.998 71.0525 128 70.9825 128H68.7625ZM69.6775 127.15H70.9825C71.1092 127.15 71.2508 127.147 71.4075 127.14C71.5642 127.13 71.7008 127.115 71.8175 127.095C72.2108 127.022 72.5292 126.857 72.7725 126.6C73.0158 126.343 73.1942 126.023 73.3075 125.64C73.4208 125.257 73.4775 124.843 73.4775 124.4C73.4775 123.947 73.4192 123.528 73.3025 123.145C73.1892 122.762 73.0108 122.443 72.7675 122.19C72.5242 121.937 72.2075 121.775 71.8175 121.705C71.7008 121.682 71.5625 121.667 71.4025 121.66C71.2425 121.653 71.1025 121.65 70.9825 121.65H69.6775V127.15Z" fill="#A6A6A6"/>
<path d="M135.08 128L137.67 121.655H134.4V120.8H138.625V121.655L136.04 128H135.08ZM139.827 128V120.8H142.047C142.12 120.8 142.249 120.802 142.432 120.805C142.615 120.808 142.79 120.822 142.957 120.845C143.514 120.918 143.979 121.122 144.352 121.455C144.729 121.785 145.012 122.205 145.202 122.715C145.392 123.225 145.487 123.787 145.487 124.4C145.487 125.013 145.392 125.575 145.202 126.085C145.012 126.595 144.729 127.017 144.352 127.35C143.979 127.68 143.514 127.882 142.957 127.955C142.79 127.975 142.614 127.988 142.427 127.995C142.244 127.998 142.117 128 142.047 128H139.827ZM140.742 127.15H142.047C142.174 127.15 142.315 127.147 142.472 127.14C142.629 127.13 142.765 127.115 142.882 127.095C143.275 127.022 143.594 126.857 143.837 126.6C144.08 126.343 144.259 126.023 144.372 125.64C144.485 125.257 144.542 124.843 144.542 124.4C144.542 123.947 144.484 123.528 144.367 123.145C144.254 122.762 144.075 122.443 143.832 122.19C143.589 121.937 143.272 121.775 142.882 121.705C142.765 121.682 142.627 121.667 142.467 121.66C142.307 121.653 142.167 121.65 142.047 121.65H140.742V127.15Z" fill="#A6A6A6"/>
<path d="M198.955 128V121.785L197.6 122.605V121.61L198.955 120.8H199.86V128H198.955ZM201.763 128V120.8H202.573L205.293 126.535L207.998 120.8H208.818V127.995H207.973V122.755L205.528 128H205.053L202.608 122.755V128H201.763Z" fill="#A6A6A6"/>
<path d="M262.675 128.14C262.318 128.14 261.987 128.075 261.68 127.945C261.373 127.812 261.108 127.625 260.885 127.385C260.665 127.142 260.503 126.853 260.4 126.52L261.255 126.275C261.365 126.608 261.548 126.862 261.805 127.035C262.062 127.208 262.35 127.293 262.67 127.29C262.963 127.283 263.217 127.217 263.43 127.09C263.647 126.96 263.813 126.783 263.93 126.56C264.05 126.337 264.11 126.078 264.11 125.785C264.11 125.338 263.977 124.977 263.71 124.7C263.443 124.42 263.093 124.28 262.66 124.28C262.54 124.28 262.413 124.297 262.28 124.33C262.15 124.363 262.028 124.41 261.915 124.47L261.485 123.765L264.155 121.35L264.27 121.65H260.685V120.8H264.93V121.655L262.655 123.835L262.645 123.52C263.122 123.487 263.538 123.565 263.895 123.755C264.252 123.945 264.528 124.217 264.725 124.57C264.925 124.923 265.025 125.328 265.025 125.785C265.025 126.245 264.922 126.652 264.715 127.005C264.508 127.358 264.228 127.637 263.875 127.84C263.522 128.04 263.122 128.14 262.675 128.14ZM266.325 128V120.8H267.135L269.855 126.535L272.56 120.8H273.38V127.995H272.535V122.755L270.09 128H269.615L267.17 122.755V128H266.325Z" fill="#A6A6A6"/>
<path d="M326.955 128V121.785L325.6 122.605V121.61L326.955 120.8H327.86V128H326.955ZM333.489 128V125.005L331.064 120.8H332.099L333.939 123.985L335.774 120.8H336.809L334.389 125.005V128H333.489ZM337.106 128V122.6H337.901V123.905L337.771 123.735C337.835 123.568 337.916 123.415 338.016 123.275C338.12 123.135 338.235 123.02 338.361 122.93C338.501 122.817 338.66 122.73 338.836 122.67C339.013 122.61 339.193 122.575 339.376 122.565C339.56 122.552 339.731 122.563 339.891 122.6V123.435C339.705 123.385 339.5 123.372 339.276 123.395C339.053 123.418 338.846 123.5 338.656 123.64C338.483 123.763 338.348 123.913 338.251 124.09C338.158 124.267 338.093 124.458 338.056 124.665C338.02 124.868 338.001 125.077 338.001 125.29V128H337.106Z" fill="#A6A6A6"/>
<path opacity="0.42" d="M31.5224 69.1159C15.8153 63.583 2 65.8862 2 65.8862V97.9001L177.235 130L333 128.394H397V12.5L384 5.5L373 15.5L357.5 34.5L333 30.5604C315.805 22.3405 307.754 6.0434 297.009 7.04405C266.239 15.0412 257.33 11.1482 241.182 28.4277C232.113 36.4466 229.637 54.1514 209.932 58.1586C195.407 61.1126 185.782 43.2047 173.168 46.2474C157.252 50.0864 148.486 74.7308 137.004 76.6249C124.443 78.6969 112.314 65.8262 103.991 58.1586C92.7066 47.7626 84.3131 42.5759 74.1783 51.0769C63.1007 60.3686 61.3965 79.639 31.5224 69.1159Z" fill="url(#paint0_linear_3535_6444)"/>
<path d="M1 61.2585C1 61.2585 14.7984 59.0017 30.4864 64.4235C60.324 74.7354 62.0262 55.8518 73.0902 46.7465C83.2127 38.4161 91.596 43.4988 102.867 53.6861C111.179 61.1998 123.294 73.8122 135.839 71.7818C147.308 69.9257 156.272 42.9245 172.168 39.1625C184.767 36.1809 194.171 56.5808 208.679 53.6861C227.994 49.8322 237.374 11.1624 252.093 13.2617C252.65 13.3411 253.223 13.4282 253.785 13.415C270.676 13.0199 282.126 1 297.66 1C313.359 1 313.126 18.5869 330.3 26.6418L330.998 27.0454C331.661 27.4292 332.384 27.7013 333.136 27.851L352.066 31.6177C354.765 32.1547 357.528 31.0604 359.128 28.8209L364 22L374.179 9.88183C374.393 9.6276 374.624 9.38888 374.872 9.16749L379.66 4.88296C382.175 2.63275 385.938 2.49722 388.608 4.56066L395 9.5" stroke="#F7931A" stroke-width="1.84723" stroke-linecap="round" stroke-linejoin="round"/>
<defs>
<linearGradient id="paint0_linear_3535_6444" x1="112.193" y1="35.0688" x2="111.125" y2="101.518" gradientUnits="userSpaceOnUse">
<stop stop-color="#F7931A"/>
<stop offset="1" stop-color="white" stop-opacity="0.01"/>
</linearGradient>
</defs>
</svg>
