<svg width="83" height="82" viewBox="0 0 83 82" fill="none" xmlns="http://www.w3.org/2000/svg">
<path d="M31.8896 80.8592C18.0057 80.8592 6.75061 80.0189 6.75061 78.9823C6.75061 77.9458 18.0057 77.1055 31.8896 77.1055C45.7735 77.1055 57.0286 77.9458 57.0286 78.9823C57.0286 80.0189 45.7735 80.8592 31.8896 80.8592Z" fill="#263238" stroke="#263238" stroke-width="0.5" stroke-miterlimit="10" stroke-linecap="round" stroke-linejoin="round"/>
<path d="M49.8024 77.7322C35.9185 77.7322 24.6634 76.8919 24.6634 75.8554C24.6634 74.8188 35.9185 73.9785 49.8024 73.9785C63.6863 73.9785 74.9414 74.8188 74.9414 75.8554C74.9414 76.8919 63.6863 77.7322 49.8024 77.7322Z" fill="#263238" stroke="#263238" stroke-width="0.5" stroke-miterlimit="10" stroke-linecap="round" stroke-linejoin="round"/>
<path d="M3.40235 49.8537H7.26724C8.20689 49.8537 8.96875 49.092 8.96875 48.1521V44.2874C8.96875 43.3478 8.20707 42.5859 7.26724 42.5859H3.40235C2.46271 42.5859 1.70085 43.3476 1.70085 44.2874V48.1523C1.70085 49.0918 2.46271 49.8537 3.40235 49.8537Z" fill="white" stroke="white" stroke-width="0.5" stroke-miterlimit="10"/>
<path d="M3.40235 49.8537H7.26724C8.20689 49.8537 8.96875 49.092 8.96875 48.1521V44.2874C8.96875 43.3478 8.20707 42.5859 7.26724 42.5859H3.40235C2.46271 42.5859 1.70085 43.3476 1.70085 44.2874V48.1523C1.70085 49.0918 2.46271 49.8537 3.40235 49.8537Z" fill="#FF7D7D"/>
<path d="M7.11329 45.516C7.06521 45.0148 6.63233 44.8468 6.08616 44.7989L6.08614 44.1036L5.66313 44.1037L5.66299 44.7807C5.55179 44.7806 5.43828 44.7829 5.32501 44.7852L5.32527 44.1038L4.90219 44.1037L4.90216 44.7988C4.81055 44.8006 4.72043 44.8025 4.63274 44.8023L4.63269 44.8001L4.04898 44.8L4.04904 45.2519C4.04904 45.2519 4.36167 45.246 4.35648 45.2517C4.52788 45.2518 4.58354 45.3513 4.59984 45.4373L4.59998 46.2293C4.61173 46.2293 4.62706 46.2299 4.64474 46.2321L4.59998 46.2322L4.59996 47.3418C4.59233 47.3956 4.56064 47.4816 4.44074 47.4819C4.44633 47.4866 4.13324 47.4819 4.13324 47.4819L4.04915 47.9871L4.60002 47.9871C4.7024 47.9873 4.80323 47.9891 4.90204 47.9897L4.90229 48.6928L5.32507 48.6927L5.32505 47.9973C5.44115 47.9995 5.5535 48.0004 5.6632 48.0004L5.66299 48.6929L6.08601 48.6927L6.0861 47.991C6.79769 47.9502 7.29555 47.7709 7.35739 47.1028C7.40739 46.5649 7.15432 46.3247 6.75044 46.2278C6.99596 46.1029 7.14919 45.8828 7.11329 45.516ZM6.52109 47.0195C6.52162 47.545 5.62164 47.4851 5.33477 47.4854L5.33507 46.5538C5.62205 46.554 6.52132 46.4715 6.52109 47.0195ZM6.32435 45.7051C6.32434 46.1832 5.57392 46.1272 5.33522 46.1272L5.33518 45.2826C5.57388 45.2826 6.32438 45.2064 6.32435 45.7051Z" fill="white"/>
<path d="M3.40252 42.5859H7.26741C7.94337 42.5859 8.52539 42.981 8.79993 43.5522C8.53287 43.3777 8.21436 43.2756 7.87151 43.2756H3.59173C2.88114 43.2756 2.30531 43.8516 2.30531 44.562V48.8418C2.30531 49.1055 2.36706 49.3542 2.4741 49.5771C2.00905 49.2733 1.70102 48.7491 1.70102 48.1523V44.2874C1.70102 43.3476 2.46288 42.5859 3.40252 42.5859Z" fill="white"/>
<path d="M3.40235 49.8537H7.26724C8.20689 49.8537 8.96875 49.092 8.96875 48.1521V44.2874C8.96875 43.3478 8.20707 42.5859 7.26724 42.5859H3.40235C2.46271 42.5859 1.70085 43.3476 1.70085 44.2874V48.1523C1.70085 49.0918 2.46271 49.8537 3.40235 49.8537Z" stroke="#263238" stroke-width="0.5" stroke-miterlimit="10" stroke-linecap="round" stroke-linejoin="round"/>
<path d="M6.78279 33.9668C6.89226 35.2512 7.36218 35.6146 7.36218 35.6146" stroke="#263238" stroke-width="0.5" stroke-miterlimit="10" stroke-linecap="round" stroke-linejoin="round"/>
<path d="M8.12265 34.7422C8.51079 35.9713 9.7959 37.418 9.7959 37.418" stroke="#263238" stroke-width="0.5" stroke-miterlimit="10" stroke-linecap="round" stroke-linejoin="round"/>
<path d="M35.6871 75.8548H65.7158C67.7789 75.8548 69.4512 74.1825 69.4512 72.1194V12.7764C69.4512 10.7133 67.7789 9.04102 65.7158 9.04102H35.6869C33.6239 9.04102 31.9516 10.7133 31.9516 12.7764V72.1194C31.9517 74.1825 33.6241 75.8548 35.6871 75.8548Z" fill="#FECEA0"/>
<path d="M35.6871 75.8548H65.7158C67.7789 75.8548 69.4512 74.1825 69.4512 72.1194V12.7764C69.4512 10.7133 67.7789 9.04102 65.7158 9.04102H35.6869C33.6239 9.04102 31.9516 10.7133 31.9516 12.7764V72.1194C31.9517 74.1825 33.6241 75.8548 35.6871 75.8548Z" fill="#FECEA0" stroke="#263238" stroke-width="0.5" stroke-miterlimit="10" stroke-linecap="round" stroke-linejoin="round"/>
<path d="M35.2981 11.0977H44.4109L44.6501 11.9928C44.8638 12.7924 45.588 13.3488 46.4159 13.3488H54.9879C55.8156 13.3488 56.54 12.7924 56.7537 11.9928L56.9929 11.0977H66.1057C67.1221 11.0977 67.946 11.9216 67.946 12.938V72.1017C67.946 73.1181 67.1221 73.9421 66.1057 73.9421H35.2983C34.2819 73.9421 33.4579 73.1181 33.4579 72.1017V12.938C33.4578 11.9216 34.2817 11.0977 35.2981 11.0977Z" fill="white" stroke="#263238" stroke-width="0.5" stroke-miterlimit="10" stroke-linecap="round" stroke-linejoin="round"/>
<path d="M67.946 67.7578V72.1033C67.946 73.1197 67.1221 73.9436 66.1057 73.9436H35.2983C34.2819 73.9436 33.4579 73.1197 33.4579 72.1033V67.7578H67.946Z" fill="white" stroke="#263238" stroke-width="0.5" stroke-miterlimit="10" stroke-linecap="round" stroke-linejoin="round"/>
<path d="M33.4574 21.9003V12.938C33.4574 11.9216 34.2814 11.0977 35.2978 11.0977H44.4105L44.6497 11.9928C44.8632 12.7924 45.5878 13.3488 46.4154 13.3488H54.9873C55.815 13.3488 56.5395 12.7924 56.753 11.9928L56.9922 11.0977H66.1049C67.1213 11.0977 67.9453 11.9216 67.9453 12.938V21.9003H33.4574Z" fill="white" stroke="#263238" stroke-width="0.5" stroke-miterlimit="10" stroke-linecap="round" stroke-linejoin="round"/>
<path d="M40.7637 16.5C39.9051 16.5 39.0463 16.5 38.1876 16.5" stroke="#263238" stroke-width="0.5" stroke-miterlimit="10" stroke-linecap="round" stroke-linejoin="round"/>
<path d="M48.791 16.5C47.0566 16.5 45.3221 16.5 43.5879 16.5" stroke="#263238" stroke-width="0.5" stroke-miterlimit="10" stroke-linecap="round" stroke-linejoin="round"/>
<path d="M13.4526 63.5635H19.9311C21.5063 63.5635 22.7832 62.2866 22.7832 60.7115V54.2329C22.7832 52.6577 21.5063 51.3809 19.9311 51.3809H13.4526C11.8774 51.3809 10.6005 52.6577 10.6005 54.2329V60.7115C10.6005 62.2865 11.8774 63.5635 13.4526 63.5635Z" fill="white" stroke="white" stroke-width="0.5" stroke-miterlimit="10"/>
<path d="M13.4526 63.5635H19.9311C21.5063 63.5635 22.7832 62.2866 22.7832 60.7115V54.2329C22.7832 52.6577 21.5063 51.3809 19.9311 51.3809H13.4526C11.8774 51.3809 10.6005 52.6577 10.6005 54.2329V60.7115C10.6005 62.2865 11.8774 63.5635 13.4526 63.5635Z" fill="#FECEA0"/>
<path d="M13.4526 51.3809H19.9311C20.9022 51.3809 21.7585 51.8671 22.2736 52.6083C22.1877 52.5969 22.1006 52.5891 22.0117 52.5891H13.7909C12.6969 52.5891 11.81 53.4759 11.81 54.57V62.7908C11.81 62.8806 11.818 62.9686 11.8297 63.0552C11.0874 62.5402 10.6005 61.6833 10.6005 60.7115V54.2329C10.6005 52.6579 11.8774 51.3809 13.4526 51.3809Z" fill="white"/>
<path d="M13.4526 63.5635H19.9311C21.5063 63.5635 22.7832 62.2866 22.7832 60.7115V54.2329C22.7832 52.6577 21.5063 51.3809 19.9311 51.3809H13.4526C11.8774 51.3809 10.6005 52.6577 10.6005 54.2329V60.7115C10.6005 62.2865 11.8774 63.5635 13.4526 63.5635Z" stroke="#263238" stroke-width="0.5" stroke-miterlimit="10" stroke-linecap="round" stroke-linejoin="round"/>
<path d="M67.0545 46.6416H72.4216C73.6639 46.6416 74.6709 45.6346 74.6709 44.3923V39.5344C74.6709 38.2922 73.6639 37.2852 72.4216 37.2852H67.0545C65.8123 37.2852 64.8053 38.2922 64.8053 39.5344V44.3925C64.8053 45.6346 65.8123 46.6416 67.0545 46.6416Z" fill="white" stroke="white" stroke-width="0.5" stroke-miterlimit="10"/>
<path d="M67.0545 46.6416H72.4216C73.6639 46.6416 74.6709 45.6346 74.6709 44.3923V39.5344C74.6709 38.2922 73.6639 37.2852 72.4216 37.2852H67.0545C65.8123 37.2852 64.8053 38.2922 64.8053 39.5344V44.3925C64.8053 45.6346 65.8123 46.6416 67.0545 46.6416Z" fill="#FECEA0"/>
<path d="M67.0545 46.6416H72.4216C73.6639 46.6416 74.6709 45.6346 74.6709 44.3923V39.5344C74.6709 38.2922 73.6639 37.2852 72.4216 37.2852H67.0545C65.8123 37.2852 64.8053 38.2922 64.8053 39.5344V44.3925C64.8053 45.6346 65.8123 46.6416 67.0545 46.6416Z" fill="#FECEA0"/>
<path d="M70.3668 42.7365C70.3396 42.7394 70.214 42.745 69.9274 42.745C69.6996 42.745 69.5363 42.7365 69.4816 42.7337C68.6009 42.6915 67.9439 42.5255 67.9439 42.326C67.9439 42.1262 68.6009 41.9602 69.4816 41.9182V42.5677C69.5382 42.5734 69.7032 42.5816 69.931 42.5816C70.2064 42.5816 70.3424 42.5705 70.3675 42.5677V41.9208C71.2447 41.963 71.9034 42.1291 71.9034 42.3286C71.9022 42.5283 71.244 42.6943 70.3668 42.7365ZM70.3668 41.8536V41.2714H71.5926V40.3828H68.2536V41.2714H69.4809V41.8536C68.4828 41.9041 67.7334 42.118 67.7334 42.3739C67.7334 42.63 68.4828 42.8465 69.4809 42.8941V44.7587H70.3664V42.8913C71.3606 42.8405 72.1093 42.6269 72.1093 42.371C72.1086 42.1149 71.3606 41.9041 70.3668 41.8536Z" fill="black"/>
<path d="M67.0529 37.2852H72.4199C73.4066 37.2852 74.2427 37.9213 74.5459 38.8051C74.1922 38.5735 73.7702 38.4378 73.3158 38.4378H67.2544C66.3956 38.4378 65.6994 39.1339 65.6994 39.9927V45.5451C65.6994 45.8007 65.7442 46.0453 65.8228 46.2744C65.2095 45.8726 64.8036 45.1805 64.8036 44.3925V39.5344C64.8036 38.2922 65.8106 37.2852 67.0529 37.2852Z" fill="white"/>
<path d="M67.0545 46.6416H72.4216C73.6639 46.6416 74.6709 45.6346 74.6709 44.3923V39.5344C74.6709 38.2922 73.6639 37.2852 72.4216 37.2852H67.0545C65.8123 37.2852 64.8053 38.2922 64.8053 39.5344V44.3925C64.8053 45.6346 65.8123 46.6416 67.0545 46.6416Z" stroke="#263238" stroke-width="0.5" stroke-miterlimit="10" stroke-linecap="round" stroke-linejoin="round"/>
<path d="M65.2869 68.7948H76.2973C77.07 68.7948 77.6964 68.1684 77.6964 67.3957V61.3092C77.6964 60.5365 77.07 59.9102 76.2973 59.9102H65.2869C64.5142 59.9102 63.8878 60.5365 63.8878 61.3092V67.3955C63.8878 68.1682 64.5142 68.7948 65.2869 68.7948Z" fill="white"/>
<path d="M65.2869 68.7948H76.2973C77.07 68.7948 77.6964 68.1684 77.6964 67.3957V61.3092C77.6964 60.5365 77.07 59.9102 76.2973 59.9102H65.2869C64.5142 59.9102 63.8878 60.5365 63.8878 61.3092V67.3955C63.8878 68.1682 64.5142 68.7948 65.2869 68.7948Z" stroke="#263238" stroke-width="0.5" stroke-miterlimit="10" stroke-linecap="round" stroke-linejoin="round"/>
<path d="M63.8878 61.3092C63.8878 60.5365 64.5142 59.9102 65.2869 59.9102H76.2973C77.07 59.9102 77.6964 60.5365 77.6964 61.3092L72.0688 64.4916C71.1005 65.0392 69.9111 65.0171 68.9637 64.434L63.8878 61.3092Z" fill="#FF7D7D"/>
<path d="M77.1876 60.806H66.1772C65.6884 60.806 65.2585 61.0572 65.0083 61.4372L63.8878 61.3092C63.8878 60.5365 64.5142 59.9102 65.2869 59.9102H76.2973C77.07 59.9102 77.6964 59.9747 77.6964 60.7474L77.5197 60.8474C77.4131 60.8214 77.3023 60.806 77.1876 60.806Z" fill="white"/>
<path d="M63.8878 61.3092C63.8878 60.5365 64.5142 59.9102 65.2869 59.9102H76.2973C77.07 59.9102 77.6964 60.5365 77.6964 61.3092L72.0688 64.4916C71.1005 65.0392 69.9111 65.0171 68.9637 64.434L63.8878 61.3092Z" stroke="#263238" stroke-width="0.5" stroke-miterlimit="10" stroke-linecap="round" stroke-linejoin="round"/>
<path d="M72.3154 64.3516L77.3585 68.3053" stroke="#263238" stroke-width="0.5" stroke-miterlimit="10" stroke-linecap="round" stroke-linejoin="round"/>
<path d="M68.9648 64.4355L64.2928 68.3077" stroke="#263238" stroke-width="0.5" stroke-miterlimit="10" stroke-linecap="round" stroke-linejoin="round"/>
<path d="M82.4873 63.2578H78.4327" stroke="#263238" stroke-width="0.5" stroke-miterlimit="10" stroke-linecap="round" stroke-linejoin="round"/>
<path d="M80.5547 64.8887H78.6204" stroke="#263238" stroke-width="0.5" stroke-miterlimit="10" stroke-linecap="round" stroke-linejoin="round"/>
<path d="M68.5441 10.5137H78.5758C79.2798 10.5137 79.8506 11.0845 79.8506 11.7885V17.3339C79.8506 18.038 79.2798 18.6087 78.5758 18.6087H77.5611L73.5598 20.8335L74.9667 18.6087H68.5439C67.8399 18.6087 67.2691 18.038 67.2691 17.3339V11.7885C67.2693 11.0845 67.8401 10.5137 68.5441 10.5137Z" fill="#FF7D7D"/>
<path d="M68.543 10.5156H78.5746C79.1892 10.5156 79.7022 10.9507 79.8225 11.5296C79.7059 11.4944 79.5822 11.4749 79.4542 11.4749H69.4224C68.7184 11.4749 68.1476 12.0457 68.1476 12.7497V18.2952C68.1476 18.3846 68.1569 18.4717 68.1745 18.5559C67.6501 18.3977 67.2682 17.9115 67.2682 17.3357V11.7904C67.2682 11.0864 67.839 10.5156 68.543 10.5156Z" fill="white"/>
<path d="M68.5441 10.5137H78.5758C79.2798 10.5137 79.8506 11.0845 79.8506 11.7885V17.3339C79.8506 18.038 79.2798 18.6087 78.5758 18.6087H77.5611L73.5598 20.8335L74.9667 18.6087H68.5439C67.8399 18.6087 67.2691 18.038 67.2691 17.3339V11.7885C67.2693 11.0845 67.8401 10.5137 68.5441 10.5137Z" stroke="#263238" stroke-width="0.5" stroke-miterlimit="10" stroke-linecap="round" stroke-linejoin="round"/>
<path d="M70.3609 5.13281H60.3291C59.6251 5.13281 59.0543 5.7036 59.0543 6.40763V11.9531C59.0543 12.6571 59.6251 13.2279 60.3291 13.2279H61.3438L65.3451 15.4526L63.9382 13.2279H70.3609C71.065 13.2279 71.6357 12.6571 71.6357 11.9531V6.40763C71.6357 5.7036 71.065 5.13281 70.3609 5.13281Z" fill="white" stroke="#263238" stroke-width="0.5" stroke-miterlimit="10" stroke-linecap="round" stroke-linejoin="round"/>
<path d="M62.3489 10.0352C61.9389 10.0352 61.6066 9.7029 61.6066 9.29299C61.6066 8.88308 61.9389 8.55078 62.3489 8.55078C62.7588 8.55078 63.0911 8.88308 63.0911 9.29299C63.0911 9.7029 62.7588 10.0352 62.3489 10.0352Z" fill="#263238"/>
<path d="M65.2988 10.0352C64.8889 10.0352 64.5566 9.7029 64.5566 9.29299C64.5566 8.88308 64.8889 8.55078 65.2988 8.55078C65.7087 8.55078 66.041 8.88308 66.041 9.29299C66.041 9.7029 65.7087 10.0352 65.2988 10.0352Z" fill="#263238"/>
<path d="M67.5048 9.29299C67.5048 9.70284 67.8372 10.0352 68.247 10.0352C68.6569 10.0352 68.9893 9.70284 68.9893 9.29299C68.9893 8.88315 68.6569 8.55078 68.247 8.55078C67.8372 8.55078 67.5048 8.88296 67.5048 9.29299Z" fill="#263238"/>
<path d="M69.867 14.6485C69.867 15.0583 70.1994 15.3907 70.6092 15.3907C71.0191 15.3907 71.3514 15.0583 71.3514 14.6485C71.3514 14.2386 71.0191 13.9062 70.6092 13.9062C70.1994 13.9062 69.867 14.2386 69.867 14.6485Z" fill="#263238"/>
<path d="M72.8151 14.6485C72.8151 15.0583 73.1475 15.3907 73.5574 15.3907C73.9672 15.3907 74.2996 15.0583 74.2996 14.6485C74.2996 14.2386 73.9672 13.9062 73.5574 13.9062C73.1475 13.9062 72.8151 14.2386 72.8151 14.6485Z" fill="#263238"/>
<path d="M75.7664 14.6485C75.7664 15.0583 76.0988 15.3907 76.5086 15.3907C76.9185 15.3907 77.2509 15.0583 77.2509 14.6485C77.2509 14.2386 76.9185 13.9062 76.5086 13.9062C76.0988 13.9062 75.7664 14.2386 75.7664 14.6485Z" fill="#263238"/>
<path d="M18.3114 31.344L20.0059 30.9844L20.7117 34.3101L19.0172 34.6697L18.3114 31.344Z" fill="white" stroke="#263238" stroke-width="0.5" stroke-miterlimit="10" stroke-linecap="round" stroke-linejoin="round"/>
<path d="M15.2752 23.7786C15.8198 23.6349 16.9118 23.3708 17.8572 23.2937C19.1762 23.1859 21.3246 22.506 21.5114 21.2162C21.5713 20.8028 21.8722 20.542 22.2326 20.2848C22.5184 20.0808 22.8414 19.8791 23.1115 19.6053C23.563 19.1474 23.8013 18.2012 23.8013 18.2012L26.5115 20.7759C27.7769 21.9781 29.52 22.5523 31.2483 22.3084C33.5215 21.9875 36.9417 21.9302 39.9068 23.6265C44.8697 26.4654 43.0943 28.7879 47.279 29.4685C51.4637 30.1492 50.8192 30.6427 52.955 31.5967C55.0909 32.551 54.3625 32.2934 54.3625 32.2934C54.3625 32.2934 52.1254 32.169 51.3411 35.8975C51.2827 36.1748 51.2397 36.4503 51.2062 36.7241C50.7887 40.131 52.0433 43.2337 48.8682 45.2872C45.4381 47.5058 44.5298 46.4647 42.0328 48.5671C39.5357 50.6696 36.4555 54.1033 35.4019 54.5347H35.4017C34.8843 54.7462 32.5147 52.6923 32.2439 50.5276C31.9632 48.2847 32.2458 45.8847 29.4766 43.5353C24.0345 38.9183 22.7742 34.8148 22.1267 32.0621C22.0174 31.5976 18.3423 28.2424 17.6635 27.3663C16.9846 26.4899 15.06 23.8353 15.2752 23.7786Z" fill="white"/>
<path d="M22.3578 20.4553C22.1065 20.7101 21.8101 20.9023 21.5395 21.0925C21.6362 20.7491 21.91 20.5148 22.2328 20.2844C22.3846 20.176 22.5467 20.0675 22.7059 19.9492C22.6094 20.136 22.4935 20.3177 22.3578 20.4553Z" fill="white"/>
<path d="M14.2708 24.527C14.8154 24.3833 16.9118 23.3708 17.8572 23.2937C19.1762 23.1859 21.3246 22.506 21.5114 21.2162C21.5713 20.8028 21.8722 20.542 22.2326 20.2848C22.5184 20.0808 22.8414 19.8791 23.1115 19.6053C23.563 19.1474 23.8013 18.2012 23.8013 18.2012L26.5115 20.7759C27.7769 21.9781 29.52 22.5523 31.2483 22.3084C33.5215 21.9875 36.9417 21.9302 39.9068 23.6265C44.8697 26.4654 43.0943 28.7879 47.279 29.4685C51.4637 30.1492 50.8192 30.6427 52.955 31.5967C55.0909 32.551 54.3625 32.2934 54.3625 32.2934C54.3625 32.2934 52.1254 32.169 51.3411 35.8975C51.2827 36.1748 51.2397 36.4503 51.2062 36.7241C50.7887 40.131 52.0433 43.2337 48.8682 45.2872C45.4381 47.5058 44.5298 46.4647 42.0328 48.5671C39.5357 50.6696 36.4555 54.1033 35.4019 54.5347H35.4017C34.9341 54.7259 32.4112 52.3649 32.2439 50.5276C32.0343 48.2252 32.5031 46.1031 29.4766 43.5353C24.0345 38.9183 22.7742 34.8148 22.1267 32.0621C22.0174 31.5976 18.3423 28.2424 17.6635 27.3663C16.9846 26.4899 14.0556 24.5837 14.2708 24.527Z" stroke="#263238" stroke-width="0.5" stroke-miterlimit="10" stroke-linecap="round" stroke-linejoin="round"/>
<path d="M29.46 21.2627C29.4527 21.2434 29.4465 21.2226 29.4391 21.2037C29.4263 21.1678 29.411 21.1338 29.396 21.0997C29.3801 21.0626 29.3634 21.0263 29.3466 20.99C29.3266 20.947 29.3069 20.9038 29.2858 20.8616C29.2761 20.8416 29.2648 20.8231 29.2549 20.8034C29.2427 20.7804 29.2309 20.7572 29.2182 20.7346C29.1746 20.6552 29.129 20.5781 29.0796 20.504C29.0685 20.4872 29.0571 20.4707 29.0459 20.4542C29.0152 20.4084 28.9847 20.3633 28.9525 20.3191C28.934 20.2957 28.9154 20.2729 28.8969 20.2497C28.8862 20.2362 28.8754 20.2227 28.8645 20.2095C28.8535 20.1958 28.8426 20.1818 28.8316 20.1683C28.8303 20.1644 28.8271 20.16 28.8235 20.1578C28.8202 20.1554 28.8168 20.1513 28.8155 20.1473C28.7728 20.1 28.7303 20.0524 28.6875 20.007C28.6203 19.937 28.5505 19.8724 28.4786 19.811C28.4642 19.7987 28.4498 19.7863 28.4352 19.7743C28.4206 19.7626 28.407 19.7493 28.392 19.7379C28.3445 19.6991 28.2984 19.6626 28.2483 19.6293C28.2432 19.6248 28.2395 19.6243 28.2325 19.6196C28.2316 19.619 28.2309 19.6185 28.2299 19.6179C28.2178 19.6095 28.205 19.6024 28.1927 19.5941C28.1573 19.5702 28.1221 19.5458 28.0849 19.5254C28.078 19.5208 28.071 19.5161 28.0641 19.5112C28.0385 19.4961 28.0119 19.483 27.9859 19.4687C27.9784 19.4646 27.9709 19.4605 27.9634 19.4566C27.8869 19.416 27.8094 19.3782 27.7299 19.3462C27.6707 19.323 27.6095 19.3012 27.5497 19.2837C27.5229 19.2749 27.4946 19.2689 27.4669 19.2612C27.451 19.2569 27.4355 19.2524 27.4196 19.2483C27.4014 19.2438 27.384 19.2378 27.3657 19.2337C27.3052 19.2197 27.2461 19.2097 27.1834 19.1993C27.1814 19.2007 27.1814 19.2008 27.1797 19.1987L27.1776 19.2002C27.1724 19.1991 27.1671 19.1993 27.1619 19.1983C27.1572 19.1978 27.1525 19.1972 27.1479 19.1966C27.1284 19.1942 27.1087 19.1912 27.0902 19.1899C27.0157 19.1817 26.9409 19.177 26.8653 19.1779C26.607 19.1745 26.3592 19.2178 26.127 19.2992C26.1135 19.3011 26.0997 19.3048 26.0879 19.3089C25.9374 19.3624 25.7926 19.4319 25.6533 19.5137C25.6429 19.5198 25.6329 19.5268 25.6225 19.5329C25.5661 19.5672 25.5105 19.6029 25.4565 19.6415C25.4383 19.6544 25.4207 19.668 25.4029 19.6815C25.3578 19.7152 25.3133 19.75 25.2697 19.7867C25.2472 19.8056 25.2251 19.8254 25.2031 19.8451C25.1666 19.8778 25.1306 19.9113 25.0953 19.946C25.0687 19.972 25.0427 19.9987 25.017 20.0261C24.9893 20.0552 24.9624 20.0852 24.9356 20.1159C24.9046 20.1512 24.8739 20.1872 24.8441 20.2242C24.8269 20.2458 24.8103 20.2677 24.7936 20.2895C24.7564 20.3382 24.7197 20.3876 24.6845 20.4389C24.6834 20.4406 24.6822 20.4419 24.6811 20.4436C24.6781 20.4479 24.6755 20.4529 24.6723 20.4572C24.6287 20.5216 24.5864 20.5875 24.5464 20.6556C24.5439 20.6597 24.5411 20.6635 24.5387 20.6676C24.534 20.6745 24.5312 20.6816 24.5243 20.6902C24.5219 20.6936 24.5217 20.6955 24.5194 20.699C24.5091 20.7172 24.5007 20.7372 24.4906 20.7555C24.4545 20.8216 24.4201 20.8892 24.3873 20.9582C24.3731 20.9883 24.3585 21.0181 24.3448 21.0488C24.1594 21.4659 24.037 21.9334 23.9913 22.4318C23.99 22.4456 23.9883 22.4591 23.9872 22.473C23.9769 22.5967 23.97 22.7215 23.9696 22.8484C23.9679 23.4641 24.0894 24.0416 24.2992 24.5508C24.4814 24.9941 24.7303 25.3862 25.0328 25.6991C25.3649 26.0436 25.757 26.2984 26.188 26.4282C26.2413 26.4443 26.2964 26.4584 26.3512 26.4707C26.4405 26.4924 26.5329 26.5085 26.6252 26.5169C26.6987 26.5244 26.7738 26.53 26.8509 26.5317C28.1721 26.5347 29.2845 25.4032 29.6303 23.8587C29.6425 23.8 29.6582 23.7431 29.6683 23.6826C29.6842 23.5956 29.6941 23.5058 29.7054 23.4167C29.7284 23.2344 29.745 23.0499 29.7458 22.8594C29.7462 22.8293 29.7448 22.7969 29.7452 22.7668C29.7445 22.7175 29.7437 22.6683 29.7411 22.6189C29.7263 22.3023 29.6784 21.9982 29.6032 21.7087C29.6002 21.6971 29.5966 21.6856 29.5936 21.674C29.5789 21.619 29.565 21.5638 29.5482 21.5099C29.5405 21.4854 29.5308 21.4626 29.5227 21.4384C29.5031 21.3785 29.4819 21.3205 29.46 21.2627Z" fill="#D2BAFF"/>
<path d="M28.3997 23.7953C28.4116 23.7365 28.4275 23.6796 28.4377 23.6192C28.4536 23.5322 28.4635 23.4423 28.4747 23.3533C28.4977 23.171 28.5144 22.9863 28.5151 22.7959C28.5155 22.7658 28.5142 22.7334 28.5146 22.7033C28.5138 22.6541 28.5131 22.6049 28.5105 22.5555C28.4957 22.2388 28.4478 21.9347 28.3725 21.6452C28.3695 21.6336 28.366 21.6222 28.363 21.6106C28.3482 21.5557 28.3343 21.5003 28.3175 21.4465C28.3098 21.4219 28.3001 21.3991 28.2921 21.3748C28.2726 21.3153 28.2514 21.2573 28.2295 21.1992C28.2222 21.18 28.2161 21.1592 28.2086 21.1405C28.1959 21.1045 28.1805 21.0705 28.1655 21.0362C28.1496 20.9992 28.133 20.9629 28.1161 20.9266C28.0961 20.8835 28.0765 20.8403 28.0553 20.7982C28.0456 20.7782 28.0344 20.7596 28.0244 20.74C28.0123 20.717 28.0005 20.6938 27.9878 20.6711C27.9442 20.5918 27.8985 20.5147 27.8491 20.4406C27.838 20.4237 27.8266 20.4072 27.8154 20.3906C27.7847 20.3447 27.7542 20.2996 27.722 20.2555C27.7035 20.2321 27.685 20.2092 27.6664 20.186C27.6558 20.1726 27.6449 20.1591 27.6341 20.1458C27.623 20.1321 27.6122 20.1181 27.6011 20.1046C27.5998 20.1007 27.5966 20.0964 27.5931 20.0942C27.5895 20.0917 27.5863 20.0876 27.585 20.0837C27.5424 20.0363 27.4999 19.9888 27.457 19.9433C27.3898 19.8733 27.32 19.8088 27.2482 19.7474C27.2338 19.735 27.2193 19.7227 27.2047 19.7107C27.1902 19.6987 27.1763 19.6856 27.1615 19.6742C27.114 19.6355 27.0679 19.599 27.0178 19.5657C27.0127 19.5612 27.009 19.5606 27.0021 19.5559C27.0011 19.5554 27.0004 19.5548 26.9995 19.5542C26.9873 19.5458 26.9746 19.5387 26.9622 19.5305C26.9268 19.5065 26.8917 19.4822 26.8544 19.4618C26.8475 19.4571 26.8406 19.4523 26.8336 19.4476C26.8078 19.4324 26.7814 19.4193 26.7552 19.4051C26.7477 19.401 26.7403 19.3969 26.7328 19.3929C26.6562 19.3523 26.5788 19.3145 26.4992 19.2825C26.4532 19.2644 26.4056 19.2488 26.3587 19.2339C26.5219 19.1962 26.6907 19.1757 26.8651 19.1779C26.9409 19.177 27.0157 19.1816 27.0902 19.1899C27.1087 19.1912 27.1284 19.194 27.1479 19.1966C27.1525 19.1972 27.1572 19.1975 27.1619 19.1983C27.1671 19.1992 27.1722 19.199 27.1776 19.2002L27.1797 19.1987C27.1812 19.2007 27.1812 19.2007 27.1834 19.1992C27.2461 19.2097 27.3052 19.2198 27.3657 19.2337C27.3838 19.2378 27.4014 19.2438 27.4196 19.2483C27.4355 19.2522 27.4512 19.2569 27.4669 19.2612C27.4944 19.2687 27.5229 19.2748 27.5497 19.2836C27.6095 19.3012 27.6709 19.3229 27.7301 19.3461C27.8096 19.3781 27.8871 19.4159 27.9636 19.4566C27.9711 19.4605 27.9786 19.4646 27.9861 19.4687C28.0121 19.4829 28.0387 19.4959 28.0643 19.5112C28.0712 19.5159 28.0781 19.5207 28.0851 19.5254C28.1223 19.5458 28.1575 19.5702 28.1929 19.5941C28.2052 19.6023 28.2179 19.6095 28.2301 19.6179C28.231 19.6184 28.2318 19.619 28.2327 19.6196C28.2397 19.6242 28.2434 19.6248 28.2484 19.6293C28.2986 19.6626 28.3446 19.6991 28.3922 19.7378C28.407 19.7493 28.4208 19.7625 28.4354 19.7743C28.45 19.7865 28.4644 19.7987 28.4788 19.811C28.5505 19.8726 28.6203 19.937 28.6877 20.0069C28.7305 20.0524 28.773 20.1 28.8157 20.1473C28.817 20.1512 28.8202 20.1555 28.8237 20.1578C28.8271 20.1602 28.8303 20.1643 28.8318 20.1683C28.8428 20.1816 28.8537 20.1958 28.8647 20.2094C28.8756 20.2227 28.8864 20.2362 28.8971 20.2497C28.9156 20.2729 28.9343 20.2957 28.9527 20.3191C28.9849 20.3633 29.0156 20.4084 29.0461 20.4542C29.0573 20.4709 29.0687 20.4872 29.0797 20.504C29.1291 20.5779 29.1748 20.6552 29.2184 20.7346C29.231 20.7572 29.2429 20.7804 29.2551 20.8034C29.2652 20.8231 29.2764 20.8416 29.286 20.8616C29.3071 20.9037 29.3268 20.947 29.3468 20.9902C29.3636 21.0265 29.3805 21.0626 29.3962 21.0999C29.411 21.1341 29.4263 21.1682 29.4392 21.2039C29.4469 21.2228 29.4529 21.2436 29.4602 21.2629C29.4821 21.3207 29.5032 21.3789 29.5227 21.4384C29.5308 21.4627 29.5405 21.4856 29.5482 21.5099C29.565 21.5636 29.5789 21.619 29.5936 21.674C29.5968 21.6856 29.6002 21.697 29.6032 21.7086C29.6784 21.9982 29.7263 22.3023 29.7411 22.6189C29.7437 22.6683 29.7445 22.7175 29.7452 22.7668C29.7448 22.7969 29.7462 22.8293 29.7458 22.8594C29.745 23.0497 29.7284 23.2344 29.7054 23.4167C29.6941 23.5058 29.6844 23.5956 29.6683 23.6826C29.6582 23.7431 29.6423 23.8002 29.6303 23.8587C29.2845 25.4032 28.1721 26.5347 26.8509 26.5317C26.7739 26.53 26.6987 26.5244 26.6254 26.5169C26.5331 26.5085 26.4405 26.4924 26.3514 26.4707C26.2964 26.4585 26.2413 26.4443 26.188 26.4282C26.1698 26.4228 26.1521 26.4157 26.1341 26.4099C27.2229 26.1621 28.0997 25.1347 28.3997 23.7953Z" fill="white"/>
<path d="M29.46 21.2627C29.4527 21.2434 29.4465 21.2226 29.4391 21.2037C29.4263 21.1678 29.411 21.1338 29.396 21.0997C29.3801 21.0626 29.3634 21.0263 29.3466 20.99C29.3266 20.947 29.3069 20.9038 29.2858 20.8616C29.2761 20.8416 29.2648 20.8231 29.2549 20.8034C29.2427 20.7804 29.2309 20.7572 29.2182 20.7346C29.1746 20.6552 29.129 20.5781 29.0796 20.504C29.0685 20.4872 29.0571 20.4707 29.0459 20.4542C29.0152 20.4084 28.9847 20.3633 28.9525 20.3191C28.934 20.2957 28.9154 20.2729 28.8969 20.2497C28.8862 20.2362 28.8754 20.2227 28.8645 20.2095C28.8535 20.1958 28.8426 20.1818 28.8316 20.1683C28.8303 20.1644 28.8271 20.16 28.8235 20.1578C28.8202 20.1554 28.8168 20.1513 28.8155 20.1473C28.7728 20.1 28.7303 20.0524 28.6875 20.007C28.6203 19.937 28.5505 19.8724 28.4786 19.811C28.4642 19.7987 28.4498 19.7863 28.4352 19.7743C28.4206 19.7626 28.407 19.7493 28.392 19.7379C28.3445 19.6991 28.2984 19.6626 28.2483 19.6293C28.2432 19.6248 28.2395 19.6243 28.2325 19.6196C28.2316 19.619 28.2309 19.6185 28.2299 19.6179C28.2178 19.6095 28.205 19.6024 28.1927 19.5941C28.1573 19.5702 28.1221 19.5458 28.0849 19.5254C28.078 19.5208 28.071 19.5161 28.0641 19.5112C28.0385 19.4961 28.0119 19.483 27.9859 19.4687C27.9784 19.4646 27.9709 19.4605 27.9634 19.4566C27.8869 19.416 27.8094 19.3782 27.7299 19.3462C27.6707 19.323 27.6095 19.3012 27.5497 19.2837C27.5229 19.2749 27.4946 19.2689 27.4669 19.2612C27.451 19.2569 27.4355 19.2524 27.4196 19.2483C27.4014 19.2438 27.384 19.2378 27.3657 19.2337C27.3052 19.2197 27.2461 19.2097 27.1834 19.1993C27.1814 19.2007 27.1814 19.2008 27.1797 19.1987L27.1776 19.2002C27.1724 19.1991 27.1671 19.1993 27.1619 19.1983C27.1572 19.1978 27.1525 19.1972 27.1479 19.1966C27.1284 19.1942 27.1087 19.1912 27.0902 19.1899C27.0157 19.1817 26.9409 19.177 26.8653 19.1779C26.607 19.1745 26.3592 19.2178 26.127 19.2992C26.1135 19.3011 26.0997 19.3048 26.0879 19.3089C25.9374 19.3624 25.7926 19.4319 25.6533 19.5137C25.6429 19.5198 25.6329 19.5268 25.6225 19.5329C25.5661 19.5672 25.5105 19.6029 25.4565 19.6415C25.4383 19.6544 25.4207 19.668 25.4029 19.6815C25.3578 19.7152 25.3133 19.75 25.2697 19.7867C25.2472 19.8056 25.2251 19.8254 25.2031 19.8451C25.1666 19.8778 25.1306 19.9113 25.0953 19.946C25.0687 19.972 25.0427 19.9987 25.017 20.0261C24.9893 20.0552 24.9624 20.0852 24.9356 20.1159C24.9046 20.1512 24.8739 20.1872 24.8441 20.2242C24.8269 20.2458 24.8103 20.2677 24.7936 20.2895C24.7564 20.3382 24.7197 20.3876 24.6845 20.4389C24.6834 20.4406 24.6822 20.4419 24.6811 20.4436C24.6781 20.4479 24.6755 20.4529 24.6723 20.4572C24.6287 20.5216 24.5864 20.5875 24.5464 20.6556C24.5439 20.6597 24.5411 20.6635 24.5387 20.6676C24.534 20.6745 24.5312 20.6816 24.5243 20.6902C24.5219 20.6936 24.5217 20.6955 24.5194 20.699C24.5091 20.7172 24.5007 20.7372 24.4906 20.7555C24.4545 20.8216 24.4201 20.8892 24.3873 20.9582C24.3731 20.9883 24.3585 21.0181 24.3448 21.0488C24.1594 21.4659 24.037 21.9334 23.9913 22.4318C23.99 22.4456 23.9883 22.4591 23.9872 22.473C23.9769 22.5967 23.97 22.7215 23.9696 22.8484C23.9679 23.4641 24.0894 24.0416 24.2992 24.5508C24.4814 24.9941 24.7303 25.3862 25.0328 25.6991C25.3649 26.0436 25.757 26.2984 26.188 26.4282C26.2413 26.4443 26.2964 26.4584 26.3512 26.4707C26.4405 26.4924 26.5329 26.5085 26.6252 26.5169C26.6987 26.5244 26.7738 26.53 26.8509 26.5317C28.1721 26.5347 29.2845 25.4032 29.6303 23.8587C29.6425 23.8 29.6582 23.7431 29.6683 23.6826C29.6842 23.5956 29.6941 23.5058 29.7054 23.4167C29.7284 23.2344 29.745 23.0499 29.7458 22.8594C29.7462 22.8293 29.7448 22.7969 29.7452 22.7668C29.7445 22.7175 29.7437 22.6683 29.7411 22.6189C29.7263 22.3023 29.6784 21.9982 29.6032 21.7087C29.6002 21.6971 29.5966 21.6856 29.5936 21.674C29.5789 21.619 29.565 21.5638 29.5482 21.5099C29.5405 21.4854 29.5308 21.4626 29.5227 21.4384C29.5031 21.3785 29.4819 21.3205 29.46 21.2627Z" stroke="#263238" stroke-width="0.5" stroke-miterlimit="10" stroke-linecap="round" stroke-linejoin="round"/>
<path d="M29.6651 23.6875C29.7005 23.9153 29.7235 24.1511 29.7314 24.393C29.7323 24.4209 29.7332 24.4507 29.7342 24.4786C29.7699 26.3702 28.9042 27.8767 27.8023 27.8432C27.1512 27.8236 26.5649 27.2698 26.1848 26.4327C26.398 26.4971 26.619 26.5349 26.8477 26.5353C28.2189 26.5384 29.3679 25.3209 29.6651 23.6875Z" fill="#263238"/>
<path d="M34.2747 12.3251C32.4156 11.5545 30.2277 12.3938 29.3545 14.207C29.0262 14.8888 28.9181 15.6189 29.0013 16.3178C29.1067 17.2019 28.7326 18.0564 28.0729 18.6543C28.0385 18.6856 28.0035 18.734 27.9522 18.779C27.6146 19.075 27.2869 19.218 26.8874 19.1796C26.8776 19.1787 26.87 19.1783 26.8645 19.1783C26.6063 19.175 26.3585 19.2182 26.1262 19.2996C26.1128 19.3015 26.0989 19.3052 26.0871 19.3093C25.5311 19.5068 25.0453 19.9065 24.6806 20.4438C24.6312 20.5145 24.5829 20.5909 24.5383 20.668C24.5337 20.6749 24.5307 20.682 24.5239 20.6906C24.5215 20.6942 24.5213 20.6959 24.5191 20.6994C24.9553 21.7021 26.1826 22.5303 27.7177 22.7414C28.4408 22.8409 29.1374 22.7893 29.7407 22.6191C29.7402 22.6081 29.7389 22.5973 29.7381 22.5862C30.5286 22.5351 31.2695 22.0725 31.6359 21.3071L31.6494 21.2788C32.0561 20.421 32.8395 19.8202 33.7595 19.5861C34.8219 19.3159 35.761 18.5948 36.2715 17.5283C37.2164 15.5539 36.3233 13.1744 34.2747 12.3251Z" fill="#263238"/>
<path d="M30.7962 9.94423C31.1567 9.97605 31.269 10.4782 30.9549 10.6578C30.186 11.098 28.981 11.8791 28.5743 12.6518C27.9597 13.82 26.6454 13.3304 26.8851 12.4115C27.1243 11.4947 28.707 10.4832 29.8849 10.075C30.2457 9.95004 30.549 9.92252 30.7962 9.94423Z" fill="#263238"/>
<path d="M27.7817 14.6679C27.662 14.8672 27.4144 14.9274 27.2286 14.8024C27.0427 14.6774 26.9892 14.4147 27.1088 14.2153C27.2286 14.016 27.4761 13.9558 27.662 14.0808C27.8478 14.2056 27.9015 14.4685 27.7817 14.6679Z" fill="#263238"/>
<path d="M21.2526 18.7121C21.2526 18.7121 23.5541 17.3836 23.7184 17.8456C24.1449 19.0447 22.4114 20.1629 22.4114 20.1629L21.2526 18.7121Z" fill="#263238"/>
<path d="M51.2614 37.0464C51.2614 37.0464 51.2163 35.809 51.6462 34.6182C52.132 33.2723 53.43 31.9901 54.6305 32.1457C56.6126 33.1849 53.3151 39.7336 53.3151 39.7336L51.2614 37.0464Z" fill="#263238"/>
<path d="M43.894 27.3672C44.5009 28.162 46.5919 31.309 48.71 30.8278" stroke="#263238" stroke-width="0.5" stroke-miterlimit="10" stroke-linecap="round" stroke-linejoin="round"/>
<path d="M25.9216 27.5078C26.1125 28.3485 26.8682 28.8921 27.6113 28.7233" stroke="#263238" stroke-width="0.5" stroke-miterlimit="10" stroke-linecap="round" stroke-linejoin="round"/>
<path d="M9.80855 5.87983C9.54636 5.61128 9.28081 5.4597 8.94788 5.27985C7.26359 4.37033 7.5443 3.43462 8.94788 3.62176C9.57481 3.70541 10.4538 3.82275 11.2346 3.92699C12.3264 4.07278 13.2466 4.81199 13.625 5.84652C13.7288 6.13023 13.8391 6.42929 13.9497 6.7261L18.3051 15.1311L22.2345 20.2861C21.8742 20.5433 21.5731 20.8041 21.5132 21.2175C21.3265 22.5073 19.1781 23.1872 17.8591 23.295C16.9136 23.3721 15.8217 23.6362 15.2771 23.7799L14.25 22.7628L11.3806 19.1792L7.35697 9.49601L8.5472 9.58677L7.63769 5.64927L9.80855 5.87983Z" fill="#D2BAFF"/>
<path d="M7.37357 9.50131L7.39453 9.5917L7.35635 9.5L7.37357 9.50131Z" fill="white"/>
<path d="M8.0905 6.56144C8.42324 6.7411 8.6888 6.89287 8.95117 7.16142L7.96193 7.05643L7.80997 6.39844C7.89662 6.45271 7.98982 6.50717 8.0905 6.56144Z" fill="white"/>
<path d="M21.3761 21.5667L17.4466 15.6627L13.3995 7.95932C13.2889 7.66252 13.1787 7.36346 13.0748 7.07975C12.6964 6.04522 11.9036 4.89148 10.8118 4.7457C10.26 4.67196 9.65661 4.5215 9.16499 4.43074C8.87941 4.37796 8.42577 4.34053 8.27194 4.09425C8.09022 3.80343 8.14749 3.51785 8.94678 3.62433C9.57371 3.70799 10.4527 3.82533 11.2335 3.92957C12.3253 4.07535 13.2455 4.81457 13.6239 5.8491C13.7277 6.1328 13.838 6.43186 13.9486 6.72867L18.3039 15.1337L22.2334 20.2887C21.8731 20.5458 21.572 20.8067 21.5121 21.2201C21.4451 21.6824 21.1255 22.0658 20.6831 22.3733C20.7804 22.0306 21.0538 21.7967 21.3761 21.5667Z" fill="white"/>
<path d="M9.80855 5.87983C9.54636 5.61128 9.28081 5.4597 8.94788 5.27985C7.26359 4.37033 7.5443 3.43462 8.94788 3.62176C9.57481 3.70541 10.4538 3.82275 11.2346 3.92699C12.3264 4.07278 13.2466 4.81199 13.625 5.84652C13.7288 6.13023 13.8391 6.42929 13.9497 6.7261L18.3051 15.1311L22.2345 20.2861C21.8742 20.5433 21.5731 20.8041 21.5132 21.2175C21.3265 22.5073 19.1781 23.1872 17.8591 23.295C16.9136 23.3721 15.7698 24.0219 15.2252 24.1656C15.2252 24.1656 12.4782 20.9411 11.3806 19.1792C10.283 17.4174 7.35697 9.49601 7.35697 9.49601L8.5472 9.58677L7.63769 5.64927L9.80855 5.87983Z" stroke="#263238" stroke-width="0.5" stroke-miterlimit="10" stroke-linecap="round" stroke-linejoin="round"/>
<path d="M11.389 3.5753L8.67958 2.05869C8.65562 2.03698 8.62437 2.02856 8.59442 2.03567L1.08099 2.87164C0.96328 2.89934 0.976003 3.09434 1.09596 3.10239L11.3189 3.78303C11.419 3.78958 11.4675 3.64623 11.389 3.5753Z" fill="#FECEA0" stroke="#263238" stroke-width="0.5" stroke-miterlimit="10" stroke-linecap="round" stroke-linejoin="round"/>
<path d="M7.35754 2.03453L4.66643 1L1.08132 2.87293L7.35754 2.03453Z" fill="#FECEA0" stroke="#263238" stroke-width="0.5" stroke-miterlimit="10" stroke-linecap="round" stroke-linejoin="round"/>
<path d="M9.80856 5.87891C9.80987 6.74744 10.5699 7.37025 11.3066 7.6796" stroke="#263238" stroke-width="0.5" stroke-miterlimit="10" stroke-linecap="round" stroke-linejoin="round"/>
<path d="M1.49905 3.12891C1.61826 3.30632 7.63792 5.6473 7.63792 5.6473L9.80859 5.87786C9.80859 5.87786 8.21956 4.91556 7.9555 4.50347C7.69125 4.09139 7.88756 3.59583 7.88756 3.59583L1.49905 3.12891Z" fill="#FECEA0" stroke="#263238" stroke-width="0.5" stroke-miterlimit="10" stroke-linecap="round" stroke-linejoin="round"/>
<path d="M9.97754 3.78516C9.97754 4.1834 9.25217 4.74333 8.35557 4.74333L9.97754 3.78516Z" fill="white"/>
<path d="M9.97754 3.78516C9.97754 4.1834 9.25217 4.74333 8.35557 4.74333" stroke="#263238" stroke-width="0.5" stroke-miterlimit="10" stroke-linecap="round" stroke-linejoin="round"/>
<path d="M5.60704 6.351C4.935 5.78283 5.24754 4.68205 6.11906 4.5606C6.56259 4.49865 7.05066 4.51081 7.48352 4.70488C8.65598 5.23038 9.82843 5.99861 9.26232 6.64537C8.6964 7.29214 6.5843 6.88847 6.39192 6.81399C6.07583 6.6916 5.81757 6.52897 5.60704 6.351Z" fill="#D2BAFF" stroke="#263238" stroke-width="0.5" stroke-miterlimit="10" stroke-linecap="round" stroke-linejoin="round"/>
<path d="M5.60704 8.64006C4.935 8.07189 5.24754 6.97111 6.11906 6.84966C6.56259 6.78771 7.05066 6.79988 7.48352 6.99394C8.65598 7.51944 9.82843 8.28767 9.26232 8.93444C8.6964 9.58139 6.5843 9.17753 6.39192 9.10305C6.07583 8.98066 5.81757 8.81803 5.60704 8.64006Z" fill="#D2BAFF" stroke="#263238" stroke-width="0.5" stroke-miterlimit="10" stroke-linecap="round" stroke-linejoin="round"/>
<path d="M6.48978 11.0552C5.79248 10.884 5.62106 9.96604 6.21393 9.56068C6.51561 9.35445 6.87661 9.18621 7.26362 9.17087C8.31125 9.12932 9.44702 9.265 9.2683 9.94321C9.08957 10.6214 7.39948 11.0932 7.23162 11.1085C6.95614 11.134 6.70836 11.1089 6.48978 11.0552Z" fill="#D2BAFF" stroke="#263238" stroke-width="0.5" stroke-miterlimit="10" stroke-linecap="round" stroke-linejoin="round"/>
<path d="M38.291 77.6766L37.8054 77.7805H30.3615L31.4984 75.8619L31.8894 73.2754C33.0508 73.3358 34.5913 73.9362 35.7836 74.6142C37.319 75.4876 37.5385 75.4876 39.5125 75.1133C39.6023 75.0963 39.6884 75.0856 39.7747 75.0746V75.8419C39.7745 76.7269 39.1562 77.4914 38.291 77.6766Z" fill="#D2BAFF" stroke="#263238" stroke-width="0.5" stroke-miterlimit="10" stroke-linecap="round" stroke-linejoin="round"/>
<path d="M31.4963 75.8609C31.4963 75.8609 36.2767 74.8892 36.4397 74.9718C37.4331 75.4748 37.8594 75.4254 39.5104 75.1123C39.6002 75.0953 39.6863 75.0846 39.7725 75.0736L40.1816 78.9143L28.0692 78.9836L31.4963 75.8609Z" fill="#FECEA0" stroke="#263238" stroke-width="0.5" stroke-miterlimit="10" stroke-linecap="round" stroke-linejoin="round"/>
<path d="M38.5718 75.2791C38.8383 75.2387 39.1436 75.1829 39.5122 75.113C39.6021 75.0959 39.6881 75.0853 39.7744 75.0742V75.301C39.2811 75.3677 38.9295 75.3682 38.5718 75.2791Z" fill="white" stroke="#FECEA0" stroke-width="0.5" stroke-miterlimit="10" stroke-linecap="round" stroke-linejoin="round"/>
<path d="M9.07199 27.0972C9.37872 26.9755 9.61489 26.9662 10.3973 27.0594L13.0185 27.7488C14.1353 28.0426 15.3172 27.9713 16.3906 27.5454L18.3659 26.7614C18.8942 26.5518 19.7379 27.4284 20.2502 28.7193C20.7625 30.0102 20.7495 31.2269 20.2212 31.4367L18.2194 32.2311C17.1938 32.6381 16.3171 33.3491 15.707 34.2683L14.0214 36.8082C13.9759 36.8928 13.9254 36.9694 13.8696 37.0369L13.867 37.041L13.8668 37.0407C13.7571 37.1726 13.6282 37.2712 13.4792 37.3304C12.3446 37.7806 10.5003 35.816 9.35981 32.9422C8.21918 30.0683 7.93734 27.5474 9.07199 27.0972Z" fill="#FECEA0"/>
<path d="M8.86987 31.5598C8.50119 29.8699 8.61722 28.5973 9.392 28.2885C9.69704 28.1669 9.93471 28.1575 10.717 28.2511L13.337 28.9398C14.4542 29.2336 15.637 29.1625 16.7093 28.7377L18.6855 27.9536C19.2133 27.744 20.0573 28.6198 20.5701 29.9111C20.5757 29.926 20.5813 29.941 20.5869 29.956C20.5345 29.5761 20.4222 29.1513 20.2501 28.719C19.7392 27.4277 18.8951 26.5519 18.3674 26.7615L16.3912 27.5456C15.317 27.9704 14.1361 28.0415 13.0188 27.7477L10.3988 27.059C9.61469 26.9654 9.37889 26.9748 9.07198 27.0964C8.12503 27.4726 8.16621 29.2935 8.86987 31.5598Z" fill="white"/>
<path d="M9.07199 27.0972C9.37872 26.9755 9.61489 26.9662 10.3973 27.0594L13.0185 27.7488C14.1353 28.0426 15.3172 27.9713 16.3906 27.5454L18.3659 26.7614C18.8942 26.5518 19.7379 27.4284 20.2502 28.7193C20.7625 30.0102 20.7495 31.2269 20.2212 31.4367L18.2194 32.2311C17.1938 32.6381 16.3171 33.3491 15.707 34.2683L14.0214 36.8082C13.9759 36.8928 13.9254 36.9694 13.8696 37.0369L13.867 37.041L13.8668 37.0407C13.7571 37.1726 13.6282 37.2712 13.4792 37.3304C12.3446 37.7806 10.5003 35.816 9.35981 32.9422C8.21918 30.0683 7.93734 27.5474 9.07199 27.0972Z" stroke="#263238" stroke-width="0.5" stroke-miterlimit="10" stroke-linecap="round" stroke-linejoin="round"/>
<path d="M9.36248 32.9525C10.5752 35.7503 12.3193 37.691 13.2588 37.283C13.9363 36.9892 14.0092 35.5557 13.5414 33.7292C13.3617 33.0237 13.1016 32.2601 12.7629 31.4797C12.5533 30.9931 12.3268 30.5346 12.091 30.108C10.97 28.0774 9.64319 26.8124 8.86654 27.1473C7.92895 27.5553 8.14979 30.1529 9.36248 32.9525Z" fill="#263238" stroke="#263238" stroke-width="0.5" stroke-miterlimit="10" stroke-linecap="round" stroke-linejoin="round"/>
<path d="M10.322 30.9327L11.8023 34.35L13.5409 33.7286C13.3612 33.0231 13.1011 32.2596 12.7624 31.4792C12.5528 30.9926 12.3263 30.5341 12.0905 30.1074L10.322 30.9327Z" fill="white" stroke="#263238" stroke-width="0.5" stroke-miterlimit="10" stroke-linecap="round" stroke-linejoin="round"/>
<path d="M10.4904 32.8898C10.8993 33.8337 11.4875 34.4876 11.8041 34.3504C12.1206 34.2132 12.0457 33.3368 11.6366 32.3929C11.2275 31.4489 10.6395 30.7951 10.3229 30.9322C10.0064 31.0694 10.0813 31.9458 10.4904 32.8898Z" fill="white" stroke="#263238" stroke-width="0.5" stroke-miterlimit="10" stroke-linecap="round" stroke-linejoin="round"/>
<path d="M18.3168 32.1589C18.3973 30.3604 17.4582 28.7184 16.0698 27.6596C16.1772 27.6244 16.2842 27.5873 16.3898 27.5456L18.366 26.7615C18.8938 26.5519 19.7378 27.4277 20.2487 28.719C20.7615 30.0103 20.7484 31.2267 20.2206 31.4363L18.3144 32.1935C18.3151 32.1819 18.3162 32.1705 18.3168 32.1589Z" fill="#FF7D7D"/>
<path d="M16.9151 28.4407C16.6589 28.1555 16.3767 27.8926 16.0709 27.6594C16.1783 27.6242 16.2854 27.5872 16.3909 27.5454L18.3671 26.7613C18.7126 26.6241 19.1936 26.9541 19.6279 27.5595C18.6937 27.7713 17.7883 28.0676 16.9151 28.4407Z" fill="white"/>
<path d="M18.3168 32.1589C18.3973 30.3604 17.4582 28.7184 16.0698 27.6596C16.1772 27.6244 16.2842 27.5873 16.3898 27.5456L18.366 26.7615C18.8938 26.5519 19.7378 27.4277 20.2487 28.719C20.7615 30.0103 20.7484 31.2267 20.2206 31.4363L18.3144 32.1935C18.3151 32.1819 18.3162 32.1705 18.3168 32.1589Z" stroke="#263238" stroke-width="0.5" stroke-miterlimit="10" stroke-linecap="round" stroke-linejoin="round"/>
<path d="M13.4432 29.1001C13.1962 29.0876 12.9497 29.0569 12.7087 29" stroke="#263238" stroke-width="0.5" stroke-miterlimit="10" stroke-linecap="round" stroke-linejoin="round"/>
<path d="M15.9696 28.6973C15.624 28.9926 14.918 29.021 14.4857 29.0659" stroke="#263238" stroke-width="0.5" stroke-miterlimit="10" stroke-linecap="round" stroke-linejoin="round"/>
<path d="M52.6986 51.0903C54.0784 49.3025 54.5878 47.3776 54.6685 45.6289L56.0127 46.9958C56.0127 46.9958 56.6677 48.2519 56.0127 51.3398C55.3577 54.4276 50.6791 60.1355 50.6791 60.1355C50.6791 60.1355 50.6791 60.1355 49.182 59.2934C48.6106 58.972 47.3648 58.0777 46.0427 57.095C46.929 56.6797 49.5175 55.2118 52.6986 51.0903Z" fill="#FF7D7D"/>
<path d="M51.3398 59.3044C50.7365 60.1015 50.6794 60.14 50.6794 60.14C50.6794 60.14 50.6794 60.14 49.1823 59.2979C48.6111 58.9765 47.3651 58.0822 46.0429 57.0995C46.2771 56.9898 46.6309 56.8057 47.0821 56.5195C48.1228 57.2913 50.9409 59.1457 51.3398 59.3044Z" fill="white"/>
<path d="M52.6986 51.0903C54.0784 49.3025 54.5878 47.3776 54.6685 45.6289L56.0127 46.9958C56.0127 46.9958 56.6677 48.2519 56.0127 51.3398C55.3577 54.4276 50.6791 60.1355 50.6791 60.1355C50.6791 60.1355 50.6791 60.1355 49.182 59.2934C48.6106 58.972 47.3648 58.0777 46.0427 57.095C46.929 56.6797 49.5175 55.2118 52.6986 51.0903Z" stroke="#263238" stroke-width="0.5" stroke-miterlimit="10" stroke-linecap="round" stroke-linejoin="round"/>
<path d="M56.3037 58.4514C56.3158 57.9187 55.5995 57.6725 55.2852 58.1027C54.5155 59.1565 53.176 60.7927 51.9786 61.2617C50.1689 61.9706 50.6708 63.9739 52.0548 63.773C53.4357 63.5725 55.1741 61.4209 55.9636 59.7636C56.2054 59.2561 56.2953 58.8167 56.3037 58.4514Z" fill="#263238"/>
<path d="M48.8959 62.093C48.5847 62.2358 48.4561 62.5883 48.6086 62.8809C48.7612 63.1732 49.1371 63.2944 49.4483 63.1518C49.7596 63.009 49.8881 62.6565 49.7356 62.364C49.5829 62.0716 49.2069 61.9504 48.8959 62.093Z" fill="#263238"/>
<path d="M57.4972 43.4311C57.0052 43.2264 56.5158 43.8047 56.8027 44.2536C57.5052 45.3533 58.5382 47.3714 58.3511 49.8855C58.1851 52.1165 56.7001 54.1477 56.7175 54.9904C56.7507 56.5931 58.3172 54.8055 58.8384 54.0519C61.7197 49.8855 59.8546 45.5618 58.5968 44.2244C58.2113 43.8148 57.8346 43.5715 57.4972 43.4311Z" fill="#263238"/>
<path d="M16.383 35.9084C16.5608 36.6944 17.0936 37.1452 17.1404 37.2594C17.0936 37.3323 15.3575 37.7796 18.1038 40.1502C18.6361 40.6096 20.4691 42.7664 31.8961 42.6785C32.422 42.6747 33.135 42.4071 33.9434 41.9673L33.9453 41.9655C36.0769 40.4926 38.4671 37.4542 39.3223 36.7037C39.3616 36.67 39.4009 36.6364 39.4384 36.6008C39.3448 36.5016 39.2381 36.3912 39.1183 36.2658C38.2687 35.3769 38.2464 36.5982 36.2608 35.9563C34.3782 35.3462 34.1471 34.6352 32.133 32.2366L29.636 34.9189L22.1371 34.191C22.1371 34.191 22.1802 33.6632 21.4597 32.6377C20.7541 31.629 20.0991 31.7674 20.0748 31.7731L20.4903 33.6033L19.0773 33.9252C19.0773 33.9252 19.0773 33.9233 19.0755 33.9196C19.0287 33.8466 18.4897 32.9727 18.0256 32.2203C17.9956 32.2185 17.9638 32.2185 17.9301 32.2185C17.5222 32.2185 16.8516 32.5454 16.9022 33.1012C16.9022 33.105 17.2104 34.3519 17.2085 34.3519C17.173 34.3687 16.194 35.0793 16.383 35.9084Z" fill="#D2BAFF"/>
<path d="M16.8156 37.4586C17.0279 37.8462 17.4392 38.3396 18.17 38.9703C18.7022 39.4298 20.0014 40.9808 31.417 41.5013C32.4775 41.5495 34.0115 40.4111 34.0115 40.4111C35.9971 38.5318 36.9102 37.211 38.0023 36.0488C38.0785 36.1007 39.0262 36.1654 39.1183 36.2616C39.2382 36.387 39.3449 36.4976 39.4385 36.5968C39.4383 36.6005 39.4381 36.6016 39.4379 36.6054C38.7045 37.1451 36.1826 40.4154 33.9453 41.9613L33.9434 41.9631C33.1349 42.4029 32.4219 42.6705 31.896 42.6743C20.4691 42.7622 18.636 40.6052 18.1038 40.146C16.1693 38.4761 16.4591 37.7612 16.8156 37.4586Z" fill="white"/>
<path d="M16.4229 36.0586C16.6007 36.8446 17.0936 37.1434 17.1404 37.2576C17.0936 37.3306 14.7957 37.9652 18.1038 40.1484C18.6907 40.5356 20.4691 42.7647 31.8961 42.6767C32.422 42.673 33.135 42.4053 33.9434 41.9656L33.9453 41.9637C35.4238 41.1571 37.7803 38.0924 39.3223 36.702C39.3616 36.6683 39.4009 36.6346 39.4384 36.599C39.3448 36.4999 39.2381 36.3894 39.1183 36.2641C38.2687 35.3751 37.1567 36.594 35.2868 35.6676C34.2152 35.1367 34.0471 34.1218 31.9998 32.2036L29.6362 34.917L22.1373 34.189C22.1373 34.189 22.1804 33.6613 21.4599 32.6357C20.7543 31.627 20.0993 31.7655 20.075 31.7711L20.4905 33.6014L19.0775 33.9233C19.0775 33.9233 19.0775 33.9214 19.0757 33.9176C19.0438 33.8428 18.7051 33.0212 18.2167 32.2296C18.2167 32.2296 18.1399 32.2221 18.0258 32.2184C17.9958 32.2165 17.964 32.2165 17.9303 32.2165C17.5224 32.2165 16.8518 32.5435 16.9024 33.0993C16.9024 33.103 16.8786 32.8603 16.8805 32.864C16.9761 33.3062 17.1844 34.3518 17.2087 34.3499C17.173 34.3672 16.2339 35.2295 16.4229 36.0586Z" stroke="#263238" stroke-width="0.5" stroke-miterlimit="10" stroke-linecap="round" stroke-linejoin="round"/>
<path d="M16.9007 33.0996C17.1056 34.2069 17.4215 35.0519 17.9141 35.6884" stroke="#263238" stroke-width="0.5" stroke-miterlimit="10" stroke-linecap="round" stroke-linejoin="round"/>
<path d="M16.6243 36.5391C16.6243 36.5391 17.1309 37.5281 18.1289 38.1665" stroke="#263238" stroke-width="0.5" stroke-miterlimit="10" stroke-linecap="round" stroke-linejoin="round"/>
<path d="M39.1719 75.7363C39.1719 75.7363 41.0514 73.2658 42.1742 72.5173C43.2971 71.7687 44.2354 71.6081 44.3095 71.9079C44.8648 74.1536 39.1719 75.7363 39.1719 75.7363Z" fill="#263238"/>
<path d="M31.8887 73.2732C31.8887 73.2732 29.7594 73.1201 29.6235 73.677C29.3368 74.8517 31.5151 74.9655 31.5151 74.9655L31.8887 73.2732Z" fill="#263238"/>
<path d="M56.1707 33.9609C56.4069 34.3792 55.9519 37.3602 55.2084 38.412" stroke="#263238" stroke-width="0.5" stroke-miterlimit="10" stroke-linecap="round" stroke-linejoin="round"/>
<path d="M57.1672 34.498C57.354 35.2468 57.2118 36.0238 56.9973 36.7503" stroke="#263238" stroke-width="0.5" stroke-miterlimit="10" stroke-linecap="round" stroke-linejoin="round"/>
<path d="M31.9259 63.6545C32.3262 61.7001 32.5102 56.5956 34.1314 55.4333C34.5104 55.1615 34.9341 54.8613 35.4042 54.5333H35.4044C36.4578 54.1021 39.5382 50.6682 42.0352 48.5657C44.5323 46.4631 45.4405 47.5044 48.8707 45.2858C52.0457 43.2323 50.7911 40.1296 51.2086 36.7227L53.4806 39.7308C53.4806 39.7308 54.819 42.3738 54.6689 45.629C54.5883 47.3779 54.0789 49.3028 52.6991 51.0904C51.9757 52.0276 51.2831 52.8275 50.6339 53.5091C48.4286 55.825 46.7277 56.7743 46.0429 57.0951C45.8292 57.1952 45.7132 57.2349 45.7132 57.2349C45.7132 57.2349 45.2414 63.7091 44.5997 66.285C44.077 68.3825 42.2029 67.784 44.0412 71.8719C44.2364 72.3059 44.0412 70.4371 39.5114 75.1106C37.8148 76.8612 35.0694 76.323 34.4393 75.6771C33.1422 74.3471 33.0497 73.3332 31.8883 73.2727C31.5539 73.2553 31.2494 73.2802 30.9957 73.364C29.8603 73.7383 29.8603 73.7383 29.8603 73.7383L31.9259 63.6545Z" fill="#FF7D7D"/>
<path d="M31.9258 63.6563C32.3261 61.702 32.51 56.5974 34.1311 55.4351C34.5101 55.1634 34.9339 54.8632 35.4038 54.5351H35.404C36.4575 54.1039 39.5378 50.67 42.0349 48.5675C43.7057 47.1607 44.666 47.1605 46.1455 46.6504C45.7173 47.1342 43.873 48.4035 43.1359 49.0241C40.6388 51.1267 37.3881 54.7451 36.3347 55.1765C36.3347 55.1765 35.4024 55.9202 35.0234 56.1919C33.4022 57.3544 33.1858 62.1337 32.7855 64.088L30.8258 73.3868C30.7719 73.3988 29.8599 73.7405 29.8599 73.7405L31.9258 63.6563Z" fill="white"/>
<path d="M31.9259 63.6545C32.3262 61.7001 32.5102 56.5956 34.1314 55.4333C34.5104 55.1615 34.9341 54.8613 35.4042 54.5333H35.4044C36.4578 54.1021 39.5382 50.6682 42.0352 48.5657C44.5323 46.4631 45.4405 47.5044 48.8707 45.2858C52.0457 43.2323 50.7911 40.1296 51.2086 36.7227L53.4806 39.7308C53.4806 39.7308 54.819 42.3738 54.6689 45.629C54.5883 47.3779 54.0789 49.3028 52.6991 51.0904C51.9757 52.0276 51.2831 52.8275 50.6339 53.509C48.4286 55.825 46.7277 56.7743 46.0429 57.0951C45.8292 57.1952 45.7132 57.2349 45.7132 57.2349C45.7132 57.2349 45.2414 63.7091 44.5997 66.285C44.077 68.3825 42.2029 67.784 44.0412 71.8719C44.2364 72.3059 44.0412 70.4371 39.5114 75.1106C37.8148 76.8612 35.0694 76.323 34.4393 75.6771C33.1422 74.3471 33.0497 73.3332 31.8883 73.2727C31.5539 73.2553 31.2494 73.2802 30.9957 73.364C29.8603 73.7383 29.8603 73.7383 29.8603 73.7383L31.9259 63.6545Z" stroke="#263238" stroke-width="0.5" stroke-miterlimit="10" stroke-linecap="round" stroke-linejoin="round"/>
<path d="M39.4397 64.3516C38.929 66.2149 40.2191 69.3208 41.127 70.0375" stroke="#263238" stroke-width="0.5" stroke-miterlimit="10" stroke-linecap="round" stroke-linejoin="round"/>
<path d="M43.8809 30.4473C43.8809 30.4473 43.6862 31.3311 42.9869 32.3784C42.2875 33.4257 42.0818 32.9408 41.5159 34.7974C40.95 36.6541 39.9993 37.2149 39.9993 37.2149C39.9993 37.2149 39.8934 37.0939 39.3703 36.5448C39.2848 36.4546 39.1877 36.3537 39.0788 36.2394C38.3021 35.4281 37.8105 36.4491 35.998 35.8628C34.2795 35.3055 34.4206 34.9658 32.5321 32.7216C32.4322 32.6273 31.3507 30.6658 29.6776 31.5024" stroke="#263238" stroke-width="0.5" stroke-miterlimit="10" stroke-linecap="round" stroke-linejoin="round"/>
<path d="M29.7444 31.8817C29.7444 31.8817 29.7444 31.8817 29.7463 31.8768C29.7487 31.8615 29.5105 31.8689 29.5839 31.5012C29.6752 31.0362 30.7954 29.7683 31.9591 28.8612C33.1246 27.9552 32.0059 28.5636 32.677 26.3229C33.1703 24.6759 35.1025 24.334 35.1025 24.334" stroke="#263238" stroke-width="0.5" stroke-miterlimit="10" stroke-linecap="round" stroke-linejoin="round"/>
<path d="M30.5869 33.2552C30.5869 33.2552 28.787 31.8387 29.8363 31.4192C31.2657 30.8476 32.001 32.2892 32.001 32.2892L30.5869 33.2552Z" fill="#263238" stroke="#263238" stroke-width="0.5" stroke-miterlimit="10" stroke-linecap="round" stroke-linejoin="round"/>
<path d="M35.0958 26.3223C35.2373 26.9449 33.1169 27.6849 31.9598 28.8609" stroke="#263238" stroke-width="0.5" stroke-miterlimit="10" stroke-linecap="round" stroke-linejoin="round"/>
<path d="M35.979 26.5176C36.0909 27.0105 35.6986 27.5192 35.102 27.6547" stroke="#263238" stroke-width="0.5" stroke-miterlimit="10" stroke-linecap="round" stroke-linejoin="round"/>
<path d="M22.9406 34.2058C22.1909 32.991 22.0368 31.5901 22.16 30.1953" stroke="#263238" stroke-width="0.5" stroke-miterlimit="10" stroke-linecap="round" stroke-linejoin="round"/>
<path d="M29.9394 43.9473C29.9394 43.9473 33.3401 46.297 34.1611 47.8878" stroke="#263238" stroke-width="0.5" stroke-miterlimit="10" stroke-linecap="round" stroke-linejoin="round"/>
<path d="M18 59.0367C18 59.2664 17.9483 59.4822 17.845 59.6843C17.7459 59.8863 17.5971 60.0563 17.3988 60.194C17.2045 60.3318 16.9731 60.4145 16.7045 60.442V61H16.3017V60.442C15.9132 60.4007 15.5992 60.2652 15.3595 60.0356C15.1198 59.806 15 59.5029 15 59.1263H15.7562C15.7686 59.3054 15.8202 59.4546 15.9112 59.5741C16.0021 59.6889 16.1322 59.7623 16.3017 59.7945V58.279C16.0248 58.2009 15.7996 58.1228 15.626 58.0448C15.4525 57.9621 15.3037 57.8335 15.1798 57.659C15.0599 57.4845 15 57.2457 15 56.9426C15 56.5614 15.1198 56.2468 15.3595 55.9989C15.5992 55.7463 15.9132 55.5993 16.3017 55.558V55H16.7045V55.558C17.0682 55.5947 17.3595 55.7233 17.5785 55.9437C17.8017 56.1596 17.9277 56.4581 17.9566 56.8393H17.2004C17.188 56.6969 17.1384 56.5706 17.0517 56.4604C16.9649 56.3456 16.8492 56.2675 16.7045 56.2262V57.7141C16.9814 57.7876 17.2066 57.8657 17.3802 57.9483C17.5537 58.0264 17.7004 58.1527 17.8202 58.3272C17.9401 58.4971 18 58.7336 18 59.0367ZM15.719 56.9013C15.719 57.0896 15.7686 57.2365 15.8678 57.3421C15.9711 57.4478 16.1157 57.5327 16.3017 57.597V56.2055C16.124 56.2285 15.9814 56.2997 15.874 56.4191C15.7707 56.5385 15.719 56.6992 15.719 56.9013ZM16.7045 59.7945C16.8864 59.7623 17.0289 59.682 17.1322 59.5534C17.2355 59.4202 17.2872 59.2618 17.2872 59.0781C17.2872 58.8944 17.2355 58.752 17.1322 58.651C17.0331 58.5454 16.8905 58.4604 16.7045 58.3961V59.7945Z" fill="black"/>
</svg>
