<svg width="259" height="248" viewBox="0 0 259 248" fill="none" xmlns="http://www.w3.org/2000/svg">
<path d="M124.903 4.38453C125.437 1.77337 128.156 0.238376 130.666 1.13347C147.316 7.0701 204.74 26.6806 254.258 33.2101C256.517 33.5078 258.09 35.5981 257.74 37.8486L228.932 222.675C228.537 225.21 226.171 226.949 223.635 226.57C202.884 223.463 117.491 210.363 88.0502 200.864C86.2583 200.286 85.1926 198.45 85.57 196.606L124.903 4.38453Z" fill="#BAC8FC"/>
<path opacity="0.6" d="M125.955 9.39054C126.469 6.87769 129.086 5.40052 131.502 6.26197C147.525 11.9751 202.786 30.8471 250.44 37.1307C252.613 37.4173 254.128 39.4288 253.79 41.5947L226.067 219.461C225.687 221.9 223.411 223.575 220.97 223.209C201.001 220.22 118.823 207.613 90.4906 198.472C88.7662 197.916 87.7407 196.149 88.1039 194.374L125.955 9.39054Z" fill="white"/>
<path opacity="0.78" d="M141.564 24.0596C140.086 23.6938 138.611 24.6675 138.367 26.1699L132.171 64.2496C131.965 65.5161 132.768 66.7269 134.015 67.0268C140.958 68.6958 162.609 73.8131 175.032 75.7623C176.437 75.9829 177.773 75.0901 178.113 73.7087C179.837 66.686 184.688 46.2101 184.89 37.2657C184.923 35.8209 183.943 34.5506 182.54 34.2033L141.564 24.0596Z" fill="white"/>
<path d="M159.278 52.943C163.854 52.943 167.563 49.2338 167.563 44.6583C167.563 40.0828 163.854 36.3736 159.278 36.3736C154.703 36.3736 150.994 40.0828 150.994 44.6583C150.994 49.2338 154.703 52.943 159.278 52.943Z" fill="url(#paint0_linear_396_529)"/>
<path d="M141.949 65.864L167.775 71.3071C169.359 71.6408 170.676 70.0923 170.105 68.5784C168.634 64.6835 165.107 58.6733 157.111 57.2256C149.403 55.8302 143.902 59.4283 140.931 62.2141C139.67 63.3967 140.257 65.5074 141.949 65.864Z" fill="url(#paint1_linear_396_529)"/>
<g opacity="0.6">
<path d="M240.952 51.2192C241.761 51.3897 242.526 50.9565 242.653 50.2563C242.779 49.5562 242.223 48.8322 241.418 48.6474L196.321 38.3004C195.515 38.1156 194.944 38.6348 195.052 39.4543L195.139 40.1149C195.247 40.9345 195.997 41.7445 196.806 41.915L240.952 51.2192Z" fill="#CBD5E1" fill-opacity="0.9"/>
</g>
<g opacity="0.6">
<path d="M194.839 45.33C194.033 45.1451 193.462 45.6643 193.57 46.4839L193.657 47.1446C193.765 47.9642 194.515 48.7742 195.324 48.9446L239.471 58.2489C240.28 58.4194 241.045 57.986 241.171 57.286C241.297 56.5859 240.742 55.8618 239.936 55.677L194.839 45.33Z" fill="#CBD5E1" fill-opacity="0.9"/>
</g>
<g opacity="0.6">
<path d="M193.335 52.4623C192.529 52.2774 191.958 52.7967 192.066 53.6163L192.153 54.277C192.261 55.0966 193.011 55.9065 193.82 56.077L237.967 65.3813C238.775 65.5518 239.541 65.1184 239.667 64.4184C239.793 63.7183 239.237 62.9942 238.432 62.8094L193.335 52.4623Z" fill="#CBD5E1" fill-opacity="0.9"/>
</g>
<g opacity="0.6">
<path d="M235.115 100.704C235.924 100.874 236.668 100.436 236.769 99.7311C236.87 99.0257 236.292 98.3038 235.484 98.1269L129.612 74.9404C128.804 74.7636 128.447 75.2235 128.817 75.9624L129.454 77.2333C129.825 77.9723 130.79 78.7163 131.599 78.8868L235.115 100.704Z" fill="#CBD5E1" fill-opacity="0.9"/>
</g>
<g opacity="0.6">
<path d="M128.13 81.9705C127.323 81.7937 126.965 82.2536 127.336 82.9925L127.973 84.2634C128.343 85.0024 129.308 85.7464 130.117 85.9169L233.634 107.734C234.443 107.904 235.187 107.467 235.288 106.761C235.389 106.056 234.81 105.334 234.003 105.157L128.13 81.9705Z" fill="#CBD5E1" fill-opacity="0.9"/>
</g>
<path opacity="0.6" d="M125.176 93.6075C127.767 93.9494 132.562 94.8652 135.198 95.3825C136.315 95.6017 137.132 96.5619 137.165 97.6998C137.229 99.9098 137.16 103.709 136.256 107.559C135.986 108.712 134.842 109.437 133.685 109.181L124.008 107.032C122.818 106.768 122.019 105.647 122.159 104.436L123.229 95.1316C123.34 94.169 124.216 93.4807 125.176 93.6075Z" fill="white"/>
<g opacity="0.6">
<path d="M142.324 101.135C141.523 100.931 140.828 101.439 140.779 102.264L140.684 103.877C140.636 104.703 141.258 105.517 142.067 105.688L165.624 110.653C166.433 110.823 167.226 110.299 167.386 109.488L167.465 109.089C167.625 108.278 167.101 107.448 166.3 107.244L142.324 101.135Z" fill="white"/>
</g>
<path opacity="0.6" d="M178.019 104.744C180.61 105.086 185.404 106.002 188.04 106.519C189.157 106.738 189.975 107.699 190.008 108.837C190.072 111.047 190.002 114.846 189.098 118.696C188.828 119.849 187.684 120.574 186.527 120.317L176.85 118.169C175.66 117.905 174.862 116.784 175.001 115.573L176.071 106.268C176.182 105.306 177.058 104.617 178.019 104.744Z" fill="white"/>
<g opacity="0.6">
<path d="M195.166 112.272C194.365 112.068 193.67 112.576 193.622 113.401L193.527 115.015C193.478 115.84 194.101 116.654 194.909 116.825L218.466 121.79C219.275 121.96 220.068 121.436 220.229 120.625L220.308 120.226C220.468 119.415 219.944 118.585 219.143 118.381L195.166 112.272Z" fill="white"/>
</g>
<path d="M131.233 132.695C131.225 132.693 131.217 132.692 131.208 132.69L122.276 130.718C121 130.436 120.13 129.333 120.252 128.154L121.048 120.478C121.095 120.028 121.323 119.621 121.692 119.332C122.105 119.01 122.656 118.869 123.204 118.945C123.969 119.053 125.05 119.186 126.194 119.327C128.604 119.624 131.603 119.995 133.265 120.323C134.469 120.571 135.339 121.497 135.402 122.605C135.505 124.427 134.776 127.681 133.955 131.139C133.688 132.262 132.47 132.956 131.233 132.695ZM123.106 119.641C122.746 119.59 122.388 119.68 122.125 119.886C121.908 120.055 121.774 120.292 121.747 120.551L120.951 128.226C120.865 129.051 121.5 129.827 122.428 130.032L131.36 132.004C131.366 132.005 131.372 132.007 131.378 132.008C132.245 132.191 133.092 131.731 133.271 130.977C134.08 127.571 134.798 124.372 134.701 122.644C134.657 121.87 134.002 121.199 133.129 121.012C131.492 120.689 128.507 120.32 126.108 120.024C124.961 119.883 123.877 119.749 123.106 119.641Z" fill="white"/>
<path opacity="0.6" d="M123.906 120.619C125.813 120.887 129.987 121.333 131.931 121.718C132.754 121.88 133.37 122.528 133.412 123.281C133.495 124.743 132.864 127.49 132.263 130.021C132.083 130.778 131.255 131.239 130.402 131.051L123.264 129.475C122.386 129.281 121.782 128.527 121.865 127.729L122.501 121.595C122.567 120.961 123.199 120.52 123.906 120.619Z" fill="white"/>
<g opacity="0.6">
<path d="M140.146 129.365C140.198 130.403 140.947 131.272 141.965 131.478L224.926 148.225C225.865 148.415 226.777 147.8 226.954 146.859C227.126 145.944 226.538 145.059 225.628 144.863L142.893 127.031C141.432 126.717 140.071 127.873 140.146 129.365Z" fill="white"/>
</g>
<path d="M124.039 121.877C124.786 121.627 125.592 122.04 125.825 122.792L126.924 126.329C127.034 126.683 127.5 126.76 127.719 126.461L134.152 117.635C134.473 117.195 135.162 117.512 135.042 118.043C134.369 121.016 132.383 126.517 126.619 130.257C126.619 130.257 124.208 128.683 123.073 123.595C122.909 122.859 123.325 122.116 124.039 121.877Z" fill="url(#paint2_linear_396_529)"/>
<path d="M127.19 151.878C127.182 151.876 127.173 151.875 127.165 151.873L118.233 149.901C116.957 149.619 116.087 148.516 116.209 147.337L117.005 139.661C117.052 139.211 117.28 138.804 117.649 138.515C118.061 138.193 118.612 138.052 119.161 138.128C119.926 138.236 121.007 138.369 122.151 138.51C124.561 138.808 127.56 139.178 129.222 139.506C129.234 139.509 129.246 139.511 129.258 139.514C130.435 139.762 131.297 140.692 131.359 141.788C131.462 143.61 130.733 146.864 129.912 150.322C129.645 151.445 128.427 152.139 127.19 151.878ZM119.063 138.824C118.703 138.773 118.345 138.863 118.082 139.069C117.865 139.238 117.73 139.475 117.704 139.734L116.908 147.409C116.822 148.234 117.457 149.01 118.385 149.215L127.317 151.187C127.323 151.188 127.329 151.19 127.335 151.191C128.202 151.374 129.049 150.914 129.228 150.16C130.037 146.754 130.755 143.555 130.658 141.827C130.614 141.053 129.951 140.363 129.086 140.195C127.449 139.872 124.464 139.503 122.065 139.207C120.918 139.066 119.834 138.932 119.063 138.824Z" fill="white"/>
<path opacity="0.6" d="M119.863 139.802C121.77 140.07 125.944 140.516 127.887 140.901C128.711 141.063 129.327 141.711 129.369 142.464C129.452 143.926 128.821 146.673 128.22 149.203C128.04 149.961 127.212 150.422 126.359 150.234L119.221 148.658C118.343 148.464 117.739 147.71 117.822 146.912L118.458 140.778C118.524 140.144 119.156 139.703 119.863 139.802Z" fill="white"/>
<g opacity="0.6">
<path d="M136.103 148.549C136.155 149.586 136.904 150.456 137.922 150.661L220.883 167.409C221.822 167.598 222.734 166.984 222.911 166.043C223.083 165.128 222.495 164.242 221.585 164.046L138.85 146.215C137.389 145.9 136.028 147.057 136.103 148.549Z" fill="white"/>
</g>
<path d="M119.996 141.06C120.743 140.81 121.549 141.223 121.782 141.975L122.881 145.511C122.991 145.865 123.457 145.943 123.676 145.643L130.109 136.818C130.43 136.377 131.119 136.694 130.999 137.226C130.326 140.198 128.34 145.699 122.576 149.44C122.576 149.44 120.165 147.866 119.029 142.777C118.865 142.042 119.282 141.299 119.996 141.06Z" fill="url(#paint3_linear_396_529)"/>
<path d="M123.147 171.061C123.139 171.059 123.13 171.058 123.122 171.056L114.19 169.084C112.914 168.802 112.044 167.7 112.166 166.52L112.962 158.845C113.008 158.394 113.237 157.987 113.606 157.698C114.019 157.376 114.57 157.235 115.118 157.311C115.883 157.419 116.964 157.552 118.108 157.693C120.518 157.991 123.517 158.361 125.179 158.689C125.191 158.692 125.203 158.694 125.215 158.697C126.392 158.945 127.254 159.875 127.316 160.971C127.419 162.793 126.69 166.047 125.869 169.505C125.602 170.628 124.384 171.322 123.147 171.061ZM115.02 158.007C114.66 157.956 114.302 158.046 114.039 158.251C113.822 158.421 113.687 158.658 113.66 158.917L112.864 166.592C112.779 167.417 113.414 168.193 114.341 168.398L123.274 170.37C123.28 170.371 123.286 170.373 123.292 170.374C124.159 170.557 125.006 170.097 125.185 169.342C125.994 165.937 126.712 162.738 126.615 161.01C126.571 160.236 125.909 159.544 125.043 159.378C123.406 159.055 120.421 158.686 118.022 158.39C116.875 158.249 115.791 158.115 115.02 158.007Z" fill="white"/>
<path opacity="0.6" d="M115.82 158.985C117.727 159.253 121.901 159.699 123.844 160.083C124.668 160.246 125.284 160.894 125.326 161.647C125.409 163.109 124.778 165.855 124.177 168.386C123.997 169.144 123.169 169.605 122.316 169.417L115.178 167.84C114.3 167.647 113.696 166.893 113.779 166.095L114.415 159.961C114.481 159.326 115.113 158.886 115.82 158.985Z" fill="white"/>
<g opacity="0.6">
<path d="M132.059 167.731C132.111 168.768 132.86 169.638 133.878 169.844L216.84 186.591C217.779 186.78 218.691 186.166 218.868 185.225C219.04 184.31 218.452 183.425 217.542 183.229L134.806 165.397C133.346 165.082 131.985 166.239 132.059 167.731Z" fill="white"/>
</g>
<path d="M115.953 160.243C116.7 159.993 117.506 160.406 117.739 161.158L118.838 164.695C118.948 165.048 119.414 165.126 119.632 164.826L126.066 156.001C126.387 155.561 127.076 155.878 126.956 156.409C126.283 159.381 124.297 164.883 118.533 168.623C118.533 168.623 116.122 167.049 114.986 161.96C114.822 161.225 115.239 160.482 115.953 160.243Z" fill="url(#paint4_linear_396_529)"/>
<path d="M119.104 190.244C119.096 190.242 119.087 190.241 119.079 190.239L110.147 188.267C108.871 187.985 108 186.883 108.123 185.703L108.919 178.028C108.965 177.577 109.194 177.17 109.563 176.881C109.975 176.558 110.526 176.417 111.075 176.494C111.84 176.602 112.921 176.735 114.065 176.876C116.475 177.173 119.474 177.543 121.136 177.872C121.148 177.875 121.16 177.877 121.172 177.879C122.349 178.127 123.211 179.058 123.273 180.153C123.376 181.976 122.647 185.23 121.826 188.688C121.559 189.811 120.341 190.505 119.104 190.244ZM110.977 177.19C110.617 177.139 110.259 177.228 109.996 177.434C109.778 177.604 109.644 177.84 109.617 178.1L108.821 185.775C108.736 186.6 109.371 187.376 110.298 187.581L119.231 189.553C119.237 189.554 119.243 189.555 119.249 189.557C120.116 189.74 120.963 189.28 121.142 188.525C121.951 185.12 122.669 181.921 122.571 180.193C122.527 179.419 121.866 178.724 121 178.561C119.362 178.237 116.378 177.869 113.979 177.573C112.832 177.432 111.748 177.298 110.977 177.19Z" fill="white"/>
<path opacity="0.6" d="M111.776 178.168C113.684 178.436 117.858 178.882 119.801 179.266C120.625 179.429 121.24 180.077 121.283 180.83C121.365 182.292 120.735 185.038 120.134 187.569C119.954 188.327 119.125 188.788 118.273 188.6L111.135 187.023C110.257 186.83 109.653 186.076 109.736 185.278L110.372 179.144C110.437 178.509 111.069 178.069 111.776 178.168Z" fill="white"/>
<g opacity="0.6">
<path d="M128.016 186.915C128.068 187.952 128.817 188.822 129.835 189.027L212.797 205.774C213.735 205.964 214.648 205.349 214.824 204.408C214.996 203.493 214.408 202.608 213.498 202.412L130.763 184.58C129.303 184.266 127.941 185.422 128.016 186.915Z" fill="#D4D5D7" fill-opacity="0.77"/>
</g>
<path d="M111.91 179.426C112.656 179.176 113.462 179.589 113.696 180.341L114.794 183.878C114.904 184.232 115.371 184.309 115.589 184.009L122.022 175.184C122.343 174.744 123.033 175.061 122.913 175.592C122.239 178.564 120.254 184.066 114.489 187.806C114.489 187.806 112.079 186.232 110.943 181.143C110.779 180.408 111.196 179.665 111.91 179.426Z" fill="url(#paint5_linear_396_529)"/>
<path d="M0.0943199 29.3156C-0.451585 26.7069 1.43486 24.2189 4.09437 24.0442C21.7329 22.8856 82.2238 18.096 130.267 4.43702C132.458 3.81408 134.732 5.10813 135.303 7.31312L182.213 188.394C182.856 190.877 181.375 193.412 178.896 194.071C158.617 199.454 75.0377 221.319 44.2446 224.285C42.3705 224.466 40.6637 223.204 40.2781 221.361L0.0943199 29.3156Z" fill="#BAC8FC"/>
<path opacity="0.6" d="M3.04827 33.4922C2.52298 30.9817 4.33829 28.5874 6.89772 28.4193C23.872 27.3042 82.085 22.695 128.319 9.55036C130.428 8.95094 132.616 10.1963 133.166 12.3182L178.309 186.58C178.928 188.97 177.503 191.41 175.117 192.043C155.601 197.224 75.1695 218.266 45.5361 221.12C43.7325 221.294 42.09 220.079 41.7189 218.306L3.04827 33.4922Z" fill="white"/>
<path opacity="0.78" d="M21.0993 43.9682L30.5247 81.3797C30.8382 82.624 32.0558 83.4166 33.32 83.1968C40.3547 81.9734 62.2582 78.0781 74.4345 74.937C75.8118 74.5817 76.6843 73.2318 76.4475 71.8292C75.2436 64.6987 71.57 43.9793 68.2056 35.6892C67.6622 34.3501 66.2585 33.573 64.833 33.8111L23.1964 40.7624C21.6949 41.0131 20.7274 42.4921 21.0993 43.9682Z" fill="white"/>
<path d="M55.8991 53.202C56.2102 48.637 52.7618 44.6842 48.1968 44.373C43.6318 44.0619 39.6789 47.5103 39.3677 52.0752C39.0566 56.6402 42.505 60.593 47.0701 60.9042C51.6351 61.2153 55.5879 57.7669 55.8991 53.202Z" fill="#4768E0"/>
<path d="M40.1402 78.9808L66.006 73.7273C67.5918 73.4052 68.1863 71.4611 67.061 70.2983C64.1657 67.3068 58.5431 63.1899 50.6284 65.0347C43.0003 66.8127 39.3792 72.2984 37.7575 76.0346C37.0691 77.6207 38.4459 79.3249 40.1402 78.9808Z" fill="#4768E0"/>
<g opacity="0.6">
<path d="M125.201 26.2477C126.011 26.0832 126.542 25.3818 126.38 24.6891C126.218 23.9965 125.42 23.5524 124.607 23.7025L79.1076 32.1027C78.2947 32.2527 77.9768 32.9559 78.4011 33.6653L78.7431 34.2372C79.1674 34.9466 80.1774 35.3924 80.9874 35.2278L125.201 26.2477Z" fill="white"/>
</g>
<g opacity="0.6">
<path d="M80.5383 39.1429C79.7254 39.293 79.4075 39.9962 79.8318 40.7056L80.1739 41.2774C80.5981 41.9869 81.6081 42.4327 82.4182 42.2681L126.632 33.2879C127.442 33.1234 127.973 32.422 127.811 31.7293C127.649 31.0366 126.851 30.5926 126.038 30.7427L80.5383 39.1429Z" fill="white"/>
</g>
<g opacity="0.6">
<path d="M81.9871 46.2865C81.1742 46.4365 80.8563 47.1398 81.2805 47.8491L81.6226 48.421C82.0469 49.1304 83.0569 49.5762 83.8669 49.4117L128.081 40.4315C128.891 40.2669 129.421 39.5655 129.259 38.8728C129.097 38.1802 128.3 37.7361 127.487 37.8863L81.9871 46.2865Z" fill="white"/>
</g>
<g opacity="0.6">
<path d="M139.483 73.9847C140.293 73.8202 140.802 73.1231 140.615 72.4356C140.427 71.7481 139.61 71.315 138.798 71.4731L32.4186 92.2081C31.6073 92.3662 31.4616 92.9303 32.0949 93.4615L33.1841 94.3751C33.8175 94.9063 34.9984 95.2064 35.8085 95.0419L139.483 73.9847Z" fill="#CBD5E1" fill-opacity="0.9"/>
</g>
<g opacity="0.6">
<path d="M33.8473 99.2491C33.036 99.4073 32.8902 99.9713 33.5236 100.503L34.6128 101.416C35.2461 101.947 36.4271 102.247 37.2371 102.083L140.911 81.0258C141.722 80.8612 142.231 80.1641 142.043 79.4766C141.856 78.7891 141.039 78.356 140.227 78.5141L33.8473 99.2491Z" fill="#CBD5E1" fill-opacity="0.9"/>
</g>
<path opacity="0.6" d="M35.7559 111.102C38.2699 110.388 43.0337 109.326 45.6586 108.754C46.7709 108.512 47.9027 109.069 48.3845 110.1C49.3203 112.103 50.764 115.618 51.4628 119.511C51.6721 120.677 50.9097 121.796 49.7464 122.02L40.0108 123.888C38.8136 124.118 37.6363 123.406 37.2835 122.239L34.5733 113.274C34.293 112.347 34.824 111.367 35.7559 111.102Z" fill="#CBD5E1" fill-opacity="0.9"/>
<g opacity="0.6">
<path d="M54.4829 111.206C53.6667 111.336 53.2303 112.079 53.5134 112.855L54.0668 114.374C54.3498 115.15 55.2441 115.651 56.0542 115.487L79.6471 110.695C80.4571 110.53 80.977 109.735 80.8024 108.927L80.7165 108.529C80.5419 107.721 79.7311 107.167 78.9149 107.298L54.4829 111.206Z" fill="white"/>
</g>
<path opacity="0.6" d="M88.6788 100.353C91.1927 99.6386 95.9565 98.5766 98.5814 98.0052C99.6938 97.763 100.826 98.3199 101.307 99.3513C102.243 101.354 103.687 104.869 104.386 108.762C104.595 109.928 103.832 111.047 102.669 111.27L92.9336 113.139C91.7363 113.369 90.559 112.657 90.2063 111.49L87.4961 102.525C87.2158 101.597 87.7469 100.618 88.6788 100.353Z" fill="white"/>
<g opacity="0.6">
<path d="M107.405 100.457C106.588 100.588 106.152 101.33 106.435 102.106L106.988 103.625C107.271 104.402 108.166 104.903 108.976 104.738L132.569 99.9461C133.379 99.7815 133.899 98.9859 133.724 98.1779L133.638 97.7805C133.464 96.9725 132.653 96.4183 131.837 96.5488L107.405 100.457Z" fill="white"/>
</g>
<path d="M56.8277 144.577C56.8196 144.578 56.8114 144.58 56.8031 144.582L47.8217 146.316C46.5385 146.564 45.3023 145.897 44.9463 144.766L42.6307 137.405C42.4947 136.973 42.5434 136.509 42.7671 136.098C43.0177 135.638 43.4674 135.289 44.0011 135.142C44.7459 134.937 45.7911 134.631 46.8975 134.306C49.2273 133.623 52.127 132.772 53.7829 132.414C54.9863 132.163 56.1528 132.669 56.6496 133.66C57.4673 135.292 58.0901 138.568 58.7083 142.068C58.9094 143.205 58.067 144.325 56.8277 144.577ZM44.1878 135.82C43.8369 135.916 43.5439 136.14 43.3841 136.434C43.2522 136.676 43.2226 136.946 43.3008 137.194L45.6164 144.555C45.8652 145.346 46.7561 145.807 47.6887 145.627L56.6702 143.892C56.6761 143.891 56.6821 143.89 56.6882 143.888C57.5568 143.712 58.1517 142.954 58.017 142.19C57.408 138.744 56.7972 135.522 56.0218 133.975C55.6743 133.281 54.8073 132.926 53.9317 133.101C52.3004 133.454 49.4145 134.3 47.0955 134.98C45.986 135.306 44.938 135.613 44.1878 135.82Z" fill="#CBD5E1" fill-opacity="0.9"/>
<path opacity="0.6" d="M45.3091 136.4C47.1661 135.889 51.1745 134.642 53.1107 134.224C53.9311 134.046 54.7535 134.397 55.0913 135.071C55.7473 136.38 56.2584 139.151 56.711 141.713C56.8465 142.48 56.2693 143.232 55.4117 143.397L48.2343 144.783C47.3517 144.954 46.4984 144.502 46.2575 143.736L44.407 137.854C44.2157 137.245 44.6209 136.59 45.3091 136.4Z" fill="white"/>
<g opacity="0.6">
<path d="M63.6865 137.984C64.1459 138.915 65.1785 139.416 66.1944 139.201L148.989 121.648C149.926 121.45 150.519 120.523 150.308 119.59C150.103 118.682 149.212 118.102 148.299 118.284L65.2814 134.751C63.816 135.042 63.0255 136.644 63.6865 137.984Z" fill="white"/>
</g>
<path d="M60.7294 163.789C60.7214 163.79 60.7131 163.792 60.7049 163.794L51.7235 165.528C50.4403 165.776 49.2041 165.11 48.848 163.978L46.5325 156.617C46.3965 156.185 46.4451 155.721 46.6688 155.31C46.9194 154.85 47.3692 154.502 47.903 154.354C48.6477 154.15 49.6929 153.843 50.7993 153.518C53.1291 152.835 56.0288 151.985 57.6847 151.626C57.6968 151.624 57.7088 151.621 57.7208 151.619C58.8996 151.379 60.0596 151.891 60.5515 152.872C61.3692 154.504 61.9919 157.78 62.6102 161.28C62.8111 162.417 61.9688 163.537 60.7294 163.789ZM48.0896 155.032C47.7386 155.128 47.4456 155.352 47.2858 155.646C47.1539 155.888 47.1245 156.158 47.2025 156.406L49.5181 163.767C49.7669 164.558 50.6578 165.019 51.5905 164.839L60.5718 163.104C60.5777 163.103 60.5837 163.102 60.5898 163.1C61.4585 162.924 62.0534 162.166 61.9186 161.402C61.3096 157.956 60.6989 154.734 59.9235 153.187C59.5759 152.494 58.6946 152.123 57.8332 152.313C56.2021 152.665 53.3161 153.512 50.9973 154.192C49.8877 154.518 48.8397 154.825 48.0896 155.032Z" fill="#CBD5E1" fill-opacity="0.9"/>
<path opacity="0.6" d="M49.2121 155.612C51.0691 155.101 55.0775 153.854 57.0137 153.436C57.8341 153.258 58.6565 153.609 58.9942 154.283C59.6502 155.592 60.1614 158.363 60.6139 160.925C60.7494 161.692 60.1722 162.443 59.3146 162.609L52.1373 163.995C51.2546 164.166 50.4013 163.714 50.1604 162.948L48.3099 157.066C48.1186 156.457 48.5237 155.802 49.2121 155.612Z" fill="white"/>
<g opacity="0.6">
<path d="M67.5874 157.196C68.0468 158.127 69.0794 158.628 70.0953 158.413L152.89 140.86C153.827 140.662 154.42 139.736 154.209 138.802C154.004 137.894 153.113 137.315 152.2 137.496L69.1823 153.963C67.7169 154.254 66.9264 155.856 67.5874 157.196Z" fill="white"/>
</g>
<path d="M64.6311 183.001C64.623 183.002 64.6148 183.004 64.6065 183.006L55.6251 184.74C54.3419 184.988 53.1059 184.322 52.7498 183.191L50.4342 175.83C50.2982 175.397 50.3468 174.933 50.5707 174.522C50.8213 174.062 51.2709 173.714 51.8046 173.566C52.5494 173.362 53.5945 173.055 54.701 172.73C57.0308 172.047 59.9305 171.196 61.5864 170.838C61.5985 170.836 61.6105 170.833 61.6225 170.831C62.8014 170.591 63.9613 171.103 64.4531 172.084C65.2708 173.716 65.8936 176.992 66.5118 180.492C66.7127 181.629 65.8704 182.749 64.6311 183.001ZM51.9912 174.244C51.6403 174.34 51.3473 174.564 51.1875 174.858C51.0555 175.1 51.026 175.37 51.1043 175.619L53.4199 182.98C53.6687 183.77 54.5596 184.231 55.492 184.051L64.4736 182.316C64.4795 182.315 64.4855 182.314 64.4915 182.312C65.3602 182.136 65.9551 181.378 65.8204 180.614C65.2114 177.168 64.6005 173.946 63.8252 172.399C63.4776 171.706 62.5958 171.333 61.7349 171.525C60.1038 171.878 57.2179 172.724 54.899 173.404C53.7894 173.73 52.7414 174.037 51.9912 174.244Z" fill="#CBD5E1" fill-opacity="0.9"/>
<path opacity="0.6" d="M53.1138 174.824C54.9708 174.313 58.9792 173.066 60.9154 172.648C61.7358 172.47 62.5582 172.821 62.8959 173.495C63.552 174.804 64.0631 177.575 64.5157 180.137C64.6512 180.904 64.074 181.656 63.2164 181.821L56.039 183.207C55.1564 183.378 54.3031 182.926 54.0621 182.16L52.2117 176.278C52.0203 175.669 52.4255 175.014 53.1138 174.824Z" fill="white"/>
<g opacity="0.6">
<path d="M71.4908 176.408C71.9502 177.339 72.9828 177.84 73.9987 177.625L156.794 160.072C157.73 159.874 158.324 158.948 158.113 158.014C157.907 157.106 157.016 156.527 156.103 156.708L73.0858 173.175C71.6203 173.466 70.8298 175.068 71.4908 176.408Z" fill="white"/>
</g>
<path d="M68.534 202.213C68.5259 202.214 68.5177 202.216 68.5094 202.218L59.528 203.952C58.2448 204.2 57.0088 203.534 56.6527 202.403L54.3371 195.042C54.2011 194.609 54.2497 194.145 54.4736 193.734C54.7242 193.274 55.1738 192.926 55.7075 192.778C56.4523 192.574 57.4974 192.267 58.6039 191.942C60.9337 191.259 63.8334 190.408 65.4893 190.05C65.5014 190.048 65.5134 190.045 65.5254 190.043C66.7043 189.803 67.8642 190.315 68.356 191.296C69.1737 192.928 69.7965 196.204 70.4147 199.704C70.6157 200.841 69.7733 201.961 68.534 202.213ZM55.8941 193.456C55.5431 193.552 55.2502 193.776 55.0904 194.07C54.9585 194.312 54.9289 194.582 55.0072 194.831L57.3228 202.192C57.5716 202.983 58.4624 203.443 59.3948 203.263L68.3765 201.528C68.3824 201.527 68.3884 201.526 68.3945 201.524C69.2631 201.348 69.858 200.59 69.7233 199.826C69.1143 196.38 68.5035 193.158 67.7281 191.611C67.3805 190.918 66.4983 190.543 65.6378 190.737C64.0067 191.09 61.1207 191.936 58.8019 192.616C57.6923 192.942 56.6443 193.249 55.8941 193.456Z" fill="white"/>
<path opacity="0.6" d="M57.0156 194.036C58.8725 193.525 62.881 192.278 64.8172 191.86C65.6376 191.682 66.46 192.033 66.7977 192.707C67.4538 194.016 67.9649 196.787 68.4175 199.349C68.553 200.116 67.9758 200.868 67.1182 201.033L59.9408 202.419C59.0582 202.59 58.2049 202.138 57.9639 201.372L56.1135 195.49C55.9221 194.881 56.3272 194.226 57.0156 194.036Z" fill="white"/>
<g opacity="0.6">
<path d="M75.3919 195.619C75.8513 196.551 76.8839 197.052 77.8998 196.837L160.695 179.284C161.631 179.085 162.225 178.159 162.014 177.225C161.809 176.317 160.917 175.738 160.004 175.919L76.9869 192.387C75.5214 192.678 74.731 194.28 75.3919 195.619Z" fill="white"/>
</g>
<path d="M57.6364 195.138C58.2226 194.612 59.1263 194.671 59.639 195.269L62.0508 198.079C62.2923 198.361 62.7512 198.246 62.8327 197.885L65.2351 187.231C65.355 186.7 66.1137 186.717 66.2141 187.252C66.7758 190.248 67.1364 196.085 63.3299 201.806C63.3299 201.806 60.4928 201.318 57.4307 197.098C56.9884 196.488 57.0757 195.641 57.6364 195.138Z" fill="url(#paint6_linear_396_529)"/>
<path d="M54.3748 47.8738C54.3748 40.0385 60.7266 33.6867 68.5619 33.6867H189.21C195.866 33.6867 201.355 38.9028 201.693 45.5503L210.599 220.468C210.864 225.67 206.769 230.057 201.561 230.152L63.2828 232.665C58.3894 232.754 54.3748 228.812 54.3748 223.918V47.8738Z" fill="#3354CC"/>
<path d="M64.2593 36.3787C64.2445 33.8718 66.4492 31.9316 68.9333 32.2685C85.409 34.5027 142.064 41.4129 188.906 37.8172C191.042 37.6532 192.896 39.2717 193.01 41.4111L202.348 217.108C202.476 219.517 200.636 221.578 198.228 221.72C178.527 222.886 97.393 227.393 68.4536 224.362C66.6923 224.177 65.3553 222.694 65.3449 220.923L64.2593 36.3787Z" fill="#BAC8FC"/>
<path opacity="0.6" d="M66.1997 40.7816C66.1854 38.3691 68.3071 36.502 70.6977 36.8262C86.5529 38.9763 141.075 45.6263 186.153 42.1658C188.209 42.008 189.993 43.5656 190.102 45.6245L199.088 214.706C199.212 217.024 197.441 219.007 195.124 219.144C176.165 220.266 98.0856 224.603 70.236 221.686C68.541 221.508 67.2544 220.081 67.2443 218.377L66.1997 40.7816Z" fill="white"/>
<path opacity="0.78" d="M80.8772 53.8175L82.5611 90.0669C82.6172 91.2725 83.5911 92.2311 84.7975 92.2651C91.511 92.4545 112.43 92.9647 124.242 92.3489C125.578 92.2793 126.635 91.1983 126.679 89.8612C126.905 83.0631 127.398 63.2767 125.848 55.0054C125.598 53.6692 124.45 52.6903 123.091 52.6427L83.4104 51.2551C81.9796 51.205 80.8108 52.3873 80.8772 53.8175Z" fill="white"/>
<path d="M103.711 74.57C108.015 74.57 111.503 71.0812 111.503 66.7775C111.503 62.4738 108.015 58.985 103.711 58.985C99.4072 58.985 95.9183 62.4738 95.9183 66.7775C95.9183 71.0812 99.4072 74.57 103.711 74.57Z" fill="#4768E0"/>
<path d="M91.8746 89.6561H116.7C118.223 89.6561 119.134 87.9754 118.315 86.6929C116.206 83.3933 111.794 78.5459 104.153 78.7646C96.7889 78.9754 92.424 83.354 90.2298 86.4942C89.2983 87.8274 90.2483 89.6561 91.8746 89.6561Z" fill="#4768E0"/>
<g opacity="0.6">
<path d="M180.153 56.9732C180.931 56.9732 181.551 56.4259 181.531 55.7571C181.512 55.0882 180.86 54.5297 180.082 54.5159L136.569 53.7405C135.792 53.7266 135.367 54.3153 135.625 55.0487L135.834 55.6398C136.092 56.3732 136.939 56.9732 137.717 56.9732H180.153Z" fill="#CBD5E1" fill-opacity="0.9"/>
</g>
<g opacity="0.6">
<path d="M136.57 60.4979C135.792 60.484 135.368 61.0727 135.626 61.8061L135.834 62.3972C136.092 63.1306 136.94 63.7306 137.717 63.7306H180.154C180.931 63.7306 181.551 63.1833 181.532 62.5145C181.512 61.8456 180.86 61.2871 180.083 61.2733L136.57 60.4979Z" fill="#CBD5E1" fill-opacity="0.9"/>
</g>
<g opacity="0.6">
<path d="M136.57 67.3538C135.792 67.3399 135.368 67.9287 135.626 68.662L135.834 69.2532C136.092 69.9865 136.94 70.5865 137.717 70.5865H180.154C180.931 70.5865 181.551 70.0393 181.532 69.3704C181.512 68.7016 180.86 68.143 180.083 68.1291L136.57 67.3538Z" fill="#CBD5E1" fill-opacity="0.9"/>
</g>
<g opacity="0.6">
<path d="M184.379 103.65C185.156 103.65 185.756 103.103 185.712 102.434C185.668 101.765 184.996 101.213 184.218 101.207L82.2785 100.403C81.5011 100.397 81.2612 100.89 81.7455 101.498L82.5784 102.544C83.0628 103.152 84.0952 103.65 84.8726 103.65L184.379 103.65Z" fill="#CBD5E1" fill-opacity="0.9"/>
</g>
<g opacity="0.6">
<path d="M82.2785 107.161C81.5011 107.154 81.2612 107.647 81.7455 108.255L82.5784 109.301C83.0628 109.91 84.0952 110.407 84.8726 110.407H184.379C185.156 110.407 185.756 109.86 185.712 109.191C185.668 108.522 184.996 107.97 184.218 107.964L82.2785 107.161Z" fill="#CBD5E1" fill-opacity="0.9"/>
</g>
<path d="M81.8185 118.444C84.2695 118.256 88.8595 118.169 91.386 118.133C92.4567 118.118 93.3956 118.844 93.6467 119.885C94.1343 121.906 94.807 125.416 94.7223 129.135C94.6969 130.249 93.7846 131.138 92.6705 131.126L83.3468 131.026C82.2001 131.014 81.2482 130.137 81.1416 128.995L80.3219 120.224C80.237 119.317 80.9099 118.513 81.8185 118.444Z" fill="#3354CC"/>
<g opacity="0.6">
<path d="M99.0616 122.046C98.2848 122.013 97.7437 122.616 97.8592 123.385L98.0849 124.888C98.2004 125.657 98.931 126.286 99.7085 126.286H122.353C123.13 126.286 123.759 125.65 123.749 124.873L123.744 124.49C123.734 123.713 123.091 123.05 122.314 123.018L99.0616 122.046Z" fill="#CBD5E1" fill-opacity="0.9"/>
</g>
<path d="M132.614 118.444C135.065 118.256 139.655 118.169 142.182 118.133C143.252 118.118 144.191 118.844 144.442 119.885C144.93 121.906 145.603 125.416 145.518 129.135C145.493 130.249 144.58 131.138 143.466 131.126L134.142 131.026C132.996 131.014 132.044 130.137 131.937 128.995L131.118 120.224C131.033 119.317 131.706 118.513 132.614 118.444Z" fill="#3354CC"/>
<g opacity="0.6">
<path d="M149.856 122.046C149.079 122.013 148.538 122.616 148.654 123.385L148.879 124.888C148.995 125.657 149.725 126.286 150.503 126.286H173.147C173.925 126.286 174.553 125.65 174.543 124.873L174.538 124.49C174.529 123.713 173.885 123.05 173.108 123.018L149.856 122.046Z" fill="#D4D5D7" fill-opacity="0.77"/>
</g>
<path d="M94.9751 153.244C94.9673 153.244 94.9595 153.244 94.9516 153.244L86.3481 153.161C85.1189 153.149 84.1042 152.304 83.9878 151.194L83.2315 143.976C83.1871 143.552 83.3187 143.133 83.6019 142.796C83.919 142.419 84.3988 142.182 84.9184 142.146C85.6432 142.097 86.664 142.01 87.7446 141.918C90.0201 141.724 92.8522 141.483 94.4456 141.463C95.6017 141.457 96.5824 142.142 96.8548 143.148C97.3031 144.805 97.2637 147.942 97.1783 151.284C97.1508 152.369 96.1647 153.244 94.9751 153.244ZM84.9636 142.806C84.622 142.829 84.3101 142.98 84.1077 143.221C83.9408 143.42 83.863 143.663 83.8885 143.907L84.6447 151.125C84.726 151.901 85.461 152.492 86.3544 152.501L94.958 152.583C94.9636 152.583 94.9694 152.583 94.9752 152.583C95.8089 152.583 96.4993 151.996 96.518 151.267C96.6019 147.976 96.6421 144.892 96.2171 143.321C96.0265 142.616 95.2939 142.126 94.4541 142.124C92.8844 142.144 90.0657 142.384 87.8009 142.576C86.7173 142.669 85.6937 142.756 84.9636 142.806Z" fill="#CBD5E1" fill-opacity="0.9"/>
<path opacity="0.6" d="M85.8892 143.551C87.6967 143.427 91.6249 143.028 93.488 143.005C94.2775 142.995 94.9699 143.472 95.155 144.157C95.5146 145.486 95.467 148.137 95.4045 150.582C95.3859 151.315 94.7131 151.9 93.8916 151.892L87.0162 151.826C86.1707 151.818 85.4687 151.241 85.39 150.49L84.7855 144.722C84.7231 144.125 85.2192 143.597 85.8892 143.551Z" fill="white"/>
<g opacity="0.6">
<path d="M102.531 148.451C102.78 149.396 103.638 150.051 104.615 150.043L184.219 149.364C185.12 149.356 185.84 148.614 185.821 147.713C185.801 146.838 185.088 146.137 184.213 146.133L104.607 145.77C103.202 145.764 102.173 147.093 102.531 148.451Z" fill="#CBD5E1" fill-opacity="0.9"/>
</g>
<path d="M86.2557 144.683C86.8944 144.308 87.7164 144.532 88.0772 145.178L89.7742 148.22C89.9441 148.525 90.3885 148.505 90.5314 148.187L94.7404 138.817C94.9503 138.349 95.6465 138.508 95.6388 139.02C95.5958 141.886 94.8354 147.334 90.2556 151.895C90.2556 151.895 87.7317 150.914 85.6993 146.451C85.4056 145.806 85.6448 145.041 86.2557 144.683Z" fill="#3354CC"/>
<path d="M94.9751 171.684C94.9673 171.684 94.9595 171.684 94.9516 171.684L86.3481 171.601C85.1189 171.589 84.1042 170.743 83.9878 169.634L83.2315 162.415C83.1871 161.992 83.3187 161.573 83.6019 161.236C83.919 160.859 84.3988 160.622 84.9184 160.586C85.6432 160.537 86.664 160.45 87.7446 160.358C90.0201 160.164 92.8522 159.923 94.4456 159.903C94.4572 159.903 94.4689 159.903 94.4803 159.903C95.6118 159.903 96.5851 160.592 96.8548 161.588C97.3031 163.245 97.2637 166.382 97.1783 169.724C97.1508 170.809 96.1647 171.684 94.9751 171.684ZM84.9636 161.245C84.622 161.269 84.3101 161.42 84.1077 161.661C83.9408 161.859 83.863 162.103 83.8885 162.346L84.6447 169.565C84.726 170.34 85.461 170.932 86.3544 170.94L94.958 171.023C94.9636 171.023 94.9694 171.023 94.9752 171.023C95.8089 171.023 96.4993 170.436 96.518 169.707C96.6019 166.416 96.6421 163.332 96.2171 161.76C96.0265 161.056 95.2834 160.55 94.4539 160.563C92.8843 160.583 90.0656 160.823 87.8009 161.016C86.7173 161.108 85.6937 161.195 84.9636 161.245Z" fill="#CBD5E1" fill-opacity="0.9"/>
<path opacity="0.6" d="M85.8892 161.99C87.6967 161.867 91.6249 161.468 93.488 161.445C94.2775 161.435 94.9699 161.912 95.155 162.596C95.5146 163.926 95.467 166.576 95.4045 169.022C95.3859 169.755 94.7131 170.339 93.8916 170.331L87.0162 170.265C86.1707 170.257 85.4687 169.681 85.39 168.93L84.7855 163.161C84.7231 162.565 85.2192 162.036 85.8892 161.99Z" fill="white"/>
<g opacity="0.6">
<path d="M102.531 166.89C102.78 167.835 103.638 168.49 104.615 168.482L184.219 167.803C185.12 167.795 185.84 167.053 185.821 166.152C185.801 165.277 185.088 164.576 184.213 164.572L104.607 164.209C103.202 164.203 102.173 165.531 102.531 166.89Z" fill="#CBD5E1" fill-opacity="0.9"/>
</g>
<path d="M86.2557 163.122C86.8944 162.748 87.7164 162.971 88.0772 163.618L89.7742 166.66C89.9441 166.965 90.3885 166.945 90.5314 166.627L94.7404 157.257C94.9503 156.789 95.6465 156.947 95.6388 157.46C95.5958 160.326 94.8354 165.774 90.2556 170.335C90.2556 170.335 87.7317 169.354 85.6993 164.891C85.4056 164.246 85.6448 163.481 86.2557 163.122Z" fill="#3354CC"/>
<path d="M94.9751 190.123C94.9673 190.123 94.9595 190.123 94.9516 190.123L86.3481 190.041C85.1189 190.029 84.1042 189.184 83.9878 188.074L83.2315 180.855C83.1871 180.431 83.3187 180.012 83.6021 179.675C83.9193 179.298 84.3989 179.061 84.9185 179.025C85.6433 178.976 86.6641 178.889 87.7447 178.797C90.0202 178.603 92.8523 178.362 94.4457 178.342C94.4573 178.342 94.469 178.342 94.4804 178.342C95.6118 178.342 96.5852 179.031 96.8549 180.027C97.3032 181.684 97.2638 184.821 97.1784 188.163C97.1508 189.248 96.1647 190.123 94.9751 190.123ZM84.9636 179.685C84.622 179.708 84.3101 179.86 84.1077 180.1C83.9408 180.299 83.863 180.542 83.8885 180.786L84.6447 188.005C84.726 188.78 85.461 189.372 86.3542 189.38L94.9579 189.463C94.9635 189.463 94.9693 189.463 94.9751 189.463C95.8088 189.463 96.4992 188.875 96.5179 188.146C96.6018 184.855 96.642 181.771 96.217 180.2C96.0264 179.496 95.2833 178.987 94.4538 179.003C92.8842 179.023 90.0655 179.263 87.8008 179.455C86.7173 179.548 85.6937 179.635 84.9636 179.685Z" fill="#CBD5E1" fill-opacity="0.9"/>
<path opacity="0.6" d="M85.8892 180.43C87.6967 180.307 91.6249 179.908 93.488 179.884C94.2775 179.875 94.9699 180.352 95.155 181.036C95.5146 182.366 95.467 185.016 95.4045 187.462C95.3859 188.194 94.7131 188.779 93.8916 188.771L87.0162 188.705C86.1707 188.697 85.4687 188.12 85.39 187.37L84.7855 181.601C84.7231 181.004 85.2192 180.476 85.8892 180.43Z" fill="white"/>
<g opacity="0.6">
<path d="M102.531 185.33C102.78 186.275 103.638 186.93 104.615 186.922L184.219 186.243C185.12 186.235 185.84 185.493 185.821 184.592C185.801 183.717 185.088 183.016 184.213 183.012L104.607 182.649C103.202 182.643 102.173 183.971 102.531 185.33Z" fill="#CBD5E1" fill-opacity="0.9"/>
</g>
<path d="M86.2557 181.562C86.8944 181.187 87.7164 181.411 88.0772 182.058L89.7742 185.1C89.9441 185.404 90.3885 185.385 90.5314 185.067L94.7404 175.696C94.9503 175.229 95.6465 175.387 95.6388 175.899C95.5958 178.765 94.8354 184.214 90.2556 188.774C90.2556 188.774 87.7317 187.793 85.6993 183.33C85.4056 182.686 85.6448 181.921 86.2557 181.562Z" fill="#3354CC"/>
<path d="M94.9751 208.563C94.9673 208.563 94.9595 208.563 94.9516 208.563L86.3481 208.48C85.1189 208.469 84.1042 207.623 83.9878 206.514L83.2315 199.295C83.1871 198.871 83.3187 198.452 83.6021 198.115C83.9193 197.738 84.3989 197.501 84.9185 197.465C85.6433 197.416 86.6641 197.329 87.7447 197.237C90.0202 197.043 92.8523 196.802 94.4457 196.782C94.4573 196.782 94.469 196.782 94.4804 196.782C95.6118 196.782 96.5852 197.471 96.8549 198.467C97.3032 200.124 97.2638 203.261 97.1784 206.603C97.1508 207.688 96.1647 208.563 94.9751 208.563ZM84.9636 198.125C84.622 198.148 84.3101 198.299 84.1077 198.54C83.9408 198.738 83.863 198.982 83.8885 199.226L84.6447 206.445C84.726 207.22 85.461 207.811 86.3542 207.82L94.9579 207.902C94.9635 207.902 94.9693 207.902 94.9751 207.902C95.8088 207.902 96.4992 207.315 96.5179 206.586C96.6018 203.295 96.642 200.211 96.217 198.639C96.0264 197.935 95.2833 197.425 94.4538 197.443C92.8842 197.462 90.0655 197.702 87.8008 197.895C86.7173 197.987 85.6937 198.075 84.9636 198.125Z" fill="#CBD5E1" fill-opacity="0.9"/>
<path opacity="0.6" d="M85.8892 198.87C87.6967 198.746 91.6249 198.347 93.488 198.324C94.2775 198.314 94.9699 198.791 95.155 199.476C95.5146 200.806 95.467 203.456 95.4045 205.902C95.3859 206.634 94.7131 207.219 93.8916 207.211L87.0162 207.145C86.1707 207.137 85.4687 206.56 85.39 205.809L84.7855 200.041C84.7231 199.444 85.2192 198.916 85.8892 198.87Z" fill="white"/>
<g opacity="0.6">
<path d="M102.531 203.77C102.78 204.714 103.638 205.37 104.615 205.361L184.219 204.683C185.12 204.675 185.84 203.932 185.821 203.032C185.801 202.157 185.088 201.456 184.213 201.452L104.607 201.089C103.202 201.082 102.173 202.411 102.531 203.77Z" fill="#CBD5E1" fill-opacity="0.9"/>
</g>
<path d="M86.2557 200.002C86.8944 199.627 87.7164 199.851 88.0772 200.497L89.7742 203.539C89.9441 203.844 90.3885 203.824 90.5314 203.507L94.7404 194.136C94.9503 193.669 95.6465 193.827 95.6388 194.339C95.5958 197.205 94.8354 202.653 90.2556 207.214C90.2556 207.214 87.7317 206.233 85.6993 201.77C85.4056 201.125 85.6448 200.36 86.2557 200.002Z" fill="#3354CC"/>
<path d="M136.617 8.64234C132.259 5.61058 128.47 5.67065 125.802 6.45779C123.369 7.17576 121.792 9.52507 122.023 12.0516L123.174 24.608L136.863 25.8228C136.863 25.8228 145.164 14.5882 136.617 8.64234ZM130.597 18.7723C128.712 18.7723 127.184 17.2441 127.184 15.359C127.184 13.4739 128.712 11.9456 130.597 11.9456C132.482 11.9456 134.011 13.4739 134.011 15.359C134.011 17.2441 132.482 18.7723 130.597 18.7723Z" fill="#1E293B"/>
<path d="M124.293 20.5213C124.124 20.5213 123.98 20.3926 123.964 20.2209L123.781 18.2213C123.764 18.0397 123.898 17.879 124.08 17.8623C124.265 17.8449 124.422 17.9794 124.439 18.1613L124.622 20.161C124.639 20.3426 124.505 20.5032 124.323 20.52C124.313 20.5209 124.302 20.5213 124.293 20.5213ZM123.934 16.6026C123.765 16.6026 123.621 16.4739 123.605 16.3022L123.466 14.7842C123.245 12.3774 124.76 10.1365 127.067 9.45551C128.701 8.97324 130.384 8.90427 132.07 9.24999C132.248 9.28645 132.364 9.46122 132.327 9.63994C132.29 9.81838 132.117 9.93253 131.937 9.89701C130.358 9.57378 128.782 9.63798 127.254 10.0889C125.248 10.6809 123.932 12.6302 124.124 14.7241L124.263 16.2422C124.28 16.4238 124.146 16.5844 123.964 16.6012C123.954 16.6022 123.944 16.6026 123.934 16.6026Z" fill="white"/>
<path d="M104.242 33.9175V27.6046C104.242 25.4254 106.048 23.68 108.226 23.7546L151.751 25.2458C153.682 25.312 155.247 26.8367 155.362 28.766L155.726 34.8317L104.242 33.9175Z" fill="#1E293B"/>
<path d="M120.472 26.1335H118.6C118.417 26.1335 118.269 25.9858 118.269 25.8033C118.269 25.6207 118.417 25.4729 118.6 25.4729H120.472C120.654 25.4729 120.802 25.6206 120.802 25.8033C120.802 25.9858 120.654 26.1335 120.472 26.1335Z" fill="white"/>
<path d="M106.599 31.9355C106.416 31.9355 106.268 31.7878 106.268 31.6051V29.0513C106.268 27.0781 107.874 25.4729 109.847 25.4729H116.728C116.911 25.4729 117.059 25.6206 117.059 25.8033C117.059 25.9858 116.911 26.1335 116.728 26.1335H109.847C108.238 26.1335 106.929 27.4426 106.929 29.0512V31.605C106.929 31.7877 106.781 31.9355 106.599 31.9355Z" fill="white"/>
<path d="M167.249 75.1538L157.003 66.7991L146.757 75.1538C147.574 67.2953 147.955 58.5277 147.522 49.0131C147.385 45.9827 147.172 43.0478 146.899 40.2136C146.864 39.8496 146.985 39.4875 147.231 39.2169C147.477 38.9462 147.826 38.7925 148.192 38.7925C154.135 38.7925 160.078 38.7925 166.021 38.7925C166.71 38.7925 167.28 39.332 167.316 40.0205C167.544 44.3735 167.691 48.8779 167.741 53.5251C167.821 61.1057 167.632 68.3278 167.249 75.1538Z" fill="#4768E0"/>
<path d="M86.5081 35.5116C86.6132 33.3255 88.4161 31.607 90.6048 31.607L166.716 31.6049C169.453 31.6049 171.793 33.5743 172.26 36.271L172.324 36.6431C172.835 39.5968 170.561 42.2984 167.564 42.2984H89.4777C87.6837 42.2984 86.2541 40.7984 86.3402 39.0066L86.5081 35.5116Z" fill="#3354CC"/>
<path d="M219.38 246.211C215.393 246.394 211.534 246.279 208.957 246.146C211.303 244.476 216.708 240.843 221.231 239.397L224.336 239.211C224.336 239.211 225.388 240.811 225.764 244.473C225.249 245.114 223.745 246.01 219.38 246.211Z" fill="url(#paint7_linear_396_529)"/>
<path d="M208.925 246.169C208.936 246.162 208.947 246.154 208.957 246.146C211.534 246.279 215.394 246.394 219.381 246.21C223.745 246.01 225.249 245.114 225.764 244.472C225.781 244.641 225.799 244.809 225.813 244.986C225.878 245.79 225.281 246.495 224.477 246.556C221.212 246.803 213.116 247.362 209.211 247.157C208.696 247.13 208.505 246.468 208.925 246.169Z" fill="url(#paint8_linear_396_529)"/>
<path d="M247.898 245.143C248.189 243.272 248.658 240.566 249.019 239.874C249.587 238.789 251.53 239.874 251.53 239.874C251.53 239.874 252.894 240.51 253.521 241.57C253.922 242.246 255.028 244.168 255.778 245.473C255.864 245.624 255.9 245.783 255.896 245.938L248.116 246.21C247.926 245.905 247.837 245.533 247.898 245.143Z" fill="url(#paint9_linear_396_529)"/>
<path d="M255.896 245.938C255.883 246.383 255.531 246.786 255.034 246.799L249.492 246.952C248.907 246.968 248.4 246.664 248.117 246.21L255.896 245.938Z" fill="url(#paint10_linear_396_529)"/>
<path d="M247.303 233.653C247.37 233.877 248.376 238.75 248.816 240.889C248.937 241.48 249.47 241.895 250.073 241.865C250.402 241.848 250.785 241.819 251.186 241.767C251.899 241.675 252.442 241.08 252.469 240.362C252.54 238.488 252.575 234.891 251.887 233.497C250.939 231.575 247.303 233.653 247.303 233.653Z" fill="url(#paint11_linear_396_529)"/>
<path d="M224.946 235.048C224.515 235.034 225.118 237.274 224.466 239.475C224.319 239.972 223.948 240.362 223.43 240.368C223.094 240.373 222.696 240.366 222.293 240.334C221.685 240.285 221.198 239.814 221.141 239.207L220.611 233.497L224.946 235.048Z" fill="url(#paint12_linear_396_529)"/>
<path d="M212.887 174.35C213.079 175.287 219.871 214.905 220.283 235.405C220.29 235.749 220.543 236.037 220.884 236.085C221.746 236.205 223.425 236.36 225.054 236.058C225.276 236.016 225.444 235.833 225.459 235.606C225.696 231.786 227.605 199.486 225.267 184.28C225.267 184.28 244.58 224.926 247.507 236.134C247.578 236.407 247.829 236.59 248.11 236.575C248.937 236.532 250.657 236.383 252.023 235.88C252.513 235.7 252.791 235.186 252.668 234.679C251.032 227.971 239.57 181.76 231.787 171.578L212.887 174.35Z" fill="black"/>
<path d="M225.268 184.534C225.332 184.534 225.396 184.51 225.445 184.461C225.545 184.364 225.547 184.203 225.449 184.103L222.863 181.458C222.765 181.358 222.605 181.357 222.505 181.455C222.404 181.552 222.403 181.713 222.501 181.813L225.087 184.458C225.136 184.508 225.202 184.534 225.268 184.534Z" fill="url(#paint13_linear_396_529)"/>
<path d="M206.355 123.225C212.133 122.356 223.473 121.112 230.87 123.282L230.068 146.144L203.269 143.255L200.996 140.024C200.996 140.024 202.049 123.872 206.355 123.225Z" fill="#3354CC"/>
<path d="M219.702 110.986C219.702 110.986 220.237 120.079 220.136 122.908C220.136 122.908 212.692 124.126 210.92 122.852L212.319 112.073L219.702 110.986Z" fill="url(#paint14_linear_396_529)"/>
<path d="M212.467 101.879C212.467 101.879 209.47 107.14 208.996 110.02C208.523 112.9 207.696 114.713 210.984 115.657C214.271 116.601 217.273 115.236 219.112 112.515C219.112 112.515 221.987 108.326 221.645 106.446C221.304 104.567 212.467 101.879 212.467 101.879Z" fill="url(#paint15_linear_396_529)"/>
<path d="M218.19 110.317L217.767 110.271C217.767 110.271 219.897 106.88 218.432 106.086C216.966 105.292 211.026 103.399 209.947 101.103C208.908 98.8895 210.323 96.3272 212.09 95.7577C212.202 95.7216 212.322 95.7853 212.365 95.8944L212.477 96.1737C212.553 96.365 212.823 96.3663 212.901 96.1759C212.975 95.9952 213.231 95.9816 213.316 96.1574C213.647 96.8451 214.621 98.0099 217.476 98.8612C221.527 100.069 224.08 102.036 223.84 104.9C223.824 105.082 224.007 105.202 224.172 105.125C224.497 104.972 224.995 104.937 225.588 105.556C226.621 106.633 225.89 109.058 223.182 110.827C223.054 110.911 223.035 111.096 223.154 111.193C223.573 111.535 224.17 112.306 222.328 113.05C220.443 113.811 219.399 113.593 219.012 113.449C218.908 113.41 218.846 113.304 218.865 113.195L219.294 110.68C219.316 110.55 219.224 110.428 219.093 110.414L218.19 110.317Z" fill="url(#paint16_linear_396_529)"/>
<path d="M218.029 110.835C218.029 110.835 219.326 107.407 220.8 108.566C222.275 109.725 219.554 112.429 218.269 112.424L218.029 110.835Z" fill="url(#paint17_linear_396_529)"/>
<path d="M185.929 141.109L186.64 138.315C186.991 136.934 188.366 136.071 189.763 136.356L256.69 150.011C258.214 150.322 259.194 151.814 258.873 153.336L254.792 172.677L185.929 141.109Z" fill="#BAC8FC"/>
<path d="M179.583 175.037L184.617 138.858C184.721 138.11 185.442 137.609 186.179 137.773L254.919 153.038C256.386 153.364 257.306 154.823 256.968 156.287L251.199 181.295L179.583 175.037Z" fill="white"/>
<path d="M181.399 173.398L183.327 141.106C183.377 140.276 184.153 139.684 184.967 139.856L254.429 154.555C255.408 154.762 256.054 155.7 255.897 156.689L252.197 180.015L181.399 173.398Z" fill="white"/>
<path d="M176.367 181.031L180.74 146.054C180.958 144.311 182.602 143.113 184.328 143.438L255.556 156.882C257.001 157.155 257.951 158.547 257.678 159.991L251.662 191.865C251.378 193.369 249.968 194.388 248.451 194.185L179.4 184.964C177.481 184.708 176.127 182.952 176.367 181.031Z" fill="#BAC8FC"/>
<path d="M209.392 148.169C209.112 149.653 207.682 150.629 206.198 150.349L190.316 147.352C188.832 147.072 187.856 145.641 188.136 144.157C188.416 142.673 189.846 141.697 191.33 141.978L207.212 144.975C208.696 145.255 209.672 146.685 209.392 148.169Z" fill="#BAC8FC"/>
<path d="M223.395 133.251L230.87 123.282C230.87 123.282 242.881 136.042 245.185 152.237L237.693 155.891C235.367 150.438 231.087 143.05 223.395 133.251Z" fill="#3354CC"/>
<path d="M234.105 178.157C234.99 176.675 236.719 173.855 237.56 172.974C237.56 172.974 236.791 172.489 235.317 172.67C233.842 172.851 232.687 172.132 232.731 171.329L239.767 169.171C240.083 168.51 241.476 164.762 237.693 155.891L245.185 152.237C246.048 158.3 245.553 164.844 242.554 171.382C242.554 171.382 240.227 178.608 237.554 180.211C230.578 184.397 233.765 178.725 234.105 178.157Z" fill="url(#paint18_linear_396_529)"/>
<defs>
<linearGradient id="paint0_linear_396_529" x1="172.035" y1="32.2479" x2="91.6778" y2="110.422" gradientUnits="userSpaceOnUse">
<stop stop-color="#FDF53F"/>
<stop offset="1" stop-color="#D93C65"/>
</linearGradient>
<linearGradient id="paint1_linear_396_529" x1="181.002" y1="41.4661" x2="100.646" y2="119.639" gradientUnits="userSpaceOnUse">
<stop stop-color="#FDF53F"/>
<stop offset="1" stop-color="#D93C65"/>
</linearGradient>
<linearGradient id="paint2_linear_396_529" x1="158.141" y1="90.3019" x2="95.9986" y2="158.677" gradientUnits="userSpaceOnUse">
<stop stop-color="#A737D5"/>
<stop offset="1" stop-color="#EF497A"/>
</linearGradient>
<linearGradient id="paint3_linear_396_529" x1="165.474" y1="96.9671" x2="103.332" y2="165.342" gradientUnits="userSpaceOnUse">
<stop stop-color="#A737D5"/>
<stop offset="1" stop-color="#EF497A"/>
</linearGradient>
<linearGradient id="paint4_linear_396_529" x1="168.457" y1="117.679" x2="90.6502" y2="188.854" gradientUnits="userSpaceOnUse">
<stop stop-color="#A737D5"/>
<stop offset="1" stop-color="#EF497A"/>
</linearGradient>
<linearGradient id="paint5_linear_396_529" x1="180.141" y1="110.298" x2="117.999" y2="178.673" gradientUnits="userSpaceOnUse">
<stop stop-color="#A737D5"/>
<stop offset="1" stop-color="#EF497A"/>
</linearGradient>
<linearGradient id="paint6_linear_396_529" x1="92.8362" y1="104.611" x2="62.927" y2="192.03" gradientUnits="userSpaceOnUse">
<stop stop-color="#A737D5"/>
<stop offset="1" stop-color="#EF497A"/>
</linearGradient>
<linearGradient id="paint7_linear_396_529" x1="225.818" y1="242.758" x2="208.695" y2="242.758" gradientUnits="userSpaceOnUse">
<stop stop-color="#090056"/>
<stop offset="1" stop-color="#020039"/>
</linearGradient>
<linearGradient id="paint8_linear_396_529" x1="195.728" y1="220.973" x2="231.401" y2="261.907" gradientUnits="userSpaceOnUse">
<stop stop-color="#090056"/>
<stop offset="1" stop-color="#020039"/>
</linearGradient>
<linearGradient id="paint9_linear_396_529" x1="255.896" y1="242.801" x2="247.879" y2="242.801" gradientUnits="userSpaceOnUse">
<stop stop-color="#090056"/>
<stop offset="1" stop-color="#020039"/>
</linearGradient>
<linearGradient id="paint10_linear_396_529" x1="215.273" y1="203.939" x2="250.947" y2="244.872" gradientUnits="userSpaceOnUse">
<stop stop-color="#090056"/>
<stop offset="1" stop-color="#020039"/>
</linearGradient>
<linearGradient id="paint11_linear_396_529" x1="252.505" y1="237.274" x2="247.303" y2="237.274" gradientUnits="userSpaceOnUse">
<stop stop-color="#FEBBBA"/>
<stop offset="1" stop-color="#FF928E"/>
</linearGradient>
<linearGradient id="paint12_linear_396_529" x1="224.946" y1="236.933" x2="220.611" y2="236.933" gradientUnits="userSpaceOnUse">
<stop stop-color="#FEBBBA"/>
<stop offset="1" stop-color="#FF928E"/>
</linearGradient>
<linearGradient id="paint13_linear_396_529" x1="214.166" y1="170.276" x2="231.911" y2="193.218" gradientUnits="userSpaceOnUse">
<stop stop-color="#CB236D"/>
<stop offset="1" stop-color="#4C246D"/>
</linearGradient>
<linearGradient id="paint14_linear_396_529" x1="215.895" y1="127.778" x2="215.216" y2="115.126" gradientUnits="userSpaceOnUse">
<stop stop-color="#FEBBBA"/>
<stop offset="1" stop-color="#FF928E"/>
</linearGradient>
<linearGradient id="paint15_linear_396_529" x1="211.44" y1="106.684" x2="224.046" y2="118.673" gradientUnits="userSpaceOnUse">
<stop stop-color="#FEBBBA"/>
<stop offset="1" stop-color="#FF928E"/>
</linearGradient>
<linearGradient id="paint16_linear_396_529" x1="207.977" y1="102.534" x2="242.5" y2="111.904" gradientUnits="userSpaceOnUse">
<stop stop-color="#090056"/>
<stop offset="1" stop-color="#020039"/>
</linearGradient>
<linearGradient id="paint17_linear_396_529" x1="213.383" y1="104.64" x2="225.989" y2="116.63" gradientUnits="userSpaceOnUse">
<stop stop-color="#FEBBBA"/>
<stop offset="1" stop-color="#FF928E"/>
</linearGradient>
<linearGradient id="paint18_linear_396_529" x1="233.122" y1="174.872" x2="253.959" y2="144.911" gradientUnits="userSpaceOnUse">
<stop stop-color="#FEBBBA"/>
<stop offset="1" stop-color="#FF928E"/>
</linearGradient>
</defs>
</svg>
