<svg width="214" height="165" viewBox="0 0 214 165" fill="none" xmlns="http://www.w3.org/2000/svg">
<path d="M111.327 100.498H108.293C104.227 100.498 100.918 97.1893 100.918 93.1227V83.0392C100.918 78.9726 104.227 75.6641 108.293 75.6641H111.327C115.394 75.6641 118.702 78.9726 118.702 83.0392V93.1227C118.702 97.1893 115.394 100.498 111.327 100.498ZM108.293 78.3291C105.696 78.3291 103.583 80.4419 103.583 83.0392V93.1227C103.583 95.72 105.696 97.8333 108.293 97.8333H111.327C113.924 97.8333 116.037 95.72 116.037 93.1227V83.0392C116.037 80.4419 113.924 78.3291 111.327 78.3291H108.293Z" fill="url(#paint0_linear_7082_3074)"/>
<path fill-rule="evenodd" clip-rule="evenodd" d="M122.926 111.902C122.926 113.149 121.906 114.168 120.66 114.168H98.9636C97.7171 114.168 96.6973 113.149 96.6973 111.902V90.8869C96.6973 89.6404 97.7171 88.6211 98.9636 88.6211H120.66C121.906 88.6211 122.926 89.641 122.926 90.8869V111.902Z" fill="url(#paint1_linear_7082_3074)"/>
<path d="M105.343 95.2578H96.6973V97.4489H105.343V95.2578Z" fill="url(#paint2_linear_7082_3074)"/>
<path d="M105.343 100.375H96.6973V102.566H105.343V100.375Z" fill="url(#paint3_linear_7082_3074)"/>
<path d="M105.343 105.488H96.6973V107.679H105.343V105.488Z" fill="url(#paint4_linear_7082_3074)"/>
<path d="M122.925 95.2578H114.279V97.4489H122.925V95.2578Z" fill="url(#paint5_linear_7082_3074)"/>
<path d="M122.925 100.375H114.279V102.566H122.925V100.375Z" fill="url(#paint6_linear_7082_3074)"/>
<path d="M122.925 105.488H114.279V107.679H122.925V105.488Z" fill="url(#paint7_linear_7082_3074)"/>
<path d="M48.1649 104.894C50.757 104.711 53.2952 106.65 53.8059 109.203L55.1296 114.178C55.9586 116.646 54.7308 119.605 52.4022 120.756L51.6745 121.118C49.3426 122.269 48.4032 125.107 49.582 127.426L53.284 133.789C54.7447 135.941 57.7057 136.512 59.8616 135.062L60.504 134.629C62.6605 133.175 65.8299 133.583 67.5545 135.532L71.1771 139.138C73.1299 140.853 73.55 144.028 72.1084 146.193L71.6798 146.834C70.2409 149.001 70.8257 151.956 72.9817 153.401L79.3503 157.074C81.6737 158.244 84.5051 157.29 85.6534 154.958L86.0106 154.226C87.1504 151.892 90.1055 150.651 92.5717 151.469L97.5127 152.765C100.062 153.264 102.014 155.799 101.844 158.395L101.797 159.187C101.629 161.783 103.609 164.122 106.194 164.386C106.194 164.386 106.938 164.461 109.737 164.461C112.643 164.461 113.568 164.362 113.568 164.362C116.15 164.09 118.122 161.747 117.946 159.152L117.891 158.362C117.721 155.767 119.665 153.229 122.212 152.72L127.147 151.399C129.61 150.571 132.566 151.802 133.719 154.134L134.079 154.861C135.232 157.193 138.072 158.139 140.385 156.957L146.735 153.25C148.885 151.789 149.461 148.831 148.017 146.67L147.591 146.037C146.141 143.877 146.551 140.699 148.492 138.974L152.099 135.353C153.812 133.396 156.988 132.979 159.147 134.422L159.789 134.85C161.95 136.293 164.906 135.709 166.353 133.551L170.028 127.172C171.198 124.848 170.25 122.014 167.913 120.868L167.18 120.508C164.843 119.363 163.604 116.408 164.425 113.94L165.727 108.986C166.224 106.434 168.757 104.485 171.352 104.65L172.154 104.699C174.746 104.866 177.083 102.888 177.345 100.298C177.345 100.298 177.419 99.5543 177.419 96.7501C177.419 93.8435 177.32 92.9074 177.32 92.9074C177.05 90.3223 174.708 88.3497 172.113 88.5257L171.324 88.5806C168.729 88.7581 166.194 86.8181 165.683 84.266L164.362 79.3181C163.538 76.853 164.769 73.891 167.095 72.7368L167.823 72.3743C170.152 71.2222 171.089 68.3796 169.91 66.0627L166.213 59.7031C164.758 57.5461 161.799 56.9735 159.64 58.4236L158.993 58.8618C156.833 60.3119 153.665 59.9041 151.942 57.9544L148.32 54.3426C146.364 52.6286 145.947 49.4549 147.391 47.2915L147.823 46.6443C149.262 44.482 148.677 41.5242 146.521 40.0768L140.149 36.3945C137.831 35.2222 135 36.1792 133.854 38.5132L133.495 39.2467C132.348 41.5834 129.399 42.8234 126.933 42.0014L121.981 40.7069C119.43 40.2063 117.482 37.6746 117.647 35.0809L117.7 34.277C117.867 31.6802 115.892 29.3478 113.308 29.0897C113.308 29.0897 112.553 29.0156 109.738 29.0156C106.843 29.0156 105.915 29.1143 105.915 29.1143C103.327 29.3851 101.364 31.7297 101.54 34.3239L101.595 35.1156C101.776 37.7071 99.8397 40.2453 97.2909 40.7533L92.3334 42.0755C89.8699 42.9002 86.9121 41.6687 85.7611 39.3363L85.4066 38.6214C84.2561 36.2879 81.4188 35.347 79.1035 36.5252L72.7396 40.2282C70.5864 41.6889 70.0122 44.6472 71.465 46.808L71.8882 47.4424C73.3442 49.6004 72.9348 52.7752 70.9905 54.4993L67.3839 58.1266C65.6705 60.081 62.5011 60.5001 60.3393 59.0585L59.6883 58.6267C57.5271 57.1846 54.5741 57.7732 53.1299 59.9334L49.4524 66.3138C48.2769 68.6344 49.2301 71.4642 51.5641 72.6078L52.3084 72.9703C54.6376 74.1149 55.876 77.0668 55.0545 79.5346L53.7584 84.4899C53.2584 87.042 50.726 88.9943 48.1367 88.8231L47.3322 88.7698C44.7391 88.6035 42.4046 90.5856 42.1439 93.1734C42.1439 93.1734 42.0645 93.9422 42.0645 96.7496C42.0645 99.6449 42.1631 100.57 42.1631 100.57C42.435 103.157 44.778 105.126 47.3727 104.946L48.1649 104.894ZM72.9747 96.7501C72.9747 76.4105 89.4327 59.951 109.737 59.951C130.045 59.9408 146.509 76.4222 146.509 96.7501C146.509 117.064 130.045 133.543 109.737 133.532C89.4327 133.533 72.9747 117.064 72.9747 96.7501Z" fill="url(#paint8_linear_7082_3074)"/>
<path d="M143.017 130.043C161.392 111.652 161.405 81.8364 143.014 63.4283C124.644 45.0421 94.8453 45.0447 76.4708 63.4363C58.0856 81.8263 58.0888 111.658 76.4591 130.044C94.8416 148.444 124.643 148.444 143.017 130.043ZM109.739 138.24C86.8416 138.24 68.2773 119.659 68.2773 96.7504C68.2773 73.8103 86.8416 55.2433 109.739 55.2433C132.642 55.2364 151.206 73.8263 151.206 96.7504C151.206 119.659 132.642 138.246 109.739 138.24Z" fill="url(#paint9_linear_7082_3074)"/>
<path d="M109.746 137.986C132.505 137.986 150.952 119.534 150.952 96.7352C150.952 73.9625 132.505 55.5 109.746 55.5C86.9834 55.4909 68.5332 73.9625 68.5332 96.7352C68.5332 119.523 86.9829 137.992 109.746 137.986ZM83.8732 122.633C69.5856 108.333 69.584 85.1505 83.8668 70.8544C98.1624 56.5449 121.321 56.5503 135.608 70.8507C149.904 85.1537 149.9 108.339 135.608 122.643C121.325 136.939 98.1613 136.944 83.8732 122.633Z" fill="url(#paint10_linear_7082_3074)"/>
<path d="M109.746 129.43C101.023 129.43 92.8214 126.028 86.6538 119.851C73.9223 107.108 73.9197 86.3755 86.6484 73.6361C92.8188 67.4594 101.02 64.0586 109.742 64.0586C118.463 64.0586 126.663 67.4588 132.831 73.6324C145.568 86.3739 145.568 107.112 132.831 119.86C126.665 126.031 118.467 129.43 109.746 129.43ZM109.742 65.1248C101.305 65.1248 93.3716 68.4153 87.4028 74.3894C75.0893 86.7141 75.092 106.77 87.4081 119.097C93.3748 125.073 101.308 128.364 109.746 128.364C118.182 128.364 126.112 125.076 132.077 119.106C144.397 106.774 144.397 86.7125 132.077 74.3862C126.109 68.4137 118.178 65.1248 109.742 65.1248Z" fill="url(#paint11_linear_7082_3074)"/>
<path d="M1.98694 125.952C2.8314 125.893 3.65827 126.525 3.8246 127.356L4.2559 128.977C4.52566 129.781 4.12582 130.745 3.36719 131.12L3.12995 131.238C2.37025 131.613 2.06424 132.538 2.44809 133.293L3.654 135.366C4.13008 136.066 5.09449 136.253 5.79661 135.781L6.00613 135.639C6.70825 135.165 7.7409 135.299 8.30281 135.934L9.4826 137.109C10.1186 137.667 10.2556 138.7 9.78595 139.406L9.64627 139.615C9.17766 140.321 9.36798 141.284 10.0701 141.755L12.145 142.952C12.9015 143.332 13.8238 143.021 14.198 142.262L14.3143 142.024C14.6859 141.264 15.6481 140.859 16.4515 141.125L18.061 141.548C18.8916 141.71 19.5276 142.536 19.4717 143.381L19.4567 143.639C19.4018 144.485 20.0469 145.246 20.8892 145.332C20.8892 145.332 21.1318 145.357 22.0429 145.357C22.9897 145.357 23.2909 145.325 23.2909 145.325C24.1317 145.236 24.7741 144.473 24.717 143.628L24.6989 143.37C24.6435 142.525 25.2773 141.698 26.1063 141.532L27.7137 141.102C28.516 140.832 29.4789 141.233 29.8547 141.993L29.972 142.23C30.3473 142.99 31.2728 143.298 32.0261 142.913L34.0941 141.705C34.7946 141.228 34.9823 140.266 34.5121 139.561L34.3734 139.355C33.9011 138.651 34.0344 137.616 34.6667 137.054L35.8416 135.874C36.3998 135.237 37.4341 135.102 38.1373 135.572L38.3462 135.711C39.05 136.181 40.0128 135.991 40.4846 135.288L41.6814 133.21C42.0626 132.453 41.7539 131.53 40.9927 131.157L40.7538 131.039C39.9925 130.666 39.5889 129.704 39.8566 128.899L40.2804 127.286C40.4425 126.454 41.2672 125.82 42.1127 125.874L42.374 125.89C43.2184 125.944 43.9797 125.3 44.065 124.456C44.065 124.456 44.089 124.213 44.089 123.3C44.089 122.353 44.057 122.048 44.057 122.048C43.9691 121.206 43.2062 120.564 42.3606 120.621L42.1053 120.638C41.2603 120.695 40.4339 120.065 40.2676 119.232L39.8374 117.621C39.5692 116.818 39.9696 115.854 40.7277 115.477L40.9644 115.359C41.723 114.984 42.0285 114.058 41.6441 113.303L40.4398 111.231C39.9659 110.529 39.002 110.342 38.2988 110.815L38.0877 110.957C37.3845 111.43 36.3524 111.297 35.791 110.662L34.6107 109.485C33.9736 108.927 33.8377 107.894 34.3084 107.188L34.4491 106.977C34.9177 106.273 34.7274 105.31 34.0253 104.838L31.9493 103.638C31.1944 103.256 30.2721 103.568 29.899 104.328L29.7817 104.567C29.4085 105.328 28.4478 105.732 27.6444 105.465L26.0317 105.043C25.2006 104.879 24.5662 104.055 24.62 103.21L24.6371 102.948C24.6914 102.102 24.0485 101.342 23.2067 101.258C23.2067 101.258 22.9604 101.234 22.0434 101.234C21.1004 101.234 20.7981 101.266 20.7981 101.266C19.9552 101.354 19.316 102.118 19.373 102.963L19.3906 103.221C19.4498 104.065 18.8191 104.892 17.9891 105.057L16.3742 105.488C15.5719 105.757 14.608 105.356 14.2332 104.596L14.1181 104.363C13.7433 103.603 12.8189 103.296 12.0645 103.681L9.99173 104.887C9.29068 105.363 9.10302 106.326 9.57643 107.03L9.71451 107.237C10.189 107.939 10.0557 108.974 9.42183 109.536L8.24683 110.718C7.68866 111.354 6.65654 111.491 5.95228 111.021L5.74064 110.88C5.03638 110.41 4.07464 110.602 3.60442 111.306L2.4065 113.384C2.02372 114.14 2.334 115.062 3.09423 115.435L3.3368 115.553C4.09543 115.926 4.499 116.887 4.23137 117.691L3.80914 119.305C3.64601 120.137 2.82127 120.772 1.97734 120.717L1.71558 120.699C0.871117 120.645 0.110356 121.29 0.0255899 122.134C0.0255899 122.134 0 122.384 0 123.299C0 124.242 0.0325208 124.543 0.0325208 124.543C0.121019 125.386 0.884446 126.027 1.72944 125.969L1.98694 125.952ZM10.7205 123.3C10.7205 117.034 15.7899 111.964 22.044 111.964C28.2991 111.961 33.3701 117.038 33.3701 123.3C33.3701 129.556 28.2991 134.632 22.044 134.629C15.7899 134.629 10.7205 129.556 10.7205 123.3Z" fill="url(#paint12_linear_7082_3074)"/>
<path d="M32.2934 133.558C37.953 127.893 37.9573 118.709 32.2923 113.04C26.6343 107.376 17.4556 107.377 11.796 113.042C6.1332 118.707 6.13426 127.895 11.7923 133.559C17.4545 139.226 26.6338 139.226 32.2934 133.558ZM22.0431 136.083C14.9904 136.083 9.27221 130.36 9.27221 123.304C9.27221 116.238 14.9904 110.518 22.0431 110.518C29.0979 110.516 34.8156 116.242 34.8156 123.304C34.8161 130.36 29.0973 136.085 22.0431 136.083Z" fill="url(#paint13_linear_7082_3074)"/>
<path d="M22.0457 136.008C29.0557 136.008 34.7382 130.325 34.7382 123.303C34.7382 116.288 29.0562 110.602 22.0457 110.602C15.0346 110.598 9.35156 116.288 9.35156 123.303C9.35156 130.322 15.0346 136.01 22.0457 136.008ZM14.0766 131.28C9.6757 126.875 9.67516 119.734 14.0745 115.331C18.478 110.923 25.6112 110.925 30.0121 115.33C34.4157 119.736 34.4141 126.876 30.0121 131.283C25.6123 135.686 18.4775 135.688 14.0766 131.28Z" fill="url(#paint14_linear_7082_3074)"/>
<path d="M22.0447 132.485C19.5945 132.485 17.2915 131.529 15.5588 129.794C11.9837 126.215 11.9826 120.393 15.5577 116.815C17.2904 115.08 19.594 114.125 22.0442 114.125C24.4934 114.125 26.7959 115.08 28.5286 116.814C32.1058 120.393 32.1058 126.217 28.5286 129.797C26.797 131.53 24.4944 132.485 22.0447 132.485ZM22.0442 114.658C19.7369 114.658 17.5676 115.558 15.9347 117.192C12.568 120.562 12.5685 126.046 15.9363 129.418C17.5681 131.052 19.7374 131.951 22.0447 131.951C24.3516 131.951 26.5203 131.053 28.1511 129.42C31.5204 126.048 31.5204 120.562 28.1511 117.192C26.5198 115.558 24.3505 114.658 22.0442 114.658Z" fill="url(#paint15_linear_7082_3074)"/>
<path d="M162.732 16.0273C156.701 23.5667 124.66 32.2363 124.66 32.2363C124.66 32.2363 125.414 53.3457 128.052 71.8167C130.691 90.2872 162.732 99.7112 162.732 99.7112C162.732 99.7112 194.774 90.2878 197.412 71.8167C200.051 53.3463 200.805 32.2363 200.805 32.2363C200.805 32.2363 168.764 23.5667 162.732 16.0273Z" fill="url(#paint16_linear_7082_3074)"/>
<path d="M162.732 16.0273V99.7117C162.732 99.7117 194.774 90.2878 197.412 71.8167C200.051 53.3463 200.805 32.2363 200.805 32.2363C200.805 32.2363 168.764 23.5667 162.732 16.0273Z" fill="url(#paint17_linear_7082_3074)"/>
<path d="M163.034 68.3746L152.365 58.4335L154.973 55.6352L162.967 63.0823L184.349 42.0977L187.029 44.8288L163.034 68.3746Z" fill="white"/>
<path d="M179.9 58.8439C179.744 68.2465 172.059 75.8509 162.621 75.8509C153.084 75.8509 145.326 68.0924 145.326 58.557C145.326 49.0211 153.084 41.2637 162.621 41.2637C166.886 41.2637 170.788 42.8231 173.807 45.3922L176.511 42.6877C172.794 39.4298 167.941 37.4375 162.621 37.4375C150.975 37.4375 141.5 46.9116 141.5 58.5565C141.5 70.2025 150.975 79.6766 162.621 79.6766C174.267 79.6766 183.74 70.2025 183.74 58.5565C183.74 57.4407 183.627 56.3526 183.46 55.2832L179.9 58.8439Z" fill="white"/>
<path d="M109.016 32.0084C109.016 36.1118 105.659 39.4694 101.556 39.4694H50.0264C45.9245 39.4694 42.5664 36.1118 42.5664 32.0084C42.5664 27.905 45.9245 24.5469 50.0264 24.5469H101.556C105.659 24.5469 109.016 27.905 109.016 32.0084Z" fill="url(#paint18_linear_7082_3074)"/>
<path d="M61.834 28.4141V29.6523C61.834 29.8685 61.8262 30.0742 61.8105 30.2695C61.7975 30.4648 61.7871 30.6029 61.7793 30.6836H61.8418C61.9355 30.5326 62.0462 30.4102 62.1738 30.3164C62.304 30.2227 62.4473 30.1536 62.6035 30.1094C62.7598 30.0651 62.9277 30.043 63.1074 30.043C63.4225 30.043 63.6973 30.099 63.9316 30.2109C64.166 30.3203 64.3483 30.4935 64.4785 30.7305C64.6087 30.9648 64.6738 31.2695 64.6738 31.6445V34.4922H63.4824V31.9414C63.4824 31.6289 63.4251 31.3932 63.3105 31.2344C63.196 31.0755 63.0189 30.9961 62.7793 30.9961C62.5397 30.9961 62.3509 31.0521 62.2129 31.1641C62.0749 31.2734 61.9772 31.4362 61.9199 31.6523C61.8626 31.8659 61.834 32.1276 61.834 32.4375V34.4922H60.6426V28.4141H61.834ZM67.7402 33.6211C67.8704 33.6211 67.9967 33.6081 68.1191 33.582C68.2441 33.556 68.3678 33.5234 68.4902 33.4844V34.3711C68.3626 34.4284 68.2038 34.4753 68.0137 34.5117C67.8262 34.5508 67.6204 34.5703 67.3965 34.5703C67.1361 34.5703 66.9017 34.5286 66.6934 34.4453C66.4876 34.3594 66.3249 34.2122 66.2051 34.0039C66.0879 33.793 66.0293 33.5 66.0293 33.125V31.0195H65.459V30.5156L66.1152 30.1172L66.459 29.1953H67.2207V30.125H68.4434V31.0195H67.2207V33.125C67.2207 33.2917 67.2676 33.4167 67.3613 33.5C67.4577 33.5807 67.584 33.6211 67.7402 33.6211ZM71.2168 33.6211C71.347 33.6211 71.4733 33.6081 71.5957 33.582C71.7207 33.556 71.8444 33.5234 71.9668 33.4844V34.3711C71.8392 34.4284 71.6803 34.4753 71.4902 34.5117C71.3027 34.5508 71.097 34.5703 70.873 34.5703C70.6126 34.5703 70.3783 34.5286 70.1699 34.4453C69.9642 34.3594 69.8014 34.2122 69.6816 34.0039C69.5645 33.793 69.5059 33.5 69.5059 33.125V31.0195H68.9355V30.5156L69.5918 30.1172L69.9355 29.1953H70.6973V30.125H71.9199V31.0195H70.6973V33.125C70.6973 33.2917 70.7441 33.4167 70.8379 33.5C70.9342 33.5807 71.0605 33.6211 71.2168 33.6211ZM75.2832 30.043C75.7754 30.043 76.1725 30.2344 76.4746 30.6172C76.7793 31 76.9316 31.5612 76.9316 32.3008C76.9316 32.7956 76.86 33.2122 76.7168 33.5508C76.5736 33.8867 76.3757 34.1406 76.123 34.3125C75.8704 34.4844 75.5801 34.5703 75.252 34.5703C75.041 34.5703 74.86 34.5443 74.709 34.4922C74.5579 34.4375 74.429 34.3685 74.3223 34.2852C74.2155 34.1992 74.123 34.1081 74.0449 34.0117H73.9824C74.0033 34.1159 74.0189 34.2227 74.0293 34.332C74.0397 34.4414 74.0449 34.5482 74.0449 34.6523V36.4141H72.8535V30.125H73.8223L73.9902 30.6914H74.0449C74.123 30.5742 74.2181 30.4661 74.3301 30.3672C74.4421 30.2682 74.5762 30.1901 74.7324 30.1328C74.8913 30.0729 75.0749 30.043 75.2832 30.043ZM74.9004 30.9961C74.6921 30.9961 74.5267 31.0391 74.4043 31.125C74.2819 31.2109 74.1921 31.3398 74.1348 31.5117C74.0801 31.6836 74.0501 31.901 74.0449 32.1641V32.293C74.0449 32.5742 74.071 32.8125 74.123 33.0078C74.1777 33.2031 74.2676 33.3516 74.3926 33.4531C74.5202 33.5547 74.6947 33.6055 74.916 33.6055C75.0983 33.6055 75.248 33.5547 75.3652 33.4531C75.4824 33.3516 75.5697 33.2031 75.627 33.0078C75.6868 32.8099 75.7168 32.569 75.7168 32.2852C75.7168 31.8581 75.6504 31.5365 75.5176 31.3203C75.3848 31.1042 75.179 30.9961 74.9004 30.9961ZM80.9629 33.1953C80.9629 33.4922 80.8926 33.7435 80.752 33.9492C80.6139 34.1523 80.4069 34.3073 80.1309 34.4141C79.8548 34.5182 79.5111 34.5703 79.0996 34.5703C78.7949 34.5703 78.5332 34.5508 78.3145 34.5117C78.0983 34.4727 77.8796 34.4076 77.6582 34.3164V33.332C77.8952 33.4388 78.1491 33.5273 78.4199 33.5977C78.6934 33.6654 78.9329 33.6992 79.1387 33.6992C79.3704 33.6992 79.5358 33.6654 79.6348 33.5977C79.7363 33.5273 79.7871 33.4362 79.7871 33.3242C79.7871 33.2513 79.7663 33.1862 79.7246 33.1289C79.6855 33.069 79.5996 33.0026 79.4668 32.9297C79.334 32.8542 79.1257 32.7565 78.8418 32.6367C78.5684 32.5221 78.3431 32.4062 78.166 32.2891C77.9915 32.1719 77.8613 32.0339 77.7754 31.875C77.6921 31.7135 77.6504 31.5091 77.6504 31.2617C77.6504 30.8581 77.8066 30.5547 78.1191 30.3516C78.4342 30.1458 78.8548 30.043 79.3809 30.043C79.6517 30.043 79.9095 30.0703 80.1543 30.125C80.4017 30.1797 80.6556 30.2669 80.916 30.3867L80.5566 31.2461C80.3405 31.1523 80.1361 31.0755 79.9434 31.0156C79.7533 30.9557 79.5592 30.9258 79.3613 30.9258C79.1868 30.9258 79.0553 30.9492 78.9668 30.9961C78.8783 31.043 78.834 31.1146 78.834 31.2109C78.834 31.2812 78.8561 31.3438 78.9004 31.3984C78.9473 31.4531 79.0358 31.5143 79.166 31.582C79.2988 31.6471 79.4928 31.7318 79.748 31.8359C79.9954 31.9375 80.2103 32.0443 80.3926 32.1562C80.5749 32.2656 80.7155 32.4023 80.8145 32.5664C80.9134 32.7279 80.9629 32.9375 80.9629 33.1953Z" fill="white"/>
<path d="M56.1408 28.7451C55.9238 27.1404 54.5622 25.8945 52.8978 25.8945C51.234 25.8945 49.8703 27.1399 49.6565 28.7451H48.7598V37.0213H57.0359V28.7451H56.1408ZM53.3707 33.0698V35.2737H52.4239V33.0671C52.0251 32.8864 51.7426 32.4855 51.7426 32.0169C51.7426 31.3782 52.2586 30.86 52.8984 30.86C53.5365 30.86 54.0542 31.3777 54.0542 32.0169C54.0537 32.4866 53.7732 32.8869 53.3707 33.0698ZM50.5868 28.7451C50.791 27.6533 51.749 26.8238 52.8984 26.8238C54.0494 26.8238 55.0042 27.6533 55.21 28.7451H50.5868Z" fill="white"/>
<path d="M27.5101 78.0577C25.6122 79.9535 22.5067 79.9535 20.6067 78.0561L18.7898 76.2382C16.893 74.3392 16.893 71.2327 18.7898 69.3354L34.5041 53.6211C35.646 52.4786 39.1305 54.4565 39.8507 55.1784L40.2282 55.5579C42.1266 57.4537 44.4782 61.088 43.2243 62.3414L27.5101 78.0577Z" fill="url(#paint19_linear_7082_3074)"/>
<path d="M43.1139 62.4522C41.9069 63.6587 38.9758 62.6858 36.5677 60.2771C34.1612 57.8695 33.1877 54.9395 34.3904 53.7325C35.6012 52.5261 38.5301 53.5001 40.9366 55.9082C43.3447 58.3163 44.3225 61.2463 43.1139 62.4522Z" fill="url(#paint20_linear_7082_3074)"/>
<path d="M87.7593 9.08876C75.6388 -3.02959 55.9875 -3.02959 43.8654 9.08876C32.5355 20.4192 31.8025 38.3331 41.6604 50.5191L38.0432 54.1379C36.8533 55.3236 36.8549 57.2652 38.0432 58.453L38.3956 58.8049C39.5828 59.9894 41.5229 59.9921 42.7069 58.8065L46.3268 55.1871C58.5129 65.0429 76.4236 64.3109 87.7561 52.9784C99.8755 40.8611 99.8787 21.2055 87.7593 9.08876ZM48.5558 48.2928C39.0209 38.7638 39.0241 23.3092 48.5558 13.7775C58.0858 4.24377 73.5378 4.24697 83.0694 13.7744C92.6027 23.3049 92.6027 38.7622 83.0694 48.2923C73.5378 57.8244 58.0858 57.8212 48.5558 48.2928Z" fill="url(#paint21_linear_7082_3074)"/>
<path d="M65.8104 57.1639C80.2425 57.1623 91.9412 45.4609 91.9439 31.0304C91.9439 16.5983 80.2419 4.89364 65.8088 4.89844C51.381 4.90004 39.6806 16.5935 39.6816 31.0304C39.68 45.4582 51.381 57.1671 65.8104 57.1639ZM65.8104 6.62575C79.2893 6.61935 90.2171 17.5515 90.2171 31.0309C90.2177 44.5082 79.2892 55.4377 65.8136 55.4377C52.3352 55.4393 41.4036 44.5087 41.4052 31.0293C41.4041 17.5494 52.3342 6.62681 65.8104 6.62575Z" fill="url(#paint22_linear_7082_3074)"/>
<path d="M90.6928 31.4052C90.6992 44.8846 79.767 55.8119 66.2876 55.8119C52.8098 55.8125 41.8809 44.884 41.8809 31.4084C41.8793 17.93 52.8098 6.9984 66.2892 7C79.7686 6.99893 90.6912 17.929 90.6928 31.4052Z" fill="url(#paint23_linear_7082_3074)"/>
<path d="M181.211 135.868L184.305 137.703L183.499 139.209L180.353 137.265L180.379 140.989H178.82L178.845 137.265L175.701 139.209L174.895 137.703L178.014 135.868L174.895 134.061L175.701 132.527L178.845 134.471L178.82 130.773H180.379L180.353 134.471L183.499 132.527L184.305 134.061L181.211 135.868Z" fill="url(#paint24_linear_7082_3074)"/>
<path d="M195.215 135.868L198.309 137.703L197.502 139.209L194.358 137.265L194.384 140.989H192.824L192.85 137.265L189.705 139.209L188.898 137.703L192.018 135.868L188.898 134.061L189.705 132.527L192.85 134.471L192.824 130.773H194.384L194.358 134.471L197.502 132.527L198.309 134.061L195.215 135.868Z" fill="url(#paint25_linear_7082_3074)"/>
<path d="M210.571 135.868L213.665 137.703L212.858 139.209L209.713 137.265L209.739 140.989H208.179L208.205 137.265L205.06 139.209L204.254 137.703L207.374 135.868L204.254 134.061L205.06 132.527L208.205 134.471L208.179 130.773H209.739L209.713 134.471L212.858 132.527L213.665 134.061L210.571 135.868Z" fill="url(#paint26_linear_7082_3074)"/>
<defs>
<linearGradient id="paint0_linear_7082_3074" x1="100.918" y1="88.0811" x2="118.702" y2="88.0811" gradientUnits="userSpaceOnUse">
<stop stop-color="#D8F29D"/>
<stop offset="0.9939" stop-color="#78DF12"/>
</linearGradient>
<linearGradient id="paint1_linear_7082_3074" x1="96.6972" y1="101.395" x2="122.925" y2="101.395" gradientUnits="userSpaceOnUse">
<stop stop-color="#D8F29D"/>
<stop offset="0.9939" stop-color="#78DF12"/>
</linearGradient>
<linearGradient id="paint2_linear_7082_3074" x1="96.6972" y1="96.3533" x2="105.343" y2="96.3533" gradientUnits="userSpaceOnUse">
<stop stop-color="#00C4FF"/>
<stop offset="0.6781" stop-color="#0392EC"/>
<stop offset="1" stop-color="#0579E3"/>
</linearGradient>
<linearGradient id="paint3_linear_7082_3074" x1="96.6972" y1="101.471" x2="105.343" y2="101.471" gradientUnits="userSpaceOnUse">
<stop stop-color="#00C4FF"/>
<stop offset="0.6781" stop-color="#0392EC"/>
<stop offset="1" stop-color="#0579E3"/>
</linearGradient>
<linearGradient id="paint4_linear_7082_3074" x1="96.6972" y1="106.584" x2="105.343" y2="106.584" gradientUnits="userSpaceOnUse">
<stop stop-color="#00C4FF"/>
<stop offset="0.6781" stop-color="#0392EC"/>
<stop offset="1" stop-color="#0579E3"/>
</linearGradient>
<linearGradient id="paint5_linear_7082_3074" x1="114.279" y1="96.3533" x2="122.925" y2="96.3533" gradientUnits="userSpaceOnUse">
<stop stop-color="#00C4FF"/>
<stop offset="0.6781" stop-color="#0392EC"/>
<stop offset="1" stop-color="#0579E3"/>
</linearGradient>
<linearGradient id="paint6_linear_7082_3074" x1="114.279" y1="101.471" x2="122.925" y2="101.471" gradientUnits="userSpaceOnUse">
<stop stop-color="#00C4FF"/>
<stop offset="0.6781" stop-color="#0392EC"/>
<stop offset="1" stop-color="#0579E3"/>
</linearGradient>
<linearGradient id="paint7_linear_7082_3074" x1="114.279" y1="106.584" x2="122.925" y2="106.584" gradientUnits="userSpaceOnUse">
<stop stop-color="#00C4FF"/>
<stop offset="0.6781" stop-color="#0392EC"/>
<stop offset="1" stop-color="#0579E3"/>
</linearGradient>
<linearGradient id="paint8_linear_7082_3074" x1="42.0651" y1="96.7375" x2="177.419" y2="96.7375" gradientUnits="userSpaceOnUse">
<stop stop-color="#D7DAE3"/>
<stop offset="0.4855" stop-color="#AAB1C4"/>
<stop offset="1" stop-color="#6E7B9A"/>
</linearGradient>
<linearGradient id="paint9_linear_7082_3074" x1="62.6815" y1="96.7421" x2="156.803" y2="96.7421" gradientUnits="userSpaceOnUse">
<stop stop-color="#AAB1C4"/>
<stop offset="1" stop-color="#6E7B9A"/>
</linearGradient>
<linearGradient id="paint10_linear_7082_3074" x1="138.897" y1="125.897" x2="80.5893" y2="67.5886" gradientUnits="userSpaceOnUse">
<stop stop-color="#AAB1C4"/>
<stop offset="1" stop-color="#6E7B9A"/>
</linearGradient>
<linearGradient id="paint11_linear_7082_3074" x1="77.1036" y1="96.7443" x2="142.383" y2="96.7443" gradientUnits="userSpaceOnUse">
<stop stop-color="#C5F9F7"/>
<stop offset="1" stop-color="#31D8DD"/>
</linearGradient>
<linearGradient id="paint12_linear_7082_3074" x1="0.00026656" y1="123.295" x2="44.0907" y2="123.295" gradientUnits="userSpaceOnUse">
<stop stop-color="#C5F9F7"/>
<stop offset="0.9964" stop-color="#0AAFD5"/>
</linearGradient>
<linearGradient id="paint13_linear_7082_3074" x1="7.54879" y1="123.301" x2="36.5396" y2="123.301" gradientUnits="userSpaceOnUse">
<stop stop-color="#C5F9F7"/>
<stop offset="1" stop-color="#31D8DD"/>
</linearGradient>
<linearGradient id="paint14_linear_7082_3074" x1="31.0248" y1="132.285" x2="13.065" y2="114.325" gradientUnits="userSpaceOnUse">
<stop stop-color="#C5F9F7"/>
<stop offset="1" stop-color="#31D8DD"/>
</linearGradient>
<linearGradient id="paint15_linear_7082_3074" x1="12.8771" y1="123.305" x2="31.2111" y2="123.305" gradientUnits="userSpaceOnUse">
<stop stop-color="#C5F9F7"/>
<stop offset="1" stop-color="#31D8DD"/>
</linearGradient>
<linearGradient id="paint16_linear_7082_3074" x1="124.66" y1="57.8694" x2="200.805" y2="57.8694" gradientUnits="userSpaceOnUse">
<stop stop-color="#F7ABC5"/>
<stop offset="1" stop-color="#F16D9A"/>
</linearGradient>
<linearGradient id="paint17_linear_7082_3074" x1="200.805" y1="57.8697" x2="162.732" y2="57.8697" gradientUnits="userSpaceOnUse">
<stop stop-color="#F7ABC5"/>
<stop offset="1" stop-color="#F16D9A"/>
</linearGradient>
<linearGradient id="paint18_linear_7082_3074" x1="42.5666" y1="32.008" x2="109.016" y2="32.008" gradientUnits="userSpaceOnUse">
<stop stop-color="#FFD800"/>
<stop offset="0.5516" stop-color="#FFB100"/>
<stop offset="1" stop-color="#FF9500"/>
</linearGradient>
<linearGradient id="paint19_linear_7082_3074" x1="17.3674" y1="66.3767" x2="43.5769" y2="66.3767" gradientUnits="userSpaceOnUse">
<stop stop-color="#FFD800"/>
<stop offset="0.5516" stop-color="#FFB100"/>
<stop offset="1" stop-color="#FF9500"/>
</linearGradient>
<linearGradient id="paint20_linear_7082_3074" x1="33.8748" y1="58.0928" x2="43.6322" y2="58.0928" gradientUnits="userSpaceOnUse">
<stop stop-color="#FF9500"/>
<stop offset="0.3176" stop-color="#F18700"/>
<stop offset="1" stop-color="#D56B00"/>
</linearGradient>
<linearGradient id="paint21_linear_7082_3074" x1="41.0421" y1="11.912" x2="84.9322" y2="55.8021" gradientUnits="userSpaceOnUse">
<stop stop-color="#D0E3FF"/>
<stop offset="0.5257" stop-color="#ADCCFF"/>
<stop offset="0.9997" stop-color="#91BAFF"/>
</linearGradient>
<linearGradient id="paint22_linear_7082_3074" x1="91.9441" y1="31.0312" x2="39.6814" y2="31.0312" gradientUnits="userSpaceOnUse">
<stop stop-color="#D0E3FF"/>
<stop offset="0.5257" stop-color="#ADCCFF"/>
<stop offset="0.9997" stop-color="#91BAFF"/>
</linearGradient>
<linearGradient id="paint23_linear_7082_3074" x1="41.8811" y1="31.4058" x2="90.6928" y2="31.4058" gradientUnits="userSpaceOnUse">
<stop stop-color="white" stop-opacity="0"/>
<stop offset="0.9961" stop-color="white" stop-opacity="0.7"/>
</linearGradient>
<linearGradient id="paint24_linear_7082_3074" x1="173.359" y1="135.882" x2="220.189" y2="135.882" gradientUnits="userSpaceOnUse">
<stop stop-color="#FFD800"/>
<stop offset="0.5516" stop-color="#FFB100"/>
<stop offset="1" stop-color="#FF9500"/>
</linearGradient>
<linearGradient id="paint25_linear_7082_3074" x1="173.361" y1="135.882" x2="220.191" y2="135.882" gradientUnits="userSpaceOnUse">
<stop stop-color="#FFD800"/>
<stop offset="0.5516" stop-color="#FFB100"/>
<stop offset="1" stop-color="#FF9500"/>
</linearGradient>
<linearGradient id="paint26_linear_7082_3074" x1="173.356" y1="135.882" x2="220.189" y2="135.882" gradientUnits="userSpaceOnUse">
<stop stop-color="#FFD800"/>
<stop offset="0.5516" stop-color="#FFB100"/>
<stop offset="1" stop-color="#FF9500"/>
</linearGradient>
</defs>
</svg>
