<svg width="20" height="16" viewBox="0 0 20 16" fill="none" xmlns="http://www.w3.org/2000/svg">
<path d="M19.3333 6.66675C19.3333 9.61139 18.3333 11.9448 16.3333 13.6667C14.4719 15.2227 12.1386 16 9.33333 16C6.74995 16 4.5833 15.278 2.83329 13.8334C0.944041 12.25 0 10.0697 0 7.29168C0 5.40301 0.485678 3.71546 1.45836 2.22919C2.43039 0.743502 3.70838 0 5.29166 0C6.45831 0 7.32615 0.36134 7.89586 1.08336C8.4649 1.80605 8.75004 2.72269 8.75004 3.83338C8.75004 4.75003 8.40236 5.52801 7.7084 6.16667C7.01378 6.80599 6.20839 7.12504 5.29174 7.12504C4.4304 7.12504 3.70846 6.81973 3.12509 6.20839C2.54181 5.59771 2.25009 4.63943 2.25009 3.33338C1.66672 4.33339 1.37509 5.41667 1.37509 6.58339C1.37509 8.83341 2.08337 10.5697 3.5001 11.7918C4.91674 13.0144 6.76378 13.6251 9.04177 13.6251C11.9857 13.6251 14.2221 13.028 15.7501 11.8334C17.2774 10.6394 18.0417 8.95841 18.0417 6.79176C18.0417 5.48645 17.8054 4.38943 17.3334 3.5001C16.722 2.36144 15.8751 1.79181 14.7917 1.79181C14.0137 1.79181 13.4024 2.0698 12.9583 2.6251C12.5137 3.18106 12.2917 3.8751 12.2917 4.70839C12.2917 5.81973 12.7774 6.72921 13.75 7.43758C14.722 8.14586 15.2084 8.66677 15.2084 9.00005C15.2084 9.13937 15.1387 9.31251 15 9.52087C14.8607 9.72923 14.7084 9.83333 14.5417 9.83333H5.87511C5.70847 9.83333 5.54175 9.77087 5.37511 9.64587C5.20847 9.52087 5.1251 9.38937 5.1251 9.25005C5.1251 8.77803 5.29175 8.54177 5.62511 8.54177L13.5001 8.45841C12.5274 7.87504 11.8191 7.19474 11.3751 6.41667C10.9304 5.63935 10.7083 4.77801 10.7083 3.83338C10.7083 2.69472 11.0554 1.77091 11.75 1.06255C12.444 0.354263 13.347 0 14.4583 0C15.9584 0 17.1666 0.666726 18.0834 2.00001C18.9167 3.2501 19.3333 4.80606 19.3333 6.66675ZM7.41667 3.5001C7.41667 2.91682 7.20832 2.38225 6.79167 1.89591C6.37503 1.41023 5.90234 1.16673 5.37502 1.16673C4.81906 1.16673 4.32622 1.40307 3.89583 1.87509C3.46487 2.34777 3.25001 2.88942 3.25001 3.5001C3.25001 4.05606 3.46487 4.53524 3.89583 4.93757C4.32614 5.34055 4.81898 5.54175 5.37502 5.54175C5.9304 5.54175 6.40951 5.34063 6.81249 4.93757C7.21481 4.53524 7.41667 4.05606 7.41667 3.5001Z" fill="#B0B4BA"/>
</svg>
