<svg width="4" height="15" viewBox="0 0 4 15" fill="none" xmlns="http://www.w3.org/2000/svg">
<path d="M1.17375 14.79L0.88875 4.86H2.98875L3.27375 14.79H1.17375ZM0.34875 3.9L0.09375 2.85C0.44375 2.79 0.70375 2.74 0.87375 2.7C1.05375 2.66 1.24375 2.615 1.44375 2.565L1.29375 2.94C1.03375 2.85 0.78375 2.675 0.54375 2.415C0.31375 2.145 0.19875 1.84 0.19875 1.5C0.19875 1.14 0.27875 0.85 0.43875 0.63C0.59875 0.41 0.80375 0.25 1.05375 0.15C1.30375 0.05 1.56375 0 1.83375 0C1.98375 0 2.12375 0.0100002 2.25375 0.0300005C2.39375 0.0500003 2.51875 0.0800002 2.62875 0.12L2.50875 1.2C2.40875 1.18 2.30875 1.16 2.20875 1.14C2.10875 1.12 1.99875 1.11 1.87875 1.11C1.74875 1.11 1.62875 1.155 1.51875 1.245C1.41875 1.325 1.36875 1.425 1.36875 1.545C1.36875 1.715 1.42875 1.865 1.54875 1.995C1.66875 2.125 1.80875 2.23 1.96875 2.31C2.13875 2.38 2.27875 2.42 2.38875 2.43L1.56375 2.52C1.83375 2.45 2.08875 2.38 2.32875 2.31C2.56875 2.23 2.79375 2.15 3.00375 2.07L3.30375 3.075C3.05375 3.165 2.75875 3.265 2.41875 3.375C2.08875 3.475 1.74375 3.57 1.38375 3.66C1.03375 3.75 0.68875 3.83 0.34875 3.9Z" fill="#B0B4BA"/>
</svg>
