<svg width="221" height="264" viewBox="0 0 221 264" fill="none" xmlns="http://www.w3.org/2000/svg">
<path d="M217.324 120.58C210.363 153.541 192.813 183.321 173.572 203.146C153.975 223.141 132.688 233.181 110.017 230.602C87.3465 228.022 66.0589 214.041 46.4621 195.199C27.2215 176.186 9.67174 152.313 2.71084 126.01C-4.25005 99.7075 2.22124 75.2262 21.8181 55.2307C41.0581 35.4057 73.4242 20.0671 110.017 15.988C146.61 11.9089 178.976 20.5919 198.216 39.6047C217.813 58.4466 224.285 87.619 217.324 120.58Z" fill="url(#paint0_radial_6434_31118)" fill-opacity="0.5"/>
<g opacity="0.3">
<path d="M75.0827 58.3654C75.1894 58.7397 74.9982 59.1419 74.6291 59.2901C73.8221 59.6145 72.9888 59.9086 72.1528 60.1643C71.746 60.2887 71.3155 60.0599 71.1911 59.6533C71.1897 59.6484 71.1883 59.6436 71.187 59.6388C71.0723 59.2365 71.3004 58.8145 71.7023 58.6916C72.4966 58.4487 73.2881 58.1693 74.0547 57.8612C74.4493 57.7026 74.8979 57.8939 75.0564 58.2886C75.0667 58.3139 75.0753 58.3396 75.0827 58.3654ZM68.6179 60.157C68.6262 60.186 68.6328 60.2159 68.6378 60.2463C68.7055 60.6662 68.4201 61.0616 68.0003 61.1293C67.1379 61.2684 66.261 61.372 65.3942 61.4372C64.97 61.4691 64.6018 61.1526 64.5683 60.727C64.5365 60.3029 64.8547 59.9334 65.2784 59.9015C66.1025 59.8395 66.9354 59.741 67.7551 59.6087C68.1444 59.5459 68.5124 59.7869 68.6179 60.157ZM61.9195 60.4807C61.943 60.5631 61.953 60.651 61.9472 60.7414C61.9196 61.1658 61.5535 61.4877 61.1291 61.4603C60.2592 61.4043 59.3808 61.3096 58.5185 61.1789C58.098 61.1148 57.8093 60.7222 57.8725 60.3021C57.9363 59.8817 58.3289 59.5925 58.7493 59.6562C59.5682 59.7804 60.4021 59.8702 61.2283 59.9235C61.5621 59.945 61.8327 60.1763 61.9195 60.4807ZM55.3155 59.298C55.3543 59.4343 55.3559 59.5828 55.3125 59.7286C55.1909 60.1362 54.7619 60.3679 54.3544 60.2464C53.5185 59.9968 52.6834 59.7082 51.8722 59.3885C51.4771 59.2323 51.2827 58.7854 51.4382 58.3896C51.5941 57.9941 52.0414 57.7998 52.4371 57.9557C53.2074 58.2593 54.0006 58.5336 54.795 58.7705C55.0566 58.8487 55.2457 59.0535 55.3155 59.298ZM49.1411 56.6725C49.1956 56.8636 49.1765 57.0755 49.0711 57.2621C48.8622 57.6326 48.3924 57.7634 48.0222 57.5543C47.2644 57.1267 46.5141 56.6605 45.7927 56.1686C45.4411 55.9294 45.3501 55.4503 45.5899 55.0987C45.8294 54.7474 46.3084 54.6566 46.66 54.8961C47.3457 55.3637 48.0588 55.8067 48.7789 56.2131C48.9627 56.3168 49.0875 56.4845 49.1411 56.6725ZM43.7017 52.7469C43.7722 52.9944 43.7173 53.2715 43.5317 53.4761C43.2459 53.7911 42.7591 53.8148 42.444 53.5292C41.7985 52.9436 41.1698 52.3229 40.5762 51.6844C40.2865 51.3728 40.3043 50.8857 40.6159 50.596C40.9271 50.3065 41.4145 50.3242 41.7041 50.6356C42.2683 51.2423 42.8653 51.832 43.4787 52.3884C43.5892 52.4885 43.6636 52.6133 43.7017 52.7469ZM34.2016 26.114C34.2308 26.2166 34.2391 26.3266 34.2223 26.4389C34.0997 27.2571 34.0111 28.0916 33.9593 28.9193C33.9327 29.3437 33.5671 29.6662 33.1429 29.6395C32.7184 29.6131 32.3958 29.2475 32.4224 28.823C32.477 27.9513 32.5701 27.0723 32.6992 26.2107C32.7622 25.79 33.1544 25.5002 33.5749 25.5633C33.8832 25.6095 34.1214 25.8326 34.2016 26.114ZM39.2704 47.7165C39.358 48.0237 39.2472 48.3658 38.9707 48.5589C38.622 48.8025 38.1419 48.7173 37.8984 48.3688C37.3991 47.6543 36.9249 46.9093 36.4889 46.1546C36.2779 45.7854 36.4019 45.3153 36.7703 45.1025C37.1385 44.8898 37.6095 45.0159 37.8224 45.3842C38.2364 46.101 38.6867 46.8083 39.1608 47.4869C39.211 47.559 39.2476 47.6366 39.2704 47.7165ZM33.9618 32.8177C33.9757 32.8666 33.9852 32.9176 33.9893 32.9702C34.0529 33.7957 34.1533 34.6292 34.2869 35.4478C34.3554 35.8677 34.0707 36.2634 33.651 36.332C33.2314 36.4003 32.8336 36.1165 32.767 35.6961C32.6265 34.8347 32.5209 33.9576 32.4537 33.0891C32.421 32.665 32.7383 32.2946 33.1622 32.262C33.5333 32.2332 33.8634 32.4729 33.9618 32.8177ZM36.0738 41.8226C36.1804 42.1963 35.9899 42.5979 35.6217 42.7468C35.2273 42.9062 34.7786 42.7156 34.6189 42.3214C34.2927 41.5141 33.997 40.6818 33.7403 39.8476C33.7385 39.8425 33.7371 39.8372 33.7356 39.8319C33.621 39.4302 33.8483 39.0088 34.2495 38.8852C34.6561 38.76 35.087 38.988 35.212 39.3945C35.4561 40.1868 35.7371 40.9773 36.0472 41.7444C36.0573 41.7702 36.0663 41.7964 36.0738 41.8226Z" fill="url(#paint1_linear_6434_31118)"/>
<path d="M35.4836 20.8645C35.5252 21.0103 35.5244 21.1699 35.4715 21.3243C35.3427 21.6999 35.22 22.0845 35.1058 22.4673C34.9846 22.8749 34.5557 23.1071 34.1482 22.9858C33.7405 22.8646 33.5078 22.4357 33.6299 22.028C33.7497 21.6252 33.8789 21.2209 34.0143 20.8256C34.152 20.4233 34.59 20.2086 34.9921 20.3464C35.2403 20.4313 35.4168 20.6302 35.4836 20.8645Z" fill="url(#paint2_linear_6434_31118)"/>
</g>
<g opacity="0.3">
<path d="M51.1584 3.3881C51.2603 3.74552 51.0908 4.13401 50.7433 4.29624C50.3835 4.46402 50.0212 4.64224 49.6667 4.82594C49.2889 5.02151 48.8242 4.87392 48.6287 4.49632C48.4324 4.11705 48.5809 3.65389 48.9583 3.45832C49.3317 3.26508 49.7133 3.07731 50.092 2.90051C50.4774 2.72074 50.9356 2.88735 51.1155 3.27269C51.1332 3.31054 51.1473 3.34916 51.1584 3.3881Z" fill="url(#paint3_linear_6434_31118)"/>
<path d="M92.6952 22.2993C92.7924 22.64 92.8841 22.9838 92.9704 23.3303C93.0731 23.743 92.8219 24.1609 92.4092 24.2636C91.9966 24.3664 91.5767 24.1137 91.4758 23.7026C91.2765 22.9029 91.0454 22.113 90.7854 21.3462C90.6495 20.9429 90.8647 20.5063 91.2674 20.3698C91.6704 20.2331 92.1076 20.4491 92.244 20.8519C92.4049 21.3262 92.5566 21.8132 92.6952 22.2993ZM93.681 27.3331C93.6928 27.3745 93.7014 27.4176 93.7061 27.4619C93.7992 28.316 93.857 29.1836 93.878 30.0404C93.8885 30.4655 93.5523 30.8186 93.1274 30.8291C92.7021 30.8394 92.3478 30.5027 92.3386 30.0781C92.3186 29.2643 92.2635 28.4401 92.1754 27.6285C92.1293 27.2057 92.4348 26.8258 92.8573 26.7797C93.2359 26.7385 93.58 26.979 93.681 27.3331ZM90.6802 17.1135C90.7798 17.4627 90.6205 17.8442 90.284 18.0125C89.9035 18.2028 89.441 18.0486 89.2507 17.6683C88.8869 16.9407 88.4868 16.2189 88.0612 15.5226C87.84 15.1593 87.9539 14.6857 88.3167 14.464C88.6798 14.2422 89.1537 14.3567 89.3755 14.7197C89.8235 15.4529 90.2448 16.2132 90.6281 16.9793C90.65 17.0231 90.6673 17.0681 90.6802 17.1135ZM93.6685 33.9362C93.6954 34.0302 93.7043 34.1309 93.6927 34.2339C93.5959 35.0868 93.4614 35.9459 93.2931 36.7871C93.2096 37.204 92.8041 37.4743 92.3871 37.3909C91.9699 37.3074 91.6994 36.9021 91.7831 36.4848C91.9429 35.6861 92.0707 34.8703 92.1625 34.0603C92.2103 33.6377 92.592 33.334 93.0145 33.382C93.3338 33.4182 93.5855 33.6451 93.6685 33.9362ZM87.0934 11.5763C87.175 11.8627 87.0856 12.1831 86.8404 12.3838C86.5112 12.6531 86.026 12.6046 85.7567 12.2754C85.2419 11.646 84.6927 11.0298 84.1247 10.4438C83.8287 10.1385 83.8361 9.65095 84.1418 9.35485C84.4471 9.05902 84.9344 9.06656 85.2304 9.37194C85.8285 9.98882 86.4066 10.6376 86.9488 11.3003C87.0173 11.3841 87.0654 11.4782 87.0934 11.5763ZM82.3782 6.96007C82.4435 7.18904 82.402 7.44496 82.244 7.64672C81.9817 7.98143 81.4976 8.04018 81.1629 7.77781C80.5209 7.2748 79.8502 6.79287 79.1697 6.34558C78.8139 6.11248 78.7151 5.6352 78.9489 5.27927C79.1825 4.9238 79.6598 4.82508 80.0154 5.05856C80.7316 5.52933 81.4373 6.03633 82.1128 6.56584C82.2458 6.66991 82.3352 6.80912 82.3782 6.96007ZM76.7689 3.48164C76.8185 3.6558 76.8073 3.84788 76.7231 4.02424C76.54 4.40796 76.0803 4.57064 75.6966 4.38745C74.9598 4.03578 74.2004 3.71138 73.439 3.42328C73.0414 3.27285 72.8407 2.82878 72.9914 2.43055C73.1421 2.0329 73.5863 1.83243 73.9842 1.98293C74.7854 2.28618 75.5849 2.62754 76.3601 2.99752C76.5674 3.09663 76.7104 3.27653 76.7689 3.48164ZM70.5349 1.30944C70.5692 1.43008 70.5746 1.56072 70.5447 1.69167C70.4499 2.10622 70.037 2.3653 69.6225 2.27051C68.8271 2.08849 68.0152 1.93857 67.2089 1.8247C66.7879 1.76518 66.4946 1.37514 66.554 0.954735C66.6134 0.533552 67.0031 0.240362 67.4241 0.299876C68.2734 0.419745 69.1285 0.57772 69.9657 0.769225C70.2496 0.834285 70.4603 1.0481 70.5349 1.30944ZM63.9735 0.558569C63.9929 0.626402 64.003 0.698105 64.0028 0.772128C64.0018 1.19731 63.656 1.54124 63.2309 1.54002C62.4171 1.53796 61.5925 1.57052 60.7795 1.63719C60.3556 1.67188 59.984 1.35509 59.9493 0.932617C59.9145 0.508726 60.2301 0.136936 60.654 0.102245C61.5098 0.0321557 62.3779 -0.00221109 63.2347 0.000110182C63.5859 0.0010129 63.8818 0.236879 63.9735 0.558569ZM57.4119 1.26695C57.4162 1.28216 57.4201 1.29764 57.4235 1.31318C57.515 1.72843 57.2525 2.13936 56.8372 2.23073C56.251 2.35988 55.6619 2.50863 55.0856 2.67293C54.8771 2.73238 54.6695 2.79422 54.4634 2.85786C54.0569 2.98327 53.6257 2.75559 53.5004 2.34924C53.3654 1.94031 53.6026 1.51184 54.0088 1.38636C54.2258 1.3193 54.4439 1.2545 54.6633 1.19189C55.2693 1.01908 55.8894 0.862593 56.5059 0.726863C56.9057 0.638719 57.3012 0.878647 57.4119 1.26695Z" fill="url(#paint4_linear_6434_31118)"/>
<path d="M92.1958 40.3956C92.2378 40.5428 92.2365 40.7038 92.1826 40.8592C92.0456 41.2529 91.8976 41.6512 91.7429 42.043C91.5867 42.4386 91.1393 42.6326 90.7439 42.4764C90.3484 42.32 90.154 41.8733 90.3105 41.4774C90.4574 41.1052 90.5978 40.7269 90.728 40.3531C90.8676 39.9516 91.3065 39.7392 91.7082 39.8789C91.9544 39.9646 92.1294 40.1627 92.1958 40.3956Z" fill="url(#paint5_linear_6434_31118)"/>
</g>
<path d="M83.3221 41.8441C83.4098 41.7181 83.4081 41.5503 83.3176 41.4262L80.7364 37.8872C81.4924 35.9864 81.9507 33.9513 82.0628 31.8492L85.8857 29.7166C86.0198 29.6418 86.0916 29.4901 86.0647 29.339L85.1406 24.1667C85.1135 24.0155 84.9936 23.8982 84.842 23.8744L80.5171 23.1975C79.6839 21.2642 78.5493 19.5138 77.1819 17.9924L78.3779 13.7785C78.4198 13.6308 78.3634 13.4728 78.2374 13.385L73.9267 10.381C73.8006 10.2932 73.6329 10.295 73.5089 10.3855L69.9698 12.9667C68.069 12.2107 66.0339 11.7525 63.9318 11.6403L61.7991 7.81738C61.7243 7.68332 61.5727 7.61143 61.4216 7.63844L56.2493 8.56257C56.0981 8.58953 55.9808 8.70952 55.9571 8.86118L55.2801 13.186C53.3468 14.0192 51.5964 15.1537 50.075 16.5212L45.861 15.3252C45.7134 15.2834 45.5553 15.3397 45.4675 15.4657L42.4637 19.7765C42.3758 19.9025 42.3776 20.0702 42.4681 20.1943L45.0493 23.7333C44.2933 25.6341 43.835 27.6692 43.7229 29.7714L39.8999 31.904C39.7659 31.9788 39.694 32.1304 39.7209 32.2816L40.6451 37.4539C40.6721 37.605 40.792 37.7224 40.9437 37.7461L45.2686 38.423C46.1017 40.3564 47.2363 42.1068 48.6038 43.6282L47.4078 47.8421C47.3659 47.9898 47.4224 48.1479 47.5483 48.2356L51.8591 51.2395C51.985 51.3273 52.1529 51.3255 52.2769 51.2351L55.816 48.6539C57.7168 49.41 59.7519 49.8681 61.854 49.9803L63.9867 53.8032C64.0614 53.9373 64.2131 54.0092 64.3643 53.9821L69.5365 53.058C69.6876 53.031 69.805 52.9112 69.8288 52.7594L70.5057 48.4346C72.439 47.6014 74.1894 46.4668 75.7109 45.0994L79.9248 46.2953C80.0725 46.3373 80.2304 46.2809 80.3183 46.1549L83.3221 41.8441Z" fill="url(#paint6_linear_6434_31118)"/>
<path d="M67.9736 29.3675C68.6795 31.8433 67.4813 34.5356 65.0666 35.6258C62.4121 36.8241 59.2781 35.6396 58.0798 32.9855C57.4989 31.6997 57.4541 30.2648 57.9528 28.9455C58.4514 27.6258 59.4342 26.5793 60.72 25.9989C63.3744 24.8006 66.5084 25.9851 67.7067 28.6392C67.8148 28.8785 67.9036 29.1221 67.9736 29.3675ZM58.9962 31.9146C59.0507 32.1058 59.1194 32.2941 59.2026 32.4786C60.1213 34.5136 62.5246 35.4216 64.5594 34.503C66.5945 33.5842 67.5036 31.1814 66.584 29.1461C65.6653 27.1111 63.262 26.2031 61.2272 27.1217C60.2412 27.5669 59.4878 28.3691 59.1054 29.381C58.7947 30.2033 58.7594 31.0843 58.9962 31.9146Z" fill="white"/>
<path d="M75.2798 27.1711C75.401 27.5963 75.5016 28.0301 75.5805 28.4713C75.6054 28.6101 75.6279 28.7494 75.6483 28.889C75.7486 29.5775 75.7939 30.2729 75.7837 30.9643C75.7835 30.9737 75.7834 30.9832 75.7833 30.9926C75.7828 31.0193 75.7823 31.046 75.7815 31.0729C75.7804 31.125 75.7786 31.177 75.7769 31.229C75.7721 31.3657 75.6788 31.4785 75.5539 31.5143C75.5236 31.5229 75.4913 31.527 75.458 31.5258C75.2881 31.5198 75.1556 31.3768 75.1614 31.2071C75.1925 30.3323 75.1295 29.4483 74.974 28.5797C74.2037 24.2645 71.2692 20.8701 67.4885 19.3131C65.3858 18.4468 63.0211 18.1491 60.6212 18.5781C60.2003 18.6532 59.7863 18.749 59.3808 18.8648C56.6514 19.6433 54.2924 21.3229 52.648 23.683C50.7588 26.3939 50.0385 29.6783 50.6196 32.9308C51.8205 39.6481 58.2582 44.1321 64.9725 42.9325C65.3865 42.8585 65.7951 42.7638 66.1969 42.6491C67.9379 42.1524 69.5509 41.2803 70.917 40.0896C70.9524 40.0588 70.9926 40.0376 71.0349 40.0256C71.146 39.994 71.2706 40.0265 71.3515 40.1195C71.4629 40.2481 71.4504 40.4422 71.3216 40.5541C69.8874 41.8041 68.1939 42.72 66.3661 43.2414C65.9444 43.3618 65.5154 43.4611 65.081 43.5389C58.0316 44.7984 51.2722 40.0861 50.013 33.0392C49.4029 29.6245 50.1592 26.1768 52.1424 23.3308C53.8688 20.8531 56.3453 19.0899 59.2106 18.2725C59.6364 18.1511 60.0709 18.0505 60.5126 17.9715C63.9275 17.3615 67.3753 18.1176 70.2212 20.1007C72.6994 21.8277 74.4627 24.305 75.2798 27.1711Z" fill="white"/>
<g opacity="0.3">
<path d="M44.6704 100.907C44.4756 101.037 44.2109 101.03 44.0214 100.873C43.6677 100.578 43.318 100.269 42.9824 99.9533C42.7642 99.7483 42.7536 99.4054 42.9586 99.1869C43.1631 98.9675 43.5068 98.9582 43.725 99.1631C44.0449 99.4637 44.3781 99.7585 44.7156 100.04C44.9456 100.231 44.9766 100.573 44.7853 100.803C44.7512 100.844 44.7124 100.878 44.6704 100.907Z" fill="url(#paint7_linear_6434_31118)"/>
<path d="M41.7238 97.9588C41.4956 98.1119 41.1839 98.0703 41.005 97.8544C40.4989 97.2444 40.0185 96.6014 39.5772 95.9436C39.4843 95.8051 39.3927 95.665 39.302 95.5238C39.1406 95.2712 39.2336 94.9365 39.4659 94.7743C39.7181 94.6128 40.0534 94.6863 40.215 94.9381C40.3015 95.0733 40.389 95.2072 40.4778 95.3395C40.8988 95.9671 41.357 96.5803 41.8393 97.1621C42.0307 97.3927 41.9987 97.7343 41.7685 97.9257C41.7538 97.9374 41.7389 97.9487 41.7238 97.9588ZM38.6873 93.2182C38.666 93.2325 38.6433 93.2458 38.6197 93.2571C38.3495 93.3866 38.0256 93.273 37.8959 93.003C37.4796 92.1371 37.1134 91.2376 36.8078 90.3301C36.712 90.0462 36.8663 89.7387 37.1485 89.6432C37.4325 89.5476 37.7396 89.7 37.8354 89.9838C38.1271 90.8498 38.4764 91.7076 38.8733 92.5336C38.9914 92.7796 38.9076 93.0704 38.6873 93.2182ZM36.8911 87.8827C36.834 87.921 36.7686 87.9489 36.6971 87.9637C36.4037 88.0235 36.1175 87.8335 36.0579 87.5401C35.8672 86.6 35.7329 85.6375 35.6599 84.6798C35.6369 84.3808 35.8599 84.121 36.1594 84.098C36.4577 84.0751 36.7183 84.2988 36.7412 84.5971C36.811 85.5105 36.9386 86.4279 37.1208 87.3245C37.1656 87.5462 37.0681 87.7639 36.8911 87.8827ZM36.4616 82.2687C36.3683 82.3312 36.255 82.3652 36.1345 82.3599C35.8354 82.3457 35.6041 82.0916 35.6183 81.7925C35.6638 80.8324 35.7694 79.8671 35.9322 78.9226C35.9833 78.6276 36.2643 78.4301 36.5587 78.4807C36.8537 78.5314 37.0517 78.8118 37.0009 79.1073C36.8455 80.0072 36.7449 80.9285 36.7016 81.8438C36.6931 82.0222 36.5994 82.1762 36.4616 82.2687ZM37.4162 76.7202C37.286 76.8075 37.119 76.8379 36.9571 76.7891C36.6706 76.7027 36.5085 76.4001 36.5947 76.1134C36.8723 75.1945 37.209 74.284 37.5958 73.4073C37.7163 73.1327 38.0367 73.009 38.3107 73.13C38.5848 73.2509 38.709 73.5711 38.5881 73.8448C38.219 74.6815 37.8977 75.5499 37.6332 76.4267C37.5954 76.5516 37.5167 76.6528 37.4162 76.7202ZM39.6883 71.5722C39.5197 71.6853 39.2938 71.6984 39.1077 71.5874C38.8508 71.4339 38.7672 71.1011 38.9205 70.8439C39.4129 70.0201 39.9615 69.2192 40.5511 68.4642C40.7367 68.2281 41.0763 68.1865 41.3123 68.3706C41.5483 68.5546 41.5902 68.8957 41.406 69.1314C40.8438 69.8516 40.321 70.6148 39.8515 71.4002C39.809 71.4714 39.7527 71.529 39.6883 71.5722ZM43.1491 67.1372C42.9381 67.2788 42.6496 67.2561 42.4637 67.0697C42.2523 66.8576 42.2528 66.5143 42.4647 66.3027C43.1419 65.6271 43.8706 64.9854 44.6304 64.3947C44.8705 64.2146 45.2081 64.254 45.3915 64.4905C45.5753 64.7269 45.5324 65.0674 45.2962 65.2514C44.571 65.8143 43.8761 66.4265 43.2304 67.0706C43.205 67.0959 43.1777 67.118 43.1491 67.1372ZM50.1018 62.3906C50.0759 62.408 50.0478 62.4236 50.018 62.4367C49.2946 62.7554 48.576 63.1195 47.882 63.5188C47.7765 63.5787 47.6737 63.6387 47.5719 63.7C47.3146 63.8534 46.9819 63.7699 46.8282 63.5128C46.6738 63.2555 46.7548 62.9143 47.015 62.7691C47.1239 62.7043 47.2329 62.6401 47.3435 62.5774C48.0687 62.1604 48.822 61.7788 49.5807 61.4446C49.8548 61.3239 50.1746 61.448 50.2953 61.7221C50.4031 61.9661 50.3162 62.2468 50.1018 62.3906Z" fill="url(#paint8_linear_6434_31118)"/>
</g>
<g opacity="0.3">
<path d="M72.3233 102.149C72.0775 102.314 71.7438 102.251 71.575 102.006C71.4051 101.76 71.4669 101.422 71.7135 101.252C72.4556 100.741 73.1728 100.179 73.8451 99.5835C74.0696 99.3883 74.4119 99.4054 74.6106 99.6298C74.8092 99.8542 74.7881 100.197 74.5643 100.395C73.8589 101.02 73.1073 101.609 72.3294 102.145C72.3275 102.146 72.3253 102.148 72.3233 102.149ZM69.9494 103.584C69.9331 103.595 69.9164 103.605 69.8988 103.614C69.0633 104.053 68.1925 104.446 67.3109 104.782C67.0308 104.888 66.7178 104.748 66.6114 104.468C66.5044 104.188 66.647 103.875 66.9248 103.768C67.7662 103.448 68.597 103.073 69.3945 102.654C69.6593 102.515 69.9872 102.617 70.1264 102.882C70.2568 103.13 70.1763 103.432 69.9494 103.584ZM76.4667 98.4772C76.267 98.6112 75.9949 98.5999 75.806 98.4333C75.5818 98.2355 75.5602 97.8929 75.7583 97.6683C76.3547 96.9915 76.9151 96.2732 77.4236 95.5324C77.5946 95.2858 77.9307 95.2229 78.1776 95.3926C78.4244 95.5618 78.4872 95.8997 78.3177 96.1466C77.7846 96.9231 77.197 97.6762 76.5715 98.3852C76.5397 98.4213 76.5045 98.4518 76.4667 98.4772ZM64.7711 105.551C64.7199 105.586 64.662 105.612 64.5985 105.628C63.6813 105.853 62.7408 106.024 61.8036 106.136C61.5062 106.172 61.2364 105.959 61.2008 105.662C61.1658 105.365 61.3781 105.095 61.675 105.059C62.5687 104.953 63.4651 104.79 64.3397 104.575C64.6304 104.503 64.9243 104.681 64.9956 104.972C65.0514 105.199 64.9549 105.428 64.7711 105.551ZM79.5992 93.913C79.4398 94.0199 79.2284 94.0388 79.0465 93.944C78.7805 93.8055 78.6775 93.478 78.8157 93.2126C79.2314 92.4147 79.6025 91.583 79.9185 90.7399C80.0236 90.459 80.3364 90.3174 80.6168 90.4227C80.8972 90.5279 81.0393 90.8405 80.9341 91.1209C80.6024 92.0046 80.2135 92.8768 79.7779 93.7136C79.7343 93.7969 79.672 93.8642 79.5992 93.913ZM81.5456 88.7304C81.4235 88.8122 81.2691 88.8444 81.1154 88.8072C80.8244 88.7365 80.6456 88.4433 80.7164 88.1523C80.9291 87.2757 81.0907 86.3787 81.1964 85.4865C81.2317 85.1888 81.5017 84.9764 81.7987 85.0118C82.096 85.0469 82.3083 85.3164 82.2731 85.6135C82.1623 86.5491 81.9933 87.4895 81.7703 88.408C81.7369 88.5452 81.6542 88.6575 81.5456 88.7304ZM82.1943 83.2302C82.1085 83.2877 82.0057 83.3217 81.8945 83.3217C81.595 83.323 81.3514 83.081 81.3503 82.7814C81.3476 81.8797 81.2891 80.9702 81.1765 80.0785C81.1395 79.782 81.3497 79.5103 81.6467 79.4731C81.9439 79.4357 82.215 79.6459 82.2526 79.9433C82.3702 80.8782 82.4318 81.8321 82.4351 82.778C82.4356 82.9664 82.3398 83.1326 82.1943 83.2302Z" fill="url(#paint9_linear_6434_31118)"/>
<path d="M59.2457 106.21C59.1588 106.268 59.0543 106.302 58.9418 106.302C58.4777 106.3 58.0117 106.284 57.5563 106.255C57.2576 106.236 57.0304 105.979 57.0492 105.68C57.0689 105.382 57.3258 105.155 57.6247 105.173C58.0589 105.2 58.5036 105.215 58.9464 105.217C59.246 105.218 59.4877 105.462 59.4863 105.762C59.4854 105.948 59.3902 106.113 59.2457 106.21Z" fill="url(#paint10_linear_6434_31118)"/>
</g>
<path d="M55.7183 100.14C55.8303 100.174 55.9518 100.134 56.0205 100.039L57.9826 97.334C59.5397 97.4361 61.1245 97.2906 62.6766 96.878L65.1226 99.1515C65.2084 99.2312 65.3353 99.2477 65.4387 99.1927L68.9755 97.3068C69.0788 97.2516 69.1358 97.137 69.1175 97.0213L68.5926 93.7234C69.8 92.6644 70.8039 91.4297 71.5868 90.0797L74.9261 89.9577C75.0432 89.9534 75.1446 89.8753 75.1788 89.7632L76.346 85.9288C76.3802 85.8166 76.3394 85.6953 76.2446 85.6266L73.5397 83.6645C73.6418 82.1073 73.4963 80.5226 73.0837 78.9706L75.3572 76.5245C75.437 76.4387 75.4535 76.3118 75.3984 76.2084L73.5125 72.6716C73.4573 72.5682 73.3427 72.5112 73.2271 72.5297L69.9291 73.0545C68.8702 71.8471 67.6355 70.8432 66.2856 70.0604L66.1634 66.7209C66.1591 66.6039 66.0811 66.5025 65.9691 66.4683L62.1346 65.301C62.0226 65.2668 61.9013 65.3076 61.8325 65.4024L59.8703 68.1074C58.3131 68.0052 56.7285 68.1508 55.1764 68.5634L52.7303 66.2898C52.6445 66.2101 52.5176 66.1935 52.4142 66.2486L48.8773 68.1346C48.774 68.1896 48.717 68.3043 48.7354 68.42L49.2603 71.7179C48.0528 72.7768 47.049 74.0116 46.266 75.3615L42.9267 75.4836C42.8096 75.4879 42.7082 75.566 42.6741 75.678L41.5068 79.5124C41.4727 79.6245 41.5133 79.7459 41.6082 79.8147L44.313 81.7768C44.2109 83.334 44.3565 84.9186 44.7691 86.4707L42.4955 88.9168C42.4158 89.0025 42.3992 89.1295 42.4544 89.2329L44.3403 92.7696C44.3955 92.873 44.51 92.93 44.6257 92.9116L47.9237 92.3868C48.9826 93.5941 50.2173 94.598 51.5672 95.3809L51.6893 98.7203C51.6936 98.8373 51.7716 98.9388 51.8837 98.9729L55.7183 100.14Z" fill="url(#paint11_linear_6434_31118)"/>
<path d="M61.2036 86.1353C60.4772 86.6225 59.6173 86.8634 58.7279 86.8205C57.6337 86.7676 56.6256 86.2918 55.8892 85.4805C54.3693 83.8068 54.4946 81.2082 56.1687 79.6875C57.848 78.1683 60.4424 78.293 61.9623 79.9673C62.6989 80.7783 63.0754 81.8278 63.0224 82.9217C62.9697 84.016 62.4939 85.0243 61.6823 85.7606C61.5307 85.8981 61.3706 86.0233 61.2036 86.1353ZM57.2466 80.2174C57.1254 80.2986 57.0089 80.3896 56.8976 80.4904C55.6663 81.6089 55.5742 83.5203 56.6923 84.752C57.2338 85.3483 57.9755 85.6988 58.7802 85.7374C59.5853 85.7762 60.3565 85.4987 60.9538 84.9577C61.5503 84.416 61.9005 83.6743 61.9394 82.8697C61.9782 82.0645 61.7012 81.2927 61.1594 80.6959C60.1423 79.5756 58.4679 79.3981 57.2466 80.2174Z" fill="white"/>
<path d="M64.6402 91.1188C64.3553 91.3099 64.0583 91.488 63.7496 91.6531C63.1361 91.9804 62.4887 92.2457 61.8237 92.4419C61.7937 92.4505 61.7638 92.4591 61.7338 92.4677C61.5021 92.5338 61.2628 92.4388 61.1351 92.249C61.1041 92.2028 61.0798 92.1509 61.0638 92.0947C60.9817 91.8068 61.1497 91.5079 61.4368 91.425C62.0594 91.2478 62.6656 91.0024 63.2389 90.6964L63.2391 90.6963C63.2707 90.6796 63.3021 90.6623 63.3331 90.6453C64.6832 89.9087 65.7985 88.8635 66.6108 87.6045C67.0516 86.9211 67.403 86.1741 67.6532 85.3783C67.6552 85.3719 67.6572 85.3654 67.6593 85.3589C67.6653 85.3388 67.6717 85.3193 67.6775 85.2995C68.3875 82.9666 68.1469 80.4967 66.9994 78.345C66.8511 78.0664 66.6898 77.7978 66.5163 77.5393C65.3492 75.7999 63.6336 74.5253 61.6024 73.9067C59.2695 73.1967 56.7999 73.4378 54.6484 74.5851C52.4986 75.7326 50.9206 77.6492 50.21 79.9819C49.4999 82.3147 49.7406 84.7846 50.8881 86.9363C51.0339 87.2102 51.1934 87.4756 51.365 87.7315C52.1098 88.8413 53.0886 89.7755 54.2351 90.4639C54.3057 90.5065 54.3632 90.5622 54.4061 90.6266C54.5194 90.7955 54.5325 91.0218 54.4207 91.2078C54.2658 91.4641 53.9337 91.5479 53.6764 91.3933C52.3936 90.6229 51.2981 89.5776 50.465 88.3365C50.2727 88.0498 50.0944 87.7531 49.9311 87.4469C48.6473 85.0391 48.3779 82.2761 49.1726 79.6658C49.9674 77.0561 51.7284 74.9108 54.1379 73.6282C56.5452 72.3443 59.3081 72.0748 61.9183 72.8698C64.1906 73.5613 66.1099 74.9873 67.4156 76.9334C67.6094 77.2223 67.7902 77.5232 67.9562 77.8345C70.4414 82.4954 68.9359 88.2374 64.6402 91.1188Z" fill="white"/>
<path d="M56.9118 145L39.2365 195.435L20 227.5L86 264L97.1929 242.335L109.853 217.365L137.408 200.241L154 153.922L56.9118 145Z" fill="url(#paint12_linear_6434_31118)"/>
<path d="M174.975 94.055L116.062 128.068L106.429 111.384L165.342 77.3702C169.949 74.7103 175.841 76.2889 178.5 80.8962C181.161 85.5035 179.582 91.3946 174.975 94.055Z" fill="url(#paint13_linear_6434_31118)"/>
<path d="M178.501 80.8984C178.357 80.6495 178.202 80.4109 178.04 80.1797C178.6 83.9734 176.851 87.8968 173.327 89.9312L114.415 123.944L106.98 111.068L106.429 111.386L116.062 128.07L174.975 94.0567C179.582 91.3968 181.161 85.5057 178.501 80.8984Z" fill="url(#paint14_linear_6434_31118)"/>
<path d="M135.734 195.879H81.9094C74.4084 195.879 68.3271 189.798 68.3271 182.297V44.0666C68.3271 36.5656 74.4078 30.4844 81.9094 30.4844H135.734C143.235 30.4844 149.316 36.5651 149.316 44.0666V182.297C149.316 189.798 143.236 195.879 135.734 195.879Z" fill="#C0C0DD"/>
<path d="M149.37 42.8906H68.2715V176.343H149.37V42.8906Z" fill="white"/>
<path d="M126.464 37.9599H91.1774C90.5134 37.9599 89.9749 37.4213 89.9749 36.7573C89.9749 36.0932 90.5134 35.5547 91.1774 35.5547H126.464C127.128 35.5547 127.666 36.0932 127.666 36.7573C127.666 37.4213 127.128 37.9599 126.464 37.9599Z" fill="white"/>
<path d="M136.14 187.201C136.14 187.473 135.917 187.697 135.644 187.697H132.008C131.735 187.697 131.512 187.474 131.512 187.201V183.566C131.512 183.293 131.735 183.07 132.008 183.07H135.644C135.916 183.07 136.14 183.293 136.14 183.566V187.201Z" stroke="white" stroke-width="0.9519" stroke-miterlimit="10"/>
<path d="M85.7269 187.499C85.7269 187.771 85.5368 187.877 85.305 187.734L81.9264 185.651C81.6941 185.508 81.6941 185.274 81.9264 185.131L85.305 183.048C85.5373 182.905 85.7269 183.011 85.7269 183.284V187.499Z" stroke="white" stroke-width="0.9519" stroke-miterlimit="10"/>
<path d="M111.412 185.383C111.412 186.661 110.377 187.697 109.099 187.697C107.822 187.697 106.786 186.661 106.786 185.383C106.786 184.106 107.822 183.07 109.099 183.07C110.377 183.07 111.412 184.106 111.412 185.383Z" stroke="white" stroke-width="0.9519" stroke-miterlimit="10"/>
<path d="M102.316 152.795L69.1921 136.34C63.966 133.743 57.6463 135.004 53.815 139.405L46.8635 147.394C43.0828 151.738 41 157.304 41 163.063V204.732L57.352 181.991L60.7614 171.329L63.1999 173.451L71.5426 163.864L91.6013 173.823C97.3601 176.683 104.469 174.584 107.486 168.906C110.615 163.015 108.251 155.742 102.316 152.795Z" fill="url(#paint15_linear_6434_31118)"/>
<path d="M96.4999 167.505L90.5 164.5L84.9998 161.507L90.5 153.501L96 156.5L100.5 159C101.472 159.501 103.255 161.518 102.754 162.49C103.5 166.005 98.6686 168.621 96.4999 167.505Z" fill="white"/>
<path d="M165.694 125.891L154.222 132.515C148.723 135.689 141.692 133.805 138.518 128.307C135.343 122.809 137.227 115.778 142.725 112.603L154.198 105.98C159.696 102.805 166.727 104.689 169.902 110.187C173.076 115.686 171.193 122.716 165.694 125.891Z" fill="url(#paint16_linear_6434_31118)"/>
<path d="M151.306 129.267C147.609 131.439 142.851 130.202 140.679 126.505C138.507 122.808 139.744 118.05 143.441 115.878C147.139 113.706 155.004 127.095 151.306 129.267Z" fill="white"/>
<path d="M169.904 110.17C169.549 109.557 169.145 108.991 168.702 108.469C170.535 113.598 168.506 119.461 163.621 122.281L152.149 128.905C147.264 131.725 141.172 130.55 137.647 126.398C137.877 127.042 138.165 127.675 138.519 128.289C141.694 133.788 148.725 135.672 154.223 132.497L165.696 125.874C171.194 122.699 173.079 115.669 169.904 110.17Z" fill="url(#paint17_linear_6434_31118)"/>
<path d="M144.455 136.588L154.958 130.524C160.457 127.349 167.254 128.828 170.141 133.828C173.027 138.827 170.909 145.453 165.411 148.628L154.907 154.692C149.409 157.866 142.612 156.387 139.725 151.388C136.839 146.388 138.956 139.762 144.455 136.588Z" fill="url(#paint18_linear_6434_31118)"/>
<path d="M152.271 151.494C148.574 153.666 143.924 152.612 141.884 149.141C139.845 145.67 141.189 141.095 144.886 138.923C148.583 136.751 155.968 149.322 152.271 151.494Z" fill="white"/>
<path d="M170.142 133.826C169.915 133.432 169.655 133.068 169.382 132.719C170.737 137.344 168.513 142.673 163.756 145.419L153.253 151.483C148.188 154.408 142.028 153.374 138.831 149.286C139.043 150.007 139.337 150.712 139.727 151.386C142.613 156.385 149.41 157.864 154.909 154.69L165.413 148.625C170.911 145.451 173.028 138.825 170.142 133.826Z" fill="url(#paint19_linear_6434_31118)"/>
<path d="M146.2 156.672L153.431 152.497C157.216 150.312 162.03 151.563 164.182 155.291C166.335 159.019 165.011 163.813 161.226 165.998L153.994 170.173C150.209 172.359 145.395 171.108 143.243 167.38C141.091 163.652 142.414 158.858 146.2 156.672Z" fill="url(#paint20_linear_6434_31118)"/>
<path d="M153.046 168.253C150.123 169.969 146.447 169.137 144.835 166.393C143.223 163.649 144.286 160.032 147.208 158.316C150.13 156.599 155.968 166.536 153.046 168.253Z" fill="white"/>
<path d="M164.182 155.295C163.861 154.74 163.476 154.247 163.05 153.805C164.74 157.432 163.368 161.839 159.784 163.908L152.552 168.083C149.33 169.943 145.37 169.307 142.933 166.78C143.028 166.984 143.127 167.186 143.242 167.385C145.395 171.113 150.208 172.363 153.993 170.178L161.225 166.003C165.011 163.818 166.335 159.024 164.182 155.295Z" fill="url(#paint21_linear_6434_31118)"/>
<path d="M162.768 48.0097C162.768 48.0097 163.705 60.696 172.074 60.9282C180.443 61.1603 188.938 59.0622 191.668 62.2512C191.668 62.2512 185.674 38.2859 164.189 43.8116L162.768 48.0097Z" fill="url(#paint22_linear_6434_31118)"/>
<path d="M145.726 49.1094C145.726 49.1094 143.619 57.4695 145.508 59.5175C147.306 61.4656 164.053 67.4138 165.683 67.9896C165.756 68.0155 165.832 67.9731 165.861 67.8933C166.099 67.2336 166.043 66.4882 165.707 65.8838C164.087 62.9639 159.183 54.2919 156.949 52.2022C154.251 49.6786 145.726 49.1094 145.726 49.1094Z" fill="url(#paint23_linear_6434_31118)"/>
<path opacity="0.68" d="M160.069 64.7739C160.027 64.7995 159.976 64.8064 159.927 64.7878C159.835 64.7533 150.714 61.3181 146.839 59.6679C146.149 59.3743 145.678 58.6526 145.639 57.8298C145.565 56.2438 145.548 53.8632 145.89 51.5267C145.906 51.418 145.998 51.3439 146.095 51.3621C146.192 51.3801 146.258 51.4829 146.242 51.5916C145.887 54.0142 145.935 56.5266 145.996 57.8085C146.027 58.4738 146.408 59.0573 146.966 59.2946C150.835 60.942 159.949 64.375 160.041 64.4093C160.134 64.4442 160.184 64.5575 160.153 64.6623C160.138 64.7119 160.107 64.7507 160.069 64.7739Z" fill="white"/>
<path d="M152.48 30.3976C152.48 30.3976 156.153 22.7457 158.783 22.7422C161.285 22.7389 177.022 31.4841 178.552 32.3376C178.621 32.3759 178.649 32.4658 178.621 32.5456C178.382 33.2053 177.879 33.6974 177.263 33.8714C174.285 34.7116 165.375 37.135 162.471 36.9006C158.964 36.6175 152.48 30.3976 152.48 30.3976Z" fill="url(#paint24_linear_6434_31118)"/>
<path opacity="0.68" d="M172.425 30.5357C172.377 30.5653 172.317 30.5694 172.263 30.5409C172.176 30.4943 163.49 25.8752 159.685 24.0515C159.136 23.7881 158.5 23.9114 158.065 24.3658C157.225 25.2408 155.632 27.0104 154.383 29.0291C154.328 29.1209 154.216 29.1421 154.135 29.0796C154.054 29.017 154.034 28.8926 154.09 28.802C155.357 26.7524 156.972 24.9598 157.821 24.0734C158.361 23.5121 159.147 23.3593 159.825 23.6841C163.637 25.5109 172.329 30.1338 172.417 30.1799C172.506 30.2273 172.543 30.3464 172.501 30.4459C172.484 30.4857 172.457 30.5163 172.425 30.5357Z" fill="white"/>
<path d="M121.597 38.0899C124.484 40.8088 128.024 43.3859 132.306 45.3386C145.598 51.4016 156.305 53.2843 159.363 53.7285C159.916 53.809 160.459 53.5381 160.787 53.0334C163.374 49.0569 165.001 44.6414 165.676 39.7893C165.803 38.8766 165.457 37.9603 164.791 37.4154C161.898 35.0513 153.227 28.4205 140.478 22.7017C136.219 20.7913 132.104 19.8906 128.362 19.5938C123.853 26.1431 122.272 33.733 121.597 38.0899Z" fill="#9BE9DC"/>
<path d="M128.362 19.585C120.098 18.9293 113.66 21.2222 111.541 22.1028C111.127 22.2748 110.935 22.8053 111.127 23.2511C112.101 25.5241 115.29 32.1418 121.597 38.0812C122.272 33.7244 123.853 26.1344 128.362 19.585Z" fill="url(#paint25_linear_6434_31118)"/>
<path d="M138.218 26.141C141.665 27.7003 143.248 32.3215 141.753 36.4629C140.258 40.6042 136.251 42.6975 132.804 41.1382C129.357 39.5789 127.774 34.9577 129.27 30.8163C130.765 26.675 134.771 24.5819 138.218 26.141Z" fill="url(#paint26_linear_6434_31118)"/>
<path d="M137.57 27.3721C140.317 28.6145 141.578 32.2968 140.386 35.5966C139.195 38.8965 136.003 40.5644 133.256 39.322C130.509 38.0795 129.248 34.3972 130.44 31.0974C131.631 27.7975 134.823 26.1298 137.57 27.3721Z" fill="white"/>
<path d="M132.978 37.1124C132.917 37.1499 132.838 37.1449 132.78 37.0924C131.3 35.7492 130.786 33.3713 131.53 31.3103C131.718 30.7905 131.974 30.3128 132.292 29.8912C132.356 29.8071 132.468 29.7961 132.544 29.8674C132.619 29.9383 132.629 30.0644 132.565 30.1486C132.271 30.5384 132.034 30.9793 131.861 31.4601C131.175 33.36 131.646 35.5486 133.005 36.782C133.082 36.8517 133.093 36.9773 133.031 37.0627C133.016 37.0839 132.998 37.1003 132.978 37.1124Z" fill="#189B91"/>
<path d="M149.844 34.3566C152.121 35.3866 153.166 38.4396 152.179 41.1756C151.191 43.9115 148.544 45.2943 146.267 44.2642C143.99 43.2341 142.944 40.1811 143.932 37.4452C144.92 34.7093 147.566 33.3264 149.844 34.3566Z" fill="url(#paint27_linear_6434_31118)"/>
<path d="M149.414 35.17C151.228 35.9908 152.061 38.4235 151.275 40.6035C150.488 42.7835 148.379 43.8853 146.564 43.0645C144.749 42.2438 143.916 39.8111 144.703 37.6311C145.49 35.4511 147.599 34.3494 149.414 35.17Z" fill="white"/>
<path d="M146.41 41.6632C146.348 41.7008 146.27 41.6955 146.212 41.643C145.214 40.7373 144.866 39.1345 145.368 37.7451C145.494 37.3952 145.667 37.0739 145.882 36.7896C145.944 36.7054 146.058 36.6947 146.133 36.766C146.208 36.8369 146.218 36.963 146.154 37.0473C145.964 37.2991 145.811 37.5845 145.699 37.895C145.255 39.1226 145.559 40.5365 146.437 41.3328C146.513 41.4023 146.525 41.528 146.463 41.6134C146.448 41.6345 146.43 41.6509 146.41 41.6632Z" fill="#169B90"/>
<path d="M108.857 114.698C124.19 114.698 136.62 102.268 136.62 86.9349C136.62 71.6018 124.19 59.1719 108.857 59.1719C93.5237 59.1719 81.0938 71.6018 81.0938 86.9349C81.0938 102.268 93.5237 114.698 108.857 114.698Z" fill="url(#paint28_linear_6434_31118)"/>
<path d="M108.856 113.099C123.301 113.099 135.011 101.389 135.011 86.9443C135.011 72.4991 123.301 60.7891 108.856 60.7891C94.4105 60.7891 82.7004 72.4991 82.7004 86.9443C82.7004 101.389 94.4105 113.099 108.856 113.099Z" fill="#B4EEE4"/>
<path opacity="0.5" d="M110.707 85.6606L132.851 85.0577C131.487 71.8694 123.337 63.6275 110.483 62.3047L110.707 85.6606Z" fill="url(#paint29_linear_6434_31118)"/>
<path d="M106.576 109.509C105.134 109.385 103.692 109.113 102.267 108.688C90.6884 105.231 84.2144 92.7932 87.9673 81.0553C89.8227 75.2526 93.8356 70.5781 99.243 67.8965C99.904 67.5686 100.704 67.842 101.03 68.5068C101.356 69.1712 101.085 69.9759 100.425 70.3045C95.6836 72.6645 92.1672 76.7694 90.5423 81.8602C87.2569 92.1538 92.9258 103.067 103.078 106.115C110.443 108.327 118.372 105.852 123.307 99.8577C123.772 99.2929 124.59 99.2116 125.134 99.6758C125.678 100.14 125.742 100.973 125.279 101.537C120.623 107.204 113.62 110.115 106.576 109.509Z" fill="url(#paint30_linear_6434_31118)"/>
<path d="M96.6478 75.3798L99.1134 69.4214L93.175 66.9414L96.7482 65.4688L102.659 67.9497L100.206 73.8921L96.6478 75.3798Z" fill="url(#paint31_linear_6434_31118)"/>
<path d="M110.098 86.6287C110.098 87.5138 109.414 88.2458 108.569 88.2637C107.723 88.2816 107.036 87.577 107.036 86.69C107.036 85.8029 107.723 85.0709 108.569 85.055C109.414 85.039 110.098 85.7436 110.098 86.6287Z" fill="white"/>
<path d="M108.547 75.047C108.217 75.0521 107.972 75.2262 107.972 75.7354L107.95 85.8132C107.95 86.3224 108.217 86.7273 108.547 86.7176C108.875 86.7078 109.142 86.2878 109.142 85.7792L109.121 75.7189C109.121 75.2103 108.875 75.0418 108.547 75.047Z" fill="white"/>
<path d="M108.485 86.8735C108.309 86.6672 108.006 86.6557 107.809 86.848L96.6678 97.9439C96.467 98.1399 96.45 98.4665 96.6301 98.6731C96.8101 98.8797 97.1187 98.8881 97.3194 98.692L108.448 87.595C108.645 87.4028 108.662 87.0798 108.485 86.8735Z" fill="white"/>
<defs>
<radialGradient id="paint0_radial_6434_31118" cx="0" cy="0" r="1" gradientUnits="userSpaceOnUse" gradientTransform="translate(110.017 123) scale(109.013 109.013)">
<stop stop-color="#73B4AF"/>
<stop offset="1" stop-color="#B9EACB"/>
</radialGradient>
<linearGradient id="paint1_linear_6434_31118" x1="32.4207" y1="43.5084" x2="75.1124" y2="43.5084" gradientUnits="userSpaceOnUse">
<stop stop-color="#11998E"/>
<stop offset="1" stop-color="#6EBCB6"/>
</linearGradient>
<linearGradient id="paint2_linear_6434_31118" x1="33.5974" y1="21.6613" x2="35.5132" y2="21.6613" gradientUnits="userSpaceOnUse">
<stop stop-color="#11998E"/>
<stop offset="1" stop-color="#6EBCB6"/>
</linearGradient>
<linearGradient id="paint3_linear_6434_31118" x1="48.542" y1="3.87025" x2="51.1878" y2="3.87025" gradientUnits="userSpaceOnUse">
<stop stop-color="#11998E"/>
<stop offset="1" stop-color="#6EBCB6"/>
</linearGradient>
<linearGradient id="paint4_linear_6434_31118" x1="53.4622" y1="18.7031" x2="93.8786" y2="18.7031" gradientUnits="userSpaceOnUse">
<stop stop-color="#11998E"/>
<stop offset="1" stop-color="#6EBCB6"/>
</linearGradient>
<linearGradient id="paint5_linear_6434_31118" x1="90.2563" y1="41.1832" x2="92.2254" y2="41.1832" gradientUnits="userSpaceOnUse">
<stop stop-color="#11998E"/>
<stop offset="1" stop-color="#6EBCB6"/>
</linearGradient>
<linearGradient id="paint6_linear_6434_31118" x1="39.7151" y1="30.8104" x2="86.0707" y2="30.8104" gradientUnits="userSpaceOnUse">
<stop stop-color="#11998E"/>
<stop offset="1" stop-color="#6EBCB6"/>
</linearGradient>
<linearGradient id="paint7_linear_6434_31118" x1="42.8115" y1="100.007" x2="44.9107" y2="100.007" gradientUnits="userSpaceOnUse">
<stop stop-color="#11998E"/>
<stop offset="1" stop-color="#6EBCB6"/>
</linearGradient>
<linearGradient id="paint8_linear_6434_31118" x1="35.6176" y1="79.7245" x2="50.3418" y2="79.7245" gradientUnits="userSpaceOnUse">
<stop stop-color="#11998E"/>
<stop offset="1" stop-color="#6EBCB6"/>
</linearGradient>
<linearGradient id="paint9_linear_6434_31118" x1="61.1969" y1="92.8044" x2="82.4353" y2="92.8044" gradientUnits="userSpaceOnUse">
<stop stop-color="#11998E"/>
<stop offset="1" stop-color="#6EBCB6"/>
</linearGradient>
<linearGradient id="paint10_linear_6434_31118" x1="57.0481" y1="105.737" x2="59.4864" y2="105.737" gradientUnits="userSpaceOnUse">
<stop stop-color="#11998E"/>
<stop offset="1" stop-color="#6EBCB6"/>
</linearGradient>
<linearGradient id="paint11_linear_6434_31118" x1="41.4947" y1="82.7208" x2="76.3583" y2="82.7208" gradientUnits="userSpaceOnUse">
<stop stop-color="#11998E"/>
<stop offset="1" stop-color="#6EBCB6"/>
</linearGradient>
<linearGradient id="paint12_linear_6434_31118" x1="20.0002" y1="204.5" x2="154" y2="204.5" gradientUnits="userSpaceOnUse">
<stop stop-color="#F4D0C6"/>
<stop offset="1" stop-color="#F8E9E5"/>
</linearGradient>
<linearGradient id="paint13_linear_6434_31118" x1="106.43" y1="102.073" x2="179.793" y2="102.073" gradientUnits="userSpaceOnUse">
<stop stop-color="#F4D0C6"/>
<stop offset="1" stop-color="#F8E9E5"/>
</linearGradient>
<linearGradient id="paint14_linear_6434_31118" x1="106.429" y1="104.125" x2="179.793" y2="104.125" gradientUnits="userSpaceOnUse">
<stop stop-color="#F4D0C6"/>
<stop offset="1" stop-color="#F8E9E5"/>
</linearGradient>
<linearGradient id="paint15_linear_6434_31118" x1="41.0001" y1="169.866" x2="108.871" y2="169.866" gradientUnits="userSpaceOnUse">
<stop stop-color="#F4D0C6"/>
<stop offset="1" stop-color="#F8E9E5"/>
</linearGradient>
<linearGradient id="paint16_linear_6434_31118" x1="136.976" y1="119.247" x2="171.444" y2="119.247" gradientUnits="userSpaceOnUse">
<stop stop-color="#F4D0C6"/>
<stop offset="1" stop-color="#F8E9E5"/>
</linearGradient>
<linearGradient id="paint17_linear_6434_31118" x1="137.647" y1="121.254" x2="171.446" y2="121.254" gradientUnits="userSpaceOnUse">
<stop stop-color="#F4D0C6"/>
<stop offset="1" stop-color="#F8E9E5"/>
</linearGradient>
<linearGradient id="paint18_linear_6434_31118" x1="138.435" y1="142.608" x2="171.431" y2="142.608" gradientUnits="userSpaceOnUse">
<stop stop-color="#F4D0C6"/>
<stop offset="1" stop-color="#F8E9E5"/>
</linearGradient>
<linearGradient id="paint19_linear_6434_31118" x1="138.831" y1="144.54" x2="171.433" y2="144.54" gradientUnits="userSpaceOnUse">
<stop stop-color="#F4D0C6"/>
<stop offset="1" stop-color="#F8E9E5"/>
</linearGradient>
<linearGradient id="paint20_linear_6434_31118" x1="142.211" y1="161.335" x2="165.214" y2="161.335" gradientUnits="userSpaceOnUse">
<stop stop-color="#F4D0C6"/>
<stop offset="1" stop-color="#F8E9E5"/>
</linearGradient>
<linearGradient id="paint21_linear_6434_31118" x1="142.933" y1="162.529" x2="165.214" y2="162.529" gradientUnits="userSpaceOnUse">
<stop stop-color="#F4D0C6"/>
<stop offset="1" stop-color="#F8E9E5"/>
</linearGradient>
<linearGradient id="paint22_linear_6434_31118" x1="162.768" y1="52.6178" x2="191.669" y2="52.6178" gradientUnits="userSpaceOnUse">
<stop stop-color="#11998E"/>
<stop offset="1" stop-color="#6EBCB6"/>
</linearGradient>
<linearGradient id="paint23_linear_6434_31118" x1="144.721" y1="58.5533" x2="166.007" y2="58.5533" gradientUnits="userSpaceOnUse">
<stop stop-color="#11998E"/>
<stop offset="1" stop-color="#6EBCB6"/>
</linearGradient>
<linearGradient id="paint24_linear_6434_31118" x1="152.48" y1="29.8294" x2="178.632" y2="29.8294" gradientUnits="userSpaceOnUse">
<stop stop-color="#11998E"/>
<stop offset="1" stop-color="#6EBCB6"/>
</linearGradient>
<linearGradient id="paint25_linear_6434_31118" x1="111.052" y1="28.775" x2="128.362" y2="28.775" gradientUnits="userSpaceOnUse">
<stop stop-color="#11998E"/>
<stop offset="1" stop-color="#6EBCB6"/>
</linearGradient>
<linearGradient id="paint26_linear_6434_31118" x1="128.706" y1="33.6397" x2="142.316" y2="33.6397" gradientUnits="userSpaceOnUse">
<stop stop-color="#11998E"/>
<stop offset="1" stop-color="#6EBCB6"/>
</linearGradient>
<linearGradient id="paint27_linear_6434_31118" x1="143.56" y1="39.3104" x2="152.551" y2="39.3104" gradientUnits="userSpaceOnUse">
<stop stop-color="#11998E"/>
<stop offset="1" stop-color="#6EBCB6"/>
</linearGradient>
<linearGradient id="paint28_linear_6434_31118" x1="81.0935" y1="86.9351" x2="136.62" y2="86.9351" gradientUnits="userSpaceOnUse">
<stop stop-color="#11998E"/>
<stop offset="1" stop-color="#6EBCB6"/>
</linearGradient>
<linearGradient id="paint29_linear_6434_31118" x1="110.483" y1="73.9827" x2="132.851" y2="73.9827" gradientUnits="userSpaceOnUse">
<stop stop-color="#11998E"/>
<stop offset="1" stop-color="#6EBCB6"/>
</linearGradient>
<linearGradient id="paint30_linear_6434_31118" x1="86.9002" y1="88.6729" x2="125.589" y2="88.6729" gradientUnits="userSpaceOnUse">
<stop stop-color="#11998E"/>
<stop offset="1" stop-color="#6EBCB6"/>
</linearGradient>
<linearGradient id="paint31_linear_6434_31118" x1="93.175" y1="70.4243" x2="102.659" y2="70.4243" gradientUnits="userSpaceOnUse">
<stop stop-color="#11998E"/>
<stop offset="1" stop-color="#6EBCB6"/>
</linearGradient>
</defs>
</svg>
