<svg width="119" height="80" viewBox="0 0 119 80" fill="none" xmlns="http://www.w3.org/2000/svg">
<path d="M80.1793 28.6299C71.8193 28.6299 63.3193 28.2999 55.3593 26.0799C47.3993 23.8599 40.4193 19.7099 33.9993 14.8499C29.8093 11.6799 25.9993 9.16985 20.5693 9.54985C15.2565 9.83012 10.1754 11.8149 6.0793 15.2099C-0.830697 21.2099 0.219303 32.4398 2.9793 40.3099C7.1293 52.1599 19.7693 60.3899 30.5093 65.7599C42.9193 71.9599 56.5093 75.5599 70.2193 77.6299C82.2193 79.4499 97.5893 80.7699 107.969 72.9498C117.509 65.7598 120.129 49.3499 117.789 38.2599C117.223 34.9855 115.48 32.0305 112.889 29.9499C106.189 25.0599 96.1993 28.3299 88.6693 28.4899C85.8693 28.5499 82.9993 28.6199 80.1793 28.6299Z" fill="#F2F2F2"/>
<path d="M106.449 53.2998V57.5998" stroke="#BABABA" stroke-linecap="round" stroke-linejoin="round"/>
<path d="M104.301 55.4502H108.601" stroke="#BABABA" stroke-linecap="round" stroke-linejoin="round"/>
<path d="M31.2207 28.8999V33.1999" stroke="#BABABA" stroke-linecap="round" stroke-linejoin="round"/>
<path d="M29.0703 31.0498H33.3703" stroke="#BABABA" stroke-linecap="round" stroke-linejoin="round"/>
<path d="M57.8198 10.6499C58.3611 10.6499 58.7999 10.2112 58.7999 9.66994C58.7999 9.1287 58.3611 8.68994 57.8198 8.68994C57.2786 8.68994 56.8398 9.1287 56.8398 9.66994C56.8398 10.2112 57.2786 10.6499 57.8198 10.6499Z" fill="#CFCFCF"/>
<path d="M21.2808 6.54984C21.822 6.54984 22.2608 6.11108 22.2608 5.56984C22.2608 5.0286 21.822 4.58984 21.2808 4.58984C20.7395 4.58984 20.3008 5.0286 20.3008 5.56984C20.3008 6.11108 20.7395 6.54984 21.2808 6.54984Z" fill="#CFCFCF"/>
<path d="M48.8295 31.3999H45.0195V57.7399H48.8295V31.3999Z" fill="#D2D2D2"/>
<path d="M44.9447 33.3186L46.7598 36.6685L68.7846 24.7348L66.9695 21.385L44.9447 33.3186Z" fill="#D2D2D2"/>
<path d="M43.7998 55.46H49.6298C52.6029 55.46 55.4542 56.641 57.5565 58.7433C59.6588 60.8456 60.8398 63.6969 60.8398 66.67V67.49H32.5898V66.67C32.5898 63.6969 33.7709 60.8456 35.8732 58.7433C37.9755 56.641 40.8268 55.46 43.7998 55.46Z" fill="white" stroke="#BABABA" stroke-linecap="round" stroke-linejoin="round"/>
<path d="M64.6902 67.6201H28.7402" stroke="#BABABA" stroke-linecap="round" stroke-linejoin="round"/>
<path d="M47.1608 41.0999C50.8114 41.0999 53.7708 38.1405 53.7708 34.4899C53.7708 30.8393 50.8114 27.8799 47.1608 27.8799C43.5102 27.8799 40.5508 30.8393 40.5508 34.4899C40.5508 38.1405 43.5102 41.0999 47.1608 41.0999Z" fill="white" stroke="#BABABA" stroke-linecap="round" stroke-linejoin="round"/>
<path d="M83.9298 59.6798C83.7598 59.6198 82.4798 59.7398 82.3198 59.6798C81.1698 59.2498 80.7598 60.6798 79.6998 60.0898C72.9485 56.6155 67.702 50.7907 64.95 43.7142C62.198 36.6377 62.1307 28.7988 64.7608 21.6761C67.3909 14.5534 72.5366 8.63936 79.2272 5.04964C85.9178 1.45992 93.6907 0.442663 101.08 2.18977C102.341 2.49488 103.584 2.87557 104.8 3.32977C105.03 3.40977 104.47 4.64977 104.69 4.72977L83.9298 59.6798Z" fill="white" stroke="#BABABA" stroke-linecap="round" stroke-linejoin="round"/>
<path d="M103.82 35.9998C99.0004 48.9098 91.8804 58.7298 86.1104 61.2498C85.3378 61.614 84.5029 61.8278 83.6504 61.8798C83.0051 61.9232 82.358 61.8312 81.7504 61.6098C81.2719 61.432 80.8285 61.1714 80.4404 60.8398C80.221 60.6639 80.0199 60.4662 79.8404 60.2498C75.8404 55.6798 76.4904 42.2498 81.8404 27.8498C87.1404 13.6698 95.2604 3.17982 101.27 2.09982C101.642 2.02321 102.021 1.98965 102.4 1.99982C102.909 2.01065 103.412 2.10525 103.89 2.27982C104.572 2.53998 105.185 2.95407 105.68 3.48982C106.215 4.05906 106.66 4.70649 107 5.40982C109.69 11.0998 108.62 23.1798 103.82 35.9998Z" fill="#D2D2D2"/>
<path d="M82.4297 27.2402L113.67 38.6502" stroke="#BABABA" stroke-linecap="round" stroke-linejoin="round"/>
<path d="M111.87 42.0999C114.278 42.0999 116.23 40.1478 116.23 37.7399C116.23 35.3319 114.278 33.3799 111.87 33.3799C109.462 33.3799 107.51 35.3319 107.51 37.7399C107.51 40.1478 109.462 42.0999 111.87 42.0999Z" fill="white" stroke="#BABABA" stroke-linecap="round" stroke-linejoin="round"/>
<path d="M38.8409 14.5501C38.8409 15.0999 38.7324 15.6442 38.5217 16.152C38.311 16.6598 38.0022 17.1211 37.613 17.5094C37.2238 17.8976 36.7618 18.2053 36.2535 18.4148C35.7453 18.6243 35.2006 18.7314 34.6509 18.7301H24.3809C23.5852 18.7301 22.8221 18.414 22.2595 17.8514C21.6969 17.2888 21.3809 16.5258 21.3809 15.7301C21.3809 14.9345 21.6969 14.1714 22.2595 13.6088C22.8221 13.0462 23.5852 12.7301 24.3809 12.7301C24.7746 12.7307 25.1647 12.8053 25.5309 12.9501C25.4906 12.756 25.4705 12.5583 25.4709 12.3601C25.4779 11.5803 25.7652 10.8291 26.2802 10.2435C26.7951 9.65786 27.5035 9.27695 28.276 9.17023C29.0485 9.06351 29.8336 9.23811 30.488 9.66217C31.1425 10.0862 31.6226 10.7315 31.8409 11.4801C32.602 10.7669 33.6078 10.3732 34.6509 10.3801C35.1998 10.3788 35.7436 10.4856 36.2512 10.6945C36.7589 10.9033 37.2204 11.2101 37.6095 11.5973C37.9986 11.9846 38.3076 12.4446 38.5189 12.9513C38.7301 13.4579 38.8395 14.0012 38.8409 14.5501Z" fill="white" stroke="#BABABA" stroke-linecap="round" stroke-linejoin="round"/>
</svg>
