<svg width="119" height="89" viewBox="0 0 119 89" fill="none" xmlns="http://www.w3.org/2000/svg">
<path d="M80.1774 19.6279C71.8174 19.6279 63.3173 19.2979 55.3573 17.0779C47.3974 14.8579 40.4174 10.7079 33.9973 5.8479C29.8073 2.6779 25.9974 0.167899 20.5674 0.547899C15.2546 0.828168 10.1735 2.81291 6.07735 6.2079C-0.83265 12.2079 0.21735 23.4379 2.97735 31.3079C7.12735 43.1579 19.7673 51.3879 30.5073 56.7579C42.9174 62.9579 56.5074 66.5579 70.2174 68.6279C82.2174 70.4479 97.5874 71.7679 107.967 63.9479C117.507 56.7579 120.127 40.3479 117.787 29.2579C117.221 25.9835 115.478 23.0285 112.887 20.9479C106.187 16.0579 96.1973 19.3279 88.6674 19.4879C85.8673 19.5479 82.9974 19.6179 80.1774 19.6279Z" fill="#F2F2F2"/>
<path d="M63.9195 88.04C84.1608 88.04 100.57 87.0192 100.57 85.76C100.57 84.5008 84.1608 83.48 63.9195 83.48C43.6783 83.48 27.2695 84.5008 27.2695 85.76C27.2695 87.0192 43.6783 88.04 63.9195 88.04Z" fill="#F2F2F2"/>
<path d="M27.75 27.9165C27.7498 30.8276 28.3231 33.7102 29.437 36.3997C30.5509 39.0892 32.1836 41.533 34.242 43.5915C36.3004 45.65 38.7441 47.2829 41.4336 48.397C44.123 49.511 47.0056 50.0844 49.9167 50.0844C52.8277 50.0844 55.7103 49.511 58.3998 48.397C61.0892 47.2829 63.5329 45.65 65.5913 43.5915C67.6497 41.533 69.2825 39.0892 70.3964 36.3997C71.5103 33.7102 72.0835 30.8276 72.0833 27.9165C72.0835 25.0054 71.5103 22.1228 70.3964 19.4333C69.2825 16.7437 67.6497 14.3 65.5913 12.2415C63.5329 10.183 61.0892 8.55005 58.3998 7.43599C55.7103 6.32194 52.8277 5.74854 49.9167 5.74854C47.0056 5.74854 44.123 6.32194 41.4336 7.43599C38.7441 8.55005 36.3004 10.183 34.242 12.2415C32.1836 14.3 30.5509 16.7437 29.437 19.4333C28.3231 22.1228 27.7498 25.0054 27.75 27.9165Z" fill="white" stroke="#BABABA" stroke-linecap="round" stroke-linejoin="round"/>
<path opacity="0.9" d="M48.334 13.6665H51.5007V27.9165H48.334V13.6665Z" fill="#BABABA"/>
<path opacity="0.9" d="M58.8699 34.177L56.183 36.8639L48.5703 29.2528L51.2572 26.5659L58.8699 34.177Z" fill="#BABABA"/>
<path opacity="0.9" d="M46.75 27.9167C46.7499 28.3326 46.8318 28.7444 46.9909 29.1286C47.15 29.5129 47.3833 29.862 47.6773 30.1561C47.9714 30.4503 48.3205 30.6835 48.7047 30.8427C49.089 31.0019 49.5008 31.0838 49.9167 31.0838C50.3326 31.0838 50.7444 31.0019 51.1286 30.8427C51.5128 30.6835 51.862 30.4503 52.156 30.1561C52.4501 29.862 52.6833 29.5129 52.8424 29.1286C53.0015 28.7444 53.0834 28.3326 53.0833 27.9167C53.0834 27.5008 53.0015 27.0889 52.8424 26.7047C52.6833 26.3204 52.4501 25.9713 52.156 25.6772C51.862 25.3831 51.5128 25.1498 51.1286 24.9906C50.7444 24.8314 50.3326 24.7495 49.9167 24.7495C49.5008 24.7495 49.089 24.8314 48.7047 24.9906C48.3205 25.1498 47.9714 25.3831 47.6773 25.6772C47.3833 25.9713 47.15 26.3204 46.9909 26.7047C46.8318 27.0889 46.7499 27.5008 46.75 27.9167Z" fill="#BABABA"/>
<path d="M48.334 27.9168C48.334 28.3368 48.5008 28.7395 48.7977 29.0364C49.0947 29.3333 49.4974 29.5002 49.9173 29.5002C50.3372 29.5002 50.74 29.3333 51.0369 29.0364C51.3338 28.7395 51.5007 28.3368 51.5007 27.9168C51.5007 27.4969 51.3338 27.0942 51.0369 26.7972C50.74 26.5003 50.3372 26.3335 49.9173 26.3335C49.4974 26.3335 49.0947 26.5003 48.7977 26.7972C48.5008 27.0942 48.334 27.4969 48.334 27.9168Z" fill="white"/>
<path d="M41.8426 67.4999L64.6426 29.3416C65.9093 27.2833 68.9176 27.2833 70.0259 29.3416L92.8259 67.4999C94.0926 69.5583 92.5093 72.2499 90.1343 72.2499H44.5343C42.1593 72.2499 40.5759 69.5583 41.8426 67.4999Z" fill="#D2D2D2"/>
<path d="M64.8008 64.175C64.8008 63.8583 64.8008 63.5417 64.9591 63.225C65.1174 62.9083 65.2758 62.75 65.4341 62.4333C65.5924 62.1167 65.9091 62.1167 66.2258 61.9583C66.5424 61.8 66.8591 61.8 67.1758 61.8C67.4924 61.8 67.9674 61.8 68.2841 61.9583C68.6008 62.1167 68.9174 62.275 69.0758 62.4333C69.2341 62.5917 69.3924 62.9083 69.5508 63.225C69.7091 63.5417 69.7091 63.8583 69.7091 64.175C69.7091 64.4917 69.7091 64.8083 69.5508 65.125C69.3924 65.4417 69.2341 65.6 69.0758 65.9167C68.9174 66.2333 68.6008 66.2333 68.2841 66.3917C67.9674 66.55 67.6508 66.55 67.1758 66.55C66.7008 66.55 66.3841 66.55 66.2258 66.3917C66.0674 66.2333 65.5924 66.075 65.4341 65.9167C65.2758 65.7583 65.1174 65.4417 64.9591 65.125C64.8008 64.8083 64.8008 64.4917 64.8008 64.175ZM69.2341 59.2667H65.5924L64.9591 43.75H69.7091L69.2341 59.2667Z" fill="white"/>
</svg>
