<svg width="119" height="104" viewBox="0 0 119 104" fill="none" xmlns="http://www.w3.org/2000/svg">
<path d="M16.1109 76.1299C16.6521 76.1299 17.0909 75.6912 17.0909 75.1499C17.0909 74.6087 16.6521 74.1699 16.1109 74.1699C15.5696 74.1699 15.1309 74.6087 15.1309 75.1499C15.1309 75.6912 15.5696 76.1299 16.1109 76.1299Z" fill="#CFCFCF"/>
<path d="M79.6602 35.1698C71.2902 35.1698 62.7702 34.8298 54.8002 32.6098C46.9802 30.4398 39.8002 26.2298 33.4002 21.3598C29.2102 18.1898 25.4002 15.6598 19.9602 16.0398C14.6382 16.3278 9.54898 18.3151 5.44019 21.7098C-1.47981 27.7698 -0.439808 38.9998 2.33019 46.8598C6.49019 58.7298 19.1502 66.9998 29.9102 72.3498C42.3402 78.5598 56.0002 82.1698 69.6902 84.2398C81.6902 86.0698 97.1102 87.3898 107.51 79.5598C117.06 72.3498 119.68 55.9098 117.34 44.8098C116.772 41.5307 115.026 38.5719 112.43 36.4898C105.72 31.5798 95.7102 34.8598 88.1702 35.0198C85.3702 35.0798 82.5202 35.1498 79.6602 35.1698Z" fill="#F2F2F2"/>
<path d="M62.2295 85.4799C68.4647 85.4799 73.5194 80.4252 73.5194 74.1899C73.5194 67.9546 68.4647 62.8999 62.2295 62.8999C55.9942 62.8999 50.9395 67.9546 50.9395 74.1899C50.9395 80.4252 55.9942 85.4799 62.2295 85.4799Z" fill="#D2D2D2"/>
<path d="M50.5638 3.70633C51.188 3.56714 51.8335 3.55227 52.4635 3.66255C53.0934 3.77284 53.6955 4.00612 54.2353 4.34909C54.7751 4.69205 55.2421 5.13798 55.6095 5.66141C55.977 6.18484 56.2378 6.77552 56.377 7.39973L58.1811 15.491L48.6551 17.6151L46.8509 9.52382C46.7113 8.89797 46.6968 8.25071 46.808 7.61921C46.9192 6.9877 47.154 6.38438 47.499 5.84386C47.844 5.30334 48.2923 4.83628 48.8182 4.46946C49.3442 4.10265 49.9374 3.84331 50.5638 3.70633Z" fill="white" stroke="#BABABA" stroke-linecap="round" stroke-linejoin="round"/>
<path d="M95.0694 67.1801L37.1794 80.0801C36.8198 80.1608 36.4454 80.1464 36.0931 80.0382C35.7408 79.9301 35.4228 79.732 35.1704 79.4634C34.918 79.1949 34.74 78.8652 34.6539 78.5069C34.5678 78.1486 34.5766 77.774 34.6794 77.4201L34.9194 76.5901C36.9194 69.5001 38.6594 61.6901 37.0594 54.4901L33.6394 39.1301C30.7594 26.2201 38.4994 13.0701 51.3394 9.90011C54.4704 9.12285 57.7252 8.9797 60.9123 9.47911C64.0995 9.97852 67.1545 11.1104 69.8977 12.8081C72.6409 14.5058 75.0168 16.7351 76.8855 19.3647C78.7543 21.9943 80.0782 24.9712 80.7794 28.1201L84.3094 44.0001C85.9194 51.2001 90.7794 57.5601 95.6394 63.1001L96.2094 63.7501C96.4401 64.0285 96.5963 64.361 96.663 64.7164C96.7298 65.0717 96.7049 65.4382 96.5909 65.7814C96.4769 66.1245 96.2774 66.4329 96.0112 66.6776C95.745 66.9224 95.4209 67.0953 95.0694 67.1801Z" fill="white" stroke="#BABABA" stroke-linecap="round" stroke-linejoin="round"/>
<path d="M52.2502 57.2799C52.2344 54.9442 53.0192 52.6736 54.4738 50.8461C55.9284 49.0186 57.9651 47.7445 60.2448 47.2359C62.5246 46.7274 64.9097 47.015 67.0031 48.0511C69.0965 49.0871 70.7719 50.8089 71.7502 52.9299" stroke="#BABABA" stroke-linecap="round" stroke-linejoin="round"/>
<path d="M70.1095 41.05C70.8937 41.05 71.5294 40.4142 71.5294 39.63C71.5294 38.8457 70.8937 38.21 70.1095 38.21C69.3252 38.21 68.6895 38.8457 68.6895 39.63C68.6895 40.4142 69.3252 41.05 70.1095 41.05Z" fill="#BABABA"/>
<path d="M48.0899 45.9601C48.8742 45.9601 49.5099 45.3244 49.5099 44.5401C49.5099 43.7559 48.8742 43.1201 48.0899 43.1201C47.3057 43.1201 46.6699 43.7559 46.6699 44.5401C46.6699 45.3244 47.3057 45.9601 48.0899 45.9601Z" fill="#BABABA"/>
<path d="M74.5698 2.20024C75.1111 2.20024 75.5499 1.76147 75.5499 1.22023C75.5499 0.678995 75.1111 0.240234 74.5698 0.240234C74.0286 0.240234 73.5898 0.678995 73.5898 1.22023C73.5898 1.76147 74.0286 2.20024 74.5698 2.20024Z" fill="#CFCFCF"/>
<path d="M16.1109 76.1299C16.6521 76.1299 17.0909 75.6912 17.0909 75.1499C17.0909 74.6087 16.6521 74.1699 16.1109 74.1699C15.5696 74.1699 15.1309 74.6087 15.1309 75.1499C15.1309 75.6912 15.5696 76.1299 16.1109 76.1299Z" fill="#CFCFCF"/>
<path d="M101.65 24.8901V29.1901" stroke="#BABABA" stroke-linecap="round" stroke-linejoin="round"/>
<path d="M99.5 27.04H103.8" stroke="#BABABA" stroke-linecap="round" stroke-linejoin="round"/>
<path d="M103.609 89.6299V93.9299" stroke="#BABABA" stroke-linecap="round" stroke-linejoin="round"/>
<path d="M101.461 91.7798H105.761" stroke="#BABABA" stroke-linecap="round" stroke-linejoin="round"/>
<path d="M28.4297 8.58984V12.8898" stroke="#BABABA" stroke-linecap="round" stroke-linejoin="round"/>
<path d="M26.2793 10.7402H30.5793" stroke="#BABABA" stroke-linecap="round" stroke-linejoin="round"/>
<path d="M59.5791 103.7C79.8535 103.7 96.2891 102.675 96.2891 101.41C96.2891 100.145 79.8535 99.1201 59.5791 99.1201C39.3048 99.1201 22.8691 100.145 22.8691 101.41C22.8691 102.675 39.3048 103.7 59.5791 103.7Z" fill="#F2F2F2"/>
<path d="M94.6509 22.4499C94.6483 25.4912 93.439 28.4071 91.2885 30.5575C89.138 32.708 86.2221 33.9173 83.1809 33.9199C82.8068 33.9199 82.4329 33.8999 82.0609 33.8599L78.6609 39.4099L77.6009 32.4599C75.8344 31.4763 74.3594 30.0433 73.3251 28.306C72.2909 26.5686 71.7343 24.5888 71.7117 22.5671C71.689 20.5453 72.2012 18.5536 73.1963 16.7935C74.1914 15.0335 75.6341 13.5678 77.3781 12.5449C79.1221 11.522 81.1055 10.9783 83.1274 10.9689C85.1492 10.9594 87.1376 11.4846 88.8911 12.4911C90.6446 13.4977 92.1009 14.9499 93.1124 16.7005C94.1239 18.4512 94.6547 20.4381 94.6509 22.4599V22.4499Z" fill="white" stroke="#BABABA" stroke-linecap="round" stroke-linejoin="round"/>
<path d="M78.2791 23.61C78.9198 23.61 79.4391 23.0907 79.4391 22.45C79.4391 21.8094 78.9198 21.29 78.2791 21.29C77.6385 21.29 77.1191 21.8094 77.1191 22.45C77.1191 23.0907 77.6385 23.61 78.2791 23.61Z" fill="#D2D2D2" stroke="#D2D2D2" stroke-miterlimit="10"/>
<path d="M83.1795 23.61C83.8202 23.61 84.3395 23.0907 84.3395 22.45C84.3395 21.8094 83.8202 21.29 83.1795 21.29C82.5389 21.29 82.0195 21.8094 82.0195 22.45C82.0195 23.0907 82.5389 23.61 83.1795 23.61Z" fill="#D2D2D2" stroke="#D2D2D2" stroke-miterlimit="10"/>
<path d="M88.0799 23.61C88.7206 23.61 89.2399 23.0907 89.2399 22.45C89.2399 21.8094 88.7206 21.29 88.0799 21.29C87.4393 21.29 86.9199 21.8094 86.9199 22.45C86.9199 23.0907 87.4393 23.61 88.0799 23.61Z" fill="#D2D2D2" stroke="#D2D2D2" stroke-miterlimit="10"/>
</svg>
