<svg width="375" height="455" viewBox="0 0 375 455" fill="none" xmlns="http://www.w3.org/2000/svg">
<rect width="392.073" height="212.611" rx="12" transform="matrix(0.872496 0.488621 -0.707107 0.707107 72.3385 60.0156)" fill="url(#paint0_linear_6724_2627)"/>
<path d="M30.8668 116.743L32.3376 115.272L35.9672 117.305L25.6576 127.615L23.6508 126.491L32.4897 117.652L30.8668 116.743ZM31.6818 127.569C33.5811 127.412 35.1005 127.262 36.24 127.121C37.4006 126.977 38.4696 126.752 39.4468 126.446C40.4241 126.14 41.1861 125.714 41.7329 125.167C42.2986 124.601 42.5731 124.064 42.5563 123.554C42.5511 123.051 42.1937 122.601 41.484 122.204C40.7977 121.819 40.0834 121.699 39.3413 121.842C38.6201 121.982 37.951 122.343 37.3337 122.924L35.4143 121.849C36.524 120.794 37.7397 120.195 39.0616 120.053C40.4045 119.908 41.6634 120.164 42.8384 120.822C44.1064 121.532 44.8124 122.369 44.9563 123.332C45.1119 124.302 44.7183 125.258 43.7755 126.201C43.0967 126.879 42.2262 127.414 41.1641 127.805C40.123 128.192 39.056 128.47 37.963 128.637C36.8911 128.802 35.5762 128.955 34.0182 129.098L32.6673 129.224L38.1989 132.322L36.8554 133.665L28.3748 128.916L29.5486 127.742L31.6818 127.569ZM46.1907 127.002C47.1373 126.164 48.2339 125.712 49.4803 125.645C50.7383 125.585 51.9607 125.887 53.1473 126.551C53.9616 127.007 54.5476 127.519 54.9052 128.087C55.2627 128.655 55.3901 129.227 55.2871 129.801C55.1842 130.376 54.8782 130.918 54.369 131.427C53.7845 132.012 53.0929 132.404 52.2941 132.604C51.4954 132.804 50.7577 132.824 50.0812 132.666L50.0246 132.723C50.5413 133.277 50.7653 133.888 50.6966 134.555C50.6374 135.213 50.259 135.891 49.5613 136.589C49.005 137.145 48.353 137.552 47.6052 137.81C46.8574 138.068 46.048 138.151 45.1768 138.061C44.3152 137.96 43.4539 137.669 42.593 137.187C41.3366 136.483 40.5605 135.644 40.2647 134.67C39.99 133.692 40.3138 132.697 41.2362 131.684L43.1557 132.759C42.7025 133.285 42.5309 133.828 42.6408 134.39C42.7601 134.942 43.1862 135.423 43.9191 135.834C44.6287 136.231 45.331 136.382 46.026 136.286C46.7305 136.18 47.3326 135.878 47.8323 135.378C48.4922 134.718 48.6972 134.105 48.4471 133.538C48.2181 132.969 47.5684 132.384 46.4982 131.785L46.0445 131.531L47.3738 130.201L47.845 130.465C48.7967 130.983 49.6394 131.257 50.3731 131.285C51.1185 131.32 51.7552 131.074 52.2832 130.546C52.7357 130.093 52.9137 129.634 52.817 129.168C52.7298 128.693 52.3546 128.269 51.6915 127.898C51.0401 127.533 50.3973 127.386 49.7633 127.458C49.1387 127.52 48.5935 127.729 48.1277 128.086L46.1907 127.002ZM50.7278 138.301L51.944 137.085L64.6237 133.552L67.0318 134.901L60.3991 141.533L62.022 142.442L60.6219 143.842L58.9991 142.933L56.8495 145.083L54.8951 143.988L57.0447 141.839L50.7278 138.301ZM63.5242 135.495L54.4138 138.181L58.532 140.488L63.5242 135.495ZM81.7787 145.123L75.9329 141.849L73.1187 144.663C73.6269 144.536 74.2091 144.516 74.8652 144.604C75.533 144.699 76.1402 144.899 76.687 145.205C77.6642 145.753 78.2855 146.365 78.5511 147.044C78.8282 147.728 78.8355 148.402 78.5729 149.063C78.3219 149.732 77.9088 150.354 77.3337 150.929C76.636 151.626 75.8451 152.154 74.9609 152.512C74.0978 152.867 73.1791 153.014 72.2049 152.954C71.2423 152.901 70.284 152.607 69.3301 152.072C68.0621 151.362 67.2987 150.538 67.04 149.598C66.7814 148.659 66.996 147.728 67.6838 146.804L69.6208 147.889C69.3056 148.404 69.2371 148.917 69.4151 149.428C69.6027 149.931 70.028 150.367 70.6911 150.739C71.517 151.201 72.3363 151.344 73.1489 151.166C73.9731 150.996 74.7199 150.575 75.3893 149.906C76.0681 149.227 76.3772 148.591 76.3167 147.999C76.2656 147.396 75.8329 146.867 75.0185 146.411C74.4485 146.092 73.8479 145.939 73.2167 145.954C72.6065 145.965 72.0162 146.12 71.4457 146.418L69.5611 145.362L75.5149 139.409L83.1929 143.708L81.7787 145.123ZM90.5583 151.606C90.864 151.101 90.9566 150.645 90.8361 150.239C90.7156 149.833 90.3528 149.461 89.7479 149.122C88.8289 148.608 87.8549 148.511 86.8261 148.832C85.8068 149.143 84.6255 149.953 83.2823 151.26C83.9996 151.014 84.7622 150.941 85.5701 151.041C86.3781 151.14 87.1194 151.379 87.7941 151.757C88.5619 152.187 89.0999 152.701 89.4082 153.3C89.7375 153.897 89.8105 154.541 89.6271 155.232C89.4553 155.93 89.0159 156.633 88.3088 157.34C87.6488 158 86.8967 158.498 86.0524 158.834C85.2198 159.177 84.3385 159.323 83.4086 159.273C82.4882 159.213 81.5859 158.936 80.7017 158.441C79.5035 157.77 78.7733 157.03 78.5112 156.221C78.2702 155.41 78.4013 154.534 78.9047 153.596C79.4196 152.663 80.2617 151.612 81.4307 150.443C84.8814 146.993 88.1075 146.108 91.1089 147.789C92.2722 148.44 92.9308 149.206 93.0848 150.087C93.2504 150.974 93.019 151.822 92.3905 152.632L90.5583 151.606ZM86.0002 152.87C85.2906 152.473 84.5113 152.308 83.6622 152.377C82.8342 152.443 82.0949 152.801 81.4444 153.451C80.7938 154.102 80.5021 154.748 80.5693 155.388C80.6575 156.026 81.1146 156.576 81.9405 157.039C82.6734 157.449 83.4331 157.588 84.2196 157.455C85.0177 157.328 85.7232 156.958 86.336 156.345C86.9772 155.704 87.2769 155.078 87.2352 154.466C87.2146 153.852 86.8029 153.32 86.0002 152.87ZM104.121 157.414L90.205 163.763L88.1982 162.639L101.997 156.49L95.5406 152.874L96.9124 151.502L105.323 156.212L104.121 157.414ZM104.293 163.247C103.574 162.079 103.742 160.967 104.798 159.911C105.307 159.402 105.931 159.023 106.669 158.775C107.407 158.527 108.213 158.456 109.086 158.563C109.969 158.66 110.864 158.962 111.772 159.471C112.667 159.972 113.302 160.526 113.676 161.133C114.07 161.736 114.213 162.338 114.103 162.938C113.992 163.538 113.683 164.093 113.174 164.602C112.646 165.13 112.01 165.502 111.268 165.719C110.546 165.932 109.803 165.994 109.04 165.905C109.505 166.474 109.703 167.093 109.634 167.76C109.575 168.418 109.244 169.049 108.64 169.653C108.027 170.265 107.293 170.7 106.438 170.956C105.583 171.213 104.685 171.276 103.744 171.146C102.803 171.017 101.896 170.707 101.024 170.219C100.151 169.73 99.499 169.166 99.0672 168.527C98.647 167.895 98.4807 167.236 98.5682 166.549C98.6557 165.863 99.0058 165.213 99.6187 164.6C100.231 163.987 100.951 163.567 101.778 163.339C102.605 163.111 103.444 163.08 104.293 163.247ZM111.074 163.735C111.602 163.207 111.803 162.687 111.679 162.177C111.555 161.666 111.138 161.212 110.428 160.814C109.73 160.423 109.036 160.255 108.346 160.31C107.656 160.365 107.042 160.661 106.505 161.198C106.034 161.67 105.856 162.174 105.974 162.71C106.112 163.243 106.512 163.696 107.175 164.067C107.839 164.438 108.536 164.594 109.268 164.533C110 164.472 110.602 164.206 111.074 163.735ZM105.959 165.283C105.191 164.853 104.408 164.657 103.608 164.694C102.829 164.729 102.152 165.034 101.577 165.609C101.04 166.146 100.834 166.715 100.96 167.315C101.095 167.906 101.564 168.426 102.367 168.875C103.158 169.318 103.95 169.497 104.743 169.412C105.548 169.333 106.214 169.03 106.742 168.502C107.308 167.936 107.508 167.364 107.342 166.786C107.188 166.214 106.727 165.713 105.959 165.283ZM117.697 174.791C117.342 175.328 117.234 175.826 117.373 176.286C117.512 176.746 117.907 177.159 118.558 177.523C119.384 177.986 120.253 178.061 121.165 177.748C122.077 177.435 123.169 176.642 124.442 175.369C123.842 175.533 123.197 175.562 122.506 175.454C121.836 175.344 121.204 175.122 120.611 174.79C119.855 174.367 119.291 173.86 118.92 173.269C118.558 172.669 118.441 172.023 118.571 171.331C118.722 170.636 119.151 169.935 119.858 169.228C120.895 168.191 122.092 167.574 123.449 167.378C124.828 167.18 126.174 167.448 127.489 168.184C129.071 169.07 129.765 170.128 129.57 171.357C129.396 172.584 128.428 174.079 126.664 175.842C125.448 177.058 124.326 177.981 123.297 178.611C122.279 179.247 121.264 179.59 120.252 179.641C119.239 179.692 118.186 179.411 117.093 178.799C115.848 178.101 115.152 177.3 115.005 176.394C114.859 175.488 115.145 174.612 115.865 173.765L117.697 174.791ZM122.318 173.628C123.016 174.019 123.737 174.151 124.481 174.023C125.247 173.893 125.922 173.536 126.506 172.951C127.157 172.301 127.446 171.676 127.374 171.076C127.323 170.474 126.931 169.968 126.198 169.557C125.465 169.147 124.695 169.01 123.887 169.146C123.101 169.279 122.406 169.647 121.802 170.251C121.227 170.826 120.955 171.416 120.985 172.021C121.036 172.623 121.48 173.159 122.318 173.628ZM132.073 173.421L133.544 171.95L137.173 173.983L126.864 184.293L124.857 183.169L133.696 174.33L132.073 173.421ZM134.886 180.534C136.517 178.903 138.127 177.819 139.716 177.282C141.326 176.743 142.963 176.939 144.627 177.871C146.291 178.802 146.998 179.919 146.748 181.221C146.52 182.52 145.591 183.985 143.96 185.616C142.31 187.266 140.675 188.365 139.055 188.914C137.456 189.46 135.825 189.267 134.162 188.336C132.498 187.404 131.785 186.284 132.023 184.976C132.281 183.665 133.236 182.184 134.886 180.534ZM142.005 184.521C142.769 183.757 143.351 183.076 143.751 182.476C144.162 181.883 144.347 181.317 144.305 180.779C144.272 180.231 143.889 179.752 143.156 179.341C142.423 178.931 141.701 178.791 140.989 178.922C140.287 179.044 139.608 179.332 138.952 179.789C138.308 180.252 137.604 180.865 136.84 181.629C136.048 182.42 135.442 183.118 135.021 183.72C134.599 184.323 134.41 184.893 134.452 185.432C134.506 185.977 134.9 186.454 135.633 186.865C136.365 187.275 137.083 187.42 137.785 187.298C138.499 187.183 139.183 186.89 139.837 186.417C140.49 185.945 141.213 185.313 142.005 184.521ZM149.352 183.098L150.823 181.627L154.453 183.66L144.143 193.97L142.136 192.846L150.975 184.007L149.352 183.098ZM159.986 189.053L161.457 187.582L165.086 189.615L154.777 199.925L152.77 198.801L161.609 189.962L159.986 189.053ZM160.801 199.879C162.7 199.722 164.22 199.573 165.359 199.431C166.52 199.287 167.589 199.062 168.566 198.756C169.543 198.45 170.305 198.024 170.852 197.477C171.418 196.911 171.692 196.374 171.675 195.864C171.67 195.361 171.313 194.911 170.603 194.514C169.917 194.129 169.203 194.009 168.46 194.152C167.739 194.293 167.07 194.653 166.453 195.234L164.533 194.159C165.643 193.104 166.859 192.505 168.181 192.363C169.524 192.218 170.783 192.474 171.958 193.132C173.226 193.842 173.932 194.679 174.076 195.642C174.231 196.612 173.837 197.568 172.895 198.511C172.216 199.19 171.345 199.724 170.283 200.115C169.242 200.503 168.175 200.78 167.082 200.948C166.01 201.112 164.695 201.266 163.137 201.408L161.787 201.534L167.318 204.632L165.975 205.975L157.494 201.226L158.668 200.052L160.801 199.879ZM175.31 199.312C176.257 198.474 177.353 198.022 178.599 197.955C179.858 197.895 181.08 198.197 182.266 198.861C183.081 199.317 183.667 199.829 184.024 200.397C184.382 200.965 184.509 201.537 184.406 202.112C184.303 202.686 183.997 203.228 183.488 203.737C182.904 204.322 182.212 204.714 181.413 204.914C180.615 205.114 179.877 205.135 179.2 204.976L179.144 205.033C179.66 205.587 179.884 206.198 179.816 206.865C179.757 207.523 179.378 208.201 178.68 208.899C178.124 209.455 177.472 209.862 176.724 210.12C175.977 210.378 175.167 210.461 174.296 210.371C173.434 210.271 172.573 209.979 171.712 209.497C170.456 208.794 169.68 207.955 169.384 206.98C169.109 206.003 169.433 205.007 170.355 203.994L172.275 205.069C171.822 205.595 171.65 206.139 171.76 206.7C171.879 207.252 172.305 207.734 173.038 208.144C173.748 208.541 174.45 208.692 175.145 208.596C175.85 208.49 176.452 208.188 176.951 207.688C177.611 207.028 177.816 206.415 177.566 205.848C177.337 205.279 176.688 204.694 175.617 204.095L175.164 203.841L176.493 202.511L176.964 202.775C177.916 203.294 178.759 203.567 179.492 203.596C180.238 203.631 180.874 203.384 181.402 202.856C181.855 202.404 182.033 201.944 181.936 201.478C181.849 201.003 181.474 200.58 180.811 200.208C180.159 199.843 179.517 199.697 178.882 199.768C178.258 199.83 177.713 200.04 177.247 200.397L175.31 199.312ZM179.847 210.611L181.063 209.395L193.743 205.862L196.151 207.211L189.518 213.843L191.141 214.752L189.741 216.152L188.118 215.243L185.969 217.393L184.014 216.299L186.164 214.149L179.847 210.611ZM192.643 207.806L183.533 210.491L187.651 212.798L192.643 207.806Z" fill="white"/>
<path d="M-13.8254 177.49L-15.0052 176.83L-13.9188 168.34L-19.7505 174.172L-20.9303 173.511L-13.596 166.177L-12.4162 166.838L-13.4921 175.317L-7.67095 169.495L-6.49112 170.156L-13.8254 177.49ZM0.245064 176.387L-5.51306 182.145L-6.6929 181.485L-5.84179 180.634C-6.36073 180.802 -6.90738 180.856 -7.48174 180.797C-8.04046 180.736 -8.56183 180.569 -9.04587 180.298C-9.59905 179.988 -10.005 179.619 -10.2637 179.19C-10.5153 178.754 -10.5852 178.278 -10.4732 177.761C-10.3526 177.25 -10.0261 176.728 -9.49377 176.195L-6.12085 172.822L-4.95398 173.476L-8.20081 176.723C-8.76821 177.29 -9.02884 177.827 -8.98268 178.334C-8.92951 178.833 -8.59608 179.255 -7.9824 179.599C-7.35142 179.952 -6.69681 180.073 -6.01856 179.961C-5.34031 179.849 -4.69997 179.492 -4.09754 178.889L-0.934768 175.727L0.245064 176.387ZM10.8863 182.183C11.4395 182.493 11.8376 182.863 12.0806 183.294C12.3307 183.718 12.3954 184.186 12.2748 184.698C12.1542 185.21 11.8277 185.732 11.2953 186.264L7.90136 189.658L6.73449 189.004L9.99183 185.747C10.5662 185.173 10.8269 184.636 10.7737 184.136C10.7362 183.634 10.4192 183.216 9.82282 182.882C9.20913 182.539 8.55966 182.426 7.87441 182.545C7.19615 182.657 6.55581 183.014 5.95338 183.617L2.78011 186.79L1.61324 186.136L4.87057 182.879C5.44498 182.305 5.70561 181.768 5.65244 181.268C5.61492 180.766 5.29796 180.348 4.70157 180.014C4.08788 179.67 3.43841 179.558 2.75315 179.677C2.0749 179.789 1.43456 180.146 0.832127 180.749L-2.34115 183.922L-3.52098 183.261L2.23715 177.503L3.41698 178.164L2.58688 178.994C3.12147 178.823 3.6638 178.766 4.21388 178.823C4.77259 178.885 5.28964 179.049 5.76503 179.315C6.36143 179.649 6.78011 180.053 7.02105 180.526C7.262 181 7.28469 181.51 7.08912 182.056C7.69421 181.761 8.33789 181.63 9.02015 181.662C9.70242 181.695 10.3245 181.868 10.8863 182.183ZM15.7029 186.716C16.2882 186.508 16.9228 186.427 17.6067 186.471C18.2906 186.515 18.9307 186.704 19.5271 187.038C20.1667 187.396 20.6189 187.841 20.8837 188.372C21.1485 188.902 21.2037 189.474 21.0492 190.087C20.9018 190.693 20.5339 191.29 19.9454 191.879C19.364 192.46 18.6987 192.896 17.9495 193.187C17.2003 193.478 16.4403 193.604 15.6695 193.566C14.9074 193.532 14.2108 193.339 13.5799 192.986C12.9662 192.642 12.5345 192.231 12.2849 191.752C12.044 191.278 11.9749 190.808 12.0778 190.341L11.0166 191.402L9.83672 190.742L17.6123 182.966L18.7921 183.627L15.7029 186.716ZM18.7397 191.203C19.174 190.769 19.4442 190.33 19.5504 189.887C19.6565 189.444 19.6078 189.034 19.4043 188.658C19.2094 188.286 18.8915 187.977 18.4507 187.73C18.0185 187.488 17.529 187.351 16.9822 187.318C16.4511 187.283 15.9085 187.367 15.3546 187.57C14.8162 187.771 14.3334 188.086 13.9061 188.513C13.4718 188.947 13.1981 189.39 13.0849 189.84C12.9874 190.288 13.0326 190.701 13.2205 191.08C13.4241 191.456 13.7419 191.765 14.1741 192.007C14.6149 192.254 15.1009 192.395 15.6321 192.43C16.1789 192.463 16.7214 192.379 17.2597 192.178C17.805 191.97 18.2984 191.645 18.7397 191.203ZM28.1807 196.179C27.9985 196.361 27.7929 196.547 27.5639 196.735L21.8851 193.555C21.3609 194.147 21.1538 194.725 21.2637 195.289C21.3893 195.851 21.7633 196.306 22.3856 196.655C22.8956 196.94 23.4137 197.083 23.9399 197.083C24.4818 197.08 24.983 196.957 25.4435 196.712L26.7141 197.423C25.9706 197.87 25.1384 198.109 24.2177 198.14C23.304 198.164 22.4236 197.938 21.5765 197.464C20.9023 197.086 20.4199 196.625 20.1292 196.08C19.8471 195.539 19.779 194.96 19.9248 194.342C20.0776 193.718 20.4517 193.107 21.0471 192.512C21.6425 191.917 22.3113 191.477 23.0535 191.193C23.7957 190.91 24.5496 190.796 25.315 190.853C26.0961 190.908 26.8323 191.129 27.5238 191.517C28.198 191.894 28.6753 192.347 28.9557 192.876C29.2362 193.404 29.3045 193.956 29.1608 194.532C29.0328 195.105 28.7061 195.654 28.1807 196.179ZM27.1616 195.297C27.5259 194.933 27.7382 194.565 27.7986 194.195C27.866 193.817 27.7933 193.465 27.5807 193.139C27.3837 192.81 27.0777 192.529 26.6629 192.297C26.0665 191.963 25.4024 191.831 24.6706 191.902C23.9475 191.978 23.2825 192.272 22.6756 192.785L27.1616 195.297ZM32.6411 195.989C33.1778 195.776 33.7273 195.685 34.2898 195.716C34.8609 195.751 35.423 195.924 35.9762 196.234L34.9885 197.222L34.6773 197.047C33.3548 196.307 32.1122 196.518 30.9494 197.681L27.8181 200.812L26.6383 200.151L32.3964 194.393L33.5763 195.054L32.6411 195.989Z" fill="white"/>
<path d="M266.046 324.015L263.598 326.463L266.891 328.307L266.103 329.095L262.81 327.251L260.288 329.773L263.97 331.835L263.182 332.623L258.32 329.9L265.654 322.566L270.516 325.289L269.728 326.077L266.046 324.015ZM268.675 335.699L269.133 332.612L265.369 333.848L264.137 333.158L269.29 331.585L269.896 327.4L271.231 328.148L270.783 331.225L274.524 329.992L275.756 330.682L270.626 332.251L270.011 336.447L268.675 335.699ZM277.048 333.061C277.611 332.862 278.23 332.783 278.905 332.822C279.596 332.859 280.248 333.05 280.862 333.394C281.493 333.747 281.941 334.189 282.205 334.72C282.479 335.255 282.538 335.83 282.384 336.443C282.236 337.048 281.868 337.646 281.28 338.234C280.699 338.815 280.033 339.252 279.284 339.542C278.535 339.833 277.775 339.959 277.004 339.921C276.242 339.888 275.545 339.694 274.914 339.341C274.309 339.002 273.882 338.593 273.632 338.115C273.399 337.634 273.325 337.161 273.412 336.697L269.619 340.49L268.439 339.829L276.929 331.339L278.109 332L277.048 333.061ZM280.074 337.559C280.509 337.124 280.779 336.686 280.885 336.242C280.991 335.799 280.942 335.389 280.739 335.013C280.544 334.642 280.226 334.333 279.785 334.086C279.353 333.844 278.864 333.706 278.317 333.673C277.786 333.638 277.243 333.722 276.689 333.925C276.151 334.127 275.668 334.441 275.241 334.868C274.806 335.303 274.533 335.745 274.42 336.195C274.322 336.643 274.367 337.056 274.555 337.435C274.759 337.811 275.077 338.12 275.509 338.362C275.95 338.609 276.436 338.75 276.967 338.785C277.513 338.818 278.056 338.734 278.594 338.533C279.14 338.325 279.633 338 280.074 337.559Z" fill="white"/>
<path d="M254.211 356.222L244.868 350.99L254.201 334.324L263.544 339.556L254.211 356.222Z" fill="#FF5F00"/>
<path d="M250.134 342.99C252.027 339.609 255.308 337.491 258.878 336.941C257.857 334.505 256.04 332.374 253.549 330.979C247.652 327.677 240.214 329.745 236.936 335.599C233.658 341.453 235.78 348.875 241.677 352.177C244.168 353.572 246.934 354.009 249.545 353.607C248.149 350.275 248.24 346.371 250.134 342.99Z" fill="#EB001B"/>
<path d="M271.478 354.944C268.2 360.798 260.762 362.866 254.866 359.564C252.375 358.169 250.557 356.038 249.535 353.602C253.106 353.052 256.387 350.934 258.28 347.553C260.174 344.172 260.266 340.268 258.868 336.936C261.48 336.534 264.246 336.971 266.737 338.366C272.634 341.668 274.756 349.091 271.478 354.944Z" fill="#F79E1B"/>
<g clip-path="url(#clip0_6724_2627)">
<path d="M73.1617 95.4386C73.4684 94.9846 73.8332 94.6456 74.2562 94.4215C74.6846 94.2011 75.1252 94.1045 75.5782 94.1317C76.0402 94.1571 76.4687 94.3032 76.8635 94.5699C77.22 94.8107 77.4818 95.0912 77.649 95.4112C77.8253 95.7295 77.9229 96.0463 77.9415 96.3615L78.3849 95.7052L79.3309 96.3443L76.2769 100.865L75.3309 100.226L75.7854 99.553C75.4823 99.6589 75.1456 99.6903 74.7753 99.6472C74.405 99.6042 74.0444 99.464 73.6934 99.2269C73.304 98.9639 73.0141 98.6246 72.8236 98.2091C72.6367 97.7881 72.5674 97.335 72.6157 96.8498C72.673 96.363 72.8551 95.8925 73.1617 95.4386ZM76.8607 97.9614C77.0713 97.6497 77.1884 97.3344 77.212 97.0158C77.241 96.7009 77.192 96.4129 77.0649 96.1517C76.9378 95.8906 76.7535 95.6785 76.5123 95.5155C76.271 95.3524 76.0054 95.2607 75.7158 95.2402C75.4298 95.2143 75.1433 95.2717 74.8565 95.4125C74.5789 95.5516 74.3348 95.777 74.1241 96.0888C73.9135 96.4005 73.7918 96.7166 73.759 97.037C73.7318 97.3611 73.7798 97.6564 73.9033 97.9231C74.0359 98.1879 74.22 98.4 74.4559 98.5593C74.6972 98.7223 74.9627 98.8141 75.2524 98.8346C75.5421 98.855 75.8276 98.793 76.109 98.6485C76.3995 98.5021 76.6501 98.2731 76.8607 97.9614Z" fill="#9400D3"/>
<path d="M81.057 98.4653C81.3493 98.3282 81.6504 98.2727 81.9603 98.2988C82.2793 98.3231 82.5951 98.4409 82.9077 98.6521L82.2537 99.6202L82.0151 99.4591C81.6477 99.2108 81.3052 99.1148 80.9876 99.1712C80.6755 99.2311 80.3642 99.4908 80.0538 99.9503L78.4465 102.329L77.5087 101.696L80.5627 97.1753L81.5005 97.8089L81.057 98.4653Z" fill="#9400D3"/>
<path d="M84.2984 100.811L82.6079 103.313C82.4933 103.483 82.4486 103.632 82.4736 103.76C82.5079 103.887 82.6209 104.015 82.8129 104.145L83.3887 104.534L82.8622 105.313L82.1219 104.813C81.6996 104.528 81.4425 104.211 81.3507 103.862C81.2589 103.513 81.3625 103.117 81.6619 102.674L83.3524 100.172L82.8177 99.8108L83.3332 99.0478L83.8679 99.409L84.6272 98.285L85.5732 98.9241L84.8139 100.048L85.9162 100.793L85.4007 101.556L84.2984 100.811Z" fill="#9400D3"/>
<path d="M89.1749 102.887C89.5204 103.12 89.7777 103.402 89.9466 103.731C90.1211 104.064 90.1871 104.427 90.1449 104.821C90.1081 105.218 89.9511 105.622 89.674 106.032L87.8726 108.698L86.943 108.07L88.6502 105.543C88.9236 105.139 89.031 104.761 88.9722 104.411C88.917 104.055 88.714 103.758 88.363 103.521C88.012 103.284 87.6585 103.205 87.3022 103.283C86.9552 103.359 86.645 103.599 86.3716 104.004L84.6644 106.531L83.7266 105.897L87.8281 99.8262L88.7659 100.46L87.3636 102.535C87.652 102.451 87.9519 102.439 88.2635 102.498C88.5804 102.561 88.8843 102.691 89.1749 102.887Z" fill="#9400D3"/>
<path d="M90.297 107.015C90.6037 106.561 90.9685 106.222 91.3914 105.998C91.8199 105.777 92.2606 105.681 92.7134 105.708C93.1755 105.733 93.6039 105.879 93.9988 106.146C94.3552 106.387 94.6171 106.667 94.7842 106.987C94.9606 107.306 95.0581 107.622 95.0766 107.938L95.52 107.281L96.4663 107.92L93.4123 112.441L92.4661 111.802L92.9206 111.129C92.6176 111.235 92.2807 111.266 91.9106 111.223C91.5403 111.18 91.1796 111.04 90.8287 110.803C90.4393 110.54 90.1493 110.201 89.9588 109.785C89.772 109.364 89.7027 108.911 89.7509 108.426C89.8083 107.939 89.9903 107.469 90.297 107.015ZM93.9959 109.538C94.2065 109.226 94.3237 108.911 94.3473 108.592C94.3763 108.277 94.3272 107.989 94.2002 107.728C94.0732 107.467 93.8889 107.255 93.6476 107.092C93.4063 106.929 93.1408 106.837 92.8511 106.816C92.565 106.79 92.2787 106.848 91.9918 106.989C91.7142 107.128 91.4701 107.353 91.2594 107.665C91.0488 107.977 90.9271 108.293 90.8944 108.613C90.8671 108.937 90.9152 109.233 91.0386 109.499C91.1712 109.764 91.3554 109.976 91.5912 110.136C91.8325 110.299 92.0981 110.39 92.3877 110.411C92.6773 110.431 92.963 110.369 93.2443 110.225C93.5348 110.078 93.7853 109.849 93.9959 109.538Z" fill="#9400D3"/>
<path d="M92.9271 113.157L70.8623 98.2505L70.9272 98.1543L92.9921 113.061L92.9271 113.157Z" fill="white"/>
<path d="M89.6955 116.047C89.5194 115.928 89.382 115.79 89.2832 115.632C89.189 115.474 89.1379 115.313 89.1298 115.15C89.1236 114.984 89.1635 114.831 89.2496 114.692L89.729 115.016C89.6731 115.116 89.6638 115.227 89.7012 115.346C89.7431 115.466 89.8263 115.567 89.9509 115.651C90.0809 115.739 90.1976 115.782 90.301 115.781C90.4089 115.779 90.4894 115.739 90.5425 115.66C90.5992 115.576 90.6007 115.487 90.5469 115.391C90.4958 115.297 90.4 115.168 90.2596 115.002C90.1227 114.842 90.0161 114.705 89.9397 114.59C89.8634 114.476 89.8161 114.347 89.7979 114.205C89.7825 114.064 89.8242 113.921 89.923 113.774C90.0035 113.655 90.1119 113.571 90.2482 113.521C90.3864 113.468 90.5397 113.457 90.7081 113.488C90.8793 113.521 91.0502 113.595 91.2209 113.71C91.4755 113.882 91.6361 114.085 91.7027 114.32C91.7738 114.553 91.7397 114.785 91.6005 115.014L91.1373 114.701C91.1969 114.595 91.2102 114.488 91.1773 114.379C91.1445 114.27 91.0657 114.173 90.9411 114.089C90.8192 114.007 90.7102 113.967 90.6141 113.969C90.5179 113.971 90.4443 114.01 90.393 114.086C90.3528 114.145 90.3406 114.21 90.3565 114.28C90.3724 114.35 90.4032 114.418 90.4491 114.485C90.4967 114.549 90.5696 114.639 90.6677 114.757C90.801 114.91 90.9035 115.044 90.9753 115.16C91.0517 115.275 91.0985 115.401 91.1158 115.539C91.1331 115.677 91.0946 115.818 91.0003 115.964C90.9143 116.091 90.8022 116.181 90.6641 116.234C90.526 116.286 90.3727 116.297 90.2042 116.266C90.0384 116.237 89.8689 116.164 89.6955 116.047Z" fill="white"/>
<path d="M86.7624 112.367C86.9143 112.143 87.0949 111.975 87.3041 111.863C87.516 111.754 87.7339 111.706 87.9578 111.719C88.1862 111.732 88.3993 111.804 88.5971 111.938C88.7433 112.037 88.865 112.166 88.9619 112.327C89.0634 112.486 89.1204 112.647 89.133 112.809L89.8632 111.728L90.3305 112.044L88.2992 115.051L87.8319 114.735L88.0597 114.398C87.9107 114.455 87.7446 114.473 87.5616 114.452C87.3813 114.433 87.2044 114.364 87.0311 114.247C86.836 114.116 86.6902 113.946 86.5935 113.739C86.5014 113.531 86.4674 113.306 86.4916 113.066C86.5203 112.825 86.6105 112.592 86.7624 112.367ZM88.5895 113.614C88.6938 113.459 88.7519 113.303 88.7637 113.145C88.7783 112.99 88.7542 112.847 88.6916 112.718C88.6289 112.589 88.538 112.484 88.4188 112.403C88.2996 112.323 88.1684 112.278 88.0252 112.268C87.8838 112.255 87.7422 112.284 87.6003 112.354C87.463 112.423 87.3422 112.534 87.2378 112.689C87.1335 112.843 87.0732 113 87.0568 113.158C87.0431 113.318 87.0667 113.465 87.1276 113.596C87.1929 113.727 87.2839 113.832 87.4004 113.911C87.5195 113.991 87.6507 114.037 87.7939 114.047C87.9371 114.057 88.0783 114.026 88.2175 113.954C88.3612 113.882 88.4852 113.768 88.5895 113.614Z" fill="white"/>
<path d="M86.3504 110.946C86.495 110.878 86.6438 110.85 86.797 110.863C86.9547 110.875 87.1107 110.933 87.2651 111.037L86.9412 111.517L86.8234 111.437C86.6419 111.315 86.4726 111.267 86.3156 111.295C86.1613 111.325 86.0073 111.454 85.8535 111.682L85.0575 112.86L84.5943 112.547L86.1068 110.308L86.57 110.621L86.3504 110.946Z" fill="white"/>
<path d="M82.449 109.454C82.6009 109.23 82.7815 109.062 82.9907 108.95C83.2027 108.841 83.4206 108.793 83.6444 108.806C83.8728 108.819 84.0846 108.891 84.2796 109.022C84.4557 109.141 84.585 109.28 84.6674 109.438C84.7544 109.596 84.8024 109.752 84.8114 109.908L85.031 109.583L85.4983 109.899L83.9858 112.138L83.5185 111.822L83.7436 111.489C83.5937 111.541 83.4272 111.557 83.2442 111.536C83.0611 111.515 82.8829 111.446 82.7096 111.329C82.5172 111.199 82.3741 111.031 82.2802 110.826C82.188 110.617 82.1541 110.393 82.1782 110.153C82.2069 109.912 82.2972 109.679 82.449 109.454ZM84.2761 110.701C84.3804 110.546 84.4385 110.39 84.4504 110.232C84.4649 110.077 84.4409 109.934 84.3782 109.805C84.3155 109.676 84.2246 109.571 84.1054 109.49C83.9862 109.41 83.855 109.365 83.7118 109.355C83.5704 109.342 83.4288 109.371 83.2869 109.441C83.1496 109.51 83.0288 109.621 82.9245 109.776C82.8201 109.93 82.7598 110.086 82.7434 110.245C82.7297 110.405 82.7533 110.552 82.8142 110.683C82.8796 110.814 82.9705 110.919 83.087 110.998C83.2062 111.078 83.3374 111.124 83.4806 111.134C83.6238 111.144 83.7649 111.113 83.9041 111.041C84.0478 110.968 84.1718 110.855 84.2761 110.701Z" fill="white"/>
<path d="M79.5012 107.042C79.6879 106.766 79.919 106.561 80.1945 106.428C80.4728 106.296 80.7628 106.243 81.0646 106.27C81.3709 106.295 81.6554 106.397 81.9182 106.574C82.2189 106.777 82.4354 107.032 82.5677 107.338C82.7045 107.644 82.7343 107.968 82.6569 108.31L82.1003 107.934C82.1278 107.736 82.1012 107.556 82.0206 107.395C81.94 107.234 81.8143 107.096 81.6437 106.98C81.4568 106.854 81.2618 106.784 81.0588 106.769C80.8558 106.754 80.6592 106.797 80.4691 106.897C80.2817 106.999 80.1175 107.155 79.9766 107.363C79.8357 107.572 79.7528 107.782 79.728 107.994C79.7058 108.208 79.7386 108.408 79.8263 108.593C79.9158 108.776 80.0541 108.93 80.241 109.057C80.4116 109.172 80.5867 109.237 80.7661 109.252C80.9456 109.266 81.1222 109.224 81.296 109.124L81.8526 109.501C81.564 109.7 81.2524 109.793 80.9179 109.78C80.5861 109.769 80.2699 109.662 79.9692 109.459C79.7037 109.28 79.5025 109.055 79.3654 108.785C79.2302 108.512 79.1717 108.222 79.1899 107.915C79.2108 107.609 79.3146 107.318 79.5012 107.042Z" fill="white"/>
</g>
<path d="M63.6454 85.2572C64.121 84.5532 65.0773 84.368 65.7814 84.8437L73.4561 90.0285C74.1601 90.5041 74.3453 91.4604 73.8697 92.1645L68.685 99.839C68.2093 100.543 67.253 100.728 66.5489 100.253L58.8743 95.0678C58.1702 94.5921 57.985 93.6358 58.4607 92.9317L63.6454 85.2572Z" fill="#9400D3"/>
<path d="M65.779 95.1344C67.1158 95.2182 68.1122 94.6248 68.4603 94.3915C68.6388 94.2718 68.7643 94.1681 68.8974 94.0581C69.0724 93.9134 69.2307 93.7682 69.3745 93.6259L69.7189 93.1161C70.2126 92.3852 70.3725 91.6659 70.2002 90.9577C70.0263 90.2498 69.4932 89.5931 68.5996 88.9894C67.9788 88.57 67.3714 88.324 66.7771 88.2495C67.1952 88.3929 68.0117 88.7205 68.5837 89.5192C68.7656 89.7731 69.0373 90.1525 69.0545 90.6854C69.0661 91.0423 68.9588 91.325 68.8566 91.5942C68.7772 91.8034 68.6856 91.9865 68.5935 92.1439C68.5895 92.1531 68.5855 92.1623 68.5818 92.1705C68.4073 92.4667 68.2207 92.769 68.0212 93.0761C67.6471 93.6521 67.2684 94.182 66.8949 94.6674C66.6615 94.7925 66.2648 94.9631 65.7515 94.9889C65.5787 94.9976 65.405 94.9887 65.2306 94.9622C64.8317 94.9024 64.4829 94.8013 64.1834 94.6599C64.3274 94.7501 64.4794 94.8275 64.6377 94.8895C65.1071 95.0735 65.4909 95.1163 65.779 95.1344Z" fill="url(#paint1_linear_6724_2627)"/>
<path d="M69.0777 90.6914C69.0616 90.1564 68.79 89.776 68.6083 89.5215C68.0367 88.7208 67.219 88.3936 66.8002 88.2505C66.6153 88.2277 66.4315 88.2209 66.2491 88.2314C65.7322 88.2611 65.3628 88.4244 65.2678 88.4667C64.6329 88.7492 64.2463 89.212 64.0544 89.4968C63.9711 89.6204 63.9117 89.7294 63.8731 89.8058C63.9624 89.7878 64.0936 89.7679 64.2522 89.7683C64.5357 89.769 64.7578 89.8341 64.9651 89.9074C65.5657 90.12 66.1612 90.4443 66.3669 90.559C66.4542 90.5998 66.564 90.6404 66.6943 90.6656C67.0074 90.7264 67.2705 90.6657 67.4172 90.6187C67.0395 90.559 66.6901 90.351 66.4532 90.051C66.3915 89.9729 66.3355 89.8677 66.3794 89.7781C66.4104 89.7148 66.4812 89.6828 66.5479 89.6606C66.5578 89.6573 66.5679 89.6548 66.5779 89.6517C66.5942 89.6496 66.6103 89.6474 66.6266 89.6458C67.1456 89.5976 67.6024 89.8891 67.8807 90.0918C68.1764 90.3071 68.6012 90.6164 68.7229 91.1855C68.8148 91.6153 68.6888 91.9809 68.6124 92.1567C68.7051 91.9984 68.7972 91.8144 68.8773 91.6043C68.9803 91.3338 69.0885 91.0497 69.0777 90.6914Z" fill="url(#paint2_linear_6724_2627)"/>
<path d="M62.526 92.5243C62.9417 92.1736 63.5265 92.0742 64.0653 92.1502C64.3852 92.1953 64.6924 92.2959 64.9901 92.423C65.2345 92.5087 65.4732 92.6275 65.6926 92.7155C66.5013 93.0398 66.8755 93.1443 67.2907 93.1159C67.466 93.104 67.6415 93.0689 67.8157 92.9659C68.0996 92.7979 68.2315 92.5373 68.2845 92.4121C68.1298 92.4128 67.9371 92.3756 67.7053 92.2998C67.1961 92.1334 66.6289 91.8986 66.0054 91.5952C65.0693 91.1404 64.2738 90.9581 63.6208 91.0495C62.6806 91.1813 61.8417 91.9731 61.6707 92.9109C61.5901 93.3526 61.66 93.7723 61.8285 94.1543C61.838 93.9004 61.8827 93.6477 61.9626 93.4063C62.0737 93.0709 62.2559 92.7522 62.526 92.5243Z" fill="url(#paint3_linear_6724_2627)"/>
<path d="M67.0158 97.365C67.044 97.2385 67.1197 97.0944 67.2698 96.8112C67.3524 96.6556 67.4246 96.529 67.4752 96.4423L69.3843 93.6164C69.2411 93.7581 69.0835 93.9025 68.9093 94.0464C68.7768 94.1558 68.6519 94.2591 68.4741 94.3781C68.1277 94.6101 67.1356 95.2002 65.8041 95.116C65.5172 95.0978 65.1349 95.055 64.6672 94.8715C64.5096 94.8097 64.3581 94.7326 64.2146 94.6426C64.0908 94.5842 63.9752 94.5191 63.8684 94.4469C63.3923 94.1253 63.0778 93.6096 63.2755 93.0248C63.4214 92.5935 63.8615 92.2575 64.3184 92.233C64.5194 92.2223 64.7242 92.2704 64.9252 92.3411C64.6287 92.2143 64.3227 92.1139 64.0042 92.0688C63.4677 91.9927 62.8855 92.091 62.4719 92.4396C62.2033 92.6661 62.0221 92.983 61.9118 93.3166C61.8325 93.5566 61.7882 93.808 61.779 94.0607C62.0285 94.6253 62.4946 95.1075 63.01 95.4556C63.4551 95.7564 63.9348 95.9632 64.4495 96.0751C64.9626 96.1874 65.471 96.1777 65.9736 96.0456C65.9154 96.1993 65.8104 96.5456 65.9184 96.9475C66.1418 97.7782 67.0566 98.0316 67.1014 98.0432C66.9644 97.7228 66.9879 97.49 67.0158 97.365Z" fill="url(#paint4_linear_6724_2627)"/>
<g filter="url(#filter0_d_6724_2627)">
<rect width="392.073" height="212.611" rx="12" transform="matrix(0.872496 0.488621 -0.707107 0.707107 135.236 41.584)" fill="url(#paint5_radial_6724_2627)" shape-rendering="crispEdges"/>
<path d="M39.8904 156.47C40.6049 155.756 41.4446 155.226 42.4096 154.882C43.3817 154.53 44.3702 154.384 45.3753 154.444C46.389 154.509 47.315 154.776 48.1534 155.246C49.1388 155.798 49.8062 156.472 50.1556 157.269C50.505 158.066 50.4945 158.912 50.1241 159.808L48.7109 159.017C48.9016 158.435 48.8783 157.892 48.6411 157.388C48.4125 156.888 47.9697 156.455 47.3128 156.087C46.6819 155.733 45.9966 155.535 45.2571 155.493C44.5177 155.45 43.7846 155.57 43.0581 155.851C42.3385 156.126 41.6846 156.557 41.0961 157.146C40.5147 157.727 40.146 158.318 39.9899 158.919C39.8408 159.513 39.8978 160.07 40.161 160.589C40.4241 161.108 40.8712 161.544 41.5022 161.897C42.1591 162.265 42.8365 162.464 43.5344 162.494C44.248 162.523 44.9507 162.386 45.6427 162.085L47.0559 162.877C46.0183 163.388 44.9395 163.631 43.8196 163.605C42.7066 163.572 41.6574 163.279 40.6721 162.727C39.8337 162.258 39.2263 161.672 38.8501 160.969C38.4895 160.265 38.3941 159.517 38.5639 158.727C38.7337 157.937 39.1759 157.185 39.8904 156.47ZM58.7384 163.764L52.9803 169.522L51.8004 168.861L52.6515 168.01C52.1326 168.178 51.5859 168.233 51.0116 168.174C50.4529 168.112 49.9315 167.946 49.4474 167.675C48.8943 167.365 48.4883 166.995 48.2296 166.566C47.978 166.13 47.9081 165.654 48.0201 165.138C48.1407 164.626 48.4672 164.104 48.9995 163.572L52.3725 160.199L53.5393 160.852L50.2925 164.099C49.7251 164.666 49.4645 165.203 49.5106 165.71C49.5638 166.21 49.8972 166.632 50.5109 166.975C51.1419 167.329 51.7965 167.449 52.4748 167.337C53.153 167.225 53.7933 166.868 54.3958 166.266L57.5585 163.103L58.7384 163.764ZM60.9751 166.475C61.5118 166.262 62.0614 166.171 62.6238 166.202C63.1949 166.238 63.757 166.41 64.3102 166.72L63.3225 167.708L63.0113 167.534C61.6889 166.793 60.4462 167.004 59.2834 168.167L56.1522 171.298L54.9723 170.638L60.7305 164.879L61.9103 165.54L60.9751 166.475ZM65.8118 169.184C66.3484 168.971 66.898 168.88 67.4604 168.911C68.0315 168.946 68.5937 169.119 69.1468 169.429L68.1591 170.417L67.848 170.242C66.5255 169.502 65.2829 169.713 64.12 170.876L60.9888 174.007L59.809 173.346L65.5671 167.588L66.7469 168.249L65.8118 169.184ZM74.2279 176.586C74.0458 176.768 73.8402 176.953 73.6111 177.142L67.9323 173.961C67.4082 174.553 67.201 175.131 67.311 175.695C67.4366 176.257 67.8105 176.713 68.4328 177.061C68.9428 177.347 69.4609 177.489 69.9871 177.489C70.529 177.486 71.0302 177.363 71.4908 177.118L72.7613 177.83C72.0178 178.277 71.1857 178.515 70.2649 178.546C69.3512 178.57 68.4708 178.345 67.6238 177.87C66.9496 177.493 66.4671 177.031 66.1764 176.486C65.8943 175.946 65.8262 175.366 65.972 174.749C66.1248 174.124 66.4989 173.514 67.0943 172.918C67.6898 172.323 68.3586 171.883 69.1008 171.6C69.843 171.316 70.5968 171.203 71.3622 171.26C72.1433 171.315 72.8796 171.536 73.571 171.923C74.2452 172.301 74.7225 172.754 75.003 173.282C75.2834 173.811 75.3518 174.363 75.2081 174.938C75.08 175.511 74.7533 176.06 74.2279 176.586ZM73.2088 175.703C73.5731 175.339 73.7854 174.972 73.8458 174.601C73.9132 174.224 73.8406 173.872 73.6279 173.545C73.4309 173.216 73.125 172.935 72.7101 172.703C72.1137 172.369 71.4496 172.238 70.7179 172.309C69.9948 172.384 69.3298 172.679 68.7229 173.191L73.2088 175.703ZM82.0104 176.633C82.8748 177.117 83.3613 177.723 83.4698 178.45C83.5854 179.171 83.2439 179.93 82.4454 180.729L79.0514 184.123L77.8846 183.469L81.1419 180.212C81.7163 179.637 81.9769 179.1 81.9238 178.601C81.8776 178.094 81.5477 177.669 80.934 177.325C80.3117 176.976 79.6571 176.856 78.9702 176.963C78.2919 177.075 77.6516 177.432 77.0491 178.034L73.8654 181.218L72.6855 180.557L78.4437 174.799L79.6235 175.46L78.8039 176.28C79.3315 176.116 79.8746 176.065 80.4333 176.127C81.0007 176.193 81.5264 176.362 82.0104 176.633ZM83.4275 182.065C84.0229 181.47 84.6882 181.034 85.4234 180.757C86.1656 180.473 86.9186 180.354 87.6824 180.399C88.4548 180.45 89.1781 180.663 89.8523 181.041C90.7253 181.53 91.2711 182.103 91.4896 182.761C91.7169 183.424 91.6165 184.111 91.1886 184.822L89.918 184.11C90.1472 183.692 90.1862 183.282 90.035 182.881C89.8924 182.484 89.5618 182.14 89.0432 181.85C88.369 181.472 87.6353 181.357 86.8422 181.503C86.056 181.641 85.3197 182.054 84.6332 182.741C83.9397 183.434 83.6113 184.086 83.6479 184.697C83.6845 185.307 84.0399 185.802 84.7141 186.179C85.2327 186.47 85.763 186.613 86.3048 186.611C86.8467 186.608 87.3646 186.461 87.8585 186.17L89.1291 186.881C88.3505 187.363 87.4974 187.623 86.5697 187.661C85.6489 187.692 84.7607 187.467 83.905 186.988C83.2308 186.611 82.7527 186.152 82.4706 185.611C82.1972 185.076 82.1377 184.501 82.2921 183.888C82.4466 183.275 82.825 182.668 83.4275 182.065ZM100.732 187.281L87.9842 193.354L86.7654 192.672L90.9397 190.682L93.7694 183.382L95.0789 184.115L92.6436 190.03L99.513 186.599L100.732 187.281Z" fill="white"/>
<path d="M28.4954 170.611L23.5052 175.602C22.8036 176.303 22.4925 176.941 22.5719 177.515C22.6606 178.094 23.0819 178.595 23.8359 179.017C24.5806 179.434 25.3321 179.59 26.0905 179.486C26.8581 179.386 27.5927 178.985 28.2943 178.284L33.2846 173.293L34.5552 174.005L29.5762 178.984C28.9199 179.64 28.2025 180.103 27.4241 180.374C26.6532 180.636 25.8791 180.721 25.1019 180.627C24.3339 180.538 23.6055 180.301 22.9167 179.915C22.2279 179.529 21.7136 179.07 21.3739 178.539C21.0435 178.012 20.9379 177.436 21.0572 176.808C21.1933 176.178 21.5896 175.535 22.2459 174.879L27.2248 169.9L28.4954 170.611ZM31.7941 184.886C31.1519 184.527 30.6653 184.113 30.3344 183.645C30.0203 183.175 29.8812 182.697 29.917 182.211C29.9604 181.718 30.1924 181.253 30.6131 180.818L31.9675 181.576C31.6444 181.972 31.5175 182.389 31.5868 182.828C31.6729 183.265 32.0325 183.661 32.6655 184.015C33.2705 184.354 33.8659 184.499 34.4517 184.451C35.0544 184.4 35.5481 184.182 35.9328 183.797C36.2346 183.495 36.3774 183.193 36.3612 182.89C36.345 182.586 36.2324 182.3 36.0233 182.03C35.8141 181.759 35.5055 181.422 35.0974 181.017C34.5909 180.521 34.2101 180.096 33.955 179.741C33.7091 179.392 33.5899 178.996 33.5973 178.553C33.6216 178.107 33.8789 177.639 34.3692 177.149C34.7992 176.719 35.3152 176.414 35.917 176.233C36.5189 176.052 37.1524 176.007 37.8175 176.097C38.4919 176.192 39.1456 176.417 39.7785 176.771C40.6907 177.282 41.2506 177.884 41.4581 178.577C41.6748 179.275 41.5149 179.95 40.9783 180.603L39.5821 179.821C39.8373 179.493 39.9059 179.12 39.7878 178.701C39.6772 178.274 39.338 177.902 38.7702 177.584C38.2397 177.286 37.6937 177.157 37.1322 177.196C36.5784 177.227 36.1015 177.442 35.7017 177.842C35.415 178.129 35.2789 178.417 35.2933 178.708C35.3171 179.004 35.4242 179.281 35.6147 179.541C35.822 179.798 36.1306 180.136 36.5405 180.554C37.0394 181.057 37.4127 181.49 37.6603 181.852C37.9155 182.207 38.0356 182.609 38.0206 183.06C38.0132 183.503 37.7605 183.973 37.2627 184.471C36.8779 184.856 36.3901 185.148 35.7993 185.346C35.2085 185.545 34.5609 185.612 33.8563 185.547C33.1517 185.482 32.4643 185.262 31.7941 184.886ZM47.8994 181.478C48.9606 182.072 49.7152 182.748 50.1634 183.505C50.6285 184.26 50.7678 185.05 50.5814 185.875C50.4043 186.706 49.9122 187.525 49.105 188.332C48.2978 189.139 47.3868 189.723 46.372 190.085C45.374 190.444 44.3256 190.563 43.2269 190.442C42.145 190.318 41.0734 189.959 40.0123 189.365L36.9824 187.668L44.8695 179.781L47.8994 181.478ZM40.861 188.517C42.1176 189.22 43.3442 189.489 44.5407 189.324C45.7447 189.151 46.8333 188.578 47.8065 187.605C48.7872 186.624 49.2178 185.671 49.0983 184.744C48.9881 183.824 48.3094 183.014 47.062 182.315L45.3028 181.33L39.1017 187.531L40.861 188.517Z" fill="white"/>
<path d="M88.8668 110.743L90.3376 109.272L93.9672 111.305L83.6576 121.615L81.6508 120.491L90.4897 111.652L88.8668 110.743ZM89.6818 121.569C91.5811 121.412 93.1005 121.262 94.24 121.121C95.4006 120.977 96.4696 120.752 97.4468 120.446C98.4241 120.14 99.1861 119.714 99.7329 119.167C100.299 118.601 100.573 118.064 100.556 117.554C100.551 117.051 100.194 116.601 99.484 116.204C98.7977 115.819 98.0834 115.699 97.3413 115.842C96.6201 115.982 95.951 116.343 95.3337 116.924L93.4143 115.849C94.524 114.794 95.7397 114.195 97.0616 114.053C98.4045 113.908 99.6634 114.164 100.838 114.822C102.106 115.532 102.812 116.369 102.956 117.332C103.112 118.302 102.718 119.258 101.775 120.201C101.097 120.879 100.226 121.414 99.1641 121.805C98.123 122.192 97.056 122.47 95.963 122.637C94.8911 122.802 93.5762 122.955 92.0182 123.098L90.6673 123.224L96.1989 126.322L94.8554 127.665L86.3748 122.916L87.5486 121.742L89.6818 121.569ZM104.191 121.002C105.137 120.164 106.234 119.712 107.48 119.645C108.738 119.585 109.961 119.887 111.147 120.551C111.962 121.007 112.548 121.519 112.905 122.087C113.263 122.655 113.39 123.227 113.287 123.801C113.184 124.376 112.878 124.918 112.369 125.427C111.784 126.012 111.093 126.404 110.294 126.604C109.495 126.804 108.758 126.824 108.081 126.666L108.025 126.723C108.541 127.277 108.765 127.888 108.697 128.555C108.637 129.213 108.259 129.891 107.561 130.589C107.005 131.145 106.353 131.552 105.605 131.81C104.857 132.068 104.048 132.151 103.177 132.061C102.315 131.96 101.454 131.669 100.593 131.187C99.3366 130.483 98.5605 129.644 98.2647 128.67C97.99 127.692 98.3138 126.697 99.2362 125.684L101.156 126.759C100.703 127.285 100.531 127.828 100.641 128.39C100.76 128.942 101.186 129.423 101.919 129.834C102.629 130.231 103.331 130.382 104.026 130.286C104.731 130.18 105.333 129.878 105.832 129.378C106.492 128.718 106.697 128.105 106.447 127.538C106.218 126.969 105.568 126.384 104.498 125.785L104.044 125.531L105.374 124.201L105.845 124.465C106.797 124.983 107.639 125.257 108.373 125.285C109.119 125.32 109.755 125.074 110.283 124.546C110.736 124.093 110.914 123.634 110.817 123.168C110.73 122.693 110.355 122.269 109.692 121.898C109.04 121.533 108.397 121.386 107.763 121.458C107.139 121.52 106.593 121.729 106.128 122.086L104.191 121.002ZM108.728 132.301L109.944 131.085L122.624 127.552L125.032 128.901L118.399 135.533L120.022 136.442L118.622 137.842L116.999 136.933L114.849 139.083L112.895 137.988L115.045 135.839L108.728 132.301ZM121.524 129.495L112.414 132.181L116.532 134.488L121.524 129.495ZM139.779 139.123L133.933 135.849L131.119 138.663C131.627 138.536 132.209 138.516 132.865 138.604C133.533 138.699 134.14 138.899 134.687 139.205C135.664 139.753 136.286 140.365 136.551 141.044C136.828 141.728 136.835 142.402 136.573 143.063C136.322 143.732 135.909 144.354 135.334 144.929C134.636 145.626 133.845 146.154 132.961 146.512C132.098 146.867 131.179 147.014 130.205 146.954C129.242 146.901 128.284 146.607 127.33 146.072C126.062 145.362 125.299 144.538 125.04 143.598C124.781 142.659 124.996 141.728 125.684 140.804L127.621 141.889C127.306 142.404 127.237 142.917 127.415 143.428C127.603 143.931 128.028 144.367 128.691 144.739C129.517 145.201 130.336 145.344 131.149 145.166C131.973 144.996 132.72 144.575 133.389 143.906C134.068 143.227 134.377 142.591 134.317 141.999C134.266 141.396 133.833 140.867 133.019 140.411C132.449 140.092 131.848 139.939 131.217 139.954C130.606 139.965 130.016 140.12 129.446 140.418L127.561 139.362L133.515 133.409L141.193 137.708L139.779 139.123ZM148.558 145.606C148.864 145.101 148.957 144.645 148.836 144.239C148.716 143.833 148.353 143.461 147.748 143.122C146.829 142.608 145.855 142.511 144.826 142.832C143.807 143.143 142.625 143.953 141.282 145.26C142 145.014 142.762 144.941 143.57 145.041C144.378 145.14 145.119 145.379 145.794 145.757C146.562 146.187 147.1 146.701 147.408 147.3C147.738 147.897 147.81 148.541 147.627 149.232C147.455 149.93 147.016 150.633 146.309 151.34C145.649 152 144.897 152.498 144.052 152.834C143.22 153.177 142.339 153.323 141.409 153.273C140.488 153.213 139.586 152.936 138.702 152.441C137.503 151.77 136.773 151.03 136.511 150.221C136.27 149.41 136.401 148.534 136.905 147.596C137.42 146.663 138.262 145.612 139.431 144.443C142.881 140.993 146.107 140.108 149.109 141.789C150.272 142.44 150.931 143.206 151.085 144.087C151.25 144.974 151.019 145.822 150.391 146.632L148.558 145.606ZM144 146.87C143.291 146.473 142.511 146.308 141.662 146.377C140.834 146.443 140.095 146.801 139.444 147.451C138.794 148.102 138.502 148.748 138.569 149.388C138.657 150.026 139.115 150.576 139.941 151.039C140.673 151.449 141.433 151.588 142.22 151.455C143.018 151.328 143.723 150.958 144.336 150.345C144.977 149.704 145.277 149.078 145.235 148.466C145.215 147.852 144.803 147.32 144 146.87ZM162.121 151.414L148.205 157.763L146.198 156.639L159.997 150.49L153.541 146.874L154.912 145.502L163.323 150.212L162.121 151.414ZM162.293 157.247C161.574 156.079 161.742 154.967 162.798 153.911C163.307 153.402 163.931 153.023 164.669 152.775C165.407 152.527 166.213 152.456 167.086 152.563C167.969 152.66 168.864 152.962 169.772 153.471C170.667 153.972 171.302 154.526 171.676 155.133C172.07 155.736 172.213 156.338 172.103 156.938C171.992 157.538 171.683 158.093 171.174 158.602C170.646 159.13 170.01 159.502 169.268 159.719C168.546 159.932 167.803 159.994 167.04 159.905C167.505 160.474 167.703 161.093 167.634 161.76C167.575 162.418 167.244 163.049 166.64 163.653C166.027 164.265 165.293 164.7 164.438 164.956C163.583 165.213 162.685 165.276 161.744 165.146C160.803 165.017 159.896 164.707 159.024 164.219C158.151 163.73 157.499 163.166 157.067 162.527C156.647 161.895 156.481 161.236 156.568 160.549C156.656 159.863 157.006 159.213 157.619 158.6C158.231 157.987 158.951 157.567 159.778 157.339C160.605 157.111 161.444 157.08 162.293 157.247ZM169.074 157.735C169.602 157.207 169.803 156.687 169.679 156.177C169.555 155.666 169.138 155.212 168.428 154.814C167.73 154.423 167.036 154.255 166.346 154.31C165.656 154.365 165.042 154.661 164.505 155.198C164.034 155.67 163.856 156.174 163.974 156.71C164.112 157.243 164.512 157.696 165.175 158.067C165.839 158.438 166.536 158.594 167.268 158.533C168 158.472 168.602 158.206 169.074 157.735ZM163.959 159.283C163.191 158.853 162.408 158.657 161.608 158.694C160.829 158.729 160.152 159.034 159.577 159.609C159.04 160.146 158.834 160.715 158.96 161.315C159.095 161.906 159.564 162.426 160.367 162.875C161.158 163.318 161.95 163.497 162.743 163.412C163.548 163.333 164.214 163.03 164.742 162.502C165.308 161.936 165.508 161.364 165.342 160.786C165.188 160.214 164.727 159.713 163.959 159.283ZM175.697 168.791C175.342 169.328 175.234 169.826 175.373 170.286C175.512 170.746 175.907 171.159 176.558 171.523C177.384 171.986 178.253 172.061 179.165 171.748C180.077 171.435 181.169 170.642 182.442 169.369C181.842 169.533 181.197 169.562 180.506 169.454C179.836 169.344 179.204 169.122 178.611 168.79C177.855 168.367 177.291 167.86 176.92 167.269C176.558 166.669 176.441 166.023 176.571 165.331C176.722 164.636 177.151 163.935 177.858 163.228C178.895 162.191 180.092 161.574 181.449 161.378C182.828 161.18 184.174 161.448 185.489 162.184C187.071 163.07 187.765 164.128 187.57 165.357C187.396 166.584 186.428 168.079 184.664 169.842C183.448 171.058 182.326 171.981 181.297 172.611C180.279 173.247 179.264 173.59 178.252 173.641C177.239 173.692 176.186 173.411 175.093 172.799C173.848 172.101 173.152 171.3 173.005 170.394C172.859 169.488 173.145 168.612 173.865 167.765L175.697 168.791ZM180.318 167.628C181.016 168.019 181.737 168.151 182.481 168.023C183.247 167.893 183.922 167.536 184.506 166.951C185.157 166.301 185.446 165.676 185.374 165.076C185.323 164.474 184.931 163.968 184.198 163.557C183.465 163.147 182.695 163.01 181.887 163.146C181.101 163.279 180.406 163.647 179.802 164.251C179.227 164.826 178.955 165.416 178.985 166.021C179.036 166.623 179.48 167.159 180.318 167.628ZM190.073 167.421L191.544 165.95L195.173 167.983L184.864 178.293L182.857 177.169L191.696 168.33L190.073 167.421ZM192.886 174.534C194.517 172.903 196.127 171.819 197.716 171.282C199.326 170.743 200.963 170.939 202.627 171.871C204.291 172.802 204.998 173.919 204.748 175.221C204.52 176.52 203.591 177.985 201.96 179.616C200.31 181.266 198.675 182.365 197.055 182.914C195.456 183.46 193.825 183.267 192.162 182.336C190.498 181.404 189.785 180.284 190.023 178.976C190.281 177.665 191.236 176.184 192.886 174.534ZM200.005 178.521C200.769 177.757 201.351 177.076 201.751 176.476C202.162 175.883 202.347 175.317 202.305 174.779C202.272 174.231 201.889 173.752 201.156 173.341C200.423 172.931 199.701 172.791 198.989 172.922C198.287 173.044 197.608 173.332 196.952 173.789C196.308 174.252 195.604 174.865 194.84 175.629C194.048 176.42 193.442 177.118 193.021 177.72C192.599 178.323 192.41 178.893 192.452 179.432C192.506 179.977 192.9 180.454 193.633 180.865C194.365 181.275 195.083 181.42 195.785 181.298C196.499 181.183 197.183 180.89 197.837 180.417C198.49 179.945 199.213 179.313 200.005 178.521ZM207.352 177.098L208.823 175.627L212.453 177.66L202.143 187.97L200.136 186.846L208.975 178.007L207.352 177.098ZM217.986 183.053L219.457 181.582L223.086 183.615L212.777 193.925L210.77 192.801L219.609 183.962L217.986 183.053ZM218.801 193.879C220.7 193.722 222.22 193.573 223.359 193.431C224.52 193.287 225.589 193.062 226.566 192.756C227.543 192.45 228.305 192.024 228.852 191.477C229.418 190.911 229.692 190.374 229.675 189.864C229.67 189.361 229.313 188.911 228.603 188.514C227.917 188.129 227.203 188.009 226.46 188.152C225.739 188.293 225.07 188.653 224.453 189.234L222.533 188.159C223.643 187.104 224.859 186.505 226.181 186.363C227.524 186.218 228.783 186.474 229.958 187.132C231.226 187.842 231.932 188.679 232.076 189.642C232.231 190.612 231.837 191.568 230.895 192.511C230.216 193.19 229.345 193.724 228.283 194.115C227.242 194.503 226.175 194.78 225.082 194.948C224.01 195.112 222.695 195.266 221.137 195.408L219.787 195.534L225.318 198.632L223.975 199.975L215.494 195.226L216.668 194.052L218.801 193.879ZM233.31 193.312C234.257 192.474 235.353 192.022 236.599 191.955C237.858 191.895 239.08 192.197 240.266 192.861C241.081 193.317 241.667 193.829 242.024 194.397C242.382 194.965 242.509 195.537 242.406 196.112C242.303 196.686 241.997 197.228 241.488 197.737C240.904 198.322 240.212 198.714 239.413 198.914C238.615 199.114 237.877 199.135 237.2 198.976L237.144 199.033C237.66 199.587 237.884 200.198 237.816 200.865C237.757 201.523 237.378 202.201 236.68 202.899C236.124 203.455 235.472 203.862 234.724 204.12C233.977 204.378 233.167 204.461 232.296 204.371C231.434 204.271 230.573 203.979 229.712 203.497C228.456 202.794 227.68 201.955 227.384 200.98C227.109 200.003 227.433 199.007 228.355 197.994L230.275 199.069C229.822 199.595 229.65 200.139 229.76 200.7C229.879 201.252 230.305 201.734 231.038 202.144C231.748 202.541 232.45 202.692 233.145 202.596C233.85 202.49 234.452 202.188 234.951 201.688C235.611 201.028 235.816 200.415 235.566 199.848C235.337 199.279 234.688 198.694 233.617 198.095L233.164 197.841L234.493 196.511L234.964 196.775C235.916 197.294 236.759 197.567 237.492 197.596C238.238 197.631 238.874 197.384 239.402 196.856C239.855 196.404 240.033 195.944 239.936 195.478C239.849 195.003 239.474 194.58 238.811 194.208C238.159 193.843 237.517 193.697 236.882 193.768C236.258 193.83 235.713 194.04 235.247 194.397L233.31 193.312ZM237.847 204.611L239.063 203.395L251.743 199.862L254.151 201.211L247.518 207.843L249.141 208.752L247.741 210.152L246.118 209.243L243.969 211.393L242.014 210.299L244.164 208.149L237.847 204.611ZM250.643 201.806L241.533 204.491L245.651 206.798L250.643 201.806Z" fill="white"/>
<path d="M304.802 334.78L300.442 331.986L314.014 316.805L318.374 319.599L304.802 334.78Z" fill="white"/>
<path d="M307.619 312.707L296 321.685L297.115 318.86L300.536 310.295C300.536 310.295 301.323 308.672 299.432 307.461L292.558 303.056L292.295 303.289C293.642 304.729 294.762 306.368 295.615 308.151L289.983 325.284L294.527 328.195L312.311 315.714L307.619 312.707Z" fill="white"/>
<path d="M331.074 351.619L335.08 354.186L342.437 335.022L338.928 332.774C338.525 332.468 338.033 332.301 337.526 332.297C337.019 332.292 336.521 332.45 336.107 332.748L319.562 344.242L324.111 347.156L326.617 345.217L332.174 348.778L331.074 351.619ZM330.111 342.557L336.468 337.687L333.692 344.851L330.111 342.557Z" fill="white"/>
<path d="M328.141 331.603L331.085 328.38C330.122 327.113 328.96 326.01 327.646 325.115C325.482 323.728 319.73 321.39 316.749 326.041C313.946 330.415 319.943 334.335 318.472 336.63C317 338.926 311.856 335.048 310.985 332.471L307.912 335.836C309.047 337.498 310.516 338.9 312.226 339.955C315.201 341.862 320.69 343.181 323.406 338.943C326.227 334.541 320.405 330.23 321.63 328.319C322.855 326.408 326.944 329.367 328.141 331.603Z" fill="white"/>
<path d="M297.112 318.865L300.536 310.295C300.536 310.295 301.323 308.672 299.432 307.461L292.558 303.056L292.295 303.289C294.271 305.416 295.763 307.952 296.666 310.722C297.53 313.342 297.684 316.152 297.112 318.865V318.865Z" fill="#FFA458"/>
<g clip-path="url(#clip1_6724_2627)">
<path d="M142.161 70.4367C142.468 69.9827 142.833 69.6437 143.256 69.4196C143.684 69.1991 144.125 69.1025 144.578 69.1297C145.04 69.1551 145.468 69.3012 145.863 69.5679C146.22 69.8087 146.481 70.0891 146.649 70.4091C146.825 70.7274 146.922 71.0442 146.941 71.3595L147.385 70.7031L148.331 71.3422L145.277 75.8629L144.331 75.2238L144.785 74.551C144.482 74.6569 144.145 74.6883 143.775 74.6452C143.405 74.6022 143.044 74.4621 142.693 74.225C142.304 73.962 142.014 73.6227 141.823 73.2072C141.636 72.7863 141.567 72.3331 141.615 71.8479C141.673 71.3611 141.855 70.8906 142.161 70.4367ZM145.86 72.9594C146.071 72.6476 146.188 72.3324 146.212 72.0138C146.241 71.6988 146.192 71.4108 146.065 71.1496C145.937 70.8885 145.753 70.6764 145.512 70.5134C145.271 70.3504 145.005 70.2587 144.715 70.2382C144.429 70.2123 144.143 70.2697 143.856 70.4106C143.578 70.5496 143.334 70.775 143.124 71.0868C142.913 71.3986 142.791 71.7147 142.759 72.0351C142.731 72.3592 142.78 72.6545 142.903 72.9212C143.036 73.186 143.22 73.398 143.456 73.5574C143.697 73.7204 143.962 73.8121 144.252 73.8326C144.542 73.853 144.827 73.791 145.109 73.6465C145.399 73.5001 145.65 73.2711 145.86 72.9594Z" fill="#9400D3"/>
<path d="M150.057 73.4633C150.349 73.3262 150.65 73.2707 150.96 73.2968C151.279 73.3211 151.595 73.4389 151.907 73.6501L151.253 74.6182L151.015 74.4571C150.647 74.2089 150.305 74.1129 149.987 74.1692C149.675 74.2291 149.364 74.4889 149.054 74.9483L147.446 77.3276L146.509 76.6941L149.562 72.1734L150.5 72.8069L150.057 73.4633Z" fill="#9400D3"/>
<path d="M153.298 75.8092L151.608 78.3116C151.493 78.4811 151.449 78.6301 151.474 78.7585C151.508 78.8852 151.621 79.0134 151.813 79.143L152.389 79.5321L151.862 80.3115L151.122 79.8114C150.7 79.5261 150.442 79.2091 150.351 78.8603C150.259 78.5115 150.362 78.1156 150.662 77.6725L152.352 75.1701L151.818 74.8089L152.333 74.0459L152.868 74.4071L153.627 73.2831L154.573 73.9221L153.814 75.0461L154.916 75.7908L154.401 76.5538L153.298 75.8092Z" fill="#9400D3"/>
<path d="M158.175 77.8849C158.52 78.1182 158.778 78.3996 158.947 78.7288C159.121 79.0617 159.187 79.4249 159.145 79.8186C159.108 80.2159 158.951 80.6197 158.674 81.0299L156.873 83.6964L155.943 83.0685L157.65 80.5415C157.924 80.1367 158.031 79.7591 157.972 79.4087C157.917 79.0529 157.714 78.7564 157.363 78.5193C157.012 78.2822 156.658 78.2027 156.302 78.2806C155.955 78.3569 155.645 78.5974 155.371 79.0021L153.664 81.5292L152.727 80.8956L156.828 74.8242L157.766 75.4577L156.363 77.5335C156.652 77.4495 156.952 77.437 157.263 77.4961C157.58 77.5589 157.884 77.6885 158.175 77.8849Z" fill="#9400D3"/>
<path d="M159.297 82.0129C159.604 81.5588 159.969 81.2198 160.391 80.9957C160.82 80.7753 161.261 80.6787 161.713 80.7059C162.175 80.7312 162.604 80.8773 162.999 81.1441C163.355 81.3849 163.617 81.6653 163.784 81.9853C163.961 82.3036 164.058 82.6204 164.077 82.9356L164.52 82.2792L165.466 82.9184L162.413 87.4391L161.466 86.7999L161.921 86.1271C161.618 86.233 161.281 86.2644 160.911 86.2214C160.541 86.1784 160.18 86.0383 159.829 85.8012C159.44 85.5382 159.149 85.1989 158.959 84.7834C158.772 84.3624 158.703 83.9093 158.751 83.4241C158.808 82.9373 158.99 82.4668 159.297 82.0129ZM162.996 84.5355C163.207 84.2237 163.324 83.9085 163.347 83.59C163.376 83.275 163.327 82.987 163.2 82.7258C163.073 82.4648 162.889 82.2527 162.648 82.0897C162.406 81.9267 162.141 81.8349 161.851 81.8144C161.565 81.7885 161.279 81.8459 160.992 81.9868C160.714 82.1258 160.47 82.3512 160.26 82.663C160.049 82.9748 159.927 83.2909 159.895 83.6113C159.867 83.9354 159.915 84.2307 160.039 84.4974C160.171 84.7622 160.356 84.9743 160.591 85.1336C160.833 85.2966 161.098 85.3883 161.388 85.4088C161.678 85.4292 161.963 85.3673 162.244 85.2227C162.535 85.0763 162.785 84.8472 162.996 84.5355Z" fill="#9400D3"/>
<path d="M161.927 88.1542L139.862 73.2485L139.927 73.1523L161.992 88.058L161.927 88.1542Z" fill="white"/>
<path d="M158.696 91.0469C158.52 90.928 158.382 90.7897 158.283 90.6323C158.189 90.4739 158.138 90.3131 158.13 90.1499C158.124 89.9839 158.164 89.8314 158.25 89.6923L158.729 90.0162C158.673 90.1165 158.664 90.2266 158.701 90.3465C158.743 90.4655 158.827 90.5671 158.951 90.6513C159.081 90.7392 159.198 90.7825 159.301 90.7813C159.409 90.7793 159.49 90.7389 159.543 90.6604C159.599 90.5764 159.601 90.4867 159.547 90.3911C159.496 90.2974 159.4 90.1676 159.26 90.0018C159.123 89.8422 159.016 89.7051 158.94 89.5904C158.864 89.4757 158.816 89.3471 158.798 89.2047C158.783 89.064 158.824 88.9206 158.923 88.7743C159.004 88.6551 159.112 88.5705 159.248 88.5206C159.387 88.4679 159.54 88.4571 159.708 88.488C159.879 88.5208 160.05 88.5949 160.221 88.7101C160.476 88.8822 160.636 89.0853 160.703 89.3197C160.774 89.5531 160.74 89.7846 160.601 90.014L160.137 89.7011C160.197 89.5954 160.21 89.488 160.177 89.379C160.145 89.27 160.066 89.1734 159.941 89.0893C159.819 89.0069 159.71 88.9668 159.614 88.9689C159.518 88.9711 159.444 89.01 159.393 89.0859C159.353 89.1455 159.341 89.2102 159.357 89.2802C159.373 89.3501 159.403 89.4183 159.449 89.4847C159.497 89.5485 159.57 89.6392 159.668 89.7567C159.801 89.9099 159.904 90.0442 159.976 90.1598C160.052 90.2745 160.099 90.4008 160.116 90.5388C160.133 90.6767 160.095 90.8184 160.001 90.9638C159.915 91.0911 159.802 91.1811 159.664 91.2337C159.526 91.2864 159.373 91.2972 159.204 91.2663C159.039 91.2371 158.869 91.164 158.696 91.0469Z" fill="white"/>
<path d="M155.762 87.3675C155.914 87.1427 156.095 86.9747 156.304 86.8635C156.516 86.7542 156.734 86.7061 156.958 86.7193C157.186 86.7315 157.399 86.8045 157.597 86.9381C157.743 87.0369 157.865 87.1664 157.962 87.3266C158.063 87.4858 158.12 87.6467 158.133 87.8091L158.863 86.7282L159.331 87.0439L157.299 90.0508L156.832 89.7351L157.06 89.3978C156.911 89.4549 156.745 89.473 156.562 89.4519C156.381 89.4327 156.205 89.3645 156.031 89.2474C155.836 89.1156 155.69 88.9461 155.594 88.7388C155.502 88.5306 155.468 88.3064 155.492 88.0663C155.52 87.8253 155.611 87.5923 155.762 87.3675ZM157.59 88.6136C157.694 88.4592 157.752 88.3031 157.764 88.1454C157.778 87.9896 157.754 87.8471 157.692 87.718C157.629 87.5888 157.538 87.484 157.419 87.4035C157.3 87.323 157.168 87.2777 157.025 87.2678C156.884 87.2551 156.742 87.2837 156.6 87.3536C156.463 87.4226 156.342 87.5343 156.238 87.6887C156.134 87.8431 156.073 87.9996 156.057 88.1581C156.043 88.3185 156.067 88.4647 156.128 88.5965C156.193 88.7275 156.284 88.8323 156.4 88.911C156.52 88.9915 156.651 89.0367 156.794 89.0467C156.937 89.0566 157.078 89.0257 157.218 88.9541C157.361 88.8815 157.485 88.768 157.59 88.6136Z" fill="white"/>
<path d="M155.35 85.946C155.495 85.878 155.644 85.8504 155.797 85.8631C155.955 85.8749 156.111 85.933 156.265 86.0373L155.941 86.5168L155.823 86.4372C155.642 86.3146 155.473 86.2673 155.316 86.2954C155.161 86.3252 155.007 86.454 154.854 86.6815L154.058 87.8599L153.594 87.547L155.107 85.3081L155.57 85.621L155.35 85.946Z" fill="white"/>
<path d="M151.449 84.4525C151.601 84.2277 151.782 84.0597 151.991 83.9485C152.203 83.8392 152.421 83.7911 152.644 83.8043C152.873 83.8166 153.085 83.8886 153.28 84.0203C153.456 84.1393 153.585 84.2779 153.667 84.4362C153.754 84.5935 153.802 84.7502 153.811 84.9062L154.031 84.5812L154.498 84.8968L152.986 87.1358L152.519 86.8201L152.744 86.4869C152.594 86.5395 152.427 86.5552 152.244 86.5342C152.061 86.5131 151.883 86.444 151.71 86.3269C151.517 86.197 151.374 86.0292 151.28 85.8238C151.188 85.6156 151.154 85.3914 151.178 85.1513C151.207 84.9103 151.297 84.6773 151.449 84.4525ZM153.276 85.6986C153.381 85.5442 153.439 85.3881 153.45 85.2305C153.465 85.0746 153.441 84.9321 153.378 84.803C153.316 84.6738 153.225 84.569 153.105 84.4885C152.986 84.408 152.855 84.3627 152.712 84.3528C152.57 84.3401 152.429 84.3687 152.287 84.4386C152.15 84.5076 152.029 84.6193 151.925 84.7737C151.82 84.9281 151.76 85.0846 151.743 85.2431C151.73 85.4035 151.753 85.5497 151.814 85.6815C151.88 85.8125 151.971 85.9173 152.087 85.996C152.206 86.0765 152.337 86.1217 152.481 86.1317C152.624 86.1416 152.765 86.1107 152.904 86.0391C153.048 85.9665 153.172 85.853 153.276 85.6986Z" fill="white"/>
<path d="M148.501 82.0421C148.688 81.7658 148.919 81.5609 149.194 81.4275C149.473 81.2959 149.763 81.2433 150.064 81.2696C150.371 81.2951 150.655 81.3966 150.918 81.5741C151.219 81.7772 151.435 82.0319 151.568 82.3383C151.704 82.6438 151.734 82.9677 151.657 83.3099L151.1 82.9339C151.128 82.7355 151.101 82.5558 151.021 82.3948C150.94 82.2338 150.814 82.0957 150.644 81.9804C150.457 81.8541 150.262 81.7836 150.059 81.7687C149.856 81.7539 149.659 81.7967 149.469 81.8971C149.282 81.9993 149.117 82.1547 148.977 82.3633C148.836 82.5718 148.753 82.7821 148.728 82.9942C148.706 83.208 148.739 83.4077 148.826 83.5932C148.916 83.776 149.054 83.9305 149.241 84.0568C149.412 84.1721 149.587 84.2371 149.766 84.2517C149.946 84.2664 150.122 84.224 150.296 84.1244L150.853 84.5005C150.564 84.7 150.252 84.7933 149.918 84.7804C149.586 84.7693 149.27 84.6622 148.969 84.459C148.704 84.2797 148.502 84.055 148.365 83.7848C148.23 83.512 148.172 83.222 148.19 82.9147C148.211 82.6093 148.314 82.3184 148.501 82.0421Z" fill="white"/>
</g>
<path d="M132.645 60.2592C133.12 59.5551 134.077 59.3699 134.781 59.8456L142.455 65.0301C143.159 65.5057 143.345 66.4621 142.869 67.1661L137.685 74.8408C137.209 75.5449 136.253 75.7301 135.549 75.2544L127.874 70.0699C127.17 69.5943 126.985 68.6379 127.46 67.9339L132.645 60.2592Z" fill="#9400D3"/>
<path d="M134.778 70.1363C136.115 70.2202 137.112 69.6268 137.46 69.3934C137.638 69.2737 137.764 69.17 137.897 69.0599C138.072 68.9153 138.23 68.7701 138.374 68.6277L138.718 68.1179C139.212 67.3871 139.372 66.6677 139.2 65.9596C139.026 65.2517 138.493 64.595 137.599 63.9913C136.978 63.5719 136.371 63.3259 135.776 63.2514C136.194 63.3948 137.011 63.7224 137.583 64.5211C137.765 64.775 138.037 65.1544 138.054 65.6873C138.065 66.0441 137.958 66.3269 137.856 66.5961C137.777 66.8053 137.685 66.9884 137.593 67.1458C137.589 67.155 137.585 67.1642 137.581 67.1724C137.407 67.4686 137.22 67.771 137.021 68.078C136.647 68.654 136.268 69.1839 135.894 69.6694C135.661 69.7945 135.264 69.9651 134.751 69.9909C134.578 69.9996 134.405 69.9907 134.23 69.9642C133.831 69.9044 133.482 69.8033 133.183 69.662C133.327 69.7522 133.479 69.8295 133.637 69.8915C134.107 70.0755 134.49 70.1183 134.778 70.1363Z" fill="url(#paint6_linear_6724_2627)"/>
<path d="M138.077 65.6932C138.061 65.1582 137.789 64.7778 137.608 64.5234C137.036 63.7227 136.218 63.3955 135.8 63.2524C135.615 63.2296 135.431 63.2229 135.248 63.2333C134.732 63.263 134.362 63.4264 134.267 63.4686C133.632 63.7512 133.246 64.214 133.054 64.4988C132.97 64.6224 132.911 64.7314 132.872 64.8078C132.962 64.7898 133.093 64.7699 133.252 64.7703C133.535 64.771 133.757 64.836 133.964 64.9094C134.565 65.1219 135.161 65.4462 135.366 65.5609C135.454 65.6017 135.563 65.6423 135.694 65.6676C136.007 65.7283 136.27 65.6676 136.417 65.6206C136.039 65.5609 135.689 65.3529 135.453 65.0529C135.391 64.9748 135.335 64.8696 135.379 64.78C135.41 64.7167 135.481 64.6847 135.547 64.6625C135.557 64.6592 135.567 64.6567 135.577 64.6536C135.594 64.6516 135.61 64.6493 135.626 64.6478C136.145 64.5995 136.602 64.891 136.88 65.0936C137.176 65.3089 137.601 65.6183 137.722 66.1874C137.814 66.6171 137.688 66.9827 137.612 67.1585C137.704 67.0003 137.797 66.8163 137.877 66.6061C137.98 66.3356 138.088 66.0515 138.077 65.6932Z" fill="url(#paint7_linear_6724_2627)"/>
<path d="M131.525 67.5263C131.941 67.1755 132.526 67.0762 133.065 67.1521C133.385 67.1972 133.692 67.2978 133.99 67.4249C134.234 67.5106 134.473 67.6294 134.692 67.7174C135.501 68.0416 135.875 68.1461 136.29 68.1178C136.466 68.1058 136.641 68.0707 136.815 67.9677C137.099 67.7997 137.231 67.5391 137.284 67.4139C137.129 67.4146 136.937 67.3775 136.705 67.3017C136.196 67.1352 135.628 66.9004 135.005 66.5971C134.069 66.1423 133.273 65.96 132.62 66.0515C131.68 66.1833 130.841 66.9751 130.67 67.913C130.59 68.3547 130.66 68.7743 130.828 69.1564C130.838 68.9024 130.882 68.6497 130.962 68.4083C131.073 68.0729 131.255 67.7542 131.525 67.5263Z" fill="url(#paint8_linear_6724_2627)"/>
<path d="M136.015 72.3669C136.044 72.2404 136.119 72.0962 136.269 71.813C136.352 71.6574 136.424 71.5308 136.475 71.4441L138.384 68.6182C138.241 68.7599 138.083 68.9043 137.909 69.0482C137.776 69.1576 137.651 69.2609 137.474 69.3799C137.127 69.612 136.135 70.2021 134.804 70.1179C134.517 70.0997 134.134 70.0569 133.667 69.8734C133.509 69.8116 133.358 69.7346 133.214 69.6446C133.09 69.5862 132.975 69.521 132.868 69.4488C132.392 69.1273 132.077 68.6116 132.275 68.0268C132.421 67.5954 132.861 67.2595 133.318 67.235C133.519 67.2242 133.724 67.2724 133.925 67.343C133.628 67.2163 133.322 67.1158 133.004 67.0707C132.467 66.9947 131.885 67.093 131.471 67.4416C131.203 67.6681 131.022 67.985 130.911 68.3186C130.832 68.5586 130.788 68.81 130.778 69.0627C131.028 69.6273 131.494 70.1095 132.01 70.4576C132.455 70.7584 132.934 70.9652 133.449 71.0771C133.962 71.1893 134.471 71.1796 134.973 71.0475C134.915 71.2012 134.81 71.5475 134.918 71.9494C135.141 72.7801 136.056 73.0334 136.101 73.0451C135.964 72.7247 135.988 72.4918 136.015 72.3669Z" fill="url(#paint9_linear_6724_2627)"/>
</g>
<defs>
<filter id="filter0_d_6724_2627" x="-75.1023" y="-3.41602" width="612.42" height="461.914" filterUnits="userSpaceOnUse" color-interpolation-filters="sRGB">
<feFlood flood-opacity="0" result="BackgroundImageFix"/>
<feColorMatrix in="SourceAlpha" type="matrix" values="0 0 0 0 0 0 0 0 0 0 0 0 0 0 0 0 0 0 127 0" result="hardAlpha"/>
<feOffset dy="15"/>
<feGaussianBlur stdDeviation="30"/>
<feComposite in2="hardAlpha" operator="out"/>
<feColorMatrix type="matrix" values="0 0 0 0 0 0 0 0 0 0 0 0 0 0 0 0 0 0 0.25 0"/>
<feBlend mode="normal" in2="BackgroundImageFix" result="effect1_dropShadow_6724_2627"/>
<feBlend mode="normal" in="SourceGraphic" in2="effect1_dropShadow_6724_2627" result="shape"/>
</filter>
<linearGradient id="paint0_linear_6724_2627" x1="0" y1="106.305" x2="392.073" y2="106.305" gradientUnits="userSpaceOnUse">
<stop stop-color="#C2AA34"/>
<stop offset="1" stop-color="#131700"/>
</linearGradient>
<linearGradient id="paint1_linear_6724_2627" x1="66.5382" y1="97.4308" x2="63.671" y2="92.2198" gradientUnits="userSpaceOnUse">
<stop stop-color="#FFFF63"/>
<stop offset="0.276" stop-color="#D4D400"/>
<stop offset="0.531" stop-color="#F5F52A"/>
<stop offset="0.761" stop-color="#E9E900"/>
<stop offset="0.951" stop-color="#C3C30E"/>
</linearGradient>
<linearGradient id="paint2_linear_6724_2627" x1="67.7678" y1="89.3558" x2="64.1929" y2="89.5479" gradientUnits="userSpaceOnUse">
<stop stop-color="#D9D901"/>
<stop offset="0.276" stop-color="#E4E430"/>
<stop offset="0.577405" stop-color="#E9E900"/>
<stop offset="1" stop-color="#FFFF81"/>
</linearGradient>
<linearGradient id="paint3_linear_6724_2627" x1="65.8895" y1="91.8434" x2="61.4213" y2="90.4538" gradientUnits="userSpaceOnUse">
<stop stop-color="#D9D901"/>
<stop offset="0.276" stop-color="#E4E430"/>
<stop offset="0.577405" stop-color="#E9E900"/>
<stop offset="1" stop-color="#717100"/>
</linearGradient>
<linearGradient id="paint4_linear_6724_2627" x1="66.3822" y1="98.5719" x2="65.0946" y2="92.2083" gradientUnits="userSpaceOnUse">
<stop stop-color="#FFFF63"/>
<stop offset="0.276" stop-color="#D4D400"/>
<stop offset="0.531" stop-color="#F5F52A"/>
<stop offset="0.761" stop-color="#E9E900"/>
<stop offset="0.951" stop-color="#C3C30E"/>
</linearGradient>
<radialGradient id="paint5_radial_6724_2627" cx="0" cy="0" r="1" gradientUnits="userSpaceOnUse" gradientTransform="translate(51.22 131.497) rotate(-11.6688) scale(337.426 182.978)">
<stop stop-color="#1D5297"/>
<stop offset="0.604167" stop-color="#51AFCE"/>
<stop offset="0.892823" stop-color="#1075AB"/>
<stop offset="1" stop-color="#1888D3"/>
</radialGradient>
<linearGradient id="paint6_linear_6724_2627" x1="135.538" y1="72.4328" x2="132.67" y2="67.2219" gradientUnits="userSpaceOnUse">
<stop stop-color="#FFFF63"/>
<stop offset="0.276" stop-color="#D4D400"/>
<stop offset="0.531" stop-color="#F5F52A"/>
<stop offset="0.761" stop-color="#E9E900"/>
<stop offset="0.951" stop-color="#C3C30E"/>
</linearGradient>
<linearGradient id="paint7_linear_6724_2627" x1="136.767" y1="64.3577" x2="133.192" y2="64.5499" gradientUnits="userSpaceOnUse">
<stop stop-color="#D9D901"/>
<stop offset="0.276" stop-color="#E4E430"/>
<stop offset="0.577405" stop-color="#E9E900"/>
<stop offset="1" stop-color="#FFFF81"/>
</linearGradient>
<linearGradient id="paint8_linear_6724_2627" x1="134.889" y1="66.8453" x2="130.421" y2="65.4558" gradientUnits="userSpaceOnUse">
<stop stop-color="#D9D901"/>
<stop offset="0.276" stop-color="#E4E430"/>
<stop offset="0.577405" stop-color="#E9E900"/>
<stop offset="1" stop-color="#717100"/>
</linearGradient>
<linearGradient id="paint9_linear_6724_2627" x1="135.382" y1="73.5737" x2="134.094" y2="67.2102" gradientUnits="userSpaceOnUse">
<stop stop-color="#FFFF63"/>
<stop offset="0.276" stop-color="#D4D400"/>
<stop offset="0.531" stop-color="#F5F52A"/>
<stop offset="0.761" stop-color="#E9E900"/>
<stop offset="0.951" stop-color="#C3C30E"/>
</linearGradient>
<clipPath id="clip0_6724_2627">
<rect width="26.8654" height="12.8077" fill="white" transform="translate(75.4752 91.2109) rotate(34.0419)"/>
</clipPath>
<clipPath id="clip1_6724_2627">
<rect width="26.8654" height="12.8077" fill="white" transform="translate(144.475 66.2109) rotate(34.04)"/>
</clipPath>
</defs>
</svg>
