<svg width="370" height="393" viewBox="0 0 370 393" fill="none" xmlns="http://www.w3.org/2000/svg">
<g clip-path="url(#clip0_6901_7890)">
<rect width="230.39" height="322.002" rx="21.7692" transform="matrix(1 0 0.22937 0.973339 0 0)" fill="url(#paint0_radial_6901_7890)"/>
<path d="M60.6749 30.5433C60.4661 29.6575 60.49 28.9056 60.7465 28.2876C61.003 27.6696 61.4506 27.1979 62.0892 26.8724C62.7289 26.551 63.5185 26.3903 64.4582 26.3903C65.3979 26.3903 66.2633 26.551 67.0544 26.8724C67.8465 27.1979 68.5164 27.6696 69.0641 28.2876C69.6119 28.9056 69.9902 29.6575 70.1989 30.5433C70.4416 31.5733 70.3724 32.42 69.9911 33.0833C69.6108 33.7508 68.9952 34.2102 68.1444 34.4615L67.576 33.3429C68.2148 33.1616 68.6762 32.8382 68.9601 32.3726C69.244 31.9071 69.2972 31.2973 69.1195 30.5433C68.9632 29.88 68.6786 29.3279 68.2657 28.8871C67.8528 28.4462 67.3429 28.1146 66.736 27.8921C66.1333 27.6696 65.4653 27.5563 64.732 27.5522C64.003 27.5481 63.3874 27.6572 62.8854 27.8797C62.3875 28.1022 62.0344 28.4359 61.826 28.8809C61.6219 29.3259 61.598 29.88 61.7543 30.5433C61.9319 31.2973 62.2725 31.9071 62.7758 32.3726C63.2834 32.8382 63.8972 33.1616 64.6172 33.3429L64.5761 34.4615C63.611 34.2102 62.7789 33.7508 62.0798 33.0833C61.3859 32.42 60.9176 31.5733 60.6749 30.5433ZM62.6439 38.8451C62.5429 38.4166 62.5259 38.0479 62.5928 37.7389C62.6606 37.434 62.7871 37.1806 62.9724 36.9787C63.1576 36.7768 63.3784 36.6182 63.6348 36.5028C63.8913 36.3875 64.1618 36.3051 64.4465 36.2556C64.7321 36.2103 65.004 36.1877 65.2622 36.1877H69.0528L69.3149 37.3001H65.8799C65.5582 37.3001 65.2539 37.3289 64.9669 37.3866C64.68 37.4443 64.4319 37.5411 64.2227 37.6771C64.0144 37.8171 63.8676 38.0025 63.7823 38.2333C63.698 38.4681 63.6971 38.7606 63.7796 39.1108C63.8446 39.3869 63.9525 39.6382 64.1033 39.8648C64.254 40.0914 64.4436 40.285 64.6719 40.4457C64.9045 40.6064 65.1792 40.73 65.4958 40.8165C65.8125 40.9031 66.1677 40.9463 66.5614 40.9463L66.5032 41.6694C65.8429 41.6694 65.2459 41.552 64.7122 41.3171C64.1795 41.0864 63.7341 40.7588 63.3759 40.3345C63.0229 39.9142 62.7789 39.4178 62.6439 38.8451ZM63.346 41.0699H65.1809L65.1518 40.9463H70.1741L70.4348 42.0525H63.5775L63.346 41.0699ZM64.1018 44.2773H70.9591L71.1907 45.2599H69.5335L69.7115 45.0992C69.9416 45.1775 70.1601 45.2784 70.367 45.402C70.5749 45.5298 70.7544 45.6719 70.9056 45.8285C71.0903 46.0015 71.2465 46.1972 71.3741 46.4156C71.5017 46.6339 71.5986 46.8564 71.6647 47.083C71.7351 47.3096 71.7702 47.5218 71.7703 47.7196H70.7099C70.7191 47.4888 70.6763 47.2355 70.5816 46.9594C70.4869 46.6834 70.323 46.4279 70.0899 46.1931C69.8828 45.9788 69.653 45.812 69.4005 45.6925C69.149 45.5771 68.8866 45.4968 68.6135 45.4515C68.3446 45.4062 68.0747 45.3835 67.8038 45.3835H64.3625L64.1018 44.2773ZM65.3049 49.3826H72.1622L72.3937 50.3652H70.7366L70.9146 50.2045C71.1447 50.2828 71.3632 50.3837 71.5701 50.5073C71.7779 50.6351 71.9575 50.7772 72.1087 50.9338C72.2934 51.1068 72.4495 51.3025 72.5772 51.5209C72.7048 51.7392 72.8017 51.9617 72.8678 52.1883C72.9381 52.4149 72.9733 52.6271 72.9734 52.8249H71.913C71.9221 52.5942 71.8794 52.3408 71.7847 52.0647C71.69 51.7887 71.5261 51.5332 71.293 51.2984C71.0859 51.0842 70.8561 50.9173 70.6036 50.7978C70.352 50.6825 70.0897 50.6021 69.8166 50.5568C69.5477 50.5115 69.2778 50.4888 69.0069 50.4888H65.5656L65.3049 49.3826ZM66.9706 57.2595C66.8162 56.6044 66.8294 56.0317 67.0102 55.5414C67.1962 55.0552 67.5238 54.6762 67.9931 54.4043C68.4666 54.1323 69.061 53.9964 69.7763 53.9964C70.5256 53.9964 71.2048 54.1303 71.8139 54.3981C72.4273 54.6659 72.9384 55.0388 73.3474 55.5167C73.7615 55.9987 74.0448 56.5632 74.1972 57.21C74.3555 57.8816 74.3312 58.4522 74.1244 58.9219C73.9186 59.3957 73.5492 59.75 73.0162 59.9849C72.4841 60.2238 71.8078 60.3268 70.9873 60.2939L70.7252 59.1815H71.1316C71.971 59.1691 72.5603 59.0022 72.8993 58.6809C73.2427 58.3595 73.3396 57.8816 73.1901 57.2471C73.0299 56.5673 72.6837 56.0502 72.1515 55.6959C71.6193 55.3416 70.9342 55.1644 70.096 55.1644C69.2876 55.1644 68.7028 55.3416 68.3419 55.6959C67.9809 56.0502 67.8776 56.5549 68.032 57.21C68.1359 57.6509 68.3299 58.034 68.614 58.3595C68.8981 58.685 69.2567 58.9404 69.6898 59.1258L69.5643 60.1826C68.8978 59.9231 68.3357 59.5317 67.878 59.0084C67.4255 58.4893 67.123 57.9063 66.9706 57.2595ZM69.6912 54.7936H70.5991L71.7613 59.7253H70.8534L69.6912 54.7936ZM69.3942 66.7356H72.8292C73.1551 66.7356 73.4615 66.7068 73.7485 66.6491C74.0364 66.5955 74.2824 66.4987 74.4864 66.3586C74.6956 66.2227 74.8424 66.0373 74.9268 65.8024C75.0121 65.5717 75.013 65.2792 74.9295 64.9249C74.8645 64.6488 74.7565 64.3975 74.6058 64.1709C74.4602 63.9484 74.2712 63.7568 74.0386 63.5961C73.806 63.4355 73.5309 63.3098 73.2132 63.2192C72.9008 63.1326 72.5456 63.0894 72.1477 63.0894L72.2059 62.3663C72.8705 62.3663 73.467 62.4817 73.9954 62.7124C74.5291 62.9472 74.9724 63.2748 75.3254 63.695C75.6836 64.1194 75.9302 64.6179 76.0652 65.1906C76.1671 65.6232 76.1842 65.9919 76.1163 66.2968C76.0485 66.6017 75.9219 66.8551 75.7367 67.057C75.5557 67.2589 75.3349 67.4175 75.0742 67.5328C74.8178 67.6482 74.5468 67.7285 74.2612 67.7739C73.9807 67.8233 73.7093 67.848 73.4469 67.848H69.6563L69.3942 66.7356ZM68.2728 61.977H75.1301L75.3631 62.9658H73.5281L73.5573 63.0894H68.5349L68.2728 61.977ZM70.6094 72.7007C70.4502 72.025 70.4692 71.4503 70.6666 70.9765C70.8691 70.5068 71.2143 70.1484 71.7021 69.9012C72.1899 69.654 72.782 69.5262 73.4785 69.518C74.1958 69.5262 74.855 69.656 75.456 69.9073C76.0622 70.1628 76.5736 70.5274 76.99 71.0012C77.4064 71.475 77.6933 72.0456 77.8506 72.7131C78.0166 73.4176 77.9815 74.0233 77.7454 74.53C77.5102 75.0409 77.104 75.3829 76.5268 75.5559L75.934 74.4682C76.2988 74.3281 76.554 74.0995 76.6993 73.7822C76.8456 73.4691 76.8707 73.1086 76.7746 72.7007C76.6668 72.2434 76.4679 71.8664 76.1779 71.5698C75.8921 71.2731 75.5397 71.0527 75.1205 70.9085C74.7056 70.7643 74.25 70.6901 73.7538 70.686C72.9938 70.6943 72.4182 70.8652 72.027 71.199C71.641 71.5368 71.5261 72.0374 71.6824 72.7007C71.7854 73.1374 71.9724 73.5 72.2435 73.7884C72.5189 74.0768 72.8688 74.2952 73.2932 74.4435L73.2569 75.5559C72.5633 75.3252 71.9895 74.9647 71.5353 74.4744C71.0811 73.9841 70.7725 73.3929 70.6094 72.7007ZM69.0003 77.9972L72.9111 79.2889L71.8488 79.3074L78.5267 76.3904L78.799 77.5461L73.4139 79.8327L73.3207 79.4372L79.75 81.5817L80.0136 82.7003L69.2523 79.0664L69.0003 77.9972Z" fill="white"/>
<path d="M139.102 26.7203H140.766L141.529 29.9596H129.865L129.443 28.1687H139.443L139.102 26.7203ZM133.151 33.3797C134.271 34.3764 135.181 35.1602 135.881 35.7313C136.594 36.3127 137.305 36.7955 138.014 37.1796C138.724 37.5637 139.388 37.7558 140.006 37.7558C140.646 37.7558 141.112 37.6053 141.404 37.3042C141.698 37.0135 141.77 36.5515 141.621 35.9181C141.477 35.3056 141.162 34.828 140.676 34.4854C140.203 34.1532 139.628 33.9767 138.951 33.9559L138.547 32.2428C139.77 32.274 140.782 32.627 141.581 33.3018C142.393 33.987 142.922 34.854 143.169 35.9026C143.436 37.0342 143.324 37.9167 142.833 38.5501C142.345 39.1938 141.568 39.5156 140.501 39.5156C139.733 39.5156 138.946 39.3235 138.141 38.9394C137.349 38.5656 136.608 38.114 135.918 37.5845C135.241 37.0654 134.439 36.4009 133.512 35.5911L132.707 34.8903L133.87 39.8271H132.35L130.567 32.2584H131.895L133.151 33.3797ZM141.335 41.3556C142.341 41.4179 143.201 41.7865 143.915 42.4613C144.631 43.1465 145.114 44.0186 145.364 45.0776C145.535 45.8044 145.55 46.4325 145.408 46.962C145.266 47.4915 144.997 47.8912 144.602 48.1612C144.207 48.4311 143.722 48.5661 143.146 48.5661C142.484 48.5661 141.879 48.3948 141.329 48.0522C140.779 47.7095 140.367 47.2994 140.095 46.8219H140.031C139.983 47.4344 139.744 47.912 139.312 48.2546C138.892 48.5972 138.287 48.7685 137.497 48.7685C136.868 48.7685 136.275 48.6284 135.718 48.3481C135.162 48.0677 134.674 47.6524 134.257 47.1022C133.85 46.5519 133.556 45.8926 133.375 45.1244C133.11 44.0031 133.186 43.079 133.601 42.3523C134.03 41.6359 134.793 41.2518 135.89 41.1999L136.294 42.9129C135.738 42.9545 135.324 43.1673 135.052 43.5514C134.79 43.9356 134.737 44.4547 134.891 45.1088C135.04 45.7421 135.331 46.2301 135.764 46.5727C136.207 46.9153 136.712 47.0866 137.277 47.0866C138.024 47.0866 138.497 46.853 138.696 46.3858C138.908 45.929 138.902 45.223 138.677 44.2678L138.581 43.8629H140.085L140.184 44.2834C140.393 45.1244 140.688 45.7629 141.068 46.1989C141.45 46.6454 141.94 46.8686 142.538 46.8686C143.05 46.8686 143.417 46.7077 143.64 46.3858C143.873 46.064 143.92 45.6071 143.781 45.0153C143.644 44.4339 143.383 43.9823 142.998 43.6605C142.623 43.3386 142.205 43.1465 141.742 43.0842L141.335 41.3556ZM137.117 50.4154H138.493L147.439 55.6481L147.945 57.7972H140.441L140.782 59.2456H139.198L138.857 57.7972H136.425L136.014 56.053H138.446L137.117 50.4154ZM145.696 56.1309L139.182 52.4555L140.048 56.1309H145.696ZM149.887 72.0816L148.658 66.8645H145.474C145.824 67.0825 146.15 67.4044 146.453 67.83C146.759 68.2661 146.969 68.7281 147.084 69.2161C147.289 70.0882 147.264 70.7942 147.007 71.3341C146.753 71.8843 146.359 72.2737 145.826 72.5021C145.296 72.7409 144.705 72.8603 144.055 72.8603C143.265 72.8603 142.526 72.7097 141.836 72.4086C141.16 72.1179 140.576 71.6767 140.084 71.0849C139.595 70.5035 139.25 69.7871 139.05 68.9358C138.783 67.8041 138.857 66.8956 139.272 66.2104C139.686 65.5252 140.352 65.1151 141.27 64.9801L141.677 66.7088C141.203 66.823 140.863 67.0773 140.657 67.4719C140.462 67.8664 140.434 68.3595 140.574 68.9513C140.747 69.6885 141.106 70.2387 141.651 70.6021C142.197 70.9759 142.849 71.1628 143.607 71.1628C144.375 71.1628 144.917 70.9759 145.235 70.6021C145.562 70.2284 145.641 69.6781 145.47 68.9513C145.35 68.4426 145.115 68.0117 144.765 67.6587C144.428 67.3161 144.017 67.0669 143.533 66.9112L143.136 65.2293H149.872L151.487 72.0816H149.887ZM150.809 80.8132C151.273 80.699 151.592 80.4913 151.766 80.1902C151.94 79.8892 151.964 79.4687 151.837 78.9288C151.643 78.1086 151.174 77.496 150.428 77.0911C149.692 76.6862 148.575 76.4734 147.077 76.4526C147.61 76.7226 148.066 77.1171 148.444 77.6362C148.822 78.1553 149.083 78.716 149.224 79.3181C149.386 80.0034 149.373 80.6055 149.186 81.1246C149.012 81.6541 148.672 82.0642 148.164 82.3549C147.659 82.656 147.007 82.8066 146.207 82.8066C145.46 82.8066 144.759 82.6612 144.104 82.3705C143.451 82.0902 142.888 81.6697 142.415 81.1091C141.952 80.5484 141.627 79.8736 141.441 79.0845C141.189 78.0151 141.231 77.1742 141.567 76.5616C141.916 75.9595 142.503 75.5338 143.33 75.2846C144.159 75.0458 145.235 74.9264 146.558 74.9264C150.462 74.9264 152.729 76.2657 153.36 78.9444C153.605 79.9826 153.509 80.7976 153.073 81.3894C152.638 81.9916 152.012 82.3446 151.194 82.4484L150.809 80.8132ZM147.597 78.9288C147.448 78.2955 147.123 77.7556 146.623 77.3092C146.136 76.8731 145.525 76.6551 144.789 76.6551C144.053 76.6551 143.514 76.8575 143.172 77.2624C142.843 77.6777 142.766 78.2539 142.939 78.9911C143.094 79.6452 143.423 80.1591 143.927 80.5329C144.433 80.917 145.033 81.1091 145.727 81.1091C146.452 81.1091 146.984 80.9222 147.322 80.5484C147.674 80.185 147.766 79.6452 147.597 78.9288ZM154.716 91.8953L143.44 87.5658L143.018 85.7749L154.113 90.151L152.755 84.3889H154.307L156.076 91.8953H154.716ZM151.366 95.3303C151.666 94.2505 152.413 93.7106 153.608 93.7106C154.184 93.7106 154.745 93.8508 155.291 94.1311C155.837 94.4115 156.315 94.8319 156.724 95.3926C157.145 95.9532 157.45 96.6385 157.641 97.4483C157.829 98.2477 157.846 98.9277 157.69 99.4884C157.547 100.059 157.269 100.485 156.855 100.765C156.441 101.046 155.946 101.186 155.37 101.186C154.772 101.186 154.209 101.035 153.679 100.734C153.163 100.444 152.724 100.054 152.364 99.5663C152.279 100.158 152.022 100.625 151.59 100.968C151.17 101.31 150.618 101.482 149.935 101.482C149.242 101.482 148.588 101.31 147.974 100.968C147.36 100.625 146.837 100.148 146.405 99.5351C145.972 98.9226 145.664 98.2269 145.481 97.4483C145.297 96.6696 145.277 95.974 145.421 95.3614C145.567 94.7593 145.867 94.2869 146.319 93.9443C146.772 93.6016 147.345 93.4303 148.038 93.4303C148.731 93.4303 149.369 93.6016 149.951 93.9443C150.533 94.2869 151.005 94.7489 151.366 95.3303ZM154.746 99.4884C155.343 99.4884 155.759 99.3067 155.993 98.9433C156.228 98.5799 156.27 98.0816 156.121 97.4483C155.974 96.8253 155.698 96.3322 155.292 95.9688C154.887 95.6054 154.38 95.4237 153.772 95.4237C153.238 95.4237 152.845 95.6106 152.592 95.9844C152.352 96.3685 152.301 96.8565 152.441 97.4483C152.58 98.0401 152.866 98.528 153.298 98.9122C153.73 99.2963 154.212 99.4884 154.746 99.4884ZM151.065 97.4483C150.903 96.763 150.595 96.2024 150.141 95.7663C149.699 95.3407 149.153 95.1278 148.502 95.1278C147.894 95.1278 147.447 95.3355 147.161 95.7508C146.885 96.1661 146.832 96.7319 147.001 97.4483C147.167 98.1543 147.49 98.7097 147.97 99.1146C148.451 99.5299 148.991 99.7376 149.588 99.7376C150.228 99.7376 150.674 99.5247 150.926 99.0991C151.18 98.6838 151.226 98.1335 151.065 97.4483ZM151.801 109.603C151.292 109.707 150.94 109.93 150.743 110.272C150.546 110.615 150.517 111.077 150.654 111.658C150.827 112.396 151.253 112.935 151.931 113.278C152.609 113.621 153.668 113.792 155.108 113.792C154.687 113.543 154.321 113.19 154.011 112.733C153.714 112.287 153.503 111.799 153.378 111.269C153.219 110.594 153.213 109.982 153.361 109.431C153.519 108.881 153.838 108.445 154.317 108.123C154.808 107.812 155.454 107.656 156.254 107.656C157.428 107.656 158.439 107.988 159.289 108.653C160.152 109.328 160.722 110.252 160.999 111.425C161.331 112.837 161.082 113.839 160.251 114.43C159.433 115.033 158.026 115.334 156.032 115.334C154.656 115.334 153.503 115.22 152.575 114.991C151.649 114.773 150.897 114.389 150.319 113.839C149.742 113.288 149.338 112.525 149.108 111.549C148.846 110.438 148.943 109.582 149.398 108.98C149.854 108.378 150.526 108.04 151.416 107.968L151.801 109.603ZM154.987 111.581C155.134 112.203 155.446 112.691 155.924 113.044C156.415 113.408 156.991 113.59 157.653 113.59C158.389 113.59 158.914 113.397 159.229 113.013C159.557 112.64 159.644 112.126 159.49 111.472C159.335 110.817 159 110.298 158.483 109.914C157.978 109.54 157.385 109.354 156.702 109.354C156.052 109.354 155.556 109.535 155.215 109.899C154.887 110.272 154.811 110.833 154.987 111.581ZM160.387 117.043H162.051L162.814 120.282H151.15L150.728 118.492H160.728L160.387 117.043ZM157.709 122.721C159.554 122.721 161.065 123.022 162.241 123.625C163.431 124.237 164.201 125.286 164.551 126.77C164.901 128.255 164.624 129.299 163.72 129.901C162.83 130.513 161.462 130.82 159.617 130.82C157.75 130.82 156.217 130.513 155.016 129.901C153.829 129.299 153.061 128.255 152.711 126.77C152.361 125.286 152.636 124.237 153.537 123.625C154.452 123.022 155.842 122.721 157.709 122.721ZM159.206 129.075C160.07 129.075 160.787 129.018 161.358 128.904C161.93 128.8 162.364 128.582 162.659 128.25C162.965 127.918 163.041 127.425 162.887 126.77C162.733 126.116 162.424 125.623 161.962 125.291C161.511 124.959 160.973 124.736 160.348 124.621C159.727 124.518 158.984 124.466 158.12 124.466C157.224 124.466 156.484 124.518 155.9 124.621C155.317 124.725 154.878 124.943 154.582 125.275C154.29 125.618 154.221 126.116 154.375 126.77C154.529 127.425 154.832 127.918 155.283 128.25C155.737 128.593 156.281 128.816 156.913 128.92C157.546 129.023 158.31 129.075 159.206 129.075ZM164.021 132.465H165.685L166.448 135.704H154.784L154.362 133.913H164.362L164.021 132.465ZM166.257 141.955H167.921L168.684 145.194H157.02L156.598 143.403H166.598L166.257 141.955ZM160.306 148.614C161.426 149.611 162.337 150.394 163.036 150.966C163.749 151.547 164.461 152.03 165.17 152.414C165.879 152.798 166.543 152.99 167.162 152.99C167.802 152.99 168.267 152.84 168.559 152.538C168.853 152.248 168.926 151.786 168.776 151.152C168.632 150.54 168.317 150.062 167.831 149.72C167.358 149.387 166.783 149.211 166.106 149.19L165.702 147.477C166.926 147.508 167.937 147.861 168.736 148.536C169.548 149.221 170.078 150.088 170.325 151.137C170.591 152.268 170.479 153.151 169.989 153.784C169.5 154.428 168.723 154.75 167.656 154.75C166.888 154.75 166.102 154.558 165.296 154.174C164.504 153.8 163.763 153.348 163.073 152.819C162.396 152.3 161.594 151.635 160.667 150.825L159.862 150.125L161.026 155.061H159.506L157.722 147.493H159.05L160.306 148.614ZM168.49 156.59C169.496 156.652 170.357 157.021 171.07 157.696C171.787 158.381 172.269 159.253 172.519 160.312C172.69 161.039 172.705 161.667 172.563 162.196C172.421 162.726 172.153 163.125 171.758 163.395C171.363 163.665 170.877 163.8 170.301 163.8C169.64 163.8 169.034 163.629 168.484 163.286C167.934 162.944 167.522 162.534 167.25 162.056H167.186C167.138 162.669 166.899 163.146 166.468 163.489C166.047 163.831 165.442 164.003 164.653 164.003C164.023 164.003 163.43 163.863 162.874 163.582C162.317 163.302 161.83 162.887 161.412 162.336C161.005 161.786 160.711 161.127 160.53 160.359C160.266 159.237 160.341 158.313 160.757 157.587C161.185 156.87 161.948 156.486 163.045 156.434L163.449 158.147C162.893 158.189 162.479 158.402 162.207 158.786C161.946 159.17 161.892 159.689 162.046 160.343C162.195 160.976 162.486 161.464 162.919 161.807C163.363 162.15 163.867 162.321 164.432 162.321C165.179 162.321 165.652 162.087 165.851 161.62C166.064 161.163 166.057 160.457 165.832 159.502L165.737 159.097H167.241L167.34 159.518C167.549 160.359 167.843 160.997 168.223 161.433C168.606 161.88 169.096 162.103 169.693 162.103C170.205 162.103 170.572 161.942 170.795 161.62C171.029 161.298 171.076 160.841 170.936 160.25C170.799 159.668 170.538 159.217 170.153 158.895C169.778 158.573 169.36 158.381 168.897 158.318L168.49 156.59ZM164.273 165.65H165.649L174.594 170.882L175.1 173.031H167.596L167.938 174.48H166.354L166.012 173.031H163.58L163.169 171.287H165.601L164.273 165.65ZM172.852 171.365L166.338 167.69L167.204 171.365H172.852Z" fill="white"/>
<path d="M40.6571 29.7699C40.5181 29.1802 40.5205 28.6593 40.6643 28.2073C40.8081 27.7552 41.0746 27.4003 41.4638 27.1425C41.8574 26.8883 42.359 26.7611 42.9685 26.7611H47.9427L48.1729 27.7146H43.2748C42.9047 27.7146 42.596 27.7747 42.3485 27.8947C42.1055 28.0183 41.9171 28.1808 41.7831 28.3821C41.6491 28.5834 41.5651 28.8041 41.531 29.0442C41.5013 29.2879 41.5148 29.5298 41.5714 29.7699C41.6288 30.0136 41.7316 30.2573 41.8797 30.501C42.0278 30.7446 42.2141 30.9653 42.4384 31.1631C42.6673 31.3644 42.9337 31.5251 43.2378 31.6452C43.5418 31.7652 43.877 31.8253 44.2435 31.8253H49.1416L49.3663 32.7788H44.3866C43.7806 32.7788 43.2206 32.6499 42.7063 32.3921C42.1928 32.1378 41.7577 31.7846 41.4008 31.3326C41.044 30.8806 40.796 30.3597 40.6571 29.7699ZM42.2779 36.6482C42.1506 36.1079 42.1301 35.6205 42.2164 35.1862C42.3035 34.7553 42.488 34.3986 42.7697 34.1161C43.0559 33.8371 43.4285 33.6553 43.8874 33.5705L44.2749 34.5452C43.8106 34.6688 43.4845 34.9248 43.2967 35.3133C43.1134 35.7053 43.0841 36.1661 43.2089 36.6959C43.2896 37.0384 43.4169 37.3474 43.5906 37.6229C43.7688 37.9019 43.9805 38.1226 44.2256 38.285C44.4707 38.4475 44.7347 38.5287 45.0177 38.5287C45.1919 38.5287 45.3336 38.4987 45.4428 38.4386C45.5564 38.3821 45.6447 38.3027 45.7077 38.2003C45.7751 38.1014 45.8247 37.9884 45.8564 37.8612C45.8881 37.7341 45.9077 37.6017 45.9151 37.464L46.0502 35.5199C46.0656 35.308 46.099 35.1032 46.1503 34.9054C46.2053 34.7076 46.2889 34.5311 46.401 34.3757C46.5168 34.2203 46.6691 34.0967 46.8579 34.0049C47.0503 33.9131 47.2916 33.8672 47.5819 33.8672C48.0463 33.8672 48.4692 33.9837 48.8507 34.2168C49.2366 34.4534 49.5641 34.773 49.8331 35.1756C50.1021 35.5782 50.2943 36.0319 50.4097 36.5369C50.5267 37.049 50.5402 37.5063 50.45 37.9089C50.3643 38.315 50.1821 38.6505 49.9035 38.9154C49.6257 39.1838 49.26 39.3639 48.8063 39.4557L48.3908 38.4545C48.6976 38.4016 48.9436 38.2833 49.1289 38.0996C49.3187 37.9195 49.4432 37.6935 49.5025 37.4216C49.5654 37.1497 49.5604 36.8512 49.4875 36.5264C49.4179 36.2156 49.3009 35.9348 49.1366 35.6841C48.9723 35.4334 48.7783 35.2338 48.5547 35.0855C48.3347 34.9372 48.1032 34.863 47.8601 34.863C47.6206 34.863 47.4423 34.9301 47.3252 35.0643C47.2117 35.1985 47.1343 35.3627 47.093 35.557C47.0561 35.7547 47.0326 35.9472 47.0223 36.1344L46.9343 37.5858C46.9263 37.7518 46.9059 37.9425 46.8732 38.1579C46.8414 38.3768 46.7734 38.5887 46.6693 38.7936C46.5688 38.9984 46.4092 39.1679 46.1905 39.3021C45.9754 39.4363 45.6792 39.5034 45.3018 39.5034C44.9245 39.5034 44.5714 39.4292 44.2426 39.2809C43.9146 39.1361 43.62 38.933 43.3589 38.6717C43.1014 38.4104 42.881 38.1067 42.6979 37.7606C42.5111 37.4145 42.3711 37.0437 42.2779 36.6482ZM43.3759 40.6145H51.2128L51.767 42.9665C51.7853 43.0442 51.8156 43.1802 51.8577 43.3744C51.8998 43.5686 51.929 43.754 51.9452 43.9306C52.0044 44.5203 51.8992 45.013 51.6296 45.4085C51.3644 45.8076 50.978 46.1077 50.4703 46.309C49.9626 46.5103 49.375 46.611 48.7074 46.611C48.0398 46.611 47.4048 46.5103 46.8022 46.309C46.1997 46.1077 45.6699 45.8076 45.2131 45.4085C44.7607 45.013 44.4251 44.5203 44.2063 43.9306C44.1429 43.754 44.0843 43.5668 44.0304 43.3691C43.981 43.1749 43.9476 43.0407 43.9301 42.9665L43.3759 40.6145ZM44.5295 41.5839L44.8553 42.9665C44.8869 43.1007 44.9259 43.2508 44.9723 43.4168C45.0223 43.5827 45.0728 43.7275 45.1236 43.8511C45.3017 44.2678 45.5607 44.6051 45.9009 44.8629C46.241 45.1207 46.6338 45.3096 47.0793 45.4297C47.5249 45.5498 47.9889 45.6098 48.4715 45.6098C48.9649 45.6098 49.4057 45.548 49.7938 45.4244C50.1828 45.3043 50.4847 45.1154 50.6997 44.8576C50.9147 44.5998 51.0116 44.2643 50.9904 43.8511C50.9867 43.7275 50.9685 43.581 50.9358 43.4115C50.9031 43.242 50.8718 43.0936 50.8418 42.9665L50.516 41.5839H44.5295Z" fill="white"/>
<g clip-path="url(#clip1_6901_7890)">
<path d="M207.143 47.3928C207.979 47.21 208.756 47.2197 209.476 47.4219C210.198 47.6342 210.8 47.9997 211.283 48.5183C211.778 49.0448 212.105 49.6715 212.264 50.3984C212.407 51.0546 212.401 51.6537 212.246 52.1956C212.102 52.7453 211.871 53.2086 211.553 53.5851L212.761 53.3207L213.142 55.0623L204.82 56.8831L204.439 55.1415L205.677 54.8705C205.22 54.6637 204.806 54.3365 204.434 53.8889C204.061 53.4414 203.805 52.8945 203.663 52.2484C203.506 51.5315 203.544 50.8356 203.776 50.1607C204.019 49.4835 204.428 48.8965 205.006 48.4C205.595 47.9114 206.307 47.5757 207.143 47.3928ZM208.607 54.2295C209.181 54.1039 209.653 53.8737 210.023 53.5389C210.395 53.2142 210.65 52.8357 210.788 52.4035C210.925 51.9714 210.945 51.5332 210.848 51.089C210.751 50.6448 210.55 50.255 210.244 49.9198C209.949 49.5824 209.563 49.3387 209.087 49.189C208.624 49.0471 208.105 49.039 207.531 49.1646C206.957 49.2901 206.479 49.5164 206.097 49.8433C205.717 50.1803 205.453 50.566 205.305 51.0004C205.17 51.4426 205.15 51.8808 205.245 52.315C205.342 52.7592 205.543 53.149 205.848 53.4841C206.154 53.8193 206.543 54.0567 207.017 54.1965C207.503 54.344 208.033 54.355 208.607 54.2295Z" fill="#9400D3"/>
<path d="M212.807 59.3213C213.285 59.4812 213.686 59.7428 214.008 60.1061C214.342 60.4772 214.572 60.9506 214.698 61.5261L212.916 61.916L212.82 61.4769C212.672 60.8005 212.388 60.3229 211.968 60.0445C211.551 59.776 210.919 59.7344 210.074 59.9194L205.694 60.8778L205.316 59.1513L213.638 57.3305L214.016 59.0569L212.807 59.3213Z" fill="#9400D3"/>
<path d="M213.946 65.4625L209.339 66.4704C209.027 66.5387 208.816 66.6589 208.706 66.8311C208.608 67.0112 208.598 67.2779 208.675 67.6312L208.907 68.6914L207.472 69.0053L207.174 67.6424C207.004 66.8651 207.055 66.2297 207.327 65.7365C207.599 65.2432 208.142 64.9073 208.958 64.7288L213.565 63.7209L213.349 62.7366L214.754 62.4293L214.969 63.4136L217.039 62.9609L217.42 64.7024L215.35 65.1552L215.794 67.1845L214.39 67.4918L213.946 65.4625Z" fill="#9400D3"/>
<path d="M217.223 73.0633C217.362 73.6993 217.35 74.2945 217.186 74.8487C217.025 75.413 216.708 75.8948 216.237 76.2944C215.767 76.7039 215.155 76.9913 214.399 77.1565L209.491 78.2305L209.116 76.5192L213.768 75.5014C214.513 75.3384 215.041 75.0271 215.352 74.5677C215.673 74.106 215.763 73.5521 215.622 72.9059C215.48 72.2598 215.166 71.789 214.68 71.4934C214.205 71.2057 213.595 71.1435 212.85 71.3065L208.198 72.3243L207.821 70.5978L218.998 68.1523L219.375 69.8788L215.554 70.7148C215.97 70.9305 216.323 71.2395 216.612 71.6419C216.902 72.0544 217.106 72.5283 217.223 73.0633Z" fill="#9400D3"/>
<path d="M214.045 78.9358C214.881 78.7529 215.658 78.7626 216.378 78.9649C217.1 79.1772 217.702 79.5428 218.185 80.0613C218.68 80.5877 219.007 81.2144 219.166 81.9414C219.309 82.5976 219.303 83.1967 219.147 83.7386C219.004 84.2884 218.773 84.7516 218.454 85.1278L219.663 84.8634L220.044 86.6054L211.722 88.4262L211.34 86.6844L212.579 86.4134C212.122 86.2066 211.708 85.8792 211.336 85.432C210.963 84.9844 210.707 84.4374 210.565 83.7915C210.408 83.0746 210.446 82.3786 210.678 81.7036C210.92 81.0265 211.33 80.4395 211.907 79.943C212.497 79.4544 213.209 79.1186 214.045 78.9358ZM215.509 85.7723C216.083 85.6467 216.555 85.4166 216.925 85.082C217.297 84.7571 217.552 84.3786 217.689 83.9466C217.827 83.5146 217.847 83.0764 217.75 82.632C217.653 82.1878 217.452 81.798 217.146 81.4629C216.851 81.1254 216.465 80.8818 215.989 80.7321C215.525 80.5902 215.007 80.5821 214.433 80.7077C213.859 80.8332 213.381 81.0595 212.998 81.3864C212.618 81.7234 212.355 82.1091 212.207 82.5435C212.072 82.9857 212.051 83.424 212.146 83.8581C212.244 84.3023 212.445 84.6921 212.75 85.0272C213.056 85.3623 213.445 85.5999 213.919 85.7396C214.405 85.887 214.935 85.8979 215.509 85.7723Z" fill="#9400D3"/>
<path d="M210.401 88.714L201.514 48.0934L201.691 48.0547L210.578 88.6753L210.401 88.714Z" fill="white"/>
<path d="M203.634 88.5033C203.563 88.1792 203.557 87.8749 203.615 87.5905C203.679 87.3099 203.794 87.073 203.961 86.8798C204.133 86.6854 204.342 86.556 204.589 86.4915L204.782 87.3742C204.611 87.4273 204.482 87.5418 204.395 87.7176C204.314 87.8973 204.299 88.1018 204.349 88.3312C204.401 88.5706 204.487 88.7453 204.605 88.8553C204.729 88.9692 204.864 89.0104 205.008 88.9787C205.163 88.9449 205.261 88.845 205.303 88.679C205.346 88.5181 205.378 88.2682 205.398 87.9294C205.415 87.6016 205.442 87.3318 205.479 87.1198C205.517 86.9079 205.602 86.7116 205.735 86.531C205.869 86.3553 206.07 86.238 206.34 86.1791C206.559 86.1311 206.773 86.1523 206.98 86.2427C207.193 86.332 207.378 86.4848 207.535 86.7013C207.694 86.9228 207.807 87.1906 207.876 87.5047C207.978 87.9735 207.941 88.3762 207.764 88.7129C207.593 89.0534 207.305 89.2784 206.9 89.3878L206.714 88.535C206.895 88.4797 207.026 88.3727 207.106 88.214C207.186 88.0554 207.201 87.8613 207.151 87.6319C207.102 87.4075 207.022 87.2447 206.911 87.1436C206.8 87.0425 206.675 87.0072 206.535 87.0377C206.426 87.0617 206.342 87.1218 206.285 87.218C206.227 87.3141 206.189 87.4245 206.169 87.549C206.154 87.6724 206.139 87.8534 206.123 88.092C206.109 88.4087 206.08 88.6711 206.037 88.8791C205.999 89.0911 205.916 89.2843 205.787 89.4589C205.658 89.6334 205.462 89.7521 205.199 89.8149C204.965 89.8662 204.741 89.8472 204.528 89.7579C204.315 89.6686 204.13 89.5157 203.973 89.2993C203.817 89.0878 203.704 88.8225 203.634 88.5033Z" fill="white"/>
<path d="M204.282 81.1819C204.696 81.0913 205.081 81.0959 205.438 81.1957C205.795 81.3004 206.093 81.4807 206.332 81.7368C206.577 81.9967 206.739 82.3087 206.819 82.6728C206.878 82.9421 206.876 83.2195 206.813 83.505C206.756 83.7944 206.647 84.0377 206.487 84.2348L208.476 83.7995L208.665 84.6597L203.129 85.8708L202.941 85.0106L203.562 84.8747C203.332 84.7787 203.125 84.6203 202.94 84.3993C202.757 84.1833 202.631 83.9157 202.561 83.5965C202.482 83.2375 202.5 82.8887 202.614 82.5502C202.734 82.2156 202.937 81.9256 203.223 81.6801C203.515 81.4385 203.868 81.2725 204.282 81.1819ZM205.006 84.5589C205.29 84.4967 205.524 84.3828 205.707 84.2173C205.891 84.0568 206.017 83.8698 206.086 83.6563C206.154 83.4427 206.164 83.2263 206.116 83.0069C206.068 82.7874 205.968 82.595 205.817 82.4295C205.671 82.2629 205.48 82.1426 205.245 82.0688C205.015 81.9988 204.758 81.9949 204.474 82.0571C204.19 82.1193 203.953 82.2312 203.763 82.3928C203.575 82.5594 203.444 82.75 203.371 82.9646C203.304 83.1831 203.294 83.3996 203.341 83.614C203.389 83.8335 203.488 84.0259 203.64 84.1914C203.791 84.3569 203.984 84.4741 204.218 84.543C204.459 84.6158 204.721 84.6211 205.006 84.5589Z" fill="white"/>
<path d="M205.347 79.1312C205.583 79.2101 205.781 79.3392 205.941 79.5186C206.106 79.7018 206.22 79.9356 206.282 80.2199L205.4 80.413L205.352 80.1961C205.279 79.8619 205.139 79.6261 204.931 79.4887C204.724 79.3562 204.411 79.3358 203.993 79.4275L201.823 79.9021L201.637 79.0493L205.758 78.1475L205.945 79.0003L205.347 79.1312Z" fill="white"/>
<path d="M202.545 73.2428C202.959 73.1522 203.344 73.1568 203.7 73.2565C204.057 73.3612 204.356 73.5416 204.594 73.7977C204.839 74.0576 205.001 74.3671 205.08 74.7262C205.151 75.0503 205.148 75.3463 205.07 75.614C204.999 75.8857 204.885 76.1145 204.727 76.3006L205.325 76.1697L205.513 77.0299L201.392 77.9317L201.203 77.0714L201.817 76.9372C201.591 76.8352 201.386 76.6737 201.201 76.4527C201.017 76.2317 200.89 75.9616 200.82 75.6424C200.743 75.2884 200.762 74.9446 200.877 74.6111C200.997 74.2765 201.2 73.9864 201.486 73.741C201.778 73.4994 202.131 73.3333 202.545 73.2428ZM203.268 76.6197C203.552 76.5575 203.786 76.4437 203.969 76.2782C204.154 76.1177 204.28 75.9306 204.348 75.7171C204.416 75.5036 204.427 75.2872 204.379 75.0677C204.331 74.8483 204.231 74.6558 204.08 74.4903C203.934 74.3237 203.743 74.2035 203.507 74.1297C203.277 74.0597 203.021 74.0558 202.736 74.118C202.452 74.1802 202.215 74.2921 202.026 74.4537C201.838 74.6203 201.707 74.8109 201.634 75.0255C201.567 75.244 201.556 75.4605 201.603 75.6749C201.651 75.8943 201.751 76.0868 201.902 76.2523C202.053 76.4178 202.246 76.535 202.481 76.6039C202.721 76.6766 202.984 76.6819 203.268 76.6197Z" fill="white"/>
<path d="M201.81 67.3388C202.319 67.2275 202.801 67.2449 203.256 67.3909C203.712 67.5419 204.097 67.7948 204.41 68.1497C204.729 68.5084 204.941 68.9296 205.047 69.4134C205.168 69.9669 205.138 70.4882 204.958 70.977C204.783 71.4698 204.468 71.868 204.012 72.1716L203.788 71.1468C204.033 70.9521 204.196 70.7204 204.278 70.4516C204.361 70.1827 204.368 69.8912 204.299 69.577C204.224 69.2329 204.079 68.9432 203.866 68.7077C203.652 68.4722 203.384 68.3088 203.061 68.2175C202.739 68.1312 202.386 68.13 202.002 68.214C201.618 68.298 201.298 68.4465 201.041 68.6594C200.786 68.8773 200.608 69.1383 200.507 69.4425C200.411 69.7456 200.401 70.0693 200.476 70.4134C200.545 70.7275 200.673 70.9896 200.86 71.1995C201.047 71.4094 201.292 71.5517 201.596 71.6263L201.82 72.6512C201.279 72.5658 200.826 72.3356 200.462 71.9607C200.099 71.5907 199.857 71.1289 199.736 70.5754C199.629 70.0867 199.643 69.6158 199.779 69.1627C199.92 68.7086 200.167 68.3176 200.518 67.9899C200.871 67.6671 201.302 67.4501 201.81 67.3388Z" fill="white"/>
</g>
<rect x="209.693" y="25.1211" width="19.2678" height="19.2675" rx="1" transform="rotate(77.6587 209.693 25.1211)" fill="#9400D3"/>
<path d="M199.126 39.0981C200.547 40.6331 202.312 41.0355 202.957 41.1467C203.288 41.2037 203.541 41.2216 203.81 41.2406C204.164 41.2655 204.499 41.2719 204.815 41.2659L205.754 41.0606C207.099 40.7662 208.055 40.1252 208.623 39.139C209.189 38.1514 209.294 36.8347 208.934 35.1895C208.684 34.0466 208.262 33.1142 207.67 32.3898C207.989 33.0023 208.559 34.2523 208.345 35.7714C208.277 36.2543 208.176 36.976 207.621 37.5969C207.25 38.0129 206.824 38.2169 206.418 38.4112C206.103 38.5621 205.803 38.6704 205.529 38.7491C205.514 38.7553 205.5 38.7613 205.487 38.7666C204.971 38.9135 204.434 39.0544 203.878 39.1866C202.834 39.4348 201.835 39.6259 200.89 39.7724C200.491 39.6623 199.859 39.4279 199.251 38.9041C199.046 38.7278 198.86 38.5307 198.691 38.3128C198.304 37.8154 198.019 37.3254 197.833 36.843C197.898 37.1001 197.987 37.3513 198.099 37.5919C198.432 38.3056 198.819 38.7674 199.126 39.0981Z" fill="url(#paint1_linear_6901_7890)"/>
<path d="M207.638 37.6284C208.196 37.0062 208.299 36.2836 208.368 35.8002C208.584 34.2793 208.012 33.0285 207.693 32.4156C207.508 32.1906 207.308 31.985 207.09 31.8003C206.474 31.277 205.88 31.0638 205.727 31.0093C204.705 30.6447 203.77 30.7515 203.246 30.8667C203.019 30.9168 202.834 30.976 202.708 31.0208C202.829 31.0966 202.998 31.2154 203.177 31.3868C203.497 31.6929 203.678 32.0057 203.833 32.3119C204.283 33.1993 204.607 34.2073 204.716 34.5587C204.771 34.6987 204.851 34.863 204.971 35.0318C205.26 35.4379 205.623 35.6527 205.839 35.7575C205.476 35.2831 205.305 34.6716 205.361 34.0772C205.375 33.9225 205.425 33.7433 205.571 33.6892C205.675 33.6511 205.789 33.6912 205.889 33.7379C205.903 33.7449 205.917 33.7529 205.932 33.7602C205.953 33.7754 205.973 33.7902 205.993 33.806C206.632 34.3105 206.834 35.1322 206.931 35.661C207.033 36.223 207.18 37.0303 206.705 37.8049C206.346 38.3896 205.809 38.6673 205.534 38.7837C205.809 38.7047 206.111 38.5959 206.428 38.4445C206.836 38.2498 207.264 38.0451 207.638 37.6284Z" fill="url(#paint2_linear_6901_7890)"/>
<path d="M198.258 32.6424C199.106 32.6937 199.874 33.2114 200.401 33.8777C200.714 34.2732 200.953 34.7179 201.153 35.1823C201.337 35.5424 201.479 35.9339 201.632 36.2697C202.197 37.5074 202.507 38.0286 203.007 38.4439C203.218 38.6192 203.454 38.7686 203.762 38.8397C204.264 38.9557 204.694 38.8032 204.889 38.7187C204.713 38.5529 204.535 38.3033 204.355 37.9679C203.959 37.2311 203.57 36.3547 203.192 35.3401C202.624 33.8175 201.921 32.7545 201.084 32.1545C199.879 31.2906 198.078 31.2822 196.874 32.1582C196.308 32.5707 195.934 33.1205 195.713 33.7338C195.998 33.457 196.32 33.2194 196.671 33.0326C197.158 32.7731 197.707 32.6091 198.258 32.6424Z" fill="url(#paint3_linear_6901_7890)"/>
<path d="M198.121 42.9537C198.289 42.841 198.53 42.7596 199.005 42.6013C199.266 42.5143 199.484 42.4489 199.635 42.4054L204.837 41.2672C204.523 41.2732 204.189 41.2666 203.837 41.2417C203.569 41.2227 203.317 41.2048 202.988 41.1479C202.346 41.037 200.589 40.6355 199.174 39.1058C198.869 38.7763 198.483 38.3161 198.152 37.6048C198.041 37.3651 197.952 37.1148 197.887 36.8585C197.81 36.6591 197.75 36.461 197.707 36.2642C197.515 35.3879 197.715 34.466 198.568 34.0179C199.198 33.6874 200.057 33.7817 200.6 34.2462C200.839 34.4505 201.019 34.7256 201.17 35.022C200.971 34.5593 200.733 34.1161 200.422 33.7221C199.897 33.0581 199.133 32.5421 198.29 32.4907C197.742 32.4573 197.196 32.6205 196.712 32.8788C196.364 33.0647 196.043 33.3012 195.761 33.5769C195.434 34.4841 195.442 35.5313 195.649 36.48C195.829 37.2996 196.148 38.0501 196.61 38.7311C197.069 39.4107 197.654 39.9473 198.364 40.3394C198.133 40.4505 197.641 40.729 197.331 41.2996C196.688 42.4793 197.45 43.7513 197.488 43.8127C197.678 43.3029 197.955 43.065 198.121 42.9537Z" fill="url(#paint4_linear_6901_7890)"/>
</g>
<g clip-path="url(#clip2_6901_7890)">
<rect width="230.39" height="322.002" rx="21.7692" transform="matrix(1 0 -0.22937 0.973339 139.858 79.0195)" fill="url(#paint5_radial_6901_7890)"/>
<path d="M100.541 338.67L101.454 334.795L115.924 340.761L115.011 344.635L100.541 338.67Z" fill="white"/>
<path d="M117.262 335.079L107.788 328.946L110.12 329.034L117.203 329.329C117.203 329.329 118.58 329.485 118.976 327.805L120.416 321.697L120.179 321.565C119.479 322.91 118.577 324.14 117.502 325.213L103.643 325.503L102.691 329.54L116.28 339.248L117.262 335.079Z" fill="white"/>
<path d="M95.0381 362.016L94.1992 365.575L109.971 366.018L110.706 362.9C110.824 362.53 110.82 362.131 110.693 361.762C110.567 361.393 110.326 361.073 110.004 360.848L97.4486 351.786L96.4962 355.828L98.5417 357.151L97.3782 362.088L95.0381 362.016ZM101.362 359.005L106.515 362.371L100.613 362.186L101.362 359.005Z" fill="white"/>
<path d="M108.802 354.782L111.89 356.094C112.563 355.071 113.065 353.948 113.379 352.767C113.832 350.844 114.06 346.077 109.927 345.103C106.04 344.187 104.729 349.535 102.689 349.054C100.649 348.573 102.148 343.854 103.794 342.565L100.57 341.196C99.655 342.443 99.013 343.866 98.6846 345.374C98.0615 348.018 98.5055 352.334 102.272 353.222C106.183 354.143 107.823 348.822 109.521 349.223C111.219 349.623 110.117 353.343 108.802 354.782Z" fill="white"/>
<path d="M110.116 329.033L117.203 329.329C117.203 329.329 118.58 329.485 118.976 327.805L120.416 321.697L120.179 321.565C119.141 323.541 117.684 325.269 115.906 326.631C114.227 327.927 112.229 328.755 110.116 329.033V329.033Z" fill="#FFA458"/>
<path d="M150.908 109.395C151.07 108.707 151.36 108.099 151.776 107.572C152.192 107.045 152.698 106.63 153.294 106.33C153.893 106.033 154.548 105.885 155.259 105.885H161.063L160.807 106.997H155.092C154.661 106.997 154.268 107.067 153.913 107.207C153.561 107.351 153.252 107.541 152.985 107.776C152.718 108.011 152.499 108.268 152.327 108.548C152.158 108.833 152.041 109.115 151.975 109.395C151.908 109.679 151.894 109.964 151.933 110.248C151.972 110.532 152.068 110.79 152.221 111.02C152.377 111.255 152.599 111.443 152.888 111.583C153.177 111.723 153.535 111.793 153.962 111.793H159.677L159.415 112.905H153.605C152.898 112.905 152.316 112.755 151.857 112.454C151.398 112.158 151.085 111.745 150.917 111.218C150.749 110.691 150.746 110.083 150.908 109.395ZM148.901 117.914C149.049 117.284 149.293 116.715 149.633 116.208C149.971 115.706 150.383 115.29 150.867 114.96C151.354 114.634 151.889 114.422 152.471 114.323L152.387 115.461C151.777 115.605 151.256 115.903 150.823 116.357C150.394 116.814 150.106 117.352 149.961 117.97C149.867 118.369 149.845 118.73 149.896 119.051C149.951 119.377 150.076 119.634 150.273 119.824C150.47 120.013 150.733 120.108 151.063 120.108C151.266 120.108 151.448 120.073 151.609 120.003C151.772 119.937 151.919 119.844 152.049 119.725C152.182 119.609 152.302 119.478 152.409 119.329C152.516 119.181 152.611 119.026 152.696 118.866L153.922 116.598C154.057 116.35 154.208 116.112 154.377 115.881C154.55 115.65 154.744 115.444 154.961 115.263C155.181 115.082 155.427 114.937 155.697 114.83C155.972 114.723 156.279 114.67 156.618 114.67C157.16 114.67 157.589 114.805 157.906 115.077C158.226 115.353 158.432 115.726 158.525 116.196C158.617 116.666 158.592 117.195 158.449 117.784C158.304 118.382 158.068 118.915 157.742 119.385C157.418 119.859 157.021 120.25 156.551 120.559C156.079 120.872 155.553 121.082 154.973 121.189L155.039 120.021C155.426 119.96 155.778 119.822 156.096 119.607C156.416 119.397 156.686 119.134 156.904 118.816C157.127 118.499 157.285 118.151 157.379 117.772C157.469 117.409 157.486 117.082 157.433 116.789C157.379 116.497 157.262 116.264 157.083 116.091C156.908 115.918 156.678 115.831 156.395 115.831C156.116 115.831 155.871 115.91 155.66 116.066C155.454 116.223 155.273 116.414 155.118 116.641C154.967 116.872 154.833 117.096 154.718 117.315L153.818 119.008C153.717 119.202 153.588 119.424 153.432 119.675C153.274 119.931 153.078 120.178 152.844 120.417C152.615 120.656 152.335 120.854 152.006 121.01C151.681 121.167 151.299 121.245 150.859 121.245C150.418 121.245 150.047 121.159 149.745 120.986C149.442 120.817 149.21 120.58 149.049 120.275C148.892 119.97 148.802 119.616 148.779 119.212C148.751 118.808 148.792 118.375 148.901 117.914ZM147.884 123.036H157.027L156.381 125.78C156.359 125.87 156.32 126.029 156.262 126.256C156.205 126.482 156.137 126.699 156.059 126.905C155.803 127.593 155.41 128.167 154.878 128.629C154.349 129.094 153.733 129.445 153.03 129.679C152.327 129.914 151.586 130.032 150.807 130.032C150.028 130.032 149.343 129.914 148.751 129.679C148.158 129.445 147.705 129.094 147.392 128.629C147.081 128.167 146.961 127.593 147.03 126.905C147.053 126.699 147.087 126.48 147.133 126.249C147.182 126.023 147.217 125.866 147.238 125.78L147.884 123.036ZM148.697 124.167L148.317 125.78C148.28 125.936 148.243 126.111 148.206 126.305C148.173 126.499 148.152 126.668 148.144 126.812C148.122 127.298 148.239 127.692 148.494 127.992C148.749 128.293 149.104 128.513 149.557 128.654C150.011 128.794 150.519 128.864 151.082 128.864C151.658 128.864 152.206 128.792 152.727 128.647C153.247 128.507 153.703 128.287 154.096 127.986C154.488 127.685 154.786 127.294 154.988 126.812C155.052 126.668 155.111 126.497 155.166 126.299C155.221 126.101 155.266 125.928 155.301 125.78L155.681 124.167H148.697Z" fill="white"/>
<path d="M167.987 109.488C168.196 108.602 168.573 107.854 169.119 107.244C169.669 106.635 170.339 106.173 171.128 105.86C171.917 105.547 172.779 105.39 173.715 105.39C174.65 105.39 175.439 105.547 176.08 105.86C176.722 106.173 177.172 106.635 177.43 107.244C177.693 107.854 177.72 108.602 177.511 109.488C177.267 110.522 176.795 111.366 176.095 112.022C175.399 112.677 174.565 113.126 173.593 113.369L173.564 112.442C174.333 112.252 174.986 111.912 175.525 111.422C176.064 110.932 176.427 110.287 176.616 109.488C176.78 108.791 176.753 108.213 176.536 107.751C176.319 107.29 175.946 106.942 175.417 106.707C174.892 106.476 174.249 106.356 173.489 106.348C172.728 106.344 172.03 106.457 171.396 106.688C170.761 106.923 170.223 107.273 169.783 107.739C169.347 108.208 169.046 108.791 168.882 109.488C168.694 110.287 168.754 110.932 169.061 111.422C169.373 111.912 169.867 112.252 170.542 112.442L170.076 113.369C169.219 113.126 168.594 112.677 168.203 112.022C167.815 111.366 167.743 110.522 167.987 109.488ZM166.052 117.779C166.146 117.379 166.292 117.029 166.49 116.729C166.687 116.432 166.918 116.179 167.184 115.968C167.448 115.762 167.733 115.596 168.038 115.468C168.348 115.34 168.664 115.247 168.986 115.19C169.313 115.132 169.631 115.103 169.94 115.103H173.712L173.496 116.018H169.997C169.621 116.018 169.263 116.053 168.925 116.123C168.587 116.193 168.279 116.304 168.002 116.457C167.728 116.613 167.497 116.813 167.308 117.056C167.119 117.303 166.983 117.602 166.9 117.952C166.825 118.274 166.815 118.556 166.872 118.799C166.928 119.046 167.043 119.252 167.216 119.417C167.392 119.586 167.622 119.713 167.906 119.8C168.195 119.887 168.532 119.93 168.917 119.93L168.619 120.573C167.917 120.573 167.354 120.453 166.932 120.214C166.51 119.975 166.226 119.646 166.08 119.225C165.933 118.805 165.924 118.323 166.052 117.779ZM165.695 120.023H167.384L167.406 119.93H172.574L172.36 120.838H165.503L165.695 120.023ZM164.979 123.06H171.836L171.644 123.876H169.993L170.247 123.715C170.433 123.789 170.596 123.886 170.737 124.006C170.883 124.125 170.994 124.255 171.071 124.395C171.187 124.568 171.258 124.77 171.284 125.001C171.314 125.231 171.308 125.464 171.265 125.699C171.227 125.934 171.16 126.148 171.063 126.342H170.187C170.308 126.099 170.385 125.833 170.419 125.544C170.453 125.256 170.397 124.99 170.252 124.747C170.126 124.525 169.952 124.358 169.728 124.247C169.509 124.135 169.264 124.061 168.993 124.024C168.727 123.987 168.458 123.968 168.187 123.968H164.765L164.979 123.06ZM163.813 128.008H170.67L170.478 128.824H168.827L169.081 128.663C169.267 128.738 169.43 128.834 169.571 128.954C169.717 129.073 169.828 129.203 169.905 129.343C170.021 129.516 170.092 129.718 170.118 129.949C170.148 130.18 170.142 130.412 170.099 130.647C170.061 130.882 169.993 131.096 169.897 131.29H169.021C169.142 131.047 169.219 130.781 169.253 130.493C169.287 130.204 169.231 129.939 169.085 129.696C168.96 129.473 168.786 129.306 168.562 129.195C168.343 129.084 168.098 129.01 167.827 128.972C167.561 128.935 167.292 128.917 167.021 128.917H163.599L163.813 128.008ZM161.819 135.66C161.973 135.009 162.254 134.445 162.663 133.967C163.071 133.493 163.575 133.124 164.174 132.861C164.774 132.597 165.436 132.465 166.16 132.465C166.909 132.465 167.526 132.595 168.011 132.855C168.496 133.114 168.831 133.479 169.017 133.948C169.201 134.422 169.218 134.981 169.066 135.623C168.911 136.282 168.622 136.845 168.199 137.31C167.78 137.776 167.253 138.128 166.617 138.367C165.98 138.606 165.263 138.715 164.463 138.695L164.682 137.768H165.012C165.905 137.751 166.62 137.564 167.157 137.205C167.693 136.851 168.042 136.332 168.203 135.648C168.372 134.931 168.263 134.381 167.875 133.998C167.486 133.619 166.849 133.429 165.964 133.429C165.101 133.429 164.385 133.619 163.818 133.998C163.253 134.381 162.888 134.923 162.723 135.623C162.611 136.101 162.625 136.517 162.766 136.872C162.91 137.23 163.171 137.512 163.55 137.718L163.014 138.565C162.48 138.301 162.108 137.912 161.899 137.397C161.694 136.886 161.667 136.307 161.819 135.66ZM165.78 133.108H166.561L165.359 138.207H164.578L165.78 133.108ZM159.762 145.2H163.26C163.641 145.2 163.999 145.165 164.333 145.095C164.671 145.025 164.977 144.912 165.251 144.755C165.528 144.603 165.761 144.403 165.951 144.156C166.139 143.913 166.275 143.616 166.357 143.266C166.433 142.944 166.443 142.66 166.387 142.413C166.33 142.17 166.213 141.964 166.037 141.795C165.865 141.63 165.636 141.504 165.352 141.418C165.067 141.331 164.73 141.288 164.341 141.288L164.638 140.645C165.341 140.645 165.903 140.765 166.325 141.004C166.747 141.243 167.032 141.572 167.178 141.993C167.325 142.413 167.334 142.895 167.206 143.439C167.111 143.838 166.966 144.187 166.769 144.483C166.571 144.784 166.34 145.037 166.076 145.243C165.81 145.453 165.523 145.622 165.213 145.75C164.908 145.878 164.592 145.971 164.265 146.028C163.943 146.086 163.627 146.115 163.318 146.115H159.546L159.762 145.2ZM160.899 140.373H167.757L167.563 141.195H165.874L165.852 141.288H160.684L160.899 140.373ZM158.217 150.945C158.376 150.274 158.664 149.705 159.083 149.24C159.502 148.774 160.011 148.42 160.61 148.177C161.212 147.938 161.868 147.814 162.576 147.806C163.294 147.814 163.895 147.942 164.378 148.189C164.866 148.436 165.205 148.793 165.396 149.258C165.591 149.724 165.611 150.288 165.454 150.951C165.295 151.627 164.987 152.214 164.531 152.713C164.074 153.215 163.53 153.559 162.898 153.745L162.815 152.855C163.263 152.698 163.639 152.449 163.944 152.107C164.252 151.769 164.458 151.382 164.56 150.945C164.676 150.455 164.655 150.049 164.498 149.728C164.345 149.406 164.082 149.168 163.708 149.011C163.335 148.854 162.882 148.774 162.349 148.77C161.526 148.778 160.822 148.964 160.237 149.326C159.656 149.689 159.282 150.228 159.113 150.945C159.006 151.399 159.021 151.784 159.158 152.101C159.298 152.422 159.554 152.665 159.926 152.83L159.431 153.745C158.879 153.498 158.499 153.135 158.29 152.657C158.085 152.179 158.061 151.609 158.217 150.945ZM154.116 156.225L157.412 157.517L156.341 157.535L164.401 154.612L164.174 155.576L157.444 157.974L157.537 157.579L163.181 159.791L162.962 160.718L153.902 157.134L154.116 156.225Z" fill="white"/>
<path d="M250.8 105.72H252.464L251.7 108.96H240.036L240.458 107.169H250.458L250.8 105.72ZM241.71 112.38C242.361 113.376 242.901 114.16 243.332 114.731C243.771 115.313 244.255 115.795 244.783 116.18C245.311 116.564 245.884 116.756 246.503 116.756C247.143 116.756 247.68 116.605 248.114 116.304C248.545 116.013 248.835 115.551 248.984 114.918C249.129 114.306 249.038 113.828 248.714 113.485C248.397 113.153 247.906 112.977 247.239 112.956L247.642 111.243C248.851 111.274 249.696 111.627 250.177 112.302C250.666 112.987 250.787 113.854 250.54 114.903C250.273 116.034 249.745 116.917 248.956 117.55C248.164 118.194 247.235 118.516 246.168 118.516C245.4 118.516 244.704 118.324 244.08 117.939C243.464 117.566 242.936 117.114 242.496 116.585C242.063 116.065 241.574 115.401 241.029 114.591L240.554 113.89L239.391 118.827H237.871L239.655 111.258H240.983L241.71 112.38ZM246.135 120.356C247.112 120.418 247.799 120.786 248.194 121.461C248.587 122.147 248.659 123.019 248.41 124.078C248.238 124.804 247.957 125.433 247.566 125.962C247.174 126.492 246.717 126.891 246.195 127.161C245.673 127.431 245.124 127.566 244.548 127.566C243.886 127.566 243.361 127.395 242.973 127.052C242.584 126.71 242.366 126.299 242.319 125.822H242.255C241.918 126.434 241.454 126.912 240.861 127.255C240.279 127.597 239.593 127.769 238.804 127.769C238.175 127.769 237.648 127.628 237.223 127.348C236.798 127.068 236.507 126.652 236.349 126.102C236.201 125.552 236.218 124.893 236.399 124.124C236.663 123.003 237.174 122.079 237.932 121.352C238.698 120.636 239.642 120.252 240.764 120.2L240.36 121.913C239.785 121.954 239.271 122.167 238.817 122.551C238.375 122.936 238.077 123.455 237.922 124.109C237.773 124.742 237.834 125.23 238.105 125.573C238.387 125.915 238.811 126.087 239.376 126.087C240.123 126.087 240.706 125.853 241.125 125.386C241.553 124.929 241.879 124.223 242.105 123.268L242.2 122.863H243.704L243.605 123.283C243.417 124.124 243.411 124.763 243.586 125.199C243.758 125.645 244.142 125.869 244.74 125.869C245.252 125.869 245.695 125.708 246.069 125.386C246.455 125.064 246.717 124.607 246.856 124.015C246.993 123.434 246.945 122.982 246.712 122.66C246.489 122.339 246.161 122.147 245.727 122.084L246.135 120.356ZM237.648 129.415H239.024L245.503 134.648L244.996 136.797H237.492L237.151 138.246H235.567L235.908 136.797H233.476L233.887 135.053H236.319L237.648 129.415ZM243.533 135.131L238.751 131.456L237.885 135.131H243.533ZM240.206 151.082L241.436 145.864H238.252C238.499 146.083 238.674 146.404 238.776 146.83C238.876 147.266 238.868 147.728 238.753 148.216C238.548 149.088 238.19 149.794 237.678 150.334C237.165 150.884 236.588 151.274 235.947 151.502C235.304 151.741 234.657 151.86 234.007 151.86C233.217 151.86 232.549 151.71 232.001 151.409C231.462 151.118 231.086 150.677 230.873 150.085C230.658 149.503 230.651 148.787 230.852 147.936C231.118 146.804 231.62 145.896 232.358 145.21C233.095 144.525 233.955 144.115 234.936 143.98L234.528 145.709C234 145.823 233.54 146.077 233.148 146.472C232.768 146.866 232.507 147.36 232.368 147.951C232.194 148.688 232.294 149.239 232.667 149.602C233.037 149.976 233.601 150.163 234.359 150.163C235.127 150.163 235.757 149.976 236.251 149.602C236.755 149.228 237.093 148.678 237.264 147.951C237.384 147.443 237.352 147.012 237.168 146.659C236.993 146.316 236.7 146.067 236.289 145.911L236.685 144.229H243.421L241.806 151.082H240.206ZM237.013 159.813C237.53 159.699 237.947 159.491 238.263 159.19C238.58 158.889 238.801 158.469 238.929 157.929C239.122 157.109 238.941 156.496 238.386 156.091C237.841 155.686 236.825 155.473 235.336 155.453C235.742 155.723 236.012 156.117 236.145 156.636C236.279 157.155 236.275 157.716 236.133 158.318C235.971 159.003 235.675 159.606 235.243 160.125C234.82 160.654 234.286 161.064 233.641 161.355C232.994 161.656 232.271 161.807 231.471 161.807C230.724 161.807 230.092 161.661 229.574 161.371C229.053 161.09 228.688 160.67 228.479 160.109C228.28 159.548 228.274 158.874 228.46 158.085C228.712 157.015 229.15 156.174 229.774 155.562C230.407 154.959 231.195 154.534 232.139 154.285C233.081 154.046 234.213 153.926 235.536 153.926C239.44 153.926 241.076 155.266 240.445 157.944C240.2 158.983 239.72 159.798 239.005 160.389C238.287 160.992 237.494 161.345 236.627 161.448L237.013 159.813ZM234.689 157.929C234.838 157.295 234.768 156.756 234.478 156.309C234.197 155.873 233.688 155.655 232.952 155.655C232.216 155.655 231.582 155.858 231.049 156.262C230.525 156.678 230.176 157.254 230.002 157.991C229.848 158.645 229.935 159.159 230.263 159.533C230.588 159.917 231.097 160.109 231.791 160.109C232.516 160.109 233.136 159.922 233.651 159.548C234.174 159.185 234.52 158.645 234.689 157.929ZM235.697 170.895L226.461 166.566L226.883 164.775L235.916 169.151L237.274 163.389H238.826L237.057 170.895H235.697ZM230.728 174.33C231.537 173.251 232.539 172.711 233.733 172.711C234.309 172.711 234.804 172.851 235.218 173.131C235.632 173.411 235.912 173.832 236.057 174.393C236.213 174.953 236.195 175.638 236.004 176.448C235.816 177.248 235.512 177.928 235.092 178.488C234.68 179.059 234.201 179.485 233.655 179.765C233.109 180.046 232.548 180.186 231.972 180.186C231.374 180.186 230.882 180.035 230.494 179.734C230.115 179.444 229.86 179.054 229.729 178.566C229.366 179.158 228.888 179.625 228.295 179.968C227.713 180.31 227.081 180.482 226.398 180.482C225.705 180.482 225.132 180.31 224.679 179.968C224.226 179.625 223.928 179.148 223.785 178.535C223.641 177.923 223.661 177.227 223.844 176.448C224.028 175.67 224.336 174.974 224.768 174.361C225.198 173.759 225.72 173.287 226.334 172.944C226.948 172.602 227.602 172.43 228.295 172.43C228.989 172.43 229.546 172.602 229.966 172.944C230.387 173.287 230.641 173.749 230.728 174.33ZM232.148 178.488C232.745 178.488 233.247 178.307 233.652 177.943C234.058 177.58 234.335 177.082 234.484 176.448C234.631 175.825 234.587 175.332 234.353 174.969C234.119 174.605 233.698 174.424 233.09 174.424C232.556 174.424 232.075 174.611 231.645 174.984C231.224 175.369 230.944 175.856 230.804 176.448C230.665 177.04 230.721 177.528 230.971 177.912C231.222 178.296 231.614 178.488 232.148 178.488ZM229.428 176.448C229.59 175.763 229.546 175.202 229.297 174.766C229.056 174.341 228.61 174.128 227.959 174.128C227.351 174.128 226.806 174.335 226.324 174.751C225.853 175.166 225.533 175.732 225.364 176.448C225.198 177.154 225.259 177.71 225.548 178.115C225.834 178.53 226.276 178.738 226.873 178.738C227.513 178.738 228.059 178.525 228.511 178.099C228.961 177.684 229.267 177.134 229.428 176.448ZM224.436 188.603C223.878 188.707 223.42 188.93 223.062 189.272C222.704 189.615 222.457 190.077 222.32 190.658C222.146 191.396 222.318 191.935 222.834 192.278C223.351 192.621 224.329 192.792 225.769 192.792C225.465 192.543 225.266 192.19 225.171 191.733C225.084 191.287 225.103 190.799 225.228 190.269C225.387 189.594 225.67 188.982 226.077 188.431C226.494 187.881 227.018 187.445 227.649 187.123C228.288 186.812 229.007 186.656 229.807 186.656C230.98 186.656 231.835 186.988 232.372 187.653C232.917 188.328 233.051 189.252 232.775 190.425C232.442 191.837 231.721 192.839 230.611 193.43C229.509 194.033 227.96 194.334 225.966 194.334C224.59 194.334 223.491 194.22 222.67 193.991C221.847 193.773 221.276 193.389 220.958 192.839C220.64 192.288 220.595 191.525 220.825 190.549C221.087 189.438 221.588 188.582 222.327 187.98C223.066 187.378 223.898 187.04 224.822 186.968L224.436 188.603ZM226.69 190.581C226.543 191.203 226.626 191.691 226.937 192.044C227.257 192.408 227.747 192.59 228.409 192.59C229.145 192.59 229.761 192.397 230.257 192.013C230.761 191.64 231.09 191.126 231.244 190.472C231.398 189.817 231.307 189.298 230.971 188.914C230.643 188.54 230.138 188.354 229.455 188.354C228.804 188.354 228.223 188.535 227.71 188.899C227.206 189.272 226.866 189.833 226.69 190.581ZM229.515 196.043H231.179L230.416 199.282H218.752L219.174 197.492H229.174L229.515 196.043ZM224.161 201.721C226.006 201.721 227.375 202.022 228.268 202.625C229.169 203.237 229.444 204.286 229.095 205.77C228.745 207.255 227.976 208.299 226.789 208.901C225.61 209.513 224.098 209.82 222.252 209.82C220.386 209.82 218.997 209.513 218.085 208.901C217.181 208.299 216.905 207.255 217.255 205.77C217.604 204.286 218.374 203.237 219.564 202.625C220.762 202.022 222.294 201.721 224.161 201.721ZM222.663 208.075C223.527 208.075 224.272 208.018 224.896 207.904C225.518 207.8 226.054 207.582 226.506 207.25C226.968 206.918 227.276 206.425 227.431 205.77C227.585 205.116 227.509 204.623 227.203 204.291C226.908 203.959 226.475 203.736 225.905 203.621C225.332 203.518 224.614 203.466 223.75 203.466C222.854 203.466 222.09 203.518 221.457 203.621C220.825 203.725 220.283 203.943 219.831 204.275C219.377 204.618 219.073 205.116 218.919 205.77C218.764 206.425 218.835 206.918 219.13 207.25C219.423 207.593 219.861 207.816 220.444 207.92C221.028 208.023 221.767 208.075 222.663 208.075ZM225.881 211.465H227.545L226.781 214.704H215.117L215.539 212.913H225.539L225.881 211.465ZM223.644 220.955H225.308L224.545 224.194H212.881L213.303 222.403H223.303L223.644 220.955ZM214.555 227.614C215.206 228.611 215.746 229.394 216.177 229.966C216.616 230.547 217.1 231.03 217.628 231.414C218.156 231.798 218.729 231.99 219.348 231.99C219.988 231.99 220.525 231.84 220.958 231.538C221.389 231.248 221.68 230.786 221.829 230.152C221.973 229.54 221.883 229.062 221.559 228.72C221.242 228.387 220.75 228.211 220.083 228.19L220.487 226.477C221.696 226.508 222.54 226.861 223.021 227.536C223.511 228.221 223.632 229.088 223.385 230.137C223.118 231.268 222.59 232.151 221.801 232.784C221.009 233.428 220.08 233.75 219.013 233.75C218.245 233.75 217.549 233.558 216.925 233.174C216.309 232.8 215.781 232.348 215.34 231.819C214.908 231.3 214.419 230.635 213.874 229.825L213.399 229.125L212.236 234.061H210.716L212.499 226.493H213.827L214.555 227.614ZM218.98 235.59C219.957 235.652 220.643 236.021 221.039 236.696C221.432 237.381 221.504 238.253 221.254 239.312C221.083 240.039 220.802 240.667 220.41 241.196C220.019 241.726 219.562 242.125 219.04 242.395C218.518 242.665 217.968 242.8 217.392 242.8C216.731 242.8 216.206 242.629 215.818 242.286C215.429 241.944 215.211 241.534 215.163 241.056H215.099C214.763 241.669 214.299 242.146 213.706 242.489C213.124 242.831 212.438 243.003 211.649 243.003C211.019 243.003 210.492 242.863 210.068 242.582C209.643 242.302 209.352 241.887 209.193 241.336C209.046 240.786 209.062 240.127 209.243 239.359C209.508 238.237 210.019 237.313 210.777 236.587C211.543 235.87 212.487 235.486 213.608 235.434L213.205 237.147C212.629 237.189 212.115 237.402 211.662 237.786C211.22 238.17 210.921 238.689 210.767 239.343C210.618 239.976 210.679 240.464 210.95 240.807C211.232 241.15 211.656 241.321 212.221 241.321C212.968 241.321 213.551 241.087 213.97 240.62C214.398 240.163 214.724 239.457 214.949 238.502L215.045 238.097H216.549L216.45 238.518C216.262 239.359 216.256 239.997 216.43 240.433C216.602 240.88 216.987 241.103 217.584 241.103C218.096 241.103 218.54 240.942 218.914 240.62C219.299 240.298 219.562 239.841 219.701 239.25C219.838 238.668 219.79 238.217 219.556 237.895C219.334 237.573 219.006 237.381 218.572 237.318L218.98 235.59ZM210.493 244.65H211.869L218.347 249.882L217.841 252.031H210.337L209.996 253.48H208.412L208.753 252.031H206.321L206.732 250.287H209.164L210.493 244.65ZM216.378 250.365L211.596 246.69L210.73 250.365H216.378Z" fill="white"/>
<g clip-path="url(#clip3_6901_7890)">
<path d="M329.573 128.531C330.406 128.727 331.103 129.072 331.664 129.565C332.224 130.069 332.609 130.659 332.82 131.335C333.039 132.024 333.063 132.73 332.892 133.454C332.738 134.108 332.474 134.646 332.099 135.067C331.732 135.501 331.324 135.819 330.874 136.021L332.078 136.305L331.669 138.04L323.377 136.086L323.786 134.351L325.02 134.641C324.697 134.257 324.465 133.783 324.323 133.219C324.18 132.654 324.185 132.05 324.337 131.406C324.505 130.692 324.84 130.081 325.341 129.573C325.852 129.067 326.475 128.714 327.21 128.516C327.953 128.33 328.74 128.335 329.573 128.531ZM327.939 135.329C328.511 135.464 329.036 135.46 329.515 135.318C329.99 135.186 330.384 134.955 330.695 134.625C331.005 134.295 331.213 133.908 331.317 133.465C331.422 133.023 331.408 132.584 331.278 132.15C331.157 131.718 330.915 131.332 330.55 130.991C330.193 130.663 329.729 130.431 329.157 130.296C328.585 130.162 328.056 130.159 327.57 130.289C327.082 130.429 326.678 130.662 326.357 130.99C326.044 131.331 325.836 131.717 325.734 132.15C325.63 132.592 325.643 133.031 325.774 133.465C325.904 133.899 326.153 134.282 326.52 134.613C326.894 134.956 327.368 135.195 327.939 135.329Z" fill="#9400D3"/>
<path d="M329.527 141.733C329.889 142.083 330.137 142.492 330.27 142.959C330.411 143.438 330.415 143.965 330.279 144.538L328.504 144.12L328.607 143.682C328.766 143.008 328.716 142.455 328.458 142.022C328.197 141.6 327.646 141.289 326.803 141.091L322.439 140.062L322.844 138.342L331.136 140.296L330.731 142.016L329.527 141.733Z" fill="#9400D3"/>
<path d="M327.899 147.768L323.309 146.686C322.998 146.613 322.756 146.63 322.582 146.738C322.416 146.858 322.292 147.094 322.209 147.446L321.96 148.502L320.53 148.165L320.85 146.807C321.033 146.033 321.353 145.482 321.812 145.154C322.27 144.827 322.905 144.759 323.718 144.951L328.308 146.032L328.539 145.052L329.939 145.381L329.708 146.362L331.769 146.848L331.36 148.583L329.299 148.097L328.822 150.119L327.423 149.789L327.899 147.768Z" fill="#9400D3"/>
<path d="M327.571 156.037C327.422 156.671 327.154 157.202 326.767 157.631C326.377 158.07 325.884 158.368 325.285 158.525C324.685 158.691 324.008 158.686 323.256 158.508L318.365 157.356L318.767 155.651L323.402 156.743C324.144 156.918 324.755 156.865 325.234 156.585C325.723 156.308 326.043 155.847 326.195 155.203C326.347 154.559 326.267 153.999 325.956 153.522C325.652 153.058 325.129 152.738 324.387 152.563L319.752 151.471L320.157 149.751L331.293 152.375L330.888 154.095L327.081 153.198C327.363 153.572 327.547 154.003 327.634 154.491C327.718 154.989 327.697 155.504 327.571 156.037Z" fill="#9400D3"/>
<path d="M322.166 159.961C322.999 160.157 323.696 160.502 324.258 160.995C324.817 161.499 325.202 162.088 325.413 162.765C325.632 163.453 325.656 164.16 325.486 164.884C325.332 165.538 325.067 166.076 324.693 166.497C324.326 166.931 323.917 167.249 323.467 167.45L324.671 167.734L324.262 169.47L315.97 167.516L316.379 165.78L317.613 166.071C317.291 165.687 317.058 165.213 316.916 164.649C316.774 164.084 316.778 163.48 316.93 162.836C317.098 162.122 317.433 161.511 317.934 161.002C318.445 160.496 319.068 160.144 319.803 159.946C320.546 159.76 321.334 159.765 322.166 159.961ZM320.533 166.759C321.104 166.894 321.63 166.89 322.108 166.748C322.584 166.616 322.977 166.385 323.288 166.055C323.599 165.724 323.806 165.338 323.911 164.895C324.015 164.453 324.002 164.014 323.871 163.58C323.751 163.148 323.508 162.762 323.143 162.421C322.787 162.093 322.322 161.861 321.75 161.726C321.179 161.592 320.65 161.589 320.164 161.719C319.675 161.858 319.271 162.092 318.95 162.42C318.637 162.76 318.429 163.147 318.327 163.58C318.223 164.022 318.236 164.461 318.367 164.895C318.497 165.329 318.746 165.712 319.113 166.042C319.488 166.385 319.961 166.624 320.533 166.759Z" fill="#9400D3"/>
<path d="M314.655 167.205L324.193 126.732L324.369 126.773L314.832 167.246L314.655 167.205Z" fill="white"/>
<path d="M308.645 164.086C308.721 163.763 308.847 163.486 309.022 163.254C309.201 163.029 309.407 162.865 309.641 162.763C309.88 162.662 310.125 162.636 310.375 162.684L310.168 163.564C309.991 163.538 309.825 163.585 309.67 163.706C309.52 163.833 309.418 164.011 309.364 164.24C309.308 164.478 309.309 164.673 309.368 164.823C309.431 164.979 309.534 165.074 309.678 165.108C309.832 165.145 309.964 165.097 310.074 164.966C310.182 164.839 310.319 164.627 310.483 164.33C310.64 164.042 310.781 163.811 310.906 163.636C311.032 163.461 311.193 163.32 311.391 163.215C311.588 163.114 311.82 163.096 312.089 163.159C312.307 163.21 312.491 163.322 312.639 163.493C312.793 163.666 312.893 163.884 312.942 164.147C312.989 164.415 312.975 164.705 312.901 165.018C312.791 165.485 312.584 165.832 312.278 166.059C311.977 166.293 311.62 166.371 311.208 166.295L311.408 165.445C311.596 165.474 311.76 165.434 311.901 165.325C312.042 165.217 312.139 165.048 312.193 164.82C312.246 164.596 312.244 164.415 312.187 164.276C312.131 164.137 312.033 164.051 311.894 164.018C311.785 163.992 311.684 164.01 311.59 164.072C311.497 164.134 311.415 164.217 311.343 164.321C311.276 164.426 311.184 164.582 311.067 164.791C310.917 165.07 310.778 165.294 310.649 165.463C310.524 165.638 310.365 165.776 310.173 165.878C309.982 165.98 309.754 166.002 309.489 165.945C309.255 165.89 309.062 165.776 308.909 165.604C308.755 165.431 308.654 165.213 308.606 164.95C308.557 164.692 308.57 164.404 308.645 164.086Z" fill="white"/>
<path d="M312.393 157.767C312.805 157.864 313.15 158.034 313.428 158.278C313.706 158.527 313.896 158.819 314.001 159.153C314.11 159.493 314.121 159.845 314.036 160.207C313.973 160.476 313.851 160.725 313.671 160.955C313.495 161.192 313.291 161.364 313.061 161.472L315.044 161.94L314.842 162.797L309.327 161.497L309.528 160.64L310.147 160.786C309.981 160.6 309.863 160.367 309.792 160.088C309.72 159.814 309.722 159.518 309.797 159.2C309.881 158.843 310.048 158.536 310.297 158.28C310.55 158.03 310.858 157.856 311.222 157.758C311.59 157.667 311.98 157.67 312.393 157.767ZM311.586 161.125C311.869 161.191 312.129 161.19 312.366 161.12C312.601 161.054 312.796 160.94 312.95 160.777C313.104 160.614 313.206 160.423 313.258 160.205C313.309 159.986 313.303 159.77 313.238 159.555C313.178 159.342 313.058 159.151 312.877 158.982C312.7 158.82 312.47 158.705 312.187 158.639C311.904 158.572 311.642 158.571 311.401 158.635C311.16 158.703 310.959 158.819 310.801 158.981C310.646 159.149 310.543 159.34 310.493 159.553C310.441 159.772 310.448 159.988 310.513 160.203C310.577 160.418 310.701 160.607 310.882 160.77C311.068 160.94 311.302 161.058 311.586 161.125Z" fill="white"/>
<path d="M314.238 156.377C314.417 156.55 314.54 156.752 314.607 156.983C314.677 157.22 314.678 157.48 314.612 157.763L313.732 157.556L313.783 157.34C313.861 157.007 313.837 156.733 313.709 156.52C313.58 156.311 313.306 156.157 312.889 156.059L310.728 155.55L310.928 154.7L315.034 155.668L314.834 156.517L314.238 156.377Z" fill="white"/>
<path d="M314.257 149.852C314.669 149.95 315.014 150.12 315.293 150.364C315.57 150.613 315.76 150.904 315.865 151.238C315.974 151.579 315.986 151.928 315.902 152.286C315.826 152.608 315.695 152.874 315.509 153.082C315.328 153.296 315.126 153.453 314.903 153.553L315.499 153.693L315.297 154.55L311.191 153.583L311.393 152.726L312.004 152.87C311.844 152.68 311.729 152.445 311.658 152.167C311.587 151.888 311.589 151.589 311.664 151.271C311.748 150.918 311.913 150.617 312.161 150.366C312.414 150.116 312.722 149.942 313.086 149.844C313.454 149.752 313.844 149.755 314.257 149.852ZM313.45 153.21C313.733 153.277 313.993 153.275 314.23 153.205C314.465 153.14 314.66 153.026 314.814 152.863C314.968 152.7 315.07 152.509 315.122 152.291C315.173 152.072 315.167 151.855 315.102 151.641C315.042 151.427 314.922 151.236 314.741 151.068C314.564 150.906 314.334 150.791 314.051 150.724C313.768 150.658 313.506 150.656 313.265 150.72C313.024 150.789 312.823 150.904 312.665 151.066C312.51 151.234 312.407 151.425 312.357 151.639C312.305 151.858 312.312 152.074 312.377 152.289C312.441 152.503 312.565 152.692 312.746 152.856C312.932 153.025 313.166 153.144 313.45 153.21Z" fill="white"/>
<path d="M316.144 144.212C316.651 144.332 317.078 144.556 317.426 144.884C317.772 145.217 318.009 145.612 318.138 146.067C318.271 146.528 318.28 147 318.167 147.482C318.037 148.033 317.785 148.491 317.411 148.854C317.04 149.223 316.584 149.445 316.042 149.522L316.282 148.501C316.587 148.431 316.835 148.293 317.025 148.086C317.215 147.879 317.347 147.619 317.421 147.306C317.502 146.963 317.497 146.64 317.406 146.335C317.315 146.03 317.144 145.767 316.892 145.545C316.639 145.328 316.321 145.175 315.939 145.084C315.556 144.994 315.203 144.99 314.88 145.071C314.555 145.157 314.282 145.316 314.06 145.546C313.842 145.778 313.693 146.066 313.613 146.409C313.539 146.722 313.541 147.013 313.619 147.283C313.697 147.554 313.857 147.788 314.098 147.986L313.858 149.008C313.407 148.697 313.098 148.293 312.931 147.798C312.764 147.307 312.745 146.786 312.875 146.235C312.99 145.748 313.206 145.33 313.525 144.98C313.848 144.631 314.239 144.385 314.698 144.241C315.155 144.103 315.637 144.093 316.144 144.212Z" fill="white"/>
</g>
<rect x="341.497" y="109.551" width="19.2678" height="19.2675" rx="1" transform="rotate(103.26 341.497 109.551)" fill="#9400D3"/>
<path d="M325.928 117.587C326.546 119.585 327.964 120.711 328.498 121.09C328.772 121.284 328.993 121.41 329.227 121.543C329.535 121.718 329.835 121.869 330.122 122L331.057 122.22C332.398 122.536 333.537 122.371 334.475 121.727C335.412 121.081 336.076 119.939 336.462 118.3C336.73 117.161 336.753 116.138 336.533 115.229C336.555 115.919 336.529 117.293 335.68 118.57C335.41 118.976 335.006 119.583 334.238 119.904C333.723 120.118 333.251 120.118 332.801 120.118C332.452 120.118 332.134 120.086 331.853 120.039C331.838 120.038 331.822 120.037 331.808 120.036C331.279 119.946 330.734 119.841 330.175 119.72C329.127 119.493 328.144 119.233 327.228 118.957C326.916 118.686 326.447 118.201 326.125 117.466C326.016 117.218 325.933 116.96 325.875 116.691C325.742 116.075 325.696 115.51 325.736 114.994C325.685 115.254 325.656 115.519 325.653 115.785C325.645 116.572 325.795 117.156 325.928 117.587Z" fill="url(#paint6_linear_6901_7890)"/>
<path d="M334.239 119.941C335.011 119.621 335.416 119.014 335.687 118.608C336.539 117.33 336.564 115.955 336.541 115.264C336.472 114.981 336.38 114.709 336.263 114.449C335.934 113.71 335.491 113.262 335.376 113.146C334.612 112.376 333.722 112.068 333.2 111.946C332.973 111.893 332.781 111.866 332.648 111.852C332.724 111.973 332.826 112.153 332.913 112.385C333.069 112.799 333.097 113.159 333.105 113.503C333.128 114.497 332.984 115.546 332.931 115.91C332.919 116.06 332.921 116.243 332.956 116.447C333.041 116.938 333.275 117.289 333.425 117.477C333.303 116.892 333.413 116.267 333.72 115.755C333.8 115.621 333.922 115.481 334.078 115.496C334.187 115.506 334.273 115.592 334.342 115.677C334.353 115.689 334.362 115.703 334.372 115.716C334.384 115.738 334.396 115.761 334.408 115.784C334.766 116.514 334.593 117.343 334.451 117.861C334.301 118.413 334.085 119.204 333.321 119.697C332.745 120.069 332.141 120.088 331.842 120.074C332.124 120.121 332.444 120.154 332.795 120.154C333.247 120.155 333.722 120.156 334.239 119.941Z" fill="url(#paint7_linear_6901_7890)"/>
<path d="M327.934 111.395C328.676 111.807 329.145 112.606 329.333 113.435C329.444 113.927 329.468 114.431 329.447 114.936C329.457 115.34 329.416 115.755 329.409 116.124C329.384 117.484 329.439 118.088 329.71 118.679C329.825 118.928 329.973 119.165 330.22 119.362C330.623 119.683 331.076 119.732 331.288 119.74C331.202 119.514 331.149 119.212 331.131 118.832C331.092 117.996 331.121 117.038 331.218 115.96C331.364 114.341 331.189 113.079 330.694 112.176C329.98 110.876 328.36 110.09 326.896 110.36C326.206 110.487 325.632 110.822 325.168 111.279C325.544 111.153 325.937 111.078 326.334 111.061C326.885 111.037 327.452 111.127 327.934 111.395Z" fill="url(#paint8_linear_6901_7890)"/>
<path d="M323.356 120.632C323.557 120.603 323.809 120.633 324.306 120.696C324.578 120.73 324.803 120.765 324.958 120.791L330.141 122.013C329.855 121.882 329.557 121.732 329.25 121.558C329.017 121.425 328.797 121.299 328.525 121.106C327.994 120.729 326.583 119.607 325.968 117.617C325.836 117.188 325.687 116.606 325.695 115.821C325.698 115.557 325.727 115.293 325.779 115.034C325.795 114.821 325.827 114.616 325.873 114.42C326.078 113.547 326.657 112.802 327.62 112.766C328.331 112.74 329.065 113.197 329.354 113.85C329.481 114.138 329.524 114.463 329.533 114.796C329.553 114.293 329.53 113.79 329.42 113.3C329.234 112.475 328.768 111.679 328.029 111.269C327.55 111.002 326.987 110.913 326.439 110.937C326.044 110.954 325.653 111.029 325.279 111.155C324.593 111.833 324.147 112.78 323.924 113.725C323.732 114.542 323.696 115.357 323.818 116.17C323.938 116.982 324.234 117.719 324.705 118.379C324.448 118.379 323.885 118.418 323.358 118.798C322.269 119.585 322.406 121.061 322.414 121.133C322.805 120.755 323.158 120.66 323.356 120.632Z" fill="url(#paint9_linear_6901_7890)"/>
</g>
<defs>
<radialGradient id="paint0_radial_6901_7890" cx="0" cy="0" r="1" gradientUnits="userSpaceOnUse" gradientTransform="translate(30.0981 199.153) rotate(-28.0255) scale(219.976 249.789)">
<stop stop-color="#937F1D"/>
<stop offset="0.604167" stop-color="#CAB031"/>
<stop offset="0.892823" stop-color="#978012"/>
<stop offset="1" stop-color="#C2A411"/>
</radialGradient>
<linearGradient id="paint1_linear_6901_7890" x1="197.51" y1="42.5122" x2="199.882" y2="33.5324" gradientUnits="userSpaceOnUse">
<stop stop-color="#FFFF63"/>
<stop offset="0.276" stop-color="#D4D400"/>
<stop offset="0.531" stop-color="#F5F52A"/>
<stop offset="0.761" stop-color="#E9E900"/>
<stop offset="0.951" stop-color="#C3C30E"/>
</linearGradient>
<linearGradient id="paint2_linear_6901_7890" x1="207.596" y1="34.7075" x2="203.347" y2="31.0737" gradientUnits="userSpaceOnUse">
<stop stop-color="#D9D901"/>
<stop offset="0.276" stop-color="#E4E430"/>
<stop offset="0.577405" stop-color="#E9E900"/>
<stop offset="1" stop-color="#FFFF81"/>
</linearGradient>
<linearGradient id="paint3_linear_6901_7890" x1="202.794" y1="35.4959" x2="199.239" y2="29.1117" gradientUnits="userSpaceOnUse">
<stop stop-color="#D9D901"/>
<stop offset="0.276" stop-color="#E4E430"/>
<stop offset="0.577405" stop-color="#E9E900"/>
<stop offset="1" stop-color="#717100"/>
</linearGradient>
<linearGradient id="paint4_linear_6901_7890" x1="196.105" y1="43.6356" x2="201.504" y2="35.0544" gradientUnits="userSpaceOnUse">
<stop stop-color="#FFFF63"/>
<stop offset="0.276" stop-color="#D4D400"/>
<stop offset="0.531" stop-color="#F5F52A"/>
<stop offset="0.761" stop-color="#E9E900"/>
<stop offset="0.951" stop-color="#C3C30E"/>
</linearGradient>
<radialGradient id="paint5_radial_6901_7890" cx="0" cy="0" r="1" gradientUnits="userSpaceOnUse" gradientTransform="translate(30.098 199.154) rotate(-28.0256) scale(219.976 249.789)">
<stop stop-color="#1D5297"/>
<stop offset="0.604167" stop-color="#51AFCE"/>
<stop offset="0.892823" stop-color="#1075AB"/>
<stop offset="1" stop-color="#1888D3"/>
</radialGradient>
<linearGradient id="paint6_linear_6901_7890" x1="322.996" y1="119.967" x2="329.015" y2="112.894" gradientUnits="userSpaceOnUse">
<stop stop-color="#FFFF63"/>
<stop offset="0.276" stop-color="#D4D400"/>
<stop offset="0.531" stop-color="#F5F52A"/>
<stop offset="0.761" stop-color="#E9E900"/>
<stop offset="0.951" stop-color="#C3C30E"/>
</linearGradient>
<linearGradient id="paint7_linear_6901_7890" x1="335.463" y1="117.289" x2="333.202" y2="112.176" gradientUnits="userSpaceOnUse">
<stop stop-color="#D9D901"/>
<stop offset="0.276" stop-color="#E4E430"/>
<stop offset="0.577405" stop-color="#E9E900"/>
<stop offset="1" stop-color="#FFFF81"/>
</linearGradient>
<linearGradient id="paint8_linear_6901_7890" x1="330.792" y1="115.928" x2="330.345" y2="108.635" gradientUnits="userSpaceOnUse">
<stop stop-color="#D9D901"/>
<stop offset="0.276" stop-color="#E4E430"/>
<stop offset="0.577405" stop-color="#E9E900"/>
<stop offset="1" stop-color="#717100"/>
</linearGradient>
<linearGradient id="paint9_linear_6901_7890" x1="321.243" y1="120.375" x2="329.82" y2="114.97" gradientUnits="userSpaceOnUse">
<stop stop-color="#FFFF63"/>
<stop offset="0.276" stop-color="#D4D400"/>
<stop offset="0.531" stop-color="#F5F52A"/>
<stop offset="0.761" stop-color="#E9E900"/>
<stop offset="0.951" stop-color="#C3C30E"/>
</linearGradient>
<clipPath id="clip0_6901_7890">
<rect width="230.39" height="322.002" fill="white" transform="matrix(1 0 0.22937 0.973339 0 0)"/>
</clipPath>
<clipPath id="clip1_6901_7890">
<rect width="41.952" height="20" fill="white" transform="translate(214.312 45.1055) rotate(77.6587)"/>
</clipPath>
<clipPath id="clip2_6901_7890">
<rect width="230.39" height="322.002" fill="white" transform="matrix(1 0 -0.22937 0.973339 139.609 78.7305)"/>
</clipPath>
<clipPath id="clip3_6901_7890">
<rect width="41.952" height="20" fill="white" transform="translate(337.026 129.566) rotate(103.26)"/>
</clipPath>
</defs>
</svg>
