<svg width="20" height="18" viewBox="0 0 20 18" fill="none" xmlns="http://www.w3.org/2000/svg">
<path d="M16.6737 6.05391L19.7763 8.91914C20.1512 9.27026 20.0442 9.54096 19.5358 9.54096H17.2086V17.0271C17.2086 17.5408 16.7807 18 16.2723 18H12.2334V12.7565C12.2334 12.2427 11.7789 11.7835 11.2706 11.7835H8.72945C8.22106 11.7835 7.76658 12.2427 7.76658 12.7565V18H3.72769C3.21929 18 2.76482 17.5408 2.76482 17.0271V9.54096H0.464217C-0.0441754 9.54096 -0.15116 9.27026 0.223715 8.91914L9.2909 0.595013C9.66578 0.243886 10.3077 0.243886 10.7082 0.595013L12.7675 2.45962V0.97295C12.7675 0.459232 13.222 0 13.7304 0H15.7365C16.2449 0 16.6729 0.459232 16.6729 0.97295L16.6737 6.05391Z" fill="#B0B4BA"/>
</svg>
