<?xml version="1.0" encoding="utf-8"?>
<!-- Generator: Adobe Illustrator 17.0.0, SVG Export Plug-In . SVG Version: 6.00 Build 0)  -->
<!DOCTYPE svg PUBLIC "-//W3C//DTD SVG 1.1//EN" "http://www.w3.org/Graphics/SVG/1.1/DTD/svg11.dtd">
<svg version="1.1" id="Layer_1" xmlns="http://www.w3.org/2000/svg" xmlns:xlink="http://www.w3.org/1999/xlink" x="0px" y="0px"
	 width="20px" height="21px" viewBox="0 0 20 21" enable-background="new 0 0 20 21" xml:space="preserve">
<path fill="#33FFCC" d="M9.998,2.759c0.079,0,0.157,0.027,0.221,0.08l1.503,1.253V0H8.273v4.091l1.504-1.253
	C9.841,2.785,9.919,2.759,9.998,2.759z"/>
<path fill="#33FFCC" d="M11.554,9.023c0.173-0.038,0.345-0.057,0.514-0.057h0.272c0.19-0.208,0.462-0.338,0.762-0.338h3.793V1.724
	C16.895,0.773,16.122,0,15.171,0h-2.759v4.165c0,0.257-0.144,0.484-0.377,0.593c-0.09,0.042-0.185,0.062-0.28,0.062
	c-0.149,0-0.297-0.052-0.418-0.152L9.998,3.552L8.659,4.669c-0.198,0.164-0.465,0.199-0.697,0.09
	C7.729,4.649,7.585,4.422,7.585,4.165V0H4.826C3.875,0,3.102,0.773,3.102,1.724v5.582C3.21,7.268,3.325,7.241,3.446,7.241h4.138
	c0.306,0,0.581,0.133,0.77,0.345h0.954c0.986,0,1.835,0.595,2.209,1.444L11.554,9.023z"/>
<path fill="#33FFCC" d="M5.521,11.036c0.079,0,0.157,0.027,0.221,0.08l1.504,1.253V8.277H3.797v4.091L5.3,11.116
	C5.365,11.063,5.443,11.036,5.521,11.036z"/>
<path fill="#33FFCC" d="M9.311,8.277H7.931v4.165c0,0.257-0.144,0.484-0.377,0.594c-0.09,0.042-0.185,0.062-0.28,0.062
	c-0.149,0-0.297-0.052-0.418-0.152L5.517,11.83l-1.339,1.116c-0.198,0.164-0.465,0.199-0.697,0.09
	c-0.233-0.109-0.377-0.337-0.377-0.594V8.277H1.724C0.773,8.277,0,9.051,0,10.002v8.621c0,0.951,0.773,1.724,1.724,1.724h7.586
	c0.951,0,1.724-0.774,1.724-1.724v-8.621C11.035,9.051,10.261,8.277,9.311,8.277z M9.311,18.967H8.276
	c-0.19,0-0.345-0.154-0.345-0.345s0.154-0.345,0.345-0.345h1.035c0.19,0,0.345,0.154,0.345,0.345S9.501,18.967,9.311,18.967z
	 M9.311,17.588H7.586c-0.19,0-0.345-0.154-0.345-0.345c0-0.191,0.155-0.345,0.345-0.345h1.724c0.19,0,0.345,0.154,0.345,0.345
	C9.656,17.434,9.501,17.588,9.311,17.588z"/>
<path fill="#33FFCC" d="M14.957,12.501c0.064-0.053,0.142-0.08,0.221-0.08c0.079,0,0.157,0.027,0.221,0.08l1.504,1.253V9.656h-3.448
	v4.098L14.957,12.501z"/>
<path fill="#33FFCC" d="M18.278,9.654h-0.69c-0.001-0.027-0.01-0.051-0.017-0.076c0.007,0.027,0.017,0.053,0.017,0.083v4.165
	c0,0.257-0.144,0.484-0.377,0.593c-0.09,0.042-0.185,0.063-0.28,0.063c-0.149,0-0.297-0.052-0.418-0.152l-1.339-1.117l-1.339,1.117
	c-0.198,0.164-0.465,0.198-0.697,0.09c-0.233-0.109-0.377-0.336-0.377-0.593V9.661c0-0.029,0.01-0.055,0.016-0.082
	c-0.006,0.025-0.016,0.049-0.016,0.075h-0.69c-0.126,0-0.248,0.015-0.366,0.041c0.013,0.1,0.021,0.201,0.021,0.304v8.621
	c0,0.56-0.193,1.075-0.515,1.486c0.254,0.147,0.546,0.239,0.86,0.239h6.207c0.951,0,1.724-0.774,1.724-1.724v-7.241
	C20.002,10.428,19.229,9.654,18.278,9.654z M18.278,18.965h-1.034c-0.19,0-0.345-0.154-0.345-0.345c0-0.191,0.155-0.345,0.345-0.345
	h1.034c0.19,0,0.345,0.154,0.345,0.345C18.623,18.81,18.469,18.965,18.278,18.965z M18.278,17.585h-1.724
	c-0.19,0-0.345-0.154-0.345-0.345c0-0.191,0.154-0.345,0.345-0.345h1.724c0.19,0,0.345,0.154,0.345,0.345
	C18.623,17.431,18.469,17.585,18.278,17.585z"/>
</svg>
