<svg width="20" height="24" viewBox="0 0 20 24" fill="none" xmlns="http://www.w3.org/2000/svg">
<path d="M19.8037 14.0568C19.5338 13.4486 19.0222 13.0703 18.4689 13.0703C18.2073 13.0703 17.949 13.157 17.7207 13.3203L13.2613 16.4982C13.203 16.5399 13.1613 16.6099 13.1447 16.6915C13.0664 17.0931 12.8831 17.6548 12.4531 18.0447C11.9765 18.4763 11.3333 18.568 10.5484 18.313C10.5434 18.3114 10.5384 18.3097 10.5351 18.308L7.96375 17.2965C7.80878 17.2348 7.72045 17.0248 7.76877 16.8282C7.8071 16.6715 7.92043 16.5649 8.05041 16.5649C8.08041 16.5649 8.10873 16.5699 8.13872 16.5816L10.6967 17.5881C10.7 17.5898 10.705 17.5914 10.7084 17.5931C11.3116 17.7864 11.7832 17.7314 12.1082 17.4381C12.5181 17.0649 12.5898 16.4099 12.5998 16.3149C12.5998 16.3116 12.5998 16.3082 12.5998 16.3049V16.3016V16.2982V16.2966C12.6481 15.4883 12.2365 14.7434 11.6199 14.5234L11.6082 14.5185C11.5899 14.5101 9.69683 13.7286 8.49034 13.2919C8.35702 13.2436 7.98708 13.1303 7.45383 13.1303C6.70727 13.1303 5.59243 13.3536 4.52425 14.4235L0.0898627 18.9646C-0.0117895 19.0679 -0.0301237 19.2546 0.0498649 19.3879L2.45121 23.4024C2.48953 23.4674 2.54785 23.5108 2.61117 23.5208C2.62117 23.5224 2.63283 23.5241 2.64283 23.5241C2.69616 23.5241 2.74784 23.5024 2.7895 23.4608L5.88237 20.4461C5.95236 20.3778 6.04568 20.3528 6.13067 20.3778L11.1266 21.8726C11.4966 21.9843 11.8982 21.9126 12.2282 21.676L19.2172 16.6915C19.9571 16.1716 20.217 14.9884 19.8037 14.0568Z" fill="#B0B4BA"/>
<path d="M17.0247 0H7.89595C7.59933 0 7.35938 0.304998 7.35938 0.679955V3.77291C7.35938 4.14787 7.59933 4.45282 7.89595 4.45282H8.09594V11.0221C8.09594 11.397 8.33589 11.702 8.63251 11.702H16.2864C16.5831 11.702 16.823 11.397 16.823 11.0221V4.45282H17.023C17.3196 4.45282 17.5596 4.14787 17.5596 3.77291V0.679955C17.5613 0.304998 17.3213 0 17.0247 0ZM13.5902 6.0693H11.3305C11.0938 6.0693 10.9005 5.82601 10.9005 5.52605C10.9005 5.22608 11.0938 4.9828 11.3305 4.9828H13.5902C13.8268 4.9828 14.0201 5.22608 14.0201 5.52605C14.0201 5.82601 13.8268 6.0693 13.5902 6.0693ZM16.4881 3.09301H16.2881H8.63419H8.43423V1.35986H16.4898V3.09301H16.4881Z" fill="#B0B4BA"/>
</svg>
