<svg width="20" height="18" viewBox="0 0 20 18" fill="none" xmlns="http://www.w3.org/2000/svg">
<path d="M12.7316 0H1.70183C0.763379 0 0 0.763171 0 1.70163C0 2.64012 0.763379 3.40371 1.70183 3.40371H13.5843V0.852722C13.5843 0.382644 13.2019 0 12.7316 0Z" fill="#B0B4BA"/>
<path d="M18.291 8.02937V6.19948C18.291 5.12611 17.4177 4.2526 16.3441 4.2526H14.437H14.0106H1.70183C1.0478 4.2526 0.452317 4.00341 0 3.59766V16.0501C0 17.1235 0.873263 17.997 1.94687 17.997H16.3441C17.4177 17.997 18.291 17.1235 18.291 16.0501V14.2614H13.6748L12.0252 11.1454L13.6748 8.02937H18.291ZM9.14548 16.1492H1.64021V15.2965H9.14548V16.1492Z" fill="#B0B4BA"/>
<path d="M19.5661 8.88672H14.1905L12.9922 11.15L14.1905 13.4134H19.5661C19.5927 13.4134 19.6144 13.3917 19.6144 13.3651V8.93502C19.6144 8.90838 19.5927 8.88672 19.5661 8.88672ZM15.8988 12.1835C15.3281 12.1835 14.8654 11.7208 14.8654 11.15C14.8654 10.5792 15.3281 10.1165 15.8988 10.1165C16.4696 10.1165 16.9324 10.5792 16.9324 11.15C16.9324 11.7208 16.4696 12.1835 15.8988 12.1835Z" fill="#B0B4BA"/>
</svg>
