<?xml version="1.0" encoding="utf-8"?>
<!-- Generator: Adobe Illustrator 17.0.0, SVG Export Plug-In . SVG Version: 6.00 Build 0)  -->
<!DOCTYPE svg PUBLIC "-//W3C//DTD SVG 1.1//EN" "http://www.w3.org/Graphics/SVG/1.1/DTD/svg11.dtd">
<svg version="1.1" id="Layer_1" xmlns="http://www.w3.org/2000/svg" xmlns:xlink="http://www.w3.org/1999/xlink" x="0px" y="0px"
	 width="20px" height="18px" viewBox="0 0 20 18" enable-background="new 0 0 20 18" xml:space="preserve">
<path fill="#33FFCC" d="M20,3.73v6.99c0,2.7-0.63,3.57-3,3.71V7.28c0-2.98-0.76-3.73-3.78-3.73H3.78C3.5,3.55,3.24,3.56,3,3.57
	C3.03,0.72,3.81,0,6.78,0h9.44C19.24,0,20,0.75,20,3.73z"/>
<path opacity="0.8" fill="#33FFCC" enable-background="new    " d="M17,8.867V7.285c0-2.98-0.76-3.73-3.78-3.73H3.78
	c-0.28,0-0.54,0.01-0.78,0.02c-2.37,0.14-3,1.01-3,3.71v1.582H17z M17,10.367H0v3.908c0,2.98,0.76,3.73,3.78,3.73h9.44
	c2.97,0,3.75-0.72,3.78-3.57V10.367z M3.234,15.563h1.72c0.42,0,0.75-0.34,0.75-0.75s-0.34-0.75-0.75-0.75h-1.72
	c-0.41,0-0.75,0.34-0.75,0.75S2.824,15.563,3.234,15.563z M10.549,15.563h-3.44c-0.41,0-0.75-0.34-0.75-0.75s0.34-0.75,0.75-0.75
	h3.44c0.41,0,0.75,0.34,0.75,0.75S10.969,15.563,10.549,15.563z"/>
</svg>
