<?xml version="1.0" encoding="utf-8"?>
<!-- Generator: Adobe Illustrator 17.0.0, SVG Export Plug-In . SVG Version: 6.00 Build 0)  -->
<!DOCTYPE svg PUBLIC "-//W3C//DTD SVG 1.1//EN" "http://www.w3.org/Graphics/SVG/1.1/DTD/svg11.dtd">
<svg version="1.1" id="Layer_1" xmlns="http://www.w3.org/2000/svg" xmlns:xlink="http://www.w3.org/1999/xlink" x="0px" y="0px"
	 width="20px" height="18px" viewBox="0 0 20 18" enable-background="new 0 0 20 18" xml:space="preserve">
<path fill="#33FFCC" d="M16.674,6.054l3.103,2.865c0.375,0.351,0.268,0.622-0.24,0.622h-2.327v7.486
	c0,0.514-0.428,0.973-0.936,0.973h-4.039v-5.243c0-0.514-0.455-0.973-0.963-0.973H8.729c-0.508,0-0.963,0.459-0.963,0.973V18H3.728
	c-0.508,0-0.963-0.459-0.963-0.973V9.541H0.464c-0.508,0-0.615-0.271-0.241-0.622l9.067-8.324c0.375-0.351,1.017-0.351,1.417,0
	l2.059,1.865V0.973C12.767,0.459,13.222,0,13.73,0h2.006c0.508,0,0.936,0.459,0.936,0.973L16.674,6.054z"/>
</svg>
