<svg width="20" height="18" viewBox="0 0 20 18" fill="none" xmlns="http://www.w3.org/2000/svg">
<path d="M20 3.73V10.72C20 13.42 19.37 14.29 17 14.43V7.27999C17 4.3 16.24 3.55 13.22 3.55H3.78003C3.50003 3.55 3.24 3.56 3 3.57C3.03 0.72 3.81003 0 6.78003 0H16.22C19.24 0 20 0.749999 20 3.73Z" fill="#B0B4BA"/>
<path opacity="0.8" fill-rule="evenodd" clip-rule="evenodd" d="M17 8.86718V7.28469C17 4.30469 16.24 3.55469 13.22 3.55469H3.78003C3.50003 3.55469 3.24 3.56469 3 3.57469C0.629999 3.71469 0 4.58469 0 7.28469V8.86718H17ZM17 10.3672H0V14.2747C0 17.2547 0.760029 18.0047 3.78003 18.0047H13.22C16.19 18.0047 16.97 17.2847 17 14.4347V10.3672ZM3.23437 15.5625H4.95441C5.37441 15.5625 5.70441 15.2225 5.70441 14.8125C5.70441 14.4025 5.36441 14.0625 4.95441 14.0625H3.23437C2.82437 14.0625 2.48438 14.4025 2.48438 14.8125C2.48438 15.2225 2.82437 15.5625 3.23437 15.5625ZM10.5494 15.5625H7.10937C6.69937 15.5625 6.35938 15.2225 6.35938 14.8125C6.35938 14.4025 6.69937 14.0625 7.10937 14.0625H10.5494C10.9594 14.0625 11.2994 14.4025 11.2994 14.8125C11.2994 15.2225 10.9694 15.5625 10.5494 15.5625Z" fill="#B0B4BA"/>
</svg>
