<svg width="20" height="21" viewBox="0 0 20 21" fill="none" xmlns="http://www.w3.org/2000/svg">
<path d="M9.99765 2.75863C10.0763 2.75863 10.1545 2.78517 10.2184 2.8383L11.7219 4.09141V0H8.27344V4.09137L9.77695 2.83826C9.84076 2.78517 9.91901 2.75863 9.99765 2.75863Z" fill="#B0B4BA"/>
<path d="M11.5537 9.02276C11.7264 8.98481 11.8992 8.9655 12.0675 8.9655H12.3399C12.5299 8.75792 12.8023 8.62759 13.102 8.62759H16.8952V1.72414C16.8952 0.77346 16.1218 0 15.171 0H12.4123V4.16516C12.4123 4.42205 12.2678 4.6493 12.035 4.75862C11.945 4.8007 11.8499 4.82104 11.7554 4.82104C11.606 4.82104 11.4588 4.76931 11.3378 4.66862L9.99841 3.55239L8.65905 4.66862C8.46148 4.83308 8.19385 4.86726 7.96178 4.75862C7.729 4.6493 7.58451 4.42205 7.58451 4.16516V0H4.82577C3.87505 0 3.10156 0.77346 3.10156 1.72414V7.30657C3.2102 7.26759 3.32469 7.2414 3.4464 7.2414H7.58451C7.89037 7.2414 8.16555 7.37483 8.3549 7.58623H9.30872C10.295 7.58623 11.1436 8.18139 11.5178 9.03071L11.5537 9.02276Z" fill="#B0B4BA"/>
<path d="M5.52109 11.0359C5.59973 11.0359 5.67797 11.0625 5.74179 11.1156L7.2453 12.3687V8.27734H3.79688V12.3687L5.30038 11.1156C5.36452 11.0625 5.4428 11.0359 5.52109 11.0359Z" fill="#B0B4BA"/>
<path d="M9.3107 8.27734H7.93133V12.4425C7.93133 12.6994 7.78685 12.9266 7.55406 13.036C7.46406 13.078 7.36889 13.0984 7.27439 13.0984C7.12506 13.0984 6.97783 13.0467 6.85679 12.946L5.51744 11.8297L4.17808 12.946C3.98051 13.1104 3.71288 13.1446 3.48081 13.036C3.24803 12.9266 3.10354 12.6994 3.10354 12.4425V8.27734H1.72421C0.773491 8.27734 0 9.0508 0 10.0015V18.6222C0 19.5728 0.773491 20.3463 1.72421 20.3463H9.3107C10.2614 20.3463 11.0349 19.5728 11.0349 18.6222V10.0015C11.0349 9.0508 10.2614 8.27734 9.3107 8.27734ZM9.3107 18.967H8.27617C8.08583 18.967 7.93133 18.8129 7.93133 18.6222C7.93133 18.4315 8.08583 18.2773 8.27617 18.2773H9.3107C9.50104 18.2773 9.65554 18.4315 9.65554 18.6222C9.65554 18.8129 9.50104 18.967 9.3107 18.967ZM9.3107 17.5877H7.58649C7.39615 17.5877 7.24165 17.4335 7.24165 17.2428C7.24165 17.0522 7.39615 16.898 7.58649 16.898H9.3107C9.50104 16.898 9.65554 17.0522 9.65554 17.2428C9.65554 17.4335 9.50104 17.5877 9.3107 17.5877Z" fill="#B0B4BA"/>
<path d="M14.9566 12.5014C15.0208 12.4483 15.0991 12.4218 15.1773 12.4218C15.256 12.4218 15.3342 12.4483 15.398 12.5014L16.9015 13.7545V9.65625H13.4531V13.7545L14.9566 12.5014Z" fill="#B0B4BA"/>
<path d="M18.2781 9.65434H17.5885C17.5878 9.62744 17.5781 9.60332 17.5716 9.57812C17.5788 9.60538 17.5885 9.63157 17.5885 9.66121V13.8264C17.5885 14.0833 17.444 14.3105 17.2112 14.4195C17.1212 14.4616 17.026 14.4822 16.9315 14.4822C16.7822 14.4822 16.6349 14.4305 16.5139 14.3298L15.1746 13.2132L13.8352 14.3298C13.6376 14.4936 13.37 14.5281 13.1379 14.4194C12.9051 14.3105 12.7607 14.0832 12.7607 13.8263V9.66125C12.7607 9.63193 12.7703 9.6061 12.7772 9.57884C12.771 9.60399 12.7614 9.62748 12.7607 9.65434H12.071C11.9451 9.65434 11.823 9.66952 11.7048 9.69539C11.7175 9.79504 11.7261 9.89609 11.7261 9.99917V18.6198C11.7261 19.1802 11.5327 19.695 11.2109 20.1054C11.4651 20.2529 11.7565 20.344 12.071 20.344H18.2781C19.2288 20.344 20.0023 19.5705 20.0023 18.6198V11.3785C20.0023 10.4278 19.2289 9.65434 18.2781 9.65434ZM18.2781 18.9647H17.2436C17.0533 18.9647 16.8988 18.8105 16.8988 18.6198C16.8988 18.4291 17.0533 18.275 17.2436 18.275H18.2781C18.4685 18.275 18.623 18.4291 18.623 18.6198C18.623 18.8105 18.4685 18.9647 18.2781 18.9647ZM18.2781 17.5854H16.5539C16.3636 17.5854 16.2091 17.4312 16.2091 17.2405C16.2091 17.0498 16.3636 16.8957 16.5539 16.8957H18.2781C18.4685 16.8957 18.623 17.0498 18.623 17.2405C18.623 17.4312 18.4685 17.5854 18.2781 17.5854Z" fill="#B0B4BA"/>
</svg>
