<?xml version="1.0" encoding="utf-8"?>
<!-- Generator: Adobe Illustrator 17.0.0, SVG Export Plug-In . SVG Version: 6.00 Build 0)  -->
<!DOCTYPE svg PUBLIC "-//W3C//DTD SVG 1.1//EN" "http://www.w3.org/Graphics/SVG/1.1/DTD/svg11.dtd">
<svg version="1.1" id="Layer_1" xmlns="http://www.w3.org/2000/svg" xmlns:xlink="http://www.w3.org/1999/xlink" x="0px" y="0px"
	 width="50px" height="50px" viewBox="0 0 50 50" enable-background="new 0 0 50 50" xml:space="preserve">
<path fill="none" stroke="#33FFCC" d="M25,0.5L25,0.5c13.531,0,24.5,10.969,24.5,24.5l0,0c0,13.531-10.969,24.5-24.5,24.5l0,0
	C11.469,49.5,0.5,38.531,0.5,25l0,0C0.5,11.469,11.469,0.5,25,0.5z"/>
<path fill="none" stroke="#33FFCC" stroke-width="2" stroke-linecap="round" d="M37,25c0-4.714,0-7.071-1.465-8.535
	C34.071,15,31.714,15,27,15h-5c-4.714,0-7.071,0-8.535,1.465C12,17.929,12,20.286,12,25s0,7.071,1.465,8.535
	C14.929,35,17.286,35,22,35h5c4.714,0,7.071,0,8.535-1.465c0.817-0.816,1.178-1.91,1.338-3.535"/>
<path fill="none" stroke="#33FFCC" stroke-width="2" stroke-linecap="round" d="M21.996,30h-5"/>
<path fill="none" stroke="#33FFCC" stroke-width="2" stroke-linecap="round" d="M27,30h-1.875"/>
<path fill="none" stroke="#33FFCC" stroke-width="2" stroke-linecap="round" d="M12,22.5h6.25 M37,22.5H23.25"/>
</svg>
