<svg width="20" height="20" viewBox="0 0 20 20" fill="none" xmlns="http://www.w3.org/2000/svg">
<path d="M19.2087 10.5277C19.3889 10.296 19.4765 9.99728 19.3966 9.69264L17.0305 0.724211C16.8932 0.205835 16.3602 -0.104816 15.8427 0.0324863L0.723467 4.01891C0.207678 4.15538 -0.103849 4.69007 0.031743 5.20757L2.39787 14.1751C2.53346 14.6926 3.06899 15.0033 3.58653 14.8677L8.92895 13.4585V16.4614C8.92895 18.141 11.7122 19.0198 14.4636 19.0198C17.2134 19.0198 20 18.141 20 16.4615V11.9077C20 11.361 19.7004 10.901 19.2087 10.5277ZM17.4965 7.43636L17.7437 8.3701L14.7382 9.16395L14.4927 8.2285L17.4965 7.43636ZM15.7526 1.52837L16.2221 3.30662L11.5267 4.54588L11.0573 2.76763L15.7526 1.52837ZM13.6457 8.45162L13.886 9.36476C12.7746 9.41453 11.6933 9.60849 10.8247 9.93975L10.6411 9.24631L13.6457 8.45162ZM3.18226 12.2106L2.93682 11.2786L5.94144 10.4839L6.18859 11.421L3.18226 12.2106ZM6.78853 10.2616L9.79144 9.46776L10.0189 10.3234C9.94589 10.368 9.87726 10.4144 9.8103 10.4616L7.03397 11.1945L6.78853 10.2616ZM18.9976 16.3876C18.9976 17.3668 16.9688 18.1598 14.4636 18.1598C11.9611 18.1598 9.93049 17.366 9.93049 16.3876V15.2848C9.93049 15.2479 9.95193 15.2144 9.95794 15.1792C10.1013 16.1079 12.0528 16.8442 14.4636 16.8442C16.8752 16.8442 18.8277 16.1078 18.9701 15.1792C18.9761 15.2144 18.9976 15.2479 18.9976 15.2848V16.3876ZM18.9976 14.218C18.9976 15.1964 16.9688 15.9894 14.4636 15.9894C11.9611 15.9894 9.93049 15.1964 9.93049 14.218V13.1152C9.93049 13.0792 9.95193 13.0448 9.95794 13.0097C10.1013 13.9374 12.0528 14.6755 14.4636 14.6755C16.8752 14.6755 18.8277 13.9374 18.9701 13.0097C18.9761 13.0448 18.9976 13.0792 18.9976 13.1152V14.218ZM14.4636 13.6782C11.961 13.6782 9.93045 12.8852 9.93045 11.9077C9.93045 10.9301 11.961 10.1372 14.4636 10.1372C16.9687 10.1372 18.9975 10.9301 18.9975 11.9077C18.9976 12.8852 16.9687 13.6782 14.4636 13.6782Z" fill="#B0B4BA"/>
</svg>
