<svg width="22" height="24" viewBox="0 0 22 24" fill="none" xmlns="http://www.w3.org/2000/svg">
<path d="M13.6484 18.8619C16.9133 16.9424 18.3084 13.975 18.7545 12.8775C18.9833 12.3145 19.1132 11.8727 19.2509 11.4042C19.4319 10.7884 19.573 10.1976 19.6846 9.6365V7.89698C19.6846 5.40314 18.9206 3.46464 17.3961 2.07816C15.8683 0.694901 13.5799 0 10.5307 0C8.41254 0 6.60002 0.385089 5.08984 1.15111C6.29632 0.825336 8.72795 0.300585 11.3321 1.26641C12.1599 1.57342 13.3972 2.03234 14.2809 3.25354C14.8729 4.07141 15.0689 4.90358 15.2557 5.69626C15.4007 6.31184 15.4759 6.88584 15.5092 7.40043C15.5145 7.42842 15.5195 7.45621 15.5239 7.4813C15.5838 8.45159 15.6253 9.45526 15.644 10.4903C15.6791 12.4321 15.6306 14.273 15.5239 16.0015C15.175 16.6642 14.5157 17.6916 13.3539 18.5647C12.9629 18.8586 12.5419 19.1125 12.0912 19.3266C11.0619 19.8178 10.0849 20.1329 9.15938 20.2758C9.63955 20.2593 10.1181 20.1999 10.587 20.0947C11.9781 19.7826 12.9449 19.2755 13.6484 18.8619Z" fill="#B0B4BA"/>
<path d="M14.343 3.24002C13.4584 2.01208 12.2201 1.55068 11.3917 1.24201C8.78525 0.270897 6.35165 0.798552 5.14403 1.12599C4.67455 1.3653 4.23336 1.64037 3.82246 1.9536C2.65849 2.84125 2.05162 3.80874 1.89599 4.058C0.855613 5.72494 0.682459 7.42113 0.683599 8.39224C0.684118 8.81373 0.717504 9.16304 0.747884 9.40318C0.928711 9.21955 1.20441 8.96542 1.57674 8.71523C2.24188 8.26814 2.86524 8.06906 3.46703 7.91281C5.2107 7.46012 7.11892 7.27742 7.78261 7.2205C8.05157 7.17788 8.3732 7.09919 8.71827 6.95226C9.54816 6.59891 10.0685 6.04035 10.3376 5.69809C9.35821 6.15596 8.21042 6.2217 7.18062 5.89374C6.91249 5.80831 6.61481 5.6505 6.57582 5.37107C6.54824 5.17386 6.66354 4.98681 6.78464 4.8291C6.80268 4.80567 6.82238 4.78379 6.84094 4.76078C6.87568 4.73029 6.90989 4.6994 6.94567 4.67005C8.08517 3.73564 9.61691 3.69541 10.5895 3.72984C11.6231 3.76623 13.1079 3.81869 14.2938 4.95944C15.1893 5.82075 15.4727 6.87689 15.572 7.40962C15.5387 6.89223 15.4634 6.31512 15.3182 5.69612C15.1316 4.8992 14.9353 4.06246 14.343 3.24002Z" fill="#B0B4BA"/>
<path d="M1.89734 17.9012C2.31613 16.4214 3.52914 15.263 4.91168 14.5881C5.73234 14.1874 6.61149 13.9369 7.51013 13.7636C8.2182 13.5776 8.96556 13.4779 9.61888 13.3368C12.0268 12.8165 13.0687 12.4693 13.9967 11.7456C14.3885 11.44 14.744 11.08 14.989 10.563C15.3884 9.71997 15.285 8.90064 15.2109 8.52344C14.8497 8.77 14.3394 8.98795 13.6763 9.17728C12.2198 9.59326 10.5194 9.94092 8.5785 10.2171C5.66547 10.6331 3.51327 11.465 2.12825 12.7129C0.133864 14.5098 -0.578039 17.6928 0.505575 20.1607C1.01591 21.3232 1.84384 22.1959 2.84316 22.8243C2.46357 22.2141 2.16827 21.5514 1.97345 20.8595C1.70283 19.8977 1.62527 18.8625 1.89734 17.9012Z" fill="#B0B4BA"/>
<path d="M20.0748 22.1333C19.9405 21.7922 19.8897 21.3347 19.7934 20.4336C19.7405 19.9384 19.7093 19.5273 19.6906 19.2442V9.60156C19.5795 10.1601 19.4388 10.7479 19.2585 11.3607C19.1213 11.8269 18.9919 12.2666 18.7639 12.8267C18.3194 13.9188 16.9293 16.8716 13.6762 18.7817C12.9754 19.1933 12.012 19.698 10.6258 20.0084C10.1587 20.1132 9.68178 20.1724 9.20327 20.1886C8.82078 20.2477 8.44689 20.278 8.08223 20.278C6.458 20.278 4.9048 19.5677 4.44257 17.8845C4.10165 16.643 4.6009 15.1594 5.63267 14.3788C6.08639 14.0355 6.64246 13.8241 7.22527 13.6714C6.32995 13.8438 5.45412 14.0929 4.63656 14.4913C3.25921 15.1623 2.05076 16.3141 1.63363 17.7855C1.3627 18.7413 1.43985 19.7706 1.70953 20.7268C1.90353 21.4146 2.19768 22.0735 2.57592 22.6803C4.05427 23.6082 5.9094 24.0002 7.6678 24.0002C9.18679 24.0002 10.6379 23.7256 12.0209 23.173C13.4007 22.6238 14.5763 21.7966 15.5448 20.6915C15.6518 21.1436 15.954 22.1213 16.843 22.8918C18.681 24.4846 21.2255 23.6303 21.3488 23.5866C20.5206 23.053 20.2073 22.47 20.0748 22.1333Z" fill="#B0B4BA"/>
</svg>
