<svg width="20" height="19" viewBox="0 0 20 19" fill="none" xmlns="http://www.w3.org/2000/svg">
<g id="Group 1171282834">
<path id="Vector" d="M12.98 0H1.73504C0.778274 0 0 0.778062 0 1.73483C0 2.69164 0.778274 3.47012 1.73504 3.47012H13.8493V0.86936C13.8493 0.39011 13.4594 0 12.98 0Z" fill="#B0B4BA"/>
<path id="Vector_2" d="M18.6479 8.19982V6.33423C18.6479 5.23992 17.7576 4.34937 16.663 4.34937H14.7187H14.284H1.73504C1.06824 4.34937 0.461143 4.09532 0 3.68164V16.377C0 17.4714 0.890302 18.3619 1.98486 18.3619H16.663C17.7576 18.3619 18.6479 17.4714 18.6479 16.377V14.5534H13.9417L12.2598 11.3766L13.9417 8.19982H18.6479ZM9.32393 16.4781H1.67221V15.6087H9.32393V16.4781Z" fill="#B0B4BA"/>
<path id="Vector_3" d="M19.9521 9.05859H14.4717L13.25 11.3661L14.4717 13.6736H19.9521C19.9793 13.6736 20.0014 13.6515 20.0014 13.6243V9.10784C20.0014 9.08068 19.9793 9.05859 19.9521 9.05859ZM16.2134 12.4197C15.6315 12.4197 15.1597 11.948 15.1597 11.3661C15.1597 10.7841 15.6315 10.3124 16.2134 10.3124C16.7953 10.3124 17.2671 10.7841 17.2671 11.3661C17.2671 11.948 16.7953 12.4197 16.2134 12.4197Z" fill="#B0B4BA"/>
</g>
</svg>
