<?xml version="1.0" encoding="utf-8"?>
<!-- Generator: Adobe Illustrator 17.0.0, SVG Export Plug-In . SVG Version: 6.00 Build 0)  -->
<!DOCTYPE svg PUBLIC "-//W3C//DTD SVG 1.1//EN" "http://www.w3.org/Graphics/SVG/1.1/DTD/svg11.dtd">
<svg version="1.1" id="Layer_1" xmlns="http://www.w3.org/2000/svg" xmlns:xlink="http://www.w3.org/1999/xlink" x="0px" y="0px"
	 width="20px" height="19px" viewBox="0 0 20 19" enable-background="new 0 0 20 19" xml:space="preserve">
<g id="Group_1171282901">
	<path id="Vector" fill="#33FFCC" d="M12.98,0H1.735C0.778,0,0,0.778,0,1.735C0,2.692,0.778,3.47,1.735,3.47h12.114V0.869
		C13.849,0.39,13.459,0,12.98,0z"/>
	<path id="Vector_2" fill="#33FFCC" d="M18.648,8.2V6.334c0-1.094-0.89-1.985-1.985-1.985h-1.944h-0.435H1.735
		C1.068,4.349,0.461,4.095,0,3.682v12.695c0,1.094,0.89,1.985,1.985,1.985h14.678c1.095,0,1.985-0.891,1.985-1.985v-1.824h-4.706
		l-1.682-3.177L13.942,8.2H18.648z M9.324,16.478H1.672v-0.869h7.652V16.478z"/>
	<path id="Vector_3" fill="#33FFCC" d="M19.952,9.059h-5.48l-1.222,2.308l1.222,2.307h5.48c0.027,0,0.049-0.022,0.049-0.049V9.108
		C20.001,9.081,19.979,9.059,19.952,9.059z M16.213,12.42c-0.582,0-1.054-0.472-1.054-1.054c0-0.582,0.472-1.054,1.054-1.054
		s1.054,0.472,1.054,1.054C17.267,11.948,16.795,12.42,16.213,12.42z"/>
</g>
</svg>
