<svg width="20" height="18" viewBox="0 0 20 18" fill="none" xmlns="http://www.w3.org/2000/svg">
<path d="M20 3.73V10.72C20 13.42 19.37 14.29 17 14.43V7.27999C17 4.3 16.24 3.55 13.22 3.55H3.78003C3.50003 3.55 3.24 3.56 3 3.57C3.03 0.72 3.81003 0 6.78003 0H16.22C19.24 0 20 0.749999 20 3.73Z" fill="#B0B4BA"/>
<path opacity="0.8" fill-rule="evenodd" clip-rule="evenodd" d="M17 8.86523V7.28273C17 4.30273 16.24 3.55273 13.22 3.55273H3.78003C3.50003 3.55273 3.24 3.56273 3 3.57273C0.629999 3.71273 0 4.58273 0 7.28273V8.86523H17ZM17 10.3652H0V14.2727C0 17.2527 0.760029 18.0027 3.78003 18.0027H13.22C16.19 18.0027 16.97 17.2827 17 14.4327V10.3652ZM3.23828 15.5605H4.95832C5.37832 15.5605 5.70832 15.2205 5.70832 14.8105C5.70832 14.4005 5.36832 14.0605 4.95832 14.0605H3.23828C2.82828 14.0605 2.48828 14.4005 2.48828 14.8105C2.48828 15.2205 2.82828 15.5605 3.23828 15.5605ZM10.5494 15.5605H7.10937C6.69937 15.5605 6.35938 15.2205 6.35938 14.8105C6.35938 14.4005 6.69937 14.0605 7.10937 14.0605H10.5494C10.9594 14.0605 11.2994 14.4005 11.2994 14.8105C11.2994 15.2205 10.9694 15.5605 10.5494 15.5605Z" fill="#B0B4BA"/>
</svg>
