<?xml version="1.0" encoding="utf-8"?>
<!-- Generator: Adobe Illustrator 17.0.0, SVG Export Plug-In . SVG Version: 6.00 Build 0)  -->
<!DOCTYPE svg PUBLIC "-//W3C//DTD SVG 1.1//EN" "http://www.w3.org/Graphics/SVG/1.1/DTD/svg11.dtd">
<svg version="1.1" id="Layer_1" xmlns="http://www.w3.org/2000/svg" xmlns:xlink="http://www.w3.org/1999/xlink" x="0px" y="0px"
	 width="20px" height="20px" viewBox="0 0 20 20" enable-background="new 0 0 20 20" xml:space="preserve">
<path fill="#33FFCC" d="M19.209,10.528c0.18-0.232,0.268-0.53,0.188-0.835l-2.366-8.968c-0.137-0.518-0.67-0.829-1.188-0.692
	L0.723,4.019C0.208,4.155-0.104,4.69,0.032,5.208l2.366,8.968c0.136,0.517,0.671,0.828,1.189,0.693l5.342-1.409v3.003
	c0,1.68,2.783,2.558,5.535,2.558c2.75,0,5.536-0.879,5.536-2.558v-4.554C20,11.361,19.7,10.901,19.209,10.528z M17.497,7.436
	l0.247,0.934l-3.005,0.794l-0.246-0.935L17.497,7.436z M15.753,1.528l0.469,1.778l-4.695,1.239l-0.469-1.778L15.753,1.528z
	 M13.646,8.452l0.24,0.913c-1.111,0.05-2.193,0.244-3.061,0.575l-0.184-0.693L13.646,8.452z M3.182,12.211l-0.245-0.932l3.005-0.795
	l0.247,0.937L3.182,12.211z M6.789,10.262l3.003-0.794l0.227,0.856c-0.073,0.045-0.142,0.091-0.209,0.138l-2.776,0.733L6.789,10.262
	z M18.998,16.388c0,0.979-2.029,1.772-4.534,1.772c-2.503,0-4.533-0.794-4.533-1.772v-1.103c0-0.037,0.021-0.07,0.027-0.106
	c0.143,0.929,2.095,1.665,4.506,1.665c2.412,0,4.364-0.736,4.507-1.665c0.006,0.035,0.028,0.069,0.028,0.106V16.388z M18.998,14.218
	c0,0.978-2.029,1.771-4.534,1.771c-2.503,0-4.533-0.793-4.533-1.771v-1.103c0-0.036,0.021-0.07,0.027-0.106
	c0.143,0.928,2.095,1.666,4.506,1.666c2.412,0,4.364-0.738,4.507-1.666c0.006,0.035,0.028,0.069,0.028,0.106V14.218z M14.464,13.678
	c-2.503,0-4.533-0.793-4.533-1.771c0-0.978,2.031-1.77,4.533-1.77c2.505,0,4.534,0.793,4.534,1.77
	C18.998,12.885,16.969,13.678,14.464,13.678z"/>
</svg>
