<svg width="204" height="205" viewBox="0 0 204 205" fill="none" xmlns="http://www.w3.org/2000/svg">
<path d="M2.79192 173.401C10.6072 192.481 23.3499 196.453 32.3097 192.481C49.6373 184.801 94.6483 176.219 140.876 196.391C202.102 223.108 215.129 182.799 195.589 142.026C176.049 101.252 169.425 60.0193 191.952 37.3022C214.479 14.585 185 -20.9522 132.65 16.0397C98.8199 39.9453 73.9923 34.6221 60.6601 27.8639C48.0948 21.4947 34.1207 14.836 21.0284 20.035C5.14182 26.3438 -1.11734 40.0219 23.0524 70.5785C57.3044 113.88 -14.7282 130.633 2.79192 173.401Z" fill="url(#paint0_radial_611_1169)" fill-opacity="0.5"/>
<path d="M176.264 44.9277C176.06 45.186 175.831 45.4237 175.581 45.6374L157.677 61.1318L144.314 101.721L107.06 128.943C107.06 128.943 100.712 134.261 94.9183 134.754C93.6212 135.208 89.6916 136.737 87.5151 139.099C86.8133 139.862 81.3103 156.114 72.7751 179.097C72.348 180.247 71.5063 181.196 70.4153 181.757C69.3243 182.319 68.0629 182.452 66.8787 182.131C56.2131 179.237 32.3238 172.862 20.9576 168.556C20.2572 168.291 19.6322 167.859 19.1374 167.297C18.6426 166.735 18.2931 166.06 18.1193 165.332C17.9455 164.604 17.9528 163.844 18.1405 163.119C18.3283 162.394 18.6907 161.726 19.1962 161.174C32.257 146.897 59.7165 114.22 59.7165 114.22L61.5794 110.351C61.5794 110.351 73.3102 73.6986 77.1471 71.3163C78.5981 69.7407 86.9445 57.5227 90.2286 48.9991C90.975 47.7586 94.4368 42.5959 97.3365 38.1384C99.3912 34.9519 101.175 32.1173 101.479 31.3076C101.544 31.1221 101.654 30.9552 101.798 30.8215C101.798 30.8215 101.789 30.8189 101.801 30.8122C103.185 29.3669 107.776 29.6933 107.999 35.1805C108.248 41.2334 102.804 53.79 101.709 54.1321C101.154 55.4675 99.5795 62.6597 96.4986 68.7496C96.2333 69.67 95.837 72.0479 98.4356 71.4711C101.037 70.8851 161.202 42.5409 161.202 42.5409L168.664 37.8533C169.763 37.1419 171.071 36.8232 172.374 36.9487C173.918 37.1262 175.333 37.8949 176.322 39.0934C178.451 41.5606 177.06 43.9309 176.264 44.9277Z" fill="url(#paint1_linear_611_1169)"/>
<path d="M100.379 39.1337C99.3034 39.2324 98.206 38.7168 97.3369 38.1371C99.3916 34.9506 101.175 32.1159 101.479 31.3063C101.545 31.1207 101.654 30.9539 101.799 30.8202C104.275 33.7771 100.675 38.8304 100.379 39.1337Z" fill="white"/>
<path d="M161.862 32.5991L117.773 19.8908C114.698 19.0045 111.487 20.7786 110.601 23.8531L83.9222 116.413C83.036 119.487 84.81 122.698 87.8845 123.584L131.974 136.293C135.048 137.179 138.259 135.405 139.145 132.33L165.824 39.7707C166.711 36.6961 164.937 33.4853 161.862 32.5991Z" fill="#C0C0DD"/>
<path d="M159.544 34.9172L118.501 23.0868C116.195 22.4221 113.787 23.7526 113.122 26.0585L87.23 115.888C86.5654 118.194 87.8959 120.602 90.2018 121.266L131.245 133.097C133.551 133.761 135.959 132.431 136.624 130.125L162.516 40.2959C163.181 37.99 161.85 35.5818 159.544 34.9172Z" fill="#F8FAFC"/>
<path d="M161.644 65.1973L154.245 65.139C150.584 65.1101 147.594 68.0539 147.565 71.7141C147.536 75.3743 150.48 78.3649 154.14 78.3938L161.54 78.4522C165.2 78.4811 168.191 75.5373 168.219 71.877C168.248 68.2168 165.305 65.2262 161.644 65.1973Z" fill="url(#paint2_linear_611_1169)"/>
<path d="M159.079 78.8954L149.71 78.8215C146.742 78.798 144.316 81.1852 144.293 84.1534C144.27 87.1215 146.657 89.5466 149.625 89.5701L158.994 89.644C161.962 89.6674 164.387 87.2802 164.411 84.3121C164.434 81.3439 162.047 78.9188 159.079 78.8954Z" fill="url(#paint3_linear_611_1169)"/>
<path d="M152.831 90.6552L147.296 90.6115C145.052 90.5938 143.219 92.3982 143.201 94.6417C143.184 96.8852 144.988 98.7183 147.231 98.736L152.767 98.7797C155.011 98.7974 156.844 96.993 156.861 94.7495C156.879 92.506 155.075 90.6729 152.831 90.6552Z" fill="url(#paint4_linear_611_1169)"/>
<path d="M149.574 92.1313L146.34 92.1058C145.78 92.1014 145.323 92.5517 145.318 93.1116L145.295 96.0052C145.291 96.5651 145.741 97.0226 146.301 97.027L149.535 97.0525C150.095 97.057 150.553 96.6066 150.557 96.0467L150.58 93.1531C150.585 92.5932 150.134 92.1357 149.574 92.1313Z" fill="white"/>
<path d="M152.854 81.3758L149.23 81.3472C148.03 81.3378 147.05 82.3028 147.04 83.5026L147.027 85.2552C147.017 86.455 147.982 87.4354 149.182 87.4448L152.806 87.4734C154.005 87.4829 154.986 86.5179 154.995 85.318L155.009 83.5655C155.018 82.3656 154.053 81.3853 152.854 81.3758Z" fill="white"/>
<path d="M157.495 67.4731L154.57 67.45C152.97 67.4374 151.663 68.724 151.65 70.3239L151.632 72.6247C151.619 74.2245 152.906 75.5317 154.506 75.5443L157.431 75.5674C159.031 75.58 160.338 74.2933 160.351 72.6935L160.369 70.3926C160.382 68.7928 159.095 67.4857 157.495 67.4731Z" fill="white"/>
<path d="M53.2198 92.1088C53.0111 92.7532 52.9982 93.445 53.1827 94.0967C53.3672 94.7485 53.7408 95.3308 54.2563 95.7702C54.7718 96.2096 55.406 96.4863 56.0787 96.5653C56.7514 96.6442 57.4324 96.522 58.0356 96.2139C58.6389 95.9058 59.1372 95.4257 59.4676 94.8345C59.798 94.2432 59.9456 93.5672 59.8919 92.892C59.8381 92.2168 59.5853 91.5727 59.1655 91.0411C58.7456 90.5096 58.1776 90.1145 57.5333 89.9058C56.6691 89.626 55.7292 89.701 54.9203 90.1141C54.1114 90.5272 53.4998 91.2447 53.2198 92.1088Z" fill="url(#paint5_linear_611_1169)"/>
<path d="M51.672 83.7573C50.4342 84.3851 49.3333 85.2522 48.433 86.3085C47.5327 87.3649 46.851 88.5893 46.4274 89.911C46.2636 90.4167 46.3074 90.9668 46.5491 91.4402C46.7909 91.9136 47.2109 92.2716 47.7166 92.4354C48.2223 92.5992 48.7724 92.5554 49.2458 92.3136C49.7192 92.0719 50.0772 91.6519 50.241 91.1462C50.5061 90.3272 50.93 89.5684 51.4884 88.9133C52.0469 88.2581 52.7289 87.7194 53.4955 87.3278C54.2622 86.9363 55.0985 86.6996 55.9566 86.6313C56.8147 86.563 57.6779 86.6644 58.4969 86.9297C59.0026 87.0935 59.5527 87.0497 60.0261 86.8079C60.4995 86.5662 60.8575 86.1462 61.0213 85.6405C61.1851 85.1348 61.1413 84.5847 60.8995 84.1113C60.6577 83.6378 60.2378 83.2799 59.7321 83.1161C58.4129 82.6845 57.0213 82.5189 55.6378 82.629C54.2542 82.7391 52.9063 83.1226 51.672 83.7573V83.7573Z" fill="url(#paint6_linear_611_1169)"/>
<path d="M48.6699 77.876C46.6586 78.8962 44.8698 80.3052 43.4068 82.0215C41.9438 83.7378 40.8358 85.7272 40.1469 87.8747C40.0644 88.1254 40.0321 88.3901 40.0521 88.6533C40.0721 88.9166 40.144 89.1733 40.2635 89.4088C40.383 89.6442 40.5478 89.8537 40.7486 90.0252C40.9493 90.1967 41.1819 90.3269 41.4331 90.4083C41.6843 90.4896 41.949 90.5206 42.2122 90.4993C42.4754 90.478 42.7317 90.405 42.9666 90.2843C43.2014 90.1636 43.4101 89.9978 43.5807 89.7962C43.7512 89.5947 43.8803 89.3614 43.9604 89.1099C44.4927 87.4662 45.3434 85.9434 46.4642 84.6285C47.585 83.3136 48.9538 82.2324 50.4925 81.4466C52.0311 80.6608 53.7095 80.1857 55.4318 80.0486C57.1541 79.9115 58.8865 80.1149 60.5301 80.6474C61.0358 80.8112 61.5859 80.7673 62.0593 80.5255C62.5327 80.2838 62.8907 79.8638 63.0545 79.3581C63.2182 78.8524 63.1744 78.3023 62.9326 77.8289C62.6908 77.3555 62.2709 76.9975 61.7652 76.8337C59.6219 76.1329 57.3609 75.8641 55.1131 76.043C52.8653 76.2219 50.6753 76.8449 48.6699 77.876V77.876Z" fill="url(#paint7_linear_611_1169)"/>
<path d="M63.8046 70.5431C60.8337 69.5806 57.7023 69.2128 54.5892 69.4606C51.4762 69.7085 48.4424 70.5671 45.6612 71.9875C42.88 73.4079 40.4058 75.3623 38.38 77.739C36.3542 80.1157 34.8163 82.8682 33.8544 85.8393C33.7733 86.0897 33.7423 86.3537 33.7632 86.616C33.7841 86.8784 33.8564 87.1341 33.9761 87.3685C34.0959 87.603 34.2606 87.8115 34.4609 87.9822C34.6612 88.153 34.8932 88.2826 35.1436 88.3637C35.394 88.4449 35.6579 88.4758 35.9203 88.4549C36.1827 88.434 36.4384 88.3617 36.6728 88.242C36.9072 88.1222 37.1157 87.9575 37.2865 87.7572C37.4573 87.5569 37.5869 87.3249 37.668 87.0745C38.4678 84.6043 39.7463 82.3158 41.4306 80.3398C43.1149 78.3638 45.172 76.7389 47.4843 75.558C49.7967 74.377 52.319 73.6632 54.9072 73.4572C57.4955 73.2512 60.099 73.5571 62.569 74.3575C63.0748 74.5213 63.625 74.4775 64.0985 74.2357C64.5721 73.9939 64.9301 73.5739 65.094 73.0681C65.2578 72.5623 65.2141 72.0121 64.9723 71.5385C64.7304 71.065 64.3104 70.7069 63.8046 70.5431V70.5431Z" fill="url(#paint8_linear_611_1169)"/>
<path d="M181.637 5.61824C176.935 2.74662 173.073 4.21487 171.924 6.09621C171.095 7.45497 171.861 8.78388 172.802 9.35832C174.683 10.5069 175.554 7.35647 179.107 9.52619C180.849 10.5898 181.774 12.2072 180.795 13.8096C179.647 15.6908 177.037 15.5795 175.292 15.853C173.75 16.1072 171.554 16.7273 169.724 19.7231C168.618 21.5347 168.786 22.3549 170.215 23.2271C171.921 24.2693 172.738 23.7157 173.142 23.0533C174.248 21.2418 174.921 20.2179 177.752 19.8899C179.139 19.7327 183.546 19.1716 185.546 15.897C187.546 12.6225 186.095 8.34096 181.637 5.61824Z" fill="url(#paint9_linear_611_1169)"/>
<path d="M168.781 25.652C168.429 25.4369 168.038 25.2933 167.63 25.2293C167.222 25.1654 166.806 25.1824 166.405 25.2794C166.003 25.3764 165.625 25.5514 165.292 25.7946C164.958 26.0377 164.676 26.3441 164.461 26.6964C164.246 27.0487 164.102 27.4399 164.038 27.8477C163.974 28.2555 163.991 28.6718 164.088 29.0731C164.185 29.4743 164.36 29.8524 164.603 30.186C164.846 30.5196 165.153 30.802 165.505 31.0171C166.216 31.4516 167.071 31.5856 167.882 31.3898C168.692 31.1939 169.391 30.6842 169.826 29.9727C170.26 29.2613 170.394 28.4064 170.198 27.5961C170.003 26.7858 169.493 26.0865 168.781 25.652V25.652Z" fill="url(#paint10_linear_611_1169)"/>
<defs>
<radialGradient id="paint0_radial_611_1169" cx="0" cy="0" r="1" gradientUnits="userSpaceOnUse" gradientTransform="translate(102 102.504) scale(101.069 103.462)">
<stop stop-color="#3354CC"/>
<stop offset="1" stop-color="#3354CC"/>
</radialGradient>
<linearGradient id="paint1_linear_611_1169" x1="17.9944" y1="106.191" x2="177.451" y2="106.191" gradientUnits="userSpaceOnUse">
<stop stop-color="#F4D0C6"/>
<stop offset="1" stop-color="#F8E9E5"/>
</linearGradient>
<linearGradient id="paint2_linear_611_1169" x1="147.565" y1="71.7141" x2="168.219" y2="71.877" gradientUnits="userSpaceOnUse">
<stop stop-color="#F4D0C6"/>
<stop offset="1" stop-color="#F8E9E5"/>
</linearGradient>
<linearGradient id="paint3_linear_611_1169" x1="144.293" y1="84.1534" x2="164.411" y2="84.3121" gradientUnits="userSpaceOnUse">
<stop stop-color="#F4D0C6"/>
<stop offset="1" stop-color="#F8E9E5"/>
</linearGradient>
<linearGradient id="paint4_linear_611_1169" x1="143.201" y1="94.6417" x2="156.861" y2="94.7495" gradientUnits="userSpaceOnUse">
<stop stop-color="#F4D0C6"/>
<stop offset="1" stop-color="#F8E9E5"/>
</linearGradient>
<linearGradient id="paint5_linear_611_1169" x1="53.0532" y1="93.164" x2="59.9027" y2="93.164" gradientUnits="userSpaceOnUse">
<stop stop-color="#3354CC"/>
<stop offset="1" stop-color="#3354CC"/>
</linearGradient>
<linearGradient id="paint6_linear_611_1169" x1="46.3298" y1="87.5645" x2="61.1189" y2="87.5645" gradientUnits="userSpaceOnUse">
<stop stop-color="#3354CC"/>
<stop offset="1" stop-color="#3354CC"/>
</linearGradient>
<linearGradient id="paint7_linear_611_1169" x1="40.0463" y1="83.2476" x2="63.1522" y2="83.2476" gradientUnits="userSpaceOnUse">
<stop stop-color="#3354CC"/>
<stop offset="1" stop-color="#3354CC"/>
</linearGradient>
<linearGradient id="paint8_linear_611_1169" x1="33.7567" y1="78.9235" x2="65.1918" y2="78.9235" gradientUnits="userSpaceOnUse">
<stop stop-color="#3354CC"/>
<stop offset="1" stop-color="#3354CC"/>
</linearGradient>
<linearGradient id="paint9_linear_611_1169" x1="169.003" y1="13.9055" x2="186.427" y2="13.9055" gradientUnits="userSpaceOnUse">
<stop stop-color="#3354CC"/>
<stop offset="1" stop-color="#3354CC"/>
</linearGradient>
<linearGradient id="paint10_linear_611_1169" x1="164" y1="28.3346" x2="170.286" y2="28.3346" gradientUnits="userSpaceOnUse">
<stop stop-color="#3354CC"/>
<stop offset="1" stop-color="#3354CC"/>
</linearGradient>
</defs>
</svg>
