<svg width="200" height="206" viewBox="0 0 200 206" fill="none" xmlns="http://www.w3.org/2000/svg">
<path d="M2.73718 175.005C10.3992 193.703 22.8921 197.595 31.6762 193.703C48.6641 186.176 92.7924 177.766 138.114 197.534C198.14 223.716 210.911 184.215 191.754 144.258C172.597 104.302 166.103 63.8948 188.188 41.6329C210.273 19.371 181.373 -15.4542 130.049 20.7965C96.8823 44.2231 72.5415 39.0065 59.4707 32.3838C47.1518 26.1422 33.4517 19.6169 20.6161 24.7117C5.041 30.8941 -1.09543 44.2981 22.6004 74.2424C56.1808 116.676 -14.4394 133.093 2.73718 175.005Z" fill="#1B1B20"/>
<path d="M176.264 45.9261C176.06 46.1844 175.831 46.4221 175.581 46.6358L157.677 62.1302L144.314 102.719L107.06 129.942C107.06 129.942 100.712 135.26 94.9183 135.753C93.6212 136.206 89.6916 137.735 87.5151 140.098C86.8133 140.86 81.3103 157.112 72.7751 180.095C72.348 181.245 71.5063 182.194 70.4153 182.756C69.3243 183.317 68.0629 183.451 66.8787 183.13C56.2131 180.235 32.3238 173.861 20.9576 169.555C20.2572 169.29 19.6322 168.858 19.1374 168.296C18.6426 167.733 18.2931 167.059 18.1193 166.33C17.9455 165.602 17.9528 164.842 18.1405 164.117C18.3283 163.392 18.6907 162.725 19.1962 162.172C32.257 147.896 59.7165 115.218 59.7165 115.218L61.5794 111.349C61.5794 111.349 73.3102 74.697 77.1471 72.3147C78.5981 70.7391 86.9445 58.5211 90.2286 49.9975C90.975 48.7571 94.4368 43.5943 97.3365 39.1369C99.3912 35.9504 101.175 33.1157 101.479 32.306C101.544 32.1205 101.654 31.9536 101.798 31.8199C101.798 31.8199 101.789 31.8173 101.801 31.8107C103.185 30.3653 107.776 30.6918 107.999 36.1789C108.248 42.2318 102.804 54.7884 101.709 55.1305C101.154 56.4659 99.5795 63.6581 96.4986 69.748C96.2333 70.6684 95.837 73.0463 98.4356 72.4695C101.037 71.8835 161.202 43.5393 161.202 43.5393L168.664 38.8517C169.763 38.1404 171.071 37.8216 172.374 37.9471C173.918 38.1247 175.333 38.8933 176.322 40.0918C178.451 42.559 177.06 44.9293 176.264 45.9261Z" fill="#282B34"/>
<path d="M100.379 40.1338C99.3034 40.2326 98.206 39.7169 97.3369 39.1373C99.3916 35.9508 101.175 33.1161 101.479 32.3064C101.545 32.1208 101.654 31.954 101.799 31.8203C104.275 34.7773 100.675 39.8305 100.379 40.1338Z" fill="#3A3F4D"/>
<path d="M161.862 33.5981L117.773 20.8898C114.698 20.0036 111.488 21.7776 110.601 24.8522L83.9224 117.412C83.0362 120.486 84.8102 123.697 87.8848 124.583L131.974 137.292C135.049 138.178 138.259 136.404 139.146 133.329L165.825 40.7697C166.711 37.6951 164.937 34.4843 161.862 33.5981Z" fill="#1B1B20"/>
<path d="M159.544 35.9167L118.5 24.0863C116.195 23.4216 113.786 24.7521 113.122 27.0581L87.2298 116.887C86.5651 119.193 87.8956 121.601 90.2015 122.266L131.245 134.096C133.551 134.761 135.959 133.43 136.624 131.124L162.516 41.2954C163.18 38.9895 161.85 36.5814 159.544 35.9167Z" fill="#3A3F4D"/>
<path d="M161.644 66.1966L154.245 66.1382C150.584 66.1093 147.594 69.0531 147.565 72.7134C147.536 76.3736 150.48 79.3642 154.14 79.3931L161.54 79.4515C165.2 79.4803 168.191 76.5365 168.219 72.8763C168.248 69.2161 165.305 66.2255 161.644 66.1966Z" fill="#282B34"/>
<path d="M159.079 79.8937L149.71 79.8197C146.742 79.7963 144.317 82.1835 144.294 85.1516C144.27 88.1198 146.657 90.5449 149.625 90.5684L158.994 90.6423C161.963 90.6657 164.388 88.2785 164.411 85.3104C164.435 82.3422 162.047 79.9171 159.079 79.8937Z" fill="#282B34"/>
<path d="M152.831 91.6538L147.296 91.6102C145.052 91.5925 143.219 93.3968 143.201 95.6404C143.184 97.8839 144.988 99.7169 147.231 99.7346L152.767 99.7783C155.011 99.796 156.844 97.9916 156.861 95.7481C156.879 93.5046 155.075 91.6715 152.831 91.6538Z" fill="#282B34"/>
<path d="M149.574 93.1312L146.34 93.1057C145.78 93.1012 145.323 93.5516 145.318 94.1115L145.295 97.0051C145.291 97.565 145.741 98.0225 146.301 98.0269L149.535 98.0524C150.095 98.0568 150.553 97.6065 150.557 97.0466L150.58 94.153C150.585 93.5931 150.134 93.1356 149.574 93.1312Z" fill="#3A3F4D"/>
<path d="M152.854 82.3739L149.23 82.3453C148.03 82.3358 147.05 83.3008 147.04 84.5007L147.027 86.2532C147.017 87.4531 147.982 88.4334 149.182 88.4429L152.806 88.4715C154.005 88.4809 154.986 87.5159 154.995 86.3161L155.009 84.5635C155.018 83.3637 154.053 82.3833 152.854 82.3739Z" fill="#3A3F4D"/>
<path d="M157.495 68.4717L154.57 68.4486C152.97 68.436 151.663 69.7227 151.65 71.3225L151.632 73.6234C151.619 75.2232 152.906 76.5303 154.506 76.543L157.431 76.566C159.031 76.5787 160.338 75.292 160.351 73.6922L160.369 71.3913C160.382 69.7915 159.095 68.4843 157.495 68.4717Z" fill="#3A3F4D"/>
<path d="M48.2203 96.1078C48.0116 96.7522 47.9987 97.444 48.1832 98.0957C48.3677 98.7475 48.7413 99.3299 49.2568 99.7693C49.7723 100.209 50.4065 100.485 51.0792 100.564C51.7519 100.643 52.4329 100.521 53.0361 100.213C53.6394 99.9048 54.1377 99.4248 54.4681 98.8335C54.7985 98.2422 54.9461 97.5662 54.8923 96.891C54.8386 96.2158 54.5858 95.5717 54.166 95.0401C53.7461 94.5086 53.1781 94.1135 52.5337 93.9048C51.6696 93.625 50.7297 93.7 49.9208 94.1131C49.1119 94.5262 48.5002 95.2437 48.2203 96.1078Z" fill="#8A939A"/>
<path d="M46.6723 87.759C45.4345 88.3868 44.3335 89.2539 43.4332 90.3102C42.533 91.3666 41.8513 92.591 41.4276 93.9127C41.2638 94.4184 41.3076 94.9685 41.5494 95.4419C41.7912 95.9154 42.2111 96.2733 42.7168 96.4371C43.2225 96.6009 43.7726 96.5571 44.246 96.3154C44.7195 96.0736 45.0774 95.6536 45.2412 95.1479C45.5064 94.3289 45.9303 93.5701 46.4887 92.915C47.0471 92.2598 47.7291 91.7211 48.4958 91.3295C49.2624 90.938 50.0987 90.7013 50.9568 90.633C51.815 90.5647 52.6782 90.6661 53.4971 90.9314C54.0028 91.0952 54.5529 91.0514 55.0263 90.8096C55.4997 90.5679 55.8577 90.1479 56.0215 89.6422C56.1853 89.1365 56.1415 88.5864 55.8997 88.113C55.658 87.6396 55.238 87.2816 54.7323 87.1178C53.4132 86.6862 52.0216 86.5206 50.638 86.6307C49.2545 86.7408 47.9065 87.1243 46.6723 87.759Z" fill="#8A939A"/>
<path d="M43.6694 81.875C41.6582 82.8952 39.8693 84.3043 38.4063 86.0206C36.9433 87.7368 35.8353 89.7263 35.1464 91.8737C35.0639 92.1245 35.0317 92.3891 35.0517 92.6524C35.0717 92.9156 35.1435 93.1724 35.263 93.4078C35.3825 93.6432 35.5473 93.8527 35.7481 94.0242C35.9488 94.1958 36.1814 94.326 36.4326 94.4073C36.6838 94.4887 36.9485 94.5196 37.2117 94.4983C37.4749 94.477 37.7312 94.404 37.9661 94.2833C38.2009 94.1627 38.4096 93.9968 38.5802 93.7953C38.7507 93.5937 38.8798 93.3605 38.9599 93.1089C39.4922 91.4652 40.343 89.9424 41.4637 88.6275C42.5845 87.3127 43.9533 86.2314 45.492 85.4456C47.0306 84.6598 48.709 84.1847 50.4313 84.0476C52.1536 83.9105 53.886 84.114 55.5296 84.6464C56.0353 84.8102 56.5854 84.7664 57.0588 84.5246C57.5322 84.2828 57.8902 83.8628 58.054 83.3571C58.2177 82.8514 58.1739 82.3013 57.9321 81.8279C57.6903 81.3545 57.2704 80.9965 56.7647 80.8328C54.6214 80.1319 52.3604 79.8631 50.1126 80.042C47.8648 80.2209 45.6748 80.844 43.6694 81.875Z" fill="#8A939A"/>
<path d="M58.8046 74.5442C55.8337 73.5817 52.7023 73.2139 49.5892 73.4617C46.4762 73.7096 43.4424 74.5682 40.6612 75.9886C37.88 77.409 35.4058 79.3634 33.38 81.7401C31.3542 84.1168 29.8163 86.8693 28.8544 89.8404C28.7733 90.0908 28.7423 90.3547 28.7632 90.6171C28.7841 90.8795 28.8564 91.1352 28.9761 91.3696C29.0959 91.6041 29.2606 91.8126 29.4609 91.9833C29.6612 92.1541 29.8932 92.2837 30.1436 92.3648C30.394 92.446 30.6579 92.4769 30.9203 92.456C31.1827 92.4351 31.4384 92.3628 31.6728 92.2431C31.9072 92.1233 32.1157 91.9586 32.2865 91.7583C32.4573 91.558 32.5869 91.326 32.668 91.0756C33.4678 88.6054 34.7463 86.3169 36.4306 84.3409C38.1149 82.3649 40.172 80.74 42.4843 79.5591C44.7967 78.3781 47.319 77.6643 49.9072 77.4583C52.4955 77.2523 55.099 77.5582 57.569 78.3586C58.0748 78.5224 58.625 78.4786 59.0985 78.2368C59.5721 77.995 59.9301 77.575 60.094 77.0692C60.2578 76.5634 60.2141 76.0132 59.9723 75.5396C59.7304 75.0661 59.3104 74.708 58.8046 74.5442Z" fill="#8A939A"/>
<path d="M186.947 1.73542C182.244 -1.13619 178.383 0.332061 177.234 2.2134C176.404 3.57215 177.171 4.90107 178.111 5.47551C179.992 6.6241 180.864 3.47366 184.417 5.64338C186.158 6.70695 187.084 8.32439 186.105 9.92676C184.956 11.808 182.346 11.6967 180.601 11.9702C179.059 12.2244 176.863 12.8444 175.034 15.8403C173.928 17.6519 174.096 18.4721 175.524 19.3443C177.231 20.3865 178.047 19.8329 178.451 19.1705C179.558 17.359 180.231 16.3351 183.061 16.007C184.448 15.8499 188.856 15.2888 190.856 12.0142C192.855 8.73964 191.405 4.45814 186.947 1.73542Z" fill="#8A939A"/>
<path d="M174.091 21.7692C173.739 21.5541 173.347 21.4105 172.94 21.3465C172.532 21.2826 172.115 21.2996 171.714 21.3966C171.313 21.4936 170.935 21.6686 170.601 21.9117C170.268 22.1549 169.985 22.4613 169.77 22.8136C169.555 23.1659 169.411 23.5571 169.348 23.9649C169.284 24.3726 169.301 24.789 169.398 25.1902C169.495 25.5915 169.67 25.9696 169.913 26.3032C170.156 26.6368 170.462 26.9192 170.815 27.1343C171.526 27.5688 172.381 27.7028 173.191 27.5069C174.002 27.3111 174.701 26.8014 175.135 26.0899C175.57 25.3785 175.704 24.5236 175.508 23.7133C175.312 22.903 174.802 22.2037 174.091 21.7692Z" fill="#8A939A"/>
</svg>
