<svg width="204" height="205" viewBox="0 0 204 205" fill="none" xmlns="http://www.w3.org/2000/svg">
<path d="M2.79192 173.397C10.6072 192.477 23.3499 196.449 32.3097 192.477C49.6373 184.797 94.6483 176.215 140.876 196.387C202.102 223.104 215.129 182.795 195.589 142.022C176.049 101.249 169.425 60.0154 191.952 37.2983C214.479 14.5811 185 -20.9561 132.65 16.0358C98.8199 39.9414 73.9923 34.6182 60.6601 27.86C48.0948 21.4908 34.1207 14.8321 21.0284 20.0311C5.14182 26.3399 -1.11734 40.018 23.0524 70.5746C57.3044 113.876 -14.7282 130.629 2.79192 173.397Z" fill="url(#paint0_radial_6434_30990)" fill-opacity="0.5"/>
<path d="M176.264 44.9261C176.06 45.1844 175.831 45.4221 175.581 45.6358L157.677 61.1302L144.314 101.719L107.06 128.942C107.06 128.942 100.712 134.26 94.9183 134.753C93.6212 135.206 89.6916 136.735 87.5151 139.098C86.8133 139.86 81.3103 156.112 72.7751 179.095C72.348 180.245 71.5063 181.194 70.4153 181.756C69.3243 182.317 68.0629 182.451 66.8787 182.13C56.2131 179.235 32.3238 172.861 20.9576 168.555C20.2572 168.29 19.6322 167.858 19.1374 167.296C18.6426 166.733 18.2931 166.059 18.1193 165.33C17.9455 164.602 17.9528 163.842 18.1405 163.117C18.3283 162.392 18.6907 161.725 19.1962 161.172C32.257 146.896 59.7165 114.218 59.7165 114.218L61.5794 110.349C61.5794 110.349 73.3102 73.697 77.1471 71.3147C78.5981 69.7391 86.9445 57.5211 90.2286 48.9975C90.975 47.7571 94.4368 42.5943 97.3365 38.1369C99.3912 34.9504 101.175 32.1157 101.479 31.306C101.544 31.1205 101.654 30.9536 101.798 30.8199C101.798 30.8199 101.789 30.8173 101.801 30.8107C103.185 29.3653 107.776 29.6918 107.999 35.1789C108.248 41.2318 102.804 53.7884 101.709 54.1305C101.154 55.4659 99.5795 62.6581 96.4986 68.748C96.2333 69.6684 95.837 72.0463 98.4356 71.4695C101.037 70.8835 161.202 42.5393 161.202 42.5393L168.664 37.8517C169.763 37.1404 171.071 36.8216 172.374 36.9471C173.918 37.1247 175.333 37.8933 176.322 39.0918C178.451 41.559 177.06 43.9293 176.264 44.9261Z" fill="url(#paint1_linear_6434_30990)"/>
<path d="M100.379 39.126C99.3034 39.2247 98.206 38.7091 97.3369 38.1295C99.3916 34.9429 101.175 32.1083 101.479 31.2986C101.545 31.113 101.654 30.9462 101.799 30.8125C104.275 33.7694 100.675 38.8227 100.379 39.126Z" fill="white"/>
<path d="M161.862 32.5942L117.773 19.8859C114.698 18.9997 111.487 20.7737 110.601 23.8482L83.9222 116.408C83.036 119.482 84.81 122.693 87.8845 123.579L131.974 136.288C135.048 137.174 138.259 135.4 139.145 132.325L165.824 39.7658C166.711 36.6912 164.937 33.4804 161.862 32.5942Z" fill="#C0C0DD"/>
<path d="M159.544 34.9089L118.501 23.0785C116.195 22.4138 113.787 23.7443 113.122 26.0502L87.23 115.879C86.5654 118.185 87.8959 120.593 90.2018 121.258L131.245 133.088C133.551 133.753 135.959 132.423 136.624 130.117L162.516 40.2876C163.181 37.9817 161.85 35.5735 159.544 34.9089Z" fill="white"/>
<path d="M161.644 65.1966L154.245 65.1382C150.584 65.1093 147.594 68.0531 147.565 71.7134C147.536 75.3736 150.48 78.3642 154.14 78.3931L161.54 78.4515C165.2 78.4803 168.191 75.5365 168.219 71.8763C168.248 68.2161 165.305 65.2255 161.644 65.1966Z" fill="url(#paint2_linear_6434_30990)"/>
<path d="M159.079 78.8897L149.71 78.8158C146.742 78.7924 144.316 81.1796 144.293 84.1477C144.27 87.1159 146.657 89.541 149.625 89.5644L158.994 89.6384C161.962 89.6618 164.387 87.2746 164.411 84.3065C164.434 81.3383 162.047 78.9132 159.079 78.8897Z" fill="url(#paint3_linear_6434_30990)"/>
<path d="M152.831 90.6538L147.296 90.6102C145.052 90.5925 143.219 92.3968 143.201 94.6404C143.184 96.8839 144.988 98.7169 147.231 98.7346L152.767 98.7783C155.011 98.796 156.844 96.9916 156.861 94.7481C156.879 92.5046 155.075 90.6715 152.831 90.6538Z" fill="url(#paint4_linear_6434_30990)"/>
<path d="M149.574 92.1273L146.34 92.1017C145.78 92.0973 145.323 92.5477 145.318 93.1076L145.295 96.0011C145.291 96.5611 145.741 97.0186 146.301 97.023L149.535 97.0485C150.095 97.0529 150.553 96.6026 150.557 96.0427L150.58 93.1491C150.585 92.5892 150.134 92.1317 149.574 92.1273Z" fill="white"/>
<path d="M152.854 81.3739L149.23 81.3453C148.03 81.3358 147.05 82.3008 147.04 83.5007L147.027 85.2532C147.017 86.4531 147.982 87.4334 149.182 87.4429L152.806 87.4715C154.005 87.4809 154.986 86.5159 154.995 85.3161L155.009 83.5635C155.018 82.3637 154.053 81.3833 152.854 81.3739Z" fill="white"/>
<path d="M157.495 67.4678L154.57 67.4447C152.97 67.4321 151.663 68.7188 151.65 70.3186L151.632 72.6195C151.619 74.2193 152.906 75.5264 154.506 75.5391L157.431 75.5621C159.031 75.5748 160.338 74.2881 160.351 72.6883L160.369 70.3874C160.382 68.7876 159.095 67.4804 157.495 67.4678Z" fill="white"/>
<path d="M53.2198 92.1039C53.0111 92.7483 52.9982 93.4401 53.1827 94.0918C53.3672 94.7436 53.7408 95.326 54.2563 95.7654C54.7718 96.2048 55.406 96.4814 56.0787 96.5604C56.7514 96.6394 57.4324 96.5171 58.0356 96.209C58.6389 95.9009 59.1372 95.4209 59.4676 94.8296C59.798 94.2383 59.9456 93.5623 59.8919 92.8871C59.8381 92.2119 59.5853 91.5678 59.1655 91.0362C58.7456 90.5047 58.1776 90.1096 57.5333 89.9009C56.6691 89.6211 55.7292 89.6961 54.9203 90.1092C54.1114 90.5223 53.4998 91.2398 53.2198 92.1039Z" fill="url(#paint5_linear_6434_30990)"/>
<path d="M51.672 83.7551C50.4342 84.3829 49.3333 85.25 48.433 86.3063C47.5327 87.3627 46.851 88.5871 46.4274 89.9088C46.2636 90.4145 46.3074 90.9646 46.5491 91.438C46.7909 91.9114 47.2109 92.2694 47.7166 92.4332C48.2223 92.597 48.7724 92.5532 49.2458 92.3114C49.7192 92.0697 50.0772 91.6497 50.241 91.144C50.5061 90.325 50.93 89.5662 51.4884 88.9111C52.0469 88.2559 52.7289 87.7172 53.4955 87.3256C54.2622 86.9341 55.0985 86.6974 55.9566 86.6291C56.8147 86.5608 57.6779 86.6622 58.4969 86.9275C59.0026 87.0913 59.5527 87.0475 60.0261 86.8057C60.4995 86.564 60.8575 86.144 61.0213 85.6383C61.1851 85.1326 61.1413 84.5825 60.8995 84.1091C60.6577 83.6356 60.2378 83.2777 59.7321 83.1139C58.4129 82.6823 57.0213 82.5167 55.6378 82.6268C54.2542 82.7369 52.9063 83.1204 51.672 83.7551Z" fill="url(#paint6_linear_6434_30990)"/>
<path d="M48.6699 77.8711C46.6586 78.8913 44.8698 80.3004 43.4068 82.0166C41.9438 83.7329 40.8358 85.7224 40.1469 87.8698C40.0644 88.1206 40.0321 88.3852 40.0521 88.6485C40.0721 88.9117 40.144 89.1684 40.2635 89.4039C40.383 89.6393 40.5478 89.8488 40.7486 90.0203C40.9493 90.1919 41.1819 90.322 41.4331 90.4034C41.6843 90.4848 41.949 90.5157 42.2122 90.4944C42.4754 90.4731 42.7317 90.4001 42.9666 90.2794C43.2014 90.1588 43.4101 89.9929 43.5807 89.7914C43.7512 89.5898 43.8803 89.3566 43.9604 89.105C44.4927 87.4613 45.3434 85.9385 46.4642 84.6236C47.585 83.3087 48.9538 82.2275 50.4925 81.4417C52.0311 80.6559 53.7095 80.1808 55.4318 80.0437C57.1541 79.9066 58.8865 80.11 60.5301 80.6425C61.0358 80.8063 61.5859 80.7625 62.0593 80.5207C62.5327 80.2789 62.8907 79.8589 63.0545 79.3532C63.2182 78.8475 63.1744 78.2974 62.9326 77.824C62.6908 77.3506 62.2709 76.9926 61.7652 76.8288C59.6219 76.128 57.3609 75.8592 55.1131 76.0381C52.8653 76.217 50.6753 76.8401 48.6699 77.8711Z" fill="url(#paint7_linear_6434_30990)"/>
<path d="M63.8046 70.5403C60.8337 69.5778 57.7023 69.21 54.5892 69.4578C51.4762 69.7057 48.4424 70.5643 45.6612 71.9847C42.88 73.4051 40.4058 75.3595 38.38 77.7362C36.3542 80.1129 34.8163 82.8654 33.8544 85.8365C33.7733 86.0869 33.7423 86.3508 33.7632 86.6132C33.7841 86.8756 33.8564 87.1313 33.9761 87.3657C34.0959 87.6001 34.2606 87.8087 34.4609 87.9794C34.6612 88.1502 34.8932 88.2798 35.1436 88.3609C35.394 88.442 35.6579 88.473 35.9203 88.4521C36.1827 88.4312 36.4384 88.3589 36.6728 88.2392C36.9072 88.1194 37.1157 87.9547 37.2865 87.7544C37.4573 87.5541 37.5869 87.3221 37.668 87.0717C38.4678 84.6015 39.7463 82.313 41.4306 80.337C43.1149 78.361 45.172 76.7361 47.4843 75.5552C49.7967 74.3742 52.319 73.6604 54.9072 73.4544C57.4955 73.2484 60.099 73.5543 62.569 74.3547C63.0748 74.5185 63.625 74.4747 64.0985 74.2329C64.5721 73.9911 64.9301 73.5711 65.094 73.0653C65.2578 72.5595 65.2141 72.0093 64.9723 71.5357C64.7304 71.0622 64.3104 70.7041 63.8046 70.5403Z" fill="url(#paint8_linear_6434_30990)"/>
<path d="M181.637 5.61433C176.935 2.74271 173.073 4.21097 171.924 6.09231C171.095 7.45106 171.861 8.77998 172.802 9.35442C174.683 10.503 175.554 7.35257 179.107 9.52229C180.849 10.5859 181.774 12.2033 180.795 13.8057C179.647 15.6869 177.037 15.5756 175.292 15.8491C173.75 16.1033 171.554 16.7233 169.724 19.7192C168.618 21.5308 168.786 22.351 170.215 23.2232C171.921 24.2654 172.738 23.7118 173.142 23.0494C174.248 21.2379 174.921 20.214 177.752 19.8859C179.139 19.7288 183.546 19.1677 185.546 15.8931C187.546 12.6186 186.095 8.33705 181.637 5.61433Z" fill="url(#paint9_linear_6434_30990)"/>
<path d="M168.781 25.6481C168.429 25.433 168.038 25.2894 167.63 25.2254C167.222 25.1615 166.806 25.1785 166.405 25.2755C166.003 25.3725 165.625 25.5475 165.292 25.7907C164.958 26.0338 164.676 26.3402 164.461 26.6925C164.246 27.0448 164.102 27.436 164.038 27.8438C163.974 28.2516 163.991 28.6679 164.088 29.0692C164.185 29.4704 164.36 29.8485 164.603 30.1821C164.846 30.5157 165.153 30.7981 165.505 31.0132C166.216 31.4477 167.071 31.5817 167.882 31.3858C168.692 31.19 169.391 30.6803 169.826 29.9688C170.26 29.2574 170.394 28.4025 170.198 27.5922C170.003 26.7819 169.493 26.0826 168.781 25.6481Z" fill="url(#paint10_linear_6434_30990)"/>
<defs>
<radialGradient id="paint0_radial_6434_30990" cx="0" cy="0" r="1" gradientUnits="userSpaceOnUse" gradientTransform="translate(102 102.5) scale(101.069 103.462)">
<stop stop-color="#73B4AF"/>
<stop offset="1" stop-color="#B9EACB"/>
</radialGradient>
<linearGradient id="paint1_linear_6434_30990" x1="17.9944" y1="106.189" x2="177.451" y2="106.189" gradientUnits="userSpaceOnUse">
<stop stop-color="#F4D0C6"/>
<stop offset="1" stop-color="#F8E9E5"/>
</linearGradient>
<linearGradient id="paint2_linear_6434_30990" x1="147.565" y1="71.7134" x2="168.219" y2="71.8763" gradientUnits="userSpaceOnUse">
<stop stop-color="#F4D0C6"/>
<stop offset="1" stop-color="#F8E9E5"/>
</linearGradient>
<linearGradient id="paint3_linear_6434_30990" x1="144.293" y1="84.1477" x2="164.411" y2="84.3065" gradientUnits="userSpaceOnUse">
<stop stop-color="#F4D0C6"/>
<stop offset="1" stop-color="#F8E9E5"/>
</linearGradient>
<linearGradient id="paint4_linear_6434_30990" x1="143.201" y1="94.6404" x2="156.861" y2="94.7481" gradientUnits="userSpaceOnUse">
<stop stop-color="#F4D0C6"/>
<stop offset="1" stop-color="#F8E9E5"/>
</linearGradient>
<linearGradient id="paint5_linear_6434_30990" x1="53.0532" y1="93.1591" x2="59.9027" y2="93.1591" gradientUnits="userSpaceOnUse">
<stop stop-color="#11998E"/>
<stop offset="1" stop-color="#6EBCB6"/>
</linearGradient>
<linearGradient id="paint6_linear_6434_30990" x1="46.3298" y1="87.5623" x2="61.1189" y2="87.5623" gradientUnits="userSpaceOnUse">
<stop stop-color="#11998E"/>
<stop offset="1" stop-color="#6EBCB6"/>
</linearGradient>
<linearGradient id="paint7_linear_6434_30990" x1="40.0463" y1="83.2427" x2="63.1522" y2="83.2427" gradientUnits="userSpaceOnUse">
<stop stop-color="#11998E"/>
<stop offset="1" stop-color="#6EBCB6"/>
</linearGradient>
<linearGradient id="paint8_linear_6434_30990" x1="33.7567" y1="78.9207" x2="65.1918" y2="78.9207" gradientUnits="userSpaceOnUse">
<stop stop-color="#11998E"/>
<stop offset="1" stop-color="#6EBCB6"/>
</linearGradient>
<linearGradient id="paint9_linear_6434_30990" x1="169.003" y1="13.9016" x2="186.427" y2="13.9016" gradientUnits="userSpaceOnUse">
<stop stop-color="#11998E"/>
<stop offset="1" stop-color="#6EBCB6"/>
</linearGradient>
<linearGradient id="paint10_linear_6434_30990" x1="164" y1="28.3307" x2="170.286" y2="28.3307" gradientUnits="userSpaceOnUse">
<stop stop-color="#11998E"/>
<stop offset="1" stop-color="#6EBCB6"/>
</linearGradient>
</defs>
</svg>
