<svg width="200" height="206" viewBox="0 0 200 206" fill="none" xmlns="http://www.w3.org/2000/svg">
<path d="M2.73718 175.003C10.3992 193.701 22.8921 197.593 31.6762 193.701C48.6641 186.174 92.7924 177.765 138.114 197.533C198.14 223.714 210.911 184.213 191.754 144.257C172.597 104.3 166.103 63.8934 188.188 41.6314C210.273 19.3695 181.373 -15.4556 130.049 20.795C96.8823 44.2216 72.5415 39.005 59.4707 32.3823C47.1518 26.1407 33.4517 19.6154 20.6161 24.7102C5.041 30.8926 -1.09543 44.2967 22.6004 74.2409C56.1808 116.675 -14.4394 133.092 2.73718 175.003Z" fill="#151E30"/>
<path d="M176.264 45.9276C176.06 46.1859 175.832 46.4236 175.581 46.6373L157.678 62.1317L144.314 102.72L107.06 129.943C107.06 129.943 100.713 135.261 94.9186 135.754C93.6216 136.208 89.6919 137.736 87.5154 140.099C86.8137 140.861 81.3106 157.114 72.7755 180.097C72.3483 181.247 71.5066 182.196 70.4157 182.757C69.3247 183.319 68.0633 183.452 66.8791 183.131C56.2135 180.237 32.3242 173.862 20.958 169.556C20.2575 169.291 19.6326 168.859 19.1378 168.297C18.643 167.735 18.2934 167.06 18.1197 166.332C17.9459 165.604 17.9532 164.844 18.1409 164.119C18.3286 163.394 18.6911 162.726 19.1966 162.174C32.2574 147.897 59.7169 115.22 59.7169 115.22L61.5798 111.351C61.5798 111.351 73.3105 74.6985 77.1475 72.3162C78.5985 70.7406 86.9449 58.5225 90.229 49.9989C90.9754 48.7585 94.4372 43.5958 97.3369 39.1383C99.3916 35.9518 101.175 33.1171 101.479 32.3075C101.545 32.1219 101.654 31.9551 101.799 31.8214C101.799 31.8214 101.79 31.8188 101.801 31.8121C103.185 30.3668 107.776 30.6932 107.999 36.1804C108.248 42.2333 102.805 54.7898 101.709 55.1319C101.155 56.4674 99.5799 63.6596 96.499 69.7494C96.2336 70.6699 95.8374 73.0478 98.4359 72.471C101.037 71.885 161.203 43.5408 161.203 43.5408L168.665 38.8531C169.764 38.1418 171.071 37.823 172.374 37.9486C173.918 38.1261 175.333 38.8948 176.322 40.0933C178.451 42.5605 177.06 44.9308 176.264 45.9276Z" fill="#1E2B3B"/>
<path d="M100.379 40.1338C99.3036 40.2326 98.2062 39.7169 97.3372 39.1373C99.3919 35.9508 101.175 33.1161 101.48 32.3064C101.545 32.1208 101.655 31.954 101.799 31.8203C104.275 34.7773 100.676 39.8305 100.379 40.1338Z" fill="#94A3BB" fill-opacity="0.5"/>
<path d="M161.862 33.5991L117.773 20.8908C114.698 20.0045 111.488 21.7786 110.601 24.8531L83.9224 117.413C83.0362 120.487 84.8102 123.698 87.8848 124.584L131.974 137.293C135.049 138.179 138.259 136.405 139.146 133.33L165.825 40.7707C166.711 37.6961 164.937 34.4853 161.862 33.5991Z" fill="black"/>
<path d="M159.544 35.9172L118.501 24.0868C116.195 23.4221 113.787 24.7526 113.122 27.0585L87.2301 116.888C86.5655 119.194 87.896 121.602 90.2019 122.266L131.246 134.097C133.551 134.761 135.96 133.431 136.624 131.125L162.516 41.2959C163.181 38.99 161.85 36.5818 159.544 35.9172Z" fill="#475569"/>
<path d="M161.645 66.1976L154.245 66.1392C150.585 66.1103 147.594 69.0541 147.565 72.7143C147.536 76.3746 150.48 79.3652 154.14 79.3941L161.54 79.4524C165.2 79.4813 168.191 76.5375 168.22 72.8773C168.249 69.2171 165.305 66.2265 161.645 66.1976Z" fill="#1E2B3B"/>
<path d="M159.079 79.8956L149.71 79.8217C146.742 79.7983 144.317 82.1855 144.293 85.1536C144.27 88.1217 146.657 90.5469 149.625 90.5703L158.994 90.6442C161.962 90.6676 164.388 88.2805 164.411 85.3123C164.434 82.3442 162.047 79.919 159.079 79.8956Z" fill="#1E2B3B"/>
<path d="M152.831 91.6553L147.296 91.6116C145.052 91.5939 143.219 93.3983 143.201 95.6418C143.184 97.8853 144.988 99.7184 147.232 99.7361L152.767 99.7798C155.011 99.7975 156.844 97.9931 156.861 95.7496C156.879 93.5061 155.075 91.673 152.831 91.6553Z" fill="#1E2B3B"/>
<path d="M149.574 93.1312L146.34 93.1057C145.78 93.1012 145.323 93.5516 145.318 94.1115L145.295 97.0051C145.291 97.565 145.741 98.0225 146.301 98.0269L149.536 98.0524C150.096 98.0568 150.553 97.6065 150.557 97.0466L150.58 94.153C150.585 93.5931 150.134 93.1356 149.574 93.1312Z" fill="#94A3BB" fill-opacity="0.5"/>
<path d="M152.844 82.0457L149.221 82.0171C148.021 82.0077 147.04 82.9727 147.031 84.1725L147.017 85.9251C147.008 87.1249 147.973 88.1053 149.173 88.1148L152.796 88.1433C153.996 88.1528 154.976 87.1878 154.986 85.9879L154.999 84.2354C155.009 83.0355 154.044 82.0552 152.844 82.0457Z" fill="#94A3BB" fill-opacity="0.5"/>
<path d="M157.496 68.4732L154.57 68.4501C152.97 68.4375 151.663 69.7242 151.65 71.324L151.632 73.6248C151.619 75.2247 152.906 76.5318 154.506 76.5444L157.432 76.5675C159.031 76.5801 160.339 75.2935 160.351 73.6936L160.369 71.3928C160.382 69.7929 159.095 68.4858 157.496 68.4732Z" fill="#94A3BB" fill-opacity="0.5"/>
<path d="M48.2199 96.1078C48.0112 96.7522 47.9983 97.444 48.1828 98.0957C48.3673 98.7475 48.7409 99.3299 49.2564 99.7693C49.7719 100.209 50.4061 100.485 51.0788 100.564C51.7515 100.643 52.4326 100.521 53.0358 100.213C53.639 99.9048 54.1373 99.4248 54.4677 98.8335C54.7981 98.2422 54.9458 97.5662 54.892 96.891C54.8382 96.2158 54.5854 95.5717 54.1656 95.0401C53.7458 94.5086 53.1778 94.1135 52.5334 93.9048C51.6692 93.625 50.7294 93.7 49.9205 94.1131C49.1116 94.5262 48.4999 95.2437 48.2199 96.1078Z" fill="#94A3BB" fill-opacity="0.5"/>
<path d="M46.6721 87.7561C45.4343 88.3838 44.3334 89.251 43.4331 90.3073C42.5329 91.3636 41.8511 92.5881 41.4275 93.9098C41.2637 94.4155 41.3075 94.9656 41.5493 95.439C41.791 95.9124 42.211 96.2704 42.7167 96.4342C43.2224 96.598 43.7725 96.5542 44.2459 96.3124C44.7193 96.0706 45.0773 95.6507 45.2411 95.145C45.5063 94.326 45.9301 93.5672 46.4886 92.912C47.047 92.2569 47.729 91.7181 48.4957 91.3266C49.2623 90.935 50.0986 90.6984 50.9567 90.6301C51.8149 90.5618 52.6781 90.6632 53.497 90.9285C54.0027 91.0923 54.5528 91.0485 55.0262 90.8067C55.4996 90.5649 55.8576 90.145 56.0214 89.6393C56.1852 89.1335 56.1414 88.5835 55.8996 88.11C55.6578 87.6366 55.2379 87.2786 54.7322 87.1148C53.4131 86.6833 52.0214 86.5177 50.6379 86.6278C49.2544 86.7378 47.9064 87.1213 46.6721 87.7561V87.7561Z" fill="#94A3BB" fill-opacity="0.5"/>
<path d="M43.6699 81.875C41.6586 82.8952 39.8698 84.3043 38.4068 86.0206C36.9438 87.7368 35.8358 89.7263 35.1469 91.8737C35.0644 92.1245 35.0321 92.3891 35.0521 92.6524C35.0721 92.9156 35.144 93.1724 35.2635 93.4078C35.383 93.6432 35.5478 93.8527 35.7486 94.0242C35.9493 94.1958 36.1819 94.326 36.4331 94.4073C36.6843 94.4887 36.949 94.5196 37.2122 94.4983C37.4754 94.477 37.7317 94.404 37.9666 94.2833C38.2014 94.1627 38.4101 93.9968 38.5807 93.7953C38.7512 93.5937 38.8803 93.3605 38.9604 93.1089C39.4927 91.4652 40.3434 89.9424 41.4642 88.6275C42.585 87.3127 43.9538 86.2314 45.4925 85.4456C47.0311 84.6598 48.7095 84.1847 50.4318 84.0476C52.1541 83.9105 53.8865 84.114 55.5301 84.6464C56.0358 84.8102 56.5859 84.7664 57.0593 84.5246C57.5327 84.2828 57.8907 83.8628 58.0545 83.3571C58.2182 82.8514 58.1744 82.3013 57.9326 81.8279C57.6908 81.3545 57.2709 80.9965 56.7652 80.8328C54.6219 80.1319 52.3609 79.8631 50.1131 80.042C47.8653 80.2209 45.6753 80.844 43.6699 81.875V81.875Z" fill="#94A3BB" fill-opacity="0.5"/>
<path d="M58.8048 74.5422C55.8338 73.5797 52.7024 73.2119 49.5894 73.4598C46.4763 73.7076 43.4425 74.5663 40.6613 75.9867C37.8801 77.4071 35.406 79.3615 33.3801 81.7382C31.3543 84.1149 29.8165 86.8674 28.8545 89.8385C28.7734 90.0889 28.7424 90.3528 28.7633 90.6152C28.7842 90.8776 28.8566 91.1333 28.9763 91.3677C29.096 91.6021 29.2607 91.8106 29.461 91.9814C29.6613 92.1522 29.8933 92.2818 30.1437 92.3629C30.3941 92.444 30.658 92.475 30.9204 92.4541C31.1828 92.4332 31.4385 92.3608 31.6729 92.2411C31.9073 92.1214 32.1159 91.9567 32.2866 91.7564C32.4574 91.5561 32.587 91.3241 32.6681 91.0737C33.4679 88.6034 34.7464 86.315 36.4307 84.3389C38.115 82.3629 40.1721 80.738 42.4844 79.5571C44.7968 78.3762 47.3191 77.6624 49.9074 77.4564C52.4956 77.2504 55.0991 77.5563 57.5691 78.3566C58.0749 78.5205 58.6251 78.4767 59.0987 78.2349C59.5722 77.9931 59.9303 77.5731 60.0941 77.0672C60.258 76.5614 60.2142 76.0112 59.9724 75.5377C59.7306 75.0642 59.3106 74.7061 58.8048 74.5422V74.5422Z" fill="#94A3BB" fill-opacity="0.5"/>
<path d="M186.947 1.73542C182.245 -1.13619 178.383 0.332061 177.234 2.2134C176.405 3.57215 177.171 4.90107 178.112 5.47551C179.992 6.6241 180.864 3.47366 184.417 5.64338C186.159 6.70695 187.084 8.32439 186.105 9.92676C184.957 11.808 182.347 11.6967 180.602 11.9702C179.06 12.2244 176.864 12.8444 175.034 15.8403C173.928 17.6519 174.096 18.4721 175.524 19.3443C177.231 20.3865 178.048 19.8329 178.452 19.1705C179.558 17.359 180.231 16.3351 183.062 16.007C184.449 15.8499 188.856 15.2888 190.856 12.0142C192.856 8.73964 191.405 4.45814 186.947 1.73542Z" fill="#94A3BB" fill-opacity="0.5"/>
<path d="M174.091 21.7707C173.739 21.5556 173.348 21.4119 172.94 21.348C172.532 21.2841 172.116 21.3011 171.715 21.398C171.313 21.495 170.935 21.6701 170.602 21.9132C170.268 22.1563 169.986 22.4628 169.77 22.8151C169.555 23.1673 169.412 23.5585 169.348 23.9663C169.284 24.3741 169.301 24.7905 169.398 25.1917C169.495 25.5929 169.67 25.9711 169.913 26.3047C170.156 26.6382 170.463 26.9206 170.815 27.1358C171.526 27.5702 172.381 27.7043 173.192 27.5084C174.002 27.3125 174.701 26.8028 175.136 26.0914C175.57 25.3799 175.704 24.525 175.508 23.7147C175.312 22.9045 174.803 22.2052 174.091 21.7707V21.7707Z" fill="#94A3BB" fill-opacity="0.5"/>
</svg>
