<svg width="216" height="199" viewBox="0 0 216 199" fill="none" xmlns="http://www.w3.org/2000/svg">
<path d="M113.134 18.252C113.134 18.252 118.769 52.7389 179.508 53.6907C233.45 54.536 216.306 115.599 197.158 134.8C172.355 159.673 123.745 153.167 121.194 182.118C118.642 211.069 50.1135 199.829 51.2806 156.179C52.7327 101.879 21.4826 118.39 5.66235 103.866C-5.69196 93.4414 -1.78919 45.1873 34.2 39.6628C64.4841 35.0142 62.914 22.8023 65.3218 13.7619C68.794 0.723728 103.902 -11.087 113.134 18.252Z" fill="#99A9E5"/>
<path d="M170.274 141.015C170.277 141.891 170.099 142.759 169.749 143.569C169.399 144.38 168.884 145.117 168.234 145.737C167.585 146.358 166.813 146.851 165.962 147.187C165.112 147.523 164.201 147.696 163.28 147.697L51.0954 147.913C50.1751 147.916 49.2632 147.745 48.4121 147.412C47.561 147.078 46.7873 146.588 46.1353 145.97C45.4832 145.352 44.9657 144.617 44.6121 143.809C44.2586 143 44.0761 142.133 44.075 141.257L43.9174 66.1815L106.013 29.0776C106.291 28.9108 106.613 28.8216 106.941 28.8201C107.27 28.8186 107.592 28.905 107.872 29.0693L168.662 65.08L170.116 65.9393V67.1405L170.274 141.015Z" fill="#3354CC" fill-opacity="0.66"/>
<path d="M161.121 35.5409H52.2451C51.9855 35.5409 51.775 35.7412 51.775 35.9883V146.872C51.775 147.119 51.9855 147.319 52.2451 147.319H161.121C161.381 147.319 161.591 147.119 161.591 146.872V35.9883C161.591 35.7412 161.381 35.5409 161.121 35.5409Z" fill="#7CAFFF"/>
<path d="M163.168 147.591L107.485 107.183C107.44 107.151 107.404 107.109 107.38 107.06C107.355 107.012 107.343 106.958 107.345 106.905C107.346 106.851 107.361 106.799 107.388 106.751C107.415 106.704 107.453 106.664 107.5 106.634L169.556 66.2658C169.609 66.2311 169.671 66.2109 169.736 66.2073C169.801 66.2038 169.865 66.2171 169.923 66.2459C169.98 66.2746 170.028 66.3176 170.061 66.3704C170.095 66.4231 170.113 66.4835 170.113 66.5452L170.27 140.979C170.273 142.728 169.556 144.408 168.271 145.658C166.987 146.908 165.238 147.629 163.402 147.665C163.317 147.666 163.235 147.64 163.168 147.591Z" fill="url(#paint0_linear_611_1491)"/>
<path d="M51.1896 147.802L106.702 107.183C106.747 107.151 106.783 107.108 106.807 107.06C106.831 107.011 106.843 106.958 106.841 106.904C106.839 106.851 106.824 106.798 106.797 106.751C106.77 106.704 106.732 106.664 106.685 106.634L44.4609 66.5023C44.4073 66.4677 44.3448 66.4477 44.2801 66.4445C44.2155 66.4412 44.1511 66.4547 44.0939 66.4836C44.0367 66.5126 43.9889 66.5558 43.9556 66.6086C43.9223 66.6615 43.9047 66.722 43.9048 66.7836L44.0615 141.218C44.0652 142.966 44.7896 144.643 46.079 145.889C47.3685 147.134 49.1198 147.848 50.9566 147.877C51.0408 147.878 51.1229 147.851 51.1896 147.802Z" fill="url(#paint1_linear_611_1491)"/>
<path d="M163.271 147.664L51.0866 147.877C49.3895 147.876 47.7502 147.29 46.4713 146.229C45.1925 145.167 44.3605 143.7 44.1289 142.1C44.0907 141.827 44.1239 141.55 44.2254 141.292C44.3269 141.034 44.4937 140.804 44.7109 140.623L105.897 89.1019C106.216 88.8327 106.628 88.6838 107.055 88.683C107.481 88.6822 107.894 88.8295 108.215 89.0974L169.616 140.385C169.834 140.566 170.002 140.795 170.104 141.052C170.207 141.31 170.241 141.587 170.204 141.86C169.979 143.461 169.153 144.931 167.879 145.997C166.605 147.064 164.968 147.656 163.271 147.664V147.664Z" fill="url(#paint2_linear_611_1491)"/>
<path d="M79.6436 63.0664C81.8218 63.0664 83.5875 60.8256 83.5875 58.0615C83.5875 55.2973 81.8218 53.0565 79.6436 53.0565C77.4654 53.0565 75.6996 55.2973 75.6996 58.0615C75.6996 60.8256 77.4654 63.0664 79.6436 63.0664Z" fill="#3354CC"/>
<path d="M134.86 63.0664C137.038 63.0664 138.804 60.8256 138.804 58.0615C138.804 55.2973 137.038 53.0565 134.86 53.0565C132.682 53.0565 130.916 55.2973 130.916 58.0615C130.916 60.8256 132.682 63.0664 134.86 63.0664Z" fill="#3354CC"/>
<path d="M122.152 79.6615C122.019 79.6617 121.888 79.6296 121.772 79.5682C121.656 79.5069 121.558 79.4183 121.487 79.3109C121.446 79.2487 117.157 72.9423 107.187 72.1518C103.038 71.8229 99.0999 72.9226 95.4876 75.4216C93.8765 76.5226 92.4454 77.8444 91.2409 79.3442C91.121 79.5047 90.9393 79.6136 90.7354 79.6471C90.5315 79.6806 90.3219 79.636 90.1525 79.5229C89.983 79.4099 89.8674 79.2377 89.8309 79.0438C89.7944 78.8499 89.8399 78.6502 89.9576 78.4882C90.0233 78.3987 91.5996 76.278 94.5195 74.2472C98.4009 71.5476 102.827 70.3097 107.317 70.6651C118.102 71.5205 122.629 78.2352 122.815 78.5206C122.889 78.6334 122.931 78.7631 122.934 78.8961C122.938 79.0291 122.904 79.1607 122.837 79.2771C122.769 79.3935 122.67 79.4906 122.549 79.5582C122.429 79.6259 122.291 79.6616 122.152 79.6617L122.152 79.6615Z" fill="#3354CC"/>
<defs>
<linearGradient id="paint0_linear_611_1491" x1="107.344" y1="106.936" x2="170.27" y2="106.936" gradientUnits="userSpaceOnUse">
<stop stop-color="#3354CC"/>
<stop offset="1" stop-color="#3354CC"/>
</linearGradient>
<linearGradient id="paint1_linear_611_1491" x1="43.9045" y1="107.161" x2="106.842" y2="107.161" gradientUnits="userSpaceOnUse">
<stop stop-color="#3354CC"/>
<stop offset="1" stop-color="#3354CC"/>
</linearGradient>
<linearGradient id="paint2_linear_611_1491" x1="44.1129" y1="118.28" x2="170.22" y2="118.28" gradientUnits="userSpaceOnUse">
<stop stop-color="#3354CC"/>
<stop offset="1" stop-color="#3354CC"/>
</linearGradient>
</defs>
</svg>
