<svg width="216" height="199" viewBox="0 0 216 199" fill="none" xmlns="http://www.w3.org/2000/svg">
<path d="M113.134 18.252C113.134 18.252 118.769 52.7389 179.508 53.6908C233.45 54.536 216.306 115.599 197.158 134.8C172.355 159.673 123.745 153.167 121.194 182.118C118.642 211.069 50.1135 199.829 51.2806 156.179C52.7327 101.879 21.4826 118.39 5.66235 103.866C-5.69196 93.4414 -1.78919 45.1873 34.2 39.6628C64.4841 35.0142 62.914 22.8023 65.3218 13.7619C68.794 0.723728 103.902 -11.087 113.134 18.252Z" fill="#1B1B20"/>
<path d="M170.273 141.011C170.276 141.887 170.097 142.755 169.747 143.566C169.397 144.376 168.883 145.113 168.233 145.734C167.583 146.354 166.811 146.847 165.961 147.183C165.111 147.519 164.199 147.693 163.279 147.693L51.0941 147.91C50.1737 147.912 49.2619 147.742 48.4108 147.408C47.5597 147.075 46.786 146.585 46.1339 145.967C45.4819 145.348 44.9643 144.614 44.6108 143.805C44.2573 142.996 44.0748 142.129 44.0737 141.253L43.916 66.1778L106.012 29.074C106.29 28.9071 106.611 28.8179 106.94 28.8164C107.268 28.8149 107.591 28.9013 107.87 29.0656L168.66 65.0764L170.115 65.9356V67.1369L170.273 141.011Z" fill="#282B34"/>
<path d="M161.121 35.5391H52.2455C51.9859 35.5391 51.7754 35.7394 51.7754 35.9865V146.87C51.7754 147.117 51.9859 147.318 52.2455 147.318H161.121C161.381 147.318 161.591 147.117 161.591 146.87V35.9865C161.591 35.7394 161.381 35.5391 161.121 35.5391Z" fill="#454B59"/>
<path d="M163.167 147.588L107.484 107.18C107.439 107.147 107.403 107.105 107.379 107.056C107.354 107.008 107.342 106.955 107.344 106.901C107.345 106.848 107.36 106.795 107.387 106.748C107.414 106.701 107.452 106.66 107.499 106.63L169.555 66.2622C169.608 66.2274 169.671 66.2072 169.735 66.2037C169.8 66.2002 169.864 66.2135 169.922 66.2422C169.979 66.2709 170.027 66.314 170.06 66.3667C170.094 66.4194 170.112 66.4799 170.112 66.5415L170.269 140.976C170.272 142.724 169.555 144.404 168.27 145.654C166.986 146.905 165.237 147.625 163.401 147.661C163.316 147.662 163.234 147.636 163.167 147.588Z" fill="#3A3F4D"/>
<path d="M51.1891 147.8L106.702 107.181C106.746 107.148 106.782 107.106 106.806 107.057C106.831 107.009 106.842 106.956 106.841 106.902C106.839 106.848 106.824 106.796 106.797 106.749C106.77 106.702 106.731 106.661 106.684 106.631L44.4604 66.4997C44.4068 66.4652 44.3443 66.4452 44.2797 66.4419C44.215 66.4386 44.1506 66.4521 44.0934 66.4811C44.0362 66.51 43.9884 66.5532 43.9551 66.606C43.9218 66.6589 43.9042 66.7194 43.9043 66.781L44.061 141.215C44.0647 142.964 44.7891 144.641 46.0786 145.886C47.368 147.131 49.1193 147.845 50.9561 147.874C51.0403 147.875 51.1224 147.849 51.1891 147.8Z" fill="#3A3F4D"/>
<path d="M163.271 147.661L51.0864 147.874C49.3893 147.873 47.7499 147.287 46.4711 146.225C45.1922 145.163 44.3602 143.697 44.1286 142.097C44.0905 141.824 44.1237 141.546 44.2252 141.289C44.3267 141.031 44.4934 140.801 44.7106 140.619L105.897 89.0986C106.216 88.8294 106.628 88.6805 107.055 88.6797C107.481 88.6789 107.894 88.8262 108.214 89.0941L169.616 140.382C169.834 140.562 170.001 140.792 170.104 141.049C170.207 141.306 170.241 141.584 170.204 141.857C169.979 143.458 169.153 144.927 167.879 145.994C166.605 147.061 164.968 147.653 163.271 147.661Z" fill="#323540"/>
<path d="M79.6432 63.0646C81.8214 63.0646 83.5872 60.8238 83.5872 58.0596C83.5872 55.2955 81.8214 53.0547 79.6432 53.0547C77.465 53.0547 75.6992 55.2955 75.6992 58.0596C75.6992 60.8238 77.465 63.0646 79.6432 63.0646Z" fill="#8A939A"/>
<path d="M134.86 63.0646C137.038 63.0646 138.804 60.8238 138.804 58.0596C138.804 55.2955 137.038 53.0547 134.86 53.0547C132.682 53.0547 130.916 55.2955 130.916 58.0596C130.916 60.8238 132.682 63.0646 134.86 63.0646Z" fill="#8A939A"/>
<path d="M122.152 79.6615C122.019 79.6617 121.888 79.6296 121.772 79.5682C121.655 79.5069 121.557 79.4183 121.487 79.3109C121.446 79.2487 117.156 72.9423 107.187 72.1518C103.037 71.8229 99.0996 72.9226 95.4874 75.4216C93.8762 76.5226 92.4452 77.8444 91.2406 79.3442C91.1208 79.5047 90.9391 79.6136 90.7351 79.6471C90.5312 79.6806 90.3217 79.636 90.1522 79.5229C89.9828 79.4099 89.8672 79.2377 89.8307 79.0438C89.7941 78.8499 89.8397 78.6502 89.9574 78.4882C90.023 78.3987 91.5993 76.278 94.5192 74.2472C98.4007 71.5476 102.826 70.3097 107.317 70.6651C118.102 71.5205 122.628 78.2352 122.815 78.5206C122.889 78.6334 122.93 78.7631 122.934 78.8961C122.938 79.0291 122.904 79.1607 122.836 79.2771C122.769 79.3935 122.669 79.4906 122.549 79.5582C122.429 79.6259 122.291 79.6616 122.151 79.6617L122.152 79.6615Z" fill="#8A939A"/>
</svg>
