<svg width="216" height="199" viewBox="0 0 216 199" fill="none" xmlns="http://www.w3.org/2000/svg">
<path d="M113.134 18.252C113.134 18.252 118.769 52.7389 179.508 53.6907C233.45 54.536 216.306 115.599 197.158 134.8C172.355 159.673 123.745 153.167 121.194 182.118C118.642 211.069 50.1135 199.829 51.2806 156.179C52.7327 101.879 21.4826 118.39 5.66235 103.866C-5.69196 93.4414 -1.78919 45.1873 34.2 39.6628C64.4841 35.0142 62.914 22.8023 65.3218 13.7619C68.794 0.723728 103.902 -11.087 113.134 18.252Z" fill="#151E30"/>
<path d="M170.274 141.015C170.277 141.891 170.099 142.759 169.749 143.57C169.399 144.38 168.884 145.117 168.234 145.738C167.585 146.358 166.812 146.851 165.962 147.187C165.112 147.523 164.201 147.696 163.28 147.697L51.0954 147.914C50.175 147.916 49.2632 147.745 48.4121 147.412C47.5609 147.079 46.7872 146.589 46.1352 145.97C45.4832 145.352 44.9656 144.618 44.6121 143.809C44.2586 143 44.076 142.133 44.0749 141.257L43.9173 66.1817L106.013 29.0779C106.291 28.9111 106.613 28.8218 106.941 28.8203C107.27 28.8189 107.592 28.9052 107.871 29.0695L168.662 65.0803L170.116 65.9395V67.1408L170.274 141.015Z" fill="#1E2B3B"/>
<path d="M161.121 35.541H52.2451C51.9855 35.541 51.775 35.7413 51.775 35.9885V146.872C51.775 147.119 51.9855 147.32 52.2451 147.32H161.121C161.381 147.32 161.591 147.119 161.591 146.872V35.9885C161.591 35.7413 161.381 35.541 161.121 35.541Z" fill="#1E2B3B"/>
<path d="M163.168 147.591L107.485 107.183C107.44 107.151 107.404 107.109 107.38 107.06C107.355 107.012 107.343 106.959 107.345 106.905C107.346 106.851 107.361 106.799 107.388 106.752C107.415 106.705 107.453 106.664 107.5 106.634L169.556 66.2661C169.609 66.2313 169.671 66.2111 169.736 66.2076C169.801 66.2041 169.865 66.2174 169.923 66.2461C169.98 66.2748 170.028 66.3179 170.061 66.3706C170.095 66.4233 170.113 66.4838 170.113 66.5454L170.27 140.98C170.273 142.728 169.556 144.408 168.271 145.658C166.987 146.909 165.238 147.629 163.402 147.665C163.317 147.666 163.235 147.64 163.168 147.591Z" fill="#475569"/>
<path d="M51.1895 147.803L106.702 107.184C106.747 107.151 106.783 107.109 106.807 107.06C106.831 107.012 106.843 106.958 106.841 106.905C106.839 106.851 106.824 106.799 106.797 106.752C106.77 106.705 106.731 106.664 106.685 106.634L44.4609 66.5027C44.4073 66.4681 44.3448 66.4481 44.2801 66.4448C44.2154 66.4415 44.151 66.4551 44.0939 66.484C44.0367 66.5129 43.9888 66.5561 43.9555 66.609C43.9222 66.6618 43.9046 66.7223 43.9047 66.784L44.0614 141.218C44.0651 142.966 44.7896 144.644 46.079 145.889C47.3684 147.134 49.1198 147.848 50.9565 147.877C51.0407 147.878 51.1228 147.852 51.1895 147.803Z" fill="#475569"/>
<path d="M163.271 147.664L51.0866 147.878C49.3895 147.876 47.7502 147.291 46.4713 146.229C45.1925 145.167 44.3604 143.7 44.1289 142.1C44.0907 141.827 44.1239 141.55 44.2254 141.292C44.3269 141.034 44.4937 140.804 44.7109 140.623L105.897 89.102C106.216 88.8329 106.628 88.6839 107.055 88.6831C107.481 88.6823 107.894 88.8296 108.214 89.0975L169.616 140.385C169.834 140.566 170.001 140.795 170.104 141.052C170.207 141.31 170.241 141.587 170.204 141.86C169.979 143.461 169.153 144.931 167.879 145.997C166.605 147.064 164.968 147.656 163.271 147.664V147.664Z" fill="#0F172A" fill-opacity="0.94"/>
<path d="M79.6436 63.0665C81.8218 63.0665 83.5876 60.8257 83.5876 58.0616C83.5876 55.2974 81.8218 53.0566 79.6436 53.0566C77.4654 53.0566 75.6996 55.2974 75.6996 58.0616C75.6996 60.8257 77.4654 63.0665 79.6436 63.0665Z" fill="#94A3BB" fill-opacity="0.5"/>
<path d="M134.86 63.0665C137.038 63.0665 138.804 60.8257 138.804 58.0616C138.804 55.2974 137.038 53.0566 134.86 53.0566C132.682 53.0566 130.916 55.2974 130.916 58.0616C130.916 60.8257 132.682 63.0665 134.86 63.0665Z" fill="#94A3BB" fill-opacity="0.5"/>
<path d="M122.152 79.6615C122.019 79.6617 121.888 79.6296 121.772 79.5682C121.656 79.5069 121.558 79.4183 121.487 79.3109C121.446 79.2487 117.156 72.9423 107.187 72.1518C103.038 71.8229 99.0998 72.9226 95.4876 75.4216C93.8765 76.5226 92.4454 77.8444 91.2409 79.3442C91.121 79.5047 90.9393 79.6136 90.7354 79.6471C90.5315 79.6806 90.3219 79.636 90.1524 79.5229C89.983 79.4099 89.8674 79.2377 89.8309 79.0438C89.7944 78.8499 89.8399 78.6502 89.9576 78.4882C90.0232 78.3987 91.5996 76.278 94.5195 74.2472C98.4009 71.5476 102.827 70.3097 107.317 70.6651C118.102 71.5205 122.629 78.2352 122.815 78.5206C122.889 78.6334 122.931 78.7631 122.934 78.8961C122.938 79.0291 122.904 79.1607 122.836 79.2771C122.769 79.3935 122.67 79.4906 122.549 79.5582C122.429 79.6259 122.291 79.6616 122.152 79.6617L122.152 79.6615Z" fill="#94A3BB" fill-opacity="0.5"/>
</svg>
