<svg width="216" height="199" viewBox="0 0 216 199" fill="none" xmlns="http://www.w3.org/2000/svg">
<path d="M113.134 18.252C113.134 18.252 118.769 52.7389 179.508 53.6908C233.45 54.536 216.306 115.599 197.158 134.8C172.355 159.673 123.745 153.167 121.194 182.118C118.642 211.069 50.1135 199.829 51.2806 156.179C52.7327 101.879 21.4826 118.39 5.66235 103.866C-5.69196 93.4414 -1.78919 45.1873 34.2 39.6628C64.4841 35.0142 62.914 22.8023 65.3218 13.7619C68.794 0.723728 103.902 -11.087 113.134 18.252Z" fill="url(#paint0_radial_6434_31323)" fill-opacity="0.5"/>
<path d="M170.274 141.015C170.277 141.891 170.099 142.759 169.749 143.57C169.399 144.38 168.884 145.117 168.234 145.738C167.584 146.358 166.812 146.851 165.962 147.187C165.112 147.523 164.201 147.696 163.28 147.697L51.0953 147.914C50.1749 147.916 49.2631 147.745 48.412 147.412C47.5609 147.079 46.7872 146.589 46.1351 145.97C45.4831 145.352 44.9655 144.618 44.612 143.809C44.2585 143 44.076 142.133 44.0749 141.257L43.9172 66.1817L106.013 29.0779C106.291 28.9111 106.613 28.8218 106.941 28.8203C107.27 28.8189 107.592 28.9052 107.871 29.0695L168.661 65.0803L170.116 65.9395V67.1408L170.274 141.015Z" fill="#186A64"/>
<path d="M161.121 35.5391H52.2453C51.9856 35.5391 51.7751 35.7394 51.7751 35.9865V146.87C51.7751 147.117 51.9856 147.318 52.2453 147.318H161.121C161.381 147.318 161.591 147.117 161.591 146.87V35.9865C161.591 35.7394 161.381 35.5391 161.121 35.5391Z" fill="#9BE9DC"/>
<path d="M163.168 147.595L107.485 107.187C107.44 107.155 107.404 107.113 107.38 107.064C107.355 107.016 107.343 106.963 107.345 106.909C107.346 106.855 107.361 106.803 107.388 106.756C107.415 106.708 107.453 106.668 107.5 106.638L169.556 66.27C169.609 66.2352 169.671 66.215 169.736 66.2115C169.801 66.208 169.865 66.2213 169.923 66.25C169.98 66.2787 170.028 66.3218 170.061 66.3745C170.095 66.4273 170.113 66.4877 170.113 66.5493L170.27 140.983C170.273 142.732 169.556 144.412 168.271 145.662C166.987 146.912 165.238 147.633 163.402 147.669C163.317 147.67 163.235 147.644 163.168 147.595Z" fill="url(#paint1_linear_6434_31323)"/>
<path d="M51.1896 147.804L106.702 107.185C106.747 107.152 106.783 107.11 106.807 107.061C106.831 107.013 106.843 106.959 106.841 106.906C106.839 106.852 106.824 106.8 106.797 106.753C106.77 106.706 106.732 106.665 106.685 106.635L44.4609 66.5036C44.4073 66.4691 44.3448 66.4491 44.2801 66.4458C44.2155 66.4425 44.1511 66.4561 44.0939 66.485C44.0367 66.5139 43.9889 66.5571 43.9556 66.61C43.9223 66.6628 43.9047 66.7233 43.9048 66.7849L44.0615 141.219C44.0652 142.967 44.7896 144.645 46.079 145.89C47.3685 147.135 49.1198 147.849 50.9566 147.878C51.0408 147.879 51.1229 147.853 51.1896 147.804Z" fill="url(#paint2_linear_6434_31323)"/>
<path d="M163.271 147.668L51.0866 147.882C49.3895 147.881 47.7502 147.295 46.4713 146.233C45.1925 145.171 44.3605 143.705 44.1289 142.105C44.0907 141.832 44.1239 141.554 44.2254 141.296C44.3269 141.039 44.4937 140.809 44.7109 140.627L105.897 89.1064C106.216 88.8373 106.628 88.6883 107.055 88.6875C107.481 88.6867 107.894 88.834 108.215 89.1019L169.616 140.389C169.834 140.57 170.002 140.8 170.104 141.057C170.207 141.314 170.241 141.592 170.204 141.865C169.979 143.466 169.153 144.935 167.879 146.002C166.605 147.069 164.968 147.661 163.271 147.668Z" fill="url(#paint3_linear_6434_31323)"/>
<path d="M79.6437 63.0724C81.8219 63.0724 83.5877 60.8316 83.5877 58.0674C83.5877 55.3033 81.8219 53.0625 79.6437 53.0625C77.4655 53.0625 75.6997 55.3033 75.6997 58.0674C75.6997 60.8316 77.4655 63.0724 79.6437 63.0724Z" fill="#186A64"/>
<path d="M134.86 63.0724C137.039 63.0724 138.804 60.8316 138.804 58.0674C138.804 55.3033 137.039 53.0625 134.86 53.0625C132.682 53.0625 130.917 55.3033 130.917 58.0674C130.917 60.8316 132.682 63.0724 134.86 63.0724Z" fill="#186A64"/>
<path d="M122.152 79.6655C122.019 79.6656 121.888 79.6335 121.772 79.5721C121.656 79.5108 121.558 79.4222 121.487 79.3148C121.446 79.2526 117.157 72.9462 107.187 72.1557C103.038 71.8269 99.0999 72.9265 95.4876 75.4255C93.8765 76.5265 92.4454 77.8483 91.2409 79.3481C91.121 79.5086 90.9393 79.6175 90.7354 79.651C90.5315 79.6845 90.3219 79.6399 90.1525 79.5268C89.983 79.4138 89.8674 79.2416 89.8309 79.0477C89.7944 78.8538 89.8399 78.6541 89.9576 78.4921C90.0233 78.4026 91.5996 76.2819 94.5195 74.2511C98.4009 71.5515 102.827 70.3136 107.317 70.669C118.102 71.5244 122.629 78.2392 122.815 78.5245C122.889 78.6373 122.931 78.767 122.934 78.9C122.938 79.033 122.904 79.1646 122.837 79.281C122.769 79.3974 122.67 79.4945 122.549 79.5621C122.429 79.6298 122.291 79.6655 122.152 79.6656L122.152 79.6655Z" fill="#186A64"/>
<defs>
<radialGradient id="paint0_radial_6434_31323" cx="0" cy="0" r="1" gradientUnits="userSpaceOnUse" gradientTransform="translate(107.871 99.0713) scale(106.887 100.001)">
<stop stop-color="#73B4AF"/>
<stop offset="1" stop-color="#B9EACB"/>
</radialGradient>
<linearGradient id="paint1_linear_6434_31323" x1="107.344" y1="106.94" x2="170.27" y2="106.94" gradientUnits="userSpaceOnUse">
<stop stop-color="#11998E"/>
<stop offset="1" stop-color="#6EBCB6"/>
</linearGradient>
<linearGradient id="paint2_linear_6434_31323" x1="43.9045" y1="107.162" x2="106.842" y2="107.162" gradientUnits="userSpaceOnUse">
<stop stop-color="#11998E"/>
<stop offset="1" stop-color="#6EBCB6"/>
</linearGradient>
<linearGradient id="paint3_linear_6434_31323" x1="44.1129" y1="118.285" x2="170.22" y2="118.285" gradientUnits="userSpaceOnUse">
<stop stop-color="#11998E"/>
<stop offset="1" stop-color="#6EBCB6"/>
</linearGradient>
</defs>
</svg>
