<svg width="271" height="208" viewBox="0 0 271 208" fill="none" xmlns="http://www.w3.org/2000/svg">
<path d="M142.788 203.353C156.113 203.353 166.916 192.551 166.916 179.225C166.916 165.9 156.113 155.098 142.788 155.098C129.462 155.098 118.66 165.9 118.66 179.225C118.66 192.551 129.462 203.353 142.788 203.353Z" fill="#3354CC"/>
<path d="M267.48 64.0411C236.432 30.4519 192.026 9.38428 142.787 9.38428C93.5482 9.38428 49.1426 30.4526 18.0943 64.0411C13.5841 68.9204 13.8972 76.5335 18.8421 80.9716C23.6455 85.2826 31.042 84.9845 35.4185 80.2412C62.133 51.287 100.379 33.1247 142.787 33.1247C185.196 33.1247 223.442 51.287 250.156 80.2412C254.533 84.9853 261.929 85.2826 266.733 80.9716C271.677 76.5335 271.991 68.9196 267.48 64.0411Z" fill="#3354CC"/>
<path d="M142.788 58.4648C107.983 58.4648 76.5754 73.2688 54.5188 96.9073C50.0206 101.728 50.4538 109.34 55.3616 113.744C60.1373 118.029 67.5014 117.789 71.8795 113.097C89.5983 94.1048 114.826 82.2053 142.788 82.2053C170.751 82.2053 195.978 94.104 213.697 113.096C218.074 117.788 225.439 118.029 230.215 113.743C235.122 109.339 235.557 101.727 231.057 96.9065C209 73.2688 177.593 58.4648 142.788 58.4648Z" fill="#3354CC"/>
<path d="M142.788 106.135C122.105 106.135 103.406 114.774 90.0996 128.63C85.4906 133.428 85.8867 141.135 90.838 145.579C95.5892 149.843 102.859 149.582 107.291 144.986C116.27 135.676 128.862 129.875 142.788 129.875C156.714 129.875 169.306 135.676 178.285 144.986C182.717 149.582 189.987 149.843 194.738 145.579C199.69 141.135 200.085 133.428 195.477 128.63C182.17 114.774 163.471 106.135 142.788 106.135Z" fill="#3354CC"/>
<path d="M142.788 198.727C156.113 198.727 166.916 187.924 166.916 174.599C166.916 161.273 156.113 150.471 142.788 150.471C129.462 150.471 118.66 161.273 118.66 174.599C118.66 187.924 129.462 198.727 142.788 198.727Z" fill="#3354CC"/>
<path d="M267.48 59.4149C236.432 25.8265 192.026 4.75812 142.787 4.75812C93.5482 4.75812 49.1426 25.8265 18.0943 59.4149C13.5841 64.2942 13.8972 71.9073 18.8421 76.3455C23.6455 80.6564 31.042 80.3584 35.4185 75.615C62.133 46.6608 100.379 28.4986 142.787 28.4986C185.196 28.4986 223.442 46.6608 250.156 75.615C254.533 80.3591 261.929 80.6564 266.733 76.3455C271.677 71.9073 271.991 64.2934 267.48 59.4149Z" fill="#3354CC"/>
<path d="M142.788 53.8383C107.983 53.8383 76.5754 68.6422 54.5188 92.2807C50.0206 97.1015 50.4538 104.713 55.3616 109.117C60.1373 113.403 67.5014 113.162 71.8795 108.471C89.5983 89.4782 114.826 77.5787 142.788 77.5787C170.751 77.5787 195.978 89.4774 213.697 108.471C218.074 113.162 225.439 113.403 230.215 109.117C235.122 104.713 235.557 97.1015 231.057 92.2807C209 68.6422 177.593 53.8383 142.788 53.8383Z" fill="#3354CC"/>
<path d="M142.788 101.509C122.105 101.509 103.406 110.148 90.0996 124.003C85.4906 128.802 85.8867 136.509 90.838 140.953C95.5892 145.216 102.859 144.955 107.291 140.36C116.27 131.05 128.862 125.248 142.788 125.248C156.714 125.248 169.306 131.05 178.285 140.36C182.717 144.955 189.987 145.217 194.738 140.953C199.69 136.509 200.085 128.802 195.477 124.003C182.17 110.148 163.471 101.509 142.788 101.509Z" fill="#3354CC"/>
<path d="M142.788 194.099C156.113 194.099 166.916 183.297 166.916 169.971C166.916 156.646 156.113 145.843 142.788 145.843C129.463 145.843 118.66 156.646 118.66 169.971C118.66 183.297 129.463 194.099 142.788 194.099Z" fill="#5A54D3"/>
<path d="M267.481 54.7872C236.432 21.198 192.027 0.130432 142.788 0.130432C93.5485 0.130432 49.1428 21.1988 18.0945 54.7872C13.5844 59.6665 13.8974 67.2796 18.8424 71.7178C23.6458 76.0287 31.0422 75.7307 35.4188 70.9873C62.1333 42.0331 100.379 23.8709 142.788 23.8709C185.196 23.8709 223.443 42.0331 250.156 70.9873C254.533 75.7314 261.929 76.0287 266.733 71.7178C271.678 67.2796 271.991 59.6657 267.481 54.7872Z" fill="#5A54D3"/>
<path d="M142.788 49.2104C107.984 49.2104 76.5756 64.0144 54.5191 87.6529C50.0208 92.4737 50.454 100.085 55.3618 104.489C60.1376 108.775 67.5016 108.535 71.8797 103.843C89.5985 84.8496 114.826 72.9509 142.788 72.9509C170.751 72.9509 195.978 84.8496 213.697 103.843C218.074 108.535 225.439 108.775 230.215 104.489C235.123 100.085 235.557 92.4737 231.058 87.6529C209 64.0144 177.593 49.2104 142.788 49.2104Z" fill="#5A54D3"/>
<path d="M142.788 96.8809C122.106 96.8809 103.406 105.52 90.0998 119.375C85.4909 124.174 85.887 131.881 90.8382 136.325C95.5895 140.588 102.859 140.327 107.291 135.732C116.27 126.422 128.862 120.621 142.788 120.621C156.714 120.621 169.306 126.422 178.285 135.732C182.717 140.328 189.987 140.589 194.738 136.325C199.69 131.881 200.085 124.174 195.477 119.375C182.17 105.52 163.471 96.8809 142.788 96.8809Z" fill="#5A54D3"/>
<path d="M142.788 193.969C156.114 193.969 166.916 183.166 166.916 169.841C166.916 156.516 156.114 145.713 142.788 145.713C129.463 145.713 118.66 156.516 118.66 169.841C118.66 183.166 129.463 193.969 142.788 193.969Z" fill="#3354CC"/>
<path d="M267.481 54.6568C236.433 21.0676 192.027 0 142.788 0C93.5487 0 49.1431 21.0684 18.0947 54.6568C13.5846 59.5361 13.8977 67.1492 18.8426 71.5873C23.646 75.8983 31.0425 75.6002 35.419 70.8569C62.1335 41.9027 100.379 23.7404 142.788 23.7404C185.196 23.7404 223.443 41.9027 250.157 70.8569C254.533 75.601 261.93 75.8983 266.733 71.5873C271.678 67.1492 271.991 59.5353 267.481 54.6568Z" fill="#3354CC"/>
<path d="M142.788 49.08C107.984 49.08 76.5759 63.884 54.5193 87.5225C50.0211 92.3433 50.4543 99.9548 55.3621 104.359C60.1378 108.645 67.5019 108.404 71.88 103.712C89.5987 84.7199 114.826 72.8205 142.788 72.8205C170.751 72.8205 195.979 84.7191 213.697 103.712C218.075 108.404 225.439 108.645 230.215 104.359C235.123 99.9548 235.557 92.3433 231.058 87.5225C209.001 63.884 177.593 49.08 142.788 49.08Z" fill="#3354CC"/>
<path d="M142.788 96.7508C122.106 96.7508 103.407 105.39 90.1001 119.245C85.4911 124.044 85.8872 131.751 90.8385 136.195C95.5897 140.458 102.86 140.197 107.292 135.602C116.271 126.292 128.863 120.49 142.788 120.49C156.714 120.49 169.306 126.292 178.285 135.602C182.717 140.197 189.987 140.458 194.738 136.195C199.69 131.751 200.086 124.044 195.477 119.245C182.17 105.39 163.472 96.7508 142.788 96.7508Z" fill="#3354CC"/>
<g opacity="0.08">
<path d="M209.296 39.7761L226.792 22.2803C202.005 8.11033 173.329 0 142.789 0C129.53 0 116.626 1.54079 104.234 4.42949L57.0437 51.6202C81.1423 34.0936 110.778 23.7404 142.789 23.7404C166.726 23.7397 189.336 29.5289 209.296 39.7761Z" fill="white"/>
<path d="M171.808 77.2634L190.257 58.8149C175.678 52.5561 159.634 49.08 142.789 49.08C107.985 49.08 76.5769 63.884 54.5203 87.5225C50.022 92.3433 50.4553 99.9548 55.363 104.359C60.1388 108.645 67.5036 108.404 71.881 103.712C89.5997 84.7199 114.827 72.8205 142.789 72.8205C152.896 72.8205 162.642 74.3818 171.808 77.2634Z" fill="white"/>
<path d="M151.768 97.305C148.824 96.9429 145.829 96.7508 142.789 96.7508C122.107 96.7508 103.408 105.39 90.1011 119.245C85.4921 124.044 85.8882 131.751 90.8394 136.195C95.5907 140.458 102.861 140.197 107.293 135.602C112.332 130.376 118.511 126.258 125.424 123.648L151.768 97.305Z" fill="white"/>
<path d="M142.789 145.713C129.464 145.713 118.661 156.515 118.661 169.841C118.661 176.736 121.559 182.952 126.197 187.349L160.297 153.249C155.9 148.611 149.685 145.713 142.789 145.713Z" fill="white"/>
<path d="M244.098 33.6281L227.119 50.6077C234.049 55.5233 240.532 61.0272 246.499 67.0465L263.269 50.2764C257.305 44.2666 250.898 38.6995 244.098 33.6281Z" fill="white"/>
<path d="M191.659 86.0689C199.05 90.4003 205.823 95.6789 211.804 101.742L228.588 84.9581C222.617 78.9222 216.014 73.5148 208.891 68.8363L191.659 86.0689Z" fill="white"/>
<path d="M155.556 122.171C164.253 124.504 172.006 129.161 178.113 135.432L194.894 118.651C188.884 112.534 181.812 107.465 173.976 103.751L155.556 122.171Z" fill="white"/>
</g>
<path d="M192.116 201.242C190.101 201.242 188.319 202.165 187.11 203.59C185.257 197.138 179.379 192.387 172.33 192.387C167.037 192.387 162.373 195.056 159.591 199.115C155.884 187.246 144.806 178.63 131.715 178.63C123.24 178.63 115.631 182.263 110.297 188.031C102.527 169.331 84.099 156.174 62.5872 156.174C35.6537 156.174 13.5592 176.794 11.1693 203.105C9.98346 201.955 8.37152 201.241 6.5896 201.241C2.94987 201.241 -0.000488281 204.191 -0.000488281 207.831H114.244H156.886H160.916H185.526H187.774H198.706C198.706 204.192 195.756 201.242 192.116 201.242Z" fill="#BAC8FC"/>
<path d="M110.221 187.857C102.409 169.251 84.0332 156.176 62.5885 156.176C57.2688 156.176 52.1429 156.992 47.3149 158.485C48.972 158.2 82.2908 152.954 98.1913 188.807C99.9985 192.883 105.483 193.629 108.242 190.126C108.864 189.337 109.525 188.579 110.221 187.857Z" fill="#C0CFF9"/>
<path d="M159.592 199.116C155.885 187.246 144.807 178.631 131.716 178.631C127.504 178.631 123.508 179.53 119.896 181.14C120.19 181.058 143.821 174.533 155.557 200.519C156.161 201.857 158.057 201.897 158.718 200.586C158.969 200.089 159.258 199.59 159.592 199.116Z" fill="#C0CFF9"/>
<path d="M187.11 203.591C185.257 197.138 179.378 192.388 172.33 192.388C170.244 192.388 168.258 192.807 166.444 193.558C170.013 192.675 179.786 191.602 184.877 204.368C185.171 205.105 186.176 205.15 186.549 204.449C186.711 204.148 186.897 203.852 187.11 203.591Z" fill="#C0CFF9"/>
<path d="M54.8064 117.971L60.6313 117.734L60.2273 107.813L54.4023 108.05L54.8064 117.971Z" fill="#F9E8CA"/>
<path d="M53.6381 87.3551L52.9558 86.4887C52.57 85.9978 52.6546 85.287 53.1456 84.9013C53.6365 84.5155 54.3472 84.6 54.733 85.091L55.6074 86.2025L55.3908 85.1384C55.0769 83.5953 60.6661 82.4584 60.98 84.0016L69.2247 93.1887C69.2374 93.5001 69.2034 93.8013 69.1449 94.0946C69.2326 94.5698 69.3006 95.052 69.3204 95.5493L69.6864 104.526C69.9157 110.162 65.5486 114.916 59.8977 115.146C52.1131 115.463 49.309 106.143 49.2094 103.701L48.9113 96.3809C48.7588 92.6123 50.6727 89.2462 53.6381 87.3551Z" fill="#312887"/>
<path d="M56.3394 92.1287L69.1622 91.6061L69.6887 104.525C69.6903 104.572 69.6895 104.619 69.6911 104.665L64.3959 104.881C59.1166 105.096 54.6626 100.991 54.4476 95.7115L54.3875 94.2458C54.3416 93.1232 55.216 92.1746 56.3394 92.1287Z" fill="#F9E8CA"/>
<path d="M49.1538 103.702L50.8907 103.631L50.6978 98.8981L48.9609 98.9693C48.0146 99.008 47.2786 99.8065 47.3174 100.753L47.3703 102.059C47.4091 103.005 48.2075 103.741 49.1538 103.702Z" fill="#F9E8CA"/>
<path d="M63.5307 106.707C63.3726 106.713 63.2517 106.859 63.2817 107.014C63.4635 107.952 64.3078 108.642 65.2913 108.602C66.2747 108.562 67.0606 107.806 67.1649 106.856C67.1823 106.699 67.0503 106.563 66.8922 106.57L63.5307 106.707Z" fill="white"/>
<path d="M59.0956 125.619L57.8188 124.58C56.4591 123.115 55.9412 121.051 56.6599 119.177L57.5303 116.906C57.7714 116.277 58.3042 115.789 58.9904 115.614C59.0015 115.611 59.0118 115.608 59.0228 115.606C60.3178 115.278 61.7384 115.692 62.7139 116.633L72.7517 126.626L88.8885 124.894L91.2562 127.518L70.9033 135.228L59.0956 125.619Z" fill="#F2B657"/>
<path d="M57.4084 115.662L59.3058 115.585C60.1287 115.551 61.1778 115.373 61.7162 115.997C74.3319 130.617 72.9255 150.249 72.9255 150.249L53.1386 153.616L51.8381 121.706C51.7077 118.499 54.2011 115.793 57.4084 115.662Z" fill="#FDCB6E"/>
<path d="M87.8294 166.072L64.6012 161.07C61.4698 159.532 59.0689 157.01 58.0522 152.844L72.4973 150.378C72.4973 150.378 90.7355 156.106 97.7382 158.27C98.207 158.414 98.6371 158.648 99.0142 158.961C99.5415 159.4 100.219 160.06 100.381 160.66L110.275 180.379L105.736 180.564C99.3075 169.47 94.8385 166.665 87.8294 166.072Z" fill="#4768E0"/>
<path d="M88.6112 128.395C88.6112 128.395 91.5585 128.156 92.4067 126.244C93.255 124.333 93.0471 121.034 93.0471 121.034L86.6934 125.878L88.6112 128.395Z" fill="#F7DDCB"/>
<g opacity="0.3">
<path d="M67.6789 154.584L91.4367 162.394C91.4438 162.396 91.4367 162.394 91.4438 162.396C92.4447 162.707 93.1878 163.581 93.4621 164.593L99.4807 186.404C100.285 186.327 101.114 186.315 101.934 186.416C105.985 186.914 106.681 189.474 106.681 189.474L106.823 190.354L94.5958 190.846L94.2495 189.98L93.561 188.076C93.561 188.076 93.5791 188.067 93.5965 188.058L88.231 173.046C83.6086 164.639 57.5234 174.628 53.2346 157.053L67.6789 154.584Z" fill="#CCCCCC"/>
</g>
<path d="M67.679 151.145L92.5009 160.623C92.508 160.625 92.5009 160.623 92.508 160.625C93.5088 160.936 94.252 161.81 94.5263 162.822L101.452 187.918L95.3327 188.167L89.2944 171.274C84.672 162.866 57.5227 171.188 53.2339 153.612L67.679 151.145Z" fill="#4768E0"/>
<path d="M54.6031 127.567L53.3121 126.463C51.9476 124.894 51.4709 122.643 52.267 120.566L53.237 118.035C53.5066 117.33 54.0892 116.793 54.8126 116.579C56.1605 116.183 57.6183 116.597 58.6009 117.602L68.698 128.284L85.4356 125.924L87.8097 128.737L70.4664 136.109C68.0623 137.131 65.2867 136.703 63.3008 135.005L54.6031 127.567Z" fill="#FFD188"/>
<path d="M95.2447 119.302L89.4452 124.935C89.3946 124.984 89.3306 125.016 89.261 125.026L85.9161 125.53C85.5873 125.579 85.3944 125.171 85.641 124.948L91.7844 119.411C91.8295 119.37 91.8841 119.343 91.9434 119.331L94.9443 118.731C95.2732 118.666 95.4843 119.068 95.2447 119.302Z" fill="#312887"/>
<path d="M86.3652 129.092C86.3652 129.092 89.3124 128.853 90.1607 126.941C90.6935 125.741 90.8097 123.993 90.8224 122.86C90.8279 122.389 90.2895 122.122 89.9148 122.407L87.9629 123.895C87.9629 123.895 87.5732 122.941 87.2973 122.991C86.8356 123.074 86.7818 124.795 86.7818 124.795L84.4465 126.575L86.3652 129.092Z" fill="#F9E8CA"/>
<path d="M95.0809 187.637L94.22 185.119C94.22 185.119 98.3949 182.386 102.526 183.132C106.658 183.878 107.583 187.257 107.583 187.257L95.0809 187.637Z" fill="#EABE46"/>
<path d="M104.593 177.944C106.147 176.967 109.033 175.502 111.395 175.643C115.317 175.877 116.407 179.097 116.407 179.097L106.238 180.711L104.593 177.944Z" fill="#EABE46"/>
<path d="M95.5046 188.782L107.801 188.417L107.581 187.258L95.0769 187.629L95.5046 188.782Z" fill="white"/>
<path d="M106.869 181.911L116.608 180.344L116.407 179.097L106.238 180.711L106.869 181.911Z" fill="white"/>
<path d="M70.9245 93.0441C70.9245 93.0441 75.3445 94.011 75.309 94.6165C75.2837 95.0466 67.3947 98.0049 63.3431 97.2538C60.3698 96.7028 57.0589 96.1376 53.0903 94.241C53.0903 94.241 62.0545 91.3278 70.9245 93.0441Z" fill="#FFD188"/>
<path d="M49.0406 93.8131C48.2667 86.623 53.5547 82.6986 59.5985 82.486C65.6416 82.2733 70.4047 84.4149 70.9256 93.0439C70.9256 93.0439 67.3499 94.5143 60.6682 94.6946C57.2861 94.7847 49.0406 93.8131 49.0406 93.8131Z" fill="#FDCB6E"/>
<path d="M21.1157 107.298C21.1157 113.045 25.7911 117.721 31.5384 117.721C33.4002 117.721 35.2311 117.215 36.8439 116.257L41.9161 117.948L40.2654 112.995C41.3753 111.298 41.9611 109.333 41.9611 107.298C41.9611 101.551 37.2858 96.8752 31.5384 96.8752C25.7911 96.8752 21.1157 101.551 21.1157 107.298ZM21.9063 107.298C21.9063 101.987 26.2267 97.6657 31.5384 97.6657C36.8494 97.6657 41.1706 101.986 41.1706 107.298C41.1706 109.24 40.5943 111.112 39.5025 112.714L39.3918 112.876L40.6662 116.698L36.745 115.392L36.5877 115.489C35.0612 116.432 33.3148 116.93 31.5384 116.93C26.2267 116.929 21.9063 112.609 21.9063 107.298Z" fill="#F2B657"/>
<path d="M36.0158 111.772H27.0659C26.4042 111.772 25.8674 111.236 25.8674 110.574V104.249C25.8674 103.587 26.4042 103.05 27.0659 103.05H36.0158C36.6775 103.05 37.2143 103.587 37.2143 104.249V110.574C37.2143 111.236 36.6775 111.772 36.0158 111.772Z" fill="#FFD188"/>
<path d="M37.2127 110.574V108.949L35.7027 106.556C35.4505 106.156 34.8766 106.129 34.5872 106.504L31.7879 110.136C31.4732 110.544 30.8605 110.553 30.5348 110.154L28.8003 108.035C28.5355 107.712 28.0422 107.711 27.7758 108.032L25.865 110.339V110.574C25.865 111.236 26.4018 111.772 27.0635 111.772H36.0134C36.6759 111.772 37.2127 111.236 37.2127 110.574Z" fill="#F2B657"/>
<path d="M32.8556 105.858C32.8556 106.584 32.2666 107.173 31.5401 107.173C30.8136 107.173 30.2246 106.584 30.2246 105.858C30.2246 105.131 30.8136 104.542 31.5401 104.542C32.2674 104.542 32.8556 105.131 32.8556 105.858Z" fill="#F2B657"/>
</svg>
