<svg width="330" height="277" viewBox="0 0 330 277" fill="none" xmlns="http://www.w3.org/2000/svg">
<path fill-rule="evenodd" clip-rule="evenodd" d="M27.3047 138.195L27.3047 0L165.5 6.0407e-06C165.5 76.323 103.628 138.195 27.3047 138.195ZM303.695 138.195C303.695 61.8721 241.822 2.60578e-05 165.5 6.0407e-06V138.195H27.3047C27.3047 214.517 89.1767 276.39 165.5 276.39H303.695V138.195ZM303.641 138.195H165.5V276.39C165.5 200.086 227.342 138.224 303.641 138.195Z" fill="url(#paint0_linear_2042_2825)"/>
<g filter="url(#filter0_d_2042_2825)">
<rect x="16" y="30" width="298" height="204" rx="5" fill="white"/>
</g>
<path d="M42 107C48.6274 107 54 101.627 54 95C54 88.3726 48.6274 83 42 83C35.3726 83 30 88.3726 30 95C30 101.627 35.3726 107 42 107Z" fill="#F7931A"/>
<path d="M47.3931 93.515C47.6286 91.943 46.4309 91.0978 44.7944 90.5338L45.3254 88.4038L44.0294 88.0813L43.5119 90.155C43.1714 90.0695 42.8219 89.99 42.4731 89.9105L42.9944 87.8233L41.6984 87.5L41.1674 89.6292C40.8849 89.5657 40.6089 89.5008 40.3394 89.4343L40.3409 89.4275L38.5529 88.9813L38.2079 90.3658C38.2079 90.3658 39.1701 90.5863 39.1499 90.5998C39.6749 90.731 39.7694 91.0783 39.7536 91.3543L39.1491 93.7805C39.1856 93.789 39.2306 93.8033 39.2841 93.8233L39.1469 93.7895L38.2994 97.1885C38.2349 97.3475 38.0721 97.5868 37.7046 97.496C37.7181 97.5148 36.7626 97.2613 36.7626 97.2613L36.1191 98.7448L37.8066 99.1655C38.1201 99.2443 38.4276 99.3268 38.7299 99.404L38.1936 101.558L39.4889 101.881L40.0199 99.7505C40.3734 99.8455 40.7179 99.9348 41.0534 100.018L40.5239 102.139L41.8199 102.462L42.3561 100.312C44.5671 100.731 46.2291 100.562 46.9289 98.5625C47.4929 96.953 46.9011 96.0238 45.7379 95.4185C46.5854 95.2235 47.2229 94.6663 47.3931 93.515ZM44.4306 97.6685C44.0309 99.2788 41.3196 98.408 40.4406 98.1898L41.1531 95.336C42.0321 95.5558 44.8499 95.99 44.4306 97.6685ZM44.8319 93.4918C44.4666 94.9565 42.2106 94.2118 41.4794 94.0295L42.1244 91.442C42.8556 91.6243 45.2129 91.964 44.8319 93.4918Z" fill="white"/>
<path d="M233.627 91V83.344L232.001 84.322V83.332L233.627 82.36H234.521V91H233.627ZM236.485 91V89.974H237.511V91H236.485ZM239.428 91V83.344L237.802 84.322V83.332L239.428 82.36H240.322V91H239.428ZM242.358 90.994L242.364 90.19L246.27 86.662C246.606 86.358 246.828 86.07 246.936 85.798C247.048 85.522 247.104 85.234 247.104 84.934C247.104 84.578 247.02 84.256 246.852 83.968C246.684 83.68 246.458 83.452 246.174 83.284C245.89 83.112 245.572 83.026 245.22 83.026C244.852 83.026 244.524 83.114 244.236 83.29C243.948 83.466 243.72 83.698 243.552 83.986C243.388 84.274 243.308 84.588 243.312 84.928H242.412C242.412 84.404 242.536 83.934 242.784 83.518C243.032 83.102 243.368 82.776 243.792 82.54C244.216 82.3 244.696 82.18 245.232 82.18C245.756 82.18 246.226 82.304 246.642 82.552C247.062 82.796 247.392 83.128 247.632 83.548C247.876 83.964 247.998 84.428 247.998 84.94C247.998 85.3 247.954 85.618 247.866 85.894C247.782 86.166 247.648 86.42 247.464 86.656C247.284 86.888 247.054 87.128 246.774 87.376L243.306 90.508L243.168 90.148H247.998V90.994H242.358ZM250.948 91V83.344L249.322 84.322V83.332L250.948 82.36H251.842V91H250.948ZM256.667 91.18C256.219 91.18 255.805 91.088 255.425 90.904C255.045 90.72 254.721 90.466 254.453 90.142C254.185 89.818 253.993 89.446 253.877 89.026L254.723 88.798C254.799 89.11 254.937 89.38 255.137 89.608C255.337 89.832 255.571 90.006 255.839 90.13C256.111 90.254 256.395 90.316 256.691 90.316C257.075 90.316 257.419 90.224 257.723 90.04C258.031 89.852 258.275 89.604 258.455 89.296C258.635 88.988 258.725 88.65 258.725 88.282C258.725 87.902 258.631 87.56 258.443 87.256C258.255 86.948 258.007 86.704 257.699 86.524C257.391 86.344 257.055 86.254 256.691 86.254C256.283 86.254 255.931 86.344 255.635 86.524C255.339 86.7 255.103 86.922 254.927 87.19L254.123 86.854L254.387 82.36H259.001V83.206H254.777L255.215 82.792L254.981 86.626L254.759 86.332C255.007 86.048 255.307 85.826 255.659 85.666C256.011 85.506 256.381 85.426 256.769 85.426C257.301 85.426 257.781 85.554 258.209 85.81C258.637 86.062 258.977 86.404 259.229 86.836C259.481 87.268 259.607 87.75 259.607 88.282C259.607 88.81 259.473 89.294 259.205 89.734C258.937 90.17 258.581 90.52 258.137 90.784C257.693 91.048 257.203 91.18 256.667 91.18ZM264.847 91V89.326H260.803V88.486L263.695 82.36H264.685L261.793 88.486H264.847V85.966H265.735V88.486H266.677V89.326H265.735V91H264.847ZM271.043 91.18C270.503 91.18 270.011 91.05 269.567 90.79C269.127 90.526 268.775 90.17 268.511 89.722C268.251 89.27 268.121 88.762 268.121 88.198V85.204C268.121 84.624 268.251 84.108 268.511 83.656C268.771 83.2 269.125 82.842 269.573 82.582C270.025 82.318 270.537 82.186 271.109 82.186C271.601 82.186 272.057 82.294 272.477 82.51C272.901 82.726 273.247 83.028 273.515 83.416L272.837 83.974C272.653 83.686 272.409 83.456 272.105 83.284C271.801 83.112 271.469 83.026 271.109 83.026C270.705 83.026 270.345 83.124 270.029 83.32C269.713 83.516 269.465 83.774 269.285 84.094C269.105 84.41 269.015 84.754 269.015 85.126V87.01L268.793 86.758C269.045 86.362 269.375 86.042 269.783 85.798C270.195 85.554 270.643 85.432 271.127 85.432C271.663 85.432 272.145 85.56 272.573 85.816C273.001 86.068 273.341 86.41 273.593 86.842C273.845 87.274 273.971 87.758 273.971 88.294C273.971 88.826 273.837 89.31 273.569 89.746C273.305 90.182 272.951 90.53 272.507 90.79C272.067 91.05 271.579 91.18 271.043 91.18ZM271.043 90.322C271.419 90.322 271.761 90.232 272.069 90.052C272.381 89.872 272.627 89.628 272.807 89.32C272.991 89.012 273.083 88.67 273.083 88.294C273.083 87.918 272.991 87.576 272.807 87.268C272.627 86.956 272.383 86.71 272.075 86.53C271.767 86.346 271.425 86.254 271.049 86.254C270.673 86.254 270.331 86.346 270.023 86.53C269.715 86.71 269.469 86.956 269.285 87.268C269.105 87.576 269.015 87.918 269.015 88.294C269.015 88.666 269.105 89.006 269.285 89.314C269.465 89.622 269.709 89.868 270.017 90.052C270.325 90.232 270.667 90.322 271.043 90.322ZM277.965 91V82.36H281.301C281.785 82.36 282.207 82.46 282.567 82.66C282.927 82.86 283.207 83.13 283.407 83.47C283.607 83.806 283.707 84.178 283.707 84.586C283.707 85.05 283.583 85.464 283.335 85.828C283.087 86.188 282.755 86.438 282.339 86.578L282.327 86.284C282.887 86.444 283.327 86.724 283.647 87.124C283.967 87.524 284.127 88.008 284.127 88.576C284.127 89.076 284.021 89.508 283.809 89.872C283.597 90.232 283.299 90.51 282.915 90.706C282.531 90.902 282.085 91 281.577 91H277.965ZM278.853 90.154H281.361C281.713 90.154 282.029 90.092 282.309 89.968C282.589 89.84 282.809 89.66 282.969 89.428C283.133 89.196 283.215 88.916 283.215 88.588C283.215 88.268 283.141 87.98 282.993 87.724C282.845 87.468 282.643 87.264 282.387 87.112C282.135 86.956 281.847 86.878 281.523 86.878H278.853V90.154ZM278.853 86.044H281.295C281.571 86.044 281.823 85.982 282.051 85.858C282.279 85.73 282.459 85.556 282.591 85.336C282.727 85.116 282.795 84.862 282.795 84.574C282.795 84.166 282.653 83.834 282.369 83.578C282.089 83.322 281.731 83.194 281.295 83.194H278.853V86.044ZM287.388 91V83.206H284.37V82.36H291.288V83.206H288.27V91H287.388ZM295.748 91.18C294.888 91.18 294.162 90.99 293.57 90.61C292.978 90.226 292.53 89.696 292.226 89.02C291.922 88.344 291.77 87.564 291.77 86.68C291.77 85.796 291.922 85.016 292.226 84.34C292.53 83.664 292.978 83.136 293.57 82.756C294.162 82.372 294.888 82.18 295.748 82.18C296.752 82.18 297.572 82.438 298.208 82.954C298.844 83.466 299.28 84.154 299.516 85.018L298.616 85.252C298.432 84.568 298.102 84.026 297.626 83.626C297.15 83.226 296.524 83.026 295.748 83.026C295.072 83.026 294.51 83.18 294.062 83.488C293.614 83.796 293.276 84.226 293.048 84.778C292.824 85.326 292.708 85.96 292.7 86.68C292.696 87.4 292.806 88.034 293.03 88.582C293.258 89.13 293.598 89.56 294.05 89.872C294.506 90.18 295.072 90.334 295.748 90.334C296.524 90.334 297.15 90.134 297.626 89.734C298.102 89.33 298.432 88.788 298.616 88.108L299.516 88.342C299.28 89.206 298.844 89.896 298.208 90.412C297.572 90.924 296.752 91.18 295.748 91.18Z" fill="black"/>
<path d="M64.84 91V82.36H68.176C68.66 82.36 69.082 82.46 69.442 82.66C69.802 82.86 70.082 83.13 70.282 83.47C70.482 83.806 70.582 84.178 70.582 84.586C70.582 85.05 70.458 85.464 70.21 85.828C69.962 86.188 69.63 86.438 69.214 86.578L69.202 86.284C69.762 86.444 70.202 86.724 70.522 87.124C70.842 87.524 71.002 88.008 71.002 88.576C71.002 89.076 70.896 89.508 70.684 89.872C70.472 90.232 70.174 90.51 69.79 90.706C69.406 90.902 68.96 91 68.452 91H64.84ZM65.728 90.154H68.236C68.588 90.154 68.904 90.092 69.184 89.968C69.464 89.84 69.684 89.66 69.844 89.428C70.008 89.196 70.09 88.916 70.09 88.588C70.09 88.268 70.016 87.98 69.868 87.724C69.72 87.468 69.518 87.264 69.262 87.112C69.01 86.956 68.722 86.878 68.398 86.878H65.728V90.154ZM65.728 86.044H68.17C68.446 86.044 68.698 85.982 68.926 85.858C69.154 85.73 69.334 85.556 69.466 85.336C69.602 85.116 69.67 84.862 69.67 84.574C69.67 84.166 69.528 83.834 69.244 83.578C68.964 83.322 68.606 83.194 68.17 83.194H65.728V86.044ZM72.3194 83.29V82.3H73.2014V83.29H72.3194ZM72.3194 91V84.52H73.2014V91H72.3194ZM78.5282 91C78.1642 91.076 77.8042 91.106 77.4482 91.09C77.0962 91.074 76.7802 90.998 76.5002 90.862C76.2242 90.726 76.0142 90.514 75.8702 90.226C75.7542 89.986 75.6902 89.744 75.6782 89.5C75.6702 89.252 75.6662 88.97 75.6662 88.654V82.72H76.5422V88.618C76.5422 88.89 76.5442 89.118 76.5482 89.302C76.5562 89.482 76.5982 89.642 76.6742 89.782C76.8182 90.05 77.0462 90.21 77.3582 90.262C77.6742 90.314 78.0642 90.302 78.5282 90.226V91ZM74.2802 85.276V84.52H78.5282V85.276H74.2802ZM82.2585 91.18C81.6065 91.18 81.0545 91.034 80.6025 90.742C80.1505 90.45 79.8065 90.048 79.5705 89.536C79.3385 89.02 79.2185 88.428 79.2105 87.76C79.2185 87.08 79.3425 86.484 79.5825 85.972C79.8225 85.456 80.1685 85.056 80.6205 84.772C81.0725 84.484 81.6205 84.34 82.2645 84.34C82.9205 84.34 83.4905 84.5 83.9745 84.82C84.4625 85.14 84.7965 85.578 84.9765 86.134L84.1125 86.41C83.9605 86.022 83.7185 85.722 83.3865 85.51C83.0585 85.294 82.6825 85.186 82.2585 85.186C81.7825 85.186 81.3885 85.296 81.0765 85.516C80.7645 85.732 80.5325 86.034 80.3805 86.422C80.2285 86.81 80.1505 87.256 80.1465 87.76C80.1545 88.536 80.3345 89.16 80.6865 89.632C81.0385 90.1 81.5625 90.334 82.2585 90.334C82.6985 90.334 83.0725 90.234 83.3805 90.034C83.6925 89.83 83.9285 89.534 84.0885 89.146L84.9765 89.41C84.7365 89.986 84.3845 90.426 83.9205 90.73C83.4565 91.03 82.9025 91.18 82.2585 91.18ZM88.7452 91.18C88.1012 91.18 87.5512 91.034 87.0952 90.742C86.6392 90.45 86.2892 90.046 86.0452 89.53C85.8012 89.014 85.6792 88.422 85.6792 87.754C85.6792 87.074 85.8032 86.478 86.0512 85.966C86.2992 85.454 86.6512 85.056 87.1072 84.772C87.5672 84.484 88.1132 84.34 88.7452 84.34C89.3932 84.34 89.9452 84.486 90.4012 84.778C90.8612 85.066 91.2112 85.468 91.4512 85.984C91.6952 86.496 91.8172 87.086 91.8172 87.754C91.8172 88.434 91.6952 89.032 91.4512 89.548C91.2072 90.06 90.8552 90.46 90.3952 90.748C89.9352 91.036 89.3852 91.18 88.7452 91.18ZM88.7452 90.334C89.4652 90.334 90.0012 90.096 90.3532 89.62C90.7052 89.14 90.8812 88.518 90.8812 87.754C90.8812 86.97 90.7032 86.346 90.3472 85.882C89.9952 85.418 89.4612 85.186 88.7452 85.186C88.2612 85.186 87.8612 85.296 87.5452 85.516C87.2332 85.732 86.9992 86.034 86.8432 86.422C86.6912 86.806 86.6152 87.25 86.6152 87.754C86.6152 88.534 86.7952 89.16 87.1552 89.632C87.5152 90.1 88.0452 90.334 88.7452 90.334ZM93.2608 83.29V82.3H94.1428V83.29H93.2608ZM93.2608 91V84.52H94.1428V91H93.2608ZM100.622 91V87.694C100.622 87.334 100.588 87.004 100.52 86.704C100.452 86.4 100.342 86.136 100.19 85.912C100.042 85.684 99.8476 85.508 99.6076 85.384C99.3716 85.26 99.0836 85.198 98.7436 85.198C98.4316 85.198 98.1556 85.252 97.9156 85.36C97.6796 85.468 97.4796 85.624 97.3156 85.828C97.1556 86.028 97.0336 86.272 96.9496 86.56C96.8656 86.848 96.8236 87.176 96.8236 87.544L96.1996 87.406C96.1996 86.742 96.3156 86.184 96.5476 85.732C96.7796 85.28 97.0996 84.938 97.5076 84.706C97.9156 84.474 98.3836 84.358 98.9116 84.358C99.2996 84.358 99.6376 84.418 99.9256 84.538C100.218 84.658 100.464 84.82 100.664 85.024C100.868 85.228 101.032 85.462 101.156 85.726C101.28 85.986 101.37 86.264 101.426 86.56C101.482 86.852 101.51 87.144 101.51 87.436V91H100.622ZM95.9356 91V84.52H96.7336V86.116H96.8236V91H95.9356Z" fill="black"/>
<path d="M65.955 110V103.62L64.6 104.435V103.61L65.955 102.8H66.7V110H65.955ZM70.9465 110.15C70.5032 110.15 70.1032 110.047 69.7465 109.84C69.3932 109.633 69.1132 109.353 68.9065 109C68.6998 108.643 68.5965 108.243 68.5965 107.8V105C68.5965 104.557 68.6998 104.158 68.9065 103.805C69.1132 103.448 69.3932 103.167 69.7465 102.96C70.1032 102.753 70.5032 102.65 70.9465 102.65C71.3898 102.65 71.7882 102.753 72.1415 102.96C72.4982 103.167 72.7798 103.448 72.9865 103.805C73.1932 104.158 73.2965 104.557 73.2965 105V107.8C73.2965 108.243 73.1932 108.643 72.9865 109C72.7798 109.353 72.4982 109.633 72.1415 109.84C71.7882 110.047 71.3898 110.15 70.9465 110.15ZM70.9465 109.44C71.2432 109.44 71.5132 109.368 71.7565 109.225C71.9998 109.078 72.1932 108.883 72.3365 108.64C72.4798 108.397 72.5515 108.128 72.5515 107.835V104.965C72.5515 104.668 72.4798 104.398 72.3365 104.155C72.1932 103.912 71.9998 103.718 71.7565 103.575C71.5132 103.428 71.2432 103.355 70.9465 103.355C70.6498 103.355 70.3798 103.428 70.1365 103.575C69.8932 103.718 69.6998 103.912 69.5565 104.155C69.4132 104.398 69.3415 104.668 69.3415 104.965V107.835C69.3415 108.128 69.4132 108.397 69.5565 108.64C69.6998 108.883 69.8932 109.078 70.1365 109.225C70.3798 109.368 70.6498 109.44 70.9465 109.44ZM74.6 111.045L74.645 110.68C74.7783 110.69 74.875 110.663 74.935 110.6C74.995 110.537 75.0317 110.452 75.045 110.345C75.0583 110.238 75.0617 110.123 75.055 110H74.6V108.945H75.455V110.2C75.455 110.507 75.3767 110.737 75.22 110.89C75.0667 111.043 74.86 111.095 74.6 111.045ZM79.5513 110.15C79.1013 110.15 78.7029 110.06 78.3563 109.88C78.0129 109.7 77.7429 109.448 77.5463 109.125C77.3529 108.798 77.2563 108.417 77.2563 107.98C77.2563 107.533 77.3646 107.137 77.5813 106.79C77.7979 106.44 78.1279 106.175 78.5713 105.995L78.5613 106.285C78.1913 106.148 77.9096 105.925 77.7163 105.615C77.5229 105.305 77.4263 104.962 77.4263 104.585C77.4263 104.185 77.5179 103.842 77.7013 103.555C77.8846 103.265 78.1346 103.042 78.4513 102.885C78.7713 102.728 79.1379 102.65 79.5513 102.65C79.9646 102.65 80.3313 102.728 80.6513 102.885C80.9713 103.042 81.2229 103.265 81.4063 103.555C81.5896 103.842 81.6812 104.185 81.6812 104.585C81.6812 104.962 81.5879 105.303 81.4013 105.61C81.2179 105.917 80.9363 106.142 80.5563 106.285L80.5313 105.995C80.9746 106.172 81.3063 106.435 81.5263 106.785C81.7496 107.135 81.8613 107.533 81.8613 107.98C81.8613 108.417 81.7629 108.798 81.5663 109.125C81.3696 109.448 81.0979 109.7 80.7513 109.88C80.4046 110.06 80.0046 110.15 79.5513 110.15ZM79.5513 109.445C80.0046 109.445 80.3729 109.32 80.6563 109.07C80.9396 108.817 81.0813 108.453 81.0813 107.98C81.0813 107.5 80.9413 107.137 80.6613 106.89C80.3813 106.64 80.0113 106.515 79.5513 106.515C79.0913 106.515 78.7229 106.64 78.4463 106.89C78.1696 107.137 78.0313 107.5 78.0313 107.98C78.0313 108.453 78.1713 108.817 78.4513 109.07C78.7313 109.32 79.0979 109.445 79.5513 109.445ZM79.5513 105.805C79.9513 105.805 80.2763 105.703 80.5263 105.5C80.7763 105.293 80.9013 104.988 80.9013 104.585C80.9013 104.182 80.7763 103.88 80.5263 103.68C80.2763 103.477 79.9513 103.375 79.5513 103.375C79.1513 103.375 78.8263 103.477 78.5763 103.68C78.3296 103.88 78.2063 104.182 78.2063 104.585C78.2063 104.988 78.3296 105.293 78.5763 105.5C78.8263 105.703 79.1513 105.805 79.5513 105.805ZM85.282 110.15C84.9087 110.15 84.5637 110.073 84.247 109.92C83.9304 109.767 83.6604 109.555 83.437 109.285C83.2137 109.015 83.0537 108.705 82.957 108.355L83.662 108.165C83.7254 108.425 83.8404 108.65 84.007 108.84C84.1737 109.027 84.3687 109.172 84.592 109.275C84.8187 109.378 85.0554 109.43 85.302 109.43C85.622 109.43 85.9087 109.353 86.162 109.2C86.4187 109.043 86.622 108.837 86.772 108.58C86.922 108.323 86.997 108.042 86.997 107.735C86.997 107.418 86.9187 107.133 86.762 106.88C86.6054 106.623 86.3987 106.42 86.142 106.27C85.8854 106.12 85.6054 106.045 85.302 106.045C84.962 106.045 84.6687 106.12 84.422 106.27C84.1754 106.417 83.9787 106.602 83.832 106.825L83.162 106.545L83.382 102.8H87.227V103.505H83.707L84.072 103.16L83.877 106.355L83.692 106.11C83.8987 105.873 84.1487 105.688 84.442 105.555C84.7354 105.422 85.0437 105.355 85.367 105.355C85.8104 105.355 86.2104 105.462 86.567 105.675C86.9237 105.885 87.207 106.17 87.417 106.53C87.627 106.89 87.732 107.292 87.732 107.735C87.732 108.175 87.6204 108.578 87.397 108.945C87.1737 109.308 86.877 109.6 86.507 109.82C86.137 110.04 85.7287 110.15 85.282 110.15ZM92.0985 110V108.605H88.7285V107.905L91.1385 102.8H91.9635L89.5535 107.905H92.0985V105.805H92.8385V107.905H93.6235V108.605H92.8385V110H92.0985ZM94.7716 110V109.145H95.6266V110H94.7716ZM99.5207 110.15C99.0774 110.15 98.6774 110.047 98.3207 109.84C97.9674 109.633 97.6874 109.353 97.4807 109C97.274 108.643 97.1707 108.243 97.1707 107.8V105C97.1707 104.557 97.274 104.158 97.4807 103.805C97.6874 103.448 97.9674 103.167 98.3207 102.96C98.6774 102.753 99.0774 102.65 99.5207 102.65C99.964 102.65 100.362 102.753 100.716 102.96C101.072 103.167 101.354 103.448 101.561 103.805C101.767 104.158 101.871 104.557 101.871 105V107.8C101.871 108.243 101.767 108.643 101.561 109C101.354 109.353 101.072 109.633 100.716 109.84C100.362 110.047 99.964 110.15 99.5207 110.15ZM99.5207 109.44C99.8174 109.44 100.087 109.368 100.331 109.225C100.574 109.078 100.767 108.883 100.911 108.64C101.054 108.397 101.126 108.128 101.126 107.835V104.965C101.126 104.668 101.054 104.398 100.911 104.155C100.767 103.912 100.574 103.718 100.331 103.575C100.087 103.428 99.8174 103.355 99.5207 103.355C99.224 103.355 98.954 103.428 98.7107 103.575C98.4674 103.718 98.274 103.912 98.1307 104.155C97.9874 104.398 97.9157 104.668 97.9157 104.965V107.835C97.9157 108.128 97.9874 108.397 98.1307 108.64C98.274 108.883 98.4674 109.078 98.7107 109.225C98.954 109.368 99.224 109.44 99.5207 109.44ZM106.444 110V108.605H103.074V107.905L105.484 102.8H106.309L103.899 107.905H106.444V105.805H107.184V107.905H107.969V108.605H107.184V110H106.444ZM111.175 110V102.8H113.955C114.358 102.8 114.71 102.883 115.01 103.05C115.31 103.217 115.543 103.442 115.71 103.725C115.876 104.005 115.96 104.315 115.96 104.655C115.96 105.042 115.856 105.387 115.65 105.69C115.443 105.99 115.166 106.198 114.82 106.315L114.81 106.07C115.276 106.203 115.643 106.437 115.91 106.77C116.176 107.103 116.31 107.507 116.31 107.98C116.31 108.397 116.221 108.757 116.045 109.06C115.868 109.36 115.62 109.592 115.3 109.755C114.98 109.918 114.608 110 114.185 110H111.175ZM111.915 109.295H114.005C114.298 109.295 114.561 109.243 114.795 109.14C115.028 109.033 115.211 108.883 115.345 108.69C115.481 108.497 115.55 108.263 115.55 107.99C115.55 107.723 115.488 107.483 115.365 107.27C115.241 107.057 115.073 106.887 114.86 106.76C114.65 106.63 114.41 106.565 114.14 106.565H111.915V109.295ZM111.915 105.87H113.95C114.18 105.87 114.39 105.818 114.58 105.715C114.77 105.608 114.92 105.463 115.03 105.28C115.143 105.097 115.2 104.885 115.2 104.645C115.2 104.305 115.081 104.028 114.845 103.815C114.611 103.602 114.313 103.495 113.95 103.495H111.915V105.87ZM119.027 110V103.505H116.512V102.8H122.277V103.505H119.762V110H119.027ZM125.994 110.15C125.277 110.15 124.672 109.992 124.179 109.675C123.686 109.355 123.312 108.913 123.059 108.35C122.806 107.787 122.679 107.137 122.679 106.4C122.679 105.663 122.806 105.013 123.059 104.45C123.312 103.887 123.686 103.447 124.179 103.13C124.672 102.81 125.277 102.65 125.994 102.65C126.831 102.65 127.514 102.865 128.044 103.295C128.574 103.722 128.937 104.295 129.134 105.015L128.384 105.21C128.231 104.64 127.956 104.188 127.559 103.855C127.162 103.522 126.641 103.355 125.994 103.355C125.431 103.355 124.962 103.483 124.589 103.74C124.216 103.997 123.934 104.355 123.744 104.815C123.557 105.272 123.461 105.8 123.454 106.4C123.451 107 123.542 107.528 123.729 107.985C123.919 108.442 124.202 108.8 124.579 109.06C124.959 109.317 125.431 109.445 125.994 109.445C126.641 109.445 127.162 109.278 127.559 108.945C127.956 108.608 128.231 108.157 128.384 107.59L129.134 107.785C128.937 108.505 128.574 109.08 128.044 109.51C127.514 109.937 126.831 110.15 125.994 110.15Z" fill="#475569"/>
<path d="M275.39 112.18C274.942 112.18 274.528 112.088 274.148 111.904C273.768 111.72 273.444 111.466 273.176 111.142C272.908 110.818 272.716 110.446 272.6 110.026L273.446 109.798C273.522 110.11 273.66 110.38 273.86 110.608C274.06 110.832 274.294 111.006 274.562 111.13C274.834 111.254 275.118 111.316 275.414 111.316C275.798 111.316 276.142 111.224 276.446 111.04C276.754 110.852 276.998 110.604 277.178 110.296C277.358 109.988 277.448 109.65 277.448 109.282C277.448 108.902 277.354 108.56 277.166 108.256C276.978 107.948 276.73 107.704 276.422 107.524C276.114 107.344 275.778 107.254 275.414 107.254C275.006 107.254 274.654 107.344 274.358 107.524C274.062 107.7 273.826 107.922 273.65 108.19L272.846 107.854L273.11 103.36H277.724V104.206H273.5L273.938 103.792L273.704 107.626L273.482 107.332C273.73 107.048 274.03 106.826 274.382 106.666C274.734 106.506 275.104 106.426 275.492 106.426C276.024 106.426 276.504 106.554 276.932 106.81C277.36 107.062 277.7 107.404 277.952 107.836C278.204 108.268 278.33 108.75 278.33 109.282C278.33 109.81 278.196 110.294 277.928 110.734C277.66 111.17 277.304 111.52 276.86 111.784C276.416 112.048 275.926 112.18 275.39 112.18ZM279.934 112V110.974H280.96V112H279.934ZM282.573 111.994L282.579 111.19L286.485 107.662C286.821 107.358 287.043 107.07 287.151 106.798C287.263 106.522 287.319 106.234 287.319 105.934C287.319 105.578 287.235 105.256 287.067 104.968C286.899 104.68 286.673 104.452 286.389 104.284C286.105 104.112 285.787 104.026 285.435 104.026C285.067 104.026 284.739 104.114 284.451 104.29C284.163 104.466 283.935 104.698 283.767 104.986C283.603 105.274 283.523 105.588 283.527 105.928H282.627C282.627 105.404 282.751 104.934 282.999 104.518C283.247 104.102 283.583 103.776 284.007 103.54C284.431 103.3 284.911 103.18 285.447 103.18C285.971 103.18 286.441 103.304 286.857 103.552C287.277 103.796 287.607 104.128 287.847 104.548C288.091 104.964 288.213 105.428 288.213 105.94C288.213 106.3 288.169 106.618 288.081 106.894C287.997 107.166 287.863 107.42 287.679 107.656C287.499 107.888 287.269 108.128 286.989 108.376L283.521 111.508L283.383 111.148H288.213V111.994H282.573ZM290.496 112L289.896 111.4L297.954 103.36L298.554 103.954L290.496 112ZM296.754 112.18C296.358 112.18 295.996 112.084 295.668 111.892C295.344 111.696 295.084 111.436 294.888 111.112C294.692 110.784 294.594 110.42 294.594 110.02C294.594 109.628 294.694 109.268 294.894 108.94C295.094 108.612 295.358 108.35 295.686 108.154C296.014 107.958 296.37 107.86 296.754 107.86C297.15 107.86 297.512 107.958 297.84 108.154C298.168 108.346 298.428 108.606 298.62 108.934C298.816 109.258 298.914 109.62 298.914 110.02C298.914 110.42 298.816 110.784 298.62 111.112C298.428 111.436 298.168 111.696 297.84 111.892C297.512 112.084 297.15 112.18 296.754 112.18ZM296.754 111.382C296.998 111.382 297.224 111.32 297.432 111.196C297.64 111.072 297.806 110.908 297.93 110.704C298.054 110.496 298.116 110.268 298.116 110.02C298.116 109.772 298.054 109.546 297.93 109.342C297.806 109.134 297.64 108.968 297.432 108.844C297.224 108.72 296.998 108.658 296.754 108.658C296.506 108.658 296.278 108.72 296.07 108.844C295.866 108.968 295.7 109.134 295.572 109.342C295.448 109.546 295.386 109.772 295.386 110.02C295.386 110.268 295.448 110.496 295.572 110.704C295.7 110.908 295.866 111.072 296.07 111.196C296.278 111.32 296.506 111.382 296.754 111.382ZM291.696 107.5C291.3 107.5 290.938 107.404 290.61 107.212C290.282 107.016 290.02 106.756 289.824 106.432C289.632 106.104 289.536 105.74 289.536 105.34C289.536 104.948 289.636 104.588 289.836 104.26C290.036 103.932 290.3 103.67 290.628 103.474C290.956 103.278 291.312 103.18 291.696 103.18C292.092 103.18 292.452 103.278 292.776 103.474C293.104 103.666 293.366 103.926 293.562 104.254C293.758 104.578 293.856 104.94 293.856 105.34C293.856 105.74 293.758 106.104 293.562 106.432C293.366 106.756 293.104 107.016 292.776 107.212C292.452 107.404 292.092 107.5 291.696 107.5ZM291.696 106.702C291.944 106.702 292.17 106.64 292.374 106.516C292.582 106.392 292.748 106.228 292.872 106.024C292.996 105.816 293.058 105.588 293.058 105.34C293.058 105.092 292.996 104.866 292.872 104.662C292.748 104.454 292.582 104.288 292.374 104.164C292.17 104.04 291.944 103.978 291.696 103.978C291.448 103.978 291.22 104.04 291.012 104.164C290.808 104.288 290.644 104.454 290.52 104.662C290.396 104.866 290.334 105.092 290.334 105.34C290.334 105.588 290.396 105.816 290.52 106.024C290.644 106.228 290.808 106.392 291.012 106.516C291.22 106.64 291.448 106.702 291.696 106.702Z" fill="#33CCAB"/>
<path fill-rule="evenodd" clip-rule="evenodd" d="M257 109L262 104L267 109" fill="#33CCAB"/>
<path d="M42 209C48.6274 209 54 203.627 54 197C54 190.373 48.6274 185 42 185C35.3726 185 30 190.373 30 197C30 203.627 35.3726 209 42 209Z" fill="#26A17B"/>
<path fill-rule="evenodd" clip-rule="evenodd" d="M42.8218 197.451V197.45C42.7478 197.455 42.3662 197.478 41.5148 197.478C40.8351 197.478 40.3565 197.458 40.1883 197.45V197.452C37.5716 197.336 35.6185 196.88 35.6185 196.333C35.6185 195.787 37.5716 195.331 40.1883 195.214V196.997C40.3592 197.009 40.8492 197.038 41.5262 197.038C42.3386 197.038 42.7458 197.004 42.8218 196.998V195.215C45.4331 195.332 47.3815 195.788 47.3815 196.333C47.3815 196.88 45.4331 197.335 42.8218 197.451ZM42.8218 195.029V193.434H46.4655V191H36.5446V193.434H40.1883V195.029C37.227 195.165 35 195.753 35 196.457C35 197.162 37.227 197.749 40.1883 197.886V203H42.8218V197.885C45.7784 197.748 48 197.161 48 196.457C48 195.754 45.7784 195.166 42.8218 195.029Z" fill="white"/>
<path d="M230.087 193L233.267 185.218H229.265V184.36H234.209V185.218L231.035 193H230.087ZM238.469 193.18C237.937 193.18 237.457 193.056 237.029 192.808C236.605 192.56 236.269 192.224 236.021 191.8C235.773 191.372 235.649 190.892 235.649 190.36V187C235.649 186.468 235.773 185.99 236.021 185.566C236.269 185.138 236.605 184.8 237.029 184.552C237.457 184.304 237.937 184.18 238.469 184.18C239.001 184.18 239.479 184.304 239.903 184.552C240.331 184.8 240.669 185.138 240.917 185.566C241.165 185.99 241.289 186.468 241.289 187V190.36C241.289 190.892 241.165 191.372 240.917 191.8C240.669 192.224 240.331 192.56 239.903 192.808C239.479 193.056 239.001 193.18 238.469 193.18ZM238.469 192.328C238.825 192.328 239.149 192.242 239.441 192.07C239.733 191.894 239.965 191.66 240.137 191.368C240.309 191.076 240.395 190.754 240.395 190.402V186.958C240.395 186.602 240.309 186.278 240.137 185.986C239.965 185.694 239.733 185.462 239.441 185.29C239.149 185.114 238.825 185.026 238.469 185.026C238.113 185.026 237.789 185.114 237.497 185.29C237.205 185.462 236.973 185.694 236.801 185.986C236.629 186.278 236.543 186.602 236.543 186.958V190.402C236.543 190.754 236.629 191.076 236.801 191.368C236.973 191.66 237.205 191.894 237.497 192.07C237.789 192.242 238.113 192.328 238.469 192.328ZM245.793 193.18C245.261 193.18 244.781 193.056 244.353 192.808C243.929 192.56 243.593 192.224 243.345 191.8C243.097 191.372 242.973 190.892 242.973 190.36V187C242.973 186.468 243.097 185.99 243.345 185.566C243.593 185.138 243.929 184.8 244.353 184.552C244.781 184.304 245.261 184.18 245.793 184.18C246.325 184.18 246.803 184.304 247.227 184.552C247.655 184.8 247.993 185.138 248.241 185.566C248.489 185.99 248.613 186.468 248.613 187V190.36C248.613 190.892 248.489 191.372 248.241 191.8C247.993 192.224 247.655 192.56 247.227 192.808C246.803 193.056 246.325 193.18 245.793 193.18ZM245.793 192.328C246.149 192.328 246.473 192.242 246.765 192.07C247.057 191.894 247.289 191.66 247.461 191.368C247.633 191.076 247.719 190.754 247.719 190.402V186.958C247.719 186.602 247.633 186.278 247.461 185.986C247.289 185.694 247.057 185.462 246.765 185.29C246.473 185.114 246.149 185.026 245.793 185.026C245.437 185.026 245.113 185.114 244.821 185.29C244.529 185.462 244.297 185.694 244.125 185.986C243.953 186.278 243.867 186.602 243.867 186.958V190.402C243.867 190.754 243.953 191.076 244.125 191.368C244.297 191.66 244.529 191.894 244.821 192.07C245.113 192.242 245.437 192.328 245.793 192.328ZM250.465 193V191.974H251.491V193H250.465ZM256.164 193.18C255.632 193.18 255.152 193.056 254.724 192.808C254.3 192.56 253.964 192.224 253.716 191.8C253.468 191.372 253.344 190.892 253.344 190.36V187C253.344 186.468 253.468 185.99 253.716 185.566C253.964 185.138 254.3 184.8 254.724 184.552C255.152 184.304 255.632 184.18 256.164 184.18C256.696 184.18 257.174 184.304 257.598 184.552C258.026 184.8 258.364 185.138 258.612 185.566C258.86 185.99 258.984 186.468 258.984 187V190.36C258.984 190.892 258.86 191.372 258.612 191.8C258.364 192.224 258.026 192.56 257.598 192.808C257.174 193.056 256.696 193.18 256.164 193.18ZM256.164 192.328C256.52 192.328 256.844 192.242 257.136 192.07C257.428 191.894 257.66 191.66 257.832 191.368C258.004 191.076 258.09 190.754 258.09 190.402V186.958C258.09 186.602 258.004 186.278 257.832 185.986C257.66 185.694 257.428 185.462 257.136 185.29C256.844 185.114 256.52 185.026 256.164 185.026C255.808 185.026 255.484 185.114 255.192 185.29C254.9 185.462 254.668 185.694 254.496 185.986C254.324 186.278 254.238 186.602 254.238 186.958V190.402C254.238 190.754 254.324 191.076 254.496 191.368C254.668 191.66 254.9 191.894 255.192 192.07C255.484 192.242 255.808 192.328 256.164 192.328ZM263.488 193.18C262.956 193.18 262.476 193.056 262.048 192.808C261.624 192.56 261.288 192.224 261.04 191.8C260.792 191.372 260.668 190.892 260.668 190.36V187C260.668 186.468 260.792 185.99 261.04 185.566C261.288 185.138 261.624 184.8 262.048 184.552C262.476 184.304 262.956 184.18 263.488 184.18C264.02 184.18 264.498 184.304 264.922 184.552C265.35 184.8 265.688 185.138 265.936 185.566C266.184 185.99 266.308 186.468 266.308 187V190.36C266.308 190.892 266.184 191.372 265.936 191.8C265.688 192.224 265.35 192.56 264.922 192.808C264.498 193.056 264.02 193.18 263.488 193.18ZM263.488 192.328C263.844 192.328 264.168 192.242 264.46 192.07C264.752 191.894 264.984 191.66 265.156 191.368C265.328 191.076 265.414 190.754 265.414 190.402V186.958C265.414 186.602 265.328 186.278 265.156 185.986C264.984 185.694 264.752 185.462 264.46 185.29C264.168 185.114 263.844 185.026 263.488 185.026C263.132 185.026 262.808 185.114 262.516 185.29C262.224 185.462 261.992 185.694 261.82 185.986C261.648 186.278 261.562 186.602 261.562 186.958V190.402C261.562 190.754 261.648 191.076 261.82 191.368C261.992 191.66 262.224 191.894 262.516 192.07C262.808 192.242 263.132 192.328 263.488 192.328ZM273.767 193.18C273.107 193.18 272.523 193.044 272.015 192.772C271.511 192.5 271.115 192.116 270.827 191.62C270.539 191.124 270.395 190.544 270.395 189.88V184.366L271.283 184.36V189.766C271.283 190.214 271.359 190.602 271.511 190.93C271.663 191.254 271.861 191.522 272.105 191.734C272.353 191.942 272.623 192.096 272.915 192.196C273.207 192.296 273.491 192.346 273.767 192.346C274.047 192.346 274.333 192.296 274.625 192.196C274.917 192.096 275.185 191.942 275.429 191.734C275.673 191.522 275.871 191.254 276.023 190.93C276.175 190.602 276.251 190.214 276.251 189.766V184.36H277.139V189.88C277.139 190.544 276.995 191.124 276.707 191.62C276.419 192.112 276.021 192.496 275.513 192.772C275.009 193.044 274.427 193.18 273.767 193.18ZM281.457 193.18C280.853 193.18 280.309 193.08 279.825 192.88C279.345 192.676 278.947 192.388 278.631 192.016C278.319 191.644 278.115 191.202 278.019 190.69L278.919 190.54C279.063 191.1 279.367 191.54 279.831 191.86C280.295 192.176 280.849 192.334 281.493 192.334C281.917 192.334 282.297 192.268 282.633 192.136C282.969 192 283.233 191.808 283.425 191.56C283.617 191.312 283.713 191.018 283.713 190.678C283.713 190.454 283.673 190.264 283.593 190.108C283.513 189.948 283.407 189.816 283.275 189.712C283.143 189.608 282.999 189.522 282.843 189.454C282.687 189.382 282.535 189.324 282.387 189.28L280.197 188.626C279.933 188.55 279.689 188.454 279.465 188.338C279.241 188.218 279.045 188.076 278.877 187.912C278.713 187.744 278.585 187.548 278.493 187.324C278.401 187.1 278.355 186.844 278.355 186.556C278.355 186.068 278.483 185.646 278.739 185.29C278.995 184.934 279.345 184.66 279.789 184.468C280.233 184.276 280.739 184.182 281.307 184.186C281.883 184.186 282.397 184.288 282.849 184.492C283.305 184.696 283.681 184.988 283.977 185.368C284.273 185.744 284.469 186.19 284.565 186.706L283.641 186.874C283.581 186.498 283.443 186.172 283.227 185.896C283.011 185.62 282.735 185.408 282.399 185.26C282.067 185.108 281.701 185.03 281.301 185.026C280.913 185.026 280.567 185.092 280.263 185.224C279.963 185.352 279.725 185.528 279.549 185.752C279.373 185.976 279.285 186.232 279.285 186.52C279.285 186.812 279.365 187.046 279.525 187.222C279.689 187.398 279.889 187.536 280.125 187.636C280.365 187.736 280.597 187.818 280.821 187.882L282.513 188.38C282.689 188.428 282.895 188.498 283.131 188.59C283.371 188.678 283.603 188.806 283.827 188.974C284.055 189.138 284.243 189.354 284.391 189.622C284.539 189.89 284.613 190.23 284.613 190.642C284.613 191.042 284.533 191.4 284.373 191.716C284.217 192.032 283.995 192.298 283.707 192.514C283.423 192.73 283.089 192.894 282.705 193.006C282.325 193.122 281.909 193.18 281.457 193.18ZM285.852 193V184.36H288.474C288.566 184.36 288.722 184.362 288.942 184.366C289.166 184.37 289.38 184.386 289.584 184.414C290.24 184.506 290.788 184.75 291.228 185.146C291.668 185.542 291.998 186.046 292.218 186.658C292.438 187.27 292.548 187.944 292.548 188.68C292.548 189.416 292.438 190.09 292.218 190.702C291.998 191.314 291.668 191.818 291.228 192.214C290.788 192.61 290.24 192.854 289.584 192.946C289.384 192.97 289.17 192.986 288.942 192.994C288.714 192.998 288.558 193 288.474 193H285.852ZM286.764 192.154H288.474C288.638 192.154 288.814 192.15 289.002 192.142C289.194 192.13 289.358 192.11 289.494 192.082C289.998 191.994 290.404 191.79 290.712 191.47C291.024 191.15 291.252 190.75 291.396 190.27C291.54 189.786 291.612 189.256 291.612 188.68C291.612 188.1 291.54 187.568 291.396 187.084C291.252 186.6 291.024 186.2 290.712 185.884C290.4 185.568 289.994 185.366 289.494 185.278C289.358 185.25 289.192 185.232 288.996 185.224C288.804 185.212 288.63 185.206 288.474 185.206H286.764V192.154ZM295.978 193V185.206H292.96V184.36H299.878V185.206H296.86V193H295.978Z" fill="black"/>
<path d="M67.138 193V185.206H64.12V184.36H71.038V185.206H68.02V193H67.138ZM73.7812 193.18C73.1492 193.18 72.6012 193.04 72.1372 192.76C71.6772 192.48 71.3192 192.086 71.0632 191.578C70.8072 191.07 70.6792 190.474 70.6792 189.79C70.6792 189.082 70.8052 188.47 71.0572 187.954C71.3092 187.438 71.6632 187.04 72.1192 186.76C72.5792 186.48 73.1212 186.34 73.7452 186.34C74.3852 186.34 74.9312 186.488 75.3832 186.784C75.8352 187.076 76.1772 187.496 76.4092 188.044C76.6412 188.592 76.7472 189.246 76.7272 190.006H75.8272V189.694C75.8112 188.854 75.6292 188.22 75.2812 187.792C74.9372 187.364 74.4332 187.15 73.7692 187.15C73.0732 187.15 72.5392 187.376 72.1672 187.828C71.7992 188.28 71.6152 188.924 71.6152 189.76C71.6152 190.576 71.7992 191.21 72.1672 191.662C72.5392 192.11 73.0652 192.334 73.7452 192.334C74.2092 192.334 74.6132 192.228 74.9572 192.016C75.3052 191.8 75.5792 191.49 75.7792 191.086L76.6012 191.404C76.3452 191.968 75.9672 192.406 75.4672 192.718C74.9712 193.026 74.4092 193.18 73.7812 193.18ZM71.3032 190.006V189.268H76.2532V190.006H71.3032ZM81.5868 193C81.2228 193.076 80.8628 193.106 80.5068 193.09C80.1548 193.074 79.8388 192.998 79.5588 192.862C79.2828 192.726 79.0728 192.514 78.9288 192.226C78.8128 191.986 78.7488 191.744 78.7368 191.5C78.7288 191.252 78.7248 190.97 78.7248 190.654V184.72H79.6008V190.618C79.6008 190.89 79.6028 191.118 79.6068 191.302C79.6148 191.482 79.6568 191.642 79.7328 191.782C79.8768 192.05 80.1048 192.21 80.4168 192.262C80.7328 192.314 81.1228 192.302 81.5868 192.226V193ZM77.3388 187.276V186.52H81.5868V187.276H77.3388ZM87.5434 193V189.694C87.5434 189.334 87.5094 189.004 87.4414 188.704C87.3734 188.4 87.2634 188.136 87.1114 187.912C86.9634 187.684 86.7694 187.508 86.5294 187.384C86.2934 187.26 86.0054 187.198 85.6654 187.198C85.3534 187.198 85.0774 187.252 84.8374 187.36C84.6014 187.468 84.4014 187.624 84.2374 187.828C84.0774 188.028 83.9554 188.272 83.8714 188.56C83.7874 188.848 83.7454 189.176 83.7454 189.544L83.1214 189.406C83.1214 188.742 83.2374 188.184 83.4694 187.732C83.7014 187.28 84.0214 186.938 84.4294 186.706C84.8374 186.474 85.3054 186.358 85.8334 186.358C86.2214 186.358 86.5594 186.418 86.8474 186.538C87.1394 186.658 87.3854 186.82 87.5854 187.024C87.7894 187.228 87.9534 187.462 88.0774 187.726C88.2014 187.986 88.2914 188.264 88.3474 188.56C88.4034 188.852 88.4314 189.144 88.4314 189.436V193H87.5434ZM82.8574 193V184.36H83.6554V189.238H83.7454V193H82.8574ZM92.7304 193.18C92.0984 193.18 91.5504 193.04 91.0864 192.76C90.6264 192.48 90.2684 192.086 90.0124 191.578C89.7564 191.07 89.6284 190.474 89.6284 189.79C89.6284 189.082 89.7544 188.47 90.0064 187.954C90.2584 187.438 90.6124 187.04 91.0684 186.76C91.5284 186.48 92.0704 186.34 92.6944 186.34C93.3344 186.34 93.8804 186.488 94.3324 186.784C94.7844 187.076 95.1264 187.496 95.3584 188.044C95.5904 188.592 95.6964 189.246 95.6764 190.006H94.7764V189.694C94.7604 188.854 94.5784 188.22 94.2304 187.792C93.8864 187.364 93.3824 187.15 92.7184 187.15C92.0224 187.15 91.4884 187.376 91.1164 187.828C90.7484 188.28 90.5644 188.924 90.5644 189.76C90.5644 190.576 90.7484 191.21 91.1164 191.662C91.4884 192.11 92.0144 192.334 92.6944 192.334C93.1584 192.334 93.5624 192.228 93.9064 192.016C94.2544 191.8 94.5284 191.49 94.7284 191.086L95.5504 191.404C95.2944 191.968 94.9164 192.406 94.4164 192.718C93.9204 193.026 93.3584 193.18 92.7304 193.18ZM90.2524 190.006V189.268H95.2024V190.006H90.2524ZM97.008 193V186.52H97.8V188.08L97.644 187.876C97.716 187.684 97.81 187.508 97.926 187.348C98.042 187.184 98.168 187.05 98.304 186.946C98.472 186.798 98.668 186.686 98.892 186.61C99.116 186.53 99.342 186.484 99.57 186.472C99.798 186.456 100.006 186.472 100.194 186.52V187.348C99.958 187.288 99.7 187.274 99.42 187.306C99.14 187.338 98.882 187.45 98.646 187.642C98.43 187.81 98.268 188.012 98.16 188.248C98.052 188.48 97.98 188.728 97.944 188.992C97.908 189.252 97.89 189.51 97.89 189.766V193H97.008Z" fill="black"/>
<path d="M66.6 212.985V211.845H67.335V212.985H66.6ZM66.6 204.95V203.805H67.335V204.95H66.6ZM67.055 212.15C66.5783 212.15 66.1483 212.065 65.765 211.895C65.385 211.725 65.07 211.485 64.82 211.175C64.5733 210.865 64.4117 210.498 64.335 210.075L65.05 209.95C65.16 210.41 65.3967 210.775 65.76 211.045C66.1267 211.312 66.5683 211.445 67.085 211.445C67.6083 211.445 68.0317 211.318 68.355 211.065C68.6783 210.808 68.84 210.473 68.84 210.06C68.84 209.753 68.75 209.508 68.57 209.325C68.39 209.142 68.085 208.985 67.655 208.855L66.055 208.355C65.0883 208.052 64.605 207.478 64.605 206.635C64.605 206.242 64.7017 205.897 64.895 205.6C65.0917 205.3 65.3633 205.067 65.71 204.9C66.06 204.733 66.4683 204.652 66.935 204.655C67.3917 204.655 67.8 204.742 68.16 204.915C68.5233 205.085 68.8217 205.327 69.055 205.64C69.2883 205.953 69.4433 206.325 69.52 206.755L68.785 206.895C68.7383 206.588 68.63 206.32 68.46 206.09C68.2933 205.86 68.0783 205.682 67.815 205.555C67.5517 205.425 67.2583 205.358 66.935 205.355C66.6283 205.355 66.355 205.408 66.115 205.515C65.875 205.622 65.685 205.77 65.545 205.96C65.4083 206.147 65.34 206.362 65.34 206.605C65.34 206.872 65.435 207.098 65.625 207.285C65.8183 207.468 66.1233 207.623 66.54 207.75L67.915 208.165C68.495 208.338 68.9133 208.572 69.17 208.865C69.4267 209.158 69.555 209.55 69.555 210.04C69.555 210.463 69.4517 210.833 69.245 211.15C69.0383 211.467 68.7467 211.713 68.37 211.89C67.9967 212.063 67.5583 212.15 67.055 212.15ZM71.8437 212V205.62L70.4887 206.435V205.61L71.8437 204.8H72.5887V212H71.8437ZM74.2248 212V211.145H75.0798V212H74.2248ZM78.9738 212.15C78.5305 212.15 78.1305 212.047 77.7738 211.84C77.4205 211.633 77.1405 211.353 76.9338 211C76.7272 210.643 76.6238 210.243 76.6238 209.8V207C76.6238 206.557 76.7272 206.158 76.9338 205.805C77.1405 205.448 77.4205 205.167 77.7738 204.96C78.1305 204.753 78.5305 204.65 78.9738 204.65C79.4172 204.65 79.8155 204.753 80.1688 204.96C80.5255 205.167 80.8072 205.448 81.0138 205.805C81.2205 206.158 81.3238 206.557 81.3238 207V209.8C81.3238 210.243 81.2205 210.643 81.0138 211C80.8072 211.353 80.5255 211.633 80.1688 211.84C79.8155 212.047 79.4172 212.15 78.9738 212.15ZM78.9738 211.44C79.2705 211.44 79.5405 211.368 79.7838 211.225C80.0272 211.078 80.2205 210.883 80.3638 210.64C80.5072 210.397 80.5788 210.128 80.5788 209.835V206.965C80.5788 206.668 80.5072 206.398 80.3638 206.155C80.2205 205.912 80.0272 205.718 79.7838 205.575C79.5405 205.428 79.2705 205.355 78.9738 205.355C78.6772 205.355 78.4072 205.428 78.1638 205.575C77.9205 205.718 77.7272 205.912 77.5838 206.155C77.4405 206.398 77.3688 206.668 77.3688 206.965V209.835C77.3688 210.128 77.4405 210.397 77.5838 210.64C77.7272 210.883 77.9205 211.078 78.1638 211.225C78.4072 211.368 78.6772 211.44 78.9738 211.44ZM85.0773 212.15C84.634 212.15 84.234 212.047 83.8773 211.84C83.524 211.633 83.244 211.353 83.0373 211C82.8307 210.643 82.7273 210.243 82.7273 209.8V207C82.7273 206.557 82.8307 206.158 83.0373 205.805C83.244 205.448 83.524 205.167 83.8773 204.96C84.234 204.753 84.634 204.65 85.0773 204.65C85.5207 204.65 85.919 204.753 86.2723 204.96C86.629 205.167 86.9107 205.448 87.1173 205.805C87.324 206.158 87.4273 206.557 87.4273 207V209.8C87.4273 210.243 87.324 210.643 87.1173 211C86.9107 211.353 86.629 211.633 86.2723 211.84C85.919 212.047 85.5207 212.15 85.0773 212.15ZM85.0773 211.44C85.374 211.44 85.644 211.368 85.8873 211.225C86.1307 211.078 86.324 210.883 86.4673 210.64C86.6107 210.397 86.6823 210.128 86.6823 209.835V206.965C86.6823 206.668 86.6107 206.398 86.4673 206.155C86.324 205.912 86.1307 205.718 85.8873 205.575C85.644 205.428 85.374 205.355 85.0773 205.355C84.7807 205.355 84.5107 205.428 84.2673 205.575C84.024 205.718 83.8307 205.912 83.6873 206.155C83.544 206.398 83.4723 206.668 83.4723 206.965V209.835C83.4723 210.128 83.544 210.397 83.6873 210.64C83.8307 210.883 84.024 211.078 84.2673 211.225C84.5107 211.368 84.7807 211.44 85.0773 211.44ZM92.0009 212V210.605H88.6309V209.905L91.0409 204.8H91.8659L89.4559 209.905H92.0009V207.805H92.7409V209.905H93.5259V210.605H92.7409V212H92.0009Z" fill="#475569"/>
<path d="M267.707 214.18C267.175 214.18 266.695 214.056 266.267 213.808C265.843 213.56 265.507 213.224 265.259 212.8C265.011 212.372 264.887 211.892 264.887 211.36V208C264.887 207.468 265.011 206.99 265.259 206.566C265.507 206.138 265.843 205.8 266.267 205.552C266.695 205.304 267.175 205.18 267.707 205.18C268.239 205.18 268.717 205.304 269.141 205.552C269.569 205.8 269.907 206.138 270.155 206.566C270.403 206.99 270.527 207.468 270.527 208V211.36C270.527 211.892 270.403 212.372 270.155 212.8C269.907 213.224 269.569 213.56 269.141 213.808C268.717 214.056 268.239 214.18 267.707 214.18ZM267.707 213.328C268.063 213.328 268.387 213.242 268.679 213.07C268.971 212.894 269.203 212.66 269.375 212.368C269.547 212.076 269.633 211.754 269.633 211.402V207.958C269.633 207.602 269.547 207.278 269.375 206.986C269.203 206.694 268.971 206.462 268.679 206.29C268.387 206.114 268.063 206.026 267.707 206.026C267.351 206.026 267.027 206.114 266.735 206.29C266.443 206.462 266.211 206.694 266.039 206.986C265.867 207.278 265.781 207.602 265.781 207.958V211.402C265.781 211.754 265.867 212.076 266.039 212.368C266.211 212.66 266.443 212.894 266.735 213.07C267.027 213.242 267.351 213.328 267.707 213.328ZM272.379 214V212.974H273.405V214H272.379ZM278.078 214.18C277.546 214.18 277.066 214.056 276.638 213.808C276.214 213.56 275.878 213.224 275.63 212.8C275.382 212.372 275.258 211.892 275.258 211.36V208C275.258 207.468 275.382 206.99 275.63 206.566C275.878 206.138 276.214 205.8 276.638 205.552C277.066 205.304 277.546 205.18 278.078 205.18C278.61 205.18 279.088 205.304 279.512 205.552C279.94 205.8 280.278 206.138 280.526 206.566C280.774 206.99 280.898 207.468 280.898 208V211.36C280.898 211.892 280.774 212.372 280.526 212.8C280.278 213.224 279.94 213.56 279.512 213.808C279.088 214.056 278.61 214.18 278.078 214.18ZM278.078 213.328C278.434 213.328 278.758 213.242 279.05 213.07C279.342 212.894 279.574 212.66 279.746 212.368C279.918 212.076 280.004 211.754 280.004 211.402V207.958C280.004 207.602 279.918 207.278 279.746 206.986C279.574 206.694 279.342 206.462 279.05 206.29C278.758 206.114 278.434 206.026 278.078 206.026C277.722 206.026 277.398 206.114 277.106 206.29C276.814 206.462 276.582 206.694 276.41 206.986C276.238 207.278 276.152 207.602 276.152 207.958V211.402C276.152 211.754 276.238 212.076 276.41 212.368C276.582 212.66 276.814 212.894 277.106 213.07C277.398 213.242 277.722 213.328 278.078 213.328ZM285.426 205.186C285.97 205.186 286.462 205.318 286.902 205.582C287.346 205.842 287.698 206.198 287.958 206.65C288.218 207.098 288.348 207.602 288.348 208.162V211.162C288.348 211.738 288.218 212.254 287.958 212.71C287.698 213.166 287.342 213.526 286.89 213.79C286.442 214.05 285.932 214.18 285.36 214.18C284.868 214.18 284.412 214.072 283.992 213.856C283.576 213.636 283.232 213.334 282.96 212.95L283.632 212.392C283.816 212.676 284.06 212.904 284.364 213.076C284.672 213.248 285.004 213.334 285.36 213.334C285.768 213.334 286.128 213.238 286.44 213.046C286.756 212.85 287.004 212.594 287.184 212.278C287.368 211.958 287.46 211.612 287.46 211.24V209.356L287.676 209.608C287.428 210.004 287.098 210.324 286.686 210.568C286.278 210.812 285.83 210.934 285.342 210.934C284.81 210.934 284.328 210.806 283.896 210.55C283.468 210.294 283.128 209.95 282.876 209.518C282.628 209.086 282.504 208.604 282.504 208.072C282.504 207.54 282.636 207.056 282.9 206.62C283.164 206.18 283.518 205.832 283.962 205.576C284.406 205.316 284.894 205.186 285.426 205.186ZM285.426 206.038C285.05 206.038 284.708 206.13 284.4 206.314C284.092 206.494 283.846 206.738 283.662 207.046C283.482 207.354 283.392 207.696 283.392 208.072C283.392 208.448 283.482 208.79 283.662 209.098C283.842 209.406 284.086 209.652 284.394 209.836C284.702 210.016 285.044 210.106 285.42 210.106C285.796 210.106 286.138 210.016 286.446 209.836C286.758 209.652 287.004 209.406 287.184 209.098C287.368 208.79 287.46 208.448 287.46 208.072C287.46 207.7 287.368 207.36 287.184 207.052C287.004 206.744 286.76 206.498 286.452 206.314C286.144 206.13 285.802 206.038 285.426 206.038ZM290.864 214L290.264 213.4L298.322 205.36L298.922 205.954L290.864 214ZM297.122 214.18C296.726 214.18 296.364 214.084 296.036 213.892C295.712 213.696 295.452 213.436 295.256 213.112C295.06 212.784 294.962 212.42 294.962 212.02C294.962 211.628 295.062 211.268 295.262 210.94C295.462 210.612 295.726 210.35 296.054 210.154C296.382 209.958 296.738 209.86 297.122 209.86C297.518 209.86 297.88 209.958 298.208 210.154C298.536 210.346 298.796 210.606 298.988 210.934C299.184 211.258 299.282 211.62 299.282 212.02C299.282 212.42 299.184 212.784 298.988 213.112C298.796 213.436 298.536 213.696 298.208 213.892C297.88 214.084 297.518 214.18 297.122 214.18ZM297.122 213.382C297.366 213.382 297.592 213.32 297.8 213.196C298.008 213.072 298.174 212.908 298.298 212.704C298.422 212.496 298.484 212.268 298.484 212.02C298.484 211.772 298.422 211.546 298.298 211.342C298.174 211.134 298.008 210.968 297.8 210.844C297.592 210.72 297.366 210.658 297.122 210.658C296.874 210.658 296.646 210.72 296.438 210.844C296.234 210.968 296.068 211.134 295.94 211.342C295.816 211.546 295.754 211.772 295.754 212.02C295.754 212.268 295.816 212.496 295.94 212.704C296.068 212.908 296.234 213.072 296.438 213.196C296.646 213.32 296.874 213.382 297.122 213.382ZM292.064 209.5C291.668 209.5 291.306 209.404 290.978 209.212C290.65 209.016 290.388 208.756 290.192 208.432C290 208.104 289.904 207.74 289.904 207.34C289.904 206.948 290.004 206.588 290.204 206.26C290.404 205.932 290.668 205.67 290.996 205.474C291.324 205.278 291.68 205.18 292.064 205.18C292.46 205.18 292.82 205.278 293.144 205.474C293.472 205.666 293.734 205.926 293.93 206.254C294.126 206.578 294.224 206.94 294.224 207.34C294.224 207.74 294.126 208.104 293.93 208.432C293.734 208.756 293.472 209.016 293.144 209.212C292.82 209.404 292.46 209.5 292.064 209.5ZM292.064 208.702C292.312 208.702 292.538 208.64 292.742 208.516C292.95 208.392 293.116 208.228 293.24 208.024C293.364 207.816 293.426 207.588 293.426 207.34C293.426 207.092 293.364 206.866 293.24 206.662C293.116 206.454 292.95 206.288 292.742 206.164C292.538 206.04 292.312 205.978 292.064 205.978C291.816 205.978 291.588 206.04 291.38 206.164C291.176 206.288 291.012 206.454 290.888 206.662C290.764 206.866 290.702 207.092 290.702 207.34C290.702 207.588 290.764 207.816 290.888 208.024C291.012 208.228 291.176 208.392 291.38 208.516C291.588 208.64 291.816 208.702 292.064 208.702Z" fill="#EF5350"/>
<path fill-rule="evenodd" clip-rule="evenodd" d="M260 209L255 214L250 209" fill="#EF5350"/>
<path d="M132.552 58L129.184 46.48H131.208L133.504 54.8L135.792 46.496L137.816 46.48L140.112 54.8L142.4 46.48H144.424L141.064 58H139.16L136.8 49.808L134.456 58H132.552ZM147.267 58.24C146.643 58.24 146.115 58.1227 145.683 57.888C145.251 57.648 144.923 57.3307 144.699 56.936C144.48 56.5413 144.371 56.1067 144.371 55.632C144.371 55.216 144.44 54.8427 144.579 54.512C144.717 54.176 144.931 53.888 145.219 53.648C145.507 53.4027 145.88 53.2027 146.339 53.048C146.685 52.936 147.091 52.8347 147.555 52.744C148.024 52.6533 148.531 52.5707 149.075 52.496C149.624 52.416 150.197 52.3307 150.795 52.24L150.107 52.632C150.112 52.0347 149.979 51.5947 149.707 51.312C149.435 51.0293 148.976 50.888 148.331 50.888C147.941 50.888 147.565 50.9787 147.203 51.16C146.84 51.3413 146.587 51.6533 146.443 52.096L144.683 51.544C144.896 50.8133 145.301 50.2267 145.899 49.784C146.501 49.3413 147.312 49.12 148.331 49.12C149.099 49.12 149.773 49.2453 150.355 49.496C150.941 49.7467 151.376 50.1573 151.659 50.728C151.813 51.032 151.907 51.344 151.939 51.664C151.971 51.9787 151.987 52.3227 151.987 52.696V58H150.299V56.128L150.579 56.432C150.189 57.056 149.733 57.5147 149.211 57.808C148.693 58.096 148.045 58.24 147.267 58.24ZM147.651 56.704C148.088 56.704 148.461 56.6267 148.771 56.472C149.08 56.3173 149.325 56.128 149.507 55.904C149.693 55.68 149.819 55.4693 149.883 55.272C149.984 55.0267 150.04 54.7467 150.051 54.432C150.067 54.112 150.075 53.8533 150.075 53.656L150.667 53.832C150.085 53.9227 149.587 54.0027 149.171 54.072C148.755 54.1413 148.397 54.208 148.099 54.272C147.8 54.3307 147.536 54.3973 147.307 54.472C147.083 54.552 146.893 54.6453 146.739 54.752C146.584 54.8587 146.464 54.9813 146.379 55.12C146.299 55.2587 146.259 55.4213 146.259 55.608C146.259 55.8213 146.312 56.0107 146.419 56.176C146.525 56.336 146.68 56.464 146.883 56.56C147.091 56.656 147.347 56.704 147.651 56.704ZM154.069 58V46.24H155.997V58H154.069ZM158.394 58V46.24H160.322V58H158.394ZM166.486 58.24C165.611 58.24 164.843 58.0507 164.182 57.672C163.521 57.2933 163.003 56.768 162.63 56.096C162.262 55.424 162.078 54.6507 162.078 53.776C162.078 52.832 162.259 52.0133 162.622 51.32C162.985 50.6213 163.489 50.08 164.134 49.696C164.779 49.312 165.526 49.12 166.374 49.12C167.27 49.12 168.03 49.3307 168.654 49.752C169.283 50.168 169.75 50.7573 170.054 51.52C170.358 52.2827 170.473 53.1813 170.398 54.216H168.486V53.512C168.481 52.5733 168.315 51.888 167.99 51.456C167.665 51.024 167.153 50.808 166.454 50.808C165.665 50.808 165.078 51.0533 164.694 51.544C164.31 52.0293 164.118 52.7413 164.118 53.68C164.118 54.5547 164.31 55.232 164.694 55.712C165.078 56.192 165.638 56.432 166.374 56.432C166.849 56.432 167.257 56.328 167.598 56.12C167.945 55.9067 168.211 55.6 168.398 55.2L170.302 55.776C169.971 56.5547 169.459 57.16 168.766 57.592C168.078 58.024 167.318 58.24 166.486 58.24ZM163.51 54.216V52.76H169.454V54.216H163.51ZM177.087 58C176.516 58.1067 175.956 58.152 175.407 58.136C174.863 58.1253 174.375 58.0267 173.943 57.84C173.511 57.648 173.183 57.3467 172.959 56.936C172.762 56.5627 172.658 56.1813 172.647 55.792C172.636 55.4027 172.631 54.9627 172.631 54.472V46.96H174.551V54.36C174.551 54.7067 174.554 55.0107 174.559 55.272C174.57 55.5333 174.626 55.7467 174.727 55.912C174.919 56.232 175.226 56.4107 175.647 56.448C176.068 56.4853 176.548 56.464 177.087 56.384V58ZM171.063 50.872V49.36H177.087V50.872H171.063ZM182.121 58.24C181.054 58.24 180.188 58 179.521 57.52C178.854 57.04 178.449 56.3653 178.305 55.496L180.273 55.192C180.374 55.6187 180.598 55.9547 180.945 56.2C181.292 56.4453 181.729 56.568 182.257 56.568C182.721 56.568 183.078 56.4773 183.329 56.296C183.585 56.1093 183.713 55.856 183.713 55.536C183.713 55.3387 183.665 55.1813 183.569 55.064C183.478 54.9413 183.276 54.824 182.961 54.712C182.646 54.6 182.164 54.4587 181.513 54.288C180.788 54.096 180.212 53.8907 179.785 53.672C179.358 53.448 179.052 53.184 178.865 52.88C178.678 52.576 178.585 52.208 178.585 51.776C178.585 51.2373 178.726 50.768 179.009 50.368C179.292 49.968 179.686 49.6613 180.193 49.448C180.7 49.2293 181.297 49.12 181.985 49.12C182.657 49.12 183.252 49.224 183.769 49.432C184.292 49.64 184.713 49.936 185.033 50.32C185.353 50.704 185.55 51.1547 185.625 51.672L183.657 52.024C183.609 51.656 183.441 51.3653 183.153 51.152C182.87 50.9387 182.492 50.8187 182.017 50.792C181.564 50.7653 181.198 50.8347 180.921 51C180.644 51.16 180.505 51.3867 180.505 51.68C180.505 51.8453 180.561 51.9867 180.673 52.104C180.785 52.2213 181.009 52.3387 181.345 52.456C181.686 52.5733 182.193 52.7173 182.865 52.888C183.553 53.064 184.102 53.2667 184.513 53.496C184.929 53.72 185.228 53.9893 185.409 54.304C185.596 54.6187 185.689 55 185.689 55.448C185.689 56.3173 185.372 57 184.737 57.496C184.108 57.992 183.236 58.24 182.121 58.24Z" fill="black"/>
<g filter="url(#filter1_d_2042_2825)">
<rect x="4" y="120" width="322" height="46" rx="5" fill="#E7EEF8"/>
</g>
<path d="M42 153C48.6274 153 54 147.627 54 141C54 134.373 48.6274 129 42 129C35.3726 129 30 134.373 30 141C30 147.627 35.3726 153 42 153Z" fill="#627EEA"/>
<path d="M240.601 137V135.326H236.557V134.486L239.449 128.36H240.439L237.547 134.486H240.601V131.966H241.489V134.486H242.431V135.326H241.489V137H240.601ZM246.602 128.186C247.146 128.186 247.638 128.318 248.078 128.582C248.522 128.842 248.874 129.198 249.134 129.65C249.394 130.098 249.524 130.602 249.524 131.162V134.162C249.524 134.738 249.394 135.254 249.134 135.71C248.874 136.166 248.518 136.526 248.066 136.79C247.618 137.05 247.108 137.18 246.536 137.18C246.044 137.18 245.588 137.072 245.168 136.856C244.752 136.636 244.408 136.334 244.136 135.95L244.808 135.392C244.992 135.676 245.236 135.904 245.54 136.076C245.848 136.248 246.18 136.334 246.536 136.334C246.944 136.334 247.304 136.238 247.616 136.046C247.932 135.85 248.18 135.594 248.36 135.278C248.544 134.958 248.636 134.612 248.636 134.24V132.356L248.852 132.608C248.604 133.004 248.274 133.324 247.862 133.568C247.454 133.812 247.006 133.934 246.518 133.934C245.986 133.934 245.504 133.806 245.072 133.55C244.644 133.294 244.304 132.95 244.052 132.518C243.804 132.086 243.68 131.604 243.68 131.072C243.68 130.54 243.812 130.056 244.076 129.62C244.34 129.18 244.694 128.832 245.138 128.576C245.582 128.316 246.07 128.186 246.602 128.186ZM246.602 129.038C246.226 129.038 245.884 129.13 245.576 129.314C245.268 129.494 245.022 129.738 244.838 130.046C244.658 130.354 244.568 130.696 244.568 131.072C244.568 131.448 244.658 131.79 244.838 132.098C245.018 132.406 245.262 132.652 245.57 132.836C245.878 133.016 246.22 133.106 246.596 133.106C246.972 133.106 247.314 133.016 247.622 132.836C247.934 132.652 248.18 132.406 248.36 132.098C248.544 131.79 248.636 131.448 248.636 131.072C248.636 130.7 248.544 130.36 248.36 130.052C248.18 129.744 247.936 129.498 247.628 129.314C247.32 129.13 246.978 129.038 246.602 129.038ZM254.019 137.18C253.487 137.18 253.007 137.056 252.579 136.808C252.155 136.56 251.819 136.224 251.571 135.8C251.323 135.372 251.199 134.892 251.199 134.36V131C251.199 130.468 251.323 129.99 251.571 129.566C251.819 129.138 252.155 128.8 252.579 128.552C253.007 128.304 253.487 128.18 254.019 128.18C254.551 128.18 255.029 128.304 255.453 128.552C255.881 128.8 256.219 129.138 256.467 129.566C256.715 129.99 256.839 130.468 256.839 131V134.36C256.839 134.892 256.715 135.372 256.467 135.8C256.219 136.224 255.881 136.56 255.453 136.808C255.029 137.056 254.551 137.18 254.019 137.18ZM254.019 136.328C254.375 136.328 254.699 136.242 254.991 136.07C255.283 135.894 255.515 135.66 255.687 135.368C255.859 135.076 255.945 134.754 255.945 134.402V130.958C255.945 130.602 255.859 130.278 255.687 129.986C255.515 129.694 255.283 129.462 254.991 129.29C254.699 129.114 254.375 129.026 254.019 129.026C253.663 129.026 253.339 129.114 253.047 129.29C252.755 129.462 252.523 129.694 252.351 129.986C252.179 130.278 252.093 130.602 252.093 130.958V134.402C252.093 134.754 252.179 135.076 252.351 135.368C252.523 135.66 252.755 135.894 253.047 136.07C253.339 136.242 253.663 136.328 254.019 136.328ZM258.692 137V135.974H259.718V137H258.692ZM264.39 137.18C263.858 137.18 263.378 137.056 262.95 136.808C262.526 136.56 262.19 136.224 261.942 135.8C261.694 135.372 261.57 134.892 261.57 134.36V131C261.57 130.468 261.694 129.99 261.942 129.566C262.19 129.138 262.526 128.8 262.95 128.552C263.378 128.304 263.858 128.18 264.39 128.18C264.922 128.18 265.4 128.304 265.824 128.552C266.252 128.8 266.59 129.138 266.838 129.566C267.086 129.99 267.21 130.468 267.21 131V134.36C267.21 134.892 267.086 135.372 266.838 135.8C266.59 136.224 266.252 136.56 265.824 136.808C265.4 137.056 264.922 137.18 264.39 137.18ZM264.39 136.328C264.746 136.328 265.07 136.242 265.362 136.07C265.654 135.894 265.886 135.66 266.058 135.368C266.23 135.076 266.316 134.754 266.316 134.402V130.958C266.316 130.602 266.23 130.278 266.058 129.986C265.886 129.694 265.654 129.462 265.362 129.29C265.07 129.114 264.746 129.026 264.39 129.026C264.034 129.026 263.71 129.114 263.418 129.29C263.126 129.462 262.894 129.694 262.722 129.986C262.55 130.278 262.464 130.602 262.464 130.958V134.402C262.464 134.754 262.55 135.076 262.722 135.368C262.894 135.66 263.126 135.894 263.418 136.07C263.71 136.242 264.034 136.328 264.39 136.328ZM271.715 137.18C271.183 137.18 270.703 137.056 270.275 136.808C269.851 136.56 269.515 136.224 269.267 135.8C269.019 135.372 268.895 134.892 268.895 134.36V131C268.895 130.468 269.019 129.99 269.267 129.566C269.515 129.138 269.851 128.8 270.275 128.552C270.703 128.304 271.183 128.18 271.715 128.18C272.247 128.18 272.725 128.304 273.149 128.552C273.577 128.8 273.915 129.138 274.163 129.566C274.411 129.99 274.535 130.468 274.535 131V134.36C274.535 134.892 274.411 135.372 274.163 135.8C273.915 136.224 273.577 136.56 273.149 136.808C272.725 137.056 272.247 137.18 271.715 137.18ZM271.715 136.328C272.071 136.328 272.395 136.242 272.687 136.07C272.979 135.894 273.211 135.66 273.383 135.368C273.555 135.076 273.641 134.754 273.641 134.402V130.958C273.641 130.602 273.555 130.278 273.383 129.986C273.211 129.694 272.979 129.462 272.687 129.29C272.395 129.114 272.071 129.026 271.715 129.026C271.359 129.026 271.035 129.114 270.743 129.29C270.451 129.462 270.219 129.694 270.047 129.986C269.875 130.278 269.789 130.602 269.789 130.958V134.402C269.789 134.754 269.875 135.076 270.047 135.368C270.219 135.66 270.451 135.894 270.743 136.07C271.035 136.242 271.359 136.328 271.715 136.328ZM278.621 137V128.36H284.021V129.206H279.503V132.194H283.301V133.04H279.503V136.154H284.021V137H278.621ZM287.763 137V129.206H284.745V128.36H291.663V129.206H288.645V137H287.763ZM292.625 137V128.36H293.507V132.254H298.283V128.36H299.159V137H298.283V133.1H293.507V137H292.625Z" fill="black"/>
<path d="M64.84 137V128.36H70.24V129.206H65.722V132.194H69.52V133.04H65.722V136.154H70.24V137H64.84ZM75.2118 137C74.8478 137.076 74.4878 137.106 74.1318 137.09C73.7798 137.074 73.4638 136.998 73.1838 136.862C72.9078 136.726 72.6978 136.514 72.5538 136.226C72.4378 135.986 72.3738 135.744 72.3618 135.5C72.3538 135.252 72.3498 134.97 72.3498 134.654V128.72H73.2258V134.618C73.2258 134.89 73.2278 135.118 73.2318 135.302C73.2398 135.482 73.2818 135.642 73.3578 135.782C73.5018 136.05 73.7298 136.21 74.0418 136.262C74.3578 136.314 74.7478 136.302 75.2118 136.226V137ZM70.9638 131.276V130.52H75.2118V131.276H70.9638ZM81.1684 137V133.694C81.1684 133.334 81.1344 133.004 81.0664 132.704C80.9984 132.4 80.8884 132.136 80.7364 131.912C80.5884 131.684 80.3944 131.508 80.1544 131.384C79.9184 131.26 79.6304 131.198 79.2904 131.198C78.9784 131.198 78.7024 131.252 78.4624 131.36C78.2264 131.468 78.0264 131.624 77.8624 131.828C77.7024 132.028 77.5804 132.272 77.4964 132.56C77.4124 132.848 77.3704 133.176 77.3704 133.544L76.7464 133.406C76.7464 132.742 76.8624 132.184 77.0944 131.732C77.3264 131.28 77.6464 130.938 78.0544 130.706C78.4624 130.474 78.9304 130.358 79.4584 130.358C79.8464 130.358 80.1844 130.418 80.4724 130.538C80.7644 130.658 81.0104 130.82 81.2104 131.024C81.4144 131.228 81.5784 131.462 81.7024 131.726C81.8264 131.986 81.9164 132.264 81.9724 132.56C82.0284 132.852 82.0564 133.144 82.0564 133.436V137H81.1684ZM76.4824 137V128.36H77.2804V133.238H77.3704V137H76.4824ZM86.3554 137.18C85.7234 137.18 85.1754 137.04 84.7114 136.76C84.2514 136.48 83.8934 136.086 83.6374 135.578C83.3814 135.07 83.2534 134.474 83.2534 133.79C83.2534 133.082 83.3794 132.47 83.6314 131.954C83.8834 131.438 84.2374 131.04 84.6934 130.76C85.1534 130.48 85.6954 130.34 86.3194 130.34C86.9594 130.34 87.5054 130.488 87.9574 130.784C88.4094 131.076 88.7514 131.496 88.9834 132.044C89.2154 132.592 89.3214 133.246 89.3014 134.006H88.4014V133.694C88.3854 132.854 88.2034 132.22 87.8554 131.792C87.5114 131.364 87.0074 131.15 86.3434 131.15C85.6474 131.15 85.1134 131.376 84.7414 131.828C84.3734 132.28 84.1894 132.924 84.1894 133.76C84.1894 134.576 84.3734 135.21 84.7414 135.662C85.1134 136.11 85.6394 136.334 86.3194 136.334C86.7834 136.334 87.1874 136.228 87.5314 136.016C87.8794 135.8 88.1534 135.49 88.3534 135.086L89.1754 135.404C88.9194 135.968 88.5414 136.406 88.0414 136.718C87.5454 137.026 86.9834 137.18 86.3554 137.18ZM83.8774 134.006V133.268H88.8274V134.006H83.8774ZM90.633 137V130.52H91.425V132.08L91.269 131.876C91.341 131.684 91.435 131.508 91.551 131.348C91.667 131.184 91.793 131.05 91.929 130.946C92.097 130.798 92.293 130.686 92.517 130.61C92.741 130.53 92.967 130.484 93.195 130.472C93.423 130.456 93.631 130.472 93.819 130.52V131.348C93.583 131.288 93.325 131.274 93.045 131.306C92.765 131.338 92.507 131.45 92.271 131.642C92.055 131.81 91.893 132.012 91.785 132.248C91.677 132.48 91.605 132.728 91.569 132.992C91.533 133.252 91.515 133.51 91.515 133.766V137H90.633ZM97.582 137.18C96.95 137.18 96.402 137.04 95.938 136.76C95.478 136.48 95.12 136.086 94.864 135.578C94.608 135.07 94.48 134.474 94.48 133.79C94.48 133.082 94.606 132.47 94.858 131.954C95.11 131.438 95.464 131.04 95.92 130.76C96.38 130.48 96.922 130.34 97.546 130.34C98.186 130.34 98.732 130.488 99.184 130.784C99.636 131.076 99.978 131.496 100.21 132.044C100.442 132.592 100.548 133.246 100.528 134.006H99.628V133.694C99.612 132.854 99.43 132.22 99.082 131.792C98.738 131.364 98.234 131.15 97.57 131.15C96.874 131.15 96.34 131.376 95.968 131.828C95.6 132.28 95.416 132.924 95.416 133.76C95.416 134.576 95.6 135.21 95.968 135.662C96.34 136.11 96.866 136.334 97.546 136.334C98.01 136.334 98.414 136.228 98.758 136.016C99.106 135.8 99.38 135.49 99.58 135.086L100.402 135.404C100.146 135.968 99.768 136.406 99.268 136.718C98.772 137.026 98.21 137.18 97.582 137.18ZM95.104 134.006V133.268H100.054V134.006H95.104ZM104.338 137.162C103.95 137.162 103.61 137.102 103.318 136.982C103.03 136.862 102.784 136.7 102.58 136.496C102.38 136.292 102.218 136.06 102.094 135.8C101.97 135.536 101.88 135.258 101.824 134.966C101.768 134.67 101.74 134.376 101.74 134.084V130.52H102.628V133.826C102.628 134.182 102.662 134.512 102.73 134.816C102.798 135.12 102.906 135.386 103.054 135.614C103.206 135.838 103.4 136.012 103.636 136.136C103.876 136.26 104.166 136.322 104.506 136.322C104.818 136.322 105.092 136.268 105.328 136.16C105.568 136.052 105.768 135.898 105.928 135.698C106.092 135.494 106.216 135.248 106.3 134.96C106.384 134.668 106.426 134.34 106.426 133.976L107.05 134.114C107.05 134.778 106.934 135.336 106.702 135.788C106.47 136.24 106.15 136.582 105.742 136.814C105.334 137.046 104.866 137.162 104.338 137.162ZM106.516 137V135.404H106.426V130.52H107.308V137H106.516ZM116.713 137L116.719 132.746C116.719 132.246 116.579 131.854 116.299 131.57C116.023 131.282 115.671 131.138 115.243 131.138C114.999 131.138 114.761 131.194 114.529 131.306C114.297 131.418 114.105 131.598 113.953 131.846C113.805 132.094 113.731 132.418 113.731 132.818L113.209 132.668C113.197 132.204 113.287 131.798 113.479 131.45C113.675 131.102 113.943 130.832 114.283 130.64C114.627 130.444 115.015 130.346 115.447 130.346C116.099 130.346 116.621 130.548 117.013 130.952C117.405 131.352 117.601 131.894 117.601 132.578L117.595 137H116.713ZM108.979 137V130.52H109.771V132.116H109.867V137H108.979ZM112.855 137L112.861 132.806C112.861 132.29 112.723 131.884 112.447 131.588C112.175 131.288 111.815 131.138 111.367 131.138C110.919 131.138 110.557 131.292 110.281 131.6C110.005 131.904 109.867 132.31 109.867 132.818L109.339 132.53C109.339 132.114 109.437 131.742 109.633 131.414C109.829 131.082 110.097 130.822 110.437 130.634C110.777 130.442 111.163 130.346 111.595 130.346C112.007 130.346 112.373 130.434 112.693 130.61C113.017 130.786 113.271 131.042 113.455 131.378C113.639 131.714 113.731 132.122 113.731 132.602L113.725 137H112.855Z" fill="black"/>
<path d="M65.955 156V149.62L64.6 150.435V149.61L65.955 148.8H66.7V156H65.955ZM71.7665 156V154.605H68.3965V153.905L70.8065 148.8H71.6315L69.2215 153.905H71.7665V151.805H72.5065V153.905H73.2915V154.605H72.5065V156H71.7665ZM74.1996 157.045L74.2446 156.68C74.3779 156.69 74.4746 156.663 74.5346 156.6C74.5946 156.537 74.6313 156.452 74.6446 156.345C74.6579 156.238 74.6613 156.123 74.6546 156H74.1996V154.945H75.0546V156.2C75.0546 156.507 74.9763 156.737 74.8196 156.89C74.6663 157.043 74.4596 157.095 74.1996 157.045ZM80.1259 156V154.605H76.7559V153.905L79.1659 148.8H79.9909L77.5809 153.905H80.1259V151.805H80.8659V153.905H81.6509V154.605H80.8659V156H80.1259ZM84.1093 156V149.62L82.7543 150.435V149.61L84.1093 148.8H84.8543V156H84.1093ZM87.1358 156L89.7858 149.515H86.4508V148.8H90.5708V149.515L87.9258 156H87.1358ZM91.2463 156V155.145H92.1013V156H91.2463ZM93.6991 156V149.62L92.3441 150.435V149.61L93.6991 148.8H94.4441V156H93.6991ZM97.5956 156V149.62L96.2406 150.435V149.61L97.5956 148.8H98.3406V156H97.5956ZM102.239 156V148.8H106.739V149.505H102.974V151.995H106.139V152.7H102.974V155.295H106.739V156H102.239ZM109.857 156V149.505H107.342V148.8H113.107V149.505H110.592V156H109.857ZM113.909 156V148.8H114.644V152.045H118.624V148.8H119.354V156H118.624V152.75H114.644V156H113.909Z" fill="#475569"/>
<path d="M275.39 158.18C274.942 158.18 274.528 158.088 274.148 157.904C273.768 157.72 273.444 157.466 273.176 157.142C272.908 156.818 272.716 156.446 272.6 156.026L273.446 155.798C273.522 156.11 273.66 156.38 273.86 156.608C274.06 156.832 274.294 157.006 274.562 157.13C274.834 157.254 275.118 157.316 275.414 157.316C275.798 157.316 276.142 157.224 276.446 157.04C276.754 156.852 276.998 156.604 277.178 156.296C277.358 155.988 277.448 155.65 277.448 155.282C277.448 154.902 277.354 154.56 277.166 154.256C276.978 153.948 276.73 153.704 276.422 153.524C276.114 153.344 275.778 153.254 275.414 153.254C275.006 153.254 274.654 153.344 274.358 153.524C274.062 153.7 273.826 153.922 273.65 154.19L272.846 153.854L273.11 149.36H277.724V150.206H273.5L273.938 149.792L273.704 153.626L273.482 153.332C273.73 153.048 274.03 152.826 274.382 152.666C274.734 152.506 275.104 152.426 275.492 152.426C276.024 152.426 276.504 152.554 276.932 152.81C277.36 153.062 277.7 153.404 277.952 153.836C278.204 154.268 278.33 154.75 278.33 155.282C278.33 155.81 278.196 156.294 277.928 156.734C277.66 157.17 277.304 157.52 276.86 157.784C276.416 158.048 275.926 158.18 275.39 158.18ZM279.934 158V156.974H280.96V158H279.934ZM282.573 157.994L282.579 157.19L286.485 153.662C286.821 153.358 287.043 153.07 287.151 152.798C287.263 152.522 287.319 152.234 287.319 151.934C287.319 151.578 287.235 151.256 287.067 150.968C286.899 150.68 286.673 150.452 286.389 150.284C286.105 150.112 285.787 150.026 285.435 150.026C285.067 150.026 284.739 150.114 284.451 150.29C284.163 150.466 283.935 150.698 283.767 150.986C283.603 151.274 283.523 151.588 283.527 151.928H282.627C282.627 151.404 282.751 150.934 282.999 150.518C283.247 150.102 283.583 149.776 284.007 149.54C284.431 149.3 284.911 149.18 285.447 149.18C285.971 149.18 286.441 149.304 286.857 149.552C287.277 149.796 287.607 150.128 287.847 150.548C288.091 150.964 288.213 151.428 288.213 151.94C288.213 152.3 288.169 152.618 288.081 152.894C287.997 153.166 287.863 153.42 287.679 153.656C287.499 153.888 287.269 154.128 286.989 154.376L283.521 157.508L283.383 157.148H288.213V157.994H282.573ZM290.496 158L289.896 157.4L297.954 149.36L298.554 149.954L290.496 158ZM296.754 158.18C296.358 158.18 295.996 158.084 295.668 157.892C295.344 157.696 295.084 157.436 294.888 157.112C294.692 156.784 294.594 156.42 294.594 156.02C294.594 155.628 294.694 155.268 294.894 154.94C295.094 154.612 295.358 154.35 295.686 154.154C296.014 153.958 296.37 153.86 296.754 153.86C297.15 153.86 297.512 153.958 297.84 154.154C298.168 154.346 298.428 154.606 298.62 154.934C298.816 155.258 298.914 155.62 298.914 156.02C298.914 156.42 298.816 156.784 298.62 157.112C298.428 157.436 298.168 157.696 297.84 157.892C297.512 158.084 297.15 158.18 296.754 158.18ZM296.754 157.382C296.998 157.382 297.224 157.32 297.432 157.196C297.64 157.072 297.806 156.908 297.93 156.704C298.054 156.496 298.116 156.268 298.116 156.02C298.116 155.772 298.054 155.546 297.93 155.342C297.806 155.134 297.64 154.968 297.432 154.844C297.224 154.72 296.998 154.658 296.754 154.658C296.506 154.658 296.278 154.72 296.07 154.844C295.866 154.968 295.7 155.134 295.572 155.342C295.448 155.546 295.386 155.772 295.386 156.02C295.386 156.268 295.448 156.496 295.572 156.704C295.7 156.908 295.866 157.072 296.07 157.196C296.278 157.32 296.506 157.382 296.754 157.382ZM291.696 153.5C291.3 153.5 290.938 153.404 290.61 153.212C290.282 153.016 290.02 152.756 289.824 152.432C289.632 152.104 289.536 151.74 289.536 151.34C289.536 150.948 289.636 150.588 289.836 150.26C290.036 149.932 290.3 149.67 290.628 149.474C290.956 149.278 291.312 149.18 291.696 149.18C292.092 149.18 292.452 149.278 292.776 149.474C293.104 149.666 293.366 149.926 293.562 150.254C293.758 150.578 293.856 150.94 293.856 151.34C293.856 151.74 293.758 152.104 293.562 152.432C293.366 152.756 293.104 153.016 292.776 153.212C292.452 153.404 292.092 153.5 291.696 153.5ZM291.696 152.702C291.944 152.702 292.17 152.64 292.374 152.516C292.582 152.392 292.748 152.228 292.872 152.024C292.996 151.816 293.058 151.588 293.058 151.34C293.058 151.092 292.996 150.866 292.872 150.662C292.748 150.454 292.582 150.288 292.374 150.164C292.17 150.04 291.944 149.978 291.696 149.978C291.448 149.978 291.22 150.04 291.012 150.164C290.808 150.288 290.644 150.454 290.52 150.662C290.396 150.866 290.334 151.092 290.334 151.34C290.334 151.588 290.396 151.816 290.52 152.024C290.644 152.228 290.808 152.392 291.012 152.516C291.22 152.64 291.448 152.702 291.696 152.702Z" fill="#33CCAB"/>
<path fill-rule="evenodd" clip-rule="evenodd" d="M257 155L262 150L267 155" fill="#33CCAB"/>
<path d="M41.4648 132V138.466L46.9304 140.908L41.4648 132Z" fill="white" fill-opacity="0.602"/>
<path d="M41.4663 132L36 140.908L41.4663 138.466V132Z" fill="white"/>
<path d="M41.4648 145.097V149.49L46.934 141.924L41.4648 145.097Z" fill="white" fill-opacity="0.602"/>
<path d="M41.4663 149.49V145.096L36 141.924L41.4663 149.49Z" fill="white"/>
<path d="M41.4648 144.082L46.9304 140.909L41.4648 138.469V144.082Z" fill="white" fill-opacity="0.2"/>
<path d="M36 140.909L41.4663 144.082V138.469L36 140.909Z" fill="white" fill-opacity="0.602"/>
<defs>
<filter id="filter0_d_2042_2825" x="12" y="26" width="306" height="212" filterUnits="userSpaceOnUse" color-interpolation-filters="sRGB">
<feFlood flood-opacity="0" result="BackgroundImageFix"/>
<feColorMatrix in="SourceAlpha" type="matrix" values="0 0 0 0 0 0 0 0 0 0 0 0 0 0 0 0 0 0 127 0" result="hardAlpha"/>
<feOffset/>
<feGaussianBlur stdDeviation="2"/>
<feComposite in2="hardAlpha" operator="out"/>
<feColorMatrix type="matrix" values="0 0 0 0 1 0 0 0 0 1 0 0 0 0 1 0 0 0 0.25 0"/>
<feBlend mode="normal" in2="BackgroundImageFix" result="effect1_dropShadow_2042_2825"/>
<feBlend mode="normal" in="SourceGraphic" in2="effect1_dropShadow_2042_2825" result="shape"/>
</filter>
<filter id="filter1_d_2042_2825" x="0" y="116" width="330" height="54" filterUnits="userSpaceOnUse" color-interpolation-filters="sRGB">
<feFlood flood-opacity="0" result="BackgroundImageFix"/>
<feColorMatrix in="SourceAlpha" type="matrix" values="0 0 0 0 0 0 0 0 0 0 0 0 0 0 0 0 0 0 127 0" result="hardAlpha"/>
<feOffset/>
<feGaussianBlur stdDeviation="2"/>
<feComposite in2="hardAlpha" operator="out"/>
<feColorMatrix type="matrix" values="0 0 0 0 1 0 0 0 0 1 0 0 0 0 1 0 0 0 0.25 0"/>
<feBlend mode="normal" in2="BackgroundImageFix" result="effect1_dropShadow_2042_2825"/>
<feBlend mode="normal" in="SourceGraphic" in2="effect1_dropShadow_2042_2825" result="shape"/>
</filter>
<linearGradient id="paint0_linear_2042_2825" x1="244.962" y1="44.2224" x2="88.1105" y2="203.838" gradientUnits="userSpaceOnUse">
<stop stop-color="#445699"/>
<stop offset="1" stop-color="#3354CC"/>
</linearGradient>
</defs>
</svg>
