<svg width="450" height="450" viewBox="0 0 450 450" fill="none" xmlns="http://www.w3.org/2000/svg">
<path d="M263.224 145.169C268.192 147.475 270.599 150.418 273.224 155.169C273.762 158.039 273.732 160.832 273.678 163.745C273.679 164.584 273.679 165.424 273.68 166.289C273.677 169.049 273.646 171.808 273.615 174.567C273.607 176.487 273.602 178.406 273.598 180.326C273.582 185.367 273.543 190.407 273.499 195.447C273.458 200.595 273.44 205.743 273.419 210.892C273.377 220.984 273.308 231.076 273.224 241.169C274.288 241.16 275.352 241.151 276.449 241.142C286.483 241.061 296.518 241.001 306.552 240.962C311.711 240.941 316.87 240.912 322.028 240.867C327.008 240.824 331.987 240.8 336.967 240.789C338.866 240.782 340.764 240.768 342.663 240.746C345.325 240.717 347.986 240.713 350.648 240.715C351.431 240.7 352.214 240.686 353.02 240.671C358.211 240.71 361.078 241.792 365.224 245.169C368.852 248.988 369.534 252.052 369.724 257.169C369.534 262.286 368.852 265.35 365.224 269.169C359.857 273.743 355.453 273.742 348.724 273.686C347.68 273.693 346.635 273.7 345.559 273.708C342.114 273.725 338.669 273.714 335.224 273.7C332.826 273.703 330.427 273.707 328.029 273.712C323.005 273.718 317.982 273.709 312.959 273.69C306.522 273.668 300.087 273.681 293.65 273.705C288.699 273.719 283.747 273.714 278.795 273.704C276.422 273.701 274.049 273.705 271.676 273.714C268.359 273.724 265.042 273.709 261.724 273.686C260.745 273.695 259.766 273.703 258.758 273.711C253.095 273.641 249.6 273.121 245.224 269.169C240.538 263.981 240.652 259.315 240.707 252.669C240.7 251.624 240.693 250.58 240.685 249.503C240.668 246.058 240.679 242.614 240.693 239.169C240.69 236.77 240.686 234.372 240.681 231.974C240.675 226.95 240.684 221.927 240.703 216.903C240.725 210.467 240.712 204.031 240.688 197.595C240.674 192.643 240.679 187.692 240.689 182.74C240.692 180.367 240.688 177.994 240.679 175.621C240.669 172.303 240.684 168.987 240.707 165.669C240.698 164.69 240.69 163.711 240.682 162.703C240.753 157.008 241.389 153.669 245.224 149.169C250.495 144.161 256.332 144.241 263.224 145.169Z" fill="#BAC8FC"/>
<path d="M103.423 0.0398704C131.775 -0.770194 158.15 10.8158 178.536 30.0291C189.667 40.8634 197.122 52.7556 202.946 67.0985C203.922 69.9945 203.922 69.9945 205.224 71.1688C206.924 70.9129 208.611 70.5763 210.29 70.2078C211.334 69.9835 212.377 69.7592 213.452 69.5282C214.552 69.2858 215.653 69.0435 216.786 68.7938C218.933 68.3245 221.08 67.8583 223.228 67.3953C224.663 67.0794 224.663 67.0794 226.128 66.7572C232.729 65.5026 239.133 65.005 245.833 64.9657C246.634 64.9586 247.434 64.9516 248.259 64.9444C250.831 64.927 253.402 64.9205 255.974 64.9188C256.851 64.9181 257.729 64.9174 258.633 64.9167C271.39 64.9323 283.747 65.2656 296.224 68.1688C296.994 68.3404 297.765 68.512 298.558 68.6888C316.721 72.8172 333.842 79.3449 350.224 88.1688C350.831 88.4896 351.437 88.8104 352.063 89.1409C361.17 93.9799 369.271 99.65 377.224 106.169C377.775 106.617 378.325 107.064 378.893 107.526C417.983 139.435 443.591 185.451 449.015 235.801C449.334 239.421 449.405 243.025 449.427 246.657C449.434 247.434 449.441 248.211 449.448 249.011C449.466 251.501 449.472 253.991 449.474 256.481C449.474 257.333 449.475 258.184 449.476 259.061C449.46 271.658 449.07 283.846 446.224 296.169C446.052 296.941 445.881 297.712 445.704 298.508C441.579 316.65 435.084 333.823 426.224 350.169C425.659 351.214 425.095 352.26 424.513 353.337C399.865 397.135 357.966 428.769 310.013 442.888C296.535 446.628 282.621 449.29 268.614 449.372C267.814 449.379 267.013 449.386 266.188 449.393C263.617 449.411 261.045 449.417 258.474 449.419C257.596 449.419 256.719 449.42 255.815 449.421C243.058 449.405 230.7 449.072 218.224 446.169C217.453 445.997 216.683 445.826 215.889 445.649C197.745 441.525 180.571 435.03 164.224 426.169C163.178 425.604 162.133 425.04 161.056 424.458C137.909 411.432 118.058 393.403 102.224 372.169C101.599 371.339 100.973 370.508 100.329 369.653C90.096 355.561 82.5594 340.343 76.2237 324.169C75.9622 323.507 75.7007 322.845 75.4313 322.163C61.1608 285.274 61.2373 243.055 71.2237 205.169C70.3033 204.768 69.383 204.367 68.4347 203.954C54.7857 197.879 43.0079 190.641 32.2237 180.169C31.4774 179.496 30.731 178.823 29.962 178.13C10.4255 159.923 1.86148 133.507 0.0362405 107.497C-0.728019 79.0282 10.6406 52.1343 29.869 31.4827C49.5705 11.1568 75.5742 1.67221 103.423 0.0398704ZM53.9737 54.8563C39.3667 69.7267 33.9291 87.675 33.8343 108.084C33.9568 117.226 35.7124 124.778 39.2237 133.169C39.6079 134.109 39.992 135.048 40.3878 136.016C46.7199 149.951 58.1747 160.632 71.2237 168.169C71.8799 168.559 72.536 168.95 73.212 169.352C89.3935 178.257 107.591 178.463 125.087 174.235C144.239 168.488 159.548 155.717 169.224 138.169C177.224 120.577 179.39 101.093 173.482 82.4578C169.789 72.801 165.108 64.8903 158.224 57.1688C157.608 56.4701 156.991 55.7714 156.357 55.0516C143.228 41.0517 125.594 34.3726 106.735 33.2117C86.3973 32.9629 68.4707 40.7966 53.9737 54.8563ZM209.224 105.169C209.189 105.716 209.155 106.263 209.119 106.827C207.051 137.541 196.266 163.572 173.093 184.561C153.633 201.296 130.285 207.235 105.224 209.169C95.1458 238.124 95.114 270.72 103.224 300.169C103.443 300.985 103.662 301.802 103.888 302.643C110.82 327.671 124.891 349.141 142.224 368.169C142.898 368.915 143.572 369.661 144.267 370.43C173.037 400.673 214.749 415.763 255.741 417.121C300.028 417.975 339.67 399.182 371.224 369.169C371.868 368.577 372.513 367.985 373.177 367.376C397.671 344.198 411.257 309.896 416.224 277.169C416.421 275.91 416.421 275.91 416.622 274.626C421.825 233.774 408.513 191.692 383.804 159.308C380.764 155.454 377.558 151.772 374.224 148.169C373.513 147.4 373.513 147.4 372.787 146.616C361.454 134.522 348.698 125.182 334.224 117.169C333.586 116.815 332.948 116.462 332.29 116.098C295.549 96.0731 248.875 90.7928 209.224 105.169Z" fill="#3354CC"/>
<path d="M111.224 49.1689C116.19 51.4745 118.644 54.3897 121.224 59.1689C121.795 62.5071 121.785 65.7883 121.755 69.1689C121.759 70.1228 121.763 71.0767 121.767 72.0595C121.769 74.0699 121.762 76.0804 121.745 78.0907C121.724 81.1592 121.745 84.2254 121.771 87.2939C121.768 89.2522 121.763 91.2105 121.755 93.1689C121.763 94.0815 121.771 94.9942 121.78 95.9345C121.698 101.516 120.947 104.744 117.224 109.169C113.404 112.797 110.341 113.479 105.224 113.669C100.107 113.479 97.0431 112.797 93.2238 109.169C88.7948 103.905 88.6342 99.7461 88.6925 93.1689C88.6887 92.215 88.6849 91.261 88.6809 90.2782C88.6782 88.2678 88.6855 86.2573 88.7023 84.247C88.7237 81.1785 88.7025 78.1123 88.6769 75.0439C88.6795 73.0855 88.6846 71.1272 88.6925 69.1689C88.6844 68.2562 88.6763 67.3435 88.668 66.4032C88.7497 60.8216 89.5006 57.5941 93.2238 53.1689C98.4951 48.1611 104.332 48.2411 111.224 49.1689Z" fill="#BAC8FC"/>
<path d="M111.225 129.169C116.11 131.437 118.958 134.284 121.225 139.169C121.979 144.768 121.998 149.504 119.6 154.669C115.027 159.483 111.917 161.42 105.225 161.669C98.5342 161.42 95.4241 159.483 90.8504 154.669C88.4524 149.504 88.4716 144.768 89.2254 139.169C93.7033 129.524 101.372 127.842 111.225 129.169Z" fill="#BAC8FC"/>
</svg>
