<?xml version="1.0" encoding="utf-8"?>
<!-- Generator: Adobe Illustrator 17.0.0, SVG Export Plug-In . SVG Version: 6.00 Build 0)  -->
<!DOCTYPE svg PUBLIC "-//W3C//DTD SVG 1.1//EN" "http://www.w3.org/Graphics/SVG/1.1/DTD/svg11.dtd">
<svg version="1.1" id="Layer_1" xmlns="http://www.w3.org/2000/svg" xmlns:xlink="http://www.w3.org/1999/xlink" x="0px" y="0px"
	 width="46px" height="46px" viewBox="0 0 46 46" enable-background="new 0 0 46 46" xml:space="preserve">
<path fill="none" stroke="#33FFCC" d="M23,0.5L23,0.5c12.426,0,22.5,10.074,22.5,22.5l0,0c0,12.426-10.074,22.5-22.5,22.5l0,0
	C10.574,45.5,0.5,35.426,0.5,23l0,0C0.5,10.574,10.574,0.5,23,0.5z"/>
<path fill="none" stroke="#33FFCC" stroke-linecap="round" stroke-linejoin="round" d="M20.223,18.582L23,21.915l2.778-3.333"/>
<path fill="none" stroke="#33FFCC" stroke-width="1.5" stroke-linecap="round" stroke-linejoin="round" d="M14.667,17.469
	c0,0,4.166-6.388,11.388-3.889s6.944,9.722,6.944,9.722 M31.332,28.579c0,0-3.333,6.111-10.833,4.166C13,30.801,13,23.024,13,23.024
	v8.888 M32.999,14.136v8.888 M19.666,25.246h6.666 M19.666,21.913h6.666 M22.999,21.913v6.666"/>
</svg>
