<?xml version="1.0" encoding="utf-8"?>
<!-- Generator: Adobe Illustrator 17.0.0, SVG Export Plug-In . SVG Version: 6.00 Build 0)  -->
<!DOCTYPE svg PUBLIC "-//W3C//DTD SVG 1.1//EN" "http://www.w3.org/Graphics/SVG/1.1/DTD/svg11.dtd">
<svg version="1.1" id="Layer_1" xmlns="http://www.w3.org/2000/svg" xmlns:xlink="http://www.w3.org/1999/xlink" x="0px" y="0px"
	 width="46px" height="46px" viewBox="0 0 46 46" enable-background="new 0 0 46 46" xml:space="preserve">
<path fill="none" stroke="#33FFCC" d="M23,0.5L23,0.5c12.426,0,22.5,10.074,22.5,22.5l0,0c0,12.426-10.074,22.5-22.5,22.5l0,0
	C10.574,45.5,0.5,35.426,0.5,23l0,0C0.5,10.574,10.574,0.5,23,0.5z"/>
<path fill="#33FFCC" d="M27.888,21.592h2.848v-0.311c-0.163-0.585-0.422-0.982-0.758-1.223c-0.335-0.241-0.771-0.344-1.282-0.341
	L16.733,19.72c-0.287,0-0.521-0.226-0.521-0.505s0.233-0.505,0.521-0.505h1.528c-0.208-0.303-0.383-0.63-0.519-0.974
	c-0.08-0.204-0.148-0.414-0.2-0.63h-1.726c-0.487,0-0.931,0.194-1.253,0.507c-0.322,0.312-0.522,0.743-0.522,1.216v10.615
	c0,0.472,0.2,0.903,0.522,1.215c0.321,0.314,0.765,0.507,1.252,0.507H28.96c0.486,0,0.931-0.194,1.253-0.507
	s0.522-0.744,0.522-1.216v-1.515h-2.848c-0.88,0-1.679-0.349-2.257-0.911l-0.055-0.058c-0.546-0.558-0.884-1.311-0.884-2.134v-0.133
	c0-0.85,0.359-1.625,0.938-2.188l0.005-0.005C26.216,21.94,27.013,21.592,27.888,21.592z M21.141,16.688v-2.255
	c0.014-0.173-0.103-0.229-0.29-0.222H20.4v-0.608h0.969v-0.506h0.548v0.506h0.429v-0.506h0.548v0.515
	c0.121,0.004,0.242,0.009,0.352,0.015c0.498,0.028,0.845,0.107,1.067,0.579c0.061,0.13,0.094,0.271,0.094,0.41
	c0,0.182-0.045,0.288-0.136,0.436c-0.091,0.146-0.224,0.25-0.4,0.325c1.305,0.157,1.066,1.962-0.302,2.101
	c-0.116,0.012-0.399,0.026-0.676,0.035v0.514h-0.548v-0.505h-0.429v0.505h-0.548v-0.505H20.4l0.135-0.588h0.433
	C21.106,16.956,21.153,16.86,21.141,16.688z M22.895,14.315V15.2C23.546,15.046,23.504,14.479,22.895,14.315z M22.895,15.743v1.095
	c0.069-0.006,0.129-0.014,0.179-0.023c0.661-0.12,0.814-0.87,0.024-1.04C23.039,15.762,22.971,15.751,22.895,15.743z M22.347,16.858
	v-1.135h-0.225v1.135H22.347z M22.347,15.238V14.27h-0.225v0.968C22.122,15.238,22.347,15.238,22.347,15.238z M19.353,18.71
	l6.328,0.001c0.673-0.729,1.082-1.692,1.082-2.748c0-2.277-1.901-4.121-4.245-4.121c-2.345,0-4.246,1.844-4.246,4.121
	C18.272,17.018,18.681,17.981,19.353,18.71z M26.773,18.711h1.909c0.734-0.007,1.382,0.156,1.914,0.538
	c0.048,0.034,0.094,0.07,0.14,0.108v-0.528c0-0.471-0.2-0.903-0.523-1.216c-0.32-0.313-0.763-0.507-1.252-0.507h-1.468
	c-0.052,0.215-0.12,0.426-0.2,0.629C27.156,18.08,26.982,18.407,26.773,18.711z M27.628,16.096h1.333
	c0.772,0,1.476,0.308,1.987,0.804c0.511,0.494,0.829,1.178,0.829,1.929v2.791c0.3,0.058,0.569,0.203,0.777,0.405
	C32.829,22.291,33,22.661,33,23.068v3.322c0,0.42-0.178,0.806-0.467,1.086c-0.207,0.204-0.469,0.347-0.756,0.413v1.555
	c0,0.749-0.318,1.432-0.828,1.927l-0.002,0.002c-0.51,0.495-1.214,0.804-1.986,0.804H15.816c-0.771,0-1.476-0.308-1.988-0.804
	C13.317,30.878,13,30.195,13,29.443V18.829c0-0.752,0.317-1.436,0.827-1.931c0.51-0.495,1.214-0.803,1.989-0.803h1.591l-0.002-0.133
	c0-1.37,0.573-2.611,1.498-3.509l0.053-0.048C19.877,11.536,21.133,11,22.518,11c1.411,0,2.69,0.556,3.615,1.453l0.049,0.052
	c0.896,0.894,1.448,2.114,1.448,3.457L27.628,16.096z M28.151,23.494c0.343,0,0.654,0.135,0.88,0.354
	c0.227,0.221,0.366,0.523,0.366,0.856s-0.139,0.635-0.365,0.854c-0.227,0.22-0.539,0.356-0.881,0.356
	c-0.342,0-0.654-0.136-0.88-0.354l-0.002-0.003c-0.226-0.219-0.365-0.521-0.365-0.853s0.14-0.635,0.365-0.854l0.002-0.002
	C27.498,23.629,27.809,23.494,28.151,23.494z"/>
</svg>
