<svg width="177" height="161" viewBox="0 0 177 161" fill="none" xmlns="http://www.w3.org/2000/svg">
<path d="M146.005 95.9999C155.752 88.8268 173.72 73.1391 173.72 54.9272H106.045C106.045 73.1391 124.013 88.8268 133.76 95.9999C124.013 103.173 106.045 118.861 106.045 137.073H173.721C173.72 118.861 155.752 103.173 146.005 95.9999Z" fill="white"/>
<path d="M170.24 129.911C169.235 126.159 166.27 123.266 162.569 122.088C158.101 120.666 151.961 119.318 146.335 120.152C146.271 120.161 146.195 120.162 146.111 120.156C145.155 120.091 144.411 119.29 144.303 118.339L141.958 97.5998C141.847 96.613 142.269 95.6414 143.068 95.0506L144.519 93.9773C149.835 90.0758 157.064 84.0434 162.653 76.7039C163.245 75.9265 162.606 74.82 161.639 74.9631C155.959 75.8052 144.326 76.8132 134.593 73.0352C126.095 69.7326 121.51 72.2877 119.289 74.61C118.044 75.9113 118.051 77.9561 119.216 79.3297C124.439 85.4888 130.581 90.554 135.244 93.9779L136.653 95.0207C137.474 95.6278 137.896 96.6353 137.753 97.6466L134.92 117.699C134.746 118.927 133.525 119.716 132.334 119.37L131.337 119.08C128.103 118.14 124.738 117.73 121.372 117.865C117.196 118.033 113.377 120.447 111.611 124.235C110.07 127.539 109.016 131.004 108.668 134.573H171.095C170.941 132.995 170.65 131.44 170.24 129.911Z" fill="#BAC8FC"/>
<path d="M170.837 49H108.929C105.656 49 103.002 51.6536 103.002 54.9274H176.765C176.765 51.6536 174.111 49 170.837 49Z" fill="#3354CC"/>
<path d="M108.928 143H170.836C174.109 143 176.763 140.347 176.763 137.073H103C103 140.347 105.654 143 108.928 143Z" fill="#3354CC"/>
<path opacity="0.09" d="M141.042 95.9998C131.299 103.175 113.331 118.858 113.331 137.071H106.047C106.047 118.858 124.015 103.175 133.763 95.9998C124.015 88.8245 106.047 73.1412 106.047 54.9282H113.331C113.331 73.1412 131.299 88.8245 141.042 95.9998Z" fill="#6C7AFF"/>
<path d="M46.2925 141.661L44.465 140.388C43.3919 139.64 43.1262 138.151 43.874 137.078L50.9373 126.939C51.685 125.866 53.1745 125.6 54.2475 126.348L56.0751 127.621C57.1481 128.369 57.4138 129.858 56.6661 130.931L49.6028 141.07C48.8551 142.142 47.3664 142.409 46.2925 141.661Z" fill="#3354CC"/>
<path d="M114.405 141.661L116.233 140.388C117.306 139.64 117.572 138.151 116.824 137.078L109.761 126.939C109.014 125.866 107.525 125.6 106.451 126.348L104.623 127.621C103.55 128.369 103.284 129.858 104.032 130.931L111.095 141.07C111.842 142.142 113.332 142.409 114.405 141.661Z" fill="#3354CC"/>
<path d="M80.3563 23.4867H80.157C78.8489 23.4867 77.7793 22.4171 77.7793 21.109V13.7229C77.7793 12.4148 78.8489 11.3452 80.157 11.3452H80.3563C81.6635 11.3452 82.734 12.4148 82.734 13.7229V21.109C82.734 22.4171 81.6635 23.4867 80.3563 23.4867Z" fill="#3354CC"/>
<path d="M84.7387 15.5732H75.772C73.3253 15.5732 71.3223 13.5711 71.3223 11.1235V9.30616C71.3223 6.85861 73.3253 4.85645 75.772 4.85645H84.7387C87.1854 4.85645 89.1884 6.85861 89.1884 9.30616V11.1235C89.1875 13.5711 87.1854 15.5732 84.7387 15.5732Z" fill="#3354CC"/>
<path d="M74.9602 14.0275H74.9014C74.5097 14.0275 74.1895 13.7073 74.1895 13.3164V7.04509C74.1895 6.65335 74.5097 6.33398 74.9014 6.33398H74.9602C75.3519 6.33398 75.6721 6.6542 75.6721 7.04509V13.3164C75.6721 13.7073 75.3519 14.0275 74.9602 14.0275Z" fill="#BAC8FC"/>
<path d="M78.5109 14.0275H78.4513C78.0596 14.0275 77.7402 13.7073 77.7402 13.3164V7.04509C77.7402 6.65335 78.0596 6.33398 78.4513 6.33398H78.5109C78.9018 6.33398 79.222 6.6542 79.222 7.04509V13.3164C79.222 13.7073 78.9018 14.0275 78.5109 14.0275Z" fill="#BAC8FC"/>
<path d="M82.0598 14.0275H82.0002C81.6084 14.0275 81.2891 13.7073 81.2891 13.3164V7.04509C81.2891 6.65335 81.6084 6.33398 82.0002 6.33398H82.0598C82.4507 6.33398 82.7709 6.6542 82.7709 7.04509V13.3164C82.7709 13.7073 82.4507 14.0275 82.0598 14.0275Z" fill="#BAC8FC"/>
<path d="M85.6106 14.0275H85.5509C85.16 14.0275 84.8398 13.7073 84.8398 13.3164V7.04509C84.8398 6.65335 85.16 6.33398 85.5509 6.33398H85.6106C86.0015 6.33398 86.3217 6.6542 86.3217 7.04509V13.3164C86.3217 13.7073 86.0015 14.0275 85.6106 14.0275Z" fill="#BAC8FC"/>
<path d="M49.0292 36.9939L47.6274 37.8115C46.3287 38.5694 44.6459 38.1257 43.888 36.8279L38.2962 27.2429C37.5383 25.945 37.9811 24.2614 39.2799 23.5034L40.6808 22.6859C41.9786 21.928 43.6623 22.3708 44.4202 23.6695L50.012 33.2536C50.7707 34.5523 50.3279 36.2351 49.0292 36.9939Z" fill="#3354CC"/>
<path d="M32.3079 9.94148C24.2533 14.6407 21.0052 24.4198 24.2541 32.8491C24.8315 34.3463 26.6421 34.9441 28.0276 34.136L55.4761 18.1213C56.8626 17.3122 57.2322 15.4421 56.2128 14.203C50.4737 7.22737 40.3616 5.24225 32.3079 9.94148Z" fill="#3354CC"/>
<path d="M111.483 36.9939L112.885 37.8115C114.183 38.5694 115.866 38.1257 116.624 36.8279L122.216 27.2429C122.974 25.945 122.531 24.2614 121.232 23.5034L119.831 22.6859C118.532 21.928 116.849 22.3708 116.091 23.6695L110.499 33.2536C109.741 34.5523 110.184 36.2351 111.483 36.9939Z" fill="#3354CC"/>
<path d="M128.206 9.94148C136.259 14.6407 139.507 24.4198 136.258 32.8491C135.681 34.3463 133.871 34.9441 132.486 34.136L105.036 18.1213C103.65 17.3122 103.28 15.4421 104.3 14.203C110.04 7.22737 120.152 5.24225 128.206 9.94148Z" fill="#3354CC"/>
<path d="M137.341 103.713C150.243 72.2381 135.187 36.2636 103.713 23.3615C72.238 10.4594 36.2635 25.5154 23.3614 56.9901C10.4592 88.4647 25.5153 124.439 56.9899 137.341C88.4646 150.243 124.439 135.187 137.341 103.713Z" fill="#BAC8FC"/>
<path d="M80.348 135.075C110.561 135.075 135.053 110.582 135.053 80.3695C135.053 50.1565 110.561 25.6641 80.348 25.6641C50.135 25.6641 25.6426 50.1565 25.6426 80.3695C25.6426 110.582 50.135 135.075 80.348 135.075Z" fill="#4768E0" fill-opacity="0.4"/>
<path d="M133.52 80.3699C133.52 109.735 109.714 133.542 80.3494 133.542C50.9839 133.542 27.1777 109.736 27.1777 80.3699C27.1777 51.0035 50.9839 27.1982 80.3494 27.1982C109.714 27.1991 133.52 51.0044 133.52 80.3699Z" fill="white"/>
<path d="M80.0586 32.5917C80.0586 35.3978 80.0586 38.2039 80.0586 41.01C80.0586 41.4077 80.0586 41.8046 80.0586 42.2006C80.0586 42.8452 81.0636 42.8461 81.0636 42.2006C81.0636 39.3945 81.0636 36.5884 81.0636 33.7823C81.0636 33.3855 81.0636 32.9877 81.0636 32.5917C81.0636 31.9471 80.0586 31.9462 80.0586 32.5917Z" fill="#3354CC"/>
<path d="M80.0586 119.358C80.0586 122.164 80.0586 124.971 80.0586 127.777C80.0586 128.174 80.0586 128.571 80.0586 128.967C80.0586 129.612 81.0636 129.613 81.0636 128.967C81.0636 126.161 81.0636 123.355 81.0636 120.549C81.0636 120.152 81.0636 119.754 81.0636 119.358C81.0636 118.715 80.0586 118.714 80.0586 119.358Z" fill="#3354CC"/>
<path d="M128.96 80.2788C126.142 80.2788 123.323 80.2788 120.505 80.2788C120.106 80.2788 119.708 80.2788 119.31 80.2788C118.663 80.2788 118.662 81.2803 119.31 81.2803C122.129 81.2803 124.947 81.2803 127.765 81.2803C128.164 81.2803 128.562 81.2803 128.961 81.2803C129.608 81.2803 129.608 80.2788 128.96 80.2788Z" fill="#3354CC"/>
<path d="M41.8136 80.2788C38.9953 80.2788 36.1769 80.2788 33.3586 80.2788C32.96 80.2788 32.5614 80.2788 32.1637 80.2788C31.5162 80.2788 31.5153 81.2803 32.1637 81.2803C34.982 81.2803 37.8004 81.2803 40.6187 81.2803C41.0173 81.2803 41.4159 81.2803 41.8136 81.2803C42.4603 81.2803 42.4611 80.2788 41.8136 80.2788Z" fill="#3354CC"/>
<path d="M104.664 39.4154C103.218 41.8573 101.772 44.2999 100.327 46.7426C100.123 47.0882 99.9191 47.4338 99.7132 47.7786C99.3819 48.3394 100.243 48.863 100.575 48.3013C102.02 45.8587 103.467 43.416 104.912 40.9733C105.116 40.6286 105.321 40.2821 105.525 39.9373C105.857 39.3757 104.997 38.8538 104.664 39.4154Z" fill="#3354CC"/>
<path d="M60.2259 113.622C58.7787 116.03 57.3297 118.437 55.8825 120.845C55.6781 121.185 55.4737 121.526 55.2684 121.866C54.9357 122.419 55.7978 122.934 56.1314 122.38C57.5787 119.973 59.0267 117.565 60.474 115.158C60.6784 114.817 60.8837 114.476 61.089 114.137C61.4208 113.584 60.5587 113.069 60.2259 113.622Z" fill="#3354CC"/>
<path d="M122.346 105.102C119.928 103.662 117.51 102.219 115.091 100.778C114.75 100.574 114.407 100.37 114.065 100.166C113.511 99.8352 112.993 100.694 113.549 101.026C115.968 102.467 118.386 103.909 120.803 105.349C121.145 105.553 121.487 105.757 121.829 105.962C122.384 106.293 122.902 105.434 122.346 105.102Z" fill="#3354CC"/>
<path d="M47.5743 60.5323C45.1571 59.0914 42.7391 57.6496 40.3202 56.2086C39.978 56.0051 39.6359 55.8007 39.2938 55.5963C38.7395 55.2659 38.2212 56.1243 38.778 56.4556C41.196 57.8974 43.6141 59.3392 46.0321 60.7801C46.3743 60.9837 46.7164 61.1881 47.0577 61.3916C47.6137 61.7229 48.1303 60.8645 47.5743 60.5323Z" fill="#3354CC"/>
<path d="M56.1314 39.1781C57.5787 41.5848 59.0267 43.9923 60.474 46.3998C60.6784 46.7405 60.8837 47.0811 61.089 47.4209C61.4217 47.9736 60.5587 48.4897 60.2259 47.9361C58.7787 45.5286 57.3297 43.1211 55.8825 40.7136C55.6781 40.3738 55.4737 40.0323 55.2684 39.6925C54.9357 39.1389 55.7978 38.6245 56.1314 39.1781Z" fill="#3354CC"/>
<path d="M100.897 113.622C102.344 116.03 103.793 118.437 105.24 120.845C105.445 121.185 105.65 121.526 105.854 121.866C106.187 122.419 105.325 122.934 104.991 122.38C103.544 119.973 102.096 117.565 100.649 115.158C100.444 114.817 100.24 114.476 100.034 114.137C99.7018 113.584 100.564 113.069 100.897 113.622Z" fill="#3354CC"/>
<path d="M38.778 105.102C41.196 103.662 43.6141 102.219 46.0321 100.778C46.3743 100.574 46.7164 100.37 47.0577 100.166C47.6128 99.8352 48.1303 100.694 47.5743 101.026C45.1571 102.467 42.7391 103.909 40.3202 105.349C39.978 105.553 39.6359 105.757 39.2938 105.962C38.7395 106.293 38.2212 105.434 38.778 105.102Z" fill="#3354CC"/>
<path d="M113.549 60.5323C115.968 59.0914 118.386 57.6496 120.803 56.2086C121.145 56.0051 121.487 55.8007 121.829 55.5963C122.383 55.2659 122.902 56.1243 122.346 56.4556C119.928 57.8974 117.51 59.3392 115.091 60.7801C114.75 60.9837 114.407 61.1881 114.065 61.3916C113.511 61.7229 112.993 60.8645 113.549 60.5323Z" fill="#3354CC"/>
<path d="M78.3496 53.5349C78.3496 61.059 78.3496 68.583 78.3496 76.1071C78.3496 77.1886 78.3496 78.2693 78.3496 79.35C78.3496 81.927 82.3539 81.9313 82.3539 79.35C82.3539 71.826 82.3539 64.3019 82.3539 56.7779C82.3539 55.6963 82.3539 54.6156 82.3539 53.5349C82.3539 50.9579 78.3496 50.9537 78.3496 53.5349Z" fill="#3354CC"/>
<path d="M112.133 112.671C108.789 109.013 105.444 105.356 102.101 101.698C96.7637 95.8622 91.4266 90.0252 86.0895 84.1891C84.8555 82.8392 83.6216 81.4894 82.3867 80.1396C81.5291 79.2011 79.8804 80.3432 80.7499 81.2944C84.0951 84.9513 87.4393 88.609 90.7828 92.2658C96.1199 98.1028 101.456 103.94 106.794 109.777C108.028 111.127 109.262 112.476 110.496 113.825C111.355 114.763 113.002 113.622 112.133 112.671Z" fill="#3354CC"/>
<path d="M85.865 80.3696C85.865 83.415 83.3961 85.8846 80.3499 85.8846C77.3037 85.8846 74.834 83.4158 74.834 80.3696C74.834 77.3233 77.3028 74.8545 80.3499 74.8545C83.3961 74.8553 85.865 77.3242 85.865 80.3696Z" fill="#BAC8FC"/>
</svg>
