<svg width="19" height="18" viewBox="0 0 19 18" fill="none" xmlns="http://www.w3.org/2000/svg">
<path d="M9.23325 18.0002C14.3328 18.0002 18.4668 13.9711 18.4668 9.00107C18.4668 4.031 14.3328 0.00195312 9.23325 0.00195312C4.13373 0.00195312 -0.000244141 4.031 -0.000244141 9.00107C-0.000244141 13.9711 4.13373 18.0002 9.23325 18.0002Z" fill="#5F259F"/>
<path d="M13.424 6.65218C13.424 6.30039 13.1144 5.99871 12.7535 5.99871H11.5156L8.67856 2.83155C8.4207 2.52986 8.00807 2.42939 7.59544 2.52986L6.6154 2.83155C6.46063 2.88191 6.40895 3.08286 6.51231 3.18333L9.60719 6.04908H4.91265C4.75788 6.04908 4.65479 6.14955 4.65479 6.30039V6.80302C4.65479 7.15481 4.96433 7.4565 5.32528 7.4565H6.04745V9.86971C6.04745 11.6796 7.02749 12.7355 8.67829 12.7355C9.19401 12.7355 9.60692 12.6851 10.1226 12.4841V14.093C10.1226 14.5456 10.4836 14.8974 10.9479 14.8974H11.6701C11.8249 14.8974 11.9796 14.7465 11.9796 14.5957V7.40639H13.1661C13.3209 7.40639 13.424 7.30592 13.424 7.15508V6.65218ZM10.1226 10.9757C9.8131 11.1266 9.40047 11.1769 9.09092 11.1769C8.26566 11.1769 7.85303 10.7748 7.85303 9.86971V7.4565H10.1226V10.9757Z" fill="white"/>
</svg>
