<svg width="24" height="20" viewBox="0 0 24 20" fill="none" xmlns="http://www.w3.org/2000/svg">
<path d="M12.2245 8.79808L11.9087 9.97722L11.4125 10.204V9.70511L11.4576 8.79808H11.0065L10.8712 8.38992L10.6006 8.61667L10.4652 10.2493L9.60817 9.65976L10.0593 9.38765L10.0141 8.66203L9.65328 8.84343L9.42773 8.0271L10.0141 7.9364L9.96904 7.25613L9.47284 6.75726L9.87882 6.66656L10.4201 5.71418L10.7359 6.48515L11.0516 6.62121V6.84797L11.6381 6.80261L11.3674 5.66883L12.3598 6.07699L12.1343 6.80261L12.7658 6.66656L13.1266 5.57812L13.9837 6.16769L13.2169 6.71191L13.9386 6.75726L14.1641 7.39218H13.5777L13.5326 8.11781H14.119L14.3446 8.75273L13.5777 8.79808L13.3973 9.97722L12.9462 10.2493L12.6305 8.75273L12.2245 8.79808ZM12.4049 7.61894L12.3598 8.0271L12.4049 8.11781H12.9011L12.8109 7.48289L12.3598 7.57359L12.4049 7.61894ZM11.5478 7.43754H11.1419L11.0065 7.02937L10.6908 7.30148V7.8457L11.187 7.89105L11.0968 8.16316H11.5478V7.43754Z" fill="#E02E24"/>
<path d="M0.225586 3.76417L5.54841 0V7.52835L0.225586 3.76417Z" fill="#E02E24"/>
<path d="M5.32283 7.8462L0 11.6104V4.08203L5.32283 7.8462Z" fill="#E02E24"/>
<path d="M11.3223 3.76417L5.99951 0V7.52835L11.3223 3.76417Z" fill="#E02E24"/>
<path d="M0.225586 11.9282L5.54841 8.16406V15.6924L0.225586 11.9282Z" fill="#E02E24"/>
<path d="M6.17993 16.0083L11.5479 12.2441V19.7725L6.17993 16.0083Z" fill="#E02E24"/>
<path d="M11.3223 11.9282L5.99951 8.16406V15.6924L11.3223 11.9282Z" fill="#E02E24"/>
<path d="M23.5015 3.76417L18.1787 0V7.52835L23.5015 3.76417Z" fill="#E02E24"/>
<path d="M18.4043 7.8462L23.7271 11.6104V4.08203L18.4043 7.8462Z" fill="#E02E24"/>
<path d="M12.4048 3.76417L17.7276 0V7.52835L12.4048 3.76417Z" fill="#E02E24"/>
<path d="M23.5015 11.9282L18.1787 8.16406V15.6924L23.5015 11.9282Z" fill="#E02E24"/>
<path d="M17.7278 16.0085L11.9539 12.0176V19.9541L17.7278 16.0085Z" fill="#E02E24"/>
<path d="M12.4048 11.9282L17.7276 8.16406V15.6924L12.4048 11.9282Z" fill="#E02E24"/>
</svg>
