<svg width="87" height="100" viewBox="0 0 87 100" fill="none" xmlns="http://www.w3.org/2000/svg">
<g filter="url(#filter0_dd_1935_5609)">
<path d="M43.7902 97.998C67.635 97.998 86.9651 96.6084 86.9651 94.8938C86.9651 93.1791 67.635 91.7891 43.7902 91.7891C19.9453 91.7891 0.615234 93.1791 0.615234 94.8938C0.615234 96.6084 19.9453 97.998 43.7902 97.998Z" fill="black"/>
</g>
<path fill-rule="evenodd" clip-rule="evenodd" d="M12.4994 36.6577L11.9875 37.0807C11.7499 36.7907 11.5157 36.4977 11.2891 36.1988L11.8177 35.7969C12.0388 36.0886 12.2674 36.3746 12.4994 36.6577Z" fill="#3C415E"/>
<path fill-rule="evenodd" clip-rule="evenodd" d="M9.30758 31.702L8.70668 31.9848C8.62268 31.816 8.55098 31.6411 8.47338 31.4691C8.39478 31.2975 8.32538 31.1218 8.25488 30.9464L8.87118 30.6992C8.93918 30.8683 9.00608 31.0378 9.08208 31.2037C9.15728 31.3698 9.22618 31.5387 9.30758 31.702Z" fill="#3C415E"/>
<path fill-rule="evenodd" clip-rule="evenodd" d="M10.2286 33.4372L9.65683 33.775C9.56143 33.6129 9.46513 33.4513 9.37583 33.2855C9.28543 33.1203 9.19133 32.9573 9.10693 32.7888L9.69514 32.4805C9.77674 32.6437 9.86833 32.8019 9.95583 32.9621C10.0422 33.1229 10.136 33.2797 10.2286 33.4372Z" fill="#3C415E"/>
<path fill-rule="evenodd" clip-rule="evenodd" d="M11.2944 35.0813L10.7523 35.4648L10.4321 35.0015L10.1221 34.5309L10.6808 34.1719L10.9824 34.63L11.2944 35.0813Z" fill="#3C415E"/>
<path fill-rule="evenodd" clip-rule="evenodd" d="M7.8965 26.081L7.2334 26.0449L7.2389 25.8977L7.2556 25.7504L7.2903 25.4559C7.2985 25.3574 7.3224 25.2604 7.3415 25.163L7.4017 24.8711L8.0466 25.0298L7.9934 25.2897C7.9763 25.3765 7.9543 25.4623 7.9474 25.5511L7.9164 25.8154L7.9011 25.9476L7.8965 26.081Z" fill="#3C415E"/>
<path fill-rule="evenodd" clip-rule="evenodd" d="M8.04695 27.9982L7.39505 28.1246C7.36345 27.9345 7.32625 27.7457 7.29985 27.5544C7.27985 27.3615 7.25505 27.1694 7.23975 26.9757L7.90225 26.9297C7.91655 27.1083 7.93985 27.2866 7.95785 27.4651C7.98255 27.6432 8.01765 27.8204 8.04695 27.9982Z" fill="#3C415E"/>
<path fill-rule="evenodd" clip-rule="evenodd" d="M8.56126 29.8722L7.93336 30.0882L7.75856 29.5479C7.70096 29.3676 7.65416 29.1837 7.60156 29.0017L8.24256 28.8281C8.29316 29.0029 8.33796 29.1793 8.39326 29.3526L8.56126 29.8722Z" fill="#3C415E"/>
<path fill-rule="evenodd" clip-rule="evenodd" d="M10.86 21.4318L10.4961 20.8763C10.8156 20.6627 11.1481 20.4756 11.4819 20.293L11.7947 20.8787C11.4766 21.0529 11.1601 21.2309 10.86 21.4318Z" fill="#3C415E"/>
<path fill-rule="evenodd" clip-rule="evenodd" d="M9.37052 22.6538L8.88672 22.1988C8.95072 22.1234 9.02272 22.0576 9.09322 21.9898L9.30522 21.7872C9.37412 21.7172 9.45212 21.6597 9.52572 21.5963L9.74982 21.4102L10.1622 21.9307L9.95532 22.1027C9.88742 22.1611 9.81442 22.2144 9.75212 22.2784L9.55852 22.4636C9.49402 22.5254 9.42762 22.5855 9.37052 22.6538Z" fill="#3C415E"/>
<path fill-rule="evenodd" clip-rule="evenodd" d="M8.32024 24.2228L7.71094 23.9585C7.74534 23.8644 7.79304 23.7767 7.83844 23.6879L7.97554 23.4219C8.02374 23.3348 8.08004 23.2527 8.13224 23.168C8.18644 23.0848 8.23624 22.998 8.29464 22.918L8.83754 23.3004C8.78534 23.3719 8.74184 23.4491 8.69344 23.523C8.64724 23.5983 8.59654 23.6711 8.55384 23.7483L8.43304 23.9838C8.39274 24.0623 8.34984 24.1395 8.32024 24.2228Z" fill="#3C415E"/>
<path fill-rule="evenodd" clip-rule="evenodd" d="M16.2731 19.1421L16.0859 18.505C16.4433 18.3965 16.8032 18.3011 17.1627 18.2031L17.3339 18.8447C16.9795 18.9415 16.6242 19.0355 16.2731 19.1421Z" fill="#3C415E"/>
<path fill-rule="evenodd" clip-rule="evenodd" d="M14.3965 19.7493L14.1719 19.1243L14.7025 18.9395C14.879 18.8763 15.0582 18.8239 15.2359 18.7656L15.438 19.3982C15.2639 19.4553 15.0876 19.5068 14.9153 19.5686L14.3965 19.7493Z" fill="#3C415E"/>
<path fill-rule="evenodd" clip-rule="evenodd" d="M12.5836 20.4891L12.3037 19.8869C12.6449 19.7225 12.9947 19.5838 13.3419 19.4375L13.5879 20.0543C13.2516 20.1961 12.9116 20.3308 12.5836 20.4891Z" fill="#3C415E"/>
<path fill-rule="evenodd" clip-rule="evenodd" d="M22.0571 17.7776L21.9297 17.1258L22.4754 17.0193L23.0218 16.918L23.1429 17.5709L22.5995 17.6717L22.0571 17.7776Z" fill="#3C415E"/>
<path fill-rule="evenodd" clip-rule="evenodd" d="M20.1162 18.1797L19.9746 17.5308C20.3369 17.4487 20.7006 17.3772 21.0637 17.3008L21.1969 17.9514C20.8366 18.0272 20.4751 18.0982 20.1162 18.1797Z" fill="#3C415E"/>
<path fill-rule="evenodd" clip-rule="evenodd" d="M18.1948 18.6273L18.0342 17.9829C18.3944 17.8889 18.7572 17.8098 19.1185 17.7227L19.2677 18.3697C18.9102 18.4561 18.5504 18.5344 18.1948 18.6273Z" fill="#3C415E"/>
<path fill-rule="evenodd" clip-rule="evenodd" d="M27.9199 16.646L27.7822 15.9963L28.8594 15.7617L29.0049 16.4096L27.9199 16.646Z" fill="#3C415E"/>
<path fill-rule="evenodd" clip-rule="evenodd" d="M25.9692 17.0392L25.8423 16.3874L26.9249 16.1719L27.0574 16.8226L25.9692 17.0392Z" fill="#3C415E"/>
<path fill-rule="evenodd" clip-rule="evenodd" d="M24.0201 17.4056L23.9009 16.7523C24.263 16.6849 24.6259 16.6208 24.9873 16.5508L25.1105 17.2033C24.7475 17.2737 24.3835 17.3381 24.0201 17.4056Z" fill="#3C415E"/>
<path fill-rule="evenodd" clip-rule="evenodd" d="M33.7196 15.1428L33.5107 14.5124C33.685 14.4584 33.6052 14.4525 33.7772 14.3936L34.2834 14.2451L34.5372 14.1484L34.773 14.7693L34.5115 14.8688L34.2478 14.9613C34.0718 15.0217 33.8972 15.0877 33.7196 15.1428Z" fill="#3C415E"/>
<path fill-rule="evenodd" clip-rule="evenodd" d="M31.8052 15.7168L31.6299 15.0763L32.1584 14.9293L32.6834 14.7734L32.8757 15.4091L32.0923 15.626L31.8052 15.7168Z" fill="#3C415E"/>
<path fill-rule="evenodd" clip-rule="evenodd" d="M29.8785 16.2066L29.7256 15.5604C30.0814 15.4724 30.4391 15.3894 30.7935 15.2969L30.9579 15.9403C30.5991 16.0339 30.2383 16.1177 29.8785 16.2066Z" fill="#3C415E"/>
<path fill-rule="evenodd" clip-rule="evenodd" d="M38.7138 12.2317L38.4526 11.7484C38.5674 11.6241 38.6535 11.4825 38.751 11.348C38.796 11.2787 38.8325 11.205 38.8741 11.1339L38.9351 11.0266C38.9525 10.9895 38.9678 10.9515 38.9844 10.9141L39.5886 11.1897C39.5687 11.2344 39.5499 11.2798 39.5289 11.3239L39.4572 11.4519C39.4083 11.5364 39.3636 11.6239 39.3106 11.7057C39.1979 11.8641 38.8444 12.0885 38.7138 12.2317Z" fill="#3C415E"/>
<path fill-rule="evenodd" clip-rule="evenodd" d="M37.3997 13.503L37.0439 12.9423C37.1894 12.8446 37.0929 12.8128 37.2286 12.705L37.687 12.491C37.7554 12.4378 37.8182 12.3795 37.8841 12.3242L38.3185 12.8266C38.2453 12.8881 38.1744 12.9531 38.0991 13.0117L37.8701 13.1825C37.72 13.3008 37.5574 13.3976 37.3997 13.503Z" fill="#3C415E"/>
<path fill-rule="evenodd" clip-rule="evenodd" d="M35.6106 14.4303L35.3472 13.8206C35.5151 13.7535 35.6746 13.6726 35.8381 13.5984C36.0026 13.5256 36.1594 13.4411 36.3179 13.3594L36.6267 13.9473C36.4596 14.0335 36.0445 14.1808 35.8733 14.2568C35.7027 14.3343 35.784 14.3607 35.6106 14.4303Z" fill="#3C415E"/>
<path fill-rule="evenodd" clip-rule="evenodd" d="M39.0592 6.31933L38.5207 6.70827C38.3365 6.44452 37.8535 6.27548 37.5908 6.09058L38.2218 5.48828C38.5451 5.71534 38.832 5.99556 39.0592 6.31933Z" fill="#3C415E"/>
<path fill-rule="evenodd" clip-rule="evenodd" d="M39.8346 8.23771L39.1836 8.36901C39.1038 7.95171 39.0445 7.74651 38.8965 7.38871L39.5093 7.13281C39.6581 7.49141 39.7631 7.86481 39.8346 8.23771Z" fill="#3C415E"/>
<path fill-rule="evenodd" clip-rule="evenodd" d="M39.8771 10.2964L39.2256 10.1678L39.2516 10.0473L39.2651 9.92372C39.2735 9.84112 39.2848 9.75922 39.2918 9.67632L39.2964 9.42492C39.2966 9.38302 39.2997 9.34132 39.2978 9.29912L39.2891 9.17222L39.9523 9.13672L39.9616 9.28102C39.9638 9.32922 39.9608 9.37782 39.9605 9.42632L39.7055 9.77532C39.6975 9.87222 39.9341 9.91082 39.9238 10.0076L39.9072 10.1528L39.8771 10.2964Z" fill="#3C415E"/>
<path fill-rule="evenodd" clip-rule="evenodd" d="M33.3286 5.02344L33.4655 5.67321C32.8641 5.80002 32.5184 5.90219 32.4158 5.93051L32.2388 5.29043C32.5986 5.19109 32.9617 5.10076 33.3286 5.02344Z" fill="#3C415E"/>
<path fill-rule="evenodd" clip-rule="evenodd" d="M35.3394 4.76562L35.3556 5.42956C35.0068 5.43802 34.6547 5.47034 34.3028 5.52081L33.96 4.92166C34.3328 4.86819 34.9591 4.77493 35.3394 4.76562Z" fill="#3C415E"/>
<path fill-rule="evenodd" clip-rule="evenodd" d="M37.3747 5.05415L37.1483 5.67846C36.839 5.56866 36.5096 5.49749 36.1704 5.4611L36.2413 4.80078C36.4063 4.81848 36.7882 4.84533 37.3747 5.05415Z" fill="#3C415E"/>
<path fill-rule="evenodd" clip-rule="evenodd" d="M27.6454 6.95312L27.6528 7.624L26.6362 8.05511L26.624 7.3862L27.6454 6.95312Z" fill="#3C415E"/>
<path fill-rule="evenodd" clip-rule="evenodd" d="M29.2455 6.26562L29.7318 6.82769C29.3902 6.95833 29.0496 7.0931 28.7096 7.231L28.46 6.61564C28.8034 6.47637 28.8989 6.39812 29.2455 6.26562Z" fill="#3C415E"/>
<path fill-rule="evenodd" clip-rule="evenodd" d="M31.3744 5.54297L31.3263 6.23422C30.98 6.34409 30.8844 6.40311 30.5411 6.52614L30.3174 5.90083C30.6672 5.77549 31.0194 5.65554 31.3744 5.54297Z" fill="#3C415E"/>
<path fill-rule="evenodd" clip-rule="evenodd" d="M22.1165 8.63455L22.0458 9.29485C21.9458 9.28675 21.8475 9.26625 21.7482 9.25215C21.6491 9.23665 21.3006 9.28075 21.204 9.25465L21.1615 9.12615C21.0659 9.09805 20.9715 9.06625 20.8765 9.03615L21.0868 8.40625C21.171 8.43275 21.2547 8.46125 21.3392 8.48635L21.5963 8.54785C21.6814 8.57145 21.7686 8.58335 21.8555 8.59675C21.9427 8.60885 22.0289 8.62785 22.1165 8.63455Z" fill="#3C415E"/>
<path fill-rule="evenodd" clip-rule="evenodd" d="M23.9908 8.45703L24.1756 9.09493L23.8882 9.17413C23.7916 9.19783 23.6924 9.21273 23.5946 9.23213L23.4474 9.25943L23.3737 9.27283L23.299 9.28043L22.9999 9.30993L22.9521 8.64753L23.2148 8.62163L23.2805 8.61533L23.0963 8.66153L23.4755 8.57883C23.562 8.56143 23.6494 8.54913 23.7351 8.52793L23.9908 8.45703Z" fill="#3C415E"/>
<path fill-rule="evenodd" clip-rule="evenodd" d="M25.8027 7.73828L25.8152 8.40698L24.7922 8.84138L24.7852 8.17038L25.8027 7.73828Z" fill="#3C415E"/>
<path fill-rule="evenodd" clip-rule="evenodd" d="M17.4277 5.53652L16.8995 5.93908C16.6677 5.63493 16.2007 5.37941 15.9971 5.05356L16.8102 4.64453C17.0015 4.95053 17.2083 5.24868 17.4277 5.53652Z" fill="#52298A"/>
<path fill-rule="evenodd" clip-rule="evenodd" d="M18.735 6.97239L18.2896 7.465C18.0011 7.2076 17.7342 6.93023 17.4785 6.64446L17.9747 6.20312C18.1932 6.44719 18.3255 6.6073 18.735 6.97239Z" fill="#3C415E"/>
<path fill-rule="evenodd" clip-rule="evenodd" d="M20.2983 8.07411L19.9943 8.66451C19.6464 8.47971 19.3118 8.27401 18.998 8.04321L19.391 7.50781C19.6114 7.66991 19.7922 7.80431 20.2983 8.07411Z" fill="#3C415E"/>
<path d="M17.5493 6.67615L17.4647 2.24589L5.61572 0.449219L16.0232 4.2964L17.5493 6.67615Z" fill="#F6AF00"/>
<path d="M13.3586 7.8302L16.0232 4.2964L5.61572 0.449219L13.3586 7.8302Z" fill="#FFD844"/>
<path d="M67.4634 46.3774C67.4634 70.1793 38.6797 94.8116 38.6797 94.8116C38.6797 94.8116 9.896 68.5187 9.896 46.3774C9.896 30.4806 22.7829 17.5938 38.6797 17.5938C54.5764 17.5938 67.4634 30.4805 67.4634 46.3774Z" fill="url(#paint0_radial_1935_5609)" fill-opacity="0.59"/>
<g filter="url(#filter1_dd_1935_5609)">
<path d="M47.7785 54.788C52.8044 49.7622 52.8044 41.6136 47.7785 36.5878C42.7526 31.5619 34.6041 31.5619 29.5783 36.5878C24.5524 41.6136 24.5524 49.7622 29.5783 54.788C34.6041 59.8139 42.7526 59.8139 47.7785 54.788Z" fill="black"/>
</g>
<path d="M34 46H39M39 46H44M39 46V51M39 46V41" stroke="white" stroke-width="1.5" stroke-linecap="round" stroke-linejoin="round"/>
<path d="M74.5485 75.9922L73.7757 82.7541L77.2533 92.9292H75.5145L71.4872 84.2643C71.3402 83.9482 71.2641 83.6038 71.2641 83.2553L70.9421 80.6289L70.2337 83.5912L70.6201 92.9292H69.0746L67.2072 82.749C67.1226 82.2878 67.1575 81.8127 67.3086 81.3688L69.139 75.9922H74.5485Z" fill="#9ABAE3"/>
<path d="M75.2564 75.9912H68.7521L69.4606 68.9072L66.6914 67.6836L68.4302 65.4297L72.8639 66.0442C74.0605 66.2101 74.9639 67.2132 75.0041 68.4205L75.2564 75.9912Z" fill="#EC644E"/>
<path d="M71.908 65.1054C71.908 65.1054 71.0063 64.6546 70.6843 64.2682C70.3623 63.8817 71.1351 62.0142 71.908 61.5634C72.6808 61.1126 73.9687 61.0482 73.9687 61.821C73.9687 62.5938 74.6127 63.8817 73.9687 64.2037C73.3247 64.5258 73.1315 65.1698 71.908 65.1054Z" fill="#B5846B"/>
<path d="M72.3589 61.9509C72.3589 61.9509 71.3285 60.6629 71.9725 59.375C71.9725 59.375 72.2301 60.019 73.0673 60.2122C73.9045 60.4054 74.8617 60.5904 75.1925 61.5002C75.7077 62.917 75.7384 64.5315 72.9386 64.9134C72.9386 64.9134 74.0978 63.883 73.8402 63.1746C73.5826 62.4661 72.8097 62.3373 72.3589 61.9509Z" fill="#3C415E"/>
<path d="M71.7791 61.5648L65.5323 57.25C65.5323 57.25 65.2103 58.9888 64.4375 59.3752L71.7791 61.5648Z" fill="#FFD200"/>
<path d="M65.2019 65.9203L65.7028 59.8467L65.7005 59.8457C65.702 59.836 65.7037 59.8269 65.7052 59.8174L65.7085 59.7775L65.7118 59.7788C65.8874 58.764 66.3091 58.5352 66.4981 58.5352C66.6913 58.5352 67.0133 58.7928 67.0777 59.1792C67.138 59.5409 66.7165 60.1661 66.6625 60.2445L66.6913 65.1039L68.4301 65.4259L66.8845 67.4222L66.0225 67.1348C65.5055 66.9626 65.1689 66.4643 65.2019 65.9203Z" fill="#B5846B"/>
<path d="M77.2531 92.9258H75.5143L73.7934 94.2746C73.5763 94.4448 73.6966 94.7934 73.9726 94.7934H76.9628C77.1232 94.7934 77.2531 94.6634 77.2531 94.5031V92.9258Z" fill="#3C415E"/>
<path d="M70.6202 92.9258H69.0747L67.1798 94.266C66.9487 94.4295 67.0644 94.7933 67.3475 94.7933H70.33C70.4904 94.7933 70.6203 94.6634 70.6203 94.503L70.6202 92.9258Z" fill="#3C415E"/>
<defs>
<filter id="filter0_dd_1935_5609" x="0.615234" y="90.1548" width="86.3499" height="9.4776" filterUnits="userSpaceOnUse" color-interpolation-filters="sRGB">
<feFlood flood-opacity="0" result="BackgroundImageFix"/>
<feColorMatrix in="SourceAlpha" type="matrix" values="0 0 0 0 0 0 0 0 0 0 0 0 0 0 0 0 0 0 127 0" result="hardAlpha"/>
<feOffset dy="1.63431"/>
<feComposite in2="hardAlpha" operator="out"/>
<feColorMatrix type="matrix" values="0 0 0 0 1 0 0 0 0 1 0 0 0 0 1 0 0 0 0.03 0"/>
<feBlend mode="normal" in2="BackgroundImageFix" result="effect1_dropShadow_1935_5609"/>
<feColorMatrix in="SourceAlpha" type="matrix" values="0 0 0 0 0 0 0 0 0 0 0 0 0 0 0 0 0 0 127 0" result="hardAlpha"/>
<feOffset dy="-1.63431"/>
<feComposite in2="hardAlpha" operator="out"/>
<feColorMatrix type="matrix" values="0 0 0 0 0 0 0 0 0 0 0 0 0 0 0 0 0 0 0.1 0"/>
<feBlend mode="normal" in2="effect1_dropShadow_1935_5609" result="effect2_dropShadow_1935_5609"/>
<feBlend mode="normal" in="SourceGraphic" in2="effect2_dropShadow_1935_5609" result="shape"/>
</filter>
<filter id="filter1_dd_1935_5609" x="25.8088" y="31.184" width="25.739" height="29.0069" filterUnits="userSpaceOnUse" color-interpolation-filters="sRGB">
<feFlood flood-opacity="0" result="BackgroundImageFix"/>
<feColorMatrix in="SourceAlpha" type="matrix" values="0 0 0 0 0 0 0 0 0 0 0 0 0 0 0 0 0 0 127 0" result="hardAlpha"/>
<feOffset dy="1.63431"/>
<feComposite in2="hardAlpha" operator="out"/>
<feColorMatrix type="matrix" values="0 0 0 0 1 0 0 0 0 1 0 0 0 0 1 0 0 0 0.03 0"/>
<feBlend mode="normal" in2="BackgroundImageFix" result="effect1_dropShadow_1935_5609"/>
<feColorMatrix in="SourceAlpha" type="matrix" values="0 0 0 0 0 0 0 0 0 0 0 0 0 0 0 0 0 0 127 0" result="hardAlpha"/>
<feOffset dy="-1.63431"/>
<feComposite in2="hardAlpha" operator="out"/>
<feColorMatrix type="matrix" values="0 0 0 0 0 0 0 0 0 0 0 0 0 0 0 0 0 0 0.1 0"/>
<feBlend mode="normal" in2="effect1_dropShadow_1935_5609" result="effect2_dropShadow_1935_5609"/>
<feBlend mode="normal" in="SourceGraphic" in2="effect2_dropShadow_1935_5609" result="shape"/>
</filter>
<radialGradient id="paint0_radial_1935_5609" cx="0" cy="0" r="1" gradientUnits="userSpaceOnUse" gradientTransform="translate(10.196 17.6132) scale(57.5674 80.0607)">
<stop offset="1" stop-color="#D2BAFF"/>
</radialGradient>
</defs>
</svg>
