<svg width="38" height="43" viewBox="0 0 38 43" fill="none" xmlns="http://www.w3.org/2000/svg">
<path d="M30.1532 32.0109C28.9058 28.9209 25.3512 26.5707 25.1679 26.4524C24.7701 26.1949 24.398 25.8222 24.0909 25.4023H13.3437C13.0366 25.8222 12.6651 26.1949 12.2673 26.4524C12.0687 26.5811 7.87287 29.3432 7 32.8299C7.72453 33.555 8.44845 34.2777 9.17299 35.0029H27.16C28.158 34.0062 29.1553 33.0076 30.1532 32.0109Z" fill="#D2BAFF"/>
<path d="M13.0398 25.7738C13.0478 25.8314 13.0711 25.8842 13.1103 25.9277L16.1414 29.3733C16.1984 29.4382 16.2812 29.4756 16.3664 29.4756C16.3725 29.4756 16.3774 29.4756 16.3836 29.4744C16.4749 29.4701 16.5601 29.4223 16.6122 29.3469L18.2114 27.0298C18.3022 26.8968 18.2727 26.716 18.1434 26.6197L16.5086 25.4023H13.3438C13.2488 25.5323 13.1452 25.6555 13.0398 25.7738Z" fill="#6C6960"/>
<path d="M20.8232 29.3475C20.8747 29.4229 20.9599 29.4707 21.0512 29.475C21.0573 29.4762 21.0628 29.4762 21.069 29.4762C21.1548 29.4762 21.2369 29.4395 21.2939 29.3739L24.3251 25.9283C24.3637 25.8848 24.387 25.832 24.3956 25.7744C24.2889 25.6567 24.1853 25.5329 24.0903 25.4023H20.9255L19.2913 26.6197C19.162 26.716 19.132 26.8968 19.2239 27.0298L20.8232 29.3475Z" fill="#6C6960"/>
<path d="M23.296 23.3703V22.0169L14.1394 22.0156V23.3703C14.1394 23.4604 14.1308 23.5567 14.1179 23.6523L18.2616 26.5413L18.2635 27.5968L19.1713 27.5846L19.1725 26.5094L23.3174 23.6523C23.3045 23.5567 23.296 23.461 23.296 23.3703Z" fill="#E6996F"/>
<path d="M19.9168 27.082C20.0112 27.082 20.1007 27.1274 20.1565 27.2028C20.2129 27.2788 20.2313 27.3769 20.2037 27.467L19.6692 29.2618C19.6312 29.3881 19.5147 29.4757 19.3823 29.4757H18.0515C17.9204 29.4757 17.8033 29.3887 17.7659 29.2618L17.2314 27.467C17.2044 27.3769 17.2222 27.2788 17.278 27.2028C17.3344 27.1274 17.4238 27.082 17.5182 27.082H19.9168Z" fill="#523C2F"/>
<path d="M20.2525 35.0007H17.1828C17.0964 35.0007 17.0136 34.962 16.9572 34.8971C16.8996 34.8321 16.8745 34.7445 16.8873 34.658L17.7559 30.1495C17.778 30.0036 17.9036 29.8945 18.0514 29.8945H19.3821C19.5311 29.8945 19.6567 30.0036 19.6788 30.1495L20.5474 34.658C20.5609 34.7445 20.5364 34.8315 20.4781 34.8971C20.4217 34.962 20.3384 35.0007 20.2525 35.0007Z" fill="#523C2F"/>
<path d="M16.3662 29.1362C16.2804 29.1362 16.1982 29.0988 16.1412 29.0344L13.1101 25.5889C13.0353 25.5049 13.0145 25.386 13.0568 25.2805L13.7703 23.4931C13.8046 23.4066 13.8763 23.3417 13.967 23.3165C14.0553 23.2902 14.1515 23.3086 14.2263 23.3643L18.1432 26.2803C18.2719 26.3759 18.302 26.5574 18.2113 26.6904L16.612 29.0075C16.5605 29.0835 16.4753 29.1313 16.3834 29.135C16.3772 29.1362 16.3723 29.1362 16.3662 29.1362Z" fill="#D2BAFF"/>
<path d="M21.0691 29.1362C21.0623 29.1362 21.0568 29.1362 21.0513 29.135C20.96 29.1313 20.8747 29.0835 20.8233 29.0075L19.2246 26.6904C19.1333 26.5574 19.1627 26.3759 19.2921 26.2803L23.2089 23.3643C23.2825 23.3086 23.38 23.2902 23.4682 23.3165C23.5583 23.3417 23.6301 23.4072 23.665 23.4931L24.3791 25.2805C24.4208 25.386 24.4 25.5049 24.3258 25.5889L21.2946 29.0344C21.237 29.0988 21.1549 29.1362 21.0691 29.1362Z" fill="#D2BAFF"/>
<path d="M18.7164 24.6049C15.9703 24.6049 13.4798 22.5875 12.1852 19.3289C11.3527 19.0659 10.1415 18.0098 9.96743 17.1988C9.75534 16.2113 10.2451 15.2648 11.0585 15.0901C11.1437 15.0711 11.2295 15.0619 11.3154 15.0619C11.3092 14.9118 11.3055 14.7591 11.3055 14.6065C11.3055 7.98874 15.9494 7 18.717 7C21.4858 7 26.1297 7.98874 26.1297 14.6065C26.1297 14.7591 26.1248 14.9118 26.1186 15.0619C26.2051 15.0619 26.2915 15.0711 26.3749 15.0901C27.1883 15.2636 27.6787 16.2113 27.4672 17.1988C27.2925 18.0079 26.0812 19.0659 25.2482 19.3289C23.9536 22.5875 21.4631 24.6049 18.7164 24.6049Z" fill="#FECEA0"/>
<path d="M11.607 14.9863C11.5978 14.9863 11.588 14.9844 11.5776 14.9832C11.4243 14.9691 11.3079 14.841 11.3079 14.6859L11.3054 14.6062C11.3054 9.64105 13.9731 7.89711 16.2117 7.30803L16.3716 7.26695C16.5016 7.23508 16.6334 7.20689 16.767 7.18053C16.8577 7.16337 16.9509 7.14743 17.0435 7.13272C17.1562 7.11433 17.2684 7.09656 17.383 7.08368C17.5099 7.06652 17.6405 7.05426 17.7723 7.04384L17.8544 7.03525C17.9145 7.02974 17.9752 7.02483 18.0359 7.02115C18.4815 6.99295 18.9492 6.99295 19.4009 7.02115C19.458 7.02544 19.5174 7.03035 19.5775 7.03525L19.6633 7.04384C19.7945 7.0561 19.9244 7.06591 20.0525 7.08368C20.1653 7.09656 20.2799 7.11433 20.3915 7.13272C20.4841 7.14743 20.5748 7.16337 20.6661 7.18053C20.7991 7.20689 20.9322 7.23509 21.0621 7.26574L21.2239 7.30925C21.957 7.50173 22.6258 7.79106 23.2075 8.16621C25.1445 9.42098 26.1289 11.5867 26.1289 14.6062C26.1289 14.7607 26.0094 14.9299 25.8568 14.9464C25.7084 14.9599 25.5632 14.8986 25.5337 14.7472C25.196 13.0284 24.1926 11.4782 22.7619 10.4496C21.9485 11.9042 20.397 12.8255 18.7163 12.8255C17.0367 12.8255 15.4853 11.9042 14.6706 10.4496C13.2406 11.4782 12.2378 13.0272 11.8994 14.7447C11.8724 14.8851 11.7486 14.9863 11.607 14.9863Z" fill="#030D14"/>
<path d="M18.9997 0C8.50622 0 0 8.50698 0 19C0 29.4937 8.50622 38 18.9997 38C29.4938 38 38 29.4937 38 19C38 8.50698 29.4932 0 18.9997 0ZM18.9997 34.2909C10.5554 34.2909 3.70971 27.4445 3.70971 19.0006C3.70971 10.5556 10.5548 3.711 18.9997 3.711C27.4446 3.711 34.2903 10.5556 34.2903 19.0006C34.2903 27.4445 27.444 34.2909 18.9997 34.2909Z" fill="#FF7D7D"/>
<path d="M37.5404 34.2704C37.5404 38.8371 33.8387 42.5401 29.2702 42.5401C24.703 42.5401 21 38.8371 21 34.2704C21 29.703 24.703 26 29.2702 26C33.8387 26 37.5404 29.703 37.5404 34.2704Z" fill="#FF7D7D"/>
<path d="M35.8766 35.8458C36.739 32.1933 34.4773 28.5332 30.8248 27.6707C27.1724 26.8083 23.5124 29.07 22.65 32.7225C21.7875 36.375 24.0493 40.0351 27.7017 40.8976C31.3541 41.76 35.0141 39.4982 35.8766 35.8458Z" fill="#F6F6F6"/>
<path d="M29.2941 37H32.7941M31.7647 32.8824L33 31.6471L31.3529 30L30.1176 31.2353M31.7647 32.8824L27.6471 37H26V35.3529L30.1176 31.2353M31.7647 32.8824L30.1176 31.2353" stroke="black" stroke-linecap="round" stroke-linejoin="round"/>
</svg>
