<svg width="20" height="20" viewBox="0 0 20 20" fill="none" xmlns="http://www.w3.org/2000/svg">
<path fill-rule="evenodd" clip-rule="evenodd" d="M7.72202 0.225304C8.07093 0.545176 8.09459 1.08738 7.7747 1.43634L2.80563 6.8571H19.1428C19.6161 6.8571 19.9999 7.24086 19.9999 7.71424C19.9999 8.1876 19.6161 8.57137 19.1428 8.57137H0.857164C0.517246 8.57137 0.209453 8.37046 0.0725737 8.05938C-0.0642941 7.74829 -0.00437436 7.38562 0.225316 7.13505L6.511 0.277955C6.83087 -0.0710025 7.37307 -0.0945796 7.72202 0.225304Z" fill="black"/>
<path fill-rule="evenodd" clip-rule="evenodd" d="M19.9273 11.9417C19.7905 11.6306 19.4826 11.4297 19.1427 11.4297H0.857138C0.383758 11.4297 0 11.8135 0 12.2868C0 12.7602 0.383758 13.144 0.857138 13.144H17.1943L12.2253 18.5647C11.9054 18.9136 11.929 19.4559 12.2779 19.7758C12.6269 20.0957 13.1691 20.072 13.4889 19.7231L19.7746 12.866C20.0043 12.6155 20.0642 12.2529 19.9273 11.9417Z" fill="black"/>
</svg>
