<svg width="13" height="18" viewBox="0 0 13 18" fill="none" xmlns="http://www.w3.org/2000/svg">
<rect width="13" height="18" fill="#A2A0A0"/>
<g id="Profile">
<rect width="9676" height="8316" transform="translate(-189 -939)" fill="#DBD9D9"/>
<g id="Profile_2">
<g clip-path="url(#clip0_2388_2127)">
<rect x="-25" y="-664" width="393" height="1114" rx="5" fill="white"/>
<g id="Group 1707486133">
<g id="Depth 4, Frame 4">
<rect x="-9" y="-7" width="32" height="32" rx="16" fill="#F5F0E6"/>
<g id="Depth 5, Frame 0">
<g id="Page-1">
<g id="Icon-Set">
<path id="location" fill-rule="evenodd" clip-rule="evenodd" d="M6.5 8.125C5.60246 8.125 4.875 7.39754 4.875 6.5C4.875 5.60246 5.60246 4.875 6.5 4.875C7.39754 4.875 8.125 5.60246 8.125 6.5C8.125 7.39754 7.39754 8.125 6.5 8.125ZM6.5 3.79167C5.00446 3.79167 3.79167 5.00392 3.79167 6.5C3.79167 7.99608 5.00446 9.20833 6.5 9.20833C7.99554 9.20833 9.20833 7.99608 9.20833 6.5C9.20833 5.00392 7.99554 3.79167 6.5 3.79167ZM6.5 15.7083C5.59921 15.7132 1.08333 8.76471 1.08333 6.5C1.08333 3.50892 3.50838 1.08333 6.5 1.08333C9.49162 1.08333 11.9167 3.50892 11.9167 6.5C11.9167 8.73438 7.38671 15.7132 6.5 15.7083ZM6.5 0C2.91038 0 0 2.91038 0 6.5C0 9.21808 5.41938 17.3393 6.5 17.3333C7.56383 17.3393 13 9.18125 13 6.5C13 2.91038 10.0896 0 6.5 0Z" fill="black"/>
</g>
</g>
</g>
</g>
</g>
</g>
</g>
</g>
<defs>
<clipPath id="clip0_2388_2127">
<rect x="-25" y="-664" width="393" height="1114" rx="5" fill="white"/>
</clipPath>
</defs>
</svg>
