<svg width="60" height="67" viewBox="0 0 60 67" fill="none" xmlns="http://www.w3.org/2000/svg">
<g clip-path="url(#clip0_4719_470)">
<path d="M47.0344 45.6257C45.0002 45.6257 43.351 43.9765 43.351 41.9422V20.4866C43.351 13.2545 37.4665 7.37005 30.2344 7.37005C23.0023 7.37005 17.1178 13.2545 17.1178 20.4866V32.9679C17.1178 35.0021 15.4686 36.6513 13.4344 36.6513C11.4002 36.6513 9.75098 35.0021 9.75098 32.9679V20.4866C9.75098 9.18931 18.9403 0 30.2376 0C41.5317 0 50.721 9.18931 50.721 20.4866V41.9422C50.7178 43.9765 49.0686 45.6257 47.0344 45.6257Z" fill="#A0A7B1"/>
<path d="M52.4182 66.2952H7.57861C3.39144 66.2952 0 62.9005 0 58.7166V32.7914C0 28.6043 3.39465 25.2128 7.57861 25.2128H52.4182C56.6053 25.2128 60 28.6075 60 32.7914V58.7166C59.9968 62.9005 56.6021 66.2952 52.4182 66.2952Z" fill="#FFC83D"/>
<path d="M26.1975 45.8214L22.6745 54.0866H35.0788L31.8125 45.693C33.1023 45.0963 34.129 44.1273 34.7226 42.9401C35.3162 41.7529 35.4445 40.4214 35.0884 39.1636C34.729 37.9027 33.9044 36.7893 32.7494 36.0032C31.5943 35.2171 30.1729 34.8064 28.7226 34.8353C27.2723 34.8642 25.8734 35.3358 24.76 36.1701C23.6467 37.0043 22.8798 38.1497 22.5879 39.4235C22.2959 40.6973 22.4916 42.0225 23.1494 43.184C23.8039 44.3455 24.8788 45.2695 26.2007 45.8118V45.8214H26.1975Z" fill="#36464E"/>
</g>
<defs>
<clipPath id="clip0_4719_470">
<rect width="60" height="66.2952" fill="white"/>
</clipPath>
</defs>
</svg>
