<svg width="131" height="90" viewBox="0 0 131 90" fill="none" xmlns="http://www.w3.org/2000/svg">
<path d="M131 46.5C131 24.75 81.875 3 49.125 3C24.5625 3 -3.8147e-06 17.5 -3.8147e-06 46.5C-3.8147e-06 75.5 24.5625 90 49.125 90C81.875 90 131 68.25 131 46.5Z" fill="#16181D"/>
<mask id="mask0_14_35334" style="mask-type:alpha" maskUnits="userSpaceOnUse" x="0" y="3" width="131" height="87">
<path d="M131 46.5C131 24.75 81.875 3 49.125 3C24.5625 3 -3.8147e-06 17.5 -3.8147e-06 46.5C-3.8147e-06 75.5 24.5625 90 49.125 90C81.875 90 131 68.25 131 46.5Z" fill="#1E232A"/>
</mask>
<g mask="url(#mask0_14_35334)">
<path d="M50.2011 47.9994C50.2011 47.9994 0.406449 47.9994 -1.96141 47.9994C-4.32927 47.9994 -6.62748 45.9798 -6.97574 42.4278C-7.324 38.8759 -3.8417 36.8563 -1.75245 37.8314C-1.75245 37.8314 -2.65793 34.2101 1.24228 35.2546C1.24228 35.2546 -0.77733 28.4296 5.83868 25.017C12.4547 21.6044 17.1904 27.5938 18.0262 31.0062C18.0262 31.0062 21.021 29.6134 21.9261 32.8168C21.9261 32.8168 23.7368 28.5686 28.1242 29.2649C32.5117 29.9614 33.4868 34.0282 32.9993 35.9993C32.9993 35.9993 36.4815 34.2792 37.3867 37.8311C37.3867 37.8311 41.3977 36.2991 43.1181 40.0597C43.1181 40.0597 46.3218 37.9032 49.2957 40.2686C52.36 42.7068 51.6071 47.0942 50.2011 47.9994Z" fill="#24242C"/>
<path d="M7.73617 25.3536C14.3289 23.6532 17.5286 32.0859 17.5286 32.0859C19.6242 30.0976 21.9261 32.8168 21.9261 32.8168C21.0207 29.6132 18.0262 31.0062 18.0262 31.0062C17.1904 27.5936 12.4547 21.6044 5.83868 25.017C-0.77733 28.4297 1.24228 35.2547 1.24228 35.2547C-2.65762 34.2099 -1.75245 37.8315 -1.75245 37.8315C-3.8417 36.8563 -7.324 38.8762 -6.97574 42.4279C-6.62748 45.9795 -4.32927 47.9994 -1.96141 47.9994C0.406449 47.9994 50.2011 47.9994 50.2011 47.9994C51.5377 47.1387 52.2815 43.1333 49.7203 40.6458C51.2244 43.2229 50.0124 47.2919 48.6442 47.2919C47.0321 47.2919 0.315008 47.1225 -2.21056 47.1225C-4.73614 47.1225 -6.6913 44.1247 -5.68457 41.1358C-4.63795 38.0278 -0.256934 38.953 -0.256934 38.953C-0.256934 38.953 -1.27195 37.2856 -0.788374 36.2648C-0.304799 35.2436 2.57763 36.1736 2.57763 36.1736C1.77157 33.9696 0.978396 27.0968 7.73617 25.3536Z" fill="#24242C"/>
<path d="M138.201 69.9994C138.201 69.9994 88.4064 69.9994 86.0386 69.9994C83.6707 69.9994 81.3725 67.9798 81.0243 64.4278C80.676 60.8759 84.1583 58.8563 86.2475 59.8314C86.2475 59.8314 85.3421 56.2101 89.2423 57.2546C89.2423 57.2546 87.2227 50.4296 93.8387 47.017C100.455 43.6044 105.19 49.5938 106.026 53.0062C106.026 53.0062 109.021 51.6134 109.926 54.8168C109.926 54.8168 111.737 50.5686 116.124 51.2649C120.512 51.9614 121.487 56.0282 120.999 57.9993C120.999 57.9993 124.482 56.2792 125.387 59.8311C125.387 59.8311 129.398 58.2991 131.118 62.0597C131.118 62.0597 134.322 59.9032 137.296 62.2686C140.36 64.7068 139.607 69.0942 138.201 69.9994Z" fill="#24242C"/>
<path d="M95.7362 47.3536C102.329 45.6532 105.529 54.0859 105.529 54.0859C107.624 52.0976 109.926 54.8168 109.926 54.8168C109.021 51.6132 106.026 53.0062 106.026 53.0062C105.19 49.5936 100.455 43.6044 93.8387 47.017C87.2227 50.4297 89.2423 57.2547 89.2423 57.2547C85.3424 56.2099 86.2475 59.8315 86.2475 59.8315C84.1583 58.8563 80.676 60.8762 81.0243 64.4279C81.3725 67.9795 83.6707 69.9994 86.0386 69.9994C88.4064 69.9994 138.201 69.9994 138.201 69.9994C139.538 69.1387 140.281 65.1333 137.72 62.6458C139.224 65.2229 138.012 69.2919 136.644 69.2919C135.032 69.2919 88.315 69.1225 85.7894 69.1225C83.2639 69.1225 81.3087 66.1247 82.3154 63.1358C83.3621 60.0278 87.7431 60.953 87.7431 60.953C87.7431 60.953 86.7281 59.2856 87.2116 58.2648C87.6952 57.2436 90.5776 58.1736 90.5776 58.1736C89.7716 55.9696 88.9784 49.0968 95.7362 47.3536Z" fill="#1E232A"/>
<path d="M47.1619 83.4308C47.1619 83.4308 13.0707 83.4308 11.4496 83.4308C9.82848 83.4308 8.25504 82.0481 8.01661 79.6164C7.77818 77.1846 10.1623 75.8019 11.5927 76.4695C11.5927 76.4695 10.9727 73.9902 13.643 74.7053C13.643 74.7053 12.2603 70.0327 16.7898 67.6963C21.3194 65.3599 24.5616 69.4605 25.1339 71.7967C25.1339 71.7967 27.1842 70.8432 27.8039 73.0363C27.8039 73.0363 29.0435 70.1279 32.0473 70.6045C35.0511 71.0814 35.7187 73.8657 35.3849 75.2152C35.3849 75.2152 37.769 74.0375 38.3887 76.4693C38.3887 76.4693 41.1348 75.4204 42.3126 77.995C42.3126 77.995 44.506 76.5186 46.542 78.1381C48.64 79.8073 48.1245 82.8111 47.1619 83.4308Z" fill="#24242C"/>
<path d="M18.0889 67.9268C22.6025 66.7625 24.7931 72.5359 24.7931 72.5359C26.2279 71.1747 27.8039 73.0363 27.8039 73.0363C27.1839 70.843 25.1339 71.7967 25.1339 71.7967C24.5616 69.4603 21.3194 65.3599 16.7898 67.6963C12.2603 70.0327 13.643 74.7053 13.643 74.7053C10.9729 73.99 11.5927 76.4695 11.5927 76.4695C10.1623 75.8019 7.77818 77.1848 8.01661 79.6164C8.25504 82.048 9.82848 83.4309 11.4496 83.4309C13.0707 83.4309 47.1619 83.4309 47.1619 83.4309C48.077 82.8416 48.5862 80.0993 46.8327 78.3963C47.8625 80.1607 47.0327 82.9464 46.096 82.9464C44.9923 82.9464 13.0081 82.8305 11.279 82.8305C9.54992 82.8305 8.21135 80.7781 8.90059 78.7318C9.61715 76.604 12.6165 77.2373 12.6165 77.2373C12.6165 77.2373 11.9216 76.0958 12.2527 75.3969C12.5838 74.6978 14.5572 75.3345 14.5572 75.3345C14.0053 73.8256 13.4623 69.1202 18.0889 67.9268Z" fill="#1E232A"/>
</g>
<path d="M61.6495 3.625L91.9604 56.125C92.2491 56.625 91.8882 57.25 91.3109 57.25H30.6891C30.1118 57.25 29.7509 56.625 30.0396 56.125L60.3505 3.625C60.6392 3.125 61.3608 3.125 61.6495 3.625Z" fill="#FF9176" stroke="#32363E" stroke-width="2.5"/>
<path d="M61.0156 22.2852V39.4193" stroke="black" stroke-width="3" stroke-linecap="round" stroke-linejoin="round"/>
<path d="M61 47.3672H61.031" stroke="black" stroke-width="3" stroke-linecap="round" stroke-linejoin="round"/>
<path d="M58.5 58H64.5L65 88.5L58 89.5L58.5 58Z" fill="#32363E"/>
</svg>
