<svg width="50" height="50" viewBox="0 0 50 50" fill="none" xmlns="http://www.w3.org/2000/svg">
<path d="M27.9833 16H16.7355C15.7785 16 15 16.7782 15 17.7351C15 18.692 15.7785 19.4706 16.7355 19.4706H28.8529V16.8695C28.8529 16.3902 28.4629 16 27.9833 16Z" fill="#33FFCC"/>
<path d="M33.6526 24.1907V22.3248C33.6526 21.2304 32.7621 20.3397 31.6672 20.3397H29.7224H29.2876H16.7355C16.0685 20.3397 15.4613 20.0856 15 19.6719V32.369C15 33.4635 15.8905 34.3542 16.9854 34.3542H31.6672C32.7621 34.3542 33.6526 33.4635 33.6526 32.369V30.5452H28.9452L27.263 27.3679L28.9452 24.1907H33.6526ZM24.3263 32.4701H16.6726V31.6006H24.3263V32.4701Z" fill="#33FFCC"/>
<path d="M34.9538 25.0625H29.472L28.25 27.3703L29.472 29.6781H34.9538C34.9811 29.6781 35.0031 29.656 35.0031 29.6289V25.1118C35.0031 25.0846 34.9811 25.0625 34.9538 25.0625ZM31.2141 28.4241C30.6321 28.4241 30.1602 27.9523 30.1602 27.3703C30.1602 26.7883 30.6321 26.3165 31.2141 26.3165C31.7962 26.3165 32.2681 26.7883 32.2681 27.3703C32.2681 27.9523 31.7962 28.4241 31.2141 28.4241Z" fill="#33FFCC"/>
<rect x="0.5" y="0.5" width="49" height="49" rx="24.5" stroke="#33FFCC"/>
</svg>
