<?xml version="1.0" encoding="utf-8"?>
<!-- Generator: Adobe Illustrator 17.0.0, SVG Export Plug-In . SVG Version: 6.00 Build 0)  -->
<!DOCTYPE svg PUBLIC "-//W3C//DTD SVG 1.1//EN" "http://www.w3.org/Graphics/SVG/1.1/DTD/svg11.dtd">
<svg version="1.1" id="Layer_1" xmlns="http://www.w3.org/2000/svg" xmlns:xlink="http://www.w3.org/1999/xlink" x="0px" y="0px"
	 width="50px" height="50px" viewBox="0 0 50 50" enable-background="new 0 0 50 50" xml:space="preserve">
<path fill="none" stroke="#33FFCC" d="M25,0.5L25,0.5c13.531,0,24.5,10.969,24.5,24.5l0,0c0,13.531-10.969,24.5-24.5,24.5l0,0
	C11.469,49.5,0.5,38.531,0.5,25l0,0C0.5,11.469,11.469,0.5,25,0.5z"/>
<path fill="#33FFCC" stroke="#33FFCC" stroke-width="0.5" d="M24.01,24.602c0.949,0.001,1.879-0.279,2.669-0.806
	c0.79-0.527,1.406-1.276,1.771-2.153c0.364-0.877,0.461-1.843,0.276-2.775c-0.185-0.932-0.641-1.788-1.312-2.459
	c-0.671-0.672-1.526-1.13-2.458-1.316c-0.932-0.186-1.897-0.091-2.775,0.272c-0.877,0.363-1.628,0.978-2.156,1.768
	c-0.528,0.79-0.81,1.718-0.81,2.668c0,1.273,0.505,2.492,1.404,3.392C21.518,24.094,22.738,24.601,24.01,24.602z M24.01,16.282
	c0.696-0.001,1.375,0.204,1.955,0.59c0.578,0.385,1.03,0.934,1.297,1.576c0.266,0.642,0.337,1.35,0.201,2.031
	c-0.135,0.682-0.47,1.309-0.962,1.801c-0.492,0.492-1.118,0.827-1.801,0.962c-0.682,0.135-1.389,0.065-2.031-0.201
	c-0.642-0.266-1.191-0.718-1.576-1.297c-0.385-0.578-0.591-1.259-0.59-1.955c0.001-0.93,0.372-1.821,1.03-2.478
	C22.19,16.654,23.081,16.283,24.01,16.282z"/>
<path fill="#33FFCC" stroke="#33FFCC" stroke-width="0.5" d="M16.287,34.186v-3.938c0.993-1.042,2.193-1.867,3.523-2.421
	c1.33-0.554,2.76-0.825,4.2-0.797c1.971-0.027,3.911,0.492,5.605,1.5l0.869-0.972c-1.937-1.22-4.185-1.857-6.474-1.835
	c-1.675-0.043-3.339,0.285-4.872,0.959c-1.535,0.674-2.9,1.679-4.002,2.941c-0.086,0.111-0.134,0.247-0.135,0.386v4.177
	c-0.008,0.35,0.122,0.69,0.363,0.945s0.573,0.403,0.924,0.413h7.974l-1.223-1.287L16.287,34.186z"/>
<path fill="#33FFCC" stroke="#33FFCC" stroke-width="0.5" d="M31.732,34.186v0.071h-2.027l-1.159,1.287h3.185
	c0.346-0.01,0.675-0.155,0.914-0.404c0.241-0.249,0.375-0.582,0.372-0.928v-3.688l-1.287,1.436V34.186z"/>
<path fill="#33FFCC" stroke="#33FFCC" stroke-width="0.5" d="M34.797,25.645c-0.127-0.113-0.294-0.171-0.464-0.162
	c-0.17,0.009-0.329,0.086-0.443,0.213l-7.478,8.366l-3.347-3.597c-0.055-0.064-0.122-0.118-0.198-0.155
	c-0.076-0.038-0.157-0.062-0.242-0.068c-0.084-0.007-0.169,0.003-0.249,0.03c-0.08,0.027-0.155,0.067-0.219,0.123
	c-0.063,0.057-0.114,0.127-0.15,0.204c-0.036,0.077-0.056,0.161-0.06,0.246c-0.003,0.085,0.009,0.17,0.039,0.25
	c0.029,0.08,0.074,0.152,0.133,0.215l4.306,4.634l8.424-9.408c0.107-0.126,0.162-0.288,0.153-0.455
	C34.991,25.915,34.918,25.758,34.797,25.645z"/>
</svg>
