<?xml version="1.0" encoding="utf-8"?>
<!-- Generator: Adobe Illustrator 17.0.0, SVG Export Plug-In . SVG Version: 6.00 Build 0)  -->
<!DOCTYPE svg PUBLIC "-//W3C//DTD SVG 1.1//EN" "http://www.w3.org/Graphics/SVG/1.1/DTD/svg11.dtd">
<svg version="1.1" id="Layer_1" xmlns="http://www.w3.org/2000/svg" xmlns:xlink="http://www.w3.org/1999/xlink" x="0px" y="0px"
	 width="50px" height="50px" viewBox="0 0 50 50" enable-background="new 0 0 50 50" xml:space="preserve">
<path fill="none" stroke="#33FFCC" d="M49.5,25c0,13.531-10.969,24.5-24.5,24.5S0.5,38.531,0.5,25S11.469,0.5,25,0.5
	S49.5,11.469,49.5,25z"/>
<defs>
	<filter id="Adobe_OpacityMaskFilter" filterUnits="userSpaceOnUse" x="14" y="14" width="22.47" height="22">
		<feColorMatrix  type="matrix" values="1 0 0 0 0  0 1 0 0 0  0 0 1 0 0  0 0 0 1 0"/>
	</filter>
</defs>
<mask maskUnits="userSpaceOnUse" x="14" y="14" width="22.47" height="22" id="path-2-inside-1_12041_3020">
	<path fill="#FFFFFF" filter="url(#Adobe_OpacityMaskFilter)" d="M20.275,32.35c0.731,0,1.326,0.594,1.326,1.324
		c0,0.731-0.595,1.325-1.326,1.325c-0.731,0-1.324-0.595-1.324-1.325C18.95,32.944,19.544,32.35,20.275,32.35z M31.82,32.35
		c0.732,0,1.326,0.594,1.326,1.324c0,0.731-0.595,1.325-1.326,1.325c-0.731,0-1.324-0.595-1.324-1.325
		C30.496,32.944,31.089,32.35,31.82,32.35z M15.899,15.01l2.129,0.368c0.343,0.06,0.604,0.345,0.634,0.693l0.241,2.867l0.894,0
		c0.146,0,0.29,0,0.433,0l1.642,0.001c0.131,0,0.26,0,0.388,0l1.813,0.001c0.114,0,0.226,0,0.338,0l1.271,0.001
		c0.101,0,0.2,0,0.298,0l1.118,0.001c0.088,0,0.175,0,0.261,0l0.974,0.001c0.077,0,0.152,0,0.227,0l0.64,0.001
		c0.068,0,0.135,0,0.201,0l0.742,0.001c0.058,0,0.115,0,0.171,0l0.626,0.001c0.049,0,0.096,0,0.143,0l0.398,0.001
		c0.042,0,0.083,0,0.123,0l0.443,0.001c0.034,0,0.067,0,0.099,0l0.273,0.001c0.028,0,0.056,0,0.083,0l0.293,0.001
		c0.022,0,0.043,0,0.064,0l0.172,0.001c0.017,0,0.034,0,0.051,0l0.174,0.001c0.013,0,0.025,0,0.036,0l0.095,0.001
		c0.009,0,0.018,0,0.027,0l0.068,0.001c0.007,0,0.013,0,0.019,0l0.046,0.001c0.004,0,0.009,0,0.012,0l0.029,0.001
		c0.003,0,0.005,0,0.007,0l0.021,0.001l0.004,0c0.01,0.001,0.013,0.001,0.013,0.001c0.57,0.083,1.072,0.381,1.414,0.839
		c0.342,0.458,0.485,1.022,0.403,1.587l-0.971,6.712c-0.183,1.277-1.293,2.241-2.582,2.241H20.716c-1.348,0-2.489-1.052-2.599-2.398
		L17.18,16.79l-1.542-0.266c-0.419-0.074-0.698-0.47-0.626-0.888C15.085,15.217,15.489,14.944,15.899,15.01z M19.591,20.473l-0.56,0
		l0.617,7.34c0.045,0.565,0.507,0.989,1.071,0.989h11.174c0.533,0,0.989-0.397,1.064-0.924l0.972-6.713
		c0.022-0.16-0.017-0.319-0.115-0.448c-0.096-0.13-0.237-0.214-0.397-0.236c-0.007,0-0.025,0-0.052,0.001l-0.111,0.001
		c-0.023,0-0.049,0-0.077,0l-0.58,0.001c-0.049,0-0.1,0-0.153,0H31.08c-0.076,0-0.154,0-0.233,0l-1.556-0.001
		c-0.093,0-0.188,0-0.283,0l-0.88-0.001c-0.1,0-0.201,0-0.303,0l-0.933-0.001c-0.105,0-0.211,0-0.317,0l-0.642-0.001
		c-0.108,0-0.216,0-0.324,0l-0.98-0.001c-0.109,0-0.219,0-0.328,0l-0.656-0.001c-0.109,0-0.218,0-0.327,0l-0.65,0
		c-0.108,0-0.215,0-0.322,0l-0.952-0.001c-0.104,0-0.208,0-0.311,0l-1.204-0.001C19.782,20.474,19.686,20.473,19.591,20.473z
		 M30.248,22.721c0.424,0,0.768,0.344,0.768,0.768c0,0.424-0.344,0.768-0.768,0.768h-2.837c-0.425,0-0.768-0.344-0.768-0.768
		c0-0.424,0.343-0.768,0.768-0.768H30.248z"/>
</mask>
<path mask="url(#path-2-inside-1_12041_3020)" fill="#FF9E4C" stroke="#33FFCC" stroke-width="2" d="M20.275,32.35
	c0.731,0,1.326,0.594,1.326,1.324c0,0.731-0.595,1.325-1.326,1.325c-0.731,0-1.324-0.595-1.324-1.325
	C18.95,32.944,19.544,32.35,20.275,32.35z M31.82,32.35c0.732,0,1.326,0.594,1.326,1.324c0,0.731-0.595,1.325-1.326,1.325
	c-0.731,0-1.324-0.595-1.324-1.325C30.496,32.944,31.089,32.35,31.82,32.35z M15.899,15.01l2.129,0.368
	c0.343,0.06,0.604,0.345,0.634,0.693l0.241,2.867l0.894,0c0.146,0,0.29,0,0.433,0l1.642,0.001c0.131,0,0.26,0,0.388,0l1.813,0.001
	c0.114,0,0.226,0,0.338,0l1.271,0.001c0.101,0,0.2,0,0.298,0l1.118,0.001c0.088,0,0.175,0,0.261,0l0.974,0.001
	c0.077,0,0.152,0,0.227,0l0.64,0.001c0.068,0,0.135,0,0.201,0l0.742,0.001c0.058,0,0.115,0,0.171,0l0.626,0.001
	c0.049,0,0.096,0,0.143,0l0.398,0.001c0.042,0,0.083,0,0.123,0l0.443,0.001c0.034,0,0.067,0,0.099,0l0.273,0.001
	c0.028,0,0.056,0,0.083,0l0.293,0.001c0.022,0,0.043,0,0.064,0l0.172,0.001c0.017,0,0.034,0,0.051,0l0.174,0.001
	c0.013,0,0.025,0,0.036,0l0.095,0.001c0.009,0,0.018,0,0.027,0l0.068,0.001c0.007,0,0.013,0,0.019,0l0.046,0.001
	c0.004,0,0.009,0,0.012,0l0.029,0.001c0.003,0,0.005,0,0.007,0l0.021,0.001l0.004,0c0.01,0.001,0.013,0.001,0.013,0.001
	c0.57,0.083,1.072,0.381,1.414,0.839c0.342,0.458,0.485,1.022,0.403,1.587l-0.971,6.712c-0.183,1.277-1.293,2.241-2.582,2.241
	H20.716c-1.348,0-2.489-1.052-2.599-2.398L17.18,16.79l-1.542-0.266c-0.419-0.074-0.698-0.47-0.626-0.888
	C15.085,15.217,15.489,14.944,15.899,15.01z M19.591,20.473l-0.56,0l0.617,7.34c0.045,0.565,0.507,0.989,1.071,0.989h11.174
	c0.533,0,0.989-0.397,1.064-0.924l0.972-6.713c0.022-0.16-0.017-0.319-0.115-0.448c-0.096-0.13-0.237-0.214-0.397-0.236
	c-0.007,0-0.025,0-0.052,0.001l-0.111,0.001c-0.023,0-0.049,0-0.077,0l-0.58,0.001c-0.049,0-0.1,0-0.153,0H31.08
	c-0.076,0-0.154,0-0.233,0l-1.556-0.001c-0.093,0-0.188,0-0.283,0l-0.88-0.001c-0.1,0-0.201,0-0.303,0l-0.933-0.001
	c-0.105,0-0.211,0-0.317,0l-0.642-0.001c-0.108,0-0.216,0-0.324,0l-0.98-0.001c-0.109,0-0.219,0-0.328,0l-0.656-0.001
	c-0.109,0-0.218,0-0.327,0l-0.65,0c-0.108,0-0.215,0-0.322,0l-0.952-0.001c-0.104,0-0.208,0-0.311,0l-1.204-0.001
	C19.782,20.474,19.686,20.473,19.591,20.473z M30.248,22.721c0.424,0,0.768,0.344,0.768,0.768c0,0.424-0.344,0.768-0.768,0.768
	h-2.837c-0.425,0-0.768-0.344-0.768-0.768c0-0.424,0.343-0.768,0.768-0.768H30.248z"/>
</svg>
