<?xml version="1.0" encoding="utf-8"?>
<!-- Generator: Adobe Illustrator 17.0.0, SVG Export Plug-In . SVG Version: 6.00 Build 0)  -->
<!DOCTYPE svg PUBLIC "-//W3C//DTD SVG 1.1//EN" "http://www.w3.org/Graphics/SVG/1.1/DTD/svg11.dtd">
<svg version="1.1" id="Layer_1" xmlns="http://www.w3.org/2000/svg" xmlns:xlink="http://www.w3.org/1999/xlink" x="0px" y="0px"
	 width="50px" height="50px" viewBox="0 0 50 50" enable-background="new 0 0 50 50" xml:space="preserve">
<path fill="none" stroke="#33FFCC" d="M25,0.5L25,0.5c13.531,0,24.5,10.969,24.5,24.5l0,0c0,13.531-10.969,24.5-24.5,24.5l0,0
	C11.469,49.5,0.5,38.531,0.5,25l0,0C0.5,11.469,11.469,0.5,25,0.5z"/>
<path fill="#33FFCC" d="M27.8,21l1.2,1.2L22.2,29L21,27.8L27.8,21z M17,17h16c1.11,0,2,0.89,2,2v4c-0.53,0-1.039,0.211-1.414,0.586
	C33.211,23.961,33,24.47,33,25s0.211,1.039,0.586,1.414C33.961,26.789,34.47,27,35,27v4c0,1.11-0.89,2-2,2H17
	c-0.53,0-1.039-0.211-1.414-0.586S15,31.53,15,31v-4c1.11,0,2-0.89,2-2c0-0.53-0.211-1.039-0.586-1.414
	C16.039,23.211,15.53,23,15,23v-4c0-0.53,0.211-1.039,0.586-1.414C15.961,17.211,16.47,17,17,17z M17,19v2.54
	c0.608,0.35,1.112,0.855,1.463,1.462c0.351,0.607,0.536,1.296,0.536,1.998s-0.185,1.391-0.536,1.998
	C18.112,27.605,17.608,28.11,17,28.46V31h16v-2.54c-0.608-0.35-1.112-0.855-1.463-1.462c-0.351-0.607-0.536-1.296-0.536-1.998
	s0.185-1.391,0.536-1.998c0.351-0.607,0.856-1.112,1.463-1.462V19H17z M22.5,21c0.83,0,1.5,0.67,1.5,1.5S23.33,24,22.5,24
	S21,23.33,21,22.5S21.67,21,22.5,21z M27.5,26c0.83,0,1.5,0.67,1.5,1.5S28.33,29,27.5,29S26,28.33,26,27.5S26.67,26,27.5,26z"/>
</svg>
