<svg width="371" height="394" viewBox="0 0 371 394" fill="none" xmlns="http://www.w3.org/2000/svg">
<g clip-path="url(#clip0_7831_3138)">
<rect width="230.39" height="322.002" rx="21.7692" transform="matrix(1 0 0.22937 0.973339 0.0635986 0.980469)" fill="url(#paint0_radial_7831_3138)"/>
<path d="M60.7381 31.5238C60.5294 30.638 60.5532 29.8861 60.8097 29.2681C61.0662 28.6501 61.5138 28.1783 62.1525 27.8528C62.7921 27.5315 63.5818 27.3708 64.5215 27.3708C65.4612 27.3708 66.3266 27.5315 67.1176 27.8528C67.9097 28.1783 68.5796 28.6501 69.1274 29.2681C69.6751 29.8861 70.0534 30.638 70.2621 31.5238C70.5049 32.5538 70.4356 33.4005 70.0543 34.0638C69.674 34.7313 69.0585 35.1906 68.2076 35.442L67.6392 34.3234C68.278 34.1421 68.7394 33.8187 69.0233 33.3531C69.3073 32.8875 69.3604 32.2778 69.1827 31.5238C69.0264 30.8605 68.7418 30.3084 68.3289 29.8675C67.916 29.4267 67.4061 29.095 66.7992 28.8726C66.1965 28.6501 65.5285 28.5368 64.7952 28.5327C64.0662 28.5285 63.4507 28.6377 62.9486 28.8602C62.4507 29.0827 62.0976 29.4164 61.8892 29.8614C61.6851 30.3063 61.6612 30.8605 61.8175 31.5238C61.9952 32.2778 62.3357 32.8875 62.8391 33.3531C63.3467 33.8187 63.9605 34.1421 64.6805 34.3234L64.6393 35.442C63.6742 35.1906 62.8421 34.7313 62.143 34.0638C61.4492 33.4005 60.9808 32.5538 60.7381 31.5238ZM62.7071 39.8256C62.6062 39.3971 62.5891 39.0283 62.656 38.7193C62.7238 38.4144 62.8504 38.1611 63.0356 37.9592C63.2208 37.7573 63.4417 37.5987 63.6981 37.4833C63.9545 37.368 64.225 37.2856 64.5097 37.2361C64.7953 37.1908 65.0672 37.1681 65.3254 37.1681H69.116L69.3781 38.2805H65.9431C65.6214 38.2805 65.3171 38.3094 65.0302 38.3671C64.7432 38.4247 64.4951 38.5216 64.2859 38.6575C64.0776 38.7976 63.9309 38.983 63.8455 39.2137C63.7612 39.4486 63.7603 39.7411 63.8428 40.0913C63.9079 40.3673 64.0158 40.6187 64.1665 40.8453C64.3173 41.0719 64.5068 41.2655 64.7352 41.4262C64.9677 41.5869 65.2424 41.7105 65.5591 41.797C65.8758 41.8835 66.2309 41.9268 66.6246 41.9268L66.5664 42.6498C65.9061 42.6498 65.3091 42.5324 64.7754 42.2976C64.2427 42.0669 63.7973 41.7393 63.4391 41.315C63.0861 40.8947 62.8421 40.3982 62.7071 39.8256ZM63.4092 42.0504H65.2442L65.215 41.9268H70.2374L70.4981 43.033H63.6408L63.4092 42.0504ZM64.165 45.2577H71.0223L71.2539 46.2404H69.5967L69.7747 46.0797C70.0048 46.158 70.2233 46.2589 70.4302 46.3825C70.6381 46.5102 70.8176 46.6524 70.9688 46.8089C71.1535 46.982 71.3097 47.1777 71.4373 47.396C71.565 47.6144 71.6619 47.8369 71.728 48.0635C71.7983 48.2901 71.8335 48.5023 71.8335 48.7H70.7732C70.7823 48.4693 70.7395 48.2159 70.6448 47.9399C70.5502 47.6638 70.3863 47.4084 70.1531 47.1736C69.946 46.9593 69.7162 46.7925 69.4637 46.673C69.2122 46.5576 68.9499 46.4773 68.6768 46.4319C68.4079 46.3866 68.138 46.364 67.8671 46.364H64.4257L64.165 45.2577ZM65.3681 50.363H72.2254L72.457 51.3457H70.7998L70.9778 51.185C71.2079 51.2633 71.4264 51.3642 71.6333 51.4878C71.8412 51.6155 72.0207 51.7577 72.1719 51.9142C72.3566 52.0873 72.5128 52.283 72.6404 52.5013C72.7681 52.7197 72.8649 52.9422 72.931 53.1688C73.0014 53.3954 73.0366 53.6076 73.0366 53.8053H71.9763C71.9854 53.5746 71.9426 53.3212 71.8479 53.0452C71.7532 52.7692 71.5893 52.5137 71.3562 52.2789C71.1491 52.0646 70.9193 51.8978 70.6668 51.7783C70.4153 51.6629 70.153 51.5826 69.8798 51.5373C69.611 51.4919 69.3411 51.4693 69.0701 51.4693H65.6288L65.3681 50.363ZM67.0338 58.2399C66.8795 57.5848 66.8927 57.0121 67.0734 56.5219C67.2594 56.0357 67.587 55.6567 68.0563 55.3847C68.5298 55.1128 69.1242 54.9768 69.8396 54.9768C70.5888 54.9768 71.268 55.1108 71.8771 55.3786C72.4905 55.6464 73.0017 56.0192 73.4106 56.4971C73.8247 56.9792 74.108 57.5436 74.2604 58.1905C74.4187 58.862 74.3944 59.4327 74.1877 59.9024C73.9818 60.3762 73.6124 60.7305 73.0794 60.9653C72.5473 61.2043 71.8711 61.3073 71.0506 61.2743L70.7884 60.1619H71.1948C72.0342 60.1496 72.6235 59.9827 72.9626 59.6613C73.3059 59.34 73.4028 58.862 73.2533 58.2276C73.0931 57.5478 72.7469 57.0307 72.2147 56.6764C71.6825 56.322 70.9974 56.1449 70.1593 56.1449C69.3508 56.1449 68.7661 56.322 68.4051 56.6764C68.0442 57.0307 67.9409 57.5354 68.0952 58.1905C68.1991 58.6313 68.3931 59.0145 68.6772 59.34C68.9613 59.6655 69.32 59.9209 69.7531 60.1063L69.6275 61.1631C68.961 60.9035 68.3989 60.5121 67.9412 59.9889C67.4887 59.4698 67.1863 58.8868 67.0338 58.2399ZM69.7544 55.7741H70.6624L71.8245 60.7058H70.9166L69.7544 55.7741ZM69.4574 67.7161H72.8924C73.2183 67.7161 73.5248 67.6872 73.8117 67.6296C74.0996 67.576 74.3456 67.4792 74.5496 67.3391C74.7589 67.2031 74.9057 67.0177 74.99 66.7829C75.0753 66.5522 75.0762 66.2596 74.9927 65.9053C74.9277 65.6293 74.8198 65.378 74.669 65.1514C74.5235 64.9289 74.3344 64.7373 74.1018 64.5766C73.8693 64.4159 73.5941 64.2903 73.2765 64.1996C72.964 64.1131 72.6088 64.0698 72.2109 64.0698L72.2691 63.3468C72.9337 63.3468 73.5302 63.4621 74.0587 63.6929C74.5923 63.9277 75.0356 64.2552 75.3886 64.6755C75.7469 65.0999 75.9934 65.5984 76.1284 66.1711C76.2303 66.6037 76.2474 66.9724 76.1796 67.2773C76.1117 67.5822 75.9852 67.8356 75.7999 68.0374C75.6189 68.2393 75.3981 68.3979 75.1375 68.5133C74.881 68.6287 74.61 68.709 74.3244 68.7543C74.044 68.8038 73.7726 68.8285 73.5101 68.8285H69.7196L69.4574 67.7161ZM68.336 62.9574H75.1933L75.4263 63.9462H73.5914L73.6205 64.0698H68.5982L68.336 62.9574ZM70.6726 73.6812C70.5134 73.0055 70.5325 72.4308 70.7298 71.957C70.9324 71.4873 71.2775 71.1288 71.7653 70.8816C72.2531 70.6344 72.8452 70.5067 73.5417 70.4985C74.259 70.5067 74.9182 70.6365 75.5192 70.8878C76.1255 71.1432 76.6368 71.5079 77.0532 71.9817C77.4697 72.4555 77.7565 73.0261 77.9138 73.6935C78.0798 74.3981 78.0448 75.0037 77.8086 75.5105C77.5734 76.0214 77.1672 76.3633 76.59 76.5364L75.9972 75.4487C76.3621 75.3086 76.6172 75.0799 76.7625 74.7627C76.9089 74.4496 76.934 74.0891 76.8378 73.6812C76.7301 73.2239 76.5312 72.8469 76.2412 72.5502C75.9554 72.2536 75.6029 72.0332 75.1837 71.889C74.7688 71.7448 74.3132 71.6706 73.817 71.6665C73.057 71.6747 72.4814 71.8457 72.0902 72.1794C71.7042 72.5173 71.5894 73.0179 71.7457 73.6812C71.8486 74.1179 72.0356 74.4805 72.3068 74.7689C72.5821 75.0573 72.932 75.2756 73.3564 75.424L73.3201 76.5364C72.6266 76.3057 72.0527 75.9452 71.5985 75.4549C71.1444 74.9646 70.8357 74.3734 70.6726 73.6812ZM69.0636 78.9777L72.9744 80.2693L71.912 80.2879L78.5899 77.3709L78.8622 78.5266L73.4771 80.8132L73.3839 80.4177L79.8132 82.5621L80.0768 83.6807L69.3155 80.0468L69.0636 78.9777Z" fill="white"/>
<path d="M139.165 27.7008H140.829L141.592 30.9401H129.928L129.506 29.1491H139.506L139.165 27.7008ZM133.214 34.3601C134.335 35.3568 135.245 36.1407 135.945 36.7117C136.658 37.2931 137.369 37.7759 138.078 38.1601C138.787 38.5442 139.451 38.7363 140.07 38.7363C140.71 38.7363 141.176 38.5857 141.467 38.2847C141.761 37.9939 141.834 37.5319 141.685 36.8986C141.54 36.2861 141.225 35.8085 140.739 35.4659C140.266 35.1336 139.691 34.9571 139.014 34.9364L138.611 33.2233C139.834 33.2544 140.845 33.6074 141.644 34.2823C142.456 34.9675 142.986 35.8344 143.233 36.883C143.5 38.0147 143.388 38.8972 142.897 39.5305C142.409 40.1742 141.631 40.4961 140.564 40.4961C139.796 40.4961 139.01 40.304 138.205 39.9199C137.413 39.5461 136.671 39.0945 135.981 38.565C135.304 38.0459 134.502 37.3814 133.576 36.5716L132.77 35.8708L133.934 40.8075H132.414L130.63 33.2389H131.958L133.214 34.3601ZM141.398 42.3361C142.405 42.3983 143.265 42.7669 143.979 43.4418C144.695 44.127 145.178 44.9991 145.427 46.0581C145.598 46.7849 145.613 47.413 145.471 47.9425C145.329 48.472 145.061 48.8717 144.666 49.1416C144.271 49.4116 143.785 49.5466 143.209 49.5466C142.548 49.5466 141.942 49.3752 141.392 49.0326C140.842 48.69 140.431 48.2799 140.158 47.8023H140.094C140.046 48.4149 139.807 48.8925 139.376 49.2351C138.955 49.5777 138.35 49.749 137.561 49.749C136.932 49.749 136.339 49.6088 135.782 49.3285C135.225 49.0482 134.738 48.6329 134.32 48.0826C133.913 47.5324 133.619 46.8731 133.438 46.1048C133.174 44.9835 133.249 44.0595 133.665 43.3328C134.093 42.6164 134.856 42.2322 135.953 42.1803L136.357 43.8934C135.801 43.9349 135.388 44.1478 135.115 44.5319C134.854 44.9161 134.8 45.4352 134.954 46.0893C135.104 46.7226 135.395 47.2105 135.827 47.5532C136.271 47.8958 136.775 48.0671 137.341 48.0671C138.087 48.0671 138.56 47.8335 138.759 47.3663C138.972 46.9095 138.965 46.2035 138.74 45.2483L138.645 44.8434H140.149L140.248 45.2639C140.457 46.1048 140.751 46.7433 141.131 47.1794C141.514 47.6258 142.004 47.849 142.601 47.849C143.113 47.849 143.481 47.6881 143.703 47.3663C143.937 47.0444 143.984 46.5876 143.844 45.9958C143.707 45.4144 143.446 44.9628 143.061 44.6409C142.687 44.3191 142.268 44.127 141.805 44.0647L141.398 42.3361ZM137.181 51.3959H138.557L147.502 56.6286L148.009 58.7777H140.505L140.846 60.226H139.262L138.921 58.7777H136.489L136.077 57.0335H138.509L137.181 51.3959ZM145.76 57.1113L139.246 53.436L140.112 57.1113H145.76ZM149.951 73.0621L148.721 67.845H145.537C145.887 68.063 146.214 68.3848 146.517 68.8105C146.822 69.2466 147.032 69.7086 147.147 70.1966C147.353 71.0687 147.327 71.7747 147.071 72.3145C146.816 72.8648 146.423 73.2541 145.89 73.4825C145.359 73.7213 144.769 73.8407 144.118 73.8407C143.329 73.8407 142.589 73.6902 141.9 73.3891C141.223 73.0984 140.639 72.6572 140.148 72.0654C139.659 71.484 139.314 70.7676 139.113 69.9162C138.847 68.7846 138.921 67.8761 139.335 67.1909C139.75 66.5056 140.416 66.0955 141.333 65.9606L141.741 67.6892C141.266 67.8034 140.926 68.0578 140.72 68.4523C140.525 68.8469 140.498 69.34 140.637 69.9318C140.811 70.6689 141.17 71.2192 141.714 71.5826C142.261 71.9563 142.913 72.1432 143.67 72.1432C144.438 72.1432 144.981 71.9563 145.298 71.5826C145.626 71.2088 145.704 70.6586 145.533 69.9318C145.413 69.4231 145.178 68.9922 144.828 68.6392C144.492 68.2966 144.081 68.0474 143.596 67.8917L143.2 66.2098H149.936L151.551 73.0621H149.951ZM150.872 81.7936C151.336 81.6794 151.655 81.4718 151.829 81.1707C152.004 80.8696 152.027 80.4491 151.9 79.9093C151.707 79.0891 151.237 78.4765 150.491 78.0716C149.756 77.6667 148.639 77.4538 147.141 77.4331C147.674 77.703 148.129 78.0976 148.508 78.6167C148.886 79.1358 149.146 79.6964 149.288 80.2986C149.449 80.9838 149.437 81.586 149.25 82.1051C149.076 82.6346 148.735 83.0447 148.228 83.3354C147.723 83.6365 147.07 83.787 146.27 83.787C145.523 83.787 144.822 83.6417 144.167 83.351C143.515 83.0707 142.951 82.6502 142.478 82.0895C142.015 81.5289 141.691 80.854 141.505 80.065C141.253 78.9956 141.295 78.1547 141.63 77.5421C141.979 76.9399 142.567 76.5143 143.393 76.2651C144.223 76.0263 145.298 75.9069 146.621 75.9069C150.525 75.9069 152.793 77.2462 153.424 79.9248C153.669 80.9631 153.573 81.7781 153.136 82.3699C152.702 82.972 152.076 83.325 151.258 83.4289L150.872 81.7936ZM147.66 79.9093C147.511 79.2759 147.186 78.7361 146.687 78.2896C146.2 77.8536 145.588 77.6355 144.852 77.6355C144.116 77.6355 143.577 77.838 143.236 78.2429C142.907 78.6582 142.829 79.2344 143.003 79.9716C143.157 80.6256 143.486 81.1396 143.99 81.5133C144.497 81.8975 145.097 82.0895 145.79 82.0895C146.515 82.0895 147.047 81.9027 147.386 81.5289C147.738 81.1655 147.829 80.6256 147.66 79.9093ZM154.78 92.8757L143.504 88.5463L143.082 86.7554L154.177 91.1315L152.819 85.3693H154.371L156.14 92.8757H154.78ZM151.429 96.3108C151.73 95.231 152.477 94.6911 153.672 94.6911C154.248 94.6911 154.809 94.8313 155.355 95.1116C155.901 95.3919 156.379 95.8124 156.788 96.373C157.208 96.9337 157.514 97.6189 157.704 98.4287C157.893 99.2282 157.909 99.9082 157.753 100.469C157.61 101.04 157.332 101.466 156.918 101.746C156.504 102.026 156.009 102.166 155.433 102.166C154.836 102.166 154.272 102.016 153.743 101.715C153.226 101.424 152.788 101.035 152.428 100.547C152.343 101.139 152.085 101.606 151.654 101.948C151.233 102.291 150.682 102.462 149.999 102.462C149.306 102.462 148.652 102.291 148.038 101.948C147.424 101.606 146.901 101.128 146.468 100.516C146.036 99.903 145.728 99.2074 145.544 98.4287C145.361 97.6501 145.341 96.9545 145.485 96.3419C145.631 95.7397 145.93 95.2673 146.383 94.9247C146.835 94.5821 147.408 94.4108 148.102 94.4108C148.795 94.4108 149.433 94.5821 150.015 94.9247C150.597 95.2673 151.068 95.7293 151.429 96.3108ZM154.809 100.469C155.406 100.469 155.822 100.287 156.057 99.9238C156.291 99.5604 156.334 99.0621 156.184 98.4287C156.038 97.8058 155.761 97.3126 155.356 96.9493C154.95 96.5859 154.443 96.4042 153.835 96.4042C153.302 96.4042 152.909 96.5911 152.655 96.9648C152.415 97.349 152.365 97.837 152.504 98.4287C152.644 99.0205 152.93 99.5085 153.361 99.8926C153.793 100.277 154.276 100.469 154.809 100.469ZM151.128 98.4287C150.967 97.7435 150.659 97.1829 150.204 96.7468C149.762 96.3211 149.216 96.1083 148.566 96.1083C147.958 96.1083 147.511 96.3159 147.224 96.7312C146.949 97.1465 146.896 97.7124 147.064 98.4287C147.231 99.1347 147.554 99.6902 148.033 100.095C148.515 100.51 149.055 100.718 149.652 100.718C150.292 100.718 150.738 100.505 150.989 100.08C151.244 99.6642 151.29 99.114 151.128 98.4287ZM151.865 110.583C151.356 110.687 151.003 110.91 150.806 111.253C150.61 111.595 150.58 112.057 150.717 112.639C150.891 113.376 151.317 113.916 151.995 114.259C152.673 114.601 153.732 114.772 155.172 114.772C154.75 114.523 154.385 114.17 154.074 113.713C153.777 113.267 153.566 112.779 153.441 112.25C153.282 111.575 153.277 110.962 153.424 110.412C153.583 109.862 153.901 109.426 154.38 109.104C154.872 108.792 155.518 108.637 156.318 108.637C157.491 108.637 158.503 108.969 159.353 109.633C160.216 110.308 160.786 111.232 161.062 112.405C161.395 113.817 161.146 114.819 160.314 115.411C159.496 116.013 158.09 116.314 156.095 116.314C154.719 116.314 153.567 116.2 152.638 115.972C151.712 115.754 150.961 115.369 150.383 114.819C149.805 114.269 149.401 113.506 149.171 112.53C148.91 111.419 149.006 110.562 149.462 109.96C149.917 109.358 150.59 109.021 151.479 108.948L151.865 110.583ZM155.051 112.561C155.198 113.184 155.51 113.672 155.988 114.025C156.479 114.388 157.055 114.57 157.716 114.57C158.452 114.57 158.978 114.378 159.292 113.994C159.62 113.62 159.707 113.106 159.553 112.452C159.399 111.798 159.063 111.279 158.546 110.895C158.042 110.521 157.449 110.334 156.766 110.334C156.115 110.334 155.619 110.516 155.278 110.879C154.95 111.253 154.875 111.813 155.051 112.561ZM160.45 118.024H162.114L162.877 121.263H151.213L150.791 119.472H160.791L160.45 118.024ZM157.772 123.702C159.617 123.702 161.128 124.003 162.305 124.605C163.495 125.218 164.264 126.266 164.614 127.751C164.964 129.236 164.687 130.279 163.784 130.881C162.894 131.494 161.526 131.8 159.68 131.8C157.814 131.8 156.28 131.494 155.08 130.881C153.893 130.279 153.124 129.236 152.774 127.751C152.424 126.266 152.7 125.218 153.601 124.605C154.515 124.003 155.905 123.702 157.772 123.702ZM159.269 130.056C160.133 130.056 160.851 129.999 161.421 129.885C161.994 129.781 162.428 129.563 162.723 129.23C163.029 128.898 163.104 128.405 162.95 127.751C162.796 127.097 162.488 126.604 162.026 126.271C161.574 125.939 161.036 125.716 160.412 125.602C159.79 125.498 159.047 125.446 158.183 125.446C157.287 125.446 156.547 125.498 155.964 125.602C155.38 125.706 154.941 125.924 154.646 126.256C154.353 126.599 154.284 127.097 154.438 127.751C154.592 128.405 154.895 128.898 155.347 129.23C155.801 129.573 156.344 129.796 156.977 129.9C157.609 130.004 158.373 130.056 159.269 130.056ZM164.084 133.445H165.748L166.511 136.684H154.847L154.425 134.893H164.425L164.084 133.445ZM166.32 142.935H167.984L168.748 146.174H157.084L156.662 144.383H166.662L166.32 142.935ZM160.37 149.594C161.49 150.591 162.4 151.375 163.1 151.946C163.813 152.527 164.524 153.01 165.233 153.394C165.942 153.778 166.606 153.971 167.225 153.971C167.865 153.971 168.331 153.82 168.623 153.519C168.917 153.228 168.989 152.766 168.84 152.133C168.696 151.52 168.38 151.043 167.894 150.7C167.421 150.368 166.846 150.191 166.17 150.171L165.766 148.458C166.989 148.489 168 148.842 168.799 149.517C169.612 150.202 170.141 151.069 170.388 152.117C170.655 153.249 170.543 154.131 170.052 154.765C169.564 155.408 168.786 155.73 167.72 155.73C166.952 155.73 166.165 155.538 165.36 155.154C164.568 154.78 163.827 154.329 163.137 153.799C162.46 153.28 161.658 152.616 160.731 151.806L159.926 151.105L161.089 156.042H159.569L157.785 148.473H159.113L160.37 149.594ZM168.553 157.57C169.56 157.633 170.42 158.001 171.134 158.676C171.85 159.361 172.333 160.233 172.582 161.292C172.754 162.019 172.768 162.647 172.626 163.177C172.485 163.706 172.216 164.106 171.821 164.376C171.426 164.646 170.94 164.781 170.364 164.781C169.703 164.781 169.097 164.609 168.547 164.267C167.997 163.924 167.586 163.514 167.313 163.037H167.249C167.202 163.649 166.962 164.127 166.531 164.469C166.11 164.812 165.505 164.983 164.716 164.983C164.087 164.983 163.494 164.843 162.937 164.563C162.38 164.282 161.893 163.867 161.475 163.317C161.068 162.767 160.774 162.107 160.593 161.339C160.329 160.218 160.405 159.294 160.82 158.567C161.249 157.851 162.011 157.466 163.109 157.415L163.512 159.128C162.957 159.169 162.543 159.382 162.271 159.766C162.009 160.15 161.956 160.669 162.11 161.323C162.259 161.957 162.55 162.445 162.983 162.787C163.426 163.13 163.93 163.301 164.496 163.301C165.242 163.301 165.715 163.068 165.915 162.601C166.127 162.144 166.121 161.438 165.896 160.483L165.8 160.078H167.304L167.403 160.498C167.612 161.339 167.907 161.978 168.287 162.414C168.669 162.86 169.159 163.083 169.756 163.083C170.268 163.083 170.636 162.922 170.859 162.601C171.092 162.279 171.139 161.822 171 161.23C170.863 160.649 170.602 160.197 170.216 159.875C169.842 159.553 169.423 159.361 168.961 159.299L168.553 157.57ZM164.336 166.63H165.712L174.657 171.863L175.164 174.012H167.66L168.001 175.46H166.417L166.076 174.012H163.644L163.233 172.268H165.665L164.336 166.63ZM172.915 172.346L166.401 168.67L167.267 172.346H172.915Z" fill="white"/>
<path d="M40.7205 30.7504C40.5816 30.1607 40.584 29.6398 40.7278 29.1877C40.8716 28.7357 41.1381 28.3808 41.5273 28.123C41.9209 27.8687 42.4224 27.7416 43.032 27.7416H48.0062L48.2364 28.6951H43.3383C42.9682 28.6951 42.6595 28.7551 42.412 28.8752C42.169 28.9988 41.9805 29.1613 41.8466 29.3625C41.7126 29.5638 41.6285 29.7846 41.5944 30.0247C41.5648 30.2684 41.5782 30.5103 41.6348 30.7504C41.6923 30.9941 41.795 31.2378 41.9432 31.4814C42.0913 31.7251 42.2775 31.9458 42.5019 32.1436C42.7308 32.3449 42.9972 32.5056 43.3012 32.6256C43.6053 32.7457 43.9405 32.8057 44.307 32.8057H49.205L49.4297 33.7592H44.45C43.8441 33.7592 43.284 33.6303 42.7698 33.3725C42.2563 33.1183 41.8212 32.7651 41.4643 32.3131C41.1074 31.8611 40.8595 31.3402 40.7205 30.7504ZM42.3414 37.6287C42.2141 37.0883 42.1936 36.601 42.2799 36.1666C42.367 35.7358 42.5514 35.3791 42.8332 35.0966C43.1194 34.8176 43.4919 34.6357 43.9509 34.551L44.3384 35.5257C43.8741 35.6493 43.548 35.9053 43.3602 36.2938C43.1768 36.6858 43.1476 37.1466 43.2724 37.6763C43.3531 38.0189 43.4804 38.3279 43.6541 38.6033C43.8323 38.8823 44.044 39.103 44.2891 39.2655C44.5342 39.4279 44.7982 39.5092 45.0812 39.5092C45.2554 39.5092 45.397 39.4791 45.5062 39.4191C45.6199 39.3626 45.7082 39.2831 45.7712 39.1807C45.8386 39.0819 45.8881 38.9688 45.9199 38.8417C45.9516 38.7146 45.9712 38.5822 45.9786 38.4444L46.1137 36.5004C46.1291 36.2885 46.1624 36.0836 46.2138 35.8859C46.2688 35.6881 46.3523 35.5115 46.4645 35.3562C46.5803 35.2008 46.7325 35.0772 46.9213 34.9854C47.1138 34.8935 47.3551 34.8476 47.6454 34.8476C48.1098 34.8476 48.5327 34.9642 48.9142 35.1972C49.3001 35.4339 49.6276 35.7534 49.8966 36.156C50.1656 36.5586 50.3578 37.0124 50.4732 37.5174C50.5902 38.0295 50.6037 38.4868 50.5135 38.8894C50.4278 39.2955 50.2456 39.631 49.967 39.8959C49.6892 40.1642 49.3235 40.3444 48.8698 40.4362L48.4543 39.435C48.7611 39.382 49.0071 39.2637 49.1924 39.0801C49.3822 38.9 49.5067 38.674 49.566 38.402C49.6289 38.1301 49.6239 37.8317 49.5509 37.5068C49.4813 37.1961 49.3644 36.9153 49.2001 36.6646C49.0358 36.4138 48.8418 36.2143 48.6182 36.066C48.3982 35.9177 48.1667 35.8435 47.9236 35.8435C47.6841 35.8435 47.5058 35.9106 47.3887 36.0448C47.2752 36.179 47.1978 36.3432 47.1565 36.5374C47.1196 36.7352 47.096 36.9277 47.0857 37.1148L46.9978 38.5663C46.9898 38.7322 46.9694 38.9229 46.9367 39.1384C46.9049 39.3573 46.8369 39.5692 46.7328 39.774C46.6323 39.9788 46.4727 40.1484 46.2539 40.2826C46.0389 40.4167 45.7426 40.4838 45.3653 40.4838C44.988 40.4838 44.6349 40.4097 44.3061 40.2614C43.9781 40.1166 43.6835 39.9135 43.4224 39.6522C43.1648 39.3909 42.9445 39.0872 42.7614 38.7411C42.5746 38.395 42.4346 38.0242 42.3414 37.6287ZM43.4394 41.595H51.2763L51.8305 43.947C51.8488 44.0247 51.879 44.1606 51.9212 44.3549C51.9633 44.5491 51.9925 44.7345 52.0087 44.9111C52.0679 45.5008 51.9626 45.9935 51.693 46.389C51.4279 46.788 51.0415 47.0882 50.5338 47.2895C50.0261 47.4908 49.4385 47.5914 48.7709 47.5914C48.1033 47.5914 47.4682 47.4908 46.8657 47.2895C46.2631 47.0882 45.7334 46.788 45.2766 46.389C44.8242 45.9935 44.4886 45.5008 44.2698 44.9111C44.2064 44.7345 44.1478 44.5473 44.0939 44.3496C44.0445 44.1553 44.0111 44.0211 43.9936 43.947L43.4394 41.595ZM44.593 42.5644L44.9188 43.947C44.9504 44.0812 44.9894 44.2313 45.0358 44.3972C45.0858 44.5632 45.1362 44.708 45.1871 44.8316C45.3651 45.2483 45.6242 45.5856 45.9643 45.8434C46.3045 46.1012 46.6973 46.2901 47.1428 46.4102C47.5884 46.5302 48.0524 46.5903 48.535 46.5903C49.0284 46.5903 49.4692 46.5285 49.8573 46.4049C50.2462 46.2848 50.5482 46.0959 50.7632 45.8381C50.9782 45.5803 51.0751 45.2448 51.0539 44.8316C51.0502 44.708 51.032 44.5614 50.9993 44.3919C50.9666 44.2224 50.9353 44.0741 50.9053 43.947L50.5795 42.5644H44.593Z" fill="white"/>
<path d="M214.751 30.6376C214.778 30.7615 214.854 30.8693 214.962 30.9375C215.07 31.0058 215.202 31.0288 215.328 31.0017L217.4 30.5296C217.525 30.4995 217.633 30.4218 217.701 30.3135C217.769 30.2051 217.791 30.075 217.762 29.9515L217.614 29.3022C217.603 29.2776 217.594 29.252 217.589 29.2259L217.267 27.8137C217.262 27.7957 217.259 27.7775 217.257 27.759C217.244 27.6425 217.275 27.5252 217.343 27.4289C217.412 27.3326 217.513 27.264 217.629 27.236L218.795 26.9702C218.918 26.9384 219.024 26.8603 219.09 26.7527C219.156 26.6451 219.176 26.5166 219.147 26.3948L218.826 24.9826C218.798 24.8588 218.722 24.751 218.614 24.6828C218.506 24.6146 218.375 24.5916 218.249 24.6187L217.032 24.8961C216.907 24.9262 216.798 25.0038 216.73 25.1121C216.662 25.2203 216.641 25.3504 216.67 25.4739L216.991 26.8861C217.021 27.0095 216.999 27.1396 216.931 27.248C216.863 27.3563 216.755 27.4339 216.63 27.4637L214.676 27.9087C214.614 27.9223 214.55 27.9238 214.487 27.9128C214.424 27.9019 214.364 27.8789 214.311 27.8452C214.257 27.8114 214.211 27.7675 214.175 27.716C214.139 27.6645 214.113 27.6063 214.1 27.5449L213.407 24.5037C213.379 24.38 213.303 24.2723 213.195 24.2041C213.087 24.136 212.956 24.1129 212.83 24.1399L210.019 24.7804C209.894 24.8106 209.786 24.8882 209.718 24.9964C209.65 25.1047 209.628 25.2347 209.657 25.3581L210.35 28.3993C210.363 28.4607 210.389 28.5189 210.425 28.5704C210.461 28.6219 210.508 28.6658 210.561 28.6995C210.615 28.7333 210.675 28.7563 210.737 28.7672C210.8 28.7782 210.864 28.7767 210.927 28.7631L213.689 28.1338C213.814 28.1068 213.946 28.1298 214.053 28.1979C214.161 28.2661 214.237 28.3737 214.265 28.4974L214.751 30.6376Z" fill="#3354CC"/>
<path d="M218.802 37.248L217.777 32.7492C217.734 32.565 217.62 32.4053 217.458 32.305C217.295 32.2048 217.099 32.1721 216.912 32.2142L212.327 33.259C212.157 33.298 211.978 33.2744 211.825 33.1927C211.672 33.1109 211.555 32.9766 211.496 32.8151C211.485 32.7872 211.476 32.7584 211.47 32.729L210.776 29.6842C210.717 29.5222 210.599 29.3874 210.446 29.3054C210.293 29.2233 210.114 29.1995 209.943 29.2385L206.851 29.943C206.665 29.9856 206.503 30.0992 206.401 30.2588C206.299 30.4185 206.265 30.6111 206.306 30.7945L206.98 33.7516C207.022 33.9344 206.988 34.1265 206.886 34.2857C206.785 34.4449 206.623 34.5582 206.438 34.6005L204.944 34.9409C204.82 34.9689 204.702 35.0209 204.598 35.0938C204.493 35.1667 204.404 35.2591 204.336 35.3657C204.268 35.4723 204.222 35.591 204.2 35.715C204.179 35.839 204.182 35.9658 204.21 36.0882L204.531 37.4965C204.559 37.6189 204.611 37.7346 204.684 37.8368C204.757 37.9391 204.85 38.026 204.958 38.0925C205.066 38.159 205.186 38.2039 205.311 38.2245C205.437 38.2451 205.565 38.2411 205.689 38.2126L207.048 37.903C207.299 37.8455 207.517 37.6924 207.655 37.4774C207.792 37.2623 207.838 37.0028 207.782 36.7558L207.446 35.2803C207.404 35.0975 207.438 34.9056 207.54 34.7466C207.642 34.5875 207.803 34.4743 207.988 34.4317L210.861 33.777C211.047 33.7351 211.241 33.7673 211.402 33.8666C211.563 33.9659 211.676 34.1241 211.718 34.3067L212.705 38.636C212.747 38.8206 212.862 38.9806 213.024 39.0809C213.187 39.1813 213.383 39.2137 213.571 39.1712L218.254 38.1041C218.441 38.0613 218.604 37.9471 218.707 37.7866C218.809 37.6262 218.844 37.4325 218.802 37.248Z" fill="#3354CC"/>
<path d="M214.64 80.9486C214.887 80.86 215.065 80.7936 215.173 80.7494C215.134 80.9298 215.13 81.0921 215.163 81.2365C215.173 81.2806 215.19 81.3243 215.212 81.3674C215.233 81.4109 215.258 81.4499 215.287 81.4843C215.306 81.5067 215.332 81.5277 215.363 81.5473C215.394 81.5687 215.449 81.5946 215.528 81.6249C215.606 81.6553 215.682 81.6799 215.756 81.6988C215.819 81.7132 215.895 81.7252 215.987 81.7347L217.417 80.8515L218.429 80.2137C218.466 80.3927 218.494 80.5213 218.512 80.5994C218.532 80.6894 218.561 80.807 218.598 80.9523C218.465 81.02 218.35 81.081 218.253 81.1352L217.509 81.5593C217.28 81.6902 217.107 81.7858 216.99 81.8463C216.913 81.8853 216.811 81.9336 216.683 81.9913C216.849 82.0071 216.985 82.0226 217.09 82.0379C217.282 82.0639 217.539 82.1026 217.861 82.1541L218.526 82.2625C218.645 82.2819 218.772 82.3002 218.909 82.3174C218.94 82.471 218.965 82.5877 218.983 82.6675C219 82.7405 219.029 82.8623 219.072 83.0331L216.65 82.5533L215.583 82.3491C215.444 82.3183 215.333 82.2837 215.251 82.2452C215.182 82.2146 215.12 82.1778 215.065 82.1349C215.013 82.0932 214.967 82.0466 214.926 81.9951C214.876 81.9298 214.831 81.857 214.791 81.7768C214.748 81.6847 214.716 81.5893 214.694 81.4909C214.681 81.4348 214.668 81.3556 214.655 81.2531C214.643 81.1506 214.638 81.0491 214.64 80.9486Z" fill="black"/>
<path d="M216.321 80.2572C216.216 80.258 216.029 80.2676 215.76 80.286C215.679 80.1115 215.617 79.963 215.575 79.8405C215.533 79.7179 215.497 79.593 215.468 79.4656C215.417 79.2432 215.394 79.0387 215.398 78.852C215.402 78.6671 215.448 78.4951 215.535 78.3359C215.624 78.1764 215.747 78.0457 215.904 77.9438C216.061 77.8419 216.234 77.7695 216.422 77.7265C216.631 77.6789 216.841 77.6694 217.053 77.6979C217.267 77.7261 217.451 77.7914 217.604 77.8939C217.76 77.9977 217.883 78.1278 217.972 78.2843C218.063 78.4404 218.129 78.6102 218.171 78.7935C218.21 78.9667 218.226 79.1364 218.217 79.3027C218.21 79.4686 218.17 79.6154 218.095 79.7431C218.021 79.8725 217.921 79.9811 217.794 80.0688C217.67 80.1579 217.523 80.2218 217.353 80.2605C217.273 80.2786 217.189 80.2889 217.1 80.2913L216.672 78.425C216.609 78.4359 216.558 78.4457 216.521 78.4542C216.407 78.4801 216.307 78.5234 216.221 78.5841C216.135 78.6448 216.067 78.7201 216.018 78.8099C215.969 78.8997 215.94 79 215.931 79.111C215.924 79.2215 215.932 79.3269 215.955 79.427C215.982 79.5442 216.023 79.6678 216.08 79.7978C216.136 79.9295 216.217 80.0827 216.321 80.2572ZM216.975 78.3775L217.244 79.57C217.326 79.5514 217.385 79.5352 217.423 79.5212C217.461 79.5072 217.503 79.4852 217.547 79.4553C217.595 79.4267 217.633 79.3929 217.664 79.3538C217.696 79.3144 217.72 79.2714 217.736 79.2248C217.752 79.1783 217.761 79.1263 217.762 79.0688C217.764 79.0131 217.758 78.9547 217.744 78.8936C217.727 78.8223 217.701 78.7552 217.663 78.6923C217.626 78.6311 217.58 78.5773 217.524 78.5309C217.469 78.4846 217.411 78.4496 217.35 78.4259C217.29 78.4039 217.233 78.3901 217.18 78.3843C217.129 78.3782 217.06 78.3759 216.975 78.3775Z" fill="black"/>
<path d="M214.452 74.7154C214.846 74.6667 215.286 74.6003 215.773 74.5163C216.259 74.4339 216.693 74.3511 217.074 74.2679C217.107 74.4249 217.133 74.55 217.155 74.6434C217.18 74.7538 217.208 74.8706 217.24 74.9937L216.8 75.0644C216.887 75.1 216.957 75.1323 217.01 75.1613C217.063 75.192 217.118 75.233 217.175 75.2845C217.232 75.3376 217.281 75.3961 217.322 75.4599C217.364 75.5255 217.402 75.5998 217.437 75.6829C217.472 75.7677 217.501 75.8576 217.523 75.9527C217.557 76.1038 217.57 76.2526 217.563 76.399C217.557 76.5468 217.522 76.6726 217.458 76.7764C217.395 76.8803 217.317 76.957 217.224 77.0066C217.132 77.0562 217.031 77.0936 216.92 77.1187C216.874 77.1292 216.801 77.1433 216.699 77.161L215.574 77.3611C215.418 77.3895 215.253 77.4228 215.077 77.461C215.05 77.3261 215.026 77.2111 215.004 77.116C214.975 76.9869 214.943 76.8574 214.91 76.7275C215.061 76.7074 215.322 76.6658 215.694 76.6026C216.067 76.539 216.313 76.4937 216.431 76.4666C216.566 76.436 216.669 76.3902 216.74 76.3292C216.812 76.2682 216.859 76.1878 216.881 76.0882C216.903 75.9902 216.903 75.8895 216.879 75.7859C216.856 75.684 216.815 75.5934 216.756 75.514C216.696 75.4346 216.622 75.3711 216.533 75.3236C216.441 75.2731 216.335 75.242 216.214 75.2302C216.086 75.2182 215.884 75.234 215.606 75.2776C215.359 75.316 215.031 75.3765 214.621 75.4591C214.595 75.3276 214.57 75.2092 214.546 75.104C214.521 74.997 214.49 74.8675 214.452 74.7154Z" fill="black"/>
<path d="M216.689 72.3004C216.733 72.4956 216.746 72.6892 216.727 72.881C216.71 73.0741 216.658 73.2458 216.571 73.3961C216.486 73.5477 216.367 73.6738 216.215 73.7745C216.065 73.8749 215.898 73.946 215.715 73.9877C215.521 74.0318 215.327 74.0413 215.132 74.0161C214.937 73.9909 214.759 73.9305 214.598 73.8351C214.438 73.7392 214.304 73.6046 214.195 73.4312C214.088 73.2592 214.01 73.067 213.962 72.8548C213.917 72.6578 213.903 72.4636 213.92 72.2722C213.939 72.082 213.993 71.9108 214.082 71.7585C214.17 71.6061 214.291 71.4777 214.444 71.3732C214.597 71.2704 214.766 71.1981 214.949 71.1563C215.136 71.1137 215.321 71.1028 215.504 71.1235C215.687 71.1443 215.86 71.2024 216.021 71.2979C216.182 71.395 216.322 71.5338 216.44 71.7141C216.558 71.8944 216.641 72.0898 216.689 72.3004ZM216.164 72.4199C216.13 72.2722 216.064 72.1481 215.964 72.0476C215.866 71.9484 215.74 71.8861 215.584 71.8609C215.428 71.8374 215.267 71.8448 215.099 71.8831C214.951 71.9167 214.824 71.9696 214.719 72.0418C214.615 72.1156 214.539 72.2133 214.491 72.3348C214.445 72.4581 214.438 72.5927 214.471 72.7387C214.505 72.8881 214.571 73.0105 214.67 73.106C214.771 73.2027 214.899 73.2628 215.054 73.2864C215.211 73.3112 215.377 73.3039 215.55 73.2644C215.691 73.2323 215.814 73.181 215.919 73.1106C216.025 73.0401 216.1 72.9443 216.146 72.8232C216.192 72.7038 216.198 72.5693 216.164 72.4199Z" fill="black"/>
<path d="M212.661 66.8683L213.252 66.8034L215.313 66.5107L216.205 66.3691C216.257 66.6126 216.295 66.7905 216.321 66.9025C216.341 66.9925 216.38 67.156 216.438 67.3929C216.307 67.4514 216.214 67.494 216.159 67.5208C216.104 67.5475 216.018 67.5949 215.899 67.663C215.781 67.731 215.638 67.8163 215.47 67.9189C215.216 68.0715 214.962 68.2141 214.71 68.3465L214.026 68.706L215.038 68.8343L216.366 69.0542C216.411 69.0619 216.462 69.0682 216.518 69.0732C216.577 69.0795 216.68 69.0882 216.827 69.0993C216.869 69.3021 216.909 69.4825 216.945 69.6404C216.969 69.7457 217.009 69.9134 217.065 70.1435C216.57 70.2312 216.025 70.3366 215.43 70.4597C214.837 70.5824 214.394 70.6771 214.102 70.7436C213.961 70.7757 213.785 70.8177 213.573 70.8694C213.538 70.7006 213.514 70.5856 213.5 70.5245C213.48 70.4362 213.451 70.3194 213.415 70.1741C213.59 70.1449 213.734 70.1192 213.847 70.097L215.372 69.795C215.588 69.7514 215.799 69.7059 216.006 69.6587L216.212 69.6092L213.519 69.2341L213.191 69.1936C213.157 69.0281 213.133 68.9148 213.119 68.8537C213.102 68.7773 213.073 68.658 213.032 68.4958L214.501 67.7002C214.554 67.6722 214.663 67.6098 214.828 67.5132L215.312 67.2369C215.358 67.2104 215.395 67.1894 215.424 67.1739C215.454 67.1598 215.521 67.1276 215.624 67.0774L215.29 67.1186C215.185 67.1337 215.009 67.1604 214.762 67.1987L213.16 67.4592C213.082 67.4736 212.966 67.4974 212.812 67.5305L212.743 67.2008C212.73 67.1448 212.703 67.0339 212.661 66.8683Z" fill="black"/>
<path d="M229.294 80.4167L229.773 79.9349L229.71 79.6582L229.15 79.7859L229.11 79.6128L230.521 79.2913L230.649 79.8497C230.666 79.9056 230.671 79.9645 230.664 80.0226C230.656 80.0808 230.637 80.1368 230.606 80.187C230.575 80.2373 230.534 80.2806 230.485 80.3142C230.436 80.3477 230.381 80.3708 230.322 80.3818C230.221 80.4108 230.112 80.3991 230.02 80.3495C229.928 80.2999 229.86 80.2162 229.83 80.1168L229.34 80.6224L229.294 80.4167ZM230.281 80.2026C230.318 80.1952 230.353 80.1803 230.384 80.1588C230.415 80.1373 230.441 80.1097 230.46 80.0779C230.479 80.046 230.492 80.0105 230.496 79.9737C230.501 79.9369 230.498 79.8996 230.487 79.8643L230.404 79.4998L229.864 79.6227L229.948 79.9875C229.954 80.0241 229.967 80.059 229.988 80.09C230.008 80.121 230.035 80.1475 230.066 80.1677C230.098 80.1879 230.133 80.2015 230.17 80.2075C230.207 80.2135 230.245 80.2118 230.281 80.2026V80.2026Z" fill="black"/>
<path d="M228.63 80.1952C228.554 79.8589 228.617 79.5057 228.804 79.213C228.991 78.9203 229.288 78.7118 229.629 78.6333C229.971 78.5564 230.328 78.6158 230.624 78.7985C230.919 78.9812 231.128 79.2724 231.206 79.6083C231.282 79.9446 231.22 80.298 231.033 80.5908C230.845 80.8837 230.548 81.092 230.207 81.1702C229.866 81.2472 229.508 81.1878 229.212 81.0051C228.917 80.8224 228.707 80.5312 228.63 80.1952V80.1952ZM231.044 79.6453C230.977 79.3513 230.794 79.0964 230.535 78.9366C230.277 78.7769 229.964 78.7253 229.665 78.7933C229.367 78.8614 229.107 79.0434 228.944 79.2993C228.78 79.5553 228.726 79.8642 228.793 80.1582C228.859 80.4522 229.042 80.7071 229.301 80.8668C229.559 81.0266 229.872 81.0781 230.171 81.0101C230.469 80.9421 230.729 80.7601 230.892 80.5041C231.056 80.2482 231.111 79.9392 231.044 79.6453Z" fill="black"/>
<path d="M214.088 42.4806C215.039 42.3617 216.123 42.1878 217.34 41.9589C218.557 41.73 219.623 41.5115 220.536 41.3036C220.614 41.6745 220.681 41.9837 220.738 42.2312C220.799 42.4985 220.863 42.7591 220.931 43.013C220.999 43.2668 221.065 43.5368 221.13 43.8228C221.205 44.1418 221.258 44.4657 221.287 44.7921C221.313 45.0677 221.276 45.3459 221.177 45.6059C221.092 45.8407 220.947 46.05 220.755 46.2131C220.554 46.3745 220.316 46.486 220.063 46.5382C219.895 46.5772 219.723 46.5952 219.551 46.5917C219.386 46.5879 219.223 46.5623 219.066 46.5156C218.915 46.4709 218.771 46.405 218.639 46.3198C218.521 46.2452 218.413 46.1566 218.318 46.0559C218.227 45.9557 218.147 45.8465 218.078 45.7301C218.003 45.605 217.909 45.4359 217.796 45.2228L217.25 45.6768C217.076 45.8229 216.767 46.0951 216.324 46.4934L215.602 47.1472C215.564 47.1818 215.439 47.2879 215.227 47.4655C215.147 47.0882 215.094 46.8396 215.067 46.7198C215.033 46.572 214.971 46.3125 214.88 45.9412L216.007 45.1472C216.178 45.0149 216.378 44.8565 216.608 44.6719L217.618 43.8564C217.711 43.7768 217.853 43.6638 218.043 43.5175C218.049 43.7111 218.073 43.9035 218.114 44.0927C218.168 44.3407 218.269 44.576 218.411 44.7863C218.535 44.9743 218.717 45.1181 218.93 45.1968C219.133 45.2716 219.355 45.2852 219.566 45.2361C219.692 45.2084 219.81 45.1542 219.913 45.0772C220.019 44.9941 220.097 44.8827 220.14 44.7566C220.192 44.6079 220.21 44.4497 220.192 44.2938C220.176 44.1239 220.149 43.9552 220.112 43.7887C220.091 43.6966 220.061 43.571 220.021 43.412C219.981 43.2531 219.935 43.0569 219.881 42.8235L217.94 43.1791L214.411 43.8919L214.258 43.1752C214.231 43.0613 214.174 42.8298 214.088 42.4806Z" fill="black"/>
<path d="M215.423 48.3435C216.07 48.5324 216.864 48.7457 217.807 48.9832L220.446 49.6574C221.262 49.869 221.965 50.0385 222.554 50.1659C222.639 50.5666 222.7 50.8498 222.738 51.0156C222.805 51.3075 222.873 51.5924 222.943 51.8703L221.18 52.9643L217.548 55.2976L217.079 55.6127L216.931 54.9204C216.895 54.7609 216.83 54.4933 216.738 54.1176C216.999 53.9808 217.347 53.7793 217.781 53.5134C218.216 53.2474 218.568 53.0257 218.835 52.8483L218.283 50.4242C217.459 50.2343 216.623 50.0568 215.775 49.8917L215.614 49.1398C215.581 48.9978 215.517 48.7324 215.423 48.3435ZM219.35 50.6122L219.752 52.3772L221.752 51.1591L220.88 50.9656L219.35 50.6122Z" fill="black"/>
<path d="M217.401 57.0262L218.529 56.8564L221.011 56.4122L222.806 56.0616C222.968 56.0277 223.133 55.992 223.298 55.9545C223.42 55.9268 223.602 55.8836 223.844 55.8249C223.927 56.2195 223.997 56.5396 224.053 56.7851C224.098 56.9807 224.165 57.253 224.254 57.6018C224.344 57.9506 224.412 58.2275 224.458 58.4325C224.542 58.7442 224.582 59.0661 224.578 59.3891C224.56 59.6106 224.493 59.8259 224.382 60.0201C224.272 60.2126 224.119 60.3782 223.935 60.5043C223.72 60.6515 223.478 60.7561 223.223 60.8122C222.838 60.9046 222.434 60.8884 222.059 60.7652C221.689 60.6457 221.367 60.4172 221.135 60.1106C220.885 59.7818 220.712 59.4031 220.626 59.0006C220.576 58.7759 220.548 58.5472 220.54 58.3172C220.849 58.1757 221.135 58.0297 221.4 57.8791C221.402 58.074 221.425 58.268 221.468 58.458C221.514 58.6851 221.605 58.9008 221.735 59.0931C221.853 59.2604 222.022 59.386 222.218 59.4519C222.421 59.5221 222.642 59.5325 222.852 59.4817C222.976 59.455 223.093 59.4036 223.196 59.3305C223.291 59.2649 223.366 59.1751 223.413 59.0709C223.458 58.9702 223.48 58.8611 223.479 58.7513C223.472 58.5957 223.45 58.4413 223.411 58.2904C223.372 58.1189 223.33 57.9465 223.283 57.7733C223.237 57.6 223.199 57.446 223.168 57.3112C222.549 57.4137 221.958 57.5195 221.395 57.6285L219.595 57.981C218.958 58.1068 218.491 58.2035 218.195 58.2713C218.082 58.2969 217.921 58.3353 217.71 58.3866L217.566 57.7159C217.548 57.6296 217.493 57.3997 217.401 57.0262Z" fill="black"/>
<path d="M218.835 63.3182C219.924 63.1471 221.038 62.956 222.176 62.7449C223.314 62.5337 224.181 62.3605 224.776 62.2251L225.276 62.1065L225.442 62.8786C225.452 62.9221 225.508 63.1565 225.612 63.5819C223.943 63.8301 221.796 64.2355 219.172 64.7982L219.026 64.1177C219 64.0049 218.936 63.7384 218.835 63.3182Z" fill="black"/>
<path d="M219.634 66.8225L221.29 66.5755L223.346 66.2037L225.385 65.8018C225.473 65.7852 225.705 65.7338 226.083 65.6476C226.154 65.9901 226.224 66.3118 226.293 66.6127C226.344 66.8368 226.416 67.1313 226.509 67.4962C226.602 67.8611 226.679 68.1773 226.74 68.4446C226.818 68.781 226.873 69.1224 226.903 69.4664C226.932 69.7557 226.911 70.048 226.842 70.3312C226.778 70.5807 226.671 70.818 226.527 71.0328C226.387 71.2406 226.216 71.4266 226.02 71.5845C225.813 71.75 225.585 71.8891 225.342 71.9986C225.084 72.1174 224.814 72.2091 224.536 72.2721C224.013 72.3936 223.473 72.419 222.942 72.347C222.439 72.2843 221.962 72.0973 221.553 71.8033C221.168 71.5304 220.863 71.1626 220.668 70.7362C220.46 70.2638 220.3 69.7718 220.191 69.2676L219.843 67.7007C219.821 67.6019 219.751 67.3092 219.634 66.8225ZM220.952 68.0086C220.997 68.2634 221.048 68.5137 221.104 68.7595C221.162 69.019 221.235 69.275 221.322 69.5261C221.392 69.7304 221.483 69.9267 221.595 70.1114C221.711 70.2859 221.86 70.4368 222.034 70.5564C222.222 70.6938 222.435 70.7972 222.66 70.8618C222.897 70.9281 223.143 70.962 223.389 70.9625C223.649 70.9645 223.909 70.9364 224.163 70.8785C224.564 70.8025 224.941 70.6317 225.262 70.3808C225.509 70.1834 225.687 69.9149 225.771 69.6132C225.84 69.202 225.816 68.7812 225.699 68.3817C225.62 68.0339 225.523 67.6378 225.409 67.1931L220.952 68.0086Z" fill="black"/>
<path d="M221.345 74.3401C221.775 74.2712 222.131 74.2062 222.412 74.1452L222.705 74.3066C222.716 74.3138 222.905 74.408 223.271 74.5891L226.533 76.2215L227.594 76.7311L227.53 76.4259L227.504 76.3125L227.417 75.9105L227.257 75.2099C227.126 74.632 226.98 74.072 226.821 73.53C227.068 73.4927 227.332 73.4421 227.613 73.3783C227.666 73.3662 227.739 73.3479 227.832 73.3233C228.008 74.1264 228.199 74.9778 228.404 75.8773L228.759 77.4146L228.955 78.2517C228.609 78.3048 228.258 78.3687 227.901 78.4434L227.479 78.2094C227.396 78.1638 227.311 78.1201 227.223 78.0785L224.803 76.8973L222.725 75.8515L222.804 76.2219C223.041 77.2618 223.197 77.9303 223.271 78.2273C223.345 78.5243 223.433 78.847 223.536 79.1956C223.094 79.2704 222.747 79.3332 222.496 79.3842C222.301 78.5013 222.12 77.693 221.954 76.9592L221.562 75.2605L221.345 74.3401Z" fill="black"/>
</g>
<g clip-path="url(#clip1_7831_3138)">
<rect width="230.39" height="322.002" rx="21.7692" transform="matrix(1 0 -0.22937 0.973339 139.921 80)" fill="url(#paint1_radial_7831_3138)"/>
<path d="M100.604 339.652L101.517 335.778L115.988 341.743L115.075 345.617L100.604 339.652Z" fill="white"/>
<path d="M117.326 336.062L107.851 329.929L110.184 330.016L117.267 330.311C117.267 330.311 118.644 330.467 119.04 328.787L120.479 322.679L120.243 322.548C119.543 323.892 118.64 325.122 117.565 326.195L103.706 326.485L102.755 330.523L116.343 340.231L117.326 336.062Z" fill="white"/>
<path d="M95.1012 362.996L94.2623 366.556L110.034 366.998L110.769 363.881C110.887 363.51 110.883 363.111 110.757 362.742C110.63 362.373 110.389 362.053 110.067 361.828L97.5117 352.767L96.5593 356.808L98.6049 358.131L97.4413 363.068L95.1012 362.996ZM101.426 359.985L106.578 363.351L100.676 363.167L101.426 359.985Z" fill="white"/>
<path d="M108.865 355.762L111.953 357.074C112.626 356.052 113.129 354.929 113.442 353.747C113.896 351.824 114.123 347.057 109.991 346.083C106.104 345.167 104.792 350.515 102.752 350.035C100.712 349.554 102.211 344.834 103.857 343.545L100.633 342.176C99.7183 343.423 99.0763 344.846 98.7479 346.355C98.1249 348.999 98.5689 353.315 102.335 354.202C106.246 355.124 107.887 349.803 109.585 350.203C111.283 350.603 110.181 354.324 108.865 355.762Z" fill="white"/>
<path d="M110.18 330.015L117.267 330.311C117.267 330.311 118.644 330.467 119.04 328.787L120.479 322.679L120.243 322.548C119.205 324.524 117.747 326.252 115.97 327.614C114.291 328.909 112.293 329.738 110.18 330.015Z" fill="#FFA458"/>
<path d="M150.972 110.375C151.134 109.687 151.423 109.08 151.839 108.552C152.256 108.025 152.762 107.611 153.357 107.31C153.956 107.014 154.612 106.865 155.323 106.865H161.126L160.87 107.978H155.156C154.724 107.978 154.331 108.048 153.976 108.188C153.625 108.332 153.315 108.521 153.048 108.756C152.781 108.991 152.562 109.249 152.39 109.529C152.222 109.813 152.104 110.095 152.038 110.375C151.971 110.66 151.957 110.944 151.996 111.228C152.035 111.513 152.131 111.77 152.284 112.001C152.44 112.236 152.663 112.423 152.951 112.563C153.24 112.703 153.598 112.773 154.026 112.773H159.74L159.478 113.886H153.668C152.961 113.886 152.379 113.735 151.921 113.435C151.461 113.138 151.148 112.726 150.98 112.199C150.812 111.671 150.809 111.064 150.972 110.375ZM148.964 118.895C149.113 118.264 149.357 117.696 149.696 117.189C150.035 116.686 150.446 116.27 150.93 115.94C151.417 115.615 151.952 115.403 152.534 115.304L152.45 116.441C151.841 116.585 151.319 116.884 150.887 117.337C150.457 117.794 150.17 118.332 150.024 118.95C149.93 119.35 149.908 119.71 149.96 120.032C150.014 120.357 150.14 120.615 150.336 120.804C150.533 120.994 150.796 121.088 151.126 121.088C151.33 121.088 151.511 121.053 151.672 120.983C151.836 120.917 151.982 120.825 152.112 120.705C152.245 120.59 152.365 120.458 152.472 120.31C152.579 120.161 152.674 120.007 152.759 119.846L153.985 117.578C154.12 117.331 154.271 117.092 154.44 116.861C154.613 116.631 154.808 116.425 155.024 116.243C155.244 116.062 155.49 115.918 155.761 115.811C156.036 115.704 156.342 115.65 156.681 115.65C157.223 115.65 157.652 115.786 157.969 116.058C158.289 116.334 158.496 116.707 158.588 117.176C158.681 117.646 158.655 118.176 158.512 118.765C158.367 119.362 158.131 119.896 157.805 120.365C157.482 120.839 157.085 121.231 156.614 121.54C156.142 121.853 155.616 122.063 155.037 122.17L155.102 121.002C155.49 120.94 155.842 120.802 156.159 120.588C156.479 120.378 156.749 120.114 156.967 119.797C157.19 119.48 157.349 119.131 157.442 118.752C157.532 118.39 157.55 118.062 157.496 117.77C157.442 117.477 157.326 117.244 157.146 117.071C156.971 116.898 156.742 116.812 156.458 116.812C156.179 116.812 155.934 116.89 155.723 117.047C155.517 117.203 155.337 117.395 155.182 117.621C155.03 117.852 154.897 118.077 154.782 118.295L153.881 119.988C153.78 120.182 153.652 120.405 153.495 120.656C153.338 120.911 153.142 121.158 152.908 121.397C152.678 121.636 152.398 121.834 152.069 121.991C151.745 122.147 151.362 122.226 150.922 122.226C150.482 122.226 150.111 122.139 149.808 121.966C149.505 121.797 149.273 121.56 149.112 121.255C148.956 120.95 148.866 120.596 148.842 120.192C148.815 119.789 148.855 119.356 148.964 118.895ZM147.948 124.016H157.091L156.444 126.76C156.423 126.851 156.383 127.01 156.325 127.236C156.268 127.463 156.2 127.679 156.122 127.885C155.866 128.573 155.473 129.148 154.941 129.609C154.412 130.075 153.796 130.425 153.093 130.66C152.39 130.895 151.649 131.012 150.87 131.012C150.092 131.012 149.406 130.895 148.814 130.66C148.221 130.425 147.769 130.075 147.455 129.609C147.145 129.148 147.024 128.573 147.093 127.885C147.116 127.679 147.151 127.461 147.197 127.23C147.246 127.003 147.281 126.847 147.301 126.76L147.948 124.016ZM148.76 125.147L148.38 126.76C148.343 126.917 148.306 127.092 148.269 127.286C148.236 127.479 148.215 127.648 148.207 127.792C148.185 128.279 148.302 128.672 148.557 128.973C148.812 129.274 149.167 129.494 149.621 129.634C150.074 129.774 150.583 129.844 151.146 129.844C151.721 129.844 152.27 129.772 152.79 129.628C153.31 129.488 153.766 129.267 154.159 128.967C154.551 128.666 154.849 128.274 155.052 127.792C155.115 127.648 155.174 127.477 155.23 127.279C155.285 127.082 155.33 126.909 155.365 126.76L155.745 125.147H148.76Z" fill="white"/>
<path d="M168.05 110.468C168.259 109.582 168.636 108.835 169.182 108.225C169.732 107.615 170.402 107.154 171.191 106.84C171.98 106.527 172.842 106.371 173.778 106.371C174.713 106.371 175.502 106.527 176.143 106.84C176.785 107.154 177.235 107.615 177.493 108.225C177.756 108.835 177.783 109.582 177.574 110.468C177.331 111.502 176.859 112.347 176.158 113.002C175.462 113.657 174.628 114.106 173.656 114.349L173.627 113.422C174.396 113.233 175.049 112.893 175.588 112.403C176.127 111.912 176.491 111.267 176.679 110.468C176.843 109.772 176.817 109.193 176.599 108.732C176.382 108.27 176.009 107.922 175.48 107.687C174.955 107.456 174.312 107.337 173.552 107.329C172.791 107.325 172.094 107.438 171.459 107.669C170.824 107.903 170.286 108.254 169.847 108.719C169.41 109.189 169.11 109.772 168.946 110.468C168.757 111.267 168.817 111.912 169.125 112.403C169.437 112.893 169.93 113.233 170.605 113.422L170.139 114.349C169.282 114.106 168.658 113.657 168.266 113.002C167.878 112.347 167.807 111.502 168.05 110.468ZM166.115 118.76C166.21 118.36 166.356 118.01 166.553 117.709C166.75 117.412 166.982 117.159 167.247 116.949C167.511 116.743 167.796 116.576 168.101 116.448C168.411 116.321 168.727 116.228 169.049 116.17C169.376 116.112 169.694 116.084 170.003 116.084H173.775L173.559 116.998H170.061C169.684 116.998 169.327 117.033 168.988 117.103C168.65 117.173 168.342 117.285 168.065 117.437C167.791 117.594 167.56 117.793 167.372 118.037C167.182 118.284 167.046 118.582 166.964 118.933C166.888 119.254 166.878 119.536 166.935 119.779C166.992 120.027 167.106 120.233 167.279 120.397C167.455 120.566 167.685 120.694 167.969 120.78C168.258 120.867 168.595 120.91 168.98 120.91L168.683 121.553C167.98 121.553 167.418 121.434 166.996 121.195C166.574 120.956 166.289 120.626 166.143 120.206C165.996 119.785 165.987 119.303 166.115 118.76ZM165.758 121.003H167.447L167.469 120.91H172.637L172.423 121.819H165.566L165.758 121.003ZM165.042 124.04H171.9L171.707 124.856H170.057L170.31 124.696C170.496 124.77 170.66 124.867 170.801 124.986C170.946 125.106 171.057 125.235 171.134 125.375C171.25 125.548 171.321 125.75 171.347 125.981C171.377 126.212 171.371 126.445 171.329 126.679C171.29 126.914 171.223 127.128 171.126 127.322H170.25C170.371 127.079 170.448 126.813 170.482 126.525C170.517 126.236 170.461 125.971 170.315 125.728C170.189 125.505 170.015 125.338 169.791 125.227C169.572 125.116 169.327 125.042 169.057 125.005C168.79 124.967 168.522 124.949 168.251 124.949H164.828L165.042 124.04ZM163.876 128.989H170.734L170.541 129.805H168.891L169.144 129.644C169.33 129.718 169.493 129.815 169.635 129.934C169.78 130.054 169.891 130.184 169.968 130.324C170.084 130.497 170.155 130.699 170.181 130.929C170.211 131.16 170.205 131.393 170.163 131.628C170.124 131.863 170.057 132.077 169.96 132.27H169.084C169.205 132.027 169.282 131.762 169.316 131.473C169.35 131.185 169.295 130.919 169.149 130.676C169.023 130.454 168.849 130.287 168.625 130.175C168.406 130.064 168.161 129.99 167.89 129.953C167.624 129.916 167.355 129.897 167.085 129.897H163.662L163.876 128.989ZM161.883 136.641C162.036 135.99 162.317 135.425 162.726 134.948C163.134 134.474 163.638 134.105 164.238 133.841C164.837 133.578 165.499 133.446 166.223 133.446C166.972 133.446 167.589 133.576 168.074 133.835C168.559 134.095 168.894 134.459 169.08 134.929C169.264 135.403 169.281 135.961 169.13 136.604C168.974 137.263 168.685 137.825 168.262 138.291C167.843 138.756 167.316 139.109 166.68 139.348C166.044 139.587 165.326 139.696 164.526 139.675L164.745 138.748H165.075C165.968 138.732 166.683 138.544 167.22 138.186C167.757 137.832 168.105 137.312 168.267 136.628C168.436 135.912 168.326 135.362 167.938 134.978C167.549 134.599 166.912 134.41 166.027 134.41C165.164 134.41 164.448 134.599 163.881 134.978C163.316 135.362 162.952 135.903 162.787 136.604C162.674 137.082 162.688 137.498 162.829 137.852C162.973 138.211 163.235 138.493 163.614 138.699L163.078 139.545C162.543 139.282 162.171 138.892 161.962 138.377C161.757 137.867 161.73 137.288 161.883 136.641ZM165.843 134.088H166.624L165.422 139.187H164.641L165.843 134.088ZM159.825 146.181H163.324C163.704 146.181 164.062 146.146 164.396 146.075C164.734 146.005 165.04 145.892 165.314 145.736C165.591 145.583 165.825 145.383 166.014 145.136C166.203 144.893 166.338 144.596 166.421 144.246C166.496 143.925 166.506 143.641 166.45 143.393C166.393 143.15 166.277 142.944 166.101 142.775C165.928 142.611 165.699 142.485 165.415 142.398C165.13 142.312 164.794 142.269 164.404 142.269L164.702 141.626C165.404 141.626 165.967 141.745 166.389 141.984C166.811 142.223 167.095 142.553 167.241 142.973C167.388 143.393 167.397 143.875 167.269 144.419C167.175 144.819 167.029 145.167 166.832 145.464C166.634 145.764 166.403 146.018 166.139 146.224C165.873 146.434 165.586 146.603 165.276 146.731C164.971 146.858 164.655 146.951 164.328 147.009C164.006 147.066 163.69 147.095 163.381 147.095H159.609L159.825 146.181ZM160.962 141.354H167.82L167.626 142.176H165.937L165.915 142.269H160.747L160.962 141.354ZM158.281 151.926C158.439 151.254 158.727 150.686 159.146 150.22C159.565 149.755 160.074 149.4 160.673 149.157C161.275 148.918 161.931 148.795 162.64 148.786C163.357 148.795 163.958 148.922 164.441 149.169C164.929 149.417 165.269 149.773 165.459 150.239C165.654 150.704 165.674 151.269 165.517 151.932C165.358 152.608 165.051 153.195 164.594 153.693C164.137 154.196 163.593 154.54 162.961 154.725L162.878 153.835C163.326 153.679 163.702 153.43 164.007 153.088C164.315 152.75 164.521 152.363 164.624 151.926C164.739 151.435 164.718 151.03 164.561 150.708C164.409 150.387 164.145 150.148 163.772 149.991C163.398 149.835 162.945 149.755 162.412 149.75C161.589 149.759 160.885 149.944 160.3 150.307C159.72 150.669 159.345 151.209 159.176 151.926C159.069 152.379 159.084 152.764 159.221 153.081C159.361 153.403 159.617 153.646 159.989 153.811L159.494 154.725C158.943 154.478 158.563 154.116 158.353 153.638C158.149 153.16 158.124 152.589 158.281 151.926ZM154.179 157.206L157.475 158.497L156.404 158.516L164.464 155.593L164.237 156.557L157.507 158.955L157.6 158.559L163.244 160.772L163.025 161.699L153.965 158.114L154.179 157.206Z" fill="white"/>
<path d="M250.863 106.701H252.527L251.763 109.94H240.099L240.522 108.149H250.522L250.863 106.701ZM241.774 113.36C242.424 114.357 242.965 115.141 243.395 115.712C243.834 116.293 244.318 116.776 244.846 117.16C245.374 117.544 245.948 117.736 246.566 117.736C247.206 117.736 247.743 117.586 248.177 117.285C248.608 116.994 248.898 116.532 249.047 115.899C249.192 115.286 249.102 114.808 248.777 114.466C248.461 114.134 247.969 113.957 247.302 113.936L247.705 112.223C248.914 112.254 249.759 112.607 250.24 113.282C250.729 113.968 250.85 114.834 250.603 115.883C250.336 117.015 249.808 117.897 249.019 118.531C248.227 119.174 247.298 119.496 246.232 119.496C245.464 119.496 244.767 119.304 244.143 118.92C243.527 118.546 242.999 118.094 242.559 117.565C242.126 117.046 241.638 116.381 241.092 115.572L240.618 114.871L239.454 119.808H237.934L239.718 112.239H241.046L241.774 113.36ZM246.198 121.336C247.175 121.398 247.862 121.767 248.257 122.442C248.651 123.127 248.722 123.999 248.473 125.058C248.302 125.785 248.02 126.413 247.629 126.942C247.237 127.472 246.78 127.872 246.258 128.142C245.736 128.412 245.187 128.547 244.611 128.547C243.949 128.547 243.424 128.375 243.036 128.033C242.647 127.69 242.429 127.28 242.382 126.802H242.318C241.981 127.415 241.517 127.892 240.924 128.235C240.342 128.578 239.656 128.749 238.867 128.749C238.238 128.749 237.711 128.609 237.286 128.329C236.862 128.048 236.57 127.633 236.412 127.083C236.264 126.532 236.281 125.873 236.462 125.105C236.726 123.984 237.237 123.06 237.995 122.333C238.761 121.616 239.705 121.232 240.827 121.18L240.423 122.893C239.848 122.935 239.334 123.148 238.881 123.532C238.438 123.916 238.14 124.435 237.986 125.089C237.836 125.723 237.897 126.211 238.169 126.553C238.45 126.896 238.874 127.067 239.439 127.067C240.186 127.067 240.769 126.833 241.189 126.366C241.616 125.909 241.943 125.203 242.168 124.248L242.263 123.843H243.767L243.668 124.264C243.481 125.105 243.474 125.743 243.649 126.179C243.821 126.626 244.205 126.849 244.803 126.849C245.315 126.849 245.758 126.688 246.133 126.366C246.518 126.044 246.78 125.588 246.92 124.996C247.057 124.414 247.008 123.963 246.775 123.641C246.552 123.319 246.224 123.127 245.791 123.065L246.198 121.336ZM237.711 130.396H239.087L245.566 135.629L245.059 137.778H237.555L237.214 139.226H235.63L235.971 137.778H233.539L233.95 136.033H236.382L237.711 130.396ZM243.596 136.111L238.814 132.436L237.948 136.111H243.596ZM240.269 152.062L241.499 146.845H238.315C238.562 147.063 238.737 147.385 238.839 147.811C238.939 148.247 238.932 148.709 238.817 149.197C238.611 150.069 238.253 150.775 237.741 151.315C237.228 151.865 236.651 152.254 236.01 152.483C235.367 152.721 234.72 152.841 234.07 152.841C233.28 152.841 232.612 152.69 232.064 152.389C231.525 152.098 231.149 151.657 230.936 151.065C230.721 150.484 230.714 149.768 230.915 148.916C231.181 147.785 231.683 146.876 232.421 146.191C233.158 145.506 234.018 145.096 234.999 144.961L234.591 146.689C234.063 146.803 233.603 147.058 233.212 147.452C232.831 147.847 232.57 148.34 232.431 148.932C232.257 149.669 232.357 150.219 232.73 150.583C233.101 150.956 233.664 151.143 234.422 151.143C235.19 151.143 235.821 150.956 236.314 150.583C236.818 150.209 237.156 149.659 237.327 148.932C237.447 148.423 237.415 147.992 237.232 147.639C237.056 147.297 236.763 147.047 236.352 146.892L236.748 145.21H243.484L241.869 152.062H240.269ZM237.076 160.794C237.593 160.679 238.01 160.472 238.326 160.171C238.643 159.87 238.865 159.449 238.992 158.909C239.185 158.089 239.004 157.477 238.449 157.072C237.904 156.667 236.888 156.454 235.399 156.433C235.805 156.703 236.075 157.098 236.208 157.617C236.342 158.136 236.338 158.696 236.196 159.299C236.035 159.984 235.738 160.586 235.306 161.105C234.883 161.635 234.349 162.045 233.704 162.335C233.057 162.636 232.334 162.787 231.534 162.787C230.787 162.787 230.155 162.642 229.637 162.351C229.116 162.071 228.751 161.65 228.542 161.09C228.343 160.529 228.337 159.854 228.523 159.065C228.775 157.996 229.213 157.155 229.838 156.542C230.47 155.94 231.258 155.514 232.202 155.265C233.144 155.026 234.276 154.907 235.599 154.907C239.503 154.907 241.139 156.246 240.508 158.925C240.263 159.963 239.783 160.778 239.068 161.37C238.35 161.972 237.557 162.325 236.69 162.429L237.076 160.794ZM234.752 158.909C234.901 158.276 234.831 157.736 234.541 157.29C234.26 156.854 233.752 156.636 233.016 156.636C232.28 156.636 231.645 156.838 231.112 157.243C230.588 157.658 230.239 158.234 230.065 158.972C229.911 159.626 229.998 160.14 230.326 160.513C230.651 160.897 231.161 161.09 231.854 161.09C232.579 161.09 233.199 160.903 233.714 160.529C234.237 160.166 234.583 159.626 234.752 158.909ZM235.76 171.876L226.524 167.546L226.946 165.755L235.979 170.131L237.337 164.369H238.889L237.12 171.876H235.76ZM230.791 175.311C231.6 174.231 232.602 173.691 233.796 173.691C234.372 173.691 234.867 173.831 235.281 174.112C235.695 174.392 235.975 174.812 236.12 175.373C236.276 175.934 236.258 176.619 236.068 177.429C235.879 178.228 235.575 178.908 235.155 179.469C234.743 180.04 234.264 180.466 233.718 180.746C233.172 181.026 232.611 181.166 232.035 181.166C231.437 181.166 230.945 181.016 230.557 180.715C230.178 180.424 229.923 180.035 229.792 179.547C229.429 180.139 228.951 180.606 228.358 180.948C227.776 181.291 227.144 181.462 226.461 181.462C225.768 181.462 225.195 181.291 224.742 180.948C224.29 180.606 223.991 180.128 223.848 179.516C223.704 178.903 223.724 178.207 223.908 177.429C224.091 176.65 224.399 175.954 224.831 175.342C225.261 174.74 225.783 174.267 226.397 173.925C227.011 173.582 227.665 173.411 228.358 173.411C229.052 173.411 229.609 173.582 230.029 173.925C230.45 174.267 230.704 174.729 230.791 175.311ZM232.211 179.469C232.808 179.469 233.31 179.287 233.715 178.924C234.121 178.56 234.398 178.062 234.548 177.429C234.694 176.806 234.651 176.313 234.416 175.949C234.182 175.586 233.761 175.404 233.153 175.404C232.619 175.404 232.138 175.591 231.709 175.965C231.287 176.349 231.007 176.837 230.868 177.429C230.728 178.021 230.784 178.508 231.035 178.893C231.285 179.277 231.677 179.469 232.211 179.469ZM229.492 177.429C229.653 176.744 229.609 176.183 229.36 175.747C229.119 175.321 228.673 175.108 228.022 175.108C227.414 175.108 226.869 175.316 226.388 175.731C225.916 176.147 225.596 176.712 225.428 177.429C225.261 178.135 225.322 178.69 225.611 179.095C225.897 179.51 226.339 179.718 226.936 179.718C227.576 179.718 228.122 179.505 228.575 179.08C229.024 178.664 229.33 178.114 229.492 177.429ZM224.499 189.583C223.942 189.687 223.484 189.91 223.126 190.253C222.767 190.595 222.52 191.057 222.383 191.639C222.209 192.376 222.381 192.916 222.897 193.259C223.414 193.601 224.392 193.772 225.832 193.772C225.528 193.523 225.329 193.17 225.234 192.713C225.147 192.267 225.166 191.779 225.291 191.25C225.45 190.575 225.733 189.962 226.14 189.412C226.557 188.862 227.081 188.426 227.712 188.104C228.351 187.792 229.07 187.637 229.87 187.637C231.043 187.637 231.898 187.969 232.435 188.633C232.98 189.308 233.114 190.232 232.838 191.405C232.505 192.817 231.784 193.819 230.674 194.411C229.572 195.013 228.023 195.314 226.029 195.314C224.653 195.314 223.554 195.2 222.734 194.972C221.91 194.754 221.339 194.369 221.021 193.819C220.703 193.269 220.659 192.506 220.889 191.53C221.15 190.419 221.651 189.562 222.39 188.96C223.129 188.358 223.961 188.021 224.885 187.948L224.499 189.583ZM226.753 191.561C226.606 192.184 226.689 192.672 227 193.025C227.32 193.388 227.81 193.57 228.472 193.57C229.208 193.57 229.824 193.378 230.32 192.994C230.824 192.62 231.153 192.106 231.307 191.452C231.461 190.798 231.37 190.279 231.034 189.895C230.706 189.521 230.201 189.334 229.518 189.334C228.867 189.334 228.286 189.516 227.774 189.879C227.27 190.253 226.929 190.813 226.753 191.561ZM229.578 197.024H231.242L230.479 200.263H218.815L219.237 198.472H229.237L229.578 197.024ZM224.224 202.702C226.069 202.702 227.438 203.003 228.331 203.605C229.232 204.218 229.508 205.266 229.158 206.751C228.808 208.236 228.039 209.279 226.852 209.881C225.673 210.494 224.161 210.8 222.316 210.8C220.449 210.8 219.06 210.494 218.148 209.881C217.245 209.279 216.968 208.236 217.318 206.751C217.668 205.266 218.437 204.218 219.627 203.605C220.825 203.003 222.357 202.702 224.224 202.702ZM222.727 209.056C223.591 209.056 224.335 208.999 224.959 208.885C225.581 208.781 226.117 208.563 226.569 208.23C227.031 207.898 227.34 207.405 227.494 206.751C227.648 206.097 227.572 205.604 227.266 205.271C226.971 204.939 226.539 204.716 225.968 204.602C225.395 204.498 224.677 204.446 223.813 204.446C222.917 204.446 222.153 204.498 221.52 204.602C220.888 204.706 220.346 204.924 219.894 205.256C219.44 205.599 219.136 206.097 218.982 206.751C218.828 207.405 218.898 207.898 219.193 208.23C219.486 208.573 219.924 208.796 220.507 208.9C221.091 209.004 221.831 209.056 222.727 209.056ZM225.944 212.445H227.608L226.845 215.684H215.181L215.603 213.893H225.603L225.944 212.445ZM223.708 221.935H225.372L224.608 225.174H212.944L213.366 223.383H223.366L223.708 221.935ZM214.618 228.594C215.269 229.591 215.809 230.375 216.24 230.946C216.679 231.527 217.163 232.01 217.691 232.394C218.219 232.778 218.792 232.971 219.411 232.971C220.051 232.971 220.588 232.82 221.021 232.519C221.453 232.228 221.743 231.766 221.892 231.133C222.036 230.52 221.946 230.043 221.622 229.7C221.305 229.368 220.814 229.191 220.146 229.171L220.55 227.458C221.759 227.489 222.604 227.842 223.085 228.517C223.574 229.202 223.695 230.069 223.448 231.117C223.181 232.249 222.653 233.131 221.864 233.765C221.072 234.408 220.143 234.73 219.076 234.73C218.308 234.73 217.612 234.538 216.988 234.154C216.372 233.78 215.844 233.329 215.403 232.799C214.971 232.28 214.482 231.616 213.937 230.806L213.462 230.105L212.299 235.042H210.779L212.562 227.473H213.89L214.618 228.594ZM219.043 236.57C220.02 236.633 220.706 237.001 221.102 237.676C221.495 238.361 221.567 239.233 221.318 240.292C221.146 241.019 220.865 241.647 220.474 242.177C220.082 242.706 219.625 243.106 219.103 243.376C218.581 243.646 218.032 243.781 217.456 243.781C216.794 243.781 216.269 243.609 215.881 243.267C215.492 242.924 215.274 242.514 215.227 242.037H215.163C214.826 242.649 214.362 243.127 213.769 243.469C213.187 243.812 212.501 243.983 211.712 243.983C211.082 243.983 210.555 243.843 210.131 243.563C209.706 243.282 209.415 242.867 209.256 242.317C209.109 241.767 209.126 241.107 209.307 240.339C209.571 239.218 210.082 238.294 210.84 237.567C211.606 236.851 212.55 236.466 213.671 236.415L213.268 238.128C212.693 238.169 212.178 238.382 211.725 238.766C211.283 239.15 210.984 239.669 210.83 240.323C210.681 240.957 210.742 241.445 211.013 241.787C211.295 242.13 211.719 242.301 212.284 242.301C213.031 242.301 213.614 242.068 214.033 241.601C214.461 241.144 214.787 240.438 215.012 239.483L215.108 239.078H216.612L216.513 239.498C216.325 240.339 216.319 240.978 216.493 241.414C216.665 241.86 217.05 242.083 217.648 242.083C218.16 242.083 218.603 241.922 218.977 241.601C219.362 241.279 219.625 240.822 219.764 240.23C219.901 239.649 219.853 239.197 219.62 238.875C219.397 238.553 219.069 238.361 218.635 238.299L219.043 236.57ZM210.556 245.63H211.932L218.411 250.863L217.904 253.012H210.4L210.059 254.46H208.475L208.816 253.012H206.384L206.795 251.268H209.227L210.556 245.63ZM216.441 251.346L211.659 247.67L210.793 251.346H216.441Z" fill="white"/>
<path d="M338.067 117.926C338.033 118.048 338.05 118.179 338.113 118.29C338.176 118.401 338.281 118.483 338.405 118.519L340.456 119.075C340.581 119.107 340.713 119.09 340.824 119.026C340.935 118.962 341.015 118.857 341.047 118.735L341.222 118.092C341.224 118.065 341.228 118.039 341.235 118.013L341.615 116.615C341.619 116.597 341.625 116.579 341.632 116.562C341.675 116.453 341.757 116.364 341.863 116.311C341.969 116.258 342.091 116.246 342.206 116.275L343.36 116.588C343.484 116.618 343.614 116.599 343.723 116.535C343.831 116.471 343.91 116.367 343.941 116.246L344.321 114.848C344.355 114.726 344.338 114.595 344.275 114.484C344.212 114.373 344.107 114.291 343.983 114.256L342.778 113.929C342.653 113.897 342.521 113.914 342.41 113.978C342.299 114.042 342.219 114.146 342.187 114.269L341.807 115.667C341.775 115.789 341.695 115.894 341.584 115.958C341.473 116.022 341.341 116.039 341.217 116.007L339.283 115.482C339.222 115.465 339.164 115.436 339.114 115.397C339.064 115.358 339.022 115.309 338.991 115.254C338.959 115.199 338.939 115.139 338.931 115.076C338.923 115.014 338.928 114.951 338.945 114.89L339.762 111.88C339.796 111.758 339.779 111.627 339.716 111.516C339.653 111.405 339.548 111.323 339.424 111.288L336.641 110.533C336.517 110.501 336.385 110.518 336.274 110.582C336.163 110.646 336.083 110.75 336.05 110.873L335.234 113.883C335.217 113.944 335.212 114.007 335.22 114.069C335.227 114.132 335.248 114.192 335.279 114.247C335.31 114.302 335.352 114.351 335.403 114.39C335.453 114.429 335.51 114.458 335.572 114.475L338.306 115.217C338.429 115.252 338.534 115.334 338.598 115.445C338.661 115.556 338.677 115.686 338.644 115.808L338.067 117.926Z" fill="#3354CC"/>
<path d="M338.538 125.665L339.747 121.212C339.796 121.029 339.769 120.834 339.673 120.67C339.577 120.505 339.42 120.384 339.234 120.333L334.696 119.102C334.527 119.056 334.381 118.952 334.284 118.808C334.188 118.664 334.147 118.49 334.171 118.32C334.174 118.29 334.18 118.26 334.188 118.231L335.006 115.217C335.03 115.046 334.989 114.872 334.893 114.728C334.796 114.583 334.649 114.478 334.48 114.433L331.419 113.602C331.235 113.552 331.039 113.576 330.874 113.669C330.709 113.762 330.588 113.917 330.539 114.098L329.744 117.025C329.695 117.206 329.575 117.36 329.411 117.452C329.246 117.545 329.05 117.569 328.867 117.52L327.388 117.118C327.265 117.085 327.137 117.075 327.01 117.091C326.884 117.106 326.762 117.146 326.652 117.208C326.542 117.27 326.445 117.353 326.368 117.452C326.291 117.552 326.234 117.665 326.201 117.787L325.823 119.181C325.79 119.302 325.782 119.428 325.798 119.553C325.815 119.678 325.856 119.798 325.92 119.907C325.984 120.017 326.069 120.113 326.17 120.19C326.271 120.267 326.386 120.324 326.509 120.357L327.854 120.722C328.103 120.789 328.367 120.756 328.59 120.631C328.812 120.506 328.974 120.298 329.041 120.054L329.437 118.593C329.487 118.412 329.607 118.259 329.771 118.166C329.936 118.074 330.131 118.049 330.315 118.099L333.159 118.871C333.342 118.921 333.499 119.04 333.594 119.204C333.689 119.367 333.715 119.56 333.666 119.741L332.504 124.026C332.454 124.209 332.481 124.404 332.577 124.569C332.673 124.734 332.831 124.855 333.017 124.905L337.652 126.163C337.838 126.213 338.035 126.189 338.201 126.095C338.367 126.002 338.489 125.847 338.538 125.665Z" fill="#3354CC"/>
<path d="M314.336 162.287C314.597 162.326 314.785 162.35 314.901 162.362C314.781 162.503 314.702 162.645 314.663 162.788C314.652 162.831 314.645 162.877 314.645 162.926C314.643 162.974 314.646 163.02 314.656 163.064C314.663 163.093 314.675 163.124 314.694 163.156C314.711 163.189 314.748 163.238 314.803 163.302C314.858 163.365 314.913 163.423 314.97 163.474C315.018 163.516 315.08 163.563 315.156 163.614L316.834 163.506L318.027 163.419C317.976 163.594 317.94 163.721 317.919 163.798C317.895 163.887 317.865 164.004 317.829 164.15C317.68 164.147 317.55 164.147 317.439 164.15L316.582 164.174C316.319 164.182 316.121 164.185 315.99 164.184C315.904 164.182 315.79 164.177 315.65 164.168C315.79 164.26 315.902 164.337 315.988 164.4C316.145 164.513 316.354 164.668 316.614 164.865L317.15 165.273C317.246 165.346 317.35 165.422 317.462 165.501C317.418 165.651 317.385 165.766 317.363 165.845C317.344 165.917 317.313 166.039 317.27 166.209L315.358 164.649L314.511 163.967C314.403 163.874 314.322 163.792 314.267 163.719C314.22 163.66 314.183 163.598 314.155 163.535C314.128 163.473 314.109 163.41 314.098 163.346C314.084 163.265 314.078 163.179 314.081 163.09C314.087 162.988 314.103 162.889 314.129 162.791C314.144 162.736 314.17 162.66 314.207 162.564C314.244 162.467 314.287 162.375 314.336 162.287Z" fill="black"/>
<path d="M316.145 162.468C316.052 162.419 315.882 162.34 315.636 162.23C315.646 162.038 315.662 161.878 315.682 161.75C315.702 161.622 315.73 161.495 315.764 161.369C315.824 161.149 315.899 160.957 315.99 160.794C316.081 160.633 316.202 160.502 316.353 160.403C316.507 160.304 316.677 160.246 316.863 160.23C317.05 160.214 317.236 160.231 317.423 160.282C317.63 160.338 317.82 160.428 317.994 160.553C318.169 160.678 318.3 160.822 318.388 160.985C318.477 161.149 318.524 161.322 318.529 161.502C318.536 161.682 318.515 161.863 318.466 162.045C318.419 162.216 318.353 162.374 318.267 162.516C318.183 162.66 318.078 162.77 317.953 162.848C317.827 162.927 317.687 162.976 317.534 162.994C317.382 163.014 317.223 163.001 317.055 162.956C316.976 162.934 316.896 162.904 316.817 162.864L317.316 161.016C317.254 160.996 317.205 160.98 317.168 160.97C317.056 160.94 316.947 160.931 316.843 160.944C316.738 160.957 316.643 160.992 316.557 161.048C316.472 161.104 316.399 161.179 316.339 161.273C316.281 161.367 316.239 161.464 316.212 161.563C316.18 161.679 316.159 161.808 316.148 161.949C316.136 162.092 316.135 162.265 316.145 162.468ZM317.605 161.116L317.283 162.295C317.363 162.317 317.424 162.331 317.464 162.336C317.504 162.342 317.551 162.342 317.604 162.336C317.659 162.333 317.709 162.322 317.755 162.301C317.801 162.282 317.843 162.255 317.879 162.221C317.915 162.188 317.947 162.146 317.975 162.096C318.003 162.048 318.025 161.993 318.041 161.933C318.06 161.862 318.068 161.79 318.065 161.717C318.061 161.646 318.045 161.576 318.018 161.509C317.991 161.443 317.956 161.384 317.914 161.335C317.871 161.287 317.827 161.248 317.783 161.218C317.741 161.189 317.681 161.155 317.605 161.116Z" fill="black"/>
<path d="M317.098 156.698C317.469 156.84 317.889 156.988 318.358 157.143C318.826 157.299 319.248 157.429 319.623 157.535C319.578 157.689 319.543 157.812 319.518 157.904C319.488 158.013 319.458 158.13 319.428 158.253L319.007 158.109C319.067 158.182 319.114 158.243 319.147 158.293C319.18 158.346 319.209 158.408 319.234 158.48C319.26 158.553 319.275 158.628 319.282 158.704C319.288 158.781 319.287 158.865 319.279 158.954C319.27 159.046 319.253 159.139 319.228 159.233C319.187 159.382 319.129 159.52 319.053 159.646C318.979 159.773 318.889 159.868 318.784 159.93C318.679 159.992 318.574 160.023 318.469 160.023C318.364 160.024 318.257 160.009 318.148 159.979C318.103 159.967 318.031 159.945 317.933 159.913L316.846 159.561C316.695 159.513 316.533 159.464 316.36 159.416C316.4 159.284 316.432 159.171 316.458 159.077C316.492 158.949 316.526 158.82 316.557 158.69C316.7 158.743 316.95 158.829 317.308 158.947C317.667 159.066 317.905 159.142 318.023 159.174C318.156 159.21 318.268 159.218 318.36 159.198C318.452 159.178 318.531 159.129 318.598 159.051C318.663 158.975 318.71 158.886 318.738 158.783C318.765 158.682 318.771 158.583 318.757 158.485C318.742 158.387 318.706 158.296 318.649 158.212C318.592 158.125 318.513 158.047 318.412 157.98C318.305 157.91 318.118 157.828 317.853 157.737C317.617 157.655 317.299 157.554 316.898 157.434C316.937 157.306 316.97 157.189 316.998 157.085C317.027 156.979 317.06 156.85 317.098 156.698Z" fill="black"/>
<path d="M320.208 155.616C320.155 155.809 320.076 155.986 319.969 156.146C319.864 156.309 319.737 156.436 319.589 156.528C319.443 156.622 319.279 156.677 319.098 156.695C318.918 156.713 318.737 156.697 318.555 156.648C318.364 156.596 318.188 156.513 318.027 156.399C317.867 156.285 317.738 156.148 317.641 155.988C317.545 155.829 317.49 155.647 317.475 155.442C317.461 155.24 317.483 155.034 317.54 154.824C317.593 154.629 317.672 154.451 317.777 154.29C317.883 154.131 318.011 154.005 318.161 153.913C318.311 153.82 318.477 153.763 318.662 153.743C318.845 153.724 319.028 153.739 319.209 153.788C319.394 153.839 319.563 153.916 319.715 154.02C319.867 154.125 319.992 154.257 320.089 154.417C320.186 154.578 320.244 154.767 320.264 154.981C320.283 155.196 320.264 155.407 320.208 155.616ZM319.688 155.475C319.728 155.328 319.728 155.188 319.687 155.052C319.647 154.919 319.565 154.804 319.439 154.709C319.313 154.615 319.166 154.545 319 154.5C318.854 154.461 318.717 154.448 318.591 154.462C318.464 154.478 318.351 154.529 318.252 154.614C318.153 154.701 318.083 154.816 318.044 154.961C318.004 155.109 318.005 155.248 318.047 155.379C318.091 155.511 318.175 155.624 318.302 155.718C318.429 155.814 318.578 155.885 318.75 155.932C318.889 155.97 319.022 155.982 319.148 155.97C319.274 155.957 319.386 155.908 319.483 155.822C319.58 155.738 319.648 155.623 319.688 155.475Z" fill="black"/>
<path d="M319.204 148.93L319.756 149.15L321.712 149.859L322.566 150.153C322.498 150.393 322.448 150.568 322.418 150.679C322.394 150.768 322.352 150.93 322.291 151.167C322.148 151.157 322.046 151.151 321.985 151.148C321.924 151.146 321.825 151.148 321.689 151.152C321.552 151.157 321.386 151.165 321.19 151.176C320.893 151.192 320.603 151.198 320.318 151.197L319.545 151.193L320.379 151.782L321.448 152.6C321.483 152.627 321.525 152.657 321.573 152.688C321.621 152.721 321.708 152.777 321.833 152.856C321.775 153.055 321.725 153.232 321.683 153.389C321.655 153.493 321.611 153.66 321.552 153.889C321.075 153.734 320.544 153.572 319.961 153.401C319.379 153.23 318.944 153.106 318.655 153.027C318.515 152.989 318.34 152.944 318.129 152.89C318.178 152.725 318.21 152.612 318.227 152.551C318.25 152.464 318.28 152.347 318.316 152.202C318.485 152.258 318.624 152.303 318.734 152.337L320.222 152.787C320.433 152.849 320.64 152.908 320.845 152.964L321.05 153.017L318.85 151.421L318.579 151.231C318.627 151.069 318.659 150.958 318.675 150.897C318.696 150.822 318.726 150.703 318.767 150.54L320.437 150.528C320.497 150.528 320.622 150.524 320.814 150.517L321.371 150.5C321.423 150.498 321.466 150.497 321.499 150.497C321.532 150.499 321.606 150.502 321.721 150.506L321.407 150.385C321.307 150.349 321.139 150.29 320.903 150.208L319.367 149.686C319.29 149.661 319.177 149.628 319.026 149.585L319.119 149.261C319.134 149.206 319.162 149.095 319.204 148.93Z" fill="black"/>
<path d="M327.522 168.704L328.172 168.504L328.246 168.23L327.692 168.079L327.738 167.908L329.135 168.287L328.985 168.84C328.974 168.897 328.951 168.951 328.917 168.999C328.883 169.047 328.839 169.087 328.788 169.117C328.738 169.147 328.681 169.166 328.622 169.173C328.563 169.179 328.503 169.174 328.447 169.156C328.344 169.134 328.253 169.073 328.195 168.986C328.137 168.899 328.116 168.793 328.137 168.691L327.467 168.907L327.522 168.704ZM328.495 168.979C328.531 168.989 328.569 168.993 328.606 168.988C328.643 168.984 328.679 168.971 328.711 168.952C328.743 168.933 328.771 168.908 328.792 168.878C328.813 168.847 328.828 168.813 328.835 168.776L328.933 168.416L328.399 168.271L328.301 168.632C328.289 168.667 328.285 168.704 328.288 168.741C328.292 168.778 328.303 168.814 328.321 168.847C328.339 168.879 328.364 168.908 328.394 168.931C328.424 168.953 328.458 168.97 328.495 168.979V168.979Z" fill="black"/>
<path d="M327.04 168.197C327.131 167.864 327.353 167.582 327.655 167.411C327.958 167.241 328.318 167.196 328.656 167.287C328.994 167.379 329.281 167.6 329.456 167.9C329.631 168.2 329.679 168.555 329.59 168.888C329.499 169.221 329.278 169.504 328.976 169.674C328.673 169.845 328.313 169.889 327.975 169.798C327.637 169.706 327.349 169.485 327.174 169.185C326.999 168.885 326.951 168.53 327.04 168.197V168.197ZM329.429 168.845C329.508 168.554 329.467 168.243 329.314 167.98C329.161 167.718 328.908 167.526 328.613 167.445C328.318 167.365 328.003 167.404 327.738 167.553C327.473 167.702 327.28 167.949 327.201 168.24C327.122 168.531 327.164 168.842 327.317 169.105C327.47 169.367 327.722 169.559 328.018 169.64C328.313 169.72 328.628 169.681 328.893 169.532C329.157 169.383 329.35 169.136 329.429 168.845Z" fill="black"/>
<path d="M331.919 128.071C332.814 128.413 333.853 128.768 335.035 129.138C336.217 129.508 337.26 129.815 338.164 130.061C338.059 130.425 337.973 130.729 337.907 130.974C337.835 131.239 337.769 131.499 337.71 131.755C337.65 132.011 337.582 132.281 337.505 132.564C337.422 132.881 337.316 133.191 337.189 133.493C337.082 133.749 336.918 133.977 336.709 134.16C336.524 134.327 336.297 134.444 336.051 134.498C335.798 134.546 335.536 134.533 335.287 134.46C335.121 134.415 334.961 134.35 334.81 134.266C334.667 134.186 334.535 134.087 334.418 133.972C334.306 133.861 334.209 133.735 334.133 133.598C334.064 133.477 334.01 133.348 333.973 133.214C333.94 133.083 333.921 132.949 333.915 132.814C333.908 132.668 333.904 132.475 333.904 132.234L333.209 132.378C332.987 132.425 332.586 132.52 332.008 132.664L331.064 132.902C331.013 132.914 330.853 132.949 330.583 133.007C330.69 132.636 330.759 132.392 330.792 132.273C330.831 132.127 330.898 131.868 330.992 131.498L332.361 131.327C332.573 131.29 332.824 131.244 333.114 131.189L334.389 130.943C334.509 130.917 334.687 130.884 334.923 130.844C334.838 131.018 334.769 131.199 334.716 131.385C334.647 131.629 334.625 131.885 334.653 132.137C334.674 132.362 334.767 132.574 334.918 132.743C335.062 132.905 335.251 133.021 335.461 133.077C335.585 133.111 335.715 133.119 335.842 133.099C335.974 133.076 336.096 133.014 336.192 132.923C336.308 132.816 336.398 132.685 336.456 132.539C336.522 132.381 336.577 132.22 336.622 132.055C336.647 131.964 336.679 131.839 336.719 131.68C336.758 131.521 336.81 131.326 336.872 131.095L334.991 130.497L331.541 129.469L331.742 128.764C331.772 128.651 331.831 128.42 331.919 128.071Z" fill="black"/>
<path d="M330.343 133.873C330.825 134.344 331.427 134.905 332.148 135.558L334.16 137.392C334.781 137.963 335.322 138.442 335.783 138.832C335.669 139.225 335.59 139.504 335.546 139.668C335.467 139.957 335.394 140.241 335.325 140.519L333.254 140.657L328.953 141.011L328.39 141.068L328.585 140.388C328.628 140.23 328.697 139.963 328.792 139.588C329.086 139.59 329.488 139.576 329.997 139.545C330.505 139.514 330.92 139.484 331.239 139.453L331.891 137.053C331.252 136.499 330.598 135.949 329.927 135.405L330.137 134.666C330.175 134.525 330.243 134.261 330.343 133.873ZM332.744 137.72L332.27 139.467L334.608 139.332L333.928 138.751L332.744 137.72Z" fill="black"/>
<path d="M328.011 142.467L329.086 142.847L331.486 143.62L333.235 144.154C333.395 144.2 333.556 144.246 333.72 144.291C333.841 144.323 334.022 144.371 334.263 144.433C334.151 144.82 334.062 145.136 333.997 145.379C333.944 145.572 333.875 145.844 333.791 146.194C333.706 146.544 333.636 146.82 333.58 147.023C333.508 147.338 333.392 147.641 333.237 147.924C333.116 148.111 332.956 148.269 332.768 148.389C332.58 148.507 332.367 148.582 332.146 148.607C331.887 148.636 331.624 148.614 331.372 148.544C330.988 148.444 330.64 148.24 330.366 147.955C330.097 147.676 329.919 147.323 329.858 146.943C329.792 146.536 329.817 146.12 329.93 145.724C329.992 145.503 330.074 145.288 330.175 145.081C330.514 145.101 330.836 145.107 331.14 145.098C331.051 145.271 330.98 145.453 330.928 145.641C330.862 145.863 330.841 146.096 330.866 146.327C330.892 146.53 330.982 146.721 331.124 146.871C331.27 147.028 331.46 147.141 331.669 147.195C331.791 147.229 331.919 147.239 332.044 147.223C332.159 147.21 332.267 147.166 332.357 147.096C332.445 147.028 332.516 146.942 332.566 146.845C332.633 146.704 332.686 146.557 332.723 146.406C332.769 146.236 332.812 146.064 332.853 145.889C332.894 145.715 332.932 145.561 332.968 145.427C332.373 145.227 331.802 145.043 331.254 144.875L329.499 144.34C328.878 144.152 328.42 144.018 328.127 143.939C328.016 143.909 327.855 143.867 327.644 143.813L327.833 143.153C327.857 143.068 327.917 142.84 328.011 142.467Z" fill="black"/>
<path d="M326.321 148.695C327.363 149.056 328.436 149.41 329.54 149.758C330.644 150.107 331.49 150.361 332.079 150.521L332.576 150.651L332.36 151.411C332.348 151.454 332.288 151.687 332.18 152.111C330.59 151.546 328.504 150.896 325.924 150.16L326.114 149.491C326.144 149.379 326.213 149.114 326.321 148.695Z" fill="black"/>
<path d="M325.381 152.165L326.959 152.725L328.948 153.362L330.937 153.965C331.023 153.992 331.252 154.056 331.626 154.157C331.528 154.493 331.438 154.81 331.358 155.108C331.298 155.329 331.223 155.623 331.134 155.989C331.045 156.355 330.964 156.67 330.892 156.935C330.803 157.268 330.691 157.595 330.556 157.913C330.446 158.182 330.29 158.431 330.096 158.648C329.922 158.838 329.717 158.998 329.488 159.12C329.267 159.237 329.029 159.321 328.782 159.369C328.521 159.417 328.254 159.433 327.989 159.416C327.705 159.399 327.423 159.353 327.149 159.279C326.63 159.14 326.141 158.909 325.706 158.596C325.292 158.304 324.958 157.915 324.736 157.464C324.524 157.042 324.427 156.574 324.455 156.106C324.493 155.591 324.583 155.081 324.724 154.585L325.153 153.038C325.18 152.941 325.256 152.65 325.381 152.165ZM325.987 153.831C325.907 154.077 325.834 154.322 325.768 154.565C325.698 154.822 325.642 155.082 325.601 155.345C325.567 155.558 325.555 155.774 325.567 155.99C325.588 156.198 325.648 156.401 325.745 156.588C325.847 156.798 325.986 156.989 326.155 157.152C326.333 157.322 326.534 157.467 326.751 157.584C326.98 157.708 327.222 157.805 327.473 157.873C327.863 157.994 328.277 158.021 328.678 157.95C328.988 157.892 329.272 157.738 329.488 157.511C329.742 157.181 329.918 156.798 330.003 156.39C330.096 156.046 330.197 155.651 330.305 155.205L325.987 153.831Z" fill="black"/>
<path d="M323.359 159.605C323.771 159.746 324.116 159.856 324.393 159.934L324.576 160.214C324.583 160.226 324.705 160.398 324.943 160.73L327.056 163.703L327.753 164.651L327.84 164.351L327.87 164.239L327.982 163.844L328.17 163.15C328.326 162.578 328.46 162.015 328.574 161.462C328.809 161.545 329.066 161.624 329.345 161.7C329.397 161.714 329.47 161.732 329.563 161.754C329.342 162.546 329.11 163.387 328.869 164.278L328.461 165.802L328.24 166.633C327.91 166.517 327.57 166.409 327.22 166.307L326.957 165.902C326.905 165.823 326.851 165.744 326.792 165.666L325.211 163.487L323.867 161.587L323.764 161.952C323.484 162.981 323.308 163.644 323.234 163.941C323.16 164.238 323.086 164.565 323.013 164.921C322.587 164.779 322.252 164.671 322.006 164.599C322.249 163.728 322.469 162.929 322.666 162.203L323.118 160.519L323.359 159.605Z" fill="black"/>
</g>
<defs>
<radialGradient id="paint0_radial_7831_3138" cx="0" cy="0" r="1" gradientUnits="userSpaceOnUse" gradientTransform="translate(30.0981 199.153) rotate(-28.0255) scale(219.976 249.789)">
<stop stop-color="#937F1D"/>
<stop offset="0.604167" stop-color="#CAB031"/>
<stop offset="0.892823" stop-color="#978012"/>
<stop offset="1" stop-color="#C2A411"/>
</radialGradient>
<radialGradient id="paint1_radial_7831_3138" cx="0" cy="0" r="1" gradientUnits="userSpaceOnUse" gradientTransform="translate(30.098 199.154) rotate(-28.0256) scale(219.976 249.789)">
<stop stop-color="#1D5297"/>
<stop offset="0.604167" stop-color="#51AFCE"/>
<stop offset="0.892823" stop-color="#1075AB"/>
<stop offset="1" stop-color="#1888D3"/>
</radialGradient>
<clipPath id="clip0_7831_3138">
<rect width="230.39" height="322.002" fill="white" transform="matrix(1 0 0.22937 0.973339 0.0633545 0.980469)"/>
</clipPath>
<clipPath id="clip1_7831_3138">
<rect width="230.39" height="322.002" fill="white" transform="matrix(1 0 -0.22937 0.973339 139.673 79.7109)"/>
</clipPath>
</defs>
</svg>
