<svg width="35" height="39" viewBox="0 0 35 39" fill="none" xmlns="http://www.w3.org/2000/svg">
<path d="M15.9194 12.4255C16.218 12.4276 16.5053 12.3125 16.7185 12.1056C16.9316 11.8987 17.0533 11.6167 17.0568 11.3213V6.44751C17.0533 6.1521 16.9316 5.87009 16.7185 5.66317C16.5053 5.45625 16.218 5.34128 15.9194 5.34336H14.3514C14.2893 5.35487 14.2263 5.36059 14.1632 5.36047H10.7533C10.7097 5.36148 10.666 5.35965 10.6226 5.355C10.3486 5.32417 10.0953 5.1956 9.91011 4.99337C9.72495 4.79114 9.62061 4.52914 9.61664 4.25632V1.513C9.60799 1.22149 9.4841 0.944928 9.27156 0.742825C9.05902 0.540721 8.77478 0.429207 8.47999 0.432187H5.07006C4.77164 0.430108 4.48451 0.544984 4.2715 0.75176C4.05849 0.958535 3.93694 1.24037 3.93341 1.53558V4.39956C3.93694 4.69484 4.05847 4.97672 4.27145 5.18362C4.48443 5.39052 4.77156 5.50564 5.07006 5.50376H8.47999C8.7786 5.50107 9.06608 5.61576 9.27922 5.82267C9.49237 6.02958 9.61373 6.31176 9.61664 6.60715V11.2014C9.6153 11.3477 9.58486 11.4924 9.52701 11.6271C9.46916 11.7618 9.38506 11.8838 9.27951 11.9864C9.17396 12.0889 9.04903 12.1699 8.91185 12.2246C8.77467 12.2794 8.62791 12.3069 8.47999 12.3056H1.13665C0.838212 12.3039 0.551217 12.419 0.338278 12.6259C0.125339 12.8328 0.00373616 13.1145 0 13.4097V20.0216C0.00373616 20.3168 0.125339 20.5985 0.338278 20.8054C0.551217 21.0122 0.838212 21.1274 1.13665 21.1257H8.47999C8.62791 21.127 8.77467 21.0996 8.91185 21.0448C9.04903 20.99 9.17396 20.909 9.27951 20.8065C9.38506 20.704 9.46916 20.5819 9.52701 20.4472C9.58486 20.3125 9.6153 20.1679 9.61664 20.0216V13.525C9.62037 13.23 9.74191 12.9484 9.9547 12.7417C10.1675 12.535 10.4543 12.4199 10.7525 12.4216L15.9194 12.4255Z" fill="#3354CC"/>
<path d="M33.2123 6.73474H22.3496C21.9044 6.73597 21.4778 6.91141 21.1629 7.22275C20.848 7.53409 20.6705 7.95603 20.669 8.39643V19.182C20.6696 19.5824 20.5223 19.9691 20.2546 20.2695C19.987 20.5698 19.6175 20.763 19.2159 20.8126C19.1459 20.8235 19.0751 20.829 19.0042 20.8289H11.6522C11.2493 20.8787 10.8787 21.0723 10.6101 21.3735C10.3415 21.6746 10.1934 22.0625 10.1936 22.4641V29.7371C10.194 30.175 10.37 30.5949 10.6831 30.9045C10.9961 31.2141 11.4205 31.3883 11.8631 31.3887H19.0034C19.4448 31.3887 19.8682 31.5621 20.1803 31.8708C20.4925 32.1795 20.668 32.5981 20.6682 33.0348V36.5483C20.6675 36.8407 20.7252 37.1304 20.838 37.4007C20.9508 37.6711 21.1165 37.9167 21.3255 38.1235C21.5346 38.3303 21.7829 38.4942 22.0562 38.6058C22.3294 38.7174 22.6223 38.7744 22.9179 38.7737H26.3184C26.6139 38.774 26.9066 38.7167 27.1797 38.6049C27.4528 38.4932 27.7009 38.3293 27.9099 38.1226C28.1189 37.9159 28.2846 37.6704 28.3975 37.4003C28.5105 37.1301 28.5684 36.8406 28.5681 36.5483V33.3518C28.5673 32.7619 28.33 32.1963 27.9082 31.7793C27.4865 31.3622 26.9148 31.1276 26.3184 31.127H22.7558C22.3147 31.1262 21.8919 30.9525 21.58 30.644C21.2681 30.3355 21.0926 29.9172 21.0917 29.4809V22.7227C21.0926 22.2864 21.2681 21.8681 21.58 21.5596C21.8919 21.2511 22.3147 21.0774 22.7558 21.0765H33.2092C33.655 21.0761 34.0824 20.9007 34.3976 20.5889C34.7128 20.2771 34.8901 19.8543 34.8905 19.4133V8.39724C34.8901 7.95685 34.7132 7.53456 34.3987 7.22294C34.0841 6.91132 33.6575 6.73577 33.2123 6.73474Z" fill="#3354CC"/>
</svg>
