<svg width="55" height="33" viewBox="0 0 55 33" fill="none" xmlns="http://www.w3.org/2000/svg">
<path d="M28.0291 6.74799L31.0527 5.73286L32.0918 5.38382V5.39109C33.3411 5.04569 33.4051 5.86666 33.4051 7.30645V25.2588C33.4051 26.708 33.3513 27.4962 32.0918 27.0869V27.0927L31.9428 27.0367C31.9413 27.0367 31.9399 27.0359 31.9384 27.0352L28.7795 25.8572L27.595 23.1631L28.0291 6.74799Z" fill="#263238"/>
<path d="M6.96261 29.1451C6.1889 31.0954 7.61344 32.4152 9.14705 32.5562C10.6807 32.6966 12.0325 30.9187 11.4667 29.3196C10.9003 27.722 10.7665 27.8682 10.7665 27.8682C10.7665 27.8682 10.9374 27.6529 11.1482 27.3875C11.3577 27.1221 11.3577 26.6429 11.1475 26.3171L10.765 25.7267C10.765 25.7267 10.9737 25.4882 11.2319 25.1951C11.4878 24.9021 11.4958 24.4316 11.2479 24.1465L10.7992 23.6295C10.7992 23.6295 10.9468 23.3968 11.1279 23.1103C11.3097 22.8238 11.229 22.3461 10.9483 22.0443L10.4407 21.4967L10.2182 18.7401L6.61938 18.6484C6.61938 18.6484 7.73706 27.1941 6.96261 29.1451Z" fill="#4B4B55"/>
<path d="M3.23667 19.7232C5.02423 19.7232 6.47333 18.2742 6.47333 16.4866C6.47333 14.6991 5.02423 13.25 3.23667 13.25C1.4491 13.25 0 14.6991 0 16.4866C0 18.2742 1.4491 19.7232 3.23667 19.7232Z" fill="#4B4B55"/>
<path d="M30.7137 4.53516V5.46302V27.987L9.23794 19.3541L9.15723 13.6582L30.7137 4.53516Z" fill="#FF7D7D"/>
<path d="M10.7178 12.9648H1.27246V19.9602H10.7178V12.9648Z" fill="#D2BAFF"/>
<path d="M10.7178 17.6953H1.27246V19.9575H10.7178V17.6953Z" fill="#D2BAFF"/>
<path d="M9.1581 18.5547H6.57153V19.1524H9.1581V18.5547Z" fill="#F2F2F2"/>
<path d="M3.23678 14.7597C3.55766 14.7597 3.81779 14.4995 3.81779 14.1787C3.81779 13.8578 3.55766 13.5977 3.23678 13.5977C2.91589 13.5977 2.65576 13.8578 2.65576 14.1787C2.65576 14.4995 2.91589 14.7597 3.23678 14.7597Z" fill="#4B4B55"/>
<path d="M8.83503 32.5092C10.0261 27.0155 8.76013 24.2028 7.05053 22.7695C7.25414 25.2477 7.37195 28.1149 6.96255 29.1453C6.24264 30.9618 7.42939 32.23 8.83503 32.5092Z" fill="#B3B3B3"/>
<path d="M50.581 5.51932C50.3942 5.23863 49.3674 5.0772 49.3674 5.0772L49.1587 5.02412L48.9987 4.93613L48.5886 4.61763C48.5129 4.542 48.433 4.44747 48.4235 4.27877L48.3515 4.32022V3.97263C48.5333 3.75157 48.6897 3.47816 48.8053 3.17202C48.9158 3.18002 49.1201 3.01495 49.2001 2.78444C49.2852 2.53793 49.2721 2.30887 49.1718 2.27324C49.1369 2.26088 49.0961 2.28051 49.054 2.31106C49.0794 2.1569 49.1092 1.95547 49.142 1.64788C49.166 1.43191 48.9514 0.675656 48.8562 0.578943C48.1246 -0.161313 47.2615 -0.0238784 46.7808 0.0924684C46.2071 0.234266 45.7548 0.775278 45.6224 1.24794C45.4966 1.69151 45.5715 2.14017 45.6101 2.31324C45.5672 2.28124 45.525 2.26088 45.4893 2.27324C45.3883 2.30887 45.3745 2.5372 45.4617 2.78444C45.5446 3.02295 45.7613 3.19602 45.8682 3.17348C45.9831 3.47452 46.1344 3.74576 46.3111 3.96609V4.31949L46.2369 4.27659C46.2289 4.4482 46.1467 4.54346 46.0704 4.61981L45.6617 4.96303L45.5868 5.00303L45.2923 5.0772C45.2923 5.0772 44.2662 5.23863 44.0772 5.51932C43.7383 5.73456 43.7136 8.43162 43.7812 8.44253C43.8416 8.45198 46.4012 8.44398 46.887 8.44253C47.5138 8.44398 50.8188 8.45198 50.8792 8.44253C50.9468 8.43235 50.9221 5.73528 50.581 5.51932Z" fill="#263238"/>
<path d="M49.854 28.5591C49.6671 28.2784 48.6403 28.117 48.6403 28.117L48.4316 28.0639L48.2717 27.9759L47.8615 27.6574C47.7859 27.5825 47.7059 27.4873 47.6965 27.3186L47.6245 27.36V27.0117C47.8063 26.7906 47.9626 26.5172 48.0782 26.2111C48.1888 26.2191 48.3931 26.054 48.4731 25.8235C48.5582 25.577 48.5451 25.3479 48.4447 25.3123C48.4098 25.2999 48.3691 25.3196 48.3269 25.3501C48.3524 25.196 48.3822 24.9945 48.4149 24.6869C48.4389 24.471 48.2244 23.7147 48.1291 23.618C47.3976 22.8777 46.5344 23.0152 46.0538 23.1315C45.48 23.2733 45.0277 23.8143 44.8954 24.287C44.7696 24.7306 44.8445 25.1792 44.883 25.3523C44.8401 25.3203 44.7979 25.2999 44.7623 25.3123C44.6612 25.3479 44.6474 25.5763 44.7347 25.8235C44.8176 26.062 45.0343 26.2351 45.1412 26.2125C45.256 26.5136 45.4073 26.7848 45.584 27.0051V27.3586L45.5098 27.3156C45.5018 27.4873 45.4197 27.5825 45.3433 27.6589L44.9346 28.0021L44.8597 28.0421L44.5652 28.117C44.5652 28.117 43.5392 28.2784 43.3501 28.5591C43.0113 28.7743 42.9865 31.4714 43.0542 31.4823C43.1145 31.4918 45.6742 31.4838 46.1599 31.4823C46.7868 31.4838 50.0918 31.4918 50.1521 31.4823C50.2198 31.4714 50.195 28.7743 49.854 28.5591Z" fill="#263238"/>
<path d="M54.7114 16.6485C54.5478 16.4027 53.6483 16.2609 53.6483 16.2609L53.465 16.2151L53.3254 16.138L52.9655 15.8588C52.8993 15.7933 52.8288 15.7097 52.8215 15.5621L52.759 15.5984V15.2937C52.9182 15.0996 53.0549 14.8603 53.1567 14.592C53.2534 14.5986 53.4323 14.4546 53.5029 14.2524C53.5778 14.0357 53.5661 13.8358 53.4789 13.8045C53.4476 13.7936 53.412 13.8103 53.3749 13.8372C53.3974 13.702 53.4229 13.526 53.452 13.2562C53.4723 13.0672 53.2847 12.404 53.2011 12.3196C52.5604 11.671 51.8042 11.7917 51.3831 11.8935C50.8807 12.0179 50.4843 12.4927 50.368 12.9065C50.2575 13.2948 50.3236 13.6882 50.3571 13.8401C50.32 13.811 50.2822 13.7943 50.2517 13.8045C50.1629 13.8358 50.1506 14.0357 50.2277 14.2524C50.2996 14.4611 50.4902 14.6131 50.5832 14.5935C50.6843 14.8567 50.8167 15.0945 50.9708 15.2879V15.5977L50.9068 15.5599C50.8996 15.7097 50.8276 15.794 50.7614 15.8602L50.4029 16.1613L50.3375 16.1962L50.0793 16.2616C50.0793 16.2616 49.1805 16.4034 49.014 16.6492C48.7173 16.8375 48.6955 19.2008 48.7544 19.2103C48.8075 19.2183 51.0508 19.2117 51.4762 19.2103C52.0252 19.2117 54.9209 19.2183 54.9739 19.2103C55.0328 19.2001 55.0103 16.8375 54.7114 16.6485Z" fill="#263238"/>
<path d="M40.0763 8.99277L39.7915 8.39062L34.9605 10.6752L35.2453 11.2773L40.0763 8.99277Z" fill="#DE4739"/>
<path d="M42.058 7.68359L39.643 10.3239L39.7746 8.76416L38.4854 7.87702L42.058 7.68359Z" fill="#DE4739"/>
<path d="M40.0784 23.9804L35.2474 21.6953L34.9626 22.2975L39.7936 24.5825L40.0784 23.9804Z" fill="#DE4739"/>
<path d="M42.0581 25.2881L38.4855 25.0954L39.7748 24.2075L39.6424 22.6484L42.0581 25.2881Z" fill="#DE4739"/>
<path d="M44.0393 16.1523H35.1023V16.8184H44.0393V16.1523Z" fill="#DE4739"/>
<path d="M47.3306 16.4841L42.6934 18.3784L43.7936 16.4841L42.6934 14.5898L47.3306 16.4841Z" fill="#DE4739"/>
</svg>
