<svg width="28" height="28" viewBox="0 0 28 28" fill="none" xmlns="http://www.w3.org/2000/svg">
<path d="M22.4037 16.8016C22.3295 16.8016 22.2638 16.8212 22.1868 16.824L17.9506 9.57579C18.7381 8.79469 19.276 7.7971 19.4959 6.70963C19.7158 5.62215 19.6079 4.49382 19.1857 3.46784C18.7636 2.44185 18.0464 1.56447 17.1251 0.947051C16.2038 0.329628 15.1199 0 14.011 0C12.9021 0 11.8183 0.329628 10.8969 0.947051C9.97561 1.56447 9.25838 2.44185 8.83628 3.46784C8.41418 4.49382 8.30623 5.62215 8.52614 6.70963C8.74604 7.7971 9.28389 8.79469 10.0714 9.57579L5.84782 16.8254C5.76807 16.8212 5.69532 16.8016 5.61558 16.8016C4.56811 16.7979 3.54065 17.0885 2.65007 17.6402C1.75949 18.192 1.04156 18.9828 0.577954 19.9226C0.114346 20.8624 -0.076326 21.9136 0.0276301 22.9565C0.131586 23.9994 0.525996 24.9921 1.16599 25.8218C1.80598 26.6515 2.66587 27.2848 3.64781 27.6497C4.62976 28.0146 5.69434 28.0964 6.72045 27.8858C7.74657 27.6752 8.693 27.1807 9.4521 26.4585C10.2112 25.7363 10.7525 24.8154 11.0143 23.8006H17.0049C17.2681 24.8125 17.8096 25.7302 18.568 26.4496C19.3263 27.169 20.271 27.6612 21.2949 27.8703C22.3188 28.0794 23.3808 27.997 24.3602 27.6325C25.3396 27.268 26.1973 26.6361 26.8358 25.8083C27.4742 24.9806 27.8679 23.9903 27.9721 22.95C28.0764 21.9096 27.8869 20.8608 27.4253 19.9228C26.9637 18.9847 26.2485 18.195 25.3608 17.6433C24.4731 17.0916 23.4486 16.8 22.4037 16.8016ZM17.0049 21.001H11.0143C10.6591 19.6246 9.79313 18.4353 8.59267 17.6751L12.5001 10.97C13.4839 11.2808 14.5395 11.2808 15.5233 10.97L19.4406 17.6695C18.2332 18.4279 17.3617 19.62 17.0049 21.001Z" fill="url(#paint0_linear_6125_2841)"/>
<defs>
<linearGradient id="paint0_linear_6125_2841" x1="0" y1="28" x2="33.2418" y2="18.664" gradientUnits="userSpaceOnUse">
<stop stop-color="#85FFC4"/>
<stop offset="0.458333" stop-color="#5CC6FF"/>
<stop offset="0.807292" stop-color="#BC85FF"/>
</linearGradient>
</defs>
</svg>
