<svg width="362" height="276" viewBox="0 0 362 276" fill="none" xmlns="http://www.w3.org/2000/svg">
<path d="M282 73.1369C282 69.6227 285.051 64 291.797 64C298.543 64 302.181 67.0703 302.846 69.7522C303.686 69.1973 304.703 68.8644 305.818 68.8644C308.693 68.8644 311 70.6215 311 74.1541C311 77.6683 308.986 78.926 306.541 78.926C306.541 78.926 287.123 79.0925 286.517 78.926C284.249 78.815 282 76.6695 282 73.1369Z" fill="#EBF0FA"/>
<path d="M163.748 34.4044C162.918 34.4044 162.089 34.3305 161.259 34.1643C157.829 33.4993 154.861 31.5413 152.906 28.6413C150.952 25.7413 150.233 22.2503 150.896 18.8331C151.56 15.3974 153.515 12.4235 156.409 10.4655C159.304 8.50758 162.789 7.7872 166.2 8.45216C173.281 9.81904 177.927 16.6904 176.563 23.7834C175.899 27.219 173.945 30.1929 171.05 32.1509C168.856 33.6286 166.329 34.4044 163.748 34.4044ZM163.693 9.13561C161.296 9.13561 158.936 9.85599 156.907 11.2413C154.215 13.07 152.408 15.8222 151.781 19.0178C150.509 25.612 154.842 32.0031 161.425 33.2777C164.615 33.8872 167.841 33.2222 170.533 31.412C173.226 29.5834 175.033 26.8312 175.659 23.6356C176.932 17.0413 172.599 10.6503 166.016 9.37573C165.242 9.20949 164.467 9.13561 163.693 9.13561ZM163.711 28.2719C162.881 28.2719 162.199 27.5885 162.199 26.7573V22.8229H158.272C157.442 22.8229 156.76 22.1394 156.76 21.3082C156.76 20.477 157.442 19.7936 158.272 19.7936H162.199V15.8592C162.199 15.028 162.881 14.3445 163.711 14.3445C164.541 14.3445 165.223 15.028 165.223 15.8592V19.7936H169.151C169.98 19.7936 170.663 20.477 170.663 21.3082C170.663 22.1394 169.98 22.8229 169.151 22.8229H165.223V26.7573C165.223 27.5885 164.541 28.2719 163.711 28.2719ZM158.272 20.7171C157.94 20.7171 157.682 20.9757 157.682 21.3082C157.682 21.6407 157.94 21.8993 158.272 21.8993H162.66C162.918 21.8993 163.121 22.1025 163.121 22.3611V26.7573C163.121 27.0897 163.379 27.3484 163.711 27.3484C164.043 27.3484 164.301 27.0897 164.301 26.7573V22.3611C164.301 22.1025 164.504 21.8993 164.762 21.8993H169.151C169.482 21.8993 169.741 21.6407 169.741 21.3082C169.741 20.9757 169.482 20.7171 169.151 20.7171H164.762C164.504 20.7171 164.301 20.514 164.301 20.2554V15.8592C164.301 15.5267 164.043 15.2681 163.711 15.2681C163.379 15.2681 163.121 15.5267 163.121 15.8592V20.2554C163.121 20.514 162.918 20.7171 162.66 20.7171H158.272Z" fill="#A0A7BF"/>
<path d="M227 94.6306C227 87.7829 232.224 82.9077 238.671 82.9077C240.597 82.9077 242.431 83.3914 244.043 84.2288C246.136 81.0841 249.712 79 253.75 79C259.271 79 263.902 82.8518 265.106 88.0434C266.643 86.9642 268.515 86.3315 270.515 86.3315C275.758 86.3315 280 89.7553 280 96.5844C280 103.432 276.332 105.851 271.849 105.851C271.849 105.851 236.337 106.186 235.262 105.851C231.075 105.646 227 101.46 227 94.6306Z" fill="#EBF0FA"/>
<path d="M266.285 246.788C262.598 246.788 260.551 245.938 259.869 245.255C259.74 245.125 259.371 244.756 259.592 242.078C259.85 239.067 260.846 234.043 262.856 228.963C264.478 224.844 267.355 219.284 271.835 216.107C276.924 212.505 280.133 211.138 282.696 210.048C285.296 208.94 287.342 208.053 290.274 205.412C293.501 202.512 301.632 195.807 307.293 196.306C308.842 196.453 310.096 197.118 311.036 198.319C314.576 202.882 312.308 206.28 310.114 209.55C309.616 210.289 309.118 211.046 308.676 211.822C308.178 212.69 307.662 213.669 307.109 214.722C305.007 218.73 302.388 223.717 298.996 225.657C297.668 226.414 296.359 226.931 295.068 227.43C292.358 228.501 289.776 229.499 287.785 232.694C287.158 233.71 286.605 234.782 286.07 235.834C284.06 239.824 281.977 243.943 274.915 245.624C271.393 246.474 268.535 246.788 266.285 246.788ZM272.038 216.384L272.241 216.661C264.976 221.796 261.436 233.913 260.496 240.268C260.053 243.241 260.219 244.59 260.348 244.775C261.528 245.957 266.341 246.991 274.767 244.959C281.516 243.334 283.433 239.547 285.462 235.52C285.996 234.449 286.549 233.359 287.195 232.325C289.297 228.945 291.97 227.91 294.792 226.802C296.045 226.303 297.336 225.804 298.627 225.066C301.854 223.218 304.398 218.342 306.463 214.408C307.016 213.355 307.533 212.357 308.03 211.489C308.473 210.695 308.989 209.919 309.506 209.18C311.663 205.966 313.691 202.918 310.464 198.744C309.653 197.71 308.565 197.118 307.201 196.989C301.651 196.49 293.169 203.694 290.717 205.929C287.693 208.645 285.609 209.55 282.954 210.676C280.409 211.766 277.256 213.115 272.223 216.68L272.038 216.384Z" fill="#36383D"/>
<path d="M254.207 249.762C254.023 249.78 253.82 249.706 253.691 249.54C253.488 249.282 253.525 248.912 253.765 248.709C254.005 248.506 277.606 229.018 282.64 222.572C287.766 216.033 305.467 202.198 306.205 201.607C306.463 201.404 306.831 201.459 307.034 201.718C307.237 201.976 307.182 202.346 306.924 202.549C306.739 202.697 288.577 216.883 283.562 223.311C278.454 229.85 255.48 248.82 254.503 249.632C254.429 249.706 254.318 249.762 254.207 249.762Z" fill="#36383D"/>
<path d="M297.096 210.418C296.783 210.436 296.488 210.215 296.451 209.901C296.414 209.568 296.635 209.273 296.967 209.236L306.5 208.054C306.813 208.017 307.127 208.238 307.164 208.571C307.2 208.903 306.979 209.199 306.647 209.236L297.114 210.418H297.096Z" fill="#36383D"/>
<path d="M303.642 214.611H303.623L291.656 215.091C291.325 215.11 291.048 214.851 291.03 214.518C291.011 214.186 291.269 213.89 291.601 213.89L303.568 213.41C303.9 213.392 304.176 213.65 304.195 213.983C304.195 214.315 303.955 214.592 303.642 214.611Z" fill="#36383D"/>
<path d="M293.445 213.521C293.389 213.521 293.316 213.521 293.242 213.503C292.928 213.429 292.726 213.096 292.818 212.782L295.27 203.122C295.344 202.808 295.676 202.604 295.989 202.697C296.303 202.771 296.505 203.103 296.413 203.417L293.961 213.078C293.924 213.336 293.703 213.503 293.445 213.521Z" fill="#36383D"/>
<path d="M278.455 228.224C278.4 228.243 278.326 228.243 278.252 228.224C277.921 228.169 277.699 227.873 277.755 227.541L279.248 217.695C279.303 217.363 279.598 217.141 279.93 217.197C280.262 217.252 280.484 217.548 280.428 217.88L278.935 227.725C278.898 227.984 278.695 228.187 278.455 228.224Z" fill="#36383D"/>
<path d="M299.161 222.96C299.143 222.96 299.124 222.96 299.106 222.96L283.673 222.849C283.341 222.849 283.083 222.572 283.083 222.239C283.083 221.907 283.341 221.648 283.691 221.648L299.124 221.759C299.456 221.759 299.715 222.036 299.715 222.369C299.715 222.683 299.475 222.941 299.161 222.96Z" fill="#36383D"/>
<path d="M275.873 230.958C275.541 230.976 275.265 230.736 275.228 230.404C275.209 230.071 275.449 229.794 275.781 229.757L286.273 228.908C286.605 228.889 286.881 229.129 286.918 229.462C286.936 229.794 286.697 230.071 286.365 230.108L275.873 230.958Z" fill="#36383D"/>
<path d="M253.122 221.279C252.587 221.279 252.052 221.242 251.554 221.15C248.752 220.669 246.613 219.155 245.359 216.772C243.515 213.262 243.773 208.201 246.06 203.232C249.747 195.216 251.739 191.152 255.316 186.017C256.312 184.576 257.492 182.637 258.727 180.587C261.843 175.415 265.734 168.968 269.421 166.53C274.474 163.168 279.305 160.508 283.361 158.809C290.589 155.798 295.475 155.798 297.854 158.79C299.44 160.767 299.679 163.113 298.628 165.92C297.725 168.34 295.973 170.834 294.277 173.235C292.23 176.135 290.312 178.85 289.925 181.289C289.667 182.914 289.575 184.595 289.483 186.22C289.188 191.3 288.93 196.084 283.822 198.984C278.088 202.235 266.139 208.977 264.222 214.241C263.318 216.698 261.345 218.748 258.653 220.004C256.865 220.836 254.91 221.279 253.122 221.279ZM292.433 157.239C285.574 157.239 274.916 163.704 269.79 167.103C266.232 169.467 262.378 175.839 259.299 180.956C258.063 183.006 256.883 184.964 255.869 186.424C252.329 191.522 250.356 195.548 246.687 203.546C244.492 208.331 244.234 213.17 245.967 216.495C247.111 218.675 249.102 220.078 251.683 220.503C255.334 221.131 261.677 219.192 263.558 214.038C265.568 208.552 277.221 201.958 283.472 198.411C288.247 195.715 288.524 191.097 288.801 186.202C288.893 184.558 288.985 182.859 289.261 181.196C289.667 178.61 291.64 175.821 293.724 172.866C297.061 168.137 300.509 163.242 297.319 159.234C296.194 157.811 294.48 157.239 292.433 157.239Z" fill="#36383D"/>
<path d="M293.667 160.767C293.482 160.545 293.15 160.545 292.929 160.73C291.841 161.709 266.027 184.983 259.297 196.694C254.245 205.486 247.349 216.883 244.233 222.036C244.565 222.166 244.878 222.313 245.191 222.461C248.344 217.271 255.185 205.948 260.201 197.211C266.857 185.629 293.353 161.727 293.63 161.487C293.851 161.303 293.87 160.989 293.667 160.767Z" fill="#36383D"/>
<path d="M277.385 176.929C277.403 176.929 277.422 176.929 277.422 176.911L291.214 172.293C291.49 172.201 291.638 171.905 291.546 171.628C291.454 171.351 291.159 171.203 290.882 171.296L278.067 175.599L281.681 164.184C281.773 163.907 281.626 163.612 281.349 163.538C281.073 163.445 280.778 163.593 280.704 163.87L276.776 176.264C276.721 176.449 276.776 176.652 276.905 176.8C277.035 176.929 277.2 176.966 277.385 176.929Z" fill="#36383D"/>
<path d="M269.917 184.743C270.12 184.687 270.267 184.539 270.304 184.336L273.107 168.322C273.162 168.045 272.959 167.768 272.683 167.712C272.406 167.657 272.13 167.86 272.074 168.137L269.272 184.152C269.216 184.429 269.419 184.706 269.696 184.761C269.77 184.761 269.843 184.761 269.917 184.743Z" fill="#36383D"/>
<path d="M284.006 186.848C284.282 186.775 284.448 186.497 284.393 186.22C284.319 185.943 284.042 185.759 283.766 185.833L263.852 190.487C263.576 190.561 263.41 190.838 263.465 191.115C263.539 191.392 263.815 191.577 264.092 191.503L284.006 186.848Z" fill="#36383D"/>
<path d="M258.798 199.335L276.868 194.994C277.145 194.92 277.311 194.643 277.256 194.366C277.182 194.089 276.905 193.923 276.629 193.978L258.559 198.319C258.282 198.393 258.116 198.67 258.172 198.947C258.245 199.224 258.522 199.39 258.798 199.335Z" fill="#36383D"/>
<path d="M101.848 269.341C100.963 269.341 100.059 269.231 99.1742 269.027C96.7956 268.436 94.8596 267.106 93.7164 265.278C91.3194 261.38 80.6434 257.889 75.5174 256.208C70.9077 254.712 69.9121 250.87 68.8611 246.825C68.5292 245.532 68.1788 244.202 67.6994 242.927C66.9988 241.062 65.0074 239.178 62.9054 237.183C59.2914 233.766 55.5483 230.219 57.6872 226.082C60.7296 220.115 74.153 224.512 81.8788 227.652C85.253 229.019 89.2542 233.396 92.776 237.238C94.1036 238.679 95.3574 240.046 96.39 241.043C100.096 244.608 102.346 247.545 106.623 253.401C109.279 257.04 110.311 261.085 109.389 264.225C108.762 266.368 107.269 267.938 105.075 268.787C104.134 269.157 103.009 269.341 101.848 269.341ZM64.2514 223.81C61.4856 223.81 59.2545 224.512 58.2957 226.396C56.415 230.09 59.9552 233.452 63.3848 236.703C65.5421 238.753 67.5888 240.674 68.3448 242.706C68.8242 243.999 69.1745 245.366 69.5248 246.659C70.539 250.519 71.4793 254.177 75.7387 255.562C81.344 257.391 91.7803 260.808 94.3064 264.908C96.6481 268.713 102.014 269.249 104.835 268.159C106.826 267.384 108.172 265.961 108.744 264.04C109.611 261.103 108.615 257.28 106.089 253.807C101.848 247.989 99.6168 245.07 95.9475 241.542C94.8965 240.526 93.6426 239.159 92.315 237.7C89.0145 234.098 84.9027 229.591 81.6575 228.28C77.601 226.636 69.8383 223.81 64.2514 223.81Z" fill="#36383D"/>
<path d="M61.4312 227.005C61.5418 226.802 61.8184 226.728 62.0212 226.857C63.0538 227.467 87.5587 242.004 94.8789 250.334C100.355 256.578 107.749 264.631 111.086 268.27C110.847 268.418 110.607 268.584 110.386 268.769C107.012 265.112 99.673 257.113 94.2335 250.907C87.0056 242.687 61.8368 227.762 61.5787 227.615C61.3758 227.467 61.3021 227.208 61.4312 227.005Z" fill="#36383D"/>
<path d="M77.1408 237.368C77.1224 237.368 77.1224 237.368 77.1039 237.368L65.2663 235.89C65.0266 235.853 64.8606 235.65 64.8975 235.41C64.9344 235.169 65.1372 235.003 65.3769 235.04L76.3848 236.407L71.6276 227.799C71.517 227.596 71.5908 227.338 71.7936 227.227C71.9964 227.116 72.2546 227.19 72.3652 227.393L77.528 236.721C77.6018 236.869 77.6018 237.035 77.5096 237.164C77.4174 237.294 77.2883 237.368 77.1408 237.368Z" fill="#36383D"/>
<path d="M84.4057 242.429C84.2397 242.429 84.0922 242.318 84.0185 242.152L79.1691 229.739C79.0769 229.517 79.1875 229.277 79.4088 229.185C79.63 229.092 79.8698 229.203 79.9619 229.425L84.8113 241.838C84.9035 242.059 84.7929 242.299 84.5716 242.392C84.5347 242.429 84.461 242.429 84.4057 242.429Z" fill="#36383D"/>
<path d="M73.4346 246.419C73.1949 246.419 73.0105 246.215 73.029 245.975C73.029 245.735 73.2318 245.55 73.4715 245.569L90.2323 246.086C90.472 246.086 90.6563 246.289 90.6379 246.529C90.6379 246.769 90.4351 246.954 90.1954 246.936L73.4346 246.419Z" fill="#36383D"/>
<path d="M95.6907 252.348L80.4603 251.775C80.2206 251.775 80.0362 251.572 80.0547 251.332C80.0547 251.092 80.2575 250.907 80.4972 250.926L95.7275 251.498C95.9672 251.498 96.1516 251.701 96.1332 251.941C96.1332 252.182 95.9304 252.366 95.6907 252.348Z" fill="#36383D"/>
<path d="M95.4336 232.676C95.4336 232.676 93.2026 226.432 91.3771 225.066C89.5517 223.699 86.8412 222.424 85.0158 224.862C83.1904 227.301 85.4399 229.499 87.1362 230.755C88.7957 232.011 95.4336 232.676 95.4336 232.676Z" fill="#A0A7BF"/>
<path d="M99.0294 237.164C99.0294 237.164 94.1247 234.246 92.078 234.209C90.0313 234.172 87.3946 234.615 87.3577 236.961C87.3208 239.325 90.1051 239.676 91.9858 239.713C93.885 239.769 99.0294 237.164 99.0294 237.164Z" fill="#454852"/>
<path d="M98.3829 236.647L98.1616 236.056C98.0694 235.834 96.1334 230.533 96.3731 228.612C96.7972 225.306 98.0141 223.754 99.987 224.013C101.167 224.16 101.978 224.881 102.347 226.1C102.605 226.968 102.661 228.076 102.495 229.388C102.237 231.494 98.8807 235.964 98.7517 236.148L98.3829 236.647ZM99.6183 224.678C98.2538 224.678 97.3872 226.026 97.0369 228.704C96.8525 230.108 98.0694 233.784 98.5673 235.225C99.4523 233.987 101.61 230.829 101.812 229.314C101.96 228.113 101.923 227.06 101.683 226.303C101.388 225.343 100.798 224.807 99.8764 224.696C99.8027 224.678 99.7105 224.678 99.6183 224.678Z" fill="#36383D"/>
<path d="M102.624 244.239C102.661 244.239 102.697 244.22 102.753 244.202C102.937 244.11 103.011 243.888 102.919 243.722C97.5899 232.824 92.3902 229 87.9465 226.248C87.7806 226.137 87.5593 226.192 87.4487 226.359C87.338 226.525 87.3934 226.746 87.5593 226.857C91.9108 229.554 96.9999 233.322 102.255 244.036C102.329 244.165 102.476 244.257 102.624 244.239Z" fill="#1E2124"/>
<path d="M90.1226 237.016C90.1595 237.201 90.3254 237.312 90.5098 237.294C95.1379 236.906 98.4569 237.46 98.4937 237.46C98.6966 237.497 98.881 237.367 98.9178 237.164C98.9547 236.961 98.8256 236.776 98.6228 236.739C98.4753 236.721 95.1748 236.167 90.4545 236.573C90.2517 236.592 90.1042 236.758 90.1226 236.961C90.1226 236.98 90.1226 236.998 90.1226 237.016Z" fill="#1E2124"/>
<path d="M244.399 38.0248C243.219 38.0248 242.02 37.914 240.803 37.6739C235.825 36.7133 231.529 33.8688 228.671 29.6758C225.831 25.4643 224.798 20.4031 225.739 15.4159C227.712 5.12735 237.687 -1.63316 247.957 0.343272C258.228 2.31971 264.976 12.3127 263.003 22.6012C261.27 31.6891 253.305 38.0248 244.399 38.0248ZM244.38 0.934357C235.899 0.934357 228.32 6.95601 226.661 15.6006C225.757 20.3477 226.735 25.1688 229.445 29.1586C232.155 33.1668 236.249 35.8637 240.988 36.7688C242.131 36.9904 243.274 37.1012 244.399 37.1012C252.881 37.1012 260.459 31.0796 262.118 22.435C263.999 12.6452 257.582 3.15092 247.81 1.26684C246.648 1.04518 245.505 0.934357 244.38 0.934357ZM244.38 29.0293C243.274 29.0293 242.371 28.1242 242.371 27.0159V21.0127H236.378C235.272 21.0127 234.368 20.1076 234.368 18.9993C234.368 17.891 235.272 16.986 236.378 16.986H242.371V10.9828C242.371 9.87448 243.274 8.96939 244.38 8.96939C245.487 8.96939 246.39 9.87448 246.39 10.9828V16.986H252.383C253.489 16.986 254.393 17.891 254.393 18.9993C254.393 20.1076 253.489 21.0127 252.383 21.0127H246.39V27.0159C246.39 28.1242 245.487 29.0293 244.38 29.0293ZM236.396 17.9465C235.806 17.9465 235.308 18.4267 235.308 19.0363C235.308 19.6274 235.788 20.1261 236.396 20.1261H242.85C243.108 20.1261 243.311 20.3293 243.311 20.5879V27.0528C243.311 27.6439 243.79 28.1426 244.399 28.1426C245.007 28.1426 245.487 27.6624 245.487 27.0528V20.5879C245.487 20.3293 245.689 20.1261 245.948 20.1261H252.401C252.991 20.1261 253.489 19.6458 253.489 19.0363C253.489 18.4452 253.01 17.9465 252.401 17.9465H245.948C245.689 17.9465 245.487 17.7433 245.487 17.4847V11.0197C245.487 10.4286 245.007 9.9299 244.399 9.9299C243.79 9.9299 243.311 10.4102 243.311 11.0197V17.4847C243.311 17.7433 243.108 17.9465 242.85 17.9465H236.396Z" fill="#A0A7BF"/>
<path d="M163 276C253.022 276 326 272.418 326 268C326 263.582 253.022 260 163 260C72.9776 260 0 263.582 0 268C0 272.418 72.9776 276 163 276Z" fill="#CECED3"/>
<path d="M258.284 157.054L258.394 156.518C258.468 156.223 260.054 149.222 261.916 147.412C263.096 146.267 264.258 145.528 265.346 145.214C266.876 144.771 268.222 145.14 269.365 146.322C270.674 147.689 271.486 150.054 267.835 153.582C266.101 155.244 259.095 156.869 258.781 156.925L258.284 157.054ZM266.581 145.713C266.249 145.713 265.917 145.768 265.567 145.861C264.59 146.156 263.502 146.858 262.414 147.911C260.976 149.315 259.611 154.45 259.205 156.131C260.902 155.724 266.065 154.376 267.392 153.083C270.029 150.534 270.527 148.483 268.904 146.784C268.204 146.064 267.429 145.713 266.581 145.713Z" fill="#36383D"/>
<path d="M256.051 161.025C256.051 161.025 261.583 157.959 263.851 157.996C266.119 158.033 269.032 158.587 268.995 161.21C268.958 163.833 265.86 164.129 263.758 164.11C261.675 164.073 256.051 161.025 256.051 161.025Z" fill="#A0A7BF"/>
<path d="M251.775 169.67C251.775 169.67 256.771 165.773 259.003 165.459C261.252 165.145 264.202 165.237 264.571 167.841C264.94 170.427 261.934 171.222 259.851 171.517C257.804 171.794 251.775 169.67 251.775 169.67Z" fill="#454852"/>
<path d="M256.273 160.767C256.273 160.767 251.572 156.537 250.852 154.376C250.133 152.215 249.728 149.278 252.198 148.465C254.688 147.634 255.978 150.478 256.642 152.473C257.306 154.45 256.273 160.767 256.273 160.767Z" fill="#454852"/>
<path d="M252.862 170.354L252.346 170.003C252.124 169.855 247.054 166.327 246.04 164.239C244.491 161.025 244.749 158.717 246.777 157.738C248.75 156.777 250.557 157.978 252.161 161.284C253.102 163.224 252.899 169.467 252.899 169.725L252.862 170.354ZM248.031 158.125C247.718 158.125 247.404 158.199 247.072 158.366C244.989 159.363 245.689 161.968 246.648 163.944C247.404 165.514 250.871 168.118 252.198 169.079C252.217 167.417 252.217 163.039 251.516 161.58C250.428 159.271 249.248 158.125 248.031 158.125Z" fill="#36383D"/>
<path d="M252.383 170.298C252.346 170.298 252.29 170.298 252.254 170.28C252.051 170.206 251.94 169.984 252.014 169.762C256.402 157.054 261.584 152.104 266.101 148.483C266.267 148.336 266.525 148.373 266.673 148.539C266.82 148.705 266.783 148.964 266.617 149.111C262.192 152.676 257.103 157.516 252.788 170.021C252.696 170.187 252.549 170.298 252.383 170.298Z" fill="#1E2124"/>
<path d="M265.935 161.155C265.88 161.358 265.696 161.487 265.493 161.45C260.385 160.859 256.679 161.358 256.642 161.358C256.421 161.395 256.218 161.229 256.181 161.007C256.144 160.785 256.31 160.582 256.532 160.545C256.679 160.527 260.367 160.028 265.585 160.638C265.806 160.656 265.972 160.859 265.935 161.081C265.935 161.136 265.935 161.155 265.935 161.155Z" fill="#1E2124"/>
<path d="M262.044 168.174C262.026 168.377 261.86 168.525 261.657 168.543C256.513 168.71 252.936 169.744 252.899 169.744C252.677 169.799 252.456 169.689 252.401 169.467C252.346 169.245 252.456 169.024 252.677 168.968C252.825 168.931 256.402 167.897 261.639 167.731C261.86 167.731 262.044 167.897 262.044 168.118C262.044 168.137 262.044 168.155 262.044 168.174Z" fill="#1E2124"/>
<path d="M256.071 160.748C255.868 160.767 255.683 160.638 255.646 160.434C254.466 155.41 252.752 152.104 252.733 152.067C252.622 151.864 252.715 151.624 252.899 151.531C253.102 151.42 253.342 151.513 253.434 151.697C253.508 151.827 255.222 155.133 256.421 160.25C256.476 160.471 256.347 160.675 256.126 160.73C256.089 160.73 256.071 160.748 256.071 160.748Z" fill="#1E2124"/>
<path d="M239.513 266.312H139.225C132.163 266.312 126.391 260.531 126.391 253.456V43.6955C126.391 36.6209 132.163 30.8394 139.225 30.8394H239.513C246.575 30.8394 252.346 36.6209 252.346 43.6955V253.456C252.364 260.512 246.575 266.312 239.513 266.312Z" fill="#5A5E6B"/>
<path d="M237.89 265.278H137.584C130.319 265.278 124.4 259.348 124.4 252.071V42.3286C124.4 35.0509 130.319 29.1216 137.584 29.1216H237.872C245.137 29.1216 251.056 35.0509 251.056 42.3286V252.089C251.056 259.367 245.155 265.278 237.89 265.278ZM137.584 29.805C130.688 29.805 125.083 35.4203 125.083 42.3286V252.089C125.083 258.997 130.688 264.613 137.584 264.613H237.872C244.768 264.613 250.373 258.997 250.373 252.089V42.3286C250.373 35.4203 244.768 29.805 237.872 29.805H137.584Z" fill="#36383D"/>
<path d="M238.313 262.364H139.924C135.02 262.364 131 258.337 131 253.424V43.9401C131 39.0268 135.02 35 139.924 35H238.331C243.236 35 247.256 39.0268 247.256 43.9401V253.424C247.237 258.337 243.218 262.364 238.313 262.364Z" fill="url(#paint0_linear_2002_3)"/>
<path d="M105.262 266.497H138.691C139.889 266.497 140.867 265.518 140.867 264.317V261.214C140.867 260.013 139.889 259.034 138.691 259.034H105.262C104.063 259.034 103.086 260.013 103.086 261.214V264.317C103.086 265.518 104.063 266.497 105.262 266.497Z" fill="#F9BC38"/>
<path d="M135.797 259.034H118.778V266.497H135.797V259.034Z" fill="#FDD25A"/>
<path d="M105.262 259.034H106.552V266.497H105.262C104.063 266.497 103.086 265.518 103.086 264.317V261.214C103.086 260.013 104.063 259.034 105.262 259.034Z" fill="#FDD25A"/>
<path d="M140.701 265.167C140.369 265.943 139.595 266.497 138.691 266.497H105.262C104.358 266.497 103.584 265.943 103.252 265.167H140.701Z" fill="#F1A419"/>
<path d="M104.228 259.108H137.658C138.856 259.108 139.834 258.129 139.834 256.929V253.826C139.834 252.625 138.856 251.646 137.658 251.646H104.228C103.03 251.646 102.053 252.625 102.053 253.826V256.929C102.053 258.129 103.03 259.108 104.228 259.108Z" fill="#F9BC38"/>
<path d="M134.782 251.646H117.763V259.108H134.782V251.646Z" fill="#FDD25A"/>
<path d="M104.228 251.646H105.519V259.108H104.228C103.03 259.108 102.053 258.129 102.053 256.929V253.826C102.053 252.625 103.03 251.646 104.228 251.646Z" fill="#FDD25A"/>
<path d="M139.668 257.778C139.336 258.554 138.561 259.108 137.658 259.108H104.228C103.325 259.108 102.551 258.554 102.219 257.778H139.668Z" fill="#F1A419"/>
<path d="M101.388 251.738H134.817C136.016 251.738 136.993 250.759 136.993 249.559V246.456C136.993 245.255 136.016 244.276 134.817 244.276H101.388C100.189 244.276 99.212 245.255 99.212 246.456V249.559C99.212 250.759 100.189 251.738 101.388 251.738Z" fill="#F9BC38"/>
<path d="M131.923 244.276H114.904V251.738H131.923V244.276Z" fill="#FDD25A"/>
<path d="M101.388 244.276H102.678V251.738H101.388C100.189 251.738 99.212 250.759 99.212 249.559V246.456C99.212 245.255 100.189 244.276 101.388 244.276Z" fill="#FDD25A"/>
<path d="M136.809 250.39C136.477 251.166 135.702 251.72 134.799 251.72H101.388C100.484 251.72 99.7099 251.166 99.3781 250.39H136.809Z" fill="#F1A419"/>
<path d="M104.559 244.35H137.989C139.187 244.35 140.164 243.371 140.164 242.17V239.067C140.164 237.866 139.187 236.887 137.989 236.887H104.559C103.361 236.887 102.384 237.866 102.384 239.067V242.17C102.402 243.371 103.379 244.35 104.559 244.35Z" fill="#F9BC38"/>
<path d="M135.112 236.887H118.093V244.35H135.112V236.887Z" fill="#FDD25A"/>
<path d="M104.559 236.887H105.85V244.35H104.559C103.361 244.35 102.384 243.371 102.384 242.17V239.067C102.402 237.866 103.379 236.887 104.559 236.887Z" fill="#FDD25A"/>
<path d="M139.998 243.02C139.666 243.796 138.892 244.35 137.988 244.35H104.559C103.656 244.35 102.881 243.796 102.549 243.02H139.998Z" fill="#F1A419"/>
<path d="M103.011 236.961H136.44C137.639 236.961 138.616 235.982 138.616 234.782V231.678C138.616 230.478 137.639 229.499 136.44 229.499H103.011C101.812 229.499 100.835 230.478 100.835 231.678V234.782C100.835 235.982 101.831 236.961 103.011 236.961Z" fill="#F9BC38"/>
<path d="M133.564 229.499H116.545V236.961H133.564V229.499Z" fill="#FDD25A"/>
<path d="M103.011 229.499H104.302V236.961H103.011C101.812 236.961 100.835 235.982 100.835 234.782V231.678C100.835 230.478 101.831 229.499 103.011 229.499Z" fill="#FDD25A"/>
<path d="M138.45 235.631C138.118 236.407 137.344 236.961 136.44 236.961H103.011C102.108 236.961 101.333 236.407 101.001 235.631H138.45Z" fill="#F1A419"/>
<path d="M102.698 229.573H136.127C137.326 229.573 138.303 228.594 138.303 227.393V224.29C138.303 223.089 137.326 222.11 136.127 222.11H102.698C101.499 222.11 100.522 223.089 100.522 224.29V227.393C100.541 228.594 101.518 229.573 102.698 229.573Z" fill="#F9BC38"/>
<path d="M133.251 222.11H116.232V229.573H133.251V222.11Z" fill="#FDD25A"/>
<path d="M102.698 222.11H103.989V229.573H102.698C101.499 229.573 100.522 228.594 100.522 227.393V224.29C100.541 223.089 101.518 222.11 102.698 222.11Z" fill="#FDD25A"/>
<path d="M138.137 228.243C137.805 229.018 137.031 229.573 136.127 229.573H102.698C101.794 229.573 101.02 229.018 100.688 228.243H138.137Z" fill="#F1A419"/>
<path d="M128.325 218.248H133.47V215.865H128.325V218.248Z" fill="#FFD1BD"/>
<path d="M110.516 218.248H115.661V215.865H110.516V218.248Z" fill="#FFD1BD"/>
<path d="M110.701 159.677C109.447 164.221 108.193 180.605 108.47 185.888C108.747 191.171 109.3 216.366 109.3 216.366H117.21C117.21 216.366 118.372 200.185 119.478 186.35C119.976 179.977 120.676 175.101 120.676 171.055C120.676 158.218 121.432 157.387 121.432 157.387C121.432 157.387 113.596 149.278 110.701 159.677Z" fill="#45258F"/>
<path d="M126.982 216.366H134.616C134.616 216.366 132.588 197.71 131.039 187.864C129.471 178.019 130.191 162.522 128.568 157.682C125.138 147.486 115.845 148.945 115.956 158.735C116.011 163.26 117.744 183.246 119.09 188.732C120.418 194.218 126.982 216.366 126.982 216.366Z" fill="#7772D6"/>
<path d="M110.83 132.986C108.617 134.297 104.303 147.818 104.303 147.818C104.008 144.549 102.68 140.799 102.68 140.799C102.68 140.799 99.2875 138.675 98.7527 141.335C98.218 147.08 99.8406 155.447 103.584 155.447C107.327 155.447 110.406 146.858 112.176 143.311C113.854 139.931 113.043 131.674 110.83 132.986Z" fill="#0A5CBF"/>
<path d="M120.601 132.395H121.044C122.39 132.395 123.496 131.287 123.496 129.938V125.948C123.496 124.637 122.427 123.547 121.099 123.547H120.306C118.997 123.547 117.909 124.618 117.909 125.948V129.717C117.909 131.176 119.126 132.395 120.601 132.395Z" fill="#FFBFA3"/>
<path d="M113.042 119.317C113.042 123.787 115.163 129.273 119.33 129.107C121.653 129.015 123.976 127.537 125.286 125.431C126.318 123.769 126.558 121.718 126.558 119.705C126.558 115.161 123.349 111.467 119.404 111.467C115.439 111.504 112.766 112.483 113.042 119.317Z" fill="#FFD1BD"/>
<path d="M125.636 118.32C125.452 117.248 125.415 115.586 123.424 114.57C121.432 113.554 114.868 113.24 114.094 113.905C113.301 114.57 113.135 117.784 113.061 119.834C112.102 118.8 112.158 115.235 111.439 114.145C110.72 113.055 110.166 110.95 110.517 109.546C111.199 106.812 113.375 106.369 116.38 106.627C119.386 106.886 119.423 107.569 121.746 108.234C124.069 108.881 124.309 107.773 126.964 109.638C129.619 111.522 130.762 116.676 129.748 118.8C128.734 120.924 126.429 124.674 125.692 125.043C124.973 125.413 125.821 119.41 125.636 118.32Z" fill="#5E2E0D"/>
<path d="M125.562 131.102C125.562 131.102 128.365 131.453 131.536 133.374C134.708 135.295 131.758 145.362 130.504 151.642C129.895 154.69 129.582 156.999 127.922 158.015C126.134 159.086 122.778 159.067 120.27 159.067C115.421 159.067 110.83 160.324 109.926 152.99C109.004 145.676 108.728 134.242 110.83 132.838C112.932 131.453 115.845 130.696 115.845 130.696L117.523 130.566L119.201 132.081L120.436 132.21L123.202 131.028L125.562 131.102Z" fill="#3797DB"/>
<path d="M110.908 159.458H129.365V156.946H110.908V159.458Z" fill="#3797DB"/>
<path d="M121.23 132.432C120.99 132.044 118.722 131.97 118.482 132.173C118.243 132.395 118.15 135.535 119.607 135.664C121.045 135.831 121.469 132.838 121.23 132.432Z" fill="white"/>
<path d="M129.969 157.497L128.549 158.329C128.549 158.329 127.498 157.885 125.912 158.606C124.917 159.049 123.073 160.785 123.312 161.358C123.552 161.931 125.23 160.675 125.23 160.675C123.681 161.912 121.303 163.852 122.391 164.904C123.478 165.957 126.005 165.403 128.088 163.962C130.172 162.503 130.522 161.044 130.522 161.044L132.477 159.511L129.969 157.497Z" fill="#FFD1BD"/>
<path d="M120.252 135.517L120.4 151.088L117.579 154.985L115.974 150.774L118.925 135.35L120.252 135.517Z" fill="#D1EAF2"/>
<path d="M123.478 129.125C123.257 130.197 121.579 131.083 120.325 132.136L122.132 134.445L125.875 130.991L123.478 129.125Z" fill="#2A8CD1"/>
<path d="M128.992 133.374C130.338 131.804 132.311 133.614 134.118 136.108C135.925 138.601 142.563 147.431 140.332 151.531C138.746 154.45 134.229 160.324 132.809 160.379C131.389 160.434 130.375 160.305 129.914 159.049C129.435 157.793 128.955 156.703 129.914 156.02C130.873 155.336 134.8 149.278 134.8 149.278C134.8 149.278 132.053 145.029 130.006 142.332C127.941 139.654 127.646 134.944 128.992 133.374Z" fill="#0A5CBF"/>
<path d="M117.91 129.199L115.863 130.437L117.246 133.91L119.293 132.118C119.293 132.099 117.947 130.566 117.91 129.199Z" fill="#2A8CD1"/>
<path d="M132.975 159.714L130.762 161.284L128.365 158.199L130.762 156.482L132.975 159.714Z" fill="url(#paint1_linear_2002_3)"/>
<path d="M102.865 141.39H98.7346L98.9558 138.398L102.828 138.343L102.865 141.39Z" fill="url(#paint2_linear_2002_3)"/>
<path d="M125.248 121.017C124.806 122.051 124.972 123.104 125.617 123.381C126.262 123.658 127.147 123.048 127.59 122.014C128.032 120.98 127.866 119.927 127.221 119.65C126.576 119.373 125.709 119.982 125.248 121.017Z" fill="#FFD1BD"/>
<path d="M106.109 121.608C106.109 121.608 112.046 122.956 110.645 128.073C109.225 133.189 104.56 131.878 104.56 131.878L106.109 121.608Z" fill="#2B2D33"/>
<path d="M94.419 117.267C97.1479 119.28 103.952 120.352 106.109 121.608C108.266 122.864 106.441 131.213 104.929 131.804C103.399 132.395 94.124 130.659 91.1553 132.321C88.1683 134.002 91.69 115.253 94.419 117.267Z" fill="#FFCE3B"/>
<path d="M94.7694 124.233C95.6454 118.64 94.1781 113.764 91.492 113.341C88.8059 112.919 85.9183 117.111 85.0422 122.704C84.1662 128.298 85.6335 133.174 88.3196 133.596C91.0057 134.019 93.8933 129.827 94.7694 124.233Z" fill="#FFE494"/>
<path d="M93.9258 124.103C94.7244 119.004 93.488 114.574 91.1641 114.209C88.8402 113.843 86.3089 117.681 85.5102 122.781C84.7115 127.88 85.9479 132.31 88.2718 132.675C90.5957 133.041 93.1271 129.203 93.9258 124.103Z" fill="#FFB03B"/>
<path d="M90.344 122.716C92.1694 122.79 94.1608 121.46 94.1608 121.46C94.1424 122.31 94.0686 123.196 93.9211 124.101C93.7183 125.45 93.3864 126.706 92.9623 127.814C92.9623 127.814 92.4829 126.133 89.9015 125.524C88.5186 125.21 89.2745 122.346 90.344 122.716Z" fill="#2B2D33"/>
<path d="M90.8241 124.231C90.695 125.062 90.1603 125.671 89.644 125.579C89.1277 125.505 88.7958 124.748 88.9249 123.917C89.054 123.085 89.5887 122.476 90.105 122.568C90.6397 122.661 90.9531 123.399 90.8241 124.231Z" fill="#FFE494"/>
<path d="M104.154 131.841C104.154 131.841 104.08 133.318 103.453 136.606C102.826 139.894 101.923 143.773 99.4336 143.275C96.9444 142.776 99.1755 142.314 99.5074 138.86C99.8393 135.424 99.0095 131.674 99.0095 131.674L104.154 131.841Z" fill="#FFB03B"/>
<path d="M99.564 136.2L100.172 136.292C100.578 136.366 100.984 136.071 101.039 135.664C101.113 135.258 100.818 134.852 100.412 134.796L99.8037 134.704C99.398 134.63 98.9924 134.925 98.9371 135.332C98.8633 135.738 99.1583 136.126 99.564 136.2Z" fill="#2B2D33"/>
<path d="M98.9183 134.981C99.8403 134.981 101.942 135.849 102.625 137.438C103.307 139.026 101.813 141.058 100.467 141.723C99.1027 142.369 95.71 141.28 96.3922 138.324C97.0745 135.35 97.9964 134.981 98.9183 134.981Z" fill="#FFD1BD"/>
<path d="M133.601 217.585C134.394 218.25 134.523 222.073 133.859 222.073C133.195 222.073 131.61 222.073 131.61 222.073L131.481 221.538C131.481 221.538 125.433 222.203 123.349 222.203C120.676 222.203 119.883 220.485 121.468 220.485C123.054 220.485 128.07 217.585 128.07 217.585H133.601Z" fill="#3D424E"/>
<path d="M115.919 217.585C116.712 218.25 116.841 222.073 116.177 222.073C115.514 222.073 113.928 222.073 113.928 222.073L113.799 221.538C113.799 221.538 107.751 222.203 105.667 222.203C102.994 222.203 102.201 220.485 103.787 220.485C105.372 220.485 110.388 217.585 110.388 217.585H115.919Z" fill="#3D424E"/>
<path d="M72.6605 121.681C72.9002 121.681 73.1031 121.515 73.1399 121.275C73.1768 121.017 72.9924 120.758 72.7343 120.721L64.4553 119.428C64.1972 119.391 63.939 119.576 63.9022 119.834C63.8653 120.093 64.0497 120.352 64.3078 120.388L72.5868 121.681C72.6052 121.681 72.6236 121.681 72.6605 121.681Z" fill="#D1D7ED"/>
<path d="M65.1197 130.862C65.175 130.862 65.2119 130.862 65.2672 130.843L72.6426 128.516C72.9008 128.442 73.0483 128.165 72.9561 127.906C72.8823 127.648 72.6058 127.5 72.3476 127.592L64.9721 129.92C64.714 129.994 64.5665 130.271 64.6587 130.529C64.714 130.732 64.9168 130.862 65.1197 130.862Z" fill="#D1D7ED"/>
<path d="M74.4125 115.531C74.56 115.531 74.7075 115.457 74.7997 115.327C74.9656 115.106 74.9103 114.81 74.6891 114.644L68.7149 110.266C68.4937 110.1 68.1987 110.155 68.0327 110.377C67.8668 110.599 67.9221 110.894 68.1433 111.06L74.1175 115.438C74.2097 115.494 74.3019 115.531 74.4125 115.531Z" fill="#D1D7ED"/>
<path d="M196.679 164.184C196.679 164.184 201.658 160.859 207.208 163.076C212.739 165.292 219.949 168.063 219.949 168.063C219.949 168.063 229.924 164.738 233.796 162.522C237.668 160.305 245.431 159.197 245.431 159.197L233.243 177.502L204.995 173.623L196.679 164.184Z" fill="#BDD3F0"/>
<path d="M204.977 186.941H235.4C235.4 186.941 269.918 233.23 259.961 249.633C250.022 266.035 239.494 268.972 231.307 268.381C223.12 267.79 219.027 267.79 215.524 268.381C212.02 268.972 200.902 267.79 195.628 268.381C190.373 268.972 171.068 255.488 173.981 237.903C176.913 220.337 204.977 186.941 204.977 186.941Z" fill="#BDD3F0"/>
<path d="M204.977 184.17L196.108 164.203C196.108 164.203 204.424 168.082 209.402 168.636C214.381 169.19 212.721 160.859 220.484 159.197C228.246 157.534 224.356 167.527 228.8 168.636C233.225 169.744 241.541 157.534 244.307 159.197C247.072 160.859 234.331 184.17 234.331 184.17H204.977Z" fill="#69A0E3"/>
<path d="M234.902 185.832H203.888C203.28 185.832 202.782 185.334 202.782 184.724C202.782 184.115 203.28 183.616 203.888 183.616H234.902C235.511 183.616 236.008 184.115 236.008 184.724C236.008 185.334 235.511 185.832 234.902 185.832Z" fill="#BDD3F0"/>
<path d="M235.455 188.049H204.441C203.833 188.049 203.335 187.55 203.335 186.941C203.335 186.331 203.833 185.833 204.441 185.833H235.455C236.064 185.833 236.561 186.331 236.561 186.941C236.561 187.55 236.064 188.049 235.455 188.049Z" fill="#69A0E3"/>
<path d="M238.335 228.539C238.961 218.469 231.319 209.798 221.267 209.171C211.215 208.544 202.559 216.199 201.933 226.269C201.307 236.339 208.949 245.011 219.001 245.638C229.053 246.265 237.709 238.609 238.335 228.539Z" fill="#69A0E3"/>
<path d="M221.773 236.185V238.753H219.007V236.278C216.702 236.112 214.527 235.447 213.181 234.523L214.674 231.161C216.094 232.103 218.122 232.75 219.985 232.75C221.865 232.75 222.603 232.214 222.603 231.438C222.603 228.871 213.439 230.755 213.439 224.752C213.439 222.221 215.264 220.078 218.989 219.617V217.086H221.755V219.58C223.451 219.709 225.129 220.171 226.42 220.947L225.018 224.327C223.469 223.496 221.957 223.089 220.556 223.089C218.638 223.089 217.956 223.736 217.956 224.548C217.956 227.024 227.102 225.177 227.102 231.124C227.102 233.526 225.369 235.65 221.773 236.185Z" fill="#FFB03B"/>
<path d="M233.428 269.877H269.292C270.582 269.877 271.615 268.824 271.615 267.55V264.206C271.615 262.913 270.564 261.879 269.292 261.879H233.428C232.138 261.879 231.105 262.932 231.105 264.206V267.55C231.087 268.824 232.138 269.877 233.428 269.877Z" fill="#F9BC38"/>
<path d="M266.175 261.861H247.921V269.859H266.175V261.861Z" fill="#FDD25A"/>
<path d="M233.428 261.861H234.811V269.859H233.428C232.138 269.859 231.105 268.806 231.105 267.531V264.188C231.087 262.913 232.138 261.861 233.428 261.861Z" fill="#FDD25A"/>
<path d="M271.43 268.436C271.08 269.268 270.25 269.859 269.291 269.859H233.428C232.469 269.859 231.64 269.268 231.289 268.436H271.43Z" fill="#F1A419"/>
<path d="M232.432 261.953H268.295C269.586 261.953 270.618 260.9 270.618 259.626V256.282C270.618 254.989 269.567 253.955 268.295 253.955H232.432C231.141 253.955 230.109 255.008 230.109 256.282V259.626C230.109 260.9 231.16 261.953 232.432 261.953Z" fill="#F9BC38"/>
<path d="M265.198 253.955H246.943V261.953H265.198V253.955Z" fill="#FDD25A"/>
<path d="M232.432 253.955H233.815V261.953H232.432C231.141 261.953 230.109 260.9 230.109 259.626V256.282C230.109 255.008 231.16 253.955 232.432 253.955Z" fill="#FDD25A"/>
<path d="M270.434 260.531C270.084 261.362 269.254 261.953 268.295 261.953H232.432C231.473 261.953 230.643 261.362 230.293 260.531H270.434Z" fill="#F1A419"/>
<path d="M234.405 254.029H270.268C271.559 254.029 272.591 252.976 272.591 251.701V248.358C272.591 247.065 271.54 246.031 270.268 246.031H234.405C233.114 246.031 232.081 247.083 232.081 248.358V251.701C232.081 252.976 233.132 254.029 234.405 254.029Z" fill="#F9BC38"/>
<path d="M267.17 246.031H248.916V254.029H267.17V246.031Z" fill="#FDD25A"/>
<path d="M234.405 246.031H235.788V254.029H234.405C233.114 254.029 232.081 252.976 232.081 251.701V248.358C232.081 247.083 233.132 246.031 234.405 246.031Z" fill="#FDD25A"/>
<path d="M272.407 252.606C272.057 253.438 271.227 254.029 270.268 254.029H234.405C233.446 254.029 232.616 253.438 232.266 252.606H272.407Z" fill="#F1A419"/>
<path d="M233.428 246.104H269.291C270.582 246.104 271.615 245.052 271.615 243.777V240.434C271.615 239.141 270.564 238.106 269.291 238.106H233.428C232.138 238.106 231.105 239.159 231.105 240.434V243.777C231.087 245.07 232.138 246.104 233.428 246.104Z" fill="#F9BC38"/>
<path d="M266.175 238.106H247.921V246.104H266.175V238.106Z" fill="#FDD25A"/>
<path d="M233.428 238.106H234.811V246.104H233.428C232.138 246.104 231.105 245.052 231.105 243.777V240.434C231.087 239.159 232.138 238.106 233.428 238.106Z" fill="#FDD25A"/>
<path d="M271.43 244.682C271.08 245.513 270.25 246.104 269.291 246.104H233.428C232.469 246.104 231.64 245.513 231.289 244.682H271.43Z" fill="#F1A419"/>
<path d="M231.935 238.199H267.798C269.089 238.199 270.122 237.146 270.122 235.871V232.528C270.122 231.235 269.071 230.201 267.798 230.201H231.935C230.645 230.201 229.612 231.253 229.612 232.528V235.871C229.612 237.146 230.663 238.199 231.935 238.199Z" fill="#F9BC38"/>
<path d="M264.701 230.182H246.446V238.18H264.701V230.182Z" fill="#FDD25A"/>
<path d="M231.935 230.182H233.318V238.18H231.935C230.645 238.18 229.612 237.127 229.612 235.853V232.51C229.612 231.235 230.663 230.182 231.935 230.182Z" fill="#FDD25A"/>
<path d="M269.937 236.758C269.587 237.589 268.757 238.18 267.798 238.18H231.935C230.976 238.18 230.147 237.589 229.796 236.758H269.937Z" fill="#F1A419"/>
<path d="M232.432 230.275H268.295C269.586 230.275 270.618 229.222 270.618 227.947V224.604C270.618 223.311 269.567 222.276 268.295 222.276H232.432C231.141 222.276 230.109 223.329 230.109 224.604V227.947C230.109 229.222 231.16 230.275 232.432 230.275Z" fill="#F9BC38"/>
<path d="M265.198 222.276H246.943V230.275H265.198V222.276Z" fill="#FDD25A"/>
<path d="M232.432 222.276H233.815V230.275H232.432C231.141 230.275 230.109 229.222 230.109 227.947V224.604C230.109 223.311 231.16 222.276 232.432 222.276Z" fill="#FDD25A"/>
<path d="M270.434 228.852C270.084 229.683 269.254 230.275 268.295 230.275H232.432C231.473 230.275 230.643 229.683 230.293 228.852H270.434Z" fill="#F1A419"/>
<path d="M228.985 222.35H264.848C266.139 222.35 267.171 221.297 267.171 220.023V216.68C267.171 215.387 266.12 214.352 264.848 214.352H228.985C227.694 214.352 226.661 215.405 226.661 216.68V220.023C226.643 221.297 227.694 222.35 228.985 222.35Z" fill="#F9BC38"/>
<path d="M261.731 214.352H243.477V222.35H261.731V214.352Z" fill="#FDD25A"/>
<path d="M228.985 214.352H230.368V222.35H228.985C227.694 222.35 226.661 221.297 226.661 220.023V216.68C226.643 215.405 227.694 214.352 228.985 214.352Z" fill="#FDD25A"/>
<path d="M266.986 220.928C266.636 221.759 265.806 222.35 264.847 222.35H228.984C228.025 222.35 227.196 221.759 226.845 220.928H266.986Z" fill="#F1A419"/>
<path d="M233.925 214.426H269.788C271.079 214.426 272.112 213.373 272.112 212.099V208.755C272.112 207.462 271.061 206.428 269.788 206.428H233.925C232.634 206.428 231.602 207.481 231.602 208.755V212.099C231.583 213.392 232.634 214.426 233.925 214.426Z" fill="#F9BC38"/>
<path d="M266.672 206.428H248.418V214.426H266.672V206.428Z" fill="#FDD25A"/>
<path d="M233.925 206.428H235.308V214.426H233.925C232.634 214.426 231.602 213.373 231.602 212.099V208.755C231.583 207.481 232.634 206.428 233.925 206.428Z" fill="#FDD25A"/>
<path d="M271.927 213.004C271.577 213.835 270.747 214.426 269.788 214.426H233.925C232.966 214.426 232.136 213.835 231.786 213.004H271.927Z" fill="#F1A419"/>
<path d="M264.367 269.877H300.231C301.521 269.877 302.554 268.824 302.554 267.549V264.206C302.554 262.913 301.503 261.879 300.231 261.879H264.367C263.077 261.879 262.044 262.932 262.044 264.206V267.549C262.044 268.824 263.095 269.877 264.367 269.877Z" fill="#FFC445"/>
<path d="M297.133 261.86H278.879V269.859H297.133V261.86Z" fill="#FFD86B"/>
<path d="M264.367 261.86H265.75V269.859H264.367C263.077 269.859 262.044 268.806 262.044 267.531V264.188C262.044 262.913 263.095 261.86 264.367 261.86Z" fill="#FFDE82"/>
<path d="M302.369 268.436C302.019 269.267 301.189 269.859 300.23 269.859H264.367C263.408 269.859 262.579 269.267 262.228 268.436H302.369Z" fill="#F1A419"/>
<path d="M264.865 261.953H300.728C302.019 261.953 303.052 260.9 303.052 259.625V256.282C303.052 254.989 302.001 253.955 300.728 253.955H264.865C263.575 253.955 262.542 255.008 262.542 256.282V259.625C262.542 260.9 263.575 261.953 264.865 261.953Z" fill="#FFC445"/>
<path d="M297.631 253.955H279.377V261.953H297.631V253.955Z" fill="#FFD86B"/>
<path d="M264.865 253.955H266.248V261.953H264.865C263.575 261.953 262.542 260.9 262.542 259.625V256.282C262.542 255.008 263.575 253.955 264.865 253.955Z" fill="#FFDE82"/>
<path d="M302.867 260.531C302.517 261.362 301.687 261.953 300.729 261.953H264.865C263.907 261.953 263.077 261.362 262.726 260.531H302.867Z" fill="#F1A419"/>
<path d="M264.865 254.029H300.728C302.019 254.029 303.052 252.976 303.052 251.701V248.358C303.052 247.065 302.001 246.031 300.728 246.031H264.865C263.575 246.031 262.542 247.083 262.542 248.358V251.701C262.542 252.976 263.575 254.029 264.865 254.029Z" fill="#FFC445"/>
<path d="M297.631 246.031H279.377V254.029H297.631V246.031Z" fill="#FFD86B"/>
<path d="M264.865 246.031H266.248V254.029H264.865C263.575 254.029 262.542 252.976 262.542 251.701V248.358C262.542 247.083 263.575 246.031 264.865 246.031Z" fill="#FFDE82"/>
<path d="M302.867 252.606C302.517 253.438 301.687 254.029 300.729 254.029H264.865C263.907 254.029 263.077 253.438 262.726 252.606H302.867Z" fill="#F1A419"/>
<path d="M264.367 246.104H300.23C301.521 246.104 302.554 245.052 302.554 243.777V240.434C302.554 239.141 301.503 238.106 300.23 238.106H264.367C263.077 238.106 262.044 239.159 262.044 240.434V243.777C262.044 245.07 263.095 246.104 264.367 246.104Z" fill="#FFC445"/>
<path d="M297.133 238.106H278.879V246.104H297.133V238.106Z" fill="#FFD86B"/>
<path d="M264.367 238.106H265.75V246.104H264.367C263.077 246.104 262.044 245.052 262.044 243.777V240.434C262.044 239.159 263.095 238.106 264.367 238.106Z" fill="#FFDE82"/>
<path d="M302.369 244.682C302.019 245.513 301.189 246.104 300.23 246.104H264.367C263.408 246.104 262.579 245.513 262.228 244.682H302.369Z" fill="#F1A419"/>
<path d="M204.363 146.584C212.644 138.288 212.644 124.839 204.363 116.543C196.082 108.248 182.657 108.248 174.376 116.543C166.095 124.839 166.095 138.288 174.376 146.584C182.657 154.879 196.082 154.879 204.363 146.584Z" fill="#717687"/>
<path d="M196.358 126.275C196.743 122.377 193.901 118.904 190.01 118.518C186.118 118.132 182.652 120.979 182.266 124.877C181.881 128.775 184.723 132.248 188.614 132.634C192.506 133.02 195.972 130.173 196.358 126.275Z" fill="white"/>
<path d="M202.581 144.475C202.525 137.179 196.625 131.287 189.323 131.287C182.04 131.287 176.121 137.179 176.066 144.475H202.581Z" fill="white"/>
<path d="M191.553 90.8848C198.011 89.6807 202.271 83.4606 201.069 76.9919C199.867 70.5232 193.658 66.2554 187.201 67.4595C180.743 68.6636 176.483 74.8837 177.685 81.3524C178.887 87.8212 185.096 92.089 191.553 90.8848Z" fill="#A0A7BF"/>
<path d="M189.378 85.3115C188.825 85.3115 188.383 84.8682 188.383 84.314V74.044C188.383 73.4898 188.825 73.0465 189.378 73.0465C189.932 73.0465 190.374 73.4898 190.374 74.044V84.314C190.374 84.8682 189.913 85.3115 189.378 85.3115Z" fill="white"/>
<path d="M195.5 79.179C195.5 79.7331 195.058 80.1764 194.505 80.1764H184.253C183.699 80.1764 183.257 79.7331 183.257 79.179C183.257 78.6248 183.699 78.1815 184.253 78.1815H194.505C195.039 78.2 195.5 78.6433 195.5 79.179Z" fill="white"/>
<path d="M157.437 104.281C163.46 101.654 166.216 94.6343 163.594 88.6011C160.972 82.568 153.964 79.8065 147.942 82.4333C141.919 85.06 139.163 92.0802 141.785 98.1133C144.407 104.146 151.415 106.908 157.437 104.281Z" fill="#A0A7BF"/>
<path d="M152.704 107.68C151.819 107.68 150.897 107.588 149.994 107.422C142.249 105.925 137.16 98.3892 138.635 90.6312C139.355 86.863 141.493 83.6121 144.665 81.4694C147.836 79.3267 151.635 78.5325 155.396 79.2528C159.158 79.9732 162.403 82.1159 164.542 85.293C166.681 88.47 167.474 92.2751 166.754 96.0433C165.427 102.915 159.416 107.68 152.704 107.68ZM152.667 79.6962C149.975 79.6962 147.339 80.5089 145.052 82.042C142.047 84.0923 140 87.1771 139.318 90.7605C137.898 98.149 142.747 105.334 150.123 106.757C150.989 106.923 151.856 106.997 152.704 106.997C159.102 106.997 164.837 102.453 166.091 95.914C166.773 92.3305 166.035 88.6917 163.989 85.6809C161.942 82.67 158.863 80.6197 155.286 79.9363C154.401 79.77 153.534 79.6962 152.667 79.6962Z" fill="#36383D"/>
<path d="M226.09 107.699C225.187 107.699 224.265 107.606 223.361 107.44C219.6 106.72 216.355 104.577 214.216 101.4C212.077 98.2229 211.284 94.4178 212.003 90.6497C212.722 86.8815 214.861 83.6306 218.033 81.4879C221.204 79.3452 225.002 78.5509 228.764 79.2713C232.525 79.9917 235.771 82.1344 237.909 85.3115C240.048 88.4885 240.841 92.2936 240.122 96.0618C239.403 99.8299 237.264 103.081 234.093 105.224C231.696 106.849 228.93 107.699 226.09 107.699ZM226.035 79.6962C223.343 79.6962 220.706 80.5089 218.42 82.042C215.414 84.0924 213.368 87.1771 212.685 90.7605C212.003 94.3439 212.741 97.9828 214.787 100.994C216.834 104.004 219.913 106.055 223.49 106.738C227.067 107.422 230.7 106.683 233.705 104.632C236.711 102.582 238.758 99.4974 239.44 95.914C240.122 92.3306 239.384 88.6917 237.338 85.6809C235.291 82.6701 232.212 80.6197 228.635 79.9363C227.768 79.7701 226.902 79.6962 226.035 79.6962Z" fill="#36383D"/>
<path d="M189.379 93.5312C188.494 93.5312 187.573 93.4388 186.669 93.2726C178.925 91.7764 173.836 84.2401 175.311 76.4821C176.03 72.714 178.169 69.463 181.34 67.3204C184.512 65.1777 188.31 64.3834 192.072 65.1038C199.816 66.6 204.905 74.1363 203.43 81.8942C202.121 88.7471 196.11 93.5312 189.379 93.5312ZM189.343 65.5286C186.651 65.5286 184.014 66.3414 181.727 67.8745C178.722 69.9248 176.675 73.0095 175.993 76.593C174.573 83.9815 179.423 91.1668 186.798 92.5891C194.174 94.0114 201.346 89.1535 202.766 81.7649C204.186 74.3764 199.336 67.191 191.961 65.7688C191.094 65.6025 190.209 65.5286 189.343 65.5286Z" fill="#36383D"/>
<path d="M152.686 99.479C152.133 99.479 151.691 99.0356 151.691 98.4815V88.2114C151.691 87.6573 152.133 87.214 152.686 87.214C153.24 87.214 153.682 87.6573 153.682 88.2114V98.4815C153.682 99.0356 153.24 99.479 152.686 99.479Z" fill="white"/>
<path d="M158.808 93.3465C158.808 93.9006 158.365 94.3439 157.812 94.3439H147.56C147.007 94.3439 146.565 93.9006 146.565 93.3465C146.565 92.7923 147.007 92.349 147.56 92.349H157.812C158.365 92.349 158.808 92.8108 158.808 93.3465Z" fill="white"/>
<path d="M229.935 104.613C236.147 102.473 239.451 95.6938 237.315 89.4712C235.179 83.2485 228.412 79.9387 222.2 82.0785C215.989 84.2183 212.685 90.9974 214.821 97.22C216.957 103.443 223.724 106.752 229.935 104.613Z" fill="#A0A7BF"/>
<path d="M226.054 99.479C225.5 99.479 225.058 99.0356 225.058 98.4815V88.2114C225.058 87.6573 225.5 87.214 226.054 87.214C226.607 87.214 227.049 87.6573 227.049 88.2114V98.4815C227.049 99.0356 226.607 99.479 226.054 99.479Z" fill="white"/>
<path d="M232.175 93.3465C232.175 93.9006 231.733 94.3439 231.18 94.3439H220.928C220.375 94.3439 219.932 93.9006 219.932 93.3465C219.932 92.7923 220.375 92.349 220.928 92.349H231.18C231.733 92.349 232.175 92.8108 232.175 93.3465Z" fill="white"/>
<path d="M171.677 116.861C171.585 116.861 171.475 116.824 171.401 116.75L167.473 112.686C167.326 112.538 167.326 112.298 167.473 112.15C167.621 112.003 167.861 112.003 168.008 112.15L171.936 116.214C172.083 116.362 172.083 116.602 171.936 116.75C171.862 116.824 171.77 116.861 171.677 116.861ZM165.132 110.082C165.039 110.082 164.929 110.045 164.855 109.971L160.928 105.907C160.78 105.759 160.78 105.519 160.928 105.371C161.075 105.224 161.315 105.224 161.462 105.371L165.39 109.435C165.537 109.583 165.537 109.823 165.39 109.971C165.316 110.045 165.224 110.082 165.132 110.082Z" fill="#2B2D33"/>
<path d="M207.374 116.38C207.282 116.38 207.19 116.343 207.116 116.269C206.969 116.122 206.969 115.882 207.116 115.734L211.044 111.67C211.191 111.522 211.431 111.522 211.578 111.67C211.726 111.818 211.726 112.058 211.578 112.206L207.651 116.269C207.577 116.343 207.485 116.38 207.374 116.38ZM213.938 109.601C213.846 109.601 213.754 109.564 213.68 109.49C213.533 109.343 213.533 109.103 213.68 108.955L217.608 104.891C217.755 104.743 217.995 104.743 218.142 104.891C218.29 105.039 218.29 105.279 218.142 105.427L214.215 109.49C214.141 109.564 214.031 109.601 213.938 109.601Z" fill="#2B2D33"/>
<path d="M189.378 108.733C189.176 108.733 189.01 108.567 189.01 108.364L188.991 102.693C188.991 102.49 189.157 102.324 189.36 102.305C189.581 102.305 189.729 102.471 189.747 102.675L189.766 108.345C189.747 108.567 189.581 108.733 189.378 108.733ZM189.342 99.2942C189.139 99.2942 188.973 99.128 188.973 98.9248L188.954 93.2541C188.954 93.0509 189.12 92.8847 189.323 92.8662C189.526 92.8662 189.692 93.0325 189.692 93.2356L189.71 98.9063C189.729 99.128 189.563 99.2942 189.342 99.2942Z" fill="#2B2D33"/>
<path d="M189.379 155.17C187.904 155.17 186.411 155.022 184.917 154.745C172.158 152.289 163.768 139.894 166.239 127.112C168.691 114.33 181.063 105.925 193.823 108.401C200 109.583 205.347 113.129 208.887 118.338C212.409 123.566 213.7 129.846 212.52 136.034C210.344 147.32 200.442 155.17 189.379 155.17ZM189.361 108.715C178.648 108.715 169.06 116.325 166.976 127.241C164.598 139.617 172.711 151.624 185.065 153.988C186.521 154.265 187.959 154.394 189.379 154.394C200.092 154.394 209.68 146.784 211.764 135.868C212.907 129.883 211.672 123.787 208.242 118.745C204.831 113.683 199.65 110.266 193.675 109.121C192.237 108.862 190.799 108.715 189.361 108.715Z" fill="#2B2D33"/>
<path d="M240.84 41.3866H233.76C233.502 41.3866 233.28 41.1649 233.28 40.9063C233.28 40.6477 233.502 40.4261 233.76 40.4261H240.84C241.098 40.4261 241.32 40.6477 241.32 40.9063C241.32 41.1649 241.098 41.3866 240.84 41.3866Z" fill="#36383D"/>
<path d="M240.84 44.6191H233.76C233.502 44.6191 233.28 44.3974 233.28 44.1388C233.28 43.8802 233.502 43.6586 233.76 43.6586H240.84C241.098 43.6586 241.32 43.8802 241.32 44.1388C241.32 44.3974 241.098 44.6191 240.84 44.6191Z" fill="#36383D"/>
<path d="M240.84 47.6669H233.76C233.502 47.6669 233.28 47.4452 233.28 47.1866C233.28 46.928 233.502 46.7064 233.76 46.7064H240.84C241.098 46.7064 241.32 46.928 241.32 47.1866C241.32 47.4452 241.098 47.6669 240.84 47.6669Z" fill="#36383D"/>
<path d="M360.923 44.3836H343.622C343.349 44.3836 343.103 44.1646 343.103 43.8634C343.103 43.5896 343.321 43.3431 343.622 43.3431H360.923C361.197 43.3431 361.443 43.5622 361.443 43.8634C361.443 44.1646 361.224 44.3836 360.923 44.3836Z" fill="#EBF0FA"/>
<path d="M29.0538 168.396C28.5929 169.208 30.2708 172.145 32.1884 174.269C34.106 176.394 35.5258 176.227 35.5258 176.227L36.7981 178.924L40.3198 177.262L38.6972 173.808C38.6972 173.808 38.5129 171.868 36.8718 169.947C35.2308 168.026 32.1331 169.67 32.1331 169.67C32.1331 169.67 29.4963 167.601 29.0538 168.396Z" fill="#FFBFA3"/>
<path d="M21.5493 175.119C16.0361 172.625 6.07923 191.189 7.49901 195.604C9.91447 203.103 21.7152 206.927 21.7152 206.927L23.5406 203.14L13.1597 194.385C13.1597 194.403 27.0624 177.613 21.5493 175.119Z" fill="#5CB30B"/>
<path d="M25.3103 157.368C26.896 156.112 26.6379 153.194 24.9968 152.547C23.3373 151.901 21.7516 152.03 20.2212 152.325C18.6908 152.621 18.322 151.864 14.0258 154.745C9.7296 157.627 9.37926 162.226 11.3891 165.292C13.3989 168.359 18.027 171.222 18.027 171.222C18.027 171.222 23.7245 158.606 25.3103 157.368Z" fill="#3B3B3B"/>
<path d="M19.3547 177.927C19.5022 177.003 16.5335 166.53 16.5335 166.53C16.5335 166.53 13.8415 165.606 14.2287 163.297C14.6159 160.989 17.5845 163.556 17.5845 163.556C17.5845 163.556 18.8015 166.715 19.3547 166.382C19.9078 166.05 19.3547 162.836 19.7603 161.764C20.166 160.693 25.7713 156.685 25.7713 156.685C25.7713 156.685 28.9059 163.39 27.984 168.931C27.6152 171.148 25.8451 171.757 23.8721 171.702C24.2225 173.401 24.7572 176.08 25.0522 177.945C25.4947 180.864 19.1887 178.85 19.3547 177.927Z" fill="#FFBFA3"/>
<path d="M6.61412 259.662C3.40579 258.148 11.4266 234.19 17.5851 229.868C17.5851 229.868 18.2674 212.634 20.9963 207.315C23.7252 201.995 29.5149 207.629 29.5149 207.629C29.5149 207.629 28.7958 230.016 24.3152 236.296C19.8715 242.595 10.7259 261.602 6.61412 259.662Z" fill="#111214"/>
<path d="M34.1978 203.14C34.1978 203.14 35.9679 218.287 35.5254 231.808C35.0828 245.329 35.4701 262.285 30.6576 262.673C25.8266 263.061 24.6097 214.315 22.8396 212.727C20.6822 212.727 18.5249 209.199 18.4327 207.167C18.3405 205.135 19.3915 203.14 19.3915 203.14H34.1978Z" fill="url(#paint3_linear_2002_3)"/>
<path d="M22.6372 174.269C27.8738 174.602 31.5246 179.589 33.1103 184.262C34.6961 188.936 35.2861 205.19 34.7514 209.106C34.2167 213.022 20.5905 209.531 18.9494 209.476C17.3084 209.42 18.2672 202.438 17.4928 196.361C16.7184 190.266 16.239 187.162 16.239 182.674C16.239 178.167 17.4006 173.937 22.6372 174.269Z" fill="#78C034"/>
<path d="M32.8884 260.605C33.2203 261.934 33.5522 263.283 33.5522 263.283L32.7962 265.961H29.1085C29.1085 265.961 29.2375 262.415 29.385 261.029C29.5325 259.662 32.5749 259.275 32.8884 260.605Z" fill="#FFBFA3"/>
<path d="M45.3529 268.787C44.4126 268.75 28.9978 268.159 28.9978 268.159C28.9978 268.159 27.7809 266.848 29.1454 264.059C31.358 266.608 33.46 262.766 33.46 262.766C33.46 262.766 41.7943 263.597 44.8551 265.61C47.9344 267.642 46.2933 268.824 45.3529 268.787Z" fill="#111214"/>
<path d="M9.43422 258.037C9.19452 259.385 8.93638 260.752 8.93638 260.752L7.16627 262.895L3.79199 261.38C3.79199 261.38 5.35928 258.203 6.05995 257.003C6.74218 255.802 9.69237 256.688 9.43422 258.037Z" fill="#FFBFA3"/>
<path d="M18.156 267.956C16.5518 267.956 13.4172 267.956 12.0712 267.956C10.7436 267.956 2.79656 264.003 2.79656 264.003C2.79656 264.003 2.22496 261.676 4.60355 259.681C5.93113 262.248 9.0657 260.272 9.0657 260.272C9.0657 260.272 11.4074 261.879 12.9747 262.673C14.542 263.468 17.9163 264.428 19.0779 265.518C20.2395 266.589 19.7601 267.956 18.156 267.956Z" fill="#111214"/>
<path d="M23.2079 177.188C19.4464 184.004 34.898 197.026 39.3786 195.013C43.8592 192.999 40.2636 175.784 40.2636 175.784L35.5986 177.077V186.775C35.5986 186.793 26.9878 170.372 23.2079 177.188Z" fill="#5CB30B"/>
<defs>
<linearGradient id="paint0_linear_2002_3" x1="189.116" y1="35.919" x2="189.116" y2="252.562" gradientUnits="userSpaceOnUse">
<stop stop-color="#EBF0FA"/>
<stop offset="1" stop-color="white"/>
</linearGradient>
<linearGradient id="paint1_linear_2002_3" x1="143.312" y1="151.69" x2="129.278" y2="159.715" gradientUnits="userSpaceOnUse">
<stop stop-color="#A0A7BF"/>
<stop offset="1" stop-color="#717687"/>
</linearGradient>
<linearGradient id="paint2_linear_2002_3" x1="101.595" y1="155.684" x2="99.7606" y2="138.192" gradientUnits="userSpaceOnUse">
<stop stop-color="#A0A7BF"/>
<stop offset="1" stop-color="#717687"/>
</linearGradient>
<linearGradient id="paint3_linear_2002_3" x1="32.5386" y1="252.453" x2="22.5352" y2="176.755" gradientUnits="userSpaceOnUse">
<stop stop-color="#111214"/>
<stop offset="1" stop-color="#454852"/>
</linearGradient>
</defs>
</svg>
