<svg width="201" height="252" viewBox="0 0 201 252" fill="none" xmlns="http://www.w3.org/2000/svg">
<path d="M200.724 171.275L200.996 189.724C200.95 186.59 200.505 183.517 199.68 180.521C200.416 177.503 200.77 174.418 200.724 171.275Z" fill="#3354CC"/>
<path d="M200.724 171.275C200.771 174.418 200.416 177.503 199.679 180.521C191.834 151.89 149.934 130.494 99.7559 131.235C49.5783 131.975 8.31845 154.598 1.32109 183.448C0.495526 180.453 0.0504006 177.379 0.00398787 174.236C-0.48499 141.108 44.0555 113.594 99.4837 112.777C154.911 111.959 200.235 138.147 200.724 171.275Z" fill="#3354CC"/>
<path d="M199.679 180.521C200.505 183.517 200.95 186.59 200.996 189.724C201.485 222.851 156.954 250.365 101.525 251.183C46.0973 252.001 0.764862 225.813 0.275884 192.685C0.229471 189.552 0.583966 186.466 1.32072 183.448C9.17507 212.079 51.0752 233.466 101.253 232.726C151.431 231.985 192.673 209.371 199.679 180.521Z" fill="#3354CC"/>
<path d="M99.7558 131.235C149.933 130.494 191.834 151.89 199.679 180.521C192.673 209.371 151.431 231.985 101.253 232.725C51.0758 233.466 9.17564 212.079 1.32092 183.448C8.31792 154.598 49.5777 131.975 99.7558 131.235Z" fill="#3354CC"/>
<path d="M0.00390625 174.236C0.050319 177.379 0.495444 180.453 1.32101 183.448C0.583884 186.466 0.229767 189.552 0.276179 192.685L0.00390625 174.236Z" fill="#3354CC"/>
<path d="M147.628 225.161C160.547 220.6 198.638 204.675 200.428 174.769L200.555 174.842L200.991 194.01C195.549 226.814 158.23 240.569 147.728 243.821V225.198L147.628 225.161Z" fill="#3354CC"/>
<path d="M200.428 174.769C198.638 204.675 160.546 220.601 147.628 225.161L54.3478 189.722L71.545 168.374L109.319 164.776L132.339 159.325L143.568 155.864L157.403 164.776L200.428 174.769Z" fill="#3354CC"/>
<path d="M95.884 220.158C97.6364 219.865 99.4563 219.484 100.842 218.372C102.228 217.26 103.011 215.194 102.135 213.648C101.504 212.532 100.227 211.975 99.0251 211.531C95.2083 210.122 91.1506 209.089 87.0992 209.466C83.0478 209.843 78.9854 211.821 76.8888 215.308C75.8881 216.973 74.8382 217.594 73.1556 217.772C77.1822 222.881 90.3229 221.087 95.884 220.158Z" fill="#3354CC"/>
<path d="M69.8295 176.295L67.9441 189.524C60.4384 193.769 54.3459 189.725 54.3459 189.725L46.5248 160.894C52.8548 167.478 60.8279 172.748 69.8295 176.295Z" fill="#DB8896"/>
<path d="M115.808 179.178L113.789 188.848C106.094 195.685 98.9916 189.067 98.9916 189.067L97.8518 181.397C100.831 181.371 103.854 181.181 106.901 180.8C109.94 180.419 112.911 179.875 115.808 179.178Z" fill="#DB8896"/>
<path d="M71.8011 97.4668C73.3452 97.4442 74.64 100.214 74.6908 103.657C74.7416 107.091 73.529 109.898 71.9849 109.92C70.4409 109.943 69.1461 107.173 69.0953 103.739C69.0445 100.297 70.2567 97.4898 71.8011 97.4668Z" fill="#333523"/>
<path d="M50.8071 119.845C63.597 119.657 74.0884 127.507 74.2339 137.38C74.3797 147.254 64.1243 155.41 51.3345 155.599C47.5012 155.655 43.8756 154.991 40.6775 153.766C35.7764 146.716 32.522 138.586 31.4282 129.744C31.3767 129.336 31.3343 128.919 31.2919 128.511C35.3236 123.417 42.5322 119.968 50.8071 119.845ZM57.1178 137.451C57.0498 132.837 56.2225 129.106 55.2778 129.12C54.3239 129.134 53.6069 132.887 53.6752 137.502C53.7432 142.117 54.5706 145.848 55.5244 145.833C56.4691 145.819 57.1862 142.065 57.1178 137.451ZM41.851 137.858C41.783 133.243 40.9556 129.512 40.0018 129.527C39.0571 129.541 38.34 133.295 38.4084 137.909C38.4763 142.523 39.3037 146.254 40.2484 146.24C41.2023 146.227 41.9193 142.473 41.851 137.858Z" fill="#CB5D63"/>
<path d="M55.2779 129.12C56.2226 129.106 57.05 132.837 57.1179 137.451C57.1859 142.066 56.4693 145.819 55.5246 145.833C54.5707 145.847 53.7433 142.116 53.6754 137.502C53.6074 132.887 54.3244 129.133 55.2779 129.12Z" fill="#983D52"/>
<path d="M116.43 67.9802L126.822 73.3601C126.127 73.0981 108.77 66.6942 92.4788 74.6301L83.3713 70.0761C83.3713 70.0761 99.7938 63.6284 116.43 67.9802Z" fill="#A85A65"/>
<path d="M162.416 143.348L160.106 165.369C160.106 165.369 153.836 171.458 147.854 166.295L147.019 163.209C153.54 157.534 158.792 150.77 162.407 143.348H162.416Z" fill="#DB8896"/>
<path d="M39.5459 98.6063C38.0018 98.629 36.7892 101.436 36.84 104.87C36.8908 108.312 38.1853 111.083 39.7297 111.06C41.2737 111.037 42.4863 108.23 42.4355 104.787C42.3847 101.353 41.0899 98.5833 39.5459 98.6063ZM116.549 68.0057C116.494 67.952 116.147 67.8391 116.43 67.9801C99.794 63.6283 83.3715 70.076 83.3715 70.076L92.479 74.6299C108.77 66.6941 126.128 73.0976 126.822 73.36L116.43 67.9801C116.503 67.9973 116.54 68.0057 116.549 68.0057ZM148.043 77.5075C158.689 86.5357 165.902 98.7949 167.645 112.888C168.966 123.572 166.984 133.995 162.407 143.348C158.792 150.769 153.54 157.534 147.018 163.209C138.515 170.648 127.84 176.266 115.809 179.178C112.912 179.875 109.94 180.419 106.902 180.8C103.855 181.181 100.832 181.371 97.8523 181.397C87.905 181.489 78.4021 179.676 69.83 176.295C60.8285 172.749 52.8554 167.478 46.5253 160.894V160.885C44.3753 158.654 42.4234 156.285 40.6784 153.766C43.8765 154.991 47.5022 155.655 51.3354 155.599C64.1252 155.41 74.3806 147.254 74.2348 137.38C74.089 127.506 63.5975 119.657 50.8081 119.845C42.5331 119.968 35.3245 123.417 31.2928 128.51C30.142 117.016 32.8029 105.847 38.3819 96.0248C42.7209 88.3743 48.8255 81.5425 56.2848 75.9993C66.2061 68.6116 78.5055 63.515 92.1815 61.8229C113.656 59.1624 133.883 65.4782 148.043 77.5075ZM74.6905 103.657C74.6397 100.214 73.3453 97.4442 71.8009 97.4668C70.2565 97.4895 69.0443 100.297 69.0951 103.739C69.1455 107.173 70.4403 109.943 71.9847 109.92C73.5291 109.898 74.7413 107.091 74.6905 103.657Z" fill="#DB8896"/>
<path d="M40.0019 129.527C40.9557 129.513 41.7831 133.244 41.8511 137.858C41.9191 142.472 41.2024 146.226 40.2486 146.24C39.3039 146.254 38.4765 142.523 38.4085 137.909C38.3405 133.295 39.0576 129.541 40.0019 129.527Z" fill="#983D52"/>
<path d="M40.6775 153.766C33.1762 150.906 28.0006 144.986 27.8986 138.064C27.8471 134.567 29.0889 131.296 31.2919 128.511C31.3343 128.919 31.3767 129.336 31.4282 129.744C32.522 138.586 35.7764 146.715 40.6775 153.766Z" fill="#CB5D63"/>
<path d="M39.5457 98.6063C41.0898 98.5833 42.3846 101.353 42.4354 104.787C42.4862 108.23 41.2736 111.037 39.7296 111.06C38.1855 111.083 36.8907 108.312 36.8399 104.87C36.7891 101.436 38.0017 98.629 39.5457 98.6063Z" fill="#333523"/>
<path d="M44.62 68.7486C48.6389 66.4996 53.612 72.2592 56.2839 75.9992C48.8246 81.5424 42.72 88.3739 38.381 96.0247C38.4775 92.7071 39.2855 71.7256 44.62 68.7486Z" fill="#DB8896"/>
<path d="M56.9185 77.5619C56.9185 77.5619 60.4265 60.7854 67.3292 60.2558C74.2319 59.7263 78.0516 74.2633 78.0516 74.2633C78.0516 74.2633 56.0417 89.4008 56.9185 77.5619Z" fill="#DB8896"/>
<path d="M100.628 68.2465C106.272 68.1759 110.79 63.5434 110.72 57.8994C110.649 52.2555 106.017 47.7374 100.373 47.8079C94.7288 47.8785 90.2106 52.511 90.2812 58.1549C90.3518 63.7989 94.9843 68.317 100.628 68.2465Z" fill="#FFCE00"/>
<path d="M102.32 62.1672C103.635 61.6073 104.45 60.7046 104.518 59.6883C104.615 58.2517 103.252 57.0512 101.923 56.6602C101.756 56.6101 101.583 56.5761 101.411 56.5381C101.162 55.1603 100.891 53.787 100.604 52.4172C101.27 52.3869 101.952 52.6014 102.455 52.8181C102.766 52.9526 103.095 53.1726 103.083 53.3868C103.072 53.5662 103.22 53.7281 103.411 53.7464C103.603 53.7654 103.767 53.6357 103.778 53.4559C103.807 52.9705 103.43 52.5338 102.718 52.2268C101.908 51.8756 101.143 51.724 100.466 51.7689C100.324 51.1063 100.189 50.4419 100.039 49.7827C99.9981 49.6047 99.8128 49.483 99.625 49.513C99.4371 49.5418 99.318 49.7099 99.3586 49.8879C99.5099 50.5516 99.6458 51.2207 99.7883 51.8877C99.7858 51.8884 99.7829 51.8884 99.7803 51.8892C98.7786 52.1983 98.0422 53.1131 97.9892 54.1148C97.9366 55.1161 98.5703 56.1606 99.53 56.6539C99.9426 56.867 100.38 56.9726 100.811 57.0644C101.088 58.6212 101.336 60.1799 101.564 61.7378C100.531 62.0795 99.6159 62.1361 98.8469 61.8993C98.0703 61.6629 97.2536 60.9517 97.2481 60.1031C97.247 59.9222 97.0906 59.7716 96.8983 59.7618C96.7057 59.7537 96.5512 59.893 96.5523 60.0735C96.5596 61.2075 97.5339 62.1211 98.533 62.4771C98.5758 62.4924 98.6185 62.5067 98.6613 62.5199C99.5366 62.7888 100.546 62.741 101.656 62.4018C101.768 63.1959 101.885 63.9908 101.984 64.7831C102.001 64.9143 102.097 65.0221 102.222 65.0667C102.268 65.0832 102.319 65.0912 102.371 65.0879C102.562 65.0758 102.698 64.9202 102.676 64.7404C102.568 63.8837 102.442 63.0253 102.32 62.1672ZM101.745 57.2822C102.819 57.6016 103.894 58.5624 103.824 59.6141C103.76 60.5523 102.89 61.1472 102.224 61.4699C102.015 60.0578 101.792 58.6453 101.543 57.2343C101.61 57.2511 101.678 57.2624 101.745 57.2822ZM99.8391 56.0849C99.1196 55.7144 98.6445 54.9312 98.6836 54.1802C98.7216 53.4624 99.2299 52.8086 99.9298 52.5495C100.195 53.8199 100.446 55.0935 100.679 56.3707C100.381 56.3006 100.097 56.218 99.8391 56.0849Z" fill="#E0B500"/>
<path d="M73.807 25.6546C78.3328 25.0948 82.4555 28.3093 83.0154 32.8351C83.5753 37.3609 80.3607 41.4836 75.8349 42.0435C71.3091 42.6033 67.1864 39.3888 66.6266 34.863C66.0667 30.3372 69.2812 26.2145 73.807 25.6546Z" fill="#FFCE00"/>
<path d="M76.3474 38.1294C77.4426 37.6631 78.1209 36.9117 78.1779 36.0654C78.2583 34.8692 77.1236 33.8693 76.017 33.5437C75.8774 33.5021 75.7338 33.4736 75.5909 33.4421C75.3833 32.295 75.1578 31.1515 74.9188 30.0109C75.4732 29.9857 76.0408 30.164 76.4596 30.3449C76.7194 30.4571 76.9931 30.6402 76.9825 30.8185C76.9738 30.968 77.0965 31.1028 77.2559 31.1178C77.4156 31.1335 77.5523 31.0257 77.561 30.8759C77.5848 30.4717 77.2712 30.1081 76.6785 29.8523C76.0042 29.5595 75.3665 29.4335 74.8026 29.4711C74.6846 28.9196 74.5724 28.3663 74.447 27.817C74.4134 27.6687 74.2588 27.5678 74.1027 27.5923C73.9463 27.6164 73.8473 27.7564 73.8809 27.9048C74.007 28.4573 74.1199 29.0146 74.2387 29.5698C74.2365 29.5705 74.2339 29.5705 74.2318 29.5712C73.3974 29.8285 72.7846 30.5905 72.7403 31.4244C72.6965 32.2584 73.2242 33.1278 74.0231 33.539C74.3666 33.7162 74.7313 33.8043 75.0898 33.8807C75.3204 35.1773 75.5273 36.475 75.717 37.772C74.8567 38.0567 74.0947 38.1035 73.4544 37.9065C72.8076 37.7095 72.1278 37.1175 72.1231 36.4107C72.122 36.2601 71.9919 36.1348 71.8318 36.1264C71.6717 36.1194 71.5427 36.2357 71.5438 36.3859C71.5497 37.3302 72.3614 38.0911 73.1931 38.3875C73.2286 38.4002 73.2644 38.4123 73.2998 38.4229C74.0286 38.6469 74.8687 38.6071 75.793 38.3242C75.8865 38.9857 75.9841 39.6472 76.0667 40.3072C76.0806 40.4165 76.1603 40.506 76.2644 40.5433C76.3032 40.5572 76.3452 40.5637 76.3883 40.5608C76.5473 40.5506 76.6609 40.4212 76.6423 40.2714C76.5539 39.5587 76.4493 38.8439 76.3474 38.1294ZM75.8683 34.0616C76.7629 34.3276 77.6583 35.1276 77.5994 36.0032C77.5468 36.7846 76.8217 37.2798 76.2673 37.5487C76.0937 36.3731 75.9077 35.1967 75.7005 34.0217C75.7561 34.036 75.8134 34.0451 75.8683 34.0616ZM74.2814 33.0646C73.6821 32.7562 73.2867 32.1042 73.3192 31.4785C73.351 30.881 73.7742 30.3365 74.3571 30.1205C74.5782 31.1785 74.7869 32.239 74.9809 33.3025C74.7328 33.2444 74.4963 33.1757 74.2814 33.0646Z" fill="#E0B500"/>
<path d="M121.177 13.9768C121.262 19.7459 116.654 24.492 110.885 24.5772C105.116 24.6623 100.37 20.0543 100.285 14.2853C100.2 8.51619 104.808 3.77039 110.577 3.68488C116.346 3.59973 121.092 8.20738 121.177 13.9768Z" fill="#CBC6BD"/>
<path d="M112.481 19.0075C113.853 18.4239 114.702 17.4825 114.773 16.4227C114.874 14.9247 113.453 13.6726 112.067 13.2648C111.892 13.2129 111.712 13.1771 111.534 13.1376C111.273 11.701 110.991 10.2691 110.692 8.84058C111.386 8.80878 112.097 9.03244 112.622 9.25865C112.947 9.39899 113.29 9.6285 113.276 9.85143C113.265 10.0385 113.419 10.2074 113.619 10.2264C113.819 10.2461 113.99 10.1109 114.001 9.92342C114.031 9.41726 113.638 8.96191 112.896 8.64177C112.051 8.27522 111.253 8.11734 110.547 8.16449C110.399 7.47378 110.259 6.78088 110.102 6.09309C110.059 5.90744 109.866 5.78063 109.671 5.81169C109.475 5.84202 109.35 6.01707 109.393 6.20272C109.551 6.89489 109.692 7.59255 109.841 8.28801C109.838 8.28874 109.835 8.28874 109.832 8.28947C108.788 8.6118 108.02 9.56564 107.965 10.6105C107.91 11.6546 108.571 12.7436 109.571 13.2582C110.002 13.4804 110.458 13.5904 110.907 13.6861C111.196 15.3095 111.455 16.9347 111.693 18.5595C110.615 18.9158 109.661 18.9746 108.859 18.7279C108.049 18.4816 107.198 17.7398 107.192 16.855C107.191 16.6664 107.028 16.5093 106.827 16.499C106.627 16.4906 106.465 16.6357 106.467 16.8239C106.474 18.0062 107.49 18.9589 108.532 19.3302C108.577 19.3459 108.621 19.3609 108.666 19.3748C109.578 19.6551 110.631 19.6054 111.788 19.2516C111.905 20.0798 112.027 20.9086 112.131 21.7349C112.148 21.872 112.248 21.9842 112.378 22.0306C112.427 22.0477 112.479 22.0561 112.533 22.0525C112.733 22.0397 112.875 21.8774 112.851 21.69C112.74 20.7975 112.609 19.9022 112.481 19.0075ZM111.881 13.9135C113.002 14.2464 114.123 15.2485 114.049 16.3452C113.983 17.3231 113.075 17.9437 112.381 18.2806C112.164 16.8082 111.93 15.3354 111.671 13.8638C111.741 13.8813 111.812 13.893 111.881 13.9135ZM109.894 12.6651C109.144 12.2788 108.648 11.462 108.689 10.6792C108.729 9.93073 109.259 9.24916 109.989 8.97872C110.266 10.3035 110.527 11.6312 110.77 12.9633C110.459 12.8898 110.164 12.8039 109.894 12.6651Z" fill="#8F8E87"/>
<path d="M168.977 188.877V192.511C168.977 191.884 168.822 191.275 168.523 190.703C168.822 190.122 168.977 189.513 168.977 188.877Z" fill="#CCA500"/>
<path d="M143.567 188.877C143.567 189.513 143.722 190.122 144.022 190.703C143.722 191.275 143.567 191.884 143.567 192.511V188.877Z" fill="#CCA500"/>
<path d="M168.977 192.511C168.977 196.317 163.29 199.406 156.277 199.406C149.254 199.406 143.567 196.317 143.567 192.511C143.567 191.884 143.722 191.275 144.022 190.703C145.493 193.619 150.417 195.772 156.277 195.772C162.127 195.772 167.051 193.619 168.523 190.703C168.822 191.275 168.977 191.884 168.977 192.511Z" fill="#CCA500"/>
<path d="M91.4036 208.772V212.406C91.4036 211.779 91.249 211.171 90.9585 210.589C91.249 210.008 91.4036 209.399 91.4036 208.772Z" fill="#DBB100"/>
<path d="M65.9945 208.772C65.9945 209.399 66.1491 210.008 66.4396 210.589C66.1491 211.171 65.9945 211.78 65.9945 212.406V208.772Z" fill="#DBB100"/>
<path d="M91.4037 212.406C91.4037 216.213 85.7169 219.301 78.6943 219.301C71.6809 219.301 65.994 216.212 65.994 212.406C65.994 211.78 66.1486 211.171 66.4391 210.589C67.9017 213.514 72.8346 215.658 78.6943 215.658C84.5631 215.658 89.4957 213.514 90.9586 210.589C91.2491 211.171 91.4037 211.78 91.4037 212.406Z" fill="#DBB100"/>
<path d="M168.523 190.703C167.051 193.619 162.127 195.772 156.277 195.772C150.417 195.772 145.493 193.619 144.021 190.703C145.475 187.778 150.408 185.625 156.277 185.625C162.136 185.625 167.069 187.778 168.523 190.703Z" fill="#F9C900"/>
<path d="M156.277 181.991C163.29 181.991 168.977 185.071 168.977 188.877C168.977 189.513 168.822 190.122 168.523 190.703C167.069 187.778 162.136 185.625 156.277 185.625C150.408 185.625 145.475 187.778 144.022 190.703C143.722 190.122 143.567 189.513 143.567 188.877C143.567 185.071 149.254 181.991 156.277 181.991Z" fill="#F9C900"/>
<path d="M90.9585 210.589C89.496 213.514 84.5631 215.658 78.6942 215.658C72.8345 215.658 67.9016 213.514 66.4391 210.589C67.9016 207.664 72.8345 205.52 78.6942 205.52C84.5631 205.52 89.496 207.664 90.9585 210.589Z" fill="#F9C900"/>
<path d="M90.9586 210.589C89.4961 207.664 84.5631 205.52 78.6943 205.52C72.8346 205.52 67.9017 207.664 66.4391 210.589C66.1486 210.008 65.994 209.399 65.994 208.772C65.994 204.966 71.6809 201.877 78.6943 201.877C85.7169 201.877 91.4037 204.966 91.4037 208.772C91.4037 209.399 91.2491 210.008 90.9586 210.589Z" fill="#F9C900"/>
<path d="M82.4983 209.958C83.8264 209.36 84.3939 208.714 84.0113 208.194C83.4704 207.458 81.2795 207.195 79.5005 207.325C79.2761 207.341 79.0524 207.366 78.8284 207.389C77.8976 206.767 76.9434 206.152 75.9709 205.543C76.7588 205.366 77.6776 205.306 78.3826 205.291C78.8196 205.282 79.3163 205.311 79.3989 205.42C79.4683 205.511 79.7198 205.556 79.9591 205.518C80.1989 205.481 80.337 205.376 80.2676 205.285C80.0797 205.037 79.4267 204.913 78.4286 204.934C77.2924 204.957 76.3013 205.068 75.5064 205.256C75.0324 204.962 74.5661 204.665 74.0833 204.375C73.9529 204.297 73.6744 204.282 73.4617 204.342C73.2487 204.403 73.1821 204.515 73.3122 204.593C73.7983 204.885 74.2679 205.184 74.7448 205.48C74.7419 205.481 74.7382 205.481 74.7357 205.482C73.6707 205.879 73.2026 206.512 73.5977 207.022C73.9927 207.531 75.2334 207.894 76.6149 207.905C77.2091 207.91 77.7847 207.856 78.3453 207.797C79.3912 208.501 80.4035 209.213 81.3906 209.93C80.3027 210.351 79.2267 210.602 78.1925 210.672C77.1491 210.744 75.8404 210.59 75.4454 210.171C75.3613 210.082 75.1037 210.045 74.868 210.087C74.6326 210.13 74.5098 210.237 74.5939 210.326C75.1212 210.886 76.7128 211.102 78.0792 211.035C78.1377 211.032 78.1958 211.029 78.2532 211.025C79.4299 210.945 80.6232 210.675 81.805 210.236C82.3039 210.602 82.8082 210.968 83.2902 211.337C83.3703 211.398 83.5351 211.428 83.7058 211.419C83.7694 211.416 83.834 211.408 83.8947 211.394C84.1191 211.341 84.2123 211.231 84.103 211.147C83.5826 210.749 83.0388 210.354 82.4983 209.958ZM79.5703 207.677C81.0105 207.573 82.745 207.787 83.1411 208.326C83.4942 208.807 82.7179 209.314 82.0638 209.636C81.167 208.987 80.2515 208.341 79.3061 207.702C79.3941 207.695 79.4818 207.683 79.5703 207.677ZM76.7281 207.548C75.6917 207.539 74.7616 207.267 74.4649 206.885C74.1824 206.52 74.4952 206.072 75.2195 205.773C76.1208 206.338 77.0048 206.908 77.8706 207.485C77.4792 207.522 77.0998 207.551 76.7281 207.548Z" fill="#D1A900"/>
<path d="M161.995 189.862C163.604 189.185 164.294 188.457 163.833 187.874C163.182 187.05 160.532 186.763 158.379 186.917C158.108 186.936 157.837 186.965 157.566 186.992C156.442 186.297 155.29 185.61 154.116 184.93C155.07 184.728 156.182 184.657 157.035 184.637C157.564 184.624 158.165 184.655 158.264 184.777C158.348 184.88 158.652 184.928 158.942 184.885C159.232 184.842 159.399 184.724 159.316 184.622C159.09 184.344 158.3 184.207 157.092 184.235C155.717 184.266 154.518 184.395 153.555 184.609C152.983 184.281 152.42 183.95 151.837 183.626C151.68 183.538 151.343 183.523 151.085 183.592C150.827 183.66 150.746 183.786 150.904 183.874C151.49 184.2 152.057 184.534 152.633 184.864C152.63 184.865 152.625 184.866 152.622 184.867C151.332 185.318 150.763 186.031 151.238 186.602C151.714 187.172 153.214 187.575 154.885 187.582C155.605 187.585 156.301 187.521 156.979 187.452C158.242 188.239 159.464 189.035 160.655 189.836C159.337 190.313 158.034 190.6 156.782 190.683C155.519 190.768 153.936 190.601 153.46 190.132C153.359 190.032 153.048 189.992 152.762 190.04C152.477 190.089 152.328 190.21 152.429 190.309C153.065 190.937 154.99 191.172 156.644 191.091C156.714 191.087 156.785 191.083 156.854 191.079C158.279 190.984 159.723 190.676 161.155 190.178C161.757 190.588 162.365 190.996 162.947 191.408C163.044 191.476 163.243 191.509 163.45 191.499C163.526 191.496 163.605 191.486 163.679 191.47C163.95 191.41 164.064 191.285 163.931 191.192C163.303 190.746 162.647 190.304 161.995 189.862ZM158.461 187.312C160.204 187.19 162.302 187.423 162.779 188.026C163.204 188.565 162.263 189.137 161.47 189.503C160.387 188.777 159.282 188.056 158.141 187.342C158.248 187.332 158.354 187.319 158.461 187.312ZM155.023 187.179C153.769 187.174 152.645 186.872 152.288 186.444C151.947 186.035 152.328 185.531 153.206 185.192C154.294 185.822 155.361 186.459 156.406 187.103C155.932 187.148 155.473 187.181 155.023 187.179Z" fill="#CEA600"/>
<path d="M6.29199 203.58C6.87818 205.668 7.16215 207.78 7.14789 209.948C7.14278 210.72 9.77367 210.243 9.78025 209.243C9.79451 207.075 9.51055 204.963 8.92437 202.874C8.67586 201.989 6.04385 202.696 6.29199 203.58Z" fill="#3354CC"/>
<path d="M15.9597 213.581C16.357 216.005 16.7538 218.429 17.1511 220.852C17.3331 221.963 19.975 221.314 19.7835 220.147C19.3862 217.723 18.9893 215.299 18.5921 212.876C18.4101 211.765 15.7686 212.414 15.9597 213.581Z" fill="#3354CC"/>
<path d="M32.0532 223.867C32.5473 226.374 32.8258 228.895 32.8908 231.449C32.9116 232.27 35.5491 231.76 35.5232 230.744C35.4581 228.19 35.1797 225.669 34.6856 223.162C34.5091 222.267 31.8646 222.912 32.0532 223.867Z" fill="#3354CC"/>
<path d="M58.9575 232.053C59.7194 235.757 60.2194 239.486 60.4599 243.259C60.5107 244.053 63.1544 243.524 63.0922 242.554C62.8514 238.781 62.3515 235.051 61.5898 231.348C61.4148 230.495 58.7704 231.143 58.9575 232.053Z" fill="#3354CC"/>
<path d="M86.2326 236.589C86.8616 239.082 87.2504 241.602 87.4017 244.168C87.4255 244.571 90.0743 244.144 90.0344 243.463C89.8831 240.896 89.4943 238.377 88.8654 235.884C88.7331 235.361 86.0934 236.038 86.2326 236.589Z" fill="#3354CC"/>
<path d="M121.274 234.138C121.317 234.122 121.36 234.107 121.402 234.091C121.296 234.21 121.19 234.328 121.084 234.446C121.123 234.42 121.162 234.394 121.201 234.368C120.454 234.513 119.707 234.657 118.959 234.802C119.59 235.362 119.357 238.261 119.411 239.017C119.519 240.534 119.627 242.051 119.736 243.567C119.764 243.958 122.415 243.518 122.368 242.862C122.243 241.112 122.118 239.362 121.993 237.612C121.924 236.643 122.213 234.613 121.447 233.932C121.019 233.552 119.588 234.114 119.205 234.366C118.93 234.546 118.769 234.619 118.769 234.952C118.818 235.036 118.894 235.08 118.996 235.083C119.03 235.09 119.063 235.097 119.097 235.105C119.641 235.225 120.453 235.014 120.932 234.75C121.129 234.641 121.853 234.265 121.274 234.138Z" fill="#3354CC"/>
<path d="M160.9 223.893C161.227 226.211 161.553 228.529 161.88 230.848C161.965 231.455 164.618 230.897 164.512 230.142C164.186 227.824 163.859 225.506 163.533 223.187C163.447 222.58 160.794 223.138 160.9 223.893Z" fill="#3354CC"/>
<path d="M176.797 215.391C177.205 217.813 177.612 220.235 178.019 222.657C178.142 223.386 180.792 222.783 180.652 221.952C180.244 219.53 179.837 217.108 179.43 214.686C179.307 213.956 176.658 214.559 176.797 215.391Z" fill="#3354CC"/>
<path d="M193.619 200.985C193.627 200.602 193.635 200.219 193.643 199.837C192.763 199.998 191.882 200.16 191.002 200.322C191.209 202.419 191.417 204.516 191.625 206.614C191.728 207.65 194.37 207.045 194.257 205.908C194.05 203.811 193.842 201.714 193.634 199.616C193.535 198.614 191.012 199.186 190.993 200.101C190.985 200.484 190.977 200.867 190.969 201.249C190.944 202.486 193.598 202.012 193.619 200.985Z" fill="#3354CC"/>
<path d="M89.1747 7.96508L87.4929 0L85.8111 7.96508C85.0228 11.6986 83.5917 14.9303 81.7081 17.2297C83.5138 18.1174 84.9398 20.5049 85.5034 23.5857L87.4929 34.4594L89.4824 23.5857C90.046 20.5049 91.472 18.1171 93.2777 17.2297C91.3941 14.9303 89.963 11.6986 89.1747 7.96508Z" fill="#F4F2ED"/>
<path d="M140.847 65.3068L138.596 54.641L136.344 65.3068C135.288 70.3058 133.371 74.6336 130.849 77.7125C133.268 78.901 135.177 82.0983 135.931 86.2232L138.596 100.784L141.26 86.2232C142.014 82.098 143.924 78.9006 146.342 77.7125C143.82 74.6336 141.903 70.3062 140.847 65.3068Z" fill="#F4F2ED"/>
<path d="M54.0122 38.9608L52.5646 32.1056L51.1171 38.9608C50.4384 42.1739 49.2069 44.9553 47.5857 46.9343C49.14 47.6981 50.3672 49.753 50.8521 52.4048L52.5643 61.7633L54.2768 52.4048C54.7621 49.7534 55.9889 47.6984 57.5432 46.9343C55.9224 44.9553 54.6905 42.1742 54.0122 38.9608Z" fill="#F4F2ED"/>
</svg>
