<svg width="514" height="488" viewBox="0 0 514 488" fill="none" xmlns="http://www.w3.org/2000/svg">
<path d="M291.662 4.80246C292.643 5.05939 292.643 5.05939 293.644 5.3215C314.538 10.9073 332.097 23.1657 347.662 37.8025C348.253 38.3284 348.843 38.8543 349.451 39.3962C370.183 58.654 383.726 90.0735 384.79 118.167C385.252 139.675 385.252 139.675 383.662 148.802C384.723 148.794 385.784 148.785 386.878 148.776C396.925 148.694 406.972 148.634 417.019 148.595C422.183 148.574 427.347 148.546 432.511 148.501C437.504 148.457 442.496 148.433 447.489 148.423C449.385 148.416 451.28 148.401 453.176 148.38C470.789 148.186 484.888 150.878 498.662 162.802C508.157 174.189 512.973 184.561 512.936 199.345C512.942 200.394 512.947 201.444 512.952 202.525C512.967 206.037 512.968 209.547 512.969 213.059C512.976 215.579 512.985 218.099 512.994 220.619C513.016 227.462 513.025 234.306 513.03 241.149C513.033 245.427 513.039 249.706 513.047 253.984C513.066 265.846 513.083 277.708 513.086 289.569C513.086 290.327 513.086 291.086 513.086 291.867C513.086 293.404 513.087 294.942 513.087 296.479C513.087 297.242 513.088 298.005 513.088 298.791C513.088 299.937 513.088 299.937 513.088 301.106C513.092 313.473 513.119 325.84 513.156 338.207C513.194 350.925 513.214 363.642 513.214 376.359C513.215 383.492 513.223 390.624 513.252 397.756C513.279 404.469 513.28 411.182 513.264 417.895C513.263 420.352 513.269 422.808 513.285 425.265C513.405 444.863 511.495 459.038 497.662 473.802C488.483 482.015 476.759 486.92 464.488 486.937C463.398 486.94 463.398 486.94 462.285 486.944C459.836 486.951 457.387 486.95 454.938 486.95C453.169 486.953 451.4 486.957 449.632 486.961C444.761 486.971 439.891 486.975 435.02 486.977C429.771 486.981 424.522 486.991 419.273 486.999C406.591 487.019 393.909 487.029 381.227 487.038C375.255 487.042 369.283 487.048 363.312 487.053C343.461 487.07 323.611 487.085 303.76 487.092C298.608 487.094 293.456 487.096 288.304 487.098C287.023 487.098 285.743 487.099 284.423 487.099C263.681 487.107 242.938 487.133 222.195 487.165C200.901 487.198 179.607 487.216 158.313 487.219C146.356 487.222 134.4 487.23 122.443 487.256C112.26 487.278 102.077 487.286 91.8932 487.276C86.6988 487.271 81.5047 487.273 76.3103 487.293C71.5504 487.31 66.7909 487.309 62.031 487.294C60.3136 487.291 58.5961 487.296 56.8787 487.308C41.1682 487.41 27.2224 484.18 15.1584 473.381C0.477394 457.895 -0.0735517 441.882 0.0311541 421.704C0.026009 419.178 0.0187386 416.652 0.00948663 414.126C-0.00704713 408.007 -0.000448175 401.888 0.0175738 395.768C0.0316577 390.792 0.0354794 385.816 0.0321307 380.84C0.0316532 380.129 0.0311577 379.418 0.0306658 378.685C0.0296394 377.24 0.028576 375.796 0.027492 374.351C0.0189459 361.608 0.0355464 348.864 0.0653338 336.121C0.0941844 323.778 0.101243 311.436 0.0858416 299.093C0.0690544 285.621 0.0650632 272.15 0.0825457 258.679C0.0843899 257.24 0.0862443 255.802 0.0880694 254.364C0.0889815 253.656 0.0898762 252.949 0.090816 252.22C0.0964043 247.253 0.0931362 242.285 0.086513 237.318C0.0779434 230.626 0.0910353 223.934 0.118373 217.242C0.125242 214.791 0.125343 212.339 0.118129 209.888C0.109397 206.534 0.125455 203.18 0.147579 199.826C0.139338 198.863 0.131106 197.901 0.122615 196.91C0.230467 188.007 2.92283 179.974 7.66226 172.427C8.13663 171.657 8.61101 170.886 9.09976 170.092C16.4178 159.371 27.2361 152.486 39.798 149.253C43.6083 148.654 47.3705 148.672 51.2162 148.689C52.0655 148.689 52.9148 148.689 53.7898 148.688C56.5872 148.689 59.3845 148.697 62.1818 148.705C64.1252 148.707 66.0686 148.708 68.012 148.709C73.1199 148.713 78.2277 148.723 83.3355 148.734C88.5505 148.744 93.7656 148.749 98.9806 148.754C109.208 148.764 119.435 148.781 129.662 148.802C129.501 147.874 129.339 146.945 129.172 145.989C124.272 115.375 132.461 81.8727 149.92 56.4353C154.736 49.8408 160.072 43.747 165.662 37.8025C166.451 36.9169 166.451 36.9169 167.256 36.0134C181.28 20.916 201.899 9.9795 221.662 4.80246C222.357 4.60926 223.053 4.41606 223.769 4.21701C245.716 -1.71281 269.807 -1.27175 291.662 4.80246ZM228.662 24.8025C227.989 25.0011 227.316 25.1998 226.623 25.4045C198.516 33.9325 175.775 52.703 161.358 78.3532C148.825 103.851 144.964 133.584 153.975 160.888C155.124 164.225 156.365 167.521 157.662 170.802C158.322 170.802 158.982 170.802 159.662 170.802C159.809 170.162 159.956 169.521 160.108 168.861C161.738 162.574 163.664 158.05 168.662 153.802C174.521 150.545 180.811 148.774 187.291 147.224C188.166 147.008 189.041 146.792 189.943 146.569C192.702 145.889 195.463 145.22 198.225 144.552C200.111 144.09 201.997 143.626 203.883 143.162C208.474 142.033 213.067 140.915 217.662 139.802C218.643 136.88 218.643 136.88 217.807 134.049C217.367 133.452 216.928 132.855 216.475 132.24C204.972 115.003 206.891 89.1353 209.912 69.4743C211.983 59.3377 216.149 50.3593 224.795 44.3103C240.324 35.1663 260.285 34.4582 277.506 38.7634C287.768 42.1418 294.8 47.2402 299.912 56.74C307.62 73.5316 308.104 103.235 302.662 120.802C301.063 124.56 299.193 128.134 297.221 131.709C295.794 134.541 295.2 136.72 294.662 139.802C295.198 139.931 295.734 140.06 296.286 140.193C301.886 141.543 307.482 142.908 313.077 144.282C315.162 144.792 317.248 145.299 319.335 145.801C322.344 146.526 325.349 147.264 328.354 148.006C329.28 148.226 330.206 148.446 331.161 148.672C339.415 150.734 345.432 153.526 350.44 160.631C352.307 163.948 352.995 167.066 353.662 170.802C354.322 170.802 354.982 170.802 355.662 170.802C366.307 140.675 366.948 111.342 353.662 81.8025C341.137 56.2196 318.703 36.816 292.139 26.947C272.202 20.3834 248.96 18.7993 228.662 24.8025ZM233.662 63.8025C231.5 67.7349 229.662 71.2688 229.662 75.8025C233.04 74.7098 234.836 73.6407 237.475 71.1775C240.695 68.7782 242.56 67.9982 246.588 68.2361C249.899 69.1401 252.128 71.1867 254.744 73.3376C261.3 78.3447 272.486 78.3505 280.412 77.365C281.485 77.1793 282.557 76.9937 283.662 76.8025C283.395 70.7996 282.854 66.4246 278.662 61.8025C267.241 54.3475 243.501 52.8064 233.662 63.8025ZM242.451 92.447C241.38 93.0251 241.38 93.0251 240.287 93.615C236.295 95.6012 233.09 96.4256 228.662 96.8025C228.237 107.903 229.142 117.14 236.662 125.802C243.658 132.311 250.128 134.303 259.631 134.115C267.096 133.345 273.791 129.485 278.662 123.802C283.162 116.749 284.697 110.403 284.674 102.088C284.671 100.881 284.671 100.881 284.669 99.6504C284.667 99.0406 284.665 98.4307 284.662 97.8025C283.711 97.7806 283.711 97.7806 282.741 97.7583C256.523 97.0845 256.523 97.0845 247.131 92.5915C244.711 91.5647 244.711 91.5647 242.451 92.447ZM238.662 151.802C237.177 153.782 237.177 153.782 235.662 155.802C242.676 161.981 248.943 165.165 258.483 165.021C264.911 164.376 270.655 161.809 275.662 157.802C275.992 156.812 276.322 155.822 276.662 154.802C276.002 153.812 275.342 152.822 274.662 151.802C274.126 151.947 273.59 152.091 273.037 152.24C261.812 154.899 249.81 154.804 238.662 151.802ZM199.377 165.056C197.902 165.428 196.425 165.796 194.948 166.158C192.818 166.681 190.693 167.218 188.569 167.759C186.655 168.239 186.655 168.239 184.703 168.728C181.394 169.555 181.394 169.555 179.662 172.802C179.093 177.097 178.993 181.398 178.907 185.724C178.869 187.14 178.808 188.555 178.723 189.968C178.352 196.149 178.081 201.65 181.898 206.846C184.691 209.436 187.525 211.646 190.662 213.802C191.371 214.326 192.079 214.85 192.809 215.39C194.615 216.678 196.448 217.848 198.35 218.99C199.022 219.399 199.694 219.809 200.387 220.231C225.542 235.178 254.469 239.827 283.041 233.06C298.69 228.981 313.377 221.324 325.662 210.802C326.327 210.4 326.992 209.998 327.676 209.583C331.547 206.93 333.409 205.084 334.339 200.38C334.523 196.241 334.458 192.188 334.287 188.052C334.264 186.616 334.245 185.18 334.229 183.744C334.359 176.401 334.359 176.401 331.662 169.802C329.278 168.944 327.02 168.262 324.572 167.654C323.872 167.474 323.172 167.293 322.45 167.107C320.97 166.73 319.488 166.359 318.004 165.993C315.731 165.429 313.468 164.834 311.203 164.236C309.764 163.873 308.325 163.513 306.885 163.154C306.207 162.973 305.528 162.792 304.83 162.605C302.706 162.058 302.706 162.058 299.662 161.802C297.739 162.986 297.739 162.986 296.662 164.802C296.153 165.407 295.644 166.012 295.119 166.634C294.305 167.615 294.305 167.615 293.475 168.615C285.669 177.476 276.532 182.068 264.975 184.615C249.782 185.475 235.983 183.45 223.877 173.517C220.807 170.527 218.21 167.744 216.049 164.029C215.363 162.927 215.363 162.927 214.662 161.802C209.555 161.802 204.326 163.798 199.377 165.056ZM26.1232 182.646C20.5257 190.633 20.3603 200.566 20.4083 210.011C20.4052 210.976 20.402 211.941 20.3988 212.936C20.3909 216.138 20.3972 219.339 20.4035 222.541C20.4008 224.85 20.3972 227.158 20.3928 229.467C20.3838 235.715 20.3873 241.963 20.3936 248.211C20.3987 254.761 20.394 261.312 20.3908 267.862C20.3866 279.565 20.3932 291.267 20.4033 302.969C20.4123 313.562 20.4107 324.154 20.4015 334.747C20.3908 347.072 20.3868 359.398 20.3927 371.723C20.3958 378.239 20.3963 384.754 20.3897 391.269C20.3839 397.396 20.3879 403.522 20.3995 409.649C20.4021 411.892 20.4014 414.135 20.3969 416.379C20.3914 419.451 20.3984 422.522 20.4083 425.594C20.4038 426.473 20.3994 427.352 20.3948 428.257C20.4706 440.428 22.6538 449.429 30.8498 458.552C39.8027 466.763 50.4617 466.376 61.9009 466.31C63.6521 466.315 65.4032 466.321 67.1543 466.329C71.9487 466.346 76.7428 466.338 81.5372 466.325C86.7145 466.316 91.8918 466.33 97.069 466.341C107.204 466.359 117.339 466.355 127.474 466.344C135.711 466.335 143.949 466.333 152.186 466.338C153.359 466.338 154.531 466.339 155.74 466.34C158.122 466.341 160.505 466.342 162.887 466.343C185.223 466.355 207.558 466.342 229.893 466.32C249.055 466.302 268.218 466.306 287.38 466.324C309.638 466.345 331.895 466.354 354.152 466.341C356.526 466.34 358.899 466.339 361.273 466.338C362.44 466.337 363.608 466.336 364.811 466.336C373.039 466.332 381.266 466.338 389.493 466.348C399.52 466.359 409.546 466.356 419.572 466.335C424.687 466.324 429.802 466.32 434.917 466.333C439.6 466.345 444.284 466.338 448.967 466.317C450.66 466.313 452.353 466.315 454.046 466.325C466.025 466.388 474.846 465.196 483.873 456.709C492.191 447.846 492.976 437.32 492.916 425.594C492.919 424.629 492.922 423.663 492.926 422.669C492.934 419.467 492.927 416.266 492.921 413.064C492.924 410.755 492.927 408.446 492.932 406.138C492.941 399.89 492.937 393.642 492.931 387.394C492.926 380.844 492.931 374.293 492.934 367.743C492.938 356.04 492.931 344.338 492.921 332.636C492.912 322.043 492.914 311.451 492.923 300.858C492.934 288.533 492.938 276.207 492.932 263.882C492.929 257.366 492.928 250.851 492.935 244.336C492.941 238.209 492.937 232.083 492.925 225.956C492.922 223.713 492.923 221.47 492.928 219.226C492.933 216.154 492.926 213.083 492.916 210.011C492.921 209.132 492.925 208.253 492.93 207.348C492.856 195.564 491.002 186.535 482.772 177.795C475.762 171.199 468.794 169.339 459.401 169.462C458.512 169.461 457.623 169.461 456.707 169.461C453.796 169.463 450.886 169.486 447.975 169.509C445.946 169.515 443.917 169.519 441.888 169.522C436.568 169.534 431.249 169.563 425.929 169.596C420.492 169.627 415.056 169.641 409.619 169.656C398.967 169.688 388.315 169.739 377.662 169.802C377.208 170.938 376.755 172.073 376.287 173.242C375.671 174.764 375.056 176.285 374.44 177.806C374.143 178.551 373.846 179.295 373.541 180.062C368.762 191.813 361.963 202.231 353.662 211.802C352.634 213.03 352.634 213.03 351.584 214.283C330.904 238.273 300.15 253.147 268.662 255.802C231.907 257.574 197.551 247.797 169.854 222.814C159.753 213.421 151.907 202.9 145.037 190.99C144.677 190.375 144.317 189.76 143.945 189.126C141.564 184.893 139.747 180.568 138.024 176.026C137.358 174.276 137.358 174.276 136.678 172.491C136.175 171.16 136.175 171.16 135.662 169.802C123.953 169.71 112.244 169.639 100.534 169.595C95.0959 169.574 89.6583 169.546 84.2206 169.501C78.9686 169.457 73.7169 169.433 68.4647 169.423C66.4653 169.416 64.4659 169.401 62.4667 169.38C59.6567 169.35 56.8476 169.347 54.0375 169.348C53.2189 169.334 52.4004 169.32 51.557 169.305C40.9395 169.38 32.7996 174.648 26.1232 182.646Z" fill="#3354CC"/>
<path d="M112.918 291.425C114.485 291.413 114.485 291.413 116.084 291.401C117.226 291.408 118.367 291.415 119.543 291.422C120.761 291.417 121.979 291.412 123.233 291.407C126.61 291.397 129.986 291.401 133.363 291.41C137.006 291.417 140.649 291.407 144.292 291.398C151.427 291.385 158.562 291.388 165.697 291.397C171.496 291.403 177.294 291.404 183.092 291.401C183.917 291.401 184.742 291.4 185.592 291.4C187.268 291.399 188.944 291.398 190.62 291.397C206.337 291.388 222.055 291.398 237.772 291.414C251.262 291.428 264.751 291.425 278.241 291.411C293.902 291.395 309.563 291.389 325.224 291.398C326.893 291.399 328.563 291.4 330.233 291.401C331.465 291.402 331.465 291.402 332.722 291.402C338.514 291.405 344.306 291.401 350.098 291.394C357.156 291.385 364.213 291.387 371.271 291.403C374.873 291.411 378.474 291.414 382.076 291.404C385.978 291.394 389.88 291.407 393.782 291.422C395.494 291.411 395.494 291.411 397.241 291.401C398.286 291.409 399.331 291.417 400.407 291.425C401.758 291.426 401.758 291.426 403.136 291.426C407.158 292.025 409.818 293.827 412.45 296.869C414.223 301.158 414.091 305.141 414.061 309.74C414.064 310.698 414.067 311.655 414.07 312.642C414.072 314.663 414.066 316.683 414.054 318.704C414.038 321.792 414.053 324.879 414.073 327.967C414.071 329.933 414.067 331.899 414.061 333.865C414.067 334.786 414.073 335.707 414.079 336.656C414.027 341.474 413.954 344.998 410.662 348.802C407.122 351.292 404.722 352.178 400.407 352.18C398.84 352.192 398.84 352.192 397.241 352.204C396.099 352.197 394.958 352.19 393.782 352.183C392.564 352.188 391.346 352.193 390.092 352.198C386.715 352.208 383.338 352.204 379.962 352.195C376.319 352.188 372.676 352.198 369.033 352.207C361.898 352.22 354.763 352.217 347.628 352.208C341.829 352.202 336.031 352.201 330.233 352.204C328.995 352.205 328.995 352.205 327.733 352.205C326.057 352.206 324.381 352.207 322.705 352.208C306.988 352.217 291.27 352.207 275.552 352.191C262.063 352.177 248.574 352.18 235.084 352.194C219.423 352.21 203.762 352.216 188.101 352.207C186.432 352.206 184.762 352.205 183.092 352.204C181.86 352.203 181.86 352.203 180.603 352.203C174.811 352.2 169.019 352.204 163.227 352.211C156.169 352.22 149.111 352.218 142.054 352.202C138.452 352.194 134.851 352.191 131.249 352.2C127.347 352.211 123.445 352.198 119.543 352.183C117.831 352.193 117.831 352.193 116.084 352.204C115.039 352.196 113.994 352.188 112.918 352.18C111.567 352.179 111.567 352.179 110.188 352.179C106.167 351.58 103.507 349.778 100.875 346.736C99.1021 342.447 99.2337 338.463 99.264 333.865C99.2611 332.907 99.2583 331.95 99.2553 330.963C99.2533 328.942 99.2588 326.922 99.2713 324.901C99.2874 321.813 99.2715 318.726 99.2523 315.638C99.2543 313.672 99.2581 311.706 99.264 309.74C99.2579 308.819 99.2519 307.898 99.2456 306.949C99.2983 302.131 99.3712 298.607 102.662 294.802C106.203 292.313 108.603 291.427 112.918 291.425ZM120.662 312.802C120.662 318.742 120.662 324.682 120.662 330.802C210.422 330.802 300.182 330.802 392.662 330.802C392.662 324.862 392.662 318.922 392.662 312.802C302.902 312.802 213.142 312.802 120.662 312.802Z" fill="#3354CC"/>
<path d="M238.002 365.502C239.494 365.498 240.985 365.493 242.477 365.489C245.593 365.481 248.708 365.481 251.824 365.487C255.796 365.493 259.768 365.476 263.739 365.452C266.817 365.438 269.894 365.437 272.972 365.44C274.435 365.439 275.899 365.434 277.362 365.424C287.425 365.363 296.86 365.761 305.105 372.184C310.498 377.79 312.295 384.79 312.346 392.369C312.317 393.821 312.317 393.821 312.287 395.302C312.307 396.271 312.326 397.239 312.346 398.236C312.298 405.334 310.699 410.912 306.662 416.802C300.402 422.84 294.215 425.045 285.499 425.077C284.808 425.082 284.118 425.087 283.407 425.093C281.14 425.106 278.874 425.106 276.608 425.103C275.021 425.107 273.435 425.111 271.848 425.116C268.528 425.124 265.208 425.123 261.887 425.118C257.649 425.112 253.41 425.129 249.171 425.152C245.896 425.167 242.62 425.168 239.345 425.165C237.783 425.165 236.221 425.171 234.659 425.181C224.306 425.24 215.215 425.214 207.324 417.656C201.585 411.254 201.007 403.607 201.1 395.365C201.076 394.392 201.052 393.42 201.028 392.418C201.042 385.273 202.616 379.742 206.662 373.802C215.556 364.971 226.206 365.489 238.002 365.502ZM222.662 388.802C222.419 392.16 222.419 392.16 222.537 395.927C222.555 397.209 222.573 398.49 222.592 399.81C222.615 400.798 222.638 401.785 222.662 402.802C225.421 404.182 227.645 403.93 230.733 403.932C232.007 403.935 233.282 403.938 234.595 403.941C235.993 403.94 237.39 403.938 238.787 403.935C240.215 403.936 241.642 403.937 243.069 403.938C246.062 403.94 249.054 403.937 252.047 403.933C255.887 403.927 259.728 403.93 263.568 403.936C266.516 403.94 269.463 403.939 272.411 403.936C273.827 403.936 275.243 403.936 276.659 403.939C278.637 403.941 280.615 403.937 282.592 403.932C283.719 403.931 284.845 403.93 286.006 403.929C288.638 403.983 288.638 403.983 290.662 402.802C290.716 400.511 290.755 398.219 290.787 395.927C290.811 394.651 290.834 393.375 290.858 392.06C291.019 388.716 291.019 388.716 288.662 386.802C285.884 386.495 285.884 386.495 282.592 386.544C281.317 386.537 280.043 386.531 278.729 386.525C277.332 386.528 275.935 386.532 274.537 386.537C273.11 386.535 271.683 386.534 270.256 386.531C267.263 386.528 264.27 386.532 261.278 386.542C257.437 386.553 253.597 386.547 249.757 386.535C246.809 386.527 243.862 386.53 240.914 386.535C239.498 386.536 238.081 386.534 236.665 386.53C234.688 386.525 232.71 386.534 230.733 386.544C229.606 386.545 228.48 386.547 227.319 386.548C224.508 386.533 224.508 386.533 222.662 388.802Z" fill="#3354CC"/>
</svg>
