<svg width="340" height="173" viewBox="0 0 340 173" fill="none" xmlns="http://www.w3.org/2000/svg">
<path d="M222.08 33.3544C228.886 21.5825 246.582 20.2745 258.834 25.5064" stroke="#FCC858" stroke-width="12" stroke-linecap="round"/>
<path d="M7 38.3511C34.2253 39.659 41.0316 22.6552 47.8379 16.1153C54.6442 9.57538 62.8118 10.8834 64.1731 21.3472C65.5343 31.8111 54.6442 42.275 41.0316 46.199" stroke="#FCC858" stroke-width="14" stroke-linecap="round"/>
<path d="M258.153 35.6616H48.5184C34.9859 35.6616 24.0156 46.2025 24.0156 59.2054V149.456C24.0156 162.459 34.9859 173 48.5184 173H258.153C271.685 173 282.656 162.459 282.656 149.456V59.2054C282.656 46.2025 271.685 35.6616 258.153 35.6616Z" fill="#3354CC"/>
<path d="M286.06 131.144C315.38 131.144 339.149 108.306 339.149 80.1331C339.149 51.9602 315.38 29.1216 286.06 29.1216C256.739 29.1216 232.97 51.9602 232.97 80.1331C232.97 108.306 256.739 131.144 286.06 131.144Z" fill="#26D34E"/>
<path d="M267.001 81.4411L281.975 95.829L311.923 67.0533" stroke="white" stroke-width="16" stroke-linecap="round" stroke-linejoin="round"/>
<path opacity="0.85" d="M215.365 78.8251H153.246C149.537 78.8251 146.53 81.7531 146.53 85.365C146.53 88.9769 149.537 91.9049 153.246 91.9049H215.365C219.074 91.9049 222.08 88.9769 222.08 85.365C222.08 81.7531 219.074 78.8251 215.365 78.8251Z" fill="#C5E5F9"/>
<path opacity="0.85" d="M203.582 101.061H152.096C149.022 101.061 146.53 103.989 146.53 107.601C146.53 111.213 149.022 114.141 152.096 114.141H203.582C206.656 114.141 209.148 111.213 209.148 107.601C209.148 103.989 206.656 101.061 203.582 101.061Z" fill="#C5E5F9"/>
<path opacity="0.85" d="M186.839 123.297H150.463C148.291 123.297 146.53 125.346 146.53 127.875C146.53 130.403 148.291 132.453 150.463 132.453H186.839C189.011 132.453 190.771 130.403 190.771 127.875C190.771 125.346 189.011 123.297 186.839 123.297Z" fill="#C5E5F9"/>
<ellipse cx="94.4604" cy="104.658" rx="41.8589" ry="40.2205" fill="#BAC8FC"/>
<path d="M105.578 91.0329C105.578 97.0528 100.499 101.933 94.234 101.933C87.969 101.933 82.8901 97.0528 82.8901 91.0329C82.8901 85.0131 87.969 80.1331 94.234 80.1331C100.499 80.1331 105.578 85.0131 105.578 91.0329Z" stroke="white" stroke-width="5" stroke-linecap="round" stroke-linejoin="round"/>
<path d="M94.2341 110.108C83.2703 110.108 74.3823 118.648 74.3823 129.182H114.086C114.086 118.648 105.198 110.108 94.2341 110.108Z" stroke="white" stroke-width="5" stroke-linecap="round" stroke-linejoin="round"/>
<path d="M156.399 1L146.53 23.2357L151.635 35.3346H173.415L187.709 1H156.399Z" fill="#BAC8FC" stroke="#BAC8FC"/>
<path d="M137 1.65405H105.691L120.325 35.0077H151.974L147.13 24.2168L137 1.65405Z" fill="#BAC8FC" stroke="#BAC8FC"/>
</svg>
