<svg width="28" height="28" viewBox="0 0 28 28" fill="none" xmlns="http://www.w3.org/2000/svg">
<path d="M14.1176 0C14.0882 0 14.0471 4.99643e-08 14.0118 0.00712156C13.7412 0.0575656 13.4176 0.309786 13.2059 0.886035C12.9824 1.46169 12.9353 2.28244 13.1294 3.16136C13.3294 4.02959 13.7412 4.77794 14.2 5.2349C14.6471 5.69187 15.0529 5.81649 15.3235 5.76902C15.6059 5.72748 15.9176 5.46635 16.1294 4.89663C16.3529 4.32454 16.4118 3.49251 16.2118 2.62072C16.0059 1.7424 15.6 1.00117 15.1412 0.54717C14.7529 0.143617 14.3941 0 14.1176 0ZM20.9059 7.68589C20.2588 7.70369 19.4412 7.8758 18.6471 8.21407C17.7294 8.61762 17.0235 9.15767 16.6353 9.66805C16.2471 10.1606 16.2118 10.5345 16.3353 10.7541C16.4647 10.9737 16.8235 11.1814 17.5118 11.211C18.2 11.2526 19.1294 11.0805 20.0412 10.6888C20.9529 10.2912 21.6706 9.74519 22.0588 9.24669C22.4471 8.75412 22.4765 8.36837 22.3529 8.14879C22.2294 7.92327 21.8647 7.72743 21.1765 7.70369C21.0824 7.68589 21 7.68589 20.9059 7.68589ZM12.8882 13.1991C12.5 13.2051 12.1471 13.2525 11.8294 13.3356C11.1353 13.5137 10.7353 13.8341 10.6059 14.2199C10.4588 14.6056 10.6059 15.0685 11.0647 15.567C11.5471 16.0537 12.3412 16.5225 13.3294 16.7836C14.3118 17.0447 15.2588 17.0388 15.9647 16.8489C16.6765 16.6649 17.0765 16.3385 17.2059 15.9587C17.3412 15.573 17.2059 15.116 16.7294 14.6116C16.2647 14.1249 15.4706 13.6561 14.4824 13.4009C13.9235 13.2525 13.3765 13.1932 12.8882 13.1991ZM22.3412 16.6471L18.7059 18.386C18.9529 18.3978 19.5706 18.4156 19.5706 18.4156L19.9588 18.9319L23.1765 17.2406L22.3412 16.6471ZM19.1353 16.6531L15.7588 18.2673C16.0824 18.2851 16.8471 18.2969 17.1529 18.3147L20.0824 16.9142L19.1353 16.6531ZM24.5824 17.294L20.4353 19.5135L21.2882 20.6233L25.6706 17.9765L24.5824 17.294ZM8.18235 17.834C8.00423 17.8337 7.82664 17.8536 7.65294 17.8934C3.44706 18.8726 0.964706 18.9557 0.229412 18.9557H0V25.3354C0 25.3354 0.682353 25.2345 1.81765 25.2285C4.01177 25.2285 7.87647 25.6084 11.6412 27.8279C11.8412 27.9525 12.2706 28 12.8059 28C14.2353 28 16.4059 27.6558 16.9059 27.4659C21.9412 25.5609 28 20.3325 28 20.3325L26.0882 18.6471C26.0882 18.6471 21.3941 21.6678 20.8 21.9586C15.4412 24.6113 11.1 22.9556 11.1 22.9556C11.1 22.9556 18.1529 23.1336 20.4176 21.3355L19.0882 19.3177C19.0882 19.3177 14.2176 19.1812 12.4824 18.9497C11.5765 18.8311 9.61765 17.834 8.18235 17.834Z" fill="url(#paint0_linear_6125_2859)"/>
<defs>
<linearGradient id="paint0_linear_6125_2859" x1="0" y1="28" x2="33.2418" y2="18.664" gradientUnits="userSpaceOnUse">
<stop stop-color="#85FFC4"/>
<stop offset="0.458333" stop-color="#5CC6FF"/>
<stop offset="0.807292" stop-color="#BC85FF"/>
</linearGradient>
</defs>
</svg>
