<svg width="12" height="16" viewBox="0 0 12 16" fill="none" xmlns="http://www.w3.org/2000/svg">
<path d="M0.343228 8.65799L10.7446 15.8579C10.8647 15.9409 11.0051 15.9895 11.1508 15.9985C11.2965 16.0074 11.4419 15.9764 11.5712 15.9086C11.7005 15.8409 11.8088 15.7391 11.8844 15.6142C11.96 15.4894 12 15.3462 12 15.2003V0.800517C12.0001 0.654501 11.9602 0.511243 11.8847 0.386269C11.8092 0.261295 11.7009 0.159372 11.5716 0.0915458C11.4422 0.0237194 11.2968 -0.00742324 11.151 0.00149315C11.0053 0.0104095 10.8647 0.0590448 10.7446 0.142128L0.343228 7.34201C0.237261 7.41595 0.150719 7.51439 0.0909623 7.62895C0.0312053 7.7435 0 7.8708 0 8C0 8.1292 0.0312053 8.25649 0.0909623 8.37105C0.150719 8.48561 0.237261 8.58404 0.343228 8.65799Z" fill="#1E2B3B"/>
</svg>
