<svg width="125" height="266" viewBox="0 0 125 266" fill="none" xmlns="http://www.w3.org/2000/svg">
<path d="M95.631 236.886C95.3454 231.992 91.0459 228.102 85.7681 228.102C85.285 228.102 84.8142 228.146 84.3507 228.209L77.4964 148.353H45.9558L39.1031 228.201C38.6576 228.143 38.2064 228.102 37.7437 228.102C32.4487 228.102 28.1387 232.017 27.8783 236.935C12.217 238.441 0 250.879 0 266H124.167C124.166 250.669 111.605 238.104 95.631 236.886Z" fill="#BAC8FC" fill-opacity="0.94"/>
<path d="M35.3303 114.231C35.3303 114.231 0.733069 138.925 15.6143 186.401C16.3307 188.687 19.7971 188.655 20.4858 186.362C24.0582 174.465 31.7106 152.247 40.467 146.614C52.5861 138.818 35.3303 114.231 35.3303 114.231Z" fill="#4768E0"/>
<path d="M88.8894 114.256C88.8894 114.256 123.46 138.983 108.527 186.445C107.808 188.73 104.342 188.694 103.656 186.401C100.095 174.501 92.4675 152.276 83.7177 146.634C71.6075 138.827 88.8894 114.256 88.8894 114.256Z" fill="#4768E0"/>
<path d="M79.7205 152.942C79.7205 152.942 85.3729 156.535 86.6899 162.199C86.9697 163.401 86.0167 164.545 84.7078 164.545H39.4627C38.1539 164.545 37.2008 163.401 37.4807 162.199C38.7985 156.535 44.45 152.942 44.45 152.942" fill="#4768E0"/>
<path d="M83.2551 148.373L40.6301 148.353C12.3405 100.366 16.3478 64.0774 28.0679 39.3746C29.5261 36.3107 31.0912 33.4224 32.7444 30.709C33.3131 29.7654 33.8908 28.8479 34.4775 27.9542C34.9222 27.2699 35.3661 26.6017 35.8198 25.9427C46.1854 10.886 58.1127 2.32857 61.2372 0.235801C61.7063 -0.0787277 62.3306 -0.0787281 62.7998 0.236567C65.921 2.33163 77.8304 10.8914 88.1714 25.9427C88.6333 26.6025 89.0763 27.2707 89.5202 27.9557C90.1061 28.8494 90.683 29.7685 91.251 30.7036C92.9017 33.427 94.4807 36.3252 95.9364 39.4069C107.629 64.1219 111.597 100.414 83.2551 148.373Z" fill="#BAC8FC"/>
<path d="M81.7501 64.4515C81.7444 74.7128 72.8925 83.0271 61.9778 83.0218C51.0631 83.0164 42.2194 74.6937 42.2251 64.4331C42.2308 54.1718 51.0835 45.8575 61.9982 45.8629C72.9121 45.8675 81.7558 54.1903 81.7501 64.4515Z" fill="#1E293B"/>
<path d="M76.1206 64.4448C76.1133 65.7536 75.9085 67.024 75.5413 68.223C75.2671 69.0837 74.9007 69.9207 74.4421 70.7101C74.1941 71.1428 73.9346 71.5647 73.6294 71.9628C72.6249 73.3636 71.3455 74.5588 69.8408 75.484C67.6066 76.9048 64.8885 77.7287 61.9869 77.7333C54.1713 77.7287 47.8359 71.7833 47.8408 64.4356C47.8425 61.8726 48.6103 59.486 49.9395 57.4562C50.8755 56.0308 52.0978 54.7788 53.534 53.7869C53.9412 53.4908 54.3834 53.2062 54.8477 52.9669C55.658 52.5066 56.536 52.1353 57.4581 51.8537C58.8771 51.3888 60.4063 51.1464 61.9975 51.148C69.8138 51.1518 76.137 57.1087 76.1206 64.4448Z" fill="white"/>
<path d="M72.6265 100.771C72.6233 106.305 67.8489 110.789 61.9623 110.786C56.0758 110.783 51.3063 106.295 51.3096 100.761C51.3128 95.2264 56.0872 90.7424 61.9738 90.7455C67.8595 90.7486 72.629 95.2371 72.6265 100.771Z" fill="#1E293B"/>
<path d="M69.2176 100.776C69.2127 101.293 69.1491 101.797 69.0283 102.289C68.9182 102.791 68.7272 103.281 68.4906 103.725C68.3649 103.985 68.2286 104.234 68.0573 104.449C67.5285 105.237 66.8276 105.921 65.9806 106.435C64.8333 107.173 63.451 107.584 61.9537 107.584C57.9529 107.579 54.7175 104.527 54.7109 100.755C54.7183 99.4459 55.0969 98.2361 55.7856 97.1997C56.3029 96.4003 56.9924 95.7053 57.8288 95.1798C58.0687 95.011 58.3184 94.8752 58.5796 94.7502C59.0439 94.5108 59.553 94.316 60.0834 94.1887C60.6734 94.0299 61.3196 93.9493 61.9749 93.9462C65.9765 93.9508 69.2119 97.0025 69.2176 100.776Z" fill="white"/>
<path d="M79.4313 154.008L44.4456 153.991C42.3339 153.99 40.6227 152.38 40.6235 150.394L40.6244 148.353L83.2583 148.373L83.2575 150.415C83.2558 152.4 81.5431 154.009 79.4313 154.008Z" fill="#4768E0"/>
<path d="M65.522 123.813C69.0063 130.721 72.5534 147.586 63.2903 187.073C63.1263 187.794 62.4841 188.128 61.8647 188.098C61.2805 188.081 60.7068 187.735 60.5412 187.07C51.3295 147.592 54.897 130.712 58.3968 123.816C59.0969 122.429 60.4539 121.72 61.859 121.694C61.859 121.694 61.8713 121.683 61.8941 121.684C63.345 121.66 64.7958 122.383 65.522 123.813Z" fill="#4768E0"/>
<path d="M88.1691 25.9427C80.6881 30.3062 71.6714 32.857 61.9635 32.8524C52.2728 32.8478 43.2773 30.3047 35.8184 25.9427C46.1839 10.886 58.1113 2.32856 61.2357 0.235801C61.7049 -0.0787277 62.3291 -0.0787281 62.7983 0.236567C65.9195 2.33163 77.8289 10.8914 88.1691 25.9427Z" fill="#4768E0"/>
<path d="M89.5221 27.9549C81.6323 32.5018 72.1538 35.153 61.9661 35.1484C51.8054 35.1438 42.3472 32.4918 34.4802 27.9542C33.8935 28.8471 33.3158 29.7654 32.7471 30.709C41.1289 35.5312 51.173 38.342 61.9653 38.3466C72.7837 38.352 82.8571 35.5343 91.2537 30.7036C90.6849 29.7677 90.108 28.8487 89.5221 27.9549Z" fill="#4768E0"/>
<path opacity="0.3" d="M65.5214 123.812C69.0057 130.721 72.5528 147.586 63.2896 187.073C63.1256 187.794 62.4834 188.127 61.8641 188.098L61.8584 121.694C61.8584 121.694 61.8706 121.684 61.8935 121.684C63.3443 121.66 64.7952 122.383 65.5214 123.812Z" fill="#4768E0"/>
<path opacity="0.1" d="M73.6295 71.9628C72.625 73.3636 71.3455 74.5588 69.8408 75.484L49.9404 57.4561C50.8764 56.0308 52.0987 54.7788 53.5349 53.7869L73.6295 71.9628Z" fill="#35416D"/>
<path opacity="0.1" d="M75.5409 68.223C75.2667 69.0837 74.9003 69.9207 74.4417 70.71L54.8481 52.966C55.6584 52.5057 56.5364 52.1344 57.4585 51.8529L75.5409 68.223Z" fill="#35416D"/>
<path opacity="0.1" d="M68.0583 104.449C67.5295 105.237 66.8286 105.92 65.9816 106.435L55.7866 97.1995C56.304 96.4001 56.9935 95.7051 57.8299 95.1796L68.0583 104.449Z" fill="#35416D"/>
<path opacity="0.1" d="M69.028 102.288C68.9179 102.79 68.7269 103.28 68.4903 103.724L58.5801 94.75C59.0444 94.5107 59.5536 94.3158 60.084 94.1885L69.028 102.288Z" fill="#35416D"/>
</svg>
