<svg width="200" height="234" viewBox="0 0 200 234" fill="none" xmlns="http://www.w3.org/2000/svg">
<path fill-rule="evenodd" clip-rule="evenodd" d="M192.515 148.552L131.761 116.526C128.815 114.973 127 112.103 127 108.996V54.3814C127 51.0135 130.993 48.909 134.187 50.5924L194.941 82.6187C197.887 84.1716 199.702 87.0419 199.702 90.1483V144.763C199.702 148.131 195.709 150.236 192.515 148.552Z" fill="url(#paint0_radial_6434_32089)" fill-opacity="0.5"/>
<path fill-rule="evenodd" clip-rule="evenodd" d="M7.18738 185.176L67.941 153.151C70.8874 151.598 72.7022 148.728 72.7022 145.621V91.0062C72.7022 87.6383 68.7091 85.5338 65.5148 87.2177L4.76124 119.243C1.81478 120.796 0 123.666 0 126.772V181.387C0 184.755 3.99312 186.86 7.18738 185.176Z" fill="url(#paint1_radial_6434_32089)" fill-opacity="0.5"/>
<path fill-rule="evenodd" clip-rule="evenodd" d="M42.502 72.2352L84.6381 50.023C86.6814 48.9457 87.9403 46.9551 87.9403 44.8005V6.92147C87.9403 4.58575 85.1711 3.12585 82.9554 4.29399L40.8193 26.5062C38.776 27.5835 37.5171 29.574 37.5171 31.7286V69.6077C37.5171 71.9434 40.2863 73.4033 42.502 72.2352Z" fill="url(#paint2_radial_6434_32089)" fill-opacity="0.5"/>
<path fill-rule="evenodd" clip-rule="evenodd" d="M184.419 172.391H178.852H20.2174H14.6519V188.354H14.6561C14.6567 189.191 14.6971 190.028 14.7863 190.864C15.0769 193.673 15.8788 196.476 17.1799 199.221C18.8729 202.802 21.4178 206.297 24.8225 209.612C27.4813 212.207 30.6647 214.699 34.3721 217.029C35.9891 218.049 37.7008 219.036 39.5132 219.992C72.6598 237.466 126.409 237.471 159.556 219.992C171.752 213.563 179.464 205.668 182.679 197.381C183.837 194.405 184.412 191.379 184.413 188.353H184.418V172.391H184.419Z" fill="url(#paint3_linear_6434_32089)"/>
<path fill-rule="evenodd" clip-rule="evenodd" d="M182.679 183.055C179.464 191.342 171.752 199.236 159.556 205.666C126.409 223.146 72.6595 223.14 39.5129 205.666C37.6999 204.709 35.9888 203.723 34.3718 202.703C30.6645 200.373 27.4811 197.881 24.8222 195.286C21.4181 191.97 18.8726 188.476 17.1796 184.895C15.8785 182.15 15.0766 179.347 14.786 176.538C13.4789 164.267 21.7214 151.764 39.5135 142.387C62.1 130.479 94.2482 126.684 122.923 131.009C125.266 131.361 127.591 131.771 129.883 132.232C140.702 134.406 150.84 137.797 159.556 142.387C170.268 148.033 177.518 154.815 181.302 161.995C184.934 168.862 185.388 176.094 182.679 183.055Z" fill="url(#paint4_linear_6434_32089)"/>
<path fill-rule="evenodd" clip-rule="evenodd" d="M163.442 180.584C160.971 186.601 155.043 192.333 145.669 197.002C120.192 209.693 78.8793 209.689 53.4024 197.002C52.0091 196.307 50.6935 195.591 49.4509 194.85C46.6015 193.158 44.1543 191.349 42.111 189.465C39.4943 187.057 37.5379 184.52 36.2368 181.919C35.2365 179.926 34.6203 177.891 34.3967 175.852C33.3916 166.942 39.7271 157.863 53.4024 151.055C70.7622 142.408 95.4722 139.653 117.512 142.794C119.313 143.049 121.1 143.346 122.862 143.682C131.178 145.261 138.97 147.722 145.669 151.056C153.903 155.155 159.476 160.079 162.383 165.292C165.175 170.28 165.524 175.53 163.442 180.584Z" fill="url(#paint5_linear_6434_32089)"/>
<path fill-rule="evenodd" clip-rule="evenodd" d="M164.589 176.479C164.381 177.857 163.995 179.23 163.44 180.585C160.97 186.6 155.046 192.332 145.666 197.003C120.194 209.691 78.8804 209.691 53.4011 197.003C52.0114 196.305 50.6916 195.59 49.4472 194.847C46.5984 193.157 44.1542 191.346 42.1079 189.466C39.493 187.056 37.5353 184.518 36.2342 181.917C35.3371 180.135 34.7499 178.319 34.4785 176.491C34.4472 176.277 34.4219 176.064 34.3966 175.85C33.3921 166.941 39.7276 157.864 53.4017 151.053C70.7645 142.409 95.4727 139.652 117.509 142.795C119.316 143.049 121.097 143.349 122.859 143.683C131.177 145.258 138.971 147.72 145.666 151.053C153.903 155.153 159.473 160.078 162.384 165.291C164.425 168.942 165.164 172.725 164.589 176.479Z" fill="#0F2F2C"/>
<path fill-rule="evenodd" clip-rule="evenodd" d="M164.586 176.471C164.377 177.849 163.992 179.222 163.436 180.577C160.967 186.592 155.042 192.324 145.663 196.995C120.19 209.682 78.877 209.682 53.3977 196.995C52.0079 196.297 50.6882 195.582 49.4437 194.838C46.5949 193.149 44.1507 191.338 42.1044 189.458C39.4896 187.047 37.5319 184.51 36.2308 181.909C35.3336 180.127 34.7464 178.311 34.4751 176.482C35.5929 168.991 41.903 161.668 53.3977 155.947C70.7605 147.297 95.4687 144.546 117.505 147.683C119.312 147.937 121.093 148.237 122.855 148.571C131.173 150.151 138.967 152.614 145.662 155.947C153.899 160.047 159.469 164.966 162.38 170.179C163.537 172.244 164.27 174.349 164.586 176.471Z" fill="#9BE9DC"/>
<path fill-rule="evenodd" clip-rule="evenodd" d="M68.6948 183.403L34.3731 202.699C30.6658 200.369 27.4824 197.877 24.8235 195.282L62.284 180.023L68.6948 183.403Z" fill="url(#paint6_linear_6434_32089)"/>
<path fill-rule="evenodd" clip-rule="evenodd" d="M45.8654 168.383L43.7432 176.266L17.178 184.887C15.8769 182.142 15.075 179.339 14.7844 176.531L45.8654 168.383Z" fill="url(#paint7_linear_6434_32089)"/>
<path fill-rule="evenodd" clip-rule="evenodd" d="M172.5 158.5L146.319 180.439L92.3794 152.009L129.884 132.234C140.703 134.408 141.784 153.909 150.5 158.5C161.213 164.146 168.717 151.321 172.5 158.5Z" fill="#9BE9DC"/>
<path d="M149.033 150.659C146.297 157.02 145.188 164.167 143.096 170.78C143.061 170.888 144.633 170.45 144.804 170.326C145.389 169.902 145.332 169.629 145.585 169.025C146.282 167.365 146.271 165.141 146.655 163.382C147.503 159.503 148.574 155.664 149.865 151.888C150.426 150.245 151.06 148.562 152.328 147.289C154.066 145.542 156.729 144.823 158.693 143.29C161.279 141.271 162.354 138.115 163.309 135.134C164.198 132.362 165.095 129.489 164.669 126.627C164.153 124.505 162.929 122.447 162.521 120.337C162.171 118.529 162.287 116.573 162.003 114.711C161.928 114.769 161.853 114.825 161.778 114.883C155.519 124.613 153.836 136.542 149.905 147.45C149.833 148.508 149.499 149.577 149.033 150.659Z" fill="url(#paint8_linear_6434_32089)"/>
<path d="M151.344 122.76C148.565 125.85 146.593 129.556 145.751 133.484C145.379 135.226 144.942 137.649 145.541 139.391C146.189 141.272 147.922 142.363 148.993 143.985C149.745 145.126 149.985 146.28 149.904 147.45C153.834 136.542 155.518 124.612 161.778 114.883C158.283 117.593 154.291 119.484 151.344 122.76Z" fill="url(#paint9_linear_6434_32089)"/>
<path d="M187.531 141.362C182.068 139.974 176.402 139.035 170.779 139.594C164.685 140.199 158.599 142.776 155.133 147.393C153.348 149.771 152.336 152.55 151.347 155.288C148.991 161.806 146.635 168.325 144.279 174.843L144.882 177.428C146.903 170.411 149.568 163.548 152.838 156.936C152.973 156.663 153.119 156.387 153.299 156.138C157.869 143.863 174.117 142.938 187.531 141.362Z" fill="url(#paint10_linear_6434_32089)"/>
<path d="M153.302 156.136C153.452 155.929 153.625 155.739 153.845 155.594C154.704 155.031 155.942 155.299 156.793 155.872C157.643 156.445 158.247 157.267 159.006 157.938C161.211 159.884 164.579 160.386 167.602 159.913C170.625 159.44 173.398 158.124 176.115 156.825C178.361 155.751 180.713 154.59 182.055 152.626C183.346 150.735 183.495 148.401 184.17 146.261C184.846 144.121 186.47 141.886 188.903 141.716C188.448 141.594 187.991 141.476 187.533 141.359C174.12 142.935 157.871 143.86 153.302 156.136Z" fill="url(#paint11_linear_6434_32089)"/>
<path d="M165.135 164.02C167.084 170.07 167.626 176.89 170.422 182.625C170.765 179.523 172.012 176.531 173.07 173.547C174.282 170.13 175.269 166.475 174.379 162.977C173.777 160.607 172.078 158.315 169.697 157.157C168.034 156.348 164.25 155.704 162.525 156.621C161.634 157.094 160.947 157.855 160.016 158.257C159.643 158.419 159.268 158.529 158.893 158.611C161.618 159.838 163.871 161.328 165.135 164.02Z" fill="url(#paint12_linear_6434_32089)"/>
<path d="M165.139 163.339C163.875 160.647 161.622 159.157 158.897 157.93C156.782 158.391 154.639 157.839 152.556 159.028C150.391 160.265 148.262 161.891 147.933 164.358C147.49 167.668 150.54 170.427 153.395 172.508C158.78 176.432 164.442 180.039 170.335 183.299C170.344 182.845 170.375 182.393 170.425 181.944C167.629 176.21 167.087 169.389 165.139 163.339Z" fill="url(#paint13_linear_6434_32089)"/>
<path d="M149.54 44.2536V173.702C149.54 177.081 148.291 179.448 146.318 180.43V180.435L141.564 182.939C143.409 181.895 144.574 179.575 144.574 176.318V46.8739C144.574 40.7828 140.516 33.709 135.517 31.0733L83.4158 3.60889C81.3478 2.52003 79.442 2.35708 77.9148 2.97803L82.0725 0.784887C83.7058 -0.28361 85.9294 -0.303978 88.3875 0.988567L140.483 28.453C145.487 31.0887 149.54 38.1674 149.54 44.2536Z" fill="#9696B2"/>
<path d="M144.572 46.8722V176.319C144.572 179.572 143.41 181.896 141.566 182.94C141.496 182.98 141.42 183.014 141.351 183.049C139.772 183.845 137.738 183.741 135.515 182.571L132.445 180.95L83.4137 155.109C78.4179 152.473 74.3567 145.398 74.3567 139.308V9.86075C74.3567 6.29689 75.7524 3.85162 77.9127 2.97525C79.4411 2.35815 81.3487 2.51944 83.4137 3.60941L135.515 31.071C140.517 33.7068 144.572 40.7827 144.572 46.8722Z" fill="#C0C0DD"/>
<path d="M144.028 49.0118V175.282C144.028 177.508 142.311 178.401 140.188 177.283L82.6237 146.937C80.5014 145.819 78.7771 143.114 78.7771 140.888V14.6129C78.7771 12.3928 80.5014 11.4933 82.6237 12.6174L104.73 24.2668C106.246 25.0683 107.724 26.4754 108.703 28.2056C109.347 29.3473 110.32 30.3739 111.406 30.9448C112.493 31.5217 113.459 31.5156 114.11 31.0543C115.082 30.3563 116.567 30.5066 118.083 31.3081L140.188 42.957C142.311 44.0811 144.028 46.7862 144.028 49.0118Z" fill="white"/>
<path d="M109.374 25.5408C109.374 24.5175 110.165 24.1052 111.142 24.6204C112.119 25.1351 112.91 26.382 112.91 27.4053C112.91 28.4287 112.119 28.841 111.142 28.3257C110.165 27.811 109.374 26.5642 109.374 25.5408Z" fill="white"/>
<path d="M110.323 26.0441C110.323 25.5707 110.69 25.3802 111.141 25.618C111.593 25.8564 111.959 26.4333 111.959 26.9067C111.959 27.3801 111.593 27.5711 111.141 27.3328C110.69 27.0944 110.323 26.5175 110.323 26.0441Z" fill="white"/>
<path d="M136.993 74.4012L81.9463 45.3839C80.65 44.7007 79.5991 42.8676 79.5991 41.2899V27.2756C79.5991 25.6979 80.65 24.9723 81.9463 25.6555L136.993 54.6728C138.289 55.3559 139.339 57.1891 139.339 58.7668V72.7811C139.339 74.3593 138.289 75.0843 136.993 74.4012Z" fill="#C5E3DC"/>
<path d="M83.3603 35.6316C83.2656 35.5817 83.185 35.5101 83.1184 35.4168C83.0518 35.323 83.0009 35.2111 82.9657 35.0813C82.9305 34.951 82.9129 34.8068 82.9129 34.6487C82.9129 34.4915 82.9305 34.3665 82.9657 34.2738C83.0013 34.1808 83.0524 34.1225 83.119 34.0989C83.186 34.0751 83.2664 34.0878 83.3603 34.1373C83.4541 34.1868 83.5343 34.2586 83.6009 34.3529C83.6679 34.447 83.719 34.5591 83.7542 34.6894C83.7898 34.8194 83.8076 34.9631 83.8076 35.1202C83.8076 35.2784 83.79 35.4041 83.7548 35.4973C83.7197 35.59 83.6688 35.6482 83.6022 35.6718C83.5356 35.6949 83.4549 35.6815 83.3603 35.6316ZM83.3603 35.4754C83.4541 35.5248 83.527 35.5121 83.5789 35.4372C83.6309 35.3623 83.6568 35.2302 83.6568 35.0408C83.6568 34.9148 83.6449 34.8013 83.621 34.7002C83.5976 34.5993 83.5636 34.5139 83.5192 34.4441C83.4753 34.3745 83.4223 34.3234 83.3603 34.2907C83.2673 34.2417 83.1946 34.2552 83.1423 34.3313C83.0899 34.407 83.0637 34.5392 83.0637 34.7282C83.0637 34.8541 83.0754 34.9673 83.0989 35.0677C83.1224 35.1682 83.1561 35.2529 83.2001 35.322C83.2445 35.3914 83.2979 35.4425 83.3603 35.4754ZM84.456 34.7148C84.5088 34.7431 84.5616 34.7823 84.6143 34.8324C84.6671 34.8825 84.7153 34.9448 84.7589 35.0194C84.8024 35.0935 84.8374 35.1817 84.8638 35.2842C84.8902 35.3866 84.9034 35.5046 84.9034 35.6381C84.9034 35.7674 84.8925 35.8765 84.8707 35.9654C84.8493 36.054 84.8183 36.122 84.7777 36.1692C84.7375 36.2167 84.6885 36.2429 84.6307 36.248C84.5733 36.2532 84.5084 36.2368 84.4359 36.1986C84.3639 36.1606 84.2996 36.1106 84.243 36.0486C84.1869 35.9864 84.1408 35.9169 84.1048 35.8401C84.0692 35.7631 84.0464 35.6836 84.0363 35.6016L84.1896 35.6824C84.2034 35.7564 84.2309 35.8261 84.2719 35.8913C84.3134 35.9562 84.3681 36.0066 84.4359 36.0423C84.5352 36.0946 84.6135 36.0869 84.6709 36.0192C84.7287 35.9516 84.7576 35.8284 84.7576 35.6494L84.7475 35.6441C84.7241 35.6715 84.6962 35.6911 84.664 35.703C84.6317 35.7149 84.5959 35.7183 84.5565 35.7131C84.5172 35.708 84.4753 35.6938 84.4309 35.6704C84.3572 35.6315 84.2895 35.5752 84.2279 35.5016C84.1668 35.4277 84.1178 35.3448 84.0809 35.2529C84.0445 35.1608 84.0263 35.0679 84.0263 34.9741C84.0263 34.8851 84.0439 34.8129 84.079 34.7576C84.1146 34.7021 84.1645 34.6691 84.2286 34.6589C84.2931 34.6489 84.3689 34.6675 84.456 34.7148ZM84.456 34.8711C84.4032 34.8433 84.3557 34.8331 84.3134 34.8407C84.2715 34.8479 84.2382 34.8702 84.2135 34.9073C84.1892 34.9442 84.1771 34.993 84.1771 35.0536C84.1771 35.1142 84.1888 35.1756 84.2122 35.2376C84.2361 35.2995 84.2686 35.3559 84.3096 35.4069C84.3511 35.4576 84.3982 35.4969 84.451 35.5247C84.4908 35.5457 84.5279 35.5565 84.5622 35.557C84.5965 35.5571 84.6265 35.5485 84.652 35.5312C84.678 35.5137 84.6983 35.4891 84.713 35.4575C84.7277 35.4255 84.735 35.3879 84.735 35.3448C84.735 35.288 84.7228 35.2284 84.6985 35.1658C84.6747 35.1035 84.6416 35.0458 84.5993 34.9928C84.5574 34.9399 84.5096 34.8994 84.456 34.8711ZM85.2161 36.6013C85.1851 36.5849 85.1585 36.5584 85.1363 36.5216C85.1141 36.4848 85.103 36.4489 85.103 36.4138C85.103 36.3788 85.1141 36.3546 85.1363 36.3412C85.1585 36.3278 85.1851 36.3292 85.2161 36.3456C85.2471 36.3619 85.2737 36.3885 85.2959 36.4253C85.3181 36.4621 85.3292 36.498 85.3292 36.533C85.3292 36.5562 85.324 36.5748 85.3135 36.5887C85.3034 36.6028 85.2898 36.6112 85.2726 36.614C85.2559 36.6166 85.237 36.6123 85.2161 36.6013ZM85.9675 37.0059C85.8729 36.956 85.7922 36.8843 85.7256 36.791C85.659 36.6972 85.6082 36.5854 85.573 36.4556C85.5378 36.3253 85.5202 36.1811 85.5202 36.0229C85.5202 35.8657 85.5378 35.7408 85.573 35.648C85.6086 35.5551 85.6597 35.4968 85.7263 35.4732C85.7933 35.4493 85.8737 35.4621 85.9675 35.5115C86.0614 35.561 86.1416 35.6329 86.2082 35.7272C86.2752 35.8212 86.3263 35.9334 86.3615 36.0636C86.3971 36.1937 86.4149 36.3373 86.4149 36.4945C86.4149 36.6526 86.3973 36.7783 86.3621 36.8715C86.3269 36.9642 86.276 37.0224 86.2094 37.046C86.1428 37.0691 86.0622 37.0558 85.9675 37.0059ZM85.9675 36.8496C86.0614 36.8991 86.1342 36.8863 86.1862 36.8114C86.2381 36.7365 86.2641 36.6044 86.2641 36.415C86.2641 36.2891 86.2522 36.1755 86.2283 36.0744C86.2048 35.9735 86.1709 35.8881 86.1265 35.8183C86.0825 35.7488 86.0295 35.6976 85.9675 35.665C85.8746 35.6159 85.8019 35.6295 85.7495 35.7056C85.6972 35.7812 85.671 35.9135 85.671 36.1024C85.671 36.2283 85.6827 36.3415 85.7062 36.442C85.7296 36.5424 85.7633 36.6272 85.8073 36.6963C85.8517 36.7656 85.9051 36.8167 85.9675 36.8496ZM87.0733 37.5887C86.9787 37.5388 86.898 37.4672 86.8314 37.3738C86.7648 37.28 86.714 37.1682 86.6788 37.0384C86.6436 36.9081 86.626 36.7639 86.626 36.6058C86.626 36.4486 86.6436 36.3236 86.6788 36.2309C86.7144 36.1379 86.7655 36.0796 86.8321 36.056C86.8991 36.0321 86.9795 36.0449 87.0733 36.0944C87.1672 36.1438 87.2474 36.2157 87.314 36.31C87.381 36.404 87.4321 36.5162 87.4673 36.6465C87.5029 36.7765 87.5207 36.9201 87.5207 37.0773C87.5207 37.2355 87.5031 37.3611 87.4679 37.4543C87.4327 37.5471 87.3818 37.6052 87.3152 37.6288C87.2486 37.652 87.168 37.6386 87.0733 37.5887ZM87.0733 37.4325C87.1672 37.4819 87.24 37.4692 87.292 37.3943C87.3439 37.3194 87.3699 37.1872 87.3699 36.9979C87.3699 36.8719 87.358 36.7584 87.3341 36.6572C87.3106 36.5563 87.2767 36.471 87.2323 36.4012C87.1883 36.3316 87.1353 36.2805 87.0733 36.2478C86.9804 36.1988 86.9077 36.2123 86.8553 36.2884C86.803 36.364 86.7768 36.4963 86.7768 36.6852C86.7768 36.8112 86.7885 36.9244 86.812 37.0248C86.8354 37.1252 86.8691 37.21 86.9131 37.2791C86.9575 37.3484 87.0109 37.3996 87.0733 37.4325Z" fill="black"/>
<path d="M83.041 40.6071L82.8586 40.5783L83.3862 39.2071L83.5657 39.2355L84.0933 40.7734L83.9109 40.7446L83.4816 39.4523L83.4703 39.4505L83.041 40.6071ZM83.1084 40.0496L83.8435 40.1658V40.322L83.1084 40.2058V40.0496ZM84.3171 39.3543L84.5247 39.3871L85.013 40.6716L85.0298 40.6743L85.5181 39.5441L85.7257 39.5769V41.0314L85.563 41.0057V39.9006L85.5489 39.8984L85.1 40.9325L84.9428 40.9077L84.4939 39.7316L84.4798 39.7294V40.8345L84.3171 40.8088V39.3543Z" fill="black"/>
<path d="M82.9632 30.2135L83.1492 30.3115L83.5865 31.7494L83.6015 31.7574L84.0388 30.7805L84.2248 30.8785V32.333L84.079 32.2562V31.1511L84.0665 31.1445L83.6644 32.0376L83.5236 31.9635L83.1215 30.6464L83.109 30.6398V31.7449L82.9632 31.6681V30.2135ZM84.9092 32.7165C84.8221 32.6706 84.7456 32.6068 84.6798 32.5253C84.6145 32.444 84.5634 32.3515 84.5265 32.2478C84.4901 32.1443 84.4719 32.0362 84.4719 31.9235C84.4719 31.8099 84.4901 31.7203 84.5265 31.6547C84.5634 31.5894 84.6145 31.5505 84.6798 31.5381C84.7456 31.5259 84.8221 31.5427 84.9092 31.5886C84.9963 31.6346 85.0725 31.6982 85.1379 31.7795C85.2036 31.861 85.2547 31.9538 85.2912 32.0577C85.328 32.1619 85.3465 32.2708 85.3465 32.3845C85.3465 32.4972 85.328 32.5859 85.2912 32.6508C85.2547 32.7159 85.2036 32.7545 85.1379 32.7667C85.0725 32.7791 84.9963 32.7624 84.9092 32.7165ZM84.9092 32.5659C84.9754 32.6008 85.0298 32.6103 85.0725 32.5945C85.1153 32.5787 85.1469 32.5449 85.1674 32.4932C85.1879 32.4415 85.1982 32.3792 85.1982 32.3063C85.1982 32.2334 85.1879 32.16 85.1674 32.0863C85.1469 32.0125 85.1153 31.9449 85.0725 31.8836C85.0298 31.8222 84.9754 31.7741 84.9092 31.7392C84.843 31.7043 84.7885 31.695 84.7458 31.7113C84.7031 31.7277 84.6715 31.7619 84.6509 31.814C84.6304 31.8662 84.6202 31.9287 84.6202 32.0016C84.6202 32.0746 84.6304 32.1477 84.6509 32.221C84.6715 32.2943 84.7031 32.3614 84.7458 32.4223C84.7885 32.4832 84.843 32.531 84.9092 32.5659ZM85.7211 32.4655V33.1217L85.5728 33.0435V31.9526L85.7161 32.0281V32.1986L85.7286 32.2052C85.7512 32.1617 85.7856 32.1353 85.8317 32.126C85.8777 32.1162 85.9372 32.1305 86.0101 32.1689C86.0754 32.2034 86.1326 32.2486 86.1816 32.3048C86.2306 32.3604 86.2688 32.426 86.296 32.5014C86.3232 32.5764 86.3368 32.6603 86.3368 32.7531V33.4462L86.1885 33.3681V32.6863C86.1885 32.6006 86.1689 32.5234 86.1295 32.4549C86.0901 32.3858 86.0361 32.3332 85.9674 32.297C85.9201 32.272 85.8777 32.2613 85.8405 32.2649C85.8036 32.2686 85.7745 32.2872 85.7531 32.3204C85.7318 32.3537 85.7211 32.402 85.7211 32.4655ZM86.9722 33.8039C86.8918 33.7615 86.8208 33.7011 86.7592 33.6227C86.6976 33.5438 86.6494 33.4531 86.6147 33.3505C86.5799 33.2474 86.5625 33.1381 86.5625 33.0226C86.5625 32.908 86.5799 32.8177 86.6147 32.7518C86.6494 32.6858 86.6978 32.6462 86.7598 32.633C86.8218 32.6197 86.8934 32.6345 86.9747 32.6773C87.0375 32.7105 87.0872 32.7485 87.1236 32.7913C87.1605 32.834 87.1885 32.8753 87.2078 32.9153C87.2275 32.955 87.2428 32.9872 87.2537 33.0119L87.2662 33.0185V32.4816L87.4145 32.5597V34.0143L87.2713 33.9388V33.7711L87.2537 33.7619C87.2428 33.776 87.2273 33.7929 87.2072 33.8127C87.1871 33.8319 87.1584 33.8435 87.1211 33.8475C87.0838 33.8511 87.0342 33.8365 86.9722 33.8039ZM86.9923 33.6639C87.0518 33.6952 87.102 33.7042 87.1431 33.6908C87.1841 33.6769 87.2153 33.6444 87.2367 33.5931C87.2581 33.5414 87.2687 33.4744 87.2687 33.392C87.2687 33.3105 87.2583 33.2338 87.2373 33.1616C87.2164 33.0891 87.1854 33.0249 87.1443 32.9692C87.1033 32.913 87.0526 32.869 86.9923 32.8372C86.9295 32.8041 86.8771 32.7947 86.8352 32.8091C86.7937 32.8232 86.7625 32.8558 86.7416 32.9067C86.7211 32.9575 86.7108 33.0212 86.7108 33.0979C86.7108 33.1756 86.7213 33.2516 86.7422 33.3261C86.7636 33.4003 86.795 33.4671 86.8365 33.5264C86.8784 33.5854 86.9303 33.6312 86.9923 33.6639ZM87.9907 34.3435C87.9295 34.3113 87.874 34.269 87.8242 34.2167C87.7743 34.1639 87.7347 34.1049 87.7054 34.0398C87.6761 33.9741 87.6614 33.9058 87.6614 33.8348C87.6614 33.7723 87.6723 33.7273 87.6941 33.7C87.7159 33.6722 87.745 33.6567 87.7814 33.6537C87.8179 33.6506 87.8581 33.6553 87.9021 33.6676C87.9465 33.6796 87.9911 33.6941 88.0359 33.7111C88.0945 33.7335 88.1421 33.7522 88.1785 33.7671C88.2154 33.7818 88.2422 33.7881 88.2589 33.786C88.2761 33.7842 88.2847 33.7698 88.2847 33.7428V33.7371C88.2847 33.6671 88.2677 33.6037 88.2338 33.547C88.2003 33.4905 88.1494 33.4442 88.0811 33.4082C88.0103 33.3709 87.9548 33.3592 87.9146 33.373C87.8744 33.3869 87.8461 33.4094 87.8298 33.4405L87.6891 33.3095C87.7142 33.2565 87.7477 33.2226 87.7896 33.2077C87.8319 33.1926 87.878 33.1908 87.9278 33.2024C87.9781 33.2138 88.0275 33.2323 88.0761 33.2579C88.1071 33.2742 88.1427 33.2972 88.1829 33.3269C88.2235 33.3564 88.2627 33.3939 88.3004 33.4393C88.3385 33.485 88.3701 33.5402 88.3953 33.6051C88.4204 33.6699 88.433 33.7457 88.433 33.8323V34.5511L88.2847 34.4729V34.3252L88.2772 34.3212C88.2671 34.3396 88.2503 34.3561 88.2269 34.3707C88.2034 34.3853 88.1722 34.3919 88.1333 34.3903C88.0943 34.3887 88.0468 34.3731 87.9907 34.3435ZM88.0133 34.2049C88.0719 34.2358 88.1213 34.2488 88.1615 34.244C88.2022 34.2393 88.2328 34.2218 88.2533 34.1915C88.2742 34.1613 88.2847 34.1235 88.2847 34.078V33.9246C88.2784 33.9298 88.2646 33.9304 88.2432 33.9262C88.2223 33.9218 88.198 33.9149 88.1703 33.9055C88.1431 33.8959 88.1165 33.8862 88.0905 33.8763C88.065 33.8661 88.0443 33.858 88.0283 33.852C87.9898 33.8374 87.9538 33.8276 87.9203 33.8228C87.8872 33.8176 87.8604 33.8222 87.8399 33.8365C87.8198 33.8505 87.8097 33.8788 87.8097 33.9214C87.8097 33.9797 87.8288 34.0337 87.8669 34.0837C87.9054 34.1333 87.9542 34.1737 88.0133 34.2049ZM88.7646 35.1349C88.7394 35.1217 88.717 35.1075 88.6973 35.0924C88.6776 35.0778 88.664 35.0663 88.6565 35.0581L88.6942 34.9302C88.7302 34.9596 88.762 34.9802 88.7897 34.9919C88.8173 35.0037 88.8418 35.0026 88.8632 34.9888C88.885 34.9756 88.9049 34.9461 88.9229 34.9002L88.9505 34.8296L88.5937 33.5449L88.7545 33.6296L89.0209 34.6394L89.0309 34.6447L89.2973 33.9158L89.4582 34.0005L89.0485 35.0346C89.0301 35.0813 89.0073 35.1159 88.9801 35.1384C88.9528 35.1615 88.9212 35.1725 88.8852 35.1715C88.8496 35.1708 88.8094 35.1586 88.7646 35.1349Z" fill="black"/>
<path d="M134.681 62.7465C134.629 62.6459 134.563 62.5411 134.49 62.4276L134.489 62.4261C134.409 62.3055 134.329 62.117 134.252 61.9036C134.134 61.5817 134.02 61.2054 133.829 60.8428C133.732 60.6615 133.613 60.4805 133.456 60.315C133.299 60.1495 133.103 60.004 132.883 59.9075C132.587 59.7744 132.338 59.7706 132.161 59.8472C131.895 59.9614 131.755 60.2181 131.629 60.4575C131.508 60.6988 131.395 60.9276 131.273 61.0015L131.272 61.0019C131.199 61.0505 131.134 61.0972 131.081 61.1512C131.03 61.2062 130.985 61.2665 130.984 61.3724C130.98 61.4667 131.041 61.6009 131.128 61.697C131.257 61.8433 131.41 61.9455 131.627 62.0725C131.81 62.1773 132.042 62.2945 132.333 62.4306C132.417 62.6632 132.631 62.897 132.883 63.0089C133.134 63.1201 133.346 63.0741 133.43 62.9154C133.834 63.0843 134.125 63.1903 134.333 63.237C134.452 63.2626 134.55 63.2736 134.635 63.2509C134.722 63.2313 134.783 63.1518 134.78 63.0542C134.778 62.9475 134.733 62.8464 134.681 62.7465ZM134.085 62.788C133.937 62.7428 133.732 62.6659 133.469 62.5569V62.555L133.25 62.4653L133.247 62.4642C133.138 62.4193 133.016 62.365 132.883 62.3066C132.747 62.2463 132.625 62.192 132.515 62.14L132.513 62.1388L132.295 62.0352V62.0363C131.932 61.8652 131.678 61.7291 131.535 61.6333C131.472 61.5922 131.439 61.5636 131.419 61.5455C131.426 61.5338 131.437 61.518 131.456 61.5002C131.49 61.4667 131.543 61.4275 131.608 61.3849L131.607 61.3853C131.741 61.2967 131.827 61.1538 131.91 61.0004C132.032 60.77 132.144 60.5114 132.297 60.361C132.374 60.2852 132.458 60.2377 132.55 60.223C132.642 60.2091 132.743 60.2219 132.884 60.2837C133.068 60.3674 133.185 60.4715 133.303 60.6215C133.477 60.8454 133.613 61.1787 133.732 61.5195C133.856 61.8625 133.959 62.2056 134.157 62.5151L134.156 62.5136C134.226 62.621 134.282 62.7122 134.315 62.7771L134.346 62.8434C134.308 62.8427 134.222 62.8317 134.085 62.788Z" fill="black"/>
<path d="M99.8907 42.9101L100.17 43.0572L100.826 45.214L100.848 45.2259L101.504 43.7605L101.783 43.9076V46.0894L101.564 45.9742V44.3165L101.546 44.3066L100.942 45.6463L100.731 45.535L100.128 43.5595L100.109 43.5495V45.2072L99.8907 45.0919V42.9101ZM102.829 46.6745C102.689 46.601 102.569 46.5028 102.468 46.3798C102.367 46.2565 102.289 46.1176 102.235 45.9631C102.181 45.8082 102.154 45.647 102.154 45.4793C102.154 45.3117 102.181 45.1782 102.235 45.0789C102.289 44.9791 102.365 44.9191 102.463 44.8987C102.561 44.8779 102.675 44.9019 102.806 44.9708C102.881 45.0106 102.956 45.064 103.029 45.1312C103.103 45.1983 103.17 45.2798 103.23 45.3755C103.29 45.4705 103.338 45.5796 103.374 45.7029C103.41 45.8262 103.428 45.9642 103.428 46.1169V46.2234L102.312 45.6352V45.4179L103.202 45.8868C103.202 45.7945 103.185 45.7035 103.153 45.6138C103.121 45.5245 103.075 45.4432 103.015 45.3698C102.956 45.2968 102.886 45.2391 102.806 45.1967C102.717 45.15 102.641 45.1344 102.576 45.15C102.512 45.1653 102.463 45.2032 102.428 45.2638C102.393 45.3244 102.376 45.3998 102.376 45.49V45.6349C102.376 45.7585 102.395 45.8732 102.433 45.979C102.471 46.0844 102.524 46.1774 102.592 46.2579C102.66 46.3377 102.739 46.4013 102.829 46.4487C102.887 46.4794 102.94 46.498 102.987 46.5044C103.035 46.5104 103.076 46.5037 103.11 46.4843C103.145 46.4641 103.172 46.4306 103.19 46.3837L103.405 46.5652C103.383 46.6356 103.345 46.688 103.291 46.7224C103.238 46.756 103.172 46.7695 103.093 46.763C103.015 46.7556 102.927 46.7262 102.829 46.6745ZM104.373 47.4887C104.234 47.4151 104.113 47.3169 104.012 47.194C103.912 47.0707 103.834 46.9318 103.779 46.7773C103.725 46.6224 103.698 46.4611 103.698 46.2935C103.698 46.1259 103.725 45.9924 103.779 45.893C103.834 45.7933 103.91 45.7332 104.008 45.7128C104.106 45.6921 104.22 45.7161 104.351 45.785C104.426 45.8247 104.5 45.8782 104.574 45.9453C104.647 46.0125 104.714 46.0939 104.775 46.1896C104.835 46.2846 104.883 46.3938 104.919 46.517C104.955 46.6403 104.973 46.7783 104.973 46.931V47.0375L103.857 46.4494V46.2321L104.746 46.701C104.746 46.6087 104.73 46.5177 104.697 46.428C104.665 46.3387 104.619 46.2573 104.56 46.184C104.501 46.1109 104.431 46.0532 104.351 46.0108C104.262 45.9641 104.185 45.9486 104.121 45.9642C104.057 45.9794 104.007 46.0174 103.973 46.078C103.938 46.1386 103.921 46.214 103.921 46.3042V46.4491C103.921 46.5727 103.94 46.6874 103.977 46.7932C104.016 46.8986 104.069 46.9916 104.137 47.0721C104.205 47.1519 104.283 47.2155 104.373 47.2628C104.432 47.2936 104.484 47.3122 104.532 47.3186C104.579 47.3246 104.62 47.3178 104.655 47.2984C104.69 47.2783 104.716 47.2448 104.735 47.1979L104.95 47.3793C104.927 47.4498 104.889 47.5022 104.836 47.5365C104.783 47.5702 104.717 47.5837 104.638 47.5771C104.559 47.5698 104.471 47.5403 104.373 47.4887ZM105.94 46.6443V46.8574L105.19 46.462V46.2489L105.94 46.6443ZM105.409 45.9721L105.631 46.0893V47.649C105.631 47.72 105.64 47.7781 105.659 47.8232C105.678 47.8679 105.701 47.9039 105.73 47.9312C105.76 47.9582 105.791 47.9802 105.824 47.9975C105.848 48.0104 105.868 48.0196 105.884 48.025C105.9 48.0297 105.912 48.0335 105.922 48.0363L105.967 48.286C105.952 48.2845 105.931 48.2798 105.904 48.2719C105.877 48.2648 105.842 48.2503 105.801 48.2284C105.738 48.1953 105.677 48.1476 105.616 48.0853C105.557 48.0233 105.507 47.9506 105.467 47.8672C105.428 47.7842 105.409 47.6951 105.409 47.5999V45.9721ZM106.275 48.457V46.8206L106.497 46.9379V48.5742L106.275 48.457ZM106.388 46.6075C106.345 46.5847 106.307 46.5483 106.276 46.4983C106.245 46.4487 106.23 46.4005 106.23 46.3536C106.23 46.3067 106.245 46.2747 106.276 46.2576C106.307 46.2407 106.345 46.2438 106.388 46.2666C106.431 46.2895 106.469 46.3257 106.499 46.3753C106.531 46.4252 106.546 46.4736 106.546 46.5205C106.546 46.5674 106.531 46.5992 106.499 46.6161C106.469 46.6332 106.431 46.6304 106.388 46.6075ZM107.127 47.9218V48.9062L106.905 48.7889V47.1526L107.12 47.2658V47.5215L107.139 47.5315C107.172 47.4662 107.224 47.4266 107.293 47.4126C107.362 47.3979 107.451 47.4194 107.561 47.477C107.659 47.5287 107.745 47.5966 107.818 47.6808C107.892 47.7643 107.949 47.8626 107.99 47.9758C108.03 48.0882 108.051 48.214 108.051 48.3532V49.393L107.828 49.2758V48.253C107.828 48.1245 107.799 48.0088 107.74 47.9059C107.681 47.8023 107.6 47.7234 107.497 47.6691C107.426 47.6317 107.362 47.6156 107.306 47.6209C107.251 47.6266 107.207 47.6544 107.175 47.7042C107.143 47.7541 107.127 47.8266 107.127 47.9218ZM109.042 50.5629C108.934 50.5063 108.842 50.442 108.765 50.37C108.687 50.2987 108.623 50.2243 108.571 50.1467C108.52 50.0702 108.48 49.9956 108.45 49.9228L108.627 49.8756C108.647 49.916 108.672 49.9635 108.703 50.0181C108.734 50.0734 108.776 50.1293 108.83 50.1859C108.884 50.2435 108.954 50.2953 109.042 50.3413C109.158 50.4029 109.255 50.4218 109.331 50.3979C109.407 50.3741 109.445 50.294 109.445 50.1576V49.8252L109.426 49.8153C109.41 49.8365 109.387 49.8612 109.356 49.8893C109.327 49.9171 109.284 49.9333 109.228 49.9379C109.173 49.9421 109.098 49.9194 109.004 49.8698C108.887 49.8082 108.782 49.7216 108.689 49.6101C108.597 49.4989 108.524 49.3694 108.47 49.2216C108.416 49.0742 108.389 48.9152 108.389 48.7447C108.389 48.5771 108.415 48.4449 108.468 48.3481C108.52 48.2506 108.592 48.1923 108.685 48.1731C108.778 48.1532 108.886 48.1754 109.008 48.2396C109.102 48.2893 109.177 48.3465 109.232 48.4111C109.288 48.4754 109.331 48.5377 109.36 48.598C109.39 48.6579 109.414 48.7064 109.43 48.7434L109.452 48.7553V48.4954L109.667 48.6087V50.2919C109.667 50.4325 109.639 50.532 109.583 50.5902C109.527 50.6495 109.451 50.6748 109.356 50.666C109.262 50.6582 109.157 50.6238 109.042 50.5629ZM109.034 49.6598C109.123 49.7068 109.199 49.7235 109.26 49.7098C109.322 49.6961 109.369 49.6543 109.401 49.5846C109.433 49.5148 109.449 49.4196 109.449 49.2988C109.449 49.1809 109.433 49.0686 109.402 48.9618C109.37 48.8551 109.324 48.7599 109.262 48.6763C109.201 48.5927 109.125 48.5271 109.034 48.4794C108.94 48.4297 108.861 48.4153 108.798 48.4362C108.736 48.4574 108.689 48.5051 108.658 48.5795C108.627 48.6542 108.612 48.7469 108.612 48.8577C108.612 48.9713 108.628 49.0801 108.659 49.184C108.691 49.2876 108.738 49.3806 108.8 49.4631C108.863 49.5452 108.941 49.6108 109.034 49.6598Z" fill="black"/>
<path d="M96.031 36.3984V49.8474H96.3325V36.3984" fill="#8A939A"/>
<path d="M136.993 118.807L81.9463 89.7901C80.65 89.1069 79.5991 87.2738 79.5991 85.6961V71.6818C79.5991 70.1041 80.65 69.3786 81.9463 70.0617L136.993 99.079C138.289 99.7622 139.339 101.595 139.339 103.173V117.187C139.339 118.765 138.289 119.491 136.993 118.807Z" fill="#C1E0DA"/>
<path d="M85.8832 88.1716L85.7036 88.129L86.2233 86.7976L86.4002 86.8396L86.9199 88.4173L86.7402 88.3747L86.3172 87.05L86.3062 87.0474L85.8832 88.1716ZM85.9496 87.6191L86.6738 87.7908V87.9471L85.9496 87.7754V87.6191ZM87.1403 87.0151L87.3449 87.0636L87.8258 88.385L87.8424 88.3889L88.3234 87.2955L88.528 87.344V88.7986L88.3676 88.7606V87.6555L88.3538 87.6522L87.9115 88.6524L87.7567 88.6157L87.3145 87.4058L87.3006 87.4025V88.5076L87.1403 88.4696V87.0151Z" fill="black"/>
<path d="M85.3503 80.1405V82.3223L85.1166 82.1991V80.2943L85.1052 80.2884L84.634 80.3937V80.1252L85.1166 80.0173L85.3503 80.1405ZM86.5349 82.9766C86.3929 82.9017 86.272 82.7943 86.1721 82.6543C86.0722 82.5136 85.9959 82.3458 85.9431 82.1511C85.8903 81.9557 85.8639 81.7394 85.8639 81.5022C85.8639 81.2664 85.8903 81.0789 85.9431 80.9398C85.9965 80.8004 86.0731 80.7129 86.173 80.6775C86.2736 80.6417 86.3942 80.6609 86.5349 80.7351C86.6757 80.8093 86.796 80.9171 86.8959 81.0585C86.9964 81.1996 87.0731 81.3678 87.1258 81.5632C87.1792 81.7583 87.2059 81.9737 87.2059 82.2095C87.2059 82.4467 87.1796 82.6352 87.1268 82.775C87.074 82.9141 86.9977 83.0014 86.8978 83.0368C86.7979 83.0715 86.6769 83.0514 86.5349 82.9766ZM86.5349 82.7422C86.6757 82.8164 86.785 82.7973 86.8629 82.685C86.9408 82.5726 86.9798 82.3744 86.9798 82.0903C86.9798 81.9014 86.9619 81.7311 86.926 81.5794C86.8909 81.428 86.84 81.3 86.7734 81.1953C86.7074 81.0909 86.6279 81.0142 86.5349 80.9652C86.3954 80.8917 86.2864 80.912 86.2079 81.0262C86.1294 81.1396 86.0901 81.338 86.0901 81.6214C86.0901 81.8103 86.1077 81.9801 86.1429 82.1307C86.1781 82.2814 86.2286 82.4085 86.2946 82.5122C86.3612 82.6162 86.4413 82.6929 86.5349 82.7422ZM87.6626 83.5581C87.6161 83.5336 87.5762 83.4938 87.5429 83.4386C87.5096 83.3834 87.4929 83.3295 87.4929 83.277C87.4929 83.2244 87.5096 83.1881 87.5429 83.168C87.5762 83.1479 87.6161 83.1501 87.6626 83.1746C87.7091 83.1991 87.749 83.239 87.7823 83.2942C87.8156 83.3494 87.8322 83.4032 87.8322 83.4558C87.8322 83.4906 87.8243 83.5184 87.8086 83.5393C87.7936 83.5604 87.7731 83.5731 87.7474 83.5773C87.7223 83.5811 87.694 83.5747 87.6626 83.5581ZM88.7897 84.165C88.6477 84.0902 88.5268 83.9828 88.4269 83.8427C88.327 83.702 88.2506 83.5343 88.1979 83.3396C88.1451 83.1442 88.1187 82.9278 88.1187 82.6906C88.1187 82.4548 88.1451 82.2674 88.1979 82.1283C88.2513 81.9888 88.3279 81.9014 88.4278 81.866C88.5284 81.8302 88.649 81.8494 88.7897 81.9236C88.9305 81.9977 89.0508 82.1055 89.1507 82.247C89.2512 82.388 89.3279 82.5563 89.3806 82.7517C89.434 82.9468 89.4607 83.1622 89.4607 83.398C89.4607 83.6352 89.4344 83.8237 89.3816 83.9635C89.3288 84.1026 89.2525 84.1898 89.1526 84.2252C89.0527 84.2599 88.9317 84.2399 88.7897 84.165ZM88.7897 83.9307C88.9305 84.0048 89.0398 83.9858 89.1177 83.8734C89.1956 83.7611 89.2346 83.5628 89.2346 83.2788C89.2346 83.0898 89.2167 82.9195 89.1808 82.7678C89.1457 82.6165 89.0948 82.4885 89.0282 82.3837C88.9622 82.2794 88.8827 82.2027 88.7897 82.1537C88.6502 82.0801 88.5412 82.1005 88.4627 82.2146C88.3842 82.328 88.3449 82.5264 88.3449 82.8098C88.3449 82.9988 88.3625 83.1685 88.3977 83.3192C88.4329 83.4698 88.4834 83.597 88.5494 83.7006C88.616 83.8046 88.6961 83.8813 88.7897 83.9307ZM90.4484 85.0393C90.3064 84.9645 90.1855 84.857 90.0856 84.717C89.9857 84.5763 89.9093 84.4086 89.8566 84.2138C89.8038 84.0184 89.7774 83.8021 89.7774 83.5649C89.7774 83.3291 89.8038 83.1416 89.8566 83.0026C89.91 82.8631 89.9866 82.7757 90.0865 82.7402C90.1871 82.7044 90.3077 82.7236 90.4484 82.7978C90.5892 82.872 90.7095 82.9798 90.8094 83.1212C90.9099 83.2623 90.9866 83.4305 91.0393 83.626C91.0927 83.821 91.1194 84.0364 91.1194 84.2722C91.1194 84.5095 91.0931 84.698 91.0403 84.8378C90.9875 84.9768 90.9112 85.0641 90.8113 85.0995C90.7114 85.1342 90.5904 85.1141 90.4484 85.0393ZM90.4484 84.8049C90.5892 84.8791 90.6985 84.86 90.7764 84.7477C90.8543 84.6353 90.8933 84.4371 90.8933 84.153C90.8933 83.9641 90.8754 83.7938 90.8395 83.6421C90.8044 83.4908 90.7535 83.3627 90.6869 83.258C90.6209 83.1536 90.5414 83.0769 90.4484 83.0279C90.3089 82.9544 90.1999 82.9747 90.1214 83.0889C90.0429 83.2023 90.0036 83.4007 90.0036 83.6841C90.0036 83.873 90.0212 84.0428 90.0564 84.1934C90.0916 84.3441 90.1421 84.4713 90.2081 84.5749C90.2747 84.6789 90.3548 84.7556 90.4484 84.8049Z" fill="black"/>
<path d="M135.745 108.854C135.681 108.707 135.6 108.554 135.51 108.388L135.509 108.386C135.411 108.21 135.312 107.935 135.218 107.623C135.073 107.153 134.934 106.604 134.699 106.074C134.58 105.809 134.435 105.545 134.242 105.303C134.049 105.062 133.808 104.849 133.539 104.708C133.176 104.514 132.87 104.509 132.653 104.62C132.326 104.787 132.154 105.162 132 105.512C131.851 105.864 131.713 106.198 131.563 106.306L131.562 106.306C131.472 106.377 131.392 106.446 131.328 106.524C131.265 106.605 131.21 106.693 131.208 106.848C131.203 106.985 131.278 107.181 131.384 107.322C131.543 107.535 131.731 107.684 131.998 107.87C132.221 108.023 132.507 108.194 132.864 108.393C132.967 108.732 133.229 109.074 133.539 109.237C133.847 109.4 134.107 109.333 134.209 109.101C134.705 109.347 135.063 109.502 135.318 109.57C135.464 109.608 135.584 109.624 135.689 109.591C135.795 109.563 135.87 109.446 135.866 109.304C135.864 109.148 135.808 109.001 135.745 108.854ZM135.013 108.915C134.832 108.849 134.58 108.736 134.257 108.577V108.574L133.989 108.443L133.985 108.442C133.851 108.376 133.701 108.297 133.539 108.212C133.371 108.124 133.221 108.044 133.087 107.968L133.084 107.967L132.816 107.815V107.818C132.372 107.568 132.06 107.369 131.884 107.229C131.807 107.169 131.766 107.127 131.743 107.101C131.751 107.084 131.764 107.061 131.787 107.035C131.829 106.986 131.894 106.929 131.973 106.866L131.972 106.867C132.137 106.738 132.242 106.528 132.344 106.305C132.494 105.968 132.632 105.591 132.82 105.372C132.913 105.261 133.016 105.192 133.129 105.17C133.243 105.15 133.366 105.169 133.539 105.259C133.765 105.381 133.909 105.533 134.054 105.752C134.267 106.079 134.434 106.566 134.58 107.063C134.732 107.564 134.858 108.065 135.102 108.517L135.101 108.515C135.186 108.672 135.255 108.805 135.296 108.9L135.334 108.997C135.287 108.995 135.181 108.979 135.013 108.915Z" fill="black"/>
<path d="M100.124 87.4239V89.6058L99.8907 89.4826V87.3007L100.124 87.4239ZM100.785 88.9697V89.9541L100.563 89.8369V88.2005L100.778 88.3138V88.5694L100.797 88.5794C100.831 88.5142 100.882 88.4746 100.951 88.4606C101.02 88.4459 101.11 88.4673 101.219 88.5249C101.317 88.5766 101.403 88.6445 101.476 88.7287C101.55 88.8122 101.607 88.9105 101.648 89.0237C101.688 89.1361 101.709 89.2619 101.709 89.4011V90.4409L101.486 90.3237V89.3009C101.486 89.1724 101.457 89.0567 101.398 88.9538C101.339 88.8503 101.258 88.7713 101.155 88.717C101.084 88.6796 101.02 88.6635 100.964 88.6689C100.909 88.6745 100.865 88.7023 100.833 88.7522C100.801 88.802 100.785 88.8746 100.785 88.9697ZM103.141 89.9257L102.941 89.8843C102.928 89.84 102.91 89.7937 102.885 89.7453C102.861 89.6965 102.829 89.6494 102.787 89.6041C102.746 89.5588 102.693 89.5191 102.628 89.485C102.539 89.4383 102.466 89.4225 102.407 89.4375C102.348 89.4522 102.319 89.4947 102.319 89.565C102.319 89.6275 102.339 89.6874 102.379 89.7449C102.419 89.8023 102.482 89.8656 102.568 89.9348L102.783 90.1077C102.912 90.2114 103.008 90.3166 103.072 90.4232C103.135 90.5291 103.167 90.6392 103.167 90.7535C103.167 90.8473 103.143 90.9185 103.095 90.9672C103.048 91.0162 102.982 91.0397 102.898 91.0376C102.813 91.0355 102.714 91.0048 102.602 90.9455C102.454 90.8677 102.332 90.7671 102.235 90.6436C102.138 90.5202 102.077 90.3821 102.051 90.2293L102.262 90.2809C102.282 90.3796 102.32 90.4657 102.376 90.5392C102.433 90.613 102.507 90.6739 102.598 90.722C102.702 90.7766 102.784 90.7951 102.845 90.7775C102.906 90.7596 102.937 90.7154 102.937 90.6451C102.937 90.5883 102.92 90.5314 102.884 90.4745C102.849 90.4169 102.795 90.3593 102.722 90.3017L102.481 90.1106C102.348 90.0053 102.251 89.8989 102.189 89.7915C102.127 89.6838 102.096 89.5735 102.096 89.4605C102.096 89.3682 102.119 89.2986 102.165 89.2518C102.212 89.2053 102.275 89.1828 102.355 89.1844C102.435 89.1863 102.526 89.214 102.628 89.2677C102.771 89.3432 102.884 89.438 102.965 89.5521C103.048 89.6665 103.106 89.791 103.141 89.9257ZM103.502 91.9996V89.7496L103.717 89.8629V90.1228L103.743 90.1367C103.76 90.1169 103.782 90.0926 103.811 90.0638C103.841 90.0346 103.883 90.017 103.937 90.0111C103.993 90.0047 104.067 90.0263 104.162 90.076C104.284 90.1403 104.391 90.2313 104.484 90.3492C104.577 90.4671 104.649 90.603 104.702 90.757C104.754 90.9109 104.78 91.0737 104.78 91.2456C104.78 91.4189 104.754 91.5554 104.702 91.655C104.649 91.754 104.577 91.8139 104.485 91.8348C104.393 91.855 104.286 91.8333 104.165 91.7698C104.072 91.7207 103.998 91.6641 103.942 91.5998C103.886 91.5348 103.843 91.472 103.813 91.4114C103.783 91.35 103.76 91.3001 103.743 91.2617L103.724 91.2518V92.1168L103.502 91.9996ZM103.721 90.683C103.721 90.8066 103.737 90.9241 103.769 91.0354C103.801 91.1461 103.847 91.2442 103.909 91.33C103.971 91.415 104.046 91.481 104.135 91.528C104.228 91.577 104.306 91.5902 104.368 91.5676C104.431 91.5446 104.478 91.4942 104.509 91.4163C104.541 91.338 104.557 91.2406 104.557 91.1241C104.557 91.0091 104.542 90.8971 104.51 90.7882C104.48 90.6789 104.433 90.5808 104.37 90.4937C104.308 90.4062 104.229 90.3376 104.135 90.288C104.045 90.2403 103.969 90.2261 103.907 90.2455C103.846 90.2642 103.799 90.3114 103.768 90.3872C103.736 90.4623 103.721 90.5609 103.721 90.683ZM105.726 92.5924C105.587 92.5188 105.466 92.4206 105.365 92.2977C105.265 92.1744 105.187 92.0355 105.132 91.881C105.078 91.7261 105.051 91.5648 105.051 91.3972C105.051 91.2296 105.078 91.0961 105.132 90.9967C105.187 90.897 105.263 90.8369 105.36 90.8165C105.458 90.7957 105.573 90.8198 105.703 90.8887C105.779 90.9284 105.853 90.9819 105.927 91.049C106 91.1162 106.067 91.1976 106.128 91.2933C106.188 91.3883 106.236 91.4975 106.272 91.6207C106.308 91.744 106.325 91.882 106.325 92.0347V92.1412L105.21 91.5531V91.3358L106.099 91.8047C106.099 91.7124 106.083 91.6214 106.05 91.5317C106.018 91.4424 105.972 91.361 105.913 91.2877C105.854 91.2146 105.784 91.1569 105.703 91.1145C105.615 91.0678 105.538 91.0523 105.474 91.0679C105.409 91.0831 105.36 91.1211 105.326 91.1817C105.291 91.2423 105.274 91.3177 105.274 91.4079V91.5528C105.274 91.6764 105.293 91.7911 105.33 91.8969C105.369 92.0023 105.422 92.0953 105.49 92.1758C105.557 92.2556 105.636 92.3192 105.726 92.3665C105.785 92.3973 105.837 92.4159 105.884 92.4223C105.932 92.4283 105.973 92.4215 106.008 92.4021C106.042 92.382 106.069 92.3485 106.088 92.3016L106.303 92.483C106.28 92.5535 106.242 92.6059 106.189 92.6402C106.135 92.6739 106.069 92.6874 105.991 92.6808C105.912 92.6735 105.824 92.644 105.726 92.5924ZM107.252 93.3966C107.116 93.3251 106.999 93.2272 106.901 93.1031C106.803 92.979 106.728 92.8395 106.675 92.6846C106.622 92.5296 106.596 92.3705 106.596 92.2071C106.596 92.0409 106.623 91.9085 106.677 91.8098C106.732 91.7108 106.808 91.6511 106.905 91.6307C107.003 91.6099 107.117 91.634 107.248 91.7028C107.35 91.7565 107.442 91.8261 107.523 91.9118C107.605 91.9975 107.672 92.0924 107.724 92.1966C107.776 92.3008 107.809 92.4073 107.821 92.5162L107.599 92.399C107.582 92.3155 107.544 92.2296 107.486 92.1412C107.428 92.0525 107.35 91.9823 107.252 91.9307C107.165 91.885 107.089 91.8705 107.024 91.8872C106.959 91.9035 106.909 91.9482 106.872 92.0213C106.836 92.0941 106.818 92.1922 106.818 92.3158C106.818 92.4422 106.836 92.5616 106.871 92.6739C106.907 92.7865 106.957 92.8858 107.022 92.9718C107.087 93.0581 107.164 93.1244 107.252 93.1707C107.31 93.2012 107.362 93.2175 107.409 93.2196C107.456 93.2217 107.496 93.2101 107.529 93.1847C107.562 93.1593 107.585 93.1204 107.599 93.068L107.821 93.1853C107.809 93.2752 107.777 93.3458 107.728 93.3971C107.679 93.448 107.614 93.4748 107.533 93.4775C107.452 93.4799 107.359 93.4529 107.252 93.3966ZM108.776 92.5294V92.7424L108.026 92.347V92.134L108.776 92.5294ZM108.244 91.8572L108.467 91.9744V93.5341C108.467 93.6051 108.476 93.6631 108.494 93.7083C108.513 93.753 108.537 93.789 108.566 93.8163C108.595 93.8433 108.626 93.8653 108.659 93.8825C108.683 93.8955 108.704 93.9046 108.719 93.9101C108.735 93.9148 108.748 93.9186 108.757 93.9214L108.802 94.1711C108.787 94.1696 108.766 94.1649 108.739 94.157C108.712 94.1499 108.678 94.1354 108.636 94.1135C108.574 94.0804 108.512 94.0327 108.452 93.9704C108.392 93.9084 108.342 93.8357 108.303 93.7523C108.264 93.6693 108.244 93.5802 108.244 93.485V91.8572Z" fill="black"/>
<path d="M96.031 80.8047V94.2537H96.3325V80.8047" fill="#8A939A"/>
<path d="M136.993 141.011L81.9463 111.993C80.65 111.31 79.5991 109.477 79.5991 107.899V93.8849C79.5991 92.3072 80.65 91.5817 81.9463 92.2649L136.993 121.282C138.289 121.965 139.339 123.798 139.339 125.376V139.39C139.339 140.969 138.289 141.694 136.993 141.011Z" fill="#D5EFE2"/>
<path d="M83.0375 107.226L82.8579 107.184L83.3775 105.852L83.5545 105.894L84.0741 107.472L83.8945 107.429L83.4715 106.105L83.4605 106.102L83.0375 107.226ZM83.1039 106.674L83.8281 106.846V107.002L83.1039 106.83V106.674ZM84.2946 106.07L84.4992 106.118L84.9801 107.44L84.9967 107.444L85.4777 106.35L85.6823 106.399V107.853L85.5219 107.815V106.71L85.5081 106.707L85.0658 107.707L84.911 107.67L84.4688 106.46L84.4549 106.457V107.562L84.2946 107.524V106.07Z" fill="black"/>
<path d="M135.745 131.049C135.681 130.902 135.6 130.749 135.51 130.584L135.509 130.582C135.411 130.405 135.312 130.13 135.218 129.819C135.073 129.348 134.934 128.799 134.699 128.269C134.58 128.005 134.435 127.74 134.242 127.499C134.049 127.257 133.808 127.045 133.539 126.904C133.176 126.709 132.87 126.704 132.653 126.816C132.326 126.982 132.154 127.357 132 127.707C131.851 128.059 131.713 128.393 131.563 128.501L131.562 128.502C131.472 128.573 131.392 128.641 131.328 128.72C131.265 128.8 131.21 128.888 131.208 129.043C131.203 129.181 131.278 129.377 131.384 129.517C131.543 129.73 131.731 129.88 131.998 130.065C132.221 130.218 132.507 130.389 132.864 130.588C132.967 130.927 133.229 131.269 133.539 131.433C133.847 131.595 134.107 131.528 134.209 131.296C134.705 131.543 135.063 131.697 135.318 131.766C135.464 131.803 135.584 131.819 135.689 131.786C135.795 131.758 135.87 131.642 135.866 131.499C135.864 131.343 135.808 131.196 135.745 131.049ZM135.013 131.11C134.832 131.044 134.58 130.932 134.257 130.773V130.77L133.989 130.639L133.985 130.638C133.851 130.572 133.701 130.493 133.539 130.408C133.371 130.319 133.221 130.24 133.087 130.164L133.084 130.163L132.816 130.011V130.013C132.372 129.764 132.06 129.565 131.884 129.425C131.807 129.365 131.766 129.323 131.743 129.297C131.751 129.28 131.764 129.256 131.787 129.231C131.829 129.182 131.894 129.124 131.973 129.062L131.972 129.063C132.137 128.934 132.242 128.725 132.344 128.501C132.494 128.165 132.632 127.787 132.82 127.568C132.913 127.458 133.016 127.388 133.129 127.367C133.243 127.346 133.366 127.365 133.539 127.455C133.765 127.578 133.909 127.729 134.054 127.949C134.267 128.276 134.434 128.762 134.58 129.26C134.732 129.761 134.858 130.262 135.102 130.714L135.101 130.711C135.186 130.868 135.255 131.002 135.296 131.096L135.334 131.193C135.287 131.19 135.181 131.174 135.013 131.11Z" fill="black"/>
<path d="M99.8907 111.686V109.504L100.124 109.627V111.575L101.022 112.047V112.282L99.8907 111.686ZM102.266 112.268V111.301L102.488 111.418V113.055L102.266 112.937V112.66L102.251 112.653C102.217 112.718 102.164 112.761 102.092 112.781C102.021 112.801 101.93 112.782 101.821 112.724C101.73 112.677 101.65 112.612 101.58 112.53C101.509 112.448 101.454 112.35 101.414 112.238C101.373 112.125 101.353 111.999 101.353 111.86V110.82L101.576 110.938V111.96C101.576 112.08 101.605 112.19 101.664 112.292C101.724 112.395 101.8 112.471 101.892 112.519C101.948 112.548 102.004 112.562 102.061 112.56C102.119 112.559 102.167 112.535 102.206 112.49C102.246 112.444 102.266 112.371 102.266 112.268ZM103.118 112.402V113.387L102.895 113.269V111.633L103.11 111.746V112.002L103.129 112.012C103.163 111.947 103.215 111.907 103.284 111.893C103.353 111.878 103.442 111.9 103.551 111.957C103.649 112.009 103.735 112.077 103.809 112.161C103.882 112.245 103.939 112.343 103.98 112.456C104.021 112.569 104.041 112.694 104.041 112.834V113.873L103.819 113.756V112.734C103.819 112.605 103.79 112.489 103.73 112.386C103.671 112.283 103.59 112.204 103.487 112.15C103.416 112.112 103.353 112.096 103.297 112.101C103.242 112.107 103.198 112.135 103.166 112.185C103.134 112.235 103.118 112.307 103.118 112.402ZM105.036 114.432C104.9 114.36 104.783 114.262 104.685 114.138C104.587 114.014 104.512 113.875 104.459 113.72C104.406 113.565 104.38 113.406 104.38 113.242C104.38 113.076 104.407 112.944 104.461 112.845C104.516 112.746 104.592 112.686 104.689 112.666C104.787 112.645 104.902 112.669 105.032 112.738C105.134 112.792 105.226 112.861 105.307 112.947C105.389 113.033 105.456 113.128 105.508 113.232C105.56 113.336 105.593 113.442 105.605 113.551L105.383 113.434C105.366 113.351 105.328 113.265 105.27 113.176C105.212 113.088 105.134 113.018 105.036 112.966C104.949 112.92 104.873 112.906 104.808 112.922C104.743 112.939 104.693 112.983 104.656 113.056C104.62 113.129 104.602 113.227 104.602 113.351C104.602 113.477 104.62 113.597 104.655 113.709C104.691 113.822 104.741 113.921 104.806 114.007C104.871 114.093 104.948 114.16 105.036 114.206C105.094 114.236 105.146 114.253 105.193 114.255C105.24 114.257 105.28 114.245 105.313 114.22C105.346 114.194 105.369 114.156 105.383 114.103L105.605 114.22C105.593 114.31 105.562 114.381 105.512 114.432C105.463 114.483 105.398 114.51 105.317 114.513C105.236 114.515 105.143 114.488 105.036 114.432ZM106.153 114.002V114.986L105.93 114.869V112.687L106.153 112.804V113.606L106.172 113.616C106.206 113.549 106.256 113.509 106.324 113.495C106.393 113.48 106.484 113.503 106.598 113.563C106.696 113.615 106.783 113.683 106.857 113.767C106.931 113.85 106.988 113.948 107.029 114.061C107.071 114.174 107.091 114.301 107.091 114.441V115.481L106.869 115.364V114.341C106.869 114.211 106.839 114.095 106.779 113.992C106.72 113.89 106.638 113.81 106.534 113.755C106.461 113.717 106.395 113.7 106.337 113.704C106.28 113.709 106.235 113.736 106.202 113.785C106.169 113.834 106.153 113.907 106.153 114.002Z" fill="black"/>
<path d="M96.031 103V116.45H96.3325V103" fill="#8A939A"/>
<path d="M144.238 105.841L62.8601 62.9434C60.944 61.9333 59.3909 59.2232 59.3909 56.8908V36.1732C59.3909 33.8408 60.944 32.7684 62.8601 33.7786L144.238 76.6759C146.154 77.686 147.707 80.3955 147.707 82.7285V103.446C147.707 105.779 146.154 106.851 144.238 105.841Z" fill="url(#paint14_linear_6434_32089)"/>
<path d="M65.8776 47.6639V52.0275L65.4101 51.7811V47.9714L65.3875 47.9595L64.445 48.1702V47.6332L65.4101 47.4175L65.8776 47.6639ZM68.2469 53.336C67.9629 53.1863 67.721 52.9714 67.5212 52.6914C67.3214 52.4099 67.1687 52.0745 67.0632 51.6851C66.9576 51.2942 66.9048 50.8616 66.9048 50.3871C66.9048 49.9155 66.9576 49.5406 67.0632 49.2625C67.17 48.9835 67.3233 48.8087 67.5231 48.7378C67.7241 48.6663 67.9654 48.7046 68.2469 48.853C68.5283 49.0014 68.769 49.217 68.9688 49.4998C69.1698 49.782 69.3231 50.1184 69.4287 50.5093C69.5355 50.8994 69.5889 51.3303 69.5889 51.8018C69.5889 52.2763 69.5361 52.6533 69.4306 52.9329C69.325 53.2111 69.1723 53.3856 68.9725 53.4564C68.7727 53.5258 68.5309 53.4856 68.2469 53.336ZM68.2469 52.8672C68.5283 53.0156 68.747 52.9774 68.9028 52.7527C69.0586 52.528 69.1365 52.1316 69.1365 51.5634C69.1365 51.1856 69.1007 50.845 69.0291 50.5416C68.9587 50.2389 68.8569 49.9828 68.7237 49.7734C68.5918 49.5646 68.4328 49.4113 68.2469 49.3132C67.9679 49.1662 67.7499 49.2068 67.5928 49.4351C67.4357 49.662 67.3572 50.0588 67.3572 50.6256C67.3572 51.0034 67.3924 51.343 67.4628 51.6443C67.5331 51.9456 67.6343 52.1999 67.7662 52.4072C67.8994 52.6152 68.0596 52.7685 68.2469 52.8672ZM70.5021 54.4991C70.4091 54.4501 70.3293 54.3704 70.2627 54.26C70.1961 54.1496 70.1628 54.0419 70.1628 53.9367C70.1628 53.8316 70.1961 53.759 70.2627 53.7188C70.3293 53.6786 70.4091 53.683 70.5021 53.7321C70.5951 53.7811 70.6749 53.8608 70.7415 53.9712C70.8081 54.0815 70.8414 54.1893 70.8414 54.2944C70.8414 54.364 70.8257 54.4196 70.7943 54.4613C70.7641 54.5037 70.7233 54.529 70.6718 54.5374C70.6215 54.545 70.565 54.5322 70.5021 54.4991ZM72.7565 55.7129C72.4725 55.5632 72.2306 55.3483 72.0308 55.0683C71.831 54.7869 71.6783 54.4514 71.5727 54.062C71.4672 53.6711 71.4144 53.2385 71.4144 52.764C71.4144 52.2924 71.4672 51.9176 71.5727 51.6394C71.6796 51.3605 71.8329 51.1856 72.0327 51.1148C72.2337 51.0432 72.475 51.0816 72.7565 51.2299C73.0379 51.3783 73.2786 51.5939 73.4784 51.8768C73.6794 52.1589 73.8327 52.4954 73.9383 52.8862C74.0451 53.2763 74.0985 53.7072 74.0985 54.1788C74.0985 54.6532 74.0457 55.0302 73.9402 55.3098C73.8346 55.588 73.6819 55.7625 73.4821 55.8333C73.2823 55.9027 73.0404 55.8626 72.7565 55.7129ZM72.7565 55.2441C73.0379 55.3925 73.2566 55.3543 73.4124 55.1296C73.5682 54.9049 73.6461 54.5085 73.6461 53.9403C73.6461 53.5625 73.6103 53.2219 73.5387 52.9185C73.4683 52.6158 73.3665 52.3597 73.2333 52.1503C73.1014 51.9416 72.9424 51.7882 72.7565 51.6901C72.4775 51.5431 72.2595 51.5837 72.1024 51.812C71.9453 52.0389 71.8668 52.4357 71.8668 53.0025C71.8668 53.3803 71.902 53.7199 71.9723 54.0212C72.0427 54.3225 72.1439 54.5768 72.2758 54.7841C72.409 54.9921 72.5692 55.1454 72.7565 55.2441ZM76.0738 57.4614C75.7899 57.3117 75.548 57.0969 75.3482 56.8168C75.1484 56.5354 74.9957 56.2 74.8901 55.8105C74.7846 55.4196 74.7318 54.987 74.7318 54.5126C74.7318 54.041 74.7846 53.6661 74.8901 53.3879C74.997 53.109 75.1503 52.9341 75.3501 52.8633C75.5511 52.7917 75.7924 52.8301 76.0738 52.9785C76.3553 53.1268 76.596 53.3424 76.7958 53.6253C76.9968 53.9074 77.1501 54.2439 77.2557 54.6347C77.3625 55.0249 77.4159 55.4557 77.4159 55.9273C77.4159 56.4017 77.3631 56.7787 77.2576 57.0583C77.152 57.3365 76.9993 57.511 76.7995 57.5818C76.5997 57.6512 76.3578 57.6111 76.0738 57.4614ZM76.0738 56.9927C76.3553 57.141 76.574 57.1029 76.7298 56.8782C76.8856 56.6535 76.9635 56.257 76.9635 55.6889C76.9635 55.311 76.9277 54.9704 76.8561 54.667C76.7857 54.3643 76.6839 54.1083 76.5507 53.8988C76.4188 53.6901 76.2598 53.5367 76.0738 53.4387C75.7949 53.2916 75.5769 53.3323 75.4198 53.5606C75.2627 53.7874 75.1842 54.1842 75.1842 54.751C75.1842 55.1288 75.2194 55.4684 75.2897 55.7697C75.3601 56.071 75.4613 56.3253 75.5932 56.5326C75.7264 56.7406 75.8866 56.894 76.0738 56.9927Z" fill="white"/>
<path d="M82.5007 99.203V101.385L82.2669 101.262V99.3568L82.2556 99.3509L81.7844 99.4562V99.1877L82.2669 99.0798L82.5007 99.203ZM83.6853 102.039C83.5433 101.964 83.4224 101.857 83.3225 101.717C83.2226 101.576 83.1462 101.408 83.0935 101.214C83.0407 101.018 83.0143 100.802 83.0143 100.565C83.0143 100.329 83.0407 100.141 83.0935 100.002C83.1469 99.8629 83.2235 99.7754 83.3234 99.74C83.424 99.7042 83.5446 99.7234 83.6853 99.7976C83.8261 99.8718 83.9464 99.9796 84.0463 100.121C84.1468 100.262 84.2235 100.43 84.2762 100.626C84.3296 100.821 84.3563 101.036 84.3563 101.272C84.3563 101.509 84.33 101.698 84.2772 101.838C84.2244 101.977 84.1481 102.064 84.0482 102.099C83.9483 102.134 83.8273 102.114 83.6853 102.039ZM83.6853 101.805C83.8261 101.879 83.9354 101.86 84.0133 101.747C84.0912 101.635 84.1302 101.437 84.1302 101.153C84.1302 100.964 84.1122 100.794 84.0764 100.642C84.0413 100.491 83.9904 100.362 83.9238 100.258C83.8578 100.153 83.7783 100.077 83.6853 100.028C83.5458 99.9542 83.4368 99.9745 83.3583 100.089C83.2798 100.202 83.2405 100.4 83.2405 100.684C83.2405 100.873 83.2581 101.043 83.2933 101.193C83.3284 101.344 83.379 101.471 83.445 101.575C83.5116 101.679 83.5917 101.755 83.6853 101.805ZM84.813 102.621C84.7665 102.596 84.7266 102.556 84.6933 102.501C84.66 102.446 84.6433 102.392 84.6433 102.339C84.6433 102.287 84.66 102.251 84.6933 102.23C84.7266 102.21 84.7665 102.213 84.813 102.237C84.8594 102.262 84.8993 102.301 84.9326 102.357C84.9659 102.412 84.9826 102.466 84.9826 102.518C84.9826 102.553 84.9747 102.581 84.959 102.602C84.944 102.623 84.9235 102.636 84.8978 102.64C84.8726 102.644 84.8444 102.637 84.813 102.621ZM85.9401 103.228C85.7981 103.153 85.6772 103.045 85.5773 102.905C85.4774 102.765 85.401 102.597 85.3483 102.402C85.2955 102.207 85.2691 101.99 85.2691 101.753C85.2691 101.517 85.2955 101.33 85.3483 101.191C85.4017 101.051 85.4783 100.964 85.5782 100.928C85.6787 100.893 85.7994 100.912 85.9401 100.986C86.0809 101.06 86.2012 101.168 86.3011 101.309C86.4016 101.451 86.4782 101.619 86.531 101.814C86.5844 102.009 86.6111 102.225 86.6111 102.46C86.6111 102.698 86.5847 102.886 86.532 103.026C86.4792 103.165 86.4029 103.252 86.303 103.288C86.2031 103.322 86.0821 103.302 85.9401 103.228ZM85.9401 102.993C86.0809 103.067 86.1902 103.048 86.2681 102.936C86.346 102.824 86.3849 102.625 86.3849 102.341C86.3849 102.152 86.367 101.982 86.3312 101.83C86.296 101.679 86.2452 101.551 86.1786 101.446C86.1126 101.342 86.0331 101.265 85.9401 101.216C85.8006 101.143 85.6916 101.163 85.6131 101.277C85.5346 101.391 85.4953 101.589 85.4953 101.872C85.4953 102.061 85.5129 102.231 85.5481 102.382C85.5832 102.532 85.6338 102.659 85.6998 102.763C85.7664 102.867 85.8465 102.944 85.9401 102.993ZM87.5988 104.102C87.4568 104.027 87.3359 103.92 87.236 103.78C87.1361 103.639 87.0597 103.471 87.007 103.276C86.9542 103.081 86.9278 102.865 86.9278 102.627C86.9278 102.392 86.9542 102.204 87.007 102.065C87.0604 101.926 87.137 101.838 87.2369 101.803C87.3374 101.767 87.4581 101.786 87.5988 101.86C87.7396 101.935 87.8599 102.042 87.9598 102.184C88.0603 102.325 88.1369 102.493 88.1897 102.688C88.2431 102.884 88.2698 103.099 88.2698 103.335C88.2698 103.572 88.2434 103.76 88.1907 103.9C88.1379 104.039 88.0616 104.127 87.9617 104.162C87.8618 104.197 87.7408 104.177 87.5988 104.102ZM87.5988 103.867C87.7396 103.942 87.8489 103.923 87.9268 103.81C88.0047 103.698 88.0436 103.5 88.0436 103.216C88.0436 103.027 88.0257 102.856 87.9899 102.705C87.9547 102.553 87.9039 102.425 87.8373 102.321C87.7713 102.216 87.6918 102.139 87.5988 102.09C87.4593 102.017 87.3503 102.037 87.2718 102.151C87.1932 102.265 87.154 102.463 87.154 102.747C87.154 102.936 87.1716 103.105 87.2068 103.256C87.2419 103.407 87.2925 103.534 87.3585 103.637C87.4251 103.741 87.5052 103.818 87.5988 103.867Z" fill="black"/>
<path d="M64.4834 59.398L64.048 59.257L65.3737 56.029L65.8024 56.1679L66.9952 60.2115L66.5598 60.0705L65.591 56.678L65.5642 56.6693L64.4834 59.398ZM64.6701 58.0298L66.425 58.5982L66.4179 58.9887L64.6629 58.4204L64.6701 58.0298ZM67.5959 56.7487L68.0916 56.9092L69.2019 60.3047L69.2421 60.3177L70.4628 57.6772L70.9584 57.8377L70.892 61.4735L70.5035 61.3477L70.554 58.5853L70.5205 58.5745L69.3983 60.9897L69.0231 60.8682L68.0019 57.7588L67.9684 57.748L67.9179 60.5103L67.5294 60.3845L67.5959 56.7487Z" fill="white"/>
<path d="M64.3546 40.5351L64.6335 40.6822L65.2895 42.839L65.3121 42.8509L65.968 41.3855L66.247 41.5326V43.7144L66.0284 43.5992V41.9415L66.0095 41.9316L65.4063 43.2713L65.1952 43.16L64.5921 41.1845L64.5732 41.1745V42.8322L64.3546 42.7169V40.5351ZM67.2736 44.2896C67.1429 44.2207 67.0282 44.1251 66.9296 44.0028C66.8316 43.8808 66.7549 43.742 66.6996 43.5865C66.6449 43.4313 66.6176 43.2691 66.6176 43.1001C66.6176 42.9296 66.6449 42.7952 66.6996 42.6969C66.7549 42.5989 66.8316 42.5406 66.9296 42.522C67.0282 42.5036 67.1429 42.5289 67.2736 42.5978C67.4042 42.6667 67.5186 42.7621 67.6166 42.8841C67.7152 43.0064 67.7919 43.1455 67.8466 43.3015C67.9019 43.4577 67.9295 43.6211 67.9295 43.7916C67.9295 43.9606 67.9019 44.0937 67.8466 44.191C67.7919 44.2886 67.7152 44.3466 67.6166 44.3649C67.5186 44.3836 67.4042 44.3585 67.2736 44.2896ZM67.2736 44.0637C67.3728 44.116 67.4545 44.1303 67.5186 44.1066C67.5827 44.0828 67.6301 44.0322 67.6609 43.9547C67.6917 43.8771 67.7071 43.7837 67.7071 43.6743C67.7071 43.5649 67.6917 43.4549 67.6609 43.3442C67.6301 43.2335 67.5827 43.1322 67.5186 43.0402C67.4545 42.9482 67.3728 42.876 67.2736 42.8237C67.1743 42.7713 67.0926 42.7574 67.0285 42.7819C66.9644 42.8063 66.917 42.8577 66.8862 42.9359C66.8554 43.0141 66.84 43.1079 66.84 43.2173C66.84 43.3267 66.8554 43.4364 66.8862 43.5463C66.917 43.6563 66.9644 43.757 67.0285 43.8483C67.0926 43.9396 67.1743 44.0114 67.2736 44.0637ZM68.4914 43.913V44.8974L68.269 44.7802V43.1438L68.4839 43.2571V43.5127L68.5027 43.5227C68.5367 43.4575 68.5882 43.4179 68.6573 43.4039C68.7264 43.3891 68.8156 43.4106 68.925 43.4682C69.023 43.5199 69.1087 43.5878 69.1822 43.672C69.2557 43.7555 69.3129 43.8538 69.3538 43.967C69.3946 44.0794 69.415 44.2052 69.415 44.3444V45.3842L69.1926 45.267V44.2442C69.1926 44.1157 69.1631 44 69.104 43.8971C69.045 43.7936 68.9639 43.7146 68.8609 43.6603C68.7899 43.6229 68.7264 43.6068 68.6705 43.6122C68.6152 43.6178 68.5715 43.6456 68.5395 43.6955C68.5074 43.7453 68.4914 43.8178 68.4914 43.913ZM70.3681 45.9206C70.2474 45.857 70.1409 45.7665 70.0486 45.6489C69.9562 45.5306 69.884 45.3945 69.8318 45.2406C69.7797 45.086 69.7536 44.922 69.7536 44.7487C69.7536 44.5769 69.7797 44.4415 69.8318 44.3425C69.884 44.2436 69.9565 44.1842 70.0495 44.1643C70.1425 44.1444 70.2499 44.1666 70.3718 44.2308C70.4661 44.2805 70.5405 44.3375 70.5952 44.4018C70.6505 44.4658 70.6926 44.5277 70.7215 44.5877C70.751 44.6473 70.7739 44.6956 70.7903 44.7327L70.8091 44.7426V43.9372L71.0315 44.0544V46.2362L70.8167 46.123V45.8716L70.7903 45.8577C70.7739 45.8789 70.7507 45.9043 70.7205 45.9338C70.6904 45.9627 70.6473 45.9801 70.5914 45.9861C70.5355 45.9915 70.4611 45.9696 70.3681 45.9206ZM70.3982 45.7107C70.4874 45.7577 70.5628 45.7712 70.6244 45.7511C70.686 45.7302 70.7328 45.6814 70.7648 45.6045C70.7969 45.527 70.8129 45.4264 70.8129 45.3028C70.8129 45.1807 70.7972 45.0655 70.7658 44.9573C70.7344 44.8484 70.6879 44.7522 70.6263 44.6686C70.5647 44.5843 70.4887 44.5183 70.3982 44.4706C70.304 44.4209 70.2254 44.4069 70.1626 44.4285C70.1004 44.4496 70.0536 44.4985 70.0222 44.575C69.9914 44.6511 69.976 44.7466 69.976 44.8617C69.976 44.9782 69.9917 45.0923 70.0231 45.204C70.0552 45.3154 70.1023 45.4155 70.1645 45.5044C70.2273 45.5929 70.3052 45.6617 70.3982 45.7107ZM71.8958 46.7301C71.804 46.6818 71.7208 46.6183 71.646 46.5399C71.5713 46.4607 71.5119 46.3722 71.4679 46.2745C71.4239 46.176 71.4019 46.0735 71.4019 45.967C71.4019 45.8732 71.4183 45.8058 71.4509 45.7648C71.4836 45.7231 71.5273 45.6999 71.5819 45.6954C71.6366 45.6908 71.6969 45.6977 71.7629 45.7162C71.8295 45.7342 71.8964 45.756 71.9636 45.7815C72.0516 45.8151 72.1229 45.8431 72.1776 45.8655C72.2328 45.8875 72.2731 45.897 72.2982 45.8939C72.3239 45.8912 72.3368 45.8695 72.3368 45.8291V45.8205C72.3368 45.7154 72.3114 45.6203 72.2605 45.5353C72.2102 45.4505 72.1339 45.3812 72.0315 45.3272C71.9253 45.2712 71.842 45.2536 71.7817 45.2744C71.7214 45.2952 71.679 45.3289 71.6545 45.3757L71.4434 45.1792C71.4811 45.0996 71.5314 45.0487 71.5942 45.0264C71.6576 45.0037 71.7268 45.0011 71.8015 45.0185C71.8769 45.0355 71.9511 45.0632 72.0239 45.1016C72.0704 45.1261 72.1238 45.1607 72.1842 45.2053C72.2451 45.2495 72.3038 45.3056 72.3604 45.3738C72.4176 45.4423 72.465 45.5252 72.5027 45.6225C72.5404 45.7197 72.5592 45.8334 72.5592 45.9633V47.0415L72.3368 46.9242V46.7026L72.3255 46.6967C72.3104 46.7242 72.2853 46.749 72.2501 46.7709C72.2149 46.7929 72.1681 46.8026 72.1097 46.8003C72.0513 46.7979 71.98 46.7745 71.8958 46.7301ZM71.9297 46.5221C72.0177 46.5685 72.0918 46.588 72.1521 46.5808C72.2131 46.5738 72.2589 46.5476 72.2897 46.502C72.3211 46.4568 72.3368 46.4001 72.3368 46.3319V46.1018C72.3274 46.1096 72.3067 46.1104 72.2746 46.1042C72.2432 46.0975 72.2068 46.0872 72.1653 46.0732C72.1245 46.0587 72.0846 46.0441 72.0456 46.0293C72.0073 46.014 71.9762 46.0019 71.9523 45.9929C71.8945 45.9709 71.8405 45.9563 71.7902 45.949C71.7406 45.9413 71.7004 45.9481 71.6696 45.9696C71.6394 45.9906 71.6243 46.0331 71.6243 46.097C71.6243 46.1843 71.6529 46.2655 71.7101 46.3403C71.7679 46.4148 71.8411 46.4754 71.9297 46.5221ZM73.0566 47.9173C73.0189 47.8974 72.9853 47.8761 72.9558 47.8534C72.9262 47.8315 72.9058 47.8143 72.8945 47.802L72.9511 47.6102C73.0051 47.6543 73.0528 47.6852 73.0943 47.7027C73.1358 47.7203 73.1725 47.7188 73.2046 47.698C73.2373 47.6783 73.2671 47.634 73.2941 47.5652L73.3356 47.4592L72.8003 45.5321L73.0415 45.6593L73.4411 47.1739L73.4562 47.1818L73.8558 46.0885L74.0971 46.2157L73.4826 47.7668C73.455 47.8367 73.4207 47.8886 73.3799 47.9225C73.339 47.9571 73.2916 47.9736 73.2376 47.9721C73.1842 47.971 73.1238 47.9527 73.0566 47.9173Z" fill="white"/>
<path d="M139.471 88.8671C139.413 88.7228 139.341 88.573 139.26 88.41L139.259 88.4078C139.171 88.235 139.083 87.9649 138.998 87.6591C138.869 87.198 138.744 86.6586 138.534 86.1394C138.428 85.8796 138.297 85.6205 138.124 85.383C137.952 85.1459 137.735 84.9376 137.494 84.7991C137.169 84.6088 136.895 84.6029 136.7 84.7125C136.407 84.8762 136.254 85.2438 136.115 85.5873C135.982 85.9333 135.858 86.2607 135.724 86.3671L135.723 86.3678C135.642 86.4376 135.57 86.5044 135.513 86.5819C135.457 86.6605 135.407 86.7474 135.405 86.8991C135.401 87.0343 135.469 87.2265 135.564 87.3642C135.705 87.5736 135.874 87.7205 136.113 87.9021C136.314 88.0523 136.569 88.2204 136.889 88.4155C136.982 88.7484 137.216 89.0834 137.494 89.2442C137.77 89.4035 138.003 89.3377 138.095 89.1105C138.539 89.3524 138.859 89.5044 139.088 89.5712C139.219 89.6081 139.326 89.6235 139.421 89.5913C139.516 89.5636 139.583 89.4496 139.579 89.3096C139.577 89.155 139.527 89.0107 139.471 88.8671ZM138.814 88.9263C138.653 88.8616 138.427 88.7513 138.137 88.5953V88.5923L137.897 88.4637L137.894 88.4619C137.773 88.3972 137.639 88.3197 137.494 88.2361C137.344 88.1495 137.21 88.072 137.089 87.9975L137.087 87.9956H137.086L136.846 87.8473V87.8491C136.448 87.6036 136.168 87.4092 136.011 87.2718C135.942 87.2126 135.905 87.172 135.884 87.1457C135.891 87.1285 135.903 87.1063 135.924 87.0807C135.961 87.0328 136.02 86.9765 136.091 86.9151L136.09 86.9159C136.237 86.7887 136.332 86.5841 136.423 86.3645C136.558 86.0342 136.681 85.664 136.849 85.4484C136.933 85.3403 137.025 85.2716 137.127 85.2508C137.229 85.2307 137.339 85.2493 137.494 85.3377C137.697 85.4576 137.826 85.6067 137.954 85.8215C138.146 86.1427 138.295 86.6199 138.426 87.1084C138.562 87.6003 138.675 88.0914 138.893 88.535L138.892 88.5328C138.969 88.6866 139.03 88.8178 139.067 88.9106L139.101 89.0056C139.06 89.0049 138.965 88.9895 138.814 88.9263Z" fill="white"/>
<path d="M92.0089 61.9447L91.6193 61.7394C91.5963 61.6006 91.556 61.4681 91.4984 61.3418C91.4418 61.2161 91.3727 61.0992 91.2911 60.9911C91.2104 60.8823 91.1209 60.7854 91.0225 60.7004C90.924 60.6153 90.8214 60.5447 90.7146 60.4884C90.5198 60.3857 90.3434 60.3483 90.1853 60.3763C90.0282 60.4047 89.903 60.5027 89.8098 60.6702C89.7177 60.8383 89.6716 61.0797 89.6716 61.3946C89.6716 61.7095 89.7177 61.9995 89.8098 62.2647C89.903 62.5304 90.0282 62.7603 90.1853 62.9544C90.3434 63.149 90.5198 63.2976 90.7146 63.4003C90.8214 63.4566 90.924 63.4941 91.0225 63.5129C91.1209 63.5316 91.2104 63.5297 91.2911 63.5071C91.3727 63.4838 91.4418 63.4392 91.4984 63.3731C91.556 63.3064 91.5963 63.2164 91.6193 63.103L92.0089 63.3083C91.9796 63.4787 91.9262 63.6169 91.8487 63.7228C91.7712 63.8288 91.6748 63.9029 91.5596 63.9451C91.4445 63.9862 91.3151 63.9956 91.1717 63.9732C91.0293 63.9515 90.8769 63.8978 90.7146 63.8122C90.4402 63.6676 90.1962 63.4633 89.9826 63.1992C89.769 62.935 89.6009 62.631 89.4784 62.2871C89.3559 61.9432 89.2946 61.5794 89.2946 61.1959C89.2946 60.8124 89.3559 60.5132 89.4784 60.2985C89.6009 60.0837 89.769 59.9568 89.9826 59.9179C90.1962 59.879 90.4402 59.9318 90.7146 60.0764C90.8769 60.162 91.0293 60.2689 91.1717 60.3973C91.3151 60.5261 91.4445 60.6724 91.5596 60.8361C91.6748 60.9986 91.7712 61.1737 91.8487 61.3613C91.9262 61.5478 91.9796 61.7422 92.0089 61.9447ZM93.5682 65.3234C93.3504 65.2086 93.1593 65.0493 92.9949 64.8455C92.8316 64.6422 92.7038 64.4109 92.6117 64.1516C92.5205 63.8929 92.475 63.6227 92.475 63.341C92.475 63.0569 92.5205 62.8329 92.6117 62.669C92.7038 62.5057 92.8316 62.4085 92.9949 62.3774C93.1593 62.3469 93.3504 62.389 93.5682 62.5038C93.786 62.6186 93.9766 62.7777 94.14 62.981C94.3044 63.1848 94.4321 63.4167 94.5232 63.6766C94.6154 63.937 94.6615 64.2093 94.6615 64.4934C94.6615 64.7751 94.6154 64.997 94.5232 65.1592C94.4321 65.3219 94.3044 65.4185 94.14 65.449C93.9766 65.4801 93.786 65.4382 93.5682 65.3234ZM93.5682 64.947C93.7337 65.0342 93.8698 65.058 93.9766 65.0184C94.0834 64.9789 94.1625 64.8945 94.2138 64.7653C94.2651 64.6361 94.2908 64.4803 94.2908 64.298C94.2908 64.1157 94.2651 63.9323 94.2138 63.7479C94.1625 63.5634 94.0834 63.3945 93.9766 63.2411C93.8698 63.0877 93.7337 62.9675 93.5682 62.8802C93.4028 62.793 93.2666 62.7698 93.1598 62.8106C93.053 62.8514 92.974 62.9369 92.9227 63.0673C92.8713 63.1977 92.8457 63.354 92.8457 63.5363C92.8457 63.7186 92.8713 63.9014 92.9227 64.0847C92.974 64.268 93.053 64.4358 93.1598 64.5879C93.2666 64.7401 93.4028 64.8598 93.5682 64.947ZM95.598 64.6958V66.3365L95.2273 66.1411V63.4138L95.5854 63.6026V64.0287L95.6169 64.0453C95.6734 63.9366 95.7593 63.8706 95.8745 63.8472C95.9897 63.8227 96.1383 63.8585 96.3206 63.9545C96.4839 64.0406 96.6268 64.1538 96.7494 64.2942C96.8719 64.4333 96.9672 64.5972 97.0352 64.7858C97.1033 64.9732 97.1373 65.1829 97.1373 65.4149V67.1478L96.7666 66.9524V65.2479C96.7666 65.0336 96.7174 64.8408 96.619 64.6694C96.5206 64.4967 96.3855 64.3652 96.2137 64.2746C96.0954 64.2123 95.9897 64.1855 95.8965 64.1944C95.8043 64.2038 95.7315 64.2501 95.6781 64.3332C95.6247 64.4164 95.598 64.5372 95.598 64.6958ZM98.8891 65.3439V65.699L97.5885 65.0135V64.6584L98.8891 65.3439ZM97.9781 67.591V64.4873C97.9781 64.331 98.0105 64.2179 98.0755 64.148C98.1404 64.078 98.2247 64.0443 98.3284 64.0469C98.432 64.0494 98.5414 64.0811 98.6566 64.1418C98.7477 64.1898 98.8221 64.2373 98.8797 64.2842C98.9373 64.3311 98.9802 64.3692 99.0085 64.3983L98.9017 64.7042C98.8828 64.6871 98.8566 64.6645 98.8231 64.6361C98.7907 64.6084 98.7477 64.5804 98.6943 64.5523C98.5718 64.4877 98.4833 64.476 98.4289 64.5171C98.3755 64.5588 98.3488 64.6471 98.3488 64.7821V67.7863L97.9781 67.591ZM100.321 68.8826C100.088 68.7601 99.8878 68.5964 99.7192 68.3915C99.5517 68.186 99.4224 67.9545 99.3313 67.6969C99.2412 67.4388 99.1962 67.17 99.1962 66.8907C99.1962 66.6113 99.2412 66.3888 99.3313 66.2232C99.4224 66.057 99.5491 65.9569 99.7114 65.9229C99.8747 65.8882 100.065 65.9283 100.283 66.0431C100.409 66.1093 100.533 66.1984 100.655 66.3104C100.778 66.4223 100.889 66.558 100.99 66.7175C101.09 66.8759 101.171 67.0578 101.23 67.2632C101.29 67.4687 101.32 67.6987 101.32 67.9532V68.1307L99.4601 67.1505V66.7883L100.943 67.5698C100.943 67.4159 100.916 67.2643 100.861 67.1148C100.808 66.9659 100.731 66.8304 100.632 66.7081C100.533 66.5864 100.417 66.4902 100.283 66.4195C100.135 66.3417 100.008 66.3158 99.8999 66.3418C99.7931 66.3672 99.7109 66.4304 99.6533 66.5314C99.5957 66.6325 99.5669 66.7582 99.5669 66.9085V67.15C99.5669 67.3559 99.5983 67.5471 99.6611 67.7234C99.725 67.8991 99.8135 68.0541 99.9266 68.1883C100.04 68.3213 100.171 68.4272 100.321 68.5062C100.418 68.5575 100.506 68.5885 100.585 68.5991C100.664 68.6091 100.733 68.5979 100.79 68.5655C100.848 68.5319 100.893 68.4761 100.924 68.3979L101.282 68.7003C101.244 68.8178 101.181 68.9051 101.092 68.9624C101.003 69.0185 100.893 69.041 100.762 69.03C100.631 69.0178 100.484 68.9687 100.321 68.8826ZM101.884 69.6495V66.9223L102.242 67.111V67.523L102.267 67.5362C102.311 67.4244 102.391 67.3569 102.506 67.3336C102.621 67.3102 102.751 67.3367 102.895 67.4128C102.922 67.4272 102.957 67.4457 102.997 67.4684C103.038 67.4911 103.069 67.5092 103.09 67.5226V67.9487C103.077 67.9385 103.049 67.918 103.004 67.8872C102.96 67.8557 102.913 67.827 102.864 67.8011C102.747 67.7393 102.642 67.7119 102.55 67.719C102.459 67.7254 102.386 67.7631 102.333 67.832C102.281 67.9003 102.254 67.996 102.254 68.1191V69.8449L101.884 69.6495ZM104.468 71.0683C104.235 70.9457 104.035 70.782 103.866 70.5772C103.698 70.3717 103.569 70.1401 103.478 69.8826C103.388 69.6244 103.343 69.3557 103.343 69.0763C103.343 68.797 103.388 68.5745 103.478 68.4089C103.569 68.2427 103.696 68.1425 103.858 68.1085C104.021 68.0739 104.212 68.114 104.43 68.2288C104.556 68.295 104.68 68.3841 104.802 68.496C104.925 68.6079 105.036 68.7437 105.137 68.9032C105.237 69.0615 105.317 69.2434 105.377 69.4489C105.437 69.6544 105.467 69.8843 105.467 70.1388V70.3164L103.607 69.3362V68.9739L105.09 69.7555C105.09 69.6016 105.062 69.4499 105.008 69.3005C104.955 69.1516 104.878 69.016 104.779 68.8938C104.68 68.772 104.564 68.6759 104.43 68.6052C104.282 68.5274 104.154 68.5015 104.047 68.5275C103.94 68.5529 103.858 68.6161 103.8 68.7171C103.742 68.8181 103.714 68.9438 103.714 69.0942V69.3356C103.714 69.5416 103.745 69.7328 103.808 69.9091C103.872 70.0848 103.96 70.2398 104.073 70.3739C104.186 70.5069 104.318 70.6129 104.468 70.6918C104.565 70.7432 104.653 70.7741 104.731 70.7848C104.811 70.7947 104.88 70.7835 104.937 70.7512C104.995 70.7176 105.039 70.6618 105.071 70.5836L105.429 70.886C105.391 71.0035 105.328 71.0908 105.239 71.1481C105.15 71.2041 105.04 71.2267 104.909 71.2157C104.778 71.2035 104.631 71.1544 104.468 71.0683ZM106.401 70.39V72.0306L106.03 71.8352V69.1079L106.389 69.2967V69.7228L106.42 69.7394C106.477 69.6307 106.562 69.5647 106.678 69.5414C106.793 69.5168 106.941 69.5526 107.124 69.6486C107.287 69.7347 107.43 69.848 107.553 69.9883C107.675 70.1274 107.77 70.2913 107.838 70.4799C107.906 70.6673 107.94 70.877 107.94 71.109V72.8419L107.57 72.6465V70.942C107.57 70.7278 107.521 70.5349 107.422 70.3635C107.324 70.1908 107.189 70.0593 107.017 69.9688C106.899 69.9064 106.793 69.8796 106.7 69.8885C106.607 69.898 106.535 69.9442 106.481 70.0274C106.428 70.1105 106.401 70.2313 106.401 70.39ZM109.598 73.7724C109.372 73.6532 109.177 73.4902 109.014 73.2833C108.85 73.0765 108.725 72.8439 108.637 72.5857C108.549 72.3274 108.505 72.0622 108.505 71.7899C108.505 71.5129 108.55 71.2922 108.64 71.1278C108.731 70.9628 108.858 70.8632 109.02 70.8292C109.183 70.7946 109.374 70.8347 109.592 70.9495C109.761 71.0389 109.914 71.155 110.05 71.2978C110.187 71.4405 110.298 71.5988 110.385 71.7724C110.472 71.9461 110.526 72.1236 110.547 72.3051L110.176 72.1097C110.148 71.9705 110.085 71.8273 109.988 71.6801C109.891 71.5323 109.761 71.4153 109.598 71.3292C109.453 71.253 109.327 71.2289 109.218 71.2567C109.11 71.2839 109.026 71.3584 108.965 71.4803C108.905 71.6015 108.875 71.7651 108.875 71.9711C108.875 72.1818 108.905 72.3807 108.963 72.5679C109.023 72.7556 109.107 72.9211 109.215 73.0644C109.324 73.2082 109.451 73.3187 109.598 73.396C109.694 73.4468 109.782 73.4739 109.86 73.4774C109.939 73.4809 110.005 73.4615 110.06 73.4192C110.114 73.3769 110.153 73.3121 110.176 73.2248L110.547 73.4202C110.526 73.5701 110.474 73.6878 110.391 73.7732C110.31 73.858 110.201 73.9027 110.066 73.9073C109.932 73.9112 109.776 73.8662 109.598 73.7724ZM112.1 75.0912C111.868 74.9687 111.667 74.805 111.499 74.6002C111.331 74.3947 111.202 74.1631 111.111 73.9056C111.021 73.6474 110.976 73.3787 110.976 73.0993C110.976 72.82 111.021 72.5975 111.111 72.4319C111.202 72.2657 111.328 72.1655 111.491 72.1315C111.654 72.0969 111.845 72.137 112.062 72.2518C112.188 72.318 112.312 72.4071 112.435 72.519C112.557 72.6309 112.669 72.7667 112.769 72.9262C112.87 73.0845 112.95 73.2664 113.01 73.4719C113.069 73.6774 113.099 73.9073 113.099 74.1618V74.3394L111.239 73.3591V72.9969L112.722 73.7785C112.722 73.6246 112.695 73.4729 112.641 73.3235C112.587 73.1746 112.511 73.039 112.411 72.9168C112.313 72.795 112.197 72.6988 112.062 72.6282C111.915 72.5504 111.787 72.5245 111.679 72.5505C111.572 72.5759 111.49 72.6391 111.433 72.7401C111.375 72.8411 111.346 72.9668 111.346 73.1172V73.3586C111.346 73.5646 111.378 73.7558 111.44 73.9321C111.504 74.1078 111.593 74.2628 111.706 74.3969C111.819 74.5299 111.95 74.6359 112.1 74.7148C112.198 74.7662 112.286 74.7971 112.364 74.8078C112.444 74.8177 112.512 74.8065 112.57 74.7742C112.627 74.7406 112.672 74.6847 112.703 74.6066L113.061 74.909C113.024 75.0264 112.96 75.1138 112.871 75.171C112.782 75.2271 112.672 75.2497 112.542 75.2387C112.411 75.2265 112.264 75.1774 112.1 75.0912Z" fill="white"/>
<path d="M83.7539 49.6562V69.5382H84.0554V49.6562" fill="white"/>
<path fill-rule="evenodd" clip-rule="evenodd" d="M37.2983 93.8984C38.14 99.8597 36.532 106.278 39.3923 111.691C41.3867 115.466 45.2954 118.158 47.39 121.887C49.1059 120.519 51.1461 119.492 53.3293 118.897C47.6058 113.407 44.3953 105.797 44.6051 98.2203L37.2983 93.8984Z" fill="#119187"/>
<path d="M78.7793 80.5396C78.7793 80.5396 79.3575 78.8728 79.6873 78.161C80.0171 77.4492 79.797 75.5043 80.5676 73.865C81.3375 72.2256 83.2837 70.2202 83.6479 68.7151C83.8679 67.8057 84.6198 68.5874 84.3081 69.8398C83.9964 71.0922 82.9171 73.1301 82.9171 73.1301C82.9171 73.1301 83.5767 73.6965 84.3822 73.865C85.1877 74.034 84.9677 74.5872 85.298 75.6667C85.6278 76.7462 84.5281 78.161 84.5281 78.161C83.8679 78.2529 81.3887 81.6703 81.3887 81.6703L78.7793 80.5396Z" fill="#F7E6E0"/>
<path fill-rule="evenodd" clip-rule="evenodd" d="M53.7511 84.4754C54.0369 84.5795 54.2485 84.6868 54.2485 84.7793C53.6727 85.2858 52.8112 85.8126 52.3789 86.4242C52.2559 86.5981 51.6946 88.1808 51.7488 88.1846C49.4674 88.0299 47.2137 87.5422 45.0986 86.7467C45.4091 85.9419 45.5936 85.0969 45.6485 84.2453C45.6961 83.5016 45.4495 82.7051 45.6177 81.9922C45.6515 82.0026 45.6853 82.0131 45.719 82.0236C47.0635 82.4403 48.4087 82.8565 49.7532 83.2732C50.5906 83.5324 51.4275 83.7917 52.2649 84.051C52.4241 84.1 53.2169 84.2817 53.7511 84.4754Z" fill="#F7E6E0"/>
<path fill-rule="evenodd" clip-rule="evenodd" d="M54.5801 72.6593C55.6472 73.8456 55.6424 75.4878 55.9077 76.9317C56.0271 77.5818 56.1422 78.2325 56.4569 78.8121C56.756 79.3632 57.6254 79.7551 57.3939 80.484C57.3125 80.74 57.0906 80.9343 56.9122 81.1457C55.8124 82.4454 56.2327 84.3996 54.2171 85.047C53.13 85.396 51.8223 85.0662 51.0856 84.2576C49.5963 84.7932 47.9745 84.7596 46.6246 83.9465C44.9479 82.937 43.5798 81.5145 42.667 79.8829C42.1998 79.0478 41.8892 78.1763 41.6499 77.2675C41.4111 76.3603 41.6619 75.321 42.0141 74.4501C43.8005 70.0357 51.3255 69.0421 54.5801 72.6593Z" fill="#F7E6E0"/>
<path fill-rule="evenodd" clip-rule="evenodd" d="M54.0114 74.1756C53.9735 74.4696 54.0621 74.7641 54.0934 75.0635C54.1947 76.0495 53.0196 76.4821 52.925 77.4626C52.8617 78.0797 54.0934 80.5937 52.925 80.7787C52.7797 80.231 52.7164 79.5159 51.8765 79.4983C50.992 79.4751 50.8913 80.4038 51.03 81.0033C51.2006 81.7239 51.9271 82.3872 51.9018 83.1084C51.8958 83.2526 51.8578 83.3968 51.7818 83.5411C51.3333 84.4235 50.3861 84.9828 49.325 85.0461C48.2638 85.1154 47.222 84.7461 46.2935 84.2561C44.4684 83.2933 42.9461 81.8516 41.9609 80.1445C41.3357 79.0491 40.3125 77.9475 39.9713 76.742C39.5794 75.3465 40.6851 74.741 40.9691 73.7203C41.0005 73.5992 41.0198 73.4781 41.0258 73.3455C41.0451 72.959 41.0511 72.5902 41.1584 72.2093C41.2344 71.9324 41.3417 71.6615 41.4744 71.4078C41.7017 70.9751 42.011 70.5776 42.3836 70.2429C43.514 69.2454 44.8784 68.6801 46.4135 68.3228C48.4471 67.8444 50.7714 67.8444 52.6537 68.7902C54.176 69.5515 55.3758 71.3274 54.5926 72.948C54.3907 73.3565 54.0687 73.7314 54.0114 74.1756Z" fill="#3A3F4D"/>
<path fill-rule="evenodd" clip-rule="evenodd" d="M55.4559 77.3869C55.6145 77.8449 55.0912 78.1218 54.9127 77.6362C54.7813 77.2779 55.3004 76.9371 55.4559 77.3869Z" fill="white"/>
<path fill-rule="evenodd" clip-rule="evenodd" d="M54.8396 183.516V184.271C55.9719 184.928 57.8572 185.011 59.0027 184.442C62.4195 182.746 66.3336 185.269 69.5424 182.946C70.1199 182.527 71.1552 181.438 71.0316 180.281C66.9697 181.204 54.8396 183.516 54.8396 183.516Z" fill="#105D56"/>
<path fill-rule="evenodd" clip-rule="evenodd" d="M60.6697 177.672C60.6697 177.672 64.3982 178.712 66.6042 179.024C67.8312 179.197 69.8081 178.362 70.7125 179.535C71.8412 180.998 69.585 182.8 68.3358 183.235C66.3932 183.911 62.4025 183.131 60.932 183.443C59.4615 183.755 55.7336 184.429 54.8407 183.52C53.9478 182.611 54.8407 178.192 54.8407 178.192L60.6697 177.672Z" fill="#10635D"/>
<path fill-rule="evenodd" clip-rule="evenodd" d="M43.9959 176.025C41.9242 177.846 40.3211 175.549 40.4537 173.561C40.5164 172.618 40.6026 171.613 41.1899 170.868C41.826 170.061 43.0101 169.606 43.1922 168.599C44.6934 168.165 52.9618 164.808 52.3638 168.895C52.0484 171.052 48.5792 171.995 46.1941 174.092L43.9959 176.025Z" fill="#10635D"/>
<path fill-rule="evenodd" clip-rule="evenodd" d="M43.8807 175.387L46.0795 173.455C48.4647 171.358 51.9339 170.415 52.2492 168.258V168.257V168.256L52.2504 168.244V168.243V168.241V168.24V168.239V168.238V168.236V168.235V168.234L52.251 168.23V168.228V168.227C52.2872 168.439 52.2878 168.68 52.2474 168.955C51.9321 171.112 48.4629 172.055 46.0777 174.152L44.3751 175.685C42.5109 177.324 40.0479 176.554 40.4742 174.128C40.2813 175.561 42.3004 176.776 43.8807 175.387Z" fill="#106760"/>
<path fill-rule="evenodd" clip-rule="evenodd" d="M52.2728 142.283C51.2304 150.598 49.6453 160.183 47.2771 170.898C46.6958 173.516 45.3568 174.709 43.9803 175.119C42.0413 175.701 40.033 174.721 39.9824 173.959C39.4831 166.809 41.6181 153.136 42.6858 145.593C43.0458 137.035 37.7341 124.653 40.0396 121.424L51.7181 118.172L51.9394 127.825L52.2728 142.283Z" fill="#60B6AF"/>
<path fill-rule="evenodd" clip-rule="evenodd" d="M51.9388 127.826C51.5915 128.708 51.3323 129.273 51.3323 129.273C51.3323 129.273 47.2777 155.028 46.3425 158.268C45.5533 161.008 44.3402 171.809 43.9803 175.119C42.0413 175.701 40.033 174.721 39.9824 173.959C39.4831 166.809 41.6181 153.136 42.6858 145.593C43.0458 137.035 37.7341 124.653 40.0396 121.424L51.7182 118.172L51.9388 127.826Z" fill="#119187"/>
<path fill-rule="evenodd" clip-rule="evenodd" d="M61.769 175.875C61.6177 178.349 59.9687 178.954 58.2257 178.885C56.1727 178.804 53.9878 177.778 53.9878 177.778C53.9625 168.753 53.0466 158.609 53.5392 150.264C53.9938 142.571 47.4503 131.09 47.375 121.361C47.3623 120.865 47.375 120.381 47.4063 119.896L60.6892 117.82C60.9671 119.758 61.2137 121.603 61.4471 123.374C65.0151 151.169 62.7982 159.249 61.769 175.875Z" fill="url(#paint15_linear_6434_32089)"/>
<path fill-rule="evenodd" clip-rule="evenodd" d="M58.8198 150.378C58.9018 152.8 58.3459 174.442 58.226 178.883C56.173 178.802 53.988 177.776 53.988 177.776C53.9627 168.751 53.0469 158.607 53.5395 150.263C53.9941 142.57 47.4506 131.088 47.3752 121.359L61.4473 123.372L56.1923 130.223C56.1923 130.223 58.7191 147.673 58.8198 150.378Z" fill="#119187"/>
<path fill-rule="evenodd" clip-rule="evenodd" d="M59.7476 124.397L58.2506 125.124C57.1834 125.602 56.0084 126.041 54.7893 126.416C49.7362 127.972 43.8499 128.382 41.2538 125.337C40.5719 124.795 38.0896 122.656 38.0896 122.656C38.6642 118.884 41.273 109.652 41.2351 109.306C41.0078 107.172 40.2686 105.044 39.6247 102.997C38.8855 100.638 37.5024 98.5565 36.7952 96.1861C36.3213 94.5886 36.1633 92.8705 36.6372 91.267C37.635 87.8875 40.6098 85.9267 44.2545 86.0021C46.0735 86.0368 47.8545 86.5151 49.5409 87.1614C51.2839 87.8363 52.9449 88.7011 54.4546 89.7625C55.8251 90.7253 56.7789 91.66 57.5054 92.8017C58.0046 93.5801 58.4086 94.451 58.7685 95.5008C59.659 98.0495 59.5644 100.402 59.6904 103.02C59.823 105.719 59.5638 108.084 59.4884 110.811C61.0548 115.777 63.0378 118.147 63.3917 120.927C63.5123 121.883 62.0219 123.192 59.7476 124.397Z" fill="#64B8B2"/>
<path fill-rule="evenodd" clip-rule="evenodd" d="M50.9806 115.13L54.7893 126.416C49.7362 127.972 43.8499 128.382 41.2537 125.337C40.5718 124.795 38.0896 122.656 38.0896 122.656C38.6642 118.884 41.273 109.652 41.2351 109.306C41.0078 107.172 40.2686 105.044 39.6247 102.997C38.8855 100.638 37.5024 98.5565 36.7952 96.1861C36.3213 94.5886 36.1633 92.8705 36.6372 91.267C37.635 87.8875 40.6098 85.9267 44.2545 86.0021C46.0735 86.0368 47.8545 86.5151 49.5409 87.1614C51.2839 87.8363 52.9449 88.7011 54.4546 89.7625C55.8251 90.7253 56.7789 91.66 57.5054 92.8017C56.1916 95.6505 57.4318 99.5892 57.4318 99.5892C57.4318 99.5892 51.2146 103.995 50.9812 106.809C50.7407 109.617 50.9806 115.13 50.9806 115.13Z" fill="url(#paint16_linear_6434_32089)"/>
<path fill-rule="evenodd" clip-rule="evenodd" d="M54 89.5C52.3558 88.611 50.504 87.5724 48.6675 87.1083C48.2479 87.0021 43.4408 85.8851 43.3823 86.047C43.6735 85.2422 44.2909 84.5684 45.2845 84.5475C45.6909 84.5387 46.0906 84.63 46.4831 84.7269C48.0616 85.1167 49.6099 85.6077 51.1129 86.1951C52.5201 86.7445 53.5942 88.1194 54 89.5Z" fill="#23A096"/>
<path d="M83.2321 81.9937C75.9247 99.1727 73.5245 98.5039 73.1199 98.9019C72.7094 99.2999 55.1886 99.6401 55.1506 99.6456C50.6154 99.7436 47.4513 92.2008 52.0998 90.4128C54.5 89.4902 58.3213 90.8626 60.8349 91.1565C63.8037 91.5138 66.7845 91.9581 69.7786 92.0274C74.1111 87.2062 78.4823 79.375 78.4823 79.375C79.1961 79.4212 79.8214 79.5594 80.358 79.7554C80.5473 79.8303 80.6546 79.871 80.6546 79.871C82.4615 80.6329 83.2321 81.9937 83.2321 81.9937Z" fill="url(#paint17_linear_6434_32089)"/>
<path d="M80.6541 79.871L72.6516 92.241L69.7781 92.0274C74.1106 87.2062 78.4818 79.375 78.4818 79.375C79.1957 79.4212 79.8209 79.5594 80.3575 79.7554C80.5468 79.8308 80.6541 79.871 80.6541 79.871Z" fill="#119187"/>
<path fill-rule="evenodd" clip-rule="evenodd" d="M51.9021 83.111C51.896 83.2552 51.8581 83.3994 51.7821 83.5437C51.3335 84.4261 50.3863 84.9854 49.3252 85.0487C48.2641 85.118 47.2222 84.7487 46.2937 84.2587C44.4687 83.2959 42.9463 81.8542 41.9612 80.1471C41.3359 79.0517 40.3128 77.9501 39.9715 76.7446C39.5796 75.3491 40.6854 74.7436 40.9694 73.723C41.0833 74.3285 41.3106 74.917 41.6452 75.4531C41.3613 74.438 41.6706 73.3018 42.4411 72.5234C41.6959 73.8209 42.6304 75.4355 43.8815 76.3526C44.8666 77.0848 46.7423 77.5868 47.4061 78.5788C47.76 79.1095 47.8987 79.7266 48.1513 80.2974C48.788 81.721 50.2658 82.7647 51.9021 83.111Z" fill="#3A3F4D"/>
<path fill-rule="evenodd" clip-rule="evenodd" d="M174.486 32.661C174.486 25.7838 169.164 17.4037 162.6 13.9434C159.115 12.1058 155.98 12.0255 153.806 13.3841L150.797 14.97V18.731C150.745 19.1774 150.715 19.6426 150.715 20.1308C150.715 20.6087 150.746 21.0959 150.797 21.5858V21.7251L150.81 21.7185C151.012 23.5433 151.547 25.4353 152.347 27.2855L152.376 27.3532C152.399 27.4055 152.42 27.4578 152.444 27.5101L160.235 45.6559L159.592 45.995V52.7505L162.601 51.1646L172.758 38.2193C172.781 38.1918 172.802 38.1621 172.825 38.134L172.855 38.096C173.89 36.7947 174.486 34.9582 174.486 32.661Z" fill="url(#paint18_linear_6434_32089)"/>
<path fill-rule="evenodd" clip-rule="evenodd" d="M169.845 39.6822C170.88 38.3808 171.476 36.5449 171.476 34.2472C171.476 27.37 166.155 18.9899 159.591 15.5295C153.027 12.0691 147.706 14.8392 147.706 21.7164C147.706 24.0136 148.302 26.4782 149.337 28.8717L149.336 28.8711L149.366 28.9394C149.389 28.9917 149.41 29.044 149.434 29.0963L159.591 52.7502L169.748 39.8049C169.771 39.7774 169.792 39.7477 169.815 39.7196L169.845 39.6822Z" fill="url(#paint19_linear_6434_32089)"/>
<path fill-rule="evenodd" clip-rule="evenodd" d="M165.997 31.3506C165.997 33.0747 165.378 34.3205 164.354 34.9662C163.186 35.7159 161.481 35.6813 159.592 34.6838C156.055 32.8209 153.188 28.3058 153.188 24.6033C153.188 22.2329 154.356 20.7741 156.125 20.5148C157.122 20.359 158.316 20.5957 159.592 21.27C163.129 23.1329 165.997 27.6486 165.997 31.3506Z" fill="#1F2025"/>
<path fill-rule="evenodd" clip-rule="evenodd" d="M165.995 31.3506C165.995 33.0747 165.376 34.3205 164.353 34.9662C163.355 35.1159 162.167 34.8853 160.891 34.2109C157.355 32.3481 154.487 27.833 154.487 24.1304C154.487 22.4063 155.106 21.166 156.123 20.5148C157.121 20.359 158.314 20.5957 159.59 21.27C163.127 23.1329 165.995 27.6486 165.995 31.3506Z" fill="white"/>
<path d="M46.5885 40.944L42.6683 38.8774C40.7933 37.8981 38.2007 38.0473 35.3375 39.5567C29.6158 42.5729 24.9775 49.8773 24.9775 55.8721C24.9775 58.897 26.1599 61.0087 28.0651 61.9726L31.8665 63.9764V62.4686C32.9517 62.3007 34.1196 61.9071 35.3375 61.2652C39.9811 58.8172 43.9104 53.5446 45.2265 48.4405L46.5885 49.1583V40.944Z" fill="url(#paint20_linear_6434_32089)"/>
<path d="M49.6154 47.0124C49.6154 41.0182 44.9771 38.6032 39.2554 41.6193C33.5338 44.6354 28.8955 51.9399 28.8955 57.9347C28.8955 63.9295 33.5338 66.3439 39.2554 63.3278C44.9771 60.3111 49.6154 53.0067 49.6154 47.0124Z" fill="url(#paint21_linear_6434_32089)"/>
<path d="M43.5301 46.6295C43.269 46.4808 42.8458 46.725 42.5843 47.1753L38.223 54.698L36.4941 53.7126C36.2329 53.5634 35.8098 53.8081 35.5486 54.2584C35.2875 54.7087 35.2875 55.1946 35.5486 55.3434L37.4432 56.4236C37.874 56.669 38.5723 56.2657 39.0028 55.523L43.5301 47.7142C43.7913 47.2642 43.7913 46.7783 43.5301 46.6295Z" fill="white"/>
<path d="M98.0044 153.416L103.904 150.306C107.621 148.366 112.759 148.66 118.435 151.653C129.775 157.631 138.968 172.108 138.968 183.989C138.968 189.984 136.625 194.17 132.848 196.08L127.184 199.066V196.077C125.033 195.745 122.718 194.965 120.304 193.692C111.101 188.841 103.312 178.391 100.705 168.273L98.0051 169.696L98.0044 153.416Z" fill="url(#paint22_linear_6434_32089)"/>
<path d="M92 165.443C92 153.562 101.193 148.777 112.533 154.754C123.873 160.732 133.066 175.21 133.066 187.09C133.066 198.972 123.873 203.757 112.533 197.779C101.193 191.801 92 177.324 92 165.443Z" fill="url(#paint23_linear_6434_32089)"/>
<path d="M95.6509 167.368C95.6509 177.14 103.212 189.038 112.538 193.953C117.758 196.708 122.439 196.685 125.532 194.398C127.948 192.615 129.413 189.45 129.413 185.163C129.413 175.402 121.852 163.493 112.538 158.578C108.032 156.2 103.938 155.892 100.909 157.321C97.6788 158.83 95.6509 162.316 95.6509 167.368Z" fill="#0B0B0B"/>
<path d="M97.0674 166.521C97.0674 176.294 104.616 188.203 113.942 193.118C118.436 195.484 122.504 195.805 125.534 194.398C127.949 192.615 129.414 189.45 129.414 185.163C129.414 175.402 121.854 163.493 112.54 158.578C108.034 156.2 103.94 155.892 100.91 157.321C98.5066 159.103 97.0674 162.258 97.0674 166.521Z" fill="white"/>
<path d="M114.748 163.932L113.446 163.246V160.031L114.748 160.718V163.932Z" fill="#C0C0DD"/>
<path d="M114.748 190.855L113.446 190.168V186.953L114.748 187.64V190.855Z" fill="#C0C0DD"/>
<path d="M107.953 160.374L107.389 160.419L106.622 158.622L107.186 158.578L107.953 160.374Z" fill="#C0C0DD"/>
<path d="M121.569 192.265L121.005 192.309L120.238 190.513L120.802 190.469L121.569 192.265Z" fill="#C0C0DD"/>
<path d="M103.139 162.637L102.812 163.056L101.484 161.552L101.81 161.133L103.139 162.637Z" fill="#C0C0DD"/>
<path d="M126.718 189.332L126.392 189.751L125.063 188.247L125.389 187.828L126.718 189.332Z" fill="#C0C0DD"/>
<path d="M102.812 175.93L103.139 176.692L101.81 176.796L101.484 176.033L102.812 175.93Z" fill="#C0C0DD"/>
<path d="M126.392 174.094L126.718 174.856L125.389 174.96L125.063 174.197L126.392 174.094Z" fill="#C0C0DD"/>
<path d="M107.389 183.391L107.953 184.029L107.186 185.016L106.622 184.378L107.389 183.391Z" fill="#C0C0DD"/>
<path d="M121.005 165.867L121.569 166.506L120.802 167.494L120.238 166.855L121.005 165.867Z" fill="#C0C0DD"/>
<path d="M125.41 182.091V180.727L128.478 182.344V183.709L125.41 182.091Z" fill="#C0C0DD"/>
<path d="M99.7207 168.545V167.18L102.789 168.797V170.162L99.7207 168.545Z" fill="#C0C0DD"/>
<path d="M107.534 168.545L113.721 176.005C114.235 176.626 114.915 176.597 114.915 175.955V166.176C114.915 165.704 114.549 165.129 114.099 164.891C113.648 164.654 113.283 164.844 113.283 165.316V173.441L108.421 167.578C108.043 167.122 107.538 166.969 107.292 167.236C107.047 167.503 107.155 168.089 107.534 168.545Z" fill="#C0C0DD"/>
<defs>
<radialGradient id="paint0_radial_6434_32089" cx="0" cy="0" r="1" gradientUnits="userSpaceOnUse" gradientTransform="translate(163.351 99.5722) scale(36.0194 50.0373)">
<stop stop-color="#73B4AF"/>
<stop offset="1" stop-color="#B9EACB"/>
</radialGradient>
<radialGradient id="paint1_radial_6434_32089" cx="0" cy="0" r="1" gradientUnits="userSpaceOnUse" gradientTransform="translate(36.3511 136.197) scale(36.0194 50.0372)">
<stop stop-color="#73B4AF"/>
<stop offset="1" stop-color="#B9EACB"/>
</radialGradient>
<radialGradient id="paint2_radial_6434_32089" cx="0" cy="0" r="1" gradientUnits="userSpaceOnUse" gradientTransform="translate(62.7287 38.2646) scale(24.9815 34.7044)">
<stop stop-color="#73B4AF"/>
<stop offset="1" stop-color="#B9EACB"/>
</radialGradient>
<linearGradient id="paint3_linear_6434_32089" x1="14.651" y1="202.745" x2="184.42" y2="202.745" gradientUnits="userSpaceOnUse">
<stop stop-color="#BEEBE8"/>
<stop offset="1" stop-color="#085E57"/>
</linearGradient>
<linearGradient id="paint4_linear_6434_32089" x1="14.651" y1="174.028" x2="184.419" y2="174.028" gradientUnits="userSpaceOnUse">
<stop stop-color="#11998E"/>
<stop offset="1" stop-color="#6EBCB6"/>
</linearGradient>
<linearGradient id="paint5_linear_6434_32089" x1="121.158" y1="138.191" x2="102.346" y2="175.592" gradientUnits="userSpaceOnUse">
<stop stop-color="#6164FF"/>
<stop offset="1" stop-color="#8EE5FF"/>
</linearGradient>
<linearGradient id="paint6_linear_6434_32089" x1="38.2765" y1="197.088" x2="63.9939" y2="168.921" gradientUnits="userSpaceOnUse">
<stop stop-color="#11998E" stop-opacity="0"/>
<stop offset="1" stop-color="#11998E"/>
</linearGradient>
<linearGradient id="paint7_linear_6434_32089" x1="22.8779" y1="182.229" x2="47.6617" y2="155.084" gradientUnits="userSpaceOnUse">
<stop stop-color="#11998E" stop-opacity="0"/>
<stop offset="1" stop-color="#11998E"/>
</linearGradient>
<linearGradient id="paint8_linear_6434_32089" x1="143.095" y1="142.754" x2="164.779" y2="142.754" gradientUnits="userSpaceOnUse">
<stop stop-color="#61D6CD"/>
<stop offset="1" stop-color="#085E57"/>
</linearGradient>
<linearGradient id="paint9_linear_6434_32089" x1="145.245" y1="131.166" x2="161.778" y2="131.166" gradientUnits="userSpaceOnUse">
<stop stop-color="#11998E"/>
<stop offset="1" stop-color="#0B6B63"/>
</linearGradient>
<linearGradient id="paint10_linear_6434_32089" x1="144.279" y1="158.429" x2="187.531" y2="158.429" gradientUnits="userSpaceOnUse">
<stop stop-color="#11998E"/>
<stop offset="1" stop-color="#0B6B63"/>
</linearGradient>
<linearGradient id="paint11_linear_6434_32089" x1="153.302" y1="150.719" x2="188.903" y2="150.719" gradientUnits="userSpaceOnUse">
<stop stop-color="#61D6CD"/>
<stop offset="1" stop-color="#085E57"/>
</linearGradient>
<linearGradient id="paint12_linear_6434_32089" x1="158.893" y1="169.398" x2="174.722" y2="169.398" gradientUnits="userSpaceOnUse">
<stop stop-color="#11998E"/>
<stop offset="1" stop-color="#0B6B63"/>
</linearGradient>
<linearGradient id="paint13_linear_6434_32089" x1="147.89" y1="170.615" x2="170.425" y2="170.615" gradientUnits="userSpaceOnUse">
<stop stop-color="#61D6CD"/>
<stop offset="1" stop-color="#085E57"/>
</linearGradient>
<linearGradient id="paint14_linear_6434_32089" x1="59.3904" y1="69.8099" x2="147.708" y2="69.8099" gradientUnits="userSpaceOnUse">
<stop stop-color="#11998E"/>
<stop offset="1" stop-color="#6EBCB6"/>
</linearGradient>
<linearGradient id="paint15_linear_6434_32089" x1="47.37" y1="148.355" x2="63.3991" y2="148.355" gradientUnits="userSpaceOnUse">
<stop stop-color="#11998E"/>
<stop offset="1" stop-color="#6EBCB6"/>
</linearGradient>
<linearGradient id="paint16_linear_6434_32089" x1="36.351" y1="106.806" x2="57.5056" y2="106.806" gradientUnits="userSpaceOnUse">
<stop stop-color="#11998E"/>
<stop offset="1" stop-color="#6EBCB6"/>
</linearGradient>
<linearGradient id="paint17_linear_6434_32089" x1="49.8135" y1="89.5108" x2="83.2324" y2="89.5108" gradientUnits="userSpaceOnUse">
<stop stop-color="#11998E"/>
<stop offset="1" stop-color="#6EBCB6"/>
</linearGradient>
<linearGradient id="paint18_linear_6434_32089" x1="150.715" y1="32.6019" x2="174.486" y2="32.6019" gradientUnits="userSpaceOnUse">
<stop stop-color="#11998E"/>
<stop offset="1" stop-color="#6EBCB6"/>
</linearGradient>
<linearGradient id="paint19_linear_6434_32089" x1="147.705" y1="33.3947" x2="171.476" y2="33.3947" gradientUnits="userSpaceOnUse">
<stop stop-color="#11998E"/>
<stop offset="1" stop-color="#0F2625"/>
</linearGradient>
<linearGradient id="paint20_linear_6434_32089" x1="24.9774" y1="51.1172" x2="46.5887" y2="51.1172" gradientUnits="userSpaceOnUse">
<stop stop-color="#11998E"/>
<stop offset="1" stop-color="#6EBCB6"/>
</linearGradient>
<linearGradient id="paint21_linear_6434_32089" x1="28.8954" y1="52.4737" x2="49.6156" y2="52.4737" gradientUnits="userSpaceOnUse">
<stop stop-color="#11998E"/>
<stop offset="1" stop-color="#0F2625"/>
</linearGradient>
<linearGradient id="paint22_linear_6434_32089" x1="98.0042" y1="174.072" x2="138.968" y2="174.072" gradientUnits="userSpaceOnUse">
<stop stop-color="#11998E"/>
<stop offset="1" stop-color="#6EBCB6"/>
</linearGradient>
<linearGradient id="paint23_linear_6434_32089" x1="91.9998" y1="176.267" x2="133.066" y2="176.267" gradientUnits="userSpaceOnUse">
<stop stop-color="#11998E"/>
<stop offset="1" stop-color="#0F2625"/>
</linearGradient>
</defs>
</svg>
