<svg width="200" height="234" viewBox="0 0 200 234" fill="none" xmlns="http://www.w3.org/2000/svg">
<path fill-rule="evenodd" clip-rule="evenodd" d="M192.515 148.552L131.761 116.526C128.815 114.973 127 112.103 127 108.996V54.3814C127 51.0135 130.993 48.909 134.187 50.5924L194.941 82.6187C197.887 84.1716 199.702 87.0419 199.702 90.1483V144.763C199.702 148.131 195.709 150.236 192.515 148.552Z" fill="#99A9E5"/>
<path fill-rule="evenodd" clip-rule="evenodd" d="M7.18738 185.175L67.941 153.149C70.8874 151.596 72.7022 148.726 72.7022 145.62V91.0048C72.7022 87.637 68.7091 85.5324 65.5148 87.2164L4.76124 119.242C1.81478 120.794 0 123.665 0 126.771V181.386C0 184.754 3.99312 186.859 7.18738 185.175Z" fill="#99A9E5"/>
<path fill-rule="evenodd" clip-rule="evenodd" d="M42.502 72.2348L84.6381 50.0226C86.6814 48.9453 87.9403 46.9548 87.9403 44.8002V6.9211C87.9403 4.58538 85.1711 3.12549 82.9554 4.29362L40.8193 26.5058C38.776 27.5831 37.5171 29.5737 37.5171 31.7283V69.6073C37.5171 71.9431 40.2863 73.403 42.502 72.2348Z" fill="#99A9E5"/>
<path fill-rule="evenodd" clip-rule="evenodd" d="M184.419 172.391H178.852H20.2174H14.6519V188.354H14.6561C14.6567 189.192 14.6971 190.029 14.7863 190.865C15.0769 193.674 15.8788 196.476 17.1799 199.222C18.8729 202.803 21.4178 206.298 24.8225 209.613C27.4813 212.208 30.6647 214.7 34.3721 217.029C35.9891 218.05 37.7008 219.036 39.5132 219.993C72.6598 237.467 126.409 237.472 159.556 219.993C171.752 213.563 179.464 205.668 182.679 197.381C183.837 194.405 184.412 191.38 184.413 188.354H184.418V172.391H184.419Z" fill="#99A9E5"/>
<path fill-rule="evenodd" clip-rule="evenodd" d="M182.679 183.053C179.464 191.34 171.752 199.235 159.556 205.665C126.409 223.144 72.6595 223.139 39.5129 205.665C37.6999 204.708 35.9889 203.722 34.3718 202.701C30.6645 200.372 27.4811 197.88 24.8222 195.285C21.4181 191.969 18.8726 188.474 17.1796 184.894C15.8785 182.149 15.0766 179.346 14.786 176.537C13.4789 164.266 21.7214 151.763 39.5135 142.386C62.1 130.477 94.2482 126.683 122.923 131.008C125.266 131.36 127.591 131.769 129.883 132.231C140.702 134.404 150.84 137.795 159.556 142.386C170.268 148.032 177.518 154.813 181.302 161.993C184.934 168.861 185.388 176.092 182.679 183.053Z" fill="#3354CC"/>
<path fill-rule="evenodd" clip-rule="evenodd" d="M163.442 180.58C160.971 186.597 155.043 192.33 145.669 196.998C120.192 209.69 78.8793 209.685 53.4024 196.998C52.0091 196.303 50.6935 195.587 49.4509 194.846C46.6015 193.154 44.1543 191.345 42.111 189.461C39.4943 187.053 37.5379 184.516 36.2368 181.915C35.2365 179.922 34.6203 177.887 34.3967 175.848C33.3916 166.938 39.7271 157.86 53.4024 151.051C70.7622 142.405 95.4722 139.65 117.512 142.79C119.313 143.045 121.1 143.343 122.862 143.678C131.178 145.257 138.97 147.719 145.669 151.052C153.903 155.151 159.476 160.075 162.383 165.288C165.175 170.276 165.524 175.526 163.442 180.58Z" fill="url(#paint0_linear_611_1612)"/>
<path fill-rule="evenodd" clip-rule="evenodd" d="M164.589 176.475C164.381 177.854 163.995 179.226 163.44 180.581C160.97 186.596 155.046 192.328 145.666 197C120.194 209.687 78.8804 209.687 53.4011 197C52.0114 196.302 50.6916 195.587 49.4472 194.843C46.5984 193.153 44.1542 191.342 42.1079 189.462C39.493 187.052 37.5353 184.515 36.2342 181.914C35.3371 180.132 34.7499 178.315 34.4785 176.487C34.4472 176.273 34.4219 176.06 34.3966 175.847C33.3921 166.937 39.7276 157.86 53.4017 151.049C70.7645 142.405 95.4727 139.648 117.509 142.791C119.316 143.045 121.097 143.345 122.859 143.679C131.177 145.254 138.971 147.716 145.666 151.049C153.903 155.149 159.473 160.075 162.384 165.288C164.425 168.938 165.164 172.721 164.589 176.475Z" fill="#0F2F2C"/>
<path fill-rule="evenodd" clip-rule="evenodd" d="M164.586 176.475C164.377 177.853 163.992 179.225 163.436 180.581C160.967 186.595 155.042 192.328 145.663 196.999C120.19 209.686 78.877 209.686 53.3977 196.999C52.0079 196.301 50.6882 195.586 49.4437 194.842C46.5949 193.153 44.1507 191.342 42.1044 189.462C39.4896 187.051 37.5319 184.514 36.2308 181.913C35.3336 180.131 34.7464 178.314 34.4751 176.486C35.5929 168.995 41.903 161.672 53.3977 155.951C70.7605 147.3 95.4687 144.55 117.505 147.687C119.312 147.941 121.093 148.241 122.855 148.575C131.173 150.155 138.967 152.618 145.662 155.951C153.899 160.051 159.469 164.97 162.38 170.183C163.537 172.247 164.27 174.353 164.586 176.475Z" fill="#99A9E5"/>
<path fill-rule="evenodd" clip-rule="evenodd" d="M68.6948 183.407L34.3731 202.702C30.6658 200.373 27.4824 197.881 24.8235 195.286L62.284 180.027L68.6948 183.407Z" fill="url(#paint1_linear_611_1612)"/>
<path fill-rule="evenodd" clip-rule="evenodd" d="M45.8654 168.387L43.7432 176.27L17.178 184.891C15.8769 182.146 15.075 179.343 14.7844 176.534L45.8654 168.387Z" fill="url(#paint2_linear_611_1612)"/>
<path fill-rule="evenodd" clip-rule="evenodd" d="M172.5 158.497L146.319 180.437L92.3794 152.006L129.884 132.232C140.703 134.406 141.784 153.907 150.5 158.497C161.213 164.143 168.717 151.318 172.5 158.497Z" fill="#99A9E5"/>
<path d="M149.033 150.66C146.297 157.021 145.188 164.168 143.096 170.78C143.061 170.888 144.633 170.451 144.804 170.327C145.389 169.902 145.332 169.629 145.585 169.026C146.282 167.366 146.271 165.142 146.655 163.383C147.503 159.504 148.574 155.665 149.865 151.888C150.426 150.246 151.06 148.563 152.328 147.29C154.066 145.543 156.729 144.824 158.693 143.29C161.279 141.272 162.354 138.116 163.309 135.135C164.198 132.363 165.095 129.49 164.669 126.628C164.153 124.505 162.929 122.448 162.521 120.338C162.171 118.529 162.287 116.574 162.003 114.712C161.928 114.77 161.853 114.826 161.778 114.884C155.519 124.614 153.836 136.543 149.905 147.451C149.833 148.508 149.499 149.577 149.033 150.66Z" fill="url(#paint3_linear_611_1612)"/>
<path d="M151.343 122.762C148.565 125.852 146.592 129.558 145.751 133.486C145.379 135.228 144.942 137.651 145.541 139.393C146.189 141.274 147.922 142.365 148.993 143.988C149.744 145.128 149.985 146.282 149.904 147.452C153.834 136.544 155.518 124.614 161.777 114.885C158.283 117.595 154.29 119.486 151.343 122.762Z" fill="url(#paint4_linear_611_1612)"/>
<path d="M187.531 141.359C182.068 139.971 176.402 139.031 170.779 139.59C164.685 140.196 158.599 142.773 155.133 147.389C153.348 149.768 152.336 152.547 151.347 155.285C148.991 161.803 146.635 168.321 144.279 174.84L144.882 177.425C146.903 170.408 149.568 163.545 152.839 156.932C152.974 156.66 153.119 156.384 153.299 156.135C157.869 143.859 174.117 142.935 187.531 141.359Z" fill="url(#paint5_linear_611_1612)"/>
<path d="M153.302 156.135C153.452 155.928 153.625 155.739 153.846 155.594C154.704 155.03 155.943 155.298 156.793 155.872C157.643 156.445 158.247 157.267 159.007 157.937C161.211 159.883 164.579 160.386 167.602 159.913C170.625 159.44 173.398 158.124 176.115 156.825C178.361 155.751 180.713 154.59 182.055 152.625C183.346 150.735 183.495 148.401 184.171 146.261C184.846 144.12 186.47 141.886 188.903 141.716C188.448 141.594 187.991 141.475 187.534 141.359C174.12 142.935 157.871 143.859 153.302 156.135Z" fill="url(#paint6_linear_611_1612)"/>
<path d="M165.135 164.021C167.084 170.071 167.626 176.891 170.422 182.625C170.765 179.523 172.012 176.531 173.07 173.547C174.282 170.131 175.269 166.475 174.379 162.977C173.777 160.608 172.078 158.315 169.697 157.157C168.034 156.348 164.25 155.705 162.525 156.621C161.634 157.094 160.947 157.855 160.016 158.258C159.643 158.419 159.268 158.529 158.893 158.611C161.618 159.839 163.871 161.328 165.135 164.021Z" fill="url(#paint7_linear_611_1612)"/>
<path d="M165.139 163.338C163.875 160.646 161.622 159.156 158.897 157.928C156.782 158.39 154.639 157.838 152.556 159.027C150.391 160.264 148.262 161.89 147.933 164.356C147.49 167.667 150.54 170.426 153.395 172.506C158.78 176.43 164.442 180.038 170.335 183.298C170.344 182.844 170.375 182.392 170.425 181.943C167.629 176.208 167.087 169.388 165.139 163.338Z" fill="url(#paint8_linear_611_1612)"/>
<path d="M149.54 44.2536V173.702C149.54 177.081 148.291 179.448 146.318 180.43V180.435L141.564 182.939C143.409 181.895 144.574 179.575 144.574 176.318V46.8739C144.574 40.7828 140.516 33.709 135.517 31.0733L83.4158 3.60889C81.3478 2.52002 79.442 2.35708 77.9148 2.97803L82.0725 0.784887C83.7058 -0.28361 85.9294 -0.303978 88.3875 0.988567L140.483 28.453C145.487 31.0887 149.54 38.1674 149.54 44.2536Z" fill="#9696B2"/>
<path d="M144.572 46.8739V176.321C144.572 179.573 143.41 181.898 141.566 182.941C141.496 182.981 141.42 183.016 141.351 183.051C139.772 183.847 137.738 183.743 135.515 182.572L132.445 180.952L83.4137 155.111C78.4179 152.475 74.3567 145.4 74.3567 139.31V9.86246C74.3567 6.2986 75.7524 3.85333 77.9127 2.97696C79.4411 2.35986 81.3487 2.52115 83.4137 3.61112L135.515 31.0728C140.517 33.7085 144.572 40.7845 144.572 46.8739Z" fill="#C0C0DD"/>
<path d="M144.028 49.0129V175.283C144.028 177.509 142.311 178.402 140.188 177.284L82.6237 146.939C80.5014 145.82 78.7771 143.115 78.7771 140.889V14.614C78.7771 12.3939 80.5014 11.4944 82.6237 12.6185L104.73 24.2679C106.246 25.0694 107.724 26.4765 108.703 28.2067C109.347 29.3484 110.32 30.375 111.406 30.9459C112.493 31.5228 113.459 31.5167 114.11 31.0554C115.082 30.3574 116.567 30.5077 118.083 31.3092L140.188 42.9581C142.311 44.0822 144.028 46.7873 144.028 49.0129Z" fill="#F8FAFC"/>
<path d="M109.374 25.545C109.374 24.5216 110.165 24.1093 111.142 24.6246C112.119 25.1393 112.91 26.3861 112.91 27.4095C112.91 28.4328 112.119 28.8452 111.142 28.3299C110.165 27.8152 109.374 26.5683 109.374 25.545Z" fill="white"/>
<path d="M110.323 26.0452C110.323 25.5718 110.69 25.3813 111.141 25.6191C111.593 25.8575 111.959 26.4344 111.959 26.9078C111.959 27.3812 111.593 27.5722 111.141 27.3339C110.69 27.0955 110.323 26.5186 110.323 26.0452Z" fill="white"/>
<path d="M136.993 74.3992L81.9463 45.3819C80.65 44.6987 79.5991 42.8656 79.5991 41.2879V27.2736C79.5991 25.6959 80.65 24.9704 81.9463 25.6535L136.993 54.6708C138.289 55.354 139.339 57.1871 139.339 58.7648V72.7791C139.339 74.3574 138.289 75.0824 136.993 74.3992Z" fill="#99A9E5"/>
<path d="M83.3603 35.6324C83.2656 35.5825 83.185 35.5108 83.1184 35.4175C83.0518 35.3237 83.0009 35.2119 82.9657 35.0821C82.9305 34.9518 82.9129 34.8076 82.9129 34.6494C82.9129 34.4922 82.9305 34.3672 82.9657 34.2745C83.0013 34.1815 83.0524 34.1233 83.119 34.0996C83.186 34.0758 83.2664 34.0886 83.3603 34.138C83.4541 34.1875 83.5343 34.2594 83.6009 34.3536C83.6679 34.4477 83.719 34.5598 83.7542 34.6901C83.7898 34.8202 83.8076 34.9638 83.8076 35.121C83.8076 35.2791 83.79 35.4048 83.7548 35.498C83.7197 35.5907 83.6688 35.6489 83.6022 35.6725C83.5356 35.6956 83.4549 35.6822 83.3603 35.6324ZM83.3603 35.4761C83.4541 35.5256 83.527 35.5128 83.5789 35.4379C83.6309 35.363 83.6568 35.2309 83.6568 35.0415C83.6568 34.9156 83.6449 34.802 83.621 34.7009C83.5976 34.6 83.5636 34.5146 83.5192 34.4448C83.4753 34.3752 83.4223 34.3241 83.3603 34.2914C83.2673 34.2424 83.1946 34.256 83.1423 34.3321C83.0899 34.4077 83.0637 34.54 83.0637 34.7289C83.0637 34.8548 83.0754 34.968 83.0989 35.0685C83.1224 35.1689 83.1561 35.2537 83.2001 35.3228C83.2445 35.3921 83.2979 35.4432 83.3603 35.4761ZM84.456 34.7156C84.5088 34.7439 84.5616 34.7831 84.6143 34.8331C84.6671 34.8832 84.7153 34.9455 84.7589 35.0201C84.8024 35.0942 84.8374 35.1825 84.8638 35.2849C84.8902 35.3874 84.9034 35.5053 84.9034 35.6389C84.9034 35.7681 84.8925 35.8772 84.8707 35.9661C84.8493 36.0548 84.8183 36.1227 84.7777 36.1699C84.7375 36.2174 84.6885 36.2437 84.6307 36.2487C84.5733 36.254 84.5084 36.2375 84.4359 36.1993C84.3639 36.1613 84.2996 36.1113 84.243 36.0493C84.1869 35.9871 84.1408 35.9176 84.1048 35.8408C84.0692 35.7638 84.0464 35.6843 84.0363 35.6023L84.1896 35.6831C84.2034 35.7572 84.2309 35.8268 84.2719 35.892C84.3134 35.9569 84.3681 36.0073 84.4359 36.0431C84.5352 36.0954 84.6135 36.0877 84.6709 36.0199C84.7287 35.9523 84.7576 35.8291 84.7576 35.6501L84.7475 35.6448C84.7241 35.6722 84.6962 35.6919 84.664 35.7037C84.6317 35.7156 84.5959 35.719 84.5565 35.7139C84.5172 35.7088 84.4753 35.6945 84.4309 35.6711C84.3572 35.6322 84.2895 35.576 84.2279 35.5023C84.1668 35.4284 84.1178 35.3455 84.0809 35.2537C84.0445 35.1615 84.0263 35.0686 84.0263 34.9749C84.0263 34.8858 84.0439 34.8137 84.079 34.7584C84.1146 34.7028 84.1645 34.6699 84.2286 34.6596C84.2931 34.6496 84.3689 34.6682 84.456 34.7156ZM84.456 34.8718C84.4032 34.844 84.3557 34.8339 84.3134 34.8414C84.2715 34.8487 84.2382 34.8709 84.2135 34.9081C84.1892 34.945 84.1771 34.9937 84.1771 35.0543C84.1771 35.1149 84.1888 35.1763 84.2122 35.2384C84.2361 35.3002 84.2686 35.3566 84.3096 35.4076C84.3511 35.4583 84.3982 35.4976 84.451 35.5254C84.4908 35.5464 84.5279 35.5572 84.5622 35.5578C84.5965 35.5579 84.6265 35.5493 84.652 35.532C84.678 35.5144 84.6983 35.4898 84.713 35.4583C84.7277 35.4262 84.735 35.3887 84.735 35.3456C84.735 35.2888 84.7228 35.2291 84.6985 35.1666C84.6747 35.1043 84.6416 35.0466 84.5993 34.9935C84.5574 34.9406 84.5096 34.9001 84.456 34.8718ZM85.2161 36.602C85.1851 36.5857 85.1585 36.5591 85.1363 36.5223C85.1141 36.4855 85.103 36.4496 85.103 36.4145C85.103 36.3795 85.1141 36.3553 85.1363 36.3419C85.1585 36.3285 85.1851 36.33 85.2161 36.3463C85.2471 36.3627 85.2737 36.3892 85.2959 36.426C85.3181 36.4628 85.3292 36.4987 85.3292 36.5338C85.3292 36.557 85.324 36.5755 85.3135 36.5894C85.3034 36.6035 85.2898 36.612 85.2726 36.6148C85.2559 36.6173 85.237 36.613 85.2161 36.602ZM85.9675 37.0066C85.8729 36.9567 85.7922 36.8851 85.7256 36.7917C85.659 36.6979 85.6082 36.5861 85.573 36.4563C85.5378 36.326 85.5202 36.1818 85.5202 36.0236C85.5202 35.8664 85.5378 35.7415 85.573 35.6488C85.6086 35.5558 85.6597 35.4975 85.7263 35.4739C85.7933 35.45 85.8737 35.4628 85.9675 35.5123C86.0614 35.5617 86.1416 35.6336 86.2082 35.7279C86.2752 35.8219 86.3263 35.9341 86.3615 36.0644C86.3971 36.1944 86.4149 36.338 86.4149 36.4952C86.4149 36.6534 86.3973 36.779 86.3621 36.8722C86.3269 36.965 86.276 37.0231 86.2094 37.0467C86.1428 37.0699 86.0622 37.0565 85.9675 37.0066ZM85.9675 36.8503C86.0614 36.8998 86.1342 36.8871 86.1862 36.8122C86.2381 36.7373 86.2641 36.6051 86.2641 36.4157C86.2641 36.2898 86.2522 36.1763 86.2283 36.0751C86.2048 35.9742 86.1709 35.8889 86.1265 35.8191C86.0825 35.7495 86.0295 35.6984 85.9675 35.6657C85.8746 35.6167 85.8019 35.6302 85.7495 35.7063C85.6972 35.7819 85.671 35.9142 85.671 36.1031C85.671 36.2291 85.6827 36.3423 85.7062 36.4427C85.7296 36.5431 85.7633 36.6279 85.8073 36.697C85.8517 36.7663 85.9051 36.8174 85.9675 36.8503ZM87.0733 37.5894C86.9787 37.5395 86.898 37.4679 86.8314 37.3746C86.7648 37.2808 86.714 37.169 86.6788 37.0391C86.6436 36.9089 86.626 36.7646 86.626 36.6065C86.626 36.4493 86.6436 36.3243 86.6788 36.2316C86.7144 36.1386 86.7655 36.0803 86.8321 36.0567C86.8991 36.0329 86.9795 36.0457 87.0733 36.0951C87.1672 36.1446 87.2474 36.2164 87.314 36.3107C87.381 36.4048 87.4321 36.5169 87.4673 36.6472C87.5029 36.7773 87.5207 36.9209 87.5207 37.0781C87.5207 37.2362 87.5031 37.3619 87.4679 37.4551C87.4327 37.5478 87.3818 37.606 87.3152 37.6296C87.2486 37.6527 87.168 37.6393 87.0733 37.5894ZM87.0733 37.4332C87.1672 37.4826 87.24 37.4699 87.292 37.395C87.3439 37.3201 87.3699 37.188 87.3699 36.9986C87.3699 36.8726 87.358 36.7591 87.3341 36.658C87.3106 36.5571 87.2767 36.4717 87.2323 36.4019C87.1883 36.3323 87.1353 36.2812 87.0733 36.2485C86.9804 36.1995 86.9077 36.2131 86.8553 36.2892C86.803 36.3648 86.7768 36.497 86.7768 36.686C86.7768 36.8119 86.7885 36.9251 86.812 37.0255C86.8354 37.126 86.8691 37.2107 86.9131 37.2798C86.9575 37.3492 87.0109 37.4003 87.0733 37.4332Z" fill="black"/>
<path d="M83.041 40.6025L82.8586 40.5737L83.3862 39.2025L83.5657 39.2309L84.0933 40.7688L83.9109 40.74L83.4816 39.4477L83.4703 39.4459L83.041 40.6025ZM83.1084 40.0449L83.8435 40.1611V40.3174L83.1084 40.2012V40.0449ZM84.3171 39.3496L84.5247 39.3824L85.013 40.667L85.0298 40.6697L85.5181 39.5394L85.7257 39.5723V41.0268L85.563 41.0011V39.896L85.5489 39.8938L85.1 40.9279L84.9428 40.9031L84.4939 39.727L84.4798 39.7248V40.8299L84.3171 40.8042V39.3496Z" fill="black"/>
<path d="M82.9632 30.2122L83.1492 30.3102L83.5865 31.7481L83.6015 31.756L84.0388 30.7791L84.2248 30.8772V32.3317L84.079 32.2549V31.1498L84.0665 31.1431L83.6644 32.0363L83.5236 31.9621L83.1215 30.6451L83.109 30.6384V31.7436L82.9632 31.6667V30.2122ZM84.9092 32.7151C84.8221 32.6692 84.7456 32.6055 84.6798 32.524C84.6145 32.4426 84.5634 32.3501 84.5265 32.2464C84.4901 32.1429 84.4719 32.0348 84.4719 31.9222C84.4719 31.8085 84.4901 31.7189 84.5265 31.6534C84.5634 31.5881 84.6145 31.5492 84.6798 31.5367C84.7456 31.5245 84.8221 31.5414 84.9092 31.5873C84.9963 31.6332 85.0725 31.6968 85.1379 31.7782C85.2036 31.8597 85.2547 31.9524 85.2912 32.0564C85.328 32.1606 85.3465 32.2695 85.3465 32.3831C85.3465 32.4958 85.328 32.5846 85.2912 32.6494C85.2547 32.7145 85.2036 32.7532 85.1379 32.7654C85.0725 32.7778 84.9963 32.7611 84.9092 32.7151ZM84.9092 32.5646C84.9754 32.5995 85.0298 32.609 85.0725 32.5931C85.1153 32.5773 85.1469 32.5436 85.1674 32.4919C85.1879 32.4402 85.1982 32.3779 85.1982 32.305C85.1982 32.2321 85.1879 32.1587 85.1674 32.0849C85.1469 32.0111 85.1153 31.9436 85.0725 31.8822C85.0298 31.8209 84.9754 31.7728 84.9092 31.7379C84.843 31.703 84.7885 31.6937 84.7458 31.71C84.7031 31.7263 84.6715 31.7605 84.6509 31.8127C84.6304 31.8649 84.6202 31.9274 84.6202 32.0003C84.6202 32.0732 84.6304 32.1463 84.6509 32.2197C84.6715 32.293 84.7031 32.3601 84.7458 32.4209C84.7885 32.4818 84.843 32.5297 84.9092 32.5646ZM85.7211 32.4641V33.1204L85.5728 33.0422V31.9513L85.7161 32.0268V32.1973L85.7286 32.2039C85.7512 32.1604 85.7856 32.134 85.8317 32.1247C85.8777 32.1149 85.9372 32.1292 86.0101 32.1676C86.0754 32.202 86.1326 32.2473 86.1816 32.3034C86.2306 32.3591 86.2688 32.4246 86.296 32.5001C86.3232 32.575 86.3368 32.6589 86.3368 32.7517V33.4449L86.1885 33.3667V32.6849C86.1885 32.5992 86.1689 32.5221 86.1295 32.4535C86.0901 32.3845 86.0361 32.3318 85.9674 32.2956C85.9201 32.2707 85.8777 32.26 85.8405 32.2635C85.8036 32.2673 85.7745 32.2858 85.7531 32.3191C85.7318 32.3523 85.7211 32.4007 85.7211 32.4641ZM86.9722 33.8025C86.8918 33.7601 86.8208 33.6997 86.7592 33.6214C86.6976 33.5425 86.6494 33.4518 86.6147 33.3492C86.5799 33.2461 86.5625 33.1368 86.5625 33.0213C86.5625 32.9067 86.5799 32.8164 86.6147 32.7504C86.6494 32.6845 86.6978 32.6449 86.7598 32.6316C86.8218 32.6184 86.8934 32.6332 86.9747 32.676C87.0375 32.7091 87.0872 32.7471 87.1236 32.79C87.1605 32.8326 87.1885 32.8739 87.2078 32.9139C87.2275 32.9536 87.2428 32.9859 87.2537 33.0105L87.2662 33.0172V32.4802L87.4145 32.5584V34.0129L87.2713 33.9374V33.7698L87.2537 33.7605C87.2428 33.7747 87.2273 33.7916 87.2072 33.8113C87.1871 33.8305 87.1584 33.8422 87.1211 33.8462C87.0838 33.8497 87.0342 33.8352 86.9722 33.8025ZM86.9923 33.6625C87.0518 33.6939 87.102 33.7029 87.1431 33.6895C87.1841 33.6756 87.2153 33.643 87.2367 33.5918C87.2581 33.5401 87.2687 33.473 87.2687 33.3906C87.2687 33.3092 87.2583 33.2324 87.2373 33.1603C87.2164 33.0877 87.1854 33.0235 87.1443 32.9678C87.1033 32.9116 87.0526 32.8676 86.9923 32.8358C86.9295 32.8027 86.8771 32.7934 86.8352 32.8077C86.7937 32.8219 86.7625 32.8544 86.7416 32.9054C86.7211 32.9561 86.7108 33.0199 86.7108 33.0966C86.7108 33.1742 86.7213 33.2503 86.7422 33.3248C86.7636 33.399 86.795 33.4658 86.8365 33.525C86.8784 33.584 86.9303 33.6299 86.9923 33.6625ZM87.9907 34.3422C87.9295 34.3099 87.874 34.2677 87.8242 34.2153C87.7743 34.1626 87.7347 34.1036 87.7054 34.0384C87.6761 33.9728 87.6614 33.9044 87.6614 33.8334C87.6614 33.7709 87.6723 33.726 87.6941 33.6986C87.7159 33.6708 87.745 33.6554 87.7814 33.6523C87.8179 33.6493 87.8581 33.6539 87.9021 33.6662C87.9465 33.6782 87.9911 33.6928 88.0359 33.7098C88.0945 33.7321 88.1421 33.7508 88.1785 33.7658C88.2154 33.7804 88.2422 33.7868 88.2589 33.7847C88.2761 33.7829 88.2847 33.7685 88.2847 33.7415V33.7358C88.2847 33.6657 88.2677 33.6023 88.2338 33.5456C88.2003 33.4891 88.1494 33.4429 88.0811 33.4069C88.0103 33.3696 87.9548 33.3579 87.9146 33.3717C87.8744 33.3855 87.8461 33.408 87.8298 33.4392L87.6891 33.3082C87.7142 33.2552 87.7477 33.2212 87.7896 33.2064C87.8319 33.1913 87.878 33.1895 87.9278 33.2011C87.9781 33.2124 88.0275 33.2309 88.0761 33.2565C88.1071 33.2729 88.1427 33.2959 88.1829 33.3256C88.2235 33.3551 88.2627 33.3925 88.3004 33.438C88.3385 33.4836 88.3701 33.5389 88.3953 33.6037C88.4204 33.6686 88.433 33.7443 88.433 33.831V34.5497L88.2847 34.4716V34.3239L88.2772 34.3199C88.2671 34.3383 88.2503 34.3548 88.2269 34.3694C88.2034 34.384 88.1722 34.3905 88.1333 34.3889C88.0943 34.3873 88.0468 34.3717 87.9907 34.3422ZM88.0133 34.2035C88.0719 34.2344 88.1213 34.2475 88.1615 34.2426C88.2022 34.238 88.2328 34.2205 88.2533 34.1901C88.2742 34.16 88.2847 34.1221 88.2847 34.0767V33.9233C88.2784 33.9285 88.2646 33.929 88.2432 33.9249C88.2223 33.9205 88.198 33.9136 88.1703 33.9042C88.1431 33.8946 88.1165 33.8848 88.0905 33.8749C88.065 33.8648 88.0443 33.8567 88.0283 33.8507C87.9898 33.836 87.9538 33.8263 87.9203 33.8214C87.8872 33.8163 87.8604 33.8209 87.8399 33.8351C87.8198 33.8492 87.8097 33.8775 87.8097 33.9201C87.8097 33.9783 87.8288 34.0324 87.8669 34.0823C87.9054 34.132 87.9542 34.1724 88.0133 34.2035ZM88.7646 35.1336C88.7394 35.1203 88.717 35.1062 88.6973 35.0911C88.6776 35.0764 88.664 35.065 88.6565 35.0567L88.6942 34.9289C88.7302 34.9583 88.762 34.9789 88.7897 34.9906C88.8173 35.0023 88.8418 35.0013 88.8632 34.9874C88.885 34.9743 88.9049 34.9448 88.9229 34.8989L88.9505 34.8282L88.5937 33.5435L88.7545 33.6283L89.0209 34.638L89.0309 34.6433L89.2973 33.9144L89.4582 33.9992L89.0485 35.0333C89.0301 35.0799 89.0073 35.1145 88.9801 35.1371C88.9528 35.1602 88.9212 35.1712 88.8852 35.1702C88.8496 35.1694 88.8094 35.1572 88.7646 35.1336Z" fill="black"/>
<path d="M134.681 62.7483C134.629 62.6476 134.563 62.5428 134.49 62.4293L134.489 62.4278C134.409 62.3072 134.329 62.1187 134.252 61.9053C134.134 61.5834 134.02 61.2072 133.829 60.8445C133.732 60.6632 133.613 60.4822 133.456 60.3167C133.299 60.1512 133.103 60.0057 132.883 59.9092C132.587 59.7761 132.338 59.7724 132.161 59.8489C131.895 59.9631 131.755 60.2198 131.629 60.4592C131.508 60.7005 131.395 60.9293 131.273 61.0032L131.272 61.0036C131.199 61.0522 131.134 61.099 131.081 61.1529C131.03 61.2079 130.985 61.2682 130.984 61.3742C130.98 61.4684 131.041 61.6026 131.128 61.6987C131.257 61.845 131.41 61.9472 131.627 62.0742C131.81 62.179 132.042 62.2963 132.333 62.4323C132.417 62.6649 132.631 62.8987 132.883 63.0106C133.134 63.1218 133.346 63.0759 133.43 62.9171C133.834 63.086 134.125 63.192 134.333 63.2387C134.452 63.2643 134.55 63.2753 134.635 63.2527C134.722 63.2331 134.783 63.1535 134.78 63.0559C134.778 62.9492 134.733 62.8482 134.681 62.7483ZM134.085 62.7897C133.937 62.7445 133.732 62.6676 133.469 62.5586V62.5567L133.25 62.467L133.247 62.4659C133.138 62.421 133.016 62.3667 132.883 62.3083C132.747 62.248 132.625 62.1937 132.515 62.1417L132.513 62.1406L132.295 62.0369V62.038C131.932 61.8669 131.678 61.7308 131.535 61.635C131.472 61.5939 131.439 61.5653 131.419 61.5472C131.426 61.5355 131.437 61.5197 131.456 61.5019C131.49 61.4684 131.543 61.4292 131.608 61.3866L131.607 61.387C131.741 61.2984 131.827 61.1555 131.91 61.0021C132.032 60.7717 132.144 60.5131 132.297 60.3627C132.374 60.2869 132.458 60.2394 132.55 60.2247C132.642 60.2108 132.743 60.2236 132.884 60.2854C133.068 60.3691 133.185 60.4732 133.303 60.6232C133.477 60.8471 133.613 61.1804 133.732 61.5212C133.856 61.8642 133.959 62.2073 134.157 62.5168L134.156 62.5153C134.226 62.6227 134.282 62.7139 134.315 62.7788L134.346 62.8451C134.308 62.8444 134.222 62.8335 134.085 62.7897Z" fill="black"/>
<path d="M99.8907 42.9071L100.17 43.0541L100.826 45.2109L100.848 45.2228L101.504 43.7575L101.783 43.9045V46.0863L101.564 45.9711V44.3134L101.546 44.3035L100.942 45.6433L100.731 45.532L100.128 43.5564L100.109 43.5465V45.2041L99.8907 45.0889V42.9071ZM102.829 46.6715C102.689 46.5979 102.569 46.4997 102.468 46.3768C102.367 46.2535 102.289 46.1146 102.235 45.9601C102.181 45.8052 102.154 45.6439 102.154 45.4763C102.154 45.3087 102.181 45.1752 102.235 45.0758C102.289 44.9761 102.365 44.916 102.463 44.8956C102.561 44.8748 102.675 44.8989 102.806 44.9678C102.881 45.0075 102.956 45.061 103.029 45.1281C103.103 45.1953 103.17 45.2767 103.23 45.3724C103.29 45.4674 103.338 45.5766 103.374 45.6998C103.41 45.8231 103.428 45.9611 103.428 46.1138V46.2203L102.312 45.6322V45.4149L103.202 45.8838C103.202 45.7915 103.185 45.7005 103.153 45.6108C103.121 45.5215 103.075 45.4401 103.015 45.3668C102.956 45.2937 102.886 45.236 102.806 45.1936C102.717 45.1469 102.641 45.1314 102.576 45.147C102.512 45.1622 102.463 45.2001 102.428 45.2608C102.393 45.3214 102.376 45.3968 102.376 45.487V45.6319C102.376 45.7555 102.395 45.8702 102.433 45.976C102.471 46.0814 102.524 46.1744 102.592 46.2549C102.66 46.3347 102.739 46.3982 102.829 46.4456C102.887 46.4764 102.94 46.495 102.987 46.5014C103.035 46.5073 103.076 46.5006 103.11 46.4812C103.145 46.4611 103.172 46.4276 103.19 46.3807L103.405 46.5621C103.383 46.6326 103.345 46.685 103.291 46.7193C103.238 46.753 103.172 46.7665 103.093 46.7599C103.015 46.7526 102.927 46.7231 102.829 46.6715ZM104.373 47.4856C104.234 47.4121 104.113 47.3139 104.012 47.191C103.912 47.0677 103.834 46.9287 103.779 46.7742C103.725 46.6193 103.698 46.4581 103.698 46.2905C103.698 46.1228 103.725 45.9894 103.779 45.89C103.834 45.7903 103.91 45.7302 104.008 45.7098C104.106 45.689 104.22 45.713 104.351 45.7819C104.426 45.8217 104.5 45.8751 104.574 45.9423C104.647 46.0094 104.714 46.0909 104.775 46.1866C104.835 46.2816 104.883 46.3907 104.919 46.514C104.955 46.6373 104.973 46.7753 104.973 46.928V47.0345L103.857 46.4464V46.229L104.746 46.6979C104.746 46.6056 104.73 46.5146 104.697 46.425C104.665 46.3356 104.619 46.2543 104.56 46.1809C104.501 46.1079 104.431 46.0502 104.351 46.0078C104.262 45.9611 104.185 45.9455 104.121 45.9612C104.057 45.9764 104.007 46.0143 103.973 46.0749C103.938 46.1355 103.921 46.211 103.921 46.3012V46.446C103.921 46.5696 103.94 46.6843 103.977 46.7901C104.016 46.8955 104.069 46.9885 104.137 47.069C104.205 47.1488 104.283 47.2124 104.373 47.2598C104.432 47.2906 104.484 47.3091 104.532 47.3155C104.579 47.3215 104.62 47.3148 104.655 47.2954C104.69 47.2752 104.716 47.2417 104.735 47.1948L104.95 47.3763C104.927 47.4467 104.889 47.4991 104.836 47.5335C104.783 47.5671 104.717 47.5807 104.638 47.5741C104.559 47.5668 104.471 47.5373 104.373 47.4856ZM105.94 46.6412V46.8543L105.19 46.4589V46.2458L105.94 46.6412ZM105.409 45.969L105.631 46.0863V47.6459C105.631 47.7169 105.64 47.775 105.659 47.8201C105.678 47.8649 105.701 47.9009 105.73 47.9282C105.76 47.9551 105.791 47.9772 105.824 47.9944C105.848 48.0073 105.868 48.0165 105.884 48.0219C105.9 48.0267 105.912 48.0305 105.922 48.0333L105.967 48.283C105.952 48.2814 105.931 48.2767 105.904 48.2689C105.877 48.2617 105.842 48.2473 105.801 48.2254C105.738 48.1923 105.677 48.1446 105.616 48.0822C105.557 48.0202 105.507 47.9475 105.467 47.8642C105.428 47.7811 105.409 47.692 105.409 47.5969V45.969ZM106.275 48.4539V46.8176L106.497 46.9348V48.5712L106.275 48.4539ZM106.388 46.6045C106.345 46.5816 106.307 46.5452 106.276 46.4953C106.245 46.4457 106.23 46.3974 106.23 46.3506C106.23 46.3037 106.245 46.2717 106.276 46.2545C106.307 46.2377 106.345 46.2407 106.388 46.2636C106.431 46.2864 106.469 46.3226 106.499 46.3722C106.531 46.4222 106.546 46.4706 106.546 46.5175C106.546 46.5643 106.531 46.5962 106.499 46.613C106.469 46.6302 106.431 46.6273 106.388 46.6045ZM107.127 47.9188V48.9031L106.905 48.7859V47.1495L107.12 47.2628V47.5185L107.139 47.5284C107.172 47.4632 107.224 47.4236 107.293 47.4096C107.362 47.3949 107.451 47.4163 107.561 47.474C107.659 47.5256 107.745 47.5936 107.818 47.6778C107.892 47.7612 107.949 47.8596 107.99 47.9727C108.03 48.0851 108.051 48.211 108.051 48.3502V49.3899L107.828 49.2727V48.25C107.828 48.1214 107.799 48.0057 107.74 47.9029C107.681 47.7993 107.6 47.7203 107.497 47.666C107.426 47.6286 107.362 47.6126 107.306 47.6179C107.251 47.6236 107.207 47.6513 107.175 47.7012C107.143 47.7511 107.127 47.8236 107.127 47.9188ZM109.042 50.5599C108.934 50.5032 108.842 50.4389 108.765 50.3669C108.687 50.2957 108.623 50.2212 108.571 50.1437C108.52 50.0671 108.48 49.9925 108.45 49.9198L108.627 49.8725C108.647 49.913 108.672 49.9605 108.703 50.0151C108.734 50.0703 108.776 50.1263 108.83 50.1828C108.884 50.2404 108.954 50.2922 109.042 50.3383C109.158 50.3999 109.255 50.4187 109.331 50.3949C109.407 50.371 109.445 50.2909 109.445 50.1546V49.8222L109.426 49.8123C109.41 49.8335 109.387 49.8581 109.356 49.8863C109.327 49.914 109.284 49.9302 109.228 49.9349C109.173 49.9391 109.098 49.9164 109.004 49.8667C108.887 49.8051 108.782 49.7185 108.689 49.607C108.597 49.4959 108.524 49.3664 108.47 49.2186C108.416 49.0711 108.389 48.9121 108.389 48.7417C108.389 48.5741 108.415 48.4419 108.468 48.3451C108.52 48.2475 108.592 48.1892 108.685 48.17C108.778 48.1502 108.886 48.1723 109.008 48.2366C109.102 48.2863 109.177 48.3434 109.232 48.4081C109.288 48.4724 109.331 48.5346 109.36 48.595C109.39 48.6549 109.414 48.7034 109.43 48.7404L109.452 48.7523V48.4924L109.667 48.6056V50.2888C109.667 50.4295 109.639 50.5289 109.583 50.5872C109.527 50.6465 109.451 50.6717 109.356 50.6629C109.262 50.6552 109.157 50.6208 109.042 50.5599ZM109.034 49.6567C109.123 49.7038 109.199 49.7204 109.26 49.7067C109.322 49.693 109.369 49.6513 109.401 49.5815C109.433 49.5118 109.449 49.4165 109.449 49.2958C109.449 49.1779 109.433 49.0655 109.402 48.9588C109.37 48.852 109.324 48.7569 109.262 48.6733C109.201 48.5897 109.125 48.524 109.034 48.4763C108.94 48.4267 108.861 48.4123 108.798 48.4331C108.736 48.4543 108.689 48.5021 108.658 48.5764C108.627 48.6511 108.612 48.7439 108.612 48.8547C108.612 48.9683 108.628 49.0771 108.659 49.181C108.691 49.2845 108.738 49.3775 108.8 49.46C108.863 49.5422 108.941 49.6077 109.034 49.6567Z" fill="black"/>
<path d="M75.2337 35.9414L75.5127 36.0884L76.1686 38.2452L76.1912 38.2571L76.8472 36.7918L77.1262 36.9388V39.1207L76.9075 39.0054V37.3477L76.8887 37.3378L76.2855 38.6776L76.0744 38.5663L75.4712 36.5907L75.4524 36.5808V38.2384L75.2337 38.1232V35.9414ZM78.1716 39.7058C78.0321 39.6322 77.9118 39.534 77.8106 39.4111C77.7101 39.2878 77.6325 39.1489 77.5778 38.9944C77.5238 38.8395 77.4968 38.6782 77.4968 38.5106C77.4968 38.343 77.5238 38.2095 77.5778 38.1101C77.6325 38.0104 77.7085 37.9503 77.8059 37.9299C77.9039 37.9091 78.0183 37.9332 78.1489 38.0021C78.2243 38.0418 78.2988 38.0953 78.3723 38.1624C78.4458 38.2296 78.5127 38.311 78.573 38.4067C78.6334 38.5017 78.6814 38.6109 78.7172 38.7341C78.753 38.8574 78.7709 38.9954 78.7709 39.1481V39.2546L77.6551 38.6665V38.4492L78.5448 38.9181C78.5448 38.8258 78.5284 38.7348 78.4958 38.6451C78.4637 38.5558 78.4178 38.4744 78.3582 38.4011C78.2991 38.328 78.2294 38.2703 78.1489 38.2279C78.0603 38.1812 77.9837 38.1657 77.919 38.1813C77.8549 38.1965 77.8056 38.2344 77.771 38.2951C77.7365 38.3557 77.7192 38.4311 77.7192 38.5213V38.6662C77.7192 38.7898 77.738 38.9045 77.7757 39.0103C77.8141 39.1157 77.8671 39.2087 77.935 39.2892C78.0029 39.369 78.0817 39.4325 78.1716 39.4799C78.23 39.5107 78.2828 39.5293 78.3299 39.5357C78.3776 39.5416 78.4188 39.5349 78.4533 39.5155C78.4879 39.4954 78.5146 39.4619 78.5335 39.415L78.7483 39.5964C78.7257 39.6669 78.6877 39.7193 78.6343 39.7536C78.5809 39.7873 78.5149 39.8008 78.4364 39.7942C78.3578 39.7869 78.2696 39.7574 78.1716 39.7058ZM79.7162 40.5199C79.5767 40.4464 79.4564 40.3482 79.3553 40.2253C79.2547 40.102 79.1771 39.9631 79.1225 39.8085C79.0684 39.6536 79.0414 39.4924 79.0414 39.3248C79.0414 39.1571 79.0684 39.0237 79.1225 38.9243C79.1771 38.8246 79.2532 38.7645 79.3506 38.7441C79.4486 38.7233 79.5629 38.7474 79.6936 38.8162C79.769 38.856 79.8434 38.9094 79.917 38.9766C79.9905 39.0437 80.0574 39.1252 80.1177 39.2209C80.178 39.3159 80.2261 39.425 80.2619 39.5483C80.2977 39.6716 80.3156 39.8096 80.3156 39.9623V40.0688L79.1998 39.4807V39.2633L80.0894 39.7323C80.0894 39.6399 80.0731 39.5489 80.0404 39.4593C80.0084 39.3699 79.9625 39.2886 79.9028 39.2152C79.8438 39.1422 79.774 39.0845 79.6936 39.0421C79.605 38.9954 79.5284 38.9798 79.4636 38.9955C79.3996 39.0107 79.3502 39.0486 79.3157 39.1092C79.2811 39.1698 79.2638 39.2453 79.2638 39.3355V39.4803C79.2638 39.6039 79.2827 39.7186 79.3204 39.8244C79.3587 39.9299 79.4118 40.0228 79.4797 40.1033C79.5475 40.1831 79.6264 40.2467 79.7162 40.2941C79.7746 40.3249 79.8274 40.3434 79.8745 40.3498C79.9223 40.3558 79.9635 40.3491 79.998 40.3297C80.0326 40.3095 80.0593 40.276 80.0781 40.2291L80.293 40.4106C80.2704 40.481 80.2324 40.5334 80.179 40.5678C80.1256 40.6014 80.0596 40.615 79.981 40.6084C79.9025 40.6011 79.8142 40.5716 79.7162 40.5199ZM81.2835 39.6755V39.8886L80.5333 39.4932V39.2801L81.2835 39.6755ZM80.752 39.0033L80.9744 39.1206V40.6802C80.9744 40.7512 80.9835 40.8093 81.0017 40.8544C81.0206 40.8992 81.0444 40.9352 81.0733 40.9625C81.1029 40.9894 81.134 41.0115 81.1666 41.0287C81.1911 41.0416 81.2112 41.0508 81.227 41.0563C81.2427 41.061 81.2552 41.0648 81.2647 41.0676L81.3099 41.3173C81.2948 41.3157 81.2738 41.311 81.2467 41.3032C81.2197 41.2961 81.1855 41.2816 81.144 41.2597C81.0812 41.2266 81.0196 41.1789 80.9593 41.1165C80.8996 41.0545 80.85 40.9818 80.8104 40.8985C80.7714 40.8154 80.752 40.7263 80.752 40.6312V39.0033ZM81.6181 41.4883V39.8519L81.8405 39.9691V41.6055L81.6181 41.4883ZM81.7312 39.6388C81.6878 39.6159 81.6504 39.5795 81.619 39.5296C81.5882 39.48 81.5728 39.4317 81.5728 39.3849C81.5728 39.338 81.5882 39.306 81.619 39.2888C81.6504 39.272 81.6878 39.275 81.7312 39.2979C81.7745 39.3207 81.8116 39.3569 81.8424 39.4065C81.8738 39.4565 81.8895 39.5049 81.8895 39.5518C81.8895 39.5986 81.8738 39.6305 81.8424 39.6473C81.8116 39.6645 81.7745 39.6616 81.7312 39.6388ZM82.4703 40.9531V41.9374L82.2479 41.8202V40.1838L82.4627 40.2971V40.5528L82.4816 40.5627C82.5155 40.4975 82.567 40.4579 82.6361 40.4439C82.7053 40.4292 82.7945 40.4506 82.9038 40.5083C83.0018 40.5599 83.0876 40.6279 83.1611 40.7121C83.2346 40.7955 83.2918 40.8939 83.3326 41.007C83.3734 41.1194 83.3939 41.2453 83.3939 41.3845V42.4242L83.1714 42.307V41.2843C83.1714 41.1557 83.1419 41.04 83.0829 40.9372C83.0238 40.8336 82.9427 40.7546 82.8397 40.7003C82.7687 40.6629 82.7053 40.6469 82.6493 40.6522C82.594 40.6579 82.5504 40.6856 82.5183 40.7355C82.4863 40.7854 82.4703 40.8579 82.4703 40.9531ZM84.3846 43.5942C84.2772 43.5375 84.1848 43.4732 84.1075 43.4012C84.0302 43.33 83.9658 43.2555 83.9143 43.178C83.8634 43.1014 83.8229 43.0268 83.7928 42.9541L83.9699 42.9068C83.99 42.9473 84.0155 42.9948 84.0463 43.0494C84.0771 43.1046 84.1192 43.1606 84.1726 43.2171C84.2266 43.2747 84.2973 43.3265 84.3846 43.3726C84.5015 43.4342 84.5979 43.453 84.6739 43.4292C84.75 43.4053 84.788 43.3252 84.788 43.1889V42.8565L84.7691 42.8466C84.7528 42.8678 84.7295 42.8925 84.6994 42.9206C84.6699 42.9483 84.6271 42.9645 84.5712 42.9692C84.5159 42.9734 84.4412 42.9507 84.3469 42.901C84.23 42.8394 84.1251 42.7529 84.0321 42.6413C83.9398 42.5302 83.8666 42.4007 83.8125 42.2529C83.7591 42.1054 83.7324 41.9464 83.7324 41.776C83.7324 41.6084 83.7585 41.4762 83.8107 41.3794C83.8628 41.2818 83.9354 41.2235 84.0284 41.2043C84.1214 41.1845 84.2288 41.2066 84.3507 41.2709C84.4449 41.3206 84.5197 41.3777 84.575 41.4424C84.6309 41.5067 84.6736 41.5689 84.7032 41.6293C84.7333 41.6892 84.7566 41.7377 84.7729 41.7747L84.7955 41.7866V41.5267L85.0104 41.6399V43.3232C85.0104 43.4638 84.9821 43.5632 84.9256 43.6215C84.8697 43.6808 84.7943 43.706 84.6994 43.6972C84.6051 43.6895 84.5002 43.6551 84.3846 43.5942ZM84.3771 42.691C84.4663 42.7381 84.5417 42.7547 84.6033 42.741C84.6648 42.7273 84.7116 42.6856 84.7437 42.6158C84.7757 42.5461 84.7917 42.4508 84.7917 42.3301C84.7917 42.2122 84.776 42.0998 84.7446 41.9931C84.7132 41.8863 84.6667 41.7912 84.6051 41.7076C84.5436 41.624 84.4675 41.5583 84.3771 41.5106C84.2828 41.461 84.2043 41.4466 84.1415 41.4674C84.0793 41.4886 84.0324 41.5364 84.001 41.6107C83.9702 41.6854 83.9549 41.7782 83.9549 41.889C83.9549 42.0026 83.9706 42.1114 84.002 42.2153C84.034 42.3188 84.0811 42.4118 84.1433 42.4943C84.2062 42.5765 84.2841 42.642 84.3771 42.691Z" fill="black"/>
<path d="M96.031 36.3984V49.8474H96.3325V36.3984" fill="#8A939A"/>
<path d="M136.993 118.804L81.9463 89.7867C80.65 89.1035 79.5991 87.2704 79.5991 85.6927V71.6784C79.5991 70.1007 80.65 69.3752 81.9463 70.0583L136.993 99.0756C138.289 99.7588 139.339 101.592 139.339 103.17V117.184C139.339 118.762 138.289 119.487 136.993 118.804Z" fill="#99A9E5"/>
<path d="M85.8832 88.1668L85.7036 88.1242L86.2233 86.7929L86.4002 86.8348L86.9199 88.4126L86.7402 88.37L86.3172 87.0453L86.3062 87.0427L85.8832 88.1668ZM85.9496 87.6144L86.6738 87.7861V87.9423L85.9496 87.7706V87.6144ZM87.1403 87.0103L87.3449 87.0588L87.8258 88.3802L87.8424 88.3841L88.3234 87.2908L88.528 87.3393V88.7938L88.3676 88.7558V87.6507L88.3538 87.6474L87.9115 88.6477L87.7567 88.611L87.3145 87.401L87.3006 87.3977V88.5029L87.1403 88.4648V87.0103Z" fill="black"/>
<path d="M85.3503 80.1415V82.3233L85.1166 82.2001V80.2953L85.1052 80.2893L84.634 80.3947V80.1262L85.1166 80.0183L85.3503 80.1415ZM86.5349 82.9776C86.3929 82.9027 86.272 82.7953 86.1721 82.6553C86.0722 82.5145 85.9959 82.3468 85.9431 82.1521C85.8903 81.9567 85.8639 81.7403 85.8639 81.5031C85.8639 81.2673 85.8903 81.0799 85.9431 80.9408C85.9965 80.8013 86.0731 80.7139 86.173 80.6785C86.2736 80.6427 86.3942 80.6619 86.5349 80.7361C86.6757 80.8103 86.796 80.9181 86.8959 81.0595C86.9964 81.2005 87.0731 81.3688 87.1258 81.5642C87.1792 81.7593 87.2059 81.9747 87.2059 82.2105C87.2059 82.4477 87.1796 82.6362 87.1268 82.776C87.074 82.9151 86.9977 83.0023 86.8978 83.0378C86.7979 83.0725 86.6769 83.0524 86.5349 82.9776ZM86.5349 82.7432C86.6757 82.8174 86.785 82.7983 86.8629 82.6859C86.9408 82.5736 86.9798 82.3754 86.9798 82.0913C86.9798 81.9024 86.9619 81.732 86.926 81.5804C86.8909 81.429 86.84 81.301 86.7734 81.1963C86.7074 81.0919 86.6279 81.0152 86.5349 80.9662C86.3954 80.8927 86.2864 80.913 86.2079 81.0271C86.1294 81.1406 86.0901 81.339 86.0901 81.6223C86.0901 81.8113 86.1077 81.9811 86.1429 82.1317C86.1781 82.2823 86.2286 82.4095 86.2946 82.5132C86.3612 82.6172 86.4413 82.6938 86.5349 82.7432ZM87.6626 83.5591C87.6161 83.5346 87.5762 83.4948 87.5429 83.4396C87.5096 83.3844 87.4929 83.3305 87.4929 83.2779C87.4929 83.2254 87.5096 83.1891 87.5429 83.169C87.5762 83.1489 87.6161 83.1511 87.6626 83.1756C87.7091 83.2001 87.749 83.24 87.7823 83.2951C87.8156 83.3503 87.8322 83.4042 87.8322 83.4568C87.8322 83.4916 87.8243 83.5194 87.8086 83.5402C87.7936 83.5614 87.7731 83.5741 87.7474 83.5783C87.7223 83.5821 87.694 83.5757 87.6626 83.5591ZM88.7897 84.166C88.6477 84.0912 88.5268 83.9837 88.4269 83.8437C88.327 83.703 88.2506 83.5353 88.1979 83.3406C88.1451 83.1451 88.1187 82.9288 88.1187 82.6916C88.1187 82.4558 88.1451 82.2684 88.1979 82.1293C88.2513 81.9898 88.3279 81.9024 88.4278 81.8669C88.5284 81.8312 88.649 81.8503 88.7897 81.9245C88.9305 81.9987 89.0508 82.1065 89.1507 82.248C89.2512 82.389 89.3279 82.5572 89.3806 82.7527C89.434 82.9477 89.4607 83.1632 89.4607 83.3989C89.4607 83.6362 89.4344 83.8247 89.3816 83.9645C89.3288 84.1036 89.2525 84.1908 89.1526 84.2262C89.0527 84.2609 88.9317 84.2409 88.7897 84.166ZM88.7897 83.9316C88.9305 84.0058 89.0398 83.9867 89.1177 83.8744C89.1956 83.762 89.2346 83.5638 89.2346 83.2797C89.2346 83.0908 89.2167 82.9205 89.1808 82.7688C89.1457 82.6175 89.0948 82.4894 89.0282 82.3847C88.9622 82.2803 88.8827 82.2037 88.7897 82.1546C88.6502 82.0811 88.5412 82.1014 88.4627 82.2156C88.3842 82.329 88.3449 82.5274 88.3449 82.8108C88.3449 82.9997 88.3625 83.1695 88.3977 83.3202C88.4329 83.4708 88.4834 83.598 88.5494 83.7016C88.616 83.8056 88.6961 83.8823 88.7897 83.9316ZM90.4484 85.0403C90.3064 84.9654 90.1855 84.858 90.0856 84.718C89.9857 84.5773 89.9093 84.4095 89.8566 84.2148C89.8038 84.0194 89.7774 83.8031 89.7774 83.5659C89.7774 83.3301 89.8038 83.1426 89.8566 83.0035C89.91 82.8641 89.9866 82.7766 90.0865 82.7412C90.1871 82.7054 90.3077 82.7246 90.4484 82.7988C90.5892 82.873 90.7095 82.9808 90.8094 83.1222C90.9099 83.2633 90.9866 83.4315 91.0393 83.6269C91.0927 83.822 91.1194 84.0374 91.1194 84.2732C91.1194 84.5104 91.0931 84.6989 91.0403 84.8387C90.9875 84.9778 90.9112 85.0651 90.8113 85.1005C90.7114 85.1352 90.5904 85.1151 90.4484 85.0403ZM90.4484 84.8059C90.5892 84.8801 90.6985 84.861 90.7764 84.7487C90.8543 84.6363 90.8933 84.4381 90.8933 84.154C90.8933 83.9651 90.8754 83.7948 90.8395 83.6431C90.8044 83.4917 90.7535 83.3637 90.6869 83.259C90.6209 83.1546 90.5414 83.0779 90.4484 83.0289C90.3089 82.9554 90.1999 82.9757 90.1214 83.0899C90.0429 83.2033 90.0036 83.4017 90.0036 83.6851C90.0036 83.874 90.0212 84.0438 90.0564 84.1944C90.0916 84.3451 90.1421 84.4722 90.2081 84.5759C90.2747 84.6799 90.3548 84.7566 90.4484 84.8059Z" fill="black"/>
<path d="M135.745 108.85C135.681 108.703 135.6 108.55 135.51 108.385L135.509 108.382C135.411 108.206 135.312 107.931 135.218 107.619C135.073 107.149 134.934 106.6 134.699 106.07C134.58 105.806 134.435 105.541 134.242 105.3C134.049 105.058 133.808 104.846 133.539 104.705C133.176 104.51 132.87 104.505 132.653 104.617C132.326 104.783 132.154 105.158 132 105.508C131.851 105.86 131.713 106.194 131.563 106.302L131.562 106.303C131.472 106.374 131.392 106.442 131.328 106.521C131.265 106.601 131.21 106.69 131.208 106.844C131.203 106.981 131.278 107.177 131.384 107.318C131.543 107.531 131.731 107.681 131.998 107.866C132.221 108.019 132.507 108.19 132.864 108.389C132.967 108.729 133.229 109.07 133.539 109.233C133.847 109.396 134.107 109.329 134.209 109.097C134.705 109.344 135.063 109.498 135.318 109.567C135.464 109.604 135.584 109.62 135.689 109.587C135.795 109.559 135.87 109.443 135.866 109.3C135.864 109.144 135.808 108.997 135.745 108.85ZM135.013 108.911C134.832 108.845 134.58 108.733 134.257 108.573V108.571L133.989 108.44L133.985 108.438C133.851 108.373 133.701 108.293 133.539 108.208C133.371 108.12 133.221 108.041 133.087 107.965L133.084 107.963L132.816 107.812V107.814C132.372 107.564 132.06 107.365 131.884 107.225C131.807 107.165 131.766 107.123 131.743 107.097C131.751 107.08 131.764 107.057 131.787 107.031C131.829 106.982 131.894 106.925 131.973 106.863L131.972 106.863C132.137 106.734 132.242 106.525 132.344 106.301C132.494 105.965 132.632 105.587 132.82 105.368C132.913 105.257 133.016 105.188 133.129 105.166C133.243 105.146 133.366 105.165 133.539 105.255C133.765 105.377 133.909 105.529 134.054 105.748C134.267 106.075 134.434 106.562 134.58 107.06C134.732 107.561 134.858 108.062 135.102 108.513L135.101 108.511C135.186 108.668 135.255 108.801 135.296 108.896L135.334 108.993C135.287 108.991 135.181 108.975 135.013 108.911Z" fill="black"/>
<path d="M100.124 87.4249V89.6067L99.8907 89.4835V87.3017L100.124 87.4249ZM100.785 88.9707V89.9551L100.563 89.8378V88.2015L100.778 88.3147V88.5704L100.797 88.5804C100.831 88.5151 100.882 88.4755 100.951 88.4615C101.02 88.4468 101.11 88.4683 101.219 88.5259C101.317 88.5776 101.403 88.6455 101.476 88.7297C101.55 88.8132 101.607 88.9115 101.648 89.0247C101.688 89.1371 101.709 89.2629 101.709 89.4021V90.4419L101.486 90.3247V89.3019C101.486 89.1734 101.457 89.0577 101.398 88.9548C101.339 88.8512 101.258 88.7723 101.155 88.718C101.084 88.6806 101.02 88.6645 100.964 88.6698C100.909 88.6755 100.865 88.7033 100.833 88.7531C100.801 88.803 100.785 88.8755 100.785 88.9707ZM103.141 89.9267L102.941 89.8853C102.928 89.841 102.91 89.7947 102.885 89.7462C102.861 89.6974 102.829 89.6504 102.787 89.6051C102.746 89.5598 102.693 89.5201 102.628 89.486C102.539 89.4393 102.466 89.4235 102.407 89.4385C102.348 89.4532 102.319 89.4956 102.319 89.566C102.319 89.6285 102.339 89.6884 102.379 89.7458C102.419 89.8032 102.482 89.8665 102.568 89.9357L102.783 90.1087C102.912 90.2124 103.008 90.3175 103.072 90.4241C103.135 90.53 103.167 90.6402 103.167 90.7545C103.167 90.8483 103.143 90.9195 103.095 90.9682C103.048 91.0172 102.982 91.0407 102.898 91.0386C102.813 91.0365 102.714 91.0058 102.602 90.9465C102.454 90.8687 102.332 90.7681 102.235 90.6446C102.138 90.5212 102.077 90.3831 102.051 90.2303L102.262 90.2819C102.282 90.3806 102.32 90.4666 102.376 90.5402C102.433 90.614 102.507 90.6749 102.598 90.7229C102.702 90.7776 102.784 90.7961 102.845 90.7785C102.906 90.7605 102.937 90.7164 102.937 90.6461C102.937 90.5893 102.92 90.5324 102.884 90.4755C102.849 90.4179 102.795 90.3603 102.722 90.3027L102.481 90.1116C102.348 90.0062 102.251 89.8999 102.189 89.7925C102.127 89.6848 102.096 89.5744 102.096 89.4615C102.096 89.3692 102.119 89.2996 102.165 89.2527C102.212 89.2062 102.275 89.1838 102.355 89.1853C102.435 89.1872 102.526 89.215 102.628 89.2687C102.771 89.3442 102.884 89.439 102.965 89.553C103.048 89.6674 103.106 89.792 103.141 89.9267ZM103.502 92.0006V89.7506L103.717 89.8638V90.1238L103.743 90.1377C103.76 90.1179 103.782 90.0936 103.811 90.0648C103.841 90.0356 103.883 90.018 103.937 90.012C103.993 90.0057 104.067 90.0273 104.162 90.077C104.284 90.1412 104.391 90.2323 104.484 90.3502C104.577 90.4681 104.649 90.604 104.702 90.7579C104.754 90.9118 104.78 91.0747 104.78 91.2466C104.78 91.4199 104.754 91.5564 104.702 91.656C104.649 91.7549 104.577 91.8149 104.485 91.8358C104.393 91.856 104.286 91.8343 104.165 91.7707C104.072 91.7217 103.998 91.6651 103.942 91.6008C103.886 91.5358 103.843 91.473 103.813 91.4124C103.783 91.351 103.76 91.3011 103.743 91.2627L103.724 91.2527V92.1178L103.502 92.0006ZM103.721 90.684C103.721 90.8076 103.737 90.925 103.769 91.0364C103.801 91.147 103.847 91.2452 103.909 91.3309C103.971 91.4159 104.046 91.482 104.135 91.529C104.228 91.578 104.306 91.5912 104.368 91.5686C104.431 91.5456 104.478 91.4951 104.509 91.4172C104.541 91.339 104.557 91.2416 104.557 91.1251C104.557 91.0101 104.542 90.8981 104.51 90.7892C104.48 90.6799 104.433 90.5817 104.37 90.4947C104.308 90.4072 104.229 90.3386 104.135 90.2889C104.045 90.2412 103.969 90.2271 103.907 90.2465C103.846 90.2652 103.799 90.3124 103.768 90.3882C103.736 90.4632 103.721 90.5618 103.721 90.684ZM105.726 92.5933C105.587 92.5198 105.466 92.4216 105.365 92.2987C105.265 92.1754 105.187 92.0365 105.132 91.882C105.078 91.7271 105.051 91.5658 105.051 91.3982C105.051 91.2306 105.078 91.0971 105.132 90.9977C105.187 90.898 105.263 90.8379 105.36 90.8175C105.458 90.7967 105.573 90.8208 105.703 90.8897C105.779 90.9294 105.853 90.9828 105.927 91.05C106 91.1172 106.067 91.1986 106.128 91.2943C106.188 91.3893 106.236 91.4984 106.272 91.6217C106.308 91.745 106.325 91.883 106.325 92.0357V92.1422L105.21 91.5541V91.3368L106.099 91.8057C106.099 91.7133 106.083 91.6223 106.05 91.5327C106.018 91.4434 105.972 91.362 105.913 91.2886C105.854 91.2156 105.784 91.1579 105.703 91.1155C105.615 91.0688 105.538 91.0533 105.474 91.0689C105.409 91.0841 105.36 91.122 105.326 91.1827C105.291 91.2433 105.274 91.3187 105.274 91.4089V91.5538C105.274 91.6773 105.293 91.792 105.33 91.8978C105.369 92.0033 105.422 92.0962 105.49 92.1768C105.557 92.2566 105.636 92.3201 105.726 92.3675C105.785 92.3983 105.837 92.4169 105.884 92.4232C105.932 92.4292 105.973 92.4225 106.008 92.4031C106.042 92.383 106.069 92.3494 106.088 92.3026L106.303 92.484C106.28 92.5545 106.242 92.6069 106.189 92.6412C106.135 92.6749 106.069 92.6884 105.991 92.6818C105.912 92.6745 105.824 92.645 105.726 92.5933ZM107.252 93.3976C107.116 93.326 106.999 93.2282 106.901 93.1041C106.803 92.98 106.728 92.8405 106.675 92.6855C106.622 92.5306 106.596 92.3714 106.596 92.2081C106.596 92.0419 106.623 91.9095 106.677 91.8108C106.732 91.7118 106.808 91.6521 106.905 91.6317C107.003 91.6109 107.117 91.6349 107.248 91.7038C107.35 91.7575 107.442 91.8271 107.523 91.9128C107.605 91.9985 107.672 92.0934 107.724 92.1976C107.776 92.3018 107.809 92.4083 107.821 92.5172L107.599 92.4C107.582 92.3165 107.544 92.2305 107.486 92.1422C107.428 92.0535 107.35 91.9833 107.252 91.9317C107.165 91.886 107.089 91.8715 107.024 91.8882C106.959 91.9045 106.909 91.9492 106.872 92.0223C106.836 92.0951 106.818 92.1932 106.818 92.3168C106.818 92.4432 106.836 92.5626 106.871 92.6749C106.907 92.7875 106.957 92.8868 107.022 92.9727C107.087 93.059 107.164 93.1254 107.252 93.1717C107.31 93.2022 107.362 93.2185 107.409 93.2206C107.456 93.2227 107.496 93.211 107.529 93.1857C107.562 93.1603 107.585 93.1214 107.599 93.069L107.821 93.1862C107.809 93.2762 107.777 93.3468 107.728 93.3981C107.679 93.4489 107.614 93.4757 107.533 93.4785C107.452 93.4808 107.359 93.4539 107.252 93.3976ZM108.776 92.5303V92.7434L108.026 92.348V92.1349L108.776 92.5303ZM108.244 91.8581L108.467 91.9754V93.535C108.467 93.6061 108.476 93.6641 108.494 93.7092C108.513 93.754 108.537 93.79 108.566 93.8173C108.595 93.8442 108.626 93.8663 108.659 93.8835C108.683 93.8964 108.704 93.9056 108.719 93.9111C108.735 93.9158 108.748 93.9196 108.757 93.9224L108.802 94.1721C108.787 94.1705 108.766 94.1658 108.739 94.158C108.712 94.1509 108.678 94.1364 108.636 94.1145C108.574 94.0814 108.512 94.0337 108.452 93.9713C108.392 93.9093 108.342 93.8366 108.303 93.7533C108.264 93.6702 108.244 93.5811 108.244 93.486V91.8581Z" fill="black"/>
<path d="M96.031 80.8033V94.2523H96.3325V80.8033" fill="#8A939A"/>
<path d="M136.993 141.013L81.9463 111.995C80.65 111.312 79.5991 109.479 79.5991 107.901V93.8871C79.5991 92.3094 80.65 91.5839 81.9463 92.2671L136.993 121.284C138.289 121.968 139.339 123.801 139.339 125.378V139.393C139.339 140.971 138.289 141.696 136.993 141.013Z" fill="#99A9E5"/>
<path d="M83.0375 107.231L82.8579 107.188L83.3775 105.857L83.5545 105.899L84.0741 107.477L83.8945 107.434L83.4715 106.109L83.4605 106.107L83.0375 107.231ZM83.1039 106.679L83.8281 106.85V107.007L83.1039 106.835V106.679ZM84.2946 106.075L84.4992 106.123L84.9801 107.444L84.9967 107.448L85.4777 106.355L85.6823 106.403V107.858L85.5219 107.82V106.715L85.5081 106.712L85.0658 107.712L84.911 107.675L84.4688 106.465L84.4549 106.462V107.567L84.2946 107.529V106.075Z" fill="black"/>
<path d="M135.745 131.052C135.681 130.905 135.6 130.752 135.51 130.587L135.509 130.584C135.411 130.408 135.312 130.133 135.218 129.821C135.073 129.351 134.934 128.802 134.699 128.272C134.58 128.008 134.435 127.743 134.242 127.502C134.049 127.26 133.808 127.048 133.539 126.907C133.176 126.712 132.87 126.707 132.653 126.819C132.326 126.985 132.154 127.36 132 127.71C131.851 128.062 131.713 128.396 131.563 128.504L131.562 128.505C131.472 128.576 131.392 128.644 131.328 128.723C131.265 128.803 131.21 128.891 131.208 129.046C131.203 129.183 131.278 129.379 131.384 129.52C131.543 129.733 131.731 129.883 131.998 130.068C132.221 130.221 132.507 130.392 132.864 130.591C132.967 130.93 133.229 131.271 133.539 131.436C133.847 131.598 134.107 131.531 134.209 131.299C134.705 131.546 135.063 131.7 135.318 131.769C135.464 131.806 135.584 131.822 135.689 131.789C135.795 131.761 135.87 131.645 135.866 131.502C135.864 131.346 135.808 131.199 135.745 131.052ZM135.013 131.113C134.832 131.047 134.58 130.935 134.257 130.776V130.773L133.989 130.642L133.985 130.641C133.851 130.575 133.701 130.496 133.539 130.41C133.371 130.322 133.221 130.243 133.087 130.167L133.084 130.166L132.816 130.014V130.016C132.372 129.766 132.06 129.568 131.884 129.428C131.807 129.368 131.766 129.326 131.743 129.3C131.751 129.283 131.764 129.259 131.787 129.234C131.829 129.185 131.894 129.127 131.973 129.065L131.972 129.066C132.137 128.937 132.242 128.728 132.344 128.504C132.494 128.168 132.632 127.79 132.82 127.571C132.913 127.46 133.016 127.391 133.129 127.37C133.243 127.349 133.366 127.368 133.539 127.458C133.765 127.58 133.909 127.732 134.054 127.951C134.267 128.278 134.434 128.765 134.58 129.263C134.732 129.764 134.858 130.265 135.102 130.717L135.101 130.714C135.186 130.871 135.255 131.004 135.296 131.099L135.334 131.196C135.287 131.193 135.181 131.177 135.013 131.113Z" fill="black"/>
<path d="M99.8907 111.689V109.507L100.124 109.63V111.578L101.022 112.051V112.285L99.8907 111.689ZM102.266 112.272V111.304L102.488 111.422V113.058L102.266 112.941V112.664L102.251 112.656C102.217 112.721 102.164 112.764 102.092 112.784C102.021 112.804 101.93 112.785 101.821 112.728C101.73 112.68 101.65 112.615 101.58 112.533C101.509 112.451 101.454 112.353 101.414 112.241C101.373 112.128 101.353 112.002 101.353 111.863V110.823L101.576 110.941V111.963C101.576 112.083 101.605 112.193 101.664 112.296C101.724 112.398 101.8 112.474 101.892 112.522C101.948 112.551 102.004 112.565 102.061 112.563C102.119 112.562 102.167 112.538 102.206 112.493C102.246 112.448 102.266 112.374 102.266 112.272ZM103.118 112.405V113.39L102.895 113.273V111.636L103.11 111.749V112.005L103.129 112.015C103.163 111.95 103.215 111.91 103.284 111.896C103.353 111.882 103.442 111.903 103.551 111.961C103.649 112.012 103.735 112.08 103.809 112.164C103.882 112.248 103.939 112.346 103.98 112.459C104.021 112.572 104.041 112.698 104.041 112.837V113.877L103.819 113.759V112.737C103.819 112.608 103.79 112.492 103.73 112.39C103.671 112.286 103.59 112.207 103.487 112.153C103.416 112.115 103.353 112.099 103.297 112.105C103.242 112.11 103.198 112.138 103.166 112.188C103.134 112.238 103.118 112.31 103.118 112.405ZM105.036 114.435C104.9 114.363 104.783 114.266 104.685 114.141C104.587 114.017 104.512 113.878 104.459 113.723C104.406 113.568 104.38 113.409 104.38 113.245C104.38 113.079 104.407 112.947 104.461 112.848C104.516 112.749 104.592 112.689 104.689 112.669C104.787 112.648 104.902 112.672 105.032 112.741C105.134 112.795 105.226 112.864 105.307 112.95C105.389 113.036 105.456 113.131 105.508 113.235C105.56 113.339 105.593 113.446 105.605 113.555L105.383 113.437C105.366 113.354 105.328 113.268 105.27 113.18C105.212 113.091 105.134 113.021 105.036 112.969C104.949 112.923 104.873 112.909 104.808 112.926C104.743 112.942 104.693 112.987 104.656 113.06C104.62 113.132 104.602 113.231 104.602 113.354C104.602 113.481 104.62 113.6 104.655 113.712C104.691 113.825 104.741 113.924 104.806 114.01C104.871 114.096 104.948 114.163 105.036 114.209C105.094 114.24 105.146 114.256 105.193 114.258C105.24 114.26 105.28 114.248 105.313 114.223C105.346 114.198 105.369 114.159 105.383 114.106L105.605 114.224C105.593 114.314 105.562 114.384 105.512 114.435C105.463 114.486 105.398 114.513 105.317 114.516C105.236 114.518 105.143 114.491 105.036 114.435ZM106.153 114.005V114.989L105.93 114.872V112.69L106.153 112.808V113.609L106.172 113.619C106.206 113.552 106.256 113.512 106.324 113.498C106.393 113.484 106.484 113.506 106.598 113.566C106.696 113.618 106.783 113.686 106.857 113.77C106.931 113.853 106.988 113.951 107.029 114.064C107.071 114.177 107.091 114.304 107.091 114.444V115.484L106.869 115.367V114.344C106.869 114.214 106.839 114.098 106.779 113.996C106.72 113.893 106.638 113.814 106.534 113.758C106.461 113.72 106.395 113.703 106.337 113.707C106.28 113.712 106.235 113.739 106.202 113.788C106.169 113.838 106.153 113.91 106.153 114.005Z" fill="black"/>
<path d="M96.031 103.005V116.455H96.3325V103.005" fill="#8A939A"/>
<path d="M144.238 105.842L62.8601 62.9451C60.944 61.935 59.3909 59.2249 59.3909 56.8925V36.1749C59.3909 33.8425 60.944 32.7702 62.8601 33.7803L144.238 76.6776C146.154 77.6877 147.707 80.3973 147.707 82.7302V103.448C147.707 105.781 146.154 106.853 144.238 105.842Z" fill="#3354CC"/>
<path d="M65.8776 47.6676V52.0313L65.4101 51.7849V47.9752L65.3875 47.9633L64.445 48.174V47.637L65.4101 47.4213L65.8776 47.6676ZM68.2469 53.3397C67.9629 53.1901 67.721 52.9752 67.5212 52.6952C67.3214 52.4137 67.1687 52.0783 67.0632 51.6888C66.9576 51.298 66.9048 50.8653 66.9048 50.3909C66.9048 49.9193 66.9576 49.5444 67.0632 49.2663C67.17 48.9873 67.3233 48.8125 67.5231 48.7416C67.7241 48.67 67.9654 48.7084 68.2469 48.8568C68.5283 49.0052 68.769 49.2208 68.9688 49.5036C69.1698 49.7857 69.3231 50.1222 69.4287 50.5131C69.5355 50.9032 69.5889 51.334 69.5889 51.8056C69.5889 52.2801 69.5361 52.6571 69.4306 52.9367C69.325 53.2148 69.1723 53.3893 68.9725 53.4602C68.7727 53.5296 68.5309 53.4894 68.2469 53.3397ZM68.2469 52.871C68.5283 53.0194 68.747 52.9812 68.9028 52.7565C69.0586 52.5318 69.1365 52.1354 69.1365 51.5672C69.1365 51.1894 69.1007 50.8487 69.0291 50.5454C68.9587 50.2427 68.8569 49.9866 68.7237 49.7772C68.5918 49.5684 68.4328 49.415 68.2469 49.317C67.9679 49.17 67.7499 49.2106 67.5928 49.4389C67.4357 49.6658 67.3572 50.0626 67.3572 50.6293C67.3572 51.0072 67.3924 51.3468 67.4628 51.648C67.5331 51.9493 67.6343 52.2037 67.7662 52.411C67.8994 52.619 68.0596 52.7723 68.2469 52.871ZM70.5021 54.5029C70.4091 54.4539 70.3293 54.3742 70.2627 54.2638C70.1961 54.1534 70.1628 54.0456 70.1628 53.9405C70.1628 53.8354 70.1961 53.7628 70.2627 53.7226C70.3293 53.6824 70.4091 53.6868 70.5021 53.7358C70.5951 53.7848 70.6749 53.8645 70.7415 53.9749C70.8081 54.0853 70.8414 54.1931 70.8414 54.2982C70.8414 54.3678 70.8257 54.4234 70.7943 54.4651C70.7641 54.5075 70.7233 54.5328 70.6718 54.5412C70.6215 54.5488 70.565 54.536 70.5021 54.5029ZM72.7565 55.7167C72.4725 55.567 72.2306 55.3521 72.0308 55.0721C71.831 54.7906 71.6783 54.4552 71.5727 54.0658C71.4672 53.6749 71.4144 53.2423 71.4144 52.7678C71.4144 52.2962 71.4672 51.9213 71.5727 51.6432C71.6796 51.3642 71.8329 51.1894 72.0327 51.1185C72.2337 51.047 72.475 51.0853 72.7565 51.2337C73.0379 51.3821 73.2786 51.5977 73.4784 51.8805C73.6794 52.1627 73.8327 52.4991 73.9383 52.89C74.0451 53.2801 74.0985 53.711 74.0985 54.1825C74.0985 54.657 74.0457 55.034 73.9402 55.3136C73.8346 55.5918 73.6819 55.7662 73.4821 55.8371C73.2823 55.9065 73.0404 55.8663 72.7565 55.7167ZM72.7565 55.2479C73.0379 55.3963 73.2566 55.3581 73.4124 55.1334C73.5682 54.9087 73.6461 54.5123 73.6461 53.9441C73.6461 53.5663 73.6103 53.2257 73.5387 52.9223C73.4683 52.6196 73.3665 52.3635 73.2333 52.1541C73.1014 51.9453 72.9424 51.792 72.7565 51.6939C72.4775 51.5469 72.2595 51.5875 72.1024 51.8158C71.9453 52.0427 71.8668 52.4395 71.8668 53.0063C71.8668 53.3841 71.902 53.7237 71.9723 54.025C72.0427 54.3263 72.1439 54.5806 72.2758 54.7879C72.409 54.9959 72.5692 55.1492 72.7565 55.2479ZM76.0738 57.4652C75.7899 57.3155 75.548 57.1007 75.3482 56.8206C75.1484 56.5392 74.9957 56.2037 74.8901 55.8143C74.7846 55.4234 74.7318 54.9908 74.7318 54.5164C74.7318 54.0448 74.7846 53.6699 74.8901 53.3917C74.997 53.1128 75.1503 52.9379 75.3501 52.8671C75.5511 52.7955 75.7924 52.8339 76.0738 52.9822C76.3553 53.1306 76.596 53.3462 76.7958 53.6291C76.9968 53.9112 77.1501 54.2477 77.2557 54.6385C77.3625 55.0286 77.4159 55.4595 77.4159 55.9311C77.4159 56.4055 77.3631 56.7825 77.2576 57.0621C77.152 57.3403 76.9993 57.5148 76.7995 57.5856C76.5997 57.655 76.3578 57.6149 76.0738 57.4652ZM76.0738 56.9964C76.3553 57.1448 76.574 57.1066 76.7298 56.8819C76.8856 56.6573 76.9635 56.2608 76.9635 55.6926C76.9635 55.3148 76.9277 54.9742 76.8561 54.6708C76.7857 54.3681 76.6839 54.112 76.5507 53.9026C76.4188 53.6939 76.2598 53.5405 76.0738 53.4425C75.7949 53.2954 75.5769 53.3361 75.4198 53.5643C75.2627 53.7912 75.1842 54.188 75.1842 54.7548C75.1842 55.1326 75.2194 55.4722 75.2897 55.7735C75.3601 56.0748 75.4613 56.3291 75.5932 56.5364C75.7264 56.7444 75.8866 56.8978 76.0738 56.9964Z" fill="white"/>
<path d="M82.5007 99.2023V101.384L82.2669 101.261V99.3561L82.2556 99.3501L81.7844 99.4554V99.187L82.2669 99.0791L82.5007 99.2023ZM83.6853 102.038C83.5433 101.963 83.4224 101.856 83.3225 101.716C83.2226 101.575 83.1462 101.408 83.0935 101.213C83.0407 101.017 83.0143 100.801 83.0143 100.564C83.0143 100.328 83.0407 100.141 83.0935 100.002C83.1469 99.8621 83.2235 99.7747 83.3234 99.7393C83.424 99.7035 83.5446 99.7227 83.6853 99.7969C83.8261 99.871 83.9464 99.9789 84.0463 100.12C84.1468 100.261 84.2235 100.43 84.2762 100.625C84.3296 100.82 84.3563 101.035 84.3563 101.271C84.3563 101.508 84.33 101.697 84.2772 101.837C84.2244 101.976 84.1481 102.063 84.0482 102.099C83.9483 102.133 83.8273 102.113 83.6853 102.038ZM83.6853 101.804C83.8261 101.878 83.9354 101.859 84.0133 101.747C84.0912 101.634 84.1302 101.436 84.1302 101.152C84.1302 100.963 84.1122 100.793 84.0764 100.641C84.0413 100.49 83.9904 100.362 83.9238 100.257C83.8578 100.153 83.7783 100.076 83.6853 100.027C83.5458 99.9535 83.4368 99.9738 83.3583 100.088C83.2798 100.201 83.2405 100.4 83.2405 100.683C83.2405 100.872 83.2581 101.042 83.2933 101.192C83.3284 101.343 83.379 101.47 83.445 101.574C83.5116 101.678 83.5917 101.755 83.6853 101.804ZM84.813 102.62C84.7665 102.595 84.7266 102.556 84.6933 102.5C84.66 102.445 84.6433 102.391 84.6433 102.339C84.6433 102.286 84.66 102.25 84.6933 102.23C84.7266 102.21 84.7665 102.212 84.813 102.236C84.8594 102.261 84.8993 102.301 84.9326 102.356C84.9659 102.411 84.9826 102.465 84.9826 102.518C84.9826 102.552 84.9747 102.58 84.959 102.601C84.944 102.622 84.9235 102.635 84.8978 102.639C84.8726 102.643 84.8444 102.636 84.813 102.62ZM85.9401 103.227C85.7981 103.152 85.6772 103.045 85.5773 102.905C85.4774 102.764 85.401 102.596 85.3483 102.401C85.2955 102.206 85.2691 101.99 85.2691 101.752C85.2691 101.517 85.2955 101.329 85.3483 101.19C85.4017 101.051 85.4783 100.963 85.5782 100.928C85.6787 100.892 85.7994 100.911 85.9401 100.985C86.0809 101.06 86.2012 101.167 86.3011 101.309C86.4016 101.45 86.4782 101.618 86.531 101.813C86.5844 102.009 86.6111 102.224 86.6111 102.46C86.6111 102.697 86.5847 102.885 86.532 103.025C86.4792 103.164 86.4029 103.252 86.303 103.287C86.2031 103.322 86.0821 103.302 85.9401 103.227ZM85.9401 102.992C86.0809 103.067 86.1902 103.048 86.2681 102.935C86.346 102.823 86.3849 102.625 86.3849 102.341C86.3849 102.152 86.367 101.981 86.3312 101.83C86.296 101.678 86.2452 101.55 86.1786 101.446C86.1126 101.341 86.0331 101.264 85.9401 101.215C85.8006 101.142 85.6916 101.162 85.6131 101.276C85.5346 101.39 85.4953 101.588 85.4953 101.872C85.4953 102.061 85.5129 102.23 85.5481 102.381C85.5832 102.532 85.6338 102.659 85.6998 102.762C85.7664 102.866 85.8465 102.943 85.9401 102.992ZM87.5988 104.101C87.4568 104.026 87.3359 103.919 87.236 103.779C87.1361 103.638 87.0597 103.47 87.007 103.276C86.9542 103.08 86.9278 102.864 86.9278 102.627C86.9278 102.391 86.9542 102.203 87.007 102.064C87.0604 101.925 87.137 101.837 87.2369 101.802C87.3374 101.766 87.4581 101.785 87.5988 101.86C87.7396 101.934 87.8599 102.042 87.9598 102.183C88.0603 102.324 88.1369 102.492 88.1897 102.688C88.2431 102.883 88.2698 103.098 88.2698 103.334C88.2698 103.571 88.2434 103.76 88.1907 103.9C88.1379 104.039 88.0616 104.126 87.9617 104.161C87.8618 104.196 87.7408 104.176 87.5988 104.101ZM87.5988 103.867C87.7396 103.941 87.8489 103.922 87.9268 103.809C88.0047 103.697 88.0436 103.499 88.0436 103.215C88.0436 103.026 88.0257 102.856 87.9899 102.704C87.9547 102.553 87.9039 102.424 87.8373 102.32C87.7713 102.215 87.6918 102.139 87.5988 102.09C87.4593 102.016 87.3503 102.036 87.2718 102.151C87.1932 102.264 87.154 102.462 87.154 102.746C87.154 102.935 87.1716 103.105 87.2068 103.255C87.2419 103.406 87.2925 103.533 87.3585 103.637C87.4251 103.741 87.5052 103.817 87.5988 103.867Z" fill="black"/>
<path d="M64.4834 59.3978L64.048 59.2568L65.3737 56.0289L65.8024 56.1678L66.9952 60.2113L66.5598 60.0703L65.591 56.6779L65.5642 56.6692L64.4834 59.3978ZM64.6701 58.0297L66.425 58.5981L66.4179 58.9886L64.6629 58.4203L64.6701 58.0297ZM67.5959 56.7486L68.0916 56.9091L69.2019 60.3046L69.2421 60.3176L70.4628 57.6771L70.9584 57.8376L70.892 61.4734L70.5035 61.3475L70.554 58.5852L70.5205 58.5744L69.3983 60.9896L69.0231 60.8681L68.0019 57.7587L67.9684 57.7479L67.9179 60.5102L67.5294 60.3844L67.5959 56.7486Z" fill="white"/>
<path d="M64.3546 40.5338L64.6335 40.6808L65.2895 42.8376L65.3121 42.8496L65.968 41.3842L66.247 41.5312V43.7131L66.0284 43.5978V41.9401L66.0095 41.9302L65.4063 43.27L65.1952 43.1587L64.5921 41.1831L64.5732 41.1732V42.8308L64.3546 42.7156V40.5338ZM67.2736 44.2882C67.1429 44.2193 67.0282 44.1238 66.9296 44.0014C66.8316 43.8795 66.7549 43.7407 66.6996 43.5851C66.6449 43.4299 66.6176 43.2678 66.6176 43.0987C66.6176 42.9283 66.6449 42.7939 66.6996 42.6956C66.7549 42.5976 66.8316 42.5393 66.9296 42.5206C67.0282 42.5023 67.1429 42.5276 67.2736 42.5965C67.4042 42.6653 67.5186 42.7608 67.6166 42.8827C67.7152 43.0051 67.7919 43.1442 67.8466 43.3001C67.9019 43.4564 67.9295 43.6198 67.9295 43.7902C67.9295 43.9592 67.9019 44.0924 67.8466 44.1897C67.7919 44.2873 67.7152 44.3453 67.6166 44.3636C67.5186 44.3822 67.4042 44.3571 67.2736 44.2882ZM67.2736 44.0624C67.3728 44.1147 67.4545 44.129 67.5186 44.1052C67.5827 44.0815 67.6301 44.0308 67.6609 43.9533C67.6917 43.8758 67.7071 43.7824 67.7071 43.673C67.7071 43.5636 67.6917 43.4536 67.6609 43.3429C67.6301 43.2322 67.5827 43.1308 67.5186 43.0388C67.4545 42.9468 67.3728 42.8746 67.2736 42.8223C67.1743 42.77 67.0926 42.7561 67.0285 42.7805C66.9644 42.805 66.917 42.8563 66.8862 42.9346C66.8554 43.0128 66.84 43.1066 66.84 43.216C66.84 43.3253 66.8554 43.435 66.8862 43.545C66.917 43.655 66.9644 43.7556 67.0285 43.8469C67.0926 43.9382 67.1743 44.0101 67.2736 44.0624ZM68.4914 43.9117V44.8961L68.269 44.7788V43.1425L68.4839 43.2557V43.5114L68.5027 43.5213C68.5367 43.4561 68.5882 43.4165 68.6573 43.4025C68.7264 43.3878 68.8156 43.4093 68.925 43.4669C69.023 43.5185 69.1087 43.5865 69.1822 43.6707C69.2557 43.7542 69.3129 43.8525 69.3538 43.9656C69.3946 44.0781 69.415 44.2039 69.415 44.3431V45.3829L69.1926 45.2656V44.2429C69.1926 44.1143 69.1631 43.9986 69.104 43.8958C69.045 43.7922 68.9639 43.7133 68.8609 43.659C68.7899 43.6215 68.7264 43.6055 68.6705 43.6108C68.6152 43.6165 68.5715 43.6442 68.5395 43.6941C68.5074 43.744 68.4914 43.8165 68.4914 43.9117ZM70.3681 45.9193C70.2474 45.8557 70.1409 45.7651 70.0486 45.6475C69.9562 45.5293 69.884 45.3932 69.8318 45.2393C69.7797 45.0846 69.7536 44.9207 69.7536 44.7474C69.7536 44.5755 69.7797 44.4401 69.8318 44.3412C69.884 44.2422 69.9565 44.1828 70.0495 44.163C70.1425 44.1431 70.2499 44.1653 70.3718 44.2295C70.4661 44.2792 70.5405 44.3362 70.5952 44.4005C70.6505 44.4644 70.6926 44.5264 70.7215 44.5864C70.751 44.646 70.7739 44.6943 70.7903 44.7313L70.8091 44.7412V43.9358L71.0315 44.0531V46.2349L70.8167 46.1216V45.8702L70.7903 45.8563C70.7739 45.8775 70.7507 45.9029 70.7205 45.9325C70.6904 45.9613 70.6473 45.9788 70.5914 45.9848C70.5355 45.9901 70.4611 45.9683 70.3681 45.9193ZM70.3982 45.7093C70.4874 45.7563 70.5628 45.7698 70.6244 45.7497C70.686 45.7289 70.7328 45.6801 70.7648 45.6032C70.7969 45.5256 70.8129 45.4251 70.8129 45.3015C70.8129 45.1793 70.7972 45.0641 70.7658 44.956C70.7344 44.8471 70.6879 44.7508 70.6263 44.6672C70.5647 44.5829 70.4887 44.517 70.3982 44.4693C70.304 44.4196 70.2254 44.4055 70.1626 44.4271C70.1004 44.4483 70.0536 44.4971 70.0222 44.5736C69.9914 44.6497 69.976 44.7453 69.976 44.8604C69.976 44.9768 69.9917 45.0909 70.0231 45.2027C70.0552 45.314 70.1023 45.4141 70.1645 45.503C70.2273 45.5915 70.3052 45.6603 70.3982 45.7093ZM71.8958 46.7288C71.804 46.6804 71.7208 46.617 71.646 46.5385C71.5713 46.4594 71.5119 46.3709 71.4679 46.2731C71.4239 46.1747 71.4019 46.0722 71.4019 45.9656C71.4019 45.8719 71.4183 45.8045 71.4509 45.7635C71.4836 45.7217 71.5273 45.6986 71.5819 45.694C71.6366 45.6895 71.6969 45.6964 71.7629 45.7148C71.8295 45.7329 71.8964 45.7547 71.9636 45.7802C72.0516 45.8137 72.1229 45.8417 72.1776 45.8641C72.2328 45.8862 72.2731 45.8957 72.2982 45.8926C72.3239 45.8898 72.3368 45.8682 72.3368 45.8277V45.8192C72.3368 45.7141 72.3114 45.619 72.2605 45.5339C72.2102 45.4492 72.1339 45.3798 72.0315 45.3259C71.9253 45.2699 71.842 45.2523 71.7817 45.2731C71.7214 45.2938 71.679 45.3276 71.6545 45.3743L71.4434 45.1778C71.4811 45.0983 71.5314 45.0473 71.5942 45.0251C71.6576 45.0024 71.7268 44.9998 71.8015 45.0172C71.8769 45.0342 71.9511 45.0619 72.0239 45.1003C72.0704 45.1248 72.1238 45.1593 72.1842 45.2039C72.2451 45.2481 72.3038 45.3043 72.3604 45.3724C72.4176 45.4409 72.465 45.5238 72.5027 45.6211C72.5404 45.7184 72.5592 45.832 72.5592 45.962V47.0401L72.3368 46.9229V46.7013L72.3255 46.6953C72.3104 46.7229 72.2853 46.7476 72.2501 46.7696C72.2149 46.7915 72.1681 46.8013 72.1097 46.7989C72.0513 46.7965 71.98 46.7731 71.8958 46.7288ZM71.9297 46.5208C72.0177 46.5672 72.0918 46.5867 72.1521 46.5794C72.2131 46.5725 72.2589 46.5462 72.2897 46.5007C72.3211 46.4554 72.3368 46.3987 72.3368 46.3306V46.1004C72.3274 46.1083 72.3067 46.109 72.2746 46.1028C72.2432 46.0962 72.2068 46.0859 72.1653 46.0718C72.1245 46.0574 72.0846 46.0428 72.0456 46.0279C72.0073 46.0127 71.9762 46.0006 71.9523 45.9915C71.8945 45.9696 71.8405 45.9549 71.7902 45.9476C71.7406 45.9399 71.7004 45.9468 71.6696 45.9682C71.6394 45.9892 71.6243 46.0317 71.6243 46.0956C71.6243 46.183 71.6529 46.2641 71.7101 46.339C71.7679 46.4135 71.8411 46.4741 71.9297 46.5208ZM73.0566 47.9159C73.0189 47.896 72.9853 47.8748 72.9558 47.8521C72.9262 47.8301 72.9058 47.813 72.8945 47.8006L72.9511 47.6089C73.0051 47.653 73.0528 47.6838 73.0943 47.7014C73.1358 47.719 73.1725 47.7174 73.2046 47.6967C73.2373 47.677 73.2671 47.6327 73.2941 47.5638L73.3356 47.4578L72.8003 45.5308L73.0415 45.658L73.4411 47.1726L73.4562 47.1805L73.8558 46.0871L74.0971 46.2143L73.4826 47.7654C73.455 47.8354 73.4207 47.8873 73.3799 47.9212C73.339 47.9557 73.2916 47.9723 73.2376 47.9708C73.1842 47.9696 73.1238 47.9513 73.0566 47.9159Z" fill="white"/>
<path d="M139.471 88.8664C139.413 88.722 139.341 88.5722 139.26 88.4093L139.259 88.4071C139.171 88.2342 139.083 87.9642 138.998 87.6584C138.869 87.1972 138.744 86.6579 138.534 86.1387C138.428 85.8789 138.297 85.6198 138.124 85.3823C137.952 85.1452 137.735 84.9369 137.494 84.7984C137.169 84.608 136.895 84.6022 136.7 84.7118C136.407 84.8755 136.254 85.2431 136.115 85.5866C135.982 85.9326 135.858 86.26 135.724 86.3663L135.723 86.367C135.642 86.4368 135.57 86.5037 135.513 86.5812C135.457 86.6597 135.407 86.7467 135.405 86.8983C135.401 87.0335 135.469 87.2257 135.564 87.3635C135.705 87.5729 135.874 87.7198 136.113 87.9014C136.314 88.0515 136.569 88.2196 136.889 88.4147C136.982 88.7476 137.216 89.0827 137.494 89.2435C137.77 89.4028 138.003 89.337 138.095 89.1097C138.539 89.3516 138.859 89.5036 139.088 89.5705C139.219 89.6074 139.326 89.6228 139.421 89.5906C139.516 89.5628 139.583 89.4488 139.579 89.3089C139.577 89.1543 139.527 89.01 139.471 88.8664ZM138.814 88.9256C138.653 88.8609 138.427 88.7505 138.137 88.5945V88.5916L137.897 88.463L137.894 88.4612C137.773 88.3965 137.639 88.319 137.494 88.2353C137.344 88.1487 137.21 88.0713 137.089 87.9967L137.087 87.9949H137.086L136.846 87.8466V87.8484C136.448 87.6028 136.168 87.4084 136.011 87.271C135.942 87.2119 135.905 87.1713 135.884 87.145C135.891 87.1278 135.903 87.1055 135.924 87.0799C135.961 87.0321 136.02 86.9758 136.091 86.9144L136.09 86.9151C136.237 86.788 136.332 86.5834 136.423 86.3638C136.558 86.0334 136.681 85.6633 136.849 85.4477C136.933 85.3396 137.025 85.2709 137.127 85.25C137.229 85.2299 137.339 85.2486 137.494 85.337C137.697 85.4568 137.826 85.6059 137.954 85.8208C138.146 86.142 138.295 86.6192 138.426 87.1077C138.562 87.5995 138.675 88.0906 138.893 88.5342L138.892 88.532C138.969 88.6859 139.03 88.817 139.067 88.9099L139.101 89.0049C139.06 89.0041 138.965 88.9888 138.814 88.9256Z" fill="white"/>
<path d="M92.0089 61.9468L91.6193 61.7415C91.5963 61.6027 91.556 61.4701 91.4984 61.3439C91.4418 61.2182 91.3727 61.1013 91.2911 60.9931C91.2104 60.8844 91.1209 60.7875 91.0225 60.7024C90.924 60.6174 90.8214 60.5467 90.7146 60.4904C90.5198 60.3878 90.3434 60.3504 90.1853 60.3783C90.0282 60.4068 89.903 60.5048 89.8098 60.6723C89.7177 60.8404 89.6716 61.0818 89.6716 61.3967C89.6716 61.7115 89.7177 62.0016 89.8098 62.2668C89.903 62.5325 90.0282 62.7624 90.1853 62.9565C90.3434 63.1511 90.5198 63.2997 90.7146 63.4024C90.8214 63.4587 90.924 63.4962 91.0225 63.5149C91.1209 63.5337 91.2104 63.5317 91.2911 63.5091C91.3727 63.4859 91.4418 63.4412 91.4984 63.3752C91.556 63.3084 91.5963 63.2184 91.6193 63.1051L92.0089 63.3104C91.9796 63.4808 91.9262 63.619 91.8487 63.7249C91.7712 63.8308 91.6748 63.9049 91.5596 63.9472C91.4445 63.9883 91.3151 63.9977 91.1717 63.9753C91.0293 63.9535 90.8769 63.8999 90.7146 63.8143C90.4402 63.6697 90.1962 63.4653 89.9826 63.2012C89.769 62.9371 89.6009 62.6331 89.4784 62.2892C89.3559 61.9452 89.2946 61.5815 89.2946 61.198C89.2946 60.8145 89.3559 60.5153 89.4784 60.3005C89.6009 60.0857 89.769 59.9589 89.9826 59.92C90.1962 59.8811 90.4402 59.9339 90.7146 60.0785C90.8769 60.1641 91.0293 60.271 91.1717 60.3993C91.3151 60.5282 91.4445 60.6745 91.5596 60.8382C91.6748 61.0007 91.7712 61.1758 91.8487 61.3634C91.9262 61.5498 91.9796 61.7443 92.0089 61.9468ZM93.5682 65.3255C93.3504 65.2107 93.1593 65.0514 92.9949 64.8475C92.8316 64.6442 92.7038 64.413 92.6117 64.1537C92.5205 63.895 92.475 63.6248 92.475 63.343C92.475 63.0589 92.5205 62.835 92.6117 62.6711C92.7038 62.5078 92.8316 62.4106 92.9949 62.3795C93.1593 62.349 93.3504 62.3911 93.5682 62.5059C93.786 62.6207 93.9766 62.7797 94.14 62.983C94.3044 63.1869 94.4321 63.4188 94.5232 63.6787C94.6154 63.9391 94.6615 64.2114 94.6615 64.4955C94.6615 64.7772 94.6154 64.9991 94.5232 65.1613C94.4321 65.3239 94.3044 65.4205 94.14 65.4511C93.9766 65.4822 93.786 65.4403 93.5682 65.3255ZM93.5682 64.9491C93.7337 65.0363 93.8698 65.0601 93.9766 65.0205C94.0834 64.9809 94.1625 64.8965 94.2138 64.7673C94.2651 64.6381 94.2908 64.4824 94.2908 64.3001C94.2908 64.1178 94.2651 63.9344 94.2138 63.7499C94.1625 63.5655 94.0834 63.3965 93.9766 63.2432C93.8698 63.0898 93.7337 62.9695 93.5682 62.8823C93.4028 62.7951 93.2666 62.7719 93.1598 62.8127C93.053 62.8534 92.974 62.939 92.9227 63.0694C92.8713 63.1998 92.8457 63.3561 92.8457 63.5384C92.8457 63.7207 92.8713 63.9035 92.9227 64.0868C92.974 64.2701 93.053 64.4378 93.1598 64.59C93.2666 64.7422 93.4028 64.8619 93.5682 64.9491ZM95.598 64.6979V66.3385L95.2273 66.1432V63.4159L95.5854 63.6046V64.0308L95.6169 64.0473C95.6734 63.9387 95.7593 63.8726 95.8745 63.8493C95.9897 63.8248 96.1383 63.8606 96.3206 63.9566C96.4839 64.0427 96.6268 64.1559 96.7494 64.2962C96.8719 64.4354 96.9672 64.5993 97.0352 64.7878C97.1033 64.9752 97.1373 65.1849 97.1373 65.4169V67.1499L96.7666 66.9545V65.25C96.7666 65.0357 96.7174 64.8429 96.619 64.6714C96.5206 64.4988 96.3855 64.3672 96.2137 64.2767C96.0954 64.2143 95.9897 64.1876 95.8965 64.1965C95.8043 64.2059 95.7315 64.2522 95.6781 64.3353C95.6247 64.4184 95.598 64.5393 95.598 64.6979ZM98.8891 65.3459V65.7011L97.5885 65.0155V64.6604L98.8891 65.3459ZM97.9781 67.593V64.4893C97.9781 64.3331 98.0105 64.22 98.0755 64.15C98.1404 64.0801 98.2247 64.0464 98.3284 64.049C98.432 64.0515 98.5414 64.0831 98.6566 64.1439C98.7477 64.1919 98.8221 64.2394 98.8797 64.2863C98.9373 64.3332 98.9802 64.3712 99.0085 64.4003L98.9017 64.7063C98.8828 64.6892 98.8566 64.6665 98.8231 64.6382C98.7907 64.6105 98.7477 64.5825 98.6943 64.5544C98.5718 64.4898 98.4833 64.4781 98.4289 64.5192C98.3755 64.5609 98.3488 64.6492 98.3488 64.7841V67.7884L97.9781 67.593ZM100.321 68.8847C100.088 68.7621 99.8878 68.5984 99.7192 68.3936C99.5517 68.1881 99.4224 67.9566 99.3313 67.699C99.2412 67.4409 99.1962 67.1721 99.1962 66.8927C99.1962 66.6134 99.2412 66.3909 99.3313 66.2253C99.4224 66.0591 99.5491 65.9589 99.7114 65.9249C99.8747 65.8903 100.065 65.9304 100.283 66.0452C100.409 66.1114 100.533 66.2005 100.655 66.3124C100.778 66.4244 100.889 66.5601 100.99 66.7196C101.09 66.8779 101.171 67.0598 101.23 67.2653C101.29 67.4708 101.32 67.7007 101.32 67.9552V68.1328L99.4601 67.1526V66.7903L100.943 67.5719C100.943 67.418 100.916 67.2663 100.861 67.1169C100.808 66.968 100.731 66.8324 100.632 66.7102C100.533 66.5884 100.417 66.4923 100.283 66.4216C100.135 66.3438 100.008 66.3179 99.8999 66.3439C99.7931 66.3693 99.7109 66.4325 99.6533 66.5335C99.5957 66.6345 99.5669 66.7602 99.5669 66.9106V67.152C99.5669 67.358 99.5983 67.5492 99.6611 67.7255C99.725 67.9012 99.8135 68.0562 99.9266 68.1904C100.04 68.3234 100.171 68.4293 100.321 68.5082C100.418 68.5596 100.506 68.5905 100.585 68.6012C100.664 68.6112 100.733 68.6 100.79 68.5676C100.848 68.534 100.893 68.4782 100.924 68.4L101.282 68.7024C101.244 68.8199 101.181 68.9072 101.092 68.9645C101.003 69.0205 100.893 69.0431 100.762 69.0321C100.631 69.0199 100.484 68.9708 100.321 68.8847ZM101.884 69.6516V66.9243L102.242 67.1131V67.525L102.267 67.5383C102.311 67.4265 102.391 67.359 102.506 67.3356C102.621 67.3123 102.751 67.3387 102.895 67.4149C102.922 67.4292 102.957 67.4478 102.997 67.4705C103.038 67.4932 103.069 67.5113 103.09 67.5247V67.9508C103.077 67.9406 103.049 67.9201 103.004 67.8893C102.96 67.8578 102.913 67.8291 102.864 67.8032C102.747 67.7413 102.642 67.714 102.55 67.721C102.459 67.7275 102.386 67.7651 102.333 67.8341C102.281 67.9023 102.254 67.998 102.254 68.1211V69.847L101.884 69.6516ZM104.468 71.0703C104.235 70.9478 104.035 70.7841 103.866 70.5792C103.698 70.3737 103.569 70.1422 103.478 69.8847C103.388 69.6265 103.343 69.3578 103.343 69.0784C103.343 68.799 103.388 68.5766 103.478 68.411C103.569 68.2447 103.696 68.1446 103.858 68.1106C104.021 68.076 104.212 68.1161 104.43 68.2309C104.556 68.2971 104.68 68.3862 104.802 68.4981C104.925 68.61 105.036 68.7457 105.137 68.9053C105.237 69.0636 105.317 69.2455 105.377 69.451C105.437 69.6564 105.467 69.8864 105.467 70.1409V70.3185L103.607 69.3382V68.976L105.09 69.7576C105.09 69.6037 105.062 69.452 105.008 69.3026C104.955 69.1537 104.878 69.0181 104.779 68.8958C104.68 68.7741 104.564 68.6779 104.43 68.6073C104.282 68.5295 104.154 68.5035 104.047 68.5296C103.94 68.5549 103.858 68.6181 103.8 68.7192C103.742 68.8202 103.714 68.9459 103.714 69.0962V69.3377C103.714 69.5437 103.745 69.7348 103.808 69.9112C103.872 70.0869 103.96 70.2418 104.073 70.376C104.186 70.509 104.318 70.615 104.468 70.6939C104.565 70.7452 104.653 70.7762 104.731 70.7868C104.811 70.7968 104.88 70.7856 104.937 70.7532C104.995 70.7197 105.039 70.6638 105.071 70.5857L105.429 70.8881C105.391 71.0055 105.328 71.0929 105.239 71.1501C105.15 71.2062 105.04 71.2287 104.909 71.2177C104.778 71.2056 104.631 71.1564 104.468 71.0703ZM106.401 70.392V72.0327L106.03 71.8373V69.11L106.389 69.2988V69.7249L106.42 69.7415C106.477 69.6328 106.562 69.5668 106.678 69.5434C106.793 69.5189 106.941 69.5547 107.124 69.6507C107.287 69.7368 107.43 69.85 107.553 69.9904C107.675 70.1295 107.77 70.2934 107.838 70.482C107.906 70.6693 107.94 70.879 107.94 71.1111V72.844L107.57 72.6486V70.9441C107.57 70.7298 107.521 70.537 107.422 70.3655C107.324 70.1929 107.189 70.0614 107.017 69.9708C106.899 69.9085 106.793 69.8817 106.7 69.8906C106.607 69.9 106.535 69.9463 106.481 70.0294C106.428 70.1126 106.401 70.2334 106.401 70.392ZM109.598 73.7745C109.372 73.6553 109.177 73.4922 109.014 73.2854C108.85 73.0785 108.725 72.846 108.637 72.5878C108.549 72.3295 108.505 72.0643 108.505 71.792C108.505 71.515 108.55 71.2943 108.64 71.1299C108.731 70.9648 108.858 70.8653 109.02 70.8313C109.183 70.7967 109.374 70.8368 109.592 70.9516C109.761 71.041 109.914 71.1571 110.05 71.2998C110.187 71.4426 110.298 71.6008 110.385 71.7745C110.472 71.9481 110.526 72.1257 110.547 72.3072L110.176 72.1118C110.148 71.9726 110.085 71.8294 109.988 71.6822C109.891 71.5344 109.761 71.4174 109.598 71.3313C109.453 71.2551 109.327 71.231 109.218 71.2588C109.11 71.286 109.026 71.3605 108.965 71.4824C108.905 71.6036 108.875 71.7672 108.875 71.9732C108.875 72.1839 108.905 72.3828 108.963 72.57C109.023 72.7577 109.107 72.9232 109.215 73.0664C109.324 73.2102 109.451 73.3208 109.598 73.3981C109.694 73.4488 109.782 73.476 109.86 73.4795C109.939 73.483 110.005 73.4636 110.06 73.4213C110.114 73.379 110.153 73.3142 110.176 73.2269L110.547 73.4223C110.526 73.5722 110.474 73.6899 110.391 73.7753C110.31 73.8601 110.201 73.9048 110.066 73.9093C109.932 73.9133 109.776 73.8683 109.598 73.7745ZM112.1 75.0933C111.868 74.9708 111.667 74.8071 111.499 74.6022C111.331 74.3967 111.202 74.1652 111.111 73.9077C111.021 73.6495 110.976 73.3808 110.976 73.1014C110.976 72.822 111.021 72.5996 111.111 72.434C111.202 72.2677 111.328 72.1676 111.491 72.1336C111.654 72.099 111.845 72.1391 112.062 72.2539C112.188 72.3201 112.312 72.4092 112.435 72.5211C112.557 72.633 112.669 72.7687 112.769 72.9283C112.87 73.0866 112.95 73.2685 113.01 73.474C113.069 73.6794 113.099 73.9094 113.099 74.1639V74.3415L111.239 73.3612V72.999L112.722 73.7806C112.722 73.6267 112.695 73.475 112.641 73.3256C112.587 73.1767 112.511 73.0411 112.411 72.9188C112.313 72.7971 112.197 72.7009 112.062 72.6303C111.915 72.5525 111.787 72.5265 111.679 72.5526C111.572 72.5779 111.49 72.6411 111.433 72.7422C111.375 72.8432 111.346 72.9689 111.346 73.1192V73.3607C111.346 73.5667 111.378 73.7578 111.44 73.9342C111.504 74.1099 111.593 74.2648 111.706 74.399C111.819 74.532 111.95 74.638 112.1 74.7169C112.198 74.7682 112.286 74.7992 112.364 74.8098C112.444 74.8198 112.512 74.8086 112.57 74.7762C112.627 74.7427 112.672 74.6868 112.703 74.6087L113.061 74.9111C113.024 75.0285 112.96 75.1159 112.871 75.1731C112.782 75.2292 112.672 75.2517 112.542 75.2407C112.411 75.2286 112.264 75.1794 112.1 75.0933Z" fill="white"/>
<path d="M83.7539 49.6536V69.5355H84.0554V49.6536" fill="white"/>
<path fill-rule="evenodd" clip-rule="evenodd" d="M37.2983 93.8994C38.14 99.8606 36.532 106.279 39.3923 111.692C41.3867 115.467 45.2954 118.159 47.39 121.888C49.1059 120.52 51.1461 119.493 53.3293 118.898C47.6058 113.408 44.3953 105.798 44.6051 98.2213L37.2983 93.8994Z" fill="#3354CC"/>
<path d="M78.7793 80.5413C78.7793 80.5413 79.3575 78.8745 79.6873 78.1627C80.0171 77.4509 79.797 75.506 80.5676 73.8667C81.3375 72.2273 83.2837 70.2219 83.6479 68.7169C83.8679 67.8074 84.6198 68.5891 84.3081 69.8415C83.9964 71.0939 82.9171 73.1318 82.9171 73.1318C82.9171 73.1318 83.5767 73.6982 84.3822 73.8667C85.1877 74.0357 84.9677 74.5889 85.298 75.6684C85.6278 76.7479 84.5281 78.1627 84.5281 78.1627C83.8679 78.2546 81.3887 81.672 81.3887 81.672L78.7793 80.5413Z" fill="#F7E6E0"/>
<path fill-rule="evenodd" clip-rule="evenodd" d="M53.7511 84.4771C54.0369 84.5812 54.2485 84.6885 54.2485 84.781C53.6727 85.2875 52.8112 85.8143 52.3789 86.4259C52.2559 86.5998 51.6946 88.1825 51.7488 88.1863C49.4674 88.0316 47.2137 87.5439 45.0986 86.7485C45.4091 85.9436 45.5936 85.0986 45.6485 84.247C45.6961 83.5033 45.4495 82.7068 45.6177 81.9939C45.6515 82.0044 45.6853 82.0148 45.719 82.0253C47.0635 82.442 48.4087 82.8582 49.7532 83.2749C50.5906 83.5342 51.4275 83.7934 52.2649 84.0527C52.4241 84.1017 53.2169 84.2834 53.7511 84.4771Z" fill="#F7E6E0"/>
<path fill-rule="evenodd" clip-rule="evenodd" d="M54.5801 72.6648C55.6472 73.8511 55.6424 75.4932 55.9077 76.9372C56.0271 77.5873 56.1422 78.238 56.4569 78.8176C56.756 79.3687 57.6254 79.7606 57.3939 80.4895C57.3125 80.7455 57.0906 80.9398 56.9122 81.1512C55.8124 82.4509 56.2327 84.4051 54.2171 85.0525C53.13 85.4015 51.8223 85.0717 51.0856 84.2631C49.5963 84.7987 47.9745 84.7651 46.6246 83.952C44.9479 82.9424 43.5798 81.52 42.667 79.8883C42.1998 79.0533 41.8892 78.1818 41.6499 77.273C41.4111 76.3658 41.6619 75.3265 42.0141 74.4556C43.8005 70.0412 51.3255 69.0476 54.5801 72.6648Z" fill="#F7E6E0"/>
<path fill-rule="evenodd" clip-rule="evenodd" d="M54.0114 74.1807C53.9735 74.4747 54.0621 74.7692 54.0934 75.0687C54.1947 76.0546 53.0196 76.4873 52.925 77.4677C52.8617 78.0848 54.0934 80.5989 52.925 80.7838C52.7797 80.2361 52.7164 79.521 51.8765 79.5034C50.992 79.4803 50.8913 80.409 51.03 81.0084C51.2006 81.729 51.9271 82.3924 51.9018 83.1135C51.8958 83.2577 51.8578 83.402 51.7818 83.5462C51.3333 84.4286 50.3861 84.9879 49.325 85.0512C48.2638 85.1206 47.222 84.7512 46.2935 84.2613C44.4684 83.2985 42.9461 81.8567 41.9609 80.1497C41.3357 79.0542 40.3125 77.9527 39.9713 76.7471C39.5794 75.3516 40.6851 74.7461 40.9691 73.7255C41.0005 73.6044 41.0198 73.4833 41.0258 73.3506C41.0451 72.9642 41.0511 72.5953 41.1584 72.2144C41.2344 71.9375 41.3417 71.6667 41.4744 71.4129C41.7017 70.9802 42.011 70.5827 42.3836 70.248C43.514 69.2506 44.8784 68.6852 46.4135 68.3279C48.4471 67.8496 50.7714 67.8496 52.6537 68.7953C54.176 69.5566 55.3758 71.3325 54.5926 72.9531C54.3907 73.3616 54.0687 73.7365 54.0114 74.1807Z" fill="#3A3F4D"/>
<path fill-rule="evenodd" clip-rule="evenodd" d="M55.4559 77.3889C55.6145 77.8469 55.0912 78.1238 54.9127 77.6383C54.7813 77.2799 55.3004 76.9392 55.4559 77.3889Z" fill="white"/>
<path fill-rule="evenodd" clip-rule="evenodd" d="M54.8396 183.519V184.274C55.9719 184.93 57.8572 185.013 59.0027 184.444C62.4195 182.748 66.3336 185.271 69.5424 182.948C70.1199 182.53 71.1552 181.44 71.0316 180.284C66.9697 181.207 54.8396 183.519 54.8396 183.519Z" fill="#105D56"/>
<path fill-rule="evenodd" clip-rule="evenodd" d="M60.6697 177.672C60.6697 177.672 64.3982 178.711 66.6042 179.024C67.8312 179.197 69.8081 178.362 70.7125 179.534C71.8412 180.998 69.585 182.8 68.3358 183.234C66.3932 183.91 62.4025 183.13 60.932 183.442C59.4615 183.754 55.7336 184.428 54.8407 183.519C53.9478 182.61 54.8407 178.192 54.8407 178.192L60.6697 177.672Z" fill="#10635D"/>
<path fill-rule="evenodd" clip-rule="evenodd" d="M43.9959 176.028C41.9242 177.849 40.3211 175.552 40.4537 173.564C40.5164 172.621 40.6026 171.616 41.1899 170.871C41.826 170.064 43.0101 169.609 43.1922 168.602C44.6934 168.168 52.9618 164.811 52.3638 168.898C52.0484 171.055 48.5792 171.998 46.1941 174.095L43.9959 176.028Z" fill="#10635D"/>
<path fill-rule="evenodd" clip-rule="evenodd" d="M43.8807 175.389L46.0795 173.457C48.4647 171.36 51.9339 170.417 52.2492 168.26V168.259V168.258L52.2504 168.246V168.245V168.243V168.242V168.241V168.24V168.239V168.237V168.236L52.251 168.232V168.23V168.229C52.2872 168.441 52.2878 168.682 52.2474 168.957C51.9321 171.114 48.4629 172.057 46.0777 174.154L44.3751 175.687C42.5109 177.326 40.0479 176.556 40.4742 174.13C40.2813 175.563 42.3004 176.778 43.8807 175.389Z" fill="#106760"/>
<path fill-rule="evenodd" clip-rule="evenodd" d="M52.2728 142.285C51.2304 150.601 49.6453 160.185 47.2771 170.9C46.6958 173.518 45.3568 174.712 43.9803 175.121C42.0413 175.704 40.033 174.723 39.9824 173.962C39.4831 166.811 41.6181 153.138 42.6858 145.595C43.0458 137.037 37.7341 124.656 40.0396 121.427L51.7181 118.174L51.9394 127.828L52.2728 142.285Z" fill="#3354CC"/>
<path fill-rule="evenodd" clip-rule="evenodd" d="M51.9388 127.828C51.5915 128.711 51.3323 129.275 51.3323 129.275C51.3323 129.275 47.2777 155.03 46.3425 158.271C45.5533 161.01 44.3402 171.811 43.9803 175.121C42.0413 175.704 40.033 174.723 39.9824 173.962C39.4831 166.811 41.6181 153.138 42.6858 145.595C43.0458 137.037 37.7341 124.656 40.0396 121.427L51.7181 118.174L51.9388 127.828Z" fill="#3354CC"/>
<path fill-rule="evenodd" clip-rule="evenodd" d="M61.769 175.879C61.6177 178.353 59.9687 178.958 58.2257 178.889C56.1727 178.808 53.9878 177.782 53.9878 177.782C53.9625 168.757 53.0466 158.613 53.5392 150.268C53.9938 142.575 47.4503 131.094 47.375 121.365C47.3623 120.869 47.375 120.385 47.4063 119.9L60.6892 117.824C60.9671 119.762 61.2137 121.607 61.4471 123.378C65.0151 151.173 62.7982 159.253 61.769 175.879Z" fill="#3354CC"/>
<path fill-rule="evenodd" clip-rule="evenodd" d="M58.8198 150.382C58.9018 152.804 58.3459 174.447 58.226 178.888C56.173 178.807 53.988 177.78 53.988 177.78C53.9627 168.755 53.0469 158.611 53.5395 150.267C53.9941 142.574 47.4506 131.093 47.3752 121.364L61.4473 123.376L56.1923 130.227C56.1923 130.227 58.7191 147.678 58.8198 150.382Z" fill="#3354CC"/>
<path fill-rule="evenodd" clip-rule="evenodd" d="M59.7476 124.397L58.2506 125.124C57.1834 125.602 56.0084 126.041 54.7893 126.416C49.7362 127.973 43.8499 128.382 41.2538 125.338C40.5719 124.795 38.0896 122.656 38.0896 122.656C38.6642 118.885 41.273 109.652 41.2351 109.306C41.0078 107.173 40.2686 105.044 39.6247 102.997C38.8855 100.638 37.5024 98.5569 36.7952 96.1865C36.3213 94.589 36.1633 92.8709 36.6372 91.2673C37.635 87.8879 40.6098 85.927 44.2545 86.0025C46.0735 86.0371 47.8545 86.5155 49.5409 87.1618C51.2839 87.8367 52.9449 88.7015 54.4546 89.7628C55.8251 90.7256 56.7789 91.6604 57.5054 92.8021C58.0046 93.5805 58.4086 94.4513 58.7685 95.5011C59.659 98.0499 59.5644 100.403 59.6904 103.021C59.823 105.72 59.5638 108.084 59.4884 110.812C61.0548 115.777 63.0378 118.147 63.3917 120.927C63.5123 121.883 62.0219 123.192 59.7476 124.397Z" fill="#99A9E5"/>
<path fill-rule="evenodd" clip-rule="evenodd" d="M50.9806 115.13L54.7893 126.416C49.7362 127.973 43.8499 128.382 41.2537 125.338C40.5718 124.795 38.0896 122.656 38.0896 122.656C38.6642 118.885 41.273 109.652 41.2351 109.306C41.0078 107.173 40.2686 105.044 39.6247 102.997C38.8855 100.638 37.5024 98.5569 36.7952 96.1865C36.3213 94.589 36.1633 92.8709 36.6372 91.2673C37.635 87.8879 40.6098 85.927 44.2545 86.0025C46.0735 86.0371 47.8545 86.5155 49.5409 87.1618C51.2839 87.8367 52.9449 88.7015 54.4546 89.7628C55.8251 90.7256 56.7789 91.6604 57.5054 92.8021C56.1916 95.6509 57.4318 99.5896 57.4318 99.5896C57.4318 99.5896 51.2146 103.995 50.9812 106.809C50.7407 109.617 50.9806 115.13 50.9806 115.13Z" fill="#99A9E5"/>
<path fill-rule="evenodd" clip-rule="evenodd" d="M54 89.5031C52.3558 88.614 50.504 87.5754 48.6675 87.1114C48.2479 87.0051 43.4408 85.8882 43.3823 86.05C43.6735 85.2452 44.2909 84.5714 45.2845 84.5505C45.6909 84.5417 46.0906 84.6331 46.4831 84.73C48.0616 85.1197 49.6099 85.6108 51.1129 86.1981C52.5201 86.7475 53.5942 88.1224 54 89.5031Z" fill="#3354CC"/>
<path d="M83.2321 81.9903C75.9247 99.1693 73.5245 98.5005 73.1199 98.8985C72.7094 99.2965 55.1886 99.6367 55.1506 99.6422C50.6154 99.7402 47.4513 92.1974 52.0998 90.4094C54.5 89.4868 58.3213 90.8592 60.8349 91.1531C63.8037 91.5104 66.7845 91.9546 69.7786 92.024C74.1111 87.2028 78.4823 79.3716 78.4823 79.3716C79.1961 79.4178 79.8214 79.556 80.358 79.752C80.5473 79.8268 80.6546 79.8676 80.6546 79.8676C82.4615 80.6294 83.2321 81.9903 83.2321 81.9903Z" fill="#3354CC"/>
<path d="M80.6541 79.8676L72.6516 92.2376L69.7781 92.024C74.1106 87.2028 78.4818 79.3716 78.4818 79.3716C79.1957 79.4178 79.8209 79.556 80.3575 79.752C80.5468 79.8274 80.6541 79.8676 80.6541 79.8676Z" fill="#3354CC"/>
<path fill-rule="evenodd" clip-rule="evenodd" d="M51.9021 83.1113C51.896 83.2556 51.8581 83.3998 51.7821 83.544C51.3335 84.4265 50.3863 84.9857 49.3252 85.0491C48.2641 85.1184 47.2222 84.749 46.2937 84.2591C44.4687 83.2963 42.9463 81.8546 41.9612 80.1475C41.3359 79.052 40.3128 77.9505 39.9715 76.7449C39.5796 75.3495 40.6854 74.7439 40.9694 73.7233C41.0833 74.3289 41.3106 74.9173 41.6452 75.4535C41.3613 74.4384 41.6706 73.3022 42.4411 72.5238C41.6959 73.8213 42.6304 75.4359 43.8815 76.353C44.8666 77.0851 46.7423 77.5872 47.4061 78.5792C47.76 79.1098 47.8987 79.7269 48.1513 80.2978C48.788 81.7214 50.2658 82.7651 51.9021 83.1113Z" fill="#3A3F4D"/>
<path fill-rule="evenodd" clip-rule="evenodd" d="M174.486 32.6603C174.486 25.7831 169.164 17.403 162.6 13.9426C159.115 12.1051 155.98 12.0247 153.806 13.3833L150.797 14.9693V18.7302C150.745 19.1767 150.715 19.6418 150.715 20.1301C150.715 20.6079 150.746 21.0951 150.797 21.5851V21.7243L150.81 21.7177C151.012 23.5426 151.546 25.4346 152.347 27.2848L152.376 27.3525C152.399 27.4048 152.42 27.4571 152.444 27.5094L160.235 45.6551L159.592 45.9942V52.7498L162.601 51.1639L172.758 38.2186C172.781 38.1911 172.802 38.1613 172.825 38.1333L172.855 38.0953C173.89 36.7939 174.486 34.9575 174.486 32.6603Z" fill="#99A9E5"/>
<path fill-rule="evenodd" clip-rule="evenodd" d="M169.845 39.6784C170.88 38.377 171.476 36.5412 171.476 34.2434C171.476 27.3662 166.155 18.9861 159.591 15.5257C153.027 12.0654 147.706 14.8354 147.706 21.7127C147.706 24.0098 148.302 26.4744 149.337 28.8679L149.336 28.8674L149.366 28.9356C149.389 28.9879 149.41 29.0402 149.434 29.0925L159.591 52.7464L169.748 39.8011C169.771 39.7736 169.792 39.7439 169.815 39.7158L169.845 39.6784Z" fill="url(#paint9_linear_611_1612)"/>
<path fill-rule="evenodd" clip-rule="evenodd" d="M165.997 31.354C165.997 33.0781 165.378 34.3239 164.355 34.9696C163.186 35.7194 161.481 35.6847 159.592 34.6872C156.055 32.8244 153.188 28.3093 153.188 24.6067C153.188 22.2363 154.356 20.7775 156.125 20.5182C157.123 20.3624 158.316 20.5991 159.592 21.2735C163.129 23.1363 165.997 27.652 165.997 31.354Z" fill="#1F2025"/>
<path fill-rule="evenodd" clip-rule="evenodd" d="M165.995 31.354C165.995 33.0781 165.376 34.3239 164.353 34.9696C163.355 35.1193 162.167 34.8887 160.891 34.2143C157.355 32.3515 154.487 27.8364 154.487 24.1338C154.487 22.4097 155.106 21.1694 156.123 20.5182C157.121 20.3624 158.314 20.5991 159.59 21.2735C163.127 23.1363 165.995 27.652 165.995 31.354Z" fill="white"/>
<path d="M46.5885 40.9462L42.6683 38.8796C40.7933 37.9003 38.2007 38.0495 35.3375 39.5589C29.6158 42.5751 24.9775 49.8795 24.9775 55.8743C24.9775 58.8992 26.1599 61.0109 28.0651 61.9748L31.8665 63.9786V62.4708C32.9517 62.3029 34.1196 61.9093 35.3375 61.2674C39.9811 58.8194 43.9104 53.5468 45.2265 48.4427L46.5885 49.1605V40.9462Z" fill="#99A9E5"/>
<path d="M49.6154 47.0139C49.6154 41.0196 44.9771 38.6046 39.2554 41.6208C33.5338 44.6369 28.8955 51.9413 28.8955 57.9361C28.8955 63.9309 33.5338 66.3454 39.2554 63.3293C44.9771 60.3126 49.6154 53.0082 49.6154 47.0139Z" fill="url(#paint10_linear_611_1612)"/>
<path d="M43.5301 46.6358C43.269 46.487 42.8458 46.7313 42.5843 47.1816L38.223 54.7043L36.4941 53.7188C36.2329 53.5697 35.8098 53.8143 35.5486 54.2646C35.2875 54.7149 35.2875 55.2009 35.5486 55.3496L37.4432 56.4298C37.874 56.6752 38.5723 56.2719 39.0028 55.5292L43.5301 47.7204C43.7913 47.2705 43.7913 46.7845 43.5301 46.6358Z" fill="white"/>
<path d="M98.0044 153.416L103.904 150.306C107.621 148.365 112.759 148.66 118.435 151.653C129.775 157.63 138.968 172.108 138.968 183.989C138.968 189.984 136.625 194.17 132.848 196.08L127.184 199.066V196.077C125.033 195.745 122.718 194.964 120.304 193.692C111.101 188.841 103.312 178.39 100.705 168.273L98.0051 169.696L98.0044 153.416Z" fill="#99A9E5"/>
<path d="M92 165.445C92 153.564 101.193 148.778 112.533 154.756C123.873 160.734 133.066 175.212 133.066 187.092C133.066 198.973 123.873 203.759 112.533 197.781C101.193 191.803 92 177.326 92 165.445Z" fill="#3354CC"/>
<path d="M95.6509 167.369C95.6509 177.142 103.212 189.04 112.538 193.955C117.758 196.709 122.439 196.686 125.532 194.4C127.948 192.617 129.413 189.451 129.413 185.165C129.413 175.404 121.852 163.494 112.538 158.579C108.032 156.202 103.938 155.893 100.909 157.322C97.6788 158.831 95.6509 162.318 95.6509 167.369Z" fill="#0B0B0B"/>
<path d="M97.0674 166.523C97.0674 176.296 104.616 188.205 113.942 193.12C118.436 195.486 122.504 195.806 125.534 194.4C127.949 192.617 129.414 189.451 129.414 185.165C129.414 175.404 121.854 163.494 112.54 158.579C108.034 156.202 103.94 155.893 100.91 157.322C98.5066 159.105 97.0674 162.26 97.0674 166.523Z" fill="white"/>
<path d="M114.748 163.933L113.446 163.246V160.032L114.748 160.718V163.933Z" fill="#C0C0DD"/>
<path d="M114.748 190.854L113.446 190.167V186.952L114.748 187.638V190.854Z" fill="#C0C0DD"/>
<path d="M107.953 160.373L107.389 160.418L106.622 158.62L107.186 158.577L107.953 160.373Z" fill="#C0C0DD"/>
<path d="M121.569 192.261L121.005 192.305L120.238 190.509L120.802 190.464L121.569 192.261Z" fill="#C0C0DD"/>
<path d="M103.139 162.634L102.812 163.053L101.484 161.549L101.81 161.13L103.139 162.634Z" fill="#C0C0DD"/>
<path d="M126.718 189.332L126.392 189.751L125.063 188.247L125.389 187.828L126.718 189.332Z" fill="#C0C0DD"/>
<path d="M102.812 175.927L103.139 176.689L101.81 176.793L101.484 176.03L102.812 175.927Z" fill="#C0C0DD"/>
<path d="M126.392 174.091L126.718 174.854L125.389 174.957L125.063 174.195L126.392 174.091Z" fill="#C0C0DD"/>
<path d="M107.389 183.391L107.953 184.03L107.186 185.017L106.622 184.379L107.389 183.391Z" fill="#C0C0DD"/>
<path d="M121.005 165.868L121.569 166.507L120.802 167.495L120.238 166.856L121.005 165.868Z" fill="#C0C0DD"/>
<path d="M125.41 182.086V180.721L128.478 182.339V183.704L125.41 182.086Z" fill="#C0C0DD"/>
<path d="M99.7207 168.542V167.177L102.789 168.795V170.16L99.7207 168.542Z" fill="#C0C0DD"/>
<path d="M107.534 168.54L113.721 176C114.235 176.621 114.915 176.592 114.915 175.949V166.171C114.915 165.699 114.549 165.124 114.099 164.886C113.648 164.649 113.283 164.839 113.283 165.311V173.436L108.421 167.573C108.043 167.117 107.538 166.964 107.292 167.231C107.047 167.498 107.155 168.084 107.534 168.54Z" fill="#C0C0DD"/>
<defs>
<linearGradient id="paint0_linear_611_1612" x1="121.158" y1="138.187" x2="102.346" y2="175.588" gradientUnits="userSpaceOnUse">
<stop stop-color="#6164FF"/>
<stop offset="1" stop-color="#8EE5FF"/>
</linearGradient>
<linearGradient id="paint1_linear_611_1612" x1="38.2765" y1="197.091" x2="63.9939" y2="168.925" gradientUnits="userSpaceOnUse">
<stop stop-color="white"/>
<stop offset="1" stop-color="#3354CC"/>
</linearGradient>
<linearGradient id="paint2_linear_611_1612" x1="22.8779" y1="182.233" x2="47.6617" y2="155.088" gradientUnits="userSpaceOnUse">
<stop stop-color="white"/>
<stop offset="1" stop-color="#3354CC"/>
</linearGradient>
<linearGradient id="paint3_linear_611_1612" x1="143.095" y1="142.755" x2="164.779" y2="142.755" gradientUnits="userSpaceOnUse">
<stop stop-color="white"/>
<stop offset="1" stop-color="#3354CC"/>
</linearGradient>
<linearGradient id="paint4_linear_611_1612" x1="145.245" y1="131.168" x2="161.778" y2="131.168" gradientUnits="userSpaceOnUse">
<stop stop-color="white"/>
<stop offset="1" stop-color="#3354CC"/>
</linearGradient>
<linearGradient id="paint5_linear_611_1612" x1="144.279" y1="158.426" x2="187.531" y2="158.426" gradientUnits="userSpaceOnUse">
<stop stop-color="white"/>
<stop offset="1" stop-color="#3354CC"/>
</linearGradient>
<linearGradient id="paint6_linear_611_1612" x1="153.302" y1="150.719" x2="188.903" y2="150.719" gradientUnits="userSpaceOnUse">
<stop stop-color="white"/>
<stop offset="1" stop-color="#3354CC"/>
</linearGradient>
<linearGradient id="paint7_linear_611_1612" x1="158.893" y1="169.399" x2="174.722" y2="169.399" gradientUnits="userSpaceOnUse">
<stop stop-color="white"/>
<stop offset="1" stop-color="#3354CC"/>
</linearGradient>
<linearGradient id="paint8_linear_611_1612" x1="147.89" y1="170.613" x2="170.425" y2="170.613" gradientUnits="userSpaceOnUse">
<stop stop-color="white"/>
<stop offset="1" stop-color="#3354CC"/>
</linearGradient>
<linearGradient id="paint9_linear_611_1612" x1="147.705" y1="33.3909" x2="171.476" y2="33.3909" gradientUnits="userSpaceOnUse">
<stop stop-color="#3354CC"/>
<stop offset="1" stop-color="#3354CC"/>
</linearGradient>
<linearGradient id="paint10_linear_611_1612" x1="28.8954" y1="52.4751" x2="49.6156" y2="52.4751" gradientUnits="userSpaceOnUse">
<stop stop-color="#3354CC"/>
<stop offset="1" stop-color="#3354CC"/>
</linearGradient>
</defs>
</svg>
