<svg width="200" height="234" viewBox="0 0 200 234" fill="none" xmlns="http://www.w3.org/2000/svg">
<path fill-rule="evenodd" clip-rule="evenodd" d="M192.813 151.913L132.059 119.887C129.113 118.334 127.298 115.464 127.298 112.358V57.7428C127.298 54.3749 131.291 52.2704 134.485 53.9537L195.239 85.98C198.185 87.5329 200 90.4032 200 93.5096V148.125C200 151.492 196.007 153.597 192.813 151.913Z" fill="url(#paint0_linear_519_2962)"/>
<path fill-rule="evenodd" clip-rule="evenodd" d="M7.18738 186.05L67.941 154.024C70.8874 152.471 72.7022 149.601 72.7022 146.495V91.8797C72.7022 88.5118 68.7091 86.4073 65.5148 88.0913L4.76124 120.116C1.81478 121.669 0 124.54 0 127.646V182.261C0 185.629 3.99312 187.734 7.18738 186.05Z" fill="url(#paint1_linear_519_2962)"/>
<path fill-rule="evenodd" clip-rule="evenodd" d="M42.5019 73.1097L84.638 50.8975C86.6813 49.8202 87.9402 47.8297 87.9402 45.675V7.79598C87.9402 5.46026 85.171 4.00037 82.9553 5.1685L40.8191 27.3807C38.7759 28.458 37.517 30.4485 37.517 32.6032V70.4822C37.517 72.8179 40.2862 74.2778 42.5019 73.1097Z" fill="url(#paint2_linear_519_2962)"/>
<path fill-rule="evenodd" clip-rule="evenodd" d="M184.419 173.266H178.852H20.2174H14.6519V189.229H14.6561C14.6567 190.066 14.6971 190.904 14.7863 191.74C15.0769 194.549 15.8788 197.351 17.1799 200.096C18.8729 203.678 21.4178 207.172 24.8225 210.488C27.4813 213.083 30.6647 215.574 34.3721 217.904C35.9891 218.925 37.7008 219.911 39.5132 220.868C72.6598 238.341 126.409 238.347 159.556 220.868C171.752 214.438 179.464 206.543 182.679 198.256C183.837 195.28 184.412 192.255 184.413 189.229H184.418V173.266H184.419Z" fill="#1E2B3B"/>
<path fill-rule="evenodd" clip-rule="evenodd" d="M182.679 183.928C179.464 192.215 171.752 200.11 159.556 206.54C126.409 224.019 72.6595 224.014 39.5129 206.54C37.6999 205.583 35.9888 204.597 34.3718 203.576C30.6645 201.246 27.4811 198.755 24.8222 196.16C21.4181 192.844 18.8726 189.349 17.1796 185.768C15.8785 183.024 15.0766 180.221 14.786 177.412C13.4789 165.141 21.7214 152.638 39.5135 143.261C62.1 131.352 94.2482 127.558 122.923 131.883C125.266 132.235 127.591 132.644 129.883 133.105C140.702 135.279 150.84 138.67 159.556 143.261C170.268 148.907 177.518 155.688 181.302 162.868C184.934 169.736 185.388 176.967 182.679 183.928Z" fill="#1E2B3B"/>
<path fill-rule="evenodd" clip-rule="evenodd" d="M163.442 181.455C160.971 187.472 155.043 193.204 145.669 197.873C120.192 210.565 78.8793 210.56 53.4024 197.873C52.0091 197.178 50.6935 196.462 49.4509 195.721C46.6015 194.029 44.1543 192.22 42.111 190.336C39.4943 187.928 37.5379 185.391 36.2368 182.79C35.2365 180.797 34.6203 178.762 34.3967 176.723C33.3916 167.813 39.7271 158.735 53.4024 151.926C70.7622 143.28 95.4722 140.524 117.512 143.665C119.313 143.92 121.1 144.218 122.862 144.553C131.178 146.132 138.97 148.593 145.669 151.927C153.903 156.026 159.476 160.95 162.383 166.163C165.175 171.151 165.524 176.401 163.442 181.455Z" fill="url(#paint3_linear_519_2962)"/>
<path fill-rule="evenodd" clip-rule="evenodd" d="M164.589 177.35C164.381 178.729 163.995 180.101 163.44 181.456C160.97 187.471 155.046 193.203 145.666 197.875C120.194 210.562 78.8804 210.562 53.4011 197.875C52.0114 197.176 50.6916 196.461 49.4472 195.718C46.5984 194.028 44.1542 192.217 42.1079 190.337C39.493 187.927 37.5353 185.389 36.2342 182.788C35.3371 181.006 34.7499 179.19 34.4785 177.362C34.4472 177.148 34.4219 176.935 34.3966 176.721C33.3921 167.812 39.7276 158.735 53.4017 151.924C70.7645 143.28 95.4727 140.523 117.509 143.666C119.316 143.92 121.097 144.22 122.859 144.554C131.177 146.129 138.971 148.591 145.666 151.924C153.903 156.024 159.473 160.949 162.384 166.163C164.425 169.813 165.164 173.596 164.589 177.35Z" fill="#3C3F43"/>
<path fill-rule="evenodd" clip-rule="evenodd" d="M164.111 177.041C163.902 178.42 163.517 179.792 162.961 181.147C160.492 187.162 154.567 192.894 145.188 197.566C119.715 210.253 78.4019 210.253 52.9226 197.566C51.5328 196.868 50.2131 196.152 48.9686 195.409C46.1198 193.719 43.6756 191.908 41.6293 190.028C39.0145 187.618 37.0568 185.081 35.7557 182.479C34.8585 180.698 34.2713 178.881 34 177.053C35.1178 169.562 41.4279 162.238 52.9226 156.517C70.2854 147.867 94.9936 145.116 117.03 148.253C118.837 148.507 120.618 148.807 122.38 149.141C130.698 150.721 138.492 153.184 145.187 156.517C153.424 160.617 158.994 165.537 161.905 170.75C163.062 172.814 163.795 174.919 164.111 177.041Z" fill="#94A3BB" fill-opacity="0.5"/>
<path fill-rule="evenodd" clip-rule="evenodd" d="M68.6947 184.282L34.373 203.577C30.6656 201.248 27.4822 198.756 24.8234 196.161L62.2838 180.902L68.6947 184.282Z" fill="url(#paint4_linear_519_2962)"/>
<path fill-rule="evenodd" clip-rule="evenodd" d="M45.8653 169.262L43.743 177.145L17.1779 185.766C15.8768 183.021 15.0749 180.218 14.7843 177.41L45.8653 169.262Z" fill="url(#paint5_linear_519_2962)"/>
<path d="M149.033 151.535C146.297 157.895 145.188 165.043 143.096 171.655C143.061 171.763 144.633 171.326 144.804 171.202C145.389 170.777 145.332 170.504 145.585 169.901C146.281 168.241 146.271 166.017 146.655 164.258C147.503 160.379 148.574 156.54 149.865 152.763C150.426 151.12 151.06 149.438 152.328 148.164C154.066 146.418 156.729 145.699 158.693 144.165C161.278 142.146 162.354 138.991 163.309 136.01C164.198 133.237 165.095 130.364 164.669 127.502C164.153 125.38 162.929 123.323 162.521 121.213C162.171 119.404 162.287 117.449 162.003 115.586C161.928 115.645 161.853 115.701 161.778 115.759C155.519 125.489 153.835 137.418 149.905 148.326C149.833 149.383 149.499 150.452 149.033 151.535Z" fill="#212326"/>
<path d="M151.343 123.637C148.565 126.727 146.592 130.432 145.751 134.361C145.379 136.103 144.942 138.526 145.541 140.267C146.189 142.149 147.922 143.24 148.993 144.862C149.744 146.002 149.985 147.157 149.904 148.327C153.834 137.419 155.518 125.489 161.777 115.76C158.283 118.47 154.29 120.361 151.343 123.637Z" fill="#1E2B3B"/>
<path d="M187.531 142.234C182.068 140.846 176.402 139.906 170.779 140.465C164.685 141.071 158.599 143.648 155.133 148.264C153.348 150.643 152.336 153.422 151.347 156.16C148.991 162.678 146.635 169.196 144.279 175.715L144.882 178.3C146.903 171.283 149.568 164.42 152.838 157.807C152.974 157.535 153.119 157.259 153.299 157.01C157.869 144.734 174.117 143.81 187.531 142.234Z" fill="#1E2B3B"/>
<path d="M153.302 157.01C153.452 156.803 153.625 156.614 153.846 156.468C154.704 155.905 155.942 156.173 156.793 156.746C157.643 157.32 158.247 158.142 159.007 158.812C161.211 160.758 164.579 161.26 167.602 160.788C170.625 160.315 173.398 158.998 176.115 157.7C178.361 156.626 180.713 155.465 182.055 153.5C183.346 151.61 183.495 149.276 184.17 147.135C184.846 144.995 186.47 142.761 188.903 142.591C188.448 142.468 187.991 142.35 187.534 142.234C174.12 143.81 157.871 144.734 153.302 157.01Z" fill="#212326"/>
<path d="M165.135 164.896C167.084 170.946 167.626 177.766 170.422 183.5C170.765 180.398 172.012 177.406 173.07 174.422C174.282 171.006 175.269 167.35 174.379 163.852C173.777 161.483 172.078 159.19 169.697 158.032C168.034 157.223 164.25 156.58 162.525 157.496C161.634 157.969 160.947 158.73 160.016 159.133C159.643 159.294 159.268 159.404 158.893 159.486C161.618 160.714 163.871 162.203 165.135 164.896Z" fill="#1E2B3B"/>
<path d="M165.139 164.213C163.875 161.52 161.622 160.031 158.897 158.803C156.782 159.265 154.639 158.713 152.556 159.902C150.391 161.139 148.262 162.765 147.933 165.231C147.49 168.542 150.54 171.301 153.394 173.381C158.78 177.305 164.442 180.912 170.335 184.173C170.344 183.719 170.375 183.267 170.425 182.818C167.629 177.083 167.087 170.263 165.139 164.213Z" fill="#212326"/>
<path d="M149.54 45.1286V174.577C149.54 177.956 148.291 180.323 146.318 181.305V181.31L141.564 183.814C143.409 182.77 144.574 180.45 144.574 177.193V47.7489C144.574 41.6578 140.517 34.584 135.517 31.9483L83.416 4.48389C81.348 3.39502 79.4422 3.23208 77.915 3.85303L82.0727 1.65989C83.706 0.59139 85.9296 0.571022 88.3877 1.86357L140.483 29.328C145.488 31.9637 149.54 39.0424 149.54 45.1286Z" fill="black"/>
<path d="M144.573 47.7487V177.196C144.573 180.448 143.41 182.772 141.566 183.816C141.497 183.856 141.421 183.891 141.351 183.926C139.772 184.722 137.739 184.618 135.515 183.447L132.446 181.827L83.414 155.986C78.4182 153.35 74.3569 146.274 74.3569 140.184V10.7372C74.3569 7.17335 75.7527 4.72809 77.9129 3.85171C79.4413 3.23461 81.349 3.39591 83.414 4.48587L135.515 31.9475C140.517 34.5832 144.573 41.6592 144.573 47.7487Z" fill="#1E2B3B"/>
<path d="M144.029 49.8878V176.158C144.029 178.384 142.311 179.277 140.189 178.159L82.6241 147.813C80.5018 146.695 78.7775 143.99 78.7775 141.764V15.4889C78.7775 13.2688 80.5018 12.3693 82.6241 13.4934L104.731 25.1428C106.246 25.9443 107.724 27.3514 108.703 29.0815C109.348 30.2233 110.32 31.2499 111.407 31.8208C112.493 32.3977 113.46 32.3916 114.11 31.9303C115.083 31.2323 116.567 31.3826 118.083 32.1841L140.189 43.833C142.311 44.9571 144.029 47.6621 144.029 49.8878Z" fill="#475569"/>
<path d="M109.374 26.4197C109.374 25.3964 110.165 24.9841 111.142 25.4993C112.119 26.014 112.91 27.2609 112.91 28.2842C112.91 29.3076 112.119 29.7199 111.142 29.2047C110.165 28.6899 109.374 27.4431 109.374 26.4197Z" fill="#464A54"/>
<path d="M110.323 26.9201C110.323 26.4467 110.69 26.2562 111.141 26.494C111.593 26.7324 111.959 27.3093 111.959 27.7827C111.959 28.2561 111.593 28.4471 111.141 28.2088C110.69 27.9704 110.323 27.3935 110.323 26.9201Z" fill="#464A54"/>
<path d="M136.993 75.2742L81.9465 46.2569C80.6503 45.5737 79.5994 43.7406 79.5994 42.1629V28.1486C79.5994 26.5709 80.6503 25.8454 81.9465 26.5285L136.993 55.5458C138.289 56.229 139.339 58.0621 139.339 59.6398V73.6541C139.339 75.2324 138.289 75.9574 136.993 75.2742Z" fill="#3C3F43" fill-opacity="0.6"/>
<path d="M83.3605 36.5071C83.2658 36.4572 83.1852 36.3856 83.1186 36.2923C83.052 36.1984 83.0011 36.0866 82.9659 35.9568C82.9307 35.8265 82.9131 35.6823 82.9131 35.5242C82.9131 35.367 82.9307 35.242 82.9659 35.1493C83.0015 35.0563 83.0526 34.998 83.1192 34.9744C83.1862 34.9505 83.2666 34.9633 83.3605 35.0128C83.4543 35.0622 83.5345 35.1341 83.6011 35.2284C83.6681 35.3224 83.7192 35.4346 83.7544 35.5649C83.79 35.6949 83.8078 35.8385 83.8078 35.9957C83.8078 36.1539 83.7902 36.2796 83.755 36.3727C83.7198 36.4655 83.6689 36.5236 83.6023 36.5472C83.5358 36.5704 83.4551 36.557 83.3605 36.5071ZM83.3605 36.3509C83.4543 36.4003 83.5272 36.3876 83.5791 36.3127C83.631 36.2378 83.657 36.1057 83.657 35.9163C83.657 35.7903 83.6451 35.6768 83.6212 35.5756C83.5977 35.4747 83.5638 35.3894 83.5194 35.3196C83.4754 35.25 83.4224 35.1989 83.3605 35.1662C83.2675 35.1172 83.1948 35.1307 83.1424 35.2068C83.0901 35.2824 83.0639 35.4147 83.0639 35.6036C83.0639 35.7296 83.0756 35.8428 83.0991 35.9432C83.1225 36.0436 83.1563 36.1284 83.2002 36.1975C83.2446 36.2669 83.298 36.318 83.3605 36.3509ZM84.4562 35.5903C84.509 35.6186 84.5618 35.6578 84.6145 35.7079C84.6673 35.758 84.7155 35.8203 84.759 35.8948C84.8026 35.9689 84.8376 36.0572 84.864 36.1597C84.8904 36.2621 84.9035 36.3801 84.9035 36.5136C84.9035 36.6429 84.8927 36.752 84.8709 36.8409C84.8495 36.9295 84.8185 36.9975 84.7779 37.0447C84.7377 37.0922 84.6887 37.1184 84.6309 37.1235C84.5735 37.1287 84.5086 37.1123 84.4361 37.0741C84.3641 37.0361 84.2998 36.9861 84.2432 36.9241C84.1871 36.8618 84.141 36.7923 84.105 36.7156C84.0694 36.6386 84.0466 36.5591 84.0365 36.4771L84.1898 36.5579C84.2036 36.6319 84.2311 36.7015 84.2721 36.7667C84.3136 36.8317 84.3682 36.882 84.4361 36.9178C84.5354 36.9701 84.6137 36.9624 84.6711 36.8946C84.7289 36.8271 84.7578 36.7038 84.7578 36.5249L84.7477 36.5196C84.7243 36.547 84.6964 36.5666 84.6642 36.5785C84.6319 36.5904 84.5961 36.5938 84.5567 36.5886C84.5174 36.5835 84.4755 36.5692 84.4311 36.5458C84.3574 36.507 84.2897 36.4507 84.2281 36.3771C84.167 36.3032 84.118 36.2203 84.0811 36.1284C84.0447 36.0363 84.0264 35.9434 84.0264 35.8496C84.0264 35.7606 84.044 35.6884 84.0792 35.6331C84.1148 35.5775 84.1647 35.5446 84.2288 35.5344C84.2933 35.5243 84.3691 35.543 84.4562 35.5903ZM84.4562 35.7466C84.4034 35.7188 84.3559 35.7086 84.3136 35.7162C84.2717 35.7234 84.2384 35.7457 84.2137 35.7828C84.1894 35.8197 84.1772 35.8685 84.1772 35.9291C84.1772 35.9897 84.189 36.051 84.2124 36.1131C84.2363 36.175 84.2688 36.2314 84.3098 36.2824C84.3513 36.3331 84.3984 36.3724 84.4512 36.4002C84.491 36.4212 84.528 36.4319 84.5624 36.4325C84.5967 36.4326 84.6267 36.424 84.6522 36.4067C84.6782 36.3892 84.6985 36.3646 84.7132 36.333C84.7278 36.301 84.7352 36.2634 84.7352 36.2203C84.7352 36.1635 84.723 36.1038 84.6987 36.0413C84.6748 35.979 84.6418 35.9213 84.5995 35.8683C84.5576 35.8154 84.5098 35.7748 84.4562 35.7466ZM85.2163 37.4768C85.1853 37.4604 85.1587 37.4339 85.1365 37.3971C85.1143 37.3603 85.1032 37.3243 85.1032 37.2893C85.1032 37.2543 85.1143 37.2301 85.1365 37.2167C85.1587 37.2033 85.1853 37.2047 85.2163 37.2211C85.2473 37.2374 85.2739 37.264 85.2961 37.3008C85.3183 37.3376 85.3294 37.3735 85.3294 37.4085C85.3294 37.4317 85.3241 37.4503 85.3137 37.4642C85.3036 37.4783 85.29 37.4867 85.2728 37.4895C85.2561 37.492 85.2372 37.4878 85.2163 37.4768ZM85.9677 37.8813C85.8731 37.8315 85.7924 37.7598 85.7258 37.6665C85.6592 37.5727 85.6083 37.4609 85.5732 37.331C85.538 37.2008 85.5204 37.0565 85.5204 36.8984C85.5204 36.7412 85.538 36.6162 85.5732 36.5235C85.6088 36.4305 85.6599 36.3723 85.7265 36.3486C85.7935 36.3248 85.8739 36.3376 85.9677 36.387C86.0615 36.4365 86.1418 36.5084 86.2084 36.6026C86.2754 36.6967 86.3265 36.8088 86.3617 36.9391C86.3973 37.0692 86.4151 37.2128 86.4151 37.37C86.4151 37.5281 86.3975 37.6538 86.3623 37.747C86.3271 37.8397 86.2762 37.8979 86.2096 37.9215C86.143 37.9446 86.0624 37.9312 85.9677 37.8813ZM85.9677 37.7251C86.0615 37.7746 86.1344 37.7618 86.1864 37.6869C86.2383 37.612 86.2643 37.4799 86.2643 37.2905C86.2643 37.1646 86.2523 37.051 86.2285 36.9499C86.205 36.849 86.1711 36.7636 86.1267 36.6938C86.0827 36.6242 86.0297 36.5731 85.9677 36.5404C85.8747 36.4914 85.8021 36.505 85.7497 36.5811C85.6973 36.6567 85.6712 36.789 85.6712 36.9779C85.6712 37.1038 85.6829 37.217 85.7064 37.3174C85.7298 37.4179 85.7635 37.5027 85.8075 37.5718C85.8519 37.6411 85.9053 37.6922 85.9677 37.7251ZM87.0735 38.4642C86.9789 38.4143 86.8982 38.3427 86.8316 38.2493C86.765 38.1555 86.7141 38.0437 86.679 37.9139C86.6438 37.7836 86.6262 37.6394 86.6262 37.4812C86.6262 37.324 86.6438 37.1991 86.679 37.1064C86.7146 37.0134 86.7657 36.9551 86.8323 36.9315C86.8993 36.9076 86.9797 36.9204 87.0735 36.9699C87.1673 37.0193 87.2476 37.0912 87.3142 37.1855C87.3812 37.2795 87.4323 37.3917 87.4675 37.522C87.5031 37.652 87.5209 37.7956 87.5209 37.9528C87.5209 38.111 87.5033 38.2366 87.4681 38.3298C87.4329 38.4226 87.382 38.4807 87.3154 38.5043C87.2488 38.5275 87.1682 38.5141 87.0735 38.4642ZM87.0735 38.3079C87.1673 38.3574 87.2402 38.3447 87.2922 38.2698C87.3441 38.1949 87.3701 38.0627 87.3701 37.8733C87.3701 37.7474 87.3581 37.6339 87.3343 37.5327C87.3108 37.4318 87.2769 37.3465 87.2325 37.2767C87.1885 37.2071 87.1355 37.156 87.0735 37.1233C86.9805 37.0743 86.9079 37.0878 86.8555 37.1639C86.8031 37.2395 86.777 37.3718 86.777 37.5607C86.777 37.6867 86.7887 37.7999 86.8122 37.9003C86.8356 38.0007 86.8693 38.0855 86.9133 38.1546C86.9577 38.2239 87.0111 38.275 87.0735 38.3079Z" fill="#8A939A"/>
<path d="M83.0413 41.4777L82.8589 41.4489L83.3864 40.0777L83.566 40.1061L84.0935 41.644L83.9111 41.6152L83.4818 40.3229L83.4706 40.3212L83.0413 41.4777ZM83.1086 40.9202L83.8438 41.0364V41.1926L83.1086 41.0764V40.9202ZM84.3173 40.2249L84.525 40.2577L85.0132 41.5422L85.0301 41.5449L85.5183 40.4147L85.726 40.4475V41.9021L85.5632 41.8763V40.7712L85.5492 40.769L85.1002 41.8032L84.9431 41.7783L84.4941 40.6022L84.4801 40.6V41.7051L84.3173 41.6794V40.2249Z" fill="#8A939A"/>
<path d="M82.9634 31.0871L83.1493 31.1851L83.5866 32.623L83.6017 32.6309L84.039 31.654L84.225 31.752V33.2066L84.0792 33.1297V32.0246L84.0667 32.018L83.6646 32.9112L83.5238 32.837L83.1217 31.5199L83.1091 31.5133V32.6184L82.9634 32.5416V31.0871ZM84.9094 33.59C84.8222 33.5441 84.7458 33.4804 84.68 33.3988C84.6147 33.3175 84.5636 33.225 84.5267 33.1213C84.4903 33.0178 84.4721 32.9097 84.4721 32.797C84.4721 32.6834 84.4903 32.5938 84.5267 32.5283C84.5636 32.4629 84.6147 32.4241 84.68 32.4116C84.7458 32.3994 84.8222 32.4163 84.9094 32.4622C84.9965 32.5081 85.0727 32.5717 85.1381 32.653C85.2038 32.7346 85.2549 32.8273 85.2914 32.9313C85.3282 33.0355 85.3467 33.1444 85.3467 33.258C85.3467 33.3707 85.3282 33.4595 85.2914 33.5243C85.2549 33.5894 85.2038 33.628 85.1381 33.6402C85.0727 33.6527 84.9965 33.6359 84.9094 33.59ZM84.9094 33.4395C84.9755 33.4743 85.03 33.4839 85.0727 33.468C85.1154 33.4522 85.1471 33.4184 85.1676 33.3668C85.1881 33.3151 85.1984 33.2528 85.1984 33.1799C85.1984 33.1069 85.1881 33.0336 85.1676 32.9598C85.1471 32.886 85.1154 32.8184 85.0727 32.7571C85.03 32.6957 84.9755 32.6476 84.9094 32.6127C84.8432 32.5779 84.7887 32.5686 84.746 32.5849C84.7033 32.6012 84.6717 32.6354 84.6511 32.6876C84.6306 32.7397 84.6203 32.8023 84.6203 32.8752C84.6203 32.9481 84.6306 33.0212 84.6511 33.0945C84.6717 33.1679 84.7033 33.2349 84.746 33.2958C84.7887 33.3567 84.8432 33.4046 84.9094 33.4395ZM85.7213 33.339V33.9952L85.573 33.9171V32.8262L85.7162 32.9017V33.0721L85.7288 33.0788C85.7514 33.0353 85.7858 33.0089 85.8319 32.9995C85.8779 32.9897 85.9374 33.004 86.0103 33.0425C86.0756 33.0769 86.1328 33.1222 86.1818 33.1783C86.2308 33.234 86.2689 33.2995 86.2962 33.375C86.3234 33.4499 86.337 33.5338 86.337 33.6266V34.3198L86.1887 34.2416V33.5598C86.1887 33.4741 86.169 33.397 86.1297 33.3284C86.0903 33.2593 86.0363 33.2067 85.9676 33.1705C85.9202 33.1456 85.8779 33.1349 85.8407 33.1384C85.8038 33.1422 85.7747 33.1607 85.7533 33.1939C85.732 33.2272 85.7213 33.2755 85.7213 33.339ZM86.9724 34.6774C86.8919 34.635 86.8209 34.5746 86.7594 34.4962C86.6978 34.4174 86.6496 34.3266 86.6149 34.224C86.5801 34.121 86.5627 34.0117 86.5627 33.8961C86.5627 33.7815 86.5801 33.6913 86.6149 33.6253C86.6496 33.5594 86.698 33.5198 86.76 33.5065C86.822 33.4933 86.8936 33.508 86.9749 33.5509C87.0377 33.584 87.0873 33.622 87.1238 33.6649C87.1606 33.7075 87.1887 33.7488 87.208 33.7888C87.2277 33.8285 87.243 33.8607 87.2538 33.8854L87.2664 33.892V33.3551L87.4147 33.4333V34.8878L87.2714 34.8123V34.6447L87.2538 34.6354C87.243 34.6496 87.2275 34.6665 87.2073 34.6862C87.1872 34.7054 87.1586 34.717 87.1213 34.7211C87.084 34.7246 87.0344 34.7101 86.9724 34.6774ZM86.9925 34.5374C87.052 34.5688 87.1022 34.5777 87.1433 34.5643C87.1843 34.5505 87.2155 34.5179 87.2369 34.4667C87.2582 34.415 87.2689 34.3479 87.2689 34.2655C87.2689 34.1841 87.2585 34.1073 87.2375 34.0352C87.2166 33.9626 87.1856 33.8984 87.1445 33.8427C87.1035 33.7865 87.0528 33.7425 86.9925 33.7107C86.9296 33.6776 86.8773 33.6682 86.8354 33.6826C86.7939 33.6967 86.7627 33.7293 86.7418 33.7803C86.7213 33.831 86.711 33.8947 86.711 33.9714C86.711 34.0491 86.7215 34.1252 86.7424 34.1996C86.7638 34.2739 86.7952 34.3406 86.8367 34.3999C86.8785 34.4589 86.9305 34.5047 86.9925 34.5374ZM87.9908 35.217C87.9297 35.1848 87.8742 35.1425 87.8243 35.0902C87.7745 35.0374 87.7349 34.9785 87.7056 34.9133C87.6763 34.8476 87.6616 34.7793 87.6616 34.7083C87.6616 34.6458 87.6725 34.6009 87.6943 34.5735C87.7161 34.5457 87.7452 34.5303 87.7816 34.5272C87.8181 34.5242 87.8583 34.5288 87.9022 34.5411C87.9466 34.5531 87.9913 34.5676 88.0361 34.5846C88.0947 34.607 88.1423 34.6257 88.1787 34.6406C88.2156 34.6553 88.2424 34.6616 88.2591 34.6596C88.2763 34.6577 88.2849 34.6433 88.2849 34.6163V34.6107C88.2849 34.5406 88.2679 34.4772 88.234 34.4205C88.2005 34.364 88.1496 34.3178 88.0813 34.2818C88.0105 34.2445 87.955 34.2327 87.9148 34.2466C87.8746 34.2604 87.8463 34.2829 87.83 34.3141L87.6893 34.1831C87.7144 34.13 87.7479 34.0961 87.7898 34.0812C87.8321 34.0661 87.8782 34.0644 87.928 34.076C87.9783 34.0873 88.0277 34.1058 88.0763 34.1314C88.1073 34.1477 88.1429 34.1708 88.1831 34.2005C88.2237 34.2299 88.2629 34.2674 88.3006 34.3128C88.3387 34.3585 88.3703 34.4137 88.3955 34.4786C88.4206 34.5435 88.4332 34.6192 88.4332 34.7059V35.4246L88.2849 35.3465V35.1987L88.2773 35.1948C88.2673 35.2131 88.2505 35.2296 88.2271 35.2443C88.2036 35.2589 88.1724 35.2654 88.1335 35.2638C88.0945 35.2622 88.047 35.2466 87.9908 35.217ZM88.0135 35.0784C88.0721 35.1093 88.1215 35.1223 88.1617 35.1175C88.2024 35.1129 88.2329 35.0954 88.2535 35.065C88.2744 35.0348 88.2849 34.997 88.2849 34.9516V34.7982C88.2786 34.8034 88.2648 34.8039 88.2434 34.7997C88.2225 34.7953 88.1982 34.7884 88.1705 34.7791C88.1433 34.7695 88.1167 34.7597 88.0907 34.7498C88.0652 34.7397 88.0444 34.7316 88.0285 34.7255C87.99 34.7109 87.954 34.7012 87.9205 34.6963C87.8874 34.6912 87.8606 34.6957 87.84 34.71C87.8199 34.724 87.8099 34.7523 87.8099 34.795C87.8099 34.8532 87.8289 34.9073 87.8671 34.9572C87.9056 35.0069 87.9544 35.0473 88.0135 35.0784ZM88.7647 36.0085C88.7396 35.9952 88.7172 35.981 88.6975 35.9659C88.6778 35.9513 88.6642 35.9399 88.6567 35.9316L88.6944 35.8038C88.7304 35.8332 88.7622 35.8537 88.7899 35.8655C88.8175 35.8772 88.842 35.8761 88.8634 35.8623C88.8852 35.8492 88.9051 35.8196 88.9231 35.7737L88.9507 35.7031L88.5938 34.4184L88.7547 34.5032L89.0211 35.5129L89.0311 35.5182L89.2975 34.7893L89.4584 34.8741L89.0487 35.9082C89.0303 35.9548 89.0075 35.9894 88.9802 36.012C88.953 36.035 88.9214 36.0461 88.8854 36.0451C88.8498 36.0443 88.8096 36.0321 88.7647 36.0085Z" fill="#8A939A"/>
<path d="M134.682 63.623C134.629 63.5224 134.563 63.4176 134.49 63.3041L134.489 63.3026C134.409 63.1819 134.329 62.9935 134.252 62.7801C134.134 62.4581 134.02 62.0819 133.829 61.7193C133.732 61.5379 133.613 61.357 133.456 61.1915C133.299 61.026 133.103 60.8805 132.883 60.784C132.587 60.6509 132.338 60.6471 132.161 60.7236C131.895 60.8379 131.755 61.0946 131.629 61.334C131.508 61.5752 131.395 61.8041 131.274 61.878L131.273 61.8783C131.199 61.927 131.134 61.9737 131.081 62.0276C131.03 62.0827 130.985 62.143 130.984 62.2489C130.98 62.3432 131.041 62.4774 131.128 62.5735C131.257 62.7198 131.41 62.8219 131.627 62.949C131.81 63.0538 132.043 63.171 132.333 63.3071C132.417 63.5397 132.631 63.7734 132.883 63.8854C133.134 63.9966 133.347 63.9506 133.43 63.7919C133.834 63.9608 134.125 64.0667 134.333 64.1135C134.452 64.1391 134.55 64.15 134.635 64.1274C134.722 64.1078 134.783 64.0283 134.78 63.9306C134.778 63.8239 134.733 63.7229 134.682 63.623ZM134.085 63.6645C133.937 63.6192 133.732 63.5423 133.469 63.4334V63.4315L133.25 63.3418L133.247 63.3407C133.138 63.2958 133.016 63.2415 132.883 63.1831C132.747 63.1228 132.625 63.0685 132.515 63.0164L132.513 63.0153L132.295 62.9116V62.9128C131.932 62.7416 131.678 62.6055 131.535 62.5098C131.472 62.4687 131.439 62.44 131.42 62.4219C131.426 62.4103 131.437 62.3944 131.456 62.3767C131.49 62.3432 131.543 62.3039 131.608 62.2613L131.607 62.2617C131.741 62.1731 131.827 62.0303 131.91 61.8768C132.032 61.6465 132.144 61.3879 132.298 61.2375C132.374 61.1617 132.458 61.1142 132.55 61.0995C132.643 61.0855 132.743 61.0984 132.884 61.1602C133.068 61.2439 133.185 61.3479 133.303 61.498C133.477 61.7219 133.613 62.0551 133.732 62.3959C133.856 62.739 133.959 63.082 134.157 63.3915L134.156 63.39C134.226 63.4975 134.282 63.5887 134.316 63.6535L134.346 63.7199C134.308 63.7191 134.222 63.7082 134.085 63.6645Z" fill="#8A939A"/>
<path d="M99.8908 43.7822L100.17 43.9292L100.826 46.086L100.848 46.098L101.504 44.6326L101.783 44.7797V46.9615L101.565 46.8462V45.1886L101.546 45.1786L100.943 46.5184L100.731 46.4071L100.128 44.4315L100.109 44.4216V46.0793L99.8908 45.964V43.7822ZM102.829 47.5466C102.689 47.4731 102.569 47.3748 102.468 47.2519C102.367 47.1286 102.29 46.9897 102.235 46.8352C102.181 46.6803 102.154 46.519 102.154 46.3514C102.154 46.1838 102.181 46.0503 102.235 45.951C102.29 45.8512 102.366 45.7911 102.463 45.7707C102.561 45.75 102.675 45.774 102.806 45.8429C102.881 45.8826 102.956 45.9361 103.029 46.0032C103.103 46.0704 103.17 46.1518 103.23 46.2475C103.29 46.3425 103.339 46.4517 103.374 46.575C103.41 46.6982 103.428 46.8362 103.428 46.9889V47.0955L102.312 46.5073V46.29L103.202 46.7589C103.202 46.6666 103.186 46.5756 103.153 46.4859C103.121 46.3966 103.075 46.3152 103.015 46.2419C102.956 46.1688 102.886 46.1111 102.806 46.0687C102.717 46.022 102.641 46.0065 102.576 46.0221C102.512 46.0373 102.463 46.0753 102.428 46.1359C102.394 46.1965 102.376 46.2719 102.376 46.3621V46.507C102.376 46.6306 102.395 46.7453 102.433 46.8511C102.471 46.9565 102.524 47.0495 102.592 47.13C102.66 47.2098 102.739 47.2734 102.829 47.3207C102.887 47.3515 102.94 47.3701 102.987 47.3765C103.035 47.3825 103.076 47.3758 103.11 47.3563C103.145 47.3362 103.172 47.3027 103.191 47.2558L103.405 47.4372C103.383 47.5077 103.345 47.5601 103.291 47.5945C103.238 47.6281 103.172 47.6416 103.093 47.635C103.015 47.6277 102.927 47.5982 102.829 47.5466ZM104.373 48.3607C104.234 48.2872 104.114 48.189 104.012 48.0661C103.912 47.9428 103.834 47.8039 103.78 47.6494C103.726 47.4944 103.699 47.3332 103.699 47.1656C103.699 46.998 103.726 46.8645 103.78 46.7651C103.834 46.6654 103.91 46.6053 104.008 46.5849C104.106 46.5641 104.22 46.5882 104.351 46.6571C104.426 46.6968 104.501 46.7502 104.574 46.8174C104.648 46.8845 104.714 46.966 104.775 47.0617C104.835 47.1567 104.883 47.2658 104.919 47.3891C104.955 47.5124 104.973 47.6504 104.973 47.8031V47.9096L103.857 47.3215V47.1041L104.747 47.5731C104.747 47.4807 104.73 47.3897 104.698 47.3001C104.665 47.2107 104.62 47.1294 104.56 47.056C104.501 46.983 104.431 46.9253 104.351 46.8829C104.262 46.8362 104.185 46.8207 104.121 46.8363C104.057 46.8515 104.007 46.8894 103.973 46.95C103.938 47.0107 103.921 47.0861 103.921 47.1763V47.3212C103.921 47.4447 103.94 47.5594 103.977 47.6652C104.016 47.7707 104.069 47.8636 104.137 47.9441C104.205 48.0239 104.283 48.0875 104.373 48.1349C104.432 48.1657 104.485 48.1843 104.532 48.1906C104.579 48.1966 104.621 48.1899 104.655 48.1705C104.69 48.1503 104.716 48.1168 104.735 48.07L104.95 48.2514C104.927 48.3219 104.889 48.3743 104.836 48.4086C104.783 48.4423 104.717 48.4558 104.638 48.4492C104.56 48.4419 104.471 48.4124 104.373 48.3607ZM105.941 47.5164V47.7294L105.19 47.334V47.121L105.941 47.5164ZM105.409 46.8442L105.631 46.9614V48.521C105.631 48.5921 105.641 48.6501 105.659 48.6953C105.678 48.74 105.702 48.776 105.73 48.8033C105.76 48.8302 105.791 48.8523 105.824 48.8695C105.848 48.8825 105.868 48.8916 105.884 48.8971C105.9 48.9018 105.912 48.9056 105.922 48.9084L105.967 49.1581C105.952 49.1566 105.931 49.1519 105.904 49.144C105.877 49.1369 105.843 49.1224 105.801 49.1005C105.738 49.0674 105.677 49.0197 105.616 48.9573C105.557 48.8953 105.507 48.8227 105.467 48.7393C105.429 48.6563 105.409 48.5672 105.409 48.472V46.8442ZM106.275 49.3291V47.6927L106.498 47.8099V49.4463L106.275 49.3291ZM106.388 47.4796C106.345 47.4567 106.308 47.4203 106.276 47.3704C106.245 47.3208 106.23 47.2726 106.23 47.2257C106.23 47.1788 106.245 47.1468 106.276 47.1296C106.308 47.1128 106.345 47.1158 106.388 47.1387C106.432 47.1615 106.469 47.1978 106.499 47.2474C106.531 47.2973 106.547 47.3457 106.547 47.3926C106.547 47.4395 106.531 47.4713 106.499 47.4881C106.469 47.5053 106.432 47.5024 106.388 47.4796ZM107.127 48.7939V49.7783L106.905 49.661V48.0247L107.12 48.1379V48.3936L107.139 48.4035C107.173 48.3383 107.224 48.2987 107.293 48.2847C107.362 48.27 107.452 48.2915 107.561 48.3491C107.659 48.4007 107.745 48.4687 107.818 48.5529C107.892 48.6364 107.949 48.7347 107.99 48.8478C108.031 48.9603 108.051 49.0861 108.051 49.2253V50.2651L107.829 50.1478V49.1251C107.829 48.9965 107.799 48.8808 107.74 48.778C107.681 48.6744 107.6 48.5955 107.497 48.5412C107.426 48.5037 107.362 48.4877 107.306 48.493C107.251 48.4987 107.207 48.5264 107.175 48.5763C107.143 48.6262 107.127 48.6987 107.127 48.7939ZM109.042 51.435C108.934 51.3784 108.842 51.3141 108.765 51.2421C108.687 51.1708 108.623 51.0964 108.571 51.0188C108.521 50.9422 108.48 50.8676 108.45 50.7949L108.627 50.7477C108.647 50.7881 108.673 50.8356 108.703 50.8902C108.734 50.9455 108.776 51.0014 108.83 51.0579C108.884 51.1155 108.954 51.1674 109.042 51.2134C109.159 51.275 109.255 51.2939 109.331 51.27C109.407 51.2462 109.445 51.1661 109.445 51.0297V50.6973L109.426 50.6874C109.41 50.7086 109.387 50.7333 109.356 50.7614C109.327 50.7892 109.284 50.8054 109.228 50.81C109.173 50.8142 109.098 50.7915 109.004 50.7418C108.887 50.6802 108.782 50.5937 108.689 50.4822C108.597 50.371 108.524 50.2415 108.47 50.0937C108.416 49.9462 108.39 49.7873 108.39 49.6168C108.39 49.4492 108.416 49.317 108.468 49.2202C108.52 49.1227 108.592 49.0643 108.685 49.0452C108.778 49.0253 108.886 49.0475 109.008 49.1117C109.102 49.1614 109.177 49.2185 109.232 49.2832C109.288 49.3475 109.331 49.4098 109.36 49.4701C109.39 49.53 109.414 49.5785 109.43 49.6155L109.453 49.6274V49.3675L109.667 49.4807V51.164C109.667 51.3046 109.639 51.404 109.583 51.4623C109.527 51.5216 109.451 51.5469 109.356 51.538C109.262 51.5303 109.157 51.4959 109.042 51.435ZM109.034 50.5319C109.123 50.5789 109.199 50.5955 109.26 50.5818C109.322 50.5681 109.369 50.5264 109.401 50.4566C109.433 50.3869 109.449 50.2916 109.449 50.1709C109.449 50.053 109.433 49.9407 109.402 49.8339C109.37 49.7271 109.324 49.632 109.262 49.5484C109.201 49.4648 109.125 49.3992 109.034 49.3515C108.94 49.3018 108.861 49.2874 108.799 49.3082C108.736 49.3294 108.69 49.3772 108.658 49.4516C108.627 49.5262 108.612 49.619 108.612 49.7298C108.612 49.8434 108.628 49.9522 108.659 50.0561C108.691 50.1596 108.738 50.2527 108.8 50.3352C108.863 50.4173 108.941 50.4829 109.034 50.5319Z" fill="#8A939A"/>
<path d="M96.0311 37.2734V50.7224H96.3325V37.2734" fill="#8A939A"/>
<path d="M136.993 119.679L81.9465 90.6617C80.6503 89.9785 79.5994 88.1454 79.5994 86.5677V72.5534C79.5994 70.9757 80.6503 70.2502 81.9465 70.9333L136.993 99.9506C138.289 100.634 139.339 102.467 139.339 104.045V118.059C139.339 119.637 138.289 120.362 136.993 119.679Z" fill="#3C3F43" fill-opacity="0.6"/>
<path d="M85.8835 89.0417L85.7038 88.9991L86.2235 87.6678L86.4004 87.7097L86.9201 89.2875L86.7404 89.2449L86.3175 87.9202L86.3064 87.9175L85.8835 89.0417ZM85.9498 88.4892L86.6741 88.6609V88.8172L85.9498 88.6455V88.4892ZM87.1405 87.8852L87.3451 87.9337L87.8261 89.2551L87.8427 89.259L88.3237 88.1657L88.5282 88.2142V89.6687L88.3679 89.6307V88.5256L88.3541 88.5223L87.9118 89.5226L87.757 89.4859L87.3147 88.2759L87.3009 88.2726V89.3777L87.1405 89.3397V87.8852Z" fill="#8A939A"/>
<path d="M85.3503 81.0165V83.1983L85.1166 83.0751V81.1703L85.1053 81.1643L84.6341 81.2697V81.0012L85.1166 80.8933L85.3503 81.0165ZM86.535 83.8526C86.393 83.7777 86.2721 83.6703 86.1722 83.5303C86.0723 83.3895 85.9959 83.2218 85.9431 83.0271C85.8904 82.8317 85.864 82.6153 85.864 82.3781C85.864 82.1423 85.8904 81.9549 85.9431 81.8158C85.9965 81.6763 86.0732 81.5889 86.1731 81.5535C86.2736 81.5177 86.3943 81.5369 86.535 81.6111C86.6757 81.6853 86.796 81.7931 86.8959 81.9345C86.9965 82.0755 87.0731 82.2438 87.1259 82.4392C87.1793 82.6343 87.206 82.8497 87.206 83.0855C87.206 83.3227 87.1796 83.5112 87.1268 83.651C87.0741 83.7901 86.9977 83.8773 86.8978 83.9128C86.7979 83.9475 86.677 83.9274 86.535 83.8526ZM86.535 83.6182C86.6757 83.6924 86.7851 83.6733 86.863 83.5609C86.9409 83.4486 86.9798 83.2504 86.9798 82.9663C86.9798 82.7774 86.9619 82.607 86.9261 82.4554C86.8909 82.304 86.84 82.176 86.7734 82.0713C86.7075 81.9669 86.628 81.8902 86.535 81.8412C86.3955 81.7677 86.2865 81.788 86.208 81.9021C86.1294 82.0156 86.0902 82.214 86.0902 82.4973C86.0902 82.6863 86.1078 82.8561 86.1429 83.0067C86.1781 83.1573 86.2287 83.2845 86.2947 83.3882C86.3613 83.4922 86.4414 83.5688 86.535 83.6182ZM87.6626 84.4341C87.6161 84.4096 87.5762 84.3698 87.5429 84.3146C87.5096 84.2594 87.493 84.2055 87.493 84.1529C87.493 84.1004 87.5096 84.0641 87.5429 84.044C87.5762 84.0239 87.6161 84.0261 87.6626 84.0506C87.7091 84.0751 87.749 84.115 87.7823 84.1701C87.8156 84.2253 87.8323 84.2792 87.8323 84.3318C87.8323 84.3666 87.8244 84.3944 87.8087 84.4152C87.7936 84.4364 87.7732 84.4491 87.7474 84.4533C87.7223 84.4571 87.694 84.4507 87.6626 84.4341ZM88.7898 85.041C88.6478 84.9662 88.5268 84.8587 88.4269 84.7187C88.327 84.578 88.2507 84.4103 88.1979 84.2156C88.1452 84.0201 88.1188 83.8038 88.1188 83.5666C88.1188 83.3308 88.1452 83.1434 88.1979 83.0043C88.2513 82.8648 88.328 82.7774 88.4279 82.7419C88.5284 82.7062 88.649 82.7253 88.7898 82.7995C88.9305 82.8737 89.0508 82.9815 89.1507 83.123C89.2513 83.264 89.3279 83.4322 89.3807 83.6277C89.4341 83.8227 89.4608 84.0382 89.4608 84.2739C89.4608 84.5112 89.4344 84.6997 89.3816 84.8395C89.3289 84.9786 89.2525 85.0658 89.1526 85.1012C89.0527 85.1359 88.9318 85.1159 88.7898 85.041ZM88.7898 84.8066C88.9305 84.8808 89.0398 84.8617 89.1178 84.7494C89.1957 84.637 89.2346 84.4388 89.2346 84.1547C89.2346 83.9658 89.2167 83.7955 89.1809 83.6438C89.1457 83.4925 89.0948 83.3644 89.0282 83.2597C88.9623 83.1553 88.8828 83.0787 88.7898 83.0296C88.6503 82.9561 88.5413 82.9764 88.4628 83.0906C88.3842 83.204 88.345 83.4024 88.345 83.6858C88.345 83.8747 88.3625 84.0445 88.3977 84.1952C88.4329 84.3458 88.4835 84.473 88.5495 84.5766C88.6161 84.6806 88.6962 84.7573 88.7898 84.8066ZM90.4485 85.9153C90.3065 85.8404 90.1855 85.733 90.0856 85.593C89.9857 85.4523 89.9094 85.2845 89.8566 85.0898C89.8039 84.8944 89.7775 84.6781 89.7775 84.4409C89.7775 84.2051 89.8039 84.0176 89.8566 83.8785C89.91 83.7391 89.9867 83.6516 90.0866 83.6162C90.1871 83.5804 90.3077 83.5996 90.4485 83.6738C90.5892 83.748 90.7095 83.8558 90.8094 83.9972C90.91 84.1383 90.9866 84.3065 91.0394 84.5019C91.0928 84.697 91.1195 84.9124 91.1195 85.1482C91.1195 85.3854 91.0931 85.5739 91.0403 85.7137C90.9876 85.8528 90.9112 85.9401 90.8113 85.9755C90.7114 86.0102 90.5905 85.9901 90.4485 85.9153ZM90.4485 85.6809C90.5892 85.7551 90.6985 85.736 90.7765 85.6237C90.8544 85.5113 90.8933 85.3131 90.8933 85.029C90.8933 84.8401 90.8754 84.6698 90.8396 84.5181C90.8044 84.3667 90.7535 84.2387 90.6869 84.134C90.621 84.0296 90.5415 83.9529 90.4485 83.9039C90.309 83.8304 90.2 83.8507 90.1215 83.9649C90.0429 84.0783 90.0037 84.2767 90.0037 84.5601C90.0037 84.749 90.0212 84.9188 90.0564 85.0694C90.0916 85.2201 90.1422 85.3472 90.2082 85.4509C90.2748 85.5549 90.3549 85.6316 90.4485 85.6809Z" fill="#8A939A"/>
<path d="M135.745 109.725C135.681 109.578 135.6 109.425 135.51 109.26L135.509 109.257C135.411 109.081 135.313 108.806 135.218 108.494C135.073 108.024 134.934 107.475 134.699 106.945C134.581 106.68 134.435 106.416 134.242 106.175C134.049 105.933 133.808 105.72 133.539 105.58C133.176 105.385 132.87 105.38 132.653 105.491C132.326 105.658 132.154 106.033 132 106.383C131.851 106.735 131.713 107.069 131.564 107.177L131.562 107.178C131.473 107.249 131.392 107.317 131.328 107.396C131.265 107.476 131.21 107.565 131.208 107.719C131.203 107.856 131.278 108.052 131.385 108.193C131.543 108.406 131.731 108.555 131.998 108.741C132.221 108.894 132.507 109.065 132.864 109.264C132.967 109.604 133.229 109.945 133.539 110.108C133.847 110.271 134.107 110.204 134.209 109.972C134.705 110.218 135.063 110.373 135.318 110.441C135.464 110.479 135.584 110.495 135.689 110.462C135.795 110.434 135.87 110.318 135.866 110.175C135.864 110.019 135.808 109.872 135.745 109.725ZM135.013 109.786C134.832 109.72 134.581 109.607 134.257 109.448V109.446L133.989 109.315L133.986 109.313C133.851 109.247 133.702 109.168 133.539 109.083C133.371 108.995 133.222 108.915 133.087 108.839L133.084 108.838L132.817 108.686V108.689C132.372 108.439 132.06 108.24 131.884 108.1C131.807 108.04 131.766 107.998 131.743 107.972C131.751 107.955 131.764 107.932 131.787 107.906C131.829 107.857 131.894 107.8 131.974 107.737L131.972 107.738C132.137 107.609 132.243 107.399 132.344 107.176C132.495 106.84 132.632 106.462 132.82 106.243C132.914 106.132 133.017 106.063 133.129 106.041C133.243 106.021 133.366 106.04 133.539 106.13C133.766 106.252 133.91 106.404 134.054 106.623C134.267 106.95 134.434 107.437 134.581 107.934C134.733 108.435 134.859 108.936 135.102 109.388L135.101 109.386C135.186 109.543 135.255 109.676 135.296 109.771L135.334 109.868C135.287 109.866 135.181 109.85 135.013 109.786Z" fill="#8A939A"/>
<path d="M100.125 88.2999V90.4817L99.8908 90.3585V88.1767L100.125 88.2999ZM100.785 89.8457V90.8301L100.563 90.7128V89.0765L100.778 89.1897V89.4454L100.797 89.4554C100.831 89.3901 100.882 89.3505 100.951 89.3365C101.02 89.3218 101.11 89.3433 101.219 89.4009C101.317 89.4526 101.403 89.5205 101.476 89.6047C101.55 89.6882 101.607 89.7865 101.648 89.8997C101.689 90.0121 101.709 90.1379 101.709 90.2771V91.3169L101.487 91.1997V90.1769C101.487 90.0484 101.457 89.9327 101.398 89.8298C101.339 89.7262 101.258 89.6473 101.155 89.593C101.084 89.5556 101.02 89.5395 100.965 89.5448C100.909 89.5505 100.866 89.5783 100.834 89.6281C100.801 89.678 100.785 89.7505 100.785 89.8457ZM103.141 90.8017L102.941 90.7603C102.928 90.716 102.91 90.6697 102.885 90.6212C102.862 90.5724 102.829 90.5254 102.787 90.4801C102.746 90.4348 102.693 90.3951 102.628 90.361C102.54 90.3143 102.466 90.2985 102.407 90.3135C102.348 90.3282 102.319 90.3706 102.319 90.441C102.319 90.5035 102.339 90.5634 102.379 90.6208C102.42 90.6782 102.482 90.7415 102.568 90.8107L102.783 90.9837C102.912 91.0874 103.009 91.1925 103.072 91.2991C103.136 91.405 103.167 91.5152 103.167 91.6295C103.167 91.7233 103.143 91.7945 103.096 91.8432C103.048 91.8922 102.983 91.9157 102.898 91.9136C102.813 91.9115 102.714 91.8808 102.602 91.8215C102.454 91.7437 102.332 91.6431 102.235 91.5196C102.138 91.3962 102.077 91.2581 102.051 91.1053L102.262 91.1569C102.283 91.2556 102.321 91.3416 102.377 91.4152C102.433 91.489 102.507 91.5499 102.598 91.5979C102.702 91.6526 102.784 91.6711 102.845 91.6535C102.906 91.6355 102.937 91.5914 102.937 91.5211C102.937 91.4643 102.92 91.4074 102.884 91.3505C102.849 91.2929 102.795 91.2353 102.722 91.1777L102.481 90.9866C102.349 90.8812 102.251 90.7749 102.189 90.6675C102.127 90.5598 102.097 90.4494 102.097 90.3365C102.097 90.2442 102.12 90.1746 102.165 90.1277C102.212 90.0812 102.275 90.0588 102.355 90.0603C102.435 90.0622 102.526 90.09 102.628 90.1437C102.771 90.2192 102.884 90.314 102.966 90.428C103.048 90.5424 103.106 90.667 103.141 90.8017ZM103.502 92.8756V90.6256L103.717 90.7388V90.9988L103.743 91.0127C103.76 90.9929 103.782 90.9686 103.811 90.9398C103.841 90.9106 103.883 90.893 103.937 90.887C103.993 90.8807 104.068 90.9023 104.162 90.952C104.284 91.0162 104.391 91.1073 104.484 91.2252C104.577 91.3431 104.65 91.479 104.702 91.6329C104.754 91.7868 104.78 91.9497 104.78 92.1216C104.78 92.2949 104.754 92.4314 104.702 92.531C104.65 92.6299 104.577 92.6899 104.485 92.7108C104.393 92.731 104.286 92.7093 104.166 92.6457C104.073 92.5967 103.998 92.5401 103.942 92.4758C103.886 92.4108 103.843 92.348 103.813 92.2874C103.783 92.226 103.76 92.1761 103.743 92.1377L103.724 92.1277V92.9928L103.502 92.8756ZM103.721 91.559C103.721 91.6826 103.737 91.8 103.769 91.9114C103.801 92.022 103.848 92.1202 103.909 92.2059C103.971 92.2909 104.046 92.357 104.135 92.404C104.228 92.453 104.306 92.4662 104.368 92.4436C104.431 92.4206 104.478 92.3701 104.51 92.2922C104.542 92.214 104.558 92.1166 104.558 92.0001C104.558 91.8851 104.542 91.7731 104.51 91.6642C104.48 91.5549 104.433 91.4567 104.37 91.3697C104.308 91.2822 104.23 91.2136 104.135 91.1639C104.045 91.1162 103.969 91.1021 103.907 91.1215C103.846 91.1402 103.799 91.1874 103.768 91.2632C103.736 91.3382 103.721 91.4368 103.721 91.559ZM105.726 93.4683C105.587 93.3948 105.466 93.2966 105.365 93.1737C105.265 93.0504 105.187 92.9115 105.132 92.757C105.078 92.6021 105.051 92.4408 105.051 92.2732C105.051 92.1056 105.078 91.9721 105.132 91.8727C105.187 91.773 105.263 91.7129 105.361 91.6925C105.459 91.6717 105.573 91.6958 105.704 91.7647C105.779 91.8044 105.853 91.8578 105.927 91.925C106 91.9922 106.067 92.0736 106.128 92.1693C106.188 92.2643 106.236 92.3734 106.272 92.4967C106.308 92.62 106.326 92.758 106.326 92.9107V93.0172L105.21 92.4291V92.2118L106.099 92.6807C106.099 92.5883 106.083 92.4973 106.05 92.4077C106.018 92.3184 105.972 92.237 105.913 92.1636C105.854 92.0906 105.784 92.0329 105.704 91.9905C105.615 91.9438 105.538 91.9283 105.474 91.9439C105.41 91.9591 105.36 91.997 105.326 92.0577C105.291 92.1183 105.274 92.1937 105.274 92.2839V92.4288C105.274 92.5523 105.293 92.667 105.33 92.7728C105.369 92.8783 105.422 92.9712 105.49 93.0518C105.558 93.1316 105.636 93.1951 105.726 93.2425C105.785 93.2733 105.837 93.2919 105.885 93.2982C105.932 93.3042 105.973 93.2975 106.008 93.2781C106.043 93.258 106.069 93.2244 106.088 93.1776L106.303 93.359C106.28 93.4295 106.242 93.4819 106.189 93.5162C106.136 93.5499 106.07 93.5634 105.991 93.5568C105.912 93.5495 105.824 93.52 105.726 93.4683ZM107.252 94.2726C107.116 94.201 106.999 94.1032 106.901 93.9791C106.803 93.855 106.728 93.7155 106.675 93.5605C106.622 93.4056 106.596 93.2464 106.596 93.0831C106.596 92.9169 106.623 92.7845 106.677 92.6858C106.732 92.5868 106.808 92.5271 106.905 92.5067C107.003 92.4859 107.118 92.5099 107.248 92.5788C107.35 92.6325 107.442 92.7021 107.523 92.7878C107.605 92.8735 107.672 92.9684 107.724 93.0726C107.776 93.1768 107.809 93.2833 107.821 93.3922L107.599 93.275C107.582 93.1915 107.544 93.1055 107.486 93.0172C107.428 92.9285 107.35 92.8583 107.252 92.8067C107.165 92.761 107.089 92.7465 107.024 92.7632C106.959 92.7795 106.909 92.8242 106.872 92.8973C106.836 92.9701 106.818 93.0682 106.818 93.1918C106.818 93.3182 106.836 93.4376 106.871 93.5499C106.907 93.6625 106.957 93.7618 107.022 93.8477C107.087 93.934 107.164 94.0004 107.252 94.0467C107.31 94.0772 107.362 94.0935 107.409 94.0956C107.457 94.0977 107.496 94.086 107.529 94.0607C107.562 94.0353 107.585 93.9964 107.599 93.944L107.821 94.0612C107.809 94.1512 107.778 94.2218 107.728 94.2731C107.679 94.3239 107.614 94.3507 107.533 94.3535C107.452 94.3558 107.359 94.3289 107.252 94.2726ZM108.776 93.4053V93.6184L108.026 93.223V93.0099L108.776 93.4053ZM108.244 92.7331L108.467 92.8504V94.41C108.467 94.4811 108.476 94.5391 108.494 94.5842C108.513 94.629 108.537 94.665 108.566 94.6923C108.595 94.7192 108.626 94.7413 108.659 94.7585C108.684 94.7714 108.704 94.7806 108.719 94.7861C108.735 94.7908 108.748 94.7946 108.757 94.7974L108.802 95.0471C108.787 95.0455 108.766 95.0408 108.739 95.033C108.712 95.0259 108.678 95.0114 108.636 94.9895C108.574 94.9564 108.512 94.9087 108.452 94.8463C108.392 94.7843 108.342 94.7116 108.303 94.6283C108.264 94.5452 108.244 94.4561 108.244 94.361V92.7331Z" fill="#8A939A"/>
<path d="M96.0311 81.6782V95.1272H96.3325V81.6782" fill="#8A939A"/>
<path d="M136.993 141.888L81.9465 112.871C80.6503 112.188 79.5994 110.354 79.5994 108.777V94.7624C79.5994 93.1847 80.6503 92.4591 81.9465 93.1423L136.993 122.16C138.289 122.843 139.339 124.676 139.339 126.254V140.268C139.339 141.846 138.289 142.572 136.993 141.888Z" fill="#3C3F43" fill-opacity="0.6"/>
<path d="M83.0378 108.106L82.8581 108.064L83.3778 106.732L83.5547 106.774L84.0744 108.352L83.8947 108.309L83.4718 106.985L83.4607 106.982L83.0378 108.106ZM83.1041 107.554L83.8284 107.725V107.882L83.1041 107.71V107.554ZM84.2948 106.95L84.4994 106.998L84.9804 108.32L84.997 108.323L85.478 107.23L85.6825 107.279V108.733L85.5222 108.695V107.59L85.5084 107.587L85.0661 108.587L84.9113 108.55L84.469 107.34L84.4552 107.337V108.442L84.2948 108.404V106.95Z" fill="#8A939A"/>
<path d="M135.745 131.927C135.681 131.78 135.6 131.627 135.51 131.462L135.509 131.459C135.411 131.283 135.313 131.008 135.218 130.696C135.073 130.226 134.934 129.677 134.699 129.147C134.581 128.883 134.435 128.618 134.242 128.377C134.049 128.135 133.808 127.923 133.539 127.782C133.176 127.587 132.87 127.582 132.653 127.694C132.326 127.86 132.154 128.235 132 128.585C131.851 128.937 131.713 129.271 131.564 129.379L131.562 129.38C131.473 129.451 131.392 129.519 131.328 129.598C131.265 129.678 131.21 129.766 131.208 129.921C131.203 130.058 131.278 130.254 131.385 130.395C131.543 130.608 131.731 130.758 131.998 130.943C132.221 131.096 132.507 131.267 132.864 131.466C132.967 131.805 133.229 132.146 133.539 132.311C133.847 132.473 134.107 132.406 134.209 132.174C134.705 132.421 135.063 132.575 135.318 132.644C135.464 132.681 135.584 132.697 135.689 132.664C135.795 132.636 135.87 132.52 135.866 132.377C135.864 132.221 135.808 132.074 135.745 131.927ZM135.013 131.988C134.832 131.922 134.581 131.81 134.257 131.651V131.648L133.989 131.517L133.986 131.516C133.851 131.45 133.702 131.371 133.539 131.285C133.371 131.197 133.222 131.118 133.087 131.042L133.084 131.041L132.817 130.889V130.891C132.372 130.641 132.06 130.443 131.884 130.303C131.807 130.243 131.766 130.201 131.743 130.175C131.751 130.158 131.764 130.134 131.787 130.109C131.829 130.06 131.894 130.002 131.974 129.94L131.972 129.941C132.137 129.812 132.243 129.603 132.344 129.379C132.495 129.043 132.632 128.665 132.82 128.446C132.914 128.335 133.017 128.266 133.129 128.245C133.243 128.224 133.366 128.243 133.539 128.333C133.766 128.455 133.91 128.607 134.054 128.826C134.267 129.153 134.434 129.64 134.581 130.138C134.733 130.639 134.859 131.14 135.102 131.592L135.101 131.589C135.186 131.746 135.255 131.879 135.296 131.974L135.334 132.071C135.287 132.068 135.181 132.052 135.013 131.988Z" fill="#8A939A"/>
<path d="M99.8908 112.564V110.382L100.125 110.505V112.453L101.022 112.926V113.16L99.8908 112.564ZM102.266 113.147V112.18L102.488 112.297V113.933L102.266 113.816V113.539L102.251 113.531C102.217 113.596 102.164 113.639 102.092 113.66C102.021 113.679 101.93 113.66 101.821 113.603C101.73 113.555 101.65 113.49 101.58 113.408C101.509 113.326 101.454 113.229 101.414 113.116C101.374 113.004 101.354 112.878 101.354 112.738V111.699L101.576 111.816V112.839C101.576 112.958 101.605 113.069 101.665 113.171C101.724 113.273 101.8 113.349 101.893 113.398C101.948 113.427 102.004 113.44 102.061 113.439C102.119 113.437 102.167 113.414 102.206 113.368C102.246 113.323 102.266 113.249 102.266 113.147ZM103.118 113.281V114.265L102.896 114.148V112.511L103.11 112.625V112.88L103.129 112.89C103.163 112.825 103.215 112.786 103.284 112.772C103.353 112.757 103.442 112.778 103.552 112.836C103.65 112.888 103.735 112.956 103.809 113.04C103.882 113.123 103.939 113.222 103.98 113.335C104.021 113.447 104.042 113.573 104.042 113.712V114.752L103.819 114.635V113.612C103.819 113.483 103.79 113.368 103.731 113.265C103.672 113.161 103.59 113.082 103.487 113.028C103.416 112.991 103.353 112.975 103.297 112.98C103.242 112.986 103.198 113.013 103.166 113.063C103.134 113.113 103.118 113.186 103.118 113.281ZM105.036 115.31C104.9 115.239 104.784 115.141 104.686 115.017C104.587 114.893 104.512 114.753 104.459 114.598C104.407 114.443 104.38 114.284 104.38 114.121C104.38 113.954 104.407 113.822 104.461 113.723C104.516 113.624 104.592 113.565 104.689 113.544C104.787 113.523 104.902 113.548 105.032 113.616C105.134 113.67 105.226 113.74 105.308 113.825C105.389 113.911 105.456 114.006 105.508 114.11C105.56 114.214 105.593 114.321 105.605 114.43L105.383 114.313C105.366 114.229 105.328 114.143 105.27 114.055C105.212 113.966 105.134 113.896 105.036 113.844C104.949 113.799 104.873 113.784 104.808 113.801C104.743 113.817 104.693 113.862 104.656 113.935C104.62 114.008 104.603 114.106 104.603 114.229C104.603 114.356 104.62 114.475 104.655 114.587C104.691 114.7 104.741 114.799 104.806 114.885C104.871 114.972 104.948 115.038 105.036 115.084C105.094 115.115 105.146 115.131 105.193 115.133C105.241 115.135 105.281 115.124 105.313 115.098C105.346 115.073 105.369 115.034 105.383 114.982L105.605 115.099C105.593 115.189 105.562 115.259 105.512 115.311C105.463 115.362 105.398 115.388 105.317 115.391C105.237 115.393 105.143 115.366 105.036 115.31ZM106.153 114.88V115.865L105.93 115.747V113.566L106.153 113.683V114.484L106.172 114.494C106.206 114.427 106.257 114.387 106.324 114.373C106.393 114.359 106.484 114.382 106.598 114.442C106.696 114.494 106.783 114.561 106.857 114.645C106.931 114.728 106.989 114.826 107.029 114.94C107.071 115.052 107.092 115.179 107.092 115.32V116.359L106.869 116.242V115.22C106.869 115.09 106.839 114.973 106.78 114.871C106.721 114.768 106.639 114.689 106.534 114.634C106.461 114.595 106.395 114.578 106.338 114.582C106.28 114.587 106.235 114.614 106.202 114.663C106.169 114.713 106.153 114.785 106.153 114.88Z" fill="#8A939A"/>
<path d="M96.0311 103.88V117.33H96.3325V103.88" fill="#8A939A"/>
<path d="M144.238 106.717L62.8601 63.8199C60.944 62.8097 59.3909 60.0997 59.3909 57.7673V37.0497C59.3909 34.7173 60.944 33.6449 62.8601 34.6551L144.238 77.5524C146.154 78.5625 147.707 81.272 147.707 83.605V104.323C147.707 106.656 146.154 107.727 144.238 106.717Z" fill="#25272B"/>
<path d="M65.8776 48.5428V52.9064L65.4101 52.66V48.8504L65.3875 48.8384L64.445 49.0491V48.5121L65.4101 48.2964L65.8776 48.5428ZM68.2469 54.2149C67.9629 54.0652 67.721 53.8503 67.5212 53.5703C67.3214 53.2889 67.1687 52.9534 67.0632 52.564C66.9576 52.1731 66.9048 51.7405 66.9048 51.266C66.9048 50.7944 66.9576 50.4196 67.0632 50.1414C67.17 49.8625 67.3233 49.6876 67.5231 49.6167C67.7241 49.5452 67.9654 49.5836 68.2469 49.7319C68.5283 49.8803 68.769 50.0959 68.9688 50.3788C69.1698 50.6609 69.3231 50.9973 69.4287 51.3882C69.5355 51.7783 69.5889 52.2092 69.5889 52.6808C69.5889 53.1552 69.5361 53.5322 69.4306 53.8118C69.325 54.09 69.1723 54.2645 68.9725 54.3353C68.7727 54.4047 68.5309 54.3646 68.2469 54.2149ZM68.2469 53.7461C68.5283 53.8945 68.747 53.8563 68.9028 53.6316C69.0586 53.4069 69.1365 53.0105 69.1365 52.4423C69.1365 52.0645 69.1007 51.7239 69.0291 51.4205C68.9587 51.1178 68.8569 50.8617 68.7237 50.6523C68.5918 50.4435 68.4328 50.2902 68.2469 50.1921C67.9679 50.0451 67.7499 50.0857 67.5928 50.314C67.4357 50.5409 67.3572 50.9377 67.3572 51.5045C67.3572 51.8823 67.3924 52.2219 67.4628 52.5232C67.5331 52.8245 67.6343 53.0788 67.7662 53.2861C67.8994 53.4941 68.0596 53.6474 68.2469 53.7461ZM70.5021 55.378C70.4091 55.329 70.3293 55.2493 70.2627 55.1389C70.1961 55.0285 70.1628 54.9208 70.1628 54.8157C70.1628 54.7105 70.1961 54.6379 70.2627 54.5977C70.3293 54.5575 70.4091 54.5619 70.5021 54.611C70.5951 54.66 70.6749 54.7397 70.7415 54.8501C70.8081 54.9604 70.8414 55.0682 70.8414 55.1733C70.8414 55.2429 70.8257 55.2986 70.7943 55.3402C70.7641 55.3826 70.7233 55.4079 70.6718 55.4163C70.6215 55.4239 70.565 55.4111 70.5021 55.378ZM72.7565 56.5918C72.4725 56.4421 72.2306 56.2272 72.0308 55.9472C71.831 55.6658 71.6783 55.3303 71.5727 54.9409C71.4672 54.55 71.4144 54.1174 71.4144 53.6429C71.4144 53.1714 71.4672 52.7965 71.5727 52.5183C71.6796 52.2394 71.8329 52.0645 72.0327 51.9937C72.2337 51.9221 72.475 51.9605 72.7565 52.1088C73.0379 52.2572 73.2786 52.4728 73.4784 52.7557C73.6794 53.0378 73.8327 53.3743 73.9383 53.7651C74.0451 54.1552 74.0985 54.5861 74.0985 55.0577C74.0985 55.5321 74.0457 55.9091 73.9402 56.1887C73.8346 56.4669 73.6819 56.6414 73.4821 56.7122C73.2823 56.7816 73.0404 56.7415 72.7565 56.5918ZM72.7565 56.123C73.0379 56.2714 73.2566 56.2332 73.4124 56.0085C73.5682 55.7838 73.6461 55.3874 73.6461 54.8192C73.6461 54.4414 73.6103 54.1008 73.5387 53.7974C73.4683 53.4947 73.3665 53.2386 73.2333 53.0292C73.1014 52.8205 72.9424 52.6671 72.7565 52.5691C72.4775 52.422 72.2595 52.4626 72.1024 52.6909C71.9453 52.9178 71.8668 53.3146 71.8668 53.8814C71.8668 54.2592 71.902 54.5988 71.9723 54.9001C72.0427 55.2014 72.1439 55.4557 72.2758 55.663C72.409 55.871 72.5692 56.0243 72.7565 56.123ZM76.0738 58.3403C75.7899 58.1906 75.548 57.9758 75.3482 57.6957C75.1484 57.4143 74.9957 57.0789 74.8901 56.6894C74.7846 56.2986 74.7318 55.8659 74.7318 55.3915C74.7318 54.9199 74.7846 54.545 74.8901 54.2668C74.997 53.9879 75.1503 53.813 75.3501 53.7422C75.5511 53.6706 75.7924 53.709 76.0738 53.8574C76.3553 54.0057 76.596 54.2213 76.7958 54.5042C76.9968 54.7863 77.1501 55.1228 77.2557 55.5137C77.3625 55.9038 77.4159 56.3346 77.4159 56.8062C77.4159 57.2806 77.3631 57.6576 77.2576 57.9372C77.152 58.2154 76.9993 58.3899 76.7995 58.4607C76.5997 58.5301 76.3578 58.49 76.0738 58.3403ZM76.0738 57.8716C76.3553 58.0199 76.574 57.9818 76.7298 57.7571C76.8856 57.5324 76.9635 57.1359 76.9635 56.5678C76.9635 56.1899 76.9277 55.8493 76.8561 55.5459C76.7857 55.2432 76.6839 54.9872 76.5507 54.7777C76.4188 54.569 76.2598 54.4156 76.0738 54.3176C75.7949 54.1706 75.5769 54.2112 75.4198 54.4395C75.2627 54.6663 75.1842 55.0632 75.1842 55.6299C75.1842 56.0078 75.2194 56.3473 75.2897 56.6486C75.3601 56.9499 75.4613 57.2042 75.5932 57.4115C75.7264 57.6195 75.8866 57.7729 76.0738 57.8716Z" fill="#8A939A"/>
<path d="M82.5009 100.078V102.259L82.2672 102.136V100.231L82.2559 100.225L81.7847 100.331V100.062L82.2672 99.9543L82.5009 100.078ZM83.6856 102.914C83.5436 102.839 83.4226 102.731 83.3227 102.591C83.2228 102.451 83.1465 102.283 83.0937 102.088C83.0409 101.893 83.0145 101.676 83.0145 101.439C83.0145 101.203 83.0409 101.016 83.0937 100.877C83.1471 100.737 83.2238 100.65 83.3237 100.615C83.4242 100.579 83.5448 100.598 83.6856 100.672C83.8263 100.746 83.9466 100.854 84.0465 100.996C84.147 101.137 84.2237 101.305 84.2765 101.5C84.3299 101.695 84.3566 101.911 84.3566 102.147C84.3566 102.384 84.3302 102.572 84.2774 102.712C84.2246 102.851 84.1483 102.938 84.0484 102.974C83.9485 103.008 83.8276 102.988 83.6856 102.914ZM83.6856 102.679C83.8263 102.753 83.9356 102.734 84.0135 102.622C84.0914 102.51 84.1304 102.311 84.1304 102.027C84.1304 101.838 84.1125 101.668 84.0767 101.516C84.0415 101.365 83.9906 101.237 83.924 101.132C83.858 101.028 83.7786 100.951 83.6856 100.902C83.5461 100.829 83.4371 100.849 83.3585 100.963C83.28 101.077 83.2407 101.275 83.2407 101.558C83.2407 101.747 83.2583 101.917 83.2935 102.068C83.3287 102.218 83.3793 102.346 83.4452 102.449C83.5118 102.553 83.5919 102.63 83.6856 102.679ZM84.8132 103.495C84.7667 103.471 84.7268 103.431 84.6935 103.376C84.6602 103.32 84.6436 103.267 84.6436 103.214C84.6436 103.161 84.6602 103.125 84.6935 103.105C84.7268 103.085 84.7667 103.087 84.8132 103.112C84.8597 103.136 84.8996 103.176 84.9329 103.231C84.9662 103.286 84.9828 103.34 84.9828 103.393C84.9828 103.428 84.975 103.455 84.9593 103.476C84.9442 103.497 84.9238 103.51 84.898 103.514C84.8729 103.518 84.8446 103.512 84.8132 103.495ZM85.9404 104.102C85.7984 104.027 85.6774 103.92 85.5775 103.78C85.4776 103.639 85.4013 103.471 85.3485 103.277C85.2957 103.081 85.2693 102.865 85.2693 102.628C85.2693 102.392 85.2957 102.204 85.3485 102.065C85.4019 101.926 85.4786 101.838 85.5785 101.803C85.679 101.767 85.7996 101.786 85.9404 101.861C86.0811 101.935 86.2014 102.043 86.3013 102.184C86.4018 102.325 86.4785 102.493 86.5313 102.689C86.5847 102.884 86.6114 103.099 86.6114 103.335C86.6114 103.572 86.585 103.761 86.5322 103.901C86.4794 104.04 86.4031 104.127 86.3032 104.162C86.2033 104.197 86.0824 104.177 85.9404 104.102ZM85.9404 103.868C86.0811 103.942 86.1904 103.923 86.2683 103.81C86.3462 103.698 86.3852 103.5 86.3852 103.216C86.3852 103.027 86.3673 102.857 86.3315 102.705C86.2963 102.553 86.2454 102.425 86.1788 102.321C86.1128 102.216 86.0333 102.14 85.9404 102.091C85.8009 102.017 85.6919 102.037 85.6133 102.152C85.5348 102.265 85.4955 102.463 85.4955 102.747C85.4955 102.936 85.5131 103.106 85.5483 103.256C85.5835 103.407 85.6341 103.534 85.7 103.638C85.7666 103.742 85.8467 103.818 85.9404 103.868ZM87.5991 104.976C87.4571 104.901 87.3361 104.794 87.2362 104.654C87.1363 104.513 87.06 104.346 87.0072 104.151C86.9544 103.955 86.928 103.739 86.928 103.502C86.928 103.266 86.9544 103.079 87.0072 102.94C87.0606 102.8 87.1373 102.713 87.2372 102.677C87.3377 102.641 87.4583 102.661 87.5991 102.735C87.7398 102.809 87.8601 102.917 87.96 103.058C88.0605 103.199 88.1372 103.368 88.19 103.563C88.2434 103.758 88.2701 103.973 88.2701 104.209C88.2701 104.446 88.2437 104.635 88.1909 104.775C88.1381 104.914 88.0618 105.001 87.9619 105.037C87.862 105.071 87.7411 105.051 87.5991 104.976ZM87.5991 104.742C87.7398 104.816 87.8491 104.797 87.927 104.685C88.0049 104.572 88.0439 104.374 88.0439 104.09C88.0439 103.901 88.026 103.731 87.9902 103.579C87.955 103.428 87.9041 103.3 87.8375 103.195C87.7715 103.091 87.692 103.014 87.5991 102.965C87.4596 102.891 87.3506 102.912 87.272 103.026C87.1935 103.139 87.1542 103.338 87.1542 103.621C87.1542 103.81 87.1718 103.98 87.207 104.13C87.2422 104.281 87.2928 104.408 87.3587 104.512C87.4253 104.616 87.5054 104.693 87.5991 104.742Z" fill="#8A939A"/>
<path d="M64.4834 60.273L64.048 60.132L65.3737 56.904L65.8024 57.0429L66.9952 61.0865L66.5598 60.9455L65.591 57.553L65.5642 57.5443L64.4834 60.273ZM64.6701 58.9048L66.425 59.4732L66.4179 59.8637L64.6629 59.2954L64.6701 58.9048ZM67.5959 57.6237L68.0916 57.7842L69.2019 61.1797L69.2421 61.1927L70.4628 58.5522L70.9584 58.7127L70.892 62.3485L70.5035 62.2227L70.554 59.4603L70.5205 59.4495L69.3983 61.8647L69.0231 61.7432L68.0019 58.6338L67.9684 58.623L67.9179 61.3853L67.5294 61.2595L67.5959 57.6237Z" fill="#8A939A"/>
<path d="M64.3546 41.4087L64.6335 41.5557L65.2895 43.7125L65.3121 43.7244L65.968 42.2591L66.247 42.4061V44.5879L66.0284 44.4727V42.815L66.0095 42.8051L65.4063 44.1448L65.1952 44.0336L64.5921 42.058L64.5732 42.0481V43.7057L64.3546 43.5905V41.4087ZM67.2736 45.1631C67.1429 45.0942 67.0282 44.9986 66.9296 44.8763C66.8316 44.7544 66.7549 44.6156 66.6996 44.46C66.6449 44.3048 66.6176 44.1427 66.6176 43.9736C66.6176 43.8032 66.6449 43.6688 66.6996 43.5705C66.7549 43.4725 66.8316 43.4142 66.9296 43.3955C67.0282 43.3772 67.1429 43.4025 67.2736 43.4713C67.4042 43.5402 67.5186 43.6357 67.6166 43.7576C67.7152 43.8799 67.7919 44.0191 67.8466 44.175C67.9019 44.3313 67.9295 44.4946 67.9295 44.6651C67.9295 44.8341 67.9019 44.9673 67.8466 45.0646C67.7919 45.1622 67.7152 45.2201 67.6166 45.2384C67.5186 45.2571 67.4042 45.232 67.2736 45.1631ZM67.2736 44.9373C67.3728 44.9896 67.4545 45.0039 67.5186 44.9801C67.5827 44.9564 67.6301 44.9057 67.6609 44.8282C67.6917 44.7507 67.7071 44.6572 67.7071 44.5479C67.7071 44.4385 67.6917 44.3284 67.6609 44.2178C67.6301 44.1071 67.5827 44.0057 67.5186 43.9137C67.4545 43.8217 67.3728 43.7495 67.2736 43.6972C67.1743 43.6449 67.0926 43.6309 67.0285 43.6554C66.9644 43.6799 66.917 43.7312 66.8862 43.8094C66.8554 43.8877 66.84 43.9815 66.84 44.0909C66.84 44.2002 66.8554 44.3099 66.8862 44.4199C66.917 44.5299 66.9644 44.6305 67.0285 44.7218C67.0926 44.8131 67.1743 44.8849 67.2736 44.9373ZM68.4914 44.7866V45.7709L68.269 45.6537V44.0173L68.4839 44.1306V44.3863L68.5027 44.3962C68.5367 44.331 68.5882 44.2914 68.6573 44.2774C68.7264 44.2627 68.8156 44.2841 68.925 44.3418C69.023 44.3934 69.1087 44.4614 69.1822 44.5456C69.2557 44.629 69.3129 44.7274 69.3538 44.8405C69.3946 44.9529 69.415 45.0788 69.415 45.218V46.2577L69.1926 46.1405V45.1178C69.1926 44.9892 69.1631 44.8735 69.104 44.7707C69.045 44.6671 68.9639 44.5881 68.8609 44.5338C68.7899 44.4964 68.7264 44.4804 68.6705 44.4857C68.6152 44.4914 68.5715 44.5191 68.5395 44.569C68.5074 44.6189 68.4914 44.6914 68.4914 44.7866ZM70.3681 46.7942C70.2474 46.7306 70.1409 46.64 70.0486 46.5224C69.9562 46.4041 69.884 46.268 69.8318 46.1141C69.7797 45.9595 69.7536 45.7956 69.7536 45.6223C69.7536 45.4504 69.7797 45.315 69.8318 45.2161C69.884 45.1171 69.9565 45.0577 70.0495 45.0378C70.1425 45.018 70.2499 45.0401 70.3718 45.1044C70.4661 45.1541 70.5405 45.2111 70.5952 45.2754C70.6505 45.3393 70.6926 45.4013 70.7215 45.4613C70.751 45.5209 70.7739 45.5692 70.7903 45.6062L70.8091 45.6161V44.8107L71.0315 44.928V47.1098L70.8167 46.9965V46.7451L70.7903 46.7312C70.7739 46.7524 70.7507 46.7778 70.7205 46.8074C70.6904 46.8362 70.6473 46.8536 70.5914 46.8597C70.5355 46.865 70.4611 46.8432 70.3681 46.7942ZM70.3982 46.5842C70.4874 46.6312 70.5628 46.6447 70.6244 46.6246C70.686 46.6038 70.7328 46.5549 70.7648 46.4781C70.7969 46.4005 70.8129 46.2999 70.8129 46.1763C70.8129 46.0542 70.7972 45.939 70.7658 45.8308C70.7344 45.722 70.6879 45.6257 70.6263 45.5421C70.5647 45.4578 70.4887 45.3918 70.3982 45.3441C70.304 45.2945 70.2254 45.2804 70.1626 45.302C70.1004 45.3232 70.0536 45.372 70.0222 45.4485C69.9914 45.5246 69.976 45.6202 69.976 45.7352C69.976 45.8517 69.9917 45.9658 70.0231 46.0775C70.0552 46.1889 70.1023 46.289 70.1645 46.3779C70.2273 46.4664 70.3052 46.5352 70.3982 46.5842ZM71.8958 47.6036C71.804 47.5553 71.7208 47.4919 71.646 47.4134C71.5713 47.3342 71.5119 47.2458 71.4679 47.148C71.4239 47.0495 71.4019 46.947 71.4019 46.8405C71.4019 46.7468 71.4183 46.6794 71.4509 46.6384C71.4836 46.5966 71.5273 46.5735 71.5819 46.5689C71.6366 46.5643 71.6969 46.5713 71.7629 46.5897C71.8295 46.6078 71.8964 46.6295 71.9636 46.655C72.0516 46.6886 72.1229 46.7166 72.1776 46.739C72.2328 46.7611 72.2731 46.7705 72.2982 46.7675C72.3239 46.7647 72.3368 46.7431 72.3368 46.7026V46.6941C72.3368 46.589 72.3114 46.4939 72.2605 46.4088C72.2102 46.3241 72.1339 46.2547 72.0315 46.2007C71.9253 46.1448 71.842 46.1272 71.7817 46.1479C71.7214 46.1687 71.679 46.2025 71.6545 46.2492L71.4434 46.0527C71.4811 45.9731 71.5314 45.9222 71.5942 45.8999C71.6576 45.8773 71.7268 45.8746 71.8015 45.892C71.8769 45.909 71.9511 45.9368 72.0239 45.9752C72.0704 45.9997 72.1238 46.0342 72.1842 46.0788C72.2451 46.123 72.3038 46.1792 72.3604 46.2473C72.4176 46.3158 72.465 46.3987 72.5027 46.496C72.5404 46.5933 72.5592 46.7069 72.5592 46.8369V47.915L72.3368 47.7978V47.5762L72.3255 47.5702C72.3104 47.5978 72.2853 47.6225 72.2501 47.6445C72.2149 47.6664 72.1681 47.6762 72.1097 47.6738C72.0513 47.6714 71.98 47.648 71.8958 47.6036ZM71.9297 47.3957C72.0177 47.442 72.0918 47.4616 72.1521 47.4543C72.2131 47.4474 72.2589 47.4211 72.2897 47.3756C72.3211 47.3303 72.3368 47.2736 72.3368 47.2054V46.9753C72.3274 46.9831 72.3067 46.9839 72.2746 46.9777C72.2432 46.9711 72.2068 46.9607 72.1653 46.9467C72.1245 46.9323 72.0846 46.9176 72.0456 46.9028C72.0073 46.8876 71.9762 46.8754 71.9523 46.8664C71.8945 46.8445 71.8405 46.8298 71.7902 46.8225C71.7406 46.8148 71.7004 46.8217 71.6696 46.8431C71.6394 46.8641 71.6243 46.9066 71.6243 46.9705C71.6243 47.0579 71.6529 47.139 71.7101 47.2139C71.7679 47.2884 71.8411 47.349 71.9297 47.3957ZM73.0566 48.7908C73.0189 48.7709 72.9853 48.7496 72.9558 48.727C72.9262 48.705 72.9058 48.6879 72.8945 48.6755L72.9511 48.4837C73.0051 48.5278 73.0528 48.5587 73.0943 48.5763C73.1358 48.5939 73.1725 48.5923 73.2046 48.5715C73.2373 48.5518 73.2671 48.5075 73.2941 48.4387L73.3356 48.3327L72.8003 46.4057L73.0415 46.5328L73.4411 48.0474L73.4562 48.0554L73.8558 46.962L74.0971 47.0892L73.4826 48.6403C73.455 48.7103 73.4207 48.7622 73.3799 48.796C73.339 48.8306 73.2916 48.8472 73.2376 48.8457C73.1842 48.8445 73.1238 48.8262 73.0566 48.7908Z" fill="#8A939A"/>
<path d="M139.471 89.7416C139.413 89.5973 139.341 89.4475 139.26 89.2845L139.259 89.2823C139.172 89.1095 139.083 88.8395 138.998 88.5336C138.869 88.0725 138.744 87.5332 138.534 87.0139C138.428 86.7541 138.297 86.4951 138.124 86.2575C137.952 86.0204 137.736 85.8121 137.494 85.6736C137.169 85.4833 136.895 85.4774 136.7 85.587C136.407 85.7507 136.254 86.1183 136.115 86.4618C135.982 86.8078 135.858 87.1352 135.724 87.2416L135.723 87.2423C135.642 87.3121 135.571 87.379 135.513 87.4564C135.457 87.535 135.407 87.6219 135.405 87.7736C135.401 87.9088 135.469 88.101 135.564 88.2387C135.705 88.4481 135.874 88.595 136.113 88.7766C136.314 88.9268 136.57 89.0949 136.889 89.29C136.982 89.6229 137.216 89.9579 137.494 90.1187C137.77 90.278 138.003 90.2123 138.095 89.985C138.539 90.2269 138.859 90.3789 139.088 90.4457C139.219 90.4826 139.326 90.498 139.421 90.4658C139.516 90.4381 139.583 90.3241 139.579 90.1841C139.577 90.0296 139.527 89.8852 139.471 89.7416ZM138.815 89.8008C138.653 89.7361 138.427 89.6258 138.137 89.4698V89.4668L137.897 89.3382L137.894 89.3364C137.774 89.2717 137.639 89.1943 137.494 89.1106C137.344 89.024 137.21 88.9465 137.089 88.872L137.087 88.8701H137.086L136.846 88.7218V88.7236C136.448 88.4781 136.168 88.2837 136.011 88.1463C135.942 88.0871 135.905 88.0465 135.884 88.0202C135.891 88.0031 135.903 87.9808 135.924 87.9552C135.961 87.9073 136.02 87.851 136.091 87.7897L136.09 87.7904C136.237 87.6632 136.332 87.4586 136.423 87.239C136.558 86.9087 136.681 86.5385 136.849 86.323C136.933 86.2148 137.025 86.1461 137.127 86.1253C137.229 86.1052 137.339 86.1238 137.494 86.2122C137.697 86.3321 137.826 86.4812 137.954 86.696C138.146 87.0172 138.295 87.4944 138.426 87.983C138.562 88.4748 138.675 88.9659 138.893 89.4095L138.892 89.4073C138.969 89.5611 139.03 89.6923 139.067 89.7851L139.101 89.8801C139.06 89.8794 138.965 89.864 138.815 89.8008Z" fill="#8A939A"/>
<path d="M92.0089 62.8217L91.6194 62.6163C91.5964 62.4775 91.556 62.345 91.4985 62.2188C91.4419 62.0931 91.3728 61.9762 91.2911 61.868C91.2105 61.7592 91.121 61.6623 91.0225 61.5773C90.9241 61.4923 90.8215 61.4216 90.7147 61.3653C90.5199 61.2627 90.3434 61.2253 90.1853 61.2532C90.0282 61.2817 89.9031 61.3797 89.8099 61.5472C89.7178 61.7152 89.6717 61.9567 89.6717 62.2716C89.6717 62.5864 89.7178 62.8765 89.8099 63.1416C89.9031 63.4074 90.0282 63.6373 90.1853 63.8313C90.3434 64.026 90.5199 64.1746 90.7147 64.2773C90.8215 64.3335 90.9241 64.3711 91.0225 64.3898C91.121 64.4085 91.2105 64.4066 91.2911 64.384C91.3728 64.3608 91.4419 64.3161 91.4985 64.25C91.556 64.1833 91.5964 64.0933 91.6194 63.98L92.0089 64.1853C91.9796 64.3557 91.9262 64.4938 91.8487 64.5998C91.7712 64.7057 91.6749 64.7798 91.5597 64.8221C91.4445 64.8632 91.3152 64.8726 91.1717 64.8502C91.0293 64.8284 90.877 64.7747 90.7147 64.6892C90.4403 64.5446 90.1963 64.3402 89.9827 64.0761C89.7691 63.812 89.601 63.508 89.4785 63.164C89.356 62.8201 89.2947 62.4564 89.2947 62.0729C89.2947 61.6893 89.356 61.3902 89.4785 61.1754C89.601 60.9606 89.7691 60.8338 89.9827 60.7949C90.1963 60.7559 90.4403 60.8088 90.7147 60.9534C90.877 61.0389 91.0293 61.1459 91.1717 61.2742C91.3152 61.4031 91.4445 61.5494 91.5597 61.7131C91.6749 61.8756 91.7712 62.0507 91.8487 62.2383C91.9262 62.4247 91.9796 62.6192 92.0089 62.8217ZM93.5683 66.2004C93.3505 66.0856 93.1594 65.9263 92.995 65.7224C92.8316 65.5191 92.7039 65.2878 92.6117 65.0286C92.5206 64.7699 92.4751 64.4996 92.4751 64.2179C92.4751 63.9338 92.5206 63.7098 92.6117 63.546C92.7039 63.3827 92.8316 63.2855 92.995 63.2544C93.1594 63.2238 93.3505 63.266 93.5683 63.3808C93.7861 63.4956 93.9767 63.6546 94.14 63.8579C94.3044 64.0618 94.4322 64.2936 94.5233 64.5535C94.6154 64.814 94.6615 65.0863 94.6615 65.3704C94.6615 65.6521 94.6154 65.874 94.5233 66.0361C94.4322 66.1988 94.3044 66.2954 94.14 66.326C93.9767 66.357 93.7861 66.3152 93.5683 66.2004ZM93.5683 65.824C93.7337 65.9112 93.8699 65.935 93.9767 65.8954C94.0835 65.8558 94.1626 65.7714 94.2139 65.6422C94.2652 65.513 94.2908 65.3573 94.2908 65.175C94.2908 64.9927 94.2652 64.8093 94.2139 64.6248C94.1626 64.4403 94.0835 64.2714 93.9767 64.118C93.8699 63.9647 93.7337 63.8444 93.5683 63.7572C93.4028 63.67 93.2667 63.6468 93.1599 63.6875C93.0531 63.7283 92.974 63.8139 92.9227 63.9443C92.8714 64.0747 92.8458 64.231 92.8458 64.4133C92.8458 64.5956 92.8714 64.7784 92.9227 64.9617C92.974 65.145 93.0531 65.3127 93.1599 65.4649C93.2667 65.6171 93.4028 65.7368 93.5683 65.824ZM95.5981 65.5728V67.2134L95.2274 67.018V64.2908L95.5855 64.4795V64.9057L95.6169 64.9222C95.6735 64.8135 95.7593 64.7475 95.8745 64.7242C95.9897 64.6997 96.1384 64.7354 96.3206 64.8315C96.484 64.9176 96.6269 65.0308 96.7494 65.1711C96.8719 65.3103 96.9672 65.4741 97.0353 65.6627C97.1034 65.8501 97.1374 66.0598 97.1374 66.2918V68.0248L96.7667 67.8294V66.1248C96.7667 65.9106 96.7175 65.7177 96.6191 65.5463C96.5206 65.3737 96.3855 65.2421 96.2138 65.1516C96.0955 65.0892 95.9897 65.0625 95.8965 65.0714C95.8044 65.0808 95.7316 65.1271 95.6782 65.2102C95.6248 65.2933 95.5981 65.4142 95.5981 65.5728ZM98.8892 66.2208V66.5759L97.5886 65.8904V65.5353L98.8892 66.2208ZM97.9781 68.4679V65.3642C97.9781 65.208 98.0106 65.0949 98.0755 65.0249C98.1404 64.955 98.2247 64.9213 98.3284 64.9238C98.4321 64.9264 98.5415 64.958 98.6567 65.0187C98.7478 65.0668 98.8221 65.1142 98.8797 65.1612C98.9373 65.2081 98.9803 65.2461 99.0085 65.2752L98.9017 65.5811C98.8829 65.5641 98.8567 65.5414 98.8232 65.5131C98.7907 65.4853 98.7478 65.4574 98.6944 65.4292C98.5719 65.3647 98.4834 65.3529 98.4289 65.3941C98.3755 65.4358 98.3488 65.5241 98.3488 65.659V68.6633L97.9781 68.4679ZM100.321 69.7595C100.088 69.637 99.8879 69.4733 99.7193 69.2684C99.5518 69.063 99.4224 68.8314 99.3313 68.5739C99.2413 68.3157 99.1962 68.047 99.1962 67.7676C99.1962 67.4883 99.2413 67.2658 99.3313 67.1002C99.4224 66.9339 99.5491 66.8338 99.7114 66.7998C99.8748 66.7652 100.065 66.8053 100.283 66.9201C100.409 66.9863 100.533 67.0754 100.655 67.1873C100.778 67.2992 100.889 67.435 100.99 67.5945C101.091 67.7528 101.171 67.9347 101.23 68.1402C101.29 68.3456 101.32 68.5756 101.32 68.8301V69.0077L99.4601 68.0274V67.6652L100.943 68.4468C100.943 68.2929 100.916 68.1412 100.861 67.9918C100.808 67.8429 100.731 67.7073 100.632 67.585C100.533 67.4633 100.417 67.3671 100.283 67.2965C100.136 67.2187 100.008 67.1928 99.8999 67.2188C99.7931 67.2441 99.7109 67.3074 99.6533 67.4084C99.5957 67.5094 99.5669 67.6351 99.5669 67.7854V68.0269C99.5669 68.2329 99.5984 68.424 99.6612 68.6004C99.7251 68.7761 99.8135 68.931 99.9266 69.0652C100.04 69.1982 100.171 69.3042 100.321 69.3831C100.418 69.4345 100.506 69.4654 100.585 69.476C100.664 69.486 100.733 69.4748 100.791 69.4425C100.848 69.4089 100.893 69.353 100.924 69.2749L101.282 69.5773C101.244 69.6947 101.181 69.7821 101.092 69.8393C101.003 69.8954 100.893 69.9179 100.762 69.907C100.631 69.8948 100.484 69.8456 100.321 69.7595ZM101.884 70.5265V67.7992L102.242 67.988V68.3999L102.267 68.4132C102.311 68.3014 102.391 68.2338 102.506 68.2105C102.621 68.1872 102.751 68.2136 102.895 68.2898C102.923 68.3041 102.957 68.3227 102.997 68.3454C103.038 68.3681 103.069 68.3861 103.09 68.3995V68.8257C103.078 68.8155 103.049 68.795 103.004 68.7642C102.96 68.7327 102.913 68.704 102.864 68.678C102.747 68.6162 102.642 68.5889 102.55 68.5959C102.459 68.6023 102.386 68.64 102.333 68.7089C102.281 68.7772 102.254 68.8729 102.254 68.996V70.7219L101.884 70.5265ZM104.468 71.9452C104.235 71.8227 104.035 71.659 103.866 71.4541C103.699 71.2486 103.569 71.0171 103.478 70.7596C103.388 70.5014 103.343 70.2326 103.343 69.9533C103.343 69.6739 103.388 69.4514 103.478 69.2858C103.569 69.1196 103.696 69.0195 103.858 68.9855C104.022 68.9509 104.212 68.9909 104.43 69.1057C104.556 69.172 104.68 69.261 104.802 69.373C104.925 69.4849 105.036 69.6206 105.137 69.7801C105.237 69.9385 105.317 70.1204 105.377 70.3258C105.437 70.5313 105.467 70.7613 105.467 71.0158V71.1933L103.607 70.2131V69.8509L105.09 70.6324C105.09 70.4786 105.062 70.3269 105.008 70.1775C104.955 70.0286 104.878 69.893 104.779 69.7707C104.68 69.649 104.564 69.5528 104.43 69.4822C104.282 69.4043 104.155 69.3784 104.047 69.4044C103.94 69.4298 103.858 69.493 103.8 69.5941C103.742 69.6951 103.714 69.8208 103.714 69.9711V70.2126C103.714 70.4186 103.745 70.6097 103.808 70.7861C103.872 70.9618 103.96 71.1167 104.073 71.2509C104.186 71.3839 104.318 71.4899 104.468 71.5688C104.565 71.6201 104.653 71.6511 104.732 71.6617C104.811 71.6717 104.88 71.6605 104.937 71.6281C104.995 71.5946 105.039 71.5387 105.071 71.4606L105.429 71.763C105.391 71.8804 105.328 71.9678 105.239 72.025C105.15 72.0811 105.04 72.1036 104.909 72.0926C104.778 72.0804 104.631 72.0313 104.468 71.9452ZM106.401 71.2669V72.9075L106.031 72.7122V69.9849L106.389 70.1736V70.5998L106.42 70.6163C106.477 70.5076 106.562 70.4416 106.678 70.4183C106.793 70.3938 106.942 70.4296 107.124 70.5256C107.287 70.6117 107.43 70.7249 107.553 70.8652C107.675 71.0044 107.77 71.1683 107.838 71.3568C107.907 71.5442 107.941 71.7539 107.941 71.9859V73.7189L107.57 73.5235V71.819C107.57 71.6047 107.521 71.4119 107.422 71.2404C107.324 71.0678 107.189 70.9362 107.017 70.8457C106.899 70.7833 106.793 70.7566 106.7 70.7655C106.608 70.7749 106.535 70.8212 106.481 70.9043C106.428 70.9874 106.401 71.1083 106.401 71.2669ZM109.598 74.6494C109.372 74.5301 109.177 74.3671 109.014 74.1603C108.85 73.9534 108.725 73.7209 108.637 73.4626C108.549 73.2044 108.505 72.9391 108.505 72.6669C108.505 72.3899 108.55 72.1692 108.64 72.0048C108.731 71.8397 108.858 71.7402 109.02 71.7062C109.183 71.6716 109.374 71.7116 109.592 71.8264C109.761 71.9159 109.914 72.0319 110.05 72.1747C110.187 72.3175 110.298 72.4757 110.385 72.6494C110.472 72.823 110.526 73.0006 110.547 73.1821L110.176 72.9867C110.148 72.8475 110.085 72.7043 109.988 72.5571C109.891 72.4092 109.761 72.2923 109.598 72.2062C109.454 72.13 109.327 72.1058 109.218 72.1337C109.11 72.1609 109.026 72.2354 108.965 72.3573C108.905 72.4785 108.876 72.6421 108.876 72.8481C108.876 73.0588 108.905 73.2577 108.963 73.4448C109.023 73.6326 109.107 73.798 109.215 73.9413C109.324 74.0851 109.451 74.1957 109.598 74.2729C109.694 74.3237 109.782 74.3509 109.86 74.3544C109.939 74.3579 110.005 74.3385 110.06 74.2962C110.114 74.2538 110.153 74.189 110.176 74.1017L110.547 74.2971C110.526 74.4471 110.474 74.5648 110.391 74.6502C110.31 74.735 110.201 74.7796 110.066 74.7842C109.932 74.7881 109.776 74.7432 109.598 74.6494ZM112.1 75.9682C111.868 75.8457 111.667 75.682 111.499 75.4771C111.331 75.2716 111.202 75.0401 111.111 74.7826C111.021 74.5244 110.976 74.2556 110.976 73.9763C110.976 73.6969 111.021 73.4744 111.111 73.3088C111.202 73.1426 111.328 73.0425 111.491 73.0085C111.654 72.9738 111.845 73.0139 112.063 73.1287C112.188 73.195 112.312 73.284 112.435 73.396C112.557 73.5079 112.669 73.6436 112.769 73.8031C112.87 73.9615 112.95 74.1434 113.01 74.3488C113.069 74.5543 113.099 74.7843 113.099 75.0388V75.2163L111.239 74.2361V73.8739L112.722 74.6554C112.722 74.5015 112.695 74.3499 112.641 74.2004C112.587 74.0516 112.511 73.916 112.411 73.7937C112.313 73.672 112.197 73.5758 112.063 73.5052C111.915 73.4273 111.787 73.4014 111.679 73.4274C111.572 73.4528 111.49 73.516 111.433 73.6171C111.375 73.7181 111.346 73.8438 111.346 73.9941V74.2356C111.346 74.4415 111.378 74.6327 111.441 74.809C111.504 74.9848 111.593 75.1397 111.706 75.2739C111.819 75.4069 111.951 75.5129 112.1 75.5918C112.198 75.6431 112.286 75.6741 112.364 75.6847C112.444 75.6947 112.512 75.6835 112.57 75.6511C112.627 75.6176 112.672 75.5617 112.703 75.4836L113.062 75.786C113.024 75.9034 112.96 75.9907 112.871 76.048C112.782 76.1041 112.673 76.1266 112.542 76.1156C112.411 76.1034 112.264 76.0543 112.1 75.9682Z" fill="#8A939A"/>
<path d="M83.754 50.5283V70.4103H84.0555V50.5283" fill="#8A939A"/>
<path fill-rule="evenodd" clip-rule="evenodd" d="M37.2985 94.7744C38.1401 100.736 36.5321 107.154 39.3924 112.567C41.3868 116.342 45.2956 119.034 47.3901 122.763C49.106 121.395 51.1463 120.368 53.3294 119.773C47.6059 114.283 44.3954 106.673 44.6052 99.0963L37.2985 94.7744Z" fill="#3A3F4D"/>
<path d="M78.7795 81.4161C78.7795 81.4161 79.3577 79.7492 79.6875 79.0374C80.0173 78.3257 79.7972 76.3808 80.5677 74.7414C81.3377 73.1021 83.2839 71.0966 83.648 69.5916C83.8681 68.6822 84.62 69.4639 84.3082 70.7163C83.9965 71.9686 82.9173 74.0065 82.9173 74.0065C82.9173 74.0065 83.5769 74.573 84.3824 74.7414C85.1879 74.9104 84.9678 75.4637 85.2982 76.5432C85.628 77.6227 84.5283 79.0374 84.5283 79.0374C83.8681 79.1294 81.3889 82.5468 81.3889 82.5468L78.7795 81.4161Z" fill="#8A939A"/>
<path fill-rule="evenodd" clip-rule="evenodd" d="M53.7514 85.3519C54.0372 85.4559 54.2488 85.5633 54.2488 85.6558C53.673 86.1622 52.8115 86.689 52.3792 87.3006C52.2562 87.4746 51.6949 89.0572 51.7491 89.0611C49.4677 88.9064 47.214 88.4187 45.0989 87.6232C45.4094 86.8184 45.5939 85.9734 45.6488 85.1218C45.6964 84.3781 45.4498 83.5815 45.6181 82.8687C45.6518 82.8791 45.6856 82.8896 45.7193 82.9C47.0639 83.3167 48.409 83.7329 49.7535 84.1496C50.5909 84.4089 51.4278 84.6682 52.2652 84.9275C52.4244 84.9765 53.2172 85.1581 53.7514 85.3519Z" fill="#8A939A"/>
<path fill-rule="evenodd" clip-rule="evenodd" d="M54.5803 73.5397C55.6475 74.726 55.6427 76.3681 55.9079 77.8121C56.0273 78.4622 56.1425 79.1129 56.4572 79.6925C56.7562 80.2436 57.6256 80.6355 57.3941 81.3644C57.3127 81.6203 57.0909 81.8146 56.9124 82.026C55.8127 83.3257 56.2329 85.28 54.2174 85.9273C53.1303 86.2764 51.8226 85.9466 51.0858 85.1379C49.5966 85.6736 47.9747 85.64 46.6248 84.8269C44.9481 83.8173 43.5801 82.3949 42.6673 80.7632C42.2 79.9281 41.8895 79.0567 41.6501 78.1479C41.4114 77.2406 41.6622 76.2013 42.0143 75.3305C43.8007 70.9161 51.3258 69.9225 54.5803 73.5397Z" fill="#8A939A"/>
<path fill-rule="evenodd" clip-rule="evenodd" d="M54.0116 75.0555C53.9736 75.3495 54.0622 75.644 54.0935 75.9434C54.1948 76.9293 53.0198 77.362 52.9251 78.3424C52.8618 78.9595 54.0936 81.4736 52.9251 81.6586C52.7798 81.1109 52.7165 80.3958 51.8766 80.3782C50.9921 80.355 50.8915 81.2837 51.0301 81.8832C51.2008 82.6038 51.9273 83.2671 51.9019 83.9882C51.8959 84.1325 51.8579 84.2767 51.782 84.4209C51.3334 85.3034 50.3862 85.8627 49.3251 85.926C48.2639 85.9953 47.2221 85.626 46.2936 85.136C44.4686 84.1732 42.9462 82.7315 41.961 81.0244C41.3358 79.929 40.3127 78.8274 39.9714 77.6219C39.5795 76.2264 40.6853 75.6208 40.9692 74.6002C41.0006 74.4791 41.0199 74.358 41.0259 74.2253C41.0452 73.8389 41.0512 73.4701 41.1586 73.0891C41.2345 72.8122 41.3418 72.5414 41.4745 72.2876C41.7018 71.855 42.0111 71.4575 42.3837 71.1228C43.5142 70.1253 44.8786 69.56 46.4136 69.2027C48.4472 68.7243 50.7715 68.7243 52.6538 69.6701C54.1762 70.4314 55.376 72.2073 54.5928 73.8279C54.3908 74.2364 54.0688 74.6112 54.0116 75.0555Z" fill="#3A3F4D"/>
<path fill-rule="evenodd" clip-rule="evenodd" d="M55.4561 78.2638C55.6146 78.7218 55.0913 78.9987 54.9128 78.5132C54.7814 78.1548 55.3005 77.8141 55.4561 78.2638Z" fill="#00378D"/>
<path fill-rule="evenodd" clip-rule="evenodd" d="M54.8398 184.394V185.149C55.9721 185.805 57.8574 185.888 59.003 185.319C62.4197 183.623 66.3339 186.146 69.5426 183.823C70.1202 183.405 71.1554 182.315 71.0318 181.159C66.9699 182.082 54.8398 184.394 54.8398 184.394Z" fill="black"/>
<path fill-rule="evenodd" clip-rule="evenodd" d="M60.67 178.546C60.67 178.546 64.3984 179.586 66.6045 179.898C67.8314 180.072 69.8084 179.237 70.7127 180.409C71.8414 181.873 69.5853 183.675 68.336 184.109C66.3934 184.785 62.4027 184.005 60.9322 184.317C59.4617 184.629 55.7339 185.303 54.8409 184.394C53.948 183.485 54.8409 179.067 54.8409 179.067L60.67 178.546Z" fill="#3A3F4D"/>
<path fill-rule="evenodd" clip-rule="evenodd" d="M43.996 176.903C41.9244 178.724 40.3212 176.427 40.4538 174.439C40.5165 173.496 40.6028 172.491 41.19 171.746C41.8261 170.939 43.0102 170.484 43.1923 169.477C44.6936 169.043 52.962 165.686 52.3639 169.773C52.0485 171.93 48.5794 172.873 46.1942 174.97L43.996 176.903Z" fill="#3A3F4D"/>
<path fill-rule="evenodd" clip-rule="evenodd" d="M43.8809 176.264L46.0798 174.331C48.4649 172.235 51.9341 171.292 52.2494 169.135V169.134V169.133L52.2506 169.121V169.119V169.118V169.117V169.116V169.115V169.113V169.112V169.111L52.2512 169.107V169.105V169.104C52.2874 169.315 52.288 169.557 52.2476 169.832C51.9323 171.989 48.4631 172.932 46.078 175.029L44.3753 176.562C42.5111 178.201 40.0482 177.431 40.4745 175.005C40.2815 176.438 42.3007 177.653 43.8809 176.264Z" fill="black"/>
<path fill-rule="evenodd" clip-rule="evenodd" d="M52.273 143.16C51.2306 151.476 49.6455 161.06 47.2772 171.775C46.696 174.393 45.3569 175.587 43.9805 175.996C42.0415 176.579 40.0332 175.598 39.9825 174.837C39.4833 167.686 41.6182 154.013 42.686 146.47C43.046 137.912 37.7343 125.531 40.0398 122.302L51.7183 119.049L51.9396 128.703L52.273 143.16Z" fill="url(#paint6_linear_519_2962)"/>
<path fill-rule="evenodd" clip-rule="evenodd" d="M51.939 128.703C51.5917 129.586 51.3325 130.15 51.3325 130.15C51.3325 130.15 47.2778 155.905 46.3427 159.146C45.5535 161.885 44.3404 172.686 43.9805 175.996C42.0415 176.579 40.0332 175.598 39.9825 174.837C39.4833 167.686 41.6183 154.013 42.686 146.47C43.046 137.912 37.7343 125.531 40.0398 122.302L51.7183 119.049L51.939 128.703Z" fill="#3A3F4D"/>
<path fill-rule="evenodd" clip-rule="evenodd" d="M61.7693 176.754C61.618 179.228 59.969 179.833 58.226 179.764C56.173 179.683 53.9881 178.657 53.9881 178.657C53.9628 169.631 53.0469 159.488 53.5395 151.143C53.9941 143.45 47.4506 131.969 47.3753 122.24C47.3626 121.744 47.3753 121.26 47.4066 120.775L60.6895 118.699C60.9675 120.637 61.214 122.482 61.4474 124.253C65.0154 152.048 62.7985 160.128 61.7693 176.754Z" fill="url(#paint7_linear_519_2962)"/>
<path fill-rule="evenodd" clip-rule="evenodd" d="M58.8201 151.257C58.9021 153.679 58.3462 175.322 58.2262 179.763C56.1733 179.682 53.9883 178.655 53.9883 178.655C53.963 169.63 53.0471 159.486 53.5397 151.142C53.9943 143.449 47.4509 131.968 47.3755 122.239L61.4476 124.251L56.1926 131.102C56.1926 131.102 58.7194 148.553 58.8201 151.257Z" fill="#3A3F4D"/>
<path fill-rule="evenodd" clip-rule="evenodd" d="M59.7479 125.272L58.2509 125.999C57.1837 126.477 56.0087 126.916 54.7896 127.291C49.7365 128.848 43.8502 129.257 41.2541 126.213C40.5722 125.67 38.0899 123.531 38.0899 123.531C38.6645 119.76 41.2733 110.527 41.2354 110.181C41.0081 108.048 40.2689 105.92 39.625 103.872C38.8858 101.513 37.5027 99.432 36.7955 97.0616C36.3216 95.4641 36.1636 93.746 36.6375 92.1424C37.6353 88.763 40.6101 86.8022 44.2548 86.8776C46.0738 86.9123 47.8548 87.3906 49.5412 88.0369C51.2842 88.7118 52.9452 89.5766 54.4549 90.638C55.8254 91.6008 56.7792 92.5355 57.5057 93.6772C58.0049 94.4556 58.4089 95.3265 58.7688 96.3762C59.6593 98.925 59.5647 101.278 59.6907 103.896C59.8233 106.595 59.5641 108.959 59.4887 111.687C61.0551 116.652 63.0381 119.022 63.392 121.802C63.5126 122.758 62.0222 124.067 59.7479 125.272Z" fill="#6A7083"/>
<path fill-rule="evenodd" clip-rule="evenodd" d="M50.9809 116.006L54.7896 127.291C49.7365 128.848 43.8502 129.257 41.2541 126.213C40.5722 125.67 38.0899 123.531 38.0899 123.531C38.6645 119.76 41.2734 110.527 41.2354 110.181C41.0081 108.048 40.2689 105.92 39.625 103.872C38.8858 101.513 37.5027 99.432 36.7955 97.0616C36.3216 95.4641 36.1636 93.746 36.6375 92.1424C37.6353 88.763 40.6101 86.8022 44.2548 86.8776C46.0738 86.9123 47.8548 87.3906 49.5412 88.0369C51.2842 88.7118 52.9452 89.5766 54.4549 90.638C55.8254 91.6008 56.7792 92.5355 57.5057 93.6772C56.1919 96.526 57.4321 100.465 57.4321 100.465C57.4321 100.465 51.2149 104.87 50.9815 107.684C50.741 110.492 50.9809 116.006 50.9809 116.006Z" fill="url(#paint8_linear_519_2962)"/>
<path fill-rule="evenodd" clip-rule="evenodd" d="M53.9524 89.9487C52.3082 89.0597 50.5043 88.4503 48.6678 87.9863C48.2482 87.88 43.4411 86.7631 43.3826 86.9249C43.6738 86.1201 44.2912 85.4463 45.2848 85.4254C45.6912 85.4166 46.0909 85.508 46.4834 85.6048C48.0619 85.9946 49.6102 86.4856 51.1132 87.073C52.5205 87.6224 53.5466 88.5681 53.9524 89.9487Z" fill="#87868D"/>
<path d="M83.2321 82.8653C75.9248 100.044 73.5246 99.3755 73.12 99.7735C72.7094 100.171 55.1886 100.512 55.1506 100.517C50.6155 100.615 47.4514 93.0724 52.0999 91.2844C54.5001 90.3618 58.3214 91.7342 60.8349 92.0281C63.8037 92.3854 66.7845 92.8296 69.7786 92.899C74.1112 88.0778 78.4824 80.2466 78.4824 80.2466C79.1962 80.2928 79.8214 80.431 80.358 80.627C80.5473 80.7018 80.6547 80.7426 80.6547 80.7426C82.4616 81.5044 83.2321 82.8653 83.2321 82.8653Z" fill="url(#paint9_linear_519_2962)"/>
<path d="M80.6541 80.7426L72.6516 93.1126L69.7781 92.899C74.1106 88.0778 78.4818 80.2466 78.4818 80.2466C79.1957 80.2928 79.8209 80.431 80.3575 80.627C80.5468 80.7024 80.6541 80.7426 80.6541 80.7426Z" fill="#3A3F4D"/>
<path fill-rule="evenodd" clip-rule="evenodd" d="M51.9021 83.9865C51.8961 84.1307 51.8581 84.2749 51.7822 84.4191C51.3336 85.3016 50.3864 85.8609 49.3253 85.9242C48.2641 85.9935 47.2223 85.6242 46.2938 85.1342C44.4688 84.1714 42.9464 82.7297 41.9612 81.0226C41.336 79.9272 40.3128 78.8256 39.9716 77.6201C39.5797 76.2246 40.6855 75.619 40.9694 74.5984C41.0834 75.204 41.3107 75.7924 41.6453 76.3286C41.3613 75.3135 41.6706 74.1773 42.4412 73.3989C41.6959 74.6964 42.6305 76.311 43.8815 77.2281C44.8667 77.9603 46.7424 78.4623 47.4062 79.4543C47.7601 79.985 47.8988 80.6021 48.1514 81.1729C48.7881 82.5965 50.2658 83.6402 51.9021 83.9865Z" fill="#3A3F4D"/>
<path fill-rule="evenodd" clip-rule="evenodd" d="M174.486 33.5356C174.486 26.6583 169.164 18.2782 162.6 14.8179C159.115 12.9803 155.98 12.9 153.806 14.2586L150.797 15.8445V19.6055C150.745 20.0519 150.715 20.5171 150.715 21.0054C150.715 21.4832 150.746 21.9704 150.797 22.4603V22.5996L150.81 22.593C151.012 24.4178 151.546 26.3099 152.347 28.16L152.347 28.1595L152.376 28.2278C152.399 28.2801 152.42 28.3323 152.444 28.3846L160.235 46.5304L159.592 46.8695V53.6251L162.601 52.0391L172.758 39.0938C172.781 39.0663 172.802 39.0366 172.825 39.0085L172.855 38.9705H172.855C173.889 37.6692 174.486 35.8327 174.486 33.5356Z" fill="#1E2B3B"/>
<path fill-rule="evenodd" clip-rule="evenodd" d="M169.845 40.5533C170.88 39.2519 171.476 37.416 171.476 35.1183C171.476 28.241 166.155 19.861 159.591 16.4006C153.027 12.9402 147.706 15.7103 147.706 22.5875C147.706 24.8847 148.302 27.3493 149.337 29.7428L149.336 29.7422L149.366 29.8105C149.389 29.8628 149.41 29.9151 149.433 29.9674L159.591 53.6213L169.748 40.676C169.771 40.6485 169.792 40.6188 169.815 40.5907L169.845 40.5533Z" fill="#1E2B3B"/>
<path fill-rule="evenodd" clip-rule="evenodd" d="M165.997 32.229C165.997 33.9531 165.378 35.1989 164.354 35.8446C163.186 36.5944 161.481 36.5597 159.592 35.5622C156.055 33.6994 153.188 29.1843 153.188 25.4817C153.188 23.1113 154.356 21.6525 156.125 21.3932C157.122 21.2374 158.316 21.4741 159.592 22.1485C163.129 24.0113 165.997 28.527 165.997 32.229Z" fill="#1F2025"/>
<path fill-rule="evenodd" clip-rule="evenodd" d="M165.995 32.229C165.995 33.9531 165.376 35.1989 164.353 35.8446C163.355 35.9943 162.167 35.7637 160.891 35.0893C157.355 33.2265 154.487 28.7114 154.487 25.0088C154.487 23.2847 155.106 22.0444 156.123 21.3932C157.121 21.2374 158.314 21.4741 159.59 22.1485C163.127 24.0113 165.995 28.527 165.995 32.229Z" fill="#94A3BB"/>
<path d="M46.5883 41.8214L42.6681 39.7549C40.793 38.7756 38.2005 38.9247 35.3372 40.4342C29.6155 43.4503 24.9773 50.7547 24.9773 56.7495C24.9773 59.7745 26.1596 61.8861 28.0648 62.85L31.8662 64.8538V63.346C32.9515 63.1781 34.1193 62.7845 35.3372 62.1427C39.9809 59.6946 43.9101 54.4221 45.2263 49.318L46.5883 50.0358V41.8214Z" fill="#1E2B3B"/>
<path d="M49.6153 47.8889C49.6153 41.8946 44.9771 39.4796 39.2554 42.4958C33.5337 45.5119 28.8954 52.8163 28.8954 58.8111C28.8954 64.8059 33.5337 67.2204 39.2554 64.2043C44.9771 61.1876 49.6153 53.8832 49.6153 47.8889Z" fill="#475569"/>
<path d="M43.53 47.5109C43.2688 47.3621 42.8457 47.6064 42.5842 48.0567L38.2228 55.5794L36.494 54.5939C36.2328 54.4448 35.8097 54.6894 35.5485 55.1397C35.2874 55.59 35.2874 56.076 35.5485 56.2247L37.4431 57.305C37.8739 57.5503 38.5722 57.147 39.0026 56.4043L43.53 48.5955C43.7911 48.1456 43.7911 47.6596 43.53 47.5109Z" fill="#94A3BB"/>
<path d="M98.0044 154.291L103.905 151.181C107.621 149.241 112.759 149.535 118.435 152.528C129.775 158.506 138.968 172.983 138.968 184.864C138.968 190.859 136.625 195.045 132.848 196.955L127.184 199.941V196.952C125.033 196.62 122.718 195.84 120.304 194.567C111.101 189.716 103.313 179.266 100.705 169.148L98.0051 170.571L98.0044 154.291Z" fill="#1E2B3B"/>
<path d="M92 166.32C92 154.439 101.193 149.654 112.533 155.631C123.873 161.609 133.066 176.087 133.066 187.967C133.066 199.849 123.873 204.634 112.533 198.656C101.193 192.678 92 178.201 92 166.32Z" fill="#2F3443"/>
<path d="M95.6508 168.245C95.6508 178.017 103.212 189.915 112.538 194.83C117.758 197.585 122.439 197.562 125.532 195.275C127.948 193.492 129.413 190.327 129.413 186.04C129.413 176.279 121.852 164.37 112.538 159.455C108.032 157.077 103.938 156.768 100.909 158.198C97.6787 159.707 95.6508 163.193 95.6508 168.245Z" fill="white" fill-opacity="0.1"/>
<path d="M97.0675 167.398C97.0675 177.171 104.616 189.08 113.942 193.995C118.436 196.361 122.504 196.681 125.534 195.275C127.95 193.492 129.415 190.327 129.415 186.04C129.415 176.279 121.854 164.37 112.54 159.455C108.034 157.077 103.94 156.768 100.911 158.198C98.5067 159.98 97.0675 163.135 97.0675 167.398Z" fill="#475569"/>
<path d="M114.749 164.808L113.446 164.121V160.907L114.749 161.593V164.808Z" fill="#94A3BB"/>
<path d="M114.749 191.729L113.446 191.042V187.827L114.749 188.514V191.729Z" fill="#94A3BB"/>
<path d="M107.953 161.248L107.389 161.293L106.622 159.496L107.186 159.452L107.953 161.248Z" fill="#94A3BB"/>
<path d="M121.57 193.136L121.005 193.18L120.238 191.384L120.803 191.339L121.57 193.136Z" fill="#94A3BB"/>
<path d="M103.138 163.509L102.812 163.928L101.484 162.424L101.81 162.005L103.138 163.509Z" fill="#94A3BB"/>
<path d="M126.718 190.207L126.392 190.627L125.063 189.122L125.39 188.704L126.718 190.207Z" fill="#94A3BB"/>
<path d="M102.812 176.802L103.138 177.564L101.81 177.668L101.484 176.905L102.812 176.802Z" fill="#94A3BB"/>
<path d="M126.392 174.966L126.718 175.729L125.39 175.832L125.063 175.07L126.392 174.966Z" fill="#94A3BB"/>
<path d="M107.389 184.266L107.953 184.905L107.186 185.892L106.622 185.253L107.389 184.266Z" fill="#94A3BB"/>
<path d="M121.005 166.743L121.57 167.382L120.803 168.37L120.238 167.731L121.005 166.743Z" fill="#94A3BB"/>
<path d="M125.41 182.961V181.596L128.478 183.214V184.579L125.41 182.961Z" fill="#94A3BB"/>
<path d="M99.7208 169.417V168.052L102.789 169.67V171.034L99.7208 169.417Z" fill="#94A3BB"/>
<path d="M107.534 169.415L113.721 176.876C114.235 177.496 114.915 177.467 114.915 176.825V167.046C114.915 166.574 114.549 165.999 114.099 165.761C113.648 165.524 113.283 165.714 113.283 166.186V174.311L108.421 168.448C108.043 167.992 107.538 167.839 107.292 168.106C107.047 168.373 107.155 168.959 107.534 169.415Z" fill="#94A3BB"/>
<defs>
<linearGradient id="paint0_linear_519_2962" x1="127.767" y1="58.8214" x2="160.33" y2="135.255" gradientUnits="userSpaceOnUse">
<stop stop-color="#212326"/>
<stop offset="1" stop-color="#1E2B3B"/>
</linearGradient>
<linearGradient id="paint1_linear_519_2962" x1="0.469116" y1="92.9586" x2="33.0319" y2="169.392" gradientUnits="userSpaceOnUse">
<stop stop-color="#212326"/>
<stop offset="1" stop-color="#1E2B3B"/>
</linearGradient>
<linearGradient id="paint2_linear_519_2962" x1="37.8423" y1="8.54425" x2="60.4272" y2="61.5558" gradientUnits="userSpaceOnUse">
<stop stop-color="#212326"/>
<stop offset="1" stop-color="#1E2B3B"/>
</linearGradient>
<linearGradient id="paint3_linear_519_2962" x1="121.158" y1="139.062" x2="102.346" y2="176.463" gradientUnits="userSpaceOnUse">
<stop stop-color="#6164FF"/>
<stop offset="1" stop-color="#8EE5FF"/>
</linearGradient>
<linearGradient id="paint4_linear_519_2962" x1="38.2763" y1="197.967" x2="63.9938" y2="169.8" gradientUnits="userSpaceOnUse">
<stop stop-color="#87868D" stop-opacity="0"/>
<stop offset="1" stop-color="#D4D5D7"/>
</linearGradient>
<linearGradient id="paint5_linear_519_2962" x1="22.8777" y1="183.108" x2="47.6616" y2="155.963" gradientUnits="userSpaceOnUse">
<stop stop-color="#87868D" stop-opacity="0"/>
<stop offset="1" stop-color="#D4D5D7"/>
</linearGradient>
<linearGradient id="paint6_linear_519_2962" x1="39.5404" y1="122.195" x2="64.1921" y2="139.898" gradientUnits="userSpaceOnUse">
<stop stop-color="#3A3F4D"/>
<stop offset="0.3575" stop-color="#6C7386"/>
<stop offset="1" stop-color="#494B51"/>
</linearGradient>
<linearGradient id="paint7_linear_519_2962" x1="47.4738" y1="122.062" x2="74.87" y2="145.079" gradientUnits="userSpaceOnUse">
<stop stop-color="#3A3F4D"/>
<stop offset="0.3575" stop-color="#6C7386"/>
<stop offset="1" stop-color="#494B51"/>
</linearGradient>
<linearGradient id="paint8_linear_519_2962" x1="36.4879" y1="89.1671" x2="53.3946" y2="116.679" gradientUnits="userSpaceOnUse">
<stop stop-color="#3A3F4D"/>
<stop offset="0.3575" stop-color="#6C7386"/>
<stop offset="1" stop-color="#494B51"/>
</linearGradient>
<linearGradient id="paint9_linear_519_2962" x1="50.0294" y1="81.363" x2="53.4072" y2="99.1873" gradientUnits="userSpaceOnUse">
<stop stop-color="#3A3F4D"/>
<stop offset="0.3575" stop-color="#6C7386"/>
<stop offset="1" stop-color="#494B51"/>
</linearGradient>
</defs>
</svg>
