<svg width="200" height="234" viewBox="0 0 200 234" fill="none" xmlns="http://www.w3.org/2000/svg">
<path fill-rule="evenodd" clip-rule="evenodd" d="M192.814 151.915L132.06 119.889C129.114 118.336 127.299 115.466 127.299 112.36V57.7447C127.299 54.3768 131.292 52.2723 134.486 53.9557L195.24 85.982C198.186 87.5349 200.001 90.4051 200.001 93.5116V148.127C200.001 151.494 196.008 153.599 192.814 151.915Z" fill="url(#paint0_linear_6379_2274)"/>
<path fill-rule="evenodd" clip-rule="evenodd" d="M7.18738 186.051L67.941 154.026C70.8874 152.473 72.7022 149.603 72.7022 146.496V91.8812C72.7022 88.5133 68.7091 86.4088 65.5148 88.0927L4.76124 120.118C1.81478 121.671 0 124.541 0 127.647V182.262C0 185.63 3.99312 187.735 7.18738 186.051Z" fill="url(#paint1_linear_6379_2274)"/>
<path fill-rule="evenodd" clip-rule="evenodd" d="M42.5025 73.1102L84.6386 50.898C86.6819 49.8207 87.9408 47.8301 87.9408 45.6755V7.79647C87.9408 5.46075 85.1716 4.00085 82.9559 5.16899L40.8198 27.3812C38.7765 28.4585 37.5176 30.449 37.5176 32.6036V70.4827C37.5176 72.8184 40.2868 74.2783 42.5025 73.1102Z" fill="url(#paint2_linear_6379_2274)"/>
<path fill-rule="evenodd" clip-rule="evenodd" d="M184.419 173.266H178.853H20.2179H14.6523V189.229H14.6566C14.6572 190.066 14.6976 190.903 14.7868 191.739C15.0774 194.548 15.8793 197.351 17.1804 200.096C18.8734 203.677 21.4183 207.172 24.823 210.487C27.4818 213.082 30.6652 215.574 34.3726 217.904C35.9896 218.924 37.7013 219.911 39.5137 220.867C72.6603 238.341 126.41 238.346 159.556 220.867C171.753 214.438 179.465 206.543 182.679 198.256C183.838 195.28 184.413 192.254 184.413 189.228H184.418V173.266H184.419Z" fill="#191B29"/>
<path fill-rule="evenodd" clip-rule="evenodd" d="M182.679 183.93C179.464 192.217 171.753 200.111 159.556 206.541C126.41 224.021 72.66 224.015 39.5134 206.541C37.7004 205.584 35.9893 204.598 34.3723 203.578C30.665 201.248 27.4816 198.756 24.8227 196.161C21.4186 192.845 18.8731 189.351 17.1801 185.77C15.879 183.025 15.0771 180.222 14.7865 177.413C13.4794 165.142 21.7219 152.639 39.514 143.262C62.1005 131.354 94.2487 127.559 122.923 131.884C125.267 132.236 127.591 132.646 129.884 133.107C140.703 135.281 150.84 138.672 159.556 143.262C170.268 148.908 177.519 155.69 181.302 162.87C184.934 169.737 185.389 176.969 182.679 183.93Z" fill="url(#paint3_linear_6379_2274)"/>
<path fill-rule="evenodd" clip-rule="evenodd" d="M163.441 181.455C160.97 187.472 155.042 193.204 145.668 197.873C120.191 210.565 78.8788 210.56 53.4019 197.873C52.0086 197.178 50.693 196.462 49.4504 195.721C46.601 194.029 44.1538 192.22 42.1105 190.336C39.4938 187.928 37.5374 185.391 36.2363 182.79C35.236 180.797 34.6199 178.762 34.3962 176.723C33.3911 167.813 39.7266 158.735 53.4019 151.926C70.7618 143.28 95.4717 140.524 117.512 143.665C119.313 143.92 121.099 144.218 122.862 144.553C131.178 146.132 138.969 148.593 145.669 151.927C153.902 156.026 159.475 160.95 162.383 166.163C165.174 171.151 165.524 176.401 163.441 181.455Z" fill="url(#paint4_linear_6379_2274)"/>
<path fill-rule="evenodd" clip-rule="evenodd" d="M164.589 177.35C164.38 178.729 163.995 180.101 163.439 181.456C160.97 187.471 155.045 193.203 145.666 197.875C120.193 210.562 78.8799 210.562 53.4006 197.875C52.0109 197.176 50.6911 196.461 49.4467 195.718C46.5979 194.028 44.1537 192.217 42.1074 190.337C39.4925 187.927 37.5348 185.389 36.2337 182.788C35.3366 181.006 34.7494 179.19 34.4781 177.362C34.4467 177.148 34.4214 176.935 34.3961 176.721C33.3916 167.812 39.7271 158.735 53.4012 151.924C70.7641 143.28 95.4722 140.523 117.509 143.666C119.315 143.92 121.096 144.22 122.859 144.554C131.177 146.129 138.971 148.591 145.666 151.924C153.902 156.024 159.473 160.949 162.384 166.163C164.424 169.813 165.163 173.596 164.589 177.35Z" fill="#3A3F4D"/>
<path fill-rule="evenodd" clip-rule="evenodd" d="M164.585 177.35C164.377 178.728 163.992 180.101 163.436 181.456C160.966 187.471 155.042 193.203 145.662 197.874C120.19 210.561 78.8765 210.561 53.3972 197.874C52.0075 197.176 50.6877 196.461 49.4432 195.717C46.5945 194.028 44.1502 192.217 42.1039 190.337C39.4891 187.926 37.5314 185.389 36.2303 182.788C35.3332 181.006 34.7459 179.19 34.4746 177.361C35.5924 169.87 41.9026 162.547 53.3972 156.826C70.76 148.176 95.4682 145.425 117.505 148.562C119.311 148.816 121.092 149.116 122.855 149.45C131.173 151.03 138.967 153.493 145.662 156.826C153.898 160.926 159.468 165.845 162.38 171.058C163.537 173.123 164.27 175.228 164.585 177.35Z" fill="url(#paint5_linear_6379_2274)"/>
<path fill-rule="evenodd" clip-rule="evenodd" d="M68.6955 184.282L34.3738 203.577C30.6665 201.248 27.4831 198.756 24.8242 196.161L62.2847 180.902L68.6955 184.282Z" fill="url(#paint6_linear_6379_2274)"/>
<path fill-rule="evenodd" clip-rule="evenodd" d="M45.8662 169.262L43.7439 177.145L17.1787 185.766C15.8776 183.021 15.0758 180.218 14.7852 177.41L45.8662 169.262Z" fill="url(#paint7_linear_6379_2274)"/>
<path fill-rule="evenodd" clip-rule="evenodd" d="M181.303 162.868L146.318 181.311L92.3789 152.88L129.883 133.105C140.703 135.279 150.84 138.67 159.556 143.261C170.269 148.907 177.519 155.689 181.303 162.868Z" fill="#2F3443"/>
<path d="M149.032 151.534C146.296 157.895 145.187 165.042 143.094 171.655C143.06 171.763 144.632 171.325 144.802 171.201C145.388 170.777 145.331 170.504 145.584 169.9C146.28 168.24 146.269 166.016 146.654 164.257C147.502 160.378 148.573 156.539 149.863 152.763C150.425 151.12 151.059 149.437 152.326 148.164C154.064 146.417 156.727 145.698 158.692 144.165C161.277 142.146 162.353 138.99 163.308 136.009C164.196 133.237 165.094 130.364 164.668 127.502C164.151 125.38 162.927 123.322 162.52 121.212C162.17 119.404 162.285 117.448 162.001 115.586C161.927 115.644 161.852 115.7 161.777 115.758C155.518 125.488 153.834 137.417 149.904 148.325C149.831 149.383 149.497 150.452 149.032 151.534Z" fill="#1F2025"/>
<path d="M151.342 123.635C148.563 126.725 146.591 130.431 145.75 134.359C145.378 136.101 144.941 138.524 145.54 140.266C146.188 142.147 147.921 143.238 148.992 144.86C149.743 146.001 149.984 147.155 149.903 148.325C153.833 137.417 155.517 125.487 161.776 115.758C158.282 118.468 154.289 120.359 151.342 123.635Z" fill="url(#paint8_linear_6379_2274)"/>
<path d="M187.529 142.233C182.066 140.845 176.401 139.906 170.777 140.465C164.683 141.07 158.598 143.647 155.132 148.264C153.346 150.642 152.335 153.421 151.345 156.159C148.989 162.677 146.634 169.196 144.277 175.714L144.881 178.299C146.902 171.282 149.566 164.419 152.837 157.807C152.972 157.534 153.117 157.258 153.298 157.01C157.867 144.734 174.116 143.809 187.529 142.233Z" fill="url(#paint9_linear_6379_2274)"/>
<path d="M153.301 157.011C153.451 156.804 153.623 156.614 153.844 156.469C154.703 155.906 155.941 156.174 156.791 156.747C157.641 157.32 158.245 158.142 159.005 158.813C161.21 160.759 164.578 161.261 167.601 160.788C170.623 160.315 173.397 158.999 176.113 157.7C178.36 156.626 180.712 155.465 182.053 153.501C183.344 151.61 183.493 149.276 184.169 147.136C184.845 144.996 186.468 142.761 188.901 142.591C188.447 142.469 187.99 142.351 187.532 142.234C174.118 143.81 157.87 144.735 153.301 157.011Z" fill="#1F2025"/>
<path d="M165.135 164.895C167.083 170.945 167.625 177.765 170.421 183.5C170.765 180.398 172.011 177.406 173.069 174.422C174.281 171.005 175.268 167.35 174.379 163.852C173.776 161.482 172.077 159.19 169.696 158.032C168.033 157.223 164.249 156.579 162.524 157.496C161.633 157.969 160.946 158.73 160.015 159.132C159.642 159.294 159.268 159.404 158.893 159.486C161.617 160.713 163.87 162.203 165.135 164.895Z" fill="url(#paint10_linear_6379_2274)"/>
<path d="M165.138 164.214C163.874 161.522 161.621 160.032 158.896 158.805C156.781 159.266 154.638 158.714 152.555 159.903C150.39 161.14 148.262 162.766 147.932 165.233C147.489 168.543 150.539 171.302 153.394 173.383C158.779 177.307 164.441 180.914 170.334 184.174C170.343 183.72 170.374 183.268 170.424 182.819C167.628 177.085 167.086 170.264 165.138 164.214Z" fill="#1F2025"/>
<path d="M149.539 45.1286V174.577C149.539 177.956 148.29 180.323 146.317 181.305V181.31L141.563 183.814C143.408 182.77 144.573 180.45 144.573 177.193V47.7489C144.573 41.6578 140.516 34.584 135.516 31.9483L83.4151 4.48389C81.3471 3.39503 79.4413 3.23208 77.9141 3.85303L82.0718 1.65989C83.7051 0.59139 85.9287 0.571022 88.3867 1.86357L140.482 29.328C145.487 31.9637 149.539 39.0424 149.539 45.1286Z" fill="url(#paint11_linear_6379_2274)"/>
<path d="M144.571 47.7472V177.194C144.571 180.447 143.409 182.771 141.565 183.815C141.495 183.855 141.419 183.889 141.35 183.924C139.771 184.72 137.737 184.616 135.514 183.446L132.444 181.825L83.4125 155.984C78.4167 153.348 74.3555 146.273 74.3555 140.183V10.7357C74.3555 7.17189 75.7512 4.72662 77.9115 3.85025C79.4399 3.23315 81.3475 3.39444 83.4125 4.48441L135.514 31.946C140.516 34.5818 144.571 41.6577 144.571 47.7472Z" fill="#2F3443"/>
<path d="M144.029 49.8868V176.157C144.029 178.383 142.311 179.276 140.189 178.158L82.624 147.812C80.5017 146.694 78.7773 143.989 78.7773 141.763V15.4879C78.7773 13.2678 80.5017 12.3683 82.624 13.4924L104.731 25.1418C106.246 25.9433 107.724 27.3504 108.703 29.0806C109.348 30.2223 110.32 31.2489 111.407 31.8198C112.493 32.3967 113.46 32.3906 114.11 31.9293C115.083 31.2313 116.567 31.3816 118.083 32.1831L140.189 43.832C142.311 44.9561 144.029 47.6612 144.029 49.8868Z" fill="#464A54"/>
<path d="M109.373 26.4197C109.373 25.3964 110.165 24.9841 111.141 25.4993C112.118 26.014 112.91 27.2609 112.91 28.2842C112.91 29.3076 112.118 29.7199 111.141 29.2047C110.165 28.6899 109.373 27.4431 109.373 26.4197Z" fill="#464A54"/>
<path d="M110.322 26.9191C110.322 26.4457 110.689 26.2552 111.14 26.493C111.593 26.7314 111.959 27.3083 111.959 27.7817C111.959 28.2551 111.592 28.4461 111.14 28.2078C110.689 27.9694 110.322 27.3925 110.322 26.9191Z" fill="#464A54"/>
<path d="M136.993 75.2762L81.9468 46.2589C80.6505 45.5757 79.5996 43.7426 79.5996 42.1649V28.1506C79.5996 26.5729 80.6505 25.8473 81.9468 26.5305L136.993 55.5478C138.289 56.2309 139.34 58.0641 139.34 59.6418V73.6561C139.34 75.2343 138.289 75.9593 136.993 75.2762Z" fill="url(#paint12_linear_6379_2274)"/>
<path d="M83.3595 36.5066C83.2649 36.4567 83.1842 36.3851 83.1176 36.2918C83.051 36.198 83.0002 36.0861 82.965 35.9563C82.9298 35.826 82.9122 35.6818 82.9122 35.5237C82.9122 35.3665 82.9298 35.2415 82.965 35.1488C83.0006 35.0558 83.0517 34.9975 83.1183 34.9739C83.1853 34.9501 83.2657 34.9628 83.3595 35.0123C83.4534 35.0618 83.5336 35.1336 83.6002 35.2279C83.6672 35.322 83.7183 35.4341 83.7535 35.5644C83.7891 35.6944 83.8069 35.8381 83.8069 35.9952C83.8069 36.1534 83.7893 36.2791 83.7541 36.3723C83.7189 36.465 83.668 36.5232 83.6014 36.5468C83.5348 36.5699 83.4542 36.5565 83.3595 36.5066ZM83.3595 36.3504C83.4534 36.3998 83.5262 36.3871 83.5782 36.3122C83.6301 36.2373 83.6561 36.1052 83.6561 35.9158C83.6561 35.7898 83.6442 35.6763 83.6203 35.5752C83.5968 35.4743 83.5629 35.3889 83.5185 35.3191C83.4745 35.2495 83.4215 35.1984 83.3595 35.1657C83.2666 35.1167 83.1939 35.1302 83.1415 35.2063C83.0892 35.282 83.063 35.4142 83.063 35.6032C83.063 35.7291 83.0747 35.8423 83.0982 35.9427C83.1216 36.0432 83.1553 36.1279 83.1993 36.197C83.2437 36.2664 83.2971 36.3175 83.3595 36.3504ZM84.4553 35.5898C84.5081 35.6181 84.5608 35.6573 84.6136 35.7074C84.6664 35.7575 84.7146 35.8198 84.7581 35.8944C84.8017 35.9685 84.8367 36.0567 84.8631 36.1592C84.8894 36.2616 84.9026 36.3796 84.9026 36.5131C84.9026 36.6424 84.8917 36.7515 84.87 36.8404C84.8486 36.929 84.8176 36.997 84.777 37.0442C84.7368 37.0917 84.6878 37.1179 84.63 37.123C84.5726 37.1282 84.5076 37.1118 84.4352 37.0736C84.3631 37.0356 84.2988 36.9856 84.2423 36.9236C84.1862 36.8614 84.1401 36.7919 84.1041 36.7151C84.0685 36.6381 84.0456 36.5586 84.0356 36.4766L84.1889 36.5574C84.2027 36.6314 84.2301 36.7011 84.2712 36.7663C84.3127 36.8312 84.3673 36.8816 84.4352 36.9173C84.5345 36.9696 84.6128 36.9619 84.6702 36.8942C84.728 36.8266 84.7569 36.7034 84.7569 36.5244L84.7468 36.5191C84.7234 36.5465 84.6955 36.5661 84.6633 36.578C84.631 36.5899 84.5952 36.5933 84.5558 36.5881C84.5164 36.583 84.4746 36.5688 84.4302 36.5454C84.3564 36.5065 84.2888 36.4502 84.2272 36.3766C84.1661 36.3027 84.1171 36.2198 84.0802 36.1279C84.0438 36.0358 84.0255 35.9429 84.0255 35.8491C84.0255 35.7601 84.0431 35.6879 84.0783 35.6326C84.1139 35.5771 84.1638 35.5441 84.2278 35.5339C84.2923 35.5239 84.3682 35.5425 84.4553 35.5898ZM84.4553 35.7461C84.4025 35.7183 84.355 35.7081 84.3127 35.7157C84.2708 35.7229 84.2375 35.7452 84.2128 35.7823C84.1885 35.8192 84.1763 35.868 84.1763 35.9286C84.1763 35.9892 84.1881 36.0506 84.2115 36.1126C84.2354 36.1745 84.2678 36.2309 84.3089 36.2819C84.3504 36.3326 84.3975 36.3719 84.4503 36.3997C84.4901 36.4207 84.5271 36.4315 84.5615 36.432C84.5958 36.4321 84.6258 36.4235 84.6513 36.4062C84.6773 36.3887 84.6976 36.3641 84.7123 36.3325C84.7269 36.3005 84.7342 36.2629 84.7342 36.2198C84.7342 36.163 84.7221 36.1034 84.6978 36.0408C84.6739 35.9785 84.6408 35.9208 84.5985 35.8678C84.5567 35.8149 84.5089 35.7744 84.4553 35.7461ZM85.2154 37.4763C85.1844 37.4599 85.1578 37.4334 85.1356 37.3966C85.1134 37.3598 85.1023 37.3239 85.1023 37.2888C85.1023 37.2538 85.1134 37.2296 85.1356 37.2162C85.1578 37.2028 85.1844 37.2042 85.2154 37.2206C85.2464 37.2369 85.273 37.2635 85.2952 37.3003C85.3174 37.3371 85.3285 37.373 85.3285 37.408C85.3285 37.4312 85.3232 37.4498 85.3128 37.4637C85.3027 37.4778 85.2891 37.4862 85.2719 37.489C85.2552 37.4916 85.2363 37.4873 85.2154 37.4763ZM85.9668 37.8809C85.8721 37.831 85.7915 37.7593 85.7249 37.666C85.6583 37.5722 85.6074 37.4604 85.5722 37.3306C85.5371 37.2003 85.5195 37.0561 85.5195 36.8979C85.5195 36.7407 85.5371 36.6158 85.5722 36.523C85.6078 36.4301 85.6589 36.3718 85.7255 36.3482C85.7926 36.3243 85.873 36.3371 85.9668 36.3865C86.0606 36.436 86.1408 36.5079 86.2074 36.6022C86.2745 36.6962 86.3256 36.8084 86.3607 36.9386C86.3964 37.0687 86.4142 37.2123 86.4142 37.3695C86.4142 37.5276 86.3966 37.6533 86.3614 37.7465C86.3262 37.8392 86.2753 37.8974 86.2087 37.921C86.1421 37.9441 86.0615 37.9308 85.9668 37.8809ZM85.9668 37.7246C86.0606 37.7741 86.1335 37.7613 86.1855 37.6864C86.2374 37.6115 86.2634 37.4794 86.2634 37.29C86.2634 37.1641 86.2514 37.0505 86.2276 36.9494C86.2041 36.8485 86.1702 36.7631 86.1258 36.6933C86.0818 36.6238 86.0288 36.5726 85.9668 36.54C85.8738 36.4909 85.8011 36.5045 85.7488 36.5806C85.6964 36.6562 85.6703 36.7885 85.6703 36.9774C85.6703 37.1033 85.682 37.2165 85.7054 37.317C85.7289 37.4174 85.7626 37.5022 85.8066 37.5713C85.851 37.6406 85.9044 37.6917 85.9668 37.7246ZM87.0726 38.4637C86.9779 38.4138 86.8973 38.3422 86.8307 38.2488C86.7641 38.155 86.7132 38.0432 86.678 37.9134C86.6429 37.7831 86.6253 37.6389 86.6253 37.4808C86.6253 37.3236 86.6429 37.1986 86.678 37.1059C86.7136 37.0129 86.7647 36.9546 86.8313 36.931C86.8984 36.9071 86.9788 36.9199 87.0726 36.9694C87.1664 37.0188 87.2466 37.0907 87.3132 37.185C87.3803 37.279 87.4314 37.3912 87.4665 37.5215C87.5022 37.6515 87.52 37.7951 87.52 37.9523C87.52 38.1105 87.5024 38.2361 87.4672 38.3293C87.432 38.4221 87.3811 38.4802 87.3145 38.5038C87.2479 38.527 87.1673 38.5136 87.0726 38.4637ZM87.0726 38.3075C87.1664 38.3569 87.2393 38.3442 87.2913 38.2693C87.3432 38.1944 87.3692 38.0622 87.3692 37.8729C87.3692 37.7469 87.3572 37.6334 87.3333 37.5322C87.3099 37.4313 87.276 37.346 87.2316 37.2762C87.1876 37.2066 87.1346 37.1555 87.0726 37.1228C86.9796 37.0738 86.9069 37.0873 86.8546 37.1634C86.8022 37.239 86.7761 37.3713 86.7761 37.5602C86.7761 37.6862 86.7878 37.7994 86.8112 37.8998C86.8347 38.0002 86.8684 38.085 86.9124 38.1541C86.9568 38.2234 87.0102 38.2746 87.0726 38.3075Z" fill="#8A939A"/>
<path d="M83.0395 41.4782L82.8572 41.4494L83.3847 40.0782L83.5643 40.1066L84.0918 41.6445L83.9094 41.6157L83.4801 40.3234L83.4689 40.3216L83.0395 41.4782ZM83.1069 40.9207L83.8421 41.0369V41.1931L83.1069 41.0769V40.9207ZM84.3156 40.2254L84.5233 40.2582L85.0115 41.5427L85.0284 41.5454L85.5166 40.4152L85.7243 40.448V41.9025L85.5615 41.8768V40.7717L85.5475 40.7695L85.0985 41.8036L84.9414 41.7788L84.4924 40.6027L84.4784 40.6005V41.7056L84.3156 41.6799V40.2254Z" fill="#8A939A"/>
<path d="M82.9625 31.0885L83.1484 31.1865L83.5857 32.6244L83.6008 32.6324L84.0381 31.6555L84.2241 31.7535V33.208L84.0783 33.1312V32.0261L84.0657 32.0195L83.6636 32.9126L83.5229 32.8385L83.1208 31.5214L83.1082 31.5148V32.6199L82.9625 32.5431V31.0885ZM84.9084 33.5915C84.8213 33.5456 84.7449 33.4818 84.6791 33.4003C84.6138 33.319 84.5627 33.2265 84.5258 33.1228C84.4894 33.0193 84.4712 32.9112 84.4712 32.7985C84.4712 32.6849 84.4894 32.5953 84.5258 32.5297C84.5627 32.4644 84.6138 32.4255 84.6791 32.4131C84.7449 32.4009 84.8213 32.4177 84.9084 32.4636C84.9956 32.5096 85.0718 32.5732 85.1371 32.6545C85.2029 32.736 85.254 32.8288 85.2904 32.9327C85.3273 33.0369 85.3457 33.1458 85.3457 33.2595C85.3457 33.3722 85.3273 33.4609 85.2904 33.5258C85.254 33.5909 85.2029 33.6295 85.1371 33.6417C85.0718 33.6541 84.9956 33.6374 84.9084 33.5915ZM84.9084 33.4409C84.9746 33.4758 85.0291 33.4853 85.0718 33.4695C85.1145 33.4537 85.1461 33.4199 85.1667 33.3682C85.1872 33.3165 85.1975 33.2542 85.1975 33.1813C85.1975 33.1084 85.1872 33.035 85.1667 32.9613C85.1461 32.8875 85.1145 32.8199 85.0718 32.7586C85.0291 32.6972 84.9746 32.6491 84.9084 32.6142C84.8423 32.5793 84.7878 32.57 84.7451 32.5863C84.7024 32.6027 84.6707 32.6369 84.6502 32.689C84.6297 32.7412 84.6194 32.8037 84.6194 32.8766C84.6194 32.9496 84.6297 33.0227 84.6502 33.096C84.6707 33.1693 84.7024 33.2364 84.7451 33.2973C84.7878 33.3582 84.8423 33.406 84.9084 33.4409ZM85.7204 33.3405V33.9967L85.5721 33.9185V32.8276L85.7153 32.9031V33.0736L85.7279 33.0802C85.7505 33.0367 85.7849 33.0103 85.8309 33.001C85.877 32.9912 85.9365 33.0055 86.0094 33.0439C86.0747 33.0784 86.1319 33.1236 86.1809 33.1798C86.2299 33.2354 86.268 33.301 86.2952 33.3764C86.3225 33.4514 86.3361 33.5353 86.3361 33.6281V34.3212L86.1878 34.2431V33.5613C86.1878 33.4756 86.1681 33.3984 86.1288 33.3299C86.0894 33.2608 86.0353 33.2082 85.9667 33.172C85.9193 33.147 85.877 33.1363 85.8397 33.1399C85.8029 33.1436 85.7738 33.1622 85.7524 33.1954C85.731 33.2287 85.7204 33.277 85.7204 33.3405ZM86.9715 34.6789C86.891 34.6365 86.82 34.5761 86.7585 34.4977C86.6969 34.4188 86.6487 34.3281 86.614 34.2255C86.5792 34.1224 86.5618 34.0131 86.5618 33.8976C86.5618 33.783 86.5792 33.6927 86.614 33.6268C86.6487 33.5608 86.6971 33.5212 86.7591 33.508C86.8211 33.4947 86.8927 33.5095 86.974 33.5523C87.0368 33.5855 87.0864 33.6235 87.1229 33.6663C87.1597 33.709 87.1878 33.7503 87.2071 33.7903C87.2267 33.83 87.242 33.8622 87.2529 33.8869L87.2655 33.8935V33.3566L87.4138 33.4347V34.8893L87.2705 34.8138V34.6461L87.2529 34.6369C87.242 34.651 87.2265 34.6679 87.2064 34.6877C87.1863 34.7069 87.1576 34.7185 87.1204 34.7225C87.0831 34.7261 87.0334 34.7115 86.9715 34.6789ZM86.9916 34.5389C87.051 34.5702 87.1013 34.5792 87.1423 34.5658C87.1834 34.5519 87.2146 34.5194 87.236 34.4681C87.2573 34.4164 87.268 34.3494 87.268 34.267C87.268 34.1855 87.2575 34.1088 87.2366 34.0366C87.2156 33.9641 87.1847 33.8999 87.1436 33.8442C87.1026 33.788 87.0519 33.744 86.9916 33.7122C86.9287 33.6791 86.8764 33.6697 86.8345 33.6841C86.793 33.6982 86.7618 33.7308 86.7409 33.7817C86.7203 33.8325 86.7101 33.8962 86.7101 33.9729C86.7101 34.0506 86.7206 34.1266 86.7415 34.2011C86.7629 34.2753 86.7943 34.3421 86.8357 34.4014C86.8776 34.4604 86.9296 34.5062 86.9916 34.5389ZM87.9899 35.2185C87.9288 35.1863 87.8733 35.144 87.8234 35.0917C87.7736 35.0389 87.734 34.9799 87.7047 34.9148C87.6754 34.8491 87.6607 34.7808 87.6607 34.7098C87.6607 34.6473 87.6716 34.6023 87.6934 34.575C87.7151 34.5472 87.7443 34.5317 87.7807 34.5287C87.8171 34.5256 87.8573 34.5303 87.9013 34.5426C87.9457 34.5546 87.9903 34.5691 88.0352 34.5861C88.0938 34.6085 88.1413 34.6272 88.1778 34.6421C88.2146 34.6568 88.2414 34.6631 88.2582 34.661C88.2754 34.6592 88.284 34.6448 88.284 34.6178V34.6121C88.284 34.5421 88.267 34.4787 88.2331 34.422C88.1996 34.3655 88.1487 34.3192 88.0804 34.2832C88.0096 34.2459 87.9541 34.2342 87.9139 34.248C87.8737 34.2619 87.8454 34.2844 87.8291 34.3155L87.6883 34.1845C87.7135 34.1315 87.747 34.0976 87.7889 34.0827C87.8312 34.0676 87.8772 34.0658 87.9271 34.0774C87.9774 34.0888 88.0268 34.1073 88.0754 34.1329C88.1064 34.1492 88.142 34.1722 88.1822 34.2019C88.2228 34.2314 88.262 34.2689 88.2997 34.3143C88.3378 34.36 88.3694 34.4152 88.3945 34.4801C88.4197 34.5449 88.4322 34.6207 88.4322 34.7073V35.4261L88.284 35.3479V35.2002L88.2764 35.1962C88.2664 35.2146 88.2496 35.2311 88.2262 35.2457C88.2027 35.2603 88.1715 35.2669 88.1325 35.2653C88.0936 35.2637 88.046 35.2481 87.9899 35.2185ZM88.0125 35.0799C88.0712 35.1108 88.1206 35.1238 88.1608 35.119C88.2014 35.1143 88.232 35.0968 88.2525 35.0665C88.2735 35.0363 88.284 34.9985 88.284 34.953V34.7996C88.2777 34.8048 88.2639 34.8054 88.2425 34.8012C88.2215 34.7968 88.1973 34.7899 88.1696 34.7805C88.1424 34.7709 88.1158 34.7612 88.0898 34.7513C88.0643 34.7411 88.0435 34.733 88.0276 34.727C87.9891 34.7124 87.9531 34.7026 87.9195 34.6978C87.8865 34.6926 87.8597 34.6972 87.8391 34.7115C87.819 34.7255 87.809 34.7538 87.809 34.7964C87.809 34.8547 87.828 34.9087 87.8661 34.9587C87.9047 35.0083 87.9535 35.0487 88.0125 35.0799ZM88.7638 36.0099C88.7387 35.9967 88.7163 35.9825 88.6966 35.9674C88.6769 35.9528 88.6633 35.9413 88.6558 35.9331L88.6935 35.8052C88.7295 35.8346 88.7613 35.8552 88.789 35.8669C88.8166 35.8787 88.8411 35.8776 88.8625 35.8638C88.8842 35.8506 88.9041 35.8211 88.9222 35.7752L88.9498 35.7046L88.5929 34.4199L88.7538 34.5046L89.0202 35.5144L89.0302 35.5197L89.2966 34.7908L89.4575 34.8755L89.0478 35.9096C89.0294 35.9563 89.0066 35.9909 88.9793 36.0134C88.9521 36.0365 88.9205 36.0475 88.8845 36.0465C88.8488 36.0458 88.8086 36.0336 88.7638 36.0099Z" fill="#8A939A"/>
<path d="M134.681 63.6254C134.628 63.5248 134.562 63.42 134.489 63.3065L134.488 63.305C134.408 63.1844 134.328 62.9959 134.251 62.7825C134.133 62.4606 134.019 62.0844 133.828 61.7217C133.731 61.5404 133.612 61.3594 133.455 61.1939C133.298 61.0284 133.102 60.8829 132.882 60.7864C132.586 60.6533 132.337 60.6496 132.16 60.7261C131.894 60.8403 131.754 61.097 131.628 61.3364C131.507 61.5777 131.394 61.8065 131.272 61.8804L131.272 61.8808C131.198 61.9294 131.133 61.9762 131.08 62.0301C131.029 62.0851 130.984 62.1454 130.983 62.2514C130.979 62.3456 131.04 62.4798 131.127 62.5759C131.256 62.7222 131.409 62.8244 131.626 62.9514C131.809 63.0562 132.041 63.1734 132.332 63.3095C132.416 63.5421 132.63 63.7759 132.882 63.8878C133.133 63.999 133.346 63.9531 133.429 63.7943C133.833 63.9632 134.124 64.0692 134.332 64.1159C134.451 64.1415 134.549 64.1525 134.634 64.1299C134.721 64.1103 134.782 64.0307 134.779 63.9331C134.777 63.8264 134.732 63.7253 134.681 63.6254ZM134.084 63.6669C133.936 63.6217 133.731 63.5448 133.468 63.4358V63.4339L133.249 63.3442L133.246 63.3431C133.137 63.2982 133.015 63.2439 132.882 63.1855C132.746 63.1252 132.624 63.0709 132.514 63.0189L132.512 63.0178L132.294 62.9141V62.9152C131.931 62.7441 131.677 62.608 131.534 62.5122C131.471 62.4711 131.438 62.4425 131.418 62.4244C131.425 62.4127 131.436 62.3969 131.455 62.3791C131.489 62.3456 131.542 62.3064 131.607 62.2638L131.606 62.2642C131.74 62.1756 131.826 62.0327 131.909 61.8793C132.031 61.6489 132.143 61.3903 132.296 61.2399C132.373 61.1641 132.457 61.1166 132.549 61.1019C132.641 61.088 132.742 61.1008 132.883 61.1626C133.067 61.2463 133.184 61.3504 133.302 61.5004C133.476 61.7243 133.612 62.0576 133.731 62.3984C133.855 62.7414 133.958 63.0845 134.156 63.394L134.155 63.3925C134.225 63.4999 134.281 63.5911 134.314 63.656L134.345 63.7223C134.307 63.7216 134.221 63.7106 134.084 63.6669Z" fill="#8A939A"/>
<path d="M99.89 43.7812L100.169 43.9283L100.825 46.0851L100.847 46.097L101.503 44.6316L101.782 44.7787V46.9605L101.564 46.8453V45.1876L101.545 45.1776L100.942 46.5174L100.731 46.4061L100.127 44.4305L100.109 44.4206V46.0783L99.89 45.963V43.7812ZM102.828 47.5456C102.688 47.4721 102.568 47.3739 102.467 47.2509C102.366 47.1276 102.289 46.9887 102.234 46.8342C102.18 46.6793 102.153 46.5181 102.153 46.3504C102.153 46.1828 102.18 46.0493 102.234 45.95C102.289 45.8502 102.365 45.7902 102.462 45.7698C102.56 45.749 102.675 45.773 102.805 45.8419C102.881 45.8817 102.955 45.9351 103.029 46.0023C103.102 46.0694 103.169 46.1508 103.229 46.2466C103.29 46.3416 103.338 46.4507 103.373 46.574C103.409 46.6973 103.427 46.8352 103.427 46.9879V47.0945L102.311 46.5063V46.289L103.201 46.7579C103.201 46.6656 103.185 46.5746 103.152 46.4849C103.12 46.3956 103.074 46.3143 103.014 46.2409C102.955 46.1679 102.886 46.1102 102.805 46.0678C102.717 46.0211 102.64 46.0055 102.575 46.0211C102.511 46.0364 102.462 46.0743 102.427 46.1349C102.393 46.1955 102.375 46.2709 102.375 46.3611V46.506C102.375 46.6296 102.394 46.7443 102.432 46.8501C102.47 46.9555 102.523 47.0485 102.591 47.129C102.659 47.2088 102.738 47.2724 102.828 47.3197C102.886 47.3505 102.939 47.3691 102.986 47.3755C103.034 47.3815 103.075 47.3748 103.11 47.3553C103.144 47.3352 103.171 47.3017 103.19 47.2548L103.405 47.4363C103.382 47.5067 103.344 47.5591 103.291 47.5935C103.237 47.6271 103.171 47.6406 103.093 47.634C103.014 47.6267 102.926 47.5973 102.828 47.5456ZM104.372 48.3598C104.233 48.2862 104.113 48.188 104.012 48.0651C103.911 47.9418 103.833 47.8029 103.779 47.6484C103.725 47.4935 103.698 47.3322 103.698 47.1646C103.698 46.997 103.725 46.8635 103.779 46.7641C103.833 46.6644 103.909 46.6043 104.007 46.5839C104.105 46.5631 104.219 46.5872 104.35 46.6561C104.425 46.6958 104.5 46.7493 104.573 46.8164C104.647 46.8836 104.714 46.965 104.774 47.0607C104.834 47.1557 104.882 47.2649 104.918 47.3881C104.954 47.5114 104.972 47.6494 104.972 47.8021V47.9086L103.856 47.3205V47.1032L104.746 47.5721C104.746 47.4798 104.729 47.3888 104.697 47.2991C104.665 47.2098 104.619 47.1284 104.559 47.0551C104.5 46.982 104.43 46.9243 104.35 46.8819C104.261 46.8352 104.185 46.8197 104.12 46.8353C104.056 46.8505 104.006 46.8884 103.972 46.9491C103.937 47.0097 103.92 47.0851 103.92 47.1753V47.3202C103.92 47.4438 103.939 47.5585 103.977 47.6643C104.015 47.7697 104.068 47.8627 104.136 47.9432C104.204 48.023 104.283 48.0866 104.372 48.1339C104.431 48.1647 104.484 48.1833 104.531 48.1897C104.579 48.1957 104.62 48.1889 104.654 48.1695C104.689 48.1494 104.716 48.1159 104.734 48.069L104.949 48.2504C104.927 48.3209 104.889 48.3733 104.835 48.4076C104.782 48.4413 104.716 48.4548 104.637 48.4482C104.559 48.4409 104.47 48.4114 104.372 48.3598ZM105.94 47.5154V47.7285L105.19 47.333V47.12L105.94 47.5154ZM105.408 46.8432L105.631 46.9604V48.5201C105.631 48.5911 105.64 48.6492 105.658 48.6943C105.677 48.739 105.701 48.775 105.73 48.8023C105.759 48.8293 105.79 48.8513 105.823 48.8686C105.847 48.8815 105.867 48.8907 105.883 48.8961C105.899 48.9008 105.911 48.9046 105.921 48.9074L105.966 49.1571C105.951 49.1556 105.93 49.1509 105.903 49.143C105.876 49.1359 105.842 49.1214 105.8 49.0995C105.737 49.0664 105.676 49.0187 105.616 48.9564C105.556 48.8944 105.506 48.8217 105.467 48.7383C105.428 48.6553 105.408 48.5662 105.408 48.471V46.8432ZM106.274 49.3281V47.6917L106.497 47.809V49.4453L106.274 49.3281ZM106.387 47.4786C106.344 47.4558 106.307 47.4194 106.275 47.3694C106.244 47.3198 106.229 47.2716 106.229 47.2247C106.229 47.1778 106.244 47.1458 106.275 47.1287C106.307 47.1118 106.344 47.1149 106.387 47.1377C106.431 47.1606 106.468 47.1968 106.499 47.2464C106.53 47.2963 106.546 47.3447 106.546 47.3916C106.546 47.4385 106.53 47.4703 106.499 47.4872C106.468 47.5043 106.431 47.5015 106.387 47.4786ZM107.127 48.7929V49.7773L106.904 49.66V48.0237L107.119 48.1369V48.3926L107.138 48.4026C107.172 48.3373 107.223 48.2977 107.292 48.2837C107.362 48.269 107.451 48.2905 107.56 48.3481C107.658 48.3998 107.744 48.4677 107.817 48.5519C107.891 48.6354 107.948 48.7337 107.989 48.8469C108.03 48.9593 108.05 49.0851 108.05 49.2243V50.2641L107.828 50.1469V49.1241C107.828 48.9956 107.798 48.8799 107.739 48.777C107.68 48.6734 107.599 48.5945 107.496 48.5402C107.425 48.5028 107.362 48.4867 107.306 48.492C107.25 48.4977 107.207 48.5255 107.175 48.5753C107.143 48.6252 107.127 48.6977 107.127 48.7929ZM109.041 51.434C108.933 51.3774 108.841 51.3131 108.764 51.2411C108.686 51.1698 108.622 51.0954 108.571 51.0178C108.52 50.9413 108.479 50.8666 108.449 50.7939L108.626 50.7467C108.646 50.7871 108.672 50.8346 108.703 50.8892C108.733 50.9445 108.775 51.0004 108.829 51.057C108.883 51.1146 108.954 51.1664 109.041 51.2124C109.158 51.274 109.254 51.2929 109.33 51.269C109.406 51.2452 109.444 51.1651 109.444 51.0287V50.6963L109.425 50.6864C109.409 50.7076 109.386 50.7323 109.356 50.7604C109.326 50.7882 109.283 50.8044 109.227 50.809C109.172 50.8132 109.097 50.7905 109.003 50.7408C108.886 50.6792 108.781 50.5927 108.688 50.4812C108.596 50.37 108.523 50.2405 108.469 50.0927C108.415 49.9452 108.389 49.7863 108.389 49.6158C108.389 49.4482 108.415 49.316 108.467 49.2192C108.519 49.1217 108.592 49.0634 108.685 49.0442C108.778 49.0243 108.885 49.0465 109.007 49.1107C109.101 49.1604 109.176 49.2176 109.231 49.2822C109.287 49.3465 109.33 49.4088 109.359 49.4691C109.39 49.529 109.413 49.5775 109.429 49.6145L109.452 49.6264V49.3665L109.667 49.4798V51.163C109.667 51.3036 109.638 51.4031 109.582 51.4613C109.526 51.5206 109.451 51.5459 109.356 51.5371C109.261 51.5293 109.156 51.4949 109.041 51.434ZM109.033 50.5309C109.123 50.5779 109.198 50.5946 109.26 50.5809C109.321 50.5671 109.368 50.5254 109.4 50.4557C109.432 50.3859 109.448 50.2906 109.448 50.1699C109.448 50.052 109.432 49.9397 109.401 49.8329C109.369 49.7262 109.323 49.631 109.261 49.5474C109.2 49.4638 109.124 49.3982 109.033 49.3505C108.939 49.3008 108.861 49.2864 108.798 49.3073C108.736 49.3285 108.689 49.3762 108.657 49.4506C108.626 49.5253 108.611 49.618 108.611 49.7288C108.611 49.8424 108.627 49.9512 108.658 50.0551C108.69 50.1587 108.737 50.2517 108.8 50.3342C108.862 50.4163 108.94 50.4819 109.033 50.5309Z" fill="#8A939A"/>
<path d="M96.0312 37.2734V50.7224H96.3327V37.2734" fill="#8A939A"/>
<path d="M136.993 119.682L81.9468 90.6651C80.6505 89.9819 79.5996 88.1488 79.5996 86.5711V72.5568C79.5996 70.9791 80.6505 70.2536 81.9468 70.9367L136.993 99.954C138.289 100.637 139.34 102.47 139.34 104.048V118.062C139.34 119.64 138.289 120.366 136.993 119.682Z" fill="url(#paint13_linear_6379_2274)"/>
<path d="M85.8837 89.0427L85.7041 89.0001L86.2237 87.6687L86.4007 87.7107L86.9203 89.2884L86.7407 89.2458L86.3177 87.9211L86.3067 87.9185L85.8837 89.0427ZM85.9501 88.4902L86.6743 88.6619V88.8182L85.9501 88.6465V88.4902ZM87.1408 87.8862L87.3453 87.9346L87.8263 89.2561L87.8429 89.26L88.3239 88.1666L88.5285 88.2151V89.6697L88.3681 89.6317V88.5266L88.3543 88.5233L87.912 89.5235L87.7572 89.4868L87.3149 88.2769L87.3011 88.2736V89.3787L87.1408 89.3407V87.8862Z" fill="#8A939A"/>
<path d="M85.351 81.0194V83.2012L85.1173 83.0781V81.1732L85.106 81.1673L84.6348 81.2726V81.0041L85.1173 80.8962L85.351 81.0194ZM86.5357 83.8555C86.3937 83.7806 86.2727 83.6732 86.1728 83.5332C86.0729 83.3925 85.9966 83.2248 85.9438 83.03C85.891 82.8346 85.8646 82.6183 85.8646 82.3811C85.8646 82.1453 85.891 81.9578 85.9438 81.8187C85.9972 81.6793 86.0739 81.5918 86.1738 81.5564C86.2743 81.5206 86.3949 81.5398 86.5357 81.614C86.6764 81.6882 86.7967 81.796 86.8966 81.9374C86.9971 82.0785 87.0738 82.2467 87.1266 82.4422C87.18 82.6372 87.2067 82.8526 87.2067 83.0884C87.2067 83.3256 87.1803 83.5141 87.1275 83.6539C87.0747 83.793 86.9984 83.8803 86.8985 83.9157C86.7986 83.9504 86.6777 83.9303 86.5357 83.8555ZM86.5357 83.6211C86.6764 83.6953 86.7857 83.6762 86.8636 83.5639C86.9415 83.4515 86.9805 83.2533 86.9805 82.9692C86.9805 82.7803 86.9626 82.61 86.9268 82.4583C86.8916 82.3069 86.8407 82.1789 86.7741 82.0742C86.7081 81.9698 86.6287 81.8931 86.5357 81.8441C86.3962 81.7706 86.2872 81.7909 86.2086 81.9051C86.1301 82.0185 86.0908 82.2169 86.0908 82.5003C86.0908 82.6892 86.1084 82.859 86.1436 83.0096C86.1788 83.1603 86.2294 83.2874 86.2953 83.3911C86.3619 83.4951 86.442 83.5718 86.5357 83.6211ZM87.6633 84.437C87.6168 84.4125 87.5769 84.3727 87.5436 84.3175C87.5103 84.2623 87.4937 84.2084 87.4937 84.1559C87.4937 84.1033 87.5103 84.067 87.5436 84.0469C87.5769 84.0268 87.6168 84.029 87.6633 84.0535C87.7098 84.078 87.7497 84.1179 87.783 84.1731C87.8163 84.2283 87.8329 84.2821 87.8329 84.3347C87.8329 84.3695 87.8251 84.3973 87.8094 84.4182C87.7943 84.4393 87.7739 84.452 87.7481 84.4562C87.723 84.46 87.6947 84.4536 87.6633 84.437ZM88.7905 85.0439C88.6485 84.9691 88.5275 84.8617 88.4276 84.7217C88.3277 84.5809 88.2514 84.4132 88.1986 84.2185C88.1458 84.0231 88.1194 83.8067 88.1194 83.5695C88.1194 83.3337 88.1458 83.1463 88.1986 83.0072C88.252 82.8677 88.3287 82.7803 88.4286 82.7449C88.5291 82.7091 88.6497 82.7283 88.7905 82.8025C88.9312 82.8766 89.0515 82.9844 89.1514 83.1259C89.2519 83.2669 89.3286 83.4352 89.3814 83.6306C89.4348 83.8257 89.4615 84.0411 89.4615 84.2769C89.4615 84.5141 89.4351 84.7026 89.3823 84.8424C89.3295 84.9815 89.2532 85.0687 89.1533 85.1041C89.0534 85.1388 88.9325 85.1188 88.7905 85.0439ZM88.7905 84.8096C88.9312 84.8837 89.0405 84.8647 89.1184 84.7523C89.1963 84.64 89.2353 84.4418 89.2353 84.1577C89.2353 83.9687 89.2174 83.7984 89.1816 83.6467C89.1464 83.4954 89.0955 83.3674 89.0289 83.2627C88.9629 83.1583 88.8834 83.0816 88.7905 83.0326C88.651 82.9591 88.542 82.9794 88.4634 83.0935C88.3849 83.2069 88.3456 83.4054 88.3456 83.6887C88.3456 83.8777 88.3632 84.0474 88.3984 84.1981C88.4336 84.3487 88.4842 84.4759 88.5501 84.5796C88.6167 84.6835 88.6968 84.7602 88.7905 84.8096ZM90.4492 85.9182C90.3072 85.8434 90.1862 85.7359 90.0863 85.5959C89.9864 85.4552 89.9101 85.2875 89.8573 85.0928C89.8045 84.8973 89.7781 84.681 89.7781 84.4438C89.7781 84.208 89.8045 84.0205 89.8573 83.8815C89.9107 83.742 89.9874 83.6546 90.0873 83.6191C90.1878 83.5834 90.3084 83.6025 90.4492 83.6767C90.5899 83.7509 90.7102 83.8587 90.8101 84.0001C90.9106 84.1412 90.9873 84.3094 91.0401 84.5049C91.0935 84.6999 91.1202 84.9154 91.1202 85.1511C91.1202 85.3884 91.0938 85.5769 91.041 85.7167C90.9882 85.8558 90.9119 85.943 90.812 85.9784C90.7121 86.0131 90.5912 85.993 90.4492 85.9182ZM90.4492 85.6838C90.5899 85.758 90.6992 85.7389 90.7771 85.6266C90.855 85.5142 90.894 85.316 90.894 85.0319C90.894 84.843 90.8761 84.6727 90.8403 84.521C90.8051 84.3697 90.7542 84.2416 90.6876 84.1369C90.6216 84.0325 90.5421 83.9559 90.4492 83.9068C90.3097 83.8333 90.2007 83.8536 90.1221 83.9678C90.0436 84.0812 90.0043 84.2796 90.0043 84.563C90.0043 84.7519 90.0219 84.9217 90.0571 85.0724C90.0923 85.223 90.1429 85.3502 90.2088 85.4538C90.2754 85.5578 90.3555 85.6345 90.4492 85.6838Z" fill="#8A939A"/>
<path d="M135.745 109.725C135.68 109.578 135.6 109.425 135.51 109.26L135.508 109.257C135.411 109.081 135.312 108.806 135.217 108.494C135.073 108.024 134.933 107.475 134.698 106.945C134.58 106.68 134.434 106.416 134.241 106.175C134.049 105.933 133.808 105.72 133.538 105.58C133.175 105.385 132.869 105.38 132.652 105.491C132.325 105.658 132.154 106.033 131.999 106.383C131.851 106.735 131.712 107.069 131.563 107.177L131.562 107.178C131.472 107.249 131.392 107.317 131.327 107.396C131.265 107.476 131.209 107.565 131.207 107.719C131.202 107.856 131.278 108.052 131.384 108.193C131.542 108.406 131.731 108.555 131.997 108.741C132.221 108.894 132.507 109.065 132.863 109.264C132.967 109.604 133.228 109.945 133.538 110.108C133.846 110.271 134.107 110.204 134.209 109.972C134.705 110.218 135.062 110.373 135.317 110.441C135.463 110.479 135.583 110.495 135.688 110.462C135.794 110.434 135.87 110.318 135.865 110.175C135.864 110.019 135.808 109.872 135.745 109.725ZM135.012 109.786C134.831 109.72 134.58 109.607 134.257 109.448V109.446L133.989 109.315L133.985 109.313C133.85 109.247 133.701 109.168 133.538 109.083C133.371 108.995 133.221 108.915 133.087 108.839L133.084 108.838L132.816 108.686V108.689C132.371 108.439 132.059 108.24 131.884 108.1C131.807 108.04 131.766 107.998 131.742 107.972C131.75 107.955 131.764 107.932 131.787 107.906C131.828 107.857 131.893 107.8 131.973 107.737L131.972 107.738C132.136 107.609 132.242 107.399 132.344 107.176C132.494 106.84 132.631 106.462 132.819 106.243C132.913 106.132 133.016 106.063 133.129 106.041C133.243 106.021 133.366 106.04 133.539 106.13C133.765 106.252 133.909 106.404 134.053 106.623C134.266 106.95 134.433 107.437 134.58 107.934C134.732 108.435 134.858 108.936 135.102 109.388L135.1 109.386C135.185 109.543 135.255 109.676 135.296 109.771L135.333 109.868C135.287 109.866 135.18 109.85 135.012 109.786Z" fill="#8A939A"/>
<path d="M100.124 88.3028V90.4847L99.89 90.3615V88.1797L100.124 88.3028ZM100.785 89.8486V90.833L100.562 90.7158V89.0794L100.777 89.1927V89.4484L100.796 89.4583C100.83 89.3931 100.881 89.3535 100.95 89.3395C101.02 89.3248 101.109 89.3462 101.218 89.4038C101.316 89.4555 101.402 89.5234 101.475 89.6076C101.549 89.6911 101.606 89.7894 101.647 89.9026C101.688 90.015 101.708 90.1408 101.708 90.28V91.3198L101.486 91.2026V90.1799C101.486 90.0513 101.456 89.9356 101.397 89.8327C101.338 89.7292 101.257 89.6502 101.154 89.5959C101.083 89.5585 101.02 89.5424 100.964 89.5478C100.908 89.5534 100.865 89.5812 100.833 89.6311C100.801 89.6809 100.785 89.7535 100.785 89.8486ZM103.14 90.8046L102.94 90.7632C102.928 90.7189 102.909 90.6726 102.885 90.6242C102.861 90.5754 102.828 90.5283 102.787 90.483C102.745 90.4377 102.692 90.398 102.627 90.3639C102.539 90.3172 102.465 90.3014 102.406 90.3164C102.347 90.3311 102.318 90.3736 102.318 90.4439C102.318 90.5064 102.338 90.5663 102.378 90.6238C102.419 90.6812 102.482 90.7445 102.567 90.8137L102.782 90.9866C102.911 91.0903 103.008 91.1955 103.071 91.3021C103.135 91.408 103.166 91.5181 103.166 91.6324C103.166 91.7262 103.143 91.7974 103.095 91.8461C103.048 91.8951 102.982 91.9186 102.897 91.9165C102.812 91.9144 102.713 91.8837 102.601 91.8244C102.453 91.7466 102.331 91.646 102.234 91.5225C102.138 91.3991 102.076 91.261 102.051 91.1082L102.262 91.1598C102.282 91.2585 102.32 91.3446 102.376 91.4181C102.432 91.4919 102.506 91.5528 102.597 91.6009C102.701 91.6555 102.783 91.674 102.844 91.6564C102.906 91.6385 102.936 91.5943 102.936 91.524C102.936 91.4672 102.919 91.4103 102.884 91.3534C102.848 91.2958 102.794 91.2382 102.722 91.1806L102.48 90.9896C102.348 90.8842 102.25 90.7778 102.188 90.6704C102.127 90.5627 102.096 90.4524 102.096 90.3394C102.096 90.2471 102.119 90.1775 102.165 90.1307C102.211 90.0842 102.274 90.0617 102.354 90.0633C102.434 90.0652 102.526 90.0929 102.627 90.1466C102.771 90.2221 102.883 90.3169 102.965 90.431C103.047 90.5454 103.105 90.6699 103.14 90.8046ZM103.501 92.8785V90.6285L103.716 90.7418V91.0017L103.742 91.0156C103.759 90.9958 103.781 90.9715 103.81 90.9427C103.84 90.9135 103.882 90.8959 103.937 90.89C103.992 90.8836 104.067 90.9052 104.161 90.9549C104.283 91.0192 104.39 91.1102 104.483 91.2281C104.576 91.346 104.649 91.4819 104.701 91.6359C104.753 91.7898 104.779 91.9527 104.779 92.1245C104.779 92.2978 104.753 92.4343 104.701 92.5339C104.649 92.6329 104.577 92.6928 104.484 92.7137C104.392 92.7339 104.285 92.7122 104.165 92.6487C104.072 92.5997 103.997 92.543 103.941 92.4787C103.885 92.4138 103.842 92.3509 103.812 92.2903C103.782 92.2289 103.759 92.1791 103.742 92.1406L103.724 92.1307V92.9957L103.501 92.8785ZM103.72 91.5619C103.72 91.6855 103.736 91.803 103.768 91.9143C103.8 92.025 103.847 92.1231 103.908 92.2089C103.97 92.2939 104.045 92.3599 104.135 92.4069C104.227 92.4559 104.305 92.4691 104.367 92.4465C104.43 92.4235 104.477 92.3731 104.509 92.2952C104.541 92.2169 104.557 92.1195 104.557 92.003C104.557 91.888 104.541 91.776 104.51 91.6671C104.479 91.5579 104.432 91.4597 104.369 91.3726C104.307 91.2851 104.229 91.2165 104.135 91.1669C104.044 91.1192 103.968 91.105 103.906 91.1244C103.845 91.1431 103.798 91.1903 103.767 91.2661C103.736 91.3412 103.72 91.4398 103.72 91.5619ZM105.725 93.4713C105.586 93.3978 105.466 93.2995 105.364 93.1766C105.264 93.0533 105.186 92.9144 105.132 92.7599C105.078 92.605 105.051 92.4437 105.051 92.2761C105.051 92.1085 105.078 91.975 105.132 91.8757C105.186 91.7759 105.262 91.7158 105.36 91.6954C105.458 91.6747 105.572 91.6987 105.703 91.7676C105.778 91.8073 105.853 91.8608 105.926 91.9279C106 91.9951 106.067 92.0765 106.127 92.1722C106.187 92.2672 106.235 92.3764 106.271 92.4997C106.307 92.6229 106.325 92.7609 106.325 92.9136V93.0202L105.209 92.432V92.2147L106.099 92.6836C106.099 92.5913 106.082 92.5003 106.05 92.4106C106.018 92.3213 105.972 92.2399 105.912 92.1666C105.853 92.0935 105.783 92.0358 105.703 91.9934C105.614 91.9467 105.537 91.9312 105.473 91.9468C105.409 91.962 105.359 92 105.325 92.0606C105.29 92.1212 105.273 92.1966 105.273 92.2868V92.4317C105.273 92.5553 105.292 92.67 105.33 92.7758C105.368 92.8812 105.421 92.9742 105.489 93.0547C105.557 93.1345 105.635 93.1981 105.725 93.2454C105.784 93.2762 105.837 93.2948 105.884 93.3012C105.931 93.3072 105.973 93.3004 106.007 93.281C106.042 93.2609 106.068 93.2274 106.087 93.1805L106.302 93.3619C106.28 93.4324 106.241 93.4848 106.188 93.5191C106.135 93.5528 106.069 93.5663 105.99 93.5597C105.912 93.5524 105.823 93.5229 105.725 93.4713ZM107.251 94.2755C107.115 94.204 106.999 94.1061 106.901 93.982C106.803 93.8579 106.727 93.7184 106.674 93.5635C106.622 93.4085 106.595 93.2494 106.595 93.086C106.595 92.9198 106.622 92.7874 106.676 92.6887C106.731 92.5897 106.807 92.53 106.904 92.5096C107.002 92.4888 107.117 92.5129 107.247 92.5817C107.349 92.6354 107.441 92.7051 107.523 92.7907C107.604 92.8764 107.671 92.9713 107.723 93.0755C107.775 93.1797 107.808 93.2862 107.82 93.3951L107.598 93.2779C107.581 93.1944 107.543 93.1085 107.485 93.0201C107.427 92.9314 107.349 92.8612 107.251 92.8096C107.164 92.7639 107.088 92.7494 107.023 92.7661C106.958 92.7824 106.908 92.8271 106.871 92.9002C106.836 92.973 106.818 93.0711 106.818 93.1947C106.818 93.3211 106.835 93.4405 106.87 93.5528C106.906 93.6654 106.956 93.7647 107.021 93.8507C107.087 93.937 107.163 94.0033 107.251 94.0496C107.309 94.0801 107.361 94.0964 107.409 94.0985C107.456 94.1006 107.496 94.089 107.528 94.0636C107.561 94.0382 107.584 93.9993 107.598 93.9469L107.82 94.0642C107.808 94.1541 107.777 94.2247 107.727 94.276C107.678 94.3269 107.613 94.3537 107.532 94.3564C107.452 94.3588 107.358 94.3318 107.251 94.2755ZM108.775 93.4083V93.6213L108.025 93.2259V93.0129L108.775 93.4083ZM108.244 92.7361L108.466 92.8533V94.413C108.466 94.484 108.475 94.542 108.493 94.5872C108.512 94.6319 108.536 94.6679 108.565 94.6952C108.594 94.7222 108.626 94.7442 108.658 94.7615C108.683 94.7744 108.703 94.7835 108.719 94.789C108.734 94.7937 108.747 94.7975 108.756 94.8003L108.801 95.05C108.786 95.0485 108.765 95.0438 108.738 95.0359C108.711 95.0288 108.677 95.0143 108.636 94.9924C108.573 94.9593 108.511 94.9116 108.451 94.8493C108.391 94.7873 108.342 94.7146 108.302 94.6312C108.263 94.5482 108.244 94.4591 108.244 94.3639V92.7361Z" fill="#8A939A"/>
<path d="M96.0312 81.6797V95.1287H96.3327V81.6797" fill="#8A939A"/>
<path d="M136.993 141.889L81.9468 112.872C80.6505 112.189 79.5996 110.356 79.5996 108.778V94.7638C79.5996 93.1861 80.6505 92.4606 81.9468 93.1438L136.993 122.161C138.289 122.844 139.34 124.677 139.34 126.255V140.269C139.34 141.848 138.289 142.573 136.993 141.889Z" fill="url(#paint14_linear_6379_2274)"/>
<path d="M83.0361 108.105L82.8564 108.063L83.3761 106.731L83.553 106.773L84.0727 108.351L83.893 108.308L83.4701 106.984L83.459 106.981L83.0361 108.105ZM83.1024 107.553L83.8267 107.724V107.881L83.1024 107.709V107.553ZM84.2931 106.949L84.4977 106.997L84.9787 108.319L84.9953 108.322L85.4763 107.229L85.6808 107.278V108.732L85.5205 108.694V107.589L85.5067 107.586L85.0644 108.586L84.9096 108.549L84.4673 107.339L84.4535 107.336V108.441L84.2931 108.403V106.949Z" fill="#8A939A"/>
<path d="M135.745 131.928C135.68 131.781 135.6 131.628 135.51 131.463L135.508 131.46C135.411 131.284 135.312 131.009 135.217 130.697C135.073 130.227 134.933 129.678 134.698 129.148C134.58 128.884 134.434 128.619 134.241 128.378C134.049 128.136 133.808 127.924 133.538 127.783C133.175 127.588 132.869 127.583 132.652 127.695C132.325 127.861 132.154 128.236 131.999 128.586C131.851 128.938 131.712 129.272 131.563 129.38L131.562 129.381C131.472 129.452 131.392 129.52 131.327 129.599C131.265 129.679 131.209 129.767 131.207 129.922C131.202 130.059 131.278 130.255 131.384 130.396C131.542 130.609 131.731 130.759 131.997 130.944C132.221 131.097 132.507 131.268 132.863 131.467C132.967 131.806 133.228 132.147 133.538 132.311C133.846 132.474 134.107 132.407 134.209 132.175C134.705 132.422 135.062 132.576 135.317 132.645C135.463 132.682 135.583 132.698 135.688 132.665C135.794 132.637 135.87 132.521 135.865 132.378C135.864 132.222 135.808 132.075 135.745 131.928ZM135.012 131.989C134.831 131.923 134.58 131.811 134.257 131.652V131.649L133.989 131.518L133.985 131.517C133.85 131.451 133.701 131.372 133.538 131.286C133.371 131.198 133.221 131.119 133.087 131.043L133.084 131.042L132.816 130.89V130.892C132.371 130.642 132.059 130.444 131.884 130.304C131.807 130.244 131.766 130.202 131.742 130.176C131.75 130.159 131.764 130.135 131.787 130.11C131.828 130.061 131.893 130.003 131.973 129.941L131.972 129.942C132.136 129.813 132.242 129.604 132.344 129.38C132.494 129.044 132.631 128.666 132.819 128.447C132.913 128.336 133.016 128.267 133.129 128.246C133.243 128.225 133.366 128.244 133.539 128.334C133.765 128.456 133.909 128.608 134.053 128.827C134.266 129.154 134.433 129.641 134.58 130.139C134.732 130.64 134.858 131.141 135.102 131.593L135.1 131.59C135.185 131.747 135.255 131.88 135.296 131.975L135.333 132.072C135.287 132.069 135.18 132.053 135.012 131.989Z" fill="#8A939A"/>
<path d="M99.89 112.565V110.383L100.124 110.506V112.453L101.021 112.926V113.161L99.89 112.565ZM102.265 113.147V112.18L102.487 112.297V113.934L102.265 113.816V113.539L102.25 113.531C102.216 113.597 102.163 113.64 102.092 113.66C102.02 113.68 101.929 113.661 101.82 113.603C101.73 113.556 101.649 113.491 101.579 113.409C101.508 113.326 101.453 113.229 101.413 113.117C101.373 113.004 101.353 112.878 101.353 112.739V111.699L101.575 111.816V112.839C101.575 112.958 101.605 113.069 101.664 113.171C101.723 113.274 101.799 113.349 101.892 113.398C101.947 113.427 102.003 113.441 102.06 113.439C102.118 113.438 102.167 113.414 102.206 113.369C102.245 113.323 102.265 113.25 102.265 113.147ZM103.117 113.281V114.266L102.895 114.148V112.512L103.11 112.625V112.881L103.128 112.891C103.162 112.826 103.214 112.786 103.283 112.772C103.352 112.757 103.441 112.779 103.551 112.836C103.649 112.888 103.734 112.956 103.808 113.04C103.881 113.124 103.939 113.222 103.979 113.335C104.02 113.448 104.041 113.573 104.041 113.713V114.752L103.818 114.635V113.612C103.818 113.484 103.789 113.368 103.73 113.265C103.671 113.162 103.59 113.083 103.487 113.028C103.416 112.991 103.352 112.975 103.296 112.98C103.241 112.986 103.197 113.014 103.165 113.064C103.133 113.114 103.117 113.186 103.117 113.281ZM105.035 115.311C104.9 115.239 104.783 115.141 104.685 115.017C104.587 114.893 104.511 114.754 104.458 114.599C104.406 114.444 104.379 114.285 104.379 114.121C104.379 113.955 104.406 113.823 104.46 113.724C104.515 113.625 104.591 113.565 104.688 113.545C104.786 113.524 104.901 113.548 105.031 113.617C105.133 113.671 105.225 113.74 105.307 113.826C105.388 113.912 105.455 114.006 105.507 114.111C105.56 114.215 105.592 114.321 105.604 114.43L105.382 114.313C105.365 114.23 105.327 114.144 105.269 114.055C105.211 113.967 105.133 113.896 105.035 113.845C104.949 113.799 104.873 113.785 104.807 113.801C104.742 113.818 104.692 113.862 104.655 113.935C104.62 114.008 104.602 114.106 104.602 114.23C104.602 114.356 104.619 114.476 104.654 114.588C104.69 114.701 104.741 114.8 104.805 114.886C104.871 114.972 104.947 115.038 105.035 115.085C105.093 115.115 105.146 115.132 105.193 115.134C105.24 115.136 105.28 115.124 105.312 115.099C105.345 115.073 105.368 115.034 105.382 114.982L105.604 115.099C105.592 115.189 105.561 115.26 105.511 115.311C105.462 115.362 105.397 115.389 105.316 115.392C105.236 115.394 105.142 115.367 105.035 115.311ZM106.152 114.881V115.865L105.93 115.748V113.566L106.152 113.683V114.485L106.171 114.494C106.205 114.428 106.256 114.388 106.324 114.374C106.392 114.359 106.483 114.382 106.597 114.442C106.696 114.494 106.782 114.562 106.856 114.646C106.93 114.729 106.988 114.827 107.029 114.94C107.07 115.053 107.091 115.18 107.091 115.32V116.36L106.868 116.243V115.22C106.868 115.09 106.838 114.974 106.779 114.871C106.72 114.768 106.638 114.689 106.533 114.634C106.46 114.596 106.395 114.579 106.337 114.583C106.28 114.588 106.234 114.615 106.201 114.664C106.168 114.713 106.152 114.786 106.152 114.881Z" fill="#8A939A"/>
<path d="M96.0312 103.883V117.332H96.3327V103.883" fill="#8A939A"/>
<path d="M144.237 106.716L62.8598 63.8184C60.9437 62.8083 59.3906 60.0982 59.3906 57.7658V37.0482C59.3906 34.7158 60.9437 33.6434 62.8598 34.6536L144.237 77.5509C146.154 78.561 147.707 81.2705 147.707 83.6035V104.321C147.707 106.654 146.154 107.726 144.237 106.716Z" fill="url(#paint15_linear_6379_2274)"/>
<path d="M65.8778 48.5428V52.9064L65.4104 52.66V48.8504L65.3877 48.8384L64.4453 49.0491V48.5121L65.4104 48.2964L65.8778 48.5428ZM68.2471 54.2149C67.9631 54.0652 67.7212 53.8503 67.5214 53.5703C67.3216 53.2889 67.169 52.9534 67.0634 52.564C66.9578 52.1731 66.9051 51.7405 66.9051 51.266C66.9051 50.7944 66.9578 50.4196 67.0634 50.1414C67.1702 49.8625 67.3235 49.6876 67.5233 49.6167C67.7244 49.5452 67.9656 49.5836 68.2471 49.7319C68.5286 49.8803 68.7692 50.0959 68.969 50.3788C69.1701 50.6609 69.3234 50.9973 69.4289 51.3882C69.5357 51.7783 69.5891 52.2092 69.5891 52.6808C69.5891 53.1552 69.5364 53.5322 69.4308 53.8118C69.3253 54.09 69.1726 54.2645 68.9728 54.3353C68.773 54.4047 68.5311 54.3646 68.2471 54.2149ZM68.2471 53.7461C68.5286 53.8945 68.7472 53.8563 68.903 53.6316C69.0589 53.4069 69.1368 53.0105 69.1368 52.4423C69.1368 52.0645 69.101 51.7239 69.0293 51.4205C68.959 51.1178 68.8572 50.8617 68.724 50.6523C68.592 50.4435 68.4331 50.2902 68.2471 50.1921C67.9681 50.0451 67.7501 50.0857 67.5931 50.314C67.436 50.5409 67.3574 50.9377 67.3574 51.5045C67.3574 51.8823 67.3926 52.2219 67.463 52.5232C67.5334 52.8245 67.6345 53.0788 67.7665 53.2861C67.8997 53.4941 68.0599 53.6474 68.2471 53.7461ZM70.5024 55.378C70.4094 55.329 70.3296 55.2493 70.263 55.1389C70.1964 55.0285 70.1631 54.9208 70.1631 54.8157C70.1631 54.7105 70.1964 54.6379 70.263 54.5977C70.3296 54.5575 70.4094 54.5619 70.5024 54.611C70.5954 54.66 70.6752 54.7397 70.7418 54.8501C70.8084 54.9604 70.8417 55.0682 70.8417 55.1733C70.8417 55.2429 70.8259 55.2986 70.7945 55.3402C70.7644 55.3826 70.7235 55.4079 70.672 55.4163C70.6217 55.4239 70.5652 55.4111 70.5024 55.378ZM72.7567 56.5918C72.4727 56.4421 72.2308 56.2272 72.031 55.9472C71.8312 55.6658 71.6785 55.3303 71.573 54.9409C71.4674 54.55 71.4147 54.1174 71.4147 53.6429C71.4147 53.1714 71.4674 52.7965 71.573 52.5183C71.6798 52.2394 71.8331 52.0645 72.0329 51.9937C72.234 51.9221 72.4752 51.9605 72.7567 52.1088C73.0382 52.2572 73.2788 52.4728 73.4786 52.7557C73.6797 53.0378 73.833 53.3743 73.9385 53.7651C74.0453 54.1552 74.0987 54.5861 74.0987 55.0577C74.0987 55.5321 74.046 55.9091 73.9404 56.1887C73.8348 56.4669 73.6822 56.6414 73.4824 56.7122C73.2826 56.7816 73.0407 56.7415 72.7567 56.5918ZM72.7567 56.123C73.0382 56.2714 73.2568 56.2332 73.4126 56.0085C73.5685 55.7838 73.6464 55.3874 73.6464 54.8192C73.6464 54.4414 73.6105 54.1008 73.5389 53.7974C73.4686 53.4947 73.3668 53.2386 73.2336 53.0292C73.1016 52.8205 72.9427 52.6671 72.7567 52.5691C72.4777 52.422 72.2597 52.4626 72.1026 52.6909C71.9456 52.9178 71.867 53.3146 71.867 53.8814C71.867 54.2592 71.9022 54.5988 71.9726 54.9001C72.043 55.2014 72.1441 55.4557 72.276 55.663C72.4092 55.871 72.5695 56.0243 72.7567 56.123ZM76.0741 58.3403C75.7901 58.1906 75.5482 57.9758 75.3484 57.6957C75.1486 57.4143 74.9959 57.0789 74.8904 56.6894C74.7848 56.2986 74.7321 55.8659 74.7321 55.3915C74.7321 54.9199 74.7848 54.545 74.8904 54.2668C74.9972 53.9879 75.1505 53.813 75.3503 53.7422C75.5514 53.6706 75.7926 53.709 76.0741 53.8574C76.3556 54.0057 76.5962 54.2213 76.796 54.5042C76.9971 54.7863 77.1504 55.1228 77.2559 55.5137C77.3627 55.9038 77.4161 56.3346 77.4161 56.8062C77.4161 57.2806 77.3634 57.6576 77.2578 57.9372C77.1522 58.2154 76.9996 58.3899 76.7998 58.4607C76.6 58.5301 76.3581 58.49 76.0741 58.3403ZM76.0741 57.8716C76.3556 58.0199 76.5742 57.9818 76.73 57.7571C76.8859 57.5324 76.9638 57.1359 76.9638 56.5678C76.9638 56.1899 76.9279 55.8493 76.8563 55.5459C76.786 55.2432 76.6842 54.9872 76.551 54.7777C76.419 54.569 76.2601 54.4156 76.0741 54.3176C75.7951 54.1706 75.5771 54.2112 75.42 54.4395C75.263 54.6663 75.1844 55.0632 75.1844 55.6299C75.1844 56.0078 75.2196 56.3473 75.29 56.6486C75.3603 56.9499 75.4615 57.2042 75.5934 57.4115C75.7266 57.6195 75.8869 57.7729 76.0741 57.8716Z" fill="#8A939A"/>
<path d="M82.4995 100.078V102.26L82.2657 102.137V100.232L82.2544 100.226L81.7832 100.331V100.063L82.2657 99.9548L82.4995 100.078ZM83.6841 102.914C83.5421 102.839 83.4212 102.732 83.3213 102.592C83.2214 102.451 83.145 102.283 83.0922 102.089C83.0395 101.893 83.0131 101.677 83.0131 101.44C83.0131 101.204 83.0395 101.016 83.0922 100.877C83.1457 100.738 83.2223 100.65 83.3222 100.615C83.4227 100.579 83.5434 100.598 83.6841 100.673C83.8248 100.747 83.9452 100.855 84.0451 100.996C84.1456 101.137 84.2222 101.305 84.275 101.501C84.3284 101.696 84.3551 101.911 84.3551 102.147C84.3551 102.384 84.3287 102.573 84.276 102.713C84.2232 102.852 84.1468 102.939 84.0469 102.974C83.947 103.009 83.8261 102.989 83.6841 102.914ZM83.6841 102.68C83.8248 102.754 83.9342 102.735 84.0121 102.622C84.09 102.51 84.1289 102.312 84.1289 102.028C84.1289 101.839 84.111 101.669 84.0752 101.517C84.04 101.366 83.9891 101.237 83.9225 101.133C83.8566 101.028 83.7771 100.952 83.6841 100.903C83.5446 100.829 83.4356 100.85 83.3571 100.964C83.2785 101.077 83.2393 101.275 83.2393 101.559C83.2393 101.748 83.2569 101.918 83.292 102.068C83.3272 102.219 83.3778 102.346 83.4438 102.45C83.5104 102.554 83.5905 102.63 83.6841 102.68ZM84.8117 103.496C84.7652 103.471 84.7253 103.431 84.692 103.376C84.6587 103.321 84.6421 103.267 84.6421 103.214C84.6421 103.162 84.6587 103.126 84.692 103.105C84.7253 103.085 84.7652 103.088 84.8117 103.112C84.8582 103.137 84.8981 103.176 84.9314 103.232C84.9647 103.287 84.9814 103.341 84.9814 103.393C84.9814 103.428 84.9735 103.456 84.9578 103.477C84.9427 103.498 84.9223 103.511 84.8966 103.515C84.8714 103.519 84.8431 103.512 84.8117 103.496ZM85.9389 104.103C85.7969 104.028 85.676 103.92 85.5761 103.78C85.4762 103.64 85.3998 103.472 85.347 103.277C85.2943 103.082 85.2679 102.865 85.2679 102.628C85.2679 102.392 85.2943 102.205 85.347 102.066C85.4004 101.926 85.4771 101.839 85.577 101.803C85.6775 101.768 85.7982 101.787 85.9389 101.861C86.0796 101.935 86.2 102.043 86.2998 102.184C86.4004 102.326 86.477 102.494 86.5298 102.689C86.5832 102.884 86.6099 103.1 86.6099 103.335C86.6099 103.573 86.5835 103.761 86.5307 103.901C86.478 104.04 86.4016 104.127 86.3017 104.163C86.2018 104.197 86.0809 104.177 85.9389 104.103ZM85.9389 103.868C86.0796 103.942 86.189 103.923 86.2669 103.811C86.3448 103.699 86.3837 103.5 86.3837 103.216C86.3837 103.027 86.3658 102.857 86.33 102.705C86.2948 102.554 86.2439 102.426 86.1773 102.321C86.1114 102.217 86.0319 102.14 85.9389 102.091C85.7994 102.018 85.6904 102.038 85.6119 102.152C85.5333 102.266 85.4941 102.464 85.4941 102.747C85.4941 102.936 85.5117 103.106 85.5468 103.257C85.582 103.407 85.6326 103.534 85.6986 103.638C85.7652 103.742 85.8453 103.819 85.9389 103.868ZM87.5976 104.977C87.4556 104.902 87.3347 104.795 87.2348 104.655C87.1349 104.514 87.0585 104.346 87.0057 104.151C86.953 103.956 86.9266 103.74 86.9266 103.502C86.9266 103.267 86.953 103.079 87.0057 102.94C87.0591 102.801 87.1358 102.713 87.2357 102.678C87.3362 102.642 87.4569 102.661 87.5976 102.735C87.7383 102.81 87.8587 102.917 87.9585 103.059C88.0591 103.2 88.1357 103.368 88.1885 103.563C88.2419 103.759 88.2686 103.974 88.2686 104.21C88.2686 104.447 88.2422 104.635 88.1894 104.775C88.1367 104.914 88.0603 105.002 87.9604 105.037C87.8605 105.072 87.7396 105.052 87.5976 104.977ZM87.5976 104.742C87.7383 104.817 87.8477 104.798 87.9256 104.685C88.0035 104.573 88.0424 104.375 88.0424 104.091C88.0424 103.902 88.0245 103.731 87.9887 103.58C87.9535 103.428 87.9026 103.3 87.836 103.196C87.7701 103.091 87.6906 103.014 87.5976 102.965C87.4581 102.892 87.3491 102.912 87.2706 103.026C87.192 103.14 87.1528 103.338 87.1528 103.622C87.1528 103.811 87.1704 103.98 87.2055 104.131C87.2407 104.282 87.2913 104.409 87.3573 104.512C87.4239 104.616 87.504 104.693 87.5976 104.742Z" fill="#8A939A"/>
<path d="M64.4821 60.273L64.0468 60.132L65.3725 56.904L65.8012 57.0429L66.994 61.0865L66.5586 60.9455L65.5897 57.553L65.5629 57.5443L64.4821 60.273ZM64.6689 58.9048L66.4238 59.4732L66.4167 59.8637L64.6617 59.2954L64.6689 58.9048ZM67.5947 57.6237L68.0903 57.7842L69.2007 61.1797L69.2409 61.1927L70.4616 58.5522L70.9572 58.7127L70.8908 62.3485L70.5023 62.2227L70.5528 59.4603L70.5193 59.4495L69.397 61.8647L69.0219 61.7432L68.0007 58.6338L67.9672 58.623L67.9167 61.3853L67.5282 61.2595L67.5947 57.6237Z" fill="#8A939A"/>
<path d="M64.3548 41.4101L64.6338 41.5572L65.2897 43.714L65.3123 43.7259L65.9683 42.2605L66.2472 42.4076V44.5894L66.0286 44.4742V42.8165L66.0097 42.8066L65.4066 44.1463L65.1955 44.035L64.5923 42.0595L64.5735 42.0495V43.7072L64.3548 43.5919V41.4101ZM67.2738 45.1646C67.1431 45.0957 67.0285 45.0001 66.9298 44.8778C66.8318 44.7558 66.7551 44.617 66.6999 44.4615C66.6452 44.3063 66.6179 44.1441 66.6179 43.9751C66.6179 43.8046 66.6452 43.6702 66.6999 43.5719C66.7551 43.4739 66.8318 43.4156 66.9298 43.397C67.0285 43.3786 67.1431 43.4039 67.2738 43.4728C67.4045 43.5417 67.5188 43.6371 67.6168 43.7591C67.7155 43.8814 67.7921 44.0205 67.8468 44.1765C67.9021 44.3327 67.9297 44.4961 67.9297 44.6666C67.9297 44.8356 67.9021 44.9687 67.8468 45.066C67.7921 45.1636 67.7155 45.2216 67.6168 45.2399C67.5188 45.2586 67.4045 45.2335 67.2738 45.1646ZM67.2738 44.9387C67.3731 44.991 67.4547 45.0053 67.5188 44.9816C67.5829 44.9578 67.6304 44.9072 67.6611 44.8297C67.6919 44.7521 67.7073 44.6587 67.7073 44.5493C67.7073 44.4399 67.6919 44.3299 67.6611 44.2192C67.6304 44.1085 67.5829 44.0072 67.5188 43.9152C67.4547 43.8232 67.3731 43.751 67.2738 43.6987C67.1745 43.6463 67.0929 43.6324 67.0288 43.6569C66.9647 43.6813 66.9172 43.7327 66.8865 43.8109C66.8557 43.8891 66.8403 43.9829 66.8403 44.0923C66.8403 44.2017 66.8557 44.3114 66.8865 44.4213C66.9172 44.5313 66.9647 44.632 67.0288 44.7233C67.0929 44.8146 67.1745 44.8864 67.2738 44.9387ZM68.4917 44.788V45.7724L68.2693 45.6552V44.0188L68.4841 44.1321V44.3877L68.503 44.3977C68.5369 44.3325 68.5884 44.2929 68.6575 44.2789C68.7267 44.2641 68.8159 44.2856 68.9252 44.3432C69.0232 44.3949 69.109 44.4628 69.1825 44.547C69.256 44.6305 69.3132 44.7288 69.354 44.842C69.3948 44.9544 69.4153 45.0802 69.4153 45.2194V46.2592L69.1928 46.142V45.1192C69.1928 44.9907 69.1633 44.875 69.1043 44.7721C69.0452 44.6686 68.9641 44.5896 68.8611 44.5353C68.7901 44.4979 68.7267 44.4818 68.6707 44.4872C68.6154 44.4928 68.5718 44.5206 68.5397 44.5705C68.5077 44.6203 68.4917 44.6928 68.4917 44.788ZM70.3683 46.7956C70.2477 46.732 70.1412 46.6415 70.0488 46.5239C69.9565 46.4056 69.8842 46.2695 69.8321 46.1156C69.7799 45.961 69.7538 45.797 69.7538 45.6237C69.7538 45.4519 69.7799 45.3165 69.8321 45.2175C69.8842 45.1186 69.9568 45.0592 70.0498 45.0393C70.1428 45.0194 70.2502 45.0416 70.3721 45.1058C70.4663 45.1555 70.5408 45.2125 70.5954 45.2768C70.6507 45.3408 70.6928 45.4027 70.7217 45.4627C70.7513 45.5223 70.7742 45.5706 70.7905 45.6077L70.8094 45.6176V44.8122L71.0318 44.9294V47.1112L70.8169 46.998V46.7466L70.7905 46.7327C70.7742 46.7539 70.7509 46.7793 70.7208 46.8088C70.6906 46.8377 70.6476 46.8551 70.5917 46.8611C70.5358 46.8665 70.4613 46.8446 70.3683 46.7956ZM70.3985 46.5857C70.4877 46.6327 70.5631 46.6462 70.6247 46.6261C70.6862 46.6052 70.733 46.5564 70.7651 46.4795C70.7971 46.402 70.8131 46.3014 70.8131 46.1778C70.8131 46.0557 70.7974 45.9405 70.766 45.8323C70.7346 45.7234 70.6881 45.6272 70.6265 45.5436C70.565 45.4593 70.4889 45.3933 70.3985 45.3456C70.3042 45.2959 70.2257 45.2819 70.1629 45.3035C70.1007 45.3246 70.0538 45.3735 70.0224 45.45C69.9916 45.5261 69.9763 45.6216 69.9763 45.7367C69.9763 45.8532 69.992 45.9673 70.0234 46.079C70.0554 46.1904 70.1025 46.2905 70.1647 46.3794C70.2276 46.4679 70.3055 46.5367 70.3985 46.5857ZM71.896 47.6051C71.8043 47.5568 71.721 47.4933 71.6463 47.4149C71.5715 47.3357 71.5121 47.2472 71.4681 47.1495C71.4242 47.051 71.4022 46.9485 71.4022 46.842C71.4022 46.7482 71.4185 46.6808 71.4512 46.6398C71.4838 46.5981 71.5275 46.5749 71.5822 46.5704C71.6368 46.5658 71.6972 46.5727 71.7631 46.5912C71.8297 46.6092 71.8966 46.631 71.9639 46.6565C72.0518 46.6901 72.1231 46.7181 72.1778 46.7405C72.2331 46.7625 72.2733 46.772 72.2984 46.7689C72.3242 46.7662 72.3371 46.7445 72.3371 46.7041V46.6955C72.3371 46.5904 72.3116 46.4953 72.2607 46.4103C72.2105 46.3255 72.1341 46.2562 72.0317 46.2022C71.9255 46.1462 71.8423 46.1286 71.782 46.1494C71.7217 46.1702 71.6792 46.2039 71.6547 46.2507L71.4436 46.0542C71.4813 45.9746 71.5316 45.9237 71.5944 45.9014C71.6579 45.8787 71.727 45.8761 71.8018 45.8935C71.8772 45.9105 71.9513 45.9382 72.0242 45.9766C72.0707 46.0011 72.1241 46.0357 72.1844 46.0803C72.2453 46.1245 72.3041 46.1806 72.3606 46.2488C72.4178 46.3173 72.4652 46.4002 72.5029 46.4975C72.5406 46.5947 72.5595 46.7084 72.5595 46.8383V47.9165L72.3371 47.7992V47.5776L72.3258 47.5717C72.3107 47.5992 72.2856 47.624 72.2504 47.6459C72.2152 47.6679 72.1684 47.6776 72.1099 47.6753C72.0515 47.6729 71.9802 47.6495 71.896 47.6051ZM71.9299 47.3971C72.0179 47.4435 72.092 47.463 72.1524 47.4558C72.2133 47.4488 72.2592 47.4226 72.29 47.377C72.3214 47.3318 72.3371 47.2751 72.3371 47.2069V46.9768C72.3276 46.9846 72.3069 46.9854 72.2749 46.9792C72.2435 46.9725 72.207 46.9622 72.1655 46.9482C72.1247 46.9337 72.0848 46.9191 72.0459 46.9043C72.0075 46.889 71.9764 46.8769 71.9526 46.8679C71.8948 46.8459 71.8407 46.8313 71.7905 46.824C71.7408 46.8163 71.7006 46.8231 71.6698 46.8446C71.6397 46.8656 71.6246 46.9081 71.6246 46.972C71.6246 47.0593 71.6532 47.1405 71.7103 47.2153C71.7682 47.2898 71.8413 47.3504 71.9299 47.3971ZM73.0569 48.7923C73.0192 48.7724 72.9856 48.7511 72.956 48.7284C72.9265 48.7065 72.9061 48.6893 72.8948 48.677L72.9513 48.4852C73.0053 48.5293 73.0531 48.5602 73.0946 48.5777C73.136 48.5953 73.1728 48.5938 73.2048 48.573C73.2375 48.5533 73.2673 48.509 73.2944 48.4402L73.3358 48.3342L72.8005 46.4071L73.0418 46.5343L73.4414 48.0489L73.4565 48.0568L73.8561 46.9635L74.0973 47.0907L73.4828 48.6418C73.4552 48.7117 73.421 48.7636 73.3801 48.7975C73.3393 48.8321 73.2918 48.8486 73.2378 48.8471C73.1844 48.846 73.1241 48.8277 73.0569 48.7923Z" fill="#8A939A"/>
<path d="M139.47 89.7421C139.413 89.5978 139.34 89.448 139.26 89.285L139.259 89.2828C139.171 89.11 139.083 88.8399 138.998 88.5341C138.868 88.073 138.743 87.5336 138.533 87.0144C138.427 86.7546 138.297 86.4955 138.123 86.258C137.951 86.0209 137.735 85.8126 137.493 85.6741C137.169 85.4838 136.894 85.4779 136.7 85.5875C136.406 85.7512 136.253 86.1188 136.115 86.4623C135.981 86.8083 135.858 87.1357 135.723 87.2421L135.722 87.2428C135.642 87.3126 135.57 87.3794 135.512 87.4569C135.456 87.5355 135.407 87.6224 135.404 87.7741C135.4 87.9093 135.468 88.1015 135.563 88.2392C135.705 88.4486 135.874 88.5955 136.113 88.7771C136.313 88.9273 136.569 89.0954 136.889 89.2905C136.981 89.6234 137.216 89.9584 137.493 90.1192C137.769 90.2785 138.003 90.2127 138.094 89.9855C138.539 90.2274 138.859 90.3794 139.088 90.4462C139.219 90.4831 139.326 90.4985 139.42 90.4663C139.515 90.4386 139.583 90.3246 139.579 90.1846C139.577 90.03 139.527 89.8857 139.47 89.7421ZM138.814 89.8013C138.652 89.7366 138.427 89.6263 138.137 89.4703V89.4673L137.897 89.3387L137.894 89.3369C137.773 89.2722 137.639 89.1947 137.493 89.1111C137.344 89.0245 137.209 88.947 137.089 88.8725L137.086 88.8706H137.086L136.846 88.7223V88.7241C136.448 88.4786 136.168 88.2842 136.01 88.1468C135.941 88.0876 135.904 88.047 135.883 88.0207C135.89 88.0035 135.903 87.9813 135.923 87.9557C135.961 87.9078 136.019 87.8515 136.09 87.7901L136.089 87.7909C136.236 87.6637 136.331 87.4591 136.423 87.2395C136.557 86.9092 136.68 86.539 136.849 86.3234C136.933 86.2153 137.025 86.1466 137.126 86.1258C137.229 86.1057 137.339 86.1243 137.493 86.2127C137.696 86.3326 137.825 86.4817 137.954 86.6965C138.145 87.0177 138.295 87.4949 138.426 87.9834C138.562 88.4753 138.675 88.9664 138.893 89.41L138.892 89.4078C138.968 89.5616 139.03 89.6928 139.067 89.7856L139.1 89.8806C139.06 89.8799 138.965 89.8645 138.814 89.8013Z" fill="#8A939A"/>
<path d="M92.0074 62.8236L91.6179 62.6183C91.5948 62.4795 91.5545 62.347 91.4969 62.2207C91.4404 62.0951 91.3713 61.9781 91.2896 61.87C91.209 61.7612 91.1194 61.6643 91.021 61.5793C90.9226 61.4942 90.8199 61.4236 90.7131 61.3673C90.5184 61.2646 90.3419 61.2272 90.1838 61.2552C90.0267 61.2837 89.9016 61.3816 89.8084 61.5491C89.7162 61.7172 89.6702 61.9586 89.6702 62.2735C89.6702 62.5884 89.7162 62.8784 89.8084 63.1436C89.9016 63.4093 90.0267 63.6392 90.1838 63.8333C90.3419 64.0279 90.5184 64.1765 90.7131 64.2792C90.8199 64.3355 90.9226 64.373 91.021 64.3918C91.1194 64.4105 91.209 64.4086 91.2896 64.386C91.3713 64.3627 91.4404 64.3181 91.4969 64.252C91.5545 64.1853 91.5948 64.0953 91.6179 63.9819L92.0074 64.1872C91.9781 64.3576 91.9247 64.4958 91.8472 64.6017C91.7697 64.7077 91.6734 64.7818 91.5582 64.824C91.443 64.8651 91.3137 64.8745 91.1702 64.8522C91.0278 64.8304 90.8754 64.7767 90.7131 64.6911C90.4388 64.5465 90.1948 64.3422 89.9812 64.0781C89.7675 63.8139 89.5995 63.5099 89.477 63.166C89.3544 62.8221 89.2932 62.4583 89.2932 62.0748C89.2932 61.6913 89.3544 61.3921 89.477 61.1774C89.5995 60.9626 89.7675 60.8357 89.9812 60.7968C90.1948 60.7579 90.4388 60.8107 90.7131 60.9553C90.8754 61.0409 91.0278 61.1478 91.1702 61.2762C91.3137 61.405 91.443 61.5513 91.5582 61.715C91.6734 61.8775 91.7697 62.0526 91.8472 62.2402C91.9247 62.4267 91.9781 62.6211 92.0074 62.8236ZM93.5668 66.2023C93.349 66.0875 93.1578 65.9282 92.9934 65.7244C92.8301 65.5211 92.7023 65.2898 92.6102 65.0305C92.5191 64.7718 92.4735 64.5016 92.4735 64.2199C92.4735 63.9358 92.5191 63.7118 92.6102 63.5479C92.7023 63.3846 92.8301 63.2874 92.9934 63.2563C93.1578 63.2258 93.349 63.2679 93.5668 63.3827C93.7846 63.4975 93.9752 63.6566 94.1385 63.8599C94.3029 64.0637 94.4307 64.2956 94.5218 64.5555C94.6139 64.8159 94.66 65.0882 94.66 65.3723C94.66 65.654 94.6139 65.876 94.5218 66.0381C94.4307 66.2008 94.3029 66.2974 94.1385 66.3279C93.9752 66.359 93.7846 66.3171 93.5668 66.2023ZM93.5668 65.8259C93.7322 65.9131 93.8683 65.9369 93.9752 65.8973C94.082 65.8578 94.161 65.7734 94.2123 65.6442C94.2636 65.515 94.2893 65.3592 94.2893 65.1769C94.2893 64.9946 94.2636 64.8112 94.2123 64.6268C94.161 64.4423 94.082 64.2734 93.9752 64.12C93.8683 63.9666 93.7322 63.8464 93.5668 63.7592C93.4013 63.6719 93.2652 63.6487 93.1584 63.6895C93.0516 63.7303 92.9725 63.8158 92.9212 63.9462C92.8699 64.0766 92.8442 64.233 92.8442 64.4152C92.8442 64.5975 92.8699 64.7803 92.9212 64.9636C92.9725 65.1469 93.0516 65.3147 93.1584 65.4668C93.2652 65.619 93.4013 65.7387 93.5668 65.8259ZM95.5966 65.5747V67.2154L95.2259 67.02V64.2927L95.584 64.4815V64.9076L95.6154 64.9242C95.6719 64.8155 95.7578 64.7495 95.873 64.7261C95.9882 64.7016 96.1369 64.7374 96.3191 64.8334C96.4824 64.9195 96.6254 65.0327 96.7479 65.1731C96.8704 65.3122 96.9657 65.4761 97.0338 65.6647C97.1018 65.8521 97.1359 66.0618 97.1359 66.2938V68.0267L96.7652 67.8313V66.1268C96.7652 65.9125 96.716 65.7197 96.6175 65.5483C96.5191 65.3756 96.384 65.2441 96.2123 65.1535C96.094 65.0912 95.9882 65.0644 95.895 65.0733C95.8028 65.0827 95.7301 65.129 95.6767 65.2121C95.6233 65.2953 95.5966 65.4161 95.5966 65.5747ZM98.8876 66.2228V66.5779L97.5871 65.8924V65.5373L98.8876 66.2228ZM97.9766 68.4699V65.3662C97.9766 65.2099 98.0091 65.0968 98.074 65.0269C98.1389 64.9569 98.2232 64.9232 98.3269 64.9258C98.4306 64.9283 98.54 64.96 98.6552 65.0207C98.7463 65.0687 98.8206 65.1162 98.8782 65.1631C98.9358 65.21 98.9787 65.2481 99.007 65.2772L98.9002 65.5831C98.8814 65.566 98.8552 65.5434 98.8217 65.5151C98.7892 65.4873 98.7463 65.4593 98.6929 65.4312C98.5704 65.3666 98.4819 65.3549 98.4274 65.396C98.374 65.4377 98.3473 65.526 98.3473 65.661V68.6652L97.9766 68.4699ZM100.319 69.7615C100.087 69.639 99.8864 69.4753 99.7178 69.2704C99.5502 69.0649 99.4209 68.8334 99.3298 68.5759C99.2397 68.3177 99.1947 68.0489 99.1947 67.7696C99.1947 67.4902 99.2397 67.2677 99.3298 67.1021C99.4209 66.9359 99.5476 66.8358 99.7099 66.8018C99.8733 66.7671 100.064 66.8072 100.282 66.922C100.407 66.9883 100.531 67.0773 100.654 67.1893C100.776 67.3012 100.888 67.4369 100.989 67.5964C101.089 67.7548 101.169 67.9367 101.229 68.1421C101.289 68.3476 101.318 68.5776 101.318 68.8321V69.0096L99.4586 68.0294V67.6672L100.941 68.4487C100.941 68.2948 100.914 68.1432 100.86 67.9937C100.806 67.8448 100.73 67.7093 100.63 67.587C100.532 67.4653 100.416 67.3691 100.282 67.2984C100.134 67.2206 100.006 67.1947 99.8984 67.2207C99.7916 67.2461 99.7094 67.3093 99.6518 67.4103C99.5942 67.5114 99.5654 67.6371 99.5654 67.7874V68.0289C99.5654 68.2348 99.5968 68.426 99.6597 68.6023C99.7235 68.7781 99.812 68.933 99.9251 69.0672C100.038 69.2002 100.17 69.3061 100.319 69.3851C100.417 69.4364 100.505 69.4674 100.583 69.478C100.663 69.488 100.731 69.4768 100.789 69.4444C100.847 69.4108 100.891 69.355 100.923 69.2769L101.281 69.5793C101.243 69.6967 101.18 69.784 101.091 69.8413C101.002 69.8974 100.892 69.9199 100.761 69.9089C100.63 69.8967 100.483 69.8476 100.319 69.7615ZM101.882 70.5284V67.8012L102.24 67.9899V68.4019L102.266 68.4151C102.309 68.3033 102.389 68.2358 102.504 68.2125C102.619 68.1891 102.749 68.2156 102.894 68.2917C102.921 68.3061 102.955 68.3246 102.996 68.3473C103.037 68.37 103.068 68.3881 103.089 68.4015V68.8276C103.076 68.8174 103.047 68.7969 103.002 68.7661C102.958 68.7346 102.912 68.7059 102.862 68.68C102.745 68.6182 102.64 68.5908 102.548 68.5979C102.457 68.6043 102.385 68.642 102.331 68.7109C102.279 68.7792 102.253 68.8749 102.253 68.998V70.7238L101.882 70.5284ZM104.466 71.9472C104.234 71.8246 104.033 71.6609 103.865 71.4561C103.697 71.2506 103.568 71.0191 103.477 70.7615C103.386 70.5034 103.341 70.2346 103.341 69.9552C103.341 69.6759 103.386 69.4534 103.477 69.2878C103.568 69.1216 103.694 69.0214 103.857 68.9874C104.02 68.9528 104.211 68.9929 104.428 69.1077C104.554 69.1739 104.678 69.263 104.801 69.3749C104.923 69.4869 105.035 69.6226 105.135 69.7821C105.236 69.9404 105.316 70.1223 105.376 70.3278C105.435 70.5333 105.465 70.7632 105.465 71.0177V71.1953L103.605 70.2151V69.8528L105.088 70.6344C105.088 70.4805 105.061 70.3288 105.006 70.1794C104.953 70.0305 104.877 69.8949 104.777 69.7727C104.679 69.6509 104.562 69.5548 104.428 69.4841C104.281 69.4063 104.153 69.3804 104.045 69.4064C103.938 69.4318 103.856 69.495 103.799 69.596C103.741 69.697 103.712 69.8227 103.712 69.9731V70.2145C103.712 70.4205 103.744 70.6117 103.806 70.788C103.87 70.9637 103.959 71.1187 104.072 71.2529C104.185 71.3859 104.316 71.4918 104.466 71.5707C104.563 71.6221 104.651 71.653 104.73 71.6637C104.81 71.6737 104.878 71.6625 104.936 71.6301C104.993 71.5965 105.038 71.5407 105.069 71.4625L105.427 71.7649C105.39 71.8824 105.326 71.9697 105.237 72.027C105.148 72.083 105.038 72.1056 104.907 72.0946C104.777 72.0824 104.629 72.0333 104.466 71.9472ZM106.4 71.2689V72.9095L106.029 72.7141V69.9868L106.387 70.1756V70.6017L106.419 70.6183C106.475 70.5096 106.561 70.4436 106.676 70.4203C106.791 70.3957 106.94 70.4315 107.122 70.5275C107.286 70.6136 107.429 70.7269 107.551 70.8672C107.674 71.0064 107.769 71.1702 107.837 71.3588C107.905 71.5462 107.939 71.7559 107.939 71.9879V73.7208L107.568 73.5255V71.8209C107.568 71.6067 107.519 71.4138 107.421 71.2424C107.322 71.0698 107.187 70.9382 107.015 70.8477C106.897 70.7853 106.791 70.7586 106.698 70.7674C106.606 70.7769 106.533 70.8231 106.48 70.9063C106.426 70.9894 106.4 71.1103 106.4 71.2689ZM109.597 74.6513C109.37 74.5321 109.176 74.3691 109.012 74.1622C108.849 73.9554 108.723 73.7228 108.635 73.4646C108.547 73.2063 108.503 72.9411 108.503 72.6688C108.503 72.3918 108.548 72.1711 108.638 72.0067C108.729 71.8417 108.856 71.7421 109.019 71.7081C109.182 71.6735 109.372 71.7136 109.59 71.8284C109.76 71.9178 109.913 72.0339 110.049 72.1767C110.185 72.3194 110.297 72.4777 110.383 72.6513C110.47 72.825 110.524 73.0025 110.545 73.184L110.175 72.9886C110.146 72.8495 110.083 72.7063 109.986 72.559C109.89 72.4112 109.76 72.2942 109.597 72.2081C109.452 72.132 109.325 72.1078 109.216 72.1356C109.109 72.1628 109.024 72.2373 108.964 72.3592C108.904 72.4804 108.874 72.644 108.874 72.85C108.874 73.0607 108.903 73.2596 108.962 73.4468C109.022 73.6345 109.105 73.8 109.213 73.9433C109.322 74.0871 109.45 74.1976 109.597 74.2749C109.693 74.3257 109.78 74.3528 109.859 74.3563C109.937 74.3598 110.004 74.3404 110.058 74.2981C110.113 74.2558 110.152 74.191 110.175 74.1037L110.545 74.2991C110.524 74.449 110.472 74.5667 110.39 74.6521C110.308 74.7369 110.2 74.7816 110.065 74.7862C109.931 74.7901 109.775 74.7451 109.597 74.6513ZM112.099 75.9702C111.866 75.8476 111.666 75.6839 111.497 75.4791C111.33 75.2736 111.2 75.042 111.109 74.7845C111.019 74.5263 110.974 74.2576 110.974 73.9782C110.974 73.6989 111.019 73.4764 111.109 73.3108C111.2 73.1446 111.327 73.0444 111.489 73.0104C111.653 72.9758 111.843 73.0159 112.061 73.1307C112.187 73.1969 112.311 73.286 112.433 73.3979C112.556 73.5098 112.667 73.6456 112.768 73.8051C112.868 73.9634 112.948 74.1453 113.008 74.3508C113.068 74.5563 113.098 74.7862 113.098 75.0407V75.2183L111.238 74.2381V73.8758L112.721 74.6574C112.721 74.5035 112.694 74.3518 112.639 74.2024C112.586 74.0535 112.509 73.9179 112.41 73.7957C112.311 73.6739 112.195 73.5778 112.061 73.5071C111.913 73.4293 111.786 73.4034 111.678 73.4294C111.571 73.4548 111.489 73.518 111.431 73.619C111.374 73.72 111.345 73.8457 111.345 73.9961V74.2375C111.345 74.4435 111.376 74.6347 111.439 74.811C111.503 74.9867 111.591 75.1417 111.704 75.2758C111.818 75.4088 111.949 75.5148 112.099 75.5937C112.196 75.6451 112.284 75.676 112.363 75.6867C112.442 75.6966 112.511 75.6854 112.568 75.6531C112.626 75.6195 112.67 75.5637 112.702 75.4855L113.06 75.7879C113.022 75.9054 112.959 75.9927 112.87 76.05C112.781 76.106 112.671 76.1286 112.54 76.1176C112.409 76.1054 112.262 76.0563 112.099 75.9702Z" fill="#8A939A"/>
<path d="M83.7539 50.5273V70.4093H84.0554V50.5273" fill="#8A939A"/>
<path fill-rule="evenodd" clip-rule="evenodd" d="M37.2988 94.7734C38.1405 100.735 36.5325 107.153 39.3928 112.566C41.3872 116.341 45.2959 119.033 47.3905 122.762C49.1064 121.394 51.1466 120.367 53.3298 119.772C47.6063 114.282 44.3958 106.672 44.6056 99.0953L37.2988 94.7734Z" fill="#3A3F4D"/>
<path d="M78.7793 81.4146C78.7793 81.4146 79.3575 79.7478 79.6873 79.036C80.0171 78.3242 79.797 76.3793 80.5676 74.74C81.3375 73.1006 83.2837 71.0952 83.6479 69.5901C83.8679 68.6807 84.6198 69.4624 84.3081 70.7148C83.9964 71.9672 82.9171 74.0051 82.9171 74.0051C82.9171 74.0051 83.5767 74.5715 84.3822 74.74C85.1877 74.909 84.9677 75.4622 85.298 76.5417C85.6278 77.6212 84.5281 79.036 84.5281 79.036C83.8679 79.1279 81.3887 82.5453 81.3887 82.5453L78.7793 81.4146Z" fill="#8A939A"/>
<path fill-rule="evenodd" clip-rule="evenodd" d="M53.7501 85.3504C54.0359 85.4545 54.2475 85.5618 54.2475 85.6543C53.6718 86.1608 52.8102 86.6876 52.3779 87.2992C52.2549 87.4731 51.6936 89.0558 51.7478 89.0596C49.4664 88.9049 47.2127 88.4172 45.0977 87.6217C45.4082 86.8169 45.5927 85.9719 45.6475 85.1203C45.6951 84.3766 45.4486 83.5801 45.6168 82.8672C45.6505 82.8776 45.6843 82.8881 45.7181 82.8986C47.0626 83.3153 48.4077 83.7315 49.7522 84.1482C50.5896 84.4074 51.4265 84.6667 52.2639 84.926C52.4231 84.975 53.216 85.1567 53.7501 85.3504Z" fill="#8A939A"/>
<path fill-rule="evenodd" clip-rule="evenodd" d="M54.5808 73.5383C55.648 74.7246 55.6431 76.3667 55.9084 77.8106C56.0278 78.4607 56.143 79.1114 56.4577 79.6911C56.7567 80.2421 57.6261 80.634 57.3946 81.3629C57.3132 81.6189 57.0913 81.8132 56.9129 82.0246C55.8132 83.3243 56.2334 85.2785 54.2178 85.9259C53.1308 86.2749 51.8231 85.9451 51.0863 85.1365C49.5971 85.6721 47.9752 85.6385 46.6253 84.8255C44.9486 83.8159 43.5806 82.3934 42.6677 80.7618C42.2005 79.9267 41.89 79.0552 41.6506 78.1464C41.4119 77.2392 41.6627 76.1999 42.0148 75.329C43.8012 70.9146 51.3262 69.921 54.5808 73.5383Z" fill="#8A939A"/>
<path fill-rule="evenodd" clip-rule="evenodd" d="M54.0119 75.0506C53.9739 75.3446 54.0626 75.6391 54.0939 75.9385C54.1952 76.9245 53.0201 77.3571 52.9255 78.3376C52.8622 78.9547 54.0939 81.4687 52.9255 81.6537C52.7802 81.106 52.7169 80.3909 51.877 80.3733C50.9925 80.3501 50.8918 81.2788 51.0305 81.8783C51.2011 82.5989 51.9276 83.2622 51.9023 83.9834C51.8963 84.1276 51.8583 84.2718 51.7823 84.4161C51.3338 85.2985 50.3866 85.8578 49.3254 85.9211C48.2643 85.9904 47.2225 85.6211 46.294 85.1311C44.4689 84.1683 42.9466 82.7266 41.9614 81.0195C41.3362 79.9241 40.313 78.8225 39.9718 77.617C39.5799 76.2215 40.6856 75.616 40.9696 74.5953C41.001 74.4742 41.0202 74.3531 41.0263 74.2205C41.0456 73.834 41.0516 73.4652 41.1589 73.0843C41.2349 72.8074 41.3422 72.5365 41.4749 72.2828C41.7022 71.8501 42.0114 71.4526 42.384 71.1179C43.5145 70.1204 44.8789 69.5551 46.414 69.1978C48.4476 68.7194 50.7718 68.7194 52.6542 69.6652C54.1765 70.4265 55.3763 72.2024 54.5931 73.823C54.3912 74.2315 54.0692 74.6064 54.0119 75.0506Z" fill="#3A3F4D"/>
<path fill-rule="evenodd" clip-rule="evenodd" d="M55.455 78.2619C55.6135 78.7199 55.0902 78.9968 54.9117 78.5112C54.7803 78.1529 55.2994 77.8121 55.455 78.2619Z" fill="#00378D"/>
<path fill-rule="evenodd" clip-rule="evenodd" d="M54.8379 184.391V185.146C55.9702 185.803 57.8555 185.886 59.001 185.317C62.4178 183.621 66.3319 186.144 69.5406 183.821C70.1182 183.402 71.1534 182.313 71.0299 181.156C66.968 182.079 54.8379 184.391 54.8379 184.391Z" fill="#1F232F"/>
<path fill-rule="evenodd" clip-rule="evenodd" d="M60.6692 178.543C60.6692 178.543 64.3977 179.583 66.6037 179.895C67.8307 180.068 69.8076 179.233 70.712 180.406C71.8407 181.87 69.5846 183.671 68.3353 184.106C66.3927 184.782 62.402 184.002 60.9315 184.314C59.461 184.626 55.7331 185.3 54.8402 184.391C53.9473 183.482 54.8402 179.063 54.8402 179.063L60.6692 178.543Z" fill="#3A3F4D"/>
<path fill-rule="evenodd" clip-rule="evenodd" d="M43.9951 176.9C41.9235 178.721 40.3203 176.424 40.453 174.436C40.5157 173.493 40.6019 172.488 41.1891 171.743C41.8252 170.936 43.0094 170.481 43.1914 169.474C44.6927 169.04 52.9611 165.683 52.363 169.77C52.0477 171.927 48.5785 172.87 46.1934 174.967L43.9951 176.9Z" fill="#3A3F4D"/>
<path fill-rule="evenodd" clip-rule="evenodd" d="M43.879 176.262L46.0778 174.33C48.463 172.233 51.9322 171.29 52.2475 169.133V169.132V169.131L52.2487 169.119V169.118V169.116V169.115V169.114V169.113V169.111V169.11V169.109L52.2493 169.105V169.103V169.102C52.2855 169.314 52.2861 169.555 52.2457 169.83C51.9303 171.987 48.4612 172.93 46.076 175.027L44.3734 176.56C42.5091 178.199 40.0462 177.429 40.4725 175.003C40.2796 176.436 42.2987 177.651 43.879 176.262Z" fill="#1F232F"/>
<path fill-rule="evenodd" clip-rule="evenodd" d="M52.2723 143.158C51.2299 151.473 49.6448 161.058 47.2766 171.773C46.6954 174.391 45.3563 175.584 43.9798 175.994C42.0408 176.576 40.0325 175.596 39.9819 174.834C39.4826 167.684 41.6176 154.011 42.6853 146.468C43.0453 137.91 37.7336 125.528 40.0391 122.299L51.7177 119.047L51.9389 128.7L52.2723 143.158Z" fill="url(#paint16_linear_6379_2274)"/>
<path fill-rule="evenodd" clip-rule="evenodd" d="M51.9383 128.701C51.591 129.583 51.3318 130.148 51.3318 130.148C51.3318 130.148 47.2772 155.903 46.342 159.143C45.5528 161.883 44.3398 172.684 43.9798 175.994C42.0408 176.576 40.0325 175.596 39.9819 174.834C39.4826 167.684 41.6176 154.011 42.6854 146.468C43.0453 137.91 37.7336 125.528 40.0391 122.299L51.7177 119.047L51.9383 128.701Z" fill="#3A3F4D"/>
<path fill-rule="evenodd" clip-rule="evenodd" d="M61.768 176.754C61.6167 179.228 59.9677 179.833 58.2247 179.764C56.1718 179.683 53.9868 178.657 53.9868 178.657C53.9615 169.631 53.0456 159.488 53.5382 151.143C53.9928 143.45 47.4494 131.969 47.374 122.24C47.3613 121.744 47.374 121.26 47.4054 120.775L60.6882 118.699C60.9662 120.637 61.2128 122.482 61.4461 124.253C65.0142 152.048 62.7972 160.128 61.768 176.754Z" fill="url(#paint17_linear_6379_2274)"/>
<path fill-rule="evenodd" clip-rule="evenodd" d="M58.8196 151.257C58.9016 153.679 58.3457 175.321 58.2257 179.762C56.1728 179.681 53.9878 178.655 53.9878 178.655C53.9625 169.63 53.0466 159.486 53.5392 151.142C53.9938 143.449 47.4504 131.967 47.375 122.238L61.4471 124.251L56.1921 131.102C56.1921 131.102 58.7189 148.552 58.8196 151.257Z" fill="#3A3F4D"/>
<path fill-rule="evenodd" clip-rule="evenodd" d="M59.7462 125.272L58.2491 125.999C57.182 126.477 56.0069 126.916 54.7878 127.291C49.7347 128.847 43.8484 129.257 41.2523 126.212C40.5704 125.67 38.0882 123.531 38.0882 123.531C38.6628 119.759 41.2716 110.527 41.2336 110.181C41.0063 108.047 40.2671 105.919 39.6232 103.872C38.884 101.513 37.5009 99.4315 36.7937 97.0611C36.3198 95.4636 36.1619 93.7455 36.6357 92.142C37.6336 88.7625 40.6084 86.8017 44.253 86.8771C46.072 86.9118 47.853 87.3901 49.5394 88.0364C51.2824 88.7113 52.9435 89.5761 54.4532 90.6375C55.8236 91.6003 56.7774 92.535 57.5039 93.6767C58.0031 94.4551 58.4071 95.326 58.767 96.3758C59.6576 98.9245 59.5629 101.277 59.6889 103.895C59.8215 106.594 59.5623 108.959 59.4869 111.686C61.0533 116.652 63.0363 119.022 63.3902 121.802C63.5108 122.758 62.0204 124.067 59.7462 125.272Z" fill="#6A7083"/>
<path fill-rule="evenodd" clip-rule="evenodd" d="M50.9792 116.005L54.7878 127.291C49.7347 128.847 43.8484 129.257 41.2523 126.212C40.5704 125.67 38.0882 123.531 38.0882 123.531C38.6627 119.759 41.2716 110.527 41.2336 110.181C41.0063 108.047 40.2671 105.919 39.6232 103.872C38.884 101.513 37.5009 99.4315 36.7937 97.0611C36.3198 95.4636 36.1618 93.7455 36.6357 92.142C37.6336 88.7625 40.6084 86.8017 44.253 86.8771C46.072 86.9118 47.853 87.3901 49.5394 88.0364C51.2824 88.7113 52.9435 89.5761 54.4532 90.6375C55.8236 91.6003 56.7774 92.535 57.5039 93.6767C56.1902 96.5255 57.4304 100.464 57.4304 100.464C57.4304 100.464 51.2131 104.87 50.9798 107.684C50.7392 110.492 50.9792 116.005 50.9792 116.005Z" fill="url(#paint18_linear_6379_2274)"/>
<path fill-rule="evenodd" clip-rule="evenodd" d="M53.9506 89.9458C52.3065 89.0568 50.5025 88.4474 48.666 87.9833C48.2464 87.8771 43.4393 86.7601 43.3809 86.922C43.6721 86.1172 44.2895 85.4434 45.2831 85.4225C45.6894 85.4137 46.0892 85.505 46.4817 85.6019C48.0601 85.9917 49.6084 86.4827 51.1115 87.0701C52.5187 87.6195 53.5448 88.5652 53.9506 89.9458Z" fill="#87868D"/>
<path d="M83.2309 82.8648C75.9235 100.044 73.5233 99.375 73.1187 99.773C72.7081 100.171 55.1873 100.511 55.1494 100.517C50.6142 100.615 47.4501 93.0719 52.0986 91.2839C54.4988 90.3613 58.3201 91.7337 60.8337 92.0276C63.8024 92.3849 66.7833 92.8291 69.7773 92.8985C74.1099 88.0773 78.4811 80.2461 78.4811 80.2461C79.1949 80.2923 79.8202 80.4305 80.3568 80.6265C80.5461 80.7014 80.6534 80.7421 80.6534 80.7421C82.4603 81.504 83.2309 82.8648 83.2309 82.8648Z" fill="url(#paint19_linear_6379_2274)"/>
<path d="M80.6534 80.7421L72.6509 93.1121L69.7773 92.8985C74.1099 88.0773 78.4811 80.2461 78.4811 80.2461C79.1949 80.2923 79.8201 80.4305 80.3567 80.6265C80.5461 80.7019 80.6534 80.7421 80.6534 80.7421Z" fill="#3A3F4D"/>
<path fill-rule="evenodd" clip-rule="evenodd" d="M51.9023 83.986C51.8963 84.1302 51.8583 84.2744 51.7823 84.4187C51.3338 85.3011 50.3866 85.8604 49.3254 85.9237C48.2643 85.993 47.2225 85.6237 46.294 85.1337C44.4689 84.1709 42.9466 82.7292 41.9614 81.0221C41.3362 79.9267 40.313 78.8251 39.9718 77.6196C39.5799 76.2241 40.6856 75.6186 40.9696 74.598C41.0836 75.2035 41.3109 75.792 41.6455 76.3281C41.3615 75.313 41.6708 74.1768 42.4413 73.3984C41.6961 74.6959 42.6306 76.3105 43.8817 77.2276C44.8669 77.9598 46.7426 78.4618 47.4064 79.4538C47.7603 79.9845 47.8989 80.6016 48.1516 81.1724C48.7882 82.596 50.266 83.6397 51.9023 83.986Z" fill="#3A3F4D"/>
<path fill-rule="evenodd" clip-rule="evenodd" d="M174.485 33.536C174.485 26.6588 169.164 18.2787 162.6 14.8184C159.115 12.9808 155.98 12.9005 153.805 14.2591L150.797 15.845V19.606C150.744 20.0524 150.715 20.5176 150.715 21.0058C150.715 21.4837 150.746 21.9709 150.797 22.4608V22.6001L150.81 22.5935C151.012 24.4183 151.546 26.3103 152.347 28.1605L152.346 28.16L152.376 28.2282C152.399 28.2805 152.42 28.3328 152.443 28.3851L160.235 46.5309L159.592 46.87V53.6255L162.601 52.0396L172.758 39.0943C172.781 39.0668 172.802 39.0371 172.825 39.009L172.855 38.971H172.855C173.889 37.6697 174.485 35.8332 174.485 33.536Z" fill="url(#paint20_linear_6379_2274)"/>
<path fill-rule="evenodd" clip-rule="evenodd" d="M169.844 40.5533C170.879 39.2519 171.476 37.416 171.476 35.1183C171.476 28.241 166.154 19.861 159.59 16.4006C153.026 12.9402 147.705 15.7103 147.705 22.5875C147.705 24.8847 148.301 27.3493 149.337 29.7428L149.336 29.7422L149.366 29.8105C149.388 29.8628 149.41 29.9151 149.433 29.9674L159.59 53.6213L169.748 40.676C169.771 40.6485 169.792 40.6188 169.815 40.5907L169.844 40.5533Z" fill="url(#paint21_linear_6379_2274)"/>
<path fill-rule="evenodd" clip-rule="evenodd" d="M165.996 32.2295C165.996 33.9536 165.377 35.1994 164.354 35.8451C163.186 36.5949 161.481 36.5602 159.592 35.5627C156.055 33.6998 153.188 29.1847 153.188 25.4822C153.188 23.1118 154.356 21.653 156.124 21.3937C157.122 21.2379 158.316 21.4746 159.592 22.149C163.129 24.0118 165.996 28.5275 165.996 32.2295Z" fill="#1F2025"/>
<path fill-rule="evenodd" clip-rule="evenodd" d="M165.994 32.2295C165.994 33.9536 165.375 35.1994 164.352 35.8451C163.354 35.9948 162.166 35.7642 160.891 35.0898C157.354 33.227 154.486 28.7119 154.486 25.0093C154.486 23.2852 155.106 22.0449 156.122 21.3937C157.12 21.2379 158.314 21.4746 159.589 22.149C163.127 24.0118 165.994 28.5275 165.994 32.2295Z" fill="#8A939A"/>
<path d="M46.5895 41.8229L42.6693 39.7563C40.7942 38.777 38.2017 38.9262 35.3384 40.4356C29.6168 43.4518 24.9785 50.7562 24.9785 56.751C24.9785 59.7759 26.1608 61.8876 28.0661 62.8515L31.8674 64.8553V63.3475C32.9527 63.1796 34.1206 62.786 35.3384 62.1441C39.9821 59.6961 43.9113 54.4235 45.2275 49.3194L46.5895 50.0373V41.8229Z" fill="url(#paint22_linear_6379_2274)"/>
<path d="M49.6164 47.8913C49.6164 41.8971 44.9781 39.4821 39.2564 42.4982C33.5347 45.5143 28.8965 52.8188 28.8965 58.8136C28.8965 64.8084 33.5347 67.2228 39.2564 64.2067C44.9781 61.19 49.6164 53.8856 49.6164 47.8913Z" fill="url(#paint23_linear_6379_2274)"/>
<path d="M43.5308 47.5123C43.2697 47.3636 42.8466 47.6078 42.585 48.0581L38.2237 55.5808L36.4948 54.5954C36.2337 54.4463 35.8105 54.6909 35.5494 55.1412C35.2882 55.5915 35.2882 56.0774 35.5494 56.2262L37.4439 57.3064C37.8748 57.5518 38.573 57.1485 39.0035 56.4058L43.5308 48.597C43.792 48.147 43.792 47.6611 43.5308 47.5123Z" fill="#8A939A"/>
<path d="M98.0039 154.291L103.904 151.181C107.62 149.241 112.758 149.535 118.434 152.528C129.774 158.506 138.967 172.983 138.967 184.864C138.967 190.859 136.624 195.045 132.848 196.955L127.184 199.941V196.952C125.032 196.62 122.717 195.84 120.304 194.567C111.1 189.716 103.312 179.266 100.704 169.148L98.0046 170.571L98.0039 154.291Z" fill="url(#paint24_linear_6379_2274)"/>
<path d="M92 166.318C92 154.437 101.193 149.652 112.533 155.629C123.873 161.607 133.066 176.085 133.066 187.965C133.066 199.847 123.873 204.632 112.533 198.654C101.193 192.676 92 178.199 92 166.318Z" fill="#2F3443"/>
<path d="M95.6504 168.243C95.6504 178.015 103.211 189.913 112.537 194.828C117.757 197.583 122.439 197.56 125.531 195.273C127.947 193.49 129.412 190.325 129.412 186.038C129.412 176.277 121.851 164.368 112.538 159.453C108.031 157.075 103.938 156.767 100.908 158.196C97.6783 159.705 95.6504 163.191 95.6504 168.243Z" fill="#0B0B0B"/>
<path d="M97.0684 167.396C97.0684 177.169 104.617 189.078 113.943 193.993C118.437 196.359 122.505 196.68 125.535 195.273C127.95 193.49 129.415 190.325 129.415 186.038C129.415 176.277 121.855 164.368 112.541 159.453C108.035 157.075 103.941 156.767 100.911 158.196C98.5076 159.978 97.0684 163.133 97.0684 167.396Z" fill="#8A939A"/>
<path d="M114.748 164.807L113.445 164.121V160.906L114.748 161.593V164.807Z" fill="#5C6374"/>
<path d="M114.748 191.726L113.445 191.039V187.824L114.748 188.511V191.726Z" fill="#5C6374"/>
<path d="M107.954 161.245L107.39 161.29L106.623 159.493L107.187 159.449L107.954 161.245Z" fill="#5C6374"/>
<path d="M121.569 193.136L121.005 193.181L120.238 191.384L120.802 191.34L121.569 193.136Z" fill="#5C6374"/>
<path d="M103.139 163.508L102.813 163.927L101.484 162.423L101.811 162.004L103.139 163.508Z" fill="#5C6374"/>
<path d="M126.717 190.207L126.391 190.626L125.062 189.122L125.389 188.703L126.717 190.207Z" fill="#5C6374"/>
<path d="M102.813 176.801L103.139 177.563L101.811 177.667L101.484 176.904L102.813 176.801Z" fill="#5C6374"/>
<path d="M126.391 174.965L126.717 175.728L125.389 175.831L125.062 175.068L126.391 174.965Z" fill="#5C6374"/>
<path d="M107.39 184.266L107.954 184.904L107.187 185.891L106.623 185.253L107.39 184.266Z" fill="#5C6374"/>
<path d="M121.005 166.742L121.569 167.381L120.802 168.369L120.238 167.73L121.005 166.742Z" fill="#5C6374"/>
<path d="M125.41 182.959V181.594L128.478 183.212V184.577L125.41 182.959Z" fill="#5C6374"/>
<path d="M99.7207 169.416V168.051L102.789 169.668V171.033L99.7207 169.416Z" fill="#5C6374"/>
<path d="M107.533 169.412L113.72 176.873C114.234 177.493 114.914 177.464 114.914 176.822V167.043C114.914 166.571 114.549 165.996 114.098 165.758C113.647 165.521 113.282 165.711 113.282 166.183V174.308L108.42 168.445C108.042 167.989 107.537 167.836 107.292 168.103C107.046 168.37 107.154 168.956 107.533 169.412Z" fill="#5C6374"/>
<defs>
<linearGradient id="paint0_linear_6379_2274" x1="127.768" y1="58.8233" x2="160.331" y2="135.257" gradientUnits="userSpaceOnUse">
<stop stop-color="#212224"/>
<stop offset="0.3575" stop-color="#212326"/>
<stop offset="1" stop-color="#2F3443"/>
</linearGradient>
<linearGradient id="paint1_linear_6379_2274" x1="0.469116" y1="92.96" x2="33.0319" y2="169.393" gradientUnits="userSpaceOnUse">
<stop stop-color="#212224"/>
<stop offset="0.3575" stop-color="#212326"/>
<stop offset="1" stop-color="#2F3443"/>
</linearGradient>
<linearGradient id="paint2_linear_6379_2274" x1="37.8429" y1="8.54474" x2="60.4279" y2="61.5563" gradientUnits="userSpaceOnUse">
<stop stop-color="#212224"/>
<stop offset="0.3575" stop-color="#212326"/>
<stop offset="1" stop-color="#2F3443"/>
</linearGradient>
<linearGradient id="paint3_linear_6379_2274" x1="15.7478" y1="135.085" x2="28.8176" y2="214.447" gradientUnits="userSpaceOnUse">
<stop stop-color="#212224"/>
<stop offset="0.3575" stop-color="#212326"/>
<stop offset="1" stop-color="#2F3443"/>
</linearGradient>
<linearGradient id="paint4_linear_6379_2274" x1="121.157" y1="139.062" x2="102.345" y2="176.463" gradientUnits="userSpaceOnUse">
<stop stop-color="#6164FF"/>
<stop offset="1" stop-color="#8EE5FF"/>
</linearGradient>
<linearGradient id="paint5_linear_6379_2274" x1="35.3142" y1="150.617" x2="43.0478" y2="204.227" gradientUnits="userSpaceOnUse">
<stop stop-color="#3A3F4D"/>
<stop offset="0.3575" stop-color="#6C7386"/>
<stop offset="1" stop-color="#3A3F4D"/>
</linearGradient>
<linearGradient id="paint6_linear_6379_2274" x1="38.2772" y1="197.967" x2="63.9947" y2="169.8" gradientUnits="userSpaceOnUse">
<stop stop-color="#87868D" stop-opacity="0"/>
<stop offset="1" stop-color="#87868D"/>
</linearGradient>
<linearGradient id="paint7_linear_6379_2274" x1="22.8786" y1="183.108" x2="47.6624" y2="155.963" gradientUnits="userSpaceOnUse">
<stop stop-color="#87868D" stop-opacity="0"/>
<stop offset="1" stop-color="#87868D"/>
</linearGradient>
<linearGradient id="paint8_linear_6379_2274" x1="145.351" y1="117.551" x2="158.591" y2="139.067" gradientUnits="userSpaceOnUse">
<stop stop-color="#3A3F4D"/>
<stop offset="0.3575" stop-color="#4F525B"/>
<stop offset="1" stop-color="#3A3F4D"/>
</linearGradient>
<linearGradient id="paint9_linear_6379_2274" x1="144.556" y1="142.393" x2="153.39" y2="174.58" gradientUnits="userSpaceOnUse">
<stop stop-color="#3A3F4D"/>
<stop offset="0.3575" stop-color="#4F525B"/>
<stop offset="1" stop-color="#3A3F4D"/>
</linearGradient>
<linearGradient id="paint10_linear_6379_2274" x1="158.995" y1="158.504" x2="168.88" y2="177.437" gradientUnits="userSpaceOnUse">
<stop stop-color="#3A3F4D"/>
<stop offset="0.3575" stop-color="#4F525B"/>
<stop offset="1" stop-color="#3A3F4D"/>
</linearGradient>
<linearGradient id="paint11_linear_6379_2274" x1="78.3762" y1="10.9497" x2="159.613" y2="112.759" gradientUnits="userSpaceOnUse">
<stop stop-color="#212224"/>
<stop offset="0.3575" stop-color="#212326"/>
<stop offset="1" stop-color="#2F3443"/>
</linearGradient>
<linearGradient id="paint12_linear_6379_2274" x1="2.19367" y1="-44.8831" x2="80.4571" y2="38.9433" gradientUnits="userSpaceOnUse">
<stop stop-color="#6C7386"/>
<stop offset="1" stop-color="#5D5E61"/>
</linearGradient>
<linearGradient id="paint13_linear_6379_2274" x1="2.19367" y1="-0.476774" x2="80.4569" y2="83.3497" gradientUnits="userSpaceOnUse">
<stop stop-color="#6C7386"/>
<stop offset="1" stop-color="#5D5E61"/>
</linearGradient>
<linearGradient id="paint14_linear_6379_2274" x1="2.19367" y1="21.7298" x2="80.4575" y2="105.556" gradientUnits="userSpaceOnUse">
<stop stop-color="#6C7386"/>
<stop offset="1" stop-color="#5D5E61"/>
</linearGradient>
<linearGradient id="paint15_linear_6379_2274" x1="59.9605" y1="38.2839" x2="75.984" y2="100.487" gradientUnits="userSpaceOnUse">
<stop stop-color="#212224"/>
<stop offset="0.3575" stop-color="#212326"/>
<stop offset="1" stop-color="#2F3443"/>
</linearGradient>
<linearGradient id="paint16_linear_6379_2274" x1="39.5397" y1="122.193" x2="64.1915" y2="139.896" gradientUnits="userSpaceOnUse">
<stop stop-color="#3A3F4D"/>
<stop offset="0.3575" stop-color="#6C7386"/>
<stop offset="1" stop-color="#494B51"/>
</linearGradient>
<linearGradient id="paint17_linear_6379_2274" x1="47.4726" y1="122.062" x2="74.8688" y2="145.079" gradientUnits="userSpaceOnUse">
<stop stop-color="#3A3F4D"/>
<stop offset="0.3575" stop-color="#6C7386"/>
<stop offset="1" stop-color="#494B51"/>
</linearGradient>
<linearGradient id="paint18_linear_6379_2274" x1="36.4861" y1="89.1666" x2="53.3928" y2="116.679" gradientUnits="userSpaceOnUse">
<stop stop-color="#3A3F4D"/>
<stop offset="0.3575" stop-color="#6C7386"/>
<stop offset="1" stop-color="#494B51"/>
</linearGradient>
<linearGradient id="paint19_linear_6379_2274" x1="50.0281" y1="81.3625" x2="53.4059" y2="99.1868" gradientUnits="userSpaceOnUse">
<stop stop-color="#3A3F4D"/>
<stop offset="0.3575" stop-color="#6C7386"/>
<stop offset="1" stop-color="#494B51"/>
</linearGradient>
<linearGradient id="paint20_linear_6379_2274" x1="150.868" y1="15.5474" x2="166.049" y2="44.2123" gradientUnits="userSpaceOnUse">
<stop stop-color="#3A3F4D"/>
<stop offset="0.3575" stop-color="#6C7386"/>
<stop offset="1" stop-color="#3A3F4D"/>
</linearGradient>
<linearGradient id="paint21_linear_6379_2274" x1="159.591" y1="46.0155" x2="171.962" y2="22.5465" gradientUnits="userSpaceOnUse">
<stop stop-color="#3A3F4D"/>
<stop offset="1" stop-color="#3A3F4D"/>
</linearGradient>
<linearGradient id="paint22_linear_6379_2274" x1="25.118" y1="40.5531" x2="32.7697" y2="61.1341" gradientUnits="userSpaceOnUse">
<stop stop-color="#3A3F4D"/>
<stop offset="0.3575" stop-color="#6C7386"/>
<stop offset="1" stop-color="#3A3F4D"/>
</linearGradient>
<linearGradient id="paint23_linear_6379_2274" x1="39.2565" y1="60.7302" x2="45.5062" y2="44.2722" gradientUnits="userSpaceOnUse">
<stop stop-color="#3A3F4D"/>
<stop offset="1" stop-color="#3A3F4D"/>
</linearGradient>
<linearGradient id="paint24_linear_6379_2274" x1="98.2682" y1="152.706" x2="113.424" y2="192.46" gradientUnits="userSpaceOnUse">
<stop stop-color="#3A3F4D"/>
<stop offset="0.3575" stop-color="#6C7386"/>
<stop offset="1" stop-color="#3A3F4D"/>
</linearGradient>
</defs>
</svg>
