<?xml version="1.0" encoding="utf-8"?>
<!-- Generator: Adobe Illustrator 17.0.0, SVG Export Plug-In . SVG Version: 6.00 Build 0)  -->
<!DOCTYPE svg PUBLIC "-//W3C//DTD SVG 1.1//EN" "http://www.w3.org/Graphics/SVG/1.1/DTD/svg11.dtd">
<svg version="1.1" id="Layer_1" xmlns="http://www.w3.org/2000/svg" xmlns:xlink="http://www.w3.org/1999/xlink" x="0px" y="0px"
	 width="18px" height="17px" viewBox="0 0 18 17" enable-background="new 0 0 18 17" xml:space="preserve">
<path stroke="#000000" d="M13.122,16.153l0.096-0.186c0.302-0.583,0.641-1.147,1.014-1.687c0.077-0.111,0.144-0.209,0.205-0.3
	c0.258-0.379,0.418-0.613,0.779-1.015l0.113-0.126c0.184,0.348,0.288,0.744,0.288,1.164c0,1.379-1.118,2.496-2.496,2.496
	c-0.059,0-0.118-0.002-0.176-0.006L13.122,16.153z M13.121,11.508c0.527,0,1.015,0.163,1.418,0.441
	c-0.043-0.002-0.085-0.003-0.13-0.004c-0.138-0.002-0.332-0.002-0.526,0.095c-0.182,0.091-0.307,0.242-0.399,0.356
	c-0.043,0.053-0.083,0.105-0.128,0.161c-0.076,0.097-0.163,0.209-0.293,0.365c-0.18,0.217-0.353,0.445-0.52,0.684
	c-0.204-0.132-0.46-0.243-0.716-0.281c-0.169-0.025-0.384-0.026-0.591,0.067c-0.228,0.101-0.395,0.292-0.472,0.544l-0.107,0.351
	l0.302,0.207c0.278,0.191,0.446,0.346,0.648,0.595l0,0c0.205,0.252,0.379,0.538,0.527,0.856l0.001,0.002l0.089,0.189l0.112,0.239
	c-0.994-0.329-1.712-1.266-1.712-2.37C10.625,12.625,11.743,11.508,13.121,11.508z"/>
<path fill="none" stroke="#000000" stroke-linecap="round" stroke-linejoin="round" stroke-miterlimit="10" d="M9.782,6.684
	c-1.137,0-2.084,0.884-2.084,1.958v0.442c0,0.695-0.379,1.2-1.01,1.389h1.01h1.958c1.137,0,2.147-0.884,2.084-1.958
	C11.74,7.505,10.856,6.684,9.782,6.684z"/>
<path fill="none" stroke="#000000" stroke-linecap="round" stroke-linejoin="round" stroke-miterlimit="10" d="M11.926,5.105
	c-0.884-0.189-1.768-0.316-2.716-0.316C4.663,4.789,1,7.315,1,10.473c0,0.632,0.126,1.263,0.442,1.832
	c0.632,1.263,2.274,1.642,3.41,0.821c1.516-1.074,3.663,0,3.663,1.895v1.137c0.253,0,0.442,0,0.695,0c4.547,0,8.21-2.526,8.21-5.684
	c0-1.389-0.695-2.652-1.831-3.6"/>
<path fill="none" stroke="#000000" stroke-linecap="round" stroke-linejoin="round" stroke-miterlimit="10" d="M10.094,6.747
	l6.189-5.557c0.253-0.253,0.695-0.253,0.947,0c0.253,0.253,0.253,0.632,0,0.884l-5.494,5.873"/>
</svg>
