<?xml version="1.0" encoding="utf-8"?>
<!-- Generator: Adobe Illustrator 17.0.0, SVG Export Plug-In . SVG Version: 6.00 Build 0)  -->
<!DOCTYPE svg PUBLIC "-//W3C//DTD SVG 1.1//EN" "http://www.w3.org/Graphics/SVG/1.1/DTD/svg11.dtd">
<svg version="1.1" id="Layer_1" xmlns="http://www.w3.org/2000/svg" xmlns:xlink="http://www.w3.org/1999/xlink" x="0px" y="0px"
	 width="18px" height="17px" viewBox="0 0 18 17" enable-background="new 0 0 18 17" xml:space="preserve">
<path d="M16.258,0h-9.29v2.903h1.161V1.161h8.129c0.348,0,0.581,0.232,0.581,0.581v6.387c0,0.348-0.232,0.581-0.581,0.581H8.71
	v4.065H5.632l-2.148,1.684v-1.684H1.742c-0.348,0-0.581-0.232-0.581-0.581V5.806c0-0.348,0.232-0.581,0.581-0.581H9.29V4.065H1.742
	C0.755,4.065,0,4.819,0,5.806v6.387c0,0.987,0.755,1.742,1.742,1.742h0.581v2.961l3.658-2.961h3.89V9.871h6.387
	C17.245,9.871,18,9.116,18,8.129V1.742C18,0.755,17.245,0,16.258,0z"/>
<path d="M2.438,11.554h1.394l0.348-0.929h1.8l0.348,0.929h1.394L5.747,6.387H4.354L2.438,11.554z M5.05,7.838l0.581,1.8H4.47
	L5.05,7.838z"/>
<path d="M10.453,8.129c0.639,0,1.51-0.174,2.323-0.581c0.813,0.406,1.742,0.581,2.323,0.581V6.968c0,0-0.581,0-1.219-0.232
	c0.697-0.697,1.219-1.742,1.219-3.252V2.903h-1.742V1.742h-1.161v1.161h-1.742v1.161h3.426c-0.116,1.045-0.581,1.684-1.103,2.09
	c-0.348-0.29-0.697-0.697-0.929-1.219h-1.219c0.232,0.755,0.581,1.335,1.045,1.8c-0.581,0.232-1.103,0.232-1.219,0.232V8.129z"/>
</svg>
