<svg width="154" height="165" viewBox="0 0 154 165" fill="none" xmlns="http://www.w3.org/2000/svg">
<path d="M129.217 128.267L30.5703 151.122C23.7528 152.696 16.9496 148.446 15.3751 141.628L2.31192 85.0639C0.737445 78.2464 4.98781 71.4432 11.8054 69.8687L112.845 46.5341C112.987 46.5014 113.129 46.471 113.271 46.4433C120.888 44.9531 127.956 50.8845 128.083 58.6452L129.217 128.267Z" fill="black"/>
<path d="M27.694 152.131C25.2224 152.131 22.7946 151.44 20.6468 150.098C17.623 148.209 15.5158 145.255 14.7134 141.781L1.6501 85.2167C0.847909 81.7426 1.44649 78.1641 3.33555 75.1403C5.22475 72.1165 8.17861 70.0093 11.6526 69.207L112.692 45.8724C112.842 45.838 112.991 45.806 113.141 45.7768C116.905 45.0406 120.79 46.017 123.801 48.4555C126.889 50.9558 128.697 54.6656 128.762 58.634L129.905 128.805L30.7236 151.783C29.7173 152.016 28.702 152.131 27.694 152.131ZM115.613 46.8955C114.876 46.8955 114.137 46.9661 113.401 47.1099C113.267 47.1363 113.133 47.1648 112.998 47.1959L11.9582 70.5306C8.83769 71.2513 6.18459 73.144 4.4876 75.86C2.79062 78.5763 2.25294 81.7906 2.97363 84.9112L16.037 141.476C16.7577 144.596 18.6503 147.249 21.3665 148.946C24.0825 150.643 27.2968 151.181 30.4175 150.46L128.529 127.73L127.404 58.6564C127.346 55.0912 125.721 51.7581 122.947 49.5114C120.837 47.8033 118.25 46.8955 115.613 46.8955Z" fill="white"/>
<path d="M47.158 19.3796L84.4613 124.223L136.422 105.735L99.1189 0.891897L47.158 19.3796Z" fill="black"/>
<path d="M84.0456 125.072L83.8178 124.432L46.2825 18.9454L99.5246 0L99.7524 0.639744L137.288 106.126L84.0456 125.072ZM48.0175 19.7695L84.8698 123.337L135.553 105.302L98.7005 1.73499L48.0175 19.7695Z" fill="white"/>
<path d="M83.3622 110.752C88.3385 108.981 93.8078 111.579 95.5786 116.556C95.6645 116.797 95.7398 117.039 95.8053 117.283L123.845 107.305C123.798 107.188 123.752 107.07 123.71 106.95C121.939 101.973 124.538 96.5039 129.514 94.7332C129.548 94.721 129.582 94.7099 129.617 94.6981L100.784 13.6692C100.523 13.7896 100.254 13.8999 99.9783 13.9981C95.002 15.7688 89.5325 13.1703 87.7619 8.194C87.7192 8.07395 87.6797 7.95348 87.6421 7.83289L59.6309 17.8001C61.4015 22.7764 58.803 28.2459 53.8268 30.0165L82.6557 111.035C82.8855 110.932 83.121 110.838 83.3622 110.752Z" fill="black"/>
<path d="M95.3408 118.169L95.1496 117.459C95.0881 117.231 95.0172 117.004 94.9388 116.783C93.2966 112.168 88.2055 109.75 83.5899 111.392C83.3693 111.47 83.1484 111.559 82.933 111.655L82.2623 111.955L52.9594 29.6045L53.5991 29.3768C55.835 28.5812 57.6272 26.9625 58.6456 24.8191C59.664 22.6755 59.7867 20.2636 58.9912 18.028L58.7636 17.3881L88.0801 6.95618L88.2904 7.6305C88.3255 7.74273 88.362 7.85468 88.4018 7.96636C90.0442 12.5818 95.1346 15.0005 99.7507 13.3582C99.9988 13.27 100.251 13.1671 100.5 13.0524L101.175 12.7415L130.487 95.1172L129.742 95.373C125.126 97.0155 122.707 102.106 124.35 106.722C124.389 106.834 124.432 106.944 124.476 107.053L124.738 107.708L95.3408 118.169ZM86.5587 109.519C90.7716 109.519 94.7274 112.138 96.2185 116.328C96.2275 116.354 96.2366 116.379 96.2455 116.405L122.974 106.895C121.334 101.831 123.872 96.3458 128.754 94.2997L100.385 14.5727C100.325 14.5952 100.265 14.6171 100.206 14.6382C99.075 15.0405 97.9186 15.2315 96.7818 15.2315C92.6637 15.2318 88.7909 12.7283 87.2262 8.70174L60.4773 18.2199C61.8733 23.1447 59.3864 28.3788 54.6868 30.4078L83.0578 110.139C83.0834 110.13 83.1089 110.121 83.1344 110.112C84.2651 109.71 85.4218 109.519 86.5587 109.519Z" fill="white"/>
<path d="M103.414 73.3483C109.505 67.258 109.505 57.3837 103.414 51.2934C97.324 45.2031 87.4497 45.2031 81.3595 51.2934C75.2692 57.3837 75.2692 67.258 81.3595 73.3482C87.4498 79.4385 97.324 79.4385 103.414 73.3483Z" fill="black"/>
<path d="M92.3798 78.6033C89.9963 78.6033 87.6236 78.0732 85.407 77.0201C81.4806 75.1545 78.5156 71.8716 77.0583 67.776C75.601 63.6806 75.8259 59.2627 77.6913 55.3363C79.5568 51.4098 82.8396 48.4449 86.9352 46.9876C91.0306 45.5305 95.4486 45.755 99.3752 47.6206C103.301 49.4861 106.267 52.769 107.724 56.8646C110.732 65.3191 106.301 74.6447 97.8468 77.6531C96.0634 78.2876 94.2183 78.6033 92.3798 78.6033ZM92.4014 47.3961C90.716 47.3961 89.0253 47.6855 87.3905 48.2672C83.6368 49.6029 80.6281 52.3203 78.9182 55.9192C77.2084 59.5179 77.0025 63.5671 78.3381 67.3208C79.6738 71.0744 82.3912 74.0834 85.9901 75.7933C89.5888 77.503 93.6377 77.7091 97.3917 76.3733C105.14 73.6161 109.201 65.0687 106.444 57.3199C105.108 53.5662 102.391 50.5573 98.7922 48.8474C96.7609 47.8822 94.5858 47.3961 92.4014 47.3961Z" fill="white"/>
<path d="M81.9931 35.9446C85.8681 35.1226 88.3431 31.3149 87.5211 27.4399C86.6991 23.5648 82.8914 21.0898 79.0164 21.9118C75.1413 22.7338 72.6663 26.5415 73.4883 30.4166C74.3103 34.2916 78.118 36.7666 81.9931 35.9446Z" fill="black"/>
<path d="M80.5082 36.7974C79.3584 36.7974 78.2136 36.5415 77.1441 36.0335C75.2499 35.1333 73.8193 33.5495 73.1162 31.5736C72.4132 29.5978 72.5216 27.4662 73.4217 25.5718C74.3218 23.6774 75.9055 22.2468 77.8816 21.5437C81.96 20.0924 86.4599 22.2299 87.9113 26.3091C88.6143 28.2849 88.506 30.4165 87.6058 32.3109C86.7058 34.2052 85.122 35.6357 83.146 36.3389C82.2855 36.6449 81.3952 36.7974 80.5082 36.7974ZM80.5077 22.4473C79.7867 22.4473 79.0539 22.5683 78.3368 22.8235C76.7028 23.4048 75.3928 24.588 74.6485 26.1546C73.9041 27.7214 73.8145 29.4842 74.396 31.1184C74.9775 32.7525 76.1604 34.0623 77.7271 34.8068C79.2937 35.5509 81.0566 35.6408 82.6905 35.0592C84.3246 34.4776 85.6346 33.2947 86.379 31.7281C87.1234 30.1614 87.213 28.3986 86.6316 26.7646C85.6864 24.108 83.1782 22.4473 80.5077 22.4473Z" fill="white"/>
<path d="M110.824 98.256C112.338 94.5953 110.598 90.4006 106.937 88.8869C103.276 87.3733 99.0814 89.1138 97.5677 92.7746C96.0541 96.4353 97.7947 100.63 101.455 102.144C105.116 103.657 109.311 101.917 110.824 98.256Z" fill="black"/>
<path d="M104.203 103.347C100.973 103.347 97.9409 101.339 96.7979 98.1267C96.0949 96.1509 96.2033 94.0193 97.1033 92.125C98.0033 90.2307 99.5871 88.8002 101.563 88.0971C103.539 87.3939 105.671 87.5024 107.565 88.4024C109.459 89.3026 110.89 90.8864 111.593 92.8624C112.296 94.8382 112.188 96.9698 111.288 98.8643C110.388 100.759 108.804 102.189 106.828 102.892C105.961 103.2 105.074 103.347 104.203 103.347ZM104.2 88.9975C103.466 88.9975 102.73 89.1233 102.019 89.3767C100.384 89.9581 99.0744 91.1412 98.3301 92.7078C97.5857 94.2745 97.4961 96.0372 98.0775 97.6713C99.2779 101.045 102.999 102.813 106.372 101.612C109.746 100.412 111.514 96.6909 110.313 93.3174C109.732 91.6832 108.549 90.3734 106.982 89.629C106.098 89.209 105.151 88.9975 104.2 88.9975Z" fill="black"/>
<path d="M96.5731 140.805L7.69328 94.227C5.4914 93.0732 4.81763 90.0175 6.18823 87.4023L35.6148 31.2511C36.9853 28.6357 39.8813 27.451 42.0831 28.605L130.963 75.1832C133.165 76.3371 133.839 79.3926 132.468 82.0079L103.041 138.159C101.671 140.774 98.7749 141.959 96.5731 140.805Z" fill="black"/>
<path d="M98.3908 141.928C97.6455 141.928 96.9209 141.754 96.2579 141.407L7.37819 94.8283C6.13285 94.1756 5.26631 92.9967 4.93814 91.5086C4.61943 90.0637 4.84978 88.4933 5.58694 87.0868L35.0135 30.9356C35.7505 29.5292 36.9108 28.446 38.2803 27.8857C39.6908 27.3089 41.1533 27.3505 42.3986 28.0033L131.278 74.5814C132.524 75.2341 133.39 76.4129 133.718 77.901C134.037 79.346 133.807 80.9163 133.07 82.3229L103.643 138.474C102.906 139.881 101.746 140.964 100.376 141.524C99.7167 141.794 99.0457 141.928 98.3908 141.928ZM40.2637 28.8414C39.7827 28.8414 39.2862 28.9417 38.7945 29.1428C37.7208 29.5821 36.8051 30.4428 36.2164 31.566L6.78989 87.7173C6.20118 88.8407 6.01459 90.0833 6.26429 91.2161C6.50479 92.3062 7.12423 93.1617 8.0086 93.6252L96.8883 140.203C97.7727 140.667 98.8287 140.689 99.8619 140.267C100.936 139.828 101.851 138.967 102.44 137.844L131.867 81.6923C132.455 80.569 132.642 79.3264 132.392 78.1936C132.152 77.1035 131.532 76.248 130.648 75.7845L41.7679 29.2062C41.3044 28.9632 40.7934 28.8414 40.2637 28.8414Z" fill="white"/>
<path d="M32.6417 36.9371L22.6168 56.0647L119.466 106.824L129.491 87.6961L32.6417 36.9371Z" fill="black"/>
<path d="M119.759 107.722L119.157 107.407L21.7027 56.3345L32.3577 36.0029L32.9593 36.3182L130.414 87.3903L119.759 107.722ZM23.5365 55.7619L119.187 105.888L128.581 87.9626L32.9302 37.8366L23.5365 55.7619Z" fill="white"/>
<path d="M18.1504 74.7918L17.412 76.2007L71.7441 104.676L72.4825 103.268L18.1504 74.7918Z" fill="black"/>
<path d="M72.0378 105.575L16.5004 76.4704L17.8689 73.8583L73.4067 102.963L72.0378 105.575ZM18.3337 75.8977L71.4653 103.742L71.5731 103.536L18.4417 75.6919L18.3337 75.8977Z" fill="black"/>
<path d="M24.5413 62.6001L21.815 67.8019L112.186 115.166L114.912 109.964L24.5413 62.6001Z" fill="black"/>
<path d="M112.48 116.063L111.879 115.748L20.9019 68.0708L24.2587 61.6656L24.8602 61.9809L115.837 109.658L112.48 116.063ZM22.7356 67.4984L111.907 114.23L114.003 110.231L24.8311 63.4994L22.7356 67.4984Z" fill="black"/>
<path d="M16.5318 77.8806L15.7934 79.2894L76.1015 110.897L76.8399 109.488L16.5318 77.8806Z" fill="black"/>
<path d="M76.3954 111.796L75.7938 111.481L14.8814 79.559L16.2504 76.947L77.7643 109.184L76.3954 111.796ZM16.715 78.9865L75.8229 109.962L75.9307 109.757L16.8229 78.7805L16.715 78.9865Z" fill="black"/>
<path d="M14.9129 80.9694L14.1746 82.3783L77.5391 115.588L78.2775 114.179L14.9129 80.9694Z" fill="black"/>
<path d="M77.8334 116.486L77.2318 116.171L13.2631 82.6477L14.6316 80.0358L79.2025 113.875L77.8334 116.486ZM15.0964 82.0752L77.261 114.653L77.3688 114.447L15.2044 81.8695L15.0964 82.0752Z" fill="black"/>
<path d="M132.643 164.321H15.019C7.09921 164.321 0.678955 157.9 0.678955 149.981V84.1904C0.678955 76.2706 7.09921 69.8503 15.019 69.8503H132.643C140.562 69.8503 146.983 76.2706 146.983 84.1904V149.981C146.983 157.9 140.562 164.321 132.643 164.321Z" fill="#101014"/>
<path d="M132.643 165H15.0191C6.73745 165 0 158.262 0 149.981V84.1907C0 75.9091 6.73759 69.1715 15.0191 69.1715H132.643C140.924 69.1715 147.662 75.9091 147.662 84.1907V149.981C147.662 158.262 140.924 165 132.643 165ZM15.0191 70.5296C7.48655 70.5296 1.35824 76.6579 1.35824 84.1906V149.981C1.35824 157.513 7.48655 163.642 15.0191 163.642H132.643C140.175 163.642 146.304 157.513 146.304 149.981V84.1906C146.304 76.6579 140.175 70.5296 132.643 70.5296H15.0191Z" fill="white"/>
<path d="M127.963 160.775H125.115C124.88 160.775 124.689 160.585 124.689 160.35C124.689 160.114 124.88 159.924 125.115 159.924H127.963C128.67 159.924 129.379 159.865 130.07 159.747C130.301 159.709 130.521 159.864 130.56 160.096C130.6 160.328 130.444 160.548 130.212 160.587C129.474 160.712 128.717 160.775 127.963 160.775ZM120.077 160.775H115.04C114.805 160.775 114.615 160.585 114.615 160.35C114.615 160.114 114.805 159.924 115.04 159.924H120.077C120.313 159.924 120.503 160.114 120.503 160.35C120.503 160.585 120.313 160.775 120.077 160.775ZM110.004 160.775H104.966C104.731 160.775 104.541 160.585 104.541 160.35C104.541 160.114 104.731 159.924 104.966 159.924H110.004C110.239 159.924 110.429 160.114 110.429 160.35C110.429 160.585 110.239 160.775 110.004 160.775ZM99.9296 160.775H94.8925C94.6574 160.775 94.4668 160.585 94.4668 160.35C94.4668 160.114 94.6574 159.924 94.8925 159.924H99.9296C100.165 159.924 100.355 160.114 100.355 160.35C100.355 160.585 100.165 160.775 99.9296 160.775ZM89.8555 160.775H84.8184C84.5833 160.775 84.3927 160.585 84.3927 160.35C84.3927 160.114 84.5833 159.924 84.8184 159.924H89.8555C90.0906 159.924 90.2812 160.114 90.2812 160.35C90.2812 160.585 90.0906 160.775 89.8555 160.775ZM79.7815 160.775H74.7445C74.5093 160.775 74.3187 160.585 74.3187 160.35C74.3187 160.114 74.5093 159.924 74.7445 159.924H79.7815C80.0167 159.924 80.2073 160.114 80.2073 160.35C80.2073 160.585 80.0165 160.775 79.7815 160.775ZM69.7074 160.775H64.6704C64.4352 160.775 64.2447 160.585 64.2447 160.35C64.2447 160.114 64.4352 159.924 64.6704 159.924H69.7074C69.9426 159.924 70.1332 160.114 70.1332 160.35C70.1332 160.585 69.9426 160.775 69.7074 160.775ZM59.6335 160.775H54.5964C54.3613 160.775 54.1707 160.585 54.1707 160.35C54.1707 160.114 54.3613 159.924 54.5964 159.924H59.6335C59.8687 159.924 60.0592 160.114 60.0592 160.35C60.0592 160.585 59.8685 160.775 59.6335 160.775ZM49.5594 160.775H44.5224C44.2872 160.775 44.0966 160.585 44.0966 160.35C44.0966 160.114 44.2872 159.924 44.5224 159.924H49.5594C49.7946 159.924 49.9851 160.114 49.9851 160.35C49.9851 160.585 49.7946 160.775 49.5594 160.775ZM39.4853 160.775H34.4483C34.2131 160.775 34.0225 160.585 34.0225 160.35C34.0225 160.114 34.2131 159.924 34.4483 159.924H39.4853C39.7205 159.924 39.911 160.114 39.911 160.35C39.911 160.585 39.7205 160.775 39.4853 160.775ZM29.4114 160.775H24.3743C24.1392 160.775 23.9486 160.585 23.9486 160.35C23.9486 160.114 24.1392 159.924 24.3743 159.924H29.4114C29.6465 159.924 29.8371 160.114 29.8371 160.35C29.8371 160.585 29.6465 160.775 29.4114 160.775ZM19.3373 160.775H14.3002C14.0651 160.775 13.8745 160.585 13.8745 160.35C13.8745 160.114 14.0651 159.924 14.3002 159.924H19.3373C19.5724 159.924 19.763 160.114 19.763 160.35C19.763 160.585 19.5724 160.775 19.3373 160.775ZM134.818 158.813C134.676 158.813 134.537 158.743 134.456 158.613C134.332 158.414 134.392 158.151 134.592 158.027C135.978 157.159 137.167 156.046 138.125 154.718C138.262 154.527 138.528 154.484 138.719 154.621C138.91 154.759 138.953 155.025 138.815 155.216C137.793 156.634 136.524 157.822 135.043 158.749C134.973 158.793 134.895 158.813 134.818 158.813ZM140.555 150.843C140.522 150.843 140.489 150.839 140.456 150.831C140.227 150.777 140.086 150.547 140.14 150.319C140.366 149.37 140.481 148.39 140.481 147.405V145.409C140.481 145.174 140.671 144.983 140.907 144.983C141.142 144.983 141.332 145.174 141.332 145.409V147.405C141.332 148.456 141.21 149.503 140.968 150.516C140.922 150.712 140.747 150.843 140.555 150.843ZM140.907 140.798C140.672 140.798 140.481 140.607 140.481 140.372V135.335C140.481 135.1 140.672 134.909 140.907 134.909C141.142 134.909 141.332 135.1 141.332 135.335V140.372C141.332 140.607 141.142 140.798 140.907 140.798ZM140.907 130.724C140.672 130.724 140.481 130.533 140.481 130.298V125.261C140.481 125.026 140.672 124.835 140.907 124.835C141.142 124.835 141.332 125.026 141.332 125.261V130.298C141.332 130.533 141.142 130.724 140.907 130.724ZM140.907 120.65C140.672 120.65 140.481 120.459 140.481 120.224V115.187C140.481 114.952 140.672 114.761 140.907 114.761C141.142 114.761 141.332 114.952 141.332 115.187V120.224C141.332 120.459 141.142 120.65 140.907 120.65ZM140.907 110.576C140.672 110.576 140.481 110.385 140.481 110.15V105.113C140.481 104.878 140.672 104.687 140.907 104.687C141.142 104.687 141.332 104.878 141.332 105.113V110.15C141.332 110.385 141.142 110.576 140.907 110.576ZM140.907 100.501C140.672 100.501 140.481 100.311 140.481 100.076V95.0387C140.481 94.8036 140.672 94.613 140.907 94.613C141.142 94.613 141.332 94.8036 141.332 95.0387V100.076C141.332 100.311 141.142 100.501 140.907 100.501ZM140.907 90.4275C140.672 90.4275 140.481 90.237 140.481 90.0018V88.0196C140.481 87.0304 140.365 86.0456 140.137 85.0928C140.082 84.8641 140.223 84.6343 140.452 84.5795C140.68 84.5245 140.91 84.6657 140.965 84.8944C141.209 85.9121 141.332 86.9636 141.332 88.0196V90.0018C141.332 90.237 141.142 90.4275 140.907 90.4275ZM138.462 80.8726C138.33 80.8726 138.2 80.8114 138.116 80.6962C137.157 79.3689 135.967 78.2568 134.579 77.391C134.38 77.2665 134.319 77.004 134.444 76.8045C134.568 76.6048 134.831 76.5443 135.03 76.6686C136.512 77.5932 137.783 78.7805 138.806 80.1977C138.944 80.3883 138.901 80.6545 138.711 80.7921C138.636 80.8464 138.548 80.8726 138.462 80.8726ZM130.127 75.6814C130.103 75.6814 130.08 75.6793 130.056 75.6753C129.369 75.5597 128.665 75.5012 127.963 75.5012H125.1C124.865 75.5012 124.674 75.3107 124.674 75.0755C124.674 74.8404 124.865 74.6498 125.1 74.6498H127.963C128.712 74.6498 129.464 74.7124 130.197 74.8357C130.429 74.8747 130.585 75.0943 130.546 75.3262C130.511 75.5342 130.331 75.6814 130.127 75.6814ZM120.063 75.5012H115.026C114.791 75.5012 114.6 75.3107 114.6 75.0755C114.6 74.8404 114.791 74.6498 115.026 74.6498H120.063C120.298 74.6498 120.489 74.8404 120.489 75.0755C120.489 75.3107 120.298 75.5012 120.063 75.5012ZM109.989 75.5012H104.952C104.717 75.5012 104.526 75.3107 104.526 75.0755C104.526 74.8404 104.717 74.6498 104.952 74.6498H109.989C110.224 74.6498 110.415 74.8404 110.415 75.0755C110.415 75.3107 110.224 75.5012 109.989 75.5012ZM99.9152 75.5012H94.8781C94.643 75.5012 94.4524 75.3107 94.4524 75.0755C94.4524 74.8404 94.643 74.6498 94.8781 74.6498H99.9152C100.15 74.6498 100.341 74.8404 100.341 75.0755C100.341 75.3107 100.15 75.5012 99.9152 75.5012ZM89.8411 75.5012H84.804C84.5689 75.5012 84.3783 75.3107 84.3783 75.0755C84.3783 74.8404 84.5689 74.6498 84.804 74.6498H89.8411C90.0762 74.6498 90.2668 74.8404 90.2668 75.0755C90.2668 75.3107 90.0762 75.5012 89.8411 75.5012ZM79.7671 75.5012H74.7301C74.4949 75.5012 74.3043 75.3107 74.3043 75.0755C74.3043 74.8404 74.4949 74.6498 74.7301 74.6498H79.7671C80.0023 74.6498 80.1929 74.8404 80.1929 75.0755C80.1929 75.3107 80.0023 75.5012 79.7671 75.5012ZM69.693 75.5012H64.656C64.4208 75.5012 64.2303 75.3107 64.2303 75.0755C64.2303 74.8404 64.4208 74.6498 64.656 74.6498H69.693C69.9282 74.6498 70.1188 74.8404 70.1188 75.0755C70.1188 75.3107 69.9282 75.5012 69.693 75.5012ZM59.619 75.5012H54.5819C54.3467 75.5012 54.1562 75.3107 54.1562 75.0755C54.1562 74.8404 54.3467 74.6498 54.5819 74.6498H59.619C59.8541 74.6498 60.0447 74.8404 60.0447 75.0755C60.0447 75.3107 59.8541 75.5012 59.619 75.5012ZM49.545 75.5012H44.508C44.2728 75.5012 44.0822 75.3107 44.0822 75.0755C44.0822 74.8404 44.2728 74.6498 44.508 74.6498H49.545C49.7802 74.6498 49.9707 74.8404 49.9707 75.0755C49.9707 75.3107 49.78 75.5012 49.545 75.5012ZM39.4709 75.5012H34.4339C34.1987 75.5012 34.0081 75.3107 34.0081 75.0755C34.0081 74.8404 34.1987 74.6498 34.4339 74.6498H39.4709C39.7061 74.6498 39.8966 74.8404 39.8966 75.0755C39.8966 75.3107 39.7061 75.5012 39.4709 75.5012ZM29.3968 75.5012H24.3598C24.1246 75.5012 23.9341 75.3107 23.9341 75.0755C23.9341 74.8404 24.1246 74.6498 24.3598 74.6498H29.3968C29.632 74.6498 29.8226 74.8404 29.8226 75.0755C29.8227 75.3107 29.632 75.5012 29.3968 75.5012ZM19.3229 75.5012H14.2858C14.0507 75.5012 13.8601 75.3107 13.8601 75.0755C13.8601 74.8404 14.0507 74.6498 14.2858 74.6498H19.3229C19.558 74.6498 19.7486 74.8404 19.7486 75.0755C19.7486 75.3107 19.558 75.5012 19.3229 75.5012Z" fill="white"/>
<path d="M127.963 161.454H125.115C124.506 161.454 124.01 160.959 124.01 160.35C124.01 159.741 124.506 159.245 125.115 159.245H127.963C128.632 159.245 129.303 159.189 129.956 159.078C130.559 158.979 131.129 159.384 131.23 159.983C131.279 160.274 131.212 160.566 131.042 160.807C130.871 161.048 130.616 161.207 130.325 161.257C129.551 161.388 128.756 161.454 127.963 161.454ZM120.077 161.454H115.04C114.431 161.454 113.936 160.959 113.936 160.35C113.936 159.741 114.431 159.245 115.04 159.245H120.077C120.687 159.245 121.182 159.741 121.182 160.35C121.182 160.959 120.687 161.454 120.077 161.454ZM110.004 161.454H104.966C104.357 161.454 103.862 160.959 103.862 160.35C103.862 159.741 104.357 159.245 104.966 159.245H110.004C110.613 159.245 111.108 159.741 111.108 160.35C111.108 160.959 110.613 161.454 110.004 161.454ZM99.9296 161.454H94.8925C94.2834 161.454 93.7877 160.959 93.7877 160.35C93.7877 159.741 94.2834 159.245 94.8925 159.245H99.9296C100.539 159.245 101.034 159.741 101.034 160.35C101.034 160.959 100.539 161.454 99.9296 161.454ZM89.8555 161.454H84.8186C84.2094 161.454 83.7137 160.959 83.7137 160.35C83.7137 159.741 84.2094 159.245 84.8186 159.245H89.8555C90.4647 159.245 90.9604 159.741 90.9604 160.35C90.9604 160.959 90.4647 161.454 89.8555 161.454ZM79.7816 161.454H74.7445C74.1353 161.454 73.6398 160.959 73.6398 160.35C73.6398 159.741 74.1353 159.245 74.7445 159.245H79.7816C80.3907 159.245 80.8864 159.741 80.8864 160.35C80.8864 160.959 80.3907 161.454 79.7816 161.454ZM69.7075 161.454H64.6704C64.0613 161.454 63.5656 160.959 63.5656 160.35C63.5656 159.741 64.0613 159.245 64.6704 159.245H69.7075C70.3166 159.245 70.8122 159.741 70.8122 160.35C70.8123 160.959 70.3168 161.454 69.7075 161.454ZM59.6334 161.454H54.5965C53.9873 161.454 53.4916 160.959 53.4916 160.35C53.4916 159.741 53.9873 159.245 54.5965 159.245H59.6334C60.2425 159.245 60.7382 159.741 60.7382 160.35C60.7384 160.959 60.2425 161.454 59.6334 161.454ZM49.5594 161.454H44.5225C43.9132 161.454 43.4177 160.959 43.4177 160.35C43.4177 159.741 43.9134 159.245 44.5225 159.245H49.5594C50.1686 159.245 50.6643 159.741 50.6643 160.35C50.6643 160.959 50.1686 161.454 49.5594 161.454ZM39.4853 161.454H34.4483C33.839 161.454 33.3435 160.959 33.3435 160.35C33.3435 159.741 33.8391 159.245 34.4483 159.245H39.4853C40.0946 159.245 40.5902 159.741 40.5902 160.35C40.5903 160.959 40.0946 161.454 39.4853 161.454ZM29.4114 161.454H24.3742C23.7649 161.454 23.2695 160.959 23.2695 160.35C23.2695 159.741 23.7651 159.245 24.3742 159.245H29.4114C30.0205 159.245 30.5161 159.741 30.5161 160.35C30.5162 160.959 30.0207 161.454 29.4114 161.454ZM19.3373 161.454H14.3003C13.6911 161.454 13.1954 160.959 13.1954 160.35C13.1954 159.741 13.6911 159.245 14.3003 159.245H19.3373C19.9466 159.245 20.4421 159.741 20.4421 160.35C20.4421 160.959 19.9466 161.454 19.3373 161.454ZM134.818 159.493C134.434 159.493 134.084 159.299 133.881 158.974C133.558 158.457 133.715 157.774 134.231 157.451C135.543 156.63 136.668 155.577 137.574 154.32C137.746 154.081 138.002 153.923 138.293 153.876C138.585 153.829 138.877 153.898 139.116 154.07C139.356 154.243 139.513 154.498 139.561 154.79C139.608 155.081 139.539 155.373 139.366 155.613C138.293 157.102 136.959 158.351 135.403 159.324C135.227 159.434 135.025 159.493 134.818 159.493ZM140.555 151.522C140.468 151.522 140.381 151.512 140.297 151.492C139.706 151.351 139.339 150.754 139.48 150.161C139.694 149.264 139.802 148.337 139.802 147.406V145.409C139.802 144.8 140.298 144.304 140.907 144.304C141.516 144.304 142.012 144.8 142.012 145.409V147.406C142.012 148.509 141.883 149.609 141.629 150.674C141.51 151.173 141.068 151.522 140.555 151.522ZM140.907 141.477C140.297 141.477 139.802 140.981 139.802 140.372V135.335C139.802 134.726 140.298 134.23 140.907 134.23C141.516 134.23 142.012 134.726 142.012 135.335V140.372C142.012 140.981 141.516 141.477 140.907 141.477ZM140.907 131.403C140.297 131.403 139.802 130.907 139.802 130.298V125.261C139.802 124.652 140.298 124.156 140.907 124.156C141.516 124.156 142.012 124.652 142.012 125.261V130.298C142.012 130.907 141.516 131.403 140.907 131.403ZM140.907 121.329C140.297 121.329 139.802 120.833 139.802 120.224V115.187C139.802 114.578 140.298 114.082 140.907 114.082C141.516 114.082 142.012 114.578 142.012 115.187V120.224C142.012 120.833 141.516 121.329 140.907 121.329ZM140.907 111.255C140.297 111.255 139.802 110.759 139.802 110.15V105.113C139.802 104.504 140.298 104.008 140.907 104.008C141.516 104.008 142.012 104.504 142.012 105.113V110.15C142.012 110.759 141.516 111.255 140.907 111.255ZM140.907 101.181C140.297 101.181 139.802 100.685 139.802 100.076V95.0389C139.802 94.4298 140.298 93.9341 140.907 93.9341C141.516 93.9341 142.012 94.4298 142.012 95.0389V100.076C142.012 100.685 141.516 101.181 140.907 101.181ZM140.907 91.1067C140.297 91.1067 139.802 90.611 139.802 90.0019V88.0198C139.802 87.0841 139.693 86.1527 139.477 85.251C139.408 84.9641 139.455 84.6675 139.61 84.4159C139.764 84.1644 140.007 83.988 140.294 83.9192C140.58 83.8498 140.877 83.8974 141.129 84.0519C141.38 84.2063 141.557 84.4492 141.626 84.736C141.882 85.8056 142.012 86.9103 142.012 88.0198V90.0019C142.012 90.611 141.516 91.1067 140.907 91.1067ZM138.462 81.5518C138.108 81.5518 137.773 81.3805 137.566 81.0937C136.658 79.838 135.533 78.7862 134.22 77.9674C133.703 77.6447 133.545 76.9619 133.868 76.445C134.19 75.9282 134.873 75.7703 135.389 76.0923C136.946 77.0638 138.281 78.3111 139.357 79.7999C139.53 80.0392 139.599 80.3314 139.552 80.6227C139.505 80.9141 139.348 81.1698 139.108 81.3425C138.92 81.4793 138.696 81.5518 138.462 81.5518ZM130.127 76.3605C130.066 76.3605 130.005 76.3554 129.945 76.3454C129.294 76.2358 128.628 76.1804 127.963 76.1804H125.1C124.491 76.1804 123.995 75.6847 123.995 75.0755C123.995 74.4662 124.491 73.9708 125.1 73.9708H127.963C128.75 73.9708 129.54 74.0367 130.31 74.1662C130.91 74.2673 131.317 74.8382 131.216 75.4388C131.126 75.9729 130.668 76.3605 130.127 76.3605ZM120.063 76.1804H115.026C114.417 76.1804 113.921 75.6847 113.921 75.0755C113.921 74.4662 114.417 73.9708 115.026 73.9708H120.063C120.673 73.9708 121.168 74.4664 121.168 75.0755C121.168 75.6847 120.673 76.1804 120.063 76.1804ZM109.989 76.1804H104.952C104.343 76.1804 103.847 75.6847 103.847 75.0755C103.847 74.4662 104.343 73.9708 104.952 73.9708H109.989C110.598 73.9708 111.094 74.4664 111.094 75.0755C111.094 75.6847 110.598 76.1804 109.989 76.1804ZM99.9152 76.1804H94.8783C94.2691 76.1804 93.7734 75.6847 93.7734 75.0755C93.7734 74.4662 94.2691 73.9708 94.8783 73.9708H99.9152C100.524 73.9708 101.02 74.4664 101.02 75.0755C101.02 75.6847 100.524 76.1804 99.9152 76.1804ZM89.8411 76.1804H84.804C84.1948 76.1804 83.6992 75.6847 83.6992 75.0755C83.6992 74.4662 84.1948 73.9708 84.804 73.9708H89.8411C90.4504 73.9708 90.946 74.4664 90.946 75.0755C90.9461 75.6847 90.4504 76.1804 89.8411 76.1804ZM79.7672 76.1804H74.7301C74.1209 76.1804 73.6253 75.6847 73.6253 75.0755C73.6253 74.4662 74.1209 73.9708 74.7301 73.9708H79.7672C80.3764 73.9708 80.8719 74.4664 80.8719 75.0755C80.872 75.6847 80.3764 76.1804 79.7672 76.1804ZM69.6931 76.1804H64.6562C64.047 76.1804 63.5513 75.6847 63.5513 75.0755C63.5513 74.4662 64.047 73.9708 64.6562 73.9708H69.6931C70.3024 73.9708 70.7979 74.4664 70.7979 75.0755C70.7979 75.6847 70.3022 76.1804 69.6931 76.1804ZM59.619 76.1804H54.5821C53.9729 76.1804 53.4772 75.6847 53.4772 75.0755C53.4772 74.4662 53.9729 73.9708 54.5821 73.9708H59.619C60.2283 73.9708 60.7238 74.4664 60.7238 75.0755C60.7238 75.6847 60.2281 76.1804 59.619 76.1804ZM49.5449 76.1804H44.5078C43.8987 76.1804 43.4031 75.6847 43.4031 75.0755C43.4031 74.4662 43.8987 73.9708 44.5078 73.9708H49.5449C50.1542 73.9708 50.6497 74.4664 50.6497 75.0755C50.6499 75.6847 50.1542 76.1804 49.5449 76.1804ZM39.4709 76.1804H34.4339C33.8247 76.1804 33.3292 75.6847 33.3292 75.0755C33.3292 74.4662 33.8247 73.9708 34.4339 73.9708H39.4709C40.0801 73.9708 40.5756 74.4664 40.5756 75.0755C40.5758 75.6847 40.0802 76.1804 39.4709 76.1804ZM29.397 76.1804H24.3599C23.7508 76.1804 23.2551 75.6847 23.2551 75.0755C23.2551 74.4662 23.7508 73.9708 24.3599 73.9708H29.397C30.0063 73.9708 30.5017 74.4664 30.5017 75.0755C30.5017 75.6847 30.0061 76.1804 29.397 76.1804ZM19.3229 76.1804H14.286C13.6767 76.1804 13.1812 75.6847 13.1812 75.0755C13.1812 74.4662 13.6768 73.9708 14.286 73.9708H19.3229C19.9321 73.9708 20.4277 74.4664 20.4277 75.0755C20.4277 75.6847 19.9321 76.1804 19.3229 76.1804Z" fill="white"/>
<path d="M149.195 130.253H132.979C125.707 130.253 119.812 124.358 119.812 117.086C119.812 109.814 125.707 103.918 132.979 103.918H149.195C151.321 103.918 153.044 105.641 153.044 107.767V126.405C153.044 128.53 151.321 130.253 149.195 130.253Z" fill="white"/>
<path d="M149.196 130.932H132.979C125.344 130.932 119.133 124.721 119.133 117.086C119.133 109.451 125.344 103.239 132.979 103.239H149.196C151.692 103.239 153.723 105.27 153.723 107.767V126.405C153.723 128.901 151.692 130.932 149.196 130.932ZM132.979 104.597C126.093 104.597 120.491 110.2 120.491 117.086C120.491 123.972 126.093 129.574 132.979 129.574H149.196C150.943 129.574 152.365 128.152 152.365 126.405V107.767C152.365 106.019 150.943 104.597 149.196 104.597L132.979 104.597Z" fill="black"/>
<path d="M136.532 122.102C139.303 122.102 141.548 119.856 141.548 117.086C141.548 114.315 139.303 112.07 136.532 112.07C133.762 112.07 131.516 114.315 131.516 117.086C131.516 119.856 133.762 122.102 136.532 122.102Z" fill="white"/>
<path d="M136.532 122.781C133.392 122.781 130.837 120.226 130.837 117.086C130.837 113.945 133.392 111.391 136.532 111.391C139.673 111.391 142.228 113.945 142.228 117.086C142.228 120.226 139.673 122.781 136.532 122.781ZM136.532 112.749C134.141 112.749 132.196 114.694 132.196 117.086C132.196 119.477 134.141 121.422 136.532 121.422C138.924 121.422 140.869 119.477 140.869 117.086C140.869 114.694 138.924 112.749 136.532 112.749Z" fill="black"/>
</svg>
