<svg width="189" height="164" viewBox="0 0 189 164" fill="none" xmlns="http://www.w3.org/2000/svg">
<path d="M102.231 33.1188C102.034 38.798 96.3595 41.8774 91.8727 39.588C89.8942 38.5781 88.4614 36.5649 88.0211 34.3411C87.1218 34.2309 86.4214 33.4489 86.4214 32.4889C86.4214 31.454 87.2328 30.6149 88.2343 30.6149C89.2354 30.6149 90.0472 31.454 90.0472 32.4889C90.0472 33.3352 89.5012 34.0418 88.7567 34.2751C89.1693 36.2526 90.4487 38.0356 92.2077 38.9336C94.3351 40.0194 97.0398 39.7589 98.9383 38.2859C100.495 37.0779 101.431 35.1048 101.5 33.1001C100.697 32.9069 100.097 32.1668 100.097 31.2782C100.097 30.2433 100.909 29.4042 101.91 29.4042C102.911 29.4042 103.723 30.2433 103.723 31.2782C103.722 32.1994 103.078 32.9613 102.231 33.1188Z" fill="white"/>
<path d="M117.031 49.2031C118.065 49.2031 118.908 50.0454 118.908 51.0803C118.908 52.1152 118.065 52.957 117.031 52.957C115.997 52.957 115.154 52.1152 115.154 51.0803C115.154 50.0454 115.996 49.2031 117.031 49.2031Z" fill="white"/>
<path d="M103.815 47.4897C104.814 47.4897 105.628 48.303 105.628 49.3027C105.628 50.3024 104.814 51.1156 103.815 51.1156C102.816 51.1156 102.002 50.3024 102.002 49.3027C102.002 48.303 102.815 47.4897 103.815 47.4897Z" fill="white"/>
<path d="M186.867 138.611C178.833 140.216 170.612 141.612 162.434 142.761C160.982 142.965 159.59 141.847 159.28 140.343C156.421 126.467 154.505 112.363 153.584 98.422C153.534 97.6627 153.795 96.9334 154.299 96.4203C158.545 92.1071 162.936 87.813 167.352 83.6567C168.304 82.7623 169.811 82.7739 170.784 83.6804C171.552 84.3937 172.329 85.1012 173.106 85.8073C175.832 78.623 177.828 70.6928 175.451 63.1284C174.329 59.5614 171.723 56.4713 168.722 55.096C167.443 59.0292 164.184 61.207 161.478 61.1076C158.527 61.0045 156.799 58.4056 157.447 56.553C157.792 55.5631 158.727 54.9943 159.399 54.6526C162.103 53.2795 165.39 53.081 168.243 54.107C170.051 46.6573 164.537 39.4475 157.365 36.3355C146.314 31.5391 132.892 34.4218 124.618 42.9426C124.605 43.1902 124.585 43.4351 124.559 43.6778L133.96 45.0982C134.121 45.1231 134.274 45.2864 134.274 45.4617V71.8981C142.977 73.8538 148.417 75.2541 152.26 76.2056C152.459 76.2516 152.574 76.4804 152.537 76.6441C152.536 76.6473 152.535 76.6504 152.534 76.6539C148.217 95.3868 145.634 113.134 145.52 113.752C145.507 113.828 145.459 113.959 145.352 114.026C141.667 116.377 138.112 118.947 134.778 121.665C134.517 121.93 134.342 121.787 134.269 121.783C134.26 121.778 134.257 121.768 134.249 121.762C115.768 120.903 97.0152 120.728 78.4974 121.242C77.9679 122.444 77.4429 123.657 76.9259 124.858C76.4708 127.185 76.6926 128.961 77.5838 130.137C78.6848 131.592 80.5013 131.608 80.2377 131.578C93.2868 131.579 121.422 133.662 136.178 135.149C139.205 135.454 143.305 135.162 146.095 136.817C148.012 137.95 147.549 139.433 146.813 141.211C145.185 145.133 143.862 147.94 139.812 149.349C141.372 151.778 139.126 155.069 136.073 154.548C135.781 157.125 135.837 158.351 134.786 159.902C134.764 162.136 132.913 164 130.604 164C127.958 164 125.842 161.526 126.633 158.979C126.326 158.436 126.084 157.846 125.94 157.215C123.819 147.867 124.192 149.521 124.165 149.335C105.108 148.069 86.4036 147.552 68.5861 147.67C66.0488 155.575 66.3454 155.98 65.0651 157.519C65.0495 159.755 63.1639 161.461 60.9976 161.463C58.1868 161.46 56.1553 158.658 57.1929 156.164C56.5233 154.794 56.5407 153.581 56.5233 153.469C56.0745 146.269 56.0545 146.805 56.1878 146.634C54.846 145.764 54.1679 144.431 53.6746 142.903V142.902C52.0164 137.76 53.1187 132.48 57.1443 126.286C58.2613 124.578 58.8452 123.867 59.261 123.218C59.6054 122.681 59.8721 122.284 60.0938 121.985C58.5579 122.061 53.9105 122.313 54.0403 122.313C53.8762 122.313 53.7312 122.205 53.6866 122.045C48.8349 104.655 43.0937 85.2395 37.1316 66.334C37.0593 66.1087 37.2204 65.8719 37.4581 65.8567C41.5087 65.5966 39.5039 65.8794 44.4239 64.8414C43.538 61.4475 42.4914 58.1245 40.5371 55.1964L38.014 57.0655C37.8877 57.1583 37.7169 57.1628 37.5844 57.0713C35.7947 55.8169 33.2412 52.6862 32.4387 50.4089C31.5666 47.9282 32.0261 45.3377 34.4359 43.8553C25.0224 31.1537 20.9014 26.174 14.4388 17.8873C11.6365 18.9397 1.39461 22.6016 0.120117 19.8979C0.120117 19.8974 0.120117 19.897 0.119217 19.897C-1.09013 17.3172 7.24823 12.3071 9.49834 10.8939C14.3982 7.97557 20.7354 4.90823 26.5802 2.76609H26.5806C29.5088 1.68877 39.1475 -1.62303 40.3752 0.967883C41.4476 3.25501 34.7535 7.68115 31.4653 9.68099C34.9489 15.0252 38.423 20.4649 42.0788 26.3024C43.5875 28.7078 45.6297 30.8196 47.9851 32.4108C50.1263 33.8615 53.0728 33.7348 55.1012 35.7556C56.8548 37.5092 57.4275 39.8873 58.7078 43.4967C60.8442 41.7003 64.9206 41.6405 68.3475 45.0683C68.9671 31.4682 69.1049 28.4678 69.1906 27.754L69.1518 27.7527C69.2062 26.4385 70.358 25.47 71.322 25.47C118.524 20.6906 95.2233 23.05 101.944 22.3692C102.022 22.3621 102.095 22.3773 102.161 22.4143L103.673 23.2614C109.062 24.0051 108.79 23.9172 108.934 24.0095C110.379 24.2745 111.503 25.4963 111.639 27.0737C117.426 25.9081 122.551 30.7313 123.277 36.8686C124.167 38.4295 124.575 40.0899 124.628 41.9001C133.144 33.5836 146.564 30.8477 157.659 35.6619C165.203 38.9358 170.903 46.5497 168.929 54.3827C172.155 55.8209 174.959 59.1109 176.152 62.908C178.605 70.7097 176.561 78.8425 173.691 86.3418C176.726 89.083 179.831 91.7658 182.96 94.3474C183.508 94.8006 183.844 95.4657 183.881 96.2022C183.738 101.557 186.867 128.015 188.767 135.637C188.769 135.643 188.77 135.65 188.772 135.657C189.038 137.045 188.202 138.343 186.867 138.611ZM159.732 55.3083C158.843 55.7598 158.338 56.2327 158.14 56.7961C157.648 58.2035 159.103 60.2903 161.505 60.3742C163.861 60.4581 166.866 58.4975 168.044 54.8172C165.366 53.8371 162.272 54.0174 159.732 55.3083ZM122.543 37.0631C120.29 33.2918 116.038 31.8536 112.165 34.3018L112.718 41.8894L121.897 43.2763C122.525 41.1279 122.749 39.0197 122.543 37.0631ZM103.583 40.5092L107.333 41.0757C107.699 38.1088 109.002 35.6191 111.402 33.9373L110.969 27.9989C106.331 29.3934 103.039 34.0872 103.583 40.5092ZM74.889 26.3671C75.2454 69.9228 75.4649 67.3649 75.121 67.5804L76.7171 69.1167C77.5696 69.2278 78.4225 69.3371 79.2736 69.4509L76.8531 29.7436C76.7925 28.8354 77.1195 27.8999 77.806 27.2169C77.7079 27.204 78.1977 27.3374 74.9604 26.3689L74.889 26.3662C74.889 26.3667 74.889 26.3667 74.889 26.3671ZM58.5361 52.2383C58.7168 53.9362 57.2901 54.8721 56.3297 54.3707C55.6878 56.3803 53.1562 56.5998 52.276 54.7882C51.7216 55.1781 50.8766 55.1799 50.2807 54.8038C49.1222 54.0392 48.743 52.2856 47.8004 49.378H47.0077C47.0938 49.5247 47.1919 49.6648 47.2727 49.8143C47.3601 49.9749 47.3159 50.1751 47.1687 50.284L45.8728 51.244C48.7898 54.0017 51.3401 58.1098 53.1807 63.0432C58.9465 61.89 66.4186 60.4786 67.6324 60.2582C67.6886 59.0859 67.7493 57.8127 67.8126 56.4695C67.1189 55.2107 66.2821 54.0932 65.3203 53.1296C62.7753 55.0585 62.8382 55.1201 62.6129 55.1201C61.6364 55.1201 61.1337 54.0513 60.6586 53.4642C60.3031 53.0226 59.9493 52.5769 59.5978 52.1339C59.3208 52.3271 59.0741 52.4221 58.5361 52.2383ZM46.5121 46.3191H44.6563C45.3656 47.0266 46.0053 47.8086 46.562 48.6433H47.5515C47.2695 47.8425 46.9225 47.0226 46.5121 46.3191ZM42.1903 44.3434C43.2788 45.0263 43.6767 45.439 43.8458 45.5844H46.0339C44.3632 43.3441 41.7991 43.1483 42.1903 44.3434ZM46.8511 95.616C52.2274 95.7329 58.9657 95.927 66.5908 96.2473C66.3588 94.586 66.113 92.923 65.8534 91.2702C57.9004 90.8692 50.8923 90.6153 45.3134 90.4561C45.7029 91.7756 46.583 94.7355 46.8511 95.616ZM67.3366 96.2794C74.3796 96.5805 82.1576 96.9896 90.3136 97.5445C90.2221 95.9698 90.1177 94.3871 90.0004 92.8097C81.6839 92.1642 73.7711 91.6766 66.6019 91.3095C66.8602 92.96 67.1055 94.6204 67.3366 96.2794ZM65.0941 121.73C63.7705 123.438 62.5094 125.379 61.2439 127.667C59.4711 130.852 57.2638 134.817 58.0057 138.955C58.6525 142.528 62.0736 143.681 65.6749 143.636C85.7309 143.428 106.431 144.003 127.41 145.476C128.517 145.551 129.597 145.135 130.362 144.325C131.96 142.643 133.564 140.96 135.183 139.285C135.349 139.112 135.245 138.806 135.002 138.784C97.7972 135.417 76.4499 135.961 75.8325 135.662C71.8957 133.774 71.0512 131.118 71.0352 129.221C71.0294 128.493 71.1864 127.531 71.4005 127.066C71.8466 124.651 72.1174 123.176 72.4448 121.436C68.5844 121.564 65.6896 121.705 65.0941 121.73ZM90.6994 120.273C90.6553 120.209 90.6258 120.134 90.6303 120.05C90.9145 114.405 90.8119 106.489 90.3551 98.2837C82.2228 97.7296 74.467 97.3206 67.4374 97.0195C68.6102 105.596 69.4025 114.066 69.7143 120.799C77.0699 120.516 83.2399 120.358 90.6994 120.273ZM110.492 120.309C118.39 120.425 126.279 120.658 134.117 121.02C134.645 114.933 135.308 108.931 136.095 102.953C128.261 101.817 120.186 100.871 112.165 100.084C110.824 107.042 109.979 114.297 110.492 120.309ZM147.766 96.0925C144.268 98.1494 139.742 100.626 136.826 103.029C135.083 116.264 135.233 118.922 135.048 120.497C138.022 118.084 141.218 115.605 144.818 113.488C145.721 107.532 146.663 101.993 147.766 96.0925ZM151.655 77.1549C148.326 78.3634 146.927 78.3518 140.368 80.7808C139.362 86.141 138.465 91.5401 137.67 96.9526C140.915 94.7154 145.271 92.6138 148.786 90.771C150.035 84.4526 151.53 77.6795 151.655 77.1549ZM136.964 101.976C140.092 99.5559 144.563 97.1475 147.942 95.1365C148.164 94.0404 148.362 92.857 148.592 91.7011C145.134 93.4993 140.62 95.6999 137.527 97.9473C137.248 99.8771 137.187 100.317 136.964 101.976ZM133.539 45.8293H126.847C126.921 45.9025 127.711 46.6894 127.638 46.6162C127.842 47.0003 127.796 44.3211 126.658 75.0226L129.826 77.7094C130.712 77.8785 131.509 78.0377 133.539 78.4432C133.539 71.3013 133.539 56.5717 133.539 45.8293ZM139.406 80.7286C132.487 79.2176 125.497 77.8049 118.451 76.4831C117.34 79.8074 115.213 86.5282 113.413 94.2523C121.244 95.1146 129.146 96.1308 136.874 97.3304C137.818 90.8424 138.526 86.9293 138.779 85.4183L139.406 80.7286ZM117.72 76.3528C107.909 74.6568 98.0462 73.1124 88.1473 71.7523C89.2612 77.4176 90.1142 84.6881 90.6838 92.1254C97.8017 92.6834 105.203 93.3584 112.679 94.1725C114.471 86.4586 116.591 79.7373 117.72 76.3528ZM136.17 102.22C136.445 99.7817 136.607 98.6147 136.719 98.049C128.987 96.8499 121.081 95.8346 113.245 94.9732C112.918 96.4088 112.604 97.876 112.309 99.3592C120.307 100.146 128.358 101.087 136.17 102.22ZM112.512 94.8934C105.113 94.0882 97.7883 93.4204 90.74 92.8668C90.8565 94.4424 90.9604 96.0229 91.0514 97.5949C97.7165 98.0544 104.621 98.6107 111.578 99.2869C111.871 97.801 112.185 96.332 112.512 94.8934ZM89.9433 92.0683C89.3674 84.5908 88.5047 77.2892 87.3765 71.6425C78.8499 70.4787 70.3009 69.4522 61.748 68.5426C63.5903 74.6768 65.1967 82.4839 66.4846 90.5676C73.668 90.9343 81.6009 91.4219 89.9433 92.0683ZM60.1233 48.6433H62.2721C62.8369 48.6433 63.2959 48.1807 63.2959 47.6128V47.35C63.2959 46.7813 62.8369 46.3191 62.2721 46.3191H59.5973C59.7972 47.0498 59.9979 47.8925 60.1233 48.6433ZM65.9073 52.6768C66.6331 53.4129 67.296 54.2248 67.8759 55.1237C67.938 53.7961 68.0013 52.4177 68.0655 51.0134L65.9073 52.6768ZM125.848 76.9461L126.997 47.1935L123.91 46.75C123.593 47.7596 123.206 48.6772 122.822 49.4641C122.609 49.8981 121.948 49.5792 122.162 49.142C122.567 48.3105 122.903 47.4741 123.167 46.6434L121.521 46.407C121.388 46.6983 121.254 46.982 121.12 47.2488C120.903 47.6806 120.246 47.3523 120.464 46.9187C120.569 46.7117 120.653 46.5038 120.75 46.2959L108.093 44.4776C108.183 45.1383 108.309 45.803 108.498 46.4668C108.553 46.6617 108.44 46.8651 108.245 46.9209C108.05 46.9767 107.848 46.8629 107.792 46.6684C107.573 45.9016 107.428 45.1325 107.336 44.3688L104.006 43.8906C103.82 44.0605 103.567 43.9999 103.453 43.8112L94.5564 42.5331V71.6563C114.918 74.7982 125.379 76.8636 125.848 76.9461ZM108.058 41.1855L111.973 41.777L111.465 34.7979C109.458 36.3685 108.376 38.5731 108.058 41.1855ZM109.754 120.298C109.25 114.25 110.093 106.981 111.433 100.011C104.54 99.3418 97.6996 98.7905 91.0925 98.3341C91.5466 106.536 91.6474 114.443 91.3637 120.086C91.3605 120.153 91.3347 120.211 91.3003 120.264C97.4453 120.2 103.602 120.214 109.754 120.298ZM127.02 158.114C128.84 155.155 133.553 155.518 134.616 158.701C135.249 157.265 134.934 157.04 135.887 150.089C133.441 150.24 130.622 149.948 128.346 149.704C127.187 149.579 127.007 149.51 124.981 149.624C126.692 156.976 126.55 157.053 127.02 158.114ZM57.6528 155.376C59.6277 152.752 63.9936 153.437 64.9201 156.488C65.6861 155.268 65.3515 155.37 67.8139 147.676C65.0031 147.718 60.1567 148.19 57.4039 147.231C57.2237 147.231 57.0443 147.231 56.8659 147.23C57.32 154.182 57.2032 154.198 57.6528 155.376ZM57.7608 126.687C53.8655 132.68 52.7895 137.761 54.3745 142.677C55.4371 145.961 57.0024 146.738 60.3584 147.023C63.8557 147.32 85.8071 145.991 125.349 148.676C129.334 148.928 134.811 150.088 139.105 148.812C143.378 147.53 144.581 144.677 146.294 140.548C146.863 139.172 147.051 138.235 145.722 137.449C143.12 135.905 139.082 136.181 136.107 135.88C121.034 134.359 92.9437 132.313 80.2225 132.313C80.2082 132.313 80.1939 132.312 80.1792 132.31C79.713 132.273 78.1049 132.04 76.9995 130.581C75.9721 129.223 75.7071 127.237 76.2143 124.677C76.2326 124.584 77.6463 121.354 77.6847 121.267C76.1862 121.309 74.6918 121.355 73.1965 121.411C72.8428 123.289 72.1205 127.237 72.0911 127.297C72.0144 127.478 70.1519 132.079 76.0787 134.965C95.7095 135.248 115.557 136.287 135.069 138.053C135.924 138.131 136.309 139.177 135.712 139.796C134.094 141.47 132.491 143.151 130.896 144.831C129.981 145.801 128.692 146.303 127.359 146.209C106.965 144.778 86.2911 144.158 65.6821 144.372C61.6628 144.413 57.9977 143.028 57.2834 139.087C56.4957 134.689 58.7729 130.598 60.6024 127.311C61.7743 125.193 62.9448 123.361 64.1368 121.779C64.0498 121.783 61.2019 121.919 61.1274 121.923C61.0712 121.997 61.0106 121.85 59.8806 123.616C59.4751 124.245 58.8238 125.06 57.7608 126.687ZM54.3151 121.562C59.1691 121.275 63.5667 121.043 68.9809 120.827C68.6682 114.078 67.8715 105.581 66.6929 96.9869C59.1196 96.6679 52.4304 96.4743 47.0621 96.3566C49.5495 104.771 51.9776 113.189 54.3151 121.562ZM45.0797 89.7142C50.6679 89.8726 57.7166 90.1255 65.7351 90.5288C62.9671 73.2123 60.8375 69.0409 61.0396 68.4699C43.7235 66.6432 40.2177 66.6307 39.9206 66.4433C39.272 66.4826 38.6216 66.5187 37.9743 66.5597C40.3934 74.2392 42.7577 81.9718 45.0797 89.7142ZM45.1452 64.691C47.6206 64.1709 50.0625 63.6681 52.4505 63.1882C50.6313 58.3534 48.1269 54.347 45.2733 51.6887L41.1282 54.7592C43.1476 57.7721 44.224 61.1593 45.1452 64.691ZM57.2183 41.4678C55.4308 36.1339 54.2786 35.4755 50.8276 34.4008C49.7226 34.0573 48.5806 33.7014 47.5729 33.0193C45.1341 31.3714 43.0191 29.1842 41.4556 26.6923C36.5321 18.8295 31.4448 10.9109 26.5605 3.55657C21.0049 5.61306 14.9741 8.5198 10.233 11.3128C13.3829 15.3633 32.7336 39.8521 34.9043 43.2495C34.9636 43.3383 35.0225 43.4204 35.0814 43.4953C37.1272 42.5505 39.4366 42.8833 41.4261 43.9031C41.7286 42.1803 45.0988 42.5768 47.0411 45.7593C48.8411 48.6848 49.2176 53.2215 50.6786 54.1864C51.0952 54.4496 51.85 54.4028 52.0378 53.9522C50.9672 48.7954 49.479 47.888 50.2481 47.5454C50.4332 47.462 50.6514 47.5459 50.7339 47.7314C53.3105 53.5075 52.3242 54.2783 53.4297 55.0496C54.4276 55.7455 55.6909 54.8569 55.7052 53.673C54.9508 51.7508 54.3553 49.928 53.6241 48.0732C53.5496 47.8845 53.642 47.6712 53.8307 47.5963C54.0194 47.524 54.2331 47.6146 54.3071 47.8033C54.6859 48.7642 55.0267 49.7094 55.3675 50.6547C55.7034 51.587 56.0393 52.5194 56.4122 53.4669C56.522 53.6453 56.7182 53.8037 56.9529 53.7725C57.5971 53.6788 58.1132 52.7955 57.6167 51.6009C57.5966 51.5522 57.5908 51.5018 57.5917 51.4514C57.3709 51.2315 57.0452 48.3114 55.7712 46.1706C55.6673 45.9961 55.7243 45.7704 55.8988 45.6669C56.0719 45.5634 56.2976 45.6196 56.4024 45.7945C57.5404 47.7078 58.2109 50.9955 58.2077 51.198C58.2149 51.2047 58.2238 51.2083 58.2305 51.2154C58.4428 51.4545 58.9438 51.6258 59.0607 51.6004C60.1701 51.2284 59.0785 47.1707 58.7609 46.0555C58.0476 43.6863 57.8937 43.4886 57.2183 41.4678ZM69.886 27.7826C67.8706 70.3948 68.008 67.6986 68.1164 68.0376C68.2868 68.0582 68.4568 68.08 68.6276 68.1005L74.5821 67.3689C74.5491 67.2494 74.1543 26.4104 74.1614 26.3368C71.1436 26.2494 71.4086 26.1633 71.0445 26.2668C70.3906 26.4653 69.9141 27.0885 69.886 27.7826ZM110.824 26.6709C110.558 25.5918 109.669 24.8049 108.59 24.6974C102.188 25.2242 124.33 23.4019 79.6265 27.0813C78.3868 27.2566 77.5013 28.4134 77.5861 29.6977C77.7279 32.0236 76.9062 18.544 80.0151 69.549C84.6357 70.1722 89.2372 70.84 93.8217 71.543V42.1053C93.8217 41.8774 94.0264 41.7101 94.2414 41.7417L94.2517 41.7431H100.588L99.4572 40.5516C99.2172 40.2995 99.4326 39.8842 99.7779 39.9351L102.843 40.3981C102.343 33.6411 105.89 28.6734 110.915 27.2499C110.906 27.175 110.913 27.0229 110.824 26.6709ZM111.693 27.812L112.106 33.489C115.785 31.3776 119.677 32.3265 122.274 35.4291C121.152 30.7397 116.788 26.7338 111.693 27.812ZM123.37 38.8564C123.339 40.457 123.06 41.9902 122.653 43.3901L123.137 43.4632C123.377 43.1893 123.625 42.9235 123.875 42.6598C123.919 41.3635 123.78 40.076 123.37 38.8564ZM188.051 135.805C186.142 128.136 183.002 101.565 183.147 96.212C183.075 94.8577 182.659 95.4153 173.408 87.0765C173.047 87.999 172.677 88.9148 172.303 89.8244C172.744 90.6845 172.624 91.7944 171.91 92.6027C170.994 93.6399 169.46 93.7822 168.484 92.9199C167.507 92.058 167.459 90.5181 168.375 89.4805C169.286 88.4487 170.807 88.3046 171.784 89.1517C172.137 88.289 172.488 87.4222 172.827 86.5478C171.974 85.7748 171.123 84.9995 170.283 84.2183C169.592 83.5733 168.525 83.5626 167.855 84.192C163.446 88.342 159.061 92.6294 154.822 96.9356C154.464 97.2992 154.281 97.8229 154.317 98.3734C155.236 112.281 157.147 126.352 159.998 140.195C160.234 141.337 161.294 142.18 162.331 142.033C170.495 140.886 178.701 139.492 186.722 137.891C187.654 137.704 188.236 136.789 188.051 135.805Z" fill="white"/>
<path d="M174.817 117.65C173.802 118.048 172.894 117.948 172.645 117.267C172.382 116.558 173.028 115.962 174.086 115.578C175.058 115.224 175.974 115.209 176.251 115.962C176.492 116.636 175.825 117.282 174.817 117.65Z" fill="white"/>
<path d="M165.157 122.498C161.147 118.957 160.771 112.838 164.305 108.828C167.847 104.818 173.965 104.442 177.975 107.977C181.985 111.518 182.361 117.637 178.827 121.647C175.286 125.656 169.167 126.033 165.157 122.498ZM171.687 111.675C171.275 110.553 170.154 110.141 168.628 110.695C166.946 111.306 166.428 112.498 166.804 113.52C167.727 116.053 172.612 114.226 171.687 111.675ZM174.98 110.439L168.422 118.133L168.67 118.821L175.228 111.128L174.98 110.439ZM176.883 115.684C176.478 114.571 175.349 114.145 173.823 114.698C172.141 115.308 171.623 116.494 171.999 117.53C172.361 118.523 173.475 119.098 175.094 118.523C176.691 117.942 177.265 116.742 176.883 115.684Z" fill="white"/>
<path d="M167.443 113.257C167.187 112.54 167.833 111.944 168.891 111.561C169.856 111.213 170.771 111.199 171.049 111.951C171.547 113.344 167.959 114.669 167.443 113.257Z" fill="white"/>
</svg>
