<svg width="162" height="165" viewBox="0 0 162 165" fill="none" xmlns="http://www.w3.org/2000/svg">
<path d="M156.058 111.141C154.567 111.157 153.219 111.59 151.992 112.415C150.396 113.489 148.818 114.587 147.216 115.651C146.723 115.978 146.278 116.543 145.356 116.305C145.722 115.528 146.005 114.937 146.282 114.342C149.987 106.354 151.844 98.016 151.317 89.161C150.685 78.5368 147.098 68.9055 141.816 59.8061C137.79 52.8698 132.961 46.5427 127.517 40.6563C124.646 37.551 121.866 34.3469 119.252 31.0225C114.608 25.1158 112.877 18.624 115.786 11.3204C116.35 9.90328 116.654 8.36964 116.955 6.86384C117.281 5.2314 117.17 3.58629 116.428 2.0653C115.258 -0.33081 112.813 -0.703171 111.042 1.26994C110.477 1.89937 110.127 2.72511 109.689 3.46724C109.265 4.18658 109.115 5.11614 108.093 5.48088C107.447 4.42846 106.899 3.29248 106.13 2.33251C104.376 0.141571 101.596 0.235288 100.023 2.43636C99.4143 3.28868 99.3409 4.69949 98.3277 5.01736C97.117 5.3973 96.3736 4.03967 95.3883 3.51029C93.8926 2.70484 92.3425 1.99311 90.8114 3.16837C89.3486 4.29297 89.3246 5.95704 89.6387 7.65661C90.035 9.79943 91.0697 11.6206 92.3602 13.3239C94.5056 16.1557 95.1249 19.3738 94.9222 22.8527C94.6955 26.7558 93.1606 30.1461 90.8228 33.1476C88.2848 36.4061 85.6089 39.5469 82.5884 42.4078C78.6852 46.1058 74.8213 49.8367 71.4893 54.1148C67.1441 59.6922 63.6108 65.7255 60.4915 72.0273C54.4075 84.3219 52.4572 97.0104 56.9797 110.289C58.3158 114.212 58.003 114.662 53.8782 115.583C52.6763 115.851 51.9937 115.647 51.8759 114.362C51.6581 111.972 49.9383 111.184 47.9588 110.792C46.5505 110.512 45.1017 110.313 43.6719 110.311C42.2434 110.309 41.3492 109.776 40.678 108.538C38.7492 104.976 35.6009 103.143 31.7154 102.414C26.9916 101.53 22.2754 100.611 17.544 99.7725C15.1795 99.3533 12.791 99.0532 10.4088 98.7441C8.2622 98.4668 7.31237 98.8189 7.36809 99.8852C7.45674 101.567 8.86376 101.368 9.95796 101.478C14.0752 101.893 18.1493 102.587 22.2158 103.334C25.3351 103.906 28.4733 104.386 31.5748 105.042C34.2698 105.612 36.6622 106.738 38.1844 109.257C38.8278 110.321 39.2444 111.139 38.2224 112.285C37.1991 113.432 36.7141 114.955 36.2784 116.436C35.3843 119.48 34.4281 122.508 33.6657 125.584C31.1012 135.929 30.1868 146.424 31.162 157.051C31.2595 158.119 30.9492 158.648 30.1248 159.131C27.193 160.845 24.1953 162.187 20.667 162.252C15.0858 162.357 9.51091 162.265 3.93224 162.155C2.82664 162.133 1.03462 161.424 1.00043 163.367C0.968764 165.135 2.71267 164.864 3.89299 164.881C8.50917 164.951 13.1291 164.865 17.7428 164.989C23.1188 165.134 28.0313 163.843 32.3942 160.664C33.5568 159.817 34.7676 159.583 36.1872 159.737C38.2895 159.966 40.4096 160.036 42.5195 159.717C45.5412 159.258 47.513 157.461 48.8592 154.818C49.1822 154.185 48.554 153.088 49.6406 152.901C50.3739 152.774 51.1819 152.898 51.9253 153.058C55.6955 153.869 59.5252 154.274 63.3499 154.609C75.1404 155.645 86.9589 156.151 98.795 155.823C108.828 155.544 118.72 154.459 128.175 150.691C132.083 149.133 135.642 147.172 138.578 144.147C140.719 141.942 142.711 139.574 144.99 137.523C150.533 132.53 155.329 126.94 159.256 120.6C159.97 119.447 160.561 118.237 160.848 116.91C161.614 113.375 159.705 111.103 156.058 111.141ZM115.756 31.581C116.632 32.7676 116.415 33.3046 115.164 33.9353C111.676 35.6931 108.089 36.8316 104.12 36.3251C103.164 36.2035 102.219 36.1072 100.978 35.1599C105.393 34.5812 109.034 32.9829 112.465 30.8363C114.427 29.6078 114.37 29.7003 115.756 31.581ZM94.7424 11.2381C93.6507 9.79056 92.668 8.26197 92.7744 6.05837C94.3384 6.27493 95.0894 7.24501 96.0582 7.83138C98.2808 9.1738 99.6562 8.88888 101.224 6.80811C101.897 5.91527 102.08 4.68174 103.172 3.9282C104.243 4.66274 104.481 5.86206 105.075 6.80556C106.886 9.68545 109.196 9.82984 111.233 7.08673C112.024 6.02039 112.598 4.7932 113.292 3.60274C114.19 4.43226 114.048 5.39475 113.839 6.32052C113.521 7.72247 113.246 9.15481 112.732 10.4896C110.738 15.6706 110.882 20.82 112.698 25.9985C113.415 28.0438 113.391 28.0704 111.606 29.1481C109.296 30.5437 106.871 31.6785 104.271 32.4535C101.922 33.1539 99.7461 32.7955 97.564 31.7887C96.3394 31.2226 96.076 30.5995 96.618 29.3318C98.1314 25.7933 98.367 22.07 97.8262 18.296C97.4501 15.6706 96.3381 13.3531 94.7424 11.2381ZM94.0585 34.1911C94.8171 33.4439 95.2135 34.2987 95.6771 34.7065C99.4789 38.0512 103.9 39.1125 108.825 38.2424C110.13 38.0119 111.413 37.6574 113.383 37.2027C107.527 42.4686 99.9006 41.8873 95.2718 38.6211C94.4841 38.0651 93.8559 37.3281 93.3835 36.4694C92.8377 35.4778 93.4532 34.7888 94.0585 34.1911ZM107.725 44.3175C111.86 44.6544 116.342 49.3124 116.377 53.3625C116.402 56.236 114.604 57.3556 112.057 56.0283C111.557 55.7675 111.04 55.4496 110.674 55.0329C108.358 52.3936 106.847 49.3643 106.37 45.8538C106.227 44.8051 106.496 44.2175 107.725 44.3175ZM103.182 43.8693C102.412 47.4001 101.371 50.4674 99.8348 53.3637C99.1534 54.6492 98.3201 55.8105 97.1372 56.6907C96.1874 57.3986 95.1236 58.118 93.9762 57.4822C92.7895 56.8237 92.9099 55.5281 93.1695 54.3794C94.0547 50.4788 96.1596 47.3507 99.351 44.9672C100.359 44.2137 101.512 43.7895 103.182 43.8693ZM60.4586 80.1718C64.0591 70.3518 69.3794 61.4411 76.0599 53.3828C77.5885 51.5388 79.4147 49.9443 81.0775 48.2093C84.464 44.6734 88.3558 41.6302 91.4522 37.1989C93.4025 39.9774 95.8037 41.4947 98.7633 42.5331C98.3657 43.4209 97.6679 43.7527 97.1385 44.2112C94.9982 46.0627 93.3303 48.2689 92.0981 50.8106C91.3306 52.3949 90.9368 54.0628 90.995 55.8295C91.1065 59.1983 93.6051 60.8547 96.7282 59.5592C98.9457 58.6385 100.509 56.9389 101.683 54.8974C102.493 53.4879 103.183 52.0087 104.032 50.3534C104.903 51.1032 105.173 52.1062 105.638 52.9534C106.615 54.7366 107.694 56.4247 109.322 57.7038C110.645 58.7449 112.105 59.3831 113.815 59.4123C116.69 59.4604 118.577 57.9293 118.942 55.0481C119.551 50.2331 117.478 46.6655 113.563 44.0465C112.614 43.4121 111.577 42.9067 110.228 42.1418C113.596 40.5246 116.355 38.497 118.421 35.8235C119.518 35.921 119.843 36.7088 120.313 37.2736C124.309 42.081 128.867 46.3895 132.662 51.3742C137.875 58.2206 142.33 65.5229 145.38 73.5698C149.974 85.6897 150.429 97.9437 145.79 110.207C145.382 111.283 144.875 112.323 144.431 113.387C142.107 118.953 138.292 122.368 132.011 123.156C127.577 123.712 123.165 124.472 118.652 124.971C118.807 123.845 119.656 123.419 120.221 122.81C121.63 121.292 122.542 119.499 123.163 117.57C124.548 113.259 122.185 110.094 117.621 110.133C114.448 110.161 111.294 110.137 108.12 109.837C100.546 109.12 93.1556 107.276 85.6127 106.399C83.6079 106.165 81.6056 105.858 79.5932 105.764C74.278 105.515 69.3642 106.577 64.8683 109.729C60.9651 112.465 60.8398 112.26 59.3872 107.611C56.4908 98.3338 57.1734 89.1344 60.4586 80.1718ZM42.1826 156.753C41.8102 156.837 41.424 156.865 41.0428 156.905C34.071 157.643 33.5568 157.035 33.572 150.073C33.5961 139.235 35.1272 128.656 38.4618 118.349C40.369 112.456 40.1221 112.56 46.5898 113.079C46.8684 113.102 47.1382 113.227 47.5687 113.35C47.5713 114.464 47.1508 115.228 46.9064 116.04C43.4604 127.454 41.8558 139.066 43.2426 150.987C43.3642 152.033 43.5377 153.08 43.777 154.105C44.238 156.082 44.1266 156.315 42.1826 156.753ZM157.506 117.039C157.305 117.671 156.972 118.274 156.625 118.846C152.906 124.972 148.296 130.336 142.976 135.139C140.56 137.321 138.437 139.826 136.156 142.16C134.255 144.107 132.068 145.692 129.539 146.694C124.001 148.888 118.43 150.975 112.431 151.622C106.025 152.311 99.6258 153.029 94.2941 152.847C80.8483 152.886 68.5765 152.178 56.3528 150.644C53.3994 150.273 50.5018 149.466 47.5067 149.456C45.9642 149.451 45.5855 148.598 45.5348 147.256C45.4082 143.89 45.3867 140.525 45.6184 137.165C45.9958 131.693 46.6987 126.263 48.0614 120.939C48.6756 118.536 48.7174 118.447 51.111 118.393C54.9977 118.304 58.4057 116.953 61.625 114.889C64.0515 113.334 66.5451 111.882 69.0311 110.423C72.99 108.098 77.3466 108.189 81.6563 108.688C87.0918 109.318 92.4894 110.26 97.8718 111.29C104.105 112.483 110.391 113.344 116.771 113.109C117.251 113.092 117.738 113.046 118.211 113.104C120.1 113.332 120.893 114.489 120.322 116.35C119.347 119.532 117.404 121.944 114.38 123.423C111.671 124.748 108.811 125.527 105.804 125.717C101.487 125.99 97.1677 126.231 92.8504 126.489C92.1791 126.53 91.4978 126.529 90.843 126.654C90.0249 126.811 89.4069 127.276 89.4411 128.208C89.474 129.113 90.0363 129.583 90.9051 129.683C91.285 129.728 91.6726 129.714 92.0563 129.705C104.074 129.416 116.052 128.68 127.976 127.043C135.474 126.013 142.352 123.718 148.239 118.805C149.636 117.639 151.209 116.679 152.731 115.673C153.45 115.198 154.212 114.765 155.006 114.44C155.818 114.11 156.725 113.983 157.457 114.63C158.291 115.37 157.755 116.251 157.506 117.039Z" fill="white"/>
<path d="M95.5972 99.0202C96.5863 100.27 98.5569 100.421 99.2788 101.661C100.083 103.042 99.0305 104.823 99.1888 106.447C99.2598 107.175 99.4599 107.798 100.313 107.85C101.156 107.902 101.496 107.367 101.587 106.609C101.714 105.559 101.866 104.511 101.962 103.459C102.045 102.555 102.373 102.009 103.402 102.17C104.343 102.317 104.347 102.954 104.255 103.669C104.143 104.527 104.014 105.383 103.938 106.245C103.866 107.061 103.987 107.86 104.964 108.023C105.985 108.196 106.262 107.447 106.401 106.632C106.434 106.442 106.481 106.249 106.476 106.06C106.404 103.46 107.208 101.786 109.971 100.678C113.303 99.3419 114.798 95.7617 114.357 92.3397C113.937 89.0748 111.663 86.6623 107.998 85.7276C106.606 85.373 105.17 85.1755 103.747 84.9589C102.599 84.7841 101.484 84.5296 100.42 84.0534C99.1775 83.4974 98.4733 82.5362 98.2112 81.2217C97.7173 78.7394 99.8601 74.8603 102.283 73.8535C105.128 72.6707 107.694 73.4495 109.638 76.0419C110.662 77.4059 111.124 78.9345 111.153 80.615C111.166 81.3648 111.402 82.0271 112.231 82.0385C113.169 82.0512 113.558 81.3724 113.568 80.4973C113.574 79.9223 113.555 79.341 113.478 78.7724C113.225 76.9044 112.5 75.1757 111.129 73.9282C109.729 72.6542 109.528 71.2104 109.756 69.5185C109.923 68.2799 110.045 67.035 110.16 65.7901C110.244 64.8934 110.23 63.9107 109.113 63.741C107.874 63.5535 107.832 64.5629 107.742 65.4507C107.588 66.9805 107.402 68.5079 107.232 70.0364C107.185 70.4556 107.026 70.7811 106.546 70.7494C106.088 70.719 105.849 70.3835 105.878 69.9769C105.967 68.732 106.114 67.4922 106.194 66.7019C106.242 66.0573 106.258 65.8661 106.271 65.6748C106.323 64.8922 106.42 63.9803 105.387 63.8474C104.256 63.7017 103.975 64.5718 103.861 65.5115C103.699 66.8463 103.449 68.1735 103.339 69.5121C103.267 70.3936 102.953 70.9394 102.061 71.1471C99.95 71.6397 98.5987 73.1202 97.4083 74.7983C93.2721 80.629 95.6504 86.4229 102.673 87.6147C104.094 87.8553 105.536 87.9984 106.937 88.3239C109.805 88.99 111.439 90.725 111.597 93.1186C111.752 95.459 110.022 97.7931 107.432 98.7353C103.672 100.103 99.2205 98.8543 96.7966 95.7528C96.5002 95.3741 96.2254 94.979 95.9202 94.6079C95.3515 93.919 94.5955 93.7265 93.8736 94.2065C93.1264 94.7042 93.0707 95.5451 93.5279 96.2594C94.1459 97.2231 94.8829 98.1172 95.5972 99.0202Z" fill="white"/>
<path d="M129.73 56.6819C134.714 63.0749 138.01 70.3177 140.194 78.0569C142.157 85.016 142.238 92.1055 140.973 99.2179C140.812 100.122 140.333 101.404 141.601 101.682C142.914 101.97 143.261 100.682 143.542 99.6396C143.617 99.3635 143.637 99.0697 143.663 98.7835C143.894 96.1974 144.292 93.6228 144.226 91C144.308 82.1551 141.835 73.9435 137.928 66.0827C135.731 61.6628 133.009 57.6026 129.833 53.8375C129.396 53.3195 128.872 52.6686 128.156 53.1359C127.299 53.6944 128.004 54.2972 128.365 54.8202C128.803 55.4522 129.257 56.0753 129.73 56.6819Z" fill="white"/>
<path d="M61.1399 102.659C62.9293 103.001 64.7302 103.258 66.5615 103.221C69.0589 103.164 71.5348 102.949 73.8524 101.914C74.3755 101.681 74.8757 101.272 74.5958 100.579C74.3083 99.8662 73.7764 99.9929 73.1761 100.231C70.2532 101.394 67.2277 101.519 64.1464 101.079C63.2004 100.944 62.2429 100.855 61.288 100.814C60.8195 100.793 60.2901 100.89 60.19 101.49C60.0735 102.199 60.5206 102.54 61.1399 102.659Z" fill="white"/>
<path d="M140.7 104.623C140.139 104.527 139.849 104.984 139.744 105.471C139.015 108.849 136.968 111.529 135.084 114.292C134.762 114.765 134.323 115.182 134.28 115.784C134.261 116.044 134.334 116.368 134.489 116.568C134.767 116.929 135.186 116.864 135.499 116.61C135.94 116.251 136.396 115.878 136.724 115.423C138.409 113.089 139.924 110.651 140.923 107.932C141.153 107.309 141.293 106.652 141.413 106.226C141.392 105.417 141.45 104.752 140.7 104.623Z" fill="white"/>
<path d="M62.1251 91.1189C64.4186 91.7914 66.7527 92.2283 69.3932 92.2524C70.3785 92.1105 71.6386 92.3296 72.8278 91.8648C73.1989 91.7192 73.5408 91.4571 73.5091 91.048C73.4661 90.4908 73.0406 90.2248 72.5086 90.2983C69.1272 90.7643 65.8687 90.1298 62.6304 89.2573C62.063 89.104 61.4286 89.0077 61.1689 89.6853C60.8473 90.5199 61.4361 90.9163 62.1251 91.1189Z" fill="white"/>
<path d="M62.281 97.9793C63.7969 98.2262 65.3293 98.3732 66.8541 98.5606C68.327 98.6087 69.7391 98.2832 71.1486 97.9818C71.7527 97.8527 72.2352 97.4613 72.0174 96.7572C71.8414 96.1911 71.2854 96.2126 70.8168 96.3076C68.0268 96.8724 65.2647 96.5596 62.5077 96.0758C61.8973 95.9695 61.2767 95.9454 61.1121 96.6597C60.9107 97.5348 61.6072 97.8704 62.281 97.9793Z" fill="white"/>
<path d="M64.6695 78.8002C66.9403 79.9159 69.3795 80.3629 71.8819 80.5048C72.1365 80.5187 72.4442 80.3655 72.6557 80.1983C73.1154 79.8348 73.1876 79.2232 72.6342 79.0712C70.0621 78.3658 67.4608 77.7592 64.8582 77.1715C64.5011 77.0905 64.1503 77.4008 64.1225 77.7896C64.1161 78.286 64.3238 78.6292 64.6695 78.8002Z" fill="white"/>
<path d="M63.6221 86.718C64.6898 87.2601 65.8865 87.0574 67.2112 87.3031C67.6887 87.2753 68.3624 87.2715 69.0248 87.1866C69.5263 87.122 69.9809 86.8472 69.9126 86.2723C69.848 85.7315 69.4262 85.5124 68.8703 85.5175C67.2328 85.5314 65.6117 85.4035 64.0147 84.9919C63.5132 84.8627 63.0409 85.0565 62.9053 85.6213C62.7673 86.1975 63.1941 86.5002 63.6221 86.718Z" fill="white"/>
<path d="M66.3981 75.3682C67.4049 75.6671 68.4396 75.871 69.1728 76.0457C70.1683 76.0495 70.9471 76.0673 70.9421 75.1288C70.9383 74.3626 70.2037 74.412 69.6516 74.3044C68.7106 74.1195 67.7785 73.8877 66.835 73.718C66.3613 73.6332 65.8421 73.6395 65.7142 74.2626C65.6015 74.8097 65.9194 75.2263 66.3981 75.3682Z" fill="white"/>
<path d="M70.7206 70.3608C71.2322 70.3089 71.754 70.3266 71.8807 69.7162C71.9693 69.2856 71.711 68.9841 71.3488 68.817C70.485 68.4193 69.6125 68.0406 68.7323 67.681C68.3156 67.5113 67.9661 67.7367 67.7546 68.0596C67.5241 68.413 67.6279 68.8056 67.937 69.0842C68.7373 69.8061 69.7188 70.148 70.7206 70.3608Z" fill="white"/>
<path d="M72.6202 66.5271C73.028 66.4587 73.2902 66.1649 73.2421 65.7305C73.1673 65.0656 71.3589 63.7371 70.8232 63.8017C70.2533 63.922 70.0215 64.2121 70.076 64.6338C70.1861 65.4848 71.7781 66.6689 72.6202 66.5271Z" fill="white"/>
<path d="M74.7238 63.3649C74.9745 63.2231 75.319 63.1471 75.4254 62.9457C75.8331 62.1795 75.1974 61.735 74.7833 61.2525C74.3641 60.7649 73.9766 60.114 73.1762 60.4509C72.9761 60.5344 72.7354 60.9068 72.7696 61.1005C72.9685 62.2074 73.7106 62.8837 74.7238 63.3649Z" fill="white"/>
<path d="M76.8274 60.2444C77.3188 60.1659 77.5607 59.805 77.4973 59.4605C77.3517 58.6702 76.8971 58.0763 75.9814 58.2143C75.5572 58.2789 75.4495 58.6854 75.5445 59.078C75.7104 59.7695 76.1182 60.2102 76.8274 60.2444Z" fill="white"/>
<path d="M101.218 28.2097C101.37 28.6935 101.765 29.057 102.298 28.9595C102.797 28.8683 103.107 28.4732 103.149 27.9387C103.172 27.6525 103.153 27.3625 103.153 26.9522C102.599 21.6141 101.907 16.1798 99.7689 11.0545C99.5131 10.4429 99.1534 9.86282 98.7659 9.32331C98.6393 9.14728 98.2606 9.05482 98.0136 9.08141C97.5438 9.13333 97.4564 9.56772 97.4589 9.94386C97.4602 10.2199 97.5818 10.5062 97.6932 10.7696C99.8626 15.8911 100.598 21.3077 101.004 26.7926C101.04 27.2688 101.076 27.7589 101.218 28.2097Z" fill="white"/>
<path d="M105.728 28.1908C105.858 28.6733 106.199 29.0444 106.753 29.0039C107.284 28.9646 107.656 28.6163 107.689 28.0946C107.725 27.5272 107.639 26.9497 107.578 26.3798C107.19 22.7476 107.103 19.1066 107.321 15.4631C107.401 14.1257 107.622 12.7985 107.763 11.4637C107.825 10.8773 107.83 10.1896 107.147 10.0326C106.167 9.80843 106.166 10.6759 106.034 11.2978C105.4 14.3157 105.353 17.3881 105.164 20.3237C105.298 22.5564 105.421 24.6625 105.555 26.7673C105.583 27.246 105.605 27.7337 105.728 28.1908Z" fill="white"/>
<path d="M8.5 100.5L2 162.5" stroke="white" stroke-width="3" stroke-linecap="round"/>
</svg>
