<svg width="28" height="26" viewBox="0 0 28 26" fill="none" xmlns="http://www.w3.org/2000/svg">
<path d="M4.7542 5.38966H25.1981C26.4502 5.38966 27.7016 6.64106 27.7016 7.89246V22.4965C27.7016 23.7479 26.4502 25 25.1981 25H3.50352C2.2514 25 1 23.7479 1 22.4958V5.39038C1 3.30399 1.41713 2.67829 3.08567 2.67829L21.0268 1.00903C22.4867 0.926037 22.696 1.42616 22.696 2.05259V5.39038" fill="#EE4D2D"/>
<path d="M4.7542 5.38966H25.1981C26.4502 5.38966 27.7016 6.64106 27.7016 7.89246V22.4965C27.7016 23.7479 26.4502 25 25.1981 25H3.50352C2.2514 25 1 23.7479 1 22.4958V5.39038C1 3.30399 1.41713 2.67829 3.08567 2.67829L21.0268 1.00903C22.4867 0.926037 22.696 1.42616 22.696 2.05259V5.39038" stroke="white" stroke-width="0.5" stroke-linecap="round" stroke-linejoin="round"/>
<path d="M10.6193 20.2397C11.5828 20.9614 12.5455 21.2024 14.4709 21.2024H15.4337C16.2636 21.2024 17.0595 20.8728 17.6464 20.2859C18.2332 19.6991 18.5629 18.9031 18.5629 18.0732C18.5629 17.2433 18.2332 16.4474 17.6464 15.8605C17.0595 15.2737 16.2636 14.944 15.4337 14.944H13.2679C12.438 14.944 11.642 14.6143 11.0552 14.0275C10.4684 13.4406 10.1387 12.6447 10.1387 11.8148C10.1387 10.9849 10.4684 10.1889 11.0552 9.60208C11.642 9.01523 12.438 8.68555 13.2679 8.68555H14.2313C16.3971 8.68555 17.3599 8.92659 18.0823 9.64827" stroke="white" stroke-width="0.9" stroke-linecap="round" stroke-linejoin="round"/>
</svg>
