<svg width="21" height="14" viewBox="0 0 21 14" fill="none" xmlns="http://www.w3.org/2000/svg">
<path d="M4.34165 11.4381C4.50478 10.5394 5.09843 9.77605 5.92757 9.39429L5.93777 9.38986L6.25148 9.262V9.06721C6.25148 8.91293 6.27671 8.75993 6.3277 8.61378L6.34039 8.5774L6.36345 8.54653L6.36457 8.54502L6.36938 8.53846L6.3893 8.51081C6.40693 8.48607 6.43288 8.44901 6.46519 8.40106C6.52986 8.30509 6.61975 8.16588 6.71928 7.99481C6.90711 7.67194 7.12552 7.24195 7.27522 6.77887C6.93999 6.05209 6.636 5.14629 6.636 4.23461C6.636 4.05735 6.64647 3.88606 6.66199 3.71985C6.26962 3.34853 5.76011 3.14062 5.19844 3.14062C3.97711 3.14062 2.94427 4.13239 2.94427 5.77139C2.94427 6.41296 3.20804 7.10141 3.48734 7.64552C3.62529 7.91425 3.7634 8.14089 3.86688 8.30009C3.91855 8.37958 3.9614 8.44199 3.99103 8.48411C4.00584 8.50516 4.01733 8.52111 4.02495 8.53158L4.0334 8.54313L4.0357 8.54622L4.0596 8.5781L4.07241 8.61596C4.12138 8.76069 4.14665 8.91287 4.14665 9.06717V9.33389C4.14665 9.76424 3.89562 10.1558 3.50387 10.3351L3.49438 10.3392L1.68764 11.0774C1.34675 11.2363 1.10316 11.549 1.0315 11.9175L1.00145 12.3022M4.34165 11.4381C4.3416 11.4383 4.3417 11.4378 4.34165 11.4381ZM4.34165 11.4381L4.33388 11.4793L4.33136 11.4927L4.33031 11.5062L4.22681 12.8362H1.49619C1.35718 12.8362 1.22576 12.7788 1.13268 12.6777L1.13163 12.6765C1.03821 12.5763 0.99091 12.4408 1.00145 12.3022M1.00145 12.3022C1.00145 12.3022 1.00144 12.3023 1.00145 12.3022Z" stroke="#B0B4BA"/>
<path d="M17.9968 10.3351L18.0064 10.3393L19.8143 11.0774C20.1552 11.2363 20.3987 11.549 20.4698 11.9173L20.4998 12.3021C20.5104 12.4407 20.4631 12.5762 20.3696 12.6765L20.3682 12.6781C20.2759 12.7788 20.1448 12.8362 20.0057 12.8362H17.2739L17.1709 11.5057L17.17 11.4941L17.1681 11.4826L17.1607 11.4399L17.1602 11.4371C16.9951 10.5369 16.4002 9.77396 15.5401 9.38058L15.5305 9.37643L15.2504 9.26223V9.06717C15.2504 8.9121 15.2242 8.75995 15.1755 8.61596L15.1628 8.57825L15.139 8.54648L15.1378 8.54486L15.133 8.53831L15.113 8.51064C15.0954 8.48589 15.0694 8.4488 15.037 8.40082C14.9723 8.3048 14.8822 8.16552 14.7826 7.99438C14.5946 7.67136 14.376 7.24124 14.2266 6.77818C14.5612 6.05142 14.8646 5.14561 14.8646 4.23457C14.8646 4.05748 14.8542 3.88669 14.8383 3.72076C15.2318 3.34839 15.7413 3.14062 16.3016 3.14062C17.5254 3.14062 18.5576 4.13248 18.5576 5.77139C18.5576 6.413 18.294 7.10146 18.0148 7.64557C17.8769 7.9143 17.7389 8.14095 17.6355 8.30015C17.5838 8.37965 17.541 8.44204 17.5114 8.48415C17.4966 8.5052 17.4851 8.52116 17.4775 8.53164L17.4691 8.54317L17.4671 8.54576L17.4436 8.5772L17.4308 8.61382C17.3797 8.76065 17.3553 8.91368 17.3553 9.06717V9.33389C17.3553 9.76361 17.6045 10.1556 17.9968 10.3351Z" stroke="#B0B4BA"/>
<path d="M15.9417 12.8372H10.7559H5.57031L5.66127 11.6666C5.74955 11.2019 6.05646 10.8077 6.48556 10.6091L8.67401 9.71463L8.68405 9.71027C9.13772 9.50122 9.43062 9.04673 9.43062 8.54696V8.22349C9.43062 8.04299 9.40031 7.86369 9.3421 7.69342L9.32929 7.65596L9.30561 7.62438L9.30264 7.62038L9.29219 7.60611C9.28282 7.59323 9.26876 7.57371 9.25068 7.54801C9.21451 7.49661 9.16231 7.42062 9.09943 7.32388C8.97353 7.1302 8.80551 6.85452 8.63767 6.52751C8.29857 5.86685 7.97496 5.0249 7.97496 4.23558C7.97496 2.22806 9.24334 1 10.7559 1C12.2691 1 13.5368 2.22799 13.5368 4.23558C13.5368 5.02495 13.2135 5.86694 12.8747 6.52759C12.707 6.8546 12.5391 7.13029 12.4133 7.32397C12.3505 7.4207 12.2984 7.4967 12.2622 7.5481C12.2442 7.57379 12.2301 7.59332 12.2207 7.6062L12.2103 7.62046L12.2079 7.62373L12.1843 7.65524L12.1715 7.69165C12.1111 7.86425 12.0824 8.0443 12.0824 8.22349V8.54696C12.0824 9.046 12.3728 9.50099 12.8278 9.71033L12.8377 9.71463L15.0262 10.6091C15.4552 10.8077 15.7623 11.2018 15.8518 11.6668L15.9417 12.8372Z" stroke="#B0B4BA"/>
</svg>
