<svg width="16" height="20" viewBox="0 0 16 20" fill="none" xmlns="http://www.w3.org/2000/svg">
<path d="M11.7209 12H14.6977C15.0431 12 15.3743 11.8659 15.6186 11.6272C15.8628 11.3885 16 11.0648 16 10.7273V7.81818C16 7.48063 15.8628 7.15691 15.6186 6.91823C15.3743 6.67954 15.0431 6.54545 14.6977 6.54545H11.7209C11.3755 6.54545 11.0443 6.67954 10.8 6.91823C10.5558 7.15691 10.4186 7.48063 10.4186 7.81818V8.72727H3.34884V5.45455H4.27907C4.62447 5.45455 4.95572 5.32046 5.19995 5.08177C5.44419 4.84309 5.5814 4.51937 5.5814 4.18182V1.27273C5.5814 0.935179 5.44419 0.611456 5.19995 0.372773C4.95572 0.134091 4.62447 0 4.27907 0H1.30233C0.956927 0 0.625676 0.134091 0.381442 0.372773C0.137209 0.611456 0 0.935179 0 1.27273V4.18182C0 4.51937 0.137209 4.84309 0.381442 5.08177C0.625676 5.32046 0.956927 5.45455 1.30233 5.45455H2.23256V15.8182C2.23256 16.3486 2.44817 16.8573 2.83197 17.2324C3.21576 17.6075 3.7363 17.8182 4.27907 17.8182H10.4186V18.7273C10.4186 19.0648 10.5558 19.3885 10.8 19.6272C11.0443 19.8659 11.3755 20 11.7209 20H14.6977C15.0431 20 15.3743 19.8659 15.6186 19.6272C15.8628 19.3885 16 19.0648 16 18.7273V15.8182C16 15.4806 15.8628 15.1569 15.6186 14.9182C15.3743 14.6795 15.0431 14.5455 14.6977 14.5455H11.7209C11.3755 14.5455 11.0443 14.6795 10.8 14.9182C10.5558 15.1569 10.4186 15.4806 10.4186 15.8182V16.7273H4.27907C4.03236 16.7273 3.79575 16.6315 3.6213 16.461C3.44684 16.2905 3.34884 16.0593 3.34884 15.8182V9.81818H10.4186V10.7273C10.4186 11.0648 10.5558 11.3885 10.8 11.6272C11.0443 11.8659 11.3755 12 11.7209 12ZM1.11628 4.18182V1.27273C1.11628 1.22451 1.13588 1.17826 1.17077 1.14416C1.20566 1.11006 1.25298 1.09091 1.30233 1.09091H4.27907C4.32841 1.09091 4.37573 1.11006 4.41062 1.14416C4.44552 1.17826 4.46512 1.22451 4.46512 1.27273V4.18182C4.46512 4.23004 4.44552 4.27629 4.41062 4.31038C4.37573 4.34448 4.32841 4.36364 4.27907 4.36364H1.30233C1.25298 4.36364 1.20566 4.34448 1.17077 4.31038C1.13588 4.27629 1.11628 4.23004 1.11628 4.18182ZM11.5349 15.8182C11.5349 15.77 11.5545 15.7237 11.5894 15.6896C11.6243 15.6555 11.6716 15.6364 11.7209 15.6364H14.6977C14.747 15.6364 14.7943 15.6555 14.8292 15.6896C14.8641 15.7237 14.8837 15.77 14.8837 15.8182V18.7273C14.8837 18.7755 14.8641 18.8217 14.8292 18.8558C14.7943 18.8899 14.747 18.9091 14.6977 18.9091H11.7209C11.6716 18.9091 11.6243 18.8899 11.5894 18.8558C11.5545 18.8217 11.5349 18.7755 11.5349 18.7273V15.8182ZM11.5349 7.81818C11.5349 7.76996 11.5545 7.72371 11.5894 7.68962C11.6243 7.65552 11.6716 7.63636 11.7209 7.63636H14.6977C14.747 7.63636 14.7943 7.65552 14.8292 7.68962C14.8641 7.72371 14.8837 7.76996 14.8837 7.81818V10.7273C14.8837 10.7755 14.8641 10.8217 14.8292 10.8558C14.7943 10.8899 14.747 10.9091 14.6977 10.9091H11.7209C11.6716 10.9091 11.6243 10.8899 11.5894 10.8558C11.5545 10.8217 11.5349 10.7755 11.5349 10.7273V7.81818Z" fill="#B0B4BA"/>
</svg>
