<svg width="20" height="20" viewBox="0 0 20 20" fill="none" xmlns="http://www.w3.org/2000/svg">
<path fill-rule="evenodd" clip-rule="evenodd" d="M10.052 1.10929e-06H9.948C9.0495 -2.78064e-05 8.3003 -4.70518e-05 7.70552 0.0770228C7.07773 0.158382 6.51093 0.337341 6.05546 0.776348C5.59999 1.21536 5.41432 1.76167 5.32991 2.36677C5.27259 2.77773 5.25637 3.76045 5.25179 4.60305C3.22954 4.66671 2.01536 4.89425 1.17157 5.70754C1.19209e-07 6.83677 0 8.65427 0 12.2892C0 15.924 1.19209e-07 17.7416 1.17157 18.8707C2.34314 20 4.22876 20 7.99998 20H12C15.7712 20 17.6569 20 18.8284 18.8707C20 17.7416 20 15.924 20 12.2892C20 8.65427 20 6.83677 18.8284 5.70754C17.9846 4.89425 16.7705 4.66671 14.7482 4.60305C14.7436 3.76045 14.7274 2.77773 14.6701 2.36677C14.5857 1.76167 14.4 1.21536 13.9445 0.776348C13.4891 0.337341 12.9223 0.158382 12.2945 0.0770228C11.6997 -4.70518e-05 10.9505 -2.78064e-05 10.052 1.10929e-06ZM13.2479 4.58013C13.2434 3.76408 13.229 2.88585 13.1835 2.55942C13.1214 2.11463 13.0142 1.92428 12.8839 1.79867C12.7536 1.67306 12.5561 1.56972 12.0946 1.50992C11.6116 1.44733 10.964 1.44578 10 1.44578C9.036 1.44578 8.3884 1.44733 7.90539 1.50992C7.44393 1.56972 7.24644 1.67306 7.11612 1.79867C6.9858 1.92428 6.87858 2.11463 6.81654 2.55942C6.771 2.88585 6.75661 3.76408 6.75208 4.58013C7.1435 4.57831 7.55885 4.57831 8 4.57831H12C12.4412 4.57831 12.8565 4.57831 13.2479 4.58013ZM10 7.71084C10.4142 7.71084 10.75 8.0345 10.75 8.43373V8.44357C11.8388 8.70795 12.75 9.53542 12.75 10.6827C12.75 11.0819 12.4142 11.4056 12 11.4056C11.5858 11.4056 11.25 11.0819 11.25 10.6827C11.25 10.3126 10.8242 9.79923 10 9.79923C9.1758 9.79923 8.75 10.3126 8.75 10.6827C8.75 11.0529 9.1758 11.5663 10 11.5663C11.3849 11.5663 12.75 12.4914 12.75 13.8956C12.75 15.0429 11.8388 15.8704 10.75 16.1347V16.1446C10.75 16.5438 10.4142 16.8675 10 16.8675C9.5858 16.8675 9.25 16.5438 9.25 16.1446V16.1347C8.1612 15.8704 7.25 15.0429 7.25 13.8956C7.25 13.4964 7.58579 13.1727 8 13.1727C8.4142 13.1727 8.75 13.4964 8.75 13.8956C8.75 14.2657 9.1758 14.7791 10 14.7791C10.8242 14.7791 11.25 14.2657 11.25 13.8956C11.25 13.5254 10.8242 13.012 10 13.012C8.6151 13.012 7.25 12.087 7.25 10.6827C7.25 9.53542 8.1612 8.70795 9.25 8.44357V8.43373C9.25 8.0345 9.5858 7.71084 10 7.71084Z" fill="#B0B4BA"/>
</svg>
