<svg width="20" height="16" viewBox="0 0 20 16" fill="none" xmlns="http://www.w3.org/2000/svg">
<path fill-rule="evenodd" clip-rule="evenodd" d="M7.35143 0.2125C7.41788 0.144964 7.49675 0.091434 7.58353 0.0549719C7.6703 0.0185099 7.76328 -0.000169635 7.85714 1.16073e-06H12.1429C12.3323 1.16073e-06 12.514 0.0766733 12.6479 0.21315C12.7819 0.349627 12.8571 0.534729 12.8571 0.727737V3.64305C12.8571 3.83605 12.7819 4.02116 12.6479 4.15763C12.514 4.29411 12.3323 4.37078 12.1429 4.37078H10.71V7.26717H17.1386C17.328 7.26717 17.5097 7.34384 17.6436 7.48032C17.7776 7.6168 17.8529 7.8019 17.8529 7.99491V11.6336H19.2857C19.4752 11.6336 19.6568 11.7103 19.7908 11.8467C19.9247 11.9832 20 12.1683 20 12.3613V15.2723C20 15.4653 19.9247 15.6504 19.7908 15.7869C19.6568 15.9233 19.4752 16 19.2857 16H15C14.8106 16 14.6289 15.9233 14.4949 15.7869C14.361 15.6504 14.2857 15.4653 14.2857 15.2723V12.3613C14.2857 12.1683 14.361 11.9832 14.4949 11.8467C14.6289 11.7103 14.8106 11.6336 15 11.6336H16.4243V8.72264H10.71V11.6336H12.1429C12.3323 11.6336 12.514 11.7103 12.6479 11.8467C12.7819 11.9832 12.8571 12.1683 12.8571 12.3613V15.2723C12.8571 15.4653 12.7819 15.6504 12.6479 15.7869C12.514 15.9233 12.3323 16 12.1429 16H7.85714C7.6677 16 7.48602 15.9233 7.35207 15.7869C7.21811 15.6504 7.14286 15.4653 7.14286 15.2723V12.3613C7.14286 12.1683 7.21811 11.9832 7.35207 11.8467C7.48602 11.7103 7.6677 11.6336 7.85714 11.6336H9.28143V8.72264H3.56714V11.6336H5C5.18944 11.6336 5.37112 11.7103 5.50508 11.8467C5.63903 11.9832 5.71429 12.1683 5.71429 12.3613V15.2723C5.71429 15.4653 5.63903 15.6504 5.50508 15.7869C5.37112 15.9233 5.18944 16 5 16H0.714286C0.524845 16 0.343164 15.9233 0.209209 15.7869C0.0752549 15.6504 0 15.4653 0 15.2723V12.3613C0 12.1683 0.0752549 11.9832 0.209209 11.8467C0.343164 11.7103 0.524845 11.6336 0.714286 11.6336H2.13857V7.99491C2.13857 7.8019 2.21383 7.6168 2.34778 7.48032C2.48174 7.34384 2.66342 7.26717 2.85286 7.26717H9.28143V4.37078H7.85714C7.6677 4.37078 7.48602 4.29411 7.35207 4.15763C7.21811 4.02116 7.14286 3.83605 7.14286 3.64305V0.729192C7.14269 0.633561 7.16102 0.538833 7.19681 0.450425C7.2326 0.362017 7.28514 0.280207 7.35143 0.2125Z" fill="#B0B4BA"/>
</svg>
