<svg width="14" height="11" viewBox="0 0 14 11" fill="none" xmlns="http://www.w3.org/2000/svg">
<path fill-rule="evenodd" clip-rule="evenodd" d="M0 9.5C0 10.328 0.67 11 1.498 11H12.502C13.33 11 14 10.328 14 9.5V7.466C14.0001 7.35613 13.964 7.24929 13.8973 7.16199C13.8306 7.07469 13.737 7.01178 13.631 6.983C13.3056 6.89438 13.0183 6.70118 12.8135 6.43319C12.6088 6.16519 12.4978 5.83728 12.4978 5.5C12.4978 5.16272 12.6088 4.83481 12.8135 4.56681C13.0183 4.29882 13.3056 4.10562 13.631 4.017C13.737 3.98822 13.8306 3.92531 13.8973 3.83801C13.964 3.75071 14.0001 3.64386 14 3.534V1.5C14 0.672 13.33 0 12.502 0H1.498C0.67 0 0 0.672 0 1.5V3.53C0.000132956 3.64039 0.0367946 3.74763 0.104267 3.835C0.17174 3.92238 0.266229 3.98496 0.373 4.013C0.701875 4.099 0.992962 4.2916 1.20071 4.56066C1.40846 4.82972 1.52116 5.16007 1.52116 5.5C1.52116 5.83993 1.40846 6.17028 1.20071 6.43934C0.992962 6.7084 0.701875 6.901 0.373 6.987C0.266229 7.01504 0.17174 7.07762 0.104267 7.165C0.0367946 7.25237 0.000132956 7.35961 0 7.47L0 9.5ZM4.962 8.442L9.962 3.442C10.0736 3.32377 10.1347 3.16671 10.1324 3.00416C10.1301 2.8416 10.0646 2.68634 9.94967 2.57132C9.83478 2.45629 9.67959 2.39057 9.51704 2.38808C9.35448 2.38559 9.19736 2.44655 9.079 2.558L4.079 7.558C4.01812 7.61533 3.96936 7.6843 3.93562 7.76081C3.90188 7.83733 3.88383 7.91983 3.88255 8.00345C3.88127 8.08706 3.89679 8.17009 3.92818 8.2476C3.95956 8.32511 4.00619 8.39553 4.06529 8.4547C4.12439 8.51386 4.19476 8.56057 4.27223 8.59204C4.34971 8.62352 4.43271 8.63913 4.51633 8.63794C4.59995 8.63676 4.68247 8.61881 4.75903 8.58515C4.83558 8.55149 4.9046 8.50282 4.962 8.442ZM4.021 3.5C4.021 3.23478 4.12636 2.98043 4.31389 2.79289C4.50143 2.60536 4.75578 2.5 5.021 2.5C5.28622 2.5 5.54057 2.60536 5.72811 2.79289C5.91564 2.98043 6.021 3.23478 6.021 3.5C6.021 3.76522 5.91564 4.01957 5.72811 4.20711C5.54057 4.39464 5.28622 4.5 5.021 4.5C4.75578 4.5 4.50143 4.39464 4.31389 4.20711C4.12636 4.01957 4.021 3.76522 4.021 3.5ZM8.021 7.5C8.021 7.23478 8.12636 6.98043 8.31389 6.79289C8.50143 6.60536 8.75578 6.5 9.021 6.5C9.28622 6.5 9.54057 6.60536 9.72811 6.79289C9.91564 6.98043 10.021 7.23478 10.021 7.5C10.021 7.76522 9.91564 8.01957 9.72811 8.20711C9.54057 8.39464 9.28622 8.5 9.021 8.5C8.75578 8.5 8.50143 8.39464 8.31389 8.20711C8.12636 8.01957 8.021 7.76522 8.021 7.5Z" fill="#B0B4BA"/>
</svg>
