<svg width="221" height="216" viewBox="0 0 221 216" fill="none" xmlns="http://www.w3.org/2000/svg">
<g opacity="0.37">
<path d="M217.324 105.58C210.363 138.541 192.813 168.321 173.572 188.146C153.975 208.141 132.688 218.181 110.017 215.602C87.3465 213.022 66.0589 199.041 46.4621 180.199C27.2215 161.186 9.67174 137.313 2.71084 111.01C-4.25006 84.7075 2.22124 60.2262 21.8181 40.2307C41.0581 20.4057 73.4242 5.0671 110.017 0.988005C146.61 -3.09109 178.976 5.59186 198.216 24.6047C217.813 43.4466 224.285 72.619 217.324 105.58Z" fill="#1E2B3B"/>
</g>
<path d="M58.3999 75.6859C60.4643 73.4425 63.8496 73.1466 66.275 74.9975L77.4699 83.8902L75.6602 102.655L58.4862 83.7214C56.3431 81.4911 56.3051 77.9618 58.3999 75.6859Z" fill="#1E2B3B"/>
<path d="M205.293 208.847H137.994L124.84 193.461L112.211 188.715C109.613 187.739 107.151 186.44 104.881 184.846C103.202 183.674 101.641 182.346 100.215 180.883C99.8397 180.508 99.4833 180.119 99.1316 179.725L98.0015 178.454L97.4715 177.859L95.6989 175.856L95.3425 175.458L95.319 175.429L91 170.566L102.625 161.694L132.962 138.542L133.9 137.824L134.809 137.13L135.987 136.234L136.863 135.564L137.242 135.686L134.809 130.213L126.373 108.238C125.369 105.626 125.14 102.784 125.702 100.041L126.42 96.5705C126.992 93.7756 130.65 93.0581 132.24 95.4263L132.455 95.7498L132.737 96.1625L134.809 99.2576L137.834 103.769L138.547 104.833L138.824 105.241L151.72 124.473C152.301 125.341 152.756 126.293 153.066 127.292L157.755 142.354L160.002 149.576L160.575 152.355C162.357 160.984 166.562 168.926 172.697 175.25L205.293 208.847Z" fill="#1E2B3B"/>
<path opacity="0.43" d="M130.444 180.932C134.678 180.932 138.121 177.49 138.121 173.26V134.728L135.096 130.262V173.26C135.096 175.82 133.009 177.907 130.444 177.907L98.2878 178.503L103.109 183.331" fill="#1E2B3B"/>
<path d="M127.724 177.746H83.4138C79.3442 177.746 76.0447 174.447 76.0447 170.377V60.1074C76.0447 56.0378 79.3438 52.7383 83.4138 52.7383H127.724C131.794 52.7383 135.093 56.0374 135.093 60.1074V170.378C135.093 174.447 131.794 177.746 127.724 177.746Z" fill="#475569"/>
<path d="M136.482 63.355C137.195 63.3554 137.772 63.9327 137.772 64.6455L137.771 69.7548C137.771 70.4671 137.193 71.0449 136.48 71.0444L136.482 63.355Z" fill="black"/>
<path d="M73.9009 65.2218C73.1886 65.2218 72.6109 64.6441 72.6113 63.9313L72.6123 60.0821C72.6123 59.3698 73.19 58.792 73.9028 58.7925L73.9009 65.2218Z" fill="black"/>
<path d="M73.898 75.6232C73.1857 75.6232 72.6079 75.0454 72.6084 74.3326L72.6093 70.4835C72.6093 69.7711 73.1871 69.1934 73.8999 69.1938L73.898 75.6232Z" fill="black"/>
<path d="M128.706 51.5234H81.6799C77.3909 51.5234 73.9047 55.0096 73.9047 59.2987V171.499C73.9047 175.783 77.3909 179.27 81.6799 179.27H128.706C131.214 179.27 133.441 178.082 134.861 176.235C134.933 176.149 134.995 176.063 135.056 175.973C135.954 174.71 136.481 173.166 136.481 171.499V59.2987C136.482 55.0096 132.995 51.5234 128.706 51.5234ZM133.418 171.499C133.418 174.092 131.304 176.206 128.706 176.206H81.6799C79.0819 176.206 76.9683 174.092 76.9683 171.499V59.2987C76.9683 56.7007 79.0819 54.5871 81.6799 54.5871H88.9847V54.6771C88.9847 57.0425 90.9037 58.9568 93.2691 58.9568H117.122C119.483 58.9568 121.401 57.0425 121.401 54.6771V54.5871H128.706C131.304 54.5871 133.417 56.7007 133.417 59.2987V171.499H133.418Z" fill="black"/>
<path opacity="0.69" d="M92.3575 55.5869H117.676" stroke="#4F5566" stroke-width="1.0128" stroke-miterlimit="10" stroke-linecap="round"/>
<g opacity="0.51">
<path opacity="0.29" d="M103.612 102.868H82.2464C81.4224 102.868 80.7542 102.2 80.7542 101.376V66.4312C80.7542 65.6072 81.4219 64.939 82.2464 64.939H103.612C104.436 64.939 105.104 65.6067 105.104 66.4312V101.376C105.104 102.2 104.436 102.868 103.612 102.868Z" fill="#94A3BB"/>
<path opacity="0.29" d="M128.388 67.8992H109.795C109.021 67.8992 108.394 67.2722 108.394 66.4984C108.394 65.7246 109.021 65.0977 109.795 65.0977H128.388C129.162 65.0977 129.789 65.7246 129.789 66.4984C129.789 67.2722 129.162 67.8992 128.388 67.8992Z" fill="#94A3BB"/>
<path opacity="0.29" d="M128.388 73.7283H109.795C109.021 73.7283 108.394 73.1013 108.394 72.3275C108.394 71.5537 109.021 70.9268 109.795 70.9268H128.388C129.162 70.9268 129.789 71.5537 129.789 72.3275C129.789 73.1013 129.162 73.7283 128.388 73.7283Z" fill="#94A3BB"/>
<path opacity="0.29" d="M128.388 79.5574H109.795C109.021 79.5574 108.394 78.9304 108.394 78.1566C108.394 77.3828 109.021 76.7559 109.795 76.7559H128.388C129.162 76.7559 129.789 77.3828 129.789 78.1566C129.789 78.9304 129.162 79.5574 128.388 79.5574Z" fill="#94A3BB"/>
<path opacity="0.29" d="M128.388 85.3865H109.795C109.021 85.3865 108.394 84.7595 108.394 83.9857C108.394 83.2119 109.021 82.585 109.795 82.585H128.388C129.162 82.585 129.789 83.2119 129.789 83.9857C129.789 84.7595 129.162 85.3865 128.388 85.3865Z" fill="#94A3BB"/>
<path opacity="0.29" d="M128.388 91.2112H109.795C109.021 91.2112 108.394 90.5842 108.394 89.8104C108.394 89.0367 109.021 88.4097 109.795 88.4097H128.388C129.162 88.4097 129.789 89.0367 129.789 89.8104C129.789 90.5842 129.162 91.2112 128.388 91.2112Z" fill="#94A3BB"/>
<path opacity="0.29" d="M128.388 97.0403H109.795C109.021 97.0403 108.394 96.4133 108.394 95.6395C108.394 94.8658 109.021 94.2388 109.795 94.2388H128.388C129.162 94.2388 129.789 94.8658 129.789 95.6395C129.789 96.4128 129.162 97.0403 128.388 97.0403Z" fill="#94A3BB"/>
<path opacity="0.29" d="M128.388 102.869H109.795C109.021 102.869 108.394 102.242 108.394 101.469C108.394 100.695 109.021 100.068 109.795 100.068H128.388C129.162 100.068 129.789 100.695 129.789 101.469C129.789 102.242 129.162 102.869 128.388 102.869Z" fill="#94A3BB"/>
<path opacity="0.29" d="M128.387 110.347H82.1549C81.3811 110.347 80.7542 109.72 80.7542 108.947C80.7542 108.173 81.3811 107.546 82.1549 107.546H128.387C129.161 107.546 129.788 108.173 129.788 108.947C129.788 109.72 129.161 110.347 128.387 110.347Z" fill="#94A3BB"/>
<path opacity="0.29" d="M128.387 115.762H82.1549C81.3811 115.762 80.7542 115.135 80.7542 114.362C80.7542 113.588 81.3811 112.961 82.1549 112.961H128.387C129.161 112.961 129.788 113.588 129.788 114.362C129.788 115.135 129.161 115.762 128.387 115.762Z" fill="#94A3BB"/>
<path opacity="0.29" d="M128.387 121.17H82.1549C81.3811 121.17 80.7542 120.543 80.7542 119.769C80.7542 118.995 81.3811 118.368 82.1549 118.368H128.387C129.161 118.368 129.788 118.995 129.788 119.769C129.788 120.543 129.161 121.17 128.387 121.17Z" fill="#94A3BB"/>
<path opacity="0.29" d="M128.825 132.862H97.6697C97.1375 132.862 96.7056 132.43 96.7056 131.898C96.7056 131.365 97.137 130.934 97.6697 130.934H128.825C129.357 130.934 129.789 131.365 129.789 131.898C129.789 132.43 129.358 132.862 128.825 132.862Z" fill="#94A3BB"/>
<path opacity="0.29" d="M128.825 136.585H97.6697C97.1375 136.585 96.7056 136.154 96.7056 135.621C96.7056 135.089 97.137 134.657 97.6697 134.657H128.825C129.357 134.657 129.789 135.088 129.789 135.621C129.789 136.153 129.358 136.585 128.825 136.585Z" fill="#94A3BB"/>
<path opacity="0.29" d="M88.5505 137.305C90.4948 135.643 90.7239 132.72 89.0622 130.776C87.4006 128.832 84.4774 128.603 82.5331 130.264C80.5888 131.926 80.3597 134.849 82.0214 136.793C83.683 138.738 86.6062 138.967 88.5505 137.305Z" fill="#94A3BB"/>
<path opacity="0.29" d="M128.825 146.132H97.6697C97.1375 146.132 96.7056 145.701 96.7056 145.168C96.7056 144.636 97.137 144.204 97.6697 144.204H128.825C129.357 144.204 129.789 144.635 129.789 145.168C129.789 145.701 129.358 146.132 128.825 146.132Z" fill="#94A3BB"/>
<path opacity="0.29" d="M128.825 149.859H97.6697C97.1375 149.859 96.7056 149.428 96.7056 148.895C96.7056 148.363 97.137 147.931 97.6697 147.931H128.825C129.357 147.931 129.789 148.362 129.789 148.895C129.789 149.428 129.358 149.859 128.825 149.859Z" fill="#94A3BB"/>
<path opacity="0.29" d="M85.6438 151.536C88.2014 151.536 90.2747 149.463 90.2747 146.905C90.2747 144.348 88.2014 142.274 85.6438 142.274C83.0863 142.274 81.0129 144.348 81.0129 146.905C81.0129 149.463 83.0863 151.536 85.6438 151.536Z" fill="#94A3BB"/>
<path opacity="0.29" d="M128.246 159.409H97.0904C96.5581 159.409 96.1262 158.978 96.1262 158.445C96.1262 157.913 96.5577 157.481 97.0904 157.481H128.246C128.778 157.481 129.21 157.912 129.21 158.445C129.21 158.978 128.778 159.409 128.246 159.409Z" fill="#94A3BB"/>
<path opacity="0.29" d="M128.246 163.129H97.0904C96.5581 163.129 96.1262 162.697 96.1262 162.164C96.1262 161.632 96.5577 161.2 97.0904 161.2H128.246C128.778 161.2 129.21 161.632 129.21 162.164C129.21 162.697 128.778 163.129 128.246 163.129Z" fill="#94A3BB"/>
<path opacity="0.29" d="M87.8187 165.081C90.1839 164.108 91.3126 161.402 90.3397 159.036C89.3668 156.671 86.6607 155.542 84.2955 156.515C81.9302 157.488 80.8015 160.194 81.7744 162.56C82.7473 164.925 85.4534 166.053 87.8187 165.081Z" fill="#94A3BB"/>
</g>
<g filter="url(#filter0_d_519_2959)">
<path d="M84.0132 132.275L87.0132 135.275" stroke="#96A0AA" stroke-miterlimit="10" stroke-linecap="round"/>
<path d="M87.0132 132.275L84.0132 135.275" stroke="#96A0AA" stroke-miterlimit="10" stroke-linecap="round"/>
</g>
<g filter="url(#filter1_d_519_2959)">
<path d="M84.0132 145.276L87.0132 148.276" stroke="#96A0AA" stroke-miterlimit="10" stroke-linecap="round"/>
<path d="M87.0132 145.276L84.0132 148.276" stroke="#96A0AA" stroke-miterlimit="10" stroke-linecap="round"/>
</g>
<g filter="url(#filter2_d_519_2959)">
<path d="M84.0132 159.28L87.0132 162.28" stroke="#96A0AA" stroke-miterlimit="10" stroke-linecap="round"/>
<path d="M87.0132 159.28L84.0132 162.28" stroke="#96A0AA" stroke-miterlimit="10" stroke-linecap="round"/>
</g>
<path d="M71.719 130.522L60.9139 118.43C58.4331 115.654 58.7459 111.374 61.6042 108.988C64.4624 106.602 68.729 107.059 71.017 109.996L80.9836 122.788C82.9842 125.356 82.5893 129.047 80.0898 131.134C77.5912 133.22 73.8879 132.95 71.719 130.522Z" fill="#1E2B3B"/>
<path opacity="0.7" d="M72.5185 127.12L74.5706 129.596C75.7149 130.977 77.7623 131.168 79.1429 130.024C80.5235 128.879 80.7153 126.832 79.5706 125.451L77.5185 122.976C76.3742 121.595 74.3268 121.403 72.9462 122.548C71.5661 123.693 71.3743 125.74 72.5185 127.12Z" fill="#94A3BB" fill-opacity="0.51"/>
<path d="M74.915 149.634L59.3678 137.362C56.442 135.052 56.004 130.782 58.3999 127.927C60.7958 125.071 65.0778 124.761 67.8601 127.242L82.6442 140.423C85.0715 142.587 85.3393 146.288 83.2492 148.78C81.1595 151.27 77.4675 151.649 74.915 149.634Z" fill="#1E2B3B"/>
<path opacity="0.7" d="M75.0864 146.159L77.5423 148.235C78.9121 149.392 80.961 149.22 82.1184 147.851C83.2762 146.481 83.1041 144.432 81.7343 143.275L79.2784 141.199C77.9086 140.041 75.8597 140.213 74.7024 141.583C73.545 142.952 73.7171 145.001 75.0864 146.159Z" fill="#94A3BB" fill-opacity="0.5"/>
<path d="M75.2731 166.171L65.5841 159.884C62.4669 157.861 61.6585 153.651 63.8048 150.618C65.9512 147.585 70.1901 146.946 73.1346 149.213L82.2876 156.257C84.872 158.246 85.4259 161.921 83.5421 164.583C81.6583 167.246 78.0089 167.946 75.2731 166.171Z" fill="#1E2B3B"/>
<path opacity="0.7" d="M75.2345 162.681L77.8527 164.547C79.313 165.588 81.3408 165.248 82.3818 163.788C83.4229 162.328 83.0829 160.3 81.6226 159.259L79.0044 157.392C77.5441 156.351 75.5164 156.691 74.4753 158.152C73.4342 159.612 73.7742 161.64 75.2345 162.681Z" fill="#94A3BB" fill-opacity="0.5"/>
<path d="M48.3731 24.2578H91.0533C93.4637 24.2578 95.4178 26.2119 95.4178 28.6228V51.2024C95.4178 53.6128 93.4637 55.5674 91.0533 55.5674H87.1404L81.3521 61.7754C80.8916 62.2692 80.1094 62.2692 79.6489 61.7754L73.8606 55.5669H48.3726C45.9622 55.5669 44.0081 53.6128 44.0081 51.2019V28.6223C44.0085 26.2119 45.9627 24.2578 48.3731 24.2578Z" fill="#1E2B3B"/>
<path d="M58.7295 38.7553L58.5055 39.8033H59.4655V41.0353H58.2415L57.9775 42.2593H56.6975L56.9615 41.0353H55.6335L55.3695 42.2593H54.0895L54.3535 41.0353H53.1695V39.8033H54.6175L54.8415 38.7553H53.6815V37.5233H55.0975L55.3535 36.3393H56.6335L56.3775 37.5233H57.7055L57.9615 36.3393H59.2415L58.9855 37.5233H59.9775V38.7553H58.7295ZM57.4495 38.7553H56.1215L55.8975 39.8033H57.2255L57.4495 38.7553ZM64.9879 40.6273C64.9879 40.9206 64.9106 41.1926 64.7559 41.4433C64.6066 41.6886 64.3826 41.8913 64.0839 42.0513C63.7906 42.2059 63.4412 42.2913 63.0359 42.3073V42.9553H62.5239V42.2993C61.9586 42.2513 61.5026 42.0833 61.1559 41.7953C60.8092 41.5019 60.6252 41.1046 60.6039 40.6033H62.0599C62.0919 40.9233 62.2466 41.1286 62.5239 41.2193V39.9553C62.1079 39.8486 61.7746 39.7446 61.5239 39.6433C61.2786 39.5419 61.0626 39.3793 60.8759 39.1553C60.6892 38.9313 60.5959 38.6246 60.5959 38.2353C60.5959 37.7499 60.7746 37.3606 61.1319 37.0673C61.4946 36.7739 61.9586 36.6086 62.5239 36.5713V35.9233H63.0359V36.5713C63.5959 36.6139 64.0386 36.7766 64.3639 37.0593C64.6892 37.3419 64.8706 37.7339 64.9079 38.2353H63.4439C63.4119 37.9473 63.2759 37.7606 63.0359 37.6753V38.9153C63.4786 39.0379 63.8199 39.1473 64.0599 39.2433C64.2999 39.3393 64.5132 39.4993 64.6999 39.7233C64.8919 39.9419 64.9879 40.2433 64.9879 40.6273ZM62.0439 38.1713C62.0439 38.3046 62.0839 38.4166 62.1639 38.5073C62.2492 38.5979 62.3692 38.6779 62.5239 38.7473V37.6353C62.3746 37.6619 62.2572 37.7206 62.1719 37.8113C62.0866 37.8966 62.0439 38.0166 62.0439 38.1713ZM63.0359 41.2433C63.1959 41.2166 63.3212 41.1526 63.4119 41.0513C63.5079 40.9499 63.5559 40.8246 63.5559 40.6753C63.5559 40.5366 63.5106 40.4246 63.4199 40.3393C63.3346 40.2486 63.2066 40.1713 63.0359 40.1073V41.2433ZM70.4535 36.9153C71.0829 36.9153 71.6322 37.0353 72.1015 37.2753C72.5709 37.5099 72.9309 37.8433 73.1815 38.2753C73.4375 38.7019 73.5655 39.1953 73.5655 39.7553C73.5655 40.2086 73.4855 40.6299 73.3255 41.0193C73.1709 41.4086 72.9389 41.7206 72.6295 41.9553C72.3255 42.1846 71.9629 42.2993 71.5415 42.2993C71.2589 42.2993 71.0242 42.2433 70.8375 42.1313C70.6562 42.0193 70.5335 41.8619 70.4695 41.6593C70.3202 41.8673 70.1282 42.0299 69.8935 42.1473C69.6589 42.2593 69.4029 42.3153 69.1255 42.3153C68.7309 42.3153 68.4189 42.1979 68.1895 41.9633C67.9655 41.7233 67.8535 41.3979 67.8535 40.9873C67.8535 40.5979 67.9335 40.2326 68.0935 39.8913C68.2535 39.5446 68.4749 39.2673 68.7575 39.0593C69.0402 38.8513 69.3575 38.7473 69.7095 38.7473C70.1575 38.7473 70.4615 38.9073 70.6215 39.2273L70.6935 38.8033H71.7975L71.4455 40.8113C71.4295 40.9073 71.4215 40.9926 71.4215 41.0673C71.4215 41.3019 71.5255 41.4193 71.7335 41.4193C71.9895 41.4193 72.1842 41.2566 72.3175 40.9313C72.4562 40.6006 72.5255 40.2219 72.5255 39.7953C72.5255 39.1819 72.3309 38.7019 71.9415 38.3553C71.5575 38.0086 71.0162 37.8353 70.3175 37.8353C69.7202 37.8353 69.1762 37.9793 68.6855 38.2673C68.2002 38.5553 67.8189 38.9499 67.5415 39.4513C67.2642 39.9473 67.1255 40.4939 67.1255 41.0913C67.1255 41.7366 67.3122 42.2379 67.6855 42.5953C68.0642 42.9526 68.5922 43.1313 69.2695 43.1313C69.7975 43.1313 70.2695 43.0353 70.6855 42.8433L70.9015 43.7153C70.3789 43.9446 69.7922 44.0593 69.1415 44.0593C68.5335 44.0593 67.9975 43.9419 67.5335 43.7073C67.0749 43.4726 66.7202 43.1393 66.4695 42.7073C66.2189 42.2753 66.0935 41.7713 66.0935 41.1953C66.0935 40.3899 66.2829 39.6619 66.6615 39.0113C67.0402 38.3553 67.5602 37.8433 68.2215 37.4753C68.8882 37.1019 69.6322 36.9153 70.4535 36.9153ZM69.5735 41.3313C69.7229 41.3313 69.8615 41.2859 69.9895 41.1953C70.1229 41.1046 70.2269 40.9846 70.3015 40.8353C70.3815 40.6806 70.4215 40.5153 70.4215 40.3393C70.4215 40.1579 70.3709 40.0113 70.2695 39.8993C70.1682 39.7819 70.0295 39.7233 69.8535 39.7233C69.6189 39.7233 69.4242 39.8246 69.2695 40.0273C69.1149 40.2299 69.0375 40.4699 69.0375 40.7473C69.0375 40.9233 69.0829 41.0646 69.1735 41.1713C69.2642 41.2779 69.3975 41.3313 69.5735 41.3313ZM78.9421 42.2593L78.4221 41.7553C77.9048 42.1499 77.2861 42.3473 76.5661 42.3473C76.1341 42.3473 75.7581 42.2779 75.4381 42.1393C75.1181 41.9953 74.8701 41.7953 74.6941 41.5393C74.5235 41.2779 74.4381 40.9739 74.4381 40.6273C74.4381 40.2753 74.5315 39.9579 74.7181 39.6753C74.9101 39.3873 75.1955 39.1526 75.5741 38.9713C75.4355 38.8006 75.3368 38.6379 75.2781 38.4833C75.2195 38.3233 75.1901 38.1499 75.1901 37.9633C75.1901 37.6966 75.2595 37.4539 75.3981 37.2353C75.5368 37.0166 75.7368 36.8459 75.9981 36.7233C76.2648 36.5953 76.5795 36.5313 76.9421 36.5313C77.3101 36.5313 77.6221 36.5979 77.8781 36.7313C78.1341 36.8646 78.3261 37.0433 78.4541 37.2673C78.5821 37.4913 78.6408 37.7366 78.6301 38.0033H77.3421C77.3475 37.8593 77.3101 37.7499 77.2301 37.6753C77.1555 37.5953 77.0541 37.5553 76.9261 37.5553C76.7981 37.5553 76.6915 37.5926 76.6061 37.6673C76.5208 37.7419 76.4781 37.8379 76.4781 37.9553C76.4781 38.0673 76.5128 38.1846 76.5821 38.3073C76.6568 38.4299 76.7715 38.5713 76.9261 38.7313L78.2941 40.0673C78.3048 40.0406 78.3181 40.0086 78.3341 39.9713C78.3555 39.9339 78.3768 39.8913 78.3981 39.8433L78.6941 39.3393H80.0621L79.6781 40.0353C79.5341 40.3499 79.3688 40.6486 79.1821 40.9313L80.5341 42.2593H78.9421ZM76.6301 41.2433C76.9875 41.2433 77.3048 41.1419 77.5821 40.9393L76.3341 39.7313C75.9501 39.9286 75.7581 40.1953 75.7581 40.5313C75.7581 40.7339 75.8355 40.9046 75.9901 41.0433C76.1501 41.1766 76.3635 41.2433 76.6301 41.2433ZM82.829 36.4433L82.669 40.2753H81.509L81.349 36.4433H82.829ZM82.109 42.3233C81.869 42.3233 81.6716 42.2539 81.517 42.1153C81.3676 41.9713 81.293 41.7953 81.293 41.5873C81.293 41.3739 81.3676 41.1953 81.517 41.0513C81.6716 40.9073 81.869 40.8353 82.109 40.8353C82.3436 40.8353 82.5356 40.9073 82.685 41.0513C82.8396 41.1953 82.917 41.3739 82.917 41.5873C82.917 41.7953 82.8396 41.9713 82.685 42.1153C82.5356 42.2539 82.3436 42.3233 82.109 42.3233ZM85.9618 36.4433L85.8018 40.2753H84.6418L84.4818 36.4433H85.9618ZM85.2418 42.3233C85.0018 42.3233 84.8044 42.2539 84.6498 42.1153C84.5004 41.9713 84.4258 41.7953 84.4258 41.5873C84.4258 41.3739 84.5004 41.1953 84.6498 41.0513C84.8044 40.9073 85.0018 40.8353 85.2418 40.8353C85.4764 40.8353 85.6684 40.9073 85.8178 41.0513C85.9724 41.1953 86.0498 41.3739 86.0498 41.5873C86.0498 41.7953 85.9724 41.9713 85.8178 42.1153C85.6684 42.2539 85.4764 42.3233 85.2418 42.3233Z" fill="#94A3BB" fill-opacity="0.5"/>
<path d="M121.837 31.5656C128.188 31.5656 133.337 26.4169 133.337 20.0655C133.337 13.7142 128.188 8.56543 121.837 8.56543C115.485 8.56543 110.337 13.7142 110.337 20.0655C110.337 26.4169 115.485 31.5656 121.837 31.5656Z" fill="#1E2B3B"/>
<path d="M115.582 17.1582C115.582 16.0447 116.484 15.1416 117.598 15.1416C118.712 15.1416 119.615 16.0447 119.615 17.1582" stroke="#94A3BB" stroke-opacity="0.5" stroke-miterlimit="10" stroke-linecap="round"/>
<path d="M124.055 17.1582C124.055 16.0447 124.957 15.1416 126.071 15.1416C127.185 15.1416 128.088 16.0447 128.088 17.1582" stroke="#94A3BB" stroke-opacity="0.5" stroke-miterlimit="10" stroke-linecap="round"/>
<path d="M118.913 24.0812C118.913 22.4742 120.216 21.1714 121.823 21.1714C123.429 21.1714 124.732 22.4742 124.732 24.0812" stroke="#94A3BB" stroke-opacity="0.5" stroke-miterlimit="10" stroke-linecap="round"/>
<path d="M180.072 42.2402H117.341C115.112 42.2402 113.304 44.048 113.304 46.2774V75.2033C113.304 77.4332 115.112 79.241 117.341 79.241H120.961L126.315 84.9838C126.741 85.4405 127.464 85.4405 127.89 84.9838L133.244 79.241H180.071C182.301 79.241 184.108 77.4332 184.108 75.2033V46.2774C184.109 44.048 182.302 42.2402 180.072 42.2402Z" fill="#1E2B3B"/>
<path opacity="0.59" d="M137.358 49.6683L138.263 51.5019C138.306 51.5877 138.387 51.6468 138.481 51.6604L140.505 51.9544C140.743 51.9891 140.837 52.2808 140.665 52.4487L139.201 53.8762C139.133 53.9428 139.102 54.0384 139.118 54.1327L139.463 56.1483C139.504 56.3851 139.256 56.5656 139.043 56.4535L137.233 55.502C137.149 55.4575 137.048 55.4575 136.963 55.502L135.154 56.4535C134.941 56.5651 134.693 56.3846 134.733 56.1483L135.079 54.1327C135.095 54.0389 135.064 53.9428 134.995 53.8762L133.531 52.4487C133.359 52.2808 133.454 51.9891 133.692 51.9544L135.715 51.6604C135.809 51.6468 135.891 51.5872 135.933 51.5019L136.838 49.6683C136.945 49.453 137.252 49.453 137.358 49.6683Z" fill="#96A0AA" fill-opacity="0.5"/>
<path opacity="0.59" d="M148.915 50.1614L149.82 51.995C149.862 52.0809 149.944 52.1399 150.038 52.1535L152.062 52.4476C152.299 52.4823 152.394 52.774 152.222 52.9419L150.758 54.3693C150.69 54.4359 150.658 54.5316 150.674 54.6259L151.02 56.6414C151.061 56.8782 150.812 57.0588 150.599 56.9467L148.79 55.9952C148.705 55.9506 148.604 55.9506 148.52 55.9952L146.71 56.9467C146.498 57.0583 146.249 56.8778 146.29 56.6414L146.635 54.6259C146.651 54.5321 146.62 54.4359 146.552 54.3693L145.088 52.9419C144.916 52.774 145.011 52.4823 145.248 52.4476L147.272 52.1535C147.366 52.1399 147.447 52.0804 147.49 51.995L148.395 50.1614C148.502 49.9462 148.809 49.9462 148.915 50.1614Z" fill="#96A0AA" fill-opacity="0.5"/>
<path opacity="0.59" d="M160.915 50.1614L161.82 51.995C161.862 52.0809 161.944 52.1399 162.038 52.1535L164.062 52.4476C164.299 52.4823 164.394 52.774 164.222 52.9419L162.758 54.3693C162.689 54.4359 162.658 54.5316 162.674 54.6259L163.02 56.6414C163.061 56.8782 162.812 57.0588 162.599 56.9467L160.79 55.9952C160.705 55.9506 160.604 55.9506 160.52 55.9952L158.71 56.9467C158.498 57.0583 158.249 56.8778 158.29 56.6414L158.635 54.6259C158.651 54.5321 158.62 54.4359 158.552 54.3693L157.088 52.9419C156.916 52.774 157.011 52.4823 157.248 52.4476L159.272 52.1535C159.366 52.1399 159.447 52.0804 159.49 51.995L160.395 50.1614C160.502 49.9462 160.809 49.9462 160.915 50.1614Z" fill="#96A0AA" fill-opacity="0.5"/>
<path d="M125.75 49.6683L126.655 51.5019C126.697 51.5877 126.779 51.6468 126.873 51.6604L128.897 51.9544C129.134 51.9891 129.229 52.2808 129.057 52.4487L127.593 53.8762C127.525 53.9428 127.494 54.0384 127.51 54.1327L127.855 56.1483C127.895 56.3851 127.647 56.5656 127.435 56.4535L125.624 55.502C125.54 55.4575 125.439 55.4575 125.355 55.502L123.545 56.4535C123.333 56.5651 123.084 56.3846 123.125 56.1483L123.47 54.1327C123.486 54.0389 123.455 53.9428 123.387 53.8762L121.923 52.4487C121.751 52.2808 121.846 51.9891 122.083 51.9544L124.107 51.6604C124.201 51.6468 124.283 51.5872 124.325 51.5019L125.23 49.6683C125.336 49.453 125.644 49.453 125.75 49.6683Z" fill="#96A0AA"/>
<path opacity="0.59" d="M172.18 49.6683L173.085 51.5019C173.127 51.5877 173.209 51.6468 173.303 51.6604L175.326 51.9544C175.564 51.9891 175.659 52.2808 175.487 52.4487L174.023 53.8762C173.954 53.9428 173.923 54.0384 173.939 54.1327L174.285 56.1483C174.326 56.3851 174.077 56.5656 173.865 56.4535L172.055 55.502C171.97 55.4575 171.869 55.4575 171.785 55.502L169.975 56.4535C169.762 56.5651 169.514 56.3846 169.554 56.1483L169.9 54.1327C169.916 54.0389 169.885 53.9428 169.816 53.8762L168.352 52.4487C168.18 52.2808 168.275 51.9891 168.513 51.9544L170.536 51.6604C170.63 51.6468 170.712 51.5872 170.754 51.5019L171.659 49.6683C171.766 49.453 172.073 49.453 172.18 49.6683Z" fill="#96A0AA" fill-opacity="0.5"/>
<path d="M121.836 65.5098H142.77" stroke="#94A3BB" stroke-opacity="0.5" stroke-miterlimit="10" stroke-linecap="round"/>
<path d="M145.828 65.5098H162.296" stroke="#94A3BB" stroke-opacity="0.5" stroke-miterlimit="10" stroke-linecap="round"/>
<path d="M165.199 65.5098H175.575" stroke="#94A3BB" stroke-opacity="0.5" stroke-miterlimit="10" stroke-linecap="round"/>
<path d="M121.836 68.6123H135.888" stroke="#94A3BB" stroke-opacity="0.5" stroke-miterlimit="10" stroke-linecap="round"/>
<path d="M138.477 68.6123H154.063" stroke="#94A3BB" stroke-opacity="0.5" stroke-miterlimit="10" stroke-linecap="round"/>
<path d="M157.769 68.6123H175.576" stroke="#94A3BB" stroke-opacity="0.5" stroke-miterlimit="10" stroke-linecap="round"/>
<path d="M121.836 62.4033H139.943" stroke="#94A3BB" stroke-opacity="0.5" stroke-miterlimit="10" stroke-linecap="round"/>
<path d="M142.96 62.4033H158.25" stroke="#94A3BB" stroke-opacity="0.5" stroke-miterlimit="10" stroke-linecap="round"/>
<path d="M161.194 62.4033H175.575" stroke="#94A3BB" stroke-opacity="0.5" stroke-miterlimit="10" stroke-linecap="round"/>
<path d="M121.836 71.7153H140.359" stroke="#94A3BB" stroke-opacity="0.5" stroke-miterlimit="10" stroke-linecap="round"/>
<path d="M164.971 118.556C173.632 118.556 180.654 111.535 180.654 102.874C180.654 94.2126 173.632 87.1914 164.971 87.1914C156.31 87.1914 149.289 94.2126 149.289 102.874C149.289 111.535 156.31 118.556 164.971 118.556Z" fill="#1E2B3B"/>
<path d="M170.318 94.708H173.533C174.045 94.708 174.461 95.1235 174.461 95.6365V103.709C174.461 104.221 174.046 104.637 173.533 104.637H170.318C169.805 104.637 169.389 104.222 169.389 103.709V95.6365C169.389 95.124 169.805 94.708 170.318 94.708Z" fill="#94A3BB" fill-opacity="0.5"/>
<path d="M156.22 103.895C155.755 104.188 155.452 104.715 155.482 105.312C155.524 106.165 156.277 106.812 157.13 106.812H162.135C160.03 109.782 160.735 112.306 161.081 113.159C161.157 113.347 161.274 113.515 161.424 113.652L161.435 113.662C161.896 114.084 162.592 114.184 163.12 113.851C163.528 113.593 163.76 113.154 163.76 112.695V111.242C163.76 111.081 163.83 110.929 163.948 110.82C166.544 108.428 167.521 105.801 167.788 104.933C167.844 104.752 167.871 104.565 167.871 104.375V96.5331C167.871 96.0341 167.467 95.6299 166.969 95.6299H157.13C156.277 95.6299 155.525 96.2766 155.482 97.1291C155.452 97.7266 155.755 98.2541 156.22 98.5468C155.776 98.8263 155.48 99.3201 155.48 99.8838C155.48 100.447 155.776 100.941 156.22 101.221C155.776 101.5 155.48 101.994 155.48 102.558C155.479 103.121 155.776 103.615 156.22 103.895Z" fill="#94A3BB" fill-opacity="0.5"/>
<path d="M85.3795 76.9346L99.3365 90.891" stroke="#96A0AA" stroke-opacity="0.94" stroke-width="3" stroke-miterlimit="10" stroke-linecap="round"/>
<path d="M99.3365 76.9346L85.3795 90.891" stroke="#96A0AA" stroke-opacity="0.94" stroke-width="3" stroke-miterlimit="10" stroke-linecap="round"/>
<path d="M18.1128 86.541H51.7662C53.6668 86.541 55.2078 88.082 55.2078 89.9827V107.787C55.2078 109.688 53.6668 111.229 51.7662 111.229H48.6809L44.1166 116.124C43.7537 116.513 43.137 116.513 42.774 116.124L38.2102 111.229H18.1128C16.2121 111.229 14.6711 109.688 14.6711 107.787V89.9827C14.6711 88.082 16.2121 86.541 18.1128 86.541Z" fill="#1E2B3B"/>
<path d="M25.7764 92.4873C25.3215 92.4873 24.9647 92.862 24.9731 93.3174L25.1874 100.777H26.3654L26.5797 93.3174V93.2817C26.5793 92.8442 26.2224 92.4873 25.7764 92.4873ZM25.7764 102.838C25.1874 102.838 24.7593 103.293 24.7593 103.909C24.7593 104.516 25.1785 104.98 25.7764 104.98C26.4011 104.98 26.7936 104.515 26.7936 103.909C26.7936 103.293 26.4011 102.838 25.7764 102.838Z" fill="#94A3BB" fill-opacity="0.5" stroke="#94A3BB" stroke-opacity="0.5" stroke-miterlimit="10"/>
<path d="M32.9837 92.2178C32.5288 92.2178 32.1715 92.5925 32.1804 93.0478L32.3947 100.508H33.5727L33.787 93.0478V93.0122C33.787 92.5746 33.4302 92.2178 32.9837 92.2178ZM32.9837 102.569C32.3947 102.569 31.9666 103.024 31.9666 103.64C31.9666 104.246 32.3858 104.71 32.9837 104.71C33.6084 104.71 34.0009 104.246 34.0009 103.64C34.0013 103.024 33.6084 102.569 32.9837 102.569Z" fill="#94A3BB" fill-opacity="0.5" stroke="#94A3BB" stroke-opacity="0.5" stroke-miterlimit="10"/>
<path d="M40.1939 92.4873C39.739 92.4873 39.3822 92.862 39.3906 93.3174L39.6049 100.777H40.7829L40.9972 93.3174V93.2817C40.9972 92.8442 40.6399 92.4873 40.1939 92.4873ZM40.1939 102.838C39.6049 102.838 39.1768 103.293 39.1768 103.909C39.1768 104.516 39.596 104.98 40.1939 104.98C40.8186 104.98 41.2111 104.515 41.2111 103.909C41.2111 103.293 40.8186 102.838 40.1939 102.838Z" fill="#94A3BB" fill-opacity="0.5" stroke="#94A3BB" stroke-opacity="0.5" stroke-miterlimit="10"/>
<path d="M126.706 96.6223C127.278 93.8273 130.936 93.1098 132.526 95.478L132.741 95.8016L133.023 96.2143L135.095 99.3094L138.12 103.821L138.833 104.885L139.11 105.293L152.006 124.525C152.587 125.392 153.042 126.344 153.352 127.343L158.041 142.406L138.12 135.93V137.07L135.095 130.265L126.659 108.29L126.48 107.634C125.495 104.018 125.574 100.195 126.706 96.6223Z" fill="#1E2B3B"/>
<path opacity="0.7" d="M138.913 105.001C138.144 105.474 137.239 105.629 136.362 105.432C135.476 105.235 134.712 104.705 134.229 103.936L132.282 100.883C131.326 99.3731 131.701 97.3894 133.108 96.3296L135.096 99.3027L138.121 103.814L138.834 104.879L138.913 105.001Z" fill="#94A3BB" fill-opacity="0.5"/>
<defs>
<filter id="filter0_d_519_2959" x="79.5132" y="131.775" width="12" height="12" filterUnits="userSpaceOnUse" color-interpolation-filters="sRGB">
<feFlood flood-opacity="0" result="BackgroundImageFix"/>
<feColorMatrix in="SourceAlpha" type="matrix" values="0 0 0 0 0 0 0 0 0 0 0 0 0 0 0 0 0 0 127 0" result="hardAlpha"/>
<feOffset dy="4"/>
<feGaussianBlur stdDeviation="2"/>
<feComposite in2="hardAlpha" operator="out"/>
<feColorMatrix type="matrix" values="0 0 0 0 0 0 0 0 0 0 0 0 0 0 0 0 0 0 0.25 0"/>
<feBlend mode="normal" in2="BackgroundImageFix" result="effect1_dropShadow_519_2959"/>
<feBlend mode="normal" in="SourceGraphic" in2="effect1_dropShadow_519_2959" result="shape"/>
</filter>
<filter id="filter1_d_519_2959" x="79.5132" y="144.776" width="12" height="12" filterUnits="userSpaceOnUse" color-interpolation-filters="sRGB">
<feFlood flood-opacity="0" result="BackgroundImageFix"/>
<feColorMatrix in="SourceAlpha" type="matrix" values="0 0 0 0 0 0 0 0 0 0 0 0 0 0 0 0 0 0 127 0" result="hardAlpha"/>
<feOffset dy="4"/>
<feGaussianBlur stdDeviation="2"/>
<feComposite in2="hardAlpha" operator="out"/>
<feColorMatrix type="matrix" values="0 0 0 0 0 0 0 0 0 0 0 0 0 0 0 0 0 0 0.25 0"/>
<feBlend mode="normal" in2="BackgroundImageFix" result="effect1_dropShadow_519_2959"/>
<feBlend mode="normal" in="SourceGraphic" in2="effect1_dropShadow_519_2959" result="shape"/>
</filter>
<filter id="filter2_d_519_2959" x="79.5132" y="158.78" width="12" height="12" filterUnits="userSpaceOnUse" color-interpolation-filters="sRGB">
<feFlood flood-opacity="0" result="BackgroundImageFix"/>
<feColorMatrix in="SourceAlpha" type="matrix" values="0 0 0 0 0 0 0 0 0 0 0 0 0 0 0 0 0 0 127 0" result="hardAlpha"/>
<feOffset dy="4"/>
<feGaussianBlur stdDeviation="2"/>
<feComposite in2="hardAlpha" operator="out"/>
<feColorMatrix type="matrix" values="0 0 0 0 0 0 0 0 0 0 0 0 0 0 0 0 0 0 0.25 0"/>
<feBlend mode="normal" in2="BackgroundImageFix" result="effect1_dropShadow_519_2959"/>
<feBlend mode="normal" in="SourceGraphic" in2="effect1_dropShadow_519_2959" result="shape"/>
</filter>
</defs>
</svg>
