<svg width="221" height="216" viewBox="0 0 221 216" fill="none" xmlns="http://www.w3.org/2000/svg">
<g opacity="0.37">
<path d="M217.324 105.58C210.363 138.541 192.813 168.321 173.572 188.146C153.975 208.141 132.688 218.181 110.017 215.602C87.3465 213.022 66.0589 199.041 46.4621 180.199C27.2215 161.186 9.67174 137.313 2.71084 111.01C-4.25005 84.7075 2.22124 60.2262 21.8181 40.2307C41.0581 20.4057 73.4242 5.0671 110.017 0.988005C146.61 -3.09109 178.976 5.59186 198.216 24.6047C217.813 43.4467 224.285 72.619 217.324 105.58Z" fill="#5A5A6C"/>
</g>
<path d="M58.399 75.683C60.4633 73.4395 63.8486 73.1436 66.2741 74.9946L77.4689 83.8873L75.6592 102.652L58.4852 83.7185C56.3421 81.4882 56.3042 77.9588 58.399 75.683Z" fill="#3B404E"/>
<path d="M205.578 208.898H138.279L125.125 193.511L112.496 188.766C109.898 187.79 107.436 186.491 105.166 184.897C103.487 183.724 101.926 182.397 100.5 180.934C100.125 180.559 99.7685 180.17 99.4168 179.776L98.2866 178.505L97.7567 177.909L95.9841 175.907L95.6276 175.508L95.6042 175.48L91.2852 170.617L102.91 161.745L133.247 138.592L134.185 137.875L135.095 137.181L136.272 136.285L137.149 135.615L137.528 135.737L135.095 130.264L126.658 108.289C125.655 105.677 125.425 102.835 125.988 100.092L126.705 96.6213C127.277 93.8263 130.935 93.1089 132.525 95.4771L132.74 95.8006L133.022 96.2133L135.095 99.3084L138.119 103.82L138.832 104.884L139.109 105.292L152.005 124.524C152.587 125.391 153.041 126.343 153.351 127.342L158.04 142.405L160.287 149.627L160.86 152.405C162.642 161.035 166.847 168.977 172.983 175.301L205.578 208.898Z" fill="#3B404E"/>
<path opacity="0.43" d="M130.443 180.928C134.678 180.928 138.12 177.486 138.12 173.256V134.725L135.095 130.258V173.256C135.095 175.816 133.008 177.903 130.443 177.903L98.2871 178.499L103.108 183.327" fill="#3B404E"/>
<path d="M127.723 177.742H83.4131C79.3435 177.742 76.0439 174.443 76.0439 170.373V60.1035C76.0439 56.0339 79.343 52.7344 83.4131 52.7344H127.723C131.793 52.7344 135.092 56.0335 135.092 60.1035V170.374C135.092 174.443 131.793 177.742 127.723 177.742Z" fill="#4F5566"/>
<path d="M136.482 63.3516C137.195 63.352 137.772 63.9293 137.772 64.6421L137.771 69.7513C137.771 70.4637 137.193 71.0414 136.48 71.041L136.482 63.3516Z" fill="#1F232F"/>
<path d="M73.9019 65.2106C73.1896 65.2106 72.6118 64.6328 72.6123 63.92L72.6132 60.0709C72.6132 59.3585 73.191 58.7808 73.9038 58.7813L73.9019 65.2106Z" fill="#1F232F"/>
<path d="M73.899 75.6168C73.1867 75.6168 72.6089 75.0391 72.6094 74.3263L72.6103 70.4771C72.6103 69.7648 73.1881 69.187 73.9009 69.1875L73.899 75.6168Z" fill="#1F232F"/>
<path d="M128.706 51.5195H81.6795C77.3905 51.5195 73.9043 55.0057 73.9043 59.2948V171.495C73.9043 175.78 77.3905 179.266 81.6795 179.266H128.706C131.213 179.266 133.441 178.078 134.861 176.231C134.932 176.145 134.994 176.06 135.056 175.969C135.953 174.706 136.48 173.162 136.48 171.495V59.2948C136.481 55.0057 132.995 51.5195 128.706 51.5195ZM133.418 171.495C133.418 174.088 131.304 176.202 128.706 176.202H81.6795C79.0815 176.202 76.968 174.088 76.968 171.495V59.2948C76.968 56.6968 79.0815 54.5832 81.6795 54.5832H88.9844V54.6732C88.9844 57.0386 90.9033 58.9529 93.2687 58.9529H117.121C119.482 58.9529 121.401 57.0386 121.401 54.6732V54.5832H128.706C131.304 54.5832 133.417 56.6968 133.417 59.2948V171.495H133.418Z" fill="#1F232F"/>
<path opacity="0.69" d="M92.3574 55.582H117.676" stroke="#4F5566" stroke-width="1.0128" stroke-miterlimit="10" stroke-linecap="round"/>
<g opacity="0.51">
<path opacity="0.29" d="M103.612 102.871H82.2461C81.4222 102.871 80.7539 102.203 80.7539 101.378V66.4336C80.7539 65.6097 81.4217 64.9414 82.2461 64.9414H103.612C104.436 64.9414 105.104 65.6092 105.104 66.4336V101.378C105.104 102.203 104.436 102.871 103.612 102.871Z" fill="#D6E0E7"/>
<path opacity="0.29" d="M128.387 67.9031H109.793C109.02 67.9031 108.393 67.2761 108.393 66.5023C108.393 65.7286 109.02 65.1016 109.793 65.1016H128.387C129.161 65.1016 129.788 65.7286 129.788 66.5023C129.788 67.2761 129.161 67.9031 128.387 67.9031Z" fill="#D6E0E7"/>
<path opacity="0.29" d="M128.387 73.7312H109.793C109.02 73.7312 108.393 73.1042 108.393 72.3304C108.393 71.5567 109.02 70.9297 109.793 70.9297H128.387C129.161 70.9297 129.788 71.5567 129.788 72.3304C129.788 73.1042 129.161 73.7312 128.387 73.7312Z" fill="#D6E0E7"/>
<path opacity="0.29" d="M128.387 79.5593H109.793C109.02 79.5593 108.393 78.9323 108.393 78.1586C108.393 77.3848 109.02 76.7578 109.793 76.7578H128.387C129.161 76.7578 129.788 77.3848 129.788 78.1586C129.788 78.9323 129.161 79.5593 128.387 79.5593Z" fill="#D6E0E7"/>
<path opacity="0.29" d="M128.387 85.3875H109.793C109.02 85.3875 108.393 84.7605 108.393 83.9867C108.393 83.2129 109.02 82.5859 109.793 82.5859H128.387C129.161 82.5859 129.788 83.2129 129.788 83.9867C129.788 84.7605 129.161 85.3875 128.387 85.3875Z" fill="#D6E0E7"/>
<path opacity="0.29" d="M128.387 91.2156H109.793C109.02 91.2156 108.393 90.5886 108.393 89.8148C108.393 89.0411 109.02 88.4141 109.793 88.4141H128.387C129.161 88.4141 129.788 89.0411 129.788 89.8148C129.788 90.5886 129.161 91.2156 128.387 91.2156Z" fill="#D6E0E7"/>
<path opacity="0.29" d="M128.387 97.0437H109.793C109.02 97.0437 108.393 96.4167 108.393 95.6429C108.393 94.8692 109.02 94.2422 109.793 94.2422H128.387C129.161 94.2422 129.788 94.8692 129.788 95.6429C129.788 96.4162 129.161 97.0437 128.387 97.0437Z" fill="#D6E0E7"/>
<path opacity="0.29" d="M128.387 102.872H109.793C109.02 102.872 108.393 102.245 108.393 101.471C108.393 100.697 109.02 100.07 109.793 100.07H128.387C129.161 100.07 129.788 100.697 129.788 101.471C129.788 102.245 129.161 102.872 128.387 102.872Z" fill="#D6E0E7"/>
<path opacity="0.29" d="M128.387 110.344H82.1547C81.3809 110.344 80.7539 109.717 80.7539 108.944C80.7539 108.17 81.3809 107.543 82.1547 107.543H128.387C129.161 107.543 129.788 108.17 129.788 108.944C129.788 109.717 129.161 110.344 128.387 110.344Z" fill="#D6E0E7"/>
<path opacity="0.29" d="M128.387 115.762H82.1547C81.3809 115.762 80.7539 115.135 80.7539 114.362C80.7539 113.588 81.3809 112.961 82.1547 112.961H128.387C129.161 112.961 129.788 113.588 129.788 114.362C129.788 115.135 129.161 115.762 128.387 115.762Z" fill="#D6E0E7"/>
<path opacity="0.29" d="M128.387 121.169H82.1547C81.3809 121.169 80.7539 120.542 80.7539 119.768C80.7539 118.994 81.3809 118.367 82.1547 118.367H128.387C129.161 118.367 129.788 118.994 129.788 119.768C129.788 120.542 129.161 121.169 128.387 121.169Z" fill="#D6E0E7"/>
<path opacity="0.29" d="M128.825 132.858H97.6702C97.138 132.858 96.7061 132.427 96.7061 131.894C96.7061 131.362 97.1375 130.93 97.6702 130.93H128.825C129.358 130.93 129.79 131.361 129.79 131.894C129.79 132.427 129.358 132.858 128.825 132.858Z" fill="#D6E0E7"/>
<path opacity="0.29" d="M128.825 136.581H97.6702C97.138 136.581 96.7061 136.149 96.7061 135.617C96.7061 135.084 97.1375 134.652 97.6702 134.652H128.825C129.358 134.652 129.79 135.084 129.79 135.617C129.79 136.149 129.358 136.581 128.825 136.581Z" fill="#D6E0E7"/>
<path opacity="0.29" d="M88.5505 137.302C90.4948 135.64 90.7239 132.717 89.0622 130.773C87.4006 128.828 84.4774 128.599 82.5331 130.261C80.5888 131.922 80.3597 134.846 82.0214 136.79C83.683 138.734 86.6062 138.963 88.5505 137.302Z" fill="#D6E0E7"/>
<path opacity="0.29" d="M128.825 146.131H97.6702C97.138 146.131 96.7061 145.7 96.7061 145.167C96.7061 144.635 97.1375 144.203 97.6702 144.203H128.825C129.358 144.203 129.79 144.635 129.79 145.167C129.79 145.7 129.358 146.131 128.825 146.131Z" fill="#D6E0E7"/>
<path opacity="0.29" d="M128.825 149.858H97.6702C97.138 149.858 96.7061 149.427 96.7061 148.894C96.7061 148.362 97.1375 147.93 97.6702 147.93H128.825C129.358 147.93 129.79 148.361 129.79 148.894C129.79 149.427 129.358 149.858 128.825 149.858Z" fill="#D6E0E7"/>
<path opacity="0.29" d="M85.6436 151.535C88.2012 151.535 90.2745 149.462 90.2745 146.904C90.2745 144.347 88.2012 142.273 85.6436 142.273C83.086 142.273 81.0127 144.347 81.0127 146.904C81.0127 149.462 83.086 151.535 85.6436 151.535Z" fill="#D6E0E7"/>
<path opacity="0.29" d="M128.245 159.405H97.0892C96.5569 159.405 96.125 158.973 96.125 158.441C96.125 157.908 96.5564 157.477 97.0892 157.477H128.245C128.777 157.477 129.209 157.908 129.209 158.441C129.209 158.973 128.777 159.405 128.245 159.405Z" fill="#D6E0E7"/>
<path opacity="0.29" d="M128.245 163.124H97.0892C96.5569 163.124 96.125 162.692 96.125 162.159C96.125 161.627 96.5564 161.195 97.0892 161.195H128.245C128.777 161.195 129.209 161.627 129.209 162.159C129.209 162.692 128.777 163.124 128.245 163.124Z" fill="#D6E0E7"/>
<path opacity="0.29" d="M87.8185 165.077C90.1838 164.104 91.3125 161.398 90.3396 159.033C89.3667 156.668 86.6606 155.539 84.2953 156.512C81.9301 157.485 80.8014 160.191 81.7743 162.556C82.7472 164.921 85.4533 166.05 87.8185 165.077Z" fill="#D6E0E7"/>
</g>
<g filter="url(#filter0_d_6372_2672)">
<path d="M84.0137 132.27L87.0137 135.27" stroke="#3A3F4D" stroke-miterlimit="10" stroke-linecap="round"/>
<path d="M87.0137 132.27L84.0137 135.27" stroke="#3A3F4D" stroke-miterlimit="10" stroke-linecap="round"/>
</g>
<g filter="url(#filter1_d_6372_2672)">
<path d="M84.0137 145.273L87.0137 148.273" stroke="#3A3F4D" stroke-miterlimit="10" stroke-linecap="round"/>
<path d="M87.0137 145.273L84.0137 148.273" stroke="#3A3F4D" stroke-miterlimit="10" stroke-linecap="round"/>
</g>
<g filter="url(#filter2_d_6372_2672)">
<path d="M84.0137 159.273L87.0137 162.273" stroke="#3A3F4D" stroke-miterlimit="10" stroke-linecap="round"/>
<path d="M87.0137 159.273L84.0137 162.273" stroke="#3A3F4D" stroke-miterlimit="10" stroke-linecap="round"/>
</g>
<path d="M71.719 130.516L60.9139 118.424C58.4331 115.648 58.7459 111.369 61.6042 108.983C64.4624 106.597 68.729 107.054 71.017 109.991L80.9836 122.782C82.9842 125.35 82.5893 129.042 80.0898 131.128C77.5912 133.215 73.8879 132.944 71.719 130.516Z" fill="#3B404E"/>
<path opacity="0.7" d="M72.5185 127.117L74.5706 129.592C75.7149 130.973 77.7623 131.165 79.1429 130.02C80.5235 128.875 80.7153 126.828 79.5706 125.448L77.5185 122.972C76.3742 121.591 74.3268 121.4 72.9462 122.544C71.5661 123.689 71.3743 125.736 72.5185 127.117Z" fill="#636979"/>
<path d="M74.914 149.631L59.3668 137.359C56.4411 135.049 56.0031 130.778 58.3989 127.923C60.7948 125.068 65.0768 124.758 67.8591 127.239L82.6433 140.419C85.0706 142.584 85.3383 146.285 83.2482 148.776C81.1586 151.267 77.4665 151.645 74.914 149.631Z" fill="#3B404E"/>
<path opacity="0.7" d="M75.0856 146.157L77.5415 148.233C78.9113 149.391 80.9601 149.218 82.1175 147.849C83.2753 146.479 83.1032 144.43 81.7334 143.273L79.2775 141.197C77.9077 140.039 75.8589 140.211 74.7015 141.581C73.5441 142.95 73.7162 144.999 75.0856 146.157Z" fill="#636979"/>
<path d="M75.2721 166.168L65.5831 159.881C62.466 157.858 61.6575 153.648 63.8039 150.615C65.9503 147.582 70.1891 146.943 73.1337 149.21L82.2867 156.254C84.8711 158.244 85.4249 161.918 83.5411 164.58C81.6573 167.243 78.0079 167.943 75.2721 166.168Z" fill="#3B404E"/>
<path opacity="0.7" d="M75.2337 162.677L77.8518 164.543C79.3121 165.584 81.3399 165.244 82.381 163.784C83.422 162.324 83.0821 160.296 81.6217 159.255L79.0036 157.388C77.5433 156.347 75.5155 156.687 74.4744 158.148C73.4334 159.608 73.7734 161.636 75.2337 162.677Z" fill="#636979"/>
<path d="M48.3718 24.2539H91.0521C93.4625 24.2539 95.4166 26.208 95.4166 28.6189V51.1985C95.4166 53.6089 93.4625 55.5635 91.0521 55.5635H87.1391L81.3509 61.7715C80.8904 62.2653 80.1081 62.2653 79.6476 61.7715L73.8594 55.563H48.3714C45.961 55.563 44.0068 53.6089 44.0068 51.198V28.6184C44.0073 26.208 45.9614 24.2539 48.3718 24.2539Z" fill="#3A3F4D"/>
<path d="M58.7288 38.7499L58.5048 39.7979H59.4648V41.0299H58.2408L57.9768 42.2539H56.6968L56.9608 41.0299H55.6328L55.3688 42.2539H54.0888L54.3528 41.0299H53.1688V39.7979H54.6168L54.8408 38.7499H53.6808V37.5179H55.0968L55.3528 36.3339H56.6328L56.3768 37.5179H57.7048L57.9608 36.3339H59.2408L58.9848 37.5179H59.9768V38.7499H58.7288ZM57.4488 38.7499H56.1208L55.8968 39.7979H57.2248L57.4488 38.7499ZM64.9872 40.6219C64.9872 40.9152 64.9098 41.1872 64.7552 41.4379C64.6058 41.6832 64.3818 41.8859 64.0832 42.0459C63.7898 42.2006 63.4405 42.2859 63.0352 42.3019V42.9499H62.5232V42.2939C61.9578 42.2459 61.5018 42.0779 61.1552 41.7899C60.8085 41.4966 60.6245 41.0992 60.6032 40.5979H62.0592C62.0912 40.9179 62.2458 41.1232 62.5232 41.2139V39.9499C62.1072 39.8432 61.7738 39.7392 61.5232 39.6379C61.2778 39.5366 61.0618 39.3739 60.8752 39.1499C60.6885 38.9259 60.5952 38.6192 60.5952 38.2299C60.5952 37.7446 60.7738 37.3552 61.1312 37.0619C61.4938 36.7686 61.9578 36.6032 62.5232 36.5659V35.9179H63.0352V36.5659C63.5952 36.6086 64.0378 36.7712 64.3632 37.0539C64.6885 37.3366 64.8698 37.7286 64.9072 38.2299H63.4432C63.4112 37.9419 63.2752 37.7552 63.0352 37.6699V38.9099C63.4778 39.0326 63.8192 39.1419 64.0592 39.2379C64.2992 39.3339 64.5125 39.4939 64.6992 39.7179C64.8912 39.9366 64.9872 40.2379 64.9872 40.6219ZM62.0432 38.1659C62.0432 38.2992 62.0832 38.4112 62.1632 38.5019C62.2485 38.5926 62.3685 38.6726 62.5232 38.7419V37.6299C62.3738 37.6566 62.2565 37.7152 62.1712 37.8059C62.0858 37.8912 62.0432 38.0112 62.0432 38.1659ZM63.0352 41.2379C63.1952 41.2112 63.3205 41.1472 63.4112 41.0459C63.5072 40.9446 63.5552 40.8192 63.5552 40.6699C63.5552 40.5312 63.5098 40.4192 63.4192 40.3339C63.3338 40.2432 63.2058 40.1659 63.0352 40.1019V41.2379ZM70.4528 36.9099C71.0821 36.9099 71.6315 37.0299 72.1008 37.2699C72.5701 37.5046 72.9301 37.8379 73.1808 38.2699C73.4368 38.6966 73.5648 39.1899 73.5648 39.7499C73.5648 40.2032 73.4848 40.6246 73.3248 41.0139C73.1701 41.4032 72.9381 41.7152 72.6288 41.9499C72.3248 42.1792 71.9621 42.2939 71.5408 42.2939C71.2581 42.2939 71.0235 42.2379 70.8368 42.1259C70.6555 42.0139 70.5328 41.8566 70.4688 41.6539C70.3195 41.8619 70.1275 42.0246 69.8928 42.1419C69.6581 42.2539 69.4021 42.3099 69.1248 42.3099C68.7301 42.3099 68.4181 42.1926 68.1888 41.9579C67.9648 41.7179 67.8528 41.3926 67.8528 40.9819C67.8528 40.5926 67.9328 40.2272 68.0928 39.8859C68.2528 39.5392 68.4741 39.2619 68.7568 39.0539C69.0395 38.8459 69.3568 38.7419 69.7088 38.7419C70.1568 38.7419 70.4608 38.9019 70.6208 39.2219L70.6928 38.7979H71.7968L71.4448 40.8059C71.4288 40.9019 71.4208 40.9872 71.4208 41.0619C71.4208 41.2966 71.5248 41.4139 71.7328 41.4139C71.9888 41.4139 72.1835 41.2512 72.3168 40.9259C72.4555 40.5952 72.5248 40.2166 72.5248 39.7899C72.5248 39.1766 72.3301 38.6966 71.9408 38.3499C71.5568 38.0032 71.0155 37.8299 70.3168 37.8299C69.7195 37.8299 69.1755 37.9739 68.6848 38.2619C68.1995 38.5499 67.8181 38.9446 67.5408 39.4459C67.2635 39.9419 67.1248 40.4886 67.1248 41.0859C67.1248 41.7312 67.3115 42.2326 67.6848 42.5899C68.0635 42.9472 68.5915 43.1259 69.2688 43.1259C69.7968 43.1259 70.2688 43.0299 70.6848 42.8379L70.9008 43.7099C70.3781 43.9392 69.7915 44.0539 69.1408 44.0539C68.5328 44.0539 67.9968 43.9366 67.5328 43.7019C67.0741 43.4672 66.7195 43.1339 66.4688 42.7019C66.2181 42.2699 66.0928 41.7659 66.0928 41.1899C66.0928 40.3846 66.2821 39.6566 66.6608 39.0059C67.0395 38.3499 67.5595 37.8379 68.2208 37.4699C68.8875 37.0966 69.6315 36.9099 70.4528 36.9099ZM69.5728 41.3259C69.7221 41.3259 69.8608 41.2806 69.9888 41.1899C70.1221 41.0992 70.2261 40.9792 70.3008 40.8299C70.3808 40.6752 70.4208 40.5099 70.4208 40.3339C70.4208 40.1526 70.3701 40.0059 70.2688 39.8939C70.1675 39.7766 70.0288 39.7179 69.8528 39.7179C69.6181 39.7179 69.4235 39.8192 69.2688 40.0219C69.1141 40.2246 69.0368 40.4646 69.0368 40.7419C69.0368 40.9179 69.0821 41.0592 69.1728 41.1659C69.2635 41.2726 69.3968 41.3259 69.5728 41.3259ZM78.9414 42.2539L78.4214 41.7499C77.9041 42.1446 77.2854 42.3419 76.5654 42.3419C76.1334 42.3419 75.7574 42.2726 75.4374 42.1339C75.1174 41.9899 74.8694 41.7899 74.6934 41.5339C74.5227 41.2726 74.4374 40.9686 74.4374 40.6219C74.4374 40.2699 74.5307 39.9526 74.7174 39.6699C74.9094 39.3819 75.1947 39.1472 75.5734 38.9659C75.4347 38.7952 75.3361 38.6326 75.2774 38.4779C75.2187 38.3179 75.1894 38.1446 75.1894 37.9579C75.1894 37.6912 75.2587 37.4486 75.3974 37.2299C75.5361 37.0112 75.7361 36.8406 75.9974 36.7179C76.2641 36.5899 76.5787 36.5259 76.9414 36.5259C77.3094 36.5259 77.6214 36.5926 77.8774 36.7259C78.1334 36.8592 78.3254 37.0379 78.4534 37.2619C78.5814 37.4859 78.6401 37.7312 78.6294 37.9979H77.3414C77.3467 37.8539 77.3094 37.7446 77.2294 37.6699C77.1547 37.5899 77.0534 37.5499 76.9254 37.5499C76.7974 37.5499 76.6907 37.5872 76.6054 37.6619C76.5201 37.7366 76.4774 37.8326 76.4774 37.9499C76.4774 38.0619 76.5121 38.1792 76.5814 38.3019C76.6561 38.4246 76.7707 38.5659 76.9254 38.7259L78.2934 40.0619C78.3041 40.0352 78.3174 40.0032 78.3334 39.9659C78.3547 39.9286 78.3761 39.8859 78.3974 39.8379L78.6934 39.3339H80.0614L79.6774 40.0299C79.5334 40.3446 79.3681 40.6432 79.1814 40.9259L80.5334 42.2539H78.9414ZM76.6294 41.2379C76.9867 41.2379 77.3041 41.1366 77.5814 40.9339L76.3334 39.7259C75.9494 39.9232 75.7574 40.1899 75.7574 40.5259C75.7574 40.7286 75.8347 40.8992 75.9894 41.0379C76.1494 41.1712 76.3627 41.2379 76.6294 41.2379ZM82.8282 36.4379L82.6682 40.2699H81.5082L81.3482 36.4379H82.8282ZM82.1082 42.3179C81.8682 42.3179 81.6709 42.2486 81.5162 42.1099C81.3669 41.9659 81.2922 41.7899 81.2922 41.5819C81.2922 41.3686 81.3669 41.1899 81.5162 41.0459C81.6709 40.9019 81.8682 40.8299 82.1082 40.8299C82.3429 40.8299 82.5349 40.9019 82.6842 41.0459C82.8389 41.1899 82.9162 41.3686 82.9162 41.5819C82.9162 41.7899 82.8389 41.9659 82.6842 42.1099C82.5349 42.2486 82.3429 42.3179 82.1082 42.3179ZM85.961 36.4379L85.801 40.2699H84.641L84.481 36.4379H85.961ZM85.241 42.3179C85.001 42.3179 84.8037 42.2486 84.649 42.1099C84.4997 41.9659 84.425 41.7899 84.425 41.5819C84.425 41.3686 84.4997 41.1899 84.649 41.0459C84.8037 40.9019 85.001 40.8299 85.241 40.8299C85.4757 40.8299 85.6677 40.9019 85.817 41.0459C85.9717 41.1899 86.049 41.3686 86.049 41.5819C86.049 41.7899 85.9717 41.9659 85.817 42.1099C85.6677 42.2486 85.4757 42.3179 85.241 42.3179Z" fill="#8A939A"/>
<path d="M121.836 31.5588C128.187 31.5588 133.336 26.41 133.336 20.0587C133.336 13.7074 128.187 8.55859 121.836 8.55859C115.485 8.55859 110.336 13.7074 110.336 20.0587C110.336 26.41 115.485 31.5588 121.836 31.5588Z" fill="#3A3F4D"/>
<path d="M115.582 17.1573C115.582 16.0437 116.485 15.1406 117.599 15.1406C118.712 15.1406 119.615 16.0437 119.615 17.1573" stroke="#8A939A" stroke-miterlimit="10" stroke-linecap="round"/>
<path d="M124.055 17.1573C124.055 16.0437 124.957 15.1406 126.071 15.1406C127.185 15.1406 128.088 16.0437 128.088 17.1573" stroke="#8A939A" stroke-miterlimit="10" stroke-linecap="round"/>
<path d="M118.912 24.0778C118.912 22.4708 120.215 21.168 121.822 21.168C123.429 21.168 124.732 22.4708 124.732 24.0778" stroke="#8A939A" stroke-miterlimit="10" stroke-linecap="round"/>
<path d="M180.07 42.2383H117.34C115.11 42.2383 113.303 44.0461 113.303 46.2755V75.2014C113.303 77.4312 115.11 79.239 117.34 79.239H120.959L126.313 84.9818C126.739 85.4386 127.463 85.4386 127.889 84.9818L133.243 79.239H180.07C182.3 79.239 184.107 77.4312 184.107 75.2014V46.2755C184.107 44.0461 182.3 42.2383 180.07 42.2383Z" fill="#3A3F4D"/>
<path opacity="0.59" d="M137.357 49.6653L138.262 51.4989C138.305 51.5848 138.386 51.6439 138.48 51.6575L140.504 51.9515C140.742 51.9862 140.836 52.2779 140.664 52.4458L139.2 53.8732C139.132 53.9398 139.101 54.0355 139.117 54.1298L139.462 56.1453C139.503 56.3821 139.255 56.5627 139.042 56.4506L137.232 55.4991C137.148 55.4546 137.047 55.4546 136.962 55.4991L135.153 56.4506C134.94 56.5622 134.692 56.3817 134.732 56.1453L135.078 54.1298C135.094 54.036 135.063 53.9398 134.994 53.8732L133.53 52.4458C133.358 52.2779 133.453 51.9862 133.691 51.9515L135.714 51.6575C135.808 51.6439 135.89 51.5843 135.932 51.4989L136.837 49.6653C136.944 49.4501 137.251 49.4501 137.357 49.6653Z" fill="#8A939A"/>
<path opacity="0.59" d="M148.963 49.6653L149.868 51.4989C149.91 51.5848 149.992 51.6439 150.086 51.6575L152.109 51.9515C152.347 51.9862 152.442 52.2779 152.27 52.4458L150.806 53.8732C150.738 53.9398 150.706 54.0355 150.722 54.1298L151.068 56.1453C151.109 56.3821 150.86 56.5627 150.647 56.4506L148.838 55.4991C148.753 55.4546 148.652 55.4546 148.568 55.4991L146.758 56.4506C146.546 56.5622 146.297 56.3817 146.338 56.1453L146.683 54.1298C146.699 54.036 146.668 53.9398 146.6 53.8732L145.136 52.4458C144.964 52.2779 145.059 51.9862 145.296 51.9515L147.32 51.6575C147.414 51.6439 147.495 51.5843 147.538 51.4989L148.443 49.6653C148.55 49.4501 148.857 49.4501 148.963 49.6653Z" fill="#8A939A"/>
<path opacity="0.59" d="M160.572 49.6653L161.477 51.4989C161.519 51.5848 161.601 51.6439 161.695 51.6575L163.719 51.9515C163.957 51.9862 164.051 52.2779 163.879 52.4458L162.415 53.8732C162.347 53.9398 162.316 54.0355 162.332 54.1298L162.677 56.1453C162.718 56.3821 162.47 56.5627 162.257 56.4506L160.447 55.4991C160.363 55.4546 160.262 55.4546 160.177 55.4991L158.368 56.4506C158.155 56.5622 157.907 56.3817 157.947 56.1453L158.293 54.1298C158.309 54.036 158.278 53.9398 158.209 53.8732L156.745 52.4458C156.573 52.2779 156.668 51.9862 156.905 51.9515L158.929 51.6575C159.023 51.6439 159.105 51.5843 159.147 51.4989L160.052 49.6653C160.159 49.4501 160.466 49.4501 160.572 49.6653Z" fill="#8A939A"/>
<path d="M125.75 49.6653L126.655 51.4989C126.697 51.5848 126.779 51.6439 126.873 51.6575L128.897 51.9515C129.134 51.9862 129.229 52.2779 129.057 52.4458L127.593 53.8732C127.524 53.9398 127.493 54.0355 127.509 54.1298L127.855 56.1453C127.895 56.3821 127.647 56.5627 127.434 56.4506L125.624 55.4991C125.54 55.4546 125.439 55.4546 125.355 55.4991L123.545 56.4506C123.332 56.5622 123.084 56.3817 123.125 56.1453L123.47 54.1298C123.486 54.036 123.455 53.9398 123.387 53.8732L121.923 52.4458C121.751 52.2779 121.846 51.9862 122.083 51.9515L124.107 51.6575C124.201 51.6439 124.283 51.5843 124.325 51.4989L125.23 49.6653C125.336 49.4501 125.643 49.4501 125.75 49.6653Z" fill="#96A0AA"/>
<path opacity="0.59" d="M172.179 49.6653L173.084 51.4989C173.126 51.5848 173.208 51.6439 173.302 51.6575L175.326 51.9515C175.564 51.9862 175.658 52.2779 175.486 52.4458L174.022 53.8732C173.954 53.9398 173.923 54.0355 173.939 54.1298L174.284 56.1453C174.325 56.3821 174.076 56.5627 173.864 56.4506L172.054 55.4991C171.969 55.4546 171.869 55.4546 171.784 55.4991L169.974 56.4506C169.762 56.5622 169.513 56.3817 169.553 56.1453L169.899 54.1298C169.915 54.036 169.884 53.9398 169.816 53.8732L168.352 52.4458C168.179 52.2779 168.275 51.9862 168.512 51.9515L170.535 51.6575C170.63 51.6439 170.711 51.5843 170.753 51.4989L171.659 49.6653C171.765 49.4501 172.073 49.4501 172.179 49.6653Z" fill="#8A939A"/>
<path d="M121.836 65.5117H142.77" stroke="#8A939A" stroke-miterlimit="10" stroke-linecap="round"/>
<path d="M145.827 65.5117H162.296" stroke="#8A939A" stroke-miterlimit="10" stroke-linecap="round"/>
<path d="M165.199 65.5117H175.576" stroke="#8A939A" stroke-miterlimit="10" stroke-linecap="round"/>
<path d="M121.836 68.6133H135.889" stroke="#8A939A" stroke-miterlimit="10" stroke-linecap="round"/>
<path d="M138.477 68.6133H154.063" stroke="#8A939A" stroke-miterlimit="10" stroke-linecap="round"/>
<path d="M157.769 68.6133H175.576" stroke="#8A939A" stroke-miterlimit="10" stroke-linecap="round"/>
<path d="M121.836 62.4062H139.944" stroke="#8A939A" stroke-miterlimit="10" stroke-linecap="round"/>
<path d="M142.96 62.4062H158.25" stroke="#8A939A" stroke-miterlimit="10" stroke-linecap="round"/>
<path d="M161.194 62.4062H175.575" stroke="#8A939A" stroke-miterlimit="10" stroke-linecap="round"/>
<path d="M121.836 71.7148H140.359" stroke="#8A939A" stroke-miterlimit="10" stroke-linecap="round"/>
<path d="M164.97 118.556C173.631 118.556 180.653 111.535 180.653 102.874C180.653 94.2126 173.631 87.1914 164.97 87.1914C156.309 87.1914 149.288 94.2126 149.288 102.874C149.288 111.535 156.309 118.556 164.97 118.556Z" fill="#3A3F4D"/>
<path d="M170.316 94.707H173.531C174.044 94.707 174.46 95.1225 174.46 95.6356V103.708C174.46 104.22 174.044 104.636 173.531 104.636H170.316C169.804 104.636 169.388 104.221 169.388 103.708V95.6356C169.388 95.123 169.804 94.707 170.316 94.707Z" fill="#8A939A"/>
<path d="M156.219 103.894C155.753 104.187 155.451 104.714 155.481 105.311C155.523 106.164 156.275 106.811 157.129 106.811H162.134C160.029 109.781 160.734 112.305 161.08 113.158C161.156 113.346 161.273 113.514 161.423 113.651L161.434 113.661C161.895 114.083 162.591 114.183 163.119 113.85C163.527 113.592 163.759 113.153 163.759 112.694V111.241C163.759 111.08 163.829 110.928 163.947 110.819C166.543 108.427 167.52 105.8 167.787 104.932C167.843 104.751 167.87 104.564 167.87 104.374V96.5321C167.87 96.0331 167.466 95.6289 166.968 95.6289H157.129C156.275 95.6289 155.524 96.2756 155.481 97.1282C155.451 97.7256 155.754 98.2532 156.219 98.5458C155.775 98.8253 155.479 99.3191 155.479 99.8828C155.479 100.446 155.775 100.94 156.219 101.22C155.775 101.499 155.479 101.993 155.479 102.557C155.478 103.12 155.775 103.614 156.219 103.894Z" fill="#8A939A"/>
<path d="M85.3789 76.9297L99.3358 90.8862" stroke="#3A3F4D" stroke-width="3" stroke-miterlimit="10" stroke-linecap="round"/>
<path d="M99.3358 76.9297L85.3789 90.8862" stroke="#3A3F4D" stroke-width="3" stroke-miterlimit="10" stroke-linecap="round"/>
<path d="M18.1106 86.5312H51.764C53.6646 86.5312 55.2056 88.0722 55.2056 89.9729V107.777C55.2056 109.678 53.6646 111.219 51.764 111.219H48.6787L44.1144 116.114C43.7515 116.503 43.1348 116.503 42.7718 116.114L38.208 111.219H18.1106C16.2099 111.219 14.6689 109.678 14.6689 107.777V89.9729C14.6689 88.0722 16.2099 86.5312 18.1106 86.5312Z" fill="#3A3F4D"/>
<path d="M25.775 92.4844C25.3201 92.4844 24.9632 92.8591 24.9717 93.3144L25.186 100.774H26.364L26.5783 93.3144V93.2788C26.5778 92.8412 26.2209 92.4844 25.775 92.4844ZM25.775 102.836C25.186 102.836 24.7578 103.29 24.7578 103.906C24.7578 104.513 25.1771 104.977 25.775 104.977C26.3996 104.977 26.7921 104.513 26.7921 103.906C26.7921 103.29 26.3996 102.836 25.775 102.836Z" fill="#8A939A" stroke="#8A939A" stroke-miterlimit="10"/>
<path d="M32.982 92.2148C32.5271 92.2148 32.1698 92.5895 32.1787 93.0449L32.393 100.505H33.571L33.7853 93.0449V93.0092C33.7853 92.5717 33.4284 92.2148 32.982 92.2148ZM32.982 102.566C32.393 102.566 31.9648 103.021 31.9648 103.637C31.9648 104.243 32.3841 104.707 32.982 104.707C33.6066 104.707 33.9992 104.243 33.9992 103.637C33.9996 103.021 33.6066 102.566 32.982 102.566Z" fill="#8A939A" stroke="#8A939A" stroke-miterlimit="10"/>
<path d="M40.192 92.4844C39.7371 92.4844 39.3802 92.8591 39.3886 93.3144L39.603 100.774H40.781L40.9953 93.3144V93.2788C40.9953 92.8412 40.6379 92.4844 40.192 92.4844ZM40.192 102.836C39.603 102.836 39.1748 103.29 39.1748 103.906C39.1748 104.513 39.594 104.977 40.192 104.977C40.8166 104.977 41.2091 104.513 41.2091 103.906C41.2091 103.29 40.8166 102.836 40.192 102.836Z" fill="#8A939A" stroke="#8A939A" stroke-miterlimit="10"/>
<path d="M126.705 96.6213C127.277 93.8263 130.935 93.1089 132.524 95.4771L132.74 95.8006L133.021 96.2133L135.094 99.3084L138.119 103.82L138.832 104.884L139.108 105.292L152.005 124.524C152.586 125.391 153.041 126.343 153.35 127.342L158.04 142.405L138.119 135.929V137.069L135.094 130.264L126.658 108.289L126.479 107.633C125.494 104.017 125.573 100.194 126.705 96.6213Z" fill="#3B404E"/>
<path opacity="0.7" d="M138.912 104.999C138.143 105.473 137.238 105.627 136.361 105.43C135.475 105.234 134.71 104.704 134.227 103.935L132.281 100.882C131.325 99.3716 131.7 97.388 133.107 96.3281L135.095 99.3013L138.12 103.813L138.832 104.877L138.912 104.999Z" fill="#636979"/>
<defs>
<filter id="filter0_d_6372_2672" x="79.5137" y="131.77" width="12" height="12" filterUnits="userSpaceOnUse" color-interpolation-filters="sRGB">
<feFlood flood-opacity="0" result="BackgroundImageFix"/>
<feColorMatrix in="SourceAlpha" type="matrix" values="0 0 0 0 0 0 0 0 0 0 0 0 0 0 0 0 0 0 127 0" result="hardAlpha"/>
<feOffset dy="4"/>
<feGaussianBlur stdDeviation="2"/>
<feComposite in2="hardAlpha" operator="out"/>
<feColorMatrix type="matrix" values="0 0 0 0 0 0 0 0 0 0 0 0 0 0 0 0 0 0 0.25 0"/>
<feBlend mode="normal" in2="BackgroundImageFix" result="effect1_dropShadow_6372_2672"/>
<feBlend mode="normal" in="SourceGraphic" in2="effect1_dropShadow_6372_2672" result="shape"/>
</filter>
<filter id="filter1_d_6372_2672" x="79.5137" y="144.773" width="12" height="12" filterUnits="userSpaceOnUse" color-interpolation-filters="sRGB">
<feFlood flood-opacity="0" result="BackgroundImageFix"/>
<feColorMatrix in="SourceAlpha" type="matrix" values="0 0 0 0 0 0 0 0 0 0 0 0 0 0 0 0 0 0 127 0" result="hardAlpha"/>
<feOffset dy="4"/>
<feGaussianBlur stdDeviation="2"/>
<feComposite in2="hardAlpha" operator="out"/>
<feColorMatrix type="matrix" values="0 0 0 0 0 0 0 0 0 0 0 0 0 0 0 0 0 0 0.25 0"/>
<feBlend mode="normal" in2="BackgroundImageFix" result="effect1_dropShadow_6372_2672"/>
<feBlend mode="normal" in="SourceGraphic" in2="effect1_dropShadow_6372_2672" result="shape"/>
</filter>
<filter id="filter2_d_6372_2672" x="79.5137" y="158.773" width="12" height="12" filterUnits="userSpaceOnUse" color-interpolation-filters="sRGB">
<feFlood flood-opacity="0" result="BackgroundImageFix"/>
<feColorMatrix in="SourceAlpha" type="matrix" values="0 0 0 0 0 0 0 0 0 0 0 0 0 0 0 0 0 0 127 0" result="hardAlpha"/>
<feOffset dy="4"/>
<feGaussianBlur stdDeviation="2"/>
<feComposite in2="hardAlpha" operator="out"/>
<feColorMatrix type="matrix" values="0 0 0 0 0 0 0 0 0 0 0 0 0 0 0 0 0 0 0.25 0"/>
<feBlend mode="normal" in2="BackgroundImageFix" result="effect1_dropShadow_6372_2672"/>
<feBlend mode="normal" in="SourceGraphic" in2="effect1_dropShadow_6372_2672" result="shape"/>
</filter>
</defs>
</svg>
