<svg width="263" height="243" viewBox="0 0 263 243" fill="none" xmlns="http://www.w3.org/2000/svg">
<path d="M64.0907 235.715C62.2095 236.694 61.0548 238.607 62.1014 240.508C63.1474 242.409 70.4746 242.232 77.328 242.258C84.1814 242.285 88.2475 242.122 88.8975 237.933C89.5482 233.744 80.6029 230.97 79.5425 230.973C78.4821 230.976 77.8251 231.96 77.8251 231.96L64.0907 235.715Z" fill="#2E344B"/>
<path d="M63.7518 217.873C63.7711 218.119 62.4036 237.092 62.9379 238.704C63.4722 240.315 75.8632 240.226 75.8632 240.226C75.8632 240.226 75.6938 234.945 77.8257 231.96L73.7576 230.358C73.7576 230.358 76.8651 219.711 76.9181 218.301C76.9698 216.89 63.7518 217.873 63.7518 217.873Z" fill="#D8877B"/>
<path d="M63.7515 217.873C63.7598 217.974 63.5325 221.252 63.2998 225.184C67.3755 225.956 71.6585 225.559 75.5345 224.068C75.7906 223.13 76.0392 222.199 76.2541 221.362L74.8211 217.634C71.1056 217.326 63.7515 217.873 63.7515 217.873Z" fill="#B44E50"/>
<path d="M69.8748 235.65C69.6868 235.676 69.5016 235.715 69.3239 235.785C69.1222 235.865 68.9314 236.003 68.7428 236.111C68.4474 236.28 68.1306 236.436 67.8049 236.474C67.5329 236.506 67.2726 236.48 67.0303 236.371C66.8919 236.308 66.8037 236.246 66.6901 236.142C66.5586 236.021 66.4801 235.865 66.2776 235.835C66.1392 235.815 66.0036 235.878 65.9395 236.007C65.7247 236.442 66.257 236.887 66.5813 237.081C66.9311 237.289 67.3456 237.37 67.7471 237.369C68.1912 237.369 68.6367 237.225 69.032 237.028C69.5002 236.796 69.8906 236.5 70.1213 236.015C70.2019 235.849 70.0676 235.623 69.8748 235.65Z" fill="#B44E50"/>
<path d="M75.8629 240.226C75.8629 240.226 75.6935 234.945 77.8253 231.96L77.3943 231.791C75.991 232.779 74.9602 234.305 74.3563 235.943C73.8522 237.309 73.6105 238.752 73.4756 240.208C74.8886 240.233 75.8629 240.226 75.8629 240.226Z" fill="#B44E50"/>
<path d="M22.4492 233.929C20.4978 234.754 19.1971 236.568 20.0915 238.548C20.986 240.527 28.3035 240.939 35.1336 241.517C41.9636 242.094 46.0289 242.259 47.0047 238.136C47.9804 234.012 39.2802 230.528 38.2232 230.445C37.1662 230.363 36.4343 231.291 36.4343 231.291L22.4492 233.929Z" fill="#2E344B"/>
<path d="M23.5051 216.116C23.5051 216.363 20.6592 235.166 21.0662 236.816C21.4725 238.465 33.8318 239.372 33.8318 239.372C33.8318 239.372 34.0755 234.094 36.4339 231.29L32.5042 229.366C32.5042 229.366 36.4339 219.002 36.5971 217.6C36.7589 216.198 23.5051 216.116 23.5051 216.116Z" fill="#D8877B"/>
<path d="M23.5053 216.116C23.5053 216.218 23.0226 219.467 22.4834 223.367C26.4861 224.464 30.7863 224.414 34.767 223.238C35.0954 222.324 35.4163 221.416 35.6952 220.599L34.5577 216.767C30.8786 216.162 23.5053 216.116 23.5053 216.116Z" fill="#B44E50"/>
<path d="M24.1562 113.524C22.2048 120.122 18.9526 140.904 21.2291 150.8C23.5055 160.696 23.8312 177.025 24.4812 186.921C25.132 196.817 20.5784 219.084 20.5784 219.084C20.5784 219.084 32.287 223.042 38.3038 222.218C38.3038 222.218 46.5971 190.384 49.5242 178.674C52.4514 166.963 53.4271 153.933 53.4271 153.933C53.4271 153.933 58.3057 174.88 60.0946 185.601C61.8835 196.322 61.0703 222.382 61.0703 222.382C61.0703 222.382 70.99 224.527 78.6332 223.042C78.6332 223.042 78.9582 183.952 77.6575 161.191C76.3568 138.429 68.3885 112.698 68.3885 112.698L24.1562 113.524Z" fill="#3354CC"/>
<path d="M69.2493 115.63C69.0882 115.062 68.9463 114.571 68.8258 114.161L67.3619 112.719L24.1576 113.524C23.8781 114.469 23.5716 115.713 23.259 117.166C48.9059 128.665 65.9124 118.031 69.2493 115.63Z" fill="#2E344B"/>
<path d="M105.249 98.4593C106.17 99.2841 109.423 101.373 110.832 101.428C112.242 101.483 117.12 101.978 118.529 102.363C119.939 102.747 119.704 103.503 119.162 103.888C118.62 104.273 116.253 104.617 116.253 104.617C116.253 104.617 120.156 107.036 121.023 107.751C121.891 108.465 121.728 109.565 120.644 109.73C120.644 109.73 121.674 110.335 121.294 111.269C120.915 112.204 119.885 111.929 119.885 111.929C119.885 111.929 119.994 113.469 118.584 113.633C118.584 113.633 118.639 114.623 117.229 114.458C115.82 114.293 112.079 111.819 111.212 111.325C110.345 110.829 100.696 106.212 100.696 106.212L105.249 98.4593Z" fill="#D8877B"/>
<path d="M104.669 99.4469L100.696 106.211C100.696 106.211 102.482 107.066 104.585 108.078C106.852 104.674 107.502 101.439 107.678 100.126C107.316 99.9141 106.964 99.6955 106.641 99.4832L104.669 99.4469Z" fill="#B44E50"/>
<path d="M27.1389 24.1814C28.7654 23.6317 32.9161 34.8649 30.6624 35.8922C28.4087 36.9196 25.35 32.9785 25.35 32.9785L24.8081 27.8103L27.1389 24.1814Z" fill="#2E344B"/>
<path d="M28.2757 34.8471C30.444 33.6374 30.769 33.5823 33.9131 34.0222C37.0571 34.4622 40.2012 33.4174 40.2012 33.4174L43.4533 28.1396C43.4533 28.1396 42.1526 20.1129 41.8269 20.1129C41.5019 20.1129 36.0807 22.0921 33.3705 22.8618C30.6602 23.6314 24.8059 25.9403 24.8059 25.9403L28.2757 34.8471Z" fill="#D8877B"/>
<path d="M54.6764 13.1575C35.5642 10.9603 33.7643 28.1431 34.333 38.9788C34.9011 49.8146 15.5802 64.8002 27.2868 86.1259C38.9926 107.452 60.2457 101.688 66.4966 89.9301C72.7475 78.1725 66.2694 56.8468 67.4055 43.1295C68.5424 29.4107 71.7243 15.1172 54.6764 13.1575Z" fill="#2E344B"/>
<path d="M25.1499 26.819L28.2767 34.8471C29.5782 34.1215 30.2178 33.8135 31.1991 33.7764C29.1643 31.2559 27.876 28.125 27.562 24.8816C27.4098 24.9389 27.2638 24.994 27.1192 25.0492L25.1499 26.819Z" fill="#B44E50"/>
<path d="M35.5419 53.4856C25.9472 53.1559 18.5787 47.2698 17.654 43.9188C17.2746 42.5444 30.6633 35.8921 30.6633 35.8921C30.6633 35.8921 26.7604 32.648 27.1399 24.1813C27.1399 24.1813 6.59538 31.2184 0.904268 39.7955C-4.78753 48.3726 17.8165 66.3508 28.8744 70.8039C28.8744 70.8039 28.3869 82.0195 28.2237 90.267C28.0612 98.5137 23.1826 113.853 23.1826 113.853C23.1826 113.853 44.6484 126.389 70.342 114.678C70.342 114.678 66.4392 99.504 66.6017 94.391C66.7642 89.278 69.5288 83.8347 68.8781 78.2272C68.8781 78.2272 75.3012 89.3604 80.8305 95.1334C86.3598 100.906 102.54 108.411 102.54 108.411C102.54 108.411 106.768 102.803 107.744 98.844C107.744 98.844 90.9939 87.1332 89.205 84.1643C87.4161 81.1954 79.4478 64.0419 75.7075 60.9082C71.9671 57.7745 65.228 55.7735 62.4544 55.7128C59.6801 55.652 51.6402 58.1041 51.6402 58.1041L35.5419 53.4856Z" fill="#7481C9"/>
<path d="M42.8593 44.826C42.8593 44.826 41.8836 51.3408 40.8266 52.6607C39.7696 53.98 35.5417 53.4855 35.5417 53.4855C35.5417 53.4855 37.7369 63.2995 48.3886 63.8764C59.0402 64.454 62.4549 55.7121 62.4549 55.7121C62.4549 55.7121 59.1215 55.4648 57.8201 54.7224C56.5193 53.98 56.7631 50.187 56.7631 50.187L42.8593 44.826Z" fill="#D8877B"/>
<path d="M56.6808 51.9183L55.5846 49.7323L42.8583 44.826C42.8583 44.826 42.4238 47.7181 41.8213 50.0389C48.9564 56.8672 56.6808 51.9183 56.6808 51.9183Z" fill="#B44E50"/>
<path d="M41.607 34.9443C41.607 34.9443 40.9535 33.5321 38.3108 34.4833C35.6687 35.4345 34.8162 42.4661 40.6974 41.1691C40.6974 41.1691 44.1864 54.3019 56.8356 52.2933C68.087 50.5068 65.7004 31.9474 65.7004 31.9474C65.7004 31.9474 62.5178 29.4115 60.2448 25.1464C60.2462 25.1457 55.1321 31.9467 41.607 34.9443Z" fill="#D8877B"/>
<path d="M120.593 109.51C120.397 109.354 120.153 109.266 119.928 109.159C119.713 109.056 119.499 108.954 119.285 108.85C118.826 108.627 118.364 108.41 117.904 108.19C117.444 107.971 116.987 107.742 116.526 107.523C116.311 107.42 116.093 107.321 115.878 107.22C115.682 107.128 115.499 107.027 115.281 107.013C115.263 107.012 115.259 107.034 115.268 107.046C115.421 107.24 115.645 107.344 115.854 107.466C116.06 107.585 116.265 107.706 116.474 107.819C116.906 108.055 117.343 108.283 117.78 108.511C118.217 108.738 118.655 108.962 119.098 109.176C119.312 109.279 119.527 109.381 119.742 109.483C119.965 109.588 120.196 109.733 120.438 109.783C120.577 109.811 120.731 109.62 120.593 109.51Z" fill="#B44E50"/>
<path d="M119.947 111.618C119.085 111.112 118.149 110.687 117.24 110.276C116.788 110.072 116.334 109.872 115.878 109.676C115.488 109.508 115.009 109.24 114.578 109.264C114.561 109.265 114.554 109.284 114.564 109.296C114.854 109.64 115.409 109.823 115.803 110.011C116.234 110.216 116.663 110.425 117.09 110.638C117.974 111.078 118.851 111.554 119.748 111.963C119.974 112.067 120.172 111.75 119.947 111.618Z" fill="#B44E50"/>
<path d="M118.735 113.346C118.335 113.139 117.904 112.987 117.497 112.79C117.089 112.593 116.684 112.39 116.288 112.17C115.897 111.954 115.523 111.711 115.136 111.49C114.788 111.292 114.442 111.127 114.035 111.149C114.002 111.151 113.98 111.202 114.016 111.219C114.792 111.585 115.485 112.103 116.229 112.528C116.609 112.746 116.997 112.952 117.394 113.14C117.784 113.325 118.19 113.535 118.605 113.658C118.785 113.711 118.907 113.435 118.735 113.346Z" fill="#B44E50"/>
<path d="M114.692 104.277C114.348 104.391 114.057 104.621 113.725 104.767C113.387 104.916 113.027 105.019 112.664 105.081C112.301 105.142 111.928 105.154 111.561 105.124C111.19 105.094 110.833 104.992 110.466 104.939C110.286 104.913 110.157 105.146 110.334 105.255C111.014 105.669 111.963 105.669 112.724 105.56C113.122 105.502 113.511 105.396 113.884 105.24C114.261 105.082 114.663 104.903 114.906 104.558C115.002 104.422 114.842 104.226 114.692 104.277Z" fill="#B44E50"/>
<path d="M113.684 106.024C113.369 105.982 113.045 106.385 112.853 106.589C112.596 106.86 112.366 107.154 112.166 107.47C111.97 107.779 111.805 108.108 111.667 108.448C111.526 108.795 111.367 109.179 111.401 109.559C111.415 109.711 111.623 109.799 111.705 109.643C111.869 109.329 111.927 108.972 112.051 108.641C112.176 108.306 112.336 107.986 112.521 107.681C112.702 107.383 112.907 107.099 113.136 106.837C113.257 106.7 113.389 106.575 113.513 106.441C113.607 106.341 113.715 106.214 113.73 106.071C113.734 106.044 113.706 106.026 113.684 106.024Z" fill="#B44E50"/>
<path d="M40.3021 38.2583C40.3042 38.2262 40.309 38.1948 40.3048 38.1641C40.3344 37.4363 40.1451 36.5116 39.5116 36.0954C39.2093 35.897 38.8017 35.8586 38.4877 36.05C38.2157 36.2155 37.9754 36.5535 38.0064 36.8832C38.0188 37.0173 38.1606 37.1353 38.2901 37.048C38.3975 36.9761 38.4615 36.8999 38.5428 36.8001C38.5992 36.7309 38.6571 36.6513 38.7301 36.5989C38.8898 36.4837 39.0902 36.5507 39.221 36.6792C39.3952 36.8511 39.4572 37.1067 39.502 37.3406C39.5233 37.451 39.5295 37.5662 39.5323 37.6801C39.4648 37.6919 39.3987 37.708 39.3346 37.7303C38.9153 37.877 38.562 38.1773 38.4278 38.6173C38.299 39.0412 38.4367 39.5413 38.8175 39.7809C39.1467 39.9883 39.6831 39.9659 39.8036 39.5259C39.8414 39.3877 39.7361 39.2696 39.6046 39.2605C39.5453 39.2564 39.4365 39.2396 39.3911 39.2312C39.3518 39.2242 39.2561 39.19 39.2355 39.1781C39.1522 39.132 39.115 39.0315 39.1356 38.9148C39.1639 38.7605 39.263 38.6718 39.3863 38.6026C39.4352 38.5747 39.5123 38.5482 39.5929 38.5286C39.6411 38.5894 39.7016 38.6411 39.787 38.6648C40.0101 38.727 40.2181 38.5887 40.289 38.3757C40.3014 38.3387 40.2993 38.3023 40.3028 38.2653C40.3014 38.2646 40.3021 38.2611 40.3021 38.2583Z" fill="#B44E50"/>
<path d="M65.792 32.861C65.7451 32.2848 65.7025 31.9468 65.7025 31.9468C65.7025 31.9468 62.5198 29.4109 60.2468 25.1458C60.2468 25.1458 55.1328 31.9468 41.6077 34.9444C41.6077 34.9444 53.328 33.6041 60.0334 26.9183C60.0347 26.9183 63.1884 30.8084 65.792 32.861Z" fill="#B44E50"/>
<path d="M68.9943 76.3714C68.6342 75.1157 68.1329 73.4884 67.0201 72.7313C66.868 72.628 66.6889 72.7984 66.7268 72.9604C66.8873 73.6463 67.2639 74.1987 67.5614 74.8287C67.8692 75.4817 68.115 76.1626 68.3085 76.8589C68.6948 78.2529 68.8573 79.6986 68.8359 81.145C68.7905 84.2836 67.9614 87.4202 67.0828 90.4114C67.0642 90.4736 67.1606 90.5183 67.1889 90.4568C68.5819 87.4174 69.581 84.2424 69.5892 80.8594C69.5927 79.3494 69.4102 77.8227 68.9943 76.3714Z" fill="#6779B7"/>
<path d="M23.9251 26.3185C23.9306 28.2558 24.1813 30.1813 24.644 32.06C25.0964 33.894 25.7519 35.6778 26.5878 37.3679C26.6684 37.5313 26.7524 37.6968 26.8364 37.8624C27.1063 37.7192 27.3701 37.5809 27.6228 37.4482C26.8433 36.0039 26.2043 34.4849 25.723 32.9121C25.232 31.3065 24.9057 29.654 24.7266 27.9835C24.6426 27.1992 24.6013 26.4127 24.582 25.6242C24.5779 25.472 24.5696 25.3058 24.5607 25.134C24.3568 25.2129 24.1393 25.2974 23.9162 25.3854C23.9127 25.8226 23.9244 26.1837 23.9251 26.3185Z" fill="#6779B7"/>
<path d="M105.826 97.4873C105.668 97.3741 105.501 97.2554 105.327 97.1311C105.089 97.7541 104.906 98.4099 104.662 98.9909C104.136 100.24 103.519 101.452 102.833 102.619C102.163 103.761 101.429 104.865 100.666 105.945C100.399 106.323 100.103 106.703 99.8105 107.09C100.113 107.24 100.393 107.378 100.653 107.505C100.887 107.155 101.113 106.807 101.334 106.481C102.101 105.355 102.838 104.207 103.508 103.019C104.513 101.234 105.217 99.3988 105.826 97.4873Z" fill="#6779B7"/>
<path d="M69.4368 110.993C68.9417 111.244 68.4425 111.487 67.9419 111.726C66.3747 112.47 64.7614 113.092 63.1205 113.645C59.9172 114.725 56.6341 115.54 53.289 116.017C46.5319 116.981 39.4705 116.493 32.8905 114.68C31.0444 114.172 29.2486 113.52 27.4947 112.745C26.2973 112.216 25.1784 111.573 24.0711 110.897C24.0353 111.02 23.9995 111.143 23.9651 111.26C26.0976 112.907 28.6819 114.03 31.1835 114.857C34.4219 115.929 37.7938 116.589 41.1803 116.945C48.1886 117.68 55.3154 116.972 62.078 114.993C63.9585 114.443 65.7956 113.734 67.5976 112.961C68.3041 112.658 68.9927 112.325 69.6703 111.965C69.5952 111.659 69.5188 111.337 69.4368 110.993Z" fill="#6779B7"/>
<path d="M53.0493 66.6357C56.5026 66.0931 59.1453 64.1012 61.4624 61.55C62.8334 60.0407 64.1823 58.1292 64.9989 56.0731C64.7214 56.0123 64.455 55.9593 64.1995 55.9139C64.1706 55.9872 64.1506 56.0605 64.1196 56.1332C63.5247 57.5258 62.7087 58.8248 61.7867 60.017C59.8084 62.5759 57.3027 64.7948 54.1387 65.6077C48.1645 67.1421 41.1968 65.7732 36.9717 60.9961C35.0051 58.7724 33.9874 56.182 33.6169 53.3389C33.4041 53.3151 33.1976 53.2788 32.9875 53.2495C33.1108 55.8335 34.2649 58.4288 35.7577 60.436C37.6623 62.9971 40.3388 64.8234 43.3238 65.8438C46.4121 66.899 49.835 67.1407 53.0493 66.6357Z" fill="#6779B7"/>
<path d="M39.6456 215.728C37.2741 215.961 34.8848 215.995 32.5085 215.823C30.3023 215.663 28.1112 215.29 25.9862 214.664C25.2047 214.433 24.4459 214.147 23.6926 213.848C24.4404 211.202 24.4066 208.417 24.5864 205.691C24.7812 202.74 25.2522 199.834 25.8403 196.939C26.9923 191.267 28.4217 185.618 28.4761 179.792C28.5326 173.771 27.8709 167.639 27.0164 161.687C26.1653 155.765 24.5017 149.999 24.05 144.013C23.8034 140.747 23.851 137.458 24.1787 134.2C24.2923 133.069 24.4555 131.952 24.6469 130.841C24.7186 130.876 24.8033 130.894 24.9052 130.87C26.9695 130.396 28.9327 129.176 30.5109 127.774C31.3193 127.056 32.0416 126.243 32.6785 125.366C32.9863 124.943 33.2707 124.502 33.5303 124.047C33.7865 123.597 34.1349 123.076 34.1714 122.548C34.1934 122.227 33.7693 122.08 33.5613 122.292C33.2308 122.629 33.069 123.146 32.8362 123.556C32.589 123.991 32.3191 124.415 32.0278 124.822C31.4267 125.662 30.725 126.429 29.9593 127.117C28.4279 128.495 26.6824 129.377 24.7798 130.088C25.1448 128.113 25.5958 126.156 26.0537 124.188C26.1446 123.797 25.5986 123.653 25.4657 124.024C23.5404 129.393 22.9248 135.433 23.0377 141.116C23.1548 146.995 24.4714 152.64 25.6158 158.374C26.8194 164.407 27.4708 170.614 27.7153 176.766C27.8365 179.818 27.7249 182.86 27.2842 185.883C26.86 188.794 26.1832 191.658 25.5366 194.524C24.8349 197.635 24.1622 200.761 23.8151 203.936C23.4647 207.144 23.6389 210.38 22.9069 213.536C22.5103 213.373 22.1144 213.208 21.7177 213.046C21.6785 213.265 21.6399 213.485 21.6021 213.694C22.8091 214.423 24.1484 214.943 25.487 215.383C27.6237 216.084 29.8382 216.52 32.0705 216.753C34.5336 217.011 37.0159 216.97 39.4831 216.799C39.5623 216.793 39.6415 216.784 39.7206 216.778C39.8122 216.426 39.9066 216.062 40.005 215.685C39.8838 215.699 39.7647 215.716 39.6456 215.728Z" fill="#2E344B"/>
<path d="M55.4223 134.096C55.3611 133.891 55.107 133.917 55.0367 134.096C54.7455 134.842 54.7978 135.691 54.7613 136.482C54.72 137.371 54.6828 138.259 54.6449 139.148C54.5706 140.888 54.4989 142.628 54.4322 144.369C54.3661 146.102 54.2683 147.841 54.0094 149.557C53.8868 150.372 53.7298 151.183 53.5246 151.981C53.3215 152.773 52.9848 153.546 52.8588 154.353C52.8312 154.527 53.033 154.619 53.1376 154.473C54.0273 153.221 54.3103 151.365 54.5761 149.876C54.8728 148.211 55.0257 146.523 55.1338 144.837C55.2481 143.054 55.3087 141.267 55.3817 139.482C55.4182 138.594 55.4561 137.705 55.4905 136.816C55.5242 135.931 55.6792 134.955 55.4223 134.096Z" fill="#2E344B"/>
<path d="M59.5052 163.746C58.9695 161.517 58.4103 159.289 57.7045 157.109C57.0215 154.998 56.2268 152.816 54.9296 151.008C54.7746 150.792 54.4627 150.973 54.5756 151.219C55.4508 153.121 56.3012 155.005 56.9244 157.013C57.5207 158.932 57.991 160.889 58.4585 162.844C59.4652 167.056 60.3198 171.306 61.0717 175.572C62.5797 184.124 63.395 192.792 63.6098 201.475C63.7303 206.355 63.7007 211.244 63.4445 216.119C63.4108 216.763 64.4058 216.764 64.4333 216.119C65.1708 198.567 63.6126 180.827 59.5052 163.746Z" fill="#2E344B"/>
<path d="M78.6668 216.326C76.7946 216.762 74.8907 217.045 72.9716 217.152C70.8012 217.272 68.6225 217.188 66.459 216.986C65.2471 216.873 64.0379 216.724 62.8329 216.551C62.3034 216.475 61.7512 216.376 61.2017 216.318C61.1982 216.569 61.1941 216.82 61.1907 217.059C61.4668 217.123 61.7512 217.158 61.9839 217.2C63.0877 217.405 64.208 217.544 65.3222 217.679C67.7508 217.973 70.1994 218.138 72.6459 218.052C74.6676 217.98 76.6851 217.719 78.6641 217.29C78.6648 216.98 78.6661 216.656 78.6668 216.326Z" fill="#2E344B"/>
<path d="M71.4464 123.884C70.9568 123.717 70.4748 123.52 70.0059 123.273C69.2492 122.875 68.5234 122.39 67.8686 121.836C67.5277 121.548 67.2034 121.238 66.8997 120.909C66.6167 120.603 66.3723 120.263 66.0287 120.022C65.8813 119.919 65.6899 120.089 65.7346 120.252C65.9639 121.087 66.7951 121.839 67.4051 122.407C68.1034 123.057 68.8815 123.606 69.7208 124.051C70.3461 124.382 71.0099 124.668 71.6943 124.882C71.6103 124.542 71.5284 124.212 71.4464 123.884Z" fill="#2E344B"/>
<path d="M28.2194 234.329C28.03 234.339 27.8427 234.364 27.6596 234.42C27.4523 234.482 27.2512 234.605 27.055 234.697C26.7472 234.841 26.4187 234.972 26.0917 234.983C25.8183 234.993 25.5608 234.946 25.3273 234.818C25.1938 234.744 25.1111 234.676 25.0058 234.562C24.8839 234.431 24.8178 234.269 24.6188 234.223C24.4825 234.192 24.342 234.245 24.2683 234.368C24.0204 234.783 24.5162 235.271 24.8247 235.49C25.1566 235.725 25.5642 235.839 25.9643 235.871C26.407 235.906 26.8629 235.798 27.2719 235.634C27.7567 235.439 28.1691 235.176 28.437 234.712C28.5299 234.554 28.4136 234.318 28.2194 234.329Z" fill="#B44E50"/>
<path d="M33.8334 239.372C33.8334 239.372 34.0771 234.094 36.4355 231.29L36.0189 231.086C34.5426 231.958 33.3961 233.396 32.6656 234.982C32.0569 236.303 31.7029 237.721 31.4543 239.162C32.8611 239.301 33.8334 239.372 33.8334 239.372Z" fill="#B44E50"/>
<path d="M52.1323 32.275C51.9023 32.0243 51.5126 32.0578 51.2537 32.2373C51.1765 32.2911 51.1063 32.3554 51.034 32.4154C51.0216 32.4259 51.0092 32.4357 50.9968 32.4455C50.9748 32.4489 50.8674 32.5411 50.8515 32.5523C50.8013 32.5872 50.7496 32.6208 50.698 32.6529C50.6691 32.6703 50.5128 32.7772 50.4473 32.7967C50.4707 32.7877 50.4907 32.7765 50.4343 32.7961C50.4053 32.8065 50.3771 32.8177 50.3482 32.8275C50.2965 32.8449 50.2435 32.8603 50.1905 32.8729C50.1375 32.8861 50.0831 32.8945 50.0294 32.9043C50.017 32.9064 49.9963 32.9099 49.9777 32.9134C49.9701 32.9134 49.966 32.9127 49.955 32.9134C49.9006 32.9169 49.8462 32.9183 49.7911 32.9162C49.7643 32.9155 49.7374 32.9113 49.7105 32.9113C49.705 32.9113 49.7092 32.912 49.7064 32.912C49.6555 32.905 49.6045 32.8973 49.5529 32.8924C49.5329 32.8903 49.5253 32.8896 49.5171 32.8889C49.4751 32.8806 49.4324 32.8729 49.3911 32.8603C49.1556 32.7898 48.9049 32.8491 48.8209 33.111C48.7211 33.4225 49.0488 33.6907 49.2823 33.8325C49.5109 33.9715 49.7959 34.0182 50.0576 34.0399C50.5637 34.0818 51.0912 33.8723 51.5243 33.6264C51.777 33.4826 52.0958 33.3108 52.2301 33.0405C52.3595 32.78 52.3285 32.4895 52.1323 32.275Z" fill="#2E344B"/>
<path d="M61.159 33.1667C61.145 33.1532 61.133 33.1433 61.126 33.1383C61.1337 33.1454 61.1421 33.1518 61.1499 33.1589C61.1534 33.1625 61.1541 33.1632 61.159 33.1667Z" fill="#2E344B"/>
<path d="M63.4951 34.0994C63.4462 33.9199 63.316 33.8124 63.1508 33.7502C63.0055 33.6951 62.8568 33.6699 62.7032 33.6525C62.6991 33.6518 62.6908 33.6511 62.6832 33.6504C62.7776 33.6573 62.5359 33.6308 62.5235 33.6294C62.4636 33.6245 62.4037 33.6238 62.3438 33.6196C62.3224 33.6182 62.3018 33.6154 62.2804 33.6133C62.2274 33.6029 62.1744 33.5945 62.1214 33.5819C61.9981 33.5533 61.8748 33.5184 61.7543 33.4793C61.7075 33.4639 61.6614 33.4464 61.6152 33.429C61.6201 33.4318 61.6263 33.4346 61.6276 33.4366C61.6263 33.4339 61.6173 33.4311 61.6132 33.4283C61.6042 33.4248 61.5946 33.422 61.5856 33.4185C61.5223 33.394 61.5664 33.4066 61.6001 33.4206C61.5767 33.4094 61.5485 33.3996 61.5374 33.3941C61.4293 33.341 61.3254 33.2802 61.2255 33.2125C61.2035 33.1978 61.1814 33.1824 61.1601 33.1664C61.1642 33.1706 61.1684 33.1741 61.1732 33.1789C61.167 33.172 61.1573 33.1664 61.1505 33.1594C61.1229 33.1384 61.1181 33.1328 61.127 33.1391C61.0685 33.0861 60.9997 33.0379 60.9404 32.9946C60.9198 32.9792 60.8984 32.9638 60.8771 32.9492C60.8647 32.9408 60.8647 32.9415 60.8674 32.9443C60.7325 32.8367 60.6079 32.7781 60.4316 32.7599C60.1272 32.7292 59.9213 33.0337 59.8979 33.3012C59.88 33.5093 60.0074 33.6909 60.1238 33.8501C60.2291 33.994 60.3483 34.1064 60.4867 34.2168C60.7745 34.4458 61.0692 34.6135 61.4087 34.7531C61.6965 34.8712 62.016 34.9173 62.3238 34.9354C62.708 34.9578 63.0819 34.853 63.3691 34.5862C63.4958 34.4668 63.5398 34.2657 63.4951 34.0994Z" fill="#2E344B"/>
<path d="M61.615 33.4296C61.6099 33.4267 61.6062 33.4237 61.5981 33.4207C61.604 33.4237 61.6084 33.4259 61.6121 33.4289C61.6135 33.4289 61.615 33.4296 61.615 33.4296Z" fill="#2E344B"/>
<path d="M51.7892 35.3236C51.7513 35.2971 51.7162 35.2678 51.6728 35.2447C51.2666 35.0303 50.8045 35.0967 50.4637 35.4005C50.2805 35.5639 50.1442 35.809 50.0436 36.0332C49.8226 36.527 49.6966 37.0627 49.7262 37.6088C49.762 38.2632 49.9445 39.0559 50.6296 39.2968C51.2879 39.528 51.9035 38.9749 52.161 38.4092C52.3827 37.921 52.5108 37.3832 52.4709 36.8427C52.4323 36.3154 52.2946 35.5918 51.7892 35.3236Z" fill="#2E344B"/>
<path d="M61.7628 36.2033C61.725 36.1768 61.6898 36.1475 61.6464 36.1244C61.2402 35.91 60.7782 35.9764 60.4373 36.2802C60.2541 36.4436 60.1178 36.6887 60.0173 36.9129C59.7962 37.4067 59.6702 37.9424 59.6998 38.4885C59.7356 39.1429 59.9181 39.9356 60.6032 40.1765C61.2608 40.4077 61.8771 39.8546 62.1347 39.2889C62.3564 38.8007 62.4844 38.2629 62.4445 37.7224C62.4059 37.1951 62.2676 36.4708 61.7628 36.2033Z" fill="#2E344B"/>
<path d="M51.1468 35.3824C51.1151 35.2679 51.0579 35.168 50.9753 35.0835C50.9306 35.0479 50.8851 35.013 50.8403 34.9774C50.7364 34.9159 50.6241 34.8852 50.5029 34.8852C50.4114 34.8817 50.3253 34.9012 50.2454 34.9431C50.1628 34.9704 50.0912 35.0172 50.0306 35.0835C49.9658 35.145 49.9197 35.2176 49.8922 35.3014C49.8502 35.3824 49.8309 35.469 49.835 35.5626C49.8433 35.6227 49.8509 35.6827 49.8591 35.7428C49.8908 35.8573 49.9479 35.9572 50.0306 36.0417C50.076 36.0773 50.1208 36.1123 50.1655 36.1479C50.2695 36.2093 50.3818 36.2401 50.5029 36.2408C50.5945 36.2443 50.6806 36.2247 50.7605 36.1821C50.8431 36.1549 50.9147 36.1081 50.9753 36.0417C51.0407 35.9803 51.0862 35.9076 51.1137 35.8238C51.1557 35.7428 51.175 35.6562 51.1715 35.5626C51.1626 35.5026 51.155 35.4425 51.1468 35.3824Z" fill="white"/>
<path d="M61.2439 36.2657C61.2123 36.1512 61.1551 36.0513 61.0725 35.9668C61.0277 35.9319 60.9823 35.8963 60.9375 35.8607C60.8335 35.7992 60.7213 35.7685 60.6001 35.7685C60.5085 35.765 60.4225 35.7845 60.3426 35.8264C60.26 35.8537 60.1883 35.9005 60.1278 35.9668C60.063 36.0283 60.0169 36.1009 59.9893 36.1847C59.9473 36.2657 59.9281 36.3523 59.9322 36.4459C59.9405 36.506 59.948 36.566 59.9563 36.6261C59.988 36.7406 60.0451 36.8405 60.1278 36.925C60.1732 36.9606 60.218 36.9956 60.2627 37.0312C60.3667 37.0926 60.4789 37.1234 60.6001 37.1234C60.6917 37.1269 60.7778 37.1073 60.8576 37.0647C60.9403 37.0375 61.0119 36.9907 61.0725 36.9243C61.1379 36.8629 61.1833 36.7902 61.2102 36.7064C61.2522 36.6254 61.2715 36.5388 61.268 36.4452C61.2598 36.3858 61.2522 36.3258 61.2439 36.2657Z" fill="white"/>
<path d="M57.2149 40.288C57.0331 39.8801 56.7363 39.5358 56.5504 39.1265C56.4616 38.9303 56.3797 38.7361 56.3259 38.5259C56.2674 38.2989 56.2888 38.0223 56.1586 37.8247C56.0092 37.5984 55.7234 37.6089 55.572 37.8247C55.344 38.1487 55.5093 38.7473 55.6153 39.0965C55.7427 39.5155 55.9576 39.8955 56.2096 40.2488C56.4051 40.5226 56.6647 40.795 56.4712 41.1372C56.3776 41.302 56.2344 41.4061 56.0946 41.5276C55.9355 41.6659 55.813 41.8161 55.7028 41.9962C55.5988 42.1667 55.7317 42.4286 55.939 42.4132C56.4341 42.3776 56.8107 42.1185 57.0923 41.7064C57.3829 41.2818 57.4235 40.7559 57.2149 40.288Z" fill="#B44E50"/>
<path d="M57.1066 44.787C56.4937 44.516 55.7859 44.347 55.1145 44.4036C54.5313 44.4525 53.5797 44.6879 53.4633 45.3842C53.4468 45.4833 53.5191 45.5615 53.6189 45.5413C53.8957 45.4854 54.1271 45.3332 54.3943 45.2459C54.6676 45.1565 54.9513 45.1139 55.2385 45.1195C55.8933 45.132 56.5172 45.4051 57.11 45.6628C57.3717 45.7767 57.948 45.9478 57.9453 45.4624C57.9425 45.0887 57.3799 44.9071 57.1066 44.787Z" fill="#B44E50"/>
<path d="M50.0046 40.6798C49.9302 41.4962 48.9277 42.0696 47.7646 41.9606C46.6023 41.8517 45.7196 41.1016 45.7939 40.2852C45.8683 39.4687 46.8709 38.8954 48.0339 39.0043C49.1969 39.114 50.079 39.864 50.0046 40.6798Z" fill="#C85F64"/>
<path d="M64.9675 42.2196C64.8931 43.0361 63.8905 43.6095 62.7275 43.5005C61.5652 43.3916 60.6824 42.6415 60.7568 41.825C60.8312 41.0086 61.8338 40.4352 62.9961 40.5442C64.1591 40.6531 65.0412 41.4032 64.9675 42.2196Z" fill="#C85F64"/>
<path d="M49.3972 35.3983C49.3786 35.3697 49.3607 35.3418 49.34 35.3145C49.318 35.2803 49.289 35.2531 49.2525 35.2328C49.247 35.2286 49.2415 35.2244 49.2353 35.2209C49.225 35.2139 49.2147 35.2077 49.2044 35.2014C49.1823 35.1874 49.161 35.172 49.1376 35.1609C49.0962 35.1399 49.0446 35.1141 49.0033 35.1015C48.9806 35.0945 48.9572 35.0903 48.9331 35.0861C48.8883 35.0777 48.8401 35.0645 48.796 35.0638C48.7561 35.0638 48.7127 35.075 48.6728 35.0819C48.6046 35.0938 48.5433 35.135 48.5082 35.1958C48.4807 35.2433 48.4745 35.2943 48.4813 35.3473C48.4862 35.3851 48.4999 35.4179 48.5172 35.4514C48.5268 35.4696 48.5357 35.4877 48.5461 35.5052C48.5709 35.5471 48.6012 35.5736 48.6356 35.6043C48.67 35.6358 48.7058 35.6714 48.7451 35.6951C48.8077 35.7336 48.8759 35.7608 48.9441 35.7859C48.9668 35.7943 48.9888 35.8034 49.0116 35.8097C49.0646 35.825 49.108 35.8195 49.1596 35.8153C49.2092 35.8153 49.2553 35.8027 49.298 35.7776C49.3393 35.7531 49.3717 35.7196 49.3965 35.6777C49.4454 35.596 49.4502 35.4807 49.3972 35.3983Z" fill="#C85F64"/>
<path d="M49.7561 34.7066C49.7437 34.6675 49.7313 34.6284 49.7189 34.5886C49.6982 34.5236 49.6672 34.4643 49.6342 34.4049C49.5894 34.3246 49.5116 34.2757 49.4407 34.2212C49.3966 34.1954 49.3484 34.1821 49.2975 34.1821C49.2458 34.1821 49.1983 34.1954 49.1542 34.2212C49.0695 34.2715 49.011 34.3693 49.0138 34.4699C49.0145 34.4901 49.0151 34.5104 49.0158 34.5299C49.0158 34.5383 49.0158 34.5474 49.0165 34.5558C49.02 34.5879 49.0241 34.6207 49.0289 34.6528C49.0399 34.6794 49.051 34.7059 49.062 34.7325C49.0799 34.7716 49.0971 34.8128 49.1232 34.8477C49.1487 34.8812 49.1735 34.9154 49.199 34.949C49.2245 34.9832 49.2486 35.023 49.2782 35.0516C49.3133 35.0866 49.3422 35.1005 49.3822 35.1201C49.4228 35.1438 49.4668 35.1564 49.5137 35.1564C49.5495 35.1578 49.5832 35.1501 49.6142 35.1334C49.6824 35.104 49.7526 35.0405 49.765 34.9615C49.7712 34.9224 49.7822 34.8763 49.7822 34.8393C49.7822 34.7911 49.7698 34.7513 49.7561 34.7066Z" fill="#C85F64"/>
<path d="M63.1024 35.6037C63.0797 35.5666 63.0487 35.5324 63.0115 35.5101C62.9922 35.4989 62.966 35.4891 62.9447 35.4821C62.9206 35.4744 62.8944 35.4709 62.8696 35.4716C62.8566 35.4723 62.8077 35.4772 62.7946 35.4814C62.7664 35.4891 62.7374 35.5045 62.712 35.5198C62.6989 35.5275 62.6851 35.5359 62.672 35.5429C62.6355 35.5631 62.6045 35.5911 62.5742 35.6204C62.5501 35.6441 62.526 35.6672 62.5006 35.6896C62.4861 35.7028 62.4709 35.7154 62.4558 35.728C62.442 35.7398 62.4303 35.7545 62.4179 35.7685C62.4055 35.7824 62.3931 35.7957 62.3807 35.809C62.3773 35.8125 62.3745 35.8153 62.3711 35.8188C62.3566 35.8383 62.3415 35.8579 62.327 35.8774C62.3208 35.8907 62.3153 35.904 62.3098 35.9172C62.3009 35.9382 62.2954 35.9522 62.2905 35.9724C62.2782 36.0199 62.2782 36.0674 62.2905 36.1142C62.2988 36.1491 62.3146 36.1791 62.3374 36.205C62.356 36.2343 62.3807 36.2567 62.411 36.2734C62.4524 36.2979 62.4964 36.3097 62.5439 36.3097C62.6052 36.3146 62.661 36.2986 62.7154 36.2713C62.7319 36.2629 62.7478 36.2539 62.7636 36.2448C62.8132 36.2168 62.8579 36.1826 62.9006 36.1442C62.9667 36.0841 63.0404 36.0192 63.0797 35.9382C63.0865 35.9235 63.0934 35.9095 63.1003 35.8949C63.1058 35.8816 63.1113 35.869 63.1168 35.8558C63.1217 35.8446 63.1258 35.8334 63.1306 35.8222C63.1423 35.7852 63.1437 35.7482 63.1354 35.7112C63.1306 35.6686 63.1285 35.6456 63.1024 35.6037Z" fill="#C85F64"/>
<path d="M63.6714 36.4814C63.6466 36.4367 63.6053 36.3941 63.5619 36.3683C63.5047 36.3341 63.4393 36.3243 63.3739 36.3327C63.356 36.3348 63.3388 36.3376 63.3209 36.3403C63.3085 36.3424 63.2961 36.3452 63.2837 36.3473C63.2341 36.3571 63.188 36.3739 63.1432 36.399C63.0978 36.4249 63.0537 36.4528 63.0117 36.4842C62.9642 36.5191 62.9146 36.552 62.8836 36.6043C62.8671 36.633 62.8465 36.6721 62.8403 36.7028C62.8258 36.7768 62.8492 36.8634 62.9195 36.9012C62.9642 36.9249 63.0344 36.9466 63.0847 36.9452C63.1184 36.9438 63.1529 36.9389 63.1866 36.9382C63.2204 36.9375 63.2534 36.9375 63.2865 36.9389C63.3312 36.941 63.376 36.9298 63.4207 36.9221C63.4579 36.9221 63.493 36.9158 63.5254 36.8984C63.5736 36.8774 63.6108 36.8488 63.6431 36.8062C63.6714 36.7692 63.6652 36.7789 63.6831 36.7356C63.7189 36.6539 63.7154 36.561 63.6714 36.4814Z" fill="#C85F64"/>
<path d="M63.4064 36.9259C63.41 36.9251 63.4128 36.9251 63.4164 36.9244C63.4178 36.9244 63.4185 36.9237 63.4199 36.9237C63.4093 36.9252 63.3979 36.9266 63.3872 36.928C63.3936 36.9273 63.4 36.9266 63.4064 36.9259Z" fill="#C85F64"/>
<path d="M63.4652 36.9172C63.4513 36.9194 63.4374 36.9201 63.4243 36.9222C63.4222 36.9222 63.4208 36.9236 63.4187 36.9236C63.434 36.9215 63.4493 36.9194 63.4652 36.9172Z" fill="#C85F64"/>
<path d="M61.4264 100.161C60.7006 100.468 60.0458 100.955 59.3627 101.347C58.6507 101.756 57.9126 102.124 57.1606 102.451C55.6637 103.1 54.082 103.559 52.4756 103.824C49.2268 104.361 45.8583 104.035 42.7494 102.949C40.9721 102.328 39.3843 101.422 37.7523 100.496C37.6112 100.415 37.4439 100.615 37.574 100.73C38.81 101.823 40.3373 102.619 41.8473 103.247C43.429 103.906 45.1002 104.348 46.7934 104.584C50.153 105.053 53.6117 104.639 56.7854 103.432C57.6743 103.094 58.5399 102.696 59.371 102.232C60.1656 101.787 61.0732 101.289 61.6653 100.576C61.8024 100.41 61.6764 100.056 61.4264 100.161Z" fill="#6779B7"/>
<path d="M61.2741 96.8437C60.6337 97.2914 60.0078 97.7705 59.3351 98.1679C59.0011 98.3655 58.6527 98.5352 58.3008 98.6966C58.128 98.7755 57.951 98.8432 57.7755 98.9145C57.688 98.9501 57.5978 98.9836 57.5117 99.0234C57.4201 99.066 57.3837 99.1331 57.3079 99.184C57.2308 99.2364 57.2652 99.344 57.3534 99.3531C57.4491 99.3628 57.5042 99.4041 57.6102 99.3929C57.7038 99.3831 57.7996 99.3635 57.8911 99.3433C58.0846 99.3 58.276 99.2399 58.4647 99.1778C58.8648 99.0458 59.2518 98.8677 59.6236 98.6686C59.9879 98.4738 60.339 98.2503 60.6592 97.9877C60.9904 97.7153 61.2548 97.4255 61.5014 97.0735C61.5957 96.938 61.4077 96.7501 61.2741 96.8437Z" fill="#6779B7"/>
<path d="M237.446 242.011H102.921C98.6712 242.011 95.4108 238.185 96.0243 233.92L111.457 126.727C111.831 124.124 114.033 122.193 116.627 122.193H202.982L210.853 112.231C212.496 110.153 214.979 108.943 217.605 108.943L257.584 108.94C260.77 108.939 263.214 111.807 262.754 115.005L245.484 234.962C244.902 239.009 241.479 242.011 237.446 242.011Z" fill="#BAC8FC"/>
<path d="M100.925 242.01H238.086C241.475 242.01 244.097 238.998 243.677 235.587L231.632 137.888C231.275 134.993 228.849 132.821 225.973 132.821H87.8586C84.4281 132.821 81.7736 135.871 82.1992 139.323L94.1061 235.905C94.5365 239.393 97.4595 242.01 100.925 242.01Z" fill="#BAC8FC"/>
<path d="M146.181 178.617C146.159 178.595 146.137 178.572 146.123 178.56C145.859 178.333 145.588 178.114 145.318 177.894C144.837 177.502 144.357 177.11 143.876 176.718C143.372 176.307 142.868 175.896 142.365 175.485C142.521 175.278 142.676 175.077 142.873 174.824C143.35 174.212 143.835 173.609 144.29 172.979C144.731 172.368 145.166 171.843 145.37 171.099C145.654 170.058 144.669 169.024 143.629 169.334C142.273 169.737 141.107 171.036 140.121 172.032C139.827 172.33 139.542 172.634 139.254 172.937C138.693 172.481 138.126 172.035 137.54 171.617C136.484 170.867 135.194 169.408 133.806 169.535C132.92 169.616 132.052 170.263 132.098 171.267C132.175 172.929 133.803 174.037 134.841 175.164C135.269 175.629 135.72 176.074 136.179 176.512C135.652 177.18 135.137 177.857 134.657 178.555C133.79 179.821 132.604 181.276 132.557 182.871C132.512 184.416 134.188 185.17 135.423 184.539C136.177 184.155 136.676 183.402 137.151 182.719C137.548 182.148 137.942 181.576 138.349 181.013C138.699 180.528 139.041 180.039 139.385 179.549C139.901 180.04 140.416 180.531 140.932 181.022C141.434 181.501 141.931 181.988 142.449 182.452C142.801 182.768 143.157 183.121 143.557 183.371C144.292 183.831 145.099 183.838 145.92 183.688C147.072 183.477 147.835 182.202 147.864 181.098C147.865 181.076 147.866 181.055 147.866 181.034C147.896 179.901 147.151 179.001 146.181 178.617Z" fill="#2E344B"/>
<path d="M182.921 176.924C182.899 176.902 182.877 176.879 182.863 176.868C182.599 176.641 182.328 176.421 182.058 176.201C181.577 175.809 181.097 175.417 180.616 175.024C180.112 174.613 179.608 174.202 179.104 173.792C179.261 173.584 179.416 173.383 179.613 173.13C180.09 172.519 180.575 171.915 181.03 171.286C181.471 170.675 181.906 170.15 182.109 169.406C182.394 168.364 181.408 167.331 180.369 167.64C179.013 168.044 177.847 169.342 176.861 170.339C176.567 170.636 176.282 170.941 175.993 171.243C175.433 170.787 174.866 170.341 174.28 169.923C173.224 169.173 171.934 167.714 170.546 167.841C169.66 167.922 168.792 168.57 168.838 169.573C168.915 171.236 170.543 172.343 171.581 173.47C172.009 173.936 172.46 174.381 172.919 174.818C172.392 175.486 171.876 176.164 171.397 176.862C170.53 178.127 169.344 179.582 169.297 181.177C169.252 182.722 170.928 183.477 172.163 182.845C172.917 182.46 173.416 181.707 173.891 181.024C174.288 180.454 174.682 179.882 175.089 179.319C175.439 178.834 175.781 178.345 176.125 177.855C176.641 178.346 177.156 178.837 177.672 179.328C178.174 179.807 178.671 180.294 179.188 180.758C179.541 181.074 179.897 181.427 180.297 181.677C181.032 182.136 181.839 182.144 182.66 181.994C183.812 181.783 184.575 180.508 184.604 179.403C184.605 179.382 184.606 179.36 184.606 179.339C184.636 178.208 183.891 177.309 182.921 176.924Z" fill="#2E344B"/>
<path d="M168.826 190.173C167.5 189.533 166.117 189.013 164.711 188.587C162.067 187.788 159.223 187.29 156.461 187.555C154.104 187.782 151.726 188.474 149.79 189.903C148.778 190.651 147.901 191.492 147.144 192.505C146.489 193.382 145.874 194.594 146.007 195.718C146.102 196.509 146.909 197.224 147.697 196.702C148.466 196.192 149.054 195.452 149.711 194.803C150.323 194.201 151.007 193.742 151.774 193.346C152.556 192.941 153.184 192.691 154.122 192.448C155.245 192.157 155.688 192.093 156.752 192.07C158.998 192.021 161.108 192.529 163.276 193.304C164.386 193.7 165.474 194.163 166.565 194.611C166.594 194.623 166.61 194.63 166.63 194.638C166.927 194.768 167.105 194.844 167.164 194.869C167.184 194.878 167.197 194.884 167.22 194.895C167.443 195.007 167.673 195.103 167.909 195.18C168.456 195.373 168.96 195.484 169.544 195.525C170.561 195.597 171.346 194.612 171.382 193.661C171.441 192.028 170.175 190.824 168.826 190.173Z" fill="#2E344B"/>
<path d="M231.232 123.403C231.163 123.153 231.038 122.935 230.858 122.751C230.676 122.568 230.462 122.442 230.215 122.371C229.756 122.243 229.114 122.353 228.798 122.751C228.706 122.867 228.616 122.985 228.527 123.104C228.477 123.225 228.427 123.345 228.377 123.466C228.348 123.533 228.312 123.602 228.291 123.672C228.218 123.916 228.221 124.202 228.194 124.458C228.162 124.754 228.127 125.043 228.136 125.341C228.147 125.73 228.138 126.124 228.21 126.507C228.241 126.673 228.275 126.829 228.34 126.985C228.43 127.201 228.573 127.372 228.726 127.544C228.994 127.845 229.502 127.893 229.836 127.689C229.989 127.597 230.142 127.499 230.27 127.373C230.413 127.233 230.532 127.011 230.621 126.827C230.784 126.492 230.885 126.125 231.002 125.772C231.092 125.5 231.145 125.228 231.198 124.946C231.292 124.45 231.426 123.891 231.232 123.403Z" fill="white"/>
<path d="M240.155 123.762C240.016 123.3 239.623 122.792 239.119 122.711C238.873 122.671 238.686 122.643 238.448 122.675C238.08 122.725 237.836 122.876 237.546 123.113C237.427 123.21 237.305 123.308 237.197 123.418C236.972 123.649 236.783 123.931 236.587 124.187C236.125 124.788 235.696 125.402 235.288 126.041C235.122 126.301 234.957 126.562 234.797 126.826C234.588 127.17 234.451 127.566 234.297 127.937C234.177 128.229 234.046 128.509 233.997 128.822C233.946 129.143 233.906 129.458 234.078 129.755C234.248 130.046 234.502 130.193 234.831 130.22C235.543 130.279 236.137 129.517 236.605 129.073C237.039 128.662 237.403 128.195 237.794 127.743C238.175 127.303 238.562 126.87 238.941 126.428C239.572 125.696 240.481 124.843 240.155 123.762Z" fill="white"/>
<path d="M241.385 133.738C241.129 133.509 240.885 133.312 240.55 133.209C240.289 133.129 240.018 133.092 239.745 133.092C239.323 133.091 238.908 133.15 238.498 133.244C238.189 133.314 237.884 133.403 237.586 133.51C237.36 133.591 237.124 133.666 236.928 133.808C236.72 133.956 236.556 134.109 236.39 134.298C236.158 134.561 236.048 134.895 236.143 135.245C236.226 135.55 236.493 135.865 236.813 135.924C236.926 135.945 237.038 135.972 237.151 135.99C237.295 136.013 237.443 136.037 237.589 136.043C237.644 136.045 237.698 136.038 237.752 136.033C237.742 136.034 237.732 136.035 237.721 136.037C237.752 136.033 237.783 136.032 237.814 136.028C237.817 136.028 237.819 136.028 237.821 136.028C238.278 135.972 238.739 135.95 239.199 135.973C239.445 135.986 239.703 135.987 239.948 135.974C240.153 135.963 240.379 135.926 240.582 135.876C240.787 135.826 240.969 135.704 241.149 135.598C241.767 135.234 241.954 134.246 241.385 133.738Z" fill="white"/>
<path d="M172.098 11.3099L155.509 24.4448L149.195 93.3548H211.195L218.713 11.3099H172.098Z" fill="#D9DDE9"/>
<path d="M170.894 24.4448L172.098 11.3099L155.508 24.4448H170.894Z" fill="#6779B7"/>
<path d="M192.186 45.1349C193.041 44.0992 194.04 43.0425 194.371 41.6946C194.644 40.5827 193.689 39.7363 192.641 39.9402C191.411 40.1804 190.396 41.0555 189.43 41.8063C188.37 42.6297 187.361 43.5111 186.355 44.4009C184.944 45.651 183.587 46.9843 182.247 48.3231C181.561 47.3237 180.881 46.3215 180.197 45.3228C179.511 44.3213 178.834 43.317 178.105 42.3469C177.336 41.3237 176.56 40.1532 175.455 39.4799C174.49 38.8919 172.871 39.6287 173.016 40.8991C173.299 43.3777 175.047 45.7579 176.283 47.8587C177.079 49.2108 177.903 50.5426 178.743 51.8647C177.754 52.8802 176.77 53.9006 175.789 54.9237C174.018 56.771 171.614 58.7119 170.755 61.1954C170.247 62.6634 171.913 64.5463 173.424 63.9031C175.859 62.8667 177.592 60.469 179.394 58.5799C180.144 57.7942 180.904 57.0189 181.661 56.2402C182.584 57.5644 183.522 58.8781 184.493 60.1666C185.269 61.1961 186.053 62.2192 186.853 63.2291C187.252 63.7327 187.634 64.2809 188.1 64.7223C188.955 65.5318 189.811 65.6994 190.941 65.5066C191.752 65.3683 192.33 64.584 192.572 63.8528C193.142 62.1298 191.858 60.8755 190.845 59.6812C190.083 58.7831 189.333 57.8752 188.595 56.9568C187.438 55.5181 186.326 54.0451 185.238 52.554C186.759 51.0015 188.299 49.4601 189.764 47.8573C190.584 46.9619 191.413 46.0722 192.186 45.1349Z" fill="#EF877B"/>
<path d="M167.251 3.44958L150.661 16.5845L144.347 85.4945H206.347L213.865 3.44958H167.251Z" fill="#D9DDE9"/>
<path d="M166.047 16.5845L167.25 3.44958L150.66 16.5845H166.047Z" fill="#8EADD5"/>
<path d="M187.341 37.2743C188.196 36.2386 189.195 35.1819 189.527 33.834C189.8 32.7221 188.845 31.875 187.797 32.0796C186.567 32.3191 185.551 33.1949 184.585 33.9457C183.526 34.7691 182.516 35.6505 181.511 36.5403C180.099 37.7904 178.743 39.1237 177.402 40.4625C176.717 39.4631 176.037 38.4609 175.352 37.4622C174.666 36.4607 173.989 35.4564 173.26 34.4863C172.492 33.4631 171.716 32.2926 170.611 31.6193C169.645 31.0313 168.026 31.7681 168.172 33.0385C168.455 35.5171 170.202 37.8973 171.439 39.9981C172.234 41.3502 173.058 42.682 173.899 44.0041C172.91 45.0196 171.926 46.04 170.945 47.0624C169.174 48.9097 166.77 50.8513 165.91 53.3341C165.402 54.8021 167.069 56.685 168.58 56.0418C171.015 55.0054 172.747 52.6078 174.55 50.7186C175.3 49.9329 176.06 49.1576 176.816 48.3782C177.739 49.7024 178.678 51.0161 179.649 52.3053C180.424 53.3348 181.208 54.3579 182.009 55.3678C182.407 55.8714 182.789 56.4196 183.256 56.861C184.111 57.6705 184.966 57.8381 186.097 57.6453C186.907 57.507 187.486 56.7227 187.727 55.9915C188.297 54.2686 187.013 53.0142 186 51.82C185.238 50.9218 184.488 50.0139 183.75 49.0955C182.594 47.6568 181.482 46.1838 180.393 44.6928C181.914 43.1402 183.455 41.5988 184.919 39.996C185.739 39.1013 186.568 38.2116 187.341 37.2743Z" fill="#EF5350"/>
<path d="M149.913 85.4949L207.802 87.7054L213.147 11.3105L206.349 85.4949H149.913Z" fill="#2E344B"/>
<path d="M154.719 2.74072C154.435 2.41457 154.162 2.08144 153.848 1.78322C153.543 1.49338 153.249 1.19586 152.921 0.932561C152.747 0.793579 152.576 0.652503 152.402 0.51352C152.279 0.415046 152.173 0.327743 152.028 0.265585C151.997 0.252315 151.966 0.239046 151.935 0.225777C151.845 0.186666 151.753 0.147556 151.662 0.107747C151.335 -0.0340284 151.013 -0.0591708 150.713 0.175493C150.46 0.373839 150.291 0.762152 150.407 1.08621C150.493 1.32716 150.566 1.63236 150.704 1.84258C150.815 2.01369 150.946 2.17502 151.067 2.33984C151.38 2.76377 151.717 3.14859 152.074 3.53272C152.369 3.85119 152.698 4.12426 153.03 4.40363C153.244 4.58451 153.456 4.78705 153.698 4.92813C153.994 5.09923 154.313 5.29269 154.664 5.24799C154.9 5.21796 155.129 5.16977 155.299 4.9812C155.467 4.79543 155.543 4.5894 155.562 4.33728C155.608 3.72687 155.09 3.16605 154.719 2.74072Z" fill="white"/>
<path d="M153.37 8.58968C153.228 8.36759 153.045 8.22512 152.83 8.09661C152.563 7.85985 152.147 7.76906 151.816 7.73973C151.557 7.71668 151.292 7.70551 151.033 7.709C150.71 7.71319 150.374 7.78862 150.055 7.85008C149.687 7.92131 149.354 8.01839 149.098 8.3229C148.748 8.74194 148.784 9.34256 149.267 9.64776C149.47 9.77627 149.69 9.86078 149.934 9.86567C150.063 9.86776 150.193 9.85519 150.323 9.8503C150.57 9.84122 150.823 9.85799 151.068 9.82586C151.592 9.75742 152.328 9.79304 152.775 9.44593C152.779 9.44384 152.78 9.44383 152.785 9.44174C152.888 9.39774 152.981 9.36073 153.069 9.29088C153.152 9.22593 153.238 9.15749 153.308 9.07927C153.422 8.94936 153.467 8.74403 153.37 8.58968Z" fill="white"/>
</svg>
