<svg width="244" height="244" viewBox="0 0 244 244" fill="none" xmlns="http://www.w3.org/2000/svg">
<g opacity="0.37">
<path d="M230.771 119.249C223.715 152.661 205.925 182.847 186.422 202.943C166.557 223.211 144.979 233.389 121.999 230.774C99.0183 228.159 77.4399 213.987 57.5753 194.887C38.0719 175.615 20.2824 151.415 13.2264 124.753C6.1704 98.0915 12.7301 73.2757 32.5946 53.0071C52.0975 32.9113 84.9058 17.3631 121.999 13.2283C159.092 9.09348 191.9 17.8951 211.403 37.1676C231.267 56.267 237.827 85.8378 230.771 119.249Z" fill="url(#paint0_radial_618_1194)"/>
</g>
<path d="M72.6092 105.383C74.7574 103.048 78.2803 102.74 80.8042 104.666L92.4537 113.92L90.5706 133.447L72.699 113.744C70.4689 111.424 70.4293 107.751 72.6092 105.383Z" fill="url(#paint1_linear_618_1194)"/>
<path d="M225.765 244.001H155.732L142.044 227.989L128.902 223.051C126.199 222.036 123.637 220.684 121.275 219.025C119.528 217.805 117.903 216.424 116.419 214.901C116.029 214.511 115.658 214.106 115.292 213.696L114.116 212.373L113.564 211.754L111.72 209.67L111.349 209.255L111.324 209.226L106.83 204.165L118.927 194.932L150.496 170.84L151.472 170.093L152.419 169.371L153.644 168.439L154.556 167.741L154.951 167.868L152.419 162.173L143.64 139.305C142.595 136.587 142.356 133.63 142.942 130.775L143.688 127.164C144.284 124.255 148.09 123.508 149.745 125.973L149.969 126.31L150.262 126.739L152.419 129.96L155.566 134.654L156.308 135.762L156.596 136.187L170.016 156.2C170.621 157.102 171.095 158.093 171.417 159.132L176.297 174.807L178.634 182.322L179.231 185.214C181.085 194.193 185.461 202.459 191.846 209.039L225.765 244.001Z" fill="url(#paint2_linear_618_1194)"/>
<path opacity="0.43" d="M147.579 214.9C151.985 214.9 155.567 211.318 155.567 206.916V166.82L152.42 162.171V206.916C152.42 209.581 150.248 211.752 147.579 211.752L114.116 212.372L119.133 217.396" fill="white"/>
<path d="M144.748 211.582H98.6374C94.4026 211.582 90.969 208.149 90.969 203.914V89.165C90.969 84.9302 94.4021 81.4966 98.6374 81.4966H144.748C148.982 81.4966 152.416 84.9297 152.416 89.165V203.914C152.416 208.149 148.982 211.582 144.748 211.582Z" fill="#F8FAFC"/>
<path d="M153.862 92.5481C154.603 92.5486 155.204 93.1493 155.204 93.8911L155.202 99.2078C155.202 99.9491 154.601 100.55 153.86 100.55L153.862 92.5481Z" fill="url(#paint3_linear_618_1194)"/>
<path d="M88.738 94.4806C87.9967 94.4806 87.3955 93.8794 87.396 93.1377L87.397 89.1322C87.397 88.3909 87.9982 87.7897 88.7399 87.7902L88.738 94.4806Z" fill="url(#paint4_linear_618_1194)"/>
<path d="M88.7341 105.304C87.9928 105.304 87.3916 104.703 87.3921 103.961L87.3931 99.9554C87.3931 99.2141 87.9943 98.6129 88.736 98.6134L88.7341 105.304Z" fill="url(#paint5_linear_618_1194)"/>
<path d="M145.77 80.2343H96.833C92.3697 80.2343 88.7419 83.862 88.7419 88.3253V205.083C88.7419 209.542 92.3697 213.169 96.833 213.169H145.769C148.379 213.169 150.697 211.934 152.175 210.011C152.249 209.922 152.313 209.833 152.377 209.739C153.311 208.425 153.86 206.818 153.86 205.083V88.3253C153.861 83.862 150.233 80.2343 145.77 80.2343ZM150.673 205.083C150.673 207.782 148.473 209.981 145.77 209.981H96.833C94.1295 209.981 91.93 207.782 91.93 205.083V88.3253C91.93 85.6218 94.1295 83.4224 96.833 83.4224H104.435V83.5161C104.435 85.9775 106.431 87.9695 108.893 87.9695H133.715C136.171 87.9695 138.168 85.9775 138.168 83.5161V83.4224H145.769C148.473 83.4224 150.672 85.6218 150.672 88.3253V205.083H150.673Z" fill="url(#paint6_linear_618_1194)"/>
<path opacity="0.69" d="M107.944 84.4642H134.291" stroke="#F8FAFC" stroke-width="1.0128" stroke-miterlimit="10" stroke-linecap="round"/>
<g opacity="0.51">
<path opacity="0.29" d="M119.657 133.681H97.4229C96.5655 133.681 95.8701 132.986 95.8701 132.128V95.7639C95.8701 94.9065 96.565 94.2111 97.4229 94.2111H119.657C120.514 94.2111 121.21 94.906 121.21 95.7639V132.128C121.21 132.986 120.514 133.681 119.657 133.681Z" fill="#4A8BFF"/>
<path opacity="0.29" d="M145.438 97.292H126.089C125.284 97.292 124.631 96.6396 124.631 95.8344C124.631 95.0292 125.284 94.3767 126.089 94.3767H145.438C146.243 94.3767 146.896 95.0292 146.896 95.8344C146.896 96.6396 146.243 97.292 145.438 97.292Z" fill="#4A8BFF"/>
<path opacity="0.29" d="M145.438 103.358H126.089C125.284 103.358 124.631 102.705 124.631 101.9C124.631 101.095 125.284 100.442 126.089 100.442H145.438C146.243 100.442 146.896 101.095 146.896 101.9C146.896 102.705 146.243 103.358 145.438 103.358Z" fill="#4A8BFF"/>
<path opacity="0.29" d="M145.438 109.422H126.089C125.284 109.422 124.631 108.769 124.631 107.964C124.631 107.159 125.284 106.506 126.089 106.506H145.438C146.243 106.506 146.896 107.159 146.896 107.964C146.896 108.769 146.243 109.422 145.438 109.422Z" fill="#4A8BFF"/>
<path opacity="0.29" d="M145.438 115.487H126.089C125.284 115.487 124.631 114.835 124.631 114.03C124.631 113.224 125.284 112.572 126.089 112.572H145.438C146.243 112.572 146.896 113.224 146.896 114.03C146.896 114.835 146.243 115.487 145.438 115.487Z" fill="#4A8BFF"/>
<path opacity="0.29" d="M145.438 121.553H126.089C125.284 121.553 124.631 120.9 124.631 120.095C124.631 119.29 125.284 118.638 126.089 118.638H145.438C146.243 118.638 146.896 119.29 146.896 120.095C146.896 120.9 146.243 121.553 145.438 121.553Z" fill="#4A8BFF"/>
<path opacity="0.29" d="M145.438 127.619H126.089C125.284 127.619 124.631 126.966 124.631 126.161C124.631 125.356 125.284 124.703 126.089 124.703H145.438C146.243 124.703 146.896 125.356 146.896 126.161C146.896 126.966 146.243 127.619 145.438 127.619Z" fill="#4A8BFF"/>
<path opacity="0.29" d="M145.438 133.682H126.089C125.284 133.682 124.631 133.03 124.631 132.225C124.631 131.42 125.284 130.767 126.089 130.767H145.438C146.243 130.767 146.896 131.42 146.896 132.225C146.896 133.03 146.243 133.682 145.438 133.682Z" fill="#4A8BFF"/>
<path opacity="0.29" d="M145.438 141.462H97.3278C96.5226 141.462 95.8701 140.809 95.8701 140.004C95.8701 139.199 96.5226 138.546 97.3278 138.546H145.438C146.243 138.546 146.896 139.199 146.896 140.004C146.896 140.809 146.243 141.462 145.438 141.462Z" fill="#4A8BFF"/>
<path opacity="0.29" d="M145.438 147.087H97.3278C96.5226 147.087 95.8701 146.434 95.8701 145.629C95.8701 144.824 96.5226 144.172 97.3278 144.172H145.438C146.243 144.172 146.896 144.824 146.896 145.629C146.896 146.434 146.243 147.087 145.438 147.087Z" fill="#4A8BFF"/>
<path opacity="0.29" d="M145.438 152.714H97.3278C96.5226 152.714 95.8701 152.062 95.8701 151.256C95.8701 150.451 96.5226 149.799 97.3278 149.799H145.438C146.243 149.799 146.896 150.451 146.896 151.256C146.896 152.062 146.243 152.714 145.438 152.714Z" fill="#4A8BFF"/>
<path opacity="0.29" d="M145.892 164.882H113.471C112.917 164.882 112.468 164.433 112.468 163.878C112.468 163.324 112.917 162.875 113.471 162.875H145.892C146.446 162.875 146.895 163.324 146.895 163.878C146.895 164.433 146.446 164.882 145.892 164.882Z" fill="#4A8BFF"/>
<path opacity="0.29" d="M145.892 168.755H113.471C112.917 168.755 112.468 168.306 112.468 167.752C112.468 167.198 112.917 166.749 113.471 166.749H145.892C146.446 166.749 146.895 167.197 146.895 167.752C146.895 168.306 146.446 168.755 145.892 168.755Z" fill="#4A8BFF"/>
<path opacity="0.29" d="M104.122 169.478C106.146 167.749 106.384 164.707 104.655 162.684C102.926 160.66 99.8839 160.422 97.8607 162.151C95.8374 163.88 95.599 166.922 97.3282 168.945C99.0573 170.969 102.099 171.207 104.122 169.478Z" fill="#4A8BFF"/>
<path opacity="0.29" d="M145.892 178.695H113.471C112.917 178.695 112.468 178.246 112.468 177.691C112.468 177.137 112.917 176.688 113.471 176.688H145.892C146.446 176.688 146.895 177.137 146.895 177.691C146.895 178.246 146.446 178.695 145.892 178.695Z" fill="#4A8BFF"/>
<path opacity="0.29" d="M145.892 182.566H113.471C112.917 182.566 112.468 182.117 112.468 181.563C112.468 181.009 112.917 180.56 113.471 180.56H145.892C146.446 180.56 146.895 181.009 146.895 181.563C146.895 182.117 146.446 182.566 145.892 182.566Z" fill="#4A8BFF"/>
<path opacity="0.29" d="M100.99 184.445C103.652 184.445 105.809 182.288 105.809 179.626C105.809 176.965 103.652 174.807 100.99 174.807C98.3287 174.807 96.1711 176.965 96.1711 179.626C96.1711 182.288 98.3287 184.445 100.99 184.445Z" fill="#4A8BFF"/>
<path opacity="0.29" d="M145.289 192.504H112.868C112.314 192.504 111.864 192.055 111.864 191.5C111.864 190.947 112.313 190.497 112.868 190.497H145.289C145.843 190.497 146.292 190.946 146.292 191.5C146.292 192.055 145.843 192.504 145.289 192.504Z" fill="#4A8BFF"/>
<path opacity="0.29" d="M145.289 196.377H112.868C112.314 196.377 111.864 195.928 111.864 195.374C111.864 194.82 112.313 194.371 112.868 194.371H145.289C145.843 194.371 146.292 194.82 146.292 195.374C146.292 195.928 145.843 196.377 145.289 196.377Z" fill="#4A8BFF"/>
<path opacity="0.29" d="M102.822 197.889C105.284 196.876 106.458 194.06 105.446 191.599C104.433 189.138 101.617 187.963 99.1561 188.975C96.6948 189.988 95.5202 192.804 96.5326 195.265C97.545 197.727 100.361 198.901 102.822 197.889Z" fill="#4A8BFF"/>
</g>
<path d="M99.0562 163.879L102.925 167.747" stroke="url(#paint7_linear_618_1194)" stroke-miterlimit="10" stroke-linecap="round"/>
<path d="M102.925 163.879L99.0562 167.747" stroke="url(#paint8_linear_618_1194)" stroke-miterlimit="10" stroke-linecap="round"/>
<path d="M99.0562 177.799L102.925 181.668" stroke="url(#paint9_linear_618_1194)" stroke-miterlimit="10" stroke-linecap="round"/>
<path d="M102.925 177.799L99.0562 181.668" stroke="url(#paint10_linear_618_1194)" stroke-miterlimit="10" stroke-linecap="round"/>
<path d="M99.0562 191.504L102.925 195.373" stroke="url(#paint11_linear_618_1194)" stroke-miterlimit="10" stroke-linecap="round"/>
<path d="M102.925 191.504L99.0562 195.373" stroke="url(#paint12_linear_618_1194)" stroke-miterlimit="10" stroke-linecap="round"/>
<path d="M86.4693 162.446L75.2253 149.863C72.6438 146.974 72.9693 142.521 75.9436 140.038C78.918 137.555 83.3578 138.03 85.7388 141.087L96.1102 154.398C98.1921 157.07 97.7812 160.912 95.1801 163.083C92.5801 165.254 88.7263 164.972 86.4693 162.446Z" fill="url(#paint13_linear_618_1194)"/>
<path opacity="0.7" d="M87.3005 158.908L89.436 161.484C90.6268 162.921 92.7574 163.12 94.194 161.929C95.6307 160.738 95.8303 158.608 94.6391 157.171L92.5036 154.595C91.3129 153.158 89.1823 152.959 87.7456 154.15C86.3094 155.341 86.1098 157.471 87.3005 158.908Z" fill="white"/>
<path d="M89.7944 182.327L73.6157 169.557C70.5711 167.153 70.1153 162.709 72.6085 159.738C75.1017 156.767 79.5576 156.444 82.4529 159.026L97.8376 172.742C100.363 174.994 100.642 178.846 98.4671 181.438C96.2926 184.03 92.4505 184.424 89.7944 182.327Z" fill="url(#paint14_linear_618_1194)"/>
<path opacity="0.7" d="M89.9727 178.713L92.5283 180.872C93.9538 182.077 96.0858 181.898 97.2902 180.473C98.4951 179.047 98.316 176.915 96.8905 175.711L94.3349 173.551C92.9094 172.346 90.7774 172.525 89.573 173.951C88.3686 175.376 88.5477 177.508 89.9727 178.713Z" fill="white"/>
<path d="M90.1654 199.541L80.0828 192.998C76.8391 190.893 75.9978 186.513 78.2314 183.356C80.4649 180.2 84.876 179.535 87.9401 181.894L97.4649 189.224C100.154 191.295 100.731 195.118 98.7703 197.888C96.81 200.659 93.0124 201.388 90.1654 199.541Z" fill="url(#paint15_linear_618_1194)"/>
<path opacity="0.7" d="M90.1274 195.904L92.8519 197.847C94.3715 198.93 96.4817 198.576 97.565 197.057C98.6484 195.537 98.2946 193.427 96.7749 192.343L94.0504 190.401C92.5308 189.318 90.4207 189.672 89.3373 191.192C88.254 192.711 88.6078 194.822 90.1274 195.904Z" fill="white"/>
<path d="M62.5423 51.7916H106.956C109.464 51.7916 111.498 53.8251 111.498 56.3339V79.8306C111.498 82.339 109.464 84.373 106.956 84.373H102.884L96.8609 90.8331C96.3817 91.347 95.5677 91.347 95.0885 90.8331L89.0651 84.3725H62.5418C60.0335 84.3725 58 82.339 58 79.8302V56.3334C58.0005 53.8251 60.034 51.7916 62.5423 51.7916Z" fill="url(#paint16_linear_618_1194)"/>
<path d="M73.72 67.6939L73.496 68.7419H74.456V69.9739H73.232L72.968 71.1979H71.688L71.952 69.9739H70.624L70.36 71.1979H69.08L69.344 69.9739H68.16V68.7419H69.608L69.832 67.6939H68.672V66.4619H70.088L70.344 65.2779H71.624L71.368 66.4619H72.696L72.952 65.2779H74.232L73.976 66.4619H74.968V67.6939H73.72ZM72.44 67.6939H71.112L70.888 68.7419H72.216L72.44 67.6939ZM79.9784 69.5659C79.9784 69.8592 79.901 70.1312 79.7464 70.3819C79.597 70.6272 79.373 70.8299 79.0744 70.9899C78.781 71.1445 78.4317 71.2299 78.0264 71.2459V71.8939H77.5144V71.2379C76.949 71.1899 76.493 71.0219 76.1464 70.7339C75.7997 70.4405 75.6157 70.0432 75.5944 69.5419H77.0504C77.0824 69.8619 77.237 70.0672 77.5144 70.1579V68.8939C77.0984 68.7872 76.765 68.6832 76.5144 68.5819C76.269 68.4805 76.053 68.3179 75.8664 68.0939C75.6797 67.8699 75.5864 67.5632 75.5864 67.1739C75.5864 66.6885 75.765 66.2992 76.1224 66.0059C76.485 65.7125 76.949 65.5472 77.5144 65.5099V64.8619H78.0264V65.5099C78.5864 65.5525 79.029 65.7152 79.3544 65.9979C79.6797 66.2805 79.861 66.6725 79.8984 67.1739H78.4344C78.4024 66.8859 78.2664 66.6992 78.0264 66.6139V67.8539C78.469 67.9765 78.8104 68.0859 79.0504 68.1819C79.2904 68.2779 79.5037 68.4379 79.6904 68.6619C79.8824 68.8805 79.9784 69.1819 79.9784 69.5659ZM77.0344 67.1099C77.0344 67.2432 77.0744 67.3552 77.1544 67.4459C77.2397 67.5365 77.3597 67.6165 77.5144 67.6859V66.5739C77.365 66.6005 77.2477 66.6592 77.1624 66.7499C77.077 66.8352 77.0344 66.9552 77.0344 67.1099ZM78.0264 70.1819C78.1864 70.1552 78.3117 70.0912 78.4024 69.9899C78.4984 69.8885 78.5464 69.7632 78.5464 69.6139C78.5464 69.4752 78.501 69.3632 78.4104 69.2779C78.325 69.1872 78.197 69.1099 78.0264 69.0459V70.1819ZM85.444 65.8539C86.0733 65.8539 86.6227 65.9739 87.092 66.2139C87.5613 66.4485 87.9213 66.7819 88.172 67.2139C88.428 67.6405 88.556 68.1339 88.556 68.6939C88.556 69.1472 88.476 69.5685 88.316 69.9579C88.1613 70.3472 87.9293 70.6592 87.62 70.8939C87.316 71.1232 86.9533 71.2379 86.532 71.2379C86.2493 71.2379 86.0147 71.1819 85.828 71.0699C85.6467 70.9579 85.524 70.8005 85.46 70.5979C85.3107 70.8059 85.1187 70.9685 84.884 71.0859C84.6493 71.1979 84.3933 71.2539 84.116 71.2539C83.7213 71.2539 83.4093 71.1365 83.18 70.9019C82.956 70.6619 82.844 70.3365 82.844 69.9259C82.844 69.5365 82.924 69.1712 83.084 68.8299C83.244 68.4832 83.4653 68.2059 83.748 67.9979C84.0307 67.7899 84.348 67.6859 84.7 67.6859C85.148 67.6859 85.452 67.8459 85.612 68.1659L85.684 67.7419H86.788L86.436 69.7499C86.42 69.8459 86.412 69.9312 86.412 70.0059C86.412 70.2405 86.516 70.3579 86.724 70.3579C86.98 70.3579 87.1747 70.1952 87.308 69.8699C87.4467 69.5392 87.516 69.1605 87.516 68.7339C87.516 68.1205 87.3213 67.6405 86.932 67.2939C86.548 66.9472 86.0067 66.7739 85.308 66.7739C84.7107 66.7739 84.1667 66.9179 83.676 67.2059C83.1907 67.4939 82.8093 67.8885 82.532 68.3899C82.2547 68.8859 82.116 69.4325 82.116 70.0299C82.116 70.6752 82.3027 71.1765 82.676 71.5339C83.0547 71.8912 83.5827 72.0699 84.26 72.0699C84.788 72.0699 85.26 71.9739 85.676 71.7819L85.892 72.6539C85.3693 72.8832 84.7827 72.9979 84.132 72.9979C83.524 72.9979 82.988 72.8805 82.524 72.6459C82.0653 72.4112 81.7107 72.0779 81.46 71.6459C81.2093 71.2139 81.084 70.7099 81.084 70.1339C81.084 69.3285 81.2733 68.6005 81.652 67.9499C82.0307 67.2939 82.5507 66.7819 83.212 66.4139C83.8787 66.0405 84.6227 65.8539 85.444 65.8539ZM84.564 70.2699C84.7133 70.2699 84.852 70.2245 84.98 70.1339C85.1133 70.0432 85.2173 69.9232 85.292 69.7739C85.372 69.6192 85.412 69.4539 85.412 69.2779C85.412 69.0965 85.3613 68.9499 85.26 68.8379C85.1587 68.7205 85.02 68.6619 84.844 68.6619C84.6093 68.6619 84.4147 68.7632 84.26 68.9659C84.1053 69.1685 84.028 69.4085 84.028 69.6859C84.028 69.8619 84.0733 70.0032 84.164 70.1099C84.2547 70.2165 84.388 70.2699 84.564 70.2699ZM93.9326 71.1979L93.4126 70.6939C92.8953 71.0885 92.2766 71.2859 91.5566 71.2859C91.1246 71.2859 90.7486 71.2165 90.4286 71.0779C90.1086 70.9339 89.8606 70.7339 89.6846 70.4779C89.514 70.2165 89.4286 69.9125 89.4286 69.5659C89.4286 69.2139 89.522 68.8965 89.7086 68.6139C89.9006 68.3259 90.186 68.0912 90.5646 67.9099C90.426 67.7392 90.3273 67.5765 90.2686 67.4219C90.21 67.2619 90.1806 67.0885 90.1806 66.9019C90.1806 66.6352 90.25 66.3925 90.3886 66.1739C90.5273 65.9552 90.7273 65.7845 90.9886 65.6619C91.2553 65.5339 91.57 65.4699 91.9326 65.4699C92.3006 65.4699 92.6126 65.5365 92.8686 65.6699C93.1246 65.8032 93.3166 65.9819 93.4446 66.2059C93.5726 66.4299 93.6313 66.6752 93.6206 66.9419H92.3326C92.338 66.7979 92.3006 66.6885 92.2206 66.6139C92.146 66.5339 92.0446 66.4939 91.9166 66.4939C91.7886 66.4939 91.682 66.5312 91.5966 66.6059C91.5113 66.6805 91.4686 66.7765 91.4686 66.8939C91.4686 67.0059 91.5033 67.1232 91.5726 67.2459C91.6473 67.3685 91.762 67.5099 91.9166 67.6699L93.2846 69.0059C93.2953 68.9792 93.3086 68.9472 93.3246 68.9099C93.346 68.8725 93.3673 68.8299 93.3886 68.7819L93.6846 68.2779H95.0526L94.6686 68.9739C94.5246 69.2885 94.3593 69.5872 94.1726 69.8699L95.5246 71.1979H93.9326ZM91.6206 70.1819C91.978 70.1819 92.2953 70.0805 92.5726 69.8779L91.3246 68.6699C90.9406 68.8672 90.7486 69.1339 90.7486 69.4699C90.7486 69.6725 90.826 69.8432 90.9806 69.9819C91.1406 70.1152 91.354 70.1819 91.6206 70.1819ZM97.8194 65.3819L97.6594 69.2139H96.4994L96.3394 65.3819H97.8194ZM97.0994 71.2619C96.8594 71.2619 96.6621 71.1925 96.5074 71.0539C96.3581 70.9099 96.2834 70.7339 96.2834 70.5259C96.2834 70.3125 96.3581 70.1339 96.5074 69.9899C96.6621 69.8459 96.8594 69.7739 97.0994 69.7739C97.3341 69.7739 97.5261 69.8459 97.6754 69.9899C97.8301 70.1339 97.9074 70.3125 97.9074 70.5259C97.9074 70.7339 97.8301 70.9099 97.6754 71.0539C97.5261 71.1925 97.3341 71.2619 97.0994 71.2619ZM100.952 65.3819L100.792 69.2139H99.6323L99.4723 65.3819H100.952ZM100.232 71.2619C99.9923 71.2619 99.7949 71.1925 99.6403 71.0539C99.4909 70.9099 99.4163 70.7339 99.4163 70.5259C99.4163 70.3125 99.4909 70.1339 99.6403 69.9899C99.7949 69.8459 99.9923 69.7739 100.232 69.7739C100.467 69.7739 100.659 69.8459 100.808 69.9899C100.963 70.1339 101.04 70.3125 101.04 70.5259C101.04 70.7339 100.963 70.9099 100.808 71.0539C100.659 71.1925 100.467 71.2619 100.232 71.2619Z" fill="white"/>
<path d="M138.622 59.4672C145.231 59.4672 150.589 54.1093 150.589 47.4999C150.589 40.8906 145.231 35.5327 138.622 35.5327C132.013 35.5327 126.655 40.8906 126.655 47.4999C126.655 54.1093 132.013 59.4672 138.622 59.4672Z" fill="url(#paint17_linear_618_1194)"/>
<path d="M132.116 44.475C132.116 43.316 133.055 42.3761 134.215 42.3761C135.374 42.3761 136.313 43.316 136.313 44.475" stroke="white" stroke-miterlimit="10" stroke-linecap="round"/>
<path d="M140.932 44.475C140.932 43.316 141.872 42.3761 143.031 42.3761C144.19 42.3761 145.13 43.316 145.13 44.475" stroke="white" stroke-miterlimit="10" stroke-linecap="round"/>
<path d="M132.586 54.5226C132.586 51.1891 135.289 48.4866 138.622 48.4866C141.956 48.4866 144.659 51.1891 144.659 54.5226" stroke="white" stroke-miterlimit="10" stroke-linecap="round"/>
<path d="M199.221 70.5786H133.942C131.622 70.5786 129.741 72.4598 129.741 74.7798V104.881C129.741 107.201 131.622 109.082 133.942 109.082H137.709L143.28 115.058C143.723 115.534 144.476 115.534 144.919 115.058L150.491 109.082H199.22C201.541 109.082 203.421 107.201 203.421 104.881V74.7798C203.422 72.4598 201.541 70.5786 199.221 70.5786Z" fill="url(#paint18_linear_618_1194)"/>
<path opacity="0.59" d="M154.773 78.3097L155.715 80.2178C155.759 80.3071 155.844 80.3686 155.942 80.3827L158.048 80.6887C158.295 80.7248 158.394 81.0284 158.215 81.2031L156.691 82.6885C156.62 82.7578 156.588 82.8574 156.604 82.9555L156.964 85.0529C157.006 85.2993 156.748 85.4872 156.527 85.3706L154.643 84.3804C154.555 84.3341 154.45 84.3341 154.363 84.3804L152.479 85.3706C152.258 85.4867 152 85.2989 152.042 85.0529L152.401 82.9555C152.418 82.8579 152.386 82.7578 152.314 82.6885L150.791 81.2031C150.612 81.0284 150.711 80.7248 150.958 80.6887L153.063 80.3827C153.162 80.3686 153.246 80.3066 153.29 80.2178L154.232 78.3097C154.344 78.0857 154.663 78.0857 154.773 78.3097Z" fill="white"/>
<path opacity="0.59" d="M166.853 78.3097L167.794 80.2178C167.838 80.3071 167.923 80.3686 168.021 80.3827L170.127 80.6887C170.374 80.7248 170.473 81.0284 170.294 81.2031L168.77 82.6885C168.7 82.7578 168.667 82.8574 168.684 82.9555L169.043 85.0529C169.086 85.2993 168.827 85.4872 168.605 85.3706L166.722 84.3804C166.634 84.3341 166.529 84.3341 166.442 84.3804L164.558 85.3706C164.337 85.4867 164.079 85.2989 164.121 85.0529L164.48 82.9555C164.497 82.8579 164.465 82.7578 164.394 82.6885L162.87 81.2031C162.691 81.0284 162.79 80.7248 163.037 80.6887L165.143 80.3827C165.241 80.3686 165.326 80.3066 165.37 80.2178L166.311 78.3097C166.423 78.0857 166.742 78.0857 166.853 78.3097Z" fill="white"/>
<path opacity="0.59" d="M178.931 78.3097L179.873 80.2178C179.917 80.3071 180.002 80.3686 180.1 80.3827L182.206 80.6887C182.453 80.7248 182.552 81.0284 182.373 81.2031L180.849 82.6885C180.778 82.7578 180.746 82.8574 180.762 82.9555L181.122 85.0529C181.164 85.2993 180.906 85.4872 180.684 85.3706L178.801 84.3804C178.713 84.3341 178.608 84.3341 178.521 84.3804L176.637 85.3706C176.416 85.4867 176.158 85.2989 176.2 85.0529L176.559 82.9555C176.576 82.8579 176.544 82.7578 176.472 82.6885L174.949 81.2031C174.77 81.0284 174.869 80.7248 175.116 80.6887L177.221 80.3827C177.32 80.3686 177.404 80.3066 177.448 80.2178L178.39 78.3097C178.501 78.0857 178.821 78.0857 178.931 78.3097Z" fill="white"/>
<path d="M142.695 78.3097L143.636 80.2178C143.68 80.3071 143.765 80.3686 143.863 80.3827L145.969 80.6887C146.216 80.7248 146.315 81.0284 146.136 81.2031L144.612 82.6885C144.541 82.7578 144.509 82.8574 144.526 82.9555L144.885 85.0529C144.927 85.2993 144.669 85.4872 144.447 85.3706L142.564 84.3804C142.476 84.3341 142.371 84.3341 142.283 84.3804L140.4 85.3706C140.179 85.4867 139.92 85.2989 139.963 85.0529L140.322 82.9555C140.339 82.8579 140.307 82.7578 140.236 82.6885L138.712 81.2031C138.533 81.0284 138.632 80.7248 138.879 80.6887L140.985 80.3827C141.083 80.3686 141.168 80.3066 141.212 80.2178L142.153 78.3097C142.264 78.0857 142.584 78.0857 142.695 78.3097Z" fill="url(#paint19_linear_618_1194)"/>
<path opacity="0.59" d="M191.011 78.3097L191.953 80.2178C191.997 80.3071 192.081 80.3686 192.18 80.3827L194.285 80.6887C194.533 80.7248 194.631 81.0284 194.452 81.2031L192.929 82.6885C192.857 82.7578 192.825 82.8574 192.842 82.9555L193.201 85.0529C193.244 85.2993 192.985 85.4872 192.764 85.3706L190.88 84.3804C190.793 84.3341 190.688 84.3341 190.6 84.3804L188.716 85.3706C188.495 85.4867 188.236 85.2989 188.278 85.0529L188.638 82.9555C188.655 82.8579 188.622 82.7578 188.551 82.6885L187.028 81.2031C186.849 81.0284 186.948 80.7248 187.195 80.6887L189.3 80.3827C189.398 80.3686 189.483 80.3066 189.527 80.2178L190.469 78.3097C190.58 78.0857 190.9 78.0857 191.011 78.3097Z" fill="white"/>
<path d="M138.622 94.7994H160.406" stroke="url(#paint20_linear_618_1194)" stroke-width="1.2" stroke-miterlimit="10" stroke-linecap="round"/>
<path d="M163.589 94.7994H180.726" stroke="url(#paint21_linear_618_1194)" stroke-width="1.2" stroke-miterlimit="10" stroke-linecap="round"/>
<path d="M183.746 94.7994H194.544" stroke="url(#paint22_linear_618_1194)" stroke-width="1.2" stroke-miterlimit="10" stroke-linecap="round"/>
<path d="M138.622 98.0272H153.245" stroke="url(#paint23_linear_618_1194)" stroke-width="1.2" stroke-miterlimit="10" stroke-linecap="round"/>
<path d="M155.938 98.0272H172.158" stroke="url(#paint24_linear_618_1194)" stroke-width="1.2" stroke-miterlimit="10" stroke-linecap="round"/>
<path d="M176.014 98.0272H194.544" stroke="url(#paint25_linear_618_1194)" stroke-width="1.2" stroke-miterlimit="10" stroke-linecap="round"/>
<path d="M138.622 91.5675H157.465" stroke="url(#paint26_linear_618_1194)" stroke-width="1.2" stroke-miterlimit="10" stroke-linecap="round"/>
<path d="M160.604 91.5675H176.515" stroke="url(#paint27_linear_618_1194)" stroke-width="1.2" stroke-miterlimit="10" stroke-linecap="round"/>
<path d="M179.579 91.5675H194.544" stroke="url(#paint28_linear_618_1194)" stroke-width="1.2" stroke-miterlimit="10" stroke-linecap="round"/>
<path d="M138.621 101.257H157.897" stroke="url(#paint29_linear_618_1194)" stroke-width="1.2" stroke-miterlimit="10" stroke-linecap="round"/>
<path d="M183.508 149.998C192.521 149.998 199.827 142.692 199.827 133.679C199.827 124.666 192.521 117.36 183.508 117.36C174.495 117.36 167.188 124.666 167.188 133.679C167.188 142.692 174.495 149.998 183.508 149.998Z" fill="url(#paint30_linear_618_1194)"/>
<path d="M189.073 125.179H192.419C192.952 125.179 193.385 125.612 193.385 126.146V134.546C193.385 135.079 192.953 135.512 192.419 135.512H189.073C188.54 135.512 188.107 135.079 188.107 134.546V126.146C188.107 125.612 188.54 125.179 189.073 125.179Z" fill="url(#paint31_linear_618_1194)"/>
<path d="M174.403 134.739C173.918 135.044 173.603 135.593 173.634 136.214C173.679 137.101 174.462 137.774 175.35 137.774H180.558C178.368 140.866 179.102 143.491 179.461 144.38C179.541 144.575 179.662 144.75 179.818 144.892L179.83 144.903C180.31 145.341 181.034 145.446 181.583 145.099C182.008 144.831 182.249 144.374 182.249 143.897V142.385C182.249 142.217 182.322 142.059 182.445 141.945C185.146 139.456 186.163 136.722 186.441 135.82C186.499 135.631 186.527 135.436 186.527 135.238V127.078C186.527 126.559 186.107 126.138 185.588 126.138H175.35C174.462 126.138 173.679 126.811 173.635 127.698C173.604 128.32 173.919 128.869 174.403 129.174C173.941 129.464 173.633 129.978 173.633 130.565C173.633 131.151 173.941 131.665 174.403 131.956C173.941 132.247 173.633 132.761 173.633 133.347C173.632 133.934 173.94 134.447 174.403 134.739Z" fill="url(#paint32_linear_618_1194)"/>
<path d="M100.684 106.682L115.208 121.205" stroke="url(#paint33_linear_618_1194)" stroke-width="4" stroke-miterlimit="10" stroke-linecap="round"/>
<path d="M115.208 106.682L100.684 121.205" stroke="url(#paint34_linear_618_1194)" stroke-width="4" stroke-miterlimit="10" stroke-linecap="round"/>
<path d="M30.6825 116.673H65.7029C67.6807 116.673 69.2843 118.277 69.2843 120.254V138.782C69.2843 140.76 67.6807 142.363 65.7029 142.363H62.4923L57.7426 147.457C57.3649 147.863 56.7232 147.863 56.3455 147.457L51.5962 142.363H30.6825C28.7046 142.363 27.1011 140.76 27.1011 138.782V120.254C27.1011 118.277 28.7046 116.673 30.6825 116.673Z" fill="url(#paint35_linear_618_1194)"/>
<path d="M38.6593 122.866C38.1859 122.866 37.8146 123.256 37.8234 123.73L38.0464 131.492H39.2722L39.4952 123.73V123.693C39.4948 123.237 39.1234 122.866 38.6593 122.866ZM38.6593 133.638C38.0464 133.638 37.6008 134.111 37.6008 134.752C37.6008 135.383 38.0371 135.866 38.6593 135.866C39.3093 135.866 39.7178 135.383 39.7178 134.752C39.7178 134.111 39.3093 133.638 38.6593 133.638Z" fill="white" stroke="white" stroke-width="1.2" stroke-miterlimit="10"/>
<path d="M48.192 122.583C47.7187 122.583 47.3468 122.973 47.3561 123.447L47.5791 131.21H48.8049L49.028 123.447V123.41C49.028 122.954 48.6566 122.583 48.192 122.583ZM48.192 133.355C47.5791 133.355 47.1335 133.828 47.1335 134.469C47.1335 135.1 47.5698 135.583 48.192 135.583C48.842 135.583 49.2505 135.1 49.2505 134.469C49.251 133.828 48.842 133.355 48.192 133.355Z" fill="white" stroke="white" stroke-width="1.2" stroke-miterlimit="10"/>
<path d="M57.7272 122.866C57.2538 122.866 56.8824 123.256 56.8912 123.73L57.1142 131.492H58.3401L58.5631 123.73V123.693C58.5631 123.237 58.1913 122.866 57.7272 122.866ZM57.7272 133.638C57.1142 133.638 56.6687 134.111 56.6687 134.752C56.6687 135.383 57.105 135.866 57.7272 135.866C58.3772 135.866 58.7856 135.383 58.7856 134.752C58.7856 134.111 58.3772 133.638 57.7272 133.638Z" fill="white" stroke="white" stroke-width="1.2" stroke-miterlimit="10"/>
<path d="M143.691 127.163C144.286 124.255 148.093 123.508 149.747 125.973L149.971 126.309L150.264 126.739L152.421 129.96L155.569 134.654L156.311 135.762L156.598 136.186L170.018 156.199C170.624 157.102 171.097 158.093 171.419 159.132L156.598 136.186L155.569 168.067V169.254L152.421 162.172L143.642 139.305L143.456 138.623C142.431 134.86 142.513 130.881 143.691 127.163Z" fill="url(#paint36_linear_618_1194)"/>
<path opacity="0.7" d="M156.394 135.889C155.594 136.381 154.652 136.543 153.739 136.338C152.817 136.133 152.022 135.581 151.519 134.781L149.494 131.604C148.498 130.033 148.889 127.968 150.353 126.865L152.422 129.959L155.569 134.654L156.311 135.762L156.394 135.889Z" fill="white"/>
<defs>
<radialGradient id="paint0_radial_618_1194" cx="0" cy="0" r="1" gradientUnits="userSpaceOnUse" gradientTransform="translate(121.999 121.702) scale(110.503 110.503)">
<stop stop-color="#1C11E1"/>
<stop offset="1" stop-color="#3354CC"/>
</radialGradient>
<linearGradient id="paint1_linear_618_1194" x1="71" y1="118.426" x2="92.4538" y2="118.426" gradientUnits="userSpaceOnUse">
<stop stop-color="#F4D0C6"/>
<stop offset="1" stop-color="#F8E9E5"/>
</linearGradient>
<linearGradient id="paint2_linear_618_1194" x1="106.83" y1="184.245" x2="225.765" y2="184.245" gradientUnits="userSpaceOnUse">
<stop stop-color="#F4D0C6"/>
<stop offset="1" stop-color="#F8E9E5"/>
</linearGradient>
<linearGradient id="paint3_linear_618_1194" x1="156.277" y1="98.6879" x2="152" y2="94.41" gradientUnits="userSpaceOnUse">
<stop stop-color="#C5DFFF"/>
<stop offset="1" stop-color="white"/>
</linearGradient>
<linearGradient id="paint4_linear_618_1194" x1="90.2721" y1="92.9466" x2="86.6495" y2="89.324" gradientUnits="userSpaceOnUse">
<stop stop-color="#C5DFFF"/>
<stop offset="1" stop-color="white"/>
</linearGradient>
<linearGradient id="paint5_linear_618_1194" x1="90.2683" y1="103.77" x2="86.6458" y2="100.147" gradientUnits="userSpaceOnUse">
<stop stop-color="#C5DFFF"/>
<stop offset="1" stop-color="white"/>
</linearGradient>
<linearGradient id="paint6_linear_618_1194" x1="70.8286" y1="111.36" x2="171.772" y2="182.042" gradientUnits="userSpaceOnUse">
<stop stop-color="#C5DFFF"/>
<stop offset="1" stop-color="white"/>
</linearGradient>
<linearGradient id="paint7_linear_618_1194" x1="99.3864" y1="165.813" x2="103.007" y2="165.813" gradientUnits="userSpaceOnUse">
<stop stop-color="#3354CC"/>
<stop offset="1" stop-color="#3354CC"/>
</linearGradient>
<linearGradient id="paint8_linear_618_1194" x1="99.3864" y1="165.813" x2="103.007" y2="165.813" gradientUnits="userSpaceOnUse">
<stop stop-color="#3354CC"/>
<stop offset="1" stop-color="#3354CC"/>
</linearGradient>
<linearGradient id="paint9_linear_618_1194" x1="99.3864" y1="179.734" x2="103.007" y2="179.734" gradientUnits="userSpaceOnUse">
<stop stop-color="#3354CC"/>
<stop offset="1" stop-color="#3354CC"/>
</linearGradient>
<linearGradient id="paint10_linear_618_1194" x1="99.3864" y1="179.734" x2="103.007" y2="179.734" gradientUnits="userSpaceOnUse">
<stop stop-color="#3354CC"/>
<stop offset="1" stop-color="#3354CC"/>
</linearGradient>
<linearGradient id="paint11_linear_618_1194" x1="99.3864" y1="193.438" x2="103.007" y2="193.438" gradientUnits="userSpaceOnUse">
<stop stop-color="#3354CC"/>
<stop offset="1" stop-color="#3354CC"/>
</linearGradient>
<linearGradient id="paint12_linear_618_1194" x1="99.3864" y1="193.438" x2="103.007" y2="193.438" gradientUnits="userSpaceOnUse">
<stop stop-color="#3354CC"/>
<stop offset="1" stop-color="#3354CC"/>
</linearGradient>
<linearGradient id="paint13_linear_618_1194" x1="73.4827" y1="151.494" x2="97.4372" y2="151.494" gradientUnits="userSpaceOnUse">
<stop stop-color="#F4D0C6"/>
<stop offset="1" stop-color="#F8E9E5"/>
</linearGradient>
<linearGradient id="paint14_linear_618_1194" x1="70.9993" y1="170.478" x2="99.9317" y2="170.478" gradientUnits="userSpaceOnUse">
<stop stop-color="#F4D0C6"/>
<stop offset="1" stop-color="#F8E9E5"/>
</linearGradient>
<linearGradient id="paint15_linear_618_1194" x1="76.9803" y1="190.52" x2="99.9322" y2="190.52" gradientUnits="userSpaceOnUse">
<stop stop-color="#F4D0C6"/>
<stop offset="1" stop-color="#F8E9E5"/>
</linearGradient>
<linearGradient id="paint16_linear_618_1194" x1="57.9997" y1="71.5052" x2="111.498" y2="71.5052" gradientUnits="userSpaceOnUse">
<stop stop-color="#3354CC"/>
<stop offset="1" stop-color="#3354CC"/>
</linearGradient>
<linearGradient id="paint17_linear_618_1194" x1="126.655" y1="47.5" x2="150.589" y2="47.5" gradientUnits="userSpaceOnUse">
<stop stop-color="#3354CC"/>
<stop offset="1" stop-color="#3354CC"/>
</linearGradient>
<linearGradient id="paint18_linear_618_1194" x1="129.741" y1="92.9968" x2="203.422" y2="92.9968" gradientUnits="userSpaceOnUse">
<stop stop-color="#3354CC"/>
<stop offset="1" stop-color="#3354CC"/>
</linearGradient>
<linearGradient id="paint19_linear_618_1194" x1="145.083" y1="79.7176" x2="139.765" y2="85.0354" gradientUnits="userSpaceOnUse">
<stop stop-color="#FFC57C"/>
<stop offset="0.4047" stop-color="#FFA96A"/>
<stop offset="0.688" stop-color="#FFC57C"/>
<stop offset="1" stop-color="#FFA96A"/>
</linearGradient>
<linearGradient id="paint20_linear_618_1194" x1="-nan" y1="-nan" x2="-nan" y2="-nan" gradientUnits="userSpaceOnUse">
<stop stop-color="#E3E3FF"/>
<stop offset="0.995" stop-color="white"/>
</linearGradient>
<linearGradient id="paint21_linear_618_1194" x1="-nan" y1="-nan" x2="-nan" y2="-nan" gradientUnits="userSpaceOnUse">
<stop stop-color="#E3E3FF"/>
<stop offset="0.995" stop-color="white"/>
</linearGradient>
<linearGradient id="paint22_linear_618_1194" x1="-nan" y1="-nan" x2="-nan" y2="-nan" gradientUnits="userSpaceOnUse">
<stop stop-color="#E3E3FF"/>
<stop offset="0.995" stop-color="white"/>
</linearGradient>
<linearGradient id="paint23_linear_618_1194" x1="-nan" y1="-nan" x2="-nan" y2="-nan" gradientUnits="userSpaceOnUse">
<stop stop-color="#E3E3FF"/>
<stop offset="0.995" stop-color="white"/>
</linearGradient>
<linearGradient id="paint24_linear_618_1194" x1="-nan" y1="-nan" x2="-nan" y2="-nan" gradientUnits="userSpaceOnUse">
<stop stop-color="#E3E3FF"/>
<stop offset="0.995" stop-color="white"/>
</linearGradient>
<linearGradient id="paint25_linear_618_1194" x1="-nan" y1="-nan" x2="-nan" y2="-nan" gradientUnits="userSpaceOnUse">
<stop stop-color="#E3E3FF"/>
<stop offset="0.995" stop-color="white"/>
</linearGradient>
<linearGradient id="paint26_linear_618_1194" x1="-nan" y1="-nan" x2="-nan" y2="-nan" gradientUnits="userSpaceOnUse">
<stop stop-color="#E3E3FF"/>
<stop offset="0.995" stop-color="white"/>
</linearGradient>
<linearGradient id="paint27_linear_618_1194" x1="-nan" y1="-nan" x2="-nan" y2="-nan" gradientUnits="userSpaceOnUse">
<stop stop-color="#E3E3FF"/>
<stop offset="0.995" stop-color="white"/>
</linearGradient>
<linearGradient id="paint28_linear_618_1194" x1="-nan" y1="-nan" x2="-nan" y2="-nan" gradientUnits="userSpaceOnUse">
<stop stop-color="#E3E3FF"/>
<stop offset="0.995" stop-color="white"/>
</linearGradient>
<linearGradient id="paint29_linear_618_1194" x1="-nan" y1="-nan" x2="-nan" y2="-nan" gradientUnits="userSpaceOnUse">
<stop stop-color="#E3E3FF"/>
<stop offset="0.995" stop-color="white"/>
</linearGradient>
<linearGradient id="paint30_linear_618_1194" x1="167.188" y1="133.679" x2="199.827" y2="133.679" gradientUnits="userSpaceOnUse">
<stop stop-color="#3354CC"/>
<stop offset="1" stop-color="#3354CC"/>
</linearGradient>
<linearGradient id="paint31_linear_618_1194" x1="188.026" y1="125.634" x2="193.466" y2="135.057" gradientUnits="userSpaceOnUse">
<stop stop-color="#E3E3FF"/>
<stop offset="0.995" stop-color="white"/>
</linearGradient>
<linearGradient id="paint32_linear_618_1194" x1="186.527" y1="135.722" x2="173.632" y2="135.722" gradientUnits="userSpaceOnUse">
<stop stop-color="#E3E3FF"/>
<stop offset="0.995" stop-color="white"/>
</linearGradient>
<linearGradient id="paint33_linear_618_1194" x1="101.924" y1="113.944" x2="115.518" y2="113.944" gradientUnits="userSpaceOnUse">
<stop stop-color="#3354CC"/>
<stop offset="1" stop-color="#3354CC"/>
</linearGradient>
<linearGradient id="paint34_linear_618_1194" x1="101.924" y1="113.944" x2="115.518" y2="113.944" gradientUnits="userSpaceOnUse">
<stop stop-color="#3354CC"/>
<stop offset="1" stop-color="#3354CC"/>
</linearGradient>
<linearGradient id="paint35_linear_618_1194" x1="27.1009" y1="132.217" x2="69.2846" y2="132.217" gradientUnits="userSpaceOnUse">
<stop stop-color="#3354CC"/>
<stop offset="1" stop-color="#3354CC"/>
</linearGradient>
<linearGradient id="paint36_linear_618_1194" x1="142.743" y1="149.648" x2="176.299" y2="149.648" gradientUnits="userSpaceOnUse">
<stop stop-color="#F4D0C6"/>
<stop offset="1" stop-color="#F8E9E5"/>
</linearGradient>
</defs>
</svg>
