<svg width="610" height="454" viewBox="0 0 610 454" fill="none" xmlns="http://www.w3.org/2000/svg">
<rect width="392.073" height="212.611" rx="12" transform="matrix(0.872496 0.488621 -0.707107 0.707107 150.339 59.4307)" fill="url(#paint0_linear_2742_1101)"/>
<path d="M139.747 89.3599C140.335 88.7715 141 88.3295 141.74 88.0339C142.49 87.7432 143.233 87.6132 143.971 87.6439C144.718 87.6795 145.398 87.8691 146.011 88.2128C146.547 88.5129 146.926 88.8618 147.149 89.2596C147.38 89.6623 147.483 90.0645 147.459 90.4662L148.289 89.6361L150.117 90.6599L144.296 96.481L142.468 95.4573L143.319 94.6061C142.813 94.7486 142.261 94.7948 141.664 94.7446C141.083 94.6922 140.524 94.5159 139.988 94.2158C139.383 93.877 138.956 93.4411 138.707 92.9082C138.466 92.3801 138.427 91.8061 138.588 91.1862C138.765 90.5641 139.152 89.9553 139.747 89.3599ZM145.379 92.5467C145.736 92.1894 145.954 91.8363 146.034 91.4873C146.12 91.1313 146.083 90.8045 145.922 90.5068C145.768 90.2021 145.523 89.9554 145.186 89.7666C144.849 89.5778 144.471 89.4701 144.053 89.4435C143.634 89.4168 143.205 89.4823 142.764 89.6398C142.339 89.7952 141.951 90.048 141.601 90.3982C141.251 90.7485 141.029 91.1051 140.936 91.4681C140.858 91.8289 140.892 92.1593 141.037 92.4591C141.191 92.7638 141.432 93.0081 141.76 93.1921C142.097 93.3808 142.479 93.491 142.906 93.5225C143.34 93.5469 143.77 93.4815 144.195 93.3261C144.627 93.1637 145.022 92.9039 145.379 92.5467ZM152.802 93.5728C153.343 93.3953 153.888 93.3231 154.434 93.3561C154.99 93.3939 155.51 93.5484 155.994 93.8195L154.449 95.3641L153.969 95.0954C153.399 94.776 152.858 94.6425 152.347 94.6951C151.845 94.7525 151.324 95.0509 150.784 95.5903L147.884 98.4904L146.069 97.4738L151.89 91.6527L153.705 92.6692L152.802 93.5728ZM158.037 96.9801L155.221 99.7961C155.025 99.9923 154.937 100.167 154.959 100.321C154.996 100.473 155.152 100.627 155.429 100.781L156.272 101.253L155.032 102.493L153.891 101.854C152.361 100.998 152.199 99.9667 153.403 98.7618L156.209 95.9563L155.353 95.4771L156.562 94.2687L157.417 94.748L158.857 93.3084L160.685 94.3322L159.245 95.7717L160.853 96.6721L159.645 97.8804L158.037 96.9801ZM166.288 99.5845C166.832 99.8895 167.218 100.259 167.446 100.692C167.68 101.118 167.725 101.586 167.58 102.095C167.451 102.602 167.123 103.118 166.598 103.643L163.183 107.058L161.368 106.042L164.583 102.826C165.046 102.364 165.257 101.93 165.217 101.525C165.184 101.114 164.921 100.77 164.428 100.494C163.927 100.213 163.403 100.116 162.857 100.204C162.327 100.289 161.83 100.563 161.368 101.026L158.153 104.241L156.337 103.224L164.113 95.4488L165.928 96.4653L163.249 99.1448C163.734 99.0233 164.242 99.0014 164.771 99.0791C165.307 99.1498 165.812 99.3183 166.288 99.5845ZM167.374 104.832C167.962 104.243 168.627 103.801 169.367 103.506C170.117 103.215 170.86 103.085 171.598 103.116C172.345 103.151 173.025 103.341 173.638 103.685C174.174 103.985 174.553 104.334 174.776 104.732C175.007 105.134 175.11 105.536 175.086 105.938L175.916 105.108L177.744 106.132L171.923 111.953L170.095 110.929L170.946 110.078C170.44 110.221 169.888 110.267 169.291 110.216C168.71 110.164 168.151 109.988 167.615 109.688C167.01 109.349 166.583 108.913 166.334 108.38C166.093 107.852 166.054 107.278 166.215 106.658C166.392 106.036 166.779 105.427 167.374 104.832ZM173.006 108.019C173.363 107.661 173.581 107.308 173.661 106.959C173.747 106.603 173.71 106.276 173.549 105.979C173.395 105.674 173.15 105.427 172.813 105.238C172.476 105.05 172.098 104.942 171.68 104.915C171.261 104.889 170.832 104.954 170.391 105.112C169.966 105.267 169.578 105.52 169.228 105.87C168.878 106.22 168.656 106.577 168.563 106.94C168.485 107.301 168.519 107.631 168.664 107.931C168.818 108.236 169.059 108.48 169.387 108.664C169.724 108.853 170.106 108.963 170.533 108.994C170.967 109.019 171.397 108.953 171.822 108.798C172.254 108.636 172.649 108.376 173.006 108.019Z" fill="white"/>
<path d="M108.867 116.159L110.338 114.688L113.967 116.721L103.658 127.031L101.651 125.907L110.49 117.068L108.867 116.159ZM109.682 126.985C111.581 126.828 113.101 126.678 114.24 126.537C115.401 126.393 116.47 126.168 117.447 125.862C118.424 125.556 119.186 125.13 119.733 124.583C120.299 124.017 120.573 123.48 120.556 122.97C120.551 122.467 120.194 122.017 119.484 121.62C118.798 121.235 118.084 121.115 117.341 121.258C116.62 121.398 115.951 121.759 115.334 122.34L113.414 121.265C114.524 120.21 115.74 119.611 117.062 119.469C118.405 119.324 119.664 119.58 120.839 120.238C122.107 120.948 122.813 121.785 122.956 122.748C123.112 123.718 122.718 124.674 121.776 125.617C121.097 126.295 120.226 126.83 119.164 127.221C118.123 127.608 117.056 127.886 115.963 128.053C114.891 128.218 113.576 128.371 112.018 128.514L110.667 128.64L116.199 131.738L114.856 133.081L106.375 128.332L107.549 127.158L109.682 126.985ZM124.191 126.418C125.137 125.58 126.234 125.128 127.48 125.061C128.738 125.001 129.961 125.303 131.147 125.967C131.962 126.423 132.548 126.935 132.905 127.503C133.263 128.071 133.39 128.643 133.287 129.217C133.184 129.792 132.878 130.334 132.369 130.843C131.785 131.428 131.093 131.82 130.294 132.02C129.496 132.22 128.758 132.24 128.081 132.082L128.025 132.139C128.541 132.693 128.765 133.304 128.697 133.971C128.638 134.629 128.259 135.307 127.561 136.005C127.005 136.561 126.353 136.968 125.605 137.226C124.858 137.484 124.048 137.567 123.177 137.477C122.315 137.376 121.454 137.085 120.593 136.603C119.337 135.9 118.561 135.06 118.265 134.086C117.99 133.108 118.314 132.113 119.236 131.1L121.156 132.175C120.703 132.701 120.531 133.244 120.641 133.806C120.76 134.358 121.186 134.839 121.919 135.25C122.629 135.647 123.331 135.798 124.026 135.702C124.731 135.596 125.333 135.294 125.832 134.794C126.492 134.134 126.697 133.521 126.447 132.954C126.218 132.385 125.569 131.8 124.498 131.201L124.045 130.947L125.374 129.617L125.845 129.881C126.797 130.399 127.64 130.673 128.373 130.701C129.119 130.736 129.755 130.49 130.283 129.962C130.736 129.509 130.914 129.05 130.817 128.584C130.73 128.109 130.355 127.685 129.692 127.314C129.04 126.949 128.397 126.803 127.763 126.874C127.139 126.936 126.594 127.145 126.128 127.502L124.191 126.418ZM128.728 137.717L129.944 136.501L142.624 132.968L145.032 134.317L138.399 140.949L140.022 141.858L138.622 143.258L136.999 142.349L134.85 144.499L132.895 143.404L135.045 141.255L128.728 137.717ZM141.524 134.911L132.414 137.597L136.532 139.904L141.524 134.911ZM159.779 144.539L153.933 141.265L151.119 144.079C151.627 143.952 152.209 143.932 152.865 144.02C153.533 144.115 154.14 144.315 154.687 144.621C155.664 145.169 156.286 145.781 156.551 146.46C156.828 147.144 156.836 147.818 156.573 148.48C156.322 149.148 155.909 149.77 155.334 150.345C154.636 151.042 153.845 151.57 152.961 151.928C152.098 152.283 151.179 152.43 150.205 152.37C149.242 152.317 148.284 152.023 147.33 151.488C146.062 150.778 145.299 149.954 145.04 149.015C144.781 148.075 144.996 147.144 145.684 146.22L147.621 147.305C147.306 147.82 147.237 148.333 147.415 148.844C147.603 149.347 148.028 149.783 148.691 150.155C149.517 150.617 150.336 150.76 151.149 150.582C151.973 150.412 152.72 149.991 153.389 149.322C154.068 148.643 154.377 148.007 154.317 147.415C154.266 146.812 153.833 146.283 153.019 145.827C152.449 145.508 151.848 145.355 151.217 145.37C150.607 145.381 150.016 145.536 149.446 145.834L147.561 144.778L153.515 138.825L161.193 143.124L159.779 144.539ZM168.558 151.022C168.864 150.517 168.957 150.061 168.836 149.655C168.716 149.249 168.353 148.877 167.748 148.538C166.829 148.024 165.855 147.927 164.826 148.248C163.807 148.56 162.626 149.369 161.282 150.676C162 150.43 162.762 150.357 163.57 150.457C164.378 150.556 165.12 150.795 165.794 151.173C166.562 151.603 167.1 152.117 167.408 152.716C167.738 153.313 167.811 153.957 167.627 154.648C167.455 155.346 167.016 156.049 166.309 156.756C165.649 157.416 164.897 157.914 164.053 158.25C163.22 158.593 162.339 158.739 161.409 158.689C160.488 158.629 159.586 158.352 158.702 157.857C157.504 157.186 156.773 156.446 156.511 155.637C156.27 154.826 156.401 153.95 156.905 153.012C157.42 152.079 158.262 151.028 159.431 149.859C162.882 146.409 166.108 145.524 169.109 147.205C170.272 147.856 170.931 148.622 171.085 149.503C171.251 150.39 171.019 151.238 170.391 152.048L168.558 151.022ZM164 152.286C163.291 151.889 162.511 151.724 161.662 151.793C160.834 151.859 160.095 152.217 159.444 152.867C158.794 153.518 158.502 154.164 158.569 154.804C158.658 155.442 159.115 155.992 159.941 156.455C160.674 156.865 161.433 157.004 162.22 156.871C163.018 156.744 163.723 156.374 164.336 155.761C164.977 155.12 165.277 154.494 165.235 153.882C165.215 153.268 164.803 152.736 164 152.286ZM182.121 156.83L168.205 163.179L166.198 162.055L179.997 155.906L173.541 152.29L174.913 150.918L183.323 155.628L182.121 156.83ZM182.293 162.663C181.574 161.495 181.742 160.383 182.798 159.327C183.307 158.818 183.931 158.439 184.669 158.191C185.407 157.943 186.213 157.872 187.087 157.979C187.969 158.076 188.864 158.379 189.772 158.887C190.668 159.388 191.302 159.942 191.676 160.549C192.071 161.152 192.213 161.754 192.103 162.354C191.993 162.954 191.683 163.509 191.174 164.018C190.646 164.546 190.01 164.918 189.268 165.135C188.546 165.348 187.803 165.41 187.04 165.321C187.505 165.89 187.703 166.509 187.634 167.176C187.575 167.834 187.244 168.465 186.64 169.069C186.028 169.681 185.294 170.116 184.438 170.372C183.583 170.629 182.685 170.692 181.744 170.562C180.803 170.433 179.896 170.123 179.024 169.635C178.151 169.146 177.499 168.582 177.067 167.943C176.647 167.311 176.481 166.652 176.568 165.965C176.656 165.279 177.006 164.629 177.619 164.016C178.232 163.403 178.952 162.983 179.779 162.755C180.606 162.527 181.444 162.496 182.293 162.663ZM189.074 163.151C189.602 162.623 189.804 162.103 189.679 161.593C189.555 161.082 189.138 160.628 188.428 160.23C187.73 159.839 187.036 159.671 186.346 159.726C185.656 159.781 185.043 160.077 184.505 160.614C184.034 161.086 183.857 161.59 183.974 162.126C184.112 162.659 184.512 163.112 185.176 163.483C185.839 163.854 186.536 164.01 187.268 163.949C188.001 163.888 188.602 163.622 189.074 163.151ZM183.959 164.699C183.192 164.269 182.408 164.073 181.608 164.11C180.829 164.145 180.153 164.45 179.577 165.025C179.04 165.562 178.834 166.131 178.96 166.731C179.096 167.322 179.565 167.842 180.367 168.291C181.158 168.734 181.95 168.913 182.744 168.828C183.548 168.749 184.215 168.446 184.743 167.918C185.308 167.352 185.508 166.78 185.342 166.202C185.188 165.63 184.727 165.129 183.959 164.699ZM195.697 174.207C195.342 174.744 195.234 175.242 195.373 175.702C195.512 176.162 195.907 176.575 196.558 176.939C197.384 177.402 198.253 177.477 199.165 177.164C200.077 176.851 201.169 176.058 202.442 174.785C201.842 174.949 201.197 174.978 200.506 174.87C199.836 174.76 199.204 174.538 198.611 174.206C197.855 173.783 197.291 173.276 196.92 172.685C196.558 172.085 196.441 171.439 196.571 170.747C196.722 170.052 197.151 169.351 197.858 168.644C198.895 167.607 200.092 166.99 201.449 166.794C202.828 166.596 204.174 166.864 205.489 167.6C207.071 168.487 207.765 169.544 207.57 170.773C207.396 172 206.428 173.495 204.665 175.258C203.448 176.474 202.326 177.397 201.297 178.027C200.279 178.663 199.264 179.006 198.252 179.057C197.239 179.108 196.186 178.827 195.093 178.215C193.848 177.517 193.152 176.716 193.005 175.81C192.859 174.904 193.145 174.028 193.865 173.181L195.697 174.207ZM200.318 173.044C201.016 173.435 201.737 173.567 202.481 173.439C203.247 173.309 203.922 172.952 204.506 172.367C205.157 171.717 205.446 171.092 205.374 170.492C205.323 169.89 204.931 169.384 204.198 168.973C203.465 168.563 202.695 168.426 201.887 168.562C201.101 168.695 200.406 169.063 199.802 169.667C199.227 170.242 198.955 170.832 198.985 171.437C199.036 172.039 199.48 172.575 200.318 173.044ZM210.073 172.837L211.544 171.366L215.173 173.399L204.864 183.709L202.857 182.585L211.696 173.746L210.073 172.837ZM212.886 179.95C214.517 178.319 216.127 177.235 217.716 176.698C219.327 176.159 220.964 176.355 222.627 177.287C224.291 178.218 224.998 179.335 224.749 180.637C224.52 181.936 223.591 183.401 221.96 185.032C220.31 186.682 218.675 187.781 217.055 188.33C215.457 188.876 213.825 188.683 212.162 187.752C210.498 186.82 209.785 185.7 210.023 184.392C210.282 183.081 211.236 181.6 212.886 179.95ZM220.005 183.937C220.769 183.173 221.351 182.492 221.751 181.892C222.163 181.299 222.347 180.733 222.305 180.195C222.272 179.647 221.889 179.168 221.156 178.757C220.423 178.347 219.701 178.207 218.989 178.338C218.287 178.46 217.608 178.748 216.952 179.205C216.308 179.668 215.604 180.281 214.84 181.045C214.048 181.836 213.442 182.534 213.021 183.136C212.6 183.739 212.41 184.309 212.452 184.848C212.506 185.393 212.9 185.871 213.633 186.281C214.366 186.691 215.083 186.836 215.785 186.714C216.499 186.599 217.183 186.306 217.837 185.833C218.491 185.361 219.213 184.729 220.005 183.937ZM227.353 182.514L228.823 181.043L232.453 183.076L222.143 193.386L220.137 192.262L228.975 183.423L227.353 182.514ZM237.986 188.469L239.457 186.999L243.087 189.031L232.777 199.341L230.77 198.217L239.609 189.378L237.986 188.469ZM238.801 199.295C240.7 199.138 242.22 198.989 243.359 198.847C244.52 198.703 245.589 198.478 246.566 198.172C247.543 197.866 248.305 197.44 248.852 196.893C249.418 196.328 249.692 195.79 249.676 195.28C249.67 194.777 249.313 194.327 248.603 193.93C247.917 193.545 247.203 193.425 246.461 193.568C245.739 193.709 245.07 194.069 244.453 194.65L242.534 193.575C243.643 192.52 244.859 191.921 246.181 191.779C247.524 191.634 248.783 191.89 249.958 192.548C251.226 193.258 251.932 194.095 252.076 195.058C252.231 196.028 251.838 196.984 250.895 197.927C250.216 198.606 249.346 199.14 248.283 199.531C247.242 199.919 246.175 200.196 245.082 200.364C244.01 200.528 242.695 200.682 241.138 200.824L239.787 200.95L245.318 204.048L243.975 205.391L235.494 200.642L236.668 199.468L238.801 199.295ZM253.31 198.728C254.257 197.89 255.353 197.438 256.6 197.371C257.858 197.311 259.08 197.613 260.267 198.277C261.081 198.733 261.667 199.245 262.024 199.813C262.382 200.381 262.509 200.953 262.406 201.528C262.304 202.102 261.997 202.644 261.488 203.153C260.904 203.738 260.212 204.13 259.413 204.33C258.615 204.53 257.877 204.551 257.201 204.392L257.144 204.449C257.661 205.003 257.885 205.614 257.816 206.281C257.757 206.94 257.378 207.617 256.681 208.315C256.124 208.871 255.472 209.278 254.725 209.536C253.977 209.794 253.167 209.877 252.296 209.787C251.434 209.687 250.573 209.395 249.712 208.913C248.456 208.21 247.68 207.371 247.384 206.396C247.109 205.419 247.433 204.423 248.356 203.41L250.275 204.485C249.822 205.011 249.65 205.555 249.76 206.116C249.879 206.668 250.305 207.15 251.038 207.56C251.748 207.957 252.45 208.108 253.145 208.012C253.85 207.906 254.452 207.604 254.952 207.104C255.612 206.444 255.816 205.831 255.566 205.264C255.337 204.695 254.688 204.11 253.617 203.511L253.164 203.257L254.493 201.928L254.964 202.191C255.916 202.71 256.759 202.983 257.492 203.012C258.238 203.047 258.874 202.8 259.402 202.272C259.855 201.82 260.033 201.36 259.936 200.894C259.849 200.419 259.474 199.996 258.811 199.624C258.159 199.259 257.517 199.113 256.883 199.184C256.258 199.246 255.713 199.456 255.247 199.813L253.31 198.728ZM257.847 210.027L259.063 208.811L271.743 205.278L274.151 206.627L267.518 213.259L269.141 214.168L267.741 215.568L266.118 214.659L263.969 216.809L262.014 215.715L264.164 213.565L257.847 210.027ZM270.643 207.222L261.533 209.907L265.651 212.214L270.643 207.222Z" fill="white"/>
<path d="M64.1746 176.906L62.9948 176.246L64.0812 167.756L58.2495 173.588L57.0697 172.927L64.404 165.593L65.5838 166.254L64.5079 174.733L70.329 168.911L71.5089 169.572L64.1746 176.906ZM78.2451 175.803L72.4869 181.561L71.3071 180.901L72.1582 180.05C71.6393 180.218 71.0926 180.272 70.5183 180.213C69.9595 180.152 69.4382 179.985 68.9541 179.714C68.401 179.404 67.995 179.035 67.7363 178.606C67.4847 178.17 67.4148 177.694 67.5268 177.177C67.6474 176.666 67.9739 176.144 68.5062 175.611L71.8792 172.238L73.046 172.892L69.7992 176.139C69.2318 176.706 68.9712 177.243 69.0173 177.75C69.0705 178.249 69.4039 178.671 70.0176 179.015C70.6486 179.368 71.3032 179.489 71.9814 179.377C72.6597 179.265 73.3 178.908 73.9025 178.305L77.0652 175.143L78.2451 175.803ZM88.8863 181.599C89.4395 181.909 89.8376 182.279 90.0806 182.71C90.3307 183.134 90.3954 183.602 90.2748 184.114C90.1542 184.626 89.8277 185.148 89.2953 185.68L85.9014 189.074L84.7345 188.42L87.9918 185.163C88.5662 184.589 88.8269 184.052 88.7737 183.552C88.7362 183.05 88.4192 182.632 87.8228 182.298C87.2091 181.955 86.5597 181.842 85.8744 181.961C85.1962 182.073 84.5558 182.43 83.9534 183.033L80.7801 186.206L79.6132 185.552L82.8706 182.295C83.445 181.721 83.7056 181.184 83.6524 180.684C83.6149 180.182 83.298 179.764 82.7016 179.43C82.0879 179.086 81.4384 178.974 80.7532 179.093C80.0749 179.205 79.4346 179.562 78.8321 180.165L75.6589 183.338L74.479 182.677L80.2371 176.919L81.417 177.58L80.5869 178.41C81.1215 178.239 81.6638 178.182 82.2139 178.239C82.7726 178.301 83.2896 178.465 83.765 178.731C84.3614 179.065 84.7801 179.469 85.0211 179.942C85.262 180.416 85.2847 180.926 85.0891 181.472C85.6942 181.177 86.3379 181.046 87.0202 181.078C87.7024 181.111 88.3245 181.284 88.8863 181.599ZM93.7029 186.132C94.2882 185.924 94.9228 185.843 95.6067 185.887C96.2906 185.931 96.9307 186.12 97.5271 186.454C98.1667 186.812 98.6189 187.257 98.8837 187.788C99.1485 188.319 99.2037 188.89 99.0492 189.503C98.9018 190.109 98.5339 190.706 97.9454 191.295C97.364 191.876 96.6987 192.312 95.9495 192.603C95.2003 192.894 94.4403 193.02 93.6695 192.982C92.9074 192.948 92.2108 192.755 91.5799 192.402C90.9662 192.058 90.5345 191.647 90.2849 191.168C90.044 190.695 89.9749 190.224 90.0778 189.757L89.0166 190.819L87.8367 190.158L95.6123 182.382L96.7921 183.043L93.7029 186.132ZM96.7397 190.619C97.174 190.185 97.4442 189.746 97.5504 189.303C97.6565 188.86 97.6078 188.45 97.4043 188.074C97.2094 187.702 96.8915 187.393 96.4507 187.146C96.0185 186.904 95.529 186.767 94.9822 186.734C94.4511 186.699 93.9085 186.783 93.3546 186.986C92.8162 187.187 92.3334 187.502 91.9061 187.929C91.4718 188.363 91.1981 188.806 91.0849 189.256C90.9874 189.704 91.0326 190.117 91.2205 190.496C91.4241 190.872 91.7419 191.181 92.1741 191.423C92.6149 191.67 93.1009 191.811 93.6321 191.846C94.1789 191.879 94.7214 191.795 95.2597 191.594C95.805 191.386 96.2984 191.061 96.7397 190.619ZM106.181 195.595C105.999 195.777 105.793 195.963 105.564 196.151L99.8851 192.971C99.3609 193.563 99.1538 194.141 99.2637 194.705C99.3893 195.267 99.7633 195.722 100.386 196.071C100.896 196.356 101.414 196.499 101.94 196.499C102.482 196.496 102.983 196.373 103.444 196.128L104.714 196.839C103.971 197.286 103.138 197.525 102.218 197.556C101.304 197.58 100.424 197.354 99.5765 196.88C98.9023 196.502 98.4199 196.041 98.1292 195.496C97.8471 194.955 97.779 194.376 97.9248 193.758C98.0776 193.134 98.4517 192.524 99.0471 191.928C99.6425 191.333 100.311 190.893 101.054 190.609C101.796 190.326 102.55 190.212 103.315 190.269C104.096 190.324 104.832 190.545 105.524 190.933C106.198 191.31 106.675 191.763 106.956 192.292C107.236 192.821 107.305 193.372 107.161 193.948C107.033 194.521 106.706 195.07 106.181 195.595ZM105.162 194.713C105.526 194.349 105.738 193.981 105.799 193.611C105.866 193.233 105.793 192.881 105.581 192.555C105.384 192.226 105.078 191.945 104.663 191.713C104.066 191.379 103.402 191.247 102.671 191.318C101.948 191.394 101.283 191.688 100.676 192.201L105.162 194.713ZM110.641 195.405C111.178 195.192 111.727 195.101 112.29 195.132C112.861 195.167 113.423 195.34 113.976 195.65L112.988 196.638L112.677 196.463C111.355 195.723 110.112 195.934 108.949 197.097L105.818 200.228L104.638 199.567L110.396 193.809L111.576 194.47L110.641 195.405Z" fill="white"/>
<path d="M48.9009 183.154L43.9107 188.145C43.2091 188.846 42.898 189.484 42.9774 190.058C43.0661 190.637 43.4875 191.138 44.2414 191.56C44.9861 191.977 45.7376 192.133 46.496 192.029C47.2636 191.929 47.9982 191.528 48.6998 190.827L53.6901 185.836L54.9607 186.548L49.9817 191.527C49.3254 192.183 48.608 192.646 47.8296 192.917C47.0587 193.179 46.2847 193.264 45.5074 193.17C44.7394 193.081 44.011 192.843 43.3222 192.458C42.6334 192.072 42.1191 191.613 41.7794 191.082C41.449 190.555 41.3434 189.979 41.4627 189.351C41.5989 188.721 41.9951 188.078 42.6514 187.422L47.6304 182.443L48.9009 183.154ZM52.1997 197.429C51.5574 197.07 51.0708 196.656 50.7399 196.188C50.4258 195.718 50.2867 195.24 50.3225 194.754C50.3659 194.261 50.5979 193.796 51.0186 193.361L52.373 194.119C52.0499 194.515 51.923 194.932 51.9923 195.371C52.0784 195.808 52.438 196.204 53.071 196.558C53.676 196.897 54.2714 197.042 54.8573 196.993C55.4599 196.943 55.9536 196.725 56.3384 196.34C56.6401 196.038 56.7829 195.736 56.7667 195.433C56.7505 195.129 56.6379 194.843 56.4288 194.572C56.2197 194.302 55.9111 193.965 55.5029 193.56C54.9965 193.064 54.6156 192.639 54.3605 192.284C54.1146 191.935 53.9954 191.539 54.0028 191.096C54.0271 190.65 54.2844 190.182 54.7748 189.692C55.2048 189.262 55.7207 188.957 56.3226 188.776C56.9244 188.595 57.5579 188.55 58.223 188.64C58.8974 188.735 59.5511 188.96 60.184 189.314C61.0963 189.825 61.6561 190.427 61.8636 191.12C62.0803 191.818 61.9204 192.493 61.3839 193.146L59.9876 192.364C60.2428 192.036 60.3114 191.663 60.1933 191.244C60.0827 190.817 59.7436 190.445 59.1757 190.127C58.6452 189.829 58.0992 189.7 57.5378 189.739C56.9839 189.77 56.507 189.985 56.1072 190.385C55.8205 190.672 55.6844 190.96 55.6988 191.251C55.7226 191.547 55.8297 191.824 56.0202 192.084C56.2275 192.341 56.5361 192.679 56.946 193.097C57.4449 193.6 57.8182 194.033 58.0658 194.395C58.321 194.75 58.4411 195.152 58.4261 195.603C58.4187 196.046 58.1661 196.516 57.6682 197.014C57.2834 197.399 56.7957 197.691 56.2049 197.889C55.6141 198.088 54.9664 198.155 54.2618 198.09C53.5572 198.025 52.8699 197.805 52.1997 197.429ZM68.3049 194.021C69.3661 194.615 70.1208 195.291 70.569 196.048C71.034 196.803 71.1734 197.593 70.987 198.418C70.8099 199.249 70.3177 200.068 69.5105 200.875C68.7033 201.682 67.7923 202.266 66.7775 202.628C65.7795 202.987 64.7311 203.106 63.6324 202.985C62.5505 202.861 61.479 202.502 60.4178 201.908L57.3879 200.211L65.2751 192.324L68.3049 194.021ZM61.2665 201.059C62.5231 201.763 63.7497 202.032 64.9462 201.867C66.1502 201.694 67.2389 201.121 68.212 200.148C69.1927 199.167 69.6233 198.213 69.5038 197.287C69.3936 196.367 68.7149 195.557 67.4676 194.858L65.7083 193.873L59.5072 200.074L61.2665 201.059Z" fill="white"/>
<path d="M344.046 323.43L341.598 325.878L344.891 327.722L344.103 328.51L340.81 326.666L338.288 329.188L341.97 331.25L341.182 332.038L336.32 329.315L343.654 321.981L348.516 324.704L347.728 325.492L344.046 323.43ZM346.675 335.114L347.133 332.027L343.369 333.263L342.138 332.573L347.29 331L347.896 326.815L349.231 327.563L348.784 330.64L352.524 329.407L353.756 330.097L348.627 331.666L348.011 335.862L346.675 335.114ZM355.048 332.476C355.611 332.277 356.23 332.198 356.905 332.237C357.596 332.275 358.248 332.465 358.862 332.809C359.493 333.162 359.941 333.604 360.205 334.135C360.479 334.67 360.538 335.245 360.384 335.858C360.237 336.464 359.869 337.061 359.28 337.649C358.699 338.231 358.033 338.667 357.284 338.957C356.535 339.248 355.775 339.374 355.004 339.336C354.242 339.303 353.546 339.109 352.915 338.756C352.31 338.417 351.882 338.008 351.633 337.53C351.399 337.049 351.325 336.576 351.413 336.112L347.619 339.905L346.439 339.244L354.93 330.754L356.109 331.415L355.048 332.476ZM358.074 336.974C358.509 336.54 358.779 336.101 358.885 335.658C358.991 335.214 358.943 334.805 358.739 334.428C358.544 334.057 358.226 333.748 357.785 333.501C357.353 333.259 356.864 333.121 356.317 333.088C355.786 333.053 355.243 333.137 354.689 333.341C354.151 333.542 353.668 333.856 353.241 334.283C352.807 334.718 352.533 335.16 352.42 335.61C352.322 336.058 352.367 336.471 352.555 336.85C352.759 337.226 353.077 337.535 353.509 337.777C353.95 338.024 354.436 338.165 354.967 338.2C355.514 338.233 356.056 338.149 356.594 337.948C357.14 337.74 357.633 337.415 358.074 336.974Z" fill="white"/>
<path d="M332.211 355.637L322.868 350.405L332.201 333.739L341.544 338.971L332.211 355.637Z" fill="#FF5F00"/>
<path d="M328.134 342.406C330.027 339.025 333.308 336.907 336.878 336.357C335.857 333.921 334.04 331.79 331.549 330.395C325.652 327.093 318.214 329.161 314.936 335.015C311.658 340.869 313.78 348.291 319.677 351.593C322.168 352.988 324.934 353.425 327.545 353.023C326.149 349.691 326.24 345.787 328.134 342.406Z" fill="#EB001B"/>
<path d="M349.478 354.36C346.2 360.214 338.763 362.282 332.866 358.98C330.375 357.585 328.557 355.454 327.535 353.018C331.106 352.468 334.387 350.35 336.281 346.969C338.174 343.588 338.266 339.684 336.868 336.352C339.48 335.95 342.246 336.387 344.737 337.782C350.634 341.084 352.757 348.507 349.478 354.36Z" fill="#F79E1B"/>
<g filter="url(#filter0_d_2742_1101)">
<rect width="392.073" height="212.611" rx="12" transform="matrix(0.872496 0.488621 -0.707107 0.707107 213.236 41)" fill="url(#paint1_radial_2742_1101)" shape-rendering="crispEdges"/>
<path d="M206.534 67.0406C207.122 66.4522 207.787 66.0102 208.527 65.7146C209.277 65.4238 210.02 65.2938 210.758 65.3246C211.504 65.3601 212.185 65.5498 212.798 65.8934C213.334 66.1936 213.713 66.5425 213.936 66.9403C214.167 67.3429 214.27 67.7451 214.246 68.1468L215.076 67.3167L216.904 68.3405L211.083 74.1617L209.255 73.1379L210.106 72.2868C209.6 72.4293 209.048 72.4755 208.451 72.4252C207.869 72.3729 207.311 72.1966 206.775 71.8965C206.17 71.5577 205.743 71.1218 205.494 70.5888C205.253 70.0607 205.214 69.4867 205.375 68.8668C205.552 68.2448 205.938 67.636 206.534 67.0406ZM212.166 70.2273C212.523 69.8701 212.741 69.517 212.821 69.168C212.907 68.812 212.87 68.4851 212.709 68.1875C212.555 67.8828 212.31 67.636 211.973 67.4473C211.635 67.2585 211.258 67.1508 210.839 67.1241C210.421 67.0975 209.992 67.1629 209.551 67.3205C209.126 67.4758 208.738 67.7286 208.388 68.0789C208.038 68.4291 207.816 68.7858 207.723 69.1488C207.645 69.5096 207.679 69.8399 207.824 70.1398C207.977 70.4445 208.219 70.6888 208.547 70.8727C208.884 71.0615 209.266 71.1716 209.693 71.2031C210.127 71.2276 210.557 71.1621 210.982 71.0068C211.414 70.8444 211.808 70.5846 212.166 70.2273ZM219.589 71.2535C220.13 71.076 220.674 71.0037 221.221 71.0367C221.777 71.0746 222.296 71.2291 222.78 71.5001L221.236 73.0448L220.756 72.7761C220.186 72.4566 219.645 72.3232 219.134 72.3757C218.631 72.4332 218.111 72.7316 217.571 73.271L214.671 76.171L212.856 75.1545L218.677 69.3333L220.492 70.3499L219.589 71.2535ZM224.824 74.6608L222.008 77.4768C221.812 77.6729 221.724 77.848 221.746 78.002C221.783 78.1538 221.939 78.3072 222.216 78.4621L223.059 78.934L221.819 80.1739L220.678 79.535C219.148 78.6782 218.985 77.6474 220.19 76.4425L222.996 73.637L222.14 73.1578L223.348 71.9494L224.204 72.4286L225.644 70.9891L227.472 72.0129L226.032 73.4524L227.64 74.3527L226.432 75.5611L224.824 74.6608ZM233.075 77.2652C233.619 77.5702 234.005 77.9393 234.233 78.3726C234.467 78.799 234.512 79.2666 234.367 79.7756C234.238 80.2824 233.91 80.7985 233.385 81.3238L229.97 84.7388L228.155 83.7223L231.37 80.507C231.832 80.0446 232.044 79.611 232.004 79.2061C231.97 78.7942 231.708 78.4503 231.215 78.1743C230.714 77.8936 230.19 77.797 229.644 77.8846C229.113 77.9701 228.617 78.2439 228.155 78.7063L224.939 81.9216L223.124 80.9051L230.9 73.1295L232.715 74.146L230.036 76.8254C230.521 76.7039 231.028 76.6821 231.557 76.7598C232.094 76.8305 232.599 76.999 233.075 77.2652ZM234.161 82.5125C234.749 81.924 235.414 81.482 236.154 81.1864C236.904 80.8957 237.647 80.7657 238.385 80.7964C239.131 80.832 239.812 81.0216 240.425 81.3653C240.961 81.6654 241.34 82.0144 241.563 82.4122C241.794 82.8148 241.897 83.217 241.873 83.6187L242.703 82.7886L244.531 83.8124L238.71 89.6336L236.882 88.6098L237.733 87.7587C237.227 87.9012 236.675 87.9473 236.078 87.8971C235.496 87.8447 234.938 87.6685 234.402 87.3684C233.797 87.0295 233.37 86.5936 233.121 86.0607C232.88 85.5326 232.841 84.9586 233.002 84.3387C233.179 83.7166 233.565 83.1079 234.161 82.5125ZM239.793 85.6992C240.15 85.3419 240.368 84.9888 240.448 84.6398C240.534 84.2838 240.497 83.957 240.336 83.6593C240.182 83.3546 239.937 83.1079 239.6 82.9191C239.262 82.7303 238.885 82.6226 238.466 82.596C238.048 82.5693 237.619 82.6348 237.178 82.7923C236.753 82.9477 236.365 83.2005 236.015 83.5508C235.665 83.901 235.443 84.2576 235.35 84.6206C235.272 84.9815 235.306 85.3118 235.451 85.6117C235.605 85.9163 235.846 86.1606 236.174 86.3446C236.511 86.5334 236.893 86.6435 237.32 86.675C237.754 86.6995 238.184 86.634 238.609 86.4786C239.041 86.3163 239.435 86.0565 239.793 85.6992Z" fill="white"/>
<path d="M117.89 155.885C118.605 155.171 119.445 154.641 120.41 154.297C121.382 153.945 122.37 153.799 123.375 153.859C124.389 153.924 125.315 154.192 126.154 154.661C127.139 155.213 127.806 155.887 128.156 156.684C128.505 157.481 128.495 158.327 128.124 159.223L126.711 158.432C126.902 157.85 126.878 157.307 126.641 156.803C126.413 156.303 125.97 155.87 125.313 155.502C124.682 155.148 123.997 154.95 123.257 154.908C122.518 154.865 121.785 154.985 121.058 155.266C120.339 155.541 119.685 155.972 119.096 156.561C118.515 157.142 118.146 157.733 117.99 158.334C117.841 158.928 117.898 159.485 118.161 160.004C118.424 160.523 118.871 160.959 119.502 161.312C120.159 161.68 120.837 161.879 121.535 161.909C122.248 161.938 122.951 161.801 123.643 161.5L125.056 162.292C124.018 162.803 122.94 163.046 121.82 163.02C120.707 162.987 119.658 162.694 118.672 162.142C117.834 161.673 117.226 161.087 116.85 160.384C116.49 159.68 116.394 158.932 116.564 158.142C116.734 157.352 117.176 156.6 117.89 155.885ZM136.739 163.179L130.98 168.937L129.801 168.276L130.652 167.425C130.133 167.593 129.586 167.648 129.012 167.589C128.453 167.527 127.932 167.361 127.448 167.09C126.894 166.78 126.488 166.41 126.23 165.981C125.978 165.545 125.908 165.069 126.02 164.553C126.141 164.041 126.467 163.519 127 162.987L130.373 159.614L131.539 160.267L128.293 163.514C127.725 164.081 127.465 164.619 127.511 165.125C127.564 165.625 127.897 166.047 128.511 166.39C129.142 166.744 129.797 166.864 130.475 166.752C131.153 166.64 131.793 166.283 132.396 165.681L135.559 162.518L136.739 163.179ZM138.975 165.89C139.512 165.677 140.061 165.586 140.624 165.617C141.195 165.653 141.757 165.826 142.31 166.135L141.323 167.123L141.011 166.949C139.689 166.208 138.446 166.419 137.284 167.582L134.152 170.713L132.972 170.053L138.731 164.294L139.91 164.955L138.975 165.89ZM143.812 168.599C144.349 168.386 144.898 168.295 145.461 168.326C146.032 168.361 146.594 168.534 147.147 168.844L146.159 169.832L145.848 169.657C144.526 168.917 143.283 169.128 142.12 170.291L138.989 173.422L137.809 172.761L143.567 167.003L144.747 167.664L143.812 168.599ZM152.228 176.001C152.046 176.183 151.84 176.368 151.611 176.557L145.932 173.376C145.408 173.968 145.201 174.546 145.311 175.11C145.437 175.672 145.811 176.128 146.433 176.476C146.943 176.762 147.461 176.904 147.987 176.904C148.529 176.902 149.03 176.778 149.491 176.533L150.761 177.245C150.018 177.692 149.186 177.93 148.265 177.961C147.351 177.985 146.471 177.76 145.624 177.285C144.95 176.908 144.467 176.446 144.177 175.901C143.894 175.361 143.826 174.781 143.972 174.164C144.125 173.539 144.499 172.929 145.094 172.333C145.69 171.738 146.359 171.298 147.101 171.015C147.843 170.731 148.597 170.618 149.362 170.675C150.143 170.73 150.88 170.951 151.571 171.338C152.245 171.716 152.723 172.169 153.003 172.697C153.284 173.226 153.352 173.778 153.208 174.353C153.08 174.926 152.753 175.475 152.228 176.001ZM151.209 175.118C151.573 174.754 151.786 174.387 151.846 174.016C151.913 173.639 151.841 173.287 151.628 172.96C151.431 172.631 151.125 172.35 150.71 172.118C150.114 171.784 149.45 171.653 148.718 171.724C147.995 171.799 147.33 172.094 146.723 172.606L151.209 175.118ZM160.011 176.048C160.875 176.532 161.361 177.138 161.47 177.865C161.586 178.586 161.244 179.345 160.445 180.144L157.052 183.538L155.885 182.884L159.142 179.627C159.716 179.052 159.977 178.515 159.924 178.016C159.878 177.509 159.548 177.084 158.934 176.74C158.312 176.392 157.657 176.271 156.97 176.378C156.292 176.49 155.652 176.847 155.049 177.449L151.865 180.633L150.686 179.972L156.444 174.214L157.624 174.875L156.804 175.695C157.332 175.531 157.875 175.48 158.433 175.542C159.001 175.608 159.527 175.777 160.011 176.048ZM161.428 181.48C162.023 180.885 162.688 180.449 163.424 180.172C164.166 179.888 164.919 179.769 165.682 179.814C166.455 179.865 167.178 180.078 167.852 180.456C168.725 180.945 169.271 181.518 169.49 182.176C169.717 182.839 169.617 183.526 169.189 184.237L167.918 183.525C168.147 183.107 168.186 182.697 168.035 182.296C167.893 181.899 167.562 181.555 167.043 181.265C166.369 180.887 165.635 180.772 164.842 180.918C164.056 181.056 163.32 181.469 162.633 182.156C161.94 182.849 161.611 183.501 161.648 184.112C161.685 184.722 162.04 185.217 162.714 185.594C163.233 185.885 163.763 186.029 164.305 186.026C164.847 186.023 165.365 185.876 165.859 185.585L167.129 186.296C166.351 186.778 165.498 187.038 164.57 187.076C163.649 187.107 162.761 186.882 161.905 186.403C161.231 186.026 160.753 185.567 160.471 185.026C160.197 184.491 160.138 183.916 160.292 183.303C160.447 182.691 160.825 182.083 161.428 181.48ZM178.732 186.696L165.984 192.769L164.766 192.087L168.94 190.097L171.77 182.797L173.079 183.531L170.644 189.445L177.513 186.014L178.732 186.696Z" fill="white"/>
<path d="M106.495 170.026L101.505 175.017C100.804 175.718 100.492 176.356 100.572 176.93C100.661 177.509 101.082 178.01 101.836 178.432C102.581 178.849 103.332 179.005 104.09 178.901C104.858 178.801 105.593 178.4 106.294 177.699L111.285 172.708L112.555 173.42L107.576 178.399C106.92 179.055 106.203 179.519 105.424 179.789C104.653 180.051 103.879 180.136 103.102 180.042C102.334 179.953 101.606 179.716 100.917 179.33C100.228 178.944 99.7136 178.485 99.3739 177.954C99.0435 177.428 98.9379 176.851 99.0572 176.223C99.1933 175.593 99.5896 174.95 100.246 174.294L105.225 169.315L106.495 170.026ZM109.794 184.301C109.152 183.942 108.665 183.528 108.334 183.06C108.02 182.59 107.881 182.112 107.917 181.626C107.96 181.133 108.192 180.668 108.613 180.233L109.967 180.991C109.644 181.387 109.517 181.805 109.587 182.243C109.673 182.68 110.032 183.076 110.665 183.43C111.27 183.769 111.866 183.914 112.452 183.866C113.054 183.815 113.548 183.597 113.933 183.212C114.235 182.91 114.377 182.608 114.361 182.305C114.345 182.001 114.232 181.715 114.023 181.445C113.814 181.174 113.506 180.837 113.097 180.432C112.591 179.936 112.21 179.511 111.955 179.156C111.709 178.807 111.59 178.411 111.597 177.968C111.622 177.522 111.879 177.054 112.369 176.564C112.799 176.134 113.315 175.829 113.917 175.648C114.519 175.467 115.152 175.422 115.817 175.512C116.492 175.607 117.146 175.832 117.779 176.186C118.691 176.697 119.251 177.299 119.458 177.992C119.675 178.69 119.515 179.365 118.978 180.018L117.582 179.236C117.837 178.908 117.906 178.535 117.788 178.116C117.677 177.689 117.338 177.317 116.77 176.999C116.24 176.701 115.694 176.572 115.132 176.611C114.578 176.642 114.102 176.857 113.702 177.257C113.415 177.544 113.279 177.833 113.293 178.123C113.317 178.419 113.424 178.696 113.615 178.956C113.822 179.213 114.131 179.551 114.54 179.969C115.039 180.472 115.413 180.905 115.66 181.267C115.915 181.622 116.036 182.024 116.021 182.475C116.013 182.918 115.761 183.388 115.263 183.886C114.878 184.271 114.39 184.563 113.799 184.761C113.209 184.96 112.561 185.027 111.856 184.962C111.152 184.897 110.464 184.677 109.794 184.301ZM125.899 180.893C126.961 181.487 127.715 182.163 128.163 182.92C128.629 183.675 128.768 184.465 128.581 185.29C128.404 186.121 127.912 186.94 127.105 187.747C126.298 188.554 125.387 189.138 124.372 189.5C123.374 189.859 122.326 189.978 121.227 189.857C120.145 189.733 119.073 189.375 118.012 188.78L114.982 187.083L122.87 179.196L125.899 180.893ZM118.861 187.932C120.118 188.635 121.344 188.904 122.541 188.739C123.745 188.566 124.833 187.993 125.806 187.02C126.787 186.039 127.218 185.086 127.098 184.16C126.988 183.239 126.309 182.429 125.062 181.73L123.303 180.745L117.102 186.946L118.861 187.932Z" fill="white"/>
<path d="M166.867 110.159L168.338 108.688L171.967 110.721L161.658 121.031L159.651 119.907L168.49 111.068L166.867 110.159ZM167.682 120.985C169.581 120.828 171.101 120.678 172.24 120.537C173.401 120.393 174.47 120.168 175.447 119.862C176.424 119.556 177.186 119.13 177.733 118.583C178.299 118.017 178.573 117.48 178.556 116.97C178.551 116.467 178.194 116.017 177.484 115.62C176.798 115.235 176.084 115.115 175.341 115.258C174.62 115.398 173.951 115.759 173.334 116.34L171.414 115.265C172.524 114.21 173.74 113.611 175.062 113.469C176.405 113.324 177.664 113.58 178.839 114.238C180.107 114.948 180.813 115.785 180.956 116.748C181.112 117.718 180.718 118.674 179.776 119.617C179.097 120.295 178.226 120.83 177.164 121.221C176.123 121.608 175.056 121.886 173.963 122.053C172.891 122.218 171.576 122.371 170.018 122.514L168.667 122.64L174.199 125.738L172.856 127.081L164.375 122.332L165.549 121.158L167.682 120.985ZM182.191 120.418C183.137 119.58 184.234 119.128 185.48 119.061C186.738 119.001 187.961 119.303 189.147 119.967C189.962 120.423 190.548 120.935 190.905 121.503C191.263 122.071 191.39 122.643 191.287 123.217C191.184 123.792 190.878 124.334 190.369 124.843C189.785 125.428 189.093 125.82 188.294 126.02C187.496 126.22 186.758 126.24 186.081 126.082L186.025 126.139C186.541 126.693 186.765 127.304 186.697 127.971C186.638 128.629 186.259 129.307 185.561 130.005C185.005 130.561 184.353 130.968 183.605 131.226C182.858 131.484 182.048 131.567 181.177 131.477C180.315 131.376 179.454 131.085 178.593 130.603C177.337 129.9 176.561 129.06 176.265 128.086C175.99 127.108 176.314 126.113 177.236 125.1L179.156 126.175C178.703 126.701 178.531 127.244 178.641 127.806C178.76 128.358 179.186 128.839 179.919 129.25C180.629 129.647 181.331 129.798 182.026 129.702C182.731 129.596 183.333 129.294 183.832 128.794C184.492 128.134 184.697 127.521 184.447 126.954C184.218 126.385 183.569 125.8 182.498 125.201L182.045 124.947L183.374 123.617L183.845 123.881C184.797 124.399 185.64 124.673 186.373 124.701C187.119 124.736 187.755 124.49 188.283 123.962C188.736 123.509 188.914 123.05 188.817 122.584C188.73 122.109 188.355 121.685 187.692 121.314C187.04 120.949 186.397 120.803 185.763 120.874C185.139 120.936 184.594 121.145 184.128 121.502L182.191 120.418ZM186.728 131.717L187.944 130.501L200.624 126.968L203.032 128.317L196.399 134.949L198.022 135.858L196.622 137.258L194.999 136.349L192.85 138.499L190.895 137.404L193.045 135.255L186.728 131.717ZM199.524 128.911L190.414 131.597L194.532 133.904L199.524 128.911ZM217.779 138.539L211.933 135.265L209.119 138.079C209.627 137.952 210.209 137.932 210.865 138.02C211.533 138.115 212.14 138.315 212.687 138.621C213.664 139.169 214.286 139.781 214.551 140.46C214.828 141.144 214.836 141.818 214.573 142.48C214.322 143.148 213.909 143.77 213.334 144.345C212.636 145.042 211.845 145.57 210.961 145.928C210.098 146.283 209.179 146.43 208.205 146.37C207.242 146.317 206.284 146.023 205.33 145.488C204.062 144.778 203.299 143.954 203.04 143.015C202.781 142.075 202.996 141.144 203.684 140.22L205.621 141.305C205.306 141.82 205.237 142.333 205.415 142.844C205.603 143.347 206.028 143.783 206.691 144.155C207.517 144.617 208.336 144.76 209.149 144.582C209.973 144.412 210.72 143.991 211.389 143.322C212.068 142.643 212.377 142.007 212.317 141.415C212.266 140.812 211.833 140.283 211.019 139.827C210.449 139.508 209.848 139.355 209.217 139.37C208.607 139.381 208.016 139.536 207.446 139.834L205.561 138.778L211.515 132.825L219.193 137.124L217.779 138.539ZM226.558 145.022C226.864 144.517 226.957 144.061 226.836 143.655C226.716 143.249 226.353 142.877 225.748 142.538C224.829 142.024 223.855 141.927 222.826 142.248C221.807 142.56 220.626 143.369 219.282 144.676C220 144.43 220.762 144.357 221.57 144.457C222.378 144.556 223.12 144.795 223.794 145.173C224.562 145.603 225.1 146.117 225.408 146.716C225.738 147.313 225.811 147.957 225.627 148.648C225.455 149.346 225.016 150.049 224.309 150.756C223.649 151.416 222.897 151.914 222.053 152.25C221.22 152.593 220.339 152.739 219.409 152.689C218.488 152.629 217.586 152.352 216.702 151.857C215.504 151.186 214.773 150.446 214.511 149.637C214.27 148.826 214.401 147.95 214.905 147.012C215.42 146.079 216.262 145.028 217.431 143.859C220.882 140.409 224.108 139.524 227.109 141.205C228.272 141.856 228.931 142.622 229.085 143.503C229.251 144.39 229.019 145.238 228.391 146.048L226.558 145.022ZM222 146.286C221.291 145.889 220.511 145.724 219.662 145.793C218.834 145.859 218.095 146.217 217.444 146.867C216.794 147.518 216.502 148.164 216.569 148.804C216.658 149.442 217.115 149.992 217.941 150.455C218.674 150.865 219.433 151.004 220.22 150.871C221.018 150.744 221.723 150.374 222.336 149.761C222.977 149.12 223.277 148.494 223.235 147.882C223.215 147.268 222.803 146.736 222 146.286ZM240.121 150.83L226.205 157.179L224.198 156.055L237.997 149.906L231.541 146.29L232.913 144.918L241.323 149.628L240.121 150.83ZM240.293 156.663C239.574 155.495 239.742 154.383 240.798 153.327C241.307 152.818 241.931 152.439 242.669 152.191C243.407 151.943 244.213 151.872 245.087 151.979C245.969 152.076 246.864 152.379 247.772 152.887C248.668 153.388 249.302 153.942 249.676 154.549C250.071 155.152 250.213 155.754 250.103 156.354C249.993 156.954 249.683 157.509 249.174 158.018C248.646 158.546 248.01 158.918 247.268 159.135C246.546 159.348 245.803 159.41 245.04 159.321C245.505 159.89 245.703 160.509 245.634 161.176C245.575 161.834 245.244 162.465 244.64 163.069C244.028 163.681 243.294 164.116 242.438 164.372C241.583 164.629 240.685 164.692 239.744 164.562C238.803 164.433 237.896 164.123 237.024 163.635C236.151 163.146 235.499 162.582 235.067 161.943C234.647 161.311 234.481 160.652 234.568 159.965C234.656 159.279 235.006 158.629 235.619 158.016C236.232 157.403 236.952 156.983 237.779 156.755C238.606 156.527 239.444 156.496 240.293 156.663ZM247.074 157.151C247.602 156.623 247.804 156.103 247.679 155.593C247.555 155.082 247.138 154.628 246.428 154.23C245.73 153.839 245.036 153.671 244.346 153.726C243.656 153.781 243.043 154.077 242.505 154.614C242.034 155.086 241.857 155.59 241.974 156.126C242.112 156.659 242.512 157.112 243.176 157.483C243.839 157.854 244.536 158.01 245.268 157.949C246.001 157.888 246.602 157.622 247.074 157.151ZM241.959 158.699C241.192 158.269 240.408 158.073 239.608 158.11C238.829 158.145 238.153 158.45 237.577 159.025C237.04 159.562 236.834 160.131 236.96 160.731C237.096 161.322 237.565 161.842 238.367 162.291C239.158 162.734 239.95 162.913 240.744 162.828C241.548 162.749 242.215 162.446 242.743 161.918C243.308 161.352 243.508 160.78 243.342 160.202C243.188 159.63 242.727 159.129 241.959 158.699ZM253.697 168.207C253.342 168.744 253.234 169.242 253.373 169.702C253.512 170.162 253.907 170.575 254.558 170.939C255.384 171.402 256.253 171.477 257.165 171.164C258.077 170.851 259.169 170.058 260.442 168.785C259.842 168.949 259.197 168.978 258.506 168.87C257.836 168.76 257.204 168.538 256.611 168.206C255.855 167.783 255.291 167.276 254.92 166.685C254.558 166.085 254.441 165.439 254.571 164.747C254.722 164.052 255.151 163.351 255.858 162.644C256.895 161.607 258.092 160.99 259.449 160.794C260.828 160.596 262.174 160.864 263.489 161.6C265.071 162.487 265.765 163.544 265.57 164.773C265.396 166 264.428 167.495 262.665 169.258C261.448 170.474 260.326 171.397 259.297 172.027C258.279 172.663 257.264 173.006 256.252 173.057C255.239 173.108 254.186 172.827 253.093 172.215C251.848 171.517 251.152 170.716 251.005 169.81C250.859 168.904 251.145 168.028 251.865 167.181L253.697 168.207ZM258.318 167.044C259.016 167.435 259.737 167.567 260.481 167.439C261.247 167.309 261.922 166.952 262.506 166.367C263.157 165.717 263.446 165.092 263.374 164.492C263.323 163.89 262.931 163.384 262.198 162.973C261.465 162.563 260.695 162.426 259.887 162.562C259.101 162.695 258.406 163.063 257.802 163.667C257.227 164.242 256.955 164.832 256.985 165.437C257.036 166.039 257.48 166.575 258.318 167.044ZM268.073 166.837L269.544 165.366L273.173 167.399L262.864 177.709L260.857 176.585L269.696 167.746L268.073 166.837ZM270.886 173.95C272.517 172.319 274.127 171.235 275.716 170.698C277.327 170.159 278.964 170.355 280.627 171.287C282.291 172.218 282.998 173.335 282.749 174.637C282.52 175.936 281.591 177.401 279.96 179.032C278.31 180.682 276.675 181.781 275.055 182.33C273.457 182.876 271.825 182.683 270.162 181.752C268.498 180.82 267.785 179.7 268.023 178.392C268.282 177.081 269.236 175.6 270.886 173.95ZM278.005 177.937C278.769 177.173 279.351 176.492 279.751 175.892C280.163 175.299 280.347 174.733 280.305 174.195C280.272 173.647 279.889 173.168 279.156 172.757C278.423 172.347 277.701 172.207 276.989 172.338C276.287 172.46 275.608 172.748 274.952 173.205C274.308 173.668 273.604 174.281 272.84 175.045C272.048 175.836 271.442 176.534 271.021 177.136C270.6 177.739 270.41 178.309 270.452 178.848C270.506 179.393 270.9 179.871 271.633 180.281C272.366 180.691 273.083 180.836 273.785 180.714C274.499 180.599 275.183 180.306 275.837 179.833C276.491 179.361 277.213 178.729 278.005 177.937ZM285.353 176.514L286.823 175.043L290.453 177.076L280.143 187.386L278.137 186.262L286.975 177.423L285.353 176.514ZM295.986 182.469L297.457 180.999L301.087 183.031L290.777 193.341L288.77 192.217L297.609 183.378L295.986 182.469ZM296.801 193.295C298.7 193.138 300.22 192.989 301.359 192.847C302.52 192.703 303.589 192.478 304.566 192.172C305.543 191.866 306.305 191.44 306.852 190.893C307.418 190.328 307.692 189.79 307.676 189.28C307.67 188.777 307.313 188.327 306.603 187.93C305.917 187.545 305.203 187.425 304.461 187.568C303.739 187.709 303.07 188.069 302.453 188.65L300.534 187.575C301.643 186.52 302.859 185.921 304.181 185.779C305.524 185.634 306.783 185.89 307.958 186.548C309.226 187.258 309.932 188.095 310.076 189.058C310.231 190.028 309.838 190.984 308.895 191.927C308.216 192.606 307.346 193.14 306.283 193.531C305.242 193.919 304.175 194.196 303.082 194.364C302.01 194.528 300.695 194.682 299.138 194.824L297.787 194.95L303.318 198.048L301.975 199.391L293.494 194.642L294.668 193.468L296.801 193.295ZM311.31 192.728C312.257 191.89 313.353 191.438 314.6 191.371C315.858 191.311 317.08 191.613 318.267 192.277C319.081 192.733 319.667 193.245 320.024 193.813C320.382 194.381 320.509 194.953 320.406 195.528C320.304 196.102 319.997 196.644 319.488 197.153C318.904 197.738 318.212 198.13 317.413 198.33C316.615 198.53 315.877 198.551 315.201 198.392L315.144 198.449C315.661 199.003 315.885 199.614 315.816 200.281C315.757 200.94 315.378 201.617 314.681 202.315C314.124 202.871 313.472 203.278 312.725 203.536C311.977 203.794 311.167 203.877 310.296 203.787C309.434 203.687 308.573 203.395 307.712 202.913C306.456 202.21 305.68 201.371 305.384 200.396C305.109 199.419 305.433 198.423 306.356 197.41L308.275 198.485C307.822 199.011 307.65 199.555 307.76 200.116C307.879 200.668 308.305 201.15 309.038 201.56C309.748 201.957 310.45 202.108 311.145 202.012C311.85 201.906 312.452 201.604 312.952 201.104C313.612 200.444 313.816 199.831 313.566 199.264C313.337 198.695 312.688 198.11 311.617 197.511L311.164 197.257L312.493 195.928L312.964 196.191C313.916 196.71 314.759 196.983 315.492 197.012C316.238 197.047 316.874 196.8 317.402 196.272C317.855 195.82 318.033 195.36 317.936 194.894C317.849 194.419 317.474 193.996 316.811 193.624C316.159 193.259 315.517 193.113 314.883 193.184C314.258 193.246 313.713 193.456 313.247 193.813L311.31 192.728ZM315.847 204.027L317.063 202.811L329.743 199.278L332.151 200.627L325.518 207.259L327.141 208.168L325.741 209.568L324.118 208.659L321.969 210.809L320.014 209.715L322.164 207.565L315.847 204.027ZM328.643 201.222L319.533 203.907L323.651 206.214L328.643 201.222Z" fill="white"/>
<path d="M382.802 334.196L378.442 331.402L392.014 316.221L396.374 319.015L382.802 334.196Z" fill="white"/>
<path d="M385.619 312.122L374 321.1L375.115 318.275L378.536 309.71C378.536 309.71 379.323 308.088 377.432 306.876L370.558 302.471L370.295 302.704C371.642 304.144 372.762 305.783 373.615 307.566L367.983 324.699L372.527 327.61L390.311 315.129L385.619 312.122Z" fill="white"/>
<path d="M409.074 351.034L413.08 353.601L420.437 334.437L416.928 332.189C416.524 331.883 416.033 331.716 415.526 331.712C415.018 331.707 414.521 331.865 414.106 332.163L397.562 343.657L402.11 346.571L404.617 344.632L410.174 348.193L409.074 351.034ZM408.111 341.972L414.468 337.102L411.692 344.266L408.111 341.972Z" fill="white"/>
<path d="M406.141 331.018L409.085 327.795C408.121 326.528 406.96 325.425 405.646 324.53C403.482 323.143 397.73 320.805 394.749 325.456C391.946 329.83 397.943 333.75 396.472 336.045C395 338.341 389.856 334.463 388.985 331.886L385.912 335.251C387.047 336.913 388.516 338.315 390.226 339.37C393.201 341.277 398.69 342.596 401.406 338.358C404.227 333.956 398.405 329.645 399.63 327.734C400.854 325.823 404.944 328.782 406.141 331.018Z" fill="white"/>
<path d="M375.112 318.28L378.536 309.71C378.536 309.71 379.323 308.088 377.432 306.876L370.558 302.471L370.295 302.704C372.271 304.831 373.763 307.367 374.666 310.137C375.53 312.757 375.684 315.567 375.112 318.28V318.28Z" fill="#FFA458"/>
</g>
<defs>
<filter id="filter0_d_2742_1101" x="2.89771" y="-4" width="612.42" height="461.913" filterUnits="userSpaceOnUse" color-interpolation-filters="sRGB">
<feFlood flood-opacity="0" result="BackgroundImageFix"/>
<feColorMatrix in="SourceAlpha" type="matrix" values="0 0 0 0 0 0 0 0 0 0 0 0 0 0 0 0 0 0 127 0" result="hardAlpha"/>
<feOffset dy="15"/>
<feGaussianBlur stdDeviation="30"/>
<feComposite in2="hardAlpha" operator="out"/>
<feColorMatrix type="matrix" values="0 0 0 0 0 0 0 0 0 0 0 0 0 0 0 0 0 0 0.25 0"/>
<feBlend mode="normal" in2="BackgroundImageFix" result="effect1_dropShadow_2742_1101"/>
<feBlend mode="normal" in="SourceGraphic" in2="effect1_dropShadow_2742_1101" result="shape"/>
</filter>
<linearGradient id="paint0_linear_2742_1101" x1="0" y1="106.305" x2="392.073" y2="106.305" gradientUnits="userSpaceOnUse">
<stop stop-color="#C2AA34"/>
<stop offset="1" stop-color="#131700"/>
</linearGradient>
<radialGradient id="paint1_radial_2742_1101" cx="0" cy="0" r="1" gradientUnits="userSpaceOnUse" gradientTransform="translate(51.22 131.497) rotate(-11.6688) scale(337.426 182.978)">
<stop stop-color="#1D5297"/>
<stop offset="0.604167" stop-color="#51AFCE"/>
<stop offset="0.892823" stop-color="#1075AB"/>
<stop offset="1" stop-color="#1888D3"/>
</radialGradient>
</defs>
</svg>
