<svg width="222" height="229" viewBox="0 0 222 229" fill="none" xmlns="http://www.w3.org/2000/svg">
<path d="M195.391 0C197.371 0 199.351 0 201.391 0C202.391 1 202.391 1 202.505 3.40845C202.499 4.45057 202.494 5.4927 202.489 6.56641C202.486 7.69111 202.482 8.81582 202.479 9.97461C202.471 11.1586 202.462 12.3426 202.454 13.5625C202.449 14.7504 202.445 15.9382 202.44 17.1621C202.428 20.1081 202.412 23.054 202.391 26C204.309 25.9381 204.309 25.9381 206.266 25.875C208.446 25.8047 208.446 25.8047 210.391 26C212.876 28.4848 212.651 29.2499 212.682 32.6775C212.701 34.1343 212.701 34.1343 212.72 35.6205C212.723 36.6725 212.725 37.7246 212.727 38.8086C212.734 39.8863 212.74 40.9639 212.747 42.0742C212.757 44.3565 212.762 46.6388 212.762 48.9211C212.766 52.4199 212.802 55.9175 212.84 59.416C212.846 61.6302 212.85 63.8444 212.852 66.0586C212.866 67.1087 212.881 68.1587 212.896 69.2406C212.89 70.2149 212.883 71.1893 212.877 72.1931C212.88 73.0509 212.883 73.9087 212.886 74.7925C212.391 77 212.391 77 210.564 78.7887C207.731 80.3683 205.582 80.2176 202.391 80C202.399 81.0748 202.399 81.0748 202.407 82.1714C202.428 85.4059 202.441 88.6404 202.454 91.875C202.462 93.0029 202.47 94.1309 202.479 95.293C202.484 96.9075 202.484 96.9075 202.489 98.5547C202.497 100.047 202.497 100.047 202.505 101.57C202.391 104 202.391 104 201.391 106C199.725 106.043 198.057 106.041 196.391 106C195.391 105 195.391 105 195.278 102.592C195.283 101.549 195.288 100.507 195.294 99.4336C195.297 98.3089 195.3 97.1842 195.303 96.0254C195.312 94.8414 195.32 93.6574 195.329 92.4375C195.335 90.6557 195.335 90.6557 195.342 88.8379C195.354 85.8919 195.371 82.946 195.391 80C194.298 80.0413 193.205 80.0825 192.079 80.125C188.391 80 188.391 80 185.391 78C185.017 75.8748 185.017 75.8748 185.019 73.2148C185.013 72.2204 185.006 71.226 185 70.2014C185.009 69.1243 185.018 68.0472 185.028 66.9375C185.027 65.8353 185.027 64.733 185.026 63.5974C185.029 61.2638 185.038 58.9302 185.055 56.5967C185.079 53.0147 185.076 49.4336 185.069 45.8516C185.075 43.5885 185.082 41.3255 185.09 39.0625C185.089 37.9854 185.089 36.9083 185.088 35.7986C185.097 34.8042 185.107 33.8097 185.117 32.7852C185.121 31.9074 185.126 31.0296 185.13 30.1252C185.391 28 185.391 28 187.391 26C190.031 26 192.671 26 195.391 26C195.391 17.42 195.391 8.84 195.391 0Z" fill="#DE834C"/>
<path d="M191.391 79C196.341 79 201.291 79 206.391 79C205.071 79.33 203.751 79.66 202.391 80C202.396 80.7166 202.402 81.4331 202.407 82.1714C202.428 85.4059 202.441 88.6404 202.454 91.875C202.462 93.0029 202.47 94.1309 202.479 95.293C202.482 96.3693 202.485 97.4457 202.489 98.5547C202.494 99.5497 202.499 100.545 202.505 101.57C202.391 104 202.391 104 201.391 106C199.725 106.043 198.057 106.041 196.391 106C195.391 105 195.391 105 195.278 102.592C195.283 101.549 195.288 100.507 195.293 99.4336C195.298 97.7465 195.298 97.7465 195.303 96.0254C195.312 94.8414 195.32 93.6574 195.329 92.4375C195.333 91.2496 195.338 90.0618 195.342 88.8379C195.354 85.8919 195.371 82.946 195.391 80C194.071 79.67 192.751 79.34 191.391 79Z" fill="#DE834C"/>
<path d="M195.391 80C196.381 80 197.371 80 198.391 80C199.282 88.6887 199.507 97.2686 199.391 106C198.071 105.67 196.751 105.34 195.391 105C195.391 96.75 195.391 88.5 195.391 80Z" fill="#DE834C"/>
<path d="M90.5301 105C92.5101 105 94.4901 105 96.5301 105C96.5301 113.58 96.5301 122.16 96.5301 131C98.8401 131 101.15 131 103.53 131C105.935 132.608 105.935 132.608 107.53 135C108.038 137.884 108.038 137.884 108.048 141.266C108.06 142.534 108.073 143.802 108.086 145.108C108.079 146.489 108.071 147.869 108.061 149.25C108.064 150.67 108.068 152.089 108.073 153.509C108.079 156.481 108.07 159.453 108.052 162.426C108.029 166.233 108.042 170.038 108.066 173.845C108.08 176.776 108.076 179.706 108.065 182.637C108.063 184.04 108.066 185.443 108.075 186.847C108.085 188.809 108.067 190.772 108.048 192.734C108.043 194.408 108.043 194.408 108.038 196.116C107.411 199.674 106.413 200.874 103.53 203C99.7801 203.25 99.7801 203.25 96.5301 203C96.538 204.128 96.538 204.128 96.546 205.279C96.5667 208.665 96.5798 212.051 96.5926 215.438C96.601 216.622 96.6094 217.806 96.618 219.025C96.6229 220.712 96.6229 220.712 96.6278 222.434C96.6356 223.997 96.6356 223.997 96.6437 225.592C96.5301 228 96.5301 228 95.5301 229C93.8801 229 92.2301 229 90.5301 229C90.5301 220.42 90.5301 211.84 90.5301 203C88.2201 203 85.9101 203 83.5301 203C81.124 201.398 81.124 201.398 79.5301 199C79.0289 196.072 79.0289 196.072 79.0284 192.627C79.019 191.335 79.0097 190.044 79 188.713C79.0105 187.308 79.0218 185.902 79.034 184.496C79.0339 183.052 79.0324 181.607 79.0296 180.163C79.0282 177.139 79.0408 174.116 79.0636 171.092C79.092 167.216 79.0892 163.34 79.0765 159.464C79.0695 156.483 79.0773 153.502 79.0898 150.521C79.0943 149.091 79.0946 147.662 79.0907 146.233C79.0878 144.236 79.1064 142.24 79.1261 140.244C79.1315 139.108 79.1369 137.972 79.1425 136.801C79.5301 134 79.5301 134 80.5554 132.11C82.5301 131 82.5301 131 90.5301 131C90.5301 122.42 90.5301 113.84 90.5301 105Z" fill="#9C2A49"/>
<path d="M83.53 202C90.13 202 96.73 202 103.53 202C103.53 202.33 103.53 202.66 103.53 203C101.22 203 98.91 203 96.53 203C96.5353 203.752 96.5405 204.504 96.5459 205.279C96.5666 208.665 96.5797 212.051 96.5925 215.438C96.6009 216.622 96.6093 217.806 96.6179 219.025C96.6211 220.15 96.6244 221.275 96.6277 222.434C96.6329 223.476 96.6382 224.518 96.6436 225.592C96.53 228 96.53 228 95.53 229C93.88 229 92.23 229 90.53 229C90.53 220.42 90.53 211.84 90.53 203C88.22 203 85.91 203 83.53 203C83.53 202.67 83.53 202.34 83.53 202Z" fill="#9C2A49" fill-opacity="0.533333"/>
<path d="M96.53 106C96.53 114.25 96.53 122.5 96.53 131C98.84 131 101.15 131 103.53 131C103.53 131.33 103.53 131.66 103.53 132C100.23 132 96.93 132 93.53 132C93.53 123.75 93.53 115.5 93.53 107C95.53 106 95.53 106 96.53 106Z" fill="#9C2A49"/>
<path d="M90.53 105C92.51 105 94.49 105 96.53 105C96.2 105.66 95.87 106.32 95.53 107C94.87 107 94.21 107 93.53 107C93.53 114.59 93.53 122.18 93.53 130C92.54 130.33 91.55 130.66 90.53 131C90.53 122.42 90.53 113.84 90.53 105Z" fill="#9C2A49"/>
<path d="M90.53 204C91.52 204 92.51 204 93.53 204C93.53 211.92 93.53 219.84 93.53 228C92.54 228.33 91.55 228.66 90.53 229C90.53 220.75 90.53 212.5 90.53 204Z" fill="#9C2A49"/>
<path d="M39.1203 87C43.8261 87.7059 43.8261 87.7059 45.1203 89C45.2076 90.8537 45.2272 92.7107 45.2179 94.5664C45.2147 95.6911 45.2115 96.8158 45.2081 97.9746C45.1998 99.1586 45.1914 100.343 45.1828 101.562C45.1782 102.75 45.1737 103.938 45.1691 105.162C45.1573 108.108 45.1408 111.054 45.1203 114C47.0384 113.938 47.0384 113.938 48.9953 113.875C51.1749 113.805 51.1749 113.805 53.1203 114C55.6129 116.493 55.3727 117.255 55.379 120.693C55.3853 121.668 55.3917 122.642 55.3981 123.646C55.3941 124.701 55.3901 125.757 55.3859 126.844C55.3878 127.924 55.3897 129.004 55.3917 130.117C55.393 132.403 55.3893 134.69 55.381 136.976C55.3703 140.486 55.3809 143.994 55.3937 147.504C55.3924 149.721 55.3898 151.939 55.3859 154.156C55.3899 155.211 55.394 156.267 55.3981 157.354C55.3918 158.328 55.3855 159.303 55.379 160.307C55.3767 161.597 55.3767 161.597 55.3742 162.913C55.1203 165 55.1203 165 53.1203 167C50.7975 167.4 48.4629 167.74 46.1203 168C46.1004 168.717 46.0806 169.433 46.0602 170.171C45.9652 173.406 45.8554 176.641 45.7453 179.875C45.7143 181.003 45.6834 182.131 45.6515 183.293C45.6128 184.369 45.5742 185.446 45.5343 186.555C45.5029 187.55 45.4715 188.545 45.4391 189.57C45.1203 192 45.1203 192 43.1203 194C41.4703 193.67 39.8203 193.34 38.1203 193C38.1203 184.75 38.1203 176.5 38.1203 168C35.1503 167.67 32.1803 167.34 29.1203 167C28.1203 166 28.1203 166 28 163.944C28.0022 163.04 28.0044 162.136 28.0067 161.205C28.0068 160.184 28.0069 159.163 28.007 158.111C28.0121 157.001 28.0173 155.89 28.0226 154.746C28.024 153.616 28.0254 152.485 28.0269 151.32C28.0325 147.693 28.0451 144.065 28.0578 140.438C28.0628 137.985 28.0673 135.533 28.0714 133.08C28.0825 127.053 28.0992 121.027 28.1203 115C31.3348 113.393 34.5564 113.943 38.1203 114C38.115 113.218 38.1098 112.435 38.1044 111.629C38.0837 108.107 38.0706 104.585 38.0578 101.062C38.0494 99.8308 38.041 98.5991 38.0324 97.3301C38.0291 96.1603 38.0259 94.9904 38.0226 93.7852C38.0174 92.7011 38.0121 91.6171 38.0067 90.5002C38.1203 88 38.1203 88 39.1203 87Z" fill="black"/>
<path d="M39 89C39.33 89 39.66 89 40 89C40 97.25 40 105.5 40 114C41.32 114 42.64 114 44 114C44 105.75 44 97.5 44 89C44.33 89 44.66 89 45 89C45 97.25 45 105.5 45 114C47.64 114 50.28 114 53 114C53 115.32 53 116.64 53 118C46.5965 118.236 41.1537 117.823 35 116C36.32 115.67 37.64 115.34 39 115C39 106.42 39 97.84 39 89Z" fill="black"/>
<path d="M39 89C39.33 89 39.66 89 40 89C40 97.25 40 105.5 40 114C42.64 114.33 45.28 114.66 48 115C48 115.66 48 116.32 48 117C46.2087 117.054 44.4169 117.093 42.625 117.125C41.6273 117.148 40.6295 117.171 39.6016 117.195C37 117 37 117 35 115C36.32 115 37.64 115 39 115C39 106.42 39 97.84 39 89Z" fill="black"/>
<path d="M146.274 42C147.594 42.66 148.914 43.32 150.274 44C150.274 55.22 150.274 66.44 150.274 78C152.914 78 155.554 78 158.274 78C160.802 80.5281 160.518 82.1087 160.545 85.5574C160.541 86.3325 160.537 87.1076 160.533 87.9062C160.536 88.7226 160.54 89.539 160.544 90.3801C160.552 93.0868 160.547 95.7933 160.54 98.5C160.541 100.376 160.543 102.251 160.546 104.127C160.549 108.061 160.544 111.995 160.535 115.93C160.524 120.981 160.53 126.032 160.542 131.083C160.549 134.957 160.547 138.831 160.542 142.705C160.54 144.568 160.542 146.43 160.547 148.293C160.552 150.894 160.544 153.493 160.533 156.094C160.537 156.869 160.541 157.644 160.545 158.443C160.503 163.771 160.503 163.771 158.274 166C155.634 166 152.994 166 150.274 166C150.274 177.22 150.274 188.44 150.274 200C148.294 200.99 148.294 200.99 146.274 202C145.614 201.67 144.954 201.34 144.274 201C144.274 189.45 144.274 177.9 144.274 166C141.304 166 138.334 166 135.274 166C132.746 163.472 133.031 161.891 133.003 158.443C133.007 157.667 133.011 156.892 133.015 156.094C133.012 155.277 133.008 154.461 133.005 153.62C132.996 150.913 133.002 148.207 133.009 145.5C133.007 143.624 133.005 141.749 133.003 139.873C133 135.939 133.004 132.005 133.013 128.07C133.025 123.019 133.018 117.968 133.006 112.917C132.999 109.043 133.001 105.169 133.007 101.295C133.008 99.4324 133.006 97.5696 133.002 95.7068C132.997 93.1065 133.004 90.5065 133.015 87.9062C133.011 87.1311 133.007 86.356 133.003 85.5574C133.046 80.2285 133.046 80.2285 135.274 78C138.244 78 141.214 78 144.274 78C144.274 66.45 144.274 54.9 144.274 43C144.934 42.67 145.594 42.34 146.274 42Z" fill="#EEEADF"/>
<path d="M146.274 42C147.594 42.66 148.914 43.32 150.274 44C150.274 55.22 150.274 66.44 150.274 78C152.914 78 155.554 78 158.274 78C158.604 79.32 158.934 80.64 159.274 82C157.624 81.67 155.974 81.34 154.274 81C154.274 80.34 154.274 79.68 154.274 79C153.367 79.0206 152.459 79.0412 151.524 79.0625C148.274 79 148.274 79 144.274 78C144.274 66.45 144.274 54.9 144.274 43C144.934 42.67 145.594 42.34 146.274 42Z" fill="#EEEADF"/>
<path d="M144.274 167C145.264 167 146.254 167 147.274 167C147.312 168.172 147.312 168.172 147.35 169.367C147.467 172.933 147.589 176.498 147.712 180.062C147.751 181.292 147.79 182.521 147.831 183.787C148.034 189.592 148.262 195.275 149.274 201C147.789 201.495 147.789 201.495 146.274 202C145.614 201.67 144.954 201.34 144.274 201C144.274 189.78 144.274 178.56 144.274 167Z" fill="#EEEADF"/>
<path d="M144.274 166C146.254 166 148.234 166 150.274 166C150.274 177.22 150.274 188.44 150.274 200C149.614 199.67 148.954 199.34 148.274 199C147.187 195.201 147.158 191.537 147.177 187.605C147.18 186.403 147.183 185.201 147.186 183.963C147.195 182.717 147.203 181.471 147.212 180.188C147.216 178.922 147.221 177.657 147.225 176.354C147.237 173.236 147.254 170.118 147.274 167C146.284 166.67 145.294 166.34 144.274 166Z" fill="#EEEADF"/>
<path d="M145.274 45C145.604 45 145.934 45 146.274 45C146.274 55.89 146.274 66.78 146.274 78C148.254 78.33 150.234 78.66 152.274 79C152.274 79.33 152.274 79.66 152.274 80C148.314 80 144.354 80 140.274 80C141.594 79.34 142.914 78.68 144.274 78C144.604 67.11 144.934 56.22 145.274 45Z" fill="#EEEADF" fill-opacity="0.694118"/>
<path d="M144.274 167C145.264 167 146.254 167 147.274 167C147.312 168.172 147.312 168.172 147.35 169.367C147.467 172.933 147.589 176.498 147.712 180.062C147.751 181.292 147.79 182.521 147.831 183.787C148.034 189.592 148.262 195.275 149.274 201C147.789 201.495 147.789 201.495 146.274 202C146.274 190.78 146.274 179.56 146.274 168C145.614 167.67 144.954 167.34 144.274 167Z" fill="#EEEADF"/>
<path d="M146.274 42C147.264 42.33 148.254 42.66 149.274 43C148.274 45 148.274 45 146.274 46C145.944 56.56 145.614 67.12 145.274 78C144.944 78 144.614 78 144.274 78C144.274 66.45 144.274 54.9 144.274 43C144.934 42.67 145.594 42.34 146.274 42Z" fill="#EEEADF"/>
<path d="M11.9999 7.23389C14.4374 8.79639 14.4374 8.79639 15.9999 11.2339C16.5628 15.174 16.6039 17.2917 14.4374 20.6714C11.0814 22.8227 8.91571 22.7234 4.99993 22.2339C2.62493 21.1089 2.62493 21.1089 0.999927 19.2339C-0.193155 15.5751 -0.32675 13.9339 1.31243 10.4214C4.33717 6.50043 7.23417 6.82305 11.9999 7.23389Z" fill="#DE834C"/>
<path d="M10 8C10.33 8 10.66 8 11 8C11.4619 12.9272 9.82753 16.5073 8 21C5.6875 21.3125 5.6875 21.3125 3 21C1.125 18.6875 1.125 18.6875 0 16C0.33 15.01 0.66 14.02 1 13C1.40219 14.2066 1.40219 14.2066 1.8125 15.4375C2.20437 16.2831 2.59625 17.1288 3 18C3.99 18.33 4.98 18.66 6 19C6.10312 18.4844 6.20625 17.9688 6.3125 17.4375C7.24264 14.1397 8.61396 11.1337 10 8Z" fill="#DE834C"/>
<path d="M2 9C3.32 9 4.64 9 6 9C5.41196 12.0242 4.77322 15.0176 4 18C3.34 18 2.68 18 2 18C1.12109 11.8477 1.12109 11.8477 1 10C1.33 9.67 1.66 9.34 2 9Z" fill="#DE834C"/>
<path d="M15 11C15.33 11 15.66 11 16 11C16.25 14.3125 16.25 14.3125 16 18C14 19.9375 14 19.9375 12 21C12.5071 17.2811 13.1161 14.2655 15 11Z" fill="#DB7F4E"/>
<path d="M12 17C12 18.65 12 20.3 12 22C9.69 22 7.38 22 5 22C9.75 17 9.75 17 12 17Z" fill="#DE834C"/>
<path d="M221 185C221.33 185.33 221.66 185.66 222 186C221.28 192.72 221.28 192.72 220 194C217.661 193.713 215.326 193.381 213 193C211.677 187.589 211.677 187.589 213.063 185.063C215.936 183.487 217.914 184.195 221 185Z" fill="#9C2A49"/>
<path d="M219 185C219.99 185.33 220.98 185.66 222 186C221.125 192.875 221.125 192.875 220 194C217.661 193.713 215.326 193.381 213 193C214.32 192.67 215.64 192.34 217 192C217.66 189.69 218.32 187.38 219 185Z" fill="#9C2A49"/>
<path d="M221 186C221.33 186 221.66 186 222 186C221.125 192.875 221.125 192.875 220 194C218.334 194.041 216.666 194.043 215 194C215.928 193.412 215.928 193.412 216.875 192.812C219.325 190.723 220.019 189.025 221 186Z" fill="#9C2A49"/>
</svg>
