<svg width="393" height="563" viewBox="0 0 393 563" fill="none" xmlns="http://www.w3.org/2000/svg">
<g clip-path="url(#clip0_6353_6395)">
<rect width="230.39" height="322.002" rx="21.7692" transform="matrix(1 0 0.22937 0.973339 12.0636 45.9805)" fill="url(#paint0_radial_6353_6395)"/>
<path d="M72.7381 76.5238C72.5294 75.638 72.5532 74.8861 72.8097 74.2681C73.0662 73.6501 73.5138 73.1783 74.1525 72.8528C74.7921 72.5315 75.5818 72.3708 76.5215 72.3708C77.4612 72.3708 78.3266 72.5315 79.1176 72.8528C79.9097 73.1783 80.5796 73.6501 81.1274 74.2681C81.6751 74.8861 82.0534 75.638 82.2621 76.5238C82.5049 77.5538 82.4356 78.4005 82.0543 79.0638C81.674 79.7313 81.0585 80.1906 80.2076 80.442L79.6392 79.3234C80.278 79.1421 80.7394 78.8187 81.0233 78.3531C81.3073 77.8875 81.3604 77.2778 81.1827 76.5238C81.0264 75.8605 80.7418 75.3084 80.3289 74.8675C79.916 74.4267 79.4061 74.095 78.7992 73.8726C78.1965 73.6501 77.5285 73.5368 76.7952 73.5327C76.0662 73.5285 75.4507 73.6377 74.9486 73.8602C74.4507 74.0827 74.0976 74.4164 73.8892 74.8614C73.6851 75.3063 73.6612 75.8605 73.8175 76.5238C73.9952 77.2778 74.3357 77.8875 74.8391 78.3531C75.3467 78.8187 75.9605 79.1421 76.6805 79.3234L76.6393 80.442C75.6742 80.1906 74.8421 79.7313 74.143 79.0638C73.4492 78.4005 72.9808 77.5538 72.7381 76.5238ZM74.7071 84.8256C74.6062 84.3971 74.5891 84.0283 74.656 83.7193C74.7238 83.4144 74.8504 83.1611 75.0356 82.9592C75.2208 82.7573 75.4417 82.5987 75.6981 82.4833C75.9545 82.368 76.225 82.2856 76.5097 82.2361C76.7953 82.1908 77.0672 82.1681 77.3254 82.1681H81.116L81.3781 83.2805H77.9431C77.6214 83.2805 77.3171 83.3094 77.0302 83.3671C76.7432 83.4247 76.4951 83.5216 76.2859 83.6575C76.0776 83.7976 75.9309 83.983 75.8455 84.2137C75.7612 84.4486 75.7603 84.7411 75.8428 85.0913C75.9079 85.3673 76.0158 85.6187 76.1665 85.8453C76.3173 86.0719 76.5068 86.2655 76.7352 86.4262C76.9677 86.5869 77.2424 86.7105 77.5591 86.797C77.8758 86.8835 78.2309 86.9268 78.6246 86.9268L78.5664 87.6498C77.9061 87.6498 77.3091 87.5324 76.7754 87.2976C76.2427 87.0669 75.7973 86.7393 75.4391 86.315C75.0861 85.8947 74.8421 85.3982 74.7071 84.8256ZM75.4092 87.0504H77.2442L77.215 86.9268H82.2374L82.4981 88.033H75.6408L75.4092 87.0504ZM76.165 90.2577H83.0223L83.2539 91.2404H81.5967L81.7747 91.0797C82.0048 91.158 82.2233 91.2589 82.4302 91.3825C82.6381 91.5102 82.8176 91.6524 82.9688 91.8089C83.1535 91.982 83.3097 92.1777 83.4373 92.396C83.565 92.6144 83.6619 92.8369 83.728 93.0635C83.7983 93.2901 83.8335 93.5023 83.8335 93.7H82.7732C82.7823 93.4693 82.7395 93.2159 82.6448 92.9399C82.5502 92.6638 82.3863 92.4084 82.1531 92.1736C81.946 91.9593 81.7162 91.7925 81.4637 91.673C81.2122 91.5576 80.9499 91.4773 80.6768 91.4319C80.4079 91.3866 80.138 91.364 79.8671 91.364H76.4257L76.165 90.2577ZM77.3681 95.363H84.2254L84.457 96.3457H82.7998L82.9778 96.185C83.2079 96.2633 83.4264 96.3642 83.6333 96.4878C83.8412 96.6155 84.0207 96.7577 84.1719 96.9142C84.3566 97.0873 84.5128 97.283 84.6404 97.5013C84.7681 97.7197 84.8649 97.9422 84.931 98.1688C85.0014 98.3954 85.0366 98.6076 85.0366 98.8053H83.9763C83.9854 98.5746 83.9426 98.3212 83.8479 98.0452C83.7532 97.7692 83.5893 97.5137 83.3562 97.2789C83.1491 97.0646 82.9193 96.8978 82.6668 96.7783C82.4153 96.6629 82.153 96.5826 81.8798 96.5373C81.611 96.4919 81.3411 96.4693 81.0701 96.4693H77.6288L77.3681 95.363ZM79.0338 103.24C78.8795 102.585 78.8927 102.012 79.0734 101.522C79.2594 101.036 79.587 100.657 80.0563 100.385C80.5298 100.113 81.1242 99.9768 81.8396 99.9768C82.5888 99.9768 83.268 100.111 83.8771 100.379C84.4905 100.646 85.0017 101.019 85.4106 101.497C85.8247 101.979 86.108 102.544 86.2604 103.19C86.4187 103.862 86.3944 104.433 86.1877 104.902C85.9818 105.376 85.6124 105.73 85.0794 105.965C84.5473 106.204 83.8711 106.307 83.0506 106.274L82.7884 105.162H83.1948C84.0342 105.15 84.6235 104.983 84.9626 104.661C85.3059 104.34 85.4028 103.862 85.2533 103.228C85.0931 102.548 84.7469 102.031 84.2147 101.676C83.6825 101.322 82.9974 101.145 82.1593 101.145C81.3508 101.145 80.7661 101.322 80.4051 101.676C80.0442 102.031 79.9409 102.535 80.0952 103.19C80.1991 103.631 80.3931 104.014 80.6772 104.34C80.9613 104.665 81.32 104.921 81.7531 105.106L81.6275 106.163C80.961 105.904 80.3989 105.512 79.9412 104.989C79.4887 104.47 79.1863 103.887 79.0338 103.24ZM81.7544 100.774H82.6624L83.8245 105.706H82.9166L81.7544 100.774ZM81.4574 112.716H84.8924C85.2183 112.716 85.5248 112.687 85.8117 112.63C86.0996 112.576 86.3456 112.479 86.5496 112.339C86.7589 112.203 86.9057 112.018 86.99 111.783C87.0753 111.552 87.0762 111.26 86.9927 110.905C86.9277 110.629 86.8198 110.378 86.669 110.151C86.5235 109.929 86.3344 109.737 86.1018 109.577C85.8693 109.416 85.5941 109.29 85.2765 109.2C84.964 109.113 84.6088 109.07 84.2109 109.07L84.2691 108.347C84.9337 108.347 85.5302 108.462 86.0587 108.693C86.5923 108.928 87.0356 109.255 87.3886 109.675C87.7469 110.1 87.9934 110.598 88.1284 111.171C88.2303 111.604 88.2474 111.972 88.1796 112.277C88.1117 112.582 87.9852 112.836 87.7999 113.037C87.6189 113.239 87.3981 113.398 87.1375 113.513C86.881 113.629 86.61 113.709 86.3244 113.754C86.044 113.804 85.7726 113.828 85.5101 113.828H81.7196L81.4574 112.716ZM80.336 107.957H87.1933L87.4263 108.946H85.5914L85.6205 109.07H80.5982L80.336 107.957ZM82.6726 118.681C82.5134 118.006 82.5325 117.431 82.7298 116.957C82.9324 116.487 83.2775 116.129 83.7653 115.882C84.2531 115.634 84.8452 115.507 85.5417 115.498C86.259 115.507 86.9182 115.636 87.5192 115.888C88.1255 116.143 88.6368 116.508 89.0532 116.982C89.4697 117.455 89.7565 118.026 89.9138 118.694C90.0798 119.398 90.0448 120.004 89.8086 120.51C89.5734 121.021 89.1672 121.363 88.59 121.536L87.9972 120.449C88.3621 120.309 88.6172 120.08 88.7625 119.763C88.9089 119.45 88.934 119.089 88.8378 118.681C88.7301 118.224 88.5312 117.847 88.2412 117.55C87.9554 117.254 87.6029 117.033 87.1837 116.889C86.7688 116.745 86.3132 116.671 85.817 116.666C85.057 116.675 84.4814 116.846 84.0902 117.179C83.7042 117.517 83.5894 118.018 83.7457 118.681C83.8486 119.118 84.0356 119.48 84.3068 119.769C84.5821 120.057 84.932 120.276 85.3564 120.424L85.3201 121.536C84.6266 121.306 84.0527 120.945 83.5985 120.455C83.1444 119.965 82.8357 119.373 82.6726 118.681ZM81.0636 123.978L84.9744 125.269L83.912 125.288L90.5899 122.371L90.8622 123.527L85.4771 125.813L85.3839 125.418L91.8132 127.562L92.0768 128.681L81.3155 125.047L81.0636 123.978Z" fill="white"/>
<path d="M151.165 72.7008H152.829L153.592 75.9401H141.928L141.506 74.1491H151.506L151.165 72.7008ZM145.214 79.3601C146.335 80.3568 147.245 81.1407 147.945 81.7117C148.658 82.2931 149.369 82.7759 150.078 83.1601C150.787 83.5442 151.451 83.7363 152.07 83.7363C152.71 83.7363 153.176 83.5857 153.467 83.2847C153.761 82.9939 153.834 82.5319 153.685 81.8986C153.54 81.2861 153.225 80.8085 152.739 80.4659C152.266 80.1336 151.691 79.9571 151.014 79.9364L150.611 78.2233C151.834 78.2544 152.845 78.6074 153.644 79.2823C154.456 79.9675 154.986 80.8344 155.233 81.883C155.5 83.0147 155.388 83.8972 154.897 84.5305C154.409 85.1742 153.631 85.4961 152.564 85.4961C151.796 85.4961 151.01 85.304 150.205 84.9199C149.413 84.5461 148.671 84.0945 147.981 83.565C147.304 83.0459 146.502 82.3814 145.576 81.5716L144.77 80.8708L145.934 85.8075H144.414L142.63 78.2389H143.958L145.214 79.3601ZM153.398 87.3361C154.405 87.3983 155.265 87.7669 155.979 88.4418C156.695 89.127 157.178 89.9991 157.427 91.0581C157.598 91.7849 157.613 92.413 157.471 92.9425C157.329 93.472 157.061 93.8717 156.666 94.1416C156.271 94.4116 155.785 94.5466 155.209 94.5466C154.548 94.5466 153.942 94.3752 153.392 94.0326C152.842 93.69 152.431 93.2799 152.158 92.8023H152.094C152.046 93.4149 151.807 93.8925 151.376 94.2351C150.955 94.5777 150.35 94.749 149.561 94.749C148.932 94.749 148.339 94.6088 147.782 94.3285C147.225 94.0482 146.738 93.6329 146.32 93.0826C145.913 92.5324 145.619 91.8731 145.438 91.1048C145.174 89.9835 145.249 89.0595 145.665 88.3328C146.093 87.6164 146.856 87.2322 147.953 87.1803L148.357 88.8934C147.801 88.9349 147.388 89.1478 147.115 89.5319C146.854 89.9161 146.8 90.4352 146.954 91.0893C147.104 91.7226 147.395 92.2105 147.827 92.5532C148.271 92.8958 148.775 93.0671 149.341 93.0671C150.087 93.0671 150.56 92.8335 150.759 92.3663C150.972 91.9095 150.965 91.2035 150.74 90.2483L150.645 89.8434H152.149L152.248 90.2639C152.457 91.1048 152.751 91.7433 153.131 92.1794C153.514 92.6258 154.004 92.849 154.601 92.849C155.113 92.849 155.481 92.6881 155.703 92.3663C155.937 92.0444 155.984 91.5876 155.844 90.9958C155.707 90.4144 155.446 89.9628 155.061 89.6409C154.687 89.3191 154.268 89.127 153.805 89.0647L153.398 87.3361ZM149.181 96.3959H150.557L159.502 101.629L160.009 103.778H152.505L152.846 105.226H151.262L150.921 103.778H148.489L148.077 102.033H150.509L149.181 96.3959ZM157.76 102.111L151.246 98.436L152.112 102.111H157.76ZM161.951 118.062L160.721 112.845H157.537C157.887 113.063 158.214 113.385 158.517 113.811C158.822 114.247 159.032 114.709 159.147 115.197C159.353 116.069 159.327 116.775 159.071 117.315C158.816 117.865 158.423 118.254 157.89 118.483C157.359 118.721 156.769 118.841 156.118 118.841C155.329 118.841 154.589 118.69 153.9 118.389C153.223 118.098 152.639 117.657 152.148 117.065C151.659 116.484 151.314 115.768 151.113 114.916C150.847 113.785 150.921 112.876 151.335 112.191C151.75 111.506 152.416 111.096 153.333 110.961L153.741 112.689C153.266 112.803 152.926 113.058 152.72 113.452C152.525 113.847 152.498 114.34 152.637 114.932C152.811 115.669 153.17 116.219 153.714 116.583C154.261 116.956 154.913 117.143 155.67 117.143C156.438 117.143 156.981 116.956 157.298 116.583C157.626 116.209 157.704 115.659 157.533 114.932C157.413 114.423 157.178 113.992 156.828 113.639C156.492 113.297 156.081 113.047 155.596 112.892L155.2 111.21H161.936L163.551 118.062H161.951ZM162.872 126.794C163.336 126.679 163.655 126.472 163.829 126.171C164.004 125.87 164.027 125.449 163.9 124.909C163.707 124.089 163.237 123.477 162.491 123.072C161.756 122.667 160.639 122.454 159.141 122.433C159.674 122.703 160.129 123.098 160.508 123.617C160.886 124.136 161.146 124.696 161.288 125.299C161.449 125.984 161.437 126.586 161.25 127.105C161.076 127.635 160.735 128.045 160.228 128.335C159.723 128.636 159.07 128.787 158.27 128.787C157.523 128.787 156.822 128.642 156.167 128.351C155.515 128.071 154.951 127.65 154.478 127.09C154.015 126.529 153.691 125.854 153.505 125.065C153.253 123.996 153.295 123.155 153.63 122.542C153.979 121.94 154.567 121.514 155.393 121.265C156.223 121.026 157.298 120.907 158.621 120.907C162.525 120.907 164.793 122.246 165.424 124.925C165.669 125.963 165.573 126.778 165.136 127.37C164.702 127.972 164.076 128.325 163.258 128.429L162.872 126.794ZM159.66 124.909C159.511 124.276 159.186 123.736 158.687 123.29C158.2 122.854 157.588 122.636 156.852 122.636C156.116 122.636 155.577 122.838 155.236 123.243C154.907 123.658 154.829 124.234 155.003 124.972C155.157 125.626 155.486 126.14 155.99 126.513C156.497 126.897 157.097 127.09 157.79 127.09C158.515 127.09 159.047 126.903 159.386 126.529C159.738 126.166 159.829 125.626 159.66 124.909ZM166.78 137.876L155.504 133.546L155.082 131.755L166.177 136.131L164.819 130.369H166.371L168.14 137.876H166.78ZM163.429 141.311C163.73 140.231 164.477 139.691 165.672 139.691C166.248 139.691 166.809 139.831 167.355 140.112C167.901 140.392 168.379 140.812 168.788 141.373C169.208 141.934 169.514 142.619 169.704 143.429C169.893 144.228 169.909 144.908 169.753 145.469C169.61 146.04 169.332 146.466 168.918 146.746C168.504 147.026 168.009 147.166 167.433 147.166C166.836 147.166 166.272 147.016 165.743 146.715C165.226 146.424 164.788 146.035 164.428 145.547C164.343 146.139 164.085 146.606 163.654 146.948C163.233 147.291 162.682 147.462 161.999 147.462C161.306 147.462 160.652 147.291 160.038 146.948C159.424 146.606 158.901 146.128 158.468 145.516C158.036 144.903 157.728 144.207 157.544 143.429C157.361 142.65 157.341 141.954 157.485 141.342C157.631 140.74 157.93 140.267 158.383 139.925C158.835 139.582 159.408 139.411 160.102 139.411C160.795 139.411 161.433 139.582 162.015 139.925C162.597 140.267 163.068 140.729 163.429 141.311ZM166.809 145.469C167.406 145.469 167.822 145.287 168.057 144.924C168.291 144.56 168.334 144.062 168.184 143.429C168.038 142.806 167.761 142.313 167.356 141.949C166.95 141.586 166.443 141.404 165.835 141.404C165.302 141.404 164.909 141.591 164.655 141.965C164.415 142.349 164.365 142.837 164.504 143.429C164.644 144.021 164.93 144.508 165.361 144.893C165.793 145.277 166.276 145.469 166.809 145.469ZM163.128 143.429C162.967 142.744 162.659 142.183 162.204 141.747C161.762 141.321 161.216 141.108 160.566 141.108C159.958 141.108 159.511 141.316 159.224 141.731C158.949 142.147 158.896 142.712 159.064 143.429C159.231 144.135 159.554 144.69 160.033 145.095C160.515 145.51 161.055 145.718 161.652 145.718C162.292 145.718 162.738 145.505 162.989 145.08C163.244 144.664 163.29 144.114 163.128 143.429ZM163.865 155.583C163.356 155.687 163.003 155.91 162.806 156.253C162.61 156.595 162.58 157.057 162.717 157.639C162.891 158.376 163.317 158.916 163.995 159.259C164.673 159.601 165.732 159.772 167.172 159.772C166.75 159.523 166.385 159.17 166.074 158.713C165.777 158.267 165.566 157.779 165.441 157.25C165.282 156.575 165.277 155.962 165.424 155.412C165.583 154.862 165.901 154.426 166.38 154.104C166.872 153.792 167.518 153.637 168.318 153.637C169.491 153.637 170.503 153.969 171.353 154.633C172.216 155.308 172.786 156.232 173.062 157.405C173.395 158.817 173.146 159.819 172.314 160.411C171.496 161.013 170.09 161.314 168.095 161.314C166.719 161.314 165.567 161.2 164.638 160.972C163.712 160.754 162.961 160.369 162.383 159.819C161.805 159.269 161.401 158.506 161.171 157.53C160.91 156.419 161.006 155.562 161.462 154.96C161.917 154.358 162.59 154.021 163.479 153.948L163.865 155.583ZM167.051 157.561C167.198 158.184 167.51 158.672 167.988 159.025C168.479 159.388 169.055 159.57 169.716 159.57C170.452 159.57 170.978 159.378 171.292 158.994C171.62 158.62 171.707 158.106 171.553 157.452C171.399 156.798 171.063 156.279 170.546 155.895C170.042 155.521 169.449 155.334 168.766 155.334C168.115 155.334 167.619 155.516 167.278 155.879C166.95 156.253 166.875 156.813 167.051 157.561ZM172.45 163.024H174.114L174.877 166.263H163.213L162.791 164.472H172.791L172.45 163.024ZM169.772 168.702C171.617 168.702 173.128 169.003 174.305 169.605C175.495 170.218 176.264 171.266 176.614 172.751C176.964 174.236 176.687 175.279 175.784 175.881C174.894 176.494 173.526 176.8 171.68 176.8C169.814 176.8 168.28 176.494 167.08 175.881C165.893 175.279 165.124 174.236 164.774 172.751C164.424 171.266 164.7 170.218 165.601 169.605C166.515 169.003 167.905 168.702 169.772 168.702ZM171.269 175.056C172.133 175.056 172.851 174.999 173.421 174.885C173.994 174.781 174.428 174.563 174.723 174.23C175.029 173.898 175.104 173.405 174.95 172.751C174.796 172.097 174.488 171.604 174.026 171.271C173.574 170.939 173.036 170.716 172.412 170.602C171.79 170.498 171.047 170.446 170.183 170.446C169.287 170.446 168.547 170.498 167.964 170.602C167.38 170.706 166.941 170.924 166.646 171.256C166.353 171.599 166.284 172.097 166.438 172.751C166.592 173.405 166.895 173.898 167.347 174.23C167.801 174.573 168.344 174.796 168.977 174.9C169.609 175.004 170.373 175.056 171.269 175.056ZM176.084 178.445H177.748L178.511 181.684H166.847L166.425 179.893H176.425L176.084 178.445ZM178.32 187.935H179.984L180.748 191.174H169.084L168.662 189.383H178.662L178.32 187.935ZM172.37 194.594C173.49 195.591 174.4 196.375 175.1 196.946C175.813 197.527 176.524 198.01 177.233 198.394C177.942 198.778 178.606 198.971 179.225 198.971C179.865 198.971 180.331 198.82 180.623 198.519C180.917 198.228 180.989 197.766 180.84 197.133C180.696 196.52 180.38 196.043 179.894 195.7C179.421 195.368 178.846 195.191 178.17 195.171L177.766 193.458C178.989 193.489 180 193.842 180.799 194.517C181.612 195.202 182.141 196.069 182.388 197.117C182.655 198.249 182.543 199.131 182.052 199.765C181.564 200.408 180.786 200.73 179.72 200.73C178.952 200.73 178.165 200.538 177.36 200.154C176.568 199.78 175.827 199.329 175.137 198.799C174.46 198.28 173.658 197.616 172.731 196.806L171.926 196.105L173.089 201.042H171.569L169.785 193.473H171.113L172.37 194.594ZM180.553 202.57C181.56 202.633 182.42 203.001 183.134 203.676C183.85 204.361 184.333 205.233 184.582 206.292C184.754 207.019 184.768 207.647 184.626 208.177C184.485 208.706 184.216 209.106 183.821 209.376C183.426 209.646 182.94 209.781 182.364 209.781C181.703 209.781 181.097 209.609 180.547 209.267C179.997 208.924 179.586 208.514 179.313 208.037H179.249C179.202 208.649 178.962 209.127 178.531 209.469C178.11 209.812 177.505 209.983 176.716 209.983C176.087 209.983 175.494 209.843 174.937 209.563C174.38 209.282 173.893 208.867 173.475 208.317C173.068 207.767 172.774 207.107 172.593 206.339C172.329 205.218 172.405 204.294 172.82 203.567C173.249 202.851 174.011 202.466 175.109 202.415L175.512 204.128C174.957 204.169 174.543 204.382 174.271 204.766C174.009 205.15 173.956 205.669 174.11 206.323C174.259 206.957 174.55 207.445 174.983 207.787C175.426 208.13 175.93 208.301 176.496 208.301C177.242 208.301 177.715 208.068 177.915 207.601C178.127 207.144 178.121 206.438 177.896 205.483L177.8 205.078H179.304L179.403 205.498C179.612 206.339 179.907 206.978 180.287 207.414C180.669 207.86 181.159 208.083 181.756 208.083C182.268 208.083 182.636 207.922 182.859 207.601C183.092 207.279 183.139 206.822 183 206.23C182.863 205.649 182.602 205.197 182.216 204.875C181.842 204.553 181.423 204.361 180.961 204.299L180.553 202.57ZM176.336 211.63H177.712L186.657 216.863L187.164 219.012H179.66L180.001 220.46H178.417L178.076 219.012H175.644L175.233 217.268H177.665L176.336 211.63ZM184.915 217.346L178.401 213.67L179.267 217.346H184.915Z" fill="white"/>
<path d="M52.7205 75.7504C52.5816 75.1607 52.584 74.6398 52.7278 74.1877C52.8716 73.7357 53.1381 73.3808 53.5273 73.123C53.9209 72.8687 54.4224 72.7416 55.032 72.7416H60.0062L60.2364 73.6951H55.3383C54.9682 73.6951 54.6595 73.7551 54.412 73.8752C54.169 73.9988 53.9805 74.1613 53.8466 74.3625C53.7126 74.5638 53.6285 74.7846 53.5944 75.0247C53.5648 75.2684 53.5782 75.5103 53.6348 75.7504C53.6923 75.9941 53.795 76.2378 53.9432 76.4814C54.0913 76.7251 54.2775 76.9458 54.5019 77.1436C54.7308 77.3449 54.9972 77.5056 55.3012 77.6256C55.6053 77.7457 55.9405 77.8057 56.307 77.8057H61.205L61.4297 78.7592H56.45C55.8441 78.7592 55.284 78.6303 54.7698 78.3725C54.2563 78.1183 53.8212 77.7651 53.4643 77.3131C53.1074 76.8611 52.8595 76.3402 52.7205 75.7504ZM54.3414 82.6287C54.2141 82.0883 54.1936 81.601 54.2799 81.1666C54.367 80.7358 54.5514 80.3791 54.8332 80.0966C55.1194 79.8176 55.4919 79.6357 55.9509 79.551L56.3384 80.5257C55.8741 80.6493 55.548 80.9053 55.3602 81.2938C55.1768 81.6858 55.1476 82.1466 55.2724 82.6763C55.3531 83.0189 55.4804 83.3279 55.6541 83.6033C55.8323 83.8823 56.044 84.103 56.2891 84.2655C56.5342 84.4279 56.7982 84.5092 57.0812 84.5092C57.2554 84.5092 57.397 84.4791 57.5062 84.4191C57.6199 84.3626 57.7082 84.2831 57.7712 84.1807C57.8386 84.0819 57.8881 83.9688 57.9199 83.8417C57.9516 83.7146 57.9712 83.5822 57.9786 83.4444L58.1137 81.5004C58.1291 81.2885 58.1624 81.0836 58.2138 80.8859C58.2688 80.6881 58.3523 80.5115 58.4645 80.3562C58.5803 80.2008 58.7325 80.0772 58.9213 79.9854C59.1138 79.8935 59.3551 79.8476 59.6454 79.8476C60.1098 79.8476 60.5327 79.9642 60.9142 80.1972C61.3001 80.4339 61.6276 80.7534 61.8966 81.156C62.1656 81.5586 62.3578 82.0124 62.4732 82.5174C62.5902 83.0295 62.6037 83.4868 62.5135 83.8894C62.4278 84.2955 62.2456 84.631 61.967 84.8959C61.6892 85.1642 61.3235 85.3444 60.8698 85.4362L60.4543 84.435C60.7611 84.382 61.0071 84.2637 61.1924 84.0801C61.3822 83.9 61.5067 83.674 61.566 83.402C61.6289 83.1301 61.6239 82.8317 61.5509 82.5068C61.4813 82.1961 61.3644 81.9153 61.2001 81.6646C61.0358 81.4138 60.8418 81.2143 60.6182 81.066C60.3982 80.9177 60.1667 80.8435 59.9236 80.8435C59.6841 80.8435 59.5058 80.9106 59.3887 81.0448C59.2752 81.179 59.1978 81.3432 59.1565 81.5374C59.1196 81.7352 59.096 81.9277 59.0857 82.1148L58.9978 83.5663C58.9898 83.7322 58.9694 83.9229 58.9367 84.1384C58.9049 84.3573 58.8369 84.5692 58.7328 84.774C58.6323 84.9788 58.4727 85.1484 58.2539 85.2826C58.0389 85.4167 57.7426 85.4838 57.3653 85.4838C56.988 85.4838 56.6349 85.4097 56.3061 85.2614C55.9781 85.1166 55.6835 84.9135 55.4224 84.6522C55.1648 84.3909 54.9445 84.0872 54.7614 83.7411C54.5746 83.395 54.4346 83.0242 54.3414 82.6287ZM55.4394 86.595H63.2763L63.8305 88.947C63.8488 89.0247 63.879 89.1606 63.9212 89.3549C63.9633 89.5491 63.9925 89.7345 64.0087 89.9111C64.0679 90.5008 63.9626 90.9935 63.693 91.389C63.4279 91.788 63.0415 92.0882 62.5338 92.2895C62.0261 92.4908 61.4385 92.5914 60.7709 92.5914C60.1033 92.5914 59.4682 92.4908 58.8657 92.2895C58.2631 92.0882 57.7334 91.788 57.2766 91.389C56.8242 90.9935 56.4886 90.5008 56.2698 89.9111C56.2064 89.7345 56.1478 89.5473 56.0939 89.3496C56.0445 89.1553 56.0111 89.0211 55.9936 88.947L55.4394 86.595ZM56.593 87.5644L56.9188 88.947C56.9504 89.0812 56.9894 89.2313 57.0358 89.3972C57.0858 89.5632 57.1362 89.708 57.1871 89.8316C57.3651 90.2483 57.6242 90.5856 57.9643 90.8434C58.3045 91.1012 58.6973 91.2901 59.1428 91.4102C59.5884 91.5302 60.0524 91.5903 60.535 91.5903C61.0284 91.5903 61.4692 91.5285 61.8573 91.4049C62.2462 91.2848 62.5482 91.0959 62.7632 90.8381C62.9782 90.5803 63.0751 90.2448 63.0539 89.8316C63.0502 89.708 63.032 89.5614 62.9993 89.3919C62.9666 89.2224 62.9353 89.0741 62.9053 88.947L62.5795 87.5644H56.593Z" fill="white"/>
<g clip-path="url(#clip1_6353_6395)">
<path d="M219.206 93.3694C220.042 93.1865 220.819 93.1962 221.539 93.3985C222.261 93.6108 222.863 93.9763 223.346 94.4949C223.841 95.0213 224.168 95.6481 224.327 96.375C224.47 97.0312 224.464 97.6303 224.308 98.1722C224.165 98.7219 223.934 99.1851 223.615 99.5616L224.824 99.2972L225.205 101.039L216.883 102.86L216.501 101.118L217.74 100.847C217.283 100.64 216.869 100.313 216.497 99.8655C216.124 99.418 215.868 98.871 215.726 98.2249C215.569 97.508 215.607 96.8122 215.839 96.1372C216.081 95.4601 216.491 94.8731 217.068 94.3766C217.658 93.888 218.37 93.5522 219.206 93.3694ZM220.67 100.206C221.244 100.08 221.716 99.8502 222.086 99.5154C222.458 99.1907 222.713 98.8123 222.85 98.3801C222.988 97.948 223.008 97.5097 222.911 97.0655C222.814 96.6213 222.612 96.2315 222.307 95.8964C222.012 95.559 221.626 95.3153 221.15 95.1656C220.686 95.0237 220.168 95.0155 219.594 95.1411C219.02 95.2667 218.542 95.493 218.159 95.8199C217.779 96.1569 217.516 96.5426 217.368 96.977C217.233 97.4192 217.212 97.8573 217.307 98.2915C217.405 98.7357 217.606 99.1255 217.911 99.4607C218.217 99.7959 218.606 100.033 219.08 100.173C219.566 100.321 220.096 100.332 220.67 100.206Z" fill="#9400D3"/>
<path d="M224.87 105.298C225.348 105.458 225.749 105.719 226.071 106.083C226.405 106.454 226.635 106.927 226.761 107.503L224.979 107.893L224.883 107.453C224.735 106.777 224.451 106.299 224.031 106.021C223.614 105.753 222.982 105.711 222.137 105.896L217.757 106.854L217.379 105.128L225.701 103.307L226.079 105.033L224.87 105.298Z" fill="#9400D3"/>
<path d="M226.009 111.441L221.402 112.449C221.09 112.517 220.879 112.637 220.769 112.81C220.671 112.99 220.661 113.256 220.738 113.61L220.97 114.67L219.535 114.984L219.237 113.621C219.067 112.844 219.118 112.208 219.39 111.715C219.662 111.222 220.205 110.886 221.021 110.707L225.628 109.699L225.412 108.715L226.817 108.408L227.032 109.392L229.102 108.939L229.483 110.681L227.413 111.134L227.857 113.163L226.453 113.47L226.009 111.441Z" fill="#9400D3"/>
<path d="M229.286 119.04C229.425 119.676 229.413 120.271 229.249 120.825C229.088 121.39 228.771 121.871 228.299 122.271C227.83 122.68 227.217 122.968 226.462 123.133L221.553 124.207L221.179 122.496L225.831 121.478C226.576 121.315 227.104 121.004 227.415 120.544C227.736 120.083 227.826 119.529 227.685 118.882C227.543 118.236 227.229 117.766 226.743 117.47C226.268 117.182 225.658 117.12 224.913 117.283L220.261 118.301L219.883 116.574L231.06 114.129L231.438 115.855L227.617 116.691C228.033 116.907 228.386 117.216 228.674 117.619C228.965 118.031 229.169 118.505 229.286 119.04Z" fill="#9400D3"/>
<path d="M226.108 124.914C226.944 124.731 227.721 124.741 228.441 124.943C229.163 125.156 229.765 125.521 230.248 126.04C230.743 126.566 231.07 127.193 231.229 127.92C231.372 128.576 231.366 129.175 231.21 129.717C231.067 130.267 230.836 130.73 230.517 131.106L231.726 130.842L232.107 132.584L223.785 134.405L223.403 132.663L224.642 132.392C224.185 132.185 223.771 131.858 223.399 131.41C223.026 130.963 222.77 130.416 222.628 129.77C222.471 129.053 222.509 128.357 222.741 127.682C222.983 127.005 223.393 126.418 223.97 125.921C224.56 125.433 225.272 125.097 226.108 124.914ZM227.572 131.751C228.146 131.625 228.618 131.395 228.988 131.06C229.36 130.736 229.615 130.357 229.752 129.925C229.89 129.493 229.91 129.055 229.813 128.611C229.716 128.166 229.514 127.777 229.209 127.441C228.914 127.104 228.528 126.86 228.052 126.711C227.588 126.569 227.07 126.561 226.496 126.686C225.922 126.812 225.444 127.038 225.061 127.365C224.681 127.702 224.418 128.088 224.27 128.522C224.135 128.964 224.114 129.402 224.209 129.837C224.307 130.281 224.508 130.671 224.813 131.006C225.119 131.341 225.508 131.578 225.982 131.718C226.468 131.866 226.998 131.876 227.572 131.751Z" fill="#9400D3"/>
<path d="M222.464 134.693L213.577 94.0719L213.754 94.0332L222.641 134.654L222.464 134.693Z" fill="white"/>
<path d="M215.697 134.48C215.626 134.156 215.62 133.851 215.677 133.567C215.742 133.286 215.857 133.05 216.024 132.856C216.195 132.662 216.405 132.533 216.652 132.468L216.845 133.351C216.674 133.404 216.545 133.518 216.458 133.694C216.377 133.874 216.362 134.078 216.412 134.308C216.464 134.547 216.549 134.722 216.668 134.832C216.792 134.946 216.926 134.987 217.071 134.955C217.225 134.921 217.324 134.822 217.366 134.656C217.409 134.495 217.44 134.245 217.46 133.906C217.478 133.578 217.505 133.308 217.542 133.096C217.579 132.884 217.664 132.688 217.797 132.508C217.931 132.332 218.133 132.215 218.402 132.156C218.622 132.108 218.835 132.129 219.043 132.219C219.256 132.309 219.441 132.461 219.598 132.678C219.756 132.899 219.87 133.167 219.938 133.481C220.041 133.95 220.004 134.353 219.827 134.689C219.655 135.03 219.368 135.255 218.963 135.364L218.776 134.512C218.958 134.456 219.088 134.349 219.169 134.191C219.249 134.032 219.264 133.838 219.214 133.609C219.165 133.384 219.085 133.221 218.974 133.12C218.863 133.019 218.737 132.984 218.598 133.014C218.488 133.038 218.405 133.098 218.347 133.195C218.29 133.291 218.251 133.401 218.232 133.526C218.217 133.649 218.201 133.83 218.186 134.069C218.171 134.385 218.143 134.648 218.099 134.856C218.062 135.068 217.979 135.261 217.85 135.435C217.721 135.61 217.525 135.729 217.262 135.791C217.027 135.843 216.804 135.824 216.591 135.734C216.378 135.645 216.193 135.492 216.036 135.276C215.88 135.064 215.767 134.799 215.697 134.48Z" fill="white"/>
<path d="M216.345 127.16C216.759 127.07 217.144 127.074 217.5 127.174C217.858 127.279 218.156 127.459 218.395 127.715C218.64 127.975 218.802 128.287 218.882 128.651C218.941 128.921 218.939 129.198 218.876 129.483C218.819 129.773 218.71 130.016 218.55 130.213L220.539 129.778L220.727 130.638L215.192 131.849L215.004 130.989L215.625 130.853C215.395 130.757 215.188 130.599 215.003 130.378C214.82 130.162 214.694 129.894 214.624 129.575C214.545 129.216 214.563 128.867 214.677 128.529C214.797 128.194 215 127.904 215.286 127.659C215.578 127.417 215.931 127.251 216.345 127.16ZM217.068 130.537C217.353 130.475 217.586 130.361 217.77 130.196C217.954 130.035 218.08 129.848 218.149 129.635C218.217 129.421 218.227 129.205 218.179 128.985C218.131 128.766 218.031 128.573 217.88 128.408C217.734 128.241 217.543 128.121 217.307 128.047C217.078 127.977 216.821 127.973 216.537 128.036C216.252 128.098 216.016 128.21 215.826 128.371C215.638 128.538 215.507 128.729 215.434 128.943C215.367 129.162 215.357 129.378 215.404 129.593C215.452 129.812 215.551 130.004 215.703 130.17C215.854 130.335 216.047 130.453 216.281 130.522C216.522 130.594 216.784 130.6 217.068 130.537Z" fill="white"/>
<path d="M217.409 125.11C217.646 125.189 217.844 125.318 218.003 125.497C218.169 125.68 218.283 125.914 218.345 126.198L217.462 126.391L217.415 126.175C217.342 125.84 217.201 125.605 216.994 125.467C216.787 125.335 216.474 125.314 216.055 125.406L213.886 125.881L213.699 125.028L217.821 124.126L218.008 124.979L217.409 125.11Z" fill="white"/>
<path d="M214.608 119.219C215.022 119.129 215.407 119.133 215.763 119.233C216.12 119.338 216.418 119.518 216.657 119.774C216.902 120.034 217.064 120.344 217.143 120.703C217.213 121.027 217.21 121.323 217.133 121.591C217.062 121.862 216.947 122.091 216.789 122.277L217.388 122.146L217.576 123.006L213.454 123.908L213.266 123.048L213.88 122.914C213.653 122.812 213.448 122.65 213.264 122.429C213.08 122.208 212.953 121.938 212.883 121.619C212.806 121.265 212.824 120.921 212.94 120.588C213.06 120.253 213.263 119.963 213.549 119.718C213.841 119.476 214.194 119.31 214.608 119.219ZM215.331 122.596C215.615 122.534 215.849 122.42 216.032 122.255C216.216 122.094 216.343 121.907 216.411 121.694C216.479 121.48 216.489 121.264 216.441 121.044C216.393 120.825 216.294 120.632 216.143 120.467C215.996 120.3 215.805 120.18 215.57 120.106C215.34 120.036 215.083 120.032 214.799 120.095C214.515 120.157 214.278 120.269 214.089 120.43C213.9 120.597 213.77 120.787 213.696 121.002C213.629 121.221 213.619 121.437 213.666 121.651C213.714 121.871 213.814 122.063 213.965 122.229C214.116 122.394 214.309 122.512 214.543 122.58C214.784 122.653 215.047 122.658 215.331 122.596Z" fill="white"/>
<path d="M213.873 113.317C214.382 113.206 214.864 113.223 215.319 113.369C215.775 113.52 216.16 113.773 216.472 114.128C216.791 114.487 217.004 114.908 217.109 115.392C217.231 115.945 217.201 116.467 217.02 116.956C216.846 117.448 216.531 117.847 216.075 118.15L215.85 117.125C216.095 116.931 216.259 116.699 216.341 116.43C216.423 116.161 216.43 115.87 216.361 115.556C216.286 115.211 216.142 114.922 215.928 114.686C215.715 114.451 215.446 114.287 215.123 114.196C214.801 114.11 214.448 114.109 214.064 114.193C213.68 114.277 213.36 114.425 213.104 114.638C212.848 114.856 212.67 115.117 212.57 115.421C212.474 115.724 212.464 116.048 212.539 116.392C212.608 116.706 212.736 116.968 212.923 117.178C213.11 117.388 213.355 117.53 213.659 117.605L213.883 118.63C213.342 118.544 212.889 118.314 212.525 117.939C212.162 117.569 211.92 117.107 211.798 116.554C211.691 116.065 211.706 115.594 211.842 115.141C211.983 114.687 212.229 114.296 212.581 113.968C212.934 113.646 213.364 113.429 213.873 113.317Z" fill="white"/>
</g>
<rect x="221.756" y="71.0977" width="19.2678" height="19.2675" rx="1" transform="rotate(77.6587 221.756 71.0977)" fill="#9400D3"/>
<path d="M211.189 85.0727C212.61 86.6077 214.375 87.0101 215.02 87.1213C215.351 87.1783 215.605 87.1962 215.874 87.2152C216.227 87.2402 216.563 87.2466 216.879 87.2405L217.817 87.0352C219.163 86.7408 220.118 86.0998 220.686 85.1136C221.252 84.126 221.357 82.8093 220.997 81.1641C220.747 80.0213 220.325 79.0888 219.734 78.3644C220.052 78.9769 220.622 80.2269 220.408 81.746C220.34 82.2289 220.239 82.9506 219.684 83.5716C219.313 83.9875 218.887 84.1915 218.482 84.3858C218.167 84.5367 217.866 84.6451 217.592 84.7238C217.578 84.7299 217.563 84.7359 217.55 84.7412C217.034 84.8881 216.497 85.029 215.941 85.1612C214.897 85.4094 213.899 85.6005 212.953 85.747C212.555 85.6369 211.923 85.4025 211.314 84.8787C211.11 84.7024 210.923 84.5053 210.754 84.2874C210.368 83.79 210.082 83.3001 209.896 82.8176C209.962 83.0747 210.05 83.3259 210.162 83.5665C210.495 84.2802 210.883 84.742 211.189 85.0727Z" fill="url(#paint1_linear_6353_6395)"/>
<path d="M219.702 83.605C220.26 82.9828 220.362 82.2602 220.431 81.7768C220.647 80.2559 220.075 79.0051 219.756 78.3922C219.572 78.1671 219.371 77.9616 219.154 77.7768C218.537 77.2536 217.944 77.0404 217.791 76.9858C216.769 76.6213 215.833 76.7281 215.309 76.8433C215.082 76.8933 214.898 76.9526 214.772 76.9973C214.892 77.0732 215.062 77.192 215.241 77.3633C215.56 77.6694 215.741 77.9822 215.897 78.2885C216.347 79.1758 216.671 80.1839 216.78 80.5352C216.834 80.6753 216.915 80.8396 217.035 81.0084C217.323 81.4144 217.686 81.6292 217.903 81.7341C217.54 81.2597 217.369 80.6481 217.424 80.0538C217.439 79.8991 217.489 79.7198 217.635 79.6658C217.738 79.6276 217.853 79.6678 217.952 79.7145C217.967 79.7215 217.981 79.7295 217.995 79.7368C218.016 79.7519 218.037 79.7668 218.057 79.7826C218.695 80.2871 218.898 81.1088 218.994 81.6376C219.097 82.1996 219.244 83.0069 218.768 83.7814C218.409 84.3662 217.873 84.6438 217.597 84.7602C217.872 84.6812 218.175 84.5725 218.492 84.4211C218.899 84.2263 219.328 84.0217 219.702 83.605Z" fill="url(#paint2_linear_6353_6395)"/>
<path d="M210.321 78.6189C211.169 78.6702 211.937 79.1879 212.464 79.8542C212.777 80.2497 213.016 80.6945 213.216 81.1589C213.4 81.519 213.542 81.9104 213.695 82.2463C214.26 83.484 214.57 84.0052 215.07 84.4205C215.281 84.5958 215.518 84.7451 215.825 84.8163C216.327 84.9323 216.757 84.7797 216.952 84.6953C216.776 84.5295 216.598 84.2798 216.418 83.9444C216.022 83.2077 215.633 82.3313 215.255 81.3167C214.687 79.7941 213.984 78.7311 213.147 78.1311C211.942 77.2671 210.141 77.2588 208.938 78.1347C208.371 78.5473 207.998 79.097 207.776 79.7104C208.061 79.4335 208.384 79.196 208.734 79.0092C209.221 78.7497 209.77 78.5856 210.321 78.6189Z" fill="url(#paint3_linear_6353_6395)"/>
<path d="M210.184 88.9283C210.352 88.8156 210.593 88.7342 211.068 88.5759C211.329 88.4889 211.547 88.4235 211.698 88.38L216.9 87.2418C216.586 87.2478 216.252 87.2413 215.9 87.2163C215.632 87.1973 215.38 87.1794 215.051 87.1225C214.409 87.0116 212.652 86.6101 211.237 85.0804C210.932 84.7509 210.546 84.2907 210.215 83.5794C210.104 83.3397 210.015 83.0894 209.95 82.8331C209.873 82.6337 209.813 82.4356 209.77 82.2388C209.578 81.3625 209.778 80.4406 210.631 79.9925C211.261 79.6621 212.12 79.7563 212.663 80.2208C212.902 80.4251 213.082 80.7002 213.233 80.9966C213.034 80.5339 212.796 80.0908 212.485 79.6967C211.96 79.0327 211.196 78.5167 210.353 78.4653C209.805 78.432 209.259 78.5951 208.775 78.8534C208.427 79.0393 208.106 79.2758 207.824 79.5515C207.497 80.4587 207.505 81.5059 207.712 82.4546C207.892 83.2742 208.211 84.0247 208.673 84.7057C209.132 85.3853 209.717 85.922 210.427 86.314C210.196 86.4251 209.704 86.7036 209.394 87.2742C208.751 88.4539 209.513 89.7259 209.551 89.7873C209.741 89.2775 210.018 89.0396 210.184 88.9283Z" fill="url(#paint4_linear_6353_6395)"/>
</g>
<g filter="url(#filter0_f_6353_6395)">
<rect width="244.571" height="322.002" rx="21.7692" transform="matrix(1 0 -0.22937 0.973339 144.858 140)" fill="#1F1F1F" fill-opacity="0.4"/>
</g>
<g clip-path="url(#clip2_6353_6395)">
<rect width="230.39" height="322.002" rx="21.7692" transform="matrix(1 0 -0.22937 0.973339 151.921 125)" fill="url(#paint5_radial_6353_6395)"/>
<path d="M112.604 384.652L113.517 380.778L127.988 386.743L127.075 390.617L112.604 384.652Z" fill="white"/>
<path d="M129.326 381.062L119.851 374.929L122.184 375.016L129.267 375.311C129.267 375.311 130.644 375.467 131.04 373.787L132.479 367.679L132.243 367.548C131.543 368.892 130.64 370.122 129.565 371.195L115.706 371.485L114.755 375.523L128.343 385.231L129.326 381.062Z" fill="white"/>
<path d="M107.101 407.996L106.262 411.556L122.034 411.998L122.769 408.881C122.887 408.51 122.883 408.111 122.757 407.742C122.63 407.373 122.389 407.053 122.067 406.828L109.512 397.767L108.559 401.808L110.605 403.131L109.441 408.068L107.101 407.996ZM113.426 404.985L118.578 408.351L112.676 408.167L113.426 404.985Z" fill="white"/>
<path d="M120.865 400.762L123.953 402.074C124.626 401.052 125.129 399.929 125.442 398.747C125.896 396.824 126.123 392.057 121.991 391.083C118.104 390.167 116.792 395.515 114.752 395.035C112.712 394.554 114.211 389.834 115.857 388.545L112.633 387.176C111.718 388.423 111.076 389.846 110.748 391.355C110.125 393.999 110.569 398.315 114.335 399.202C118.246 400.124 119.887 394.803 121.585 395.203C123.283 395.603 122.181 399.324 120.865 400.762Z" fill="white"/>
<path d="M122.18 375.015L129.267 375.311C129.267 375.311 130.644 375.467 131.04 373.787L132.479 367.679L132.243 367.548C131.205 369.524 129.747 371.252 127.97 372.614C126.291 373.909 124.293 374.738 122.18 375.015Z" fill="#FFA458"/>
<path d="M162.972 155.375C163.134 154.687 163.423 154.08 163.839 153.552C164.256 153.025 164.762 152.611 165.357 152.31C165.956 152.014 166.612 151.865 167.323 151.865H173.126L172.87 152.978H167.156C166.724 152.978 166.331 153.048 165.976 153.188C165.625 153.332 165.315 153.521 165.048 153.756C164.781 153.991 164.562 154.249 164.39 154.529C164.222 154.813 164.104 155.095 164.038 155.375C163.971 155.66 163.957 155.944 163.996 156.228C164.035 156.513 164.131 156.77 164.284 157.001C164.44 157.236 164.663 157.423 164.951 157.563C165.24 157.703 165.598 157.773 166.026 157.773H171.74L171.478 158.886H165.668C164.961 158.886 164.379 158.735 163.921 158.435C163.461 158.138 163.148 157.726 162.98 157.199C162.812 156.671 162.809 156.064 162.972 155.375ZM160.964 163.895C161.113 163.264 161.357 162.696 161.696 162.189C162.035 161.686 162.446 161.27 162.93 160.94C163.417 160.615 163.952 160.403 164.534 160.304L164.45 161.441C163.841 161.585 163.319 161.884 162.887 162.337C162.457 162.794 162.17 163.332 162.024 163.95C161.93 164.35 161.908 164.71 161.96 165.032C162.014 165.357 162.14 165.615 162.336 165.804C162.533 165.994 162.796 166.088 163.126 166.088C163.33 166.088 163.511 166.053 163.672 165.983C163.836 165.917 163.982 165.825 164.112 165.705C164.245 165.59 164.365 165.458 164.472 165.31C164.579 165.161 164.674 165.007 164.759 164.846L165.985 162.578C166.12 162.331 166.271 162.092 166.44 161.861C166.613 161.631 166.808 161.425 167.024 161.243C167.244 161.062 167.49 160.918 167.761 160.811C168.036 160.704 168.342 160.65 168.681 160.65C169.223 160.65 169.652 160.786 169.969 161.058C170.289 161.334 170.496 161.707 170.588 162.176C170.681 162.646 170.655 163.176 170.512 163.765C170.367 164.362 170.131 164.896 169.805 165.365C169.482 165.839 169.085 166.231 168.614 166.54C168.142 166.853 167.616 167.063 167.037 167.17L167.102 166.002C167.49 165.94 167.842 165.802 168.159 165.588C168.479 165.378 168.749 165.114 168.967 164.797C169.19 164.48 169.349 164.131 169.442 163.752C169.532 163.39 169.55 163.062 169.496 162.77C169.442 162.477 169.326 162.244 169.146 162.071C168.971 161.898 168.742 161.812 168.458 161.812C168.179 161.812 167.934 161.89 167.723 162.047C167.517 162.203 167.337 162.395 167.182 162.621C167.03 162.852 166.897 163.077 166.782 163.295L165.881 164.988C165.78 165.182 165.652 165.405 165.495 165.656C165.338 165.911 165.142 166.158 164.908 166.397C164.678 166.636 164.398 166.834 164.069 166.991C163.745 167.147 163.362 167.226 162.922 167.226C162.482 167.226 162.111 167.139 161.808 166.966C161.505 166.797 161.273 166.56 161.112 166.255C160.956 165.95 160.866 165.596 160.842 165.192C160.815 164.789 160.855 164.356 160.964 163.895ZM159.948 169.016H169.091L168.444 171.76C168.423 171.851 168.383 172.01 168.325 172.236C168.268 172.463 168.2 172.679 168.122 172.885C167.866 173.573 167.473 174.148 166.941 174.609C166.412 175.075 165.796 175.425 165.093 175.66C164.39 175.895 163.649 176.012 162.87 176.012C162.092 176.012 161.406 175.895 160.814 175.66C160.221 175.425 159.769 175.075 159.455 174.609C159.145 174.148 159.024 173.573 159.093 172.885C159.116 172.679 159.151 172.461 159.197 172.23C159.246 172.003 159.281 171.847 159.301 171.76L159.948 169.016ZM160.76 170.147L160.38 171.76C160.343 171.917 160.306 172.092 160.269 172.286C160.236 172.479 160.215 172.648 160.207 172.792C160.185 173.279 160.302 173.672 160.557 173.973C160.812 174.274 161.167 174.494 161.621 174.634C162.074 174.774 162.583 174.844 163.146 174.844C163.721 174.844 164.27 174.772 164.79 174.628C165.31 174.488 165.766 174.267 166.159 173.967C166.551 173.666 166.849 173.274 167.052 172.792C167.115 172.648 167.174 172.477 167.23 172.279C167.285 172.082 167.33 171.909 167.365 171.76L167.745 170.147H160.76Z" fill="white"/>
<path d="M180.05 155.468C180.259 154.582 180.636 153.835 181.182 153.225C181.732 152.615 182.402 152.154 183.191 151.84C183.98 151.527 184.842 151.371 185.778 151.371C186.713 151.371 187.502 151.527 188.143 151.84C188.785 152.154 189.235 152.615 189.493 153.225C189.756 153.835 189.783 154.582 189.574 155.468C189.331 156.502 188.859 157.347 188.158 158.002C187.462 158.657 186.628 159.106 185.656 159.349L185.627 158.422C186.396 158.233 187.049 157.893 187.588 157.403C188.127 156.912 188.491 156.267 188.679 155.468C188.843 154.772 188.817 154.193 188.599 153.732C188.382 153.27 188.009 152.922 187.48 152.687C186.955 152.456 186.312 152.337 185.552 152.329C184.791 152.325 184.094 152.438 183.459 152.669C182.824 152.903 182.286 153.254 181.847 153.719C181.41 154.189 181.11 154.772 180.946 155.468C180.757 156.267 180.817 156.912 181.125 157.403C181.437 157.893 181.93 158.233 182.605 158.422L182.139 159.349C181.282 159.106 180.658 158.657 180.266 158.002C179.878 157.347 179.807 156.502 180.05 155.468ZM178.115 163.76C178.21 163.36 178.356 163.01 178.553 162.709C178.75 162.412 178.982 162.159 179.247 161.949C179.511 161.743 179.796 161.576 180.101 161.448C180.411 161.321 180.727 161.228 181.049 161.17C181.376 161.112 181.694 161.084 182.003 161.084H185.775L185.559 161.998H182.061C181.684 161.998 181.327 162.033 180.988 162.103C180.65 162.173 180.342 162.285 180.065 162.437C179.791 162.594 179.56 162.793 179.372 163.037C179.182 163.284 179.046 163.582 178.964 163.933C178.888 164.254 178.878 164.536 178.935 164.779C178.992 165.027 179.106 165.233 179.279 165.397C179.455 165.566 179.685 165.694 179.969 165.78C180.258 165.867 180.595 165.91 180.98 165.91L180.683 166.553C179.98 166.553 179.418 166.434 178.996 166.195C178.574 165.956 178.289 165.626 178.143 165.206C177.996 164.785 177.987 164.303 178.115 163.76ZM177.758 166.003H179.447L179.469 165.91H184.637L184.423 166.819H177.566L177.758 166.003ZM177.042 169.04H183.9L183.707 169.856H182.057L182.31 169.696C182.496 169.77 182.66 169.867 182.801 169.986C182.946 170.106 183.057 170.235 183.134 170.375C183.25 170.548 183.321 170.75 183.347 170.981C183.377 171.212 183.371 171.445 183.329 171.679C183.29 171.914 183.223 172.128 183.126 172.322H182.25C182.371 172.079 182.448 171.813 182.482 171.525C182.517 171.236 182.461 170.971 182.315 170.728C182.189 170.505 182.015 170.338 181.791 170.227C181.572 170.116 181.327 170.042 181.057 170.005C180.79 169.967 180.522 169.949 180.251 169.949H176.828L177.042 169.04ZM175.876 173.989H182.734L182.541 174.805H180.891L181.144 174.644C181.33 174.718 181.493 174.815 181.635 174.934C181.78 175.054 181.891 175.184 181.968 175.324C182.084 175.497 182.155 175.699 182.181 175.929C182.211 176.16 182.205 176.393 182.163 176.628C182.124 176.863 182.057 177.077 181.96 177.27H181.084C181.205 177.027 181.282 176.762 181.316 176.473C181.35 176.185 181.295 175.919 181.149 175.676C181.023 175.454 180.849 175.287 180.625 175.175C180.406 175.064 180.161 174.99 179.89 174.953C179.624 174.916 179.355 174.897 179.085 174.897H175.662L175.876 173.989ZM173.883 181.641C174.036 180.99 174.317 180.425 174.726 179.948C175.134 179.474 175.638 179.105 176.238 178.841C176.837 178.578 177.499 178.446 178.223 178.446C178.972 178.446 179.589 178.576 180.074 178.835C180.559 179.095 180.894 179.459 181.08 179.929C181.264 180.403 181.281 180.961 181.13 181.604C180.974 182.263 180.685 182.825 180.262 183.291C179.843 183.756 179.316 184.109 178.68 184.348C178.044 184.587 177.326 184.696 176.526 184.675L176.745 183.748H177.075C177.968 183.732 178.683 183.544 179.22 183.186C179.757 182.832 180.105 182.312 180.267 181.628C180.436 180.912 180.326 180.362 179.938 179.978C179.549 179.599 178.912 179.41 178.027 179.41C177.164 179.41 176.448 179.599 175.881 179.978C175.316 180.362 174.952 180.903 174.787 181.604C174.674 182.082 174.688 182.498 174.829 182.852C174.973 183.211 175.235 183.493 175.614 183.699L175.078 184.545C174.543 184.282 174.171 183.892 173.962 183.377C173.757 182.867 173.73 182.288 173.883 181.641ZM177.843 179.088H178.624L177.422 184.187H176.641L177.843 179.088ZM171.825 191.181H175.324C175.704 191.181 176.062 191.146 176.396 191.075C176.734 191.005 177.04 190.892 177.314 190.736C177.591 190.583 177.825 190.383 178.014 190.136C178.203 189.893 178.338 189.596 178.421 189.246C178.496 188.925 178.506 188.641 178.45 188.393C178.393 188.15 178.277 187.944 178.101 187.775C177.928 187.611 177.699 187.485 177.415 187.398C177.13 187.312 176.794 187.269 176.404 187.269L176.702 186.626C177.404 186.626 177.967 186.745 178.389 186.984C178.811 187.223 179.095 187.553 179.241 187.973C179.388 188.393 179.397 188.875 179.269 189.419C179.175 189.819 179.029 190.167 178.832 190.464C178.634 190.764 178.403 191.018 178.139 191.224C177.873 191.434 177.586 191.603 177.276 191.731C176.971 191.858 176.655 191.951 176.328 192.009C176.006 192.066 175.69 192.095 175.381 192.095H171.609L171.825 191.181ZM172.962 186.354H179.82L179.626 187.176H177.937L177.915 187.269H172.747L172.962 186.354ZM170.281 196.926C170.439 196.254 170.727 195.686 171.146 195.22C171.565 194.755 172.074 194.4 172.673 194.157C173.275 193.918 173.931 193.795 174.64 193.786C175.357 193.795 175.958 193.922 176.441 194.169C176.929 194.417 177.269 194.773 177.459 195.239C177.654 195.704 177.674 196.269 177.517 196.932C177.358 197.608 177.051 198.195 176.594 198.693C176.137 199.196 175.593 199.54 174.961 199.725L174.878 198.835C175.326 198.679 175.702 198.43 176.007 198.088C176.315 197.75 176.521 197.363 176.624 196.926C176.739 196.435 176.718 196.03 176.561 195.708C176.409 195.387 176.145 195.148 175.772 194.991C175.398 194.835 174.945 194.755 174.412 194.75C173.589 194.759 172.885 194.944 172.3 195.307C171.72 195.669 171.345 196.209 171.176 196.926C171.069 197.379 171.084 197.764 171.221 198.081C171.361 198.403 171.617 198.646 171.989 198.811L171.494 199.725C170.943 199.478 170.563 199.116 170.353 198.638C170.149 198.16 170.124 197.589 170.281 196.926ZM166.179 202.206L169.475 203.497L168.404 203.516L176.464 200.593L176.237 201.557L169.507 203.955L169.6 203.559L175.244 205.772L175.025 206.699L165.965 203.114L166.179 202.206Z" fill="white"/>
<path d="M262.863 151.701H264.527L263.763 154.94H252.099L252.522 153.149H262.522L262.863 151.701ZM253.774 158.36C254.424 159.357 254.965 160.141 255.395 160.712C255.834 161.293 256.318 161.776 256.846 162.16C257.374 162.544 257.948 162.736 258.566 162.736C259.206 162.736 259.743 162.586 260.177 162.285C260.608 161.994 260.898 161.532 261.047 160.899C261.192 160.286 261.102 159.808 260.777 159.466C260.461 159.134 259.969 158.957 259.302 158.936L259.705 157.223C260.914 157.254 261.759 157.607 262.24 158.282C262.729 158.968 262.85 159.834 262.603 160.883C262.336 162.015 261.808 162.897 261.019 163.531C260.227 164.174 259.298 164.496 258.232 164.496C257.464 164.496 256.767 164.304 256.143 163.92C255.527 163.546 254.999 163.094 254.559 162.565C254.126 162.046 253.638 161.381 253.092 160.572L252.618 159.871L251.454 164.808H249.934L251.718 157.239H253.046L253.774 158.36ZM258.198 166.336C259.175 166.398 259.862 166.767 260.257 167.442C260.651 168.127 260.722 168.999 260.473 170.058C260.302 170.785 260.02 171.413 259.629 171.942C259.237 172.472 258.78 172.872 258.258 173.142C257.736 173.412 257.187 173.547 256.611 173.547C255.949 173.547 255.424 173.375 255.036 173.033C254.647 172.69 254.429 172.28 254.382 171.802H254.318C253.981 172.415 253.517 172.892 252.924 173.235C252.342 173.578 251.656 173.749 250.867 173.749C250.238 173.749 249.711 173.609 249.286 173.329C248.862 173.048 248.57 172.633 248.412 172.083C248.264 171.532 248.281 170.873 248.462 170.105C248.726 168.984 249.237 168.06 249.995 167.333C250.761 166.616 251.705 166.232 252.827 166.18L252.423 167.893C251.848 167.935 251.334 168.148 250.881 168.532C250.438 168.916 250.14 169.435 249.986 170.089C249.836 170.723 249.897 171.211 250.169 171.553C250.45 171.896 250.874 172.067 251.439 172.067C252.186 172.067 252.769 171.833 253.189 171.366C253.616 170.909 253.943 170.203 254.168 169.248L254.263 168.843H255.767L255.668 169.264C255.481 170.105 255.474 170.743 255.649 171.179C255.821 171.626 256.205 171.849 256.803 171.849C257.315 171.849 257.758 171.688 258.133 171.366C258.518 171.044 258.78 170.588 258.92 169.996C259.057 169.414 259.008 168.963 258.775 168.641C258.552 168.319 258.224 168.127 257.791 168.065L258.198 166.336ZM249.711 175.396H251.087L257.566 180.629L257.059 182.778H249.555L249.214 184.226H247.63L247.971 182.778H245.539L245.95 181.033H248.382L249.711 175.396ZM255.596 181.111L250.814 177.436L249.948 181.111H255.596ZM252.269 197.062L253.499 191.845H250.315C250.562 192.063 250.737 192.385 250.839 192.811C250.939 193.247 250.932 193.709 250.817 194.197C250.611 195.069 250.253 195.775 249.741 196.315C249.228 196.865 248.651 197.254 248.01 197.483C247.367 197.721 246.72 197.841 246.07 197.841C245.28 197.841 244.612 197.69 244.064 197.389C243.525 197.098 243.149 196.657 242.936 196.065C242.721 195.484 242.714 194.768 242.915 193.916C243.181 192.785 243.683 191.876 244.421 191.191C245.158 190.506 246.018 190.096 246.999 189.961L246.591 191.689C246.063 191.803 245.603 192.058 245.212 192.452C244.831 192.847 244.57 193.34 244.431 193.932C244.257 194.669 244.357 195.219 244.73 195.583C245.101 195.956 245.664 196.143 246.422 196.143C247.19 196.143 247.821 195.956 248.314 195.583C248.818 195.209 249.156 194.659 249.327 193.932C249.447 193.423 249.415 192.992 249.232 192.639C249.056 192.297 248.763 192.047 248.352 191.892L248.748 190.21H255.484L253.869 197.062H252.269ZM249.076 205.794C249.593 205.679 250.01 205.472 250.326 205.171C250.643 204.87 250.865 204.449 250.992 203.909C251.185 203.089 251.004 202.477 250.449 202.072C249.904 201.667 248.888 201.454 247.399 201.433C247.805 201.703 248.075 202.098 248.208 202.617C248.342 203.136 248.338 203.696 248.196 204.299C248.035 204.984 247.738 205.586 247.306 206.105C246.883 206.635 246.349 207.045 245.704 207.335C245.057 207.636 244.334 207.787 243.534 207.787C242.787 207.787 242.155 207.642 241.637 207.351C241.116 207.071 240.751 206.65 240.542 206.09C240.343 205.529 240.337 204.854 240.523 204.065C240.775 202.996 241.213 202.155 241.838 201.542C242.47 200.94 243.258 200.514 244.202 200.265C245.144 200.026 246.276 199.907 247.599 199.907C251.503 199.907 253.139 201.246 252.508 203.925C252.263 204.963 251.783 205.778 251.068 206.37C250.35 206.972 249.557 207.325 248.69 207.429L249.076 205.794ZM246.752 203.909C246.901 203.276 246.831 202.736 246.541 202.29C246.26 201.854 245.752 201.636 245.016 201.636C244.28 201.636 243.645 201.838 243.112 202.243C242.588 202.658 242.239 203.234 242.065 203.972C241.911 204.626 241.998 205.14 242.326 205.513C242.651 205.897 243.161 206.09 243.854 206.09C244.579 206.09 245.199 205.903 245.714 205.529C246.237 205.166 246.583 204.626 246.752 203.909ZM247.76 216.876L238.524 212.546L238.946 210.755L247.979 215.131L249.337 209.369H250.889L249.12 216.876H247.76ZM242.791 220.311C243.6 219.231 244.602 218.691 245.796 218.691C246.372 218.691 246.867 218.831 247.281 219.112C247.695 219.392 247.975 219.812 248.12 220.373C248.276 220.934 248.258 221.619 248.068 222.429C247.879 223.228 247.575 223.908 247.155 224.469C246.743 225.04 246.264 225.466 245.718 225.746C245.172 226.026 244.611 226.166 244.035 226.166C243.437 226.166 242.945 226.016 242.557 225.715C242.178 225.424 241.923 225.035 241.792 224.547C241.429 225.139 240.951 225.606 240.358 225.948C239.776 226.291 239.144 226.462 238.461 226.462C237.768 226.462 237.195 226.291 236.742 225.948C236.29 225.606 235.991 225.128 235.848 224.516C235.704 223.903 235.724 223.207 235.908 222.429C236.091 221.65 236.399 220.954 236.831 220.342C237.261 219.74 237.783 219.267 238.397 218.925C239.011 218.582 239.665 218.411 240.358 218.411C241.052 218.411 241.609 218.582 242.029 218.925C242.45 219.267 242.704 219.729 242.791 220.311ZM244.211 224.469C244.808 224.469 245.31 224.287 245.715 223.924C246.121 223.56 246.398 223.062 246.548 222.429C246.694 221.806 246.651 221.313 246.416 220.949C246.182 220.586 245.761 220.404 245.153 220.404C244.619 220.404 244.138 220.591 243.709 220.965C243.287 221.349 243.007 221.837 242.868 222.429C242.728 223.021 242.784 223.508 243.035 223.893C243.285 224.277 243.677 224.469 244.211 224.469ZM241.492 222.429C241.653 221.744 241.609 221.183 241.36 220.747C241.119 220.321 240.673 220.108 240.022 220.108C239.414 220.108 238.869 220.316 238.388 220.731C237.916 221.147 237.596 221.712 237.428 222.429C237.261 223.135 237.322 223.69 237.611 224.095C237.897 224.51 238.339 224.718 238.936 224.718C239.576 224.718 240.122 224.505 240.575 224.08C241.024 223.664 241.33 223.114 241.492 222.429ZM236.499 234.583C235.942 234.687 235.484 234.91 235.126 235.253C234.767 235.595 234.52 236.057 234.383 236.639C234.209 237.376 234.381 237.916 234.897 238.259C235.414 238.601 236.392 238.772 237.832 238.772C237.528 238.523 237.329 238.17 237.234 237.713C237.147 237.267 237.166 236.779 237.291 236.25C237.45 235.575 237.733 234.962 238.14 234.412C238.557 233.862 239.081 233.426 239.712 233.104C240.351 232.792 241.07 232.637 241.87 232.637C243.043 232.637 243.898 232.969 244.435 233.633C244.98 234.308 245.114 235.232 244.838 236.405C244.505 237.817 243.784 238.819 242.674 239.411C241.572 240.013 240.023 240.314 238.029 240.314C236.653 240.314 235.554 240.2 234.734 239.972C233.91 239.754 233.339 239.369 233.021 238.819C232.703 238.269 232.659 237.506 232.889 236.53C233.15 235.419 233.651 234.562 234.39 233.96C235.129 233.358 235.961 233.021 236.885 232.948L236.499 234.583ZM238.753 236.561C238.606 237.184 238.689 237.672 239 238.025C239.32 238.388 239.81 238.57 240.472 238.57C241.208 238.57 241.824 238.378 242.32 237.994C242.824 237.62 243.153 237.106 243.307 236.452C243.461 235.798 243.37 235.279 243.034 234.895C242.706 234.521 242.201 234.334 241.518 234.334C240.867 234.334 240.286 234.516 239.774 234.879C239.27 235.253 238.929 235.813 238.753 236.561ZM241.578 242.024H243.242L242.479 245.263H230.815L231.237 243.472H241.237L241.578 242.024ZM236.224 247.702C238.069 247.702 239.438 248.003 240.331 248.605C241.232 249.218 241.508 250.266 241.158 251.751C240.808 253.236 240.039 254.279 238.852 254.881C237.673 255.494 236.161 255.8 234.316 255.8C232.449 255.8 231.06 255.494 230.148 254.881C229.245 254.279 228.968 253.236 229.318 251.751C229.668 250.266 230.437 249.218 231.627 248.605C232.825 248.003 234.357 247.702 236.224 247.702ZM234.727 254.056C235.591 254.056 236.335 253.999 236.959 253.885C237.581 253.781 238.117 253.563 238.569 253.23C239.031 252.898 239.34 252.405 239.494 251.751C239.648 251.097 239.572 250.604 239.266 250.271C238.971 249.939 238.539 249.716 237.968 249.602C237.395 249.498 236.677 249.446 235.813 249.446C234.917 249.446 234.153 249.498 233.52 249.602C232.888 249.706 232.346 249.924 231.894 250.256C231.44 250.599 231.136 251.097 230.982 251.751C230.828 252.405 230.898 252.898 231.193 253.23C231.486 253.573 231.924 253.796 232.507 253.9C233.091 254.004 233.831 254.056 234.727 254.056ZM237.944 257.445H239.608L238.845 260.684H227.181L227.603 258.893H237.603L237.944 257.445ZM235.708 266.935H237.372L236.608 270.174H224.944L225.366 268.383H235.366L235.708 266.935ZM226.618 273.594C227.269 274.591 227.809 275.375 228.24 275.946C228.679 276.527 229.163 277.01 229.691 277.394C230.219 277.778 230.792 277.971 231.411 277.971C232.051 277.971 232.588 277.82 233.021 277.519C233.453 277.228 233.743 276.766 233.892 276.133C234.036 275.52 233.946 275.043 233.622 274.7C233.305 274.368 232.814 274.191 232.146 274.171L232.55 272.458C233.759 272.489 234.604 272.842 235.085 273.517C235.574 274.202 235.695 275.069 235.448 276.117C235.181 277.249 234.653 278.131 233.864 278.765C233.072 279.408 232.143 279.73 231.076 279.73C230.308 279.73 229.612 279.538 228.988 279.154C228.372 278.78 227.844 278.329 227.403 277.799C226.971 277.28 226.482 276.616 225.937 275.806L225.462 275.105L224.299 280.042H222.779L224.562 272.473H225.89L226.618 273.594ZM231.043 281.57C232.02 281.633 232.706 282.001 233.102 282.676C233.495 283.361 233.567 284.233 233.318 285.292C233.146 286.019 232.865 286.647 232.474 287.177C232.082 287.706 231.625 288.106 231.103 288.376C230.581 288.646 230.032 288.781 229.456 288.781C228.794 288.781 228.269 288.609 227.881 288.267C227.492 287.924 227.274 287.514 227.227 287.037H227.163C226.826 287.649 226.362 288.127 225.769 288.469C225.187 288.812 224.501 288.983 223.712 288.983C223.082 288.983 222.555 288.843 222.131 288.563C221.706 288.282 221.415 287.867 221.256 287.317C221.109 286.767 221.126 286.107 221.307 285.339C221.571 284.218 222.082 283.294 222.84 282.567C223.606 281.851 224.55 281.466 225.671 281.415L225.268 283.128C224.693 283.169 224.178 283.382 223.725 283.766C223.283 284.15 222.984 284.669 222.83 285.323C222.681 285.957 222.742 286.445 223.013 286.787C223.295 287.13 223.719 287.301 224.284 287.301C225.031 287.301 225.614 287.068 226.033 286.601C226.461 286.144 226.787 285.438 227.012 284.483L227.108 284.078H228.612L228.513 284.498C228.325 285.339 228.319 285.978 228.493 286.414C228.665 286.86 229.05 287.083 229.648 287.083C230.16 287.083 230.603 286.922 230.977 286.601C231.362 286.279 231.625 285.822 231.764 285.23C231.901 284.649 231.853 284.197 231.62 283.875C231.397 283.553 231.069 283.361 230.635 283.299L231.043 281.57ZM222.556 290.63H223.932L230.411 295.863L229.904 298.012H222.4L222.059 299.46H220.475L220.816 298.012H218.384L218.795 296.268H221.227L222.556 290.63ZM228.441 296.346L223.659 292.67L222.793 296.346H228.441Z" fill="white"/>
<g clip-path="url(#clip3_6353_6395)">
<path d="M341.636 174.514C342.469 174.71 343.166 175.055 343.728 175.548C344.287 176.051 344.672 176.641 344.883 177.317C345.102 178.006 345.126 178.713 344.956 179.437C344.802 180.091 344.537 180.628 344.163 181.05C343.796 181.483 343.387 181.801 342.937 182.003L344.141 182.287L343.732 184.022L335.44 182.068L335.849 180.333L337.083 180.624C336.761 180.24 336.528 179.766 336.386 179.201C336.244 178.637 336.249 178.033 336.4 177.389C336.569 176.675 336.903 176.063 337.404 175.555C337.915 175.049 338.539 174.697 339.274 174.498C340.016 174.312 340.804 174.317 341.636 174.514ZM340.003 181.312C340.575 181.446 341.1 181.443 341.578 181.301C342.054 181.169 342.447 180.937 342.758 180.607C343.069 180.277 343.276 179.89 343.381 179.448C343.485 179.005 343.472 178.567 343.341 178.133C343.221 177.701 342.978 177.314 342.614 176.973C342.257 176.645 341.792 176.414 341.22 176.279C340.649 176.144 340.12 176.142 339.634 176.271C339.146 176.411 338.741 176.645 338.42 176.973C338.107 177.313 337.899 177.7 337.797 178.132C337.693 178.575 337.706 179.013 337.837 179.447C337.968 179.882 338.216 180.264 338.583 180.595C338.958 180.938 339.431 181.177 340.003 181.312Z" fill="#9400D3"/>
<path d="M341.59 187.717C341.953 188.068 342.2 188.477 342.334 188.943C342.475 189.423 342.478 189.949 342.343 190.522L340.567 190.104L340.67 189.666C340.829 188.992 340.78 188.439 340.521 188.007C340.261 187.584 339.709 187.274 338.867 187.075L334.503 186.047L334.908 184.327L343.2 186.281L342.795 188.001L341.59 187.717Z" fill="#9400D3"/>
<path d="M339.963 193.748L335.373 192.666C335.062 192.593 334.82 192.61 334.646 192.718C334.48 192.838 334.355 193.074 334.272 193.426L334.024 194.483L332.594 194.146L332.914 192.788C333.096 192.013 333.417 191.462 333.875 191.135C334.334 190.808 334.969 190.74 335.782 190.931L340.372 192.013L340.603 191.032L342.002 191.362L341.771 192.343L343.833 192.828L343.424 194.564L341.362 194.078L340.886 196.1L339.486 195.77L339.963 193.748Z" fill="#9400D3"/>
<path d="M339.635 202.018C339.485 202.651 339.217 203.183 338.83 203.612C338.441 204.051 337.947 204.349 337.349 204.505C336.748 204.671 336.072 204.666 335.319 204.489L330.428 203.336L330.83 201.631L335.465 202.723C336.208 202.898 336.818 202.846 337.297 202.566C337.786 202.288 338.107 201.828 338.258 201.184C338.41 200.54 338.33 199.98 338.019 199.503C337.716 199.038 337.193 198.719 336.45 198.544L331.815 197.451L332.22 195.731L343.357 198.355L342.951 200.076L339.144 199.178C339.426 199.553 339.611 199.984 339.697 200.471C339.781 200.969 339.76 201.484 339.635 202.018Z" fill="#9400D3"/>
<path d="M334.23 205.943C335.063 206.14 335.76 206.484 336.321 206.978C336.88 207.481 337.265 208.071 337.477 208.747C337.696 209.436 337.72 210.142 337.549 210.866C337.395 211.52 337.131 212.058 336.756 212.479C336.389 212.913 335.981 213.231 335.531 213.433L336.735 213.716L336.326 215.452L328.034 213.498L328.443 211.763L329.677 212.053C329.354 211.67 329.122 211.195 328.979 210.631C328.837 210.066 328.842 209.462 328.993 208.819C329.162 208.104 329.496 207.493 329.998 206.985C330.509 206.479 331.132 206.126 331.867 205.928C332.609 205.742 333.397 205.747 334.23 205.943ZM332.596 212.741C333.168 212.876 333.693 212.873 334.171 212.731C334.647 212.598 335.04 212.367 335.351 212.037C335.662 211.707 335.87 211.32 335.974 210.878C336.078 210.435 336.065 209.997 335.934 209.562C335.814 209.13 335.571 208.744 335.207 208.403C334.85 208.075 334.386 207.844 333.814 207.709C333.242 207.574 332.713 207.571 332.227 207.701C331.739 207.841 331.334 208.075 331.013 208.403C330.7 208.743 330.493 209.129 330.391 209.562C330.286 210.005 330.299 210.443 330.43 210.877C330.561 211.311 330.809 211.694 331.176 212.025C331.551 212.368 332.024 212.607 332.596 212.741Z" fill="#9400D3"/>
<path d="M326.719 213.187L336.256 172.714L336.432 172.756L326.895 213.229L326.719 213.187Z" fill="white"/>
<path d="M320.708 210.072C320.784 209.749 320.91 209.472 321.085 209.241C321.264 209.015 321.471 208.852 321.704 208.749C321.943 208.648 322.188 208.622 322.439 208.671L322.232 209.55C322.054 209.524 321.888 209.572 321.734 209.693C321.583 209.82 321.481 209.997 321.427 210.226C321.371 210.465 321.372 210.659 321.431 210.809C321.494 210.966 321.598 211.061 321.742 211.095C321.896 211.131 322.028 211.083 322.137 210.952C322.246 210.825 322.382 210.614 322.547 210.317C322.704 210.029 322.845 209.797 322.97 209.622C323.095 209.447 323.257 209.307 323.455 209.201C323.651 209.101 323.884 209.082 324.152 209.145C324.371 209.197 324.554 209.308 324.703 209.48C324.856 209.652 324.957 209.87 325.005 210.133C325.052 210.401 325.039 210.692 324.965 211.005C324.855 211.472 324.647 211.819 324.342 212.046C324.04 212.279 323.684 212.357 323.272 212.281L323.472 211.432C323.659 211.46 323.823 211.42 323.964 211.312C324.105 211.203 324.203 211.035 324.256 210.806C324.309 210.583 324.307 210.401 324.251 210.262C324.195 210.123 324.097 210.037 323.958 210.004C323.848 209.978 323.747 209.996 323.654 210.058C323.561 210.12 323.478 210.203 323.406 210.307C323.34 210.412 323.248 210.568 323.13 210.777C322.981 211.056 322.841 211.28 322.712 211.449C322.587 211.624 322.429 211.763 322.237 211.864C322.045 211.966 321.817 211.988 321.552 211.931C321.319 211.876 321.125 211.762 320.972 211.59C320.819 211.417 320.718 211.2 320.67 210.937C320.62 210.678 320.633 210.39 320.708 210.072Z" fill="white"/>
<path d="M324.456 203.751C324.868 203.848 325.214 204.019 325.492 204.263C325.769 204.512 325.96 204.803 326.065 205.137C326.173 205.477 326.185 205.829 326.099 206.192C326.036 206.46 325.914 206.709 325.734 206.94C325.558 207.176 325.355 207.348 325.125 207.457L327.107 207.924L326.905 208.781L321.39 207.481L321.592 206.624L322.21 206.77C322.044 206.584 321.926 206.352 321.856 206.073C321.784 205.799 321.785 205.503 321.86 205.185C321.945 204.827 322.111 204.52 322.36 204.264C322.613 204.014 322.922 203.841 323.286 203.743C323.653 203.651 324.044 203.654 324.456 203.751ZM323.649 207.109C323.932 207.176 324.192 207.174 324.429 207.104C324.665 207.039 324.859 206.925 325.013 206.762C325.167 206.599 325.27 206.408 325.321 206.189C325.373 205.971 325.366 205.754 325.301 205.539C325.241 205.326 325.121 205.135 324.94 204.967C324.764 204.804 324.534 204.69 324.25 204.623C323.967 204.556 323.705 204.555 323.465 204.619C323.223 204.688 323.023 204.803 322.864 204.965C322.709 205.133 322.606 205.324 322.556 205.538C322.504 205.756 322.511 205.973 322.576 206.187C322.641 206.402 322.764 206.591 322.946 206.754C323.131 206.924 323.366 207.042 323.649 207.109Z" fill="white"/>
<path d="M326.301 202.361C326.481 202.535 326.603 202.737 326.67 202.967C326.74 203.204 326.742 203.464 326.675 203.747L325.795 203.54L325.846 203.324C325.925 202.991 325.9 202.718 325.772 202.504C325.643 202.295 325.37 202.142 324.952 202.043L322.791 201.534L322.991 200.684L327.098 201.652L326.897 202.502L326.301 202.361Z" fill="white"/>
<path d="M326.32 195.839C326.733 195.936 327.078 196.106 327.356 196.35C327.633 196.599 327.824 196.891 327.929 197.225C328.037 197.565 328.05 197.914 327.965 198.272C327.889 198.595 327.758 198.86 327.573 199.068C327.391 199.283 327.189 199.439 326.967 199.539L327.563 199.68L327.361 200.537L323.254 199.569L323.456 198.712L324.067 198.856C323.907 198.666 323.792 198.432 323.722 198.153C323.651 197.874 323.653 197.576 323.728 197.258C323.811 196.905 323.977 196.603 324.225 196.352C324.478 196.102 324.786 195.928 325.15 195.83C325.518 195.739 325.908 195.742 326.32 195.839ZM325.513 199.197C325.796 199.263 326.056 199.262 326.293 199.192C326.529 199.126 326.724 199.012 326.877 198.849C327.031 198.686 327.134 198.495 327.185 198.277C327.237 198.058 327.23 197.842 327.165 197.627C327.106 197.414 326.985 197.223 326.805 197.054C326.628 196.892 326.398 196.777 326.115 196.711C325.832 196.644 325.57 196.643 325.329 196.707C325.087 196.775 324.887 196.891 324.728 197.053C324.573 197.221 324.471 197.412 324.42 197.625C324.369 197.844 324.375 198.06 324.44 198.275C324.505 198.49 324.628 198.679 324.81 198.842C324.996 199.012 325.23 199.13 325.513 199.197Z" fill="white"/>
<path d="M328.208 190.199C328.715 190.318 329.142 190.542 329.489 190.87C329.835 191.204 330.073 191.598 330.202 192.053C330.334 192.515 330.344 192.986 330.23 193.468C330.1 194.02 329.848 194.477 329.474 194.84C329.104 195.209 328.648 195.432 328.105 195.509L328.346 194.487C328.651 194.418 328.898 194.279 329.089 194.072C329.279 193.866 329.411 193.606 329.485 193.293C329.566 192.95 329.561 192.626 329.47 192.321C329.379 192.017 329.208 191.753 328.956 191.531C328.703 191.315 328.385 191.161 328.002 191.071C327.62 190.981 327.267 190.976 326.943 191.057C326.619 191.143 326.346 191.302 326.123 191.533C325.906 191.765 325.757 192.052 325.676 192.395C325.602 192.708 325.605 193 325.683 193.27C325.76 193.54 325.92 193.774 326.162 193.973L325.921 194.994C325.47 194.683 325.161 194.28 324.995 193.784C324.827 193.294 324.808 192.773 324.938 192.221C325.053 191.734 325.27 191.316 325.588 190.966C325.912 190.617 326.303 190.371 326.761 190.228C327.219 190.089 327.701 190.079 328.208 190.199Z" fill="white"/>
</g>
<rect x="353.56" y="155.531" width="19.2678" height="19.2675" rx="1" transform="rotate(103.26 353.56 155.531)" fill="#9400D3"/>
<path d="M337.991 163.569C338.609 165.567 340.028 166.693 340.561 167.072C340.835 167.266 341.056 167.392 341.29 167.525C341.598 167.701 341.898 167.852 342.186 167.983L343.121 168.203C344.461 168.519 345.6 168.354 346.538 167.71C347.476 167.064 348.139 165.922 348.525 164.282C348.794 163.144 348.816 162.12 348.596 161.212C348.618 161.901 348.592 163.275 347.743 164.553C347.473 164.959 347.07 165.566 346.301 165.886C345.787 166.101 345.314 166.101 344.865 166.101C344.515 166.101 344.197 166.068 343.917 166.021C343.901 166.02 343.885 166.02 343.871 166.019C343.342 165.928 342.797 165.823 342.238 165.702C341.19 165.475 340.207 165.216 339.291 164.94C338.979 164.668 338.51 164.183 338.188 163.448C338.08 163.201 337.997 162.942 337.939 162.673C337.805 162.057 337.759 161.492 337.8 160.977C337.748 161.237 337.719 161.502 337.716 161.767C337.708 162.554 337.858 163.138 337.991 163.569Z" fill="url(#paint6_linear_6353_6395)"/>
<path d="M346.303 165.924C347.075 165.604 347.48 164.997 347.751 164.59C348.603 163.312 348.627 161.937 348.604 161.246C348.535 160.964 348.443 160.692 348.327 160.431C347.997 159.693 347.554 159.244 347.44 159.129C346.676 158.358 345.786 158.05 345.263 157.928C345.037 157.875 344.845 157.849 344.712 157.835C344.788 157.955 344.889 158.135 344.977 158.367C345.133 158.781 345.161 159.142 345.169 159.485C345.191 160.48 345.048 161.529 344.994 161.893C344.983 162.043 344.984 162.226 345.02 162.43C345.105 162.921 345.339 163.271 345.489 163.459C345.367 162.875 345.477 162.249 345.783 161.737C345.863 161.604 345.986 161.464 346.141 161.478C346.251 161.488 346.337 161.574 346.406 161.659C346.416 161.672 346.426 161.685 346.436 161.698C346.448 161.721 346.46 161.743 346.471 161.766C346.829 162.497 346.657 163.325 346.515 163.844C346.364 164.395 346.148 165.186 345.385 165.68C344.808 166.052 344.205 166.07 343.906 166.056C344.188 166.104 344.508 166.137 344.859 166.137C345.311 166.138 345.786 166.138 346.303 165.924Z" fill="url(#paint7_linear_6353_6395)"/>
<path d="M339.997 157.373C340.74 157.786 341.209 158.584 341.396 159.413C341.508 159.905 341.531 160.409 341.51 160.915C341.521 161.319 341.48 161.733 341.473 162.102C341.447 163.463 341.502 164.067 341.773 164.657C341.888 164.907 342.037 165.143 342.283 165.34C342.686 165.662 343.14 165.71 343.352 165.718C343.265 165.493 343.212 165.191 343.195 164.81C343.156 163.975 343.184 163.016 343.281 161.938C343.427 160.319 343.252 159.057 342.757 158.154C342.044 156.855 340.423 156.069 338.959 156.339C338.269 156.466 337.695 156.8 337.231 157.258C337.607 157.131 338.001 157.056 338.397 157.039C338.949 157.016 339.515 157.105 339.997 157.373Z" fill="url(#paint8_linear_6353_6395)"/>
<path d="M335.419 166.612C335.62 166.583 335.872 166.614 336.369 166.676C336.642 166.711 336.867 166.746 337.021 166.772L342.205 167.993C341.918 167.863 341.62 167.713 341.314 167.538C341.08 167.405 340.86 167.28 340.588 167.086C340.057 166.709 338.646 165.588 338.032 163.597C337.899 163.168 337.75 162.586 337.759 161.802C337.762 161.537 337.79 161.274 337.842 161.014C337.859 160.801 337.89 160.596 337.936 160.4C338.142 159.527 338.72 158.782 339.684 158.747C340.394 158.721 341.129 159.177 341.417 159.831C341.545 160.118 341.588 160.444 341.596 160.776C341.617 160.273 341.594 159.771 341.483 159.281C341.297 158.456 340.831 157.66 340.093 157.249C339.613 156.983 339.05 156.894 338.502 156.918C338.108 156.935 337.716 157.009 337.342 157.136C336.656 157.813 336.21 158.761 335.988 159.706C335.795 160.523 335.759 161.337 335.881 162.151C336.001 162.962 336.297 163.699 336.768 164.36C336.512 164.36 335.948 164.398 335.421 164.779C334.332 165.565 334.469 167.041 334.477 167.113C334.869 166.735 335.222 166.641 335.419 166.612Z" fill="url(#paint9_linear_6353_6395)"/>
</g>
<path d="M315.181 81C315.181 84.0769 319.769 91 322.063 91C319.927 91 316.132 95.0028 315.621 99.902C315.644 100.283 315.627 100.651 315.563 101C315.563 100.63 315.583 100.264 315.621 99.902C315.392 96.0874 311.149 91 309.063 91C310.593 91 315.181 87.4615 315.181 81Z" fill="white"/>
<path d="M43.828 355C43.828 357 46.6519 361.5 48.0635 361.5C46.7487 361.5 44.4137 364.102 44.0989 367.286C44.113 367.534 44.1024 367.773 44.0635 368C44.0635 367.759 44.0757 367.521 44.0989 367.286C43.9581 364.807 41.3471 361.5 40.0635 361.5C41.0047 361.5 43.828 359.2 43.828 355Z" fill="white"/>
<path d="M355.946 422C355.946 423.077 357.358 425.5 358.063 425.5C357.406 425.5 356.239 426.901 356.081 428.616C356.088 428.749 356.083 428.878 356.063 429C356.063 428.87 356.07 428.742 356.081 428.616C356.011 427.281 354.705 425.5 354.063 425.5C354.534 425.5 355.946 424.262 355.946 422Z" fill="white"/>
<path d="M9.94575 133C9.94575 134.077 11.3577 136.5 12.0635 136.5C11.4061 136.5 10.2386 137.901 10.0812 139.616C10.0882 139.749 10.083 139.878 10.0635 140C10.0635 139.87 10.0696 139.742 10.0812 139.616C10.0108 138.281 8.70529 136.5 8.06348 136.5C8.53406 136.5 9.94575 135.262 9.94575 133Z" fill="#FF7955"/>
<defs>
<filter id="filter0_f_6353_6395" x="-33.4228" y="31.1542" width="527.275" height="531.11" filterUnits="userSpaceOnUse" color-interpolation-filters="sRGB">
<feFlood flood-opacity="0" result="BackgroundImageFix"/>
<feBlend mode="normal" in="SourceGraphic" in2="BackgroundImageFix" result="shape"/>
<feGaussianBlur stdDeviation="54.4229" result="effect1_foregroundBlur_6353_6395"/>
</filter>
<radialGradient id="paint0_radial_6353_6395" cx="0" cy="0" r="1" gradientUnits="userSpaceOnUse" gradientTransform="translate(30.0981 199.153) rotate(-28.0255) scale(219.976 249.789)">
<stop stop-color="#937F1D"/>
<stop offset="0.604167" stop-color="#CAB031"/>
<stop offset="0.892823" stop-color="#978012"/>
<stop offset="1" stop-color="#C2A411"/>
</radialGradient>
<linearGradient id="paint1_linear_6353_6395" x1="209.573" y1="88.4868" x2="211.945" y2="79.507" gradientUnits="userSpaceOnUse">
<stop stop-color="#FFFF63"/>
<stop offset="0.276" stop-color="#D4D400"/>
<stop offset="0.531" stop-color="#F5F52A"/>
<stop offset="0.761" stop-color="#E9E900"/>
<stop offset="0.951" stop-color="#C3C30E"/>
</linearGradient>
<linearGradient id="paint2_linear_6353_6395" x1="219.659" y1="80.684" x2="215.411" y2="77.0502" gradientUnits="userSpaceOnUse">
<stop stop-color="#D9D901"/>
<stop offset="0.276" stop-color="#E4E430"/>
<stop offset="0.577405" stop-color="#E9E900"/>
<stop offset="1" stop-color="#FFFF81"/>
</linearGradient>
<linearGradient id="paint3_linear_6353_6395" x1="214.857" y1="81.4724" x2="211.302" y2="75.0882" gradientUnits="userSpaceOnUse">
<stop stop-color="#D9D901"/>
<stop offset="0.276" stop-color="#E4E430"/>
<stop offset="0.577405" stop-color="#E9E900"/>
<stop offset="1" stop-color="#717100"/>
</linearGradient>
<linearGradient id="paint4_linear_6353_6395" x1="208.168" y1="89.6102" x2="213.567" y2="81.029" gradientUnits="userSpaceOnUse">
<stop stop-color="#FFFF63"/>
<stop offset="0.276" stop-color="#D4D400"/>
<stop offset="0.531" stop-color="#F5F52A"/>
<stop offset="0.761" stop-color="#E9E900"/>
<stop offset="0.951" stop-color="#C3C30E"/>
</linearGradient>
<radialGradient id="paint5_radial_6353_6395" cx="0" cy="0" r="1" gradientUnits="userSpaceOnUse" gradientTransform="translate(30.098 199.154) rotate(-28.0256) scale(219.976 249.789)">
<stop stop-color="#1D5297"/>
<stop offset="0.604167" stop-color="#51AFCE"/>
<stop offset="0.892823" stop-color="#1075AB"/>
<stop offset="1" stop-color="#1888D3"/>
</radialGradient>
<linearGradient id="paint6_linear_6353_6395" x1="335.059" y1="165.95" x2="341.078" y2="158.877" gradientUnits="userSpaceOnUse">
<stop stop-color="#FFFF63"/>
<stop offset="0.276" stop-color="#D4D400"/>
<stop offset="0.531" stop-color="#F5F52A"/>
<stop offset="0.761" stop-color="#E9E900"/>
<stop offset="0.951" stop-color="#C3C30E"/>
</linearGradient>
<linearGradient id="paint7_linear_6353_6395" x1="347.527" y1="163.271" x2="345.266" y2="158.159" gradientUnits="userSpaceOnUse">
<stop stop-color="#D9D901"/>
<stop offset="0.276" stop-color="#E4E430"/>
<stop offset="0.577405" stop-color="#E9E900"/>
<stop offset="1" stop-color="#FFFF81"/>
</linearGradient>
<linearGradient id="paint8_linear_6353_6395" x1="342.855" y1="161.906" x2="342.408" y2="154.613" gradientUnits="userSpaceOnUse">
<stop stop-color="#D9D901"/>
<stop offset="0.276" stop-color="#E4E430"/>
<stop offset="0.577405" stop-color="#E9E900"/>
<stop offset="1" stop-color="#717100"/>
</linearGradient>
<linearGradient id="paint9_linear_6353_6395" x1="333.306" y1="166.356" x2="341.884" y2="160.95" gradientUnits="userSpaceOnUse">
<stop stop-color="#FFFF63"/>
<stop offset="0.276" stop-color="#D4D400"/>
<stop offset="0.531" stop-color="#F5F52A"/>
<stop offset="0.761" stop-color="#E9E900"/>
<stop offset="0.951" stop-color="#C3C30E"/>
</linearGradient>
<clipPath id="clip0_6353_6395">
<rect width="230.39" height="322.002" fill="white" transform="matrix(1 0 0.22937 0.973339 12.0634 45.9805)"/>
</clipPath>
<clipPath id="clip1_6353_6395">
<rect width="41.952" height="20" fill="white" transform="translate(226.375 91.084) rotate(77.6587)"/>
</clipPath>
<clipPath id="clip2_6353_6395">
<rect width="230.39" height="322.002" fill="white" transform="matrix(1 0 -0.22937 0.973339 151.673 124.711)"/>
</clipPath>
<clipPath id="clip3_6353_6395">
<rect width="41.952" height="20" fill="white" transform="translate(349.089 175.549) rotate(103.26)"/>
</clipPath>
</defs>
</svg>
