<svg width="561" height="563" viewBox="0 0 561 563" fill="none" xmlns="http://www.w3.org/2000/svg">
<g clip-path="url(#clip0_6365_5537)">
<rect width="230.39" height="322.002" rx="21.7692" transform="matrix(1 0 0.22937 0.973339 79.0637 45.9805)" fill="url(#paint0_radial_6365_5537)"/>
<path d="M139.738 76.5238C139.53 75.638 139.553 74.8861 139.81 74.2681C140.066 73.6501 140.514 73.1783 141.153 72.8528C141.792 72.5315 142.582 72.3708 143.522 72.3708C144.461 72.3708 145.327 72.5315 146.118 72.8528C146.91 73.1783 147.58 73.6501 148.128 74.2681C148.675 74.8861 149.054 75.638 149.262 76.5238C149.505 77.5538 149.436 78.4005 149.055 79.0638C148.674 79.7313 148.059 80.1906 147.208 80.442L146.639 79.3234C147.278 79.1421 147.74 78.8187 148.024 78.3531C148.308 77.8875 148.361 77.2778 148.183 76.5238C148.027 75.8605 147.742 75.3084 147.329 74.8675C146.916 74.4267 146.406 74.095 145.799 73.8726C145.197 73.6501 144.529 73.5368 143.795 73.5327C143.066 73.5285 142.451 73.6377 141.949 73.8602C141.451 74.0827 141.098 74.4164 140.889 74.8614C140.685 75.3063 140.661 75.8605 140.818 76.5238C140.995 77.2778 141.336 77.8875 141.839 78.3531C142.347 78.8187 142.961 79.1421 143.681 79.3234L143.64 80.442C142.674 80.1906 141.842 79.7313 141.143 79.0638C140.449 78.4005 139.981 77.5538 139.738 76.5238ZM141.707 84.8256C141.606 84.3971 141.589 84.0283 141.656 83.7193C141.724 83.4144 141.851 83.1611 142.036 82.9592C142.221 82.7573 142.442 82.5987 142.698 82.4833C142.955 82.368 143.225 82.2856 143.51 82.2361C143.796 82.1908 144.067 82.1681 144.326 82.1681H148.116L148.378 83.2805H144.943C144.622 83.2805 144.317 83.3094 144.03 83.3671C143.743 83.4247 143.495 83.5216 143.286 83.6575C143.078 83.7976 142.931 83.983 142.846 84.2137C142.761 84.4486 142.761 84.7411 142.843 85.0913C142.908 85.3673 143.016 85.6187 143.167 85.8453C143.318 86.0719 143.507 86.2655 143.735 86.4262C143.968 86.5869 144.243 86.7105 144.559 86.797C144.876 86.8835 145.231 86.9268 145.625 86.9268L145.567 87.6498C144.906 87.6498 144.309 87.5324 143.776 87.2976C143.243 87.0669 142.798 86.7393 142.439 86.315C142.086 85.8947 141.842 85.3982 141.707 84.8256ZM142.409 87.0504H144.244L144.215 86.9268H149.238L149.498 88.033H142.641L142.409 87.0504ZM143.165 90.2577H150.023L150.254 91.2404H148.597L148.775 91.0797C149.005 91.158 149.224 91.2589 149.43 91.3825C149.638 91.5102 149.818 91.6524 149.969 91.8089C150.154 91.982 150.31 92.1777 150.438 92.396C150.565 92.6144 150.662 92.8369 150.728 93.0635C150.799 93.2901 150.834 93.5023 150.834 93.7H149.773C149.783 93.4693 149.74 93.2159 149.645 92.9399C149.55 92.6638 149.386 92.4084 149.153 92.1736C148.946 91.9593 148.716 91.7925 148.464 91.673C148.212 91.5576 147.95 91.4773 147.677 91.4319C147.408 91.3866 147.138 91.364 146.867 91.364H143.426L143.165 90.2577ZM144.368 95.363H151.226L151.457 96.3457H149.8L149.978 96.185C150.208 96.2633 150.427 96.3642 150.634 96.4878C150.841 96.6155 151.021 96.7577 151.172 96.9142C151.357 97.0873 151.513 97.283 151.641 97.5013C151.768 97.7197 151.865 97.9422 151.931 98.1688C152.002 98.3954 152.037 98.6076 152.037 98.8053H150.976C150.986 98.5746 150.943 98.3212 150.848 98.0452C150.753 97.7692 150.59 97.5137 150.356 97.2789C150.149 97.0646 149.92 96.8978 149.667 96.7783C149.416 96.6629 149.153 96.5826 148.88 96.5373C148.611 96.4919 148.341 96.4693 148.07 96.4693H144.629L144.368 95.363ZM146.034 103.24C145.88 102.585 145.893 102.012 146.074 101.522C146.26 101.036 146.587 100.657 147.057 100.385C147.53 100.113 148.124 99.9768 148.84 99.9768C149.589 99.9768 150.268 100.111 150.877 100.379C151.491 100.646 152.002 101.019 152.411 101.497C152.825 101.979 153.108 102.544 153.261 103.19C153.419 103.862 153.395 104.433 153.188 104.902C152.982 105.376 152.613 105.73 152.08 105.965C151.548 106.204 150.871 106.307 150.051 106.274L149.789 105.162H150.195C151.034 105.15 151.624 104.983 151.963 104.661C152.306 104.34 152.403 103.862 152.254 103.228C152.093 102.548 151.747 102.031 151.215 101.676C150.683 101.322 149.998 101.145 149.16 101.145C148.351 101.145 147.766 101.322 147.405 101.676C147.044 102.031 146.941 102.535 147.095 103.19C147.199 103.631 147.393 104.014 147.677 104.34C147.962 104.665 148.32 104.921 148.753 105.106L148.628 106.163C147.961 105.904 147.399 105.512 146.941 104.989C146.489 104.47 146.187 103.887 146.034 103.24ZM148.755 100.774H149.663L150.825 105.706H149.917L148.755 100.774ZM148.458 112.716H151.893C152.219 112.716 152.525 112.687 152.812 112.63C153.1 112.576 153.346 112.479 153.55 112.339C153.759 112.203 153.906 112.018 153.99 111.783C154.076 111.552 154.076 111.26 153.993 110.905C153.928 110.629 153.82 110.378 153.669 110.151C153.524 109.929 153.335 109.737 153.102 109.577C152.869 109.416 152.594 109.29 152.277 109.2C151.964 109.113 151.609 109.07 151.211 109.07L151.269 108.347C151.934 108.347 152.53 108.462 153.059 108.693C153.593 108.928 154.036 109.255 154.389 109.675C154.747 110.1 154.994 110.598 155.129 111.171C155.231 111.604 155.248 111.972 155.18 112.277C155.112 112.582 154.985 112.836 154.8 113.037C154.619 113.239 154.398 113.398 154.138 113.513C153.881 113.629 153.61 113.709 153.325 113.754C153.044 113.804 152.773 113.828 152.51 113.828H148.72L148.458 112.716ZM147.336 107.957H154.194L154.427 108.946H152.592L152.621 109.07H147.598L147.336 107.957ZM149.673 118.681C149.514 118.006 149.533 117.431 149.73 116.957C149.933 116.487 150.278 116.129 150.766 115.882C151.253 115.634 151.845 115.507 152.542 115.498C153.259 115.507 153.918 115.636 154.519 115.888C155.126 116.143 155.637 116.508 156.053 116.982C156.47 117.455 156.757 118.026 156.914 118.694C157.08 119.398 157.045 120.004 156.809 120.51C156.574 121.021 156.167 121.363 155.59 121.536L154.997 120.449C155.362 120.309 155.617 120.08 155.763 119.763C155.909 119.45 155.934 119.089 155.838 118.681C155.73 118.224 155.531 117.847 155.241 117.55C154.956 117.254 154.603 117.033 154.184 116.889C153.769 116.745 153.313 116.671 152.817 116.666C152.057 116.675 151.482 116.846 151.09 117.179C150.704 117.517 150.59 118.018 150.746 118.681C150.849 119.118 151.036 119.48 151.307 119.769C151.582 120.057 151.932 120.276 152.357 120.424L152.32 121.536C151.627 121.306 151.053 120.945 150.599 120.455C150.145 119.965 149.836 119.373 149.673 118.681ZM148.064 123.978L151.975 125.269L150.912 125.288L157.59 122.371L157.862 123.527L152.477 125.813L152.384 125.418L158.813 127.562L159.077 128.681L148.316 125.047L148.064 123.978Z" fill="white"/>
<path d="M218.165 72.7008H219.829L220.593 75.9401H208.929L208.507 74.1491H218.507L218.165 72.7008ZM212.215 79.3601C213.335 80.3568 214.245 81.1407 214.945 81.7117C215.658 82.2931 216.369 82.7759 217.078 83.1601C217.787 83.5442 218.451 83.7363 219.07 83.7363C219.71 83.7363 220.176 83.5857 220.468 83.2847C220.762 82.9939 220.834 82.5319 220.685 81.8986C220.541 81.2861 220.225 80.8085 219.739 80.4659C219.266 80.1336 218.691 79.9571 218.014 79.9364L217.611 78.2233C218.834 78.2544 219.845 78.6074 220.644 79.2823C221.456 79.9675 221.986 80.8344 222.233 81.883C222.5 83.0147 222.388 83.8972 221.897 84.5305C221.409 85.1742 220.631 85.4961 219.565 85.4961C218.797 85.4961 218.01 85.304 217.205 84.9199C216.413 84.5461 215.672 84.0945 214.982 83.565C214.305 83.0459 213.503 82.3814 212.576 81.5716L211.771 80.8708L212.934 85.8075H211.414L209.63 78.2389H210.958L212.215 79.3601ZM220.398 87.3361C221.405 87.3983 222.265 87.7669 222.979 88.4418C223.695 89.127 224.178 89.9991 224.427 91.0581C224.599 91.7849 224.613 92.413 224.471 92.9425C224.33 93.472 224.061 93.8717 223.666 94.1416C223.271 94.4116 222.785 94.5466 222.209 94.5466C221.548 94.5466 220.942 94.3752 220.392 94.0326C219.842 93.69 219.431 93.2799 219.158 92.8023H219.094C219.047 93.4149 218.807 93.8925 218.376 94.2351C217.955 94.5777 217.35 94.749 216.561 94.749C215.932 94.749 215.339 94.6088 214.782 94.3285C214.225 94.0482 213.738 93.6329 213.32 93.0826C212.913 92.5324 212.619 91.8731 212.438 91.1048C212.174 89.9835 212.25 89.0595 212.665 88.3328C213.094 87.6164 213.856 87.2322 214.954 87.1803L215.357 88.8934C214.802 88.9349 214.388 89.1478 214.116 89.5319C213.854 89.9161 213.801 90.4352 213.955 91.0893C214.104 91.7226 214.395 92.2105 214.828 92.5532C215.271 92.8958 215.775 93.0671 216.341 93.0671C217.087 93.0671 217.56 92.8335 217.76 92.3663C217.972 91.9095 217.966 91.2035 217.741 90.2483L217.645 89.8434H219.149L219.248 90.2639C219.457 91.1048 219.751 91.7433 220.132 92.1794C220.514 92.6258 221.004 92.849 221.601 92.849C222.113 92.849 222.481 92.6881 222.704 92.3663C222.937 92.0444 222.984 91.5876 222.845 90.9958C222.708 90.4144 222.447 89.9628 222.061 89.6409C221.687 89.3191 221.268 89.127 220.806 89.0647L220.398 87.3361ZM216.181 96.3959H217.557L226.502 101.629L227.009 103.778H219.505L219.846 105.226H218.262L217.921 103.778H215.489L215.078 102.033H217.51L216.181 96.3959ZM224.76 102.111L218.246 98.436L219.112 102.111H224.76ZM228.951 118.062L227.721 112.845H224.537C224.888 113.063 225.214 113.385 225.517 113.811C225.822 114.247 226.033 114.709 226.148 115.197C226.353 116.069 226.328 116.775 226.071 117.315C225.816 117.865 225.423 118.254 224.89 118.483C224.36 118.721 223.769 118.841 223.118 118.841C222.329 118.841 221.59 118.69 220.9 118.389C220.223 118.098 219.639 117.657 219.148 117.065C218.659 116.484 218.314 115.768 218.114 114.916C217.847 113.785 217.921 112.876 218.335 112.191C218.75 111.506 219.416 111.096 220.333 110.961L220.741 112.689C220.266 112.803 219.926 113.058 219.721 113.452C219.526 113.847 219.498 114.34 219.637 114.932C219.811 115.669 220.17 116.219 220.714 116.583C221.261 116.956 221.913 117.143 222.67 117.143C223.438 117.143 223.981 116.956 224.298 116.583C224.626 116.209 224.705 115.659 224.533 114.932C224.413 114.423 224.178 113.992 223.829 113.639C223.492 113.297 223.081 113.047 222.596 112.892L222.2 111.21H228.936L230.551 118.062H228.951ZM229.873 126.794C230.336 126.679 230.655 126.472 230.83 126.171C231.004 125.87 231.028 125.449 230.9 124.909C230.707 124.089 230.238 123.477 229.491 123.072C228.756 122.667 227.639 122.454 226.141 122.433C226.674 122.703 227.13 123.098 227.508 123.617C227.886 124.136 228.146 124.696 228.288 125.299C228.45 125.984 228.437 126.586 228.25 127.105C228.076 127.635 227.735 128.045 227.228 128.335C226.723 128.636 226.07 128.787 225.27 128.787C224.524 128.787 223.823 128.642 223.168 128.351C222.515 128.071 221.952 127.65 221.478 127.09C221.015 126.529 220.691 125.854 220.505 125.065C220.253 123.996 220.295 123.155 220.631 122.542C220.979 121.94 221.567 121.514 222.394 121.265C223.223 121.026 224.299 120.907 225.621 120.907C229.525 120.907 231.793 122.246 232.424 124.925C232.669 125.963 232.573 126.778 232.136 127.37C231.702 127.972 231.076 128.325 230.258 128.429L229.873 126.794ZM226.66 124.909C226.511 124.276 226.187 123.736 225.687 123.29C225.2 122.854 224.589 122.636 223.853 122.636C223.117 122.636 222.578 122.838 222.236 123.243C221.907 123.658 221.829 124.234 222.003 124.972C222.157 125.626 222.486 126.14 222.99 126.513C223.497 126.897 224.097 127.09 224.79 127.09C225.516 127.09 226.048 126.903 226.386 126.529C226.738 126.166 226.829 125.626 226.66 124.909ZM233.78 137.876L222.504 133.546L222.082 131.755L233.177 136.131L231.819 130.369H233.371L235.14 137.876H233.78ZM230.43 141.311C230.73 140.231 231.477 139.691 232.672 139.691C233.248 139.691 233.809 139.831 234.355 140.112C234.901 140.392 235.379 140.812 235.788 141.373C236.208 141.934 236.514 142.619 236.705 143.429C236.893 144.228 236.909 144.908 236.753 145.469C236.611 146.04 236.332 146.466 235.918 146.746C235.504 147.026 235.009 147.166 234.433 147.166C233.836 147.166 233.273 147.016 232.743 146.715C232.226 146.424 231.788 146.035 231.428 145.547C231.343 146.139 231.085 146.606 230.654 146.948C230.233 147.291 229.682 147.462 228.999 147.462C228.306 147.462 227.652 147.291 227.038 146.948C226.424 146.606 225.901 146.128 225.468 145.516C225.036 144.903 224.728 144.207 224.545 143.429C224.361 142.65 224.341 141.954 224.485 141.342C224.631 140.74 224.93 140.267 225.383 139.925C225.836 139.582 226.408 139.411 227.102 139.411C227.795 139.411 228.433 139.582 229.015 139.925C229.597 140.267 230.069 140.729 230.43 141.311ZM233.809 145.469C234.407 145.469 234.823 145.287 235.057 144.924C235.291 144.56 235.334 144.062 235.185 143.429C235.038 142.806 234.762 142.313 234.356 141.949C233.95 141.586 233.444 141.404 232.836 141.404C232.302 141.404 231.909 141.591 231.656 141.965C231.416 142.349 231.365 142.837 231.505 143.429C231.644 144.021 231.93 144.508 232.362 144.893C232.793 145.277 233.276 145.469 233.809 145.469ZM230.129 143.429C229.967 142.744 229.659 142.183 229.204 141.747C228.763 141.321 228.216 141.108 227.566 141.108C226.958 141.108 226.511 141.316 226.225 141.731C225.949 142.147 225.896 142.712 226.065 143.429C226.231 144.135 226.554 144.69 227.033 145.095C227.515 145.51 228.055 145.718 228.652 145.718C229.292 145.718 229.738 145.505 229.99 145.08C230.244 144.664 230.29 144.114 230.129 143.429ZM230.865 155.583C230.356 155.687 230.003 155.91 229.807 156.253C229.61 156.595 229.58 157.057 229.717 157.639C229.891 158.376 230.317 158.916 230.995 159.259C231.673 159.601 232.732 159.772 234.172 159.772C233.751 159.523 233.385 159.17 233.075 158.713C232.777 158.267 232.566 157.779 232.442 157.25C232.283 156.575 232.277 155.962 232.425 155.412C232.583 154.862 232.901 154.426 233.38 154.104C233.872 153.792 234.518 153.637 235.318 153.637C236.491 153.637 237.503 153.969 238.353 154.633C239.216 155.308 239.786 156.232 240.062 157.405C240.395 158.817 240.146 159.819 239.315 160.411C238.496 161.013 237.09 161.314 235.095 161.314C233.719 161.314 232.567 161.2 231.639 160.972C230.713 160.754 229.961 160.369 229.383 159.819C228.805 159.269 228.402 158.506 228.172 157.53C227.91 156.419 228.007 155.562 228.462 154.96C228.918 154.358 229.59 154.021 230.48 153.948L230.865 155.583ZM234.051 157.561C234.198 158.184 234.51 158.672 234.988 159.025C235.479 159.388 236.055 159.57 236.716 159.57C237.452 159.57 237.978 159.378 238.293 158.994C238.621 158.62 238.707 158.106 238.553 157.452C238.399 156.798 238.063 156.279 237.546 155.895C237.042 155.521 236.449 155.334 235.766 155.334C235.115 155.334 234.62 155.516 234.279 155.879C233.951 156.253 233.875 156.813 234.051 157.561ZM239.45 163.024H241.114L241.878 166.263H230.214L229.792 164.472H239.792L239.45 163.024ZM236.772 168.702C238.618 168.702 240.129 169.003 241.305 169.605C242.495 170.218 243.265 171.266 243.615 172.751C243.964 174.236 243.688 175.279 242.784 175.881C241.894 176.494 240.526 176.8 238.681 176.8C236.814 176.8 235.281 176.494 234.08 175.881C232.893 175.279 232.124 174.236 231.775 172.751C231.425 171.266 231.7 170.218 232.601 169.605C233.515 169.003 234.906 168.702 236.772 168.702ZM238.27 175.056C239.134 175.056 239.851 174.999 240.421 174.885C240.994 174.781 241.428 174.563 241.723 174.23C242.029 173.898 242.105 173.405 241.951 172.751C241.796 172.097 241.488 171.604 241.026 171.271C240.574 170.939 240.036 170.716 239.412 170.602C238.79 170.498 238.047 170.446 237.183 170.446C236.287 170.446 235.548 170.498 234.964 170.602C234.381 170.706 233.941 170.924 233.646 171.256C233.354 171.599 233.284 172.097 233.439 172.751C233.593 173.405 233.896 173.898 234.347 174.23C234.801 174.573 235.344 174.796 235.977 174.9C236.609 175.004 237.374 175.056 238.27 175.056ZM243.084 178.445H244.748L245.512 181.684H233.848L233.426 179.893H243.426L243.084 178.445ZM245.321 187.935H246.985L247.748 191.174H236.084L235.662 189.383H245.662L245.321 187.935ZM239.37 194.594C240.49 195.591 241.4 196.375 242.1 196.946C242.813 197.527 243.524 198.01 244.233 198.394C244.943 198.778 245.607 198.971 246.225 198.971C246.865 198.971 247.331 198.82 247.623 198.519C247.917 198.228 247.989 197.766 247.84 197.133C247.696 196.52 247.381 196.043 246.895 195.7C246.422 195.368 245.847 195.191 245.17 195.171L244.766 193.458C245.989 193.489 247.001 193.842 247.8 194.517C248.612 195.202 249.141 196.069 249.389 197.117C249.655 198.249 249.543 199.131 249.052 199.765C248.564 200.408 247.787 200.73 246.72 200.73C245.952 200.73 245.165 200.538 244.36 200.154C243.568 199.78 242.827 199.329 242.137 198.799C241.46 198.28 240.658 197.616 239.731 196.806L238.926 196.105L240.089 201.042H238.569L236.786 193.473H238.114L239.37 194.594ZM247.554 202.57C248.56 202.633 249.42 203.001 250.134 203.676C250.85 204.361 251.333 205.233 251.583 206.292C251.754 207.019 251.769 207.647 251.627 208.177C251.485 208.706 251.216 209.106 250.821 209.376C250.426 209.646 249.941 209.781 249.365 209.781C248.703 209.781 248.098 209.609 247.548 209.267C246.998 208.924 246.586 208.514 246.314 208.037H246.25C246.202 208.649 245.963 209.127 245.531 209.469C245.111 209.812 244.506 209.983 243.716 209.983C243.087 209.983 242.494 209.843 241.937 209.563C241.381 209.282 240.893 208.867 240.476 208.317C240.069 207.767 239.775 207.107 239.594 206.339C239.329 205.218 239.405 204.294 239.82 203.567C240.249 202.851 241.012 202.466 242.109 202.415L242.513 204.128C241.957 204.169 241.543 204.382 241.271 204.766C241.01 205.15 240.956 205.669 241.11 206.323C241.259 206.957 241.55 207.445 241.983 207.787C242.426 208.13 242.931 208.301 243.496 208.301C244.243 208.301 244.716 208.068 244.915 207.601C245.127 207.144 245.121 206.438 244.896 205.483L244.8 205.078H246.304L246.403 205.498C246.612 206.339 246.907 206.978 247.287 207.414C247.669 207.86 248.159 208.083 248.757 208.083C249.269 208.083 249.636 207.922 249.859 207.601C250.092 207.279 250.139 206.822 250 206.23C249.863 205.649 249.602 205.197 249.217 204.875C248.842 204.553 248.424 204.361 247.961 204.299L247.554 202.57ZM243.336 211.63H244.712L253.658 216.863L254.164 219.012H246.66L247.001 220.46H245.417L245.076 219.012H242.644L242.233 217.268H244.665L243.336 211.63ZM251.915 217.346L245.401 213.67L246.267 217.346H251.915Z" fill="white"/>
<path d="M119.721 75.7504C119.582 75.1607 119.584 74.6398 119.728 74.1877C119.872 73.7357 120.138 73.3808 120.527 73.123C120.921 72.8687 121.422 72.7416 122.032 72.7416H127.006L127.236 73.6951H122.338C121.968 73.6951 121.659 73.7551 121.412 73.8752C121.169 73.9988 120.981 74.1613 120.847 74.3625C120.713 74.5638 120.629 74.7846 120.594 75.0247C120.565 75.2684 120.578 75.5103 120.635 75.7504C120.692 75.9941 120.795 76.2378 120.943 76.4814C121.091 76.7251 121.278 76.9458 121.502 77.1436C121.731 77.3449 121.997 77.5056 122.301 77.6256C122.605 77.7457 122.941 77.8057 123.307 77.8057H128.205L128.43 78.7592H123.45C122.844 78.7592 122.284 78.6303 121.77 78.3725C121.256 78.1183 120.821 77.7651 120.464 77.3131C120.107 76.8611 119.86 76.3402 119.721 75.7504ZM121.341 82.6287C121.214 82.0883 121.194 81.601 121.28 81.1666C121.367 80.7358 121.551 80.3791 121.833 80.0966C122.119 79.8176 122.492 79.6357 122.951 79.551L123.338 80.5257C122.874 80.6493 122.548 80.9053 122.36 81.2938C122.177 81.6858 122.148 82.1466 122.272 82.6763C122.353 83.0189 122.48 83.3279 122.654 83.6033C122.832 83.8823 123.044 84.103 123.289 84.2655C123.534 84.4279 123.798 84.5092 124.081 84.5092C124.255 84.5092 124.397 84.4791 124.506 84.4191C124.62 84.3626 124.708 84.2831 124.771 84.1807C124.839 84.0819 124.888 83.9688 124.92 83.8417C124.952 83.7146 124.971 83.5822 124.979 83.4444L125.114 81.5004C125.129 81.2885 125.162 81.0836 125.214 80.8859C125.269 80.6881 125.352 80.5115 125.464 80.3562C125.58 80.2008 125.733 80.0772 125.921 79.9854C126.114 79.8935 126.355 79.8476 126.645 79.8476C127.11 79.8476 127.533 79.9642 127.914 80.1972C128.3 80.4339 128.628 80.7534 128.897 81.156C129.166 81.5586 129.358 82.0124 129.473 82.5174C129.59 83.0295 129.604 83.4868 129.513 83.8894C129.428 84.2955 129.246 84.631 128.967 84.8959C128.689 85.1642 128.323 85.3444 127.87 85.4362L127.454 84.435C127.761 84.382 128.007 84.2637 128.192 84.0801C128.382 83.9 128.507 83.674 128.566 83.402C128.629 83.1301 128.624 82.8317 128.551 82.5068C128.481 82.1961 128.364 81.9153 128.2 81.6646C128.036 81.4138 127.842 81.2143 127.618 81.066C127.398 80.9177 127.167 80.8435 126.924 80.8435C126.684 80.8435 126.506 80.9106 126.389 81.0448C126.275 81.179 126.198 81.3432 126.156 81.5374C126.12 81.7352 126.096 81.9277 126.086 82.1148L125.998 83.5663C125.99 83.7322 125.969 83.9229 125.937 84.1384C125.905 84.3573 125.837 84.5692 125.733 84.774C125.632 84.9788 125.473 85.1484 125.254 85.2826C125.039 85.4167 124.743 85.4838 124.365 85.4838C123.988 85.4838 123.635 85.4097 123.306 85.2614C122.978 85.1166 122.683 84.9135 122.422 84.6522C122.165 84.3909 121.945 84.0872 121.761 83.7411C121.575 83.395 121.435 83.0242 121.341 82.6287ZM122.439 86.595H130.276L130.831 88.947C130.849 89.0247 130.879 89.1606 130.921 89.3549C130.963 89.5491 130.992 89.7345 131.009 89.9111C131.068 90.5008 130.963 90.9935 130.693 91.389C130.428 91.788 130.041 92.0882 129.534 92.2895C129.026 92.4908 128.438 92.5914 127.771 92.5914C127.103 92.5914 126.468 92.4908 125.866 92.2895C125.263 92.0882 124.733 91.788 124.277 91.389C123.824 90.9935 123.489 90.5008 123.27 89.9111C123.206 89.7345 123.148 89.5473 123.094 89.3496C123.045 89.1553 123.011 89.0211 122.994 88.947L122.439 86.595ZM123.593 87.5644L123.919 88.947C123.95 89.0812 123.989 89.2313 124.036 89.3972C124.086 89.5632 124.136 89.708 124.187 89.8316C124.365 90.2483 124.624 90.5856 124.964 90.8434C125.304 91.1012 125.697 91.2901 126.143 91.4102C126.588 91.5302 127.052 91.5903 127.535 91.5903C128.028 91.5903 128.469 91.5285 128.857 91.4049C129.246 91.2848 129.548 91.0959 129.763 90.8381C129.978 90.5803 130.075 90.2448 130.054 89.8316C130.05 89.708 130.032 89.5614 129.999 89.3919C129.967 89.2224 129.935 89.0741 129.905 88.947L129.58 87.5644H123.593Z" fill="white"/>
<g clip-path="url(#clip1_6365_5537)">
<path d="M286.206 93.3694C287.042 93.1865 287.819 93.1962 288.539 93.3985C289.261 93.6108 289.863 93.9763 290.345 94.4949C290.84 95.0213 291.168 95.6481 291.327 96.375C291.47 97.0312 291.464 97.6303 291.308 98.1722C291.165 98.7219 290.934 99.1851 290.615 99.5616L291.824 99.2972L292.205 101.039L283.882 102.86L283.501 101.118L284.74 100.847C284.283 100.64 283.869 100.313 283.496 99.8655C283.124 99.418 282.867 98.871 282.726 98.2249C282.569 97.508 282.607 96.8122 282.839 96.1372C283.081 95.4601 283.491 94.8731 284.068 94.3766C284.658 93.888 285.37 93.5522 286.206 93.3694ZM287.67 100.206C288.244 100.08 288.716 99.8502 289.086 99.5154C289.458 99.1907 289.713 98.8123 289.85 98.3801C289.988 97.948 290.008 97.5097 289.911 97.0655C289.814 96.6213 289.612 96.2315 289.307 95.8964C289.012 95.559 288.626 95.3153 288.15 95.1656C287.686 95.0237 287.168 95.0155 286.593 95.1411C286.02 95.2667 285.541 95.493 285.159 95.8199C284.779 96.1569 284.516 96.5426 284.368 96.977C284.232 97.4192 284.212 97.8573 284.307 98.2915C284.404 98.7357 284.606 99.1255 284.911 99.4607C285.217 99.7959 285.606 100.033 286.08 100.173C286.566 100.321 287.096 100.332 287.67 100.206Z" fill="#9400D3"/>
<path d="M291.87 105.298C292.348 105.458 292.748 105.719 293.071 106.083C293.405 106.454 293.635 106.927 293.761 107.503L291.979 107.893L291.883 107.453C291.735 106.777 291.451 106.299 291.031 106.021C290.614 105.753 289.982 105.711 289.136 105.896L284.756 106.854L284.379 105.128L292.701 103.307L293.079 105.033L291.87 105.298Z" fill="#9400D3"/>
<path d="M293.008 111.441L288.402 112.449C288.09 112.517 287.879 112.637 287.769 112.81C287.671 112.99 287.661 113.256 287.738 113.61L287.97 114.67L286.535 114.984L286.237 113.621C286.067 112.844 286.118 112.208 286.389 111.715C286.661 111.222 287.205 110.886 288.021 110.707L292.627 109.699L292.412 108.715L293.817 108.408L294.032 109.392L296.101 108.939L296.482 110.681L294.413 111.134L294.857 113.163L293.452 113.47L293.008 111.441Z" fill="#9400D3"/>
<path d="M296.286 119.04C296.425 119.676 296.413 120.271 296.249 120.825C296.088 121.39 295.771 121.871 295.299 122.271C294.83 122.68 294.217 122.968 293.462 123.133L288.553 124.207L288.179 122.496L292.831 121.478C293.576 121.315 294.104 121.004 294.415 120.544C294.736 120.083 294.826 119.529 294.685 118.882C294.543 118.236 294.229 117.766 293.742 117.47C293.268 117.182 292.658 117.12 291.913 117.283L287.261 118.301L286.883 116.574L298.06 114.129L298.438 115.855L294.617 116.691C295.033 116.907 295.386 117.216 295.674 117.619C295.965 118.031 296.169 118.505 296.286 119.04Z" fill="#9400D3"/>
<path d="M293.108 124.916C293.944 124.733 294.721 124.743 295.441 124.945C296.162 125.158 296.765 125.523 297.247 126.042C297.742 126.568 298.069 127.195 298.228 127.922C298.372 128.578 298.366 129.177 298.21 129.719C298.067 130.269 297.836 130.732 297.517 131.108L298.725 130.844L299.107 132.586L290.784 134.407L290.403 132.665L291.642 132.394C291.185 132.187 290.77 131.86 290.398 131.412C290.026 130.965 289.769 130.418 289.628 129.772C289.471 129.055 289.509 128.359 289.741 127.684C289.983 127.007 290.393 126.42 290.97 125.923C291.559 125.435 292.272 125.099 293.108 124.916ZM294.572 131.753C295.146 131.627 295.618 131.397 295.988 131.062C296.36 130.738 296.614 130.359 296.752 129.927C296.89 129.495 296.91 129.057 296.813 128.613C296.716 128.168 296.514 127.779 296.209 127.443C295.913 127.106 295.528 126.862 295.052 126.713C294.588 126.571 294.069 126.563 293.495 126.688C292.921 126.814 292.443 127.04 292.061 127.367C291.681 127.704 291.417 128.09 291.27 128.524C291.134 128.966 291.114 129.404 291.209 129.839C291.306 130.283 291.508 130.673 291.813 131.008C292.119 131.343 292.508 131.58 292.982 131.72C293.468 131.867 293.998 131.878 294.572 131.753Z" fill="#9400D3"/>
<path d="M289.464 134.693L280.576 94.0719L280.753 94.0332L289.641 134.654L289.464 134.693Z" fill="white"/>
<path d="M282.697 134.48C282.626 134.156 282.619 133.851 282.677 133.567C282.741 133.286 282.857 133.05 283.024 132.856C283.195 132.662 283.405 132.533 283.652 132.468L283.845 133.351C283.674 133.404 283.545 133.518 283.458 133.694C283.377 133.874 283.361 134.078 283.412 134.308C283.464 134.547 283.549 134.722 283.667 134.832C283.792 134.946 283.926 134.987 284.071 134.955C284.225 134.921 284.324 134.822 284.366 134.656C284.409 134.495 284.44 134.245 284.46 133.906C284.477 133.578 284.505 133.308 284.542 133.096C284.579 132.884 284.664 132.688 284.797 132.508C284.931 132.332 285.133 132.215 285.402 132.156C285.621 132.108 285.835 132.129 286.043 132.219C286.256 132.309 286.441 132.461 286.598 132.678C286.756 132.899 286.87 133.167 286.938 133.481C287.041 133.95 287.004 134.353 286.826 134.689C286.655 135.03 286.368 135.255 285.963 135.364L285.776 134.512C285.958 134.456 286.088 134.349 286.169 134.191C286.249 134.032 286.264 133.838 286.214 133.609C286.165 133.384 286.085 133.221 285.974 133.12C285.863 133.019 285.737 132.984 285.598 133.014C285.488 133.038 285.404 133.098 285.347 133.195C285.29 133.291 285.251 133.401 285.231 133.526C285.217 133.649 285.201 133.83 285.186 134.069C285.171 134.385 285.142 134.648 285.099 134.856C285.062 135.068 284.979 135.261 284.85 135.435C284.721 135.61 284.525 135.729 284.261 135.791C284.027 135.843 283.803 135.824 283.591 135.734C283.378 135.645 283.193 135.492 283.036 135.276C282.88 135.064 282.767 134.799 282.697 134.48Z" fill="white"/>
<path d="M283.345 127.16C283.759 127.07 284.144 127.074 284.5 127.174C284.858 127.279 285.156 127.459 285.395 127.715C285.64 127.975 285.802 128.287 285.882 128.651C285.941 128.921 285.939 129.198 285.876 129.483C285.819 129.773 285.71 130.016 285.549 130.213L287.539 129.778L287.727 130.638L282.192 131.849L282.004 130.989L282.625 130.853C282.395 130.757 282.187 130.599 282.003 130.378C281.82 130.162 281.694 129.894 281.624 129.575C281.545 129.216 281.563 128.867 281.677 128.529C281.797 128.194 282 127.904 282.286 127.659C282.578 127.417 282.931 127.251 283.345 127.16ZM284.068 130.537C284.353 130.475 284.586 130.361 284.77 130.196C284.954 130.035 285.08 129.848 285.148 129.635C285.217 129.421 285.227 129.205 285.179 128.985C285.131 128.766 285.031 128.573 284.88 128.408C284.734 128.241 284.543 128.121 284.307 128.047C284.078 127.977 283.821 127.973 283.537 128.036C283.252 128.098 283.016 128.21 282.826 128.371C282.638 128.538 282.507 128.729 282.434 128.943C282.367 129.162 282.357 129.378 282.404 129.593C282.452 129.812 282.551 130.004 282.702 130.17C282.854 130.335 283.046 130.453 283.281 130.522C283.522 130.594 283.784 130.6 284.068 130.537Z" fill="white"/>
<path d="M284.409 125.112C284.646 125.191 284.844 125.32 285.003 125.499C285.169 125.682 285.283 125.916 285.345 126.2L284.462 126.393L284.415 126.177C284.342 125.842 284.201 125.607 283.994 125.469C283.787 125.337 283.474 125.316 283.055 125.408L280.886 125.883L280.699 125.03L284.821 124.128L285.008 124.981L284.409 125.112Z" fill="white"/>
<path d="M281.608 119.219C282.022 119.129 282.407 119.133 282.763 119.233C283.12 119.338 283.418 119.518 283.657 119.774C283.902 120.034 284.064 120.344 284.143 120.703C284.213 121.027 284.21 121.323 284.133 121.591C284.062 121.862 283.947 122.091 283.789 122.277L284.388 122.146L284.576 123.006L280.454 123.908L280.266 123.048L280.88 122.914C280.653 122.812 280.448 122.65 280.264 122.429C280.08 122.208 279.953 121.938 279.883 121.619C279.806 121.265 279.824 120.921 279.94 120.588C280.06 120.253 280.263 119.963 280.549 119.718C280.841 119.476 281.194 119.31 281.608 119.219ZM282.331 122.596C282.615 122.534 282.849 122.42 283.032 122.255C283.216 122.094 283.343 121.907 283.411 121.694C283.479 121.48 283.489 121.264 283.441 121.044C283.393 120.825 283.294 120.632 283.143 120.467C282.996 120.3 282.805 120.18 282.57 120.106C282.34 120.036 282.083 120.032 281.799 120.095C281.515 120.157 281.278 120.269 281.089 120.43C280.9 120.597 280.77 120.787 280.696 121.002C280.629 121.221 280.619 121.437 280.666 121.651C280.714 121.871 280.814 122.063 280.965 122.229C281.116 122.394 281.309 122.512 281.543 122.58C281.784 122.653 282.047 122.658 282.331 122.596Z" fill="white"/>
<path d="M280.873 113.317C281.381 113.206 281.863 113.223 282.319 113.369C282.775 113.52 283.159 113.773 283.472 114.128C283.791 114.487 284.003 114.908 284.109 115.392C284.23 115.945 284.201 116.467 284.02 116.956C283.846 117.448 283.531 117.847 283.075 118.15L282.85 117.125C283.095 116.931 283.259 116.699 283.341 116.43C283.423 116.161 283.43 115.87 283.361 115.556C283.286 115.211 283.142 114.922 282.928 114.686C282.715 114.451 282.446 114.287 282.123 114.196C281.801 114.11 281.448 114.109 281.064 114.193C280.68 114.277 280.36 114.425 280.104 114.638C279.848 114.856 279.67 115.117 279.569 115.421C279.474 115.724 279.464 116.048 279.539 116.392C279.608 116.706 279.735 116.968 279.922 117.178C280.11 117.388 280.355 117.53 280.659 117.605L280.883 118.63C280.342 118.544 279.889 118.314 279.525 117.939C279.162 117.569 278.919 117.107 278.798 116.554C278.691 116.065 278.706 115.594 278.842 115.141C278.983 114.687 279.229 114.296 279.581 113.968C279.933 113.646 280.364 113.429 280.873 113.317Z" fill="white"/>
</g>
<rect x="288.756" y="71.0996" width="19.2678" height="19.2675" rx="1" transform="rotate(77.6587 288.756 71.0996)" fill="#9400D3"/>
<path d="M278.189 85.0747C279.61 86.6096 281.375 87.0121 282.02 87.1232C282.351 87.1802 282.605 87.1981 282.874 87.2171C283.227 87.2421 283.563 87.2485 283.879 87.2425L284.817 87.0371C286.163 86.7428 287.118 86.1017 287.686 85.1156C288.252 84.128 288.357 82.8112 287.997 81.1661C287.747 80.0232 287.325 79.0907 286.734 78.3663C287.052 78.9788 287.622 80.2289 287.408 81.7479C287.34 82.2308 287.239 82.9526 286.684 83.5735C286.313 83.9894 285.887 84.1934 285.482 84.3878C285.167 84.5387 284.866 84.647 284.592 84.7257C284.578 84.7319 284.563 84.7379 284.55 84.7432C284.034 84.8901 283.497 85.0309 282.941 85.1632C281.897 85.4113 280.899 85.6025 279.953 85.7489C279.555 85.6389 278.923 85.4044 278.314 84.8807C278.11 84.7044 277.923 84.5072 277.754 84.2893C277.368 83.792 277.082 83.302 276.896 82.8195C276.962 83.0767 277.05 83.3278 277.162 83.5684C277.495 84.2821 277.883 84.7439 278.189 85.0747Z" fill="url(#paint1_linear_6365_5537)"/>
<path d="M286.702 83.6069C287.26 82.9847 287.362 82.2621 287.431 81.7787C287.647 80.2578 287.075 79.0071 286.756 78.3941C286.572 78.1691 286.371 77.9635 286.154 77.7788C285.537 77.2556 284.944 77.0423 284.791 76.9878C283.769 76.6232 282.833 76.73 282.309 76.8453C282.082 76.8953 281.898 76.9545 281.772 76.9993C281.892 77.0752 282.062 77.1939 282.241 77.3653C282.56 77.6714 282.741 77.9842 282.897 78.2904C283.347 79.1778 283.671 80.1858 283.78 80.5372C283.834 80.6773 283.915 80.8415 284.035 81.0103C284.323 81.4164 284.686 81.6312 284.903 81.736C284.54 81.2616 284.369 80.6501 284.424 80.0558C284.439 79.901 284.489 79.7218 284.635 79.6677C284.738 79.6296 284.853 79.6697 284.952 79.7164C284.967 79.7234 284.981 79.7315 284.995 79.7388C285.016 79.7539 285.037 79.7687 285.057 79.7845C285.695 80.2891 285.898 81.1108 285.994 81.6396C286.097 82.2015 286.244 83.0088 285.768 83.7834C285.409 84.3682 284.873 84.6458 284.597 84.7622C284.872 84.6832 285.175 84.5744 285.492 84.423C285.899 84.2283 286.328 84.0236 286.702 83.6069Z" fill="url(#paint2_linear_6365_5537)"/>
<path d="M277.321 78.6209C278.169 78.6722 278.937 79.1899 279.464 79.8562C279.777 80.2517 280.016 80.6964 280.216 81.1608C280.4 81.5209 280.542 81.9124 280.695 82.2482C281.26 83.486 281.57 84.0071 282.07 84.4224C282.281 84.5977 282.517 84.7471 282.825 84.8182C283.327 84.9342 283.757 84.7817 283.952 84.6972C283.776 84.5314 283.598 84.2818 283.418 83.9464C283.022 83.2097 282.633 82.3332 282.255 81.3186C281.687 79.796 280.984 78.733 280.147 78.133C278.942 77.2691 277.141 77.2607 275.937 78.1367C275.371 78.5493 274.997 79.099 274.776 79.7123C275.061 79.4355 275.383 79.1979 275.734 79.0111C276.221 78.7516 276.77 78.5876 277.321 78.6209Z" fill="url(#paint3_linear_6365_5537)"/>
<path d="M277.184 88.9303C277.352 88.8176 277.593 88.7362 278.068 88.5778C278.329 88.4909 278.547 88.4255 278.698 88.382L283.9 87.2438C283.586 87.2497 283.252 87.2432 282.9 87.2183C282.632 87.1993 282.38 87.1814 282.051 87.1245C281.409 87.0135 279.652 86.6121 278.237 85.0824C277.932 84.7529 277.546 84.2926 277.215 83.5814C277.104 83.3417 277.015 83.0913 276.95 82.8351C276.873 82.6357 276.813 82.4375 276.77 82.2408C276.578 81.3644 276.778 80.4426 277.631 79.9945C278.261 79.664 279.12 79.7582 279.663 80.2228C279.902 80.4271 280.082 80.7021 280.233 80.9986C280.034 80.5359 279.796 80.0927 279.485 79.6986C278.96 79.0347 278.196 78.5186 277.353 78.4673C276.805 78.4339 276.259 78.597 275.775 78.8554C275.427 79.0413 275.106 79.2778 274.824 79.5535C274.497 80.4606 274.505 81.5078 274.712 82.4566C274.892 83.2761 275.211 84.0266 275.673 84.7076C276.132 85.3872 276.717 85.9239 277.427 86.316C277.196 86.4271 276.704 86.7056 276.394 87.2762C275.751 88.4559 276.513 89.7279 276.551 89.7893C276.741 89.2794 277.018 89.0415 277.184 88.9303Z" fill="url(#paint4_linear_6365_5537)"/>
</g>
<g filter="url(#filter0_f_6365_5537)">
<rect width="244.571" height="322.002" rx="21.7692" transform="matrix(1 0 -0.22937 0.973339 211.858 140)" fill="#1F1F1F" fill-opacity="0.4"/>
</g>
<g clip-path="url(#clip2_6365_5537)">
<rect width="230.39" height="322.002" rx="21.7692" transform="matrix(1 0 -0.22937 0.973339 218.921 125)" fill="url(#paint5_radial_6365_5537)"/>
<path d="M179.605 384.65L180.518 380.776L194.988 386.741L194.075 390.616L179.605 384.65Z" fill="white"/>
<path d="M196.326 381.06L186.852 374.927L189.184 375.014L196.267 375.309C196.267 375.309 197.644 375.465 198.04 373.785L199.479 367.677L199.243 367.546C198.543 368.89 197.64 370.12 196.565 371.193L182.707 371.483L181.755 375.521L195.343 385.229L196.326 381.06Z" fill="white"/>
<path d="M174.101 407.996L173.262 411.556L189.034 411.998L189.769 408.881C189.887 408.51 189.883 408.111 189.757 407.742C189.631 407.373 189.389 407.053 189.068 406.828L176.512 397.767L175.559 401.808L177.605 403.131L176.441 408.068L174.101 407.996ZM180.426 404.985L185.578 408.351L179.676 408.167L180.426 404.985Z" fill="white"/>
<path d="M187.865 400.76L190.954 402.072C191.626 401.05 192.129 399.927 192.443 398.745C192.896 396.822 193.123 392.055 188.991 391.081C185.104 390.165 183.792 395.513 181.752 395.033C179.712 394.552 181.211 389.832 182.857 388.543L179.633 387.174C178.718 388.421 178.076 389.844 177.748 391.353C177.125 393.997 177.569 398.313 181.335 399.2C185.246 400.122 186.887 394.801 188.585 395.201C190.283 395.601 189.181 399.322 187.865 400.76Z" fill="white"/>
<path d="M189.18 375.013L196.267 375.309C196.267 375.309 197.644 375.465 198.04 373.785L199.479 367.677L199.243 367.546C198.205 369.522 196.748 371.25 194.97 372.612C193.291 373.907 191.293 374.736 189.18 375.013V375.013Z" fill="#FFA458"/>
<path d="M229.972 155.375C230.134 154.687 230.423 154.08 230.839 153.552C231.256 153.025 231.762 152.611 232.357 152.31C232.956 152.014 233.612 151.865 234.323 151.865H240.126L239.87 152.978H234.156C233.724 152.978 233.331 153.048 232.976 153.188C232.625 153.332 232.315 153.521 232.048 153.756C231.781 153.991 231.562 154.249 231.39 154.529C231.222 154.813 231.104 155.095 231.038 155.375C230.971 155.66 230.957 155.944 230.996 156.228C231.035 156.513 231.131 156.77 231.284 157.001C231.44 157.236 231.663 157.423 231.951 157.563C232.24 157.703 232.598 157.773 233.026 157.773H238.74L238.478 158.886H232.668C231.961 158.886 231.379 158.735 230.921 158.435C230.461 158.138 230.148 157.726 229.98 157.199C229.812 156.671 229.809 156.064 229.972 155.375ZM227.964 163.895C228.113 163.264 228.357 162.696 228.696 162.189C229.035 161.686 229.446 161.27 229.93 160.94C230.417 160.615 230.952 160.403 231.534 160.304L231.45 161.441C230.841 161.585 230.319 161.884 229.887 162.337C229.457 162.794 229.17 163.332 229.024 163.95C228.93 164.35 228.908 164.71 228.96 165.032C229.014 165.357 229.14 165.615 229.336 165.804C229.533 165.994 229.796 166.088 230.126 166.088C230.33 166.088 230.511 166.053 230.672 165.983C230.836 165.917 230.982 165.825 231.112 165.705C231.245 165.59 231.365 165.458 231.472 165.31C231.579 165.161 231.674 165.007 231.759 164.846L232.985 162.578C233.12 162.331 233.271 162.092 233.44 161.861C233.613 161.631 233.808 161.425 234.024 161.243C234.244 161.062 234.49 160.918 234.761 160.811C235.036 160.704 235.342 160.65 235.681 160.65C236.223 160.65 236.652 160.786 236.969 161.058C237.289 161.334 237.496 161.707 237.588 162.176C237.681 162.646 237.655 163.176 237.512 163.765C237.367 164.362 237.131 164.896 236.805 165.365C236.482 165.839 236.085 166.231 235.614 166.54C235.142 166.853 234.616 167.063 234.037 167.17L234.102 166.002C234.49 165.94 234.842 165.802 235.159 165.588C235.479 165.378 235.749 165.114 235.967 164.797C236.19 164.48 236.349 164.131 236.442 163.752C236.532 163.39 236.55 163.062 236.496 162.77C236.442 162.477 236.326 162.244 236.146 162.071C235.971 161.898 235.742 161.812 235.458 161.812C235.179 161.812 234.934 161.89 234.723 162.047C234.517 162.203 234.337 162.395 234.182 162.621C234.03 162.852 233.897 163.077 233.782 163.295L232.881 164.988C232.78 165.182 232.652 165.405 232.495 165.656C232.338 165.911 232.142 166.158 231.908 166.397C231.678 166.636 231.398 166.834 231.069 166.991C230.745 167.147 230.362 167.226 229.922 167.226C229.482 167.226 229.111 167.139 228.808 166.966C228.505 166.797 228.273 166.56 228.112 166.255C227.956 165.95 227.866 165.596 227.842 165.192C227.815 164.789 227.855 164.356 227.964 163.895ZM226.948 169.016H236.091L235.444 171.76C235.423 171.851 235.383 172.01 235.325 172.236C235.268 172.463 235.2 172.679 235.122 172.885C234.866 173.573 234.473 174.148 233.941 174.609C233.412 175.075 232.796 175.425 232.093 175.66C231.39 175.895 230.649 176.012 229.87 176.012C229.092 176.012 228.406 175.895 227.814 175.66C227.221 175.425 226.769 175.075 226.455 174.609C226.145 174.148 226.024 173.573 226.093 172.885C226.116 172.679 226.151 172.461 226.197 172.23C226.246 172.003 226.281 171.847 226.301 171.76L226.948 169.016ZM227.76 170.147L227.38 171.76C227.343 171.917 227.306 172.092 227.269 172.286C227.236 172.479 227.215 172.648 227.207 172.792C227.185 173.279 227.302 173.672 227.557 173.973C227.812 174.274 228.167 174.494 228.621 174.634C229.074 174.774 229.583 174.844 230.146 174.844C230.721 174.844 231.27 174.772 231.79 174.628C232.31 174.488 232.766 174.267 233.159 173.967C233.551 173.666 233.849 173.274 234.052 172.792C234.115 172.648 234.174 172.477 234.23 172.279C234.285 172.082 234.33 171.909 234.365 171.76L234.745 170.147H227.76Z" fill="white"/>
<path d="M247.05 155.468C247.259 154.582 247.636 153.835 248.182 153.225C248.732 152.615 249.402 152.154 250.191 151.84C250.98 151.527 251.842 151.371 252.778 151.371C253.713 151.371 254.502 151.527 255.143 151.84C255.785 152.154 256.235 152.615 256.493 153.225C256.756 153.835 256.783 154.582 256.574 155.468C256.331 156.502 255.859 157.347 255.158 158.002C254.462 158.657 253.628 159.106 252.656 159.349L252.627 158.422C253.396 158.233 254.049 157.893 254.588 157.403C255.127 156.912 255.491 156.267 255.679 155.468C255.843 154.772 255.817 154.193 255.599 153.732C255.382 153.27 255.009 152.922 254.48 152.687C253.955 152.456 253.312 152.337 252.552 152.329C251.791 152.325 251.094 152.438 250.459 152.669C249.824 152.903 249.286 153.254 248.847 153.719C248.41 154.189 248.11 154.772 247.946 155.468C247.757 156.267 247.817 156.912 248.125 157.403C248.437 157.893 248.93 158.233 249.605 158.422L249.139 159.349C248.282 159.106 247.658 158.657 247.266 158.002C246.878 157.347 246.807 156.502 247.05 155.468ZM245.115 163.76C245.21 163.36 245.356 163.01 245.553 162.709C245.75 162.412 245.982 162.159 246.247 161.949C246.511 161.743 246.796 161.576 247.101 161.448C247.411 161.321 247.727 161.228 248.049 161.17C248.376 161.112 248.694 161.084 249.003 161.084H252.775L252.559 161.998H249.061C248.684 161.998 248.327 162.033 247.988 162.103C247.65 162.173 247.342 162.285 247.065 162.437C246.791 162.594 246.56 162.793 246.372 163.037C246.182 163.284 246.046 163.582 245.964 163.933C245.888 164.254 245.878 164.536 245.935 164.779C245.992 165.027 246.106 165.233 246.279 165.397C246.455 165.566 246.685 165.694 246.969 165.78C247.258 165.867 247.595 165.91 247.98 165.91L247.683 166.553C246.98 166.553 246.418 166.434 245.996 166.195C245.574 165.956 245.289 165.626 245.143 165.206C244.996 164.785 244.987 164.303 245.115 163.76ZM244.758 166.003H246.447L246.469 165.91H251.637L251.423 166.819H244.566L244.758 166.003ZM244.042 169.04H250.9L250.707 169.856H249.057L249.31 169.696C249.496 169.77 249.66 169.867 249.801 169.986C249.946 170.106 250.057 170.235 250.134 170.375C250.25 170.548 250.321 170.75 250.347 170.981C250.377 171.212 250.371 171.445 250.329 171.679C250.29 171.914 250.223 172.128 250.126 172.322H249.25C249.371 172.079 249.448 171.813 249.482 171.525C249.517 171.236 249.461 170.971 249.315 170.728C249.189 170.505 249.015 170.338 248.791 170.227C248.572 170.116 248.327 170.042 248.057 170.005C247.79 169.967 247.522 169.949 247.251 169.949H243.828L244.042 169.04ZM242.876 173.989H249.734L249.541 174.805H247.891L248.144 174.644C248.33 174.718 248.493 174.815 248.635 174.934C248.78 175.054 248.891 175.184 248.968 175.324C249.084 175.497 249.155 175.699 249.181 175.929C249.211 176.16 249.205 176.393 249.163 176.628C249.124 176.863 249.057 177.077 248.96 177.27H248.084C248.205 177.027 248.282 176.762 248.316 176.473C248.35 176.185 248.295 175.919 248.149 175.676C248.023 175.454 247.849 175.287 247.625 175.175C247.406 175.064 247.161 174.99 246.89 174.953C246.624 174.916 246.355 174.897 246.085 174.897H242.662L242.876 173.989ZM240.883 181.641C241.036 180.99 241.317 180.425 241.726 179.948C242.134 179.474 242.638 179.105 243.238 178.841C243.837 178.578 244.499 178.446 245.223 178.446C245.972 178.446 246.589 178.576 247.074 178.835C247.559 179.095 247.894 179.459 248.08 179.929C248.264 180.403 248.281 180.961 248.13 181.604C247.974 182.263 247.685 182.825 247.262 183.291C246.843 183.756 246.316 184.109 245.68 184.348C245.044 184.587 244.326 184.696 243.526 184.675L243.745 183.748H244.075C244.968 183.732 245.683 183.544 246.22 183.186C246.757 182.832 247.105 182.312 247.267 181.628C247.436 180.912 247.326 180.362 246.938 179.978C246.549 179.599 245.912 179.41 245.027 179.41C244.164 179.41 243.448 179.599 242.881 179.978C242.316 180.362 241.952 180.903 241.787 181.604C241.674 182.082 241.688 182.498 241.829 182.852C241.973 183.211 242.235 183.493 242.614 183.699L242.078 184.545C241.543 184.282 241.171 183.892 240.962 183.377C240.757 182.867 240.73 182.288 240.883 181.641ZM244.843 179.088H245.624L244.422 184.187H243.641L244.843 179.088ZM238.825 191.181H242.324C242.704 191.181 243.062 191.146 243.396 191.075C243.734 191.005 244.04 190.892 244.314 190.736C244.591 190.583 244.825 190.383 245.014 190.136C245.203 189.893 245.338 189.596 245.421 189.246C245.496 188.925 245.506 188.641 245.45 188.393C245.393 188.15 245.277 187.944 245.101 187.775C244.928 187.611 244.699 187.485 244.415 187.398C244.13 187.312 243.794 187.269 243.404 187.269L243.702 186.626C244.404 186.626 244.967 186.745 245.389 186.984C245.811 187.223 246.095 187.553 246.241 187.973C246.388 188.393 246.397 188.875 246.269 189.419C246.175 189.819 246.029 190.167 245.832 190.464C245.634 190.764 245.403 191.018 245.139 191.224C244.873 191.434 244.586 191.603 244.276 191.731C243.971 191.858 243.655 191.951 243.328 192.009C243.006 192.066 242.69 192.095 242.381 192.095H238.609L238.825 191.181ZM239.962 186.354H246.82L246.626 187.176H244.937L244.915 187.269H239.747L239.962 186.354ZM237.281 196.926C237.439 196.254 237.727 195.686 238.146 195.22C238.565 194.755 239.074 194.4 239.673 194.157C240.275 193.918 240.931 193.795 241.64 193.786C242.357 193.795 242.958 193.922 243.441 194.169C243.929 194.417 244.269 194.773 244.459 195.239C244.654 195.704 244.674 196.269 244.517 196.932C244.358 197.608 244.051 198.195 243.594 198.693C243.137 199.196 242.593 199.54 241.961 199.725L241.878 198.835C242.326 198.679 242.702 198.43 243.007 198.088C243.315 197.75 243.521 197.363 243.624 196.926C243.739 196.435 243.718 196.03 243.561 195.708C243.409 195.387 243.145 195.148 242.772 194.991C242.398 194.835 241.945 194.755 241.412 194.75C240.589 194.759 239.885 194.944 239.3 195.307C238.72 195.669 238.345 196.209 238.176 196.926C238.069 197.379 238.084 197.764 238.221 198.081C238.361 198.403 238.617 198.646 238.989 198.811L238.494 199.725C237.943 199.478 237.563 199.116 237.353 198.638C237.149 198.16 237.124 197.589 237.281 196.926ZM233.179 202.206L236.475 203.497L235.404 203.516L243.464 200.593L243.237 201.557L236.507 203.955L236.6 203.559L242.244 205.772L242.025 206.699L232.965 203.114L233.179 202.206Z" fill="white"/>
<path d="M329.863 151.701H331.527L330.764 154.94H319.1L319.522 153.149H329.522L329.863 151.701ZM320.774 158.36C321.424 159.357 321.965 160.141 322.395 160.712C322.834 161.293 323.318 161.776 323.846 162.16C324.374 162.544 324.948 162.736 325.566 162.736C326.206 162.736 326.743 162.586 327.177 162.285C327.608 161.994 327.898 161.532 328.047 160.899C328.192 160.286 328.102 159.808 327.777 159.466C327.461 159.134 326.969 158.957 326.302 158.936L326.706 157.223C327.914 157.254 328.759 157.607 329.24 158.282C329.729 158.968 329.85 159.834 329.603 160.883C329.336 162.015 328.808 162.897 328.019 163.531C327.228 164.174 326.298 164.496 325.232 164.496C324.464 164.496 323.768 164.304 323.143 163.92C322.528 163.546 321.999 163.094 321.559 162.565C321.126 162.046 320.638 161.381 320.093 160.572L319.618 159.871L318.454 164.808H316.934L318.718 157.239H320.046L320.774 158.36ZM325.198 166.336C326.175 166.398 326.862 166.767 327.258 167.442C327.651 168.127 327.723 168.999 327.473 170.058C327.302 170.785 327.02 171.413 326.629 171.942C326.237 172.472 325.781 172.872 325.258 173.142C324.736 173.412 324.187 173.547 323.611 173.547C322.95 173.547 322.425 173.375 322.036 173.033C321.647 172.69 321.429 172.28 321.382 171.802H321.318C320.982 172.415 320.517 172.892 319.924 173.235C319.342 173.578 318.657 173.749 317.867 173.749C317.238 173.749 316.711 173.609 316.286 173.329C315.862 173.048 315.57 172.633 315.412 172.083C315.264 171.532 315.281 170.873 315.462 170.105C315.726 168.984 316.237 168.06 316.995 167.333C317.761 166.616 318.705 166.232 319.827 166.18L319.423 167.893C318.848 167.935 318.334 168.148 317.881 168.532C317.438 168.916 317.14 169.435 316.986 170.089C316.836 170.723 316.897 171.211 317.169 171.553C317.451 171.896 317.874 172.067 318.44 172.067C319.186 172.067 319.769 171.833 320.189 171.366C320.616 170.909 320.943 170.203 321.168 169.248L321.263 168.843H322.767L322.668 169.264C322.481 170.105 322.474 170.743 322.649 171.179C322.821 171.626 323.206 171.849 323.803 171.849C324.315 171.849 324.758 171.688 325.133 171.366C325.518 171.044 325.78 170.588 325.92 169.996C326.057 169.414 326.008 168.963 325.775 168.641C325.552 168.319 325.224 168.127 324.791 168.065L325.198 166.336ZM316.711 175.396H318.087L324.566 180.629L324.06 182.778H316.556L316.214 184.226H314.63L314.972 182.778H312.54L312.951 181.033H315.383L316.711 175.396ZM322.596 181.111L317.814 177.436L316.948 181.111H322.596ZM319.269 197.062L320.499 191.845H317.315C317.562 192.063 317.737 192.385 317.839 192.811C317.939 193.247 317.932 193.709 317.817 194.197C317.611 195.069 317.253 195.775 316.742 196.315C316.228 196.865 315.651 197.254 315.01 197.483C314.367 197.721 313.721 197.841 313.07 197.841C312.281 197.841 311.612 197.69 311.064 197.389C310.525 197.098 310.149 196.657 309.936 196.065C309.721 195.484 309.714 194.768 309.915 193.916C310.181 192.785 310.683 191.876 311.421 191.191C312.158 190.506 313.018 190.096 313.999 189.961L313.592 191.689C313.063 191.803 312.603 192.058 312.212 192.452C311.831 192.847 311.571 193.34 311.431 193.932C311.257 194.669 311.357 195.219 311.73 195.583C312.101 195.956 312.665 196.143 313.422 196.143C314.19 196.143 314.821 195.956 315.314 195.583C315.818 195.209 316.156 194.659 316.327 193.932C316.447 193.423 316.415 192.992 316.232 192.639C316.056 192.297 315.763 192.047 315.352 191.892L315.748 190.21H322.484L320.869 197.062H319.269ZM316.076 205.794C316.593 205.679 317.01 205.472 317.327 205.171C317.643 204.87 317.865 204.449 317.992 203.909C318.185 203.089 318.004 202.477 317.449 202.072C316.904 201.667 315.888 201.454 314.399 201.433C314.805 201.703 315.075 202.098 315.208 202.617C315.342 203.136 315.338 203.696 315.196 204.299C315.035 204.984 314.738 205.586 314.306 206.105C313.883 206.635 313.349 207.045 312.704 207.335C312.058 207.636 311.334 207.787 310.534 207.787C309.787 207.787 309.155 207.642 308.637 207.351C308.116 207.071 307.751 206.65 307.542 206.09C307.344 205.529 307.337 204.854 307.523 204.065C307.775 202.996 308.213 202.155 308.838 201.542C309.47 200.94 310.259 200.514 311.203 200.265C312.144 200.026 313.276 199.907 314.599 199.907C318.503 199.907 320.139 201.246 319.508 203.925C319.264 204.963 318.783 205.778 318.068 206.37C317.35 206.972 316.558 207.325 315.69 207.429L316.076 205.794ZM313.752 203.909C313.901 203.276 313.831 202.736 313.542 202.29C313.26 201.854 312.752 201.636 312.016 201.636C311.28 201.636 310.645 201.838 310.113 202.243C309.588 202.658 309.239 203.234 309.065 203.972C308.911 204.626 308.998 205.14 309.326 205.513C309.651 205.897 310.161 206.09 310.854 206.09C311.579 206.09 312.199 205.903 312.714 205.529C313.237 205.166 313.583 204.626 313.752 203.909ZM314.76 216.876L305.525 212.546L305.947 210.755L314.979 215.131L316.337 209.369H317.889L316.12 216.876H314.76ZM309.791 220.311C310.6 219.231 311.602 218.691 312.796 218.691C313.372 218.691 313.867 218.831 314.281 219.112C314.695 219.392 314.975 219.812 315.12 220.373C315.276 220.934 315.259 221.619 315.068 222.429C314.879 223.228 314.575 223.908 314.155 224.469C313.743 225.04 313.264 225.466 312.718 225.746C312.172 226.026 311.611 226.166 311.035 226.166C310.438 226.166 309.945 226.016 309.557 225.715C309.178 225.424 308.923 225.035 308.793 224.547C308.429 225.139 307.951 225.606 307.358 225.948C306.776 226.291 306.144 226.462 305.461 226.462C304.768 226.462 304.195 226.291 303.742 225.948C303.29 225.606 302.992 225.128 302.848 224.516C302.704 223.903 302.724 223.207 302.908 222.429C303.091 221.65 303.399 220.954 303.831 220.342C304.261 219.74 304.783 219.267 305.397 218.925C306.011 218.582 306.665 218.411 307.359 218.411C308.052 218.411 308.609 218.582 309.029 218.925C309.45 219.267 309.704 219.729 309.791 220.311ZM311.211 224.469C311.808 224.469 312.31 224.287 312.715 223.924C313.121 223.56 313.398 223.062 313.548 222.429C313.694 221.806 313.651 221.313 313.416 220.949C313.182 220.586 312.761 220.404 312.153 220.404C311.619 220.404 311.138 220.591 310.709 220.965C310.287 221.349 310.007 221.837 309.868 222.429C309.728 223.021 309.784 223.508 310.035 223.893C310.286 224.277 310.678 224.469 311.211 224.469ZM308.492 222.429C308.653 221.744 308.609 221.183 308.36 220.747C308.119 220.321 307.673 220.108 307.023 220.108C306.415 220.108 305.87 220.316 305.388 220.731C304.917 221.147 304.596 221.712 304.428 222.429C304.261 223.135 304.322 223.69 304.611 224.095C304.897 224.51 305.339 224.718 305.936 224.718C306.576 224.718 307.122 224.505 307.575 224.08C308.025 223.664 308.33 223.114 308.492 222.429ZM303.499 234.583C302.942 234.687 302.484 234.91 302.126 235.253C301.768 235.595 301.52 236.057 301.383 236.639C301.209 237.376 301.381 237.916 301.897 238.259C302.414 238.601 303.392 238.772 304.832 238.772C304.528 238.523 304.329 238.17 304.234 237.713C304.147 237.267 304.166 236.779 304.291 236.25C304.45 235.575 304.733 234.962 305.14 234.412C305.557 233.862 306.082 233.426 306.712 233.104C307.351 232.792 308.07 232.637 308.87 232.637C310.044 232.637 310.899 232.969 311.435 233.633C311.98 234.308 312.115 235.232 311.838 236.405C311.505 237.817 310.784 238.819 309.674 239.411C308.572 240.013 307.024 240.314 305.029 240.314C303.653 240.314 302.554 240.2 301.734 239.972C300.91 239.754 300.34 239.369 300.021 238.819C299.703 238.269 299.659 237.506 299.889 236.53C300.15 235.419 300.651 234.562 301.39 233.96C302.129 233.358 302.961 233.021 303.885 232.948L303.499 234.583ZM305.753 236.561C305.607 237.184 305.689 237.672 306 238.025C306.32 238.388 306.811 238.57 307.472 238.57C308.208 238.57 308.824 238.378 309.32 237.994C309.824 237.62 310.153 237.106 310.307 236.452C310.461 235.798 310.37 235.279 310.034 234.895C309.706 234.521 309.201 234.334 308.518 234.334C307.868 234.334 307.286 234.516 306.774 234.879C306.27 235.253 305.93 235.813 305.753 236.561ZM308.578 242.024H310.242L309.479 245.263H297.815L298.237 243.472H308.237L308.578 242.024ZM303.224 247.702C305.069 247.702 306.438 248.003 307.331 248.605C308.232 249.218 308.508 250.266 308.158 251.751C307.808 253.236 307.039 254.279 305.852 254.881C304.673 255.494 303.161 255.8 301.316 255.8C299.449 255.8 298.06 255.494 297.148 254.881C296.245 254.279 295.968 253.236 296.318 251.751C296.668 250.266 297.437 249.218 298.627 248.605C299.825 248.003 301.357 247.702 303.224 247.702ZM301.727 254.056C302.591 254.056 303.335 253.999 303.959 253.885C304.581 253.781 305.118 253.563 305.569 253.23C306.031 252.898 306.34 252.405 306.494 251.751C306.648 251.097 306.572 250.604 306.266 250.271C305.971 249.939 305.539 249.716 304.968 249.602C304.395 249.498 303.677 249.446 302.813 249.446C301.917 249.446 301.153 249.498 300.52 249.602C299.888 249.706 299.346 249.924 298.894 250.256C298.44 250.599 298.136 251.097 297.982 251.751C297.828 252.405 297.898 252.898 298.193 253.23C298.486 253.573 298.924 253.796 299.507 253.9C300.091 254.004 300.831 254.056 301.727 254.056ZM304.944 257.445H306.608L305.845 260.684H294.181L294.603 258.893H304.603L304.944 257.445ZM302.708 266.935H304.372L303.608 270.174H291.944L292.366 268.383H302.366L302.708 266.935ZM293.618 273.594C294.269 274.591 294.809 275.375 295.24 275.946C295.679 276.527 296.163 277.01 296.691 277.394C297.219 277.778 297.792 277.971 298.411 277.971C299.051 277.971 299.588 277.82 300.022 277.519C300.453 277.228 300.743 276.766 300.892 276.133C301.036 275.52 300.946 275.043 300.622 274.7C300.305 274.368 299.814 274.191 299.147 274.171L299.55 272.458C300.759 272.489 301.604 272.842 302.085 273.517C302.574 274.202 302.695 275.069 302.448 276.117C302.181 277.249 301.653 278.131 300.864 278.765C300.072 279.408 299.143 279.73 298.076 279.73C297.308 279.73 296.612 279.538 295.988 279.154C295.372 278.78 294.844 278.329 294.403 277.799C293.971 277.28 293.482 276.616 292.937 275.806L292.462 275.105L291.299 280.042H289.779L291.563 272.473H292.891L293.618 273.594ZM298.043 281.57C299.02 281.633 299.707 282.001 300.102 282.676C300.495 283.361 300.567 284.233 300.318 285.292C300.146 286.019 299.865 286.647 299.474 287.177C299.082 287.706 298.625 288.106 298.103 288.376C297.581 288.646 297.032 288.781 296.456 288.781C295.794 288.781 295.269 288.609 294.881 288.267C294.492 287.924 294.274 287.514 294.227 287.037H294.163C293.826 287.649 293.362 288.127 292.769 288.469C292.187 288.812 291.501 288.983 290.712 288.983C290.083 288.983 289.556 288.843 289.131 288.563C288.706 288.282 288.415 287.867 288.257 287.317C288.109 286.767 288.126 286.107 288.307 285.339C288.571 284.218 289.082 283.294 289.84 282.567C290.606 281.851 291.55 281.466 292.671 281.415L292.268 283.128C291.693 283.169 291.179 283.382 290.725 283.766C290.283 284.15 289.984 284.669 289.83 285.323C289.681 285.957 289.742 286.445 290.013 286.787C290.295 287.13 290.719 287.301 291.284 287.301C292.031 287.301 292.614 287.068 293.033 286.601C293.461 286.144 293.787 285.438 294.013 284.483L294.108 284.078H295.612L295.513 284.498C295.325 285.339 295.319 285.978 295.493 286.414C295.666 286.86 296.05 287.083 296.648 287.083C297.16 287.083 297.603 286.922 297.977 286.601C298.363 286.279 298.625 285.822 298.764 285.23C298.901 284.649 298.853 284.197 298.62 283.875C298.397 283.553 298.069 283.361 297.635 283.299L298.043 281.57ZM289.556 290.63H290.932L297.411 295.863L296.904 298.012H289.4L289.059 299.46H287.475L287.816 298.012H285.384L285.795 296.268H288.227L289.556 290.63ZM295.441 296.346L290.659 292.67L289.793 296.346H295.441Z" fill="white"/>
<g clip-path="url(#clip3_6365_5537)">
<path d="M408.637 174.514C409.469 174.71 410.166 175.055 410.728 175.548C411.287 176.051 411.672 176.641 411.884 177.317C412.102 178.006 412.127 178.713 411.956 179.437C411.802 180.091 411.537 180.628 411.163 181.05C410.796 181.483 410.387 181.801 409.937 182.003L411.141 182.287L410.732 184.022L402.44 182.068L402.849 180.333L404.083 180.624C403.761 180.24 403.529 179.766 403.386 179.201C403.244 178.637 403.249 178.033 403.4 177.389C403.569 176.675 403.903 176.063 404.404 175.555C404.915 175.049 405.539 174.697 406.274 174.498C407.016 174.312 407.804 174.317 408.637 174.514ZM407.003 181.312C407.575 181.446 408.1 181.443 408.578 181.301C409.054 181.169 409.447 180.937 409.758 180.607C410.069 180.277 410.276 179.89 410.381 179.448C410.485 179.005 410.472 178.567 410.341 178.133C410.221 177.701 409.978 177.314 409.614 176.973C409.257 176.645 408.793 176.414 408.221 176.279C407.649 176.144 407.12 176.142 406.634 176.271C406.146 176.411 405.741 176.645 405.42 176.973C405.107 177.313 404.899 177.7 404.798 178.132C404.693 178.575 404.706 179.013 404.837 179.447C404.968 179.882 405.216 180.264 405.583 180.595C405.958 180.938 406.431 181.177 407.003 181.312Z" fill="#9400D3"/>
<path d="M408.591 187.717C408.953 188.068 409.201 188.477 409.334 188.943C409.475 189.423 409.478 189.949 409.343 190.522L407.568 190.104L407.671 189.666C407.83 188.992 407.78 188.439 407.522 188.007C407.261 187.584 406.71 187.274 405.867 187.075L401.503 186.047L401.908 184.327L410.2 186.281L409.795 188.001L408.591 187.717Z" fill="#9400D3"/>
<path d="M406.963 193.748L402.373 192.666C402.062 192.593 401.82 192.61 401.646 192.718C401.48 192.838 401.356 193.074 401.273 193.426L401.024 194.483L399.594 194.146L399.914 192.788C400.097 192.013 400.417 191.462 400.875 191.135C401.334 190.808 401.969 190.74 402.782 190.931L407.372 192.013L407.603 191.032L409.003 191.362L408.771 192.343L410.833 192.828L410.424 194.564L408.362 194.078L407.886 196.1L406.486 195.77L406.963 193.748Z" fill="#9400D3"/>
<path d="M406.635 202.018C406.485 202.651 406.217 203.183 405.83 203.612C405.441 204.051 404.947 204.349 404.349 204.505C403.748 204.671 403.072 204.666 402.319 204.489L397.428 203.336L397.83 201.631L402.465 202.723C403.208 202.898 403.819 202.846 404.298 202.566C404.786 202.288 405.107 201.828 405.259 201.184C405.41 200.54 405.331 199.98 405.019 199.503C404.716 199.038 404.193 198.719 403.45 198.544L398.815 197.451L399.221 195.731L410.357 198.355L409.952 200.076L406.144 199.178C406.427 199.553 406.611 199.984 406.697 200.471C406.781 200.969 406.76 201.484 406.635 202.018Z" fill="#9400D3"/>
<path d="M401.23 205.943C402.063 206.14 402.76 206.484 403.321 206.978C403.88 207.481 404.266 208.071 404.477 208.747C404.696 209.436 404.72 210.142 404.549 210.866C404.395 211.52 404.131 212.058 403.756 212.479C403.389 212.913 402.981 213.231 402.531 213.433L403.735 213.716L403.326 215.452L395.034 213.498L395.443 211.763L396.677 212.053C396.354 211.67 396.122 211.195 395.979 210.631C395.837 210.066 395.842 209.462 395.994 208.819C396.162 208.104 396.497 207.493 396.998 206.985C397.509 206.479 398.132 206.126 398.867 205.928C399.61 205.742 400.397 205.747 401.23 205.943ZM399.596 212.741C400.168 212.876 400.693 212.873 401.171 212.731C401.647 212.598 402.041 212.367 402.351 212.037C402.662 211.707 402.87 211.32 402.974 210.878C403.078 210.435 403.065 209.997 402.935 209.562C402.814 209.13 402.571 208.744 402.207 208.403C401.85 208.075 401.386 207.844 400.814 207.709C400.242 207.574 399.713 207.571 399.227 207.701C398.739 207.841 398.334 208.075 398.013 208.403C397.7 208.743 397.493 209.129 397.391 209.562C397.286 210.005 397.3 210.443 397.43 210.877C397.561 211.311 397.81 211.694 398.177 212.025C398.551 212.368 399.024 212.607 399.596 212.741Z" fill="#9400D3"/>
<path d="M393.719 213.187L403.256 172.714L403.433 172.756L393.895 213.229L393.719 213.187Z" fill="white"/>
<path d="M387.708 210.07C387.784 209.747 387.91 209.47 388.085 209.239C388.264 209.013 388.471 208.85 388.704 208.747C388.943 208.646 389.188 208.62 389.439 208.669L389.232 209.548C389.054 209.522 388.888 209.57 388.734 209.691C388.583 209.818 388.481 209.995 388.427 210.224C388.371 210.463 388.372 210.657 388.431 210.807C388.494 210.964 388.598 211.059 388.742 211.093C388.896 211.129 389.028 211.081 389.137 210.95C389.246 210.823 389.382 210.612 389.547 210.315C389.704 210.027 389.845 209.795 389.97 209.62C390.095 209.445 390.257 209.305 390.455 209.199C390.651 209.099 390.884 209.08 391.152 209.143C391.371 209.195 391.554 209.306 391.703 209.478C391.856 209.65 391.957 209.868 392.005 210.131C392.052 210.399 392.039 210.69 391.965 211.003C391.855 211.47 391.647 211.817 391.342 212.044C391.04 212.277 390.684 212.355 390.272 212.279L390.472 211.43C390.659 211.458 390.823 211.418 390.964 211.31C391.105 211.201 391.203 211.033 391.256 210.804C391.309 210.581 391.307 210.399 391.251 210.26C391.195 210.121 391.097 210.035 390.958 210.002C390.848 209.976 390.747 209.994 390.654 210.056C390.561 210.118 390.478 210.201 390.406 210.305C390.34 210.41 390.248 210.567 390.13 210.775C389.981 211.054 389.841 211.278 389.712 211.447C389.587 211.622 389.429 211.761 389.237 211.862C389.045 211.964 388.817 211.986 388.552 211.929C388.319 211.874 388.125 211.76 387.972 211.588C387.819 211.415 387.718 211.198 387.67 210.935C387.62 210.676 387.633 210.388 387.708 210.07Z" fill="white"/>
<path d="M391.456 203.749C391.868 203.846 392.214 204.017 392.492 204.261C392.769 204.51 392.96 204.801 393.065 205.135C393.173 205.475 393.185 205.827 393.099 206.19C393.036 206.458 392.915 206.707 392.734 206.938C392.558 207.174 392.355 207.346 392.125 207.455L394.107 207.922L393.905 208.779L388.39 207.479L388.592 206.622L389.211 206.768C389.045 206.582 388.926 206.35 388.856 206.071C388.784 205.797 388.785 205.501 388.86 205.183C388.945 204.825 389.111 204.518 389.361 204.262C389.613 204.012 389.922 203.839 390.286 203.741C390.654 203.649 391.044 203.652 391.456 203.749ZM390.649 207.107C390.932 207.174 391.192 207.172 391.429 207.102C391.665 207.037 391.859 206.923 392.013 206.76C392.167 206.597 392.27 206.406 392.321 206.187C392.373 205.969 392.366 205.752 392.301 205.537C392.241 205.324 392.121 205.133 391.941 204.965C391.764 204.802 391.534 204.688 391.251 204.621C390.967 204.554 390.705 204.553 390.465 204.617C390.223 204.686 390.023 204.801 389.864 204.963C389.709 205.131 389.606 205.322 389.556 205.536C389.505 205.754 389.511 205.971 389.576 206.185C389.641 206.4 389.764 206.589 389.946 206.753C390.131 206.922 390.366 207.04 390.649 207.107Z" fill="white"/>
<path d="M393.301 202.361C393.481 202.535 393.603 202.737 393.67 202.967C393.74 203.204 393.742 203.464 393.675 203.747L392.795 203.54L392.846 203.324C392.925 202.991 392.9 202.718 392.772 202.504C392.643 202.295 392.37 202.142 391.952 202.043L389.791 201.534L389.991 200.684L394.098 201.652L393.897 202.502L393.301 202.361Z" fill="white"/>
<path d="M393.32 195.837C393.733 195.934 394.078 196.104 394.356 196.348C394.633 196.597 394.824 196.889 394.929 197.223C395.037 197.563 395.05 197.912 394.965 198.27C394.889 198.593 394.758 198.858 394.573 199.066C394.391 199.281 394.189 199.438 393.966 199.537L394.563 199.678L394.361 200.535L390.254 199.567L390.456 198.71L391.067 198.854C390.907 198.664 390.792 198.43 390.721 198.151C390.651 197.872 390.653 197.574 390.728 197.256C390.811 196.903 390.977 196.601 391.225 196.35C391.477 196.1 391.786 195.926 392.15 195.828C392.518 195.737 392.908 195.74 393.32 195.837ZM392.513 199.195C392.796 199.261 393.056 199.26 393.293 199.19C393.529 199.125 393.723 199.01 393.877 198.847C394.031 198.684 394.134 198.494 394.185 198.275C394.237 198.056 394.23 197.84 394.165 197.625C394.105 197.412 393.985 197.221 393.805 197.052C393.628 196.89 393.398 196.776 393.115 196.709C392.831 196.642 392.569 196.641 392.329 196.705C392.087 196.773 391.887 196.889 391.728 197.051C391.573 197.219 391.47 197.41 391.42 197.623C391.369 197.842 391.375 198.059 391.44 198.273C391.505 198.488 391.628 198.677 391.81 198.84C391.995 199.01 392.23 199.128 392.513 199.195Z" fill="white"/>
<path d="M395.208 190.197C395.715 190.316 396.142 190.54 396.489 190.869C396.836 191.202 397.073 191.596 397.202 192.051C397.334 192.513 397.344 192.984 397.23 193.466C397.1 194.018 396.848 194.475 396.474 194.838C396.104 195.207 395.648 195.43 395.105 195.507L395.346 194.485C395.651 194.416 395.898 194.277 396.089 194.07C396.279 193.864 396.411 193.604 396.485 193.291C396.566 192.948 396.561 192.624 396.47 192.319C396.379 192.015 396.208 191.751 395.956 191.53C395.703 191.313 395.385 191.159 395.002 191.069C394.62 190.979 394.267 190.974 393.944 191.055C393.619 191.141 393.346 191.3 393.123 191.531C392.906 191.763 392.757 192.05 392.676 192.393C392.603 192.706 392.605 192.998 392.683 193.268C392.761 193.538 392.92 193.772 393.162 193.971L392.921 194.992C392.47 194.681 392.161 194.278 391.995 193.782C391.827 193.292 391.809 192.771 391.939 192.219C392.053 191.732 392.27 191.314 392.588 190.964C392.912 190.615 393.303 190.369 393.761 190.226C394.219 190.087 394.701 190.077 395.208 190.197Z" fill="white"/>
</g>
<rect x="420.56" y="155.531" width="19.2678" height="19.2675" rx="1" transform="rotate(103.26 420.56 155.531)" fill="#9400D3"/>
<path d="M404.991 163.569C405.609 165.567 407.027 166.693 407.561 167.072C407.835 167.266 408.056 167.392 408.29 167.525C408.598 167.701 408.898 167.852 409.185 167.983L410.12 168.203C411.461 168.519 412.6 168.354 413.538 167.71C414.475 167.064 415.139 165.922 415.525 164.282C415.793 163.144 415.816 162.12 415.596 161.212C415.618 161.901 415.592 163.275 414.743 164.553C414.473 164.959 414.069 165.566 413.301 165.886C412.786 166.101 412.314 166.101 411.864 166.101C411.515 166.101 411.197 166.068 410.916 166.021C410.901 166.02 410.885 166.02 410.871 166.019C410.342 165.928 409.797 165.823 409.238 165.702C408.19 165.475 407.207 165.216 406.291 164.94C405.979 164.668 405.51 164.183 405.188 163.448C405.079 163.201 404.996 162.942 404.938 162.673C404.805 162.057 404.759 161.492 404.799 160.977C404.748 161.237 404.719 161.502 404.716 161.767C404.708 162.554 404.858 163.138 404.991 163.569Z" fill="url(#paint6_linear_6365_5537)"/>
<path d="M413.302 165.924C414.075 165.604 414.479 164.997 414.75 164.59C415.603 163.312 415.627 161.937 415.604 161.246C415.535 160.964 415.443 160.692 415.327 160.431C414.997 159.693 414.554 159.244 414.44 159.129C413.675 158.358 412.785 158.05 412.263 157.928C412.037 157.875 411.845 157.849 411.712 157.835C411.787 157.955 411.889 158.135 411.976 158.367C412.133 158.781 412.161 159.142 412.168 159.485C412.191 160.48 412.047 161.529 411.994 161.893C411.983 162.043 411.984 162.226 412.019 162.43C412.104 162.921 412.339 163.271 412.488 163.459C412.366 162.875 412.477 162.249 412.783 161.737C412.863 161.604 412.986 161.464 413.141 161.478C413.25 161.488 413.336 161.574 413.406 161.659C413.416 161.672 413.425 161.685 413.435 161.698C413.447 161.721 413.46 161.743 413.471 161.766C413.829 162.497 413.656 163.325 413.515 163.844C413.364 164.395 413.148 165.186 412.384 165.68C411.808 166.052 411.204 166.07 410.905 166.056C411.188 166.104 411.507 166.137 411.859 166.137C412.311 166.138 412.785 166.138 413.302 165.924Z" fill="url(#paint7_linear_6365_5537)"/>
<path d="M406.997 157.373C407.74 157.786 408.209 158.584 408.396 159.413C408.508 159.905 408.531 160.409 408.51 160.915C408.521 161.319 408.479 161.733 408.473 162.102C408.447 163.463 408.502 164.067 408.773 164.657C408.888 164.907 409.036 165.143 409.283 165.34C409.686 165.662 410.139 165.71 410.352 165.718C410.265 165.493 410.212 165.191 410.195 164.81C410.155 163.975 410.184 163.016 410.281 161.938C410.427 160.319 410.252 159.057 409.757 158.154C409.044 156.855 407.423 156.069 405.959 156.339C405.269 156.466 404.695 156.8 404.231 157.258C404.607 157.131 405.001 157.056 405.397 157.039C405.949 157.016 406.515 157.105 406.997 157.373Z" fill="url(#paint8_linear_6365_5537)"/>
<path d="M402.419 166.612C402.619 166.583 402.872 166.614 403.368 166.676C403.641 166.711 403.866 166.746 404.021 166.772L409.204 167.993C408.918 167.863 408.62 167.713 408.313 167.538C408.08 167.405 407.86 167.28 407.588 167.086C407.057 166.709 405.646 165.588 405.031 163.597C404.899 163.168 404.75 162.586 404.758 161.802C404.761 161.537 404.79 161.274 404.842 161.014C404.858 160.801 404.89 160.596 404.936 160.4C405.141 159.527 405.72 158.782 406.683 158.747C407.394 158.721 408.128 159.177 408.417 159.831C408.544 160.118 408.587 160.444 408.596 160.776C408.616 160.273 408.593 159.771 408.483 159.281C408.297 158.456 407.831 157.66 407.092 157.249C406.613 156.983 406.05 156.894 405.502 156.918C405.107 156.935 404.716 157.009 404.342 157.136C403.656 157.813 403.21 158.761 402.987 159.706C402.795 160.523 402.759 161.337 402.881 162.151C403.001 162.962 403.297 163.699 403.768 164.36C403.511 164.36 402.948 164.398 402.421 164.779C401.332 165.565 401.469 167.041 401.477 167.113C401.868 166.735 402.221 166.641 402.419 166.612Z" fill="url(#paint9_linear_6365_5537)"/>
</g>
<path d="M382.181 81C382.181 84.0769 386.769 91 389.063 91C386.927 91 383.132 95.0028 382.621 99.902C382.644 100.283 382.627 100.651 382.563 101C382.563 100.63 382.583 100.264 382.621 99.902C382.392 96.0874 378.149 91 376.063 91C377.593 91 382.181 87.4615 382.181 81Z" fill="white"/>
<path d="M110.828 355C110.828 357 113.652 361.5 115.063 361.5C113.749 361.5 111.414 364.102 111.099 367.286C111.113 367.534 111.102 367.773 111.063 368C111.063 367.759 111.076 367.521 111.099 367.286C110.958 364.807 108.347 361.5 107.063 361.5C108.005 361.5 110.828 359.2 110.828 355Z" fill="white"/>
<path d="M422.946 422C422.946 423.077 424.358 425.5 425.063 425.5C424.406 425.5 423.239 426.901 423.081 428.616C423.088 428.749 423.083 428.878 423.063 429C423.063 428.87 423.07 428.742 423.081 428.616C423.011 427.281 421.705 425.5 421.063 425.5C421.534 425.5 422.946 424.262 422.946 422Z" fill="white"/>
<path d="M76.9457 133C76.9457 134.077 78.3577 136.5 79.0635 136.5C78.4061 136.5 77.2386 137.901 77.0812 139.616C77.0882 139.749 77.083 139.878 77.0635 140C77.0635 139.87 77.0696 139.742 77.0812 139.616C77.0108 138.281 75.7053 136.5 75.0635 136.5C75.5341 136.5 76.9457 135.262 76.9457 133Z" fill="#FF7955"/>
<defs>
<filter id="filter0_f_6365_5537" x="33.577" y="31.1542" width="527.275" height="531.11" filterUnits="userSpaceOnUse" color-interpolation-filters="sRGB">
<feFlood flood-opacity="0" result="BackgroundImageFix"/>
<feBlend mode="normal" in="SourceGraphic" in2="BackgroundImageFix" result="shape"/>
<feGaussianBlur stdDeviation="54.4229" result="effect1_foregroundBlur_6365_5537"/>
</filter>
<radialGradient id="paint0_radial_6365_5537" cx="0" cy="0" r="1" gradientUnits="userSpaceOnUse" gradientTransform="translate(30.0981 199.153) rotate(-28.0255) scale(219.976 249.789)">
<stop stop-color="#937F1D"/>
<stop offset="0.604167" stop-color="#CAB031"/>
<stop offset="0.892823" stop-color="#978012"/>
<stop offset="1" stop-color="#C2A411"/>
</radialGradient>
<linearGradient id="paint1_linear_6365_5537" x1="276.573" y1="88.4888" x2="278.945" y2="79.509" gradientUnits="userSpaceOnUse">
<stop stop-color="#FFFF63"/>
<stop offset="0.276" stop-color="#D4D400"/>
<stop offset="0.531" stop-color="#F5F52A"/>
<stop offset="0.761" stop-color="#E9E900"/>
<stop offset="0.951" stop-color="#C3C30E"/>
</linearGradient>
<linearGradient id="paint2_linear_6365_5537" x1="286.659" y1="80.686" x2="282.411" y2="77.0522" gradientUnits="userSpaceOnUse">
<stop stop-color="#D9D901"/>
<stop offset="0.276" stop-color="#E4E430"/>
<stop offset="0.577405" stop-color="#E9E900"/>
<stop offset="1" stop-color="#FFFF81"/>
</linearGradient>
<linearGradient id="paint3_linear_6365_5537" x1="281.857" y1="81.4744" x2="278.302" y2="75.0902" gradientUnits="userSpaceOnUse">
<stop stop-color="#D9D901"/>
<stop offset="0.276" stop-color="#E4E430"/>
<stop offset="0.577405" stop-color="#E9E900"/>
<stop offset="1" stop-color="#717100"/>
</linearGradient>
<linearGradient id="paint4_linear_6365_5537" x1="275.168" y1="89.6122" x2="280.567" y2="81.031" gradientUnits="userSpaceOnUse">
<stop stop-color="#FFFF63"/>
<stop offset="0.276" stop-color="#D4D400"/>
<stop offset="0.531" stop-color="#F5F52A"/>
<stop offset="0.761" stop-color="#E9E900"/>
<stop offset="0.951" stop-color="#C3C30E"/>
</linearGradient>
<radialGradient id="paint5_radial_6365_5537" cx="0" cy="0" r="1" gradientUnits="userSpaceOnUse" gradientTransform="translate(30.098 199.154) rotate(-28.0256) scale(219.976 249.789)">
<stop stop-color="#1D5297"/>
<stop offset="0.604167" stop-color="#51AFCE"/>
<stop offset="0.892823" stop-color="#1075AB"/>
<stop offset="1" stop-color="#1888D3"/>
</radialGradient>
<linearGradient id="paint6_linear_6365_5537" x1="402.059" y1="165.95" x2="408.078" y2="158.877" gradientUnits="userSpaceOnUse">
<stop stop-color="#FFFF63"/>
<stop offset="0.276" stop-color="#D4D400"/>
<stop offset="0.531" stop-color="#F5F52A"/>
<stop offset="0.761" stop-color="#E9E900"/>
<stop offset="0.951" stop-color="#C3C30E"/>
</linearGradient>
<linearGradient id="paint7_linear_6365_5537" x1="414.527" y1="163.271" x2="412.265" y2="158.159" gradientUnits="userSpaceOnUse">
<stop stop-color="#D9D901"/>
<stop offset="0.276" stop-color="#E4E430"/>
<stop offset="0.577405" stop-color="#E9E900"/>
<stop offset="1" stop-color="#FFFF81"/>
</linearGradient>
<linearGradient id="paint8_linear_6365_5537" x1="409.855" y1="161.906" x2="409.408" y2="154.613" gradientUnits="userSpaceOnUse">
<stop stop-color="#D9D901"/>
<stop offset="0.276" stop-color="#E4E430"/>
<stop offset="0.577405" stop-color="#E9E900"/>
<stop offset="1" stop-color="#717100"/>
</linearGradient>
<linearGradient id="paint9_linear_6365_5537" x1="400.306" y1="166.356" x2="408.883" y2="160.95" gradientUnits="userSpaceOnUse">
<stop stop-color="#FFFF63"/>
<stop offset="0.276" stop-color="#D4D400"/>
<stop offset="0.531" stop-color="#F5F52A"/>
<stop offset="0.761" stop-color="#E9E900"/>
<stop offset="0.951" stop-color="#C3C30E"/>
</linearGradient>
<clipPath id="clip0_6365_5537">
<rect width="230.39" height="322.002" fill="white" transform="matrix(1 0 0.22937 0.973339 79.0635 45.9805)"/>
</clipPath>
<clipPath id="clip1_6365_5537">
<rect width="41.952" height="20" fill="white" transform="translate(293.375 91.084) rotate(77.6587)"/>
</clipPath>
<clipPath id="clip2_6365_5537">
<rect width="230.39" height="322.002" fill="white" transform="matrix(1 0 -0.22937 0.973339 218.673 124.711)"/>
</clipPath>
<clipPath id="clip3_6365_5537">
<rect width="41.952" height="20" fill="white" transform="translate(416.089 175.549) rotate(103.26)"/>
</clipPath>
</defs>
</svg>
