<svg width="45" height="45" viewBox="0 0 45 45" fill="none" xmlns="http://www.w3.org/2000/svg">
<path d="M22.5 45C34.9264 45 45 34.9264 45 22.5C45 10.0736 34.9264 0 22.5 0C10.0736 0 0 10.0736 0 22.5C0 34.9264 10.0736 45 22.5 45Z" fill="#27A17B"/>
<path d="M24.4087 23.2103C24.2919 23.2224 23.7537 23.2467 22.5259 23.2467C21.55 23.2467 20.8502 23.2103 20.6157 23.1982C16.8419 23.0173 14.0268 22.3059 14.0268 21.4511C14.0268 20.5952 16.8419 19.8838 20.6157 19.704V22.4868C20.8584 22.511 21.5652 22.5463 22.5411 22.5463C23.7212 22.5463 24.3041 22.4989 24.4118 22.4868V19.7151C28.1703 19.896 30.9925 20.6074 30.9925 21.4621C30.9874 22.318 28.1672 23.0294 24.4087 23.2103ZM24.4087 19.4272V16.9324H29.6611V13.125H15.3541V16.9324H20.6126V19.4272C16.3362 19.6434 13.125 20.5599 13.125 21.6563C13.125 22.7537 16.3362 23.6813 20.6126 23.8853V31.875H24.4067V23.8732C28.6669 23.6559 31.875 22.7404 31.875 21.6441C31.872 20.5467 28.6669 19.6434 24.4087 19.4272Z" fill="white"/>
</svg>
