<?xml version="1.0" encoding="utf-8"?>
<!-- Generator: Adobe Illustrator 17.0.0, SVG Export Plug-In . SVG Version: 6.00 Build 0)  -->
<!DOCTYPE svg PUBLIC "-//W3C//DTD SVG 1.1//EN" "http://www.w3.org/Graphics/SVG/1.1/DTD/svg11.dtd">
<svg version="1.1" id="Layer_1" xmlns="http://www.w3.org/2000/svg" xmlns:xlink="http://www.w3.org/1999/xlink" x="0px" y="0px"
	 width="36px" height="36px" viewBox="0 0 36 36" enable-background="new 0 0 36 36" xml:space="preserve">
<path fill="none" stroke="#33FFCC" d="M18,0.5L18,0.5c9.665,0,17.5,7.835,17.5,17.5l0,0c0,9.665-7.835,17.5-17.5,17.5l0,0
	C8.335,35.5,0.5,27.665,0.5,18l0,0C0.5,8.335,8.335,0.5,18,0.5z"/>
<path fill="none" stroke="#33FFCC" stroke-width="1.4" stroke-linecap="round" stroke-linejoin="round" d="M27,15.924v8.308
	c0,0.734-0.292,1.439-0.811,1.958C25.67,26.709,24.965,27,24.231,27H11.769c-0.734,0-1.439-0.292-1.958-0.811
	C9.292,25.67,9,24.966,9,24.231v-8.308c0-0.734,0.292-1.439,0.811-1.958s1.224-0.811,1.958-0.811h8.377
	c0.137,0.679,0.475,1.301,0.97,1.786c0.495,0.485,1.123,0.81,1.805,0.934c0.681,0.124,1.384,0.04,2.018-0.24
	c0.633-0.28,1.168-0.743,1.536-1.331C26.815,14.775,26.999,15.342,27,15.924z"/>
<path fill="none" stroke="#33FFCC" stroke-width="1.4" stroke-linecap="round" stroke-linejoin="round" d="M23.54,11.077v2.769
	 M24.924,12.462h-2.769 M22.155,18h4.846v4.154h-4.846c-0.551,0-1.079-0.219-1.469-0.608s-0.608-0.918-0.608-1.469
	s0.219-1.079,0.608-1.469C21.076,18.219,21.604,18,22.155,18z M27.001,12.462c0.001,0.858-0.317,1.687-0.893,2.324
	c-0.575,0.637-1.367,1.038-2.221,1.124c-0.854,0.086-1.71-0.148-2.401-0.657c-0.691-0.509-1.168-1.257-1.339-2.098
	c-0.048-0.228-0.071-0.46-0.069-0.692c0-0.918,0.365-1.799,1.014-2.448C21.741,9.365,22.622,9,23.54,9
	c0.918,0,1.799,0.365,2.448,1.014C26.637,10.663,27.001,11.543,27.001,12.462z"/>
</svg>
