<svg width="20" height="16" viewBox="0 0 20 16" fill="none" xmlns="http://www.w3.org/2000/svg">
<path d="M15.001 9.49902C15.2768 9.49928 15.5 9.7231 15.5 9.99902C15.5 10.2546 15.308 10.4648 15.0605 10.4941L14.9883 10.499H2.20996L3.06348 11.3525L6.35449 14.6445C6.5335 14.8235 6.54811 15.1052 6.39844 15.3008L6.35449 15.3516C6.17531 15.5307 5.89385 15.5456 5.69824 15.3955L5.64062 15.3447L0.648438 10.3525C0.350401 10.0545 0.535069 9.54854 0.936523 9.50195L1.00977 9.49902H15.001ZM13.6475 0.643555C13.825 0.468566 14.1015 0.453884 14.2959 0.598633L14.3662 0.660156L19.3516 5.64551C19.6498 5.94374 19.4645 6.44912 19.0625 6.49512L18.9902 6.49902H4.99902C4.72315 6.49877 4.5 6.27495 4.5 5.99902C4.50019 5.74625 4.68798 5.53668 4.93164 5.50391L5.02832 5.49902H17.79L16.9365 4.64551L13.6455 1.35352L13.585 1.28125C13.4814 1.12923 13.471 0.932348 13.5537 0.771484L13.6035 0.694336L13.6475 0.643555Z" fill="black"/>
<path d="M15.001 9.49902C15.2768 9.49928 15.5 9.7231 15.5 9.99902C15.5 10.2546 15.308 10.4648 15.0605 10.4941L14.9883 10.499H2.20996L3.06348 11.3525L6.35449 14.6445C6.5335 14.8235 6.54811 15.1052 6.39844 15.3008L6.35449 15.3516C6.17531 15.5307 5.89385 15.5456 5.69824 15.3955L5.64062 15.3447L0.648438 10.3525C0.350401 10.0545 0.535069 9.54854 0.936523 9.50195L1.00977 9.49902H15.001ZM13.6475 0.643555C13.825 0.468566 14.1015 0.453884 14.2959 0.598633L14.3662 0.660156L19.3516 5.64551C19.6498 5.94374 19.4645 6.44912 19.0625 6.49512L18.9902 6.49902H4.99902C4.72315 6.49877 4.5 6.27495 4.5 5.99902C4.50019 5.74625 4.68798 5.53668 4.93164 5.50391L5.02832 5.49902H17.79L16.9365 4.64551L13.6455 1.35352L13.585 1.28125C13.4814 1.12923 13.471 0.932348 13.5537 0.771484L13.6035 0.694336L13.6475 0.643555Z" stroke="black"/>
<path d="M15.001 9.49902C15.2768 9.49928 15.5 9.7231 15.5 9.99902C15.5 10.2546 15.308 10.4648 15.0605 10.4941L14.9883 10.499H2.20996L3.06348 11.3525L6.35449 14.6445C6.5335 14.8235 6.54811 15.1052 6.39844 15.3008L6.35449 15.3516C6.17531 15.5307 5.89385 15.5456 5.69824 15.3955L5.64062 15.3447L0.648438 10.3525C0.350401 10.0545 0.535069 9.54854 0.936523 9.50195L1.00977 9.49902H15.001ZM13.6475 0.643555C13.825 0.468566 14.1015 0.453884 14.2959 0.598633L14.3662 0.660156L19.3516 5.64551C19.6498 5.94374 19.4645 6.44912 19.0625 6.49512L18.9902 6.49902H4.99902C4.72315 6.49877 4.5 6.27495 4.5 5.99902C4.50019 5.74625 4.68798 5.53668 4.93164 5.50391L5.02832 5.49902H17.79L16.9365 4.64551L13.6455 1.35352L13.585 1.28125C13.4814 1.12923 13.471 0.932348 13.5537 0.771484L13.6035 0.694336L13.6475 0.643555Z" stroke="black" stroke-opacity="0.2"/>
</svg>
