<svg width="14" height="14" viewBox="0 0 14 14" fill="none" xmlns="http://www.w3.org/2000/svg">
<path fill-rule="evenodd" clip-rule="evenodd" d="M0.538462 8C0.835844 8 1.07692 8.26864 1.07692 8.6C1.07692 9.74832 1.07806 10.5492 1.15098 11.1535C1.22181 11.7406 1.35136 12.0514 1.55006 12.2728C1.74876 12.4942 2.02774 12.6386 2.55455 12.7175C3.09685 12.7987 3.8156 12.8 4.84615 12.8H9.15385C10.1844 12.8 10.9031 12.7987 11.4455 12.7175C11.9723 12.6386 12.2512 12.4942 12.4499 12.2728C12.6487 12.0514 12.7782 11.7406 12.8491 11.1535C12.9219 10.5492 12.9231 9.74832 12.9231 8.6C12.9231 8.26864 13.1642 8 13.4615 8C13.7589 8 14 8.26864 14 8.6V8.64392C14 9.738 14 10.6198 13.9164 11.3134C13.8295 12.0335 13.6436 12.6398 13.2115 13.1213C12.7793 13.6029 12.2352 13.81 11.589 13.9068C10.9665 14 10.1751 14 9.19326 14H4.80676C3.8249 14 3.03349 14 2.41105 13.9068C1.76482 13.81 1.22071 13.6029 0.788559 13.1214C0.356412 12.6398 0.170542 12.0335 0.0836557 11.3134C-2.83932e-05 10.6198 -1.39828e-05 9.738 3.76171e-07 8.64392C3.76171e-07 8.62928 3.76171e-07 8.61464 3.76171e-07 8.6C3.76171e-07 8.26864 0.24108 8 0.538462 8Z" fill="black"/>
<path fill-rule="evenodd" clip-rule="evenodd" d="M7.5 10C7.65518 10 7.80314 9.93897 7.90784 9.83179L10.8552 6.81455C11.0612 6.60372 11.0455 6.27655 10.8203 6.08379C10.595 5.89103 10.2455 5.90566 10.0395 6.11648L8.05263 8.15048V0.517241C8.05263 0.231579 7.8052 0 7.5 0C7.1948 0 6.94737 0.231579 6.94737 0.517241V8.15048L4.9605 6.11648C4.75455 5.90566 4.40499 5.89103 4.17974 6.08379C3.95449 6.27655 3.93883 6.60372 4.14478 6.81455L7.09216 9.83179C7.19686 9.93897 7.34482 10 7.5 10Z" fill="black"/>
</svg>
