<?xml version="1.0" encoding="utf-8"?>
<!-- Generator: Adobe Illustrator 17.0.0, SVG Export Plug-In . SVG Version: 6.00 Build 0)  -->
<!DOCTYPE svg PUBLIC "-//W3C//DTD SVG 1.1//EN" "http://www.w3.org/Graphics/SVG/1.1/DTD/svg11.dtd">
<svg version="1.1" id="Layer_1" xmlns="http://www.w3.org/2000/svg" xmlns:xlink="http://www.w3.org/1999/xlink" x="0px" y="0px"
	 width="240px" height="275px" viewBox="0 0 240 275" enable-background="new 0 0 240 275" xml:space="preserve">
<g opacity="0.8">
	<path fill="#3354CC" d="M239.374,137.494c0-32.214-12.448-62.501-35.054-85.28c-4.53-4.565-11.874-4.562-16.402,0
		c-4.53,4.565-4.53,11.966,0,16.531c18.223,18.366,28.26,42.78,28.26,68.751c0,52.89-42.131,96.02-94.349,97.176l-0.43-9.344
		c-0.268-5.832-6.534-9.339-11.59-6.49l-40.172,22.648c-5.604,3.159-5.224,11.411,0.646,14.032l42.083,18.798
		c5.296,2.367,11.211-1.711,10.943-7.546l-0.4-8.713C187.42,256.331,239.374,202.912,239.374,137.494z"/>
	<path fill="#3354CC" d="M113.408,40.492l0.423,9.17c0.005,0.126-0.082,0.245-0.072,0.371l-1.906-4.603v2.238v2.241v2.241v2.238
		v2.241v2.238l-0.145,0.464h0.939h0.939h0.939h0.939h0.939h0.939l-1.893-5.049c2.241,2.902,6.401,3.972,9.967,1.961l40.172-22.693
		c5.605-3.159,5.224-11.434-0.646-14.056l-42.083-18.81c-5.296-2.367-11.211,1.706-10.943,7.538l0.41,8.9
		C49.746,20.966,0,73.482,0,137.491c0,23.731,6.837,46.697,19.771,66.418c2.231,3.401,5.922,5.243,9.689,5.243
		c2.196,0,4.415-0.625,6.383-1.937c5.344-3.559,6.814-10.811,3.283-16.196c-10.418-15.885-15.924-34.397-15.924-53.53
		C23.201,86.01,63.124,43.768,113.408,40.492z"/>
	<path fill="#FFFFFF" d="M111.707,59.004l-0.057-0.139v0.139H111.707z"/>
</g>
<path fill="#BAC8FC" d="M191.882,140.541l-7.854-1.531c0.031-3.603-0.244-7.208-0.829-10.772l7.569-2.63
	c2.041-0.709,3.116-2.958,2.402-5.023l-4.477-12.942c-0.718-2.073-2.958-3.181-5.006-2.473l-7.602,2.629
	c-1.745-3.136-3.787-6.144-6.098-8.999l5.276-6.16c1.417-1.654,1.226-4.171-0.426-5.623l-10.357-9.098
	c-1.66-1.458-4.158-1.295-5.579,0.363l-5.292,6.179c-3.146-1.919-6.409-3.549-9.761-4.864l1.478-8.052
	c0.398-2.171-1.029-4.287-3.188-4.724L128.61,64.08c-2.168-0.439-4.247,0.97-4.643,3.148l-1.467,8.064
	c-3.645-0.09-7.287,0.142-10.886,0.685l-2.757-7.785c-0.747-2.108-3.04-3.242-5.124-2.532l-13.042,4.447
	c-2.088,0.711-3.171,2.999-2.418,5.109l2.753,7.712c-3.165,1.745-6.191,3.8-9.056,6.131l-6.213-5.365
	c-1.7-1.469-4.242-1.304-5.675,0.369L61.12,94.526c-1.433,1.673-1.211,4.216,0.494,5.681l6.179,5.304
	c-1.894,3.195-3.482,6.513-4.746,9.921l-7.9-1.54c-2.193-0.427-4.285,0.991-4.672,3.168l-2.413,13.599
	c-0.386,2.171,1.079,4.274,3.27,4.695l7.856,1.51c-0.01,3.694,0.309,7.385,0.946,11.029l-7.468,2.582
	c-2.087,0.722-3.163,2.996-2.403,5.078l4.746,12.994c0.758,2.074,3.059,3.168,5.139,2.445l7.389-2.567
	c1.824,3.18,3.959,6.219,6.366,9.095l-5.061,5.909c-1.421,1.659-1.203,4.159,0.485,5.583l10.534,8.89
	c1.681,1.419,4.192,1.228,5.608-0.426l5.046-5.892c3.218,1.891,6.548,3.485,9.964,4.751l-1.382,7.596
	c-0.389,2.136,1.042,4.19,3.195,4.587l13.436,2.481c2.144,0.396,4.199-1.009,4.59-3.139l1.4-7.632
	c3.646,0.031,7.286-0.251,10.875-0.852l2.617,7.331c0.728,2.04,2.976,3.109,5.021,2.389l12.772-4.498
	c2.04-0.719,3.108-2.953,2.386-4.992l-2.606-7.361c3.107-1.758,6.08-3.813,8.89-6.142l5.962,5.118
	c1.641,1.409,4.109,1.221,5.514-0.419l8.783-10.256c1.406-1.64,1.218-4.114-0.418-5.527l-5.996-5.178
	c1.844-3.133,3.402-6.382,4.644-9.72l7.767,1.494c2.119,0.407,4.162-0.989,4.562-3.12l2.505-13.339
	C195.398,143.021,194.004,140.954,191.882,140.541z M152.394,164.255c-14.249,16.635-39.422,18.52-56.318,4.132
	c-16.998-14.476-19.176-39.908-4.771-56.727c14.405-16.818,39.81-18.504,56.651-3.845
	C164.697,122.386,166.642,147.619,152.394,164.255z"/>
<path fill="#FCC858" d="M129.661,121.71c0.389,0.016,1.453,0.372,3.011,3.315c1.988,3.758,4.894,15.11,4.894,15.11l-8.675,3.23
	l-1.114-2.369l-1.836-18.241C125.941,122.755,129.553,121.706,129.661,121.71z"/>
<path fill="#FCC858" d="M118.194,120.074c2.481,0.003,8.618,0.727,11.467,1.637c0,0,2.093,17.987-1.884,31.654
	c-0.89,3.06,0.736,12.683,0.736,12.683l-25.704-0.339c0,0,3.045-23.265,1.898-27.023c-1.147-3.757-1.174-16.854-1.174-16.854
	s0.176-0.028,5.775-0.995C111.919,120.385,115.546,120.07,118.194,120.074z"/>
<path fill="#F7A491" d="M115.199,199.433c0,0,0.568,6.563,1.614,8.381c1.046,1.817-0.055,4.907-0.11,5.331
	c-0.055,0.424-2.201,1.03-5.613,0.666c-3.412-0.363-3.357-1.151-3.082-2.423c0.276-1.272,2.092-2.908,2.202-4.12
	c0.11-1.211-1.046-5.574-1.046-5.574L115.199,199.433z"/>
<path fill="#1E293B" d="M125.613,160.631c0,0,17.744-0.985,21.706,1.415c3.962,2.399-2.815,14.176-2.815,14.176
	s-12.347-0.568-36.53,0.827c-5.727,0.331-6.221-14.932-5.15-16.195S125.613,160.631,125.613,160.631z"/>
<path fill="#4768E0" d="M110.665,214.321c-3.513-0.374-3.079-2.1-2.795-3.411c0.177-0.82,1.185-1.787,1.786-2.702
	c0.314,0.251,0.825,0.692,2.35,1.143c1.585,0.468,3.756-0.458,5.14-1.038c0.494,1.835,0.516,4.176,0.47,4.531
	C117.559,213.281,114.178,214.695,110.665,214.321z"/>
<path fill="#1E293B" d="M112.604,173.325c0.709,5.364,4.219,32.069,4.219,32.069l-8.144,1.01c0,0-10.015-34.856-9.502-40.188
	c0.514-5.331,4.263-5.78,4.263-5.78S110.728,159.125,112.604,173.325z"/>
<path fill="#F7A491" d="M103.253,123.831c2.404-0.901,3.579,20.753,3.903,29.666c4.256,0.409,11.674,0.003,13.521-0.136
	c0.869-0.065,2.872-0.799,3.736-0.912c0.886-0.116,1.688-0.176,2.123-0.1c0.16,0.028,4.596,1.842,4.976,2.24
	c0.47,0.493,1.742,1.737,1.528,2.276c-0.215,0.538-2.447-1.5-2.447-1.5l-1.091-0.612c1.358,1.327,3.948,3.074,3.575,3.711
	c-0.364,0.62-2.7-1.153-4.366-2.361c1.429,1.29,3.203,3.599,2.795,3.958c-0.368,0.324-2.386-2.349-4.544-3.119
	c-0.799-0.285-1.596,0.505-2.225,0.6c-0.462,0.07-1.176,0.219-1.629,0.091l-2.336-0.662c-0.795,0.072-0.816,0.542-1.619,0.713
	c-0.933,0.199-2.463,0.408-3.651,0.698c-6.841,1.671-9.122,2.448-11.217,2.446C97.941,160.824,97.573,125.962,103.253,123.831z"/>
<path fill="#FCC858" d="M98.692,144.161c-0.45-9.129-0.384-20.382,4.733-22.302c2.02-0.758,5.58,3.797,4.939,22.488
	C105.632,144.572,101.621,144.754,98.692,144.161z"/>
<path fill="#F7A491" d="M139.865,205.797c0,0-1.176,2.077-0.251,3.819c0.926,1.741,5.781,4.303,6.287,5.248
	c0.506,0.944,0.308,1.612,0.308,1.612l-14.419-3.534l1.105-4.347l1.348-3.003L139.865,205.797z"/>
<path fill="#4768E0" d="M140.357,210.545c0,0-4.053,0.702-5.66-0.579c-1.607-1.282-1.499-1.518-2.092-1.297
	c-0.381,0.141-0.962,1.872-1.327,3.091c-0.195,0.648,0.195,1.327,0.852,1.49l15.015,3.71c1.14,0.219,1.895-0.493,1.127-1.408
	c-0.526-0.627-1.186-1.113-1.55-1.441C145.605,213.103,140.357,210.545,140.357,210.545z"/>
<path fill="#1E293B" d="M138.451,164.837c1.147-2.414,3.756-5.557,8.346-3.664c4.377,1.806,5.552,6.242,4.171,10.786
	c-1.381,4.543-10.474,31.25-10.791,34.922l-7.26,0.049c0,0,1.319-21.148,1.643-26.259
	C134.872,175.752,136.466,169.014,138.451,164.837z"/>
<path fill="#3354CC" d="M150.238,140.238h-24.269c-0.642,0-1.22,0.389-1.464,0.986l-7.473,18.287h-13.379
	c-0.374,0-0.677,0.304-0.677,0.679s0.303,0.679,0.677,0.679h38.079c1.047,0,1.997-0.616,2.426-1.574l7.524-16.818
	C152.152,141.426,151.386,140.238,150.238,140.238z"/>
<path fill="#FFFFFF" d="M137.172,150.887c-0.164,0.821-0.879,1.371-1.595,1.227c-0.717-0.144-1.166-0.926-1.002-1.748
	c0.164-0.821,0.878-1.371,1.595-1.227C136.887,149.283,137.336,150.066,137.172,150.887z"/>
<path fill="#0E2E35" d="M123.961,98.105c-0.732-0.246-1.452-0.524-2.147-0.86c-0.786-0.379-1.805-0.823-2.448-0.922
	c-1.354-0.209-3.681-0.07-4.966,1.324c-1.601,1.737-4.445,0.314-3.872,9.408c0.648,10.295,6.372,9.165,6.511,8.99
	c0.139-0.174,5.105-6.585,5.105-6.585s1.737,3.798,1.737,3.658C123.881,112.985,132.747,101.064,123.961,98.105z"/>
<path fill="#F7A491" d="M119.616,116.807l0.494,3.678c0,0,1.107,5.299-0.317,6.321c-1.424,1.022-6.056-6.472-6.056-6.472
	l0.489-9.321L119.616,116.807z"/>
<path fill="#F47458" d="M114.068,114.034c1.177,3.179,3.978,5.133,5.967,5.891l-0.419-3.118l-5.389-5.794L114.068,114.034z"/>
<path fill="#F7A491" d="M119.324,100.87c3.017-0.487,5.724,1.94,5.648,4.961c-0.032,1.313-0.14,2.952-0.413,4.718
	c-0.656,4.246-3.553,7.985-5.468,7.651c-1.916-0.334-6.736-3.997-5.887-10.039C113.728,104.43,116.157,101.381,119.324,100.87z"/>
<path fill="#F7A491" d="M114.533,108.882c-0.161,0.934-0.909,1.583-1.67,1.451c-0.761-0.133-1.247-0.998-1.085-1.931
	c0.161-0.934,0.909-1.583,1.67-1.451C114.209,107.084,114.695,107.948,114.533,108.882z"/>
<path fill="#0E2E35" d="M113.447,106.951c0,0,2.316,0.575,3.176-0.914c0.859-1.49,3.933-4.704,7.84-3.372
	c3.907,1.333-3.439-3.24-3.751-3.24c-0.313,0-4.063-0.026-4.063-0.026s-2.891,2.378-2.995,2.639c-0.105,0.262-0.938,3.11-0.938,3.11
	L113.447,106.951z"/>
<path fill="#FFFFFF" d="M117.684,113.166l4.215,0.806c0,0-0.403,1.587-2.266,1.287C117.361,114.892,117.684,113.166,117.684,113.166
	z"/>
</svg>
