<svg width="26" height="26" viewBox="0 0 26 26" fill="none" xmlns="http://www.w3.org/2000/svg">
<path fill-rule="evenodd" clip-rule="evenodd" d="M13 26C20.2078 26 26 20.2078 26 13C26 5.79222 20.2078 0 13 0C5.79222 0 0 5.79222 0 13C0 20.2078 5.79222 26 13 26ZM16.575 15.054C16.575 13.1618 15.4382 12.5118 13.1632 12.2431C11.5382 12.0236 11.2132 11.5931 11.2132 10.8304C11.2132 10.075 11.7578 9.58822 12.8382 9.58822C13.8132 9.58822 14.3578 9.91178 14.625 10.725C14.6828 10.8868 14.8446 10.9922 15.0078 10.9922H15.8687C15.9186 10.9938 15.9682 10.9852 16.0147 10.9671C16.0612 10.9489 16.1036 10.9215 16.1392 10.8866C16.1748 10.8516 16.203 10.8098 16.2221 10.7637C16.2411 10.7175 16.2506 10.668 16.25 10.6181V10.5618C16.0304 9.36722 15.0554 8.23044 13.8132 8.125V6.93044C13.8132 6.71089 13.65 6.54767 13.3828 6.5H12.6678C12.4482 6.5 12.2446 6.66178 12.1882 6.93044V8.125C10.5632 8.34311 9.48278 9.58678 9.48278 10.9431C9.48278 12.7313 10.5632 13.4304 12.8382 13.7063C14.3578 13.9736 14.846 14.2986 14.846 15.1681C14.846 16.0304 14.0804 16.6313 13.0578 16.6313C11.6422 16.6313 11.1569 16.0304 10.9937 15.2172C10.9446 15.0063 10.7828 14.8922 10.6196 14.8922H9.69367C9.64376 14.8916 9.59424 14.9011 9.5481 14.9202C9.50196 14.9392 9.46015 14.9674 9.42519 15.003C9.39024 15.0386 9.36285 15.081 9.3447 15.1275C9.32655 15.174 9.31799 15.2237 9.31956 15.2736V15.3313C9.53044 16.6804 10.4 17.6063 12.1882 17.8736V19.0768C12.1882 19.2963 12.35 19.4422 12.6187 19.5H13.3987C13.6096 19.5 13.7569 19.3527 13.8132 19.0768V17.8736C15.4382 17.6063 16.575 16.5172 16.575 15.054ZM7.52989 19.1028C8.31587 19.8223 9.23627 20.3795 10.2382 20.7422C10.4 20.8563 10.5632 21.0672 10.5632 21.2304V21.9931C10.5632 22.0986 10.5632 22.1563 10.5054 22.204C10.4578 22.4236 10.2382 22.529 10.0187 22.4236C8.04791 21.7952 6.328 20.5565 5.10756 18.8864C3.88711 17.2163 3.22935 15.2014 3.22935 13.1329C3.22935 11.0644 3.88711 9.04947 5.10756 7.37938C6.328 5.70929 8.04791 4.47055 10.0187 3.84222C10.0764 3.79311 10.1804 3.79311 10.2382 3.79311C10.4578 3.84222 10.5632 4.00544 10.5632 4.22356V4.98044C10.5632 5.25489 10.4578 5.41811 10.2382 5.52356C9.13037 5.92345 8.12423 6.56254 7.29139 7.39539C6.45854 8.22823 5.81945 9.23436 5.41956 10.3422C4.8606 11.8467 4.76268 13.4836 5.13831 15.044C5.51393 16.6044 6.34606 18.0175 7.52844 19.1028M15.4931 4.06178C15.5422 3.84222 15.7618 3.73678 15.9813 3.84222C17.4708 4.32574 18.8232 5.15841 19.9255 6.27077C21.0278 7.38313 21.8481 8.74294 22.3181 10.2368C23.9431 15.379 21.1236 20.8563 15.9813 22.4813C15.9236 22.529 15.8181 22.529 15.7618 22.529C15.5422 22.4813 15.4368 22.3181 15.4368 22.0986V21.3431C15.4368 21.0672 15.5422 20.9054 15.7618 20.7986C16.8692 20.3986 17.875 19.7597 18.7076 18.9271C19.5401 18.0945 20.1791 17.0888 20.579 15.9813C20.9507 14.9826 21.1208 13.92 21.0795 12.8552C21.0382 11.7903 20.7863 10.7441 20.3384 9.77711C19.8905 8.81012 19.2555 7.94146 18.4699 7.22129C17.6844 6.50113 16.764 5.94375 15.7618 5.58133C15.5986 5.46722 15.4368 5.25633 15.4368 5.03678V4.28133C15.4368 4.16722 15.4368 4.11811 15.4946 4.06178" fill="#2775CA"/>
</svg>
