<svg width="20" height="15" viewBox="0 0 20 15" fill="none" xmlns="http://www.w3.org/2000/svg">
<path d="M12.7273 0C13.6917 0 14.6166 0.395088 15.2986 1.09835C15.9805 1.80161 16.3636 2.75544 16.3636 3.75C16.3636 4.74456 15.9805 5.69839 15.2986 6.40165C14.6166 7.10491 13.6917 7.5 12.7273 7.5C11.7628 7.5 10.8379 7.10491 10.156 6.40165C9.47402 5.69839 9.09091 4.74456 9.09091 3.75C9.09091 2.75544 9.47402 1.80161 10.156 1.09835C10.8379 0.395088 11.7628 0 12.7273 0ZM12.7273 1.78125C12.221 1.78125 11.7354 1.98867 11.3773 2.35788C11.0193 2.7271 10.8182 3.22785 10.8182 3.75C10.8182 4.27214 11.0193 4.7729 11.3773 5.14212C11.7354 5.51133 12.221 5.71875 12.7273 5.71875C13.2336 5.71875 13.7192 5.51133 14.0772 5.14212C14.4352 4.7729 14.6364 4.27214 14.6364 3.75C14.6364 3.22785 14.4352 2.7271 14.0772 2.35788C13.7192 1.98867 13.2336 1.78125 12.7273 1.78125ZM12.7273 8.4375C15.1545 8.4375 20 9.68437 20 12.1875V15H5.45455V12.1875C5.45455 9.68437 10.3 8.4375 12.7273 8.4375ZM12.7273 10.2188C10 10.2188 7.18182 11.5875 7.18182 12.1875V13.2188H18.2727V12.1875C18.2727 11.5875 15.4273 10.2188 12.7273 10.2188ZM3.63636 8.7L1.36364 10.0969L1.98182 7.4625L0 5.7L2.60909 5.46562L3.63636 2.99063L4.64545 5.46562L7.27273 5.7L5.27273 7.4625L5.86364 10.0969L3.63636 8.7Z" fill="#33FFCC"/>
</svg>
