<svg width="32" height="21" viewBox="0 0 32 21" fill="none" xmlns="http://www.w3.org/2000/svg">
<path d="M21.8052 4.83313V19.9495C21.8052 20.3083 21.5137 20.5998 21.1549 20.5998H1.65026C1.29154 20.5998 1 20.3083 1 19.9495V4.83313C1 4.47318 1.29154 4.18164 1.65026 4.18164H21.1549C21.5137 4.18164 21.8052 4.47304 21.8052 4.83313Z" fill="white" stroke="#263238" stroke-width="0.5" stroke-miterlimit="10" stroke-linecap="round" stroke-linejoin="round"/>
<path d="M21.8052 4.83313V5.9218H1V4.83313C1 4.47318 1.29154 4.18164 1.65026 4.18164H21.1549C21.5137 4.18164 21.8052 4.47304 21.8052 4.83313Z" fill="#EC644E" stroke="#263238" stroke-width="0.5" stroke-miterlimit="10" stroke-linecap="round" stroke-linejoin="round"/>
<path d="M20.9172 4.83594L20.488 5.26525" stroke="white" stroke-width="0.5" stroke-miterlimit="10" stroke-linecap="round" stroke-linejoin="round"/>
<path d="M20.488 4.83594L20.9172 5.26525" stroke="white" stroke-width="0.5" stroke-miterlimit="10" stroke-linecap="round" stroke-linejoin="round"/>
<path d="M9.88697 7.00195H2.47437V14.4147H9.88697V7.00195Z" fill="#9ABAE3"/>
<path d="M4.81797 11.6342H7.42065C7.77423 11.6342 8.05466 11.2942 8.02825 10.8938C7.97419 10.0726 7.73386 8.82556 6.79125 8.54011C6.79125 8.54011 6.0062 7.90054 5.10653 8.54011C4.30101 9.11276 4.18898 10.2463 4.20943 10.9709C4.22 11.3418 4.49122 11.6342 4.81797 11.6342Z" fill="#263238"/>
<path d="M9.71221 14.2383C9.71221 14.2383 9.64772 12.4406 8.52927 11.7985C7.97844 11.4823 7.05181 11.619 6.14049 11.6225C5.22918 11.6259 4.27641 11.3981 3.51695 11.9228C2.7575 12.4475 2.59913 14.2425 2.66091 14.2425C2.74382 14.2425 9.71221 14.2383 9.71221 14.2383Z" fill="#EC644E" stroke="#263238" stroke-width="0.5" stroke-miterlimit="10" stroke-linecap="round" stroke-linejoin="round"/>
<path d="M6.64599 11.6936C6.64599 11.6936 6.96327 12.3453 6.61348 12.3692C6.06495 12.4068 5.4491 11.459 5.4491 11.459L6.64599 11.6936Z" fill="#263238"/>
<path d="M4.82438 10.6931C4.51225 9.82051 4.85513 8.89996 5.59006 8.63701C6.32513 8.37406 7.174 8.8684 7.48612 9.74098C7.79825 10.6136 7.45537 11.5341 6.72044 11.7971C5.98537 12.06 5.1365 11.5658 4.82438 10.6931Z" fill="#FCD8C3" stroke="#263238" stroke-width="0.5" stroke-miterlimit="10" stroke-linecap="round" stroke-linejoin="round"/>
<path d="M6.72038 11.797C6.51528 11.8701 6.30069 11.8846 6.09193 11.8475C6.19462 11.8404 6.29649 11.8193 6.39661 11.7839C7.0932 11.5344 7.41806 10.662 7.12246 9.83435C6.82619 9.00688 6.02148 8.53855 5.32489 8.78768C5.30741 8.79418 5.28939 8.80069 5.27246 8.80814C5.3677 8.73634 5.47418 8.67822 5.59028 8.6369C6.32508 8.37422 7.17408 8.86842 7.4862 9.74101C7.79847 10.6135 7.45572 11.5337 6.72038 11.797Z" fill="white"/>
<path d="M4.82438 10.6931C4.51225 9.82051 4.85513 8.89996 5.59006 8.63701C6.32513 8.37406 7.174 8.8684 7.48612 9.74098C7.79825 10.6136 7.45537 11.5341 6.72044 11.7971C5.98537 12.06 5.1365 11.5658 4.82438 10.6931Z" stroke="#263238" stroke-width="0.5" stroke-miterlimit="10" stroke-linecap="round" stroke-linejoin="round"/>
<path d="M4.82451 10.6881C4.82451 10.6881 6.05012 10.0764 6.04673 9.06717C6.04673 9.06717 6.66435 9.52602 7.33981 9.41845C7.33981 9.41845 6.80754 8.31299 5.59019 8.63203C4.37284 8.95121 4.82451 10.6881 4.82451 10.6881Z" fill="#263238"/>
<path d="M11.4026 7.00195V19.4482" stroke="#263238" stroke-width="0.5" stroke-miterlimit="10" stroke-linecap="round" stroke-linejoin="round"/>
<path d="M2.77039 15.1719H8.12788" stroke="#EC644E" stroke-width="0.5" stroke-miterlimit="10" stroke-linecap="round" stroke-linejoin="round"/>
<path d="M2.77039 15.9434H6.77791" stroke="#EC644E" stroke-width="0.5" stroke-miterlimit="10" stroke-linecap="round" stroke-linejoin="round"/>
<path d="M2.77039 17.1699H9.32315" stroke="#EC644E" stroke-width="0.5" stroke-miterlimit="10" stroke-linecap="round" stroke-linejoin="round"/>
<path d="M2.77039 17.9414H9.32315" stroke="#EC644E" stroke-width="0.5" stroke-miterlimit="10" stroke-linecap="round" stroke-linejoin="round"/>
<path d="M2.77039 18.7109H8.50843" stroke="#EC644E" stroke-width="0.5" stroke-miterlimit="10" stroke-linecap="round" stroke-linejoin="round"/>
<path d="M13.1814 7.47656H19.7342" stroke="#263238" stroke-width="0.5" stroke-miterlimit="10" stroke-linecap="round" stroke-linejoin="round"/>
<path d="M13.1814 8.24609H19.7342" stroke="#263238" stroke-width="0.5" stroke-miterlimit="10" stroke-linecap="round" stroke-linejoin="round"/>
<path d="M13.1814 9.01562H18.9194" stroke="#263238" stroke-width="0.5" stroke-miterlimit="10" stroke-linecap="round" stroke-linejoin="round"/>
<path d="M13.1814 14.7207H19.7342" stroke="#263238" stroke-width="0.5" stroke-miterlimit="10" stroke-linecap="round" stroke-linejoin="round"/>
<path d="M13.1814 15.4902H19.7342" stroke="#263238" stroke-width="0.5" stroke-miterlimit="10" stroke-linecap="round" stroke-linejoin="round"/>
<path d="M13.1814 16.2598H18.9194" stroke="#263238" stroke-width="0.5" stroke-miterlimit="10" stroke-linecap="round" stroke-linejoin="round"/>
<path d="M13.1814 18.7109H18.9194" stroke="#263238" stroke-width="0.5" stroke-miterlimit="10" stroke-linecap="round" stroke-linejoin="round"/>
<path d="M13.1814 10.377H19.7342" stroke="#263238" stroke-width="0.5" stroke-miterlimit="10" stroke-linecap="round" stroke-linejoin="round"/>
<path d="M13.1814 11.1465H19.7342" stroke="#263238" stroke-width="0.5" stroke-miterlimit="10" stroke-linecap="round" stroke-linejoin="round"/>
<path d="M13.1814 11.918H19.7342" stroke="#263238" stroke-width="0.5" stroke-miterlimit="10" stroke-linecap="round" stroke-linejoin="round"/>
<path d="M13.1814 12.6855H19.7342" stroke="#263238" stroke-width="0.5" stroke-miterlimit="10" stroke-linecap="round" stroke-linejoin="round"/>
<path d="M13.1814 13.457H17.5663" stroke="#263238" stroke-width="0.5" stroke-miterlimit="10" stroke-linecap="round" stroke-linejoin="round"/>
<path d="M30.5819 19.1881C30.1574 19.4916 29.5673 19.3934 29.264 18.9689L25.3502 13.4932L26.8874 12.3945L30.8012 17.8702C31.1045 18.2947 31.0063 18.8848 30.5819 19.1881Z" fill="#263238"/>
<path d="M30.6351 19.2078L30.5168 19.2925C30.4554 19.3357 30.3915 19.3709 30.3242 19.396C30.5205 19.1031 30.5264 18.7075 30.3093 18.4026L26.3528 12.8678L25.3606 13.5774L25.3442 13.5549L26.8816 12.457L30.8369 17.9917C31.1178 18.3832 31.0265 18.9281 30.6351 19.2078Z" fill="white"/>
<path d="M30.5759 19.2508C30.1515 19.5541 29.5613 19.4559 29.258 19.0314L25.3442 13.5557L26.8814 12.457L30.7952 17.9327C31.0987 18.3573 31.0005 18.9473 30.5759 19.2508Z" stroke="#263238" stroke-width="0.5" stroke-miterlimit="10" stroke-linecap="round" stroke-linejoin="round"/>
<path d="M27.5832 3.80211C29.6492 6.69257 29.1411 10.5938 26.4495 12.5178C26.2962 12.6273 26.1395 12.7275 25.9801 12.8194C28.2833 10.802 28.4263 7.31819 26.4779 4.59219C24.5304 1.86741 21.1877 0.874935 18.5334 2.40104C18.672 2.27993 18.8175 2.16397 18.9707 2.0545C21.6624 0.130508 25.5181 0.912867 27.5832 3.80211Z" fill="#263238" stroke="#263238" stroke-width="0.5" stroke-miterlimit="10" stroke-linecap="round" stroke-linejoin="round"/>
<path d="M25.9799 12.8207C25.8413 12.9418 25.6958 13.0577 25.5426 13.1672C22.8497 15.092 18.9942 14.3097 16.9282 11.4192C14.8631 8.52995 15.371 4.62858 18.0639 2.70391C18.2171 2.59445 18.3738 2.49433 18.5333 2.40234C16.2291 4.42036 16.1853 7.83334 18.1328 10.5581C20.0813 13.2843 23.3247 14.3477 25.9799 12.8207Z" fill="#263238" stroke="#263238" stroke-width="0.5" stroke-miterlimit="10" stroke-linecap="round" stroke-linejoin="round"/>
<path d="M26.9754 11.8739L24.7607 13.457L25.2492 14.1403L27.4639 12.5572L26.9754 11.8739Z" fill="#263238" stroke="#263238" stroke-width="0.5" stroke-miterlimit="10" stroke-linecap="round" stroke-linejoin="round"/>
</svg>
