<svg width="26" height="26" viewBox="0 0 26 26" fill="none" xmlns="http://www.w3.org/2000/svg">
<path d="M23.4 5.20021H20.5732C20.7174 4.79329 20.8 4.35648 20.8 3.90016C20.8 1.74597 19.0541 0 16.9 0C14.7459 0 13 1.74597 13 3.90016C13 4.19592 13.0357 4.48323 13.0981 4.76014L14.8389 6.50026L20.0388 11.7005L18.2 13.5387L13 8.33854L7.8 13.5387L5.96115 11.7005L11.1611 6.50026L12.9012 4.76014C12.9642 4.48323 13 4.19592 13 3.90016C13 1.74597 11.2541 0 9.1 0C6.9459 0 5.2 1.74597 5.2 3.90016C5.2 4.35648 5.28255 4.79329 5.42685 5.20021H2.6C1.17 5.20021 0 6.37026 0 7.80032V16.2507H26V7.80032C26 6.37026 24.83 5.20021 23.4 5.20021ZM7.8 3.90016C7.8 3.18318 8.38305 2.60011 9.1 2.60011C9.81695 2.60011 10.4 3.18318 10.4 3.90016C10.4 4.61714 9.81695 5.20021 9.1 5.20021C8.38305 5.20021 7.8 4.61714 7.8 3.90016ZM15.6 3.90016C15.6 3.18318 16.1831 2.60011 16.9 2.60011C17.6169 2.60011 18.2 3.18318 18.2 3.90016C18.2 4.61714 17.6169 5.20021 16.9 5.20021C16.1831 5.20021 15.6 4.61714 15.6 3.90016Z" fill="url(#paint0_linear_6125_2833)"/>
<path d="M0 20.1484V23.3986C0 24.8286 1.17 25.9987 2.6 25.9987H23.4C24.83 25.9987 26 24.8286 26 23.3986V20.1484H0Z" fill="url(#paint1_linear_6125_2833)"/>
<defs>
<linearGradient id="paint0_linear_6125_2833" x1="0" y1="16.2507" x2="27.7077" y2="3.80039" gradientUnits="userSpaceOnUse">
<stop stop-color="#85FFC4"/>
<stop offset="0.458333" stop-color="#5CC6FF"/>
<stop offset="0.807292" stop-color="#BC85FF"/>
</linearGradient>
<linearGradient id="paint1_linear_6125_2833" x1="0" y1="25.9987" x2="13.0191" y2="9.74854" gradientUnits="userSpaceOnUse">
<stop stop-color="#85FFC4"/>
<stop offset="0.458333" stop-color="#5CC6FF"/>
<stop offset="0.807292" stop-color="#BC85FF"/>
</linearGradient>
</defs>
</svg>
