<svg width="244" height="244" viewBox="0 0 244 244" fill="none" xmlns="http://www.w3.org/2000/svg">
<g opacity="0.37">
<path d="M230.771 119.249C223.715 152.66 205.926 182.847 186.422 202.942C166.558 223.211 144.979 233.388 121.999 230.774C99.0185 228.159 77.4401 213.986 57.5756 194.887C38.0722 175.614 20.2826 151.415 13.2266 124.753C6.17064 98.0913 12.7303 73.2755 32.5949 53.0069C52.0978 32.9111 84.906 17.3629 121.999 13.2281C159.092 9.09324 191.9 17.8948 211.403 37.1674C231.267 56.2667 237.828 85.8376 230.771 119.249Z" fill="url(#paint0_radial_6499_7229)"/>
</g>
<path d="M72.609 105.385C74.7572 103.051 78.28 102.743 80.804 104.669L92.4535 113.923L90.5703 133.45L72.6988 113.747C70.4686 111.426 70.4291 107.754 72.609 105.385Z" fill="url(#paint1_linear_6499_7229)"/>
<path d="M225.765 243.996H155.732L142.044 227.985L128.902 223.046C126.198 222.031 123.636 220.68 121.274 219.02C119.527 217.8 117.902 216.419 116.419 214.897C116.028 214.506 115.658 214.101 115.292 213.691L114.115 212.369L113.564 211.749L111.719 209.665L111.348 209.251L111.324 209.221L106.83 204.161L118.927 194.928L150.496 170.835L151.472 170.089L152.419 169.366L153.643 168.434L154.556 167.737L154.95 167.864L152.419 162.168L143.639 139.301C142.595 136.583 142.356 133.625 142.942 130.771L143.688 127.159C144.284 124.251 148.09 123.504 149.744 125.969L149.969 126.305L150.262 126.735L152.419 129.956L155.566 134.65L156.308 135.758L156.596 136.182L170.016 156.195C170.621 157.098 171.094 158.089 171.416 159.128L176.296 174.803L178.634 182.318L179.231 185.209C181.085 194.189 185.461 202.454 191.846 209.035L225.765 243.996Z" fill="url(#paint2_linear_6499_7229)"/>
<path opacity="0.43" d="M147.578 214.9C151.985 214.9 155.567 211.318 155.567 206.917V166.82L152.419 162.172V206.917C152.419 209.581 150.248 211.753 147.578 211.753L114.116 212.372L119.133 217.397" fill="white"/>
<path d="M144.748 211.578H98.6374C94.4026 211.578 90.969 208.145 90.969 203.909V89.1606C90.969 84.9258 94.4021 81.4922 98.6374 81.4922H144.748C148.982 81.4922 152.416 84.9253 152.416 89.1606V203.91C152.416 208.145 148.982 211.578 144.748 211.578Z" fill="white"/>
<path d="M153.862 92.5469C154.603 92.5474 155.204 93.1481 155.204 93.8899L155.202 99.2066C155.202 99.9479 154.601 100.549 153.86 100.549L153.862 92.5469Z" fill="url(#paint3_linear_6499_7229)"/>
<path d="M88.738 94.4795C87.9967 94.4795 87.3955 93.8783 87.396 93.1366L87.397 89.1311C87.397 88.3898 87.9982 87.7886 88.7399 87.7891L88.738 94.4795Z" fill="url(#paint4_linear_6499_7229)"/>
<path d="M88.7341 105.3C87.9928 105.3 87.3916 104.699 87.3921 103.957L87.3931 99.9514C87.3931 99.2101 87.9943 98.6089 88.736 98.6094L88.7341 105.3Z" fill="url(#paint5_linear_6499_7229)"/>
<path d="M145.77 80.2344H96.833C92.3697 80.2344 88.7419 83.8622 88.7419 88.3254V205.083C88.7419 209.542 92.3697 213.169 96.833 213.169H145.769C148.379 213.169 150.697 211.934 152.175 210.011C152.249 209.922 152.313 209.833 152.377 209.739C153.311 208.425 153.86 206.818 153.86 205.083V88.3254C153.861 83.8622 150.233 80.2344 145.77 80.2344ZM150.673 205.083C150.673 207.782 148.473 209.981 145.77 209.981H96.833C94.1295 209.981 91.93 207.782 91.93 205.083V88.3254C91.93 85.6219 94.1295 83.4225 96.833 83.4225H104.435V83.5162C104.435 85.9777 106.431 87.9697 108.893 87.9697H133.715C136.171 87.9697 138.168 85.9777 138.168 83.5162V83.4225H145.769C148.473 83.4225 150.672 85.6219 150.672 88.3254V205.083H150.673Z" fill="url(#paint6_linear_6499_7229)"/>
<path opacity="0.69" d="M107.944 84.4609H134.291" stroke="white" stroke-width="1.0128" stroke-miterlimit="10" stroke-linecap="round"/>
<g opacity="0.51">
<path opacity="0.29" d="M119.657 133.673H97.4229C96.5655 133.673 95.8701 132.978 95.8701 132.12V95.7559C95.8701 94.8985 96.565 94.2031 97.4229 94.2031H119.657C120.514 94.2031 121.21 94.898 121.21 95.7559V132.12C121.21 132.978 120.514 133.673 119.657 133.673Z" fill="#4A8BFF"/>
<path opacity="0.29" d="M145.438 97.2825H126.089C125.284 97.2825 124.631 96.63 124.631 95.8248C124.631 95.0196 125.284 94.3672 126.089 94.3672H145.438C146.243 94.3672 146.896 95.0196 146.896 95.8248C146.896 96.63 146.243 97.2825 145.438 97.2825Z" fill="#4A8BFF"/>
<path opacity="0.29" d="M145.438 103.353H126.089C125.284 103.353 124.631 102.7 124.631 101.895C124.631 101.09 125.284 100.438 126.089 100.438H145.438C146.243 100.438 146.896 101.09 146.896 101.895C146.896 102.7 146.243 103.353 145.438 103.353Z" fill="#4A8BFF"/>
<path opacity="0.29" d="M145.438 109.415H126.089C125.284 109.415 124.631 108.763 124.631 107.958C124.631 107.152 125.284 106.5 126.089 106.5H145.438C146.243 106.5 146.896 107.152 146.896 107.958C146.896 108.763 146.243 109.415 145.438 109.415Z" fill="#4A8BFF"/>
<path opacity="0.29" d="M145.438 115.478H126.089C125.284 115.478 124.631 114.825 124.631 114.02C124.631 113.215 125.284 112.562 126.089 112.562H145.438C146.243 112.562 146.896 113.215 146.896 114.02C146.896 114.825 146.243 115.478 145.438 115.478Z" fill="#4A8BFF"/>
<path opacity="0.29" d="M145.438 121.548H126.089C125.284 121.548 124.631 120.896 124.631 120.09C124.631 119.285 125.284 118.633 126.089 118.633H145.438C146.243 118.633 146.896 119.285 146.896 120.09C146.896 120.896 146.243 121.548 145.438 121.548Z" fill="#4A8BFF"/>
<path opacity="0.29" d="M145.438 127.611H126.089C125.284 127.611 124.631 126.958 124.631 126.153C124.631 125.348 125.284 124.695 126.089 124.695H145.438C146.243 124.695 146.896 125.348 146.896 126.153C146.896 126.958 146.243 127.611 145.438 127.611Z" fill="#4A8BFF"/>
<path opacity="0.29" d="M145.438 133.673H126.089C125.284 133.673 124.631 133.021 124.631 132.215C124.631 131.41 125.284 130.758 126.089 130.758H145.438C146.243 130.758 146.896 131.41 146.896 132.215C146.896 133.021 146.243 133.673 145.438 133.673Z" fill="#4A8BFF"/>
<path opacity="0.29" d="M145.438 141.454H97.3278C96.5226 141.454 95.8701 140.802 95.8701 139.997C95.8701 139.192 96.5226 138.539 97.3278 138.539H145.438C146.243 138.539 146.896 139.192 146.896 139.997C146.896 140.802 146.243 141.454 145.438 141.454Z" fill="#4A8BFF"/>
<path opacity="0.29" d="M145.438 147.079H97.3278C96.5226 147.079 95.8701 146.427 95.8701 145.622C95.8701 144.817 96.5226 144.164 97.3278 144.164H145.438C146.243 144.164 146.896 144.817 146.896 145.622C146.896 146.427 146.243 147.079 145.438 147.079Z" fill="#4A8BFF"/>
<path opacity="0.29" d="M145.438 152.712H97.3278C96.5226 152.712 95.8701 152.06 95.8701 151.255C95.8701 150.449 96.5226 149.797 97.3278 149.797H145.438C146.243 149.797 146.896 150.449 146.896 151.255C146.896 152.06 146.243 152.712 145.438 152.712Z" fill="#4A8BFF"/>
<path opacity="0.29" d="M145.892 164.882H113.471C112.917 164.882 112.468 164.433 112.468 163.878C112.468 163.324 112.917 162.875 113.471 162.875H145.892C146.446 162.875 146.895 163.324 146.895 163.878C146.895 164.433 146.446 164.882 145.892 164.882Z" fill="#4A8BFF"/>
<path opacity="0.29" d="M145.892 168.757H113.471C112.917 168.757 112.468 168.308 112.468 167.753C112.468 167.199 112.917 166.75 113.471 166.75H145.892C146.446 166.75 146.895 167.199 146.895 167.753C146.895 168.307 146.446 168.757 145.892 168.757Z" fill="#4A8BFF"/>
<path opacity="0.29" d="M104.122 169.477C106.146 167.748 106.384 164.706 104.655 162.683C102.926 160.66 99.8839 160.421 97.8607 162.15C95.8374 163.879 95.599 166.921 97.3282 168.945C99.0573 170.968 102.099 171.206 104.122 169.477Z" fill="#4A8BFF"/>
<path opacity="0.29" d="M145.892 178.694H113.471C112.917 178.694 112.468 178.245 112.468 177.691C112.468 177.137 112.917 176.688 113.471 176.688H145.892C146.446 176.688 146.895 177.136 146.895 177.691C146.895 178.245 146.446 178.694 145.892 178.694Z" fill="#4A8BFF"/>
<path opacity="0.29" d="M145.892 182.569H113.471C112.917 182.569 112.468 182.12 112.468 181.566C112.468 181.012 112.917 180.562 113.471 180.562H145.892C146.446 180.562 146.895 181.011 146.895 181.566C146.895 182.12 146.446 182.569 145.892 182.569Z" fill="#4A8BFF"/>
<path opacity="0.29" d="M100.99 184.443C103.652 184.443 105.809 182.285 105.809 179.624C105.809 176.962 103.652 174.805 100.99 174.805C98.3287 174.805 96.1711 176.962 96.1711 179.624C96.1711 182.285 98.3287 184.443 100.99 184.443Z" fill="#4A8BFF"/>
<path opacity="0.29" d="M145.289 192.499H112.868C112.314 192.499 111.864 192.05 111.864 191.496C111.864 190.942 112.313 190.492 112.868 190.492H145.289C145.843 190.492 146.292 190.941 146.292 191.496C146.292 192.05 145.843 192.499 145.289 192.499Z" fill="#4A8BFF"/>
<path opacity="0.29" d="M145.289 196.374H112.868C112.314 196.374 111.864 195.925 111.864 195.371C111.864 194.817 112.313 194.367 112.868 194.367H145.289C145.843 194.367 146.292 194.816 146.292 195.371C146.292 195.924 145.843 196.374 145.289 196.374Z" fill="#4A8BFF"/>
<path opacity="0.29" d="M102.822 197.885C105.284 196.872 106.458 194.056 105.446 191.595C104.433 189.134 101.617 187.959 99.1561 188.972C96.6948 189.984 95.5202 192.8 96.5326 195.261C97.545 197.723 100.361 198.897 102.822 197.885Z" fill="#4A8BFF"/>
</g>
<path d="M99.0562 163.875L102.925 167.743" stroke="url(#paint7_linear_6499_7229)" stroke-miterlimit="10" stroke-linecap="round"/>
<path d="M102.925 163.875L99.0562 167.743" stroke="url(#paint8_linear_6499_7229)" stroke-miterlimit="10" stroke-linecap="round"/>
<path d="M99.0562 177.797L102.925 181.665" stroke="url(#paint9_linear_6499_7229)" stroke-miterlimit="10" stroke-linecap="round"/>
<path d="M102.925 177.797L99.0562 181.665" stroke="url(#paint10_linear_6499_7229)" stroke-miterlimit="10" stroke-linecap="round"/>
<path d="M99.0562 191.5L102.925 195.368" stroke="url(#paint11_linear_6499_7229)" stroke-miterlimit="10" stroke-linecap="round"/>
<path d="M102.925 191.5L99.0562 195.368" stroke="url(#paint12_linear_6499_7229)" stroke-miterlimit="10" stroke-linecap="round"/>
<path d="M86.469 162.445L75.2249 149.862C72.6434 146.973 72.9689 142.52 75.9433 140.037C78.9176 137.554 83.3575 138.03 85.7384 141.086L96.1099 154.397C98.1917 157.07 97.7808 160.911 95.1798 163.082C92.5797 165.253 88.726 164.972 86.469 162.445Z" fill="url(#paint13_linear_6499_7229)"/>
<path opacity="0.7" d="M87.3003 158.911L89.4358 161.487C90.6265 162.924 92.7571 163.123 94.1938 161.932C95.6305 160.741 95.8301 158.611 94.6388 157.174L92.5034 154.598C91.3126 153.161 89.182 152.962 87.7454 154.153C86.3092 155.344 86.1096 157.474 87.3003 158.911Z" fill="white"/>
<path d="M89.794 182.327L73.6153 169.556C70.5707 167.153 70.1149 162.709 72.6081 159.738C75.1013 156.766 79.5572 156.444 82.4525 159.025L97.8372 172.742C100.363 174.994 100.642 178.846 98.4667 181.438C96.2922 184.03 92.4502 184.423 89.794 182.327Z" fill="url(#paint14_linear_6499_7229)"/>
<path opacity="0.7" d="M89.9724 178.71L92.5281 180.87C93.9535 182.075 96.0856 181.896 97.29 180.47C98.4949 179.045 98.3158 176.913 96.8903 175.708L94.3346 173.548C92.9092 172.344 90.7771 172.523 89.5727 173.948C88.3684 175.373 88.5475 177.505 89.9724 178.71Z" fill="white"/>
<path d="M90.1655 199.537L80.083 192.994C76.8392 190.89 75.9979 186.509 78.2315 183.352C80.4651 180.196 84.8761 179.531 87.9403 181.89L97.465 189.221C100.154 191.291 100.731 195.114 98.7704 197.885C96.8101 200.655 93.0125 201.384 90.1655 199.537Z" fill="url(#paint15_linear_6499_7229)"/>
<path opacity="0.7" d="M90.1274 195.897L92.8519 197.839C94.3715 198.922 96.4817 198.568 97.565 197.049C98.6484 195.529 98.2946 193.419 96.7749 192.336L94.0504 190.393C92.5308 189.31 90.4207 189.664 89.3373 191.184C88.254 192.704 88.6078 194.814 90.1274 195.897Z" fill="white"/>
<path d="M62.5423 51.7891H106.956C109.464 51.7891 111.498 53.8226 111.498 56.3314V79.8281C111.498 82.3364 109.464 84.3704 106.956 84.3704H102.884L96.8609 90.8305C96.3817 91.3444 95.5677 91.3444 95.0885 90.8305L89.0651 84.3699H62.5418C60.0335 84.3699 58 82.3364 58 79.8276V56.3309C58.0005 53.8226 60.034 51.7891 62.5423 51.7891Z" fill="url(#paint16_linear_6499_7229)"/>
<path d="M73.72 67.6913L73.496 68.7393H74.456V69.9713H73.232L72.968 71.1953H71.688L71.952 69.9713H70.624L70.36 71.1953H69.08L69.344 69.9713H68.16V68.7393H69.608L69.832 67.6913H68.672V66.4593H70.088L70.344 65.2753H71.624L71.368 66.4593H72.696L72.952 65.2753H74.232L73.976 66.4593H74.968V67.6913H73.72ZM72.44 67.6913H71.112L70.888 68.7393H72.216L72.44 67.6913ZM79.9784 69.5633C79.9784 69.8566 79.901 70.1286 79.7464 70.3793C79.597 70.6246 79.373 70.8273 79.0744 70.9873C78.781 71.142 78.4317 71.2273 78.0264 71.2433V71.8913H77.5144V71.2353C76.949 71.1873 76.493 71.0193 76.1464 70.7313C75.7997 70.438 75.6157 70.0406 75.5944 69.5393H77.0504C77.0824 69.8593 77.237 70.0646 77.5144 70.1553V68.8913C77.0984 68.7846 76.765 68.6806 76.5144 68.5793C76.269 68.478 76.053 68.3153 75.8664 68.0913C75.6797 67.8673 75.5864 67.5606 75.5864 67.1713C75.5864 66.686 75.765 66.2966 76.1224 66.0033C76.485 65.71 76.949 65.5446 77.5144 65.5073V64.8593H78.0264V65.5073C78.5864 65.55 79.029 65.7126 79.3544 65.9953C79.6797 66.278 79.861 66.67 79.8984 67.1713H78.4344C78.4024 66.8833 78.2664 66.6966 78.0264 66.6113V67.8513C78.469 67.974 78.8104 68.0833 79.0504 68.1793C79.2904 68.2753 79.5037 68.4353 79.6904 68.6593C79.8824 68.878 79.9784 69.1793 79.9784 69.5633ZM77.0344 67.1073C77.0344 67.2406 77.0744 67.3526 77.1544 67.4433C77.2397 67.534 77.3597 67.614 77.5144 67.6833V66.5713C77.365 66.598 77.2477 66.6566 77.1624 66.7473C77.077 66.8326 77.0344 66.9526 77.0344 67.1073ZM78.0264 70.1793C78.1864 70.1526 78.3117 70.0886 78.4024 69.9873C78.4984 69.886 78.5464 69.7606 78.5464 69.6113C78.5464 69.4726 78.501 69.3606 78.4104 69.2753C78.325 69.1846 78.197 69.1073 78.0264 69.0433V70.1793ZM85.444 65.8513C86.0733 65.8513 86.6227 65.9713 87.092 66.2113C87.5613 66.446 87.9213 66.7793 88.172 67.2113C88.428 67.638 88.556 68.1313 88.556 68.6913C88.556 69.1446 88.476 69.566 88.316 69.9553C88.1613 70.3446 87.9293 70.6566 87.62 70.8913C87.316 71.1206 86.9533 71.2353 86.532 71.2353C86.2493 71.2353 86.0147 71.1793 85.828 71.0673C85.6467 70.9553 85.524 70.798 85.46 70.5953C85.3107 70.8033 85.1187 70.966 84.884 71.0833C84.6493 71.1953 84.3933 71.2513 84.116 71.2513C83.7213 71.2513 83.4093 71.134 83.18 70.8993C82.956 70.6593 82.844 70.334 82.844 69.9233C82.844 69.534 82.924 69.1686 83.084 68.8273C83.244 68.4806 83.4653 68.2033 83.748 67.9953C84.0307 67.7873 84.348 67.6833 84.7 67.6833C85.148 67.6833 85.452 67.8433 85.612 68.1633L85.684 67.7393H86.788L86.436 69.7473C86.42 69.8433 86.412 69.9286 86.412 70.0033C86.412 70.238 86.516 70.3553 86.724 70.3553C86.98 70.3553 87.1747 70.1926 87.308 69.8673C87.4467 69.5366 87.516 69.158 87.516 68.7313C87.516 68.118 87.3213 67.638 86.932 67.2913C86.548 66.9446 86.0067 66.7713 85.308 66.7713C84.7107 66.7713 84.1667 66.9153 83.676 67.2033C83.1907 67.4913 82.8093 67.886 82.532 68.3873C82.2547 68.8833 82.116 69.43 82.116 70.0273C82.116 70.6726 82.3027 71.174 82.676 71.5313C83.0547 71.8886 83.5827 72.0673 84.26 72.0673C84.788 72.0673 85.26 71.9713 85.676 71.7793L85.892 72.6513C85.3693 72.8806 84.7827 72.9953 84.132 72.9953C83.524 72.9953 82.988 72.878 82.524 72.6433C82.0653 72.4086 81.7107 72.0753 81.46 71.6433C81.2093 71.2113 81.084 70.7073 81.084 70.1313C81.084 69.326 81.2733 68.598 81.652 67.9473C82.0307 67.2913 82.5507 66.7793 83.212 66.4113C83.8787 66.038 84.6227 65.8513 85.444 65.8513ZM84.564 70.2673C84.7133 70.2673 84.852 70.222 84.98 70.1313C85.1133 70.0406 85.2173 69.9206 85.292 69.7713C85.372 69.6166 85.412 69.4513 85.412 69.2753C85.412 69.094 85.3613 68.9473 85.26 68.8353C85.1587 68.718 85.02 68.6593 84.844 68.6593C84.6093 68.6593 84.4147 68.7606 84.26 68.9633C84.1053 69.166 84.028 69.406 84.028 69.6833C84.028 69.8593 84.0733 70.0006 84.164 70.1073C84.2547 70.214 84.388 70.2673 84.564 70.2673ZM93.9326 71.1953L93.4126 70.6913C92.8953 71.086 92.2766 71.2833 91.5566 71.2833C91.1246 71.2833 90.7486 71.214 90.4286 71.0753C90.1086 70.9313 89.8606 70.7313 89.6846 70.4753C89.514 70.214 89.4286 69.91 89.4286 69.5633C89.4286 69.2113 89.522 68.894 89.7086 68.6113C89.9006 68.3233 90.186 68.0886 90.5646 67.9073C90.426 67.7366 90.3273 67.574 90.2686 67.4193C90.21 67.2593 90.1806 67.086 90.1806 66.8993C90.1806 66.6326 90.25 66.39 90.3886 66.1713C90.5273 65.9526 90.7273 65.782 90.9886 65.6593C91.2553 65.5313 91.57 65.4673 91.9326 65.4673C92.3006 65.4673 92.6126 65.534 92.8686 65.6673C93.1246 65.8006 93.3166 65.9793 93.4446 66.2033C93.5726 66.4273 93.6313 66.6726 93.6206 66.9393H92.3326C92.338 66.7953 92.3006 66.686 92.2206 66.6113C92.146 66.5313 92.0446 66.4913 91.9166 66.4913C91.7886 66.4913 91.682 66.5286 91.5966 66.6033C91.5113 66.678 91.4686 66.774 91.4686 66.8913C91.4686 67.0033 91.5033 67.1206 91.5726 67.2433C91.6473 67.366 91.762 67.5073 91.9166 67.6673L93.2846 69.0033C93.2953 68.9766 93.3086 68.9446 93.3246 68.9073C93.346 68.87 93.3673 68.8273 93.3886 68.7793L93.6846 68.2753H95.0526L94.6686 68.9713C94.5246 69.286 94.3593 69.5846 94.1726 69.8673L95.5246 71.1953H93.9326ZM91.6206 70.1793C91.978 70.1793 92.2953 70.078 92.5726 69.8753L91.3246 68.6673C90.9406 68.8646 90.7486 69.1313 90.7486 69.4673C90.7486 69.67 90.826 69.8406 90.9806 69.9793C91.1406 70.1126 91.354 70.1793 91.6206 70.1793ZM97.8194 65.3793L97.6594 69.2113H96.4994L96.3394 65.3793H97.8194ZM97.0994 71.2593C96.8594 71.2593 96.6621 71.19 96.5074 71.0513C96.3581 70.9073 96.2834 70.7313 96.2834 70.5233C96.2834 70.31 96.3581 70.1313 96.5074 69.9873C96.6621 69.8433 96.8594 69.7713 97.0994 69.7713C97.3341 69.7713 97.5261 69.8433 97.6754 69.9873C97.8301 70.1313 97.9074 70.31 97.9074 70.5233C97.9074 70.7313 97.8301 70.9073 97.6754 71.0513C97.5261 71.19 97.3341 71.2593 97.0994 71.2593ZM100.952 65.3793L100.792 69.2113H99.6323L99.4723 65.3793H100.952ZM100.232 71.2593C99.9923 71.2593 99.7949 71.19 99.6403 71.0513C99.4909 70.9073 99.4163 70.7313 99.4163 70.5233C99.4163 70.31 99.4909 70.1313 99.6403 69.9873C99.7949 69.8433 99.9923 69.7713 100.232 69.7713C100.467 69.7713 100.659 69.8433 100.808 69.9873C100.963 70.1313 101.04 70.31 101.04 70.5233C101.04 70.7313 100.963 70.9073 100.808 71.0513C100.659 71.19 100.467 71.2593 100.232 71.2593Z" fill="white"/>
<path d="M138.622 59.4657C145.231 59.4657 150.589 54.1078 150.589 47.4985C150.589 40.8892 145.231 35.5312 138.622 35.5312C132.013 35.5312 126.655 40.8892 126.655 47.4985C126.655 54.1078 132.013 59.4657 138.622 59.4657Z" fill="url(#paint17_linear_6499_7229)"/>
<path d="M132.116 44.4739C132.116 43.3149 133.055 42.375 134.215 42.375C135.374 42.375 136.313 43.3149 136.313 44.4739" stroke="white" stroke-miterlimit="10" stroke-linecap="round"/>
<path d="M140.932 44.4739C140.932 43.3149 141.872 42.375 143.031 42.375C144.19 42.375 145.13 43.3149 145.13 44.4739" stroke="white" stroke-miterlimit="10" stroke-linecap="round"/>
<path d="M132.586 54.5204C132.586 51.1869 135.289 48.4844 138.622 48.4844C141.956 48.4844 144.659 51.1869 144.659 54.5204" stroke="white" stroke-miterlimit="10" stroke-linecap="round"/>
<path d="M199.221 70.5781H133.942C131.622 70.5781 129.741 72.4594 129.741 74.7793V104.88C129.741 107.201 131.622 109.082 133.942 109.082H137.709L143.28 115.058C143.723 115.533 144.476 115.533 144.919 115.058L150.491 109.082H199.22C201.541 109.082 203.421 107.201 203.421 104.88V74.7793C203.422 72.4594 201.541 70.5781 199.221 70.5781Z" fill="url(#paint18_linear_6499_7229)"/>
<path opacity="0.59" d="M154.773 78.3086L155.715 80.2167C155.759 80.306 155.844 80.3675 155.942 80.3816L158.048 80.6876C158.295 80.7237 158.394 81.0273 158.215 81.202L156.691 82.6874C156.62 82.7567 156.588 82.8563 156.604 82.9544L156.964 85.0518C157.006 85.2982 156.748 85.4861 156.527 85.3695L154.643 84.3793C154.555 84.333 154.45 84.333 154.363 84.3793L152.479 85.3695C152.258 85.4856 152 85.2978 152.042 85.0518L152.401 82.9544C152.418 82.8568 152.386 82.7567 152.314 82.6874L150.791 81.202C150.612 81.0273 150.711 80.7237 150.958 80.6876L153.063 80.3816C153.162 80.3675 153.246 80.3055 153.29 80.2167L154.232 78.3086C154.344 78.0846 154.663 78.0846 154.773 78.3086Z" fill="white"/>
<path opacity="0.59" d="M166.853 78.3086L167.794 80.2167C167.838 80.306 167.923 80.3675 168.021 80.3816L170.127 80.6876C170.374 80.7237 170.473 81.0273 170.294 81.202L168.77 82.6874C168.7 82.7567 168.667 82.8563 168.684 82.9544L169.043 85.0518C169.086 85.2982 168.827 85.4861 168.605 85.3695L166.722 84.3793C166.634 84.333 166.529 84.333 166.442 84.3793L164.558 85.3695C164.337 85.4856 164.079 85.2978 164.121 85.0518L164.48 82.9544C164.497 82.8568 164.465 82.7567 164.394 82.6874L162.87 81.202C162.691 81.0273 162.79 80.7237 163.037 80.6876L165.143 80.3816C165.241 80.3675 165.326 80.3055 165.37 80.2167L166.311 78.3086C166.423 78.0846 166.742 78.0846 166.853 78.3086Z" fill="white"/>
<path opacity="0.59" d="M178.931 78.3086L179.873 80.2167C179.917 80.306 180.002 80.3675 180.1 80.3816L182.206 80.6876C182.453 80.7237 182.552 81.0273 182.373 81.202L180.849 82.6874C180.778 82.7567 180.746 82.8563 180.762 82.9544L181.122 85.0518C181.164 85.2982 180.906 85.4861 180.684 85.3695L178.801 84.3793C178.713 84.333 178.608 84.333 178.521 84.3793L176.637 85.3695C176.416 85.4856 176.158 85.2978 176.2 85.0518L176.559 82.9544C176.576 82.8568 176.544 82.7567 176.472 82.6874L174.949 81.202C174.77 81.0273 174.869 80.7237 175.116 80.6876L177.221 80.3816C177.32 80.3675 177.404 80.3055 177.448 80.2167L178.39 78.3086C178.501 78.0846 178.821 78.0846 178.931 78.3086Z" fill="white"/>
<path d="M142.695 78.3086L143.636 80.2167C143.68 80.306 143.765 80.3675 143.863 80.3816L145.969 80.6876C146.216 80.7237 146.315 81.0273 146.136 81.202L144.612 82.6874C144.541 82.7567 144.509 82.8563 144.526 82.9544L144.885 85.0518C144.927 85.2982 144.669 85.4861 144.447 85.3695L142.564 84.3793C142.476 84.333 142.371 84.333 142.283 84.3793L140.4 85.3695C140.179 85.4856 139.92 85.2978 139.963 85.0518L140.322 82.9544C140.339 82.8568 140.307 82.7567 140.236 82.6874L138.712 81.202C138.533 81.0273 138.632 80.7237 138.879 80.6876L140.985 80.3816C141.083 80.3675 141.168 80.3055 141.212 80.2167L142.153 78.3086C142.264 78.0846 142.584 78.0846 142.695 78.3086Z" fill="url(#paint19_linear_6499_7229)"/>
<path opacity="0.59" d="M191.011 78.3086L191.953 80.2167C191.997 80.306 192.081 80.3675 192.18 80.3816L194.285 80.6876C194.533 80.7237 194.631 81.0273 194.452 81.202L192.929 82.6874C192.857 82.7567 192.825 82.8563 192.842 82.9544L193.201 85.0518C193.244 85.2982 192.985 85.4861 192.764 85.3695L190.88 84.3793C190.793 84.333 190.688 84.333 190.6 84.3793L188.716 85.3695C188.495 85.4856 188.236 85.2978 188.278 85.0518L188.638 82.9544C188.655 82.8568 188.622 82.7567 188.551 82.6874L187.028 81.202C186.849 81.0273 186.948 80.7237 187.195 80.6876L189.3 80.3816C189.398 80.3675 189.483 80.3055 189.527 80.2167L190.469 78.3086C190.58 78.0846 190.9 78.0846 191.011 78.3086Z" fill="white"/>
<path d="M138.622 94.7969H160.406" stroke="url(#paint20_linear_6499_7229)" stroke-width="1.2" stroke-miterlimit="10" stroke-linecap="round"/>
<path d="M163.589 94.7969H180.726" stroke="url(#paint21_linear_6499_7229)" stroke-width="1.2" stroke-miterlimit="10" stroke-linecap="round"/>
<path d="M183.746 94.7969H194.544" stroke="url(#paint22_linear_6499_7229)" stroke-width="1.2" stroke-miterlimit="10" stroke-linecap="round"/>
<path d="M138.622 98.0312H153.245" stroke="url(#paint23_linear_6499_7229)" stroke-width="1.2" stroke-miterlimit="10" stroke-linecap="round"/>
<path d="M155.938 98.0312H172.158" stroke="url(#paint24_linear_6499_7229)" stroke-width="1.2" stroke-miterlimit="10" stroke-linecap="round"/>
<path d="M176.014 98.0312H194.544" stroke="url(#paint25_linear_6499_7229)" stroke-width="1.2" stroke-miterlimit="10" stroke-linecap="round"/>
<path d="M138.622 91.5703H157.465" stroke="url(#paint26_linear_6499_7229)" stroke-width="1.2" stroke-miterlimit="10" stroke-linecap="round"/>
<path d="M160.604 91.5703H176.515" stroke="url(#paint27_linear_6499_7229)" stroke-width="1.2" stroke-miterlimit="10" stroke-linecap="round"/>
<path d="M179.579 91.5703H194.544" stroke="url(#paint28_linear_6499_7229)" stroke-width="1.2" stroke-miterlimit="10" stroke-linecap="round"/>
<path d="M138.621 101.258H157.897" stroke="url(#paint29_linear_6499_7229)" stroke-width="1.2" stroke-miterlimit="10" stroke-linecap="round"/>
<path d="M183.508 149.998C192.521 149.998 199.827 142.691 199.827 133.679C199.827 124.666 192.521 117.359 183.508 117.359C174.495 117.359 167.188 124.666 167.188 133.679C167.188 142.691 174.495 149.998 183.508 149.998Z" fill="url(#paint30_linear_6499_7229)"/>
<path d="M189.073 125.18H192.419C192.952 125.18 193.385 125.612 193.385 126.146V134.546C193.385 135.079 192.953 135.512 192.419 135.512H189.073C188.54 135.512 188.107 135.08 188.107 134.546V126.146C188.107 125.613 188.54 125.18 189.073 125.18Z" fill="url(#paint31_linear_6499_7229)"/>
<path d="M174.403 134.741C173.918 135.046 173.603 135.595 173.634 136.216C173.679 137.104 174.462 137.776 175.35 137.776H180.558C178.368 140.868 179.102 143.494 179.461 144.382C179.541 144.578 179.662 144.752 179.818 144.894L179.83 144.905C180.31 145.344 181.034 145.449 181.583 145.101C182.008 144.833 182.249 144.376 182.249 143.899V142.387C182.249 142.22 182.322 142.061 182.445 141.948C185.146 139.458 186.163 136.725 186.441 135.822C186.499 135.633 186.527 135.438 186.527 135.241V127.081C186.527 126.561 186.107 126.141 185.588 126.141H175.35C174.462 126.141 173.679 126.814 173.635 127.701C173.604 128.322 173.919 128.871 174.403 129.176C173.941 129.467 173.633 129.981 173.633 130.567C173.633 131.154 173.941 131.667 174.403 131.959C173.941 132.249 173.633 132.763 173.633 133.35C173.632 133.936 173.94 134.45 174.403 134.741Z" fill="url(#paint32_linear_6499_7229)"/>
<path d="M100.684 106.68L115.208 121.203" stroke="url(#paint33_linear_6499_7229)" stroke-width="4" stroke-miterlimit="10" stroke-linecap="round"/>
<path d="M115.208 106.68L100.684 121.203" stroke="url(#paint34_linear_6499_7229)" stroke-width="4" stroke-miterlimit="10" stroke-linecap="round"/>
<path d="M30.6826 116.672H65.703C67.6808 116.672 69.2844 118.275 69.2844 120.253V138.781C69.2844 140.759 67.6808 142.362 65.703 142.362H62.4924L57.7427 147.456C57.365 147.861 56.7233 147.861 56.3456 147.456L51.5964 142.362H30.6826C28.7048 142.362 27.1012 140.759 27.1012 138.781V120.253C27.1012 118.275 28.7048 116.672 30.6826 116.672Z" fill="url(#paint35_linear_6499_7229)"/>
<path d="M38.6589 122.867C38.1856 122.867 37.8142 123.257 37.823 123.731L38.046 131.494H39.2719L39.4949 123.731V123.694C39.4944 123.239 39.123 122.867 38.6589 122.867ZM38.6589 133.639C38.046 133.639 37.6005 134.112 37.6005 134.753C37.6005 135.384 38.0367 135.867 38.6589 135.867C39.309 135.867 39.7174 135.384 39.7174 134.753C39.7174 134.112 39.309 133.639 38.6589 133.639Z" fill="white" stroke="white" stroke-width="1.2" stroke-miterlimit="10"/>
<path d="M48.1921 122.578C47.7188 122.578 47.3469 122.968 47.3562 123.442L47.5792 131.205H48.8051L49.0281 123.442V123.405C49.0281 122.949 48.6567 122.578 48.1921 122.578ZM48.1921 133.35C47.5792 133.35 47.1337 133.823 47.1337 134.464C47.1337 135.095 47.5699 135.578 48.1921 135.578C48.8422 135.578 49.2506 135.095 49.2506 134.464C49.2511 133.823 48.8422 133.35 48.1921 133.35Z" fill="white" stroke="white" stroke-width="1.2" stroke-miterlimit="10"/>
<path d="M57.7271 122.867C57.2537 122.867 56.8823 123.257 56.8911 123.731L57.1141 131.494H58.34L58.563 123.731V123.694C58.563 123.239 58.1911 122.867 57.7271 122.867ZM57.7271 133.639C57.1141 133.639 56.6686 134.112 56.6686 134.753C56.6686 135.384 57.1049 135.867 57.7271 135.867C58.3771 135.867 58.7855 135.384 58.7855 134.753C58.7855 134.112 58.3771 133.639 57.7271 133.639Z" fill="white" stroke="white" stroke-width="1.2" stroke-miterlimit="10"/>
<path d="M143.691 127.159C144.286 124.251 148.093 123.504 149.747 125.969L149.971 126.305L150.264 126.735L152.421 129.956L155.569 134.65L156.311 135.758L156.598 136.182L170.018 156.195C170.624 157.098 171.097 158.089 171.419 159.128L156.598 136.182L155.569 168.063V169.25L152.421 162.168L143.642 139.301L143.456 138.619C142.431 134.856 142.513 130.877 143.691 127.159Z" fill="url(#paint36_linear_6499_7229)"/>
<path opacity="0.7" d="M156.394 135.882C155.594 136.375 154.652 136.536 153.739 136.331C152.817 136.126 152.022 135.575 151.519 134.775L149.494 131.598C148.498 130.026 148.889 127.962 150.353 126.859L152.422 129.953L155.569 134.648L156.311 135.756L156.394 135.882Z" fill="white"/>
<defs>
<radialGradient id="paint0_radial_6499_7229" cx="0" cy="0" r="1" gradientUnits="userSpaceOnUse" gradientTransform="translate(121.999 121.702) scale(110.503 110.503)">
<stop stop-color="#11998E"/>
<stop offset="1" stop-color="#B9EACB"/>
</radialGradient>
<linearGradient id="paint1_linear_6499_7229" x1="70.9998" y1="118.428" x2="92.4535" y2="118.428" gradientUnits="userSpaceOnUse">
<stop stop-color="#F4D0C6"/>
<stop offset="1" stop-color="#F8E9E5"/>
</linearGradient>
<linearGradient id="paint2_linear_6499_7229" x1="106.83" y1="184.24" x2="225.765" y2="184.24" gradientUnits="userSpaceOnUse">
<stop stop-color="#F4D0C6"/>
<stop offset="1" stop-color="#F8E9E5"/>
</linearGradient>
<linearGradient id="paint3_linear_6499_7229" x1="156.277" y1="98.6866" x2="152" y2="94.4087" gradientUnits="userSpaceOnUse">
<stop stop-color="#C5DFFF"/>
<stop offset="1" stop-color="white"/>
</linearGradient>
<linearGradient id="paint4_linear_6499_7229" x1="90.2721" y1="92.9455" x2="86.6495" y2="89.3229" gradientUnits="userSpaceOnUse">
<stop stop-color="#C5DFFF"/>
<stop offset="1" stop-color="white"/>
</linearGradient>
<linearGradient id="paint5_linear_6499_7229" x1="90.2683" y1="103.766" x2="86.6458" y2="100.143" gradientUnits="userSpaceOnUse">
<stop stop-color="#C5DFFF"/>
<stop offset="1" stop-color="white"/>
</linearGradient>
<linearGradient id="paint6_linear_6499_7229" x1="70.8286" y1="111.361" x2="171.772" y2="182.042" gradientUnits="userSpaceOnUse">
<stop stop-color="#C5DFFF"/>
<stop offset="1" stop-color="white"/>
</linearGradient>
<linearGradient id="paint7_linear_6499_7229" x1="99.3864" y1="165.809" x2="103.007" y2="165.809" gradientUnits="userSpaceOnUse">
<stop stop-color="#11998E"/>
<stop offset="1" stop-color="#23CD63"/>
</linearGradient>
<linearGradient id="paint8_linear_6499_7229" x1="99.3864" y1="165.809" x2="103.007" y2="165.809" gradientUnits="userSpaceOnUse">
<stop stop-color="#11998E"/>
<stop offset="1" stop-color="#23CD63"/>
</linearGradient>
<linearGradient id="paint9_linear_6499_7229" x1="99.3864" y1="179.731" x2="103.007" y2="179.731" gradientUnits="userSpaceOnUse">
<stop stop-color="#11998E"/>
<stop offset="1" stop-color="#23CD63"/>
</linearGradient>
<linearGradient id="paint10_linear_6499_7229" x1="99.3864" y1="179.731" x2="103.007" y2="179.731" gradientUnits="userSpaceOnUse">
<stop stop-color="#11998E"/>
<stop offset="1" stop-color="#23CD63"/>
</linearGradient>
<linearGradient id="paint11_linear_6499_7229" x1="99.3864" y1="193.434" x2="103.007" y2="193.434" gradientUnits="userSpaceOnUse">
<stop stop-color="#11998E"/>
<stop offset="1" stop-color="#23CD63"/>
</linearGradient>
<linearGradient id="paint12_linear_6499_7229" x1="99.3864" y1="193.434" x2="103.007" y2="193.434" gradientUnits="userSpaceOnUse">
<stop stop-color="#11998E"/>
<stop offset="1" stop-color="#23CD63"/>
</linearGradient>
<linearGradient id="paint13_linear_6499_7229" x1="73.4823" y1="151.494" x2="97.4368" y2="151.494" gradientUnits="userSpaceOnUse">
<stop stop-color="#F4D0C6"/>
<stop offset="1" stop-color="#F8E9E5"/>
</linearGradient>
<linearGradient id="paint14_linear_6499_7229" x1="70.9989" y1="170.477" x2="99.9313" y2="170.477" gradientUnits="userSpaceOnUse">
<stop stop-color="#F4D0C6"/>
<stop offset="1" stop-color="#F8E9E5"/>
</linearGradient>
<linearGradient id="paint15_linear_6499_7229" x1="76.9804" y1="190.517" x2="99.9324" y2="190.517" gradientUnits="userSpaceOnUse">
<stop stop-color="#F4D0C6"/>
<stop offset="1" stop-color="#F8E9E5"/>
</linearGradient>
<linearGradient id="paint16_linear_6499_7229" x1="57.9997" y1="71.5026" x2="111.498" y2="71.5026" gradientUnits="userSpaceOnUse">
<stop stop-color="#11998E"/>
<stop offset="1" stop-color="#6EBCB6"/>
</linearGradient>
<linearGradient id="paint17_linear_6499_7229" x1="126.655" y1="47.4985" x2="150.589" y2="47.4985" gradientUnits="userSpaceOnUse">
<stop stop-color="#11998E"/>
<stop offset="1" stop-color="#6EBCB6"/>
</linearGradient>
<linearGradient id="paint18_linear_6499_7229" x1="129.741" y1="92.9964" x2="203.422" y2="92.9964" gradientUnits="userSpaceOnUse">
<stop stop-color="#11998E"/>
<stop offset="1" stop-color="#6EBCB6"/>
</linearGradient>
<linearGradient id="paint19_linear_6499_7229" x1="145.083" y1="79.7165" x2="139.765" y2="85.0343" gradientUnits="userSpaceOnUse">
<stop stop-color="#FFC57C"/>
<stop offset="0.4047" stop-color="#FFA96A"/>
<stop offset="0.688" stop-color="#FFC57C"/>
<stop offset="1" stop-color="#FFA96A"/>
</linearGradient>
<linearGradient id="paint20_linear_6499_7229" x1="-nan" y1="-nan" x2="-nan" y2="-nan" gradientUnits="userSpaceOnUse">
<stop stop-color="#E3E3FF"/>
<stop offset="0.995" stop-color="white"/>
</linearGradient>
<linearGradient id="paint21_linear_6499_7229" x1="-nan" y1="-nan" x2="-nan" y2="-nan" gradientUnits="userSpaceOnUse">
<stop stop-color="#E3E3FF"/>
<stop offset="0.995" stop-color="white"/>
</linearGradient>
<linearGradient id="paint22_linear_6499_7229" x1="-nan" y1="-nan" x2="-nan" y2="-nan" gradientUnits="userSpaceOnUse">
<stop stop-color="#E3E3FF"/>
<stop offset="0.995" stop-color="white"/>
</linearGradient>
<linearGradient id="paint23_linear_6499_7229" x1="-nan" y1="-nan" x2="-nan" y2="-nan" gradientUnits="userSpaceOnUse">
<stop stop-color="#E3E3FF"/>
<stop offset="0.995" stop-color="white"/>
</linearGradient>
<linearGradient id="paint24_linear_6499_7229" x1="-nan" y1="-nan" x2="-nan" y2="-nan" gradientUnits="userSpaceOnUse">
<stop stop-color="#E3E3FF"/>
<stop offset="0.995" stop-color="white"/>
</linearGradient>
<linearGradient id="paint25_linear_6499_7229" x1="-nan" y1="-nan" x2="-nan" y2="-nan" gradientUnits="userSpaceOnUse">
<stop stop-color="#E3E3FF"/>
<stop offset="0.995" stop-color="white"/>
</linearGradient>
<linearGradient id="paint26_linear_6499_7229" x1="-nan" y1="-nan" x2="-nan" y2="-nan" gradientUnits="userSpaceOnUse">
<stop stop-color="#E3E3FF"/>
<stop offset="0.995" stop-color="white"/>
</linearGradient>
<linearGradient id="paint27_linear_6499_7229" x1="-nan" y1="-nan" x2="-nan" y2="-nan" gradientUnits="userSpaceOnUse">
<stop stop-color="#E3E3FF"/>
<stop offset="0.995" stop-color="white"/>
</linearGradient>
<linearGradient id="paint28_linear_6499_7229" x1="-nan" y1="-nan" x2="-nan" y2="-nan" gradientUnits="userSpaceOnUse">
<stop stop-color="#E3E3FF"/>
<stop offset="0.995" stop-color="white"/>
</linearGradient>
<linearGradient id="paint29_linear_6499_7229" x1="-nan" y1="-nan" x2="-nan" y2="-nan" gradientUnits="userSpaceOnUse">
<stop stop-color="#E3E3FF"/>
<stop offset="0.995" stop-color="white"/>
</linearGradient>
<linearGradient id="paint30_linear_6499_7229" x1="167.188" y1="133.679" x2="199.827" y2="133.679" gradientUnits="userSpaceOnUse">
<stop stop-color="#11998E"/>
<stop offset="1" stop-color="#6EBCB6"/>
</linearGradient>
<linearGradient id="paint31_linear_6499_7229" x1="188.026" y1="125.635" x2="193.466" y2="135.057" gradientUnits="userSpaceOnUse">
<stop stop-color="#E3E3FF"/>
<stop offset="0.995" stop-color="white"/>
</linearGradient>
<linearGradient id="paint32_linear_6499_7229" x1="186.527" y1="135.725" x2="173.632" y2="135.725" gradientUnits="userSpaceOnUse">
<stop stop-color="#E3E3FF"/>
<stop offset="0.995" stop-color="white"/>
</linearGradient>
<linearGradient id="paint33_linear_6499_7229" x1="101.924" y1="113.941" x2="115.518" y2="113.941" gradientUnits="userSpaceOnUse">
<stop stop-color="#11998E"/>
<stop offset="1" stop-color="#23CD63"/>
</linearGradient>
<linearGradient id="paint34_linear_6499_7229" x1="101.924" y1="113.941" x2="115.518" y2="113.941" gradientUnits="userSpaceOnUse">
<stop stop-color="#11998E"/>
<stop offset="1" stop-color="#23CD63"/>
</linearGradient>
<linearGradient id="paint35_linear_6499_7229" x1="27.101" y1="132.216" x2="69.2848" y2="132.216" gradientUnits="userSpaceOnUse">
<stop stop-color="#11998E"/>
<stop offset="1" stop-color="#6EBCB6"/>
</linearGradient>
<linearGradient id="paint36_linear_6499_7229" x1="142.743" y1="149.644" x2="176.299" y2="149.644" gradientUnits="userSpaceOnUse">
<stop stop-color="#F4D0C6"/>
<stop offset="1" stop-color="#F8E9E5"/>
</linearGradient>
</defs>
</svg>
