<svg width="35" height="24" viewBox="0 0 35 24" fill="none" xmlns="http://www.w3.org/2000/svg">
<path d="M21.1915 20.6079L21.2119 20.5836C21.7691 21.0744 22.4623 21.413 23.2272 21.5348L23.4587 21.5647L23.4582 24C22.0322 23.9114 20.7319 23.3558 19.7066 22.4835L19.5052 22.3048L21.1915 20.6079ZM26.6208 20.4824L28.2659 22.1366C28.2885 22.1591 28.3111 22.1771 28.3362 22.1916C27.3309 23.17 26.0094 23.8217 24.5409 23.9768L24.2639 24L24.2634 21.5647C25.1722 21.474 25.9921 21.079 26.6208 20.4824ZM19.8359 17.9431L19.8579 17.9412C19.9251 18.6254 20.1618 19.2596 20.5252 19.8006L20.6672 19.999L20.6226 20.0357L18.9477 21.7207C18.1365 20.7575 17.6002 19.5526 17.4607 18.2286L17.4369 17.9431L19.8359 17.9431ZM27.8642 17.9412L27.8862 17.9431L30.2852 17.9431C30.206 19.2345 29.7504 20.4235 29.0275 21.4003L28.8685 21.6064L28.8348 21.5644L27.1497 19.8694C27.5398 19.3137 27.7941 18.6547 27.8642 17.9412ZM23.8611 14.3015C25.6385 14.3015 27.0793 15.7508 27.0793 17.5385C27.0793 19.3262 25.6385 20.7755 23.8611 20.7755C22.0837 20.7755 20.6428 19.3262 20.6428 17.5385C20.6428 15.7508 22.0837 14.3015 23.8611 14.3015ZM27.0183 0C28.3748 0 29.4745 1.11158 29.4745 2.48277L29.4739 3.26585L25.0115 3.26652L25.0114 3.00587C25.0114 2.09174 24.2782 1.35067 23.3739 1.35067C23.0585 1.35067 22.7498 1.44276 22.4849 1.61584L16.8264 5.31337C16.0669 5.80964 15.8492 6.83431 16.3402 7.60199C16.466 7.79874 16.6318 7.96624 16.8264 8.09342L20.7289 10.6439C18.1774 11.8009 16.4014 14.3815 16.4014 17.3793C16.4014 18.2507 16.5515 19.0867 16.827 19.8628L2.45621 19.8621C1.09969 19.8621 0 18.7505 0 17.3793V2.48277C0 1.11158 1.09969 0 2.45621 0H27.0183ZM18.9472 13.3568L20.6226 15.0413L20.6672 15.078C20.2729 15.595 19.9999 16.2106 19.891 16.8816L19.8579 17.1358L19.8359 17.1339L17.437 17.1337C17.525 15.6979 18.0784 14.3887 18.9472 13.3568ZM26.9887 14.9936L28.7013 13.271C29.5517 14.246 30.1155 15.4801 30.2605 16.8404L30.2852 17.1337L27.8862 17.1339L27.8642 17.1358C27.7928 16.4091 27.5303 15.739 27.128 15.1769L26.9887 14.9936ZM8.69702 14.069H4.03887C3.61696 14.069 3.27495 14.411 3.27495 14.8329C3.27495 15.2224 3.56636 15.5438 3.94303 15.5909L4.03887 15.5968H8.69702C9.11893 15.5968 9.46094 15.2548 9.46094 14.8329C9.46094 14.411 9.11893 14.069 8.69702 14.069ZM15.7018 14.069H11.0436C10.6217 14.069 10.2797 14.411 10.2797 14.8329C10.2797 15.2224 10.5711 15.5438 10.9478 15.5909L11.0436 15.5968H15.7018C16.1237 15.5968 16.4657 15.2548 16.4657 14.8329C16.4657 14.411 16.1237 14.069 15.7018 14.069ZM23.4582 11.077L23.4591 13.5036L23.4606 13.5121C22.6034 13.5973 21.8253 13.9531 21.2143 14.4939L21.2032 14.4813L21.1915 14.4691L19.5043 12.773C20.5583 11.7977 21.9367 11.1715 23.4582 11.077ZM24.2633 13.4946L24.2639 11.077C25.6468 11.1629 26.9116 11.688 27.922 12.5154L28.1345 12.6973L26.4229 14.4187C25.8836 13.9702 25.2261 13.6604 24.5044 13.5437L24.2615 13.5121L24.2633 13.4946ZM25.1915 10.1383L29.4749 10.1391L29.4752 12.7643C28.4174 11.4369 26.9132 10.4848 25.1915 10.1383ZM23.3737 3.00587L23.375 4.92163L34.1539 4.922V8.48482L23.375 8.4844L23.3737 10.401L17.7151 6.70339L23.3737 3.00587ZM7.36863 3.31036C6.8793 3.31036 6.44008 3.52731 6.14002 3.87125C5.84094 3.52731 5.40176 3.31036 4.91242 3.31036C4.00807 3.31036 3.27495 4.05139 3.27495 4.96552C3.27495 5.87965 4.00807 6.62071 4.91242 6.62071C5.40176 6.62071 5.84092 6.40374 6.14098 6.05979C6.44006 6.40374 6.8793 6.62071 7.36863 6.62071C8.27298 6.62071 9.00611 5.87965 9.00611 4.96552C9.00611 4.05139 8.27298 3.31036 7.36863 3.31036Z" fill="url(#paint0_linear_6125_2845)"/>
<defs>
<linearGradient id="paint0_linear_6125_2845" x1="0" y1="24" x2="37.7206" y2="8.92405" gradientUnits="userSpaceOnUse">
<stop stop-color="#85FFC4"/>
<stop offset="0.458333" stop-color="#5CC6FF"/>
<stop offset="0.807292" stop-color="#BC85FF"/>
</linearGradient>
</defs>
</svg>
