<svg width="22" height="27" viewBox="0 0 22 27" fill="none" xmlns="http://www.w3.org/2000/svg">
<path d="M19.4504 12.6962L22 10.762L19.4504 8.82271L20.914 5.97317L17.7748 5.34224L17.8575 2.13586L14.7598 2.92711L13.4462 0L11 2.06863L8.55383 0L7.24024 2.92711L4.14245 2.13069L4.2252 5.34224L1.08604 5.97317L2.5496 8.82271L0 10.762L2.5496 12.6962L1.08604 15.5509L4.2252 16.1819L4.14245 19.3882L7.24024 18.597L8.55383 21.5241L11 19.4555L13.4462 21.5241L14.7598 18.597L17.8575 19.3882L17.7748 16.1819L20.914 15.5509L19.4504 12.6962Z" fill="#FFD15C"/>
<path d="M7.23948 18.5968L4.14169 19.3881L4.21409 16.4868L3.60384 17.5728L0.257812 23.4943L4.07963 22.4341L5.13981 26.2714L7.87558 21.436L8.22725 20.8051L7.23948 18.5968Z" fill="#FF7058"/>
<path d="M18.3894 17.3814L17.7791 16.2954L17.8567 19.388L14.7589 18.5968L13.8125 20.7016L14.1693 21.3325L16.962 26.2714L18.0222 22.4341L21.844 23.4942L18.3894 17.3814Z" fill="#FF7058"/>
<path d="M10.9997 17.6143C14.7727 17.6143 17.8313 14.5464 17.8313 10.762C17.8313 6.97756 14.7727 3.90967 10.9997 3.90967C7.22662 3.90967 4.16797 6.97756 4.16797 10.762C4.16797 14.5464 7.22662 17.6143 10.9997 17.6143Z" fill="#F8B64C"/>
<path d="M9.37165 14.2892L6.79102 11.7034L7.98566 10.5036L9.37165 11.8947L14.0157 7.22998L15.2104 8.42979L9.37165 14.2892Z" fill="#F2F2F2"/>
</svg>
