<svg width="368" height="131" viewBox="0 0 368 131" fill="none" xmlns="http://www.w3.org/2000/svg">
<path opacity="0.1" fill-rule="evenodd" clip-rule="evenodd" d="M1 87.7426C1 87.7426 15.4274 84.6805 31.8306 92.0368C63.0283 106.028 64.8081 80.4068 76.3765 68.0529C86.9604 56.7504 95.7258 63.6465 107.51 77.4685C116.202 87.6629 128.868 104.775 141.986 102.02C153.977 99.5021 162.478 79.4317 179.099 74.3275C192.272 70.2821 202.977 81.3959 218.146 77.4685C238.724 72.1407 247.915 40.7753 262.622 40.7753C280.774 40.7753 293.554 14.2474 310.067 14.2474C326.482 14.2474 328.71 29.8464 346.667 40.7753C360.395 49.1304 367 40.7753 367 40.7753V130.307H1V87.7426Z" fill="url(#paint0_linear_1574_3261)"/>
<path d="M1.00005 73.8362C1.00005 73.8362 15.4275 70.8184 31.8306 78.0682C63.0284 91.8567 64.8081 66.6066 76.3766 54.4315C86.9605 43.2926 95.7259 50.0888 107.51 63.7108C116.202 73.7576 128.868 90.6222 141.986 87.9072C153.977 85.4254 162.478 65.6456 179.099 60.6152C192.272 56.6284 202.977 67.5813 218.146 63.7108C238.724 58.4601 247.915 27.5487 262.622 27.5487C280.774 27.5487 293.554 1.34167 310.067 1.34167C326.482 1.34167 327.355 16.778 345.311 27.5487C359.039 35.7829 367 27.5487 367 27.5487" stroke="#1B59F8" stroke-width="1.84723" stroke-linecap="round" stroke-linejoin="round"/>
<defs>
<linearGradient id="paint0_linear_1574_3261" x1="67.1457" y1="73.1366" x2="67.1457" y2="130.307" gradientUnits="userSpaceOnUse">
<stop stop-color="#0062FF"/>
<stop offset="1" stop-color="white" stop-opacity="0.01"/>
</linearGradient>
</defs>
</svg>
