<svg width="15" height="15" viewBox="0 0 15 15" fill="none" xmlns="http://www.w3.org/2000/svg">
<rect x="1.13647" y="1" width="13.3636" height="13.3636" rx="6.68182" fill="#0F85EE" stroke="#1A171D"/>
<path d="M6.70936 8.78733L9.98045 5.51624C10.0821 5.41459 10.2115 5.36377 10.3685 5.36377C10.5256 5.36377 10.655 5.41459 10.7566 5.51624C10.8583 5.61788 10.9091 5.74725 10.9091 5.90433C10.9091 6.06142 10.8583 6.19078 10.7566 6.29243L7.09745 9.95162C6.98657 10.0625 6.8572 10.1179 6.70936 10.1179C6.56151 10.1179 6.43215 10.0625 6.32126 9.95162L4.87976 8.51012C4.77812 8.40848 4.72729 8.27911 4.72729 8.12202C4.72729 7.96494 4.77812 7.83557 4.87976 7.73393C4.98141 7.63228 5.11077 7.58146 5.26786 7.58146C5.42494 7.58146 5.55431 7.63228 5.65595 7.73393L6.70936 8.78733Z" fill="black"/>
</svg>
