<svg width="23" height="23" viewBox="0 0 23 23" fill="none" xmlns="http://www.w3.org/2000/svg">
<path d="M6.54505 16.6308C6.63802 16.7006 6.74385 16.7515 6.8565 16.7804C6.96914 16.8094 7.08639 16.8158 7.20152 16.7993C7.31665 16.7829 7.42741 16.7439 7.52747 16.6847C7.62752 16.6254 7.71491 16.5469 7.78462 16.4538C8.32021 15.7397 9.01472 15.1601 9.81314 14.7609C10.6116 14.3617 11.492 14.1538 12.3846 14.1538C13.2773 14.1538 14.1577 14.3617 14.9561 14.7609C15.7545 15.1601 16.449 15.7397 16.9846 16.4538C17.0543 16.5468 17.1416 16.6251 17.2416 16.6843C17.3416 16.7435 17.4522 16.7824 17.5672 16.7988C17.6822 16.8152 17.7993 16.8088 17.9119 16.78C18.0244 16.7512 18.1301 16.7005 18.2231 16.6308C18.316 16.5611 18.3943 16.4737 18.4535 16.3738C18.5127 16.2738 18.5516 16.1632 18.568 16.0482C18.5845 15.9332 18.5781 15.8161 18.5492 15.7035C18.5204 15.591 18.4697 15.4852 18.4 15.3923C17.6167 14.3421 16.5721 13.5152 15.3702 12.9939C16.0289 12.3925 16.4904 11.606 16.6941 10.7377C16.8978 9.86933 16.8342 8.95967 16.5117 8.12809C16.1892 7.29651 15.6228 6.58187 14.8869 6.07794C14.151 5.57402 13.2799 5.30436 12.3879 5.30436C11.496 5.30436 10.6249 5.57402 9.88898 6.07794C9.15304 6.58187 8.58665 7.29651 8.26414 8.12809C7.94162 8.95967 7.87805 9.86933 8.08177 10.7377C8.28549 11.606 8.74698 12.3925 9.40567 12.9939C8.20131 13.5143 7.15437 14.3412 6.36923 15.3923C6.22834 15.5799 6.16772 15.8157 6.20069 16.0479C6.23366 16.2802 6.35753 16.4898 6.54505 16.6308ZM9.73077 9.73077C9.73077 9.20589 9.88642 8.69279 10.178 8.25637C10.4696 7.81995 10.8841 7.4798 11.369 7.27893C11.854 7.07807 12.3876 7.02552 12.9024 7.12792C13.4172 7.23031 13.89 7.48307 14.2612 7.85422C14.6323 8.22536 14.8851 8.69823 14.9875 9.21303C15.0899 9.72783 15.0373 10.2614 14.8365 10.7464C14.6356 11.2313 14.2954 11.6458 13.859 11.9374C13.4226 12.229 12.9095 12.3846 12.3846 12.3846C11.6808 12.3846 11.0058 12.105 10.5081 11.6073C10.0104 11.1096 9.73077 10.4346 9.73077 9.73077ZM20.3462 0H4.42308C3.95385 0 3.50384 0.1864 3.17204 0.518196C2.84025 0.849991 2.65385 1.3 2.65385 1.76923V4.42308H0.884615C0.650001 4.42308 0.424995 4.51628 0.259098 4.68217C0.0932003 4.84807 0 5.07308 0 5.30769C0 5.54231 0.0932003 5.76731 0.259098 5.93321C0.424995 6.09911 0.650001 6.19231 0.884615 6.19231H2.65385V10.6154H0.884615C0.650001 10.6154 0.424995 10.7086 0.259098 10.8745C0.0932003 11.0404 0 11.2654 0 11.5C0 11.7346 0.0932003 11.9596 0.259098 12.1255C0.424995 12.2914 0.650001 12.3846 0.884615 12.3846H2.65385V16.8077H0.884615C0.650001 16.8077 0.424995 16.9009 0.259098 17.0668C0.0932003 17.2327 0 17.4577 0 17.6923C0 17.9269 0.0932003 18.1519 0.259098 18.3178C0.424995 18.4837 0.650001 18.5769 0.884615 18.5769H2.65385V21.2308C2.65385 21.7 2.84025 22.15 3.17204 22.4818C3.50384 22.8136 3.95385 23 4.42308 23H20.3462C20.8154 23 21.2654 22.8136 21.5972 22.4818C21.929 22.15 22.1154 21.7 22.1154 21.2308V1.76923C22.1154 1.3 21.929 0.849991 21.5972 0.518196C21.2654 0.1864 20.8154 0 20.3462 0ZM20.3462 21.2308H4.42308V1.76923H20.3462V21.2308Z" fill="#C9C9CB"/>
</svg>
