<svg width="114" height="114" viewBox="0 0 114 114" fill="none" xmlns="http://www.w3.org/2000/svg">
<path d="M24.0113 35.1348C23.3433 30.0761 22.2122 21.1609 22.9603 16.2536C23.7084 11.3462 25.6678 6.82185 29.7558 5.0317C33.2916 3.49091 37.7002 5.12076 40.2473 8.93264C41.6991 11.1058 42.5274 13.7865 43.2309 16.4406C44.4333 21.0006 45.5822 27.235 46.1611 31.9286" stroke="#00796B" stroke-width="3" stroke-miterlimit="10"/>
<path d="M27.3511 103.882L5.82468 94.9136L10.8211 72.8796L9.75234 22.6662L64.223 16.2715V21.0274L77.1816 22.6662L27.3511 103.882Z" fill="#26A69A"/>
<path d="M81.8039 95.6884L27.3422 103.936L22.7109 75.0971V30.9043L77.1816 22.666V66.8499L81.8039 95.6884Z" fill="#61DE9F"/>
<path d="M22.7109 30.9049V25.9352L9.75234 22.6666L64.3299 16.6104L66.0755 20.4757L77.1816 22.6666L22.7109 30.9049Z" fill="#263238"/>
<path d="M5.82468 94.9135C6.19875 94.9135 18.7209 84.983 18.7209 84.983L27.3422 103.936L25.4897 73.7166L22.6842 30.9043L19.0416 77.1723L5.82468 94.9135Z" fill="#00796B"/>
<path d="M64.1695 17.1806L65.4877 20.2266L65.6569 20.6273L66.0755 20.7342L72.7106 22.4353L23.6016 29.872V25.2408L22.9247 25.0716L14.6597 22.9875L64.1695 17.1806ZM64.7306 16.2188L9.76125 22.6669L22.7198 25.9355V30.9141L77.1816 22.6669L66.307 19.8703L64.7306 16.2188Z" fill="#26A69A"/>
<path d="M39.143 34.2449C38.475 29.1951 31.5192 9.79728 44.8341 7.32135C54.8981 5.45104 59.3424 26.8884 59.9302 31.5909" stroke="#61DE9F" stroke-width="3" stroke-miterlimit="10"/>
<path d="M40.7995 35.6517C40.0247 33.0421 39.2142 27.7696 39.1786 27.5381L41.8149 27.1373C41.8238 27.1907 42.7678 32.5701 43.8009 35.0906L40.7995 35.6517ZM61.5689 32.49C60.7941 29.8804 59.9836 24.6079 59.948 24.3764L62.5842 23.9756C62.5931 24.029 63.6886 29.4975 64.6059 31.9378L61.5689 32.49ZM41.7169 101.763L49.1981 88.8042L45.6267 54.2568L75.525 48.4411L59.4938 99.1087L41.7169 101.763Z" fill="#26A69A"/>
<path d="M65.078 50.8102C65.078 50.8102 61.7114 32.9353 72.9244 34.1199C79.0252 34.7611 78.7758 48.9488 78.7758 48.9488" stroke="#D7578A" stroke-width="3" stroke-miterlimit="10"/>
<path d="M66.3159 110.429L49.7771 103.508L53.6245 86.5687L52.8052 47.969L94.6645 43.0527V46.7132L104.622 47.969L66.3159 110.429Z" fill="#D7578A"/>
<path d="M108.175 104.096L66.3159 110.437L62.7624 88.2695V54.31L104.622 47.9688V81.9372L108.175 104.096Z" fill="#FF9F9F"/>
<path d="M62.7623 54.3102L59.4136 51.7452L52.8051 47.969L94.6645 43.0527L98.4675 45.4485L104.622 47.969L62.7623 54.3102Z" fill="#263238"/>
<path d="M94.5042 43.9701L101.674 47.5059L62.9494 53.3662L55.388 48.5568L94.5042 43.9701ZM94.6645 43.0527L52.8051 47.969L62.7623 54.3102L104.622 47.969L94.6645 43.0527Z" fill="#D7578A"/>
<path d="M76.9144 57.7214C76.3176 55.7264 75.7031 51.6741 75.6764 51.5048L78.0276 51.202C78.0365 51.2466 78.6333 55.3256 79.1854 57.2048L76.9144 57.7214ZM92.8476 55.2722C92.2509 53.2772 91.6364 49.2248 91.6097 49.0556L93.9342 48.7617C93.9431 48.8063 94.424 53.01 94.9762 54.8892L92.8476 55.2722Z" fill="#D7578A"/>
<path d="M75.5963 57.8109C75.0797 53.9277 69.7894 37.558 79.7644 36.1776C87.5573 35.0999 90.915 51.2202 91.3692 54.8273" stroke="#FF9F9F" stroke-width="3" stroke-miterlimit="10"/>
<path d="M49.7771 103.509L58.2291 96.3481L66.316 110.438L62.7802 88.4037L62.8158 54.4175L61.8183 54.0078L58.6655 88.5551L49.7771 103.509Z" fill="#AB2C5E"/>
</svg>
