<svg width="24" height="24" viewBox="0 0 24 24" fill="none" xmlns="http://www.w3.org/2000/svg">
<rect width="24" height="24" fill="#353333"/>
<g id="Bitcoin">
<g clip-path="url(#clip0_395_2060)">
<rect x="-24" y="-771" width="430" height="932" rx="50" fill="black"/>
<g id="Group 1171275859">
<g id="Rectangle 220" filter="url(#filter0_d_395_2060)">
<rect x="-8" y="-8" width="398" height="74" rx="37" fill="#0484FF"/>
</g>
</g>
<g id="Group 1171275865">
<path id="Rectangle 235" d="M-24 -79C-24 -92.2548 -13.2548 -103 0 -103H382C395.255 -103 406 -92.2548 406 -79V158C406 159.657 404.657 161 403 161H-21C-22.6569 161 -24 159.657 -24 158V-79Z" fill="#16161A"/>
<g id="Group 1171275864">
<g id="Buy">
<path id="Combined-Shape" fill-rule="evenodd" clip-rule="evenodd" d="M6.18452 20.3423C7.04132 20.3423 7.73852 21.0383 7.73852 21.8952C7.73852 22.752 7.04132 23.4492 6.18452 23.4492C5.32771 23.4492 4.63171 22.752 4.63171 21.8952C4.63171 21.0383 5.32771 20.3423 6.18452 20.3423ZM19.7209 20.3423C20.5789 20.3423 21.2761 21.0383 21.2761 21.8952C21.2761 22.752 20.5789 23.4492 19.7209 23.4492C18.8641 23.4492 18.1681 22.752 18.1681 21.8952C18.1681 21.0383 18.8641 20.3423 19.7209 20.3423ZM1.05354 0.0113845L3.54955 0.443386C3.95155 0.514186 4.25755 0.847788 4.29235 1.25579L4.57435 4.617L5.62298 4.61745C5.79409 4.61753 5.9634 4.61761 6.1309 4.61768L8.05608 4.6186C8.20953 4.61867 8.36127 4.61875 8.51132 4.61883L10.637 4.61999C10.7705 4.62007 10.9025 4.62015 11.0328 4.62023L12.5224 4.62118C12.6405 4.62126 12.757 4.62134 12.872 4.62142L14.1822 4.62238C14.2856 4.62247 14.3876 4.62255 14.4883 4.62263L15.6306 4.62361C15.7205 4.62369 15.809 4.62377 15.8963 4.62386L16.6471 4.6246C16.7267 4.62469 16.8052 4.62477 16.8824 4.62485L17.7519 4.62586C17.8197 4.62595 17.8863 4.62603 17.9519 4.62612L18.686 4.62714C18.7429 4.62723 18.7988 4.62731 18.8536 4.6274L19.3202 4.62818C19.3691 4.62827 19.417 4.62835 19.464 4.62844L19.9838 4.62949C20.0235 4.62958 20.0624 4.62967 20.1004 4.62976L20.4203 4.63056C20.4534 4.63065 20.4857 4.63074 20.5173 4.63083L20.8602 4.63191C20.8859 4.632 20.9109 4.63209 20.9352 4.63218L21.1365 4.633C21.157 4.63309 21.1769 4.63319 21.1961 4.63328L21.3998 4.63439C21.4146 4.63448 21.4289 4.63457 21.4426 4.63467L21.5536 4.63551C21.5646 4.6356 21.5751 4.6357 21.5852 4.63579L21.6651 4.63664C21.6728 4.63674 21.6802 4.63683 21.6872 4.63693L21.7416 4.63779C21.7467 4.63789 21.7515 4.63798 21.7561 4.63808L21.7905 4.63895C21.7936 4.63905 21.7966 4.63914 21.7993 4.63924L21.8242 4.64042L21.8285 4.64071C21.8402 4.6418 21.8436 4.6422 21.8436 4.6422C22.512 4.7394 23.1 5.0886 23.5008 5.62621C23.9016 6.16261 24.0696 6.82381 23.9736 7.48621L22.8348 15.3558C22.62 16.8535 21.3192 17.9827 19.8072 17.9827H6.70196C5.12155 17.9827 3.78355 16.7491 3.65515 15.171L2.55594 2.09819L0.747537 1.78619C0.256735 1.69979 -0.0708662 1.23539 0.0131341 0.744587C0.0995345 0.253785 0.573536 -0.0654158 1.05354 0.0113845ZM5.38223 6.41742L4.72555 6.41701L5.44916 15.0234C5.50196 15.6858 6.04316 16.1826 6.70436 16.1826H19.8048C20.43 16.1826 20.964 15.717 21.0528 15.099L22.1928 7.22821C22.2192 7.04101 22.1724 6.85381 22.0584 6.70261C21.9456 6.55021 21.78 6.45181 21.5928 6.42541C21.5842 6.42574 21.5634 6.42604 21.5312 6.42632L21.4007 6.42706C21.3734 6.42718 21.3434 6.42728 21.3107 6.42738L20.6309 6.42841C20.5735 6.42845 20.5139 6.42849 20.4521 6.42852L18.8537 6.42845C18.7645 6.42842 18.6736 6.42838 18.5811 6.42834L16.757 6.42723C16.6477 6.42715 16.5372 6.42707 16.4256 6.42699L15.3934 6.42616C15.2759 6.42606 15.1574 6.42596 15.0382 6.42586L13.9449 6.4249C13.8214 6.42479 13.6973 6.42467 13.5728 6.42456L12.8197 6.42387C12.6933 6.42375 12.5666 6.42363 12.4395 6.42352L11.2903 6.42244C11.1622 6.42232 11.0339 6.4222 10.9057 6.42208L10.1369 6.42137C10.009 6.42125 9.8812 6.42113 9.75362 6.42101L8.99137 6.42032C8.86496 6.42021 8.73892 6.4201 8.61331 6.41999L7.4967 6.41902C7.37439 6.41892 7.25274 6.41882 7.13182 6.41872L5.7207 6.41765C5.60683 6.41757 5.49398 6.41749 5.38223 6.41742ZM17.8775 9.05258C18.3743 9.05258 18.7775 9.45578 18.7775 9.95258C18.7775 10.4494 18.3743 10.8526 17.8775 10.8526H14.5511C14.0531 10.8526 13.6511 10.4494 13.6511 9.95258C13.6511 9.45578 14.0531 9.05258 14.5511 9.05258H17.8775Z" fill="white"/>
</g>
</g>
</g>
</g>
</g>
<defs>
<filter id="filter0_d_395_2060" x="-28" y="-24" width="438" height="114" filterUnits="userSpaceOnUse" color-interpolation-filters="sRGB">
<feFlood flood-opacity="0" result="BackgroundImageFix"/>
<feColorMatrix in="SourceAlpha" type="matrix" values="0 0 0 0 0 0 0 0 0 0 0 0 0 0 0 0 0 0 127 0" result="hardAlpha"/>
<feMorphology radius="5" operator="dilate" in="SourceAlpha" result="effect1_dropShadow_395_2060"/>
<feOffset dy="4"/>
<feGaussianBlur stdDeviation="7.5"/>
<feComposite in2="hardAlpha" operator="out"/>
<feColorMatrix type="matrix" values="0 0 0 0 0 0 0 0 0 0 0 0 0 0 0 0 0 0 0.15 0"/>
<feBlend mode="normal" in2="BackgroundImageFix" result="effect1_dropShadow_395_2060"/>
<feBlend mode="normal" in="SourceGraphic" in2="effect1_dropShadow_395_2060" result="shape"/>
</filter>
<clipPath id="clip0_395_2060">
<rect x="-24" y="-771" width="430" height="932" rx="50" fill="white"/>
</clipPath>
</defs>
</svg>
