<svg width="36" height="36" viewBox="0 0 36 36" fill="none" xmlns="http://www.w3.org/2000/svg">
<rect width="36" height="36" rx="18" fill="#4172F4"/>
<path fill-rule="evenodd" clip-rule="evenodd" d="M14.123 24.5616C14.6942 24.5616 15.159 25.0256 15.159 25.5968C15.159 26.168 14.6942 26.6328 14.123 26.6328C13.5518 26.6328 13.0878 26.168 13.0878 25.5968C13.0878 25.0256 13.5518 24.5616 14.123 24.5616ZM23.1473 24.5616C23.7193 24.5616 24.1841 25.0256 24.1841 25.5968C24.1841 26.168 23.7193 26.6328 23.1473 26.6328C22.5761 26.6328 22.1121 26.168 22.1121 25.5968C22.1121 25.0256 22.5761 24.5616 23.1473 24.5616ZM10.7024 11.0076L12.3664 11.2956C12.6344 11.3428 12.8384 11.5652 12.8616 11.8372L13.0496 14.078L13.7487 14.0783C13.8627 14.0784 13.9756 14.0784 14.0873 14.0785L15.3707 14.0791C15.473 14.0791 15.5742 14.0792 15.6742 14.0792L17.0913 14.08C17.1804 14.08 17.2683 14.0801 17.3552 14.0802L18.3483 14.0808C18.427 14.0808 18.5046 14.0809 18.5813 14.0809L19.4548 14.0816C19.5237 14.0816 19.5918 14.0817 19.6589 14.0818L20.4204 14.0824C20.4803 14.0825 20.5393 14.0825 20.5975 14.0826L21.098 14.0831C21.1512 14.0831 21.2034 14.0832 21.2549 14.0832L21.8346 14.0839C21.8798 14.084 21.9242 14.084 21.9679 14.0841L22.4573 14.0848C22.4953 14.0848 22.5325 14.0849 22.5691 14.0849L22.8801 14.0855C22.9127 14.0855 22.9447 14.0856 22.976 14.0856L23.3225 14.0863C23.349 14.0864 23.3749 14.0864 23.4003 14.0865L23.6135 14.087C23.6356 14.0871 23.6571 14.0872 23.6782 14.0872L23.9068 14.0879C23.9239 14.088 23.9406 14.0881 23.9568 14.0881L24.091 14.0887C24.1047 14.0887 24.1179 14.0888 24.1307 14.0889L24.2665 14.0896C24.2764 14.0897 24.2859 14.0897 24.2951 14.0898L24.3691 14.0903C24.3764 14.0904 24.3834 14.0905 24.3901 14.0905L24.4434 14.0911C24.4486 14.0912 24.4535 14.0912 24.4581 14.0913L24.4944 14.0919C24.4978 14.0919 24.501 14.092 24.5041 14.0921L24.527 14.0926C24.5291 14.0927 24.531 14.0928 24.5329 14.0928L24.5495 14.0936L24.5523 14.0938C24.5601 14.0945 24.5624 14.0948 24.5624 14.0948C25.008 14.1596 25.4 14.3924 25.6672 14.7508C25.9344 15.1084 26.0464 15.5492 25.9824 15.9908L25.2232 21.2372C25.08 22.2356 24.2128 22.9884 23.2048 22.9884H14.468C13.4144 22.9884 12.5224 22.166 12.4368 21.114L11.704 12.3988L10.4984 12.1908C10.1712 12.1332 9.95276 11.8236 10.0088 11.4964C10.0664 11.1692 10.3824 10.9564 10.7024 11.0076ZM13.5882 15.2783L13.1504 15.278L13.6328 21.0156C13.668 21.4572 14.0288 21.7884 14.4696 21.7884H23.2032C23.62 21.7884 23.976 21.478 24.0352 21.066L24.7952 15.8188C24.8128 15.694 24.7816 15.5692 24.7056 15.4684C24.6304 15.3668 24.52 15.3012 24.3952 15.2836C24.3894 15.2838 24.3756 15.284 24.3542 15.2842L24.2671 15.2847C24.2489 15.2848 24.2289 15.2849 24.2071 15.2849L23.7539 15.2856C23.7157 15.2856 23.6759 15.2857 23.6347 15.2857L22.5691 15.2856C22.5097 15.2856 22.4491 15.2856 22.3874 15.2856L21.1713 15.2848C21.0985 15.2848 21.0248 15.2847 20.9504 15.2847L20.2623 15.2841C20.1839 15.284 20.105 15.284 20.0254 15.2839L19.2966 15.2833C19.2143 15.2832 19.1316 15.2831 19.0485 15.283L18.5464 15.2826C18.4622 15.2825 18.3777 15.2824 18.293 15.2823L17.5269 15.2816C17.4414 15.2815 17.356 15.2815 17.2705 15.2814L16.758 15.2809C16.6727 15.2808 16.5875 15.2808 16.5024 15.2807L15.9942 15.2802C15.91 15.2801 15.8259 15.2801 15.7422 15.28L14.9978 15.2793C14.9163 15.2793 14.8352 15.2792 14.7545 15.2791L13.8138 15.2784C13.7379 15.2784 13.6627 15.2783 13.5882 15.2783ZM21.9183 17.0351C22.2495 17.0351 22.5183 17.3039 22.5183 17.6351C22.5183 17.9663 22.2495 18.2351 21.9183 18.2351H19.7007C19.3687 18.2351 19.1007 17.9663 19.1007 17.6351C19.1007 17.3039 19.3687 17.0351 19.7007 17.0351H21.9183Z" fill="black"/>
</svg>
