<?xml version="1.0" encoding="utf-8"?>
<!-- Generator: Adobe Illustrator 17.0.0, SVG Export Plug-In . SVG Version: 6.00 Build 0)  -->
<!DOCTYPE svg PUBLIC "-//W3C//DTD SVG 1.1//EN" "http://www.w3.org/Graphics/SVG/1.1/DTD/svg11.dtd">
<svg version="1.1" id="Layer_1" xmlns="http://www.w3.org/2000/svg" xmlns:xlink="http://www.w3.org/1999/xlink" x="0px" y="0px"
	 width="16.813px" height="16.563px" viewBox="9.563 10.5 16.813 16.563" enable-background="new 9.563 10.5 16.813 16.563"
	 xml:space="preserve">
<path fill="#838383" d="M14.123,24.562c0.571,0,1.036,0.464,1.036,1.035s-0.465,1.036-1.036,1.036c-0.571,0-1.035-0.465-1.035-1.036
	S13.552,24.562,14.123,24.562z M23.147,24.562c0.572,0,1.037,0.464,1.037,1.035s-0.465,1.036-1.037,1.036
	c-0.571,0-1.035-0.465-1.035-1.036S22.576,24.562,23.147,24.562z M10.702,11.008l1.664,0.288c0.268,0.047,0.472,0.27,0.495,0.542
	l0.188,2.241l0.699,0c0.114,0,0.227,0,0.339,0l1.283,0.001c0.102,0,0.203,0,0.304,0l1.417,0.001c0.089,0,0.177,0,0.264,0
	l0.993,0.001c0.079,0,0.156,0,0.233,0l0.873,0.001c0.069,0,0.137,0,0.204,0l0.762,0.001c0.06,0,0.119,0,0.177,0l0.5,0.001
	c0.053,0,0.105,0,0.157,0l0.58,0.001c0.045,0,0.09,0,0.133,0l0.489,0.001c0.038,0,0.075,0,0.112,0l0.311,0.001
	c0.033,0,0.065,0,0.096,0l0.347,0.001c0.027,0,0.052,0,0.078,0l0.213,0c0.022,0,0.044,0,0.065,0l0.229,0.001c0.017,0,0.034,0,0.05,0
	l0.134,0.001c0.014,0,0.027,0,0.04,0l0.136,0.001c0.01,0,0.019,0,0.029,0l0.074,0c0.007,0,0.014,0,0.021,0l0.053,0.001
	c0.005,0,0.01,0,0.015,0l0.036,0.001c0.003,0,0.007,0,0.01,0l0.023,0c0.002,0,0.004,0,0.006,0l0.017,0.001l0.003,0
	c0.008,0.001,0.01,0.001,0.01,0.001c0.446,0.065,0.838,0.298,1.105,0.656c0.267,0.358,0.379,0.798,0.315,1.24l-0.759,5.246
	c-0.143,0.998-1.01,1.751-2.018,1.751h-8.737c-1.054,0-1.946-0.822-2.031-1.874l-0.733-8.715l-1.206-0.208
	c-0.327-0.058-0.546-0.367-0.49-0.694C10.066,11.169,10.382,10.956,10.702,11.008z M13.588,15.278l-0.438,0l0.482,5.738
	c0.035,0.442,0.396,0.773,0.837,0.773h8.734c0.417,0,0.773-0.31,0.832-0.722l0.76-5.247c0.018-0.125-0.014-0.25-0.09-0.35
	c-0.075-0.102-0.186-0.167-0.31-0.185c-0.006,0-0.02,0-0.041,0.001l-0.087,0.001c-0.018,0-0.038,0-0.06,0l-0.453,0.001
	c-0.038,0-0.078,0-0.119,0l-1.066,0c-0.059,0-0.12,0-0.182,0l-1.216-0.001c-0.073,0-0.147,0-0.221,0l-0.688-0.001
	c-0.078,0-0.157,0-0.237,0l-0.729-0.001c-0.082,0-0.165,0-0.248,0l-0.502,0c-0.084,0-0.169,0-0.253,0l-0.766-0.001
	c-0.085,0-0.171,0-0.256,0l-0.513,0c-0.085,0-0.17,0-0.256,0l-0.508,0c-0.084,0-0.168,0-0.252,0l-0.744-0.001
	c-0.082,0-0.163,0-0.243,0l-0.941-0.001C13.738,15.278,13.663,15.278,13.588,15.278z M21.918,17.035c0.331,0,0.6,0.269,0.6,0.6
	s-0.269,0.6-0.6,0.6h-2.218c-0.332,0-0.6-0.269-0.6-0.6s0.268-0.6,0.6-0.6H21.918z"/>
</svg>
