<svg width="18" height="20" viewBox="0 0 18 20" fill="none" xmlns="http://www.w3.org/2000/svg">
<path fill-rule="evenodd" clip-rule="evenodd" d="M12.7324 0C13.1146 0 13.4247 0.310153 13.4247 0.692305L13.4251 1.4749C14.7729 1.5673 15.8923 2.02896 16.6846 2.82285C17.5495 3.69146 18.0045 4.94038 18 6.43853V14.8597C18 17.9354 16.0467 19.8462 12.9036 19.8462H5.09629C1.95322 19.8462 0 17.9086 0 14.7896V6.43668C0 3.53564 1.74189 1.67348 4.58277 1.47521L4.58334 0.692305C4.58334 0.310153 4.89349 0 5.27564 0C5.65779 0 5.96795 0.310153 5.96795 0.692305L5.96767 1.45753H12.0396L12.0401 0.692305C12.0401 0.310153 12.3503 0 12.7324 0ZM16.6153 8.21905H1.38461V14.7896C1.38461 17.1582 2.70276 18.4616 5.09629 18.4616H12.9036C15.2972 18.4616 16.6154 17.1822 16.6154 14.8597L16.6153 8.21905ZM13.1087 14.0273C13.4909 14.0273 13.8011 14.3375 13.8011 14.7196C13.8011 15.1018 13.4909 15.4119 13.1087 15.4119C12.7266 15.4119 12.4128 15.1018 12.4128 14.7196C12.4128 14.3375 12.7183 14.0273 13.1004 14.0273H13.1087ZM9.01261 14.0273C9.39476 14.0273 9.70492 14.3375 9.70492 14.7196C9.70492 15.1018 9.39476 15.4119 9.01261 15.4119C8.63046 15.4119 8.31661 15.1018 8.31661 14.7196C8.31661 14.3375 8.62215 14.0273 9.0043 14.0273H9.01261ZM4.90789 14.0273C5.29004 14.0273 5.60019 14.3375 5.60019 14.7196C5.60019 15.1018 5.29004 15.4119 4.90789 15.4119C4.52574 15.4119 4.21097 15.1018 4.21097 14.7196C4.21097 14.3375 4.51743 14.0273 4.89958 14.0273H4.90789ZM13.1087 10.4396C13.4909 10.4396 13.8011 10.7497 13.8011 11.1319C13.8011 11.514 13.4909 11.8242 13.1087 11.8242C12.7266 11.8242 12.4128 11.514 12.4128 11.1319C12.4128 10.7497 12.7183 10.4396 13.1004 10.4396H13.1087ZM9.01261 10.4396C9.39476 10.4396 9.70492 10.7497 9.70492 11.1319C9.70492 11.514 9.39476 11.8242 9.01261 11.8242C8.63046 11.8242 8.31661 11.514 8.31661 11.1319C8.31661 10.7497 8.62215 10.4396 9.0043 10.4396H9.01261ZM4.90789 10.4396C5.29004 10.4396 5.60019 10.7497 5.60019 11.1319C5.60019 11.514 5.29004 11.8242 4.90789 11.8242C4.52574 11.8242 4.21097 11.514 4.21097 11.1319C4.21097 10.7497 4.51743 10.4396 4.89958 10.4396H4.90789ZM12.0396 2.84214H5.96767L5.96795 3.73014C5.96795 4.11229 5.65779 4.42244 5.27564 4.42244C4.89349 4.42244 4.58334 4.11229 4.58334 3.73014L4.58285 2.8631C2.51495 3.03681 1.38461 4.29031 1.38461 6.43668V6.83443H16.6153L16.6154 6.43668C16.619 5.29669 16.3126 4.41054 15.7042 3.80131C15.1703 3.26575 14.3897 2.9459 13.4255 2.86354L13.4247 3.73014C13.4247 4.11229 13.1146 4.42244 12.7324 4.42244C12.3503 4.42244 12.0401 4.11229 12.0401 3.73014L12.0396 2.84214Z" fill="#C9C9CB"/>
</svg>
