<?xml version="1.0" encoding="utf-8"?>
<!-- Generator: Adobe Illustrator 17.0.0, SVG Export Plug-In . SVG Version: 6.00 Build 0)  -->
<!DOCTYPE svg PUBLIC "-//W3C//DTD SVG 1.1//EN" "http://www.w3.org/Graphics/SVG/1.1/DTD/svg11.dtd">
<svg version="1.1" id="Layer_1" xmlns="http://www.w3.org/2000/svg" xmlns:xlink="http://www.w3.org/1999/xlink" x="0px" y="0px"
	 width="36px" height="36px" viewBox="0 0 36 36" enable-background="new 0 0 36 36" xml:space="preserve">
<path fill="#4172F4" d="M18,0L18,0c9.941,0,18,8.059,18,18l0,0c0,9.941-8.059,18-18,18l0,0C8.059,36,0,27.941,0,18l0,0
	C0,8.059,8.059,0,18,0z"/>
<g>
	<path fill="none" stroke="#000000" stroke-width="1.4" stroke-linecap="round" stroke-linejoin="round" d="M16.722,10.372H12.6
		c-0.955,0-1.87,0.379-2.546,1.054C9.379,12.101,9,13.017,9,13.972v9c0,0.955,0.379,1.87,1.054,2.545
		c0.675,0.675,1.591,1.055,2.546,1.055h10.8c0.955,0,1.87-0.379,2.546-1.055C26.621,24.842,27,23.926,27,22.972v-3.663"/>
	<path fill="none" stroke="#000000" stroke-width="1.4" stroke-linecap="round" stroke-linejoin="round" d="M16.722,15.772H9"/>
	<path fill="none" stroke="#000000" stroke-width="1.4" stroke-linecap="round" stroke-linejoin="round" d="M11.7,23.828h5.4"/>
	<path fill="none" stroke="#000000" stroke-width="1.4" stroke-linecap="round" stroke-linejoin="round" d="M23.399,16.628v-7.2"/>
	<path fill="none" stroke="#000000" stroke-width="1.4" stroke-linecap="round" stroke-linejoin="round" d="M19.799,13.027h7.2"/>
</g>
</svg>
