<svg width="138" height="29" viewBox="0 0 138 29" fill="none" xmlns="http://www.w3.org/2000/svg">
<path d="M12.862 18.77C15.9378 16.9616 17.2521 14.166 17.6725 13.132C17.8881 12.6016 18.0104 12.1854 18.1401 11.7441C18.3106 11.1639 18.4436 10.6073 18.5487 10.0787V8.43983C18.5487 6.09036 17.829 4.26408 16.3927 2.95786C14.9534 1.65467 12.7974 1 9.92474 1C7.92918 1 6.22158 1.3628 4.79883 2.08448C5.93547 1.77756 8.22633 1.28318 10.6797 2.1931C11.4596 2.48234 12.6253 2.91469 13.4578 4.0652C14.0155 4.83572 14.2002 5.61972 14.3762 6.36651C14.5128 6.94645 14.5836 7.48723 14.615 7.97203C14.62 7.9984 14.6248 8.02458 14.6289 8.04822C14.6853 8.96234 14.7244 9.90791 14.742 10.8831C14.7751 12.7124 14.7294 14.4467 14.6289 16.0752C14.3002 16.6995 13.679 17.6675 12.5845 18.49C12.2161 18.7669 11.8195 19.0061 11.3949 19.2078C10.4252 19.6705 9.50471 19.9674 8.63279 20.1021C9.08516 20.0865 9.53596 20.0306 9.97778 19.9314C11.2883 19.6374 12.1992 19.1597 12.862 18.77Z" fill="white"/>
<path d="M13.5151 4.05113C12.6818 2.89427 11.5152 2.45959 10.7347 2.16878C8.27914 1.25388 5.98643 1.75099 4.84871 2.05948C4.4064 2.28493 3.99076 2.54408 3.60365 2.83918C2.50706 3.67545 1.93532 4.58693 1.7887 4.82175C0.808546 6.3922 0.645415 7.9902 0.64649 8.9051C0.646978 9.30218 0.678432 9.63127 0.707053 9.85751C0.877412 9.68451 1.13715 9.44509 1.48793 9.20938C2.11457 8.78817 2.70184 8.60062 3.26879 8.45341C4.91152 8.02693 6.70928 7.85481 7.33455 7.80118C7.58794 7.76104 7.89095 7.68689 8.21604 7.54848C8.99789 7.21557 9.48807 6.68935 9.74165 6.3669C8.81894 6.79827 7.73759 6.8602 6.7674 6.55123C6.51479 6.47074 6.23435 6.32207 6.19762 6.05881C6.17163 5.87302 6.28026 5.6968 6.39435 5.54822C6.41135 5.52615 6.42991 5.50554 6.44739 5.48385C6.48012 5.45513 6.51235 5.42602 6.54605 5.39838C7.61959 4.51806 9.06266 4.48016 9.97893 4.51259C10.9527 4.54688 12.3515 4.5963 13.4688 5.67101C14.3124 6.48246 14.5795 7.47746 14.673 7.97936C14.6416 7.49192 14.5707 6.94822 14.434 6.36505C14.2581 5.61426 14.0732 4.82595 13.5151 4.05113Z" fill="white"/>
<path d="M1.78751 17.8623C2.18205 16.4681 3.32484 15.3767 4.62735 14.7409C5.40051 14.3635 6.22876 14.1275 7.07538 13.9641C7.74246 13.7889 8.44655 13.695 9.06205 13.5621C11.3305 13.0719 12.3122 12.7448 13.1864 12.0629C13.5556 11.7751 13.8905 11.4359 14.1213 10.9489C14.4976 10.1546 14.4001 9.38271 14.3304 9.02734C13.9901 9.25963 13.5093 9.46496 12.8846 9.64333C11.5124 10.0352 9.91043 10.3628 8.0819 10.623C5.3375 11.0149 3.3099 11.7986 2.00505 12.9743C0.126115 14.6672 -0.544577 17.6659 0.476308 19.991C0.957104 21.0861 1.7371 21.9083 2.67857 22.5004C2.32095 21.9255 2.04275 21.3011 1.85921 20.6493C1.60425 19.7432 1.53119 18.7679 1.78751 17.8623Z" fill="white"/>
<path d="M18.9164 21.8492C18.7899 21.5279 18.742 21.0969 18.6513 20.2479C18.6015 19.7814 18.5721 19.3942 18.5545 19.1274V10.043C18.4498 10.5692 18.3172 11.123 18.1473 11.7003C18.0181 12.1394 17.8962 12.5537 17.6814 13.0814C17.2626 14.1103 15.953 16.8921 12.8883 18.6917C12.2281 19.0794 11.3204 19.5549 10.0145 19.8474C9.5744 19.9461 9.12506 20.0018 8.67425 20.0172C8.3139 20.0729 7.96165 20.1014 7.6181 20.1014C6.0879 20.1014 4.62461 19.4322 4.18914 17.8464C3.86796 16.6768 4.3383 15.2791 5.31034 14.5436C5.7378 14.2202 6.26168 14.0211 6.81075 13.8772C5.96726 14.0397 5.14213 14.2743 4.3719 14.6496C3.07428 15.2818 1.93579 16.367 1.54281 17.7532C1.28756 18.6536 1.36024 19.6233 1.61431 20.5242C1.79708 21.1722 2.0742 21.793 2.43055 22.3646C3.82331 23.2388 5.57106 23.6081 7.22766 23.6081C8.65872 23.6081 10.0258 23.3493 11.3288 22.8288C12.6287 22.3114 13.7363 21.5321 14.6486 20.4909C14.7494 20.9168 15.0342 21.838 15.8717 22.5639C17.6034 24.0645 20.0005 23.2596 20.1167 23.2185C19.3364 22.7157 19.0412 22.1665 18.9164 21.8492Z" fill="white"/>
<path d="M26.814 23H22.87V6.204H26.508L26.678 7.564H26.78C27.6187 7.06533 28.4687 6.68 29.33 6.408C30.1913 6.136 31.03 6 31.846 6C32.0727 6 32.22 6 32.288 6C32.3787 6 32.4467 6.01133 32.492 6.034V9.842C32.356 9.79667 32.1747 9.774 31.948 9.774C31.744 9.75133 31.3813 9.74 30.86 9.74C30.0667 9.74 29.33 9.808 28.65 9.944C27.97 10.08 27.358 10.2727 26.814 10.522V23ZM45.3955 19.328V22.694C45.0102 22.8527 44.4662 22.9887 43.7635 23.102C43.0835 23.238 42.4602 23.306 41.8935 23.306C39.7402 23.306 38.1989 22.8413 37.2695 21.912C36.3402 20.96 35.8755 19.3847 35.8755 17.186V9.502H33.6315V6.204H35.9775L36.5215 2.192H39.8195V6.204H45.1915V9.502H39.8195V17.05C39.8195 18.0473 40.0349 18.7273 40.4655 19.09C40.8962 19.4527 41.6669 19.634 42.7775 19.634C43.1629 19.634 43.6162 19.6113 44.1375 19.566C44.6589 19.498 45.0782 19.4187 45.3955 19.328ZM51.6167 23H47.6727V0.389999H51.6167V7.462C52.5687 6.94067 53.5207 6.544 54.4727 6.272C55.4247 6 56.3427 5.864 57.2267 5.864C59.1081 5.864 60.5134 6.32867 61.4427 7.258C62.3947 8.16467 62.8707 9.536 62.8707 11.372V23H58.9267V11.882C58.9267 11.0207 58.6887 10.3973 58.2127 10.012C57.7594 9.604 57.0227 9.4 56.0027 9.4C55.3001 9.4 54.5634 9.47933 53.7927 9.638C53.0221 9.79667 52.2967 10.012 51.6167 10.284V23ZM70.4097 23.306C68.687 23.306 67.4177 22.8867 66.6017 22.048C65.8084 21.1867 65.4117 19.8493 65.4117 18.036C65.4117 16.1773 65.8877 14.8627 66.8397 14.092C67.8144 13.3213 69.4804 12.936 71.8377 12.936C72.495 12.936 73.1637 12.97 73.8437 13.038C74.5237 13.106 75.113 13.1967 75.6117 13.31V11.882C75.6117 10.998 75.3397 10.352 74.7957 9.944C74.2517 9.536 73.3904 9.332 72.2117 9.332C71.1464 9.332 70.1944 9.366 69.3557 9.434C68.5397 9.502 67.7577 9.61533 67.0097 9.774V6.476C67.871 6.272 68.8004 6.12467 69.7977 6.034C70.8177 5.92067 72.019 5.864 73.4017 5.864C75.4644 5.864 77.0057 6.34 78.0257 7.292C79.0457 8.22133 79.5557 9.62667 79.5557 11.508V23H75.9177L75.7477 21.504H75.6797C74.9544 22.048 74.1157 22.49 73.1637 22.83C72.2344 23.1473 71.3164 23.306 70.4097 23.306ZM72.3137 15.758C71.0897 15.758 70.251 15.9053 69.7977 16.2C69.3444 16.472 69.1177 17.0047 69.1177 17.798C69.1177 18.5687 69.299 19.124 69.6617 19.464C70.047 19.7813 70.693 19.94 71.5997 19.94C72.257 19.94 72.9484 19.8493 73.6737 19.668C74.4217 19.464 75.0677 19.2147 75.6117 18.92V16.03C75.0677 15.9393 74.5237 15.8713 73.9797 15.826C73.4584 15.7807 72.903 15.758 72.3137 15.758ZM87.1441 28.168H83.2001V6.204H86.6341L86.8721 7.734H87.0421C87.6767 7.122 88.4361 6.65733 89.3201 6.34C90.2041 6.02267 91.2014 5.864 92.3121 5.864C94.5787 5.864 96.1881 6.544 97.1401 7.904C98.1147 9.24133 98.6021 11.4627 98.6021 14.568C98.6021 17.6507 98.0014 19.8833 96.8001 21.266C95.5987 22.626 93.6267 23.306 90.8841 23.306C90.1134 23.306 89.4107 23.2493 88.7761 23.136C88.1414 23.0453 87.5974 22.9093 87.1441 22.728V28.168ZM94.6581 14.568C94.6581 12.596 94.3974 11.2473 93.8761 10.522C93.3774 9.774 92.3914 9.4 90.9181 9.4C90.2154 9.4 89.5467 9.47933 88.9121 9.638C88.2774 9.79667 87.6881 10.0233 87.1441 10.318V19.09C87.5521 19.2713 88.0167 19.4073 88.5381 19.498C89.0821 19.5887 89.6941 19.634 90.3741 19.634C92.1194 19.634 93.2641 19.294 93.8081 18.614C94.3747 17.9113 94.6581 16.5627 94.6581 14.568ZM105.539 23.306C103.816 23.306 102.547 22.8867 101.731 22.048C100.937 21.1867 100.541 19.8493 100.541 18.036C100.541 16.1773 101.017 14.8627 101.969 14.092C102.943 13.3213 104.609 12.936 106.967 12.936C107.624 12.936 108.293 12.97 108.973 13.038C109.653 13.106 110.242 13.1967 110.741 13.31V11.882C110.741 10.998 110.469 10.352 109.925 9.944C109.381 9.536 108.519 9.332 107.341 9.332C106.275 9.332 105.323 9.366 104.485 9.434C103.669 9.502 102.887 9.61533 102.139 9.774V6.476C103 6.272 103.929 6.12467 104.927 6.034C105.947 5.92067 107.148 5.864 108.531 5.864C110.593 5.864 112.135 6.34 113.155 7.292C114.175 8.22133 114.685 9.62667 114.685 11.508V23H111.047L110.877 21.504H110.809C110.083 22.048 109.245 22.49 108.293 22.83C107.363 23.1473 106.445 23.306 105.539 23.306ZM107.443 15.758C106.219 15.758 105.38 15.9053 104.927 16.2C104.473 16.472 104.247 17.0047 104.247 17.798C104.247 18.5687 104.428 19.124 104.791 19.464C105.176 19.7813 105.822 19.94 106.729 19.94C107.386 19.94 108.077 19.8493 108.803 19.668C109.551 19.464 110.197 19.2147 110.741 18.92V16.03C110.197 15.9393 109.653 15.8713 109.109 15.826C108.587 15.7807 108.032 15.758 107.443 15.758ZM119.835 25.074C120.673 25.074 121.297 24.9153 121.705 24.598C122.113 24.3033 122.464 23.6687 122.759 22.694L116.163 6.204H120.583L124.765 18.818L128.743 6.204H132.993L126.567 23.748C125.932 25.4707 125.15 26.6947 124.221 27.42C123.314 28.1453 122.113 28.508 120.617 28.508C120.163 28.508 119.699 28.4853 119.223 28.44C118.747 28.3947 118.327 28.338 117.965 28.27V24.972C118.146 25.0173 118.361 25.04 118.611 25.04C118.86 25.0627 119.268 25.074 119.835 25.074Z" fill="white"/>
</svg>
