<svg width="44" height="44" viewBox="0 0 44 44" fill="none" xmlns="http://www.w3.org/2000/svg">
<rect width="44" height="44" rx="22" fill="#D28624"/>
<path d="M22 10C28.6276 10 34 15.3724 34 22C34 28.6276 28.6276 34 22 34C15.3724 34 10 28.6276 10 22C10 15.3724 15.3724 10 22 10ZM21.1516 17.7568L17.7568 21.1516C17.5318 21.3766 17.4055 21.6818 17.4055 22C17.4055 22.3182 17.5318 22.6234 17.7568 22.8484L21.1516 26.2432C21.3766 26.4682 21.6818 26.5945 22 26.5945C22.3182 26.5945 22.6234 26.4682 22.8484 26.2432L26.2432 22.8484C26.4682 22.6234 26.5945 22.3182 26.5945 22C26.5945 21.6818 26.4682 21.3766 26.2432 21.1516L22.8484 17.7568C22.6234 17.5318 22.3182 17.4055 22 17.4055C21.6818 17.4055 21.3766 17.5318 21.1516 17.7568Z" fill="white"/>
</svg>
