<svg width="12" height="6" viewBox="0 0 12 6" fill="none" xmlns="http://www.w3.org/2000/svg">
<path d="M6.00677 5.99999C5.86343 5.99999 5.72905 5.98109 5.60363 5.94331C5.47821 5.90552 5.36175 5.84062 5.25425 5.7486L0.282286 1.52068C0.0851991 1.35309 -0.00868601 1.14344 0.000630827 0.891749C0.00994766 0.640055 0.112791 0.430716 0.309161 0.263732C0.506248 0.0961392 0.757086 0.0123421 1.06168 0.0123421C1.36626 0.0123421 1.6171 0.0961392 1.81419 0.263732L6.00677 3.82889L10.2262 0.240878C10.4233 0.0732851 10.6698 -0.00685449 10.9658 0.000458667C11.2618 0.00777182 11.508 0.0955297 11.7044 0.263732C11.9015 0.431325 12 0.644625 12 0.903633C12 1.16264 11.9015 1.37594 11.7044 1.54353L6.75928 5.7486C6.65178 5.84001 6.53532 5.90491 6.4099 5.94331C6.28448 5.9817 6.1501 6.0006 6.00677 5.99999Z" fill="white"/>
</svg>
