<svg width="36" height="36" viewBox="0 0 36 36" fill="none" xmlns="http://www.w3.org/2000/svg">
<rect width="36" height="36" rx="18" fill="#0484FF"/>
<path d="M19.4192 22.8432L20.36 23.784C20.5057 23.9349 20.5864 24.137 20.5845 24.3468C20.5827 24.5565 20.4986 24.7572 20.3503 24.9055C20.2019 25.0538 20.0013 25.138 19.7915 25.1398C19.5818 25.1416 19.3797 25.061 19.2288 24.9152L16.9656 22.6528C16.8156 22.5028 16.7314 22.2994 16.7314 22.0872C16.7314 21.8751 16.8156 21.6717 16.9656 21.5216L19.2288 19.2584C19.3789 19.1084 19.5825 19.0242 19.7947 19.0243C20.0069 19.0244 20.2104 19.1087 20.3604 19.2588C20.5104 19.409 20.5946 19.6125 20.5946 19.8247C20.5945 20.0369 20.5101 20.2404 20.36 20.3904L19.5064 21.2432H21.2C22.0487 21.2432 22.8626 20.9061 23.4627 20.306C24.0629 19.7059 24.4 18.8919 24.4 18.0432C24.4 17.1946 24.0629 16.3806 23.4627 15.7805C22.8626 15.1804 22.0487 14.8432 21.2 14.8432C20.9878 14.8432 20.7843 14.759 20.6343 14.6089C20.4843 14.4589 20.4 14.2554 20.4 14.0432C20.4 13.8311 20.4843 13.6276 20.6343 13.4776C20.7843 13.3275 20.9878 13.2432 21.2 13.2432C22.473 13.2432 23.6939 13.749 24.5941 14.6491C25.4943 15.5493 26 16.7702 26 18.0432C26 19.3163 25.4943 20.5372 24.5941 21.4374C23.6939 22.3375 22.473 22.8432 21.2 22.8432H19.4192ZM16.6184 13.2432L15.7408 12.3664C15.6665 12.2921 15.6075 12.2039 15.5673 12.1068C15.5271 12.0096 15.5064 11.9056 15.5064 11.8004C15.5064 11.5882 15.5907 11.3846 15.7408 11.2344C15.8909 11.0843 16.0945 11 16.3068 11C16.5191 11 16.7227 11.0843 16.8728 11.2344L19.1352 13.4976C19.2852 13.6477 19.3694 13.8511 19.3694 14.0632C19.3694 14.2754 19.2852 14.4788 19.1352 14.6288L16.8728 16.8912C16.7228 17.0414 16.5193 17.1257 16.3071 17.1258C16.0949 17.1259 15.8913 17.0417 15.7412 16.8916C15.5911 16.7416 15.5067 16.5381 15.5066 16.3259C15.5066 16.1137 15.5908 15.9102 15.7408 15.76L16.6584 14.8432H14.8C13.9513 14.8432 13.1374 15.1804 12.5373 15.7805C11.9371 16.3806 11.6 17.1946 11.6 18.0432C11.6 18.8919 11.9371 19.7059 12.5373 20.306C13.1374 20.9061 13.9513 21.2432 14.8 21.2432C15.0122 21.2432 15.2157 21.3275 15.3657 21.4776C15.5157 21.6276 15.6 21.8311 15.6 22.0432C15.6 22.2554 15.5157 22.4589 15.3657 22.6089C15.2157 22.759 15.0122 22.8432 14.8 22.8432C13.527 22.8432 12.3061 22.3375 11.4059 21.4374C10.5057 20.5372 10 19.3163 10 18.0432C10 16.7702 10.5057 15.5493 11.4059 14.6491C12.3061 13.749 13.527 13.2432 14.8 13.2432H16.6184Z" fill="black"/>
</svg>
