<svg width="36" height="36" viewBox="0 0 36 36" fill="none" xmlns="http://www.w3.org/2000/svg">
<rect width="36" height="36" rx="18" fill="#303738"/>
<path fill-rule="evenodd" clip-rule="evenodd" d="M10 18.7483C10 16.8427 11.592 15.2924 13.5488 15.2924H14.2944C14.6256 15.2924 14.8944 15.5541 14.8944 15.8767C14.8944 16.1992 14.6256 16.461 14.2944 16.461H13.5488C12.2528 16.461 11.2 17.487 11.2 18.7483V22.5463C11.2 23.8061 12.2528 24.8314 13.5488 24.8314H22.452C23.7472 24.8314 24.8 23.8061 24.8 22.5463V18.7398C24.8 17.4839 23.7504 16.461 22.4608 16.461H21.7064C21.3752 16.461 21.1064 16.1992 21.1064 15.8767C21.1064 15.5541 21.3752 15.2924 21.7064 15.2924H22.4608C24.4128 15.2924 26 16.8396 26 18.7398V22.5463C26 24.4504 24.4088 26 22.452 26H13.5488C11.592 26 10 24.4504 10 22.5463V18.7483ZM15.2432 12.4533L17.5752 10.1722C17.5959 10.1518 17.6175 10.1336 17.6403 10.1169L17.5752 10.1722C17.6031 10.1446 17.6337 10.12 17.6662 10.0987C17.681 10.0894 17.6963 10.0803 17.7119 10.0719C17.7242 10.0651 17.737 10.0589 17.75 10.0531C17.7615 10.0482 17.7729 10.0434 17.7846 10.0391C17.7998 10.0332 17.8155 10.028 17.8313 10.0235C17.8438 10.0201 17.8562 10.017 17.8688 10.0143C17.8841 10.0108 17.8995 10.008 17.9149 10.0059C17.925 10.0047 17.9356 10.0035 17.9462 10.0026C17.9645 10.0008 17.9822 10 18 10L18.0496 10.004L18.0814 10.0056C18.0827 10.0058 18.0841 10.0059 18.0855 10.0061L18 10C18.0444 10 18.0884 10.0048 18.1311 10.0141C18.1438 10.017 18.1562 10.0201 18.1685 10.0236C18.1845 10.028 18.2002 10.0332 18.2156 10.0389C18.2271 10.0434 18.2385 10.0482 18.2498 10.0532C18.263 10.0589 18.2758 10.0651 18.2884 10.0718C18.3037 10.0803 18.319 10.0894 18.3338 10.099C18.3426 10.1045 18.3512 10.1105 18.3597 10.1167C18.3848 10.1353 18.4084 10.1555 18.4302 10.1774L20.7576 12.4533C20.8744 12.5671 20.9328 12.7166 20.9328 12.8654C20.9328 13.015 20.8744 13.1654 20.756 13.2791C20.5208 13.5066 20.1416 13.5058 19.908 13.2776L18.6 12V19.9654C18.6 20.288 18.3312 20.5497 18 20.5497C17.6688 20.5497 17.4 20.288 17.4 19.9654V11.9984L16.0928 13.2776C15.8592 13.5058 15.48 13.5074 15.2448 13.2791C15.0096 13.0516 15.0096 12.6824 15.2432 12.4533Z" fill="#C9C9CB"/>
</svg>
