<?xml version="1.0" encoding="utf-8"?>
<!-- Generator: Adobe Illustrator 17.0.0, SVG Export Plug-In . SVG Version: 6.00 Build 0)  -->
<!DOCTYPE svg PUBLIC "-//W3C//DTD SVG 1.1//EN" "http://www.w3.org/Graphics/SVG/1.1/DTD/svg11.dtd">
<svg version="1.1" id="Layer_1" xmlns="http://www.w3.org/2000/svg" xmlns:xlink="http://www.w3.org/1999/xlink" x="0px" y="0px"
	 width="24px" height="24px" viewBox="0 0 24 24" enable-background="new 0 0 24 24" xml:space="preserve">
<g>
	<path fill="none" stroke="#FFFFFF" stroke-width="1.5" stroke-linecap="round" d="M17.393,20.536c0.915,0,1.657-0.619,1.657-1.381
		s-0.741-1.381-1.657-1.381s-1.657-0.618-1.657-1.381c0-0.762,0.741-1.381,1.657-1.381 M17.393,20.536
		c-0.915,0-1.657-0.619-1.657-1.381 M17.393,20.536v0.552 M17.393,15.014v-0.552 M17.393,15.014c0.915,0,1.657,0.618,1.657,1.381"/>
	<path fill="#FFFFFF" d="M6.151,21.523H6.01l0,0c-0.97,0-1.638,0.001-2.201-0.195c-1.062-0.37-1.887-1.225-2.24-2.301
		c-0.187-0.57-0.187-1.247-0.187-2.254l0,0v-0.137V3.269c0-1.398,1.648-2.231,2.734-1.238C4.193,2.1,4.3,2.1,4.376,2.031
		l0.461-0.422c0.886-0.811,2.228-0.811,3.114,0c0.339,0.31,0.842,0.31,1.181,0c0.886-0.811,2.228-0.811,3.114,0
		c0.339,0.31,0.842,0.31,1.181,0c0.886-0.811,2.228-0.811,3.114,0l0.461,0.422c0.076,0.069,0.183,0.069,0.259,0
		c1.086-0.993,2.734-0.16,2.734,1.238v7.84c-0.449-0.259-0.928-0.471-1.432-0.628V3.268c0-0.114-0.057-0.183-0.129-0.216
		C18.396,3.035,18.36,3.03,18.33,3.034c-0.027,0.004-0.062,0.015-0.102,0.053c-0.623,0.57-1.569,0.57-2.192,0l-0.461-0.422
		c-0.339-0.31-0.842-0.31-1.181,0c-0.886,0.811-2.228,0.811-3.114,0c-0.339-0.31-0.842-0.31-1.181,0
		c-0.886,0.811-2.228,0.811-3.114,0c-0.339-0.31-0.842-0.31-1.181,0L5.343,3.087c-0.623,0.57-1.569,0.57-2.192,0
		c-0.04-0.038-0.075-0.049-0.102-0.053c-0.03-0.004-0.067,0-0.104,0.018C2.874,3.085,2.816,3.154,2.816,3.268v13.367
		c0,1.195,0.009,1.621,0.115,1.944c0.218,0.665,0.722,1.177,1.351,1.396c0.303,0.105,0.705,0.115,1.87,0.115h3.855
		c0.227,0.512,0.514,0.992,0.851,1.432L6.151,21.523L6.151,21.523z M9.813,14.841c-0.164,0.457-0.283,0.937-0.349,1.431H9.258
		c-0.395,0-0.716-0.32-0.716-0.716c0-0.395,0.321-0.716,0.716-0.716L9.813,14.841L9.813,14.841z M12.328,11.501
		c-0.557,0.404-1.054,0.886-1.473,1.431H9.258c-0.395,0-0.716-0.32-0.716-0.716S8.863,11.5,9.258,11.5L12.328,11.501L12.328,11.501z
		 M5.917,16.273c-0.395,0-0.716-0.32-0.716-0.716c0-0.395,0.32-0.716,0.716-0.716h0.477c0.395,0,0.716,0.32,0.716,0.716
		c0,0.395-0.32,0.716-0.716,0.716H5.917z M5.917,12.932c-0.395,0-0.716-0.32-0.716-0.716S5.521,11.5,5.917,11.5h0.477
		c0.395,0,0.716,0.32,0.716,0.716s-0.32,0.716-0.716,0.716H5.917z M5.917,9.592c-0.395,0-0.716-0.321-0.716-0.716
		S5.521,8.16,5.917,8.16h0.477c0.395,0,0.716,0.32,0.716,0.716c0,0.395-0.32,0.716-0.716,0.716H5.917z M9.258,9.592
		c-0.395,0-0.716-0.321-0.716-0.716S8.863,8.16,9.258,8.16h6.204c0.395,0,0.716,0.32,0.716,0.716c0,0.395-0.321,0.716-0.716,0.716
		H9.258z"/>
	<circle fill="none" stroke="#FFFFFF" stroke-width="1.5" cx="17.227" cy="17.609" r="5.391"/>
</g>
</svg>
