<svg width="17" height="18" viewBox="0 0 17 18" fill="none" xmlns="http://www.w3.org/2000/svg">
<path d="M15.5804 11.1476L16.3016 10.7486L15.5044 9.3045L14.7832 9.7035C14.2302 10.0098 13.7403 10.4182 13.3394 10.9072L10.0403 9L13.3397 7.09275C13.7407 7.58176 14.2306 7.99023 14.7836 8.2965L15.5048 8.6955L16.302 7.25138L15.5808 6.85238C15.2912 6.69229 15.027 6.49009 14.7967 6.25238L16.7838 5.10188L15.9596 3.675L13.974 4.82175C13.8829 4.50305 13.8397 4.17255 13.8459 3.84113L13.8612 3.01613L12.2128 2.98537L12.1975 3.81038C12.1858 4.4423 12.2938 5.07073 12.5155 5.6625L9.21609 7.57088V3.75675C9.83951 3.65353 10.4377 3.43302 10.9791 3.10687L11.685 2.68125L10.8342 1.26788L10.1283 1.6935C9.84462 1.86426 9.53721 1.99202 9.21609 2.07262V0H7.56769V2.07262C7.24658 1.99202 6.93916 1.86426 6.65544 1.6935L5.94963 1.26788L5.09882 2.68125L5.80464 3.10687C6.34604 3.43302 6.94427 3.65353 7.56769 3.75675V7.57088L4.26825 5.6625C4.49072 5.07036 4.59915 4.4414 4.58782 3.80888L4.57246 2.98388L2.92405 3.01463L2.93941 3.83963C2.94555 4.17105 2.90237 4.50155 2.81128 4.82025L0.824204 3.675L0 5.10375L1.98745 6.25275C1.75717 6.49047 1.49292 6.69267 1.20334 6.85275L0.482159 7.25138L1.27939 8.6955L2.00057 8.2965C2.55355 7.99023 3.04349 7.58176 3.44442 7.09275L6.74348 9L3.44405 10.9072C3.04312 10.4182 2.55318 10.0098 2.00019 9.7035L1.27939 9.3045L0.482159 10.7486L1.20334 11.1476C1.49292 11.3077 1.75717 11.5099 1.98745 11.7476L0 12.9L0.824204 14.3288L2.81166 13.1801C2.90274 13.4988 2.94593 13.8293 2.93978 14.1608L2.92442 14.9858L4.57283 15.0165L4.58819 14.1915C4.59945 13.5588 4.49089 12.9297 4.26825 12.3375L7.56769 10.4291V14.2433C6.94427 14.3465 6.34604 14.567 5.80464 14.8931L5.09882 15.3188L5.94963 16.7321L6.65544 16.3065C6.93916 16.1357 7.24658 16.008 7.56769 15.9274V18H9.21609V15.9274C9.53721 16.008 9.84462 16.1357 10.1283 16.3065L10.8342 16.7321L11.685 15.3188L10.9791 14.8931C10.4377 14.567 9.83951 14.3465 9.21609 14.2433V10.4291L12.5155 12.3375C12.2931 12.9296 12.1846 13.5586 12.196 14.1911L12.2113 15.0161L13.8597 14.9854L13.8444 14.1604C13.8386 13.8284 13.8823 13.4974 13.974 13.1783L15.9596 14.3269L16.7838 12.9L14.7982 11.7491C15.0278 11.511 15.2914 11.3083 15.5804 11.1476Z" fill="black"/>
</svg>
