<svg width="18" height="24" viewBox="0 0 18 24" fill="none" xmlns="http://www.w3.org/2000/svg">
<mask id="path-1-inside-1_449_4038" fill="white">
<path d="M13.3374 15.3642C13.0979 15.3722 12.8744 15.452 12.6909 15.5797C12.4833 15.2126 12.1002 14.9572 11.6532 14.9412C11.3579 14.9252 11.0706 15.013 10.8392 15.1886C10.6237 14.8614 10.2565 14.6379 9.84145 14.6219C9.63393 14.614 9.42641 14.6539 9.24284 14.7337V12.3951C9.24284 11.7007 8.70808 11.126 8.02964 11.0941C7.67846 11.0781 7.34324 11.2058 7.08784 11.4453C6.84042 11.6847 6.68876 12.02 6.68876 12.3712V17.4794L5.46761 16.777C5.12441 16.5775 4.70934 16.5296 4.32623 16.6333C3.9511 16.7371 3.63982 16.9845 3.44828 17.3197C3.09709 17.9583 3.27269 18.7644 3.86332 19.1954C3.92717 19.2433 4.04689 19.347 4.11873 19.4109L5.15634 20.4086C5.31597 20.5602 5.45166 20.7358 5.5634 20.9274L6.1221 21.8772C6.88833 23.1942 8.30103 24.0003 9.81758 24.0003H9.91336L10.6077 23.9844C12.5073 23.9444 14.1755 22.6275 14.6544 20.7838C14.6624 20.7519 14.6703 20.7199 14.6703 20.68V16.6494C14.6703 16.3062 14.5267 15.963 14.2713 15.7235C14.0238 15.4681 13.6886 15.3484 13.3374 15.3643L13.3374 15.3642ZM13.8721 20.6161C13.4651 22.0847 12.1242 23.1382 10.5917 23.1702L9.89734 23.1861C8.62825 23.2101 7.44702 22.5556 6.8085 21.4621L6.24979 20.5123C6.09815 20.2569 5.91457 20.0254 5.70705 19.8259L4.66943 18.8282C4.58164 18.7404 4.43797 18.6127 4.3342 18.5409C4.07081 18.3493 3.991 17.9901 4.15063 17.7028C4.23045 17.5592 4.37411 17.4474 4.54173 17.3995C4.60558 17.3836 4.66943 17.3756 4.7253 17.3756C4.84502 17.3756 4.96474 17.4075 5.0685 17.4634L6.88833 18.517C7.00805 18.5888 7.16768 18.5888 7.28741 18.517C7.40714 18.4452 7.48695 18.3174 7.48695 18.1738V12.3632C7.48695 12.2275 7.54282 12.1078 7.6386 12.02C7.73437 11.9322 7.86208 11.8843 7.98978 11.8923C8.23721 11.9003 8.44473 12.1318 8.44473 12.3952V18.2376C8.44473 18.4611 8.62033 18.6367 8.84382 18.6367H8.89969C9.12317 18.6367 9.29876 18.4611 9.29876 18.2376V15.891C9.29876 15.7554 9.35464 15.6356 9.45041 15.5478C9.54619 15.4601 9.6739 15.4122 9.8016 15.4201C10.049 15.4281 10.2565 15.6596 10.2565 15.923V18.2376C10.2565 18.4611 10.4321 18.6367 10.6556 18.6367H10.7115C10.935 18.6367 11.1106 18.4611 11.1106 18.2376V16.2183C11.1106 16.0826 11.1665 15.9629 11.2622 15.8751C11.358 15.7873 11.4857 15.7394 11.6134 15.7474C11.8608 15.7554 12.0684 15.9868 12.0684 16.2502V18.2456C12.0684 18.4691 12.244 18.6447 12.4674 18.6447H12.5233C12.7468 18.6447 12.9224 18.4691 12.9224 18.2456V16.6812C12.9224 16.4178 13.1299 16.1943 13.3773 16.1784C13.513 16.1704 13.6328 16.2183 13.7285 16.3061C13.8243 16.3939 13.8802 16.5216 13.8802 16.6493V20.6161L13.8721 20.6161Z"/>
</mask>
<path d="M13.3374 15.3642C13.0979 15.3722 12.8744 15.452 12.6909 15.5797C12.4833 15.2126 12.1002 14.9572 11.6532 14.9412C11.3579 14.9252 11.0706 15.013 10.8392 15.1886C10.6237 14.8614 10.2565 14.6379 9.84145 14.6219C9.63393 14.614 9.42641 14.6539 9.24284 14.7337V12.3951C9.24284 11.7007 8.70808 11.126 8.02964 11.0941C7.67846 11.0781 7.34324 11.2058 7.08784 11.4453C6.84042 11.6847 6.68876 12.02 6.68876 12.3712V17.4794L5.46761 16.777C5.12441 16.5775 4.70934 16.5296 4.32623 16.6333C3.9511 16.7371 3.63982 16.9845 3.44828 17.3197C3.09709 17.9583 3.27269 18.7644 3.86332 19.1954C3.92717 19.2433 4.04689 19.347 4.11873 19.4109L5.15634 20.4086C5.31597 20.5602 5.45166 20.7358 5.5634 20.9274L6.1221 21.8772C6.88833 23.1942 8.30103 24.0003 9.81758 24.0003H9.91336L10.6077 23.9844C12.5073 23.9444 14.1755 22.6275 14.6544 20.7838C14.6624 20.7519 14.6703 20.7199 14.6703 20.68V16.6494C14.6703 16.3062 14.5267 15.963 14.2713 15.7235C14.0238 15.4681 13.6886 15.3484 13.3374 15.3643L13.3374 15.3642ZM13.8721 20.6161C13.4651 22.0847 12.1242 23.1382 10.5917 23.1702L9.89734 23.1861C8.62825 23.2101 7.44702 22.5556 6.8085 21.4621L6.24979 20.5123C6.09815 20.2569 5.91457 20.0254 5.70705 19.8259L4.66943 18.8282C4.58164 18.7404 4.43797 18.6127 4.3342 18.5409C4.07081 18.3493 3.991 17.9901 4.15063 17.7028C4.23045 17.5592 4.37411 17.4474 4.54173 17.3995C4.60558 17.3836 4.66943 17.3756 4.7253 17.3756C4.84502 17.3756 4.96474 17.4075 5.0685 17.4634L6.88833 18.517C7.00805 18.5888 7.16768 18.5888 7.28741 18.517C7.40714 18.4452 7.48695 18.3174 7.48695 18.1738V12.3632C7.48695 12.2275 7.54282 12.1078 7.6386 12.02C7.73437 11.9322 7.86208 11.8843 7.98978 11.8923C8.23721 11.9003 8.44473 12.1318 8.44473 12.3952V18.2376C8.44473 18.4611 8.62033 18.6367 8.84382 18.6367H8.89969C9.12317 18.6367 9.29876 18.4611 9.29876 18.2376V15.891C9.29876 15.7554 9.35464 15.6356 9.45041 15.5478C9.54619 15.4601 9.6739 15.4122 9.8016 15.4201C10.049 15.4281 10.2565 15.6596 10.2565 15.923V18.2376C10.2565 18.4611 10.4321 18.6367 10.6556 18.6367H10.7115C10.935 18.6367 11.1106 18.4611 11.1106 18.2376V16.2183C11.1106 16.0826 11.1665 15.9629 11.2622 15.8751C11.358 15.7873 11.4857 15.7394 11.6134 15.7474C11.8608 15.7554 12.0684 15.9868 12.0684 16.2502V18.2456C12.0684 18.4691 12.244 18.6447 12.4674 18.6447H12.5233C12.7468 18.6447 12.9224 18.4691 12.9224 18.2456V16.6812C12.9224 16.4178 13.1299 16.1943 13.3773 16.1784C13.513 16.1704 13.6328 16.2183 13.7285 16.3061C13.8243 16.3939 13.8802 16.5216 13.8802 16.6493V20.6161L13.8721 20.6161Z" fill="#C9C9CB"/>
<path d="M13.3374 15.3642L16.9523 13.6519L15.8283 11.279L13.2041 11.3665L13.3374 15.3642ZM12.6909 15.5797L9.20864 17.548L11.3698 21.3714L14.9751 18.8633L12.6909 15.5797ZM11.6532 14.9412L11.4373 18.9354L11.4739 18.9374L11.5105 18.9387L11.6532 14.9412ZM10.8392 15.1886L7.49845 17.3886L9.85021 20.9598L13.2568 18.3753L10.8392 15.1886ZM9.84145 14.6219L9.68771 18.619L9.68776 18.619L9.84145 14.6219ZM9.24284 14.7337H5.24284V20.8344L10.8377 18.402L9.24284 14.7337ZM8.02964 11.0941L8.21746 7.09852L8.21127 7.09824L8.02964 11.0941ZM7.08784 11.4453L4.35197 8.52725L4.3289 8.54888L4.30617 8.57088L7.08784 11.4453ZM6.68876 17.4794L4.69442 20.9467L10.6888 24.3945V17.4794H6.68876ZM5.46761 16.777L3.45711 20.235L3.46518 20.2397L3.47327 20.2444L5.46761 16.777ZM4.32623 16.6333L3.28062 12.7724L3.27023 12.7752L3.25986 12.7781L4.32623 16.6333ZM3.44828 17.3197L-0.02475 15.3353L-0.0408988 15.3635L-0.0565853 15.3921L3.44828 17.3197ZM3.86332 19.1954L6.26332 15.9954L6.24233 15.9796L6.22114 15.9642L3.86332 19.1954ZM4.11873 19.4109L6.89115 16.5275L6.83469 16.4732L6.77614 16.4212L4.11873 19.4109ZM5.15634 20.4086L2.38392 23.2919L2.39262 23.3003L2.40136 23.3086L5.15634 20.4086ZM5.5634 20.9274L2.10826 22.9428L2.11193 22.9491L2.11563 22.9554L5.5634 20.9274ZM6.1221 21.8772L9.5795 19.8656L9.57471 19.8574L9.56987 19.8492L6.1221 21.8772ZM9.91336 24.0003V28.0003H9.95933L10.0053 27.9993L9.91336 24.0003ZM10.6077 23.9844L10.5237 19.9852L10.5158 19.9854L10.6077 23.9844ZM14.6544 20.7838L18.5259 21.7893L18.5305 21.7717L18.5349 21.754L14.6544 20.7838ZM14.2713 15.7235L11.3983 18.5067L11.4652 18.5757L11.5353 18.6414L14.2713 15.7235ZM13.3374 15.3643L9.72246 17.0767L10.8613 19.481L13.519 19.3602L13.3374 15.3643ZM13.8721 20.6161L13.8622 16.6161L10.8279 16.6237L10.0175 19.5477L13.8721 20.6161ZM10.5917 23.1702L10.5083 19.171L10.4998 19.1712L10.5917 23.1702ZM9.89734 23.1861L9.9728 27.1854L9.98103 27.1853L9.98927 27.1851L9.89734 23.1861ZM6.8085 21.4621L10.2627 19.4451L10.2563 19.4341L6.8085 21.4621ZM6.24979 20.5123L9.69756 18.4843L9.69341 18.4772L9.68922 18.4702L6.24979 20.5123ZM5.70705 19.8259L2.93463 22.7092L2.93463 22.7092L5.70705 19.8259ZM4.66943 18.8282L1.84101 21.6566L1.86874 21.6844L1.89701 21.7115L4.66943 18.8282ZM4.3342 18.5409L1.98153 21.7758L2.01913 21.8032L2.05735 21.8296L4.3342 18.5409ZM4.15063 17.7028L7.64718 19.6456L7.64724 19.6454L4.15063 17.7028ZM4.54173 17.3995L3.57159 13.519L3.50697 13.5351L3.44293 13.5534L4.54173 17.3995ZM5.0685 17.4634L7.07267 14.0017L7.01921 13.9707L6.96483 13.9415L5.0685 17.4634ZM6.88833 18.517L8.94634 15.087L8.91954 15.071L8.8925 15.0553L6.88833 18.517ZM7.98978 11.8923L7.74021 15.8845L7.80047 15.8883L7.86081 15.8902L7.98978 11.8923ZM9.8016 15.4201L9.55203 19.4123L9.61229 19.4161L9.67263 19.4181L9.8016 15.4201ZM11.6134 15.7474L11.3638 19.7396L11.4241 19.7434L11.4844 19.7453L11.6134 15.7474ZM13.3773 16.1784L13.1424 12.1853L13.1312 12.1859L13.1199 12.1867L13.3773 16.1784ZM13.8802 20.6161L13.8901 24.6161L17.8802 24.6061V20.6161H13.8802ZM13.2041 11.3665C12.1571 11.4014 11.1925 11.7494 10.4066 12.2961L14.9751 18.8633C14.5564 19.1547 14.0387 19.3431 13.4706 19.362L13.2041 11.3665ZM16.1731 13.6115C15.3286 12.1174 13.7272 11.0127 11.796 10.9438L11.5105 18.9387C10.4732 18.9016 9.6381 18.3078 9.20864 17.548L16.1731 13.6115ZM11.8691 10.947C10.6398 10.8806 9.41684 11.2468 8.42149 12.002L13.2568 18.3753C12.7243 18.7793 12.076 18.9699 11.4373 18.9354L11.8691 10.947ZM14.1798 12.9887C13.2921 11.6407 11.7676 10.6931 9.99515 10.6249L9.68776 18.619C8.74544 18.5828 7.95517 18.0821 7.49845 17.3886L14.1798 12.9887ZM9.99519 10.6249C9.18691 10.5938 8.38179 10.7463 7.64798 11.0654L10.8377 18.402C10.471 18.5614 10.0809 18.6341 9.68771 18.619L9.99519 10.6249ZM13.2428 14.7337V12.3951H5.24284V14.7337H13.2428ZM13.2428 12.3951C13.2428 9.65171 11.1156 7.23475 8.21746 7.09852L7.84183 15.0897C6.30053 15.0172 5.24284 13.7497 5.24284 12.3951H13.2428ZM8.21127 7.09824C6.75388 7.03199 5.37387 7.56915 4.35197 8.52725L9.82371 14.3633C9.3126 14.8425 8.60303 15.1243 7.84801 15.09L8.21127 7.09824ZM4.30617 8.57088C3.32578 9.51964 2.68876 10.8743 2.68876 12.3712H10.6888C10.6888 13.1656 10.3551 13.8498 9.86952 14.3197L4.30617 8.57088ZM2.68876 12.3712V17.4794H10.6888V12.3712H2.68876ZM8.6831 14.012L7.46196 13.3096L3.47327 20.2444L4.69442 20.9467L8.6831 14.012ZM7.47812 13.319C6.16831 12.5575 4.64676 12.4024 3.28062 12.7724L5.37184 20.4942C4.77192 20.6567 4.08051 20.5975 3.45711 20.235L7.47812 13.319ZM3.25986 12.7781C1.83988 13.1709 0.676502 14.108 -0.02475 15.3353L6.92131 19.3042C6.60314 19.861 6.06231 20.3033 5.3926 20.4886L3.25986 12.7781ZM-0.0565853 15.3921C-1.37073 17.7814 -0.722281 20.801 1.5055 22.4266L6.22114 15.9642C7.26766 16.7278 7.56491 18.1351 6.95314 19.2474L-0.0565853 15.3921ZM1.46332 22.3954C1.44893 22.3846 1.43702 22.3755 1.42802 22.3685C1.41892 22.3615 1.41149 22.3556 1.40595 22.3512C1.39523 22.3427 1.38836 22.3371 1.38613 22.3353C1.38364 22.3333 1.38336 22.333 1.38551 22.3348C1.38756 22.3365 1.39092 22.3394 1.39557 22.3433C1.40513 22.3515 1.41682 22.3615 1.42946 22.3725C1.44204 22.3835 1.45319 22.3933 1.46131 22.4006L6.77614 16.4212C6.72067 16.3719 6.48081 16.1585 6.26332 15.9954L1.46332 22.3954ZM1.3463 22.2942L2.38392 23.2919L7.92877 17.5252L6.89115 16.5275L1.3463 22.2942ZM2.40136 23.3086C2.26356 23.1777 2.16995 23.0486 2.10826 22.9428L9.01854 18.9119C8.73338 18.4231 8.36839 17.9428 7.91132 17.5086L2.40136 23.3086ZM2.11563 22.9554L2.67434 23.9052L9.56987 19.8492L9.01116 18.8994L2.11563 22.9554ZM2.6647 23.8888C4.1511 26.4435 6.88454 28.0003 9.81758 28.0003V20.0003C9.71753 20.0003 9.62556 19.9448 9.5795 19.8656L2.6647 23.8888ZM9.81758 28.0003H9.91336V20.0003H9.81758V28.0003ZM10.0053 27.9993L10.6997 27.9833L10.5158 19.9854L9.82143 20.0014L10.0053 27.9993ZM10.6918 27.9835C14.3821 27.9059 17.597 25.3657 18.5259 21.7893L10.7828 19.7782C10.771 19.8239 10.7412 19.8767 10.6833 19.9225C10.6251 19.9685 10.5678 19.9843 10.5237 19.9852L10.6918 27.9835ZM18.5349 21.754C18.5399 21.7342 18.6703 21.2678 18.6703 20.68H10.6703C10.6703 20.172 10.7848 19.7695 10.7738 19.8136L18.5349 21.754ZM18.6703 20.68V16.6494H10.6703V20.68H18.6703ZM18.6703 16.6494C18.6703 15.2279 18.0888 13.8196 17.0073 12.8056L11.5353 18.6414C10.9646 18.1063 10.6703 17.3845 10.6703 16.6494H18.6703ZM17.1442 12.9403C16.0311 11.7913 14.5501 11.3051 13.1558 11.3684L13.519 19.3602C12.8271 19.3916 12.0166 19.1449 11.3983 18.5067L17.1442 12.9403ZM16.9524 13.652L16.9523 13.6519L9.72242 17.0766L9.72246 17.0767L16.9524 13.652ZM10.0175 19.5477C10.0514 19.4253 10.1197 19.3357 10.1926 19.2789C10.2665 19.2211 10.3753 19.1738 10.5083 19.1711L10.6751 27.1693C13.9886 27.1002 16.8518 24.8416 17.7268 21.6845L10.0175 19.5477ZM10.4998 19.1712L9.80541 19.1872L9.98927 27.1851L10.6837 27.1691L10.4998 19.1712ZM9.82189 19.1869C9.9799 19.1839 10.1597 19.2687 10.2627 19.4451L3.3543 23.4792C4.73434 25.8425 7.2766 27.2363 9.9728 27.1854L9.82189 19.1869ZM10.2563 19.4341L9.69756 18.4843L2.80203 22.5403L3.36073 23.4902L10.2563 19.4341ZM9.68922 18.4702C9.35677 17.9102 8.94992 17.3949 8.47947 16.9426L2.93463 22.7092C2.87921 22.656 2.83952 22.6036 2.81036 22.5544L9.68922 18.4702ZM8.47947 16.9426L7.44186 15.9449L1.89701 21.7115L2.93463 22.7092L8.47947 16.9426ZM7.49786 15.9998C7.31811 15.82 6.98558 15.5114 6.61106 15.2521L2.05735 21.8296C1.98902 21.7823 1.94337 21.7464 1.92572 21.7324C1.90491 21.7158 1.89249 21.7051 1.88811 21.7013C1.88313 21.697 1.87922 21.6935 1.87487 21.6895C1.87129 21.6861 1.85986 21.6755 1.84101 21.6566L7.49786 15.9998ZM6.68688 15.3059C8.06336 16.307 8.46626 18.1714 7.64718 19.6456L0.654085 15.7601C-0.484257 17.8089 0.0782661 20.3916 1.98153 21.7758L6.68688 15.3059ZM7.64724 19.6454C7.18147 20.4838 6.43124 21.0198 5.64052 21.2457L3.44293 13.5534C2.31699 13.8751 1.27943 14.6345 0.654018 15.7602L7.64724 19.6454ZM5.51187 21.2801C5.28948 21.3357 5.027 21.3756 4.7253 21.3756V13.3756C4.31186 13.3756 3.92168 13.4314 3.57159 13.519L5.51187 21.2801ZM4.7253 21.3756C4.14988 21.3756 3.62127 21.2271 3.17218 20.9853L6.96483 13.9415C6.30821 13.5879 5.54016 13.3756 4.7253 13.3756V21.3756ZM3.06434 20.9251L4.88417 21.9787L8.8925 15.0553L7.07267 14.0017L3.06434 20.9251ZM4.83032 21.9469C6.21682 22.7789 7.95894 22.7788 9.34533 21.947L5.22949 15.087C6.37642 14.3988 7.79928 14.3988 8.94634 15.087L4.83032 21.9469ZM9.34533 21.947C10.5617 21.2172 11.4869 19.8442 11.4869 18.1738H3.48695C3.48695 16.7907 4.25253 15.6731 5.22949 15.087L9.34533 21.947ZM11.4869 18.1738V12.3632H3.48695V18.1738H11.4869ZM11.4869 12.3632C11.4869 13.3892 11.042 14.3266 10.3415 14.9687L4.93571 9.0714C4.04368 9.88909 3.48695 11.0659 3.48695 12.3632H11.4869ZM10.3415 14.9687C9.68648 15.5691 8.76431 15.9485 7.74021 15.8845L8.23935 7.90012C6.95986 7.82013 5.78227 8.29539 4.93571 9.0714L10.3415 14.9687ZM7.86081 15.8902C5.6937 15.8203 4.44473 14.0243 4.44473 12.3952H12.4447C12.4447 10.2392 10.7807 7.98028 8.11876 7.8944L7.86081 15.8902ZM4.44473 12.3952V18.2376H12.4447V12.3952H4.44473ZM4.44473 18.2376C4.44473 20.6702 6.41117 22.6367 8.84382 22.6367V14.6367C10.8295 14.6367 12.4447 16.252 12.4447 18.2376H4.44473ZM8.84382 22.6367H8.89969V14.6367H8.84382V22.6367ZM8.89969 22.6367C11.3323 22.6367 13.2988 20.6703 13.2988 18.2376H5.29876C5.29876 16.2519 6.91408 14.6367 8.89969 14.6367V22.6367ZM13.2988 18.2376V15.891H5.29876V18.2376H13.2988ZM13.2988 15.891C13.2988 16.9171 12.8537 17.8544 12.1533 18.4965L6.74752 12.5992C5.85553 13.4169 5.29876 14.5937 5.29876 15.891H13.2988ZM12.1533 18.4965C11.4983 19.0969 10.5761 19.4764 9.55203 19.4123L10.0512 11.4279C8.77167 11.3479 7.59408 11.8232 6.74752 12.5992L12.1533 18.4965ZM9.67263 19.4181C7.50549 19.3482 6.25655 17.5521 6.25655 15.923H14.2565C14.2565 13.7671 12.5926 11.5081 9.93057 11.4222L9.67263 19.4181ZM6.25655 15.923V18.2376H14.2565V15.923H6.25655ZM6.25655 18.2376C6.25655 20.6702 8.22295 22.6367 10.6556 22.6367V14.6367C12.6413 14.6367 14.2565 16.252 14.2565 18.2376H6.25655ZM10.6556 22.6367H10.7115V14.6367H10.6556V22.6367ZM10.7115 22.6367C13.1441 22.6367 15.1106 20.6703 15.1106 18.2376H7.11058C7.11058 16.2519 8.72589 14.6367 10.7115 14.6367V22.6367ZM15.1106 18.2376V16.2183H7.11058V18.2376H15.1106ZM15.1106 16.2183C15.1106 17.2443 14.6656 18.1816 13.9651 18.8237L8.55934 12.9265C7.66731 13.7442 7.11058 14.921 7.11058 16.2183H15.1106ZM13.9651 18.8237C13.3101 19.4241 12.3879 19.8036 11.3638 19.7396L11.863 11.7552C10.5835 11.6752 9.4059 12.1505 8.55934 12.9265L13.9651 18.8237ZM11.4844 19.7453C9.31733 19.6754 8.06836 17.8794 8.06836 16.2502H16.0684C16.0684 14.0943 14.4044 11.8353 11.7424 11.7495L11.4844 19.7453ZM8.06836 16.2502V18.2456H16.0684V16.2502H8.06836ZM8.06836 18.2456C8.06836 20.6782 10.0347 22.6447 12.4674 22.6447V14.6447C14.4532 14.6447 16.0684 16.26 16.0684 18.2456H8.06836ZM12.4674 22.6447H12.5233V14.6447H12.4674V22.6447ZM12.5233 22.6447C14.9559 22.6447 16.9224 20.6783 16.9224 18.2456H8.92239C8.92239 16.2599 10.5377 14.6447 12.5233 14.6447V22.6447ZM16.9224 18.2456V16.6812H8.92239V18.2456H16.9224ZM16.9224 16.6812C16.9224 18.4258 15.5917 20.0439 13.6348 20.1701L13.1199 12.1867C10.6682 12.3448 8.92239 14.4098 8.92239 16.6812H16.9224ZM13.6122 20.1715C12.5807 20.2322 11.6609 19.8371 11.0256 19.2547L16.4314 13.3575C15.6046 12.5995 14.4453 12.1086 13.1424 12.1853L13.6122 20.1715ZM11.0256 19.2547C10.2977 18.5874 9.88018 17.6466 9.88018 16.6493H17.8802C17.8802 15.3966 17.3509 14.2003 16.4314 13.3575L11.0256 19.2547ZM9.88018 16.6493V20.6161H17.8802V16.6493H9.88018ZM13.8702 16.6161L13.8622 16.6161L13.8821 24.6161L13.8901 24.6161L13.8702 16.6161Z" fill="#C9C9CB" fill-opacity="0.92" mask="url(#path-1-inside-1_449_4038)"/>
<mask id="path-3-inside-2_449_4038" fill="white">
<path d="M0.39908 3.96684H3.56776C3.79124 3.96684 3.96684 3.79125 3.96684 3.56776V0.39908C3.96684 0.175598 3.79125 0 3.56776 0H0.39908C0.175597 0 0 0.17559 0 0.39908V3.56776C0 3.79124 0.17559 3.96684 0.39908 3.96684ZM0.79816 0.806188H3.16865V3.17667H0.79816V0.806188Z"/>
</mask>
<path d="M0.39908 3.96684H3.56776C3.79124 3.96684 3.96684 3.79125 3.96684 3.56776V0.39908C3.96684 0.175598 3.79125 0 3.56776 0H0.39908C0.175597 0 0 0.17559 0 0.39908V3.56776C0 3.79124 0.17559 3.96684 0.39908 3.96684ZM0.79816 0.806188H3.16865V3.17667H0.79816V0.806188Z" fill="#C9C9CB"/>
<path d="M0.79816 0.806188V-3.19381H-3.20184V0.806188H0.79816ZM3.16865 0.806188H7.16865V-3.19381H3.16865V0.806188ZM3.16865 3.17667V7.17667H7.16865V3.17667H3.16865ZM0.79816 3.17667H-3.20184V7.17667H0.79816V3.17667ZM0.39908 7.96684H3.56776V-0.0331625H0.39908V7.96684ZM3.56776 7.96684C6.00033 7.96684 7.96684 6.00043 7.96684 3.56776H-0.0331625C-0.0331625 1.58206 1.58215 -0.0331625 3.56776 -0.0331625V7.96684ZM7.96684 3.56776V0.39908H-0.0331625V3.56776H7.96684ZM7.96684 0.39908C7.96684 -2.0335 6.00043 -4 3.56776 -4V4C1.58207 4 -0.0331625 2.3847 -0.0331625 0.39908H7.96684ZM3.56776 -4H0.39908V4H3.56776V-4ZM0.39908 -4C-2.0335 -4 -4 -2.03359 -4 0.39908H4C4 2.38477 2.3847 4 0.39908 4V-4ZM-4 0.39908V3.56776H4V0.39908H-4ZM-4 3.56776C-4 6.00032 -2.03361 7.96684 0.39908 7.96684V-0.0331625C2.38479 -0.0331625 4 1.58216 4 3.56776H-4ZM0.79816 4.80619H3.16865V-3.19381H0.79816V4.80619ZM-0.831353 0.806188V3.17667H7.16865V0.806188H-0.831353ZM3.16865 -0.823325H0.79816V7.17667H3.16865V-0.823325ZM4.79816 3.17667V0.806188H-3.20184V3.17667H4.79816Z" fill="#C9C9CB" fill-opacity="0.92" mask="url(#path-3-inside-2_449_4038)"/>
<mask id="path-5-inside-3_449_4038" fill="white">
<path d="M7.39078 3.96684H10.5595C10.7829 3.96684 10.9585 3.79125 10.9585 3.56776V0.39908C10.9585 0.175598 10.7829 0 10.5595 0H7.39078C7.1673 0 6.9917 0.17559 6.9917 0.39908V3.56776C6.9917 3.79124 7.16729 3.96684 7.39078 3.96684ZM7.78986 0.806188H10.1603V3.17667H7.78986V0.806188Z"/>
</mask>
<path d="M7.39078 3.96684H10.5595C10.7829 3.96684 10.9585 3.79125 10.9585 3.56776V0.39908C10.9585 0.175598 10.7829 0 10.5595 0H7.39078C7.1673 0 6.9917 0.17559 6.9917 0.39908V3.56776C6.9917 3.79124 7.16729 3.96684 7.39078 3.96684ZM7.78986 0.806188H10.1603V3.17667H7.78986V0.806188Z" fill="#C9C9CB"/>
<path d="M7.78986 0.806188V-3.19381H3.78986V0.806188H7.78986ZM10.1603 0.806188H14.1603V-3.19381H10.1603V0.806188ZM10.1603 3.17667V7.17667H14.1603V3.17667H10.1603ZM7.78986 3.17667H3.78986V7.17667H7.78986V3.17667ZM7.39078 7.96684H10.5595V-0.0331625H7.39078V7.96684ZM10.5595 7.96684C12.992 7.96684 14.9585 6.00043 14.9585 3.56776H6.95854C6.95854 1.58206 8.57385 -0.0331625 10.5595 -0.0331625V7.96684ZM14.9585 3.56776V0.39908H6.95854V3.56776H14.9585ZM14.9585 0.39908C14.9585 -2.0335 12.9921 -4 10.5595 -4V4C8.57377 4 6.95854 2.3847 6.95854 0.39908H14.9585ZM10.5595 -4H7.39078V4H10.5595V-4ZM7.39078 -4C4.95821 -4 2.9917 -2.0336 2.9917 0.39908H10.9917C10.9917 2.38478 9.37638 4 7.39078 4V-4ZM2.9917 0.39908V3.56776H10.9917V0.39908H2.9917ZM2.9917 3.56776C2.9917 6.00033 4.9581 7.96684 7.39078 7.96684V-0.0331625C9.37648 -0.0331625 10.9917 1.58215 10.9917 3.56776H2.9917ZM7.78986 4.80619H10.1603V-3.19381H7.78986V4.80619ZM6.16035 0.806188V3.17667H14.1603V0.806188H6.16035ZM10.1603 -0.823325H7.78986V7.17667H10.1603V-0.823325ZM11.7899 3.17667V0.806188H3.78986V3.17667H11.7899Z" fill="#C9C9CB" fill-opacity="0.92" mask="url(#path-5-inside-3_449_4038)"/>
<mask id="path-7-inside-4_449_4038" fill="white">
<path d="M17.5436 0.0078125H14.3749C14.1514 0.0078125 13.9758 0.183402 13.9758 0.406892V3.57557C13.9758 3.79905 14.1514 3.97465 14.3749 3.97465H17.5436C17.7671 3.97465 17.9427 3.79906 17.9427 3.57557V0.406892C17.9427 0.18341 17.7671 0.0078125 17.5436 0.0078125ZM17.1445 3.16846H14.774V0.797975H17.1445V3.16846Z"/>
</mask>
<path d="M17.5436 0.0078125H14.3749C14.1514 0.0078125 13.9758 0.183402 13.9758 0.406892V3.57557C13.9758 3.79905 14.1514 3.97465 14.3749 3.97465H17.5436C17.7671 3.97465 17.9427 3.79906 17.9427 3.57557V0.406892C17.9427 0.18341 17.7671 0.0078125 17.5436 0.0078125ZM17.1445 3.16846H14.774V0.797975H17.1445V3.16846Z" fill="#C9C9CB"/>
<path d="M17.1445 3.16846V7.16846H21.1445V3.16846H17.1445ZM14.774 3.16846H10.774V7.16846H14.774V3.16846ZM14.774 0.797975V-3.20203H10.774V0.797975H14.774ZM17.1445 0.797975H21.1445V-3.20203H17.1445V0.797975ZM17.5436 -3.99219H14.3749V4.00781H17.5436V-3.99219ZM14.3749 -3.99219C11.9424 -3.99219 9.97583 -2.0258 9.97583 0.406892H17.9758C17.9758 2.3926 16.3605 4.00781 14.3749 4.00781V-3.99219ZM9.97583 0.406892V3.57557H17.9758V0.406892H9.97583ZM9.97583 3.57557C9.97583 6.00814 11.9422 7.97465 14.3749 7.97465V-0.02535C16.3606 -0.02535 17.9758 1.58996 17.9758 3.57557H9.97583ZM14.3749 7.97465H17.5436V-0.02535H14.3749V7.97465ZM17.5436 7.97465C19.9762 7.97465 21.9427 6.00825 21.9427 3.57557H13.9427C13.9427 1.58987 15.558 -0.02535 17.5436 -0.02535V7.97465ZM21.9427 3.57557V0.406892H13.9427V3.57557H21.9427ZM21.9427 0.406892C21.9427 -2.0257 19.9763 -3.99219 17.5436 -3.99219V4.00781C15.5579 4.00781 13.9427 2.39251 13.9427 0.406892H21.9427ZM17.1445 -0.831538H14.774V7.16846H17.1445V-0.831538ZM18.774 3.16846V0.797975H10.774V3.16846H18.774ZM14.774 4.79797H17.1445V-3.20203H14.774V4.79797ZM13.1445 0.797975V3.16846H21.1445V0.797975H13.1445Z" fill="#C9C9CB" fill-opacity="0.92" mask="url(#path-7-inside-4_449_4038)"/>
<mask id="path-9-inside-5_449_4038" fill="white">
<path d="M3.96684 9.76893V6.60025C3.96684 6.37677 3.79125 6.20117 3.56776 6.20117H0.399081C0.175598 6.20117 0 6.37676 0 6.60025V9.76893C0 9.99241 0.175591 10.168 0.399081 10.168H3.56776C3.78326 10.168 3.96684 9.98444 3.96684 9.76893ZM3.16865 9.36985H0.798161V6.99936H3.16865V9.36985Z"/>
</mask>
<path d="M3.96684 9.76893V6.60025C3.96684 6.37677 3.79125 6.20117 3.56776 6.20117H0.399081C0.175598 6.20117 0 6.37676 0 6.60025V9.76893C0 9.99241 0.175591 10.168 0.399081 10.168H3.56776C3.78326 10.168 3.96684 9.98444 3.96684 9.76893ZM3.16865 9.36985H0.798161V6.99936H3.16865V9.36985Z" fill="#C9C9CB"/>
<path d="M3.16865 9.36985V13.3698H7.16865V9.36985H3.16865ZM0.798161 9.36985H-3.20184V13.3698H0.798161V9.36985ZM0.798161 6.99936V2.99936H-3.20184V6.99936H0.798161ZM3.16865 6.99936H7.16865V2.99936H3.16865V6.99936ZM7.96684 9.76893V6.60025H-0.0331618V9.76893H7.96684ZM7.96684 6.60025C7.96684 4.16766 6.00042 2.20117 3.56776 2.20117V10.2012C1.58207 10.2012 -0.0331618 8.58587 -0.0331618 6.60025H7.96684ZM3.56776 2.20117H0.399081V10.2012H3.56776V2.20117ZM0.399081 2.20117C-2.03348 2.20117 -4 4.16756 -4 6.60025H4C4 8.58596 2.38468 10.2012 0.399081 10.2012V2.20117ZM-4 6.60025V9.76893H4V6.60025H-4ZM-4 9.76893C-4 12.2015 -2.03358 14.168 0.399081 14.168V6.16801C2.38476 6.16801 4 7.78331 4 9.76893H-4ZM0.399081 14.168H3.56776V6.16801H0.399081V14.168ZM3.56776 14.168C5.99233 14.168 7.96684 12.1936 7.96684 9.76893H-0.0331618C-0.0331618 7.77523 1.57418 6.16801 3.56776 6.16801V14.168ZM3.16865 5.36985H0.798161V13.3698H3.16865V5.36985ZM4.79816 9.36985V6.99936H-3.20184V9.36985H4.79816ZM0.798161 10.9994H3.16865V2.99936H0.798161V10.9994ZM-0.831353 6.99936V9.36985H7.16865V6.99936H-0.831353Z" fill="#C9C9CB" fill-opacity="0.92" mask="url(#path-9-inside-5_449_4038)"/>
<mask id="path-11-inside-6_449_4038" fill="white">
<path d="M7.39078 10.168H10.5595C10.7829 10.168 10.9585 9.99242 10.9585 9.76893V6.60025C10.9585 6.37677 10.7829 6.20117 10.5595 6.20117H7.39078C7.1673 6.20117 6.9917 6.37676 6.9917 6.60025V9.76893C6.9917 9.98443 7.16729 10.168 7.39078 10.168ZM7.78986 6.99933H10.1603V9.36982H7.78986V6.99933Z"/>
</mask>
<path d="M7.39078 10.168H10.5595C10.7829 10.168 10.9585 9.99242 10.9585 9.76893V6.60025C10.9585 6.37677 10.7829 6.20117 10.5595 6.20117H7.39078C7.1673 6.20117 6.9917 6.37676 6.9917 6.60025V9.76893C6.9917 9.98443 7.16729 10.168 7.39078 10.168ZM7.78986 6.99933H10.1603V9.36982H7.78986V6.99933Z" fill="#C9C9CB"/>
<path d="M7.78986 6.99933V2.99933H3.78986V6.99933H7.78986ZM10.1603 6.99933H14.1603V2.99933H10.1603V6.99933ZM10.1603 9.36982V13.3698H14.1603V9.36982H10.1603ZM7.78986 9.36982H3.78986V13.3698H7.78986V9.36982ZM7.39078 14.168H10.5595V6.16801H7.39078V14.168ZM10.5595 14.168C12.992 14.168 14.9585 12.2016 14.9585 9.76893H6.95854C6.95854 7.78322 8.57386 6.16801 10.5595 6.16801V14.168ZM14.9585 9.76893V6.60025H6.95854V9.76893H14.9585ZM14.9585 6.60025C14.9585 4.16768 12.9921 2.20117 10.5595 2.20117V10.2012C8.57376 10.2012 6.95854 8.58586 6.95854 6.60025H14.9585ZM10.5595 2.20117H7.39078V10.2012H10.5595V2.20117ZM7.39078 2.20117C4.95821 2.20117 2.9917 4.16758 2.9917 6.60025H10.9917C10.9917 8.58595 9.37639 10.2012 7.39078 10.2012V2.20117ZM2.9917 6.60025V9.76893H10.9917V6.60025H2.9917ZM2.9917 9.76893C2.9917 12.1413 4.90627 14.168 7.39078 14.168V6.16801C9.42831 6.16801 10.9917 7.82753 10.9917 9.76893H2.9917ZM7.78986 10.9993H10.1603V2.99933H7.78986V10.9993ZM6.16035 6.99933V9.36982H14.1603V6.99933H6.16035ZM10.1603 5.36982H7.78986V13.3698H10.1603V5.36982ZM11.7899 9.36982V6.99933H3.78986V9.36982H11.7899Z" fill="#C9C9CB" fill-opacity="0.92" mask="url(#path-11-inside-6_449_4038)"/>
<mask id="path-13-inside-7_449_4038" fill="white">
<path d="M17.5436 6.20117H14.3749C14.1514 6.20117 13.9758 6.37676 13.9758 6.60025V9.76893C13.9758 9.99241 14.1514 10.168 14.3749 10.168H17.5436C17.7671 10.168 17.9427 9.99242 17.9427 9.76893V6.60025C17.9427 6.37677 17.7671 6.20117 17.5436 6.20117ZM17.1445 9.36985H14.774V6.99936H17.1445V9.36985Z"/>
</mask>
<path d="M17.5436 6.20117H14.3749C14.1514 6.20117 13.9758 6.37676 13.9758 6.60025V9.76893C13.9758 9.99241 14.1514 10.168 14.3749 10.168H17.5436C17.7671 10.168 17.9427 9.99242 17.9427 9.76893V6.60025C17.9427 6.37677 17.7671 6.20117 17.5436 6.20117ZM17.1445 9.36985H14.774V6.99936H17.1445V9.36985Z" fill="#C9C9CB"/>
<path d="M17.1445 9.36985V13.3698H21.1445V9.36985H17.1445ZM14.774 9.36985H10.774V13.3698H14.774V9.36985ZM14.774 6.99936V2.99936H10.774V6.99936H14.774ZM17.1445 6.99936H21.1445V2.99936H17.1445V6.99936ZM17.5436 2.20117H14.3749V10.2012H17.5436V2.20117ZM14.3749 2.20117C11.9424 2.20117 9.97583 4.16756 9.97583 6.60025H17.9758C17.9758 8.58596 16.3605 10.2012 14.3749 10.2012V2.20117ZM9.97583 6.60025V9.76893H17.9758V6.60025H9.97583ZM9.97583 9.76893C9.97583 12.2015 11.9422 14.168 14.3749 14.168V6.16801C16.3606 6.16801 17.9758 7.78331 17.9758 9.76893H9.97583ZM14.3749 14.168H17.5436V6.16801H14.3749V14.168ZM17.5436 14.168C19.9761 14.168 21.9427 12.2016 21.9427 9.76893H13.9427C13.9427 7.78322 15.558 6.16801 17.5436 6.16801V14.168ZM21.9427 9.76893V6.60025H13.9427V9.76893H21.9427ZM21.9427 6.60025C21.9427 4.16766 19.9763 2.20117 17.5436 2.20117V10.2012C15.5579 10.2012 13.9427 8.58587 13.9427 6.60025H21.9427ZM17.1445 5.36985H14.774V13.3698H17.1445V5.36985ZM18.774 9.36985V6.99936H10.774V9.36985H18.774ZM14.774 10.9994H17.1445V2.99936H14.774V10.9994ZM13.1445 6.99936V9.36985H21.1445V6.99936H13.1445Z" fill="#C9C9CB" fill-opacity="0.92" mask="url(#path-13-inside-7_449_4038)"/>
</svg>
