<svg width="151" height="119" viewBox="0 0 151 119" fill="none" xmlns="http://www.w3.org/2000/svg">
<path d="M-2.29929e-09 34.1259C-1.02943e-09 32.5364 1.28857 31.2478 2.87809 31.2478C4.46762 31.2478 5.75618 32.5364 5.75618 34.1259L5.75618 104.845C5.75618 106.434 4.46762 107.723 2.87809 107.723C1.28857 107.723 -6.00662e-08 106.434 -5.87964e-08 104.845L-2.29929e-09 34.1259Z" fill="#423F42"/>
<path d="M23.0247 58.3842C23.0247 57.0217 24.1292 55.9172 25.4917 55.9172C26.8541 55.9172 27.9586 57.0217 27.9586 58.3842L27.9586 105.256C27.9586 106.618 26.8541 107.723 25.4917 107.723C24.1292 107.723 23.0247 106.618 23.0247 105.256L23.0247 58.3842Z" fill="#423F42"/>
<g filter="url(#filter0_d_406_2320)">
<path d="M22.8438 70.0116C22.8438 68.5129 24.0588 67.298 25.5575 67.298C27.0562 67.298 28.2711 68.5129 28.2711 70.0116L28.2711 105.832C28.2711 107.33 27.0562 108.545 25.5575 108.545C24.0588 108.545 22.8438 107.33 22.8438 105.832L22.8438 70.0116Z" fill="url(#paint0_linear_406_2320)" fill-opacity="0.8" shape-rendering="crispEdges"/>
</g>
<path d="M45.0956 2.71363C45.0956 1.21493 46.3105 -2.67472e-09 47.8092 -5.97415e-09C49.3079 -9.27358e-09 50.5228 1.21493 50.5228 2.71363L50.5228 105.289C50.5228 106.788 49.3079 108.002 47.8092 108.002C46.3105 108.002 45.0956 106.788 45.0956 105.289L45.0956 2.71363Z" fill="#423F42"/>
<g filter="url(#filter1_d_406_2320)">
<path d="M45.0956 70.0116C45.0956 68.5129 46.3105 67.298 47.8092 67.298C49.3079 67.298 50.5228 68.5129 50.5228 70.0116L50.5228 105.832C50.5228 107.33 49.3079 108.545 47.8092 108.545C46.3105 108.545 45.0956 107.33 45.0956 105.832L45.0956 70.0116Z" fill="url(#paint1_linear_406_2320)" fill-opacity="0.8" shape-rendering="crispEdges"/>
</g>
<path d="M66.6073 12.7459C66.6073 11.1564 67.8958 9.8678 69.4854 9.8678C71.0749 9.8678 72.3635 11.1564 72.3635 12.7459L72.3635 104.845C72.3635 106.434 71.0749 107.723 69.4854 107.723C67.8958 107.723 66.6073 106.434 66.6073 104.845L66.6073 12.7459Z" fill="#423F42"/>
<g filter="url(#filter2_d_406_2320)">
<path d="M66.8046 45.0463C66.8046 43.5476 68.0196 42.3326 69.5182 42.3326C71.0169 42.3326 72.2319 43.5476 72.2319 45.0463L72.2319 105.832C72.2319 107.33 71.0169 108.545 69.5182 108.545C68.0196 108.545 66.8046 107.33 66.8046 105.832L66.8046 45.0463Z" fill="url(#paint2_linear_406_2320)" fill-opacity="0.8" shape-rendering="crispEdges"/>
</g>
<path d="M88.8097 34.1259C88.8097 32.5364 90.0983 31.2478 91.6878 31.2478C93.2773 31.2478 94.5659 32.5364 94.5659 34.1259L94.5659 104.845C94.5659 106.434 93.2773 107.723 91.6878 107.723C90.0983 107.723 88.8097 106.434 88.8097 104.845L88.8097 34.1259Z" fill="#423F42"/>
<g filter="url(#filter3_d_406_2320)">
<path d="M89.0564 36.3627C89.0564 34.864 90.2713 33.649 91.77 33.649C93.2687 33.649 94.4836 34.864 94.4836 36.3627L94.4836 105.832C94.4836 107.33 93.2687 108.545 91.77 108.545C90.2713 108.545 89.0564 107.33 89.0564 105.832L89.0564 36.3627Z" fill="url(#paint3_linear_406_2320)" fill-opacity="0.8" shape-rendering="crispEdges"/>
</g>
<path d="M112.936 2.71363C112.936 1.21493 114.151 -2.70971e-09 115.65 -6.05232e-09C117.149 -9.39492e-09 118.364 1.21493 118.364 2.71363L118.364 105.289C118.364 106.788 117.149 108.002 115.65 108.002C114.151 108.002 112.936 106.788 112.936 105.289L112.936 2.71363Z" fill="#423F42"/>
<g filter="url(#filter4_d_406_2320)">
<path d="M112.936 53.7299C112.936 52.2312 114.151 51.0162 115.65 51.0162C117.149 51.0162 118.364 52.2312 118.364 53.7299L118.364 105.832C118.364 107.33 117.149 108.545 115.65 108.545C114.151 108.545 112.936 107.33 112.936 105.832L112.936 53.7299Z" fill="url(#paint4_linear_406_2320)" fill-opacity="0.8" shape-rendering="crispEdges"/>
</g>
<path d="M134.859 27.5474C134.859 25.9579 136.148 24.6693 137.737 24.6693C139.327 24.6693 140.615 25.9579 140.615 27.5474L140.615 104.845C140.615 106.434 139.327 107.723 137.737 107.723C136.148 107.723 134.859 106.434 134.859 104.845L134.859 27.5474Z" fill="#423F42"/>
<g filter="url(#filter5_d_406_2320)">
<path d="M135.125 44.7214C135.114 43.2227 136.321 41.9922 137.819 41.9729C139.318 41.9536 140.541 43.1529 140.552 44.6516L140.981 105.67C140.991 107.169 139.785 108.4 138.287 108.419C136.788 108.438 135.565 107.239 135.554 105.74L135.125 44.7214Z" fill="url(#paint5_linear_406_2320)" fill-opacity="0.8" shape-rendering="crispEdges"/>
</g>
<defs>
<filter id="filter0_d_406_2320" x="12.8438" y="57.298" width="25.4273" height="61.2472" filterUnits="userSpaceOnUse" color-interpolation-filters="sRGB">
<feFlood flood-opacity="0" result="BackgroundImageFix"/>
<feColorMatrix in="SourceAlpha" type="matrix" values="0 0 0 0 0 0 0 0 0 0 0 0 0 0 0 0 0 0 127 0" result="hardAlpha"/>
<feOffset/>
<feGaussianBlur stdDeviation="5"/>
<feComposite in2="hardAlpha" operator="out"/>
<feColorMatrix type="matrix" values="0 0 0 0 0 0 0 0 0 0 0 0 0 0 0 0 0 0 0.1 0"/>
<feBlend mode="normal" in2="BackgroundImageFix" result="effect1_dropShadow_406_2320"/>
<feBlend mode="normal" in="SourceGraphic" in2="effect1_dropShadow_406_2320" result="shape"/>
</filter>
<filter id="filter1_d_406_2320" x="35.0956" y="57.298" width="25.4273" height="61.2472" filterUnits="userSpaceOnUse" color-interpolation-filters="sRGB">
<feFlood flood-opacity="0" result="BackgroundImageFix"/>
<feColorMatrix in="SourceAlpha" type="matrix" values="0 0 0 0 0 0 0 0 0 0 0 0 0 0 0 0 0 0 127 0" result="hardAlpha"/>
<feOffset/>
<feGaussianBlur stdDeviation="5"/>
<feComposite in2="hardAlpha" operator="out"/>
<feColorMatrix type="matrix" values="0 0 0 0 0 0 0 0 0 0 0 0 0 0 0 0 0 0 0.1 0"/>
<feBlend mode="normal" in2="BackgroundImageFix" result="effect1_dropShadow_406_2320"/>
<feBlend mode="normal" in="SourceGraphic" in2="effect1_dropShadow_406_2320" result="shape"/>
</filter>
<filter id="filter2_d_406_2320" x="56.8046" y="32.3326" width="25.4273" height="86.2125" filterUnits="userSpaceOnUse" color-interpolation-filters="sRGB">
<feFlood flood-opacity="0" result="BackgroundImageFix"/>
<feColorMatrix in="SourceAlpha" type="matrix" values="0 0 0 0 0 0 0 0 0 0 0 0 0 0 0 0 0 0 127 0" result="hardAlpha"/>
<feOffset/>
<feGaussianBlur stdDeviation="5"/>
<feComposite in2="hardAlpha" operator="out"/>
<feColorMatrix type="matrix" values="0 0 0 0 0 0 0 0 0 0 0 0 0 0 0 0 0 0 0.1 0"/>
<feBlend mode="normal" in2="BackgroundImageFix" result="effect1_dropShadow_406_2320"/>
<feBlend mode="normal" in="SourceGraphic" in2="effect1_dropShadow_406_2320" result="shape"/>
</filter>
<filter id="filter3_d_406_2320" x="79.0564" y="23.649" width="25.4273" height="94.8962" filterUnits="userSpaceOnUse" color-interpolation-filters="sRGB">
<feFlood flood-opacity="0" result="BackgroundImageFix"/>
<feColorMatrix in="SourceAlpha" type="matrix" values="0 0 0 0 0 0 0 0 0 0 0 0 0 0 0 0 0 0 127 0" result="hardAlpha"/>
<feOffset/>
<feGaussianBlur stdDeviation="5"/>
<feComposite in2="hardAlpha" operator="out"/>
<feColorMatrix type="matrix" values="0 0 0 0 0 0 0 0 0 0 0 0 0 0 0 0 0 0 0.1 0"/>
<feBlend mode="normal" in2="BackgroundImageFix" result="effect1_dropShadow_406_2320"/>
<feBlend mode="normal" in="SourceGraphic" in2="effect1_dropShadow_406_2320" result="shape"/>
</filter>
<filter id="filter4_d_406_2320" x="102.936" y="41.0162" width="25.4273" height="77.5289" filterUnits="userSpaceOnUse" color-interpolation-filters="sRGB">
<feFlood flood-opacity="0" result="BackgroundImageFix"/>
<feColorMatrix in="SourceAlpha" type="matrix" values="0 0 0 0 0 0 0 0 0 0 0 0 0 0 0 0 0 0 127 0" result="hardAlpha"/>
<feOffset/>
<feGaussianBlur stdDeviation="5"/>
<feComposite in2="hardAlpha" operator="out"/>
<feColorMatrix type="matrix" values="0 0 0 0 0 0 0 0 0 0 0 0 0 0 0 0 0 0 0.1 0"/>
<feBlend mode="normal" in2="BackgroundImageFix" result="effect1_dropShadow_406_2320"/>
<feBlend mode="normal" in="SourceGraphic" in2="effect1_dropShadow_406_2320" result="shape"/>
</filter>
<filter id="filter5_d_406_2320" x="125.125" y="31.9727" width="25.8561" height="86.4464" filterUnits="userSpaceOnUse" color-interpolation-filters="sRGB">
<feFlood flood-opacity="0" result="BackgroundImageFix"/>
<feColorMatrix in="SourceAlpha" type="matrix" values="0 0 0 0 0 0 0 0 0 0 0 0 0 0 0 0 0 0 127 0" result="hardAlpha"/>
<feOffset/>
<feGaussianBlur stdDeviation="5"/>
<feComposite in2="hardAlpha" operator="out"/>
<feColorMatrix type="matrix" values="0 0 0 0 0 0 0 0 0 0 0 0 0 0 0 0 0 0 0.1 0"/>
<feBlend mode="normal" in2="BackgroundImageFix" result="effect1_dropShadow_406_2320"/>
<feBlend mode="normal" in="SourceGraphic" in2="effect1_dropShadow_406_2320" result="shape"/>
</filter>
<linearGradient id="paint0_linear_406_2320" x1="26.5234" y1="88.1488" x2="-11.467" y2="3.08073" gradientUnits="userSpaceOnUse">
<stop stop-color="#1B59F8"/>
<stop offset="1" stop-color="#1B59F8" stop-opacity="0"/>
</linearGradient>
<linearGradient id="paint1_linear_406_2320" x1="48.7752" y1="88.1488" x2="10.7848" y2="3.08073" gradientUnits="userSpaceOnUse">
<stop stop-color="#1B59F8"/>
<stop offset="1" stop-color="#1B59F8" stop-opacity="0"/>
</linearGradient>
<linearGradient id="paint2_linear_406_2320" x1="70.4842" y1="75.8036" x2="-7.07589" y2="-32.3857" gradientUnits="userSpaceOnUse">
<stop stop-color="#1B59F8"/>
<stop offset="1" stop-color="#1B59F8" stop-opacity="0"/>
</linearGradient>
<linearGradient id="paint3_linear_406_2320" x1="92.736" y1="71.5097" x2="2.09795" y2="-40.2634" gradientUnits="userSpaceOnUse">
<stop stop-color="#1B59F8"/>
<stop offset="1" stop-color="#1B59F8" stop-opacity="0"/>
</linearGradient>
<linearGradient id="paint4_linear_406_2320" x1="116.616" y1="80.0976" x2="52.7518" y2="-22.4339" gradientUnits="userSpaceOnUse">
<stop stop-color="#1B59F8"/>
<stop offset="1" stop-color="#1B59F8" stop-opacity="0"/>
</linearGradient>
<linearGradient id="paint5_linear_406_2320" x1="139.021" y1="75.5495" x2="60.1439" y2="-31.6114" gradientUnits="userSpaceOnUse">
<stop stop-color="#1B59F8"/>
<stop offset="1" stop-color="#1B59F8" stop-opacity="0"/>
</linearGradient>
</defs>
</svg>
