<svg width="24" height="17" viewBox="0 0 24 17" fill="none" xmlns="http://www.w3.org/2000/svg">
<path d="M0 1.194C0 0.534 0.5352 0 1.194 0H10.806C11.1227 9.43746e-09 11.4264 0.125796 11.6503 0.349714C11.8742 0.573633 12 0.877331 12 1.194C12 1.51067 11.8742 1.81437 11.6503 2.03829C11.4264 2.2622 11.1227 2.388 10.806 2.388H1.194C0.877331 2.388 0.573633 2.2622 0.349715 2.03829C0.125796 1.81437 0 1.51067 0 1.194ZM0 8.4C0 7.74 0.5352 7.206 1.194 7.206H22.806C23.1227 7.206 23.4264 7.3318 23.6503 7.55571C23.8742 7.77963 24 8.08333 24 8.4C24 8.71667 23.8742 9.02037 23.6503 9.24428C23.4264 9.4682 23.1227 9.594 22.806 9.594H1.194C0.877331 9.594 0.573633 9.4682 0.349715 9.24428C0.125796 9.02037 0 8.71667 0 8.4ZM1.194 14.412C0.877331 14.412 0.573633 14.5378 0.349715 14.7617C0.125796 14.9856 0 15.2893 0 15.606C0 15.9227 0.125796 16.2264 0.349715 16.4503C0.573633 16.6742 0.877331 16.8 1.194 16.8H15.606C15.9227 16.8 16.2264 16.6742 16.4503 16.4503C16.6742 16.2264 16.8 15.9227 16.8 15.606C16.8 15.2893 16.6742 14.9856 16.4503 14.7617C16.2264 14.5378 15.9227 14.412 15.606 14.412H1.194Z" fill="#B1B1B1"/>
</svg>
