<svg width="18" height="24" viewBox="0 0 18 24" fill="none" xmlns="http://www.w3.org/2000/svg">
<rect width="18" height="24" fill="#2C2C2C"/>
<g id="Profile">
<rect x="-39" y="-369" width="430" height="1128" rx="50" fill="#101014"/>
<g id="Group 1171281181">
<rect id="Rectangle 44" x="-22.5" y="-19.5" width="397" height="63" rx="4.5" stroke="#1E232A"/>
</g>
<g id="layer1">
<path id="path929" d="M8.80013 0C3.949 0 2.11676e-06 3.94901 0 8.80013C-3.02394e-06 17.336 8.30401 23.8253 8.30401 23.8253C8.44576 23.9384 8.62173 24 8.80308 24C8.98443 24 9.1604 23.9384 9.30215 23.8253C9.30215 23.8253 17.6062 17.336 17.6062 8.80013C17.6061 3.94901 13.6513 0 8.80013 0ZM8.80013 1.60056C12.7865 1.60056 16.0056 4.81379 16.0056 8.80013C16.0056 15.7832 9.68236 21.3003 8.80603 22.0476C7.93389 21.304 1.60056 15.7859 1.60056 8.80013C1.60056 4.81379 4.81379 1.60056 8.80013 1.60056Z" fill="#B0B4BA"/>
<path id="circle931" d="M8.79923 4.80078C6.59934 4.80078 4.80079 6.59934 4.80078 8.79923C4.80077 10.9991 6.59933 12.8036 8.79923 12.8036C10.9991 12.8036 12.8036 10.9991 12.8036 8.79923C12.8036 6.59934 10.9991 4.80078 8.79923 4.80078ZM8.79923 6.40134C10.1343 6.40134 11.203 7.46413 11.203 8.79923C11.203 10.1343 10.1343 11.203 8.79923 11.203C7.46412 11.203 6.40133 10.1343 6.40134 8.79923C6.40135 7.46413 7.46413 6.40134 8.79923 6.40134Z" fill="#B0B4BA"/>
</g>
</g>
</svg>
