<svg width="36" height="36" viewBox="0 0 36 36" fill="none" xmlns="http://www.w3.org/2000/svg">
<rect width="36" height="36" rx="18" fill="#4172F4"/>
<path d="M11 17.75C11 17.2688 11.1715 16.8566 11.5145 16.5136C11.8575 16.1706 12.2693 15.9994 12.75 16C13.2313 16 13.6434 16.1715 13.9864 16.5145C14.3294 16.8575 14.5006 17.2693 14.5 17.75C14.5 18.2313 14.3285 18.6434 13.9855 18.9864C13.6425 19.3294 13.2307 19.5006 12.75 19.5C12.2688 19.5 11.8566 19.3285 11.5136 18.9855C11.1706 18.6425 10.9994 18.2307 11 17.75ZM16.25 17.75C16.25 17.2688 16.4215 16.8566 16.7645 16.5136C17.1075 16.1706 17.5193 15.9994 18 16C18.4812 16 18.8934 16.1715 19.2364 16.5145C19.5794 16.8575 19.7506 17.2693 19.75 17.75C19.75 18.2313 19.5785 18.6434 19.2355 18.9864C18.8925 19.3294 18.4807 19.5006 18 19.5C17.5187 19.5 17.1066 19.3285 16.7636 18.9855C16.4206 18.6425 16.2494 18.2307 16.25 17.75ZM21.5 17.75C21.5 17.2688 21.6715 16.8566 22.0145 16.5136C22.3575 16.1706 22.7693 15.9994 23.25 16C23.7312 16 24.1434 16.1715 24.4864 16.5145C24.8294 16.8575 25.0006 17.2693 25 17.75C25 18.2313 24.8285 18.6434 24.4855 18.9864C24.1425 19.3294 23.7307 19.5006 23.25 19.5C22.7687 19.5 22.3566 19.3285 22.0136 18.9855C21.6706 18.6425 21.4994 18.2307 21.5 17.75Z" fill="black"/>
</svg>
