<svg width="14" height="4" viewBox="0 0 14 4" fill="none" xmlns="http://www.w3.org/2000/svg">
<path d="M8.77179e-07 1.75C8.98215e-07 1.26875 0.1715 0.856626 0.514501 0.513626C0.8575 0.170626 1.26933 -0.000582404 1.75 9.50105e-07C2.23125 9.71141e-07 2.64338 0.171501 2.98638 0.514501C3.32938 0.857501 3.50058 1.26933 3.5 1.75C3.5 2.23125 3.3285 2.64338 2.9855 2.98638C2.6425 3.32938 2.23067 3.50058 1.75 3.5C1.26875 3.5 0.856625 3.3285 0.513626 2.9855C0.170626 2.6425 -0.000581839 2.23067 8.77179e-07 1.75ZM5.25 1.75C5.25 1.26875 5.4215 0.856626 5.7645 0.513626C6.1075 0.170626 6.51933 -0.000582175 7 1.17959e-06C7.48125 1.20063e-06 7.89337 0.171501 8.23637 0.514501C8.57937 0.857501 8.75058 1.26933 8.75 1.75C8.75 2.23125 8.5785 2.64338 8.2355 2.98638C7.8925 3.32938 7.48067 3.50058 7 3.5C6.51875 3.5 6.10662 3.3285 5.76363 2.9855C5.42062 2.6425 5.24942 2.23067 5.25 1.75ZM10.5 1.75C10.5 1.26875 10.6715 0.856626 11.0145 0.513626C11.3575 0.170626 11.7693 -0.000581945 12.25 1.40907e-06C12.7312 1.43011e-06 13.1434 0.171502 13.4864 0.514502C13.8294 0.857501 14.0006 1.26933 14 1.75C14 2.23125 13.8285 2.64338 13.4855 2.98638C13.1425 3.32938 12.7307 3.50058 12.25 3.5C11.7687 3.5 11.3566 3.3285 11.0136 2.9855C10.6706 2.6425 10.4994 2.23067 10.5 1.75Z" fill="black"/>
</svg>
