<svg width="16" height="17" viewBox="0 0 16 17" fill="none" xmlns="http://www.w3.org/2000/svg">
<path d="M15.7461 2.2885L14.6458 3.14888C13.1455 1.23107 10.8121 0 8.19193 0C3.66761 0 0.00561579 3.65809 -0.000237149 8.18437C-0.00609009 12.7145 3.66371 16.3882 8.19193 16.3882C11.7291 16.3882 14.7433 14.1446 15.8905 11.0016C15.9198 10.9196 15.8768 10.8279 15.7949 10.8006L14.6887 10.4202C14.6501 10.407 14.6079 10.4094 14.5711 10.4269C14.5343 10.4444 14.5058 10.4756 14.4916 10.5138C14.4565 10.6114 14.4175 10.7089 14.3765 10.8045C14.039 11.6044 13.5552 12.3224 12.9387 12.9389C12.3271 13.5516 11.6031 14.0405 10.8062 14.3787C9.98098 14.728 9.10109 14.9055 8.19583 14.9055C7.28863 14.9055 6.41069 14.728 5.58542 14.3787C4.78781 14.0419 4.0635 13.5528 3.453 12.9389C2.83981 12.3274 2.35144 11.6025 2.01513 10.8045C1.6659 9.97732 1.48836 9.09937 1.48836 8.19217C1.48836 7.28496 1.6659 6.40702 2.01513 5.57981C2.35265 4.7799 2.83649 4.06194 3.453 3.44543C4.06951 2.82892 4.78747 2.34508 5.58542 2.00561C6.41069 1.65638 7.29058 1.47884 8.19583 1.47884C9.10304 1.47884 9.98098 1.65638 10.8062 2.00561C11.6039 2.34244 12.3282 2.83149 12.9387 3.44543C13.1318 3.63858 13.3133 3.84343 13.481 4.05804L12.3065 4.975C12.2833 4.99298 12.2656 5.01715 12.2555 5.04473C12.2454 5.07232 12.2433 5.1022 12.2494 5.13093C12.2555 5.15967 12.2696 5.1861 12.2901 5.20718C12.3105 5.22826 12.3365 5.24313 12.3651 5.25009L15.791 6.08901C15.8886 6.11242 15.9841 6.03829 15.9841 5.93879L15.9998 2.40946C15.9978 2.2807 15.8476 2.20851 15.7461 2.2885Z" fill="#C9C9CB"/>
</svg>
