<svg width="24" height="24" viewBox="0 0 24 24" fill="none" xmlns="http://www.w3.org/2000/svg">
<path d="M23.3334 11.3333C22.9651 11.3333 22.6667 11.6316 22.6667 12C22.6667 17.8814 17.8815 22.6666 12.0001 22.6666C6.11864 22.6666 1.3334 17.8814 1.3334 12C1.3334 6.11852 6.11864 1.33329 12.0001 1.33329C14.2633 1.33329 16.4175 2.03567 18.2177 3.33329H16.6665C16.2982 3.33329 15.9999 3.63165 15.9999 3.99995C15.9999 4.36826 16.2982 4.66662 16.6665 4.66662H19.9999C20.4722 4.66662 20.8127 4.1551 20.6239 3.72076L19.9868 0.536048C19.9145 0.175 19.561 -0.0588095 19.2026 0.0131905C18.8415 0.0855476 18.6074 0.436738 18.6797 0.797429L18.9662 2.22933C16.9463 0.782905 14.5337 0 12 0C5.38333 0 0 5.38333 0 12C0 18.6167 5.38333 24 12 24C18.6167 24 24 18.6167 24 12C24 11.6317 23.7016 11.3333 23.3333 11.3333L23.3334 11.3333Z" fill="#C9C9CB"/>
<path d="M6 6C4.89714 6 4 6.89714 4 8V16C4 17.1029 4.89714 18 6 18H18C19.1029 18 20 17.1029 20 16V8C20 6.89714 19.1029 6 18 6H6ZM18.6667 16C18.6667 16.3677 18.3677 16.6667 18 16.6667H6C5.63225 16.6667 5.33333 16.3677 5.33333 16V11.3333H18.6667V16ZM18.6667 8V8.66667H5.33333V8C5.33333 7.63225 5.63225 7.33333 6 7.33333H18C18.3677 7.33333 18.6667 7.63225 18.6667 8Z" fill="#C9C9CB"/>
</svg>
