<svg width="18" height="15" viewBox="0 0 18 15" fill="none" xmlns="http://www.w3.org/2000/svg">
<path fill-rule="evenodd" clip-rule="evenodd" d="M2.69592 11.4229C2.69592 12.7381 3.76632 13.8085 5.08232 13.8085H6.07112C6.40232 13.8085 6.67112 14.0773 6.67112 14.4085C6.67112 14.7397 6.40232 15.0085 6.07112 15.0085H5.08232C3.10472 15.0085 1.49592 13.3997 1.49592 11.4229L1.4952 8.7632L0.6 8.76392C0.2688 8.76392 0 8.49512 0 8.16392C0 7.83272 0.2688 7.56392 0.6 7.56392L2.08447 7.56299C2.08828 7.56292 2.09209 7.56288 2.09592 7.56288L2.1072 7.5632L15.8919 7.563C15.8959 7.56292 15.8999 7.56288 15.904 7.56288L15.9152 7.5632L17.4 7.56392C17.7312 7.56392 18 7.83272 18 8.16392C18 8.49512 17.7312 8.76392 17.4 8.76392L16.504 8.7632V11.4229C16.504 13.3997 14.8952 15.0085 12.9176 15.0085H11.9536C11.6224 15.0085 11.3536 14.7397 11.3536 14.4085C11.3536 14.0773 11.6224 13.8085 11.9536 13.8085H12.9176C14.2336 13.8085 15.304 12.7381 15.304 11.4229V8.7632H2.6952L2.69592 11.4229ZM12.9175 0C14.8951 0 16.5039 1.6088 16.5039 3.5848V4.796C16.5039 5.1272 16.2351 5.396 15.9039 5.396C15.5727 5.396 15.3039 5.1272 15.3039 4.796V3.5848C15.3039 2.2704 14.2335 1.2 12.9175 1.2H11.9535C11.6223 1.2 11.3535 0.9312 11.3535 0.6C11.3535 0.2688 11.6223 0 11.9535 0H12.9175ZM6.07128 0C6.40248 0 6.67128 0.2688 6.67128 0.6C6.67128 0.9312 6.40248 1.2 6.07128 1.2H5.08248C3.76648 1.2 2.69608 2.2704 2.69608 3.5848V4.796C2.69608 5.1272 2.42728 5.396 2.09608 5.396C1.76488 5.396 1.49608 5.1272 1.49608 4.796V3.5848C1.49608 1.6088 3.10488 0 5.08248 0H6.07128Z" fill="#C9C9CB"/>
</svg>
