<?xml version="1.0" encoding="utf-8"?>
<!-- Generator: Adobe Illustrator 17.0.0, SVG Export Plug-In . SVG Version: 6.00 Build 0)  -->
<!DOCTYPE svg PUBLIC "-//W3C//DTD SVG 1.1//EN" "http://www.w3.org/Graphics/SVG/1.1/DTD/svg11.dtd">
<svg version="1.1" id="Layer_1" xmlns="http://www.w3.org/2000/svg" xmlns:xlink="http://www.w3.org/1999/xlink" x="0px" y="0px"
	 width="16.875px" height="16.813px" viewBox="9.625 9.75 16.875 16.813" enable-background="new 9.625 9.75 16.875 16.813"
	 xml:space="preserve">
<path fill="#838383" d="M19.998,10.653c0.321,0,0.581,0.26,0.581,0.581c0,0.321-0.26,0.581-0.581,0.581h-5.634
	c-1.944,0-3.201,1.336-3.201,3.406v6.265c0,2.097,1.226,3.399,3.201,3.399h6.67c1.944,0,3.201-1.334,3.201-3.399v-5.457
	c0-0.321,0.26-0.581,0.581-0.581c0.321,0,0.581,0.26,0.581,0.581v5.457c0,2.729-1.753,4.562-4.364,4.562h-6.67
	c-2.61,0-4.364-1.833-4.364-4.562v-6.265c0-2.733,1.753-4.569,4.364-4.569H19.998z M21.638,15.947
	c0.254,0.197,0.301,0.562,0.104,0.815l-2.271,2.93c-0.095,0.123-0.234,0.202-0.388,0.221c-0.155,0.021-0.309-0.024-0.431-0.119
	l-2.184-1.716l-1.962,2.55c-0.115,0.149-0.287,0.227-0.461,0.227c-0.124,0-0.249-0.04-0.354-0.12
	c-0.254-0.196-0.302-0.561-0.106-0.816l2.32-3.016c0.095-0.123,0.235-0.203,0.388-0.222c0.157-0.02,0.31,0.023,0.432,0.12
	l2.186,1.717l1.912-2.468C21.019,15.796,21.384,15.749,21.638,15.947z M23.929,10C25.071,10,26,10.929,26,12.071
	c0,1.143-0.929,2.072-2.071,2.072c-1.142,0-2.071-0.93-2.071-2.072C21.857,10.929,22.787,10,23.929,10z M23.929,11.163
	c-0.501,0-0.909,0.407-0.909,0.909c0,0.501,0.408,0.909,0.909,0.909c0.501,0,0.909-0.408,0.909-0.909
	C24.837,11.57,24.429,11.163,23.929,11.163z"/>
</svg>
