<svg width="24" height="25" viewBox="0 0 24 25" fill="none" xmlns="http://www.w3.org/2000/svg">
<path fill-rule="evenodd" clip-rule="evenodd" d="M14.9969 0.979215C15.4784 0.979215 15.8691 1.36992 15.8691 1.85133C15.8691 2.33274 15.4784 2.72345 14.9969 2.72345H6.54554C3.62918 2.72345 1.74424 4.72816 1.74424 7.8329V17.2309C1.74424 20.3763 3.58383 22.3298 6.54554 22.3298H16.5505C19.4668 22.3298 21.3518 20.3286 21.3518 17.2309V9.04573C21.3518 8.56432 21.7425 8.17361 22.2239 8.17361C22.7053 8.17361 23.096 8.56432 23.096 9.04573V17.2309C23.096 21.324 20.4657 24.0741 16.5505 24.0741H6.54554C2.63031 24.0741 0 21.324 0 17.2309V7.8329C0 3.73395 2.63031 0.979215 6.54554 0.979215H14.9969ZM17.4568 8.92107C17.8382 9.21643 17.908 9.76412 17.6126 10.1444L14.2055 14.5398C14.0637 14.7236 13.8544 14.8433 13.6241 14.8712C13.3916 14.9026 13.1613 14.8352 12.9776 14.6922L9.70075 12.1177L6.75764 15.9422C6.58554 16.1655 6.32739 16.2829 6.06576 16.2829C5.87971 16.2829 5.69249 16.2236 5.53435 16.1027C5.15294 15.8085 5.08085 15.2608 5.37504 14.8794L8.85538 10.356C8.99724 10.1711 9.20771 10.0513 9.43795 10.0223C9.67284 9.99204 9.90308 10.0572 10.0856 10.2025L13.3648 12.7782L16.2335 9.07689C16.5289 8.69432 17.0754 8.62339 17.4568 8.92107ZM20.8929 0C22.6069 0 24 1.39306 24 3.10707C24 4.82107 22.6069 6.2153 20.8929 6.2153C19.1801 6.2153 17.7859 4.82107 17.7859 3.10707C17.7859 1.39306 19.1801 0 20.8929 0ZM20.8929 1.74424C20.1418 1.74424 19.5301 2.35472 19.5301 3.10707C19.5301 3.85825 20.1418 4.47106 20.8929 4.47106C21.6441 4.47106 22.2558 3.85825 22.2558 3.10707C22.2558 2.35472 21.6441 1.74424 20.8929 1.74424Z" fill="white"/>
</svg>
