<svg width="36" height="36" viewBox="0 0 36 36" fill="none" xmlns="http://www.w3.org/2000/svg">
<rect width="36" height="36" rx="18" fill="#4172F4"/>
<path fill-rule="evenodd" clip-rule="evenodd" d="M19.998 10.6528C20.3189 10.6528 20.5794 10.9133 20.5794 11.2342C20.5794 11.5552 20.3189 11.8156 19.998 11.8156H14.3637C12.4195 11.8156 11.1628 13.1521 11.1628 15.2219V21.4872C11.1628 23.5842 12.3892 24.8866 14.3637 24.8866H21.0337C22.9779 24.8866 24.2345 23.5524 24.2345 21.4872V16.0305C24.2345 15.7095 24.495 15.4491 24.8159 15.4491C25.1369 15.4491 25.3973 15.7095 25.3973 16.0305V21.4872C25.3973 24.216 23.6438 26.0494 21.0337 26.0494H14.3637C11.7535 26.0494 10 24.216 10 21.4872V15.2219C10 12.4893 11.7535 10.6528 14.3637 10.6528H19.998ZM21.6379 15.9474C21.8921 16.1443 21.9386 16.5094 21.7417 16.7629L19.4704 19.6932C19.3758 19.8157 19.2362 19.8956 19.0827 19.9142C18.9277 19.9351 18.7742 19.8901 18.6517 19.7948L16.4672 18.0785L14.5051 20.6281C14.3904 20.777 14.2183 20.8553 14.0438 20.8553C13.9198 20.8553 13.795 20.8157 13.6896 20.7351C13.4353 20.539 13.3872 20.1739 13.5834 19.9196L15.9036 16.904C15.9982 16.7807 16.1385 16.7009 16.292 16.6815C16.4486 16.6614 16.6021 16.7048 16.7238 16.8017L18.9099 18.5188L20.8223 16.0513C21.0192 15.7962 21.3836 15.7489 21.6379 15.9474ZM23.9286 10C25.0713 10 26 10.9287 26 12.0714C26 13.214 25.0713 14.1435 23.9286 14.1435C22.7867 14.1435 21.8572 13.214 21.8572 12.0714C21.8572 10.9287 22.7867 10 23.9286 10ZM23.9286 11.1628C23.4278 11.1628 23.0201 11.5698 23.0201 12.0714C23.0201 12.5722 23.4278 12.9807 23.9286 12.9807C24.4294 12.9807 24.8372 12.5722 24.8372 12.0714C24.8372 11.5698 24.4294 11.1628 23.9286 11.1628Z" fill="black"/>
</svg>
