<svg width="24" height="16" viewBox="0 0 24 16" fill="none" xmlns="http://www.w3.org/2000/svg">
<g id="Group">
<path id="Vector" d="M23.0561 0H0.943909C0.421923 0.00169289 0.00173353 0.421721 0 0.943909V14.1573C0.00169289 14.6795 0.421909 15.0995 0.943909 15.1012H23.0561C23.5781 15.0995 23.9983 14.6795 24 14.1573V0.943909C23.9985 0.42173 23.5783 0.00173353 23.0563 0H23.0561ZM23.1509 14.2521C23.1246 14.2776 23.0928 14.2919 23.0561 14.2919H0.943909C0.90723 14.2919 0.875439 14.2776 0.848916 14.2521C0.823523 14.2255 0.809227 14.1937 0.809227 14.1571V0.943683C0.809227 0.906815 0.823523 0.875213 0.849105 0.84869C0.875439 0.823108 0.907226 0.808813 0.94391 0.808813H23.0561C23.0928 0.808813 23.1246 0.823109 23.1511 0.84869C23.177 0.875024 23.191 0.906624 23.191 0.943683V14.1571C23.191 14.1937 23.1767 14.2255 23.1511 14.2521H23.1509Z" fill="#C9C9CB"/>
<path id="Vector_2" d="M14.9662 2.15918C14.7429 2.15918 14.5618 2.34032 14.5618 2.56359L14.5623 12.541C14.5623 12.7643 14.7435 12.9455 14.9667 12.9455C15.19 12.9455 15.3712 12.7643 15.3712 12.541L15.3706 2.56359C15.3706 2.34032 15.1895 2.15918 14.9662 2.15918Z" fill="#C9C9CB"/>
<path id="Vector_3" d="M13.1044 6.28855C12.9881 6.09744 12.7393 6.03669 12.5483 6.15312L11.4355 6.83045L11.4354 5.52746C11.4354 5.30419 11.2542 5.12305 11.0309 5.12305C10.8077 5.12305 10.6265 5.30419 10.6265 5.52746V6.83045L9.51375 6.15312C9.32302 6.03669 9.07416 6.09725 8.95791 6.28855C8.84166 6.47929 8.90242 6.72814 9.09334 6.84439L10.253 7.54994L9.09315 8.25568C8.90223 8.37155 8.84147 8.62078 8.95772 8.81152C9.07397 9.00244 9.32282 9.0632 9.51356 8.94695L10.6263 8.26962V9.57242C10.6263 9.7957 10.8075 9.97683 11.0308 9.97683C11.254 9.97683 11.4352 9.7957 11.4352 9.57242V8.26943L12.548 8.94676C12.7389 9.06301 12.9877 9.00225 13.104 8.81133C13.2202 8.6206 13.1595 8.37155 12.9686 8.25549L11.8091 7.54994L12.9689 6.8442C13.1599 6.72795 13.2202 6.4791 13.1044 6.28855Z" fill="#C9C9CB"/>
<path id="Vector_4" d="M7.44115 6.28855C7.32491 6.09744 7.07605 6.03669 6.88512 6.15312L5.77234 6.83045L5.77215 5.52746C5.77215 5.30419 5.59101 5.12305 5.36774 5.12305C5.14446 5.12305 4.96332 5.30419 4.96332 5.52746V6.83045L3.85054 6.15312C3.65981 6.03669 3.41095 6.09725 3.2947 6.28855C3.17845 6.47929 3.23921 6.72814 3.43013 6.84439L4.58977 7.54994L3.42994 8.25568C3.23902 8.37155 3.17826 8.62078 3.29451 8.81152C3.41076 9.00244 3.65961 9.0632 3.85035 8.94695L4.96313 8.26962L4.96332 9.57242C4.96332 9.7957 5.14446 9.97683 5.36773 9.97683C5.59101 9.97683 5.77215 9.7957 5.77215 9.57242V8.26943L6.88493 8.94676C7.07585 9.06301 7.32471 9.00225 7.44096 8.81133C7.55721 8.6206 7.49645 8.37155 7.30553 8.25549L6.14589 7.54994L7.30572 6.8442C7.49664 6.72795 7.55703 6.4791 7.44115 6.28855Z" fill="#C9C9CB"/>
</g>
</svg>
