<svg width="20" height="24" viewBox="0 0 20 24" fill="none" xmlns="http://www.w3.org/2000/svg">
<path fill-rule="evenodd" clip-rule="evenodd" d="M10.0014 0C11.3373 0 18.3465 2.40637 19.2744 3.33425C20.0478 4.10768 20.036 4.73256 19.9818 7.72725C19.9606 8.92749 19.9311 10.5628 19.9311 12.8265C19.9311 20.9405 10.6523 23.8432 10.2573 23.9623C10.1736 23.9882 10.0875 24 10.0014 24C9.91537 24 9.82931 23.9882 9.7456 23.9623C9.35063 23.8432 0.0717909 20.9405 0.0717909 12.8265C0.0717909 10.5663 0.0423155 8.93103 0.0210933 7.73079C0.0114085 7.19539 0.00307724 6.73568 0.000335679 6.33728L0 5.88772C0.0101137 4.41084 0.148722 3.91432 0.72968 3.33425C1.65521 2.40637 8.66444 0 10.0014 0ZM10.0014 1.76852C9.00164 1.76852 2.69392 3.98978 1.96647 4.59697C1.75189 4.81273 1.74363 5.18766 1.78961 7.69778C1.81084 8.90745 1.84031 10.551 1.84031 12.8265C1.84031 18.9585 8.58663 21.6809 10.0003 22.182C11.4127 21.6785 18.1626 18.9409 18.1626 12.8265C18.1626 10.5486 18.192 8.90391 18.2145 7.69424C18.2593 5.18648 18.251 4.81155 18.0234 4.58518C17.3101 3.98978 11.0012 1.76852 10.0014 1.76852ZM14.3891 8.65337C14.7346 8.99882 14.7346 9.55885 14.3891 9.9043L9.79335 14.5013C9.6613 14.6343 9.49076 14.7205 9.30771 14.7496L9.16847 14.7607C8.93385 14.7607 8.70865 14.6675 8.54241 14.5013L6.31172 12.2682C5.96745 11.9228 5.96745 11.3616 6.3129 11.0173C6.65717 10.6718 7.21838 10.6718 7.56383 11.0173L9.16847 12.6243L13.1394 8.65337C13.4848 8.30792 14.0437 8.30792 14.3891 8.65337Z" fill="#C9C9CB"/>
</svg>
