<svg width="36" height="36" viewBox="0 0 36 36" fill="none" xmlns="http://www.w3.org/2000/svg">
<rect width="36" height="36" rx="18" fill="#303738"/>
<path d="M12.954 24.0908L12.954 24.0914C12.8772 24.5541 13.0546 25.0021 13.4011 25.2698C13.6033 25.425 13.8328 25.4996 14.0591 25.4996C14.2319 25.4996 14.4077 25.4563 14.5743 25.3649L14.575 25.3645L17.5724 23.7265L17.5728 23.7263C17.8393 23.5809 18.16 23.5809 18.4266 23.7263L18.4268 23.7265L21.4242 25.3636L21.4253 25.3642C21.8068 25.5739 22.2495 25.5394 22.5978 25.2702L22.5987 25.2695C22.9452 25.0029 23.1232 24.5553 23.0469 24.0909L12.954 24.0908ZM12.954 24.0908L13.5251 20.6232M12.954 24.0908L23.0469 24.0907L22.4752 20.6229C22.4751 20.6226 22.4751 20.6224 22.475 20.6221C22.475 20.6221 22.475 20.6221 22.475 20.6221C22.428 20.3379 22.5186 20.0463 22.722 19.8397L22.7226 19.8391L25.148 17.383L25.1486 17.3824C25.4625 17.0655 25.5803 16.5919 25.444 16.1454L25.4439 16.145C25.3067 15.6942 24.953 15.3913 24.5326 15.3281L24.5319 15.3279L21.1796 14.8189C21.1792 14.8188 21.1788 14.8187 21.1783 14.8187C20.879 14.774 20.6298 14.5804 20.5044 14.3148C20.5043 14.3146 20.5042 14.3143 20.5041 14.3141L19.0049 11.1581C18.8074 10.7423 18.4202 10.5 18.0001 10.5C17.58 10.5 17.1929 10.7423 16.9953 11.1579C16.9953 11.158 16.9953 11.158 16.9953 11.1581L15.4967 14.3154C15.3708 14.5833 15.1188 14.7746 14.8216 14.8187C14.8211 14.8188 14.8206 14.8188 14.8201 14.8189L11.4683 15.3279L11.4675 15.3281C11.0472 15.3913 10.6935 15.6942 10.5562 16.145L10.5561 16.1454C10.4197 16.5924 10.5372 17.0659 10.8507 17.3824L10.8513 17.383L13.2768 19.8391L13.2773 19.8397C13.4797 20.0453 13.5725 20.3366 13.5251 20.6232M13.5251 20.6232L13.0318 20.5416M13.5251 20.6232L13.5251 20.6228L13.0318 20.5416M13.0318 20.5416C13.0531 20.4127 13.0113 20.2821 12.921 20.1905L13.0318 20.5416Z" fill="#3D6AFD" stroke="#3D6AFD"/>
</svg>
