<svg width="36" height="36" viewBox="0 0 36 36" fill="none" xmlns="http://www.w3.org/2000/svg">
<rect width="36" height="36" rx="18" fill="#0484FF"/>
<path fill-rule="evenodd" clip-rule="evenodd" d="M13.92 10C13.4108 10 12.9224 10.2529 12.5624 10.7029C12.2023 11.153 12 11.7635 12 12.4V23.6C12 24.2365 12.2023 24.847 12.5624 25.2971C12.9224 25.7471 13.4108 26 13.92 26H19.68V22C19.68 21.3635 19.8823 20.753 20.2424 20.3029C20.6024 19.8529 21.0908 19.6 21.6 19.6H24.8V12.4C24.8 11.7635 24.5977 11.153 24.2376 10.7029C23.8776 10.2529 23.3892 10 22.88 10H13.92ZM21.7875 25.2968C21.5575 25.5844 21.2727 25.7941 20.96 25.9064V22C20.96 21.7878 21.0274 21.5843 21.1475 21.4343C21.2675 21.2843 21.4303 21.2 21.6 21.2H24.7251C24.6353 21.5909 24.4675 21.9468 24.2374 22.2344L21.7875 25.2968ZM15.2 13.2C15.0303 13.2 14.8675 13.2843 14.7475 13.4343C14.6274 13.5843 14.56 13.7878 14.56 14C14.56 14.2122 14.6274 14.4157 14.7475 14.5657C14.8675 14.7157 15.0303 14.8 15.2 14.8H21.6C21.7697 14.8 21.9325 14.7157 22.0525 14.5657C22.1726 14.4157 22.24 14.2122 22.24 14C22.24 13.7878 22.1726 13.5843 22.0525 13.4343C21.9325 13.2843 21.7697 13.2 21.6 13.2H15.2ZM15.2 16.4C15.0303 16.4 14.8675 16.4843 14.7475 16.6343C14.6274 16.7843 14.56 16.9878 14.56 17.2C14.56 17.4122 14.6274 17.6157 14.7475 17.7657C14.8675 17.9157 15.0303 18 15.2 18H21.6C21.7697 18 21.9325 17.9157 22.0525 17.7657C22.1726 17.6157 22.24 17.4122 22.24 17.2C22.24 16.9878 22.1726 16.7843 22.0525 16.6343C21.9325 16.4843 21.7697 16.4 21.6 16.4H15.2ZM15.2 19.6C15.0303 19.6 14.8675 19.6843 14.7475 19.8343C14.6274 19.9843 14.56 20.1878 14.56 20.4C14.56 20.6122 14.6274 20.8157 14.7475 20.9657C14.8675 21.1157 15.0303 21.2 15.2 21.2H17.76C17.9297 21.2 18.0925 21.1157 18.2125 20.9657C18.3326 20.8157 18.4 20.6122 18.4 20.4C18.4 20.1878 18.3326 19.9843 18.2125 19.8343C18.0925 19.6843 17.9297 19.6 17.76 19.6H15.2Z" fill="black"/>
</svg>
