<svg width="24" height="20" viewBox="0 0 24 20" fill="none" xmlns="http://www.w3.org/2000/svg">
<path fill-rule="evenodd" clip-rule="evenodd" d="M19.4802 0C21.9717 0 23.9989 2.00707 23.9989 4.47293L24 7.36856C24 7.58958 23.9118 7.80391 23.7544 7.96019C23.5981 8.11758 23.3849 8.20577 23.1628 8.20577C22.2843 8.20577 21.5699 8.90679 21.5699 9.76856C21.5699 10.6303 22.2843 11.3313 23.1628 11.3313C23.6249 11.3313 24 11.7064 24 12.1686V15.062C24 17.5278 21.9728 19.5349 19.4813 19.5349H4.5187C2.02716 19.5349 0 17.5278 0 15.062V12.1686C0 11.7064 0.37507 11.3313 0.837209 11.3313C1.71572 11.3313 2.43014 10.6303 2.43014 9.76856C2.43014 8.93135 1.74474 8.29953 0.837209 8.29953C0.61507 8.29953 0.40186 8.21135 0.245581 8.05395C0.088186 7.89767 0 7.68335 0 7.46233L0.00111628 4.47293C0.00111628 2.00707 2.02828 0 4.51981 0H19.4802ZM19.4802 1.67442H14.9012L14.9019 3.81901C14.9019 4.28115 14.5268 4.65622 14.0647 4.65622C13.6025 4.65622 13.2275 4.28115 13.2275 3.81901L13.2268 1.67442H4.51981C2.95144 1.67442 1.67553 2.93023 1.67553 4.47293L1.67442 6.72558C3.08874 7.07274 4.10456 8.28502 4.10456 9.76856C4.10456 11.2666 3.07088 12.5302 1.67442 12.8975V15.062C1.67442 16.6047 2.95033 17.8605 4.5187 17.8605H13.2268L13.2275 16.1989C13.2275 15.7356 13.6025 15.3617 14.0647 15.3617C14.5268 15.3617 14.9019 15.7356 14.9019 16.1989L14.9012 17.8605H19.4813C21.0497 17.8605 22.3256 16.6047 22.3256 15.062V12.8975C20.9291 12.5302 19.8954 11.2666 19.8954 9.76856C19.8954 8.26939 20.928 7.00688 22.3256 6.63963L22.3245 4.47293C22.3245 2.93023 21.0486 1.67442 19.4802 1.67442ZM14.0647 6.14456C14.5268 6.14456 14.9019 6.51963 14.9019 6.98177V12.3633C14.9019 12.8255 14.5268 13.2006 14.0647 13.2006C13.6025 13.2006 13.2275 12.8255 13.2275 12.3633V6.98177C13.2275 6.51963 13.6025 6.14456 14.0647 6.14456Z" fill="#C9C9CB"/>
</svg>
