<svg width="36" height="36" viewBox="0 0 36 36" fill="none" xmlns="http://www.w3.org/2000/svg">
<g id="Group 1171276405">
<g id="Group 289287">
<rect id="Rectangle 17" width="36" height="36" rx="18" fill="#4172F4"/>
</g>
<g id="Top Up">
<path id="Vector" d="M26.9999 15.9235V24.2312C26.9999 24.9656 26.7082 25.67 26.1888 26.1893C25.6695 26.7086 24.9651 27.0004 24.2307 27.0004H11.7692C11.0348 27.0004 10.3304 26.7086 9.81108 26.1893C9.29176 25.67 9 24.9656 9 24.2312V15.9235C9 15.1891 9.29176 14.4847 9.81108 13.9654C10.3304 13.4461 11.0348 13.1543 11.7692 13.1543H20.1461C20.2834 13.8331 20.6212 14.4552 21.1157 14.94C21.6103 15.4248 22.2389 15.7501 22.9204 15.8739C23.6018 15.9976 24.3047 15.9142 24.9381 15.6342C25.5716 15.3543 26.1065 14.8907 26.4738 14.3035C26.815 14.7748 26.9991 15.3417 26.9999 15.9235Z" stroke="black" stroke-width="1.4" stroke-linecap="round" stroke-linejoin="round"/>
<path id="Vector_2" d="M23.5383 11.0769V13.8461M24.9229 12.4615H22.1537M22.1537 18H26.9998V22.1538H22.1537C21.6029 22.1538 21.0746 21.935 20.6851 21.5455C20.2956 21.156 20.0768 20.6277 20.0768 20.0769C20.0768 19.526 20.2956 18.9978 20.6851 18.6083C21.0746 18.2188 21.6029 18 22.1537 18ZM26.9998 12.4615C27.0007 13.3199 26.6826 14.1481 26.1072 14.7851C25.5318 15.4222 24.7403 15.8227 23.8862 15.909C23.0321 15.9953 22.1765 15.7611 21.4853 15.252C20.7942 14.7429 20.3169 13.9951 20.146 13.1538C20.0983 12.9262 20.0751 12.6941 20.0768 12.4615C20.0768 11.5435 20.4415 10.663 21.0907 10.0139C21.7398 9.3647 22.6203 9 23.5383 9C24.4564 9 25.3368 9.3647 25.986 10.0139C26.6352 10.663 26.9998 11.5435 26.9998 12.4615Z" stroke="black" stroke-width="1.4" stroke-linecap="round" stroke-linejoin="round"/>
</g>
</g>
</svg>
