<svg width="20" height="20" viewBox="0 0 20 20" fill="none" xmlns="http://www.w3.org/2000/svg">
<path d="M18.9999 7.92351V16.2312C18.9999 16.9656 18.7082 17.67 18.1888 18.1893C17.6695 18.7086 16.9651 19.0004 16.2307 19.0004H3.76922C3.03478 19.0004 2.33041 18.7086 1.81108 18.1893C1.29176 17.67 1 16.9656 1 16.2312V7.92351C1 7.18907 1.29176 6.48471 1.81108 5.96538C2.33041 5.44605 3.03478 5.1543 3.76922 5.1543H12.1461C12.2834 5.83312 12.6212 6.45516 13.1157 6.93998C13.6103 7.42481 14.2389 7.75013 14.9204 7.87389C15.6018 7.99765 16.3047 7.91415 16.9381 7.6342C17.5716 7.35425 18.1065 6.89072 18.4738 6.30352C18.815 6.77483 18.9991 7.34165 18.9999 7.92351Z" stroke="black" stroke-width="1.4" stroke-linecap="round" stroke-linejoin="round"/>
<path d="M15.5384 3.07691V5.84613M16.923 4.46152H14.1538M14.1538 9.99996H18.9999V14.1538H14.1538C13.6029 14.1538 13.0747 13.935 12.6852 13.5455C12.2957 13.156 12.0769 12.6277 12.0769 12.0769C12.0769 11.526 12.2957 10.9978 12.6852 10.6083C13.0747 10.2188 13.6029 9.99996 14.1538 9.99996ZM18.9999 4.46152C19.0008 5.31995 18.6826 6.14807 18.1073 6.78513C17.5319 7.42219 16.7403 7.82273 15.8863 7.909C15.0322 7.99527 14.1765 7.76111 13.4854 7.25198C12.7942 6.74286 12.3169 5.99508 12.1461 5.15383C12.0984 4.92619 12.0752 4.6941 12.0769 4.46152C12.0769 3.54347 12.4416 2.66302 13.0907 2.01386C13.7399 1.3647 14.6203 1 15.5384 1C16.4564 1 17.3369 1.3647 17.9861 2.01386C18.6352 2.66302 18.9999 3.54347 18.9999 4.46152Z" stroke="black" stroke-width="1.4" stroke-linecap="round" stroke-linejoin="round"/>
</svg>
