<svg width="36" height="36" viewBox="0 0 36 36" fill="none" xmlns="http://www.w3.org/2000/svg">
<rect width="36" height="36" rx="18" fill="#0484FF"/>
<path d="M18.1095 10.0002C18.5113 10.0002 18.8434 10.2988 18.896 10.6862L18.9032 10.7939L18.9031 23.2822L21.8624 20.311C22.1717 20.0003 22.6743 19.9992 22.985 20.3084C23.2674 20.5896 23.294 21.0305 23.0642 21.3417L22.9876 21.4309L18.6719 25.7665C18.6459 25.7921 18.6194 25.8153 18.5915 25.8367L18.6719 25.7665C18.633 25.8057 18.591 25.8399 18.5467 25.8692C18.5313 25.8788 18.5152 25.8886 18.4988 25.8979C18.4835 25.9071 18.468 25.9151 18.4523 25.9227C18.4368 25.9295 18.4211 25.9364 18.4051 25.9429C18.3848 25.9515 18.364 25.9589 18.343 25.9654C18.3305 25.9687 18.3178 25.9722 18.305 25.9755C18.2821 25.9818 18.2592 25.9865 18.2361 25.9902C18.2253 25.9914 18.2139 25.993 18.2025 25.9943C18.1764 25.9979 18.1506 25.9997 18.1247 26.0002C18.1196 25.9997 18.1146 25.9997 18.1095 25.9997L18.094 26.0002C18.0682 25.9997 18.0423 25.9979 18.0166 25.9949L18.1095 25.9997C18.0662 25.9997 18.0238 25.9963 17.9824 25.9896C17.9596 25.9865 17.9366 25.9818 17.9138 25.976C17.9018 25.9724 17.8897 25.969 17.8778 25.9654C17.855 25.959 17.8324 25.951 17.8101 25.942C17.7979 25.9364 17.7862 25.9312 17.7746 25.9258C17.7563 25.918 17.738 25.9086 17.7199 25.8985C17.7037 25.8886 17.6877 25.8788 17.6721 25.8684C17.6598 25.8611 17.6478 25.8527 17.636 25.8438L17.6275 25.8367C17.5995 25.8153 17.5731 25.7921 17.5482 25.7673L17.5468 25.7665L13.2312 21.4309C12.9219 21.1202 12.9231 20.6177 13.2338 20.3084C13.5162 20.0273 13.9573 20.0027 14.2675 20.2339L14.3563 20.311L17.3156 23.2843L17.3157 10.7939C17.3157 10.3556 17.6711 10.0002 18.1095 10.0002Z" fill="black"/>
</svg>
