<svg width="36" height="36" viewBox="0 0 36 36" fill="none" xmlns="http://www.w3.org/2000/svg">
<rect width="36" height="36" rx="18" fill="#0484FF"/>
<path d="M22.5628 12.4945C22.9117 12.4945 23.2002 12.7538 23.2458 13.0903L23.2521 13.1838L23.252 24.0296L25.8221 21.4492C26.0907 21.1793 26.5271 21.1783 26.797 21.4469C27.0423 21.6911 27.0654 22.074 26.8658 22.3443L26.7992 22.4218L23.0512 26.1871C23.0286 26.2093 23.0056 26.2295 22.9814 26.248L23.0512 26.1871C23.0174 26.2211 22.9809 26.2508 22.9425 26.2763C22.929 26.2846 22.9151 26.2932 22.9008 26.3012C22.8876 26.3092 22.8741 26.3162 22.8605 26.3227C22.847 26.3287 22.8334 26.3347 22.8195 26.3403C22.8019 26.3478 22.7838 26.3542 22.7655 26.3598C22.7547 26.3627 22.7437 26.3658 22.7326 26.3686C22.7127 26.374 22.6928 26.3782 22.6727 26.3814C22.6633 26.3825 22.6535 26.3838 22.6435 26.385C22.6209 26.3881 22.5984 26.3896 22.576 26.39C22.5715 26.3896 22.5672 26.3897 22.5628 26.3897L22.5493 26.39C22.5269 26.3896 22.5044 26.3881 22.4821 26.3855L22.5628 26.3897C22.5252 26.3897 22.4883 26.3867 22.4524 26.3809C22.4325 26.3782 22.4126 26.374 22.3928 26.369C22.3824 26.3659 22.3719 26.363 22.3615 26.3598C22.3418 26.3543 22.3221 26.3474 22.3028 26.3395C22.2922 26.3346 22.282 26.3302 22.2719 26.3255C22.256 26.3187 22.2401 26.3105 22.2244 26.3017C22.2103 26.2931 22.1964 26.2846 22.1829 26.2756C22.1722 26.2693 22.1618 26.2619 22.1515 26.2543L22.1441 26.248C22.1199 26.2295 22.0969 26.2093 22.0753 26.1878L22.0741 26.1871L18.3261 22.4218C18.0575 22.152 18.0585 21.7155 18.3283 21.4469C18.5736 21.2027 18.9567 21.1814 19.2261 21.3822L19.3032 21.4492L21.8733 24.0314L21.8734 13.1838C21.8734 12.8031 22.182 12.4945 22.5628 12.4945ZM13.4372 10.0004L13.4507 10C13.4731 10.0004 13.4956 10.002 13.5179 10.0046L13.4372 10.0004C13.4748 10.0004 13.5116 10.0034 13.5476 10.0092C13.5672 10.0118 13.5869 10.0159 13.6065 10.0208C13.618 10.0242 13.6297 10.0275 13.6413 10.0311C13.6594 10.0362 13.6769 10.0424 13.6942 10.0493C13.7067 10.0549 13.7194 10.0604 13.7318 10.0663C13.7466 10.0727 13.7612 10.0802 13.7756 10.0883C13.7878 10.0959 13.8 10.1033 13.8119 10.111C13.8242 10.1183 13.8364 10.1268 13.8485 10.1358L13.9259 10.2029L17.6739 13.9683C17.9425 14.2381 17.9415 14.6746 17.6717 14.9431C17.4264 15.1873 17.0433 15.2087 16.7739 15.0078L16.6968 14.9409L14.126 12.3576L14.1266 23.2062C14.1266 23.5869 13.818 23.8956 13.4372 23.8956C13.0883 23.8956 12.7998 23.6362 12.7542 23.2998L12.7479 23.2062L12.7473 12.3585L10.1779 14.9409C9.93375 15.1862 9.55083 15.2093 9.2805 15.0097L9.20303 14.9431C8.95773 14.699 8.9346 14.3161 9.13421 14.0457L9.20078 13.9683L12.9488 10.2029L12.9894 10.1657C12.9989 10.1575 13.0087 10.1496 13.0186 10.142L12.9488 10.2029C12.9826 10.1689 13.0191 10.1392 13.0575 10.1138C13.071 10.1054 13.0849 10.0969 13.0992 10.0888C13.1124 10.0809 13.1259 10.0739 13.1395 10.0673C13.153 10.0614 13.1666 10.0554 13.1805 10.0498C13.1981 10.0422 13.2162 10.0359 13.2345 10.0303C13.2456 10.0273 13.257 10.0241 13.2685 10.0212C13.287 10.0161 13.3057 10.0122 13.3246 10.0091C13.3359 10.0077 13.347 10.0061 13.3581 10.0049C13.3794 10.0019 13.4013 10.0005 13.4231 10C13.4279 10.0004 13.4326 10.0004 13.4372 10.0004Z" fill="black"/>
</svg>
