<svg width="36" height="36" viewBox="0 0 36 36" fill="none" xmlns="http://www.w3.org/2000/svg">
<rect width="36" height="36" rx="18" fill="#0484FF"/>
<path d="M17.9303 10.0004L17.9452 10C17.9701 10.0005 17.9951 10.0022 18.0199 10.0051L17.9303 10.0004C17.972 10.0004 18.0129 10.0038 18.0529 10.0102C18.0747 10.0132 18.0966 10.0177 18.1183 10.0232C18.1311 10.0269 18.1441 10.0306 18.157 10.0345C18.1771 10.0402 18.1966 10.0471 18.2158 10.0548C18.2297 10.061 18.2437 10.0671 18.2576 10.0737C18.274 10.0808 18.2902 10.0892 18.3062 10.0981C18.3198 10.1066 18.3333 10.1147 18.3466 10.1233C18.3602 10.1314 18.3738 10.1409 18.3872 10.1509L18.4732 10.2254L22.6377 14.4092C22.9361 14.709 22.935 15.194 22.6352 15.4924C22.3626 15.7637 21.937 15.7874 21.6377 15.5642L21.552 15.4899L18.6955 12.6195L18.6962 24.6736C18.6962 25.0966 18.3533 25.4395 17.9303 25.4395C17.5425 25.4395 17.222 25.1514 17.1713 24.7775L17.1643 24.6736L17.1637 12.6205L14.3088 15.4899C14.0375 15.7624 13.612 15.7881 13.3117 15.5663L13.2256 15.4924C12.953 15.2211 12.9273 14.7956 13.1491 14.4953L13.2231 14.4092L17.3875 10.2254L17.4326 10.1841C17.4432 10.175 17.4541 10.1663 17.4651 10.1578L17.3875 10.2254C17.4251 10.1877 17.4656 10.1547 17.5084 10.1264C17.5233 10.1171 17.5388 10.1076 17.5546 10.0987C17.5693 10.0898 17.5843 10.0821 17.5995 10.0748C17.6144 10.0682 17.6296 10.0615 17.645 10.0553C17.6646 10.0469 17.6847 10.0398 17.705 10.0336C17.7173 10.0303 17.73 10.0268 17.7428 10.0235C17.7633 10.0179 17.7841 10.0136 17.8051 10.0101C17.8176 10.0085 17.83 10.0068 17.8424 10.0054C17.866 10.0022 17.8903 10.0005 17.9146 10C17.9199 10.0005 17.9251 10.0004 17.9303 10.0004Z" fill="black"/>
</svg>
