<svg width="24" height="24" viewBox="0 0 24 24" fill="none" xmlns="http://www.w3.org/2000/svg">
<path fill-rule="evenodd" clip-rule="evenodd" d="M9.4524 14.9472L9.59533 14.9472L9.91209 14.9481C12.6024 14.9625 18.9048 15.207 18.9048 19.3644C18.9048 23.2189 13.7287 23.734 9.70249 23.7534L8.99271 23.7531C6.30238 23.7387 0 23.4942 0 19.338C0 15.402 5.394 14.9472 9.4524 14.9472ZM9.4524 16.7472C4.3752 16.7472 1.8 17.6196 1.8 19.338C1.8 21.0732 4.3752 21.954 9.4524 21.954C14.5296 21.954 17.1048 21.0816 17.1048 19.3644C17.1048 17.6268 14.5296 16.7472 9.4524 16.7472ZM20.6449 7.10244C21.1417 7.10244 21.5449 7.50564 21.5449 8.00244L21.5448 9.5076L23.1 9.50856C23.5968 9.50856 24 9.91176 24 10.4086C24 10.9054 23.5968 11.3086 23.1 11.3086L21.5448 11.3076L21.5449 12.8156C21.5449 13.3124 21.1417 13.7156 20.6449 13.7156C20.1481 13.7156 19.7449 13.3124 19.7449 12.8156L19.7448 11.3076L18.192 11.3086C17.6952 11.3086 17.292 10.9054 17.292 10.4086C17.292 9.91176 17.6952 9.50856 18.192 9.50856L19.7448 9.5076L19.7449 8.00244C19.7449 7.50564 20.1481 7.10244 20.6449 7.10244ZM9.4524 0C12.972 0 15.834 2.8632 15.834 6.3816C15.834 9.9 12.972 12.7632 9.4524 12.7632H9.4152C7.7124 12.7572 6.1164 12.0888 4.92 10.884C3.7224 9.678 3.066 8.0772 3.07196 6.378C3.07196 2.8632 5.934 0 9.4524 0ZM9.4524 1.8C6.9276 1.8 4.87196 3.8556 4.87196 6.3816C4.8672 7.6044 5.3376 8.7504 6.1956 9.6156C7.0548 10.4796 8.1996 10.9584 9.4188 10.9632L9.4524 11.8524V10.9632C11.9784 10.9632 14.034 8.9076 14.034 6.3816C14.034 3.8556 11.9784 1.8 9.4524 1.8Z" fill="#C9C9CB"/>
</svg>
