<svg width="1147" height="371" viewBox="0 0 1147 371" fill="none" xmlns="http://www.w3.org/2000/svg">
<path d="M496.817 365.647H403.944L462.033 6.50928H554.901L496.817 365.647Z" fill="white"/>
<path d="M833.448 15.2899C815.13 8.02328 786.075 0 750.149 0C658.435 0 593.85 48.9013 593.454 118.815C592.692 170.398 639.694 199.048 674.849 216.247C710.78 233.822 722.994 245.294 722.994 260.959C722.628 285.019 693.959 296.109 667.22 296.109C630.142 296.109 610.274 290.392 580.082 277.006L567.853 271.268L554.856 351.886C576.639 361.809 616.77 370.614 658.435 371C755.883 371 819.325 322.855 820.076 248.351C820.447 207.468 795.628 176.141 742.12 150.543C709.637 134.11 689.744 123.03 689.744 106.217C690.125 90.9321 706.57 75.2765 743.237 75.2765C773.429 74.5097 795.613 81.7662 812.418 89.0278L820.818 92.8414L833.448 15.2899Z" fill="white"/>
<path d="M956.932 238.417C964.58 217.785 994.011 137.933 994.011 137.933C993.625 138.7 1001.64 116.921 1006.23 103.55L1012.72 134.496C1012.72 134.496 1030.31 220.461 1034.13 238.417C1019.61 238.417 975.276 238.417 956.932 238.417ZM1071.57 6.50928H999.735C977.582 6.50928 960.751 12.999 951.193 36.3071L813.243 365.642H910.691C910.691 365.642 926.735 321.316 930.183 311.769C940.874 311.769 1035.67 311.769 1049.42 311.769C1052.09 324.378 1060.51 365.642 1060.51 365.642H1146.5L1071.57 6.50928V6.50928Z" fill="white"/>
<path d="M326.363 6.50928L235.41 251.407L225.471 201.739C208.656 144.428 155.92 82.1616 97.0688 51.2009L180.378 365.266H278.588L424.568 6.50928H326.363V6.50928Z" fill="white"/>
<path d="M150.951 6.50928H1.52865L0 13.7666C116.559 43.5729 193.754 115.42 225.47 201.776L192.987 36.7016C187.639 13.7615 171.205 7.26599 150.951 6.50928Z" fill="#FAA61A"/>
</svg>
