<svg width="44" height="44" viewBox="0 0 44 44" fill="none" xmlns="http://www.w3.org/2000/svg">
<rect width="44" height="44" rx="22" fill="#2AB9D9"/>
<path d="M18.8421 27.4211V17.3158C18.8421 16.6458 19.1083 16.0032 19.582 15.5294C20.0558 15.0556 20.6984 14.7895 21.3684 14.7895H32.7368V13.5263C32.7368 12.1368 31.6 11 30.2105 11H12.5263C11.8563 11 11.2137 11.2662 10.7399 11.7399C10.2662 12.2137 10 12.8563 10 13.5263V31.2105C10 31.8805 10.2662 32.5231 10.7399 32.9969C11.2137 33.4707 11.8563 33.7368 12.5263 33.7368H30.2105C31.6 33.7368 32.7368 32.6 32.7368 31.2105V29.9474H21.3684C20.6984 29.9474 20.0558 29.6812 19.582 29.2074C19.1083 28.7337 18.8421 28.0911 18.8421 27.4211ZM22.6316 17.3158C21.9368 17.3158 21.3684 17.8842 21.3684 18.5789V26.1579C21.3684 26.8526 21.9368 27.4211 22.6316 27.4211H34V17.3158H22.6316ZM26.4211 24.2632C25.3726 24.2632 24.5263 23.4168 24.5263 22.3684C24.5263 21.32 25.3726 20.4737 26.4211 20.4737C27.4695 20.4737 28.3158 21.32 28.3158 22.3684C28.3158 23.4168 27.4695 24.2632 26.4211 24.2632Z" fill="white"/>
</svg>
